<?xml version="1.0" encoding="UTF-8"?>
<svg xmlns="http://www.w3.org/2000/svg" xmlns:xlink="http://www.w3.org/1999/xlink" width="px" height="px" viewBox="0 0 320 240" version="1.1">
<g id="surface1">
<rect x="0" y="0" width="320" height="240" style="fill:rgb(100%,0%,0%);fill-opacity:1;stroke:none;"/>
<path style=" stroke:none;fill-rule:nonzero;fill:rgb(0%,0%,0.392157%);fill-opacity:1;" d="M 136 46.648438 C 133.699219 46.648438 129.851562 47.398438 129.898438 49.148438 C 123.398438 48.101562 122.75 50.75 123.148438 53.148438 C 123.816406 52.183594 124.464844 51.667969 125.101562 51.601562 C 125.933594 51.5 126.832031 51.734375 127.800781 52.300781 C 128.695312 52.863281 129.503906 53.554688 130.199219 54.351562 C 127.898438 54.898438 126.101562 54.550781 124.300781 54.25 C 123.285156 54.027344 122.320312 53.621094 121.449219 53.050781 C 120.699219 52.550781 120.449219 52.050781 119.300781 50.898438 C 117.949219 49.5 116.5 49.898438 116.949219 52.050781 C 118 54.050781 119.75 54.949219 121.949219 55.351562 C 123 55.5 124.601562 55.851562 126.398438 55.851562 C 128.199219 55.851562 130.199219 55.601562 131.300781 55.851562 C 130.648438 56.25 129.898438 57 128.398438 57.25 C 126.898438 57.5 124.648438 56.351562 123.25 56.050781 C 123.398438 57.199219 124.898438 58.300781 127.800781 58.898438 C 132.601562 59.898438 136.550781 60.699219 139.199219 62.148438 C 141.296875 63.316406 143.148438 64.878906 144.648438 66.75 C 147 69.5 147.148438 71.648438 147.25 72.148438 C 147.75 76.550781 146.199219 79.050781 143.300781 79.851562 C 141.898438 80.199219 139.300781 79.5 138.398438 78.398438 C 137.398438 77.300781 136.550781 75.398438 136.800781 72.398438 C 137.050781 71.300781 138.351562 68.25 137.25 67.648438 C 132.035156 64.785156 126.640625 62.261719 121.101562 60.101562 C 119.851562 59.601562 118.851562 61.300781 118.449219 62 C 110.96875 60.972656 104.351562 56.617188 100.449219 50.148438 C 98.351562 46.351562 94.800781 50.148438 95.398438 53.800781 C 96.351562 57.800781 99.398438 60.699219 103.101562 62.800781 C 106.800781 64.898438 111.601562 66.898438 116.351562 66.800781 C 118.949219 67.300781 118.898438 70.601562 115.851562 71.25 C 109.800781 71.25 104.949219 71.148438 100.398438 66.75 C 96.949219 63.601562 95.050781 67.351562 96 69.449219 C 97.699219 76 107.050781 77.851562 116.5 75.75 C 120.199219 75.148438 118 79.050781 117 79.101562 C 113 81.949219 105.949219 84.699219 99.699219 79.101562 C 96.851562 76.898438 94.898438 78.699219 96 81.851562 C 98.75 90.101562 109.351562 88.351562 116.601562 84.351562 C 118.449219 83.300781 120.148438 85.699219 117.898438 87.550781 C 108.851562 93.851562 104.351562 93.949219 100.25 91.550781 C 95.148438 89.5 94.75 95.148438 97.75 97.050781 C 101.101562 99.050781 109.648438 97.550781 115.949219 93.550781 C 118.648438 91.550781 118.75 94.699219 117.050781 95.949219 C 109.601562 102.398438 106.648438 104.101562 98.898438 103.050781 C 95.050781 102.75 95.101562 107.5 98.101562 109.351562 C 102.25 111.898438 110.351562 107.699219 116.601562 102.449219 C 119.25 101.050781 119.699219 103.351562 118.398438 106.101562 C 115.628906 110.015625 111.867188 113.121094 107.5 115.101562 C 104 116.449219 100.699219 116.25 98.351562 115.449219 C 95.449219 114.449219 95.101562 117.449219 96.699219 120.148438 C 97.648438 121.800781 101.601562 122.300781 105.898438 120.800781 C 110.199219 119.300781 114.800781 115.699219 117.949219 111.550781 C 120.699219 109.101562 120.398438 112.351562 119.101562 114.648438 C 112.800781 124.648438 107 128.351562 99.351562 127.75 C 96 127.148438 95.199219 129.75 97.351562 132.25 C 101.148438 135.351562 105.851562 135.25 110.050781 132.148438 C 113.699219 128.648438 120.75 120.949219 124.449219 116.851562 C 127.050781 114.800781 127.898438 116.851562 127.101562 121.050781 C 126.398438 123.449219 124.699219 126.050781 119.949219 127.851562 C 116.699219 129.699219 119.148438 132.25 121.550781 132.351562 C 122.898438 132.351562 125.601562 130.75 127.699219 128.449219 C 130.398438 125.351562 130.601562 123.300781 132.101562 118.5 C 133.5 116.199219 136.050781 117.300781 136.050781 119.699219 C 134.800781 124.5 133.800781 125.351562 131.300781 127.300781 C 128.949219 129.550781 132.949219 130.300781 134.300781 129.351562 C 138.199219 126.75 139.601562 123.351562 140.898438 120.25 C 141.898438 118.050781 144.601562 119.101562 143.300781 122.75 C 140.300781 131.449219 135.300781 134.851562 126.648438 136.648438 C 125.800781 136.800781 125.25 137.300781 125.550781 138.300781 L 129.050781 141.800781 C 123.699219 143.398438 119.351562 144.300781 113.949219 145.800781 L 106.550781 140.898438 C 105.898438 139.300781 105.550781 136.800781 101.648438 138.550781 C 99.050781 137.351562 97.800781 137.800781 96.351562 139.050781 C 98.449219 139.050781 99.351562 139.648438 100.199219 140.601562 C 101.300781 143.449219 103.800781 143.75 106.351562 142.949219 C 108 144.300781 108.851562 145.398438 110.550781 146.800781 L 102.199219 146.550781 C 99.199219 143.398438 96.898438 143.550781 94.800781 146.050781 C 93.148438 146.300781 92.5 146.300781 91.398438 148.25 C 93.101562 147.550781 94.199219 147.351562 94.949219 148.101562 C 98.101562 149.949219 100.148438 149.550781 101.699219 148.101562 L 110.449219 148.648438 C 109.351562 149.648438 107.851562 150.148438 106.699219 151.050781 C 102.199219 149.75 99.800781 151.550781 99 155.199219 C 98.367188 156.664062 98.160156 158.273438 98.398438 159.851562 C 98.765625 158.316406 99.582031 157.148438 100.851562 156.351562 C 104.851562 157.351562 106.351562 155.699219 106.601562 153.300781 C 108.601562 151.699219 111.5 151.351562 113.449219 149.75 C 115.75 150.449219 116.851562 150.898438 119.148438 151.648438 C 119.949219 154.148438 121.832031 155.082031 124.800781 154.449219 C 128.300781 154.550781 127.699219 156.050781 128 157.199219 C 129 155.550781 128.949219 153.898438 126.75 152.398438 C 125.949219 150.25 124.148438 149.25 121.851562 150.5 C 119.648438 149.898438 119.101562 149 116.898438 148.351562 C 122.398438 146.601562 126.300781 146.199219 131.800781 144.449219 L 135.648438 147.851562 C 136.417969 148.351562 137.050781 148.351562 137.550781 147.851562 C 141 142.851562 142.550781 138.5 145.699219 135.199219 C 146.949219 133.800781 148.5 132 150.199219 131.550781 C 151.050781 131.300781 152.101562 131.449219 152.800781 132.199219 C 153.449219 132.898438 154 134.25 153.800781 136.300781 C 153.449219 139.148438 152.75 140.101562 151.949219 141.800781 C 151.148438 143.5 150.148438 144.601562 149.101562 145.949219 C 147.101562 148.601562 144.398438 150.148438 142.800781 151.199219 C 139.601562 153.25 138.300781 152.351562 135.800781 152.199219 C 132.601562 152.550781 131.800781 154.101562 134.398438 156.25 C 136.800781 157.550781 139 157.699219 140.800781 157.351562 C 142.300781 157.050781 144.101562 155.101562 145.398438 154.050781 C 146.800781 152.398438 149.199219 154.351562 147.550781 156.300781 C 144.601562 159.800781 141.699219 162.101562 138.050781 162.050781 C 134.199219 162.550781 134.949219 164.699219 137.449219 165.75 C 142.050781 167.601562 146.148438 164.101562 148.25 161.75 C 149.851562 160 151 159.949219 150.75 162.699219 C 149.101562 167.648438 146.949219 169.550781 143.351562 169.800781 C 140.449219 169.5 140.398438 171.800781 142.550781 173.300781 C 147.351562 176.601562 150.851562 170.898438 152.5 167.5 C 153.648438 164.398438 155.449219 165.851562 155.648438 168.398438 C 155.648438 171.851562 154.148438 174.601562 150 178.101562 C 153.148438 183.148438 156.851562 188.300781 160 193.351562 L 169.601562 86.351562 L 160 69.5 C 159 68.601562 155.601562 64.601562 154.75 64 C 154.398438 63.699219 154.25 63.5 154.699219 63.300781 C 155.148438 63.101562 156.199219 62.898438 156.949219 62.800781 C 154.949219 60.75 153.148438 60.101562 149.300781 59 C 150.25 58.601562 151.148438 58.800781 153.949219 58.699219 C 152.234375 56.386719 149.894531 54.617188 147.199219 53.601562 C 149.300781 52.101562 149.699219 52 151.800781 50.25 C 148.488281 49.996094 145.214844 49.359375 142.050781 48.351562 C 140.160156 47.449219 138.132812 46.875 136.050781 46.648438 Z M 136.398438 50.851562 C 138.300781 50.851562 139.449219 51.5 139.449219 52.300781 C 139.449219 53.101562 138.300781 53.75 136.398438 53.75 C 134.5 53.75 133.300781 53 133.300781 52.25 C 133.300781 51.449219 134.5 50.851562 136.398438 50.851562 "/>
<path style=" stroke:none;fill-rule:nonzero;fill:rgb(0%,0%,0.392157%);fill-opacity:1;" d="M 184 46.648438 C 186.300781 46.648438 190.148438 47.398438 190.101562 49.148438 C 196.601562 48.101562 197.25 50.75 196.851562 53.148438 C 196.183594 52.183594 195.535156 51.667969 194.898438 51.601562 C 194.066406 51.5 193.167969 51.734375 192.199219 52.300781 C 191.304688 52.863281 190.496094 53.554688 189.800781 54.351562 C 192.101562 54.898438 193.898438 54.550781 195.699219 54.25 C 196.714844 54.027344 197.679688 53.621094 198.550781 53.050781 C 199.300781 52.550781 199.550781 52.050781 200.699219 50.898438 C 202.050781 49.5 203.5 49.898438 203.050781 52.050781 C 202 54.050781 200.25 54.949219 198.050781 55.351562 C 197 55.5 195.398438 55.851562 193.601562 55.851562 C 191.800781 55.851562 189.800781 55.601562 188.699219 55.851562 C 189.351562 56.25 190.101562 57 191.601562 57.25 C 193.101562 57.5 195.351562 56.351562 196.75 56.050781 C 196.601562 57.199219 195.101562 58.300781 192.199219 58.898438 C 187.398438 59.898438 183.449219 60.699219 180.800781 62.148438 C 178.703125 63.316406 176.851562 64.878906 175.351562 66.75 C 173 69.5 172.851562 71.648438 172.75 72.148438 C 172.25 76.550781 173.800781 79.050781 176.699219 79.851562 C 178.101562 80.199219 180.699219 79.5 181.601562 78.398438 C 182.601562 77.300781 183.449219 75.398438 183.199219 72.398438 C 182.949219 71.300781 181.648438 68.25 182.75 67.648438 C 187.964844 64.785156 193.359375 62.261719 198.898438 60.101562 C 200.148438 59.601562 201.148438 61.300781 201.550781 62 C 209.03125 60.972656 215.648438 56.617188 219.550781 50.148438 C 221.648438 46.351562 225.199219 50.148438 224.601562 53.800781 C 223.648438 57.800781 220.601562 60.699219 216.898438 62.800781 C 213.199219 64.898438 208.398438 66.898438 203.648438 66.800781 C 201.050781 67.300781 201.101562 70.601562 204.148438 71.25 C 210.199219 71.25 215.050781 71.148438 219.601562 66.75 C 223.050781 63.601562 224.949219 67.351562 224 69.449219 C 222.300781 76 212.949219 77.851562 203.5 75.75 C 199.800781 75.148438 202 79.050781 203 79.101562 C 207 81.949219 214.050781 84.699219 220.300781 79.101562 C 223.148438 76.898438 225.101562 78.699219 224 81.851562 C 221.25 90.101562 210.648438 88.351562 203.398438 84.351562 C 201.550781 83.300781 199.851562 85.699219 202.101562 87.550781 C 211.148438 93.851562 215.648438 93.949219 219.75 91.550781 C 224.851562 89.5 225.25 95.148438 222.25 97.050781 C 218.898438 99.050781 210.351562 97.550781 204.050781 93.550781 C 201.351562 91.550781 201.25 94.699219 202.949219 95.949219 C 210.398438 102.398438 213.351562 104.101562 221.101562 103.050781 C 224.949219 102.75 224.898438 107.5 221.898438 109.351562 C 217.75 111.898438 209.648438 107.699219 203.398438 102.449219 C 200.75 101.050781 200.300781 103.351562 201.601562 106.101562 C 204.371094 110.015625 208.132812 113.121094 212.5 115.101562 C 216 116.449219 219.300781 116.25 221.648438 115.449219 C 224.550781 114.449219 224.898438 117.449219 223.300781 120.148438 C 222.351562 121.800781 218.398438 122.300781 214.101562 120.800781 C 209.800781 119.300781 205.199219 115.699219 202.050781 111.550781 C 199.300781 109.101562 199.601562 112.351562 200.898438 114.648438 C 207.199219 124.648438 213 128.351562 220.648438 127.75 C 224 127.148438 224.800781 129.75 222.648438 132.25 C 218.851562 135.351562 214.148438 135.25 209.949219 132.148438 C 206.300781 128.648438 199.25 120.949219 195.550781 116.851562 C 192.949219 114.800781 192.101562 116.851562 192.898438 121.050781 C 193.601562 123.449219 195.300781 126.050781 200.050781 127.851562 C 203.300781 129.699219 200.851562 132.25 198.449219 132.351562 C 197.101562 132.351562 194.398438 130.75 192.300781 128.449219 C 189.601562 125.351562 189.398438 123.300781 187.898438 118.5 C 186.5 116.199219 183.949219 117.300781 183.949219 119.699219 C 185.199219 124.5 186.199219 125.351562 188.699219 127.300781 C 191.050781 129.550781 187.050781 130.300781 185.699219 129.351562 C 181.800781 126.75 180.398438 123.351562 179.101562 120.25 C 178.101562 118.050781 175.398438 119.101562 176.699219 122.75 C 179.699219 131.449219 184.699219 134.851562 193.351562 136.648438 C 194.199219 136.800781 194.75 137.300781 194.449219 138.300781 L 190.949219 141.800781 C 196.300781 143.398438 200.648438 144.300781 206.050781 145.800781 L 213.449219 140.898438 C 214.101562 139.300781 214.449219 136.800781 218.351562 138.550781 C 220.949219 137.351562 222.199219 137.800781 223.648438 139.050781 C 221.550781 139.050781 220.648438 139.648438 219.800781 140.601562 C 218.699219 143.449219 216.199219 143.75 213.648438 142.949219 C 212 144.300781 211.148438 145.398438 209.449219 146.800781 L 217.800781 146.550781 C 220.800781 143.398438 223.101562 143.550781 225.199219 146.050781 C 226.851562 146.300781 227.5 146.300781 228.601562 148.25 C 226.898438 147.550781 225.800781 147.351562 225.050781 148.101562 C 221.898438 149.949219 219.851562 149.550781 218.300781 148.101562 L 209.550781 148.648438 C 210.648438 149.648438 212.148438 150.148438 213.300781 151.050781 C 217.800781 149.75 220.199219 151.550781 221 155.199219 C 221.632812 156.664062 221.839844 158.273438 221.601562 159.851562 C 221.234375 158.316406 220.417969 157.148438 219.148438 156.351562 C 215.148438 157.351562 213.648438 155.699219 213.398438 153.300781 C 211.398438 151.699219 208.5 151.351562 206.550781 149.75 C 204.25 150.449219 203.148438 150.898438 200.851562 151.648438 C 200.050781 154.148438 198.167969 155.082031 195.199219 154.449219 C 191.699219 154.550781 192.300781 156.050781 192 157.199219 C 191 155.550781 191.050781 153.898438 193.25 152.398438 C 194.050781 150.25 195.851562 149.25 198.148438 150.5 C 200.351562 149.898438 200.898438 149 203.101562 148.351562 C 197.601562 146.601562 193.699219 146.199219 188.199219 144.449219 L 184.351562 147.851562 C 183.582031 148.351562 182.949219 148.351562 182.449219 147.851562 C 179 142.851562 177.449219 138.5 174.300781 135.199219 C 173.050781 133.800781 171.5 132 169.800781 131.550781 C 168.949219 131.300781 167.898438 131.449219 167.199219 132.199219 C 166.550781 132.898438 166 134.25 166.199219 136.300781 C 166.550781 139.148438 167.25 140.101562 168.050781 141.800781 C 168.851562 143.5 169.851562 144.601562 170.898438 145.949219 C 172.898438 148.601562 175.601562 150.148438 177.199219 151.199219 C 180.398438 153.25 181.699219 152.351562 184.199219 152.199219 C 187.398438 152.550781 188.199219 154.101562 185.601562 156.25 C 183.199219 157.550781 181 157.699219 179.199219 157.351562 C 177.699219 157.050781 175.898438 155.101562 174.601562 154.050781 C 173.199219 152.398438 170.800781 154.351562 172.449219 156.300781 C 175.398438 159.800781 178.300781 162.101562 181.949219 162.050781 C 185.800781 162.550781 185.050781 164.699219 182.550781 165.75 C 177.949219 167.601562 173.851562 164.101562 171.75 161.75 C 170.148438 160 169 159.949219 169.25 162.699219 C 170.898438 167.648438 173.050781 169.550781 176.648438 169.800781 C 179.550781 169.5 179.601562 171.800781 177.449219 173.300781 C 172.648438 176.601562 169.148438 170.898438 167.5 167.5 C 166.351562 164.398438 164.550781 165.851562 164.351562 168.398438 C 164.351562 171.851562 165.851562 174.601562 170 178.101562 C 166.851562 183.148438 163.148438 188.300781 160 193.351562 L 150.398438 86.351562 L 160 69.5 C 161 68.601562 164.398438 64.601562 165.25 64 C 165.601562 63.699219 165.75 63.5 165.300781 63.300781 C 164.851562 63.101562 163.800781 62.898438 163.050781 62.800781 C 165.050781 60.75 166.851562 60.101562 170.699219 59 C 169.75 58.601562 168.851562 58.800781 166.050781 58.699219 C 167.765625 56.386719 170.105469 54.617188 172.800781 53.601562 C 170.699219 52.101562 170.300781 52 168.199219 50.25 C 171.511719 49.996094 174.785156 49.359375 177.949219 48.351562 C 179.839844 47.449219 181.867188 46.875 183.949219 46.648438 Z M 183.601562 50.851562 C 181.699219 50.851562 180.550781 51.5 180.550781 52.300781 C 180.550781 53.101562 181.699219 53.75 183.601562 53.75 C 185.5 53.75 186.699219 53 186.699219 52.25 C 186.699219 51.449219 185.5 50.851562 183.601562 50.851562 "/>
</g>
</svg>
