<?xml version="1.0" encoding="UTF-8"?>
<svg xmlns="http://www.w3.org/2000/svg" xmlns:xlink="http://www.w3.org/1999/xlink" width="px" height="px" viewBox="0 0 320 240" version="1.1">
<g id="surface1">
<rect x="0" y="0" width="320" height="240" style="fill:rgb(22.745098%,49.019608%,80.784315%);fill-opacity:1;stroke:none;"/>
<path style=" stroke:none;fill-rule:nonzero;fill:rgb(100%,100%,100%);fill-opacity:1;" d="M 78.851562 115.398438 C 77.101562 111.5 77.101562 111.5 77.101562 107.601562 C 76.199219 107.601562 76.101562 107.75 75.601562 107.601562 C 75.050781 107.449219 74.851562 111.199219 73.199219 110.5 C 72.949219 110.101562 74.398438 107.398438 72.851562 106.25 C 72.351562 105.898438 72.949219 103.648438 72.75 102.648438 C 72.75 102.648438 70.75 103.851562 69.25 99.75 C 68.5 98.648438 67.5 100.75 67.5 100.75 C 67.5 100.75 67.949219 101.949219 67.148438 102.25 C 66.050781 101.351562 65.199219 101.851562 63.800781 100.550781 C 62.398438 99.25 64.101562 97.851562 61.398438 96.800781 C 63.148438 91.898438 63.148438 92.851562 67.5 90.898438 C 64.898438 88.898438 64.898438 88.898438 63.148438 86 C 60.550781 85 59.648438 84 57.050781 82.101562 C 53.550781 77.148438 51.800781 67.351562 51.800781 60.5 C 54 58.199219 57.050781 68.351562 61.398438 71.300781 L 67.5 74.25 C 71 76.199219 71.851562 78.148438 74.5 80.101562 L 82.300781 83.101562 C 85.800781 86 87.550781 89.898438 90.148438 90.898438 C 93 90.898438 93.550781 89.050781 94.449219 88.949219 C 99.601562 88.648438 102.199219 87.949219 103.199219 86.199219 C 104.25 84.800781 106.699219 87 113.699219 84.050781 L 112.851562 80.101562 C 112.851562 80.101562 114.699219 78.398438 117.199219 79.101562 C 117.148438 77.351562 116.949219 72.601562 119.449219 70.398438 C 117.949219 68.648438 120.351562 65.898438 120.449219 65.050781 C 119.75 60.75 121.148438 60.699219 121.449219 59.398438 C 121.75 58.148438 120.25 58.550781 120.648438 56.800781 C 121.101562 55.050781 123.648438 54.648438 123.949219 53.199219 C 124.300781 51.75 123.398438 46.050781 123.300781 44.800781 C 128 43.398438 129.5 39.101562 131.148438 40.898438 C 132 35 132.898438 33 138.148438 33 C 138.851562 31.199219 136.199219 29.648438 137.25 29.050781 C 139 28.800781 140.300781 28.949219 142.351562 31.898438 C 143 32.898438 143.148438 30.550781 143.800781 30.300781 C 144.449219 30.050781 146 30.050781 146.25 28.898438 C 146.5 27.699219 146.851562 26.101562 147.75 24.148438 C 148.449219 22.550781 149 24.800781 149.648438 27.898438 C 153.351562 28.050781 161.648438 28.949219 165.148438 30.050781 C 167.75 30.800781 169.5 29.300781 172 28.949219 C 173.851562 31.050781 175.601562 29.449219 176.601562 33.949219 C 177.949219 36.351562 180.25 34.148438 180.75 34.851562 C 183.648438 43.898438 193.648438 37.800781 194.449219 37.949219 C 195.699219 37.949219 197.25 41.949219 198.300781 41.898438 C 199.898438 41.601562 199.449219 40.351562 200.898438 40.851562 C 200.5 44.25 203.699219 48.148438 203.699219 50.699219 C 203.699219 50.699219 204.449219 51.148438 205.199219 50.398438 C 205.898438 49.601562 206.550781 47.699219 207.199219 47.75 C 208.699219 48 218.199219 50.75 220.101562 51.699219 C 220.949219 53.449219 221.75 54.351562 223.5 54.050781 C 224.898438 55.101562 223.898438 56.550781 224.699219 56.601562 C 226.449219 55.601562 227.050781 54.601562 228.800781 55.550781 C 230.550781 56.550781 232.300781 58.5 233.148438 60.449219 C 233.148438 61.449219 232.25 65.351562 233.148438 71.25 C 233.601562 73.199219 238 87.398438 238 88.851562 C 238 90.851562 236.648438 91.851562 235.75 93.800781 C 239.25 96.75 235.75 101.648438 234 104.601562 C 247.101562 107.550781 241 113.398438 251.449219 110.449219 C 248.851562 117.351562 249.75 116.800781 252.351562 123.648438 C 247.148438 127.550781 252.25 128.75 248.800781 133.648438 C 248.550781 134 250.851562 137.949219 254.050781 137.949219 C 253.199219 145.75 250.550781 142.851562 251.449219 154.601562 C 244.601562 154.449219 247.351562 163.398438 242.75 162.449219 C 243 168.050781 245.351562 168.550781 244.449219 174.199219 C 240.949219 175.199219 240.949219 175.199219 239.25 178.148438 L 236.648438 177.148438 C 235.75 182.050781 234 183.050781 236.648438 187.949219 C 236.648438 187.949219 233.25 188.050781 232.25 187.949219 C 232.199219 189.648438 233.75 190.101562 234 191.851562 C 233.898438 192.550781 229.050781 195.648438 225.300781 195.800781 C 224.300781 198.199219 227.898438 200.800781 227.699219 202 C 223.601562 202.898438 221.800781 208.5 221.800781 208.5 C 221.800781 208.5 223.898438 209.5 223.550781 210.5 C 222.449219 209.601562 221.800781 209.5 220.050781 209.5 C 219.199219 209.75 217.050781 209.5 215.050781 213.351562 C 212.800781 214.148438 211.75 213.851562 210.050781 216.351562 C 209.300781 214 208.199219 216.398438 206.898438 217.351562 C 205.550781 218.25 203.800781 220.601562 203.550781 220.5 C 203.601562 219.800781 204.351562 217.351562 204.351562 217.351562 L 199.5 218.5 C 199.148438 218.550781 199.25 215.648438 198.398438 215.75 C 197.550781 215.851562 195.199219 219.398438 194.398438 219.5 C 193.601562 219.601562 193.351562 218.398438 192.648438 218.5 C 191.949219 218.601562 190.648438 222.25 190.148438 222.351562 C 189.648438 222.398438 187.648438 220.101562 186 220.449219 C 177.449219 223.851562 176.050781 213.75 174.75 219.449219 C 172.949219 218.351562 173.25 218.949219 171.398438 219.5 C 170.25 219.851562 170.148438 217.800781 169.101562 217.800781 C 167.050781 217.898438 167.101562 220.101562 166 219.449219 C 165.101562 214.851562 159.5 215.648438 159 213.699219 C 158.5 211.75 161.398438 211.699219 162.300781 210.300781 C 163 208.300781 161.550781 207.5 164.449219 205.601562 C 168.199219 202.75 167.851562 195.699219 166.898438 192.949219 C 166.898438 192.949219 163.949219 184.101562 163.398438 184.101562 C 161.648438 183.601562 161.648438 187.351562 159.101562 188.398438 C 153.851562 190.398438 144.601562 183.449219 143 183.449219 C 141.550781 183.449219 134.75 185.25 135 181.449219 C 134 185.148438 130.25 182.300781 130 182.300781 C 126.5 182.300781 127.851562 185.351562 125.5 185.25 C 124.449219 184.851562 113.699219 184.101562 113.699219 184.101562 L 113.699219 186.101562 L 100.648438 180.199219 C 95.398438 178.199219 98 173.351562 89.300781 176.300781 L 89.300781 170.398438 L 84.949219 170.398438 C 86.699219 158.601562 84.949219 164.5 84.050781 153.699219 L 80.550781 154.699219 C 77.050781 149.398438 85.449219 150.398438 77.949219 146.851562 C 77.949219 146.851562 78.101562 141 76.199219 142.949219 C 75.851562 143.199219 77.101562 145.851562 77.101562 145.851562 C 70.101562 144.851562 68.398438 142.949219 68.398438 135.101562 C 68.398438 135.101562 74.101562 136 73.601562 135.101562 C 72.800781 133.601562 71.75 124.101562 71.898438 123.398438 C 71.851562 122.101562 77.25 118.898438 76.199219 115.800781 C 76.898438 115.5 78.851562 115.449219 78.851562 115.449219 "/>
<path style="fill:none;stroke-width:2.5;stroke-linecap:butt;stroke-linejoin:round;stroke:rgb(100%,100%,100%);stroke-opacity:1;stroke-miterlimit:4;" d="M 595.503205 297.600595 C 594.903787 298.932629 594.931033 300.135496 595.603108 301.201123 C 596.70204 299.497735 595.802913 298.803462 595.603108 297.600595 Z M 119.502069 148.202901 C 119.502069 148.202901 116.495899 147.799254 117.104399 150.503687 C 118.103428 148.501599 119.402166 148.299776 119.502069 148.202901 Z M 119.20236 141.801065 C 117.50401 141.801065 115.396967 141.599242 116.19619 144.303674 C 117.204302 142.196639 119.20236 141.89794 119.20236 141.801065 Z M 131.899115 178.096971 C 131.899115 178.096971 134.496591 177.903221 133.897173 180.59958 C 132.898144 178.597493 131.899115 178.201919 131.899115 178.096971 Z M 131.899115 178.096971 " transform="matrix(0.430105,0,0,0.48387,0,0)"/>
</g>
</svg>
