<?xml version="1.0" encoding="UTF-8"?>
<svg xmlns="http://www.w3.org/2000/svg" xmlns:xlink="http://www.w3.org/1999/xlink" width="px" height="px" viewBox="0 0 320 240" version="1.1">
<g id="surface1">
<rect x="0" y="0" width="320" height="240" style="fill:rgb(0%,38.431373%,20%);fill-opacity:1;stroke:none;"/>
<path style="fill-rule:evenodd;fill:rgb(100%,100%,100%);fill-opacity:1;stroke-width:0.4;stroke-linecap:butt;stroke-linejoin:miter;stroke:rgb(100%,100%,100%);stroke-opacity:1;stroke-miterlimit:4;" d="M 1071.895178 2779.700826 C 1046.000357 2818.598007 1064.696203 2843.891803 1091.407625 2845.710311 C 1109.007508 2847.009245 1145.604089 2820.794387 1145.496642 2789.997833 L 1135.504034 2784.400607 C 1141.091299 2800.200373 1135.310629 2805.207174 1123.405458 2816.000138 C 1099.895969 2837.302663 1051.909964 2838.790533 1071.895178 2779.700826 Z M 1071.895178 2779.700826 " transform="matrix(0.181775,0,0,0.1654,-65,-335.450012)"/>
<path style="fill-rule:evenodd;fill:rgb(100%,100%,100%);fill-opacity:1;stroke-width:1;stroke-linecap:butt;stroke-linejoin:miter;stroke:rgb(100%,100%,100%);stroke-opacity:1;stroke-miterlimit:4;" d="M 1277.205654 2881.702603 C 1422.990275 2885.788342 1469.407548 2744.700448 1379.409613 2623.899547 L 1370.49148 2637.195912 C 1376.293639 2693.498815 1384.696025 2748.99874 1385.491136 2806.695045 C 1367.891253 2827.407144 1342.297284 2819.708006 1337.204278 2796.705058 C 1337.50513 2765.507015 1327.297628 2739.103221 1314.403941 2713.903893 L 1307.204966 2727.200258 C 1315.607352 2747.888741 1324.697401 2771.19871 1326.609965 2796.705058 C 1285.006335 2846.607757 1238.997362 2856.692211 1256.102987 2791.107832 C 1223.202595 2848.591584 1272.993717 2889.09472 1329.403597 2800.601861 C 1341.502173 2860.990503 1388.306257 2823.510341 1391.099889 2810.49738 C 1396.192896 2770.891689 1393.592669 2707.102201 1383.299209 2656.703545 C 1423.892833 2727.011323 1425.289649 2777.693382 1403.692724 2811.607378 C 1379.710466 2849.300093 1327.491034 2866.89475 1277.205654 2881.702603 Z M 1277.205654 2881.702603 " transform="matrix(0.181775,0,0,0.1654,-65,-335.450012)"/>
<path style="fill-rule:evenodd;fill:rgb(100%,100%,100%);fill-opacity:1;stroke-width:1;stroke-linecap:butt;stroke-linejoin:miter;stroke:rgb(100%,100%,100%);stroke-opacity:1;stroke-miterlimit:4;" d="M 1359.897167 2722.193457 C 1328.694444 2724.507922 1312.706272 2718.107718 1329.597002 2695.010302 C 1346.294327 2672.408843 1361.895688 2690.404989 1366.107626 2720.611118 C 1369.997222 2748.904272 1311.309456 2784.991031 1291.001899 2784.991031 C 1260.293435 2784.991031 1246.110379 2745.503425 1274.390533 2710.00709 C 1238.008846 2813.591205 1352.999044 2753.509585 1359.897167 2722.193457 Z M 1338.300241 2698.198596 C 1334.496603 2698.00966 1331.702971 2704.693268 1333.594045 2705.992202 C 1339.095352 2709.794537 1347.798591 2707.503689 1348.701149 2705.590713 C 1350.592223 2701.410506 1343.608142 2698.411148 1338.300241 2698.198596 Z M 1338.300241 2698.198596 " transform="matrix(0.181775,0,0,0.1654,-65,-335.450012)"/>
<path style="fill-rule:evenodd;fill:rgb(100%,100%,100%);fill-opacity:1;stroke-width:1;stroke-linecap:butt;stroke-linejoin:miter;stroke:rgb(100%,100%,100%);stroke-opacity:1;stroke-miterlimit:4;" d="M 1190.495609 2771.104242 C 1160.496298 2830.099481 1190.409651 2854.495831 1228.897307 2847.694138 C 1251.289343 2843.608399 1279.698434 2827.690548 1296.094906 2806.010152 C 1296.395758 2758.209365 1295.708095 2710.810068 1291.496157 2664.497152 C 1306.495813 2646.595474 1290.206789 2646.689942 1284.490587 2627.489329 C 1281.890361 2638.707399 1275.593943 2650.799298 1281.696955 2659.49035 C 1286.102298 2706.157521 1288.294225 2753.556819 1288.294225 2801.688243 C 1258.101508 2825.990125 1235.408619 2834.988198 1219.205552 2834.799262 C 1185.703456 2834.492241 1178.50448 2806.293556 1190.495609 2771.104242 Z M 1190.495609 2771.104242 " transform="matrix(0.181775,0,0,0.1654,-65,-335.450012)"/>
<path style="fill-rule:evenodd;fill:rgb(100%,100%,100%);fill-opacity:1;stroke-width:1;stroke-linecap:butt;stroke-linejoin:miter;stroke:rgb(100%,100%,100%);stroke-opacity:1;stroke-miterlimit:4;" d="M 1251.805091 2786.691455 C 1251.289343 2742.197047 1250.60168 2691.703923 1246.604637 2660.600349 C 1262.205998 2643.289095 1245.809526 2642.911223 1240.695031 2623.498058 C 1237.707993 2634.503575 1231.110723 2646.501006 1236.891393 2655.404611 C 1239.49162 2702.992844 1242.005889 2750.604695 1242.500147 2798.192928 C 1246.110379 2795.90208 1250.19338 2795.004635 1251.805091 2786.691455 Z M 1251.805091 2786.691455 " transform="matrix(0.181775,0,0,0.1654,-65,-335.450012)"/>
<path style="fill-rule:evenodd;fill:rgb(100%,100%,100%);fill-opacity:1;stroke-width:0.4;stroke-linecap:butt;stroke-linejoin:miter;stroke:rgb(100%,100%,100%);stroke-opacity:1;stroke-miterlimit:4;" d="M 1135.396587 2784.589543 C 1131.592949 2779.795294 1128.906764 2774.41062 1125.79079 2769.710839 C 1125.296532 2763.003614 1129.809323 2756.792346 1130.389538 2753.3915 C 1135.504034 2761.303191 1138.491072 2767.301906 1142.595562 2771.19871 M 1147.989421 2774.292535 C 1155.510739 2777.291893 1164.708235 2777.291893 1173.196579 2777.504446 C 1205.989523 2778.09487 1240.501625 2772.710197 1236.805435 2817.110137 C 1234.656487 2851.638175 1206.204418 2878.656011 1171.606358 2879.010266 C 1129.89528 2878.608777 1094.308704 2832.602882 1158.605223 2747.888741 C 1164.794193 2746.896828 1172.895727 2748.597251 1179.600444 2749.211293 C 1191.097315 2750.108738 1202.895038 2748.99874 1216.390431 2738.205775 C 1214.800209 2710.290494 1214.800209 2683.910317 1211.404872 2658.710989 C 1205.602713 2649.807384 1212.199982 2637.904422 1215.208509 2626.804437 C 1220.301516 2646.193985 1236.59054 2646.595474 1221.096626 2664.001195 C 1224.792817 2692.010944 1225.201117 2720.493033 1225.201117 2737.497266 C 1217.400436 2749.400228 1211.297424 2762.011701 1188.497088 2766.80595 C 1165.202493 2763.405103 1154.694138 2730.790041 1130.389538 2741.606622 C 1137.094256 2712.20347 1198.790548 2705.496245 1205.001007 2728.711746 C 1200.896517 2752.895543 1143.304715 2743.18896 1128.004206 2821.408429 C 1123.298011 2845.497758 1148.698574 2867.697728 1174.80829 2865.902837 C 1200.294811 2864.202414 1227.500491 2846.489672 1230.208165 2816.708648 C 1232.292645 2791.792724 1197.200327 2794.697614 1182.501523 2795.004635 C 1161.098003 2795.500592 1147.602611 2792.194213 1139.501077 2787.494432 M 1161.398856 2733.600463 C 1165.202493 2730.01068 1178.50448 2727.507279 1183.296634 2733.293442 C 1179.643423 2735.631524 1176.291064 2738.32386 1173.304027 2741.394069 C 1168.296978 2738.7962 1165.009088 2736.198331 1161.398856 2733.600463 Z M 1161.398856 2733.600463 " transform="matrix(0.181775,0,0,0.1654,-65,-335.450012)"/>
<path style="fill-rule:evenodd;fill:rgb(100%,100%,100%);fill-opacity:1;stroke-width:1;stroke-linecap:butt;stroke-linejoin:miter;stroke:rgb(100%,100%,100%);stroke-opacity:1;stroke-miterlimit:4;" d="M 1193.998394 2650.893766 C 1197.307774 2657.412055 1199.11289 2664.59162 1199.306295 2671.889269 C 1197.092879 2682.304362 1188.196235 2692.010944 1178.998738 2692.294348 C 1173.304027 2692.506901 1166.900162 2690.900946 1162.408861 2681.997341 C 1161.893114 2680.910959 1159.507782 2678.289474 1157.208407 2679.49394 C 1147.108353 2696.096683 1139.608525 2703.110929 1130.496986 2702.992844 C 1112.295398 2702.709441 1117.689257 2686.508186 1100.905974 2681.501384 C 1093.900404 2681.288831 1082.403533 2688.397545 1076.493927 2702.307952 C 1054.10189 2765.790419 1033.708375 2702.095399 1042.390125 2672.503311 C 1043.700983 2700.796464 1050.491658 2717.611761 1057.497228 2717.092187 C 1062.590234 2716.59623 1067.103025 2704.811353 1073.592847 2692.388816 C 1078.599896 2682.894786 1090.591025 2665.796086 1103.291306 2665.796086 C 1114.895625 2666.103107 1107.610691 2687.405631 1130.797839 2687.098611 C 1141.993857 2686.909675 1152.308806 2678.289474 1162.709714 2661.096305 C 1165.009088 2660.694816 1165.589304 2664.804173 1166.105051 2666.197575 C 1167.695273 2672.101822 1177.902775 2688.303077 1191.69902 2673.495225 C 1190.989867 2670.306931 1191.29072 2664.993109 1187.809425 2663.906727 Z M 1193.998394 2650.893766 " transform="matrix(0.181775,0,0,0.1654,-65,-335.450012)"/>
<path style="fill-rule:evenodd;fill:rgb(100%,100%,100%);fill-opacity:1;stroke-width:0.4;stroke-linecap:butt;stroke-linejoin:miter;stroke:rgb(100%,100%,100%);stroke-opacity:1;stroke-miterlimit:4;" d="M 1266.890705 2598.298731 C 1254.598723 2604.391914 1245.594632 2598.794687 1240.501625 2593.410014 C 1249.398269 2591.591506 1256.296392 2588.403212 1258.294913 2581.388966 C 1254.29787 2572.390893 1244.799521 2568.49409 1231.390087 2568.399622 C 1213.489351 2568.895579 1204.291854 2576.098761 1203.195891 2585.994279 C 1211.49083 2586.3013 1218.990658 2584.010452 1222.19259 2591.992994 C 1207.493787 2599.196176 1190.194757 2601.794045 1171.391463 2601.699577 C 1140.597041 2603.305532 1136.10574 2589.395126 1128.004206 2577.208759 C 1127.402501 2576.405782 1124.694827 2575.106847 1123.298011 2575.295783 C 1113.799661 2575.295783 1106.794091 2608.50127 1096.092331 2608.406802 C 1085.390571 2606.989783 1087.797392 2587.00981 1084.702908 2575.602804 C 1082.102681 2593.504482 1087.990798 2660.104392 1121.106084 2587.78917 C 1122.0946 2585.403854 1123.491416 2586.088747 1124.393974 2588.096191 C 1133.290618 2608.288717 1151.406248 2615.302963 1170.897205 2616.294877 C 1187.207719 2617.192322 1208.009534 2610.107225 1230.294123 2597.495753 C 1236.20373 2603.990425 1240.909925 2611.40616 1253.309354 2612.799562 C 1267.793263 2613.508072 1283.308666 2602.998512 1286.789962 2590.009167 C 1288.595078 2583.301942 1288.895931 2570.100045 1281.804403 2569.911109 C 1271.897753 2569.604089 1264.698778 2593.59895 1266.998152 2615.208495 C 1267.191557 2614.901474 1268.30901 2609.800204 1268.30901 2609.800204 M 1224.491964 2581.011094 C 1231.003276 2578.011737 1237.299693 2576.594717 1242.306742 2583.207474 C 1239.298215 2584.034069 1236.440114 2585.380237 1233.904355 2587.198746 C 1231.110723 2585.002366 1227.307086 2583.892367 1224.491964 2581.011094 Z M 1272.306053 2595.889798 C 1273.896275 2588.804701 1274.798833 2583.089389 1280.600992 2579.405139 C 1281.804403 2586.891725 1281.997808 2591.095549 1272.306053 2595.889798 Z M 1311.309456 2606.895315 C 1309.396893 2600.802131 1307.505819 2595.488309 1306.904113 2588.899169 C 1305.507297 2575.508336 1317.004168 2567.903665 1327.405076 2568.990047 C 1338.106836 2570.100045 1345.198364 2574.091317 1355.405866 2577.610248 C 1363.399952 2580.302585 1374.209159 2582.404497 1384.50262 2585.309386 C 1390.304779 2587.907255 1384.50262 2594.708948 1382.998356 2595.606394 C 1357.189493 2605.690848 1338.901947 2621.703167 1322.505475 2622.411677 C 1312.770741 2622.8604 1303.960055 2616.531046 1296.094906 2603.4 C 1295.600648 2578.011737 1294.69809 2548.207096 1292.20531 2529.502441 C 1296.008948 2525.700105 1296.804059 2522.889684 1298.609175 2519.795858 C 1300.607696 2544.499229 1301.402807 2570.501534 1301.897065 2596.692775 C 1304.003034 2601.20362 1306.603261 2605.005956 1311.309456 2606.895315 Z M 1327.791886 2608.902759 C 1313.995641 2612.799562 1315.69331 2601.109152 1314.403941 2593.905971 C 1312.899678 2585.498322 1313.909683 2576.004293 1324.589954 2578.389609 C 1338.493646 2582.097476 1351.193928 2587.00981 1363.507399 2592.205547 Z M 1327.791886 2608.902759 " transform="matrix(0.181775,0,0,0.1654,-65,-335.450012)"/>
<path style="fill-rule:evenodd;fill:rgb(100%,100%,100%);fill-opacity:1;stroke-width:0.4;stroke-linecap:butt;stroke-linejoin:miter;stroke:rgb(100%,100%,100%);stroke-opacity:1;stroke-miterlimit:4;" d="M 1314.296494 2621.301678 L 1316.209057 2630.606772 L 1317.691831 2630.606772 L 1317.090126 2621.892103 " transform="matrix(0.181775,0,0,0.1654,-65,-335.450012)"/>
<path style="fill-rule:evenodd;fill:rgb(100%,100%,100%);fill-opacity:1;stroke-width:4;stroke-linecap:round;stroke-linejoin:round;stroke:rgb(100%,100%,100%);stroke-opacity:1;stroke-miterlimit:4;" d="M 1094.201257 2718.509206 L 1101.206827 2711.306025 L 1109.30836 2718.202186 L 1101.808532 2724.90941 Z M 1111.994545 2716.100273 L 1119.107562 2708.897092 L 1127.209096 2715.793253 L 1119.709268 2722.500478 Z M 1062.504276 2641.494204 L 1069.595804 2634.291022 L 1077.697338 2641.2108 L 1070.19751 2647.894408 Z M 1065.706209 2662.702261 L 1072.797737 2655.499079 L 1080.791822 2662.39524 L 1073.291995 2669.102465 Z M 1194.1918 2698.198596 L 1200.703111 2692.90839 L 1206.698676 2699.403062 L 1199.908001 2704.197311 Z M 1108.405802 2562.495375 L 1113.00455 2557.795594 L 1118.290962 2562.306439 L 1113.391361 2566.699199 Z M 1120.096078 2561.007504 L 1124.694827 2556.189639 L 1130.002728 2560.794952 L 1125.103127 2565.093244 Z M 1365.699326 2614.688921 L 1361.293983 2618.396789 L 1357.103535 2614.098496 L 1361.702283 2610.69765 Z M 1365.699326 2614.688921 " transform="matrix(0.181775,0,0,0.1654,-65,-335.450012)"/>
<path style="fill-rule:evenodd;fill:rgb(100%,100%,100%);fill-opacity:1;stroke-width:0.4;stroke-linecap:butt;stroke-linejoin:miter;stroke:rgb(100%,100%,100%);stroke-opacity:1;stroke-miterlimit:4;" d="M 1158.691181 2747.392784 L 1158.196923 2755.304476 L 1170.789758 2756.508942 L 1180.889812 2748.904272 Z M 1158.691181 2747.392784 " transform="matrix(0.181775,0,0,0.1654,-65,-335.450012)"/>
<path style="fill-rule:evenodd;fill:rgb(100%,100%,100%);fill-opacity:1;stroke-width:1;stroke-linecap:butt;stroke-linejoin:miter;stroke:rgb(100%,100%,100%);stroke-opacity:1;stroke-miterlimit:4;" d="M 1265.193036 2599.810218 L 1268.910716 2599.00724 L 1268.502416 2609.304248 L 1266.203041 2610.201693 Z M 1265.193036 2599.810218 " transform="matrix(0.181775,0,0,0.1654,-65,-335.450012)"/>
<path style=" stroke:none;fill-rule:nonzero;fill:rgb(100%,100%,100%);fill-opacity:1;" d="M 160 163.148438 C 185.800781 163.148438 206.800781 144.050781 206.800781 120.550781 C 206.636719 107.875 200.621094 95.984375 190.5 88.351562 C 196.644531 94.832031 200.078125 103.417969 200.101562 112.351562 C 200.101562 132.75 182.148438 149.300781 160 149.300781 C 137.851562 149.300781 119.898438 132.75 119.898438 112.300781 C 119.898438 103.148438 123.5 94.75 129.5 88.300781 C 119.351562 95.957031 113.332031 107.886719 113.199219 120.601562 C 113.199219 144.050781 134.199219 163.148438 160 163.148438 "/>
<path style="fill-rule:nonzero;fill:rgb(100%,100%,100%);fill-opacity:1;stroke-width:8;stroke-linecap:butt;stroke-linejoin:miter;stroke:rgb(0%,0%,0%);stroke-opacity:1;stroke-miterlimit:4;" d="M -53.986115 1622.986947 C -142.009126 1667.018043 -252.012911 1655.01289 -344.998248 1594.987122 C -348.994753 1593.010664 -350.993005 1596.011952 -346.996501 1606.992276 C -337.00524 1636.01693 -329.012231 1659.002407 -358.986014 1702.008673 C -372.007958 1721.004632 -356.987762 1724.005921 -335.006987 1721.992862 C -223.00495 1711.012538 -113.001164 1686.014002 -60.014175 1665.004984 Z M -55.984367 1674.997078 C -90.987085 1689.015291 -151.001261 1705.998191 -218.009319 1718.003344 C -244.985724 1721.992862 -243.986598 1739.012363 -195.99524 1745.014939 C -147.004756 1749.992686 -83.993202 1715.002056 -45.993106 1684.000943 Z M -55.984367 1674.997078 " transform="matrix(0.11729,0,0,0.106725,160,13.65)"/>
<path style="fill-rule:nonzero;fill:rgb(100%,100%,100%);fill-opacity:1;stroke-width:8;stroke-linecap:butt;stroke-linejoin:miter;stroke:rgb(0%,0%,0%);stroke-opacity:1;stroke-miterlimit:4;" d="M 0 1578.992451 C 11.989513 1578.992451 34.003592 1574.014705 55.984367 1571.013416 C 97.015146 1563.98601 67.008058 1627.013065 0 1627.013065 L 0 1647.985483 C 68.007184 1647.985483 139.011747 1574.014705 123.991551 1541.000533 C 103.009903 1493.01652 44.99398 1534.009727 0 1534.009727 C -44.99398 1534.009727 -103.009903 1493.01652 -123.991551 1541.000533 C -139.011747 1574.014705 -68.007184 1647.985483 0 1647.985483 L 0 1627.013065 C -67.008058 1627.013065 -97.015146 1563.98601 -55.984367 1571.013416 C -34.003592 1574.014705 -11.989513 1578.992451 0 1578.992451 Z M 0 1578.992451 " transform="matrix(0.11729,0,0,0.106725,160,13.65)"/>
<path style="fill-rule:nonzero;fill:rgb(100%,100%,100%);fill-opacity:1;stroke-width:8;stroke-linecap:butt;stroke-linejoin:miter;stroke:rgb(0%,0%,0%);stroke-opacity:1;stroke-miterlimit:4;" d="M 53.986115 1622.986947 C 142.009126 1667.018043 252.012911 1655.01289 344.998248 1594.987122 C 348.994753 1593.010664 350.993005 1596.011952 346.996501 1606.992276 C 337.00524 1636.01693 329.012231 1659.002407 358.986014 1702.008673 C 372.007958 1721.004632 356.987762 1724.005921 335.006987 1721.992862 C 223.00495 1711.012538 113.001164 1686.014002 60.014175 1665.004984 Z M 55.984367 1674.997078 C 90.987085 1689.015291 150.002134 1705.998191 218.009319 1718.003344 C 244.985724 1721.992862 243.986598 1739.012363 195.99524 1745.014939 C 147.004756 1749.992686 83.993202 1715.002056 45.993106 1684.000943 Z M 55.984367 1674.997078 " transform="matrix(0.11729,0,0,0.106725,160,13.65)"/>
<path style="fill-rule:nonzero;fill:rgb(100%,100%,100%);fill-opacity:1;stroke-width:8;stroke-linecap:butt;stroke-linejoin:miter;stroke:rgb(0%,0%,0%);stroke-opacity:1;stroke-miterlimit:4;" d="M 2.997378 1665.004984 C 4.995631 1681.987884 7.993009 1718.991573 31.006214 1702.996902 C 62.012428 1681.987884 69.006311 1665.993213 69.006311 1636.01693 C 69.006311 1616.98437 45.993106 1588.984546 0 1588.984546 C -45.993106 1588.984546 -69.006311 1616.98437 -69.006311 1636.01693 C -69.006311 1665.993213 -62.012428 1681.987884 -31.006214 1702.996902 C -7.993009 1718.991573 -5.994757 1681.987884 -2.997378 1665.004984 C -1.998252 1659.002407 2.997378 1661.015466 2.997378 1665.004984 Z M 2.997378 1665.004984 " transform="matrix(0.11729,0,0,0.106725,160,13.65)"/>
<path style="fill-rule:nonzero;fill:rgb(100%,100%,100%);fill-opacity:1;stroke-width:8;stroke-linecap:butt;stroke-linejoin:miter;stroke:rgb(0%,0%,0%);stroke-opacity:1;stroke-miterlimit:4;" d="M -29.007962 384.003869 C -41.996601 309.99649 -151.001261 304.982143 -167.986405 293.01359 C -188.002231 279.983607 -185.004853 293.01359 -178.01097 312.997779 C -157.995143 365.00791 -89.987959 386.016928 -59.015049 391.982904 C -34.003592 396.009023 -26.010583 397.985481 -29.007962 384.003869 Z M -29.007962 384.003869 " transform="matrix(0.11729,0,0,0.106725,160,13.65)"/>
<path style="fill-rule:nonzero;fill:rgb(100%,100%,100%);fill-opacity:1;stroke-width:8;stroke-linecap:butt;stroke-linejoin:miter;stroke:rgb(0%,0%,0%);stroke-opacity:1;stroke-miterlimit:4;" d="M 3.996504 386.016928 C 14.986892 309.99649 -92.985337 274.017631 -106.007281 256.99813 C -120.994173 238.9904 -122.992425 250.007324 -115.998542 271.016343 C -103.009903 315.999067 -55.984367 368.997427 -28.008836 383.01564 C -4.995631 394.984192 1.998252 399.99854 3.996504 386.016928 Z M 3.996504 386.016928 " transform="matrix(0.11729,0,0,0.106725,160,13.65)"/>
<path style="fill-rule:nonzero;fill:rgb(100%,100%,100%);fill-opacity:1;stroke-width:8;stroke-linecap:butt;stroke-linejoin:miter;stroke:rgb(0%,0%,0%);stroke-opacity:1;stroke-miterlimit:4;" d="M 92.985337 430.011424 C 103.009903 338.984544 14.986892 325.002932 -7.993009 296.014879 C -23.013205 278.007149 -24.012331 287.999243 -18.983396 309.008261 C -8.992135 355.015816 35.002718 409.002405 62.012428 425.985305 C 82.994076 439.015289 91.986211 443.993035 92.985337 430.011424 Z M 92.985337 430.011424 " transform="matrix(0.11729,0,0,0.106725,160,13.65)"/>
<path style="fill-rule:nonzero;fill:rgb(100%,100%,100%);fill-opacity:1;stroke-width:8;stroke-linecap:butt;stroke-linejoin:miter;stroke:rgb(0%,0%,0%);stroke-opacity:1;stroke-miterlimit:4;" d="M 66.008932 409.990634 C -25.011457 350.989697 -88.988833 384.003869 -114.999416 381.002581 C -140.010873 378.001292 -148.003882 393.995963 -105.008155 418.00627 C -51.987862 446.994324 22.014079 443.004806 50.988736 431.987882 C 80.995824 419.982728 72.003689 414.016753 66.008932 409.990634 Z M 202.989123 449.995612 C 175.013592 352.014527 110.003786 368.009198 90.987085 356.004045 C 72.003689 343.998891 70.005437 347.00018 74.001941 368.997427 C 81.99495 408.014176 149.003008 450.983841 182.007474 464.013825 C 193.996988 468.003342 208.98388 474.005919 202.989123 449.995612 Z M 202.989123 449.995612 " transform="matrix(0.11729,0,0,0.106725,160,13.65)"/>
<path style="fill-rule:nonzero;fill:rgb(100%,100%,100%);fill-opacity:1;stroke-width:8;stroke-linecap:butt;stroke-linejoin:miter;stroke:rgb(0%,0%,0%);stroke-opacity:1;stroke-miterlimit:4;" d="M 190.000483 467.015113 C 112.002038 403.988058 50.988736 450.983841 27.009709 443.993035 C 8.992135 439.015289 16.985144 450.983841 24.012331 455.998189 C 74.001941 490.988819 136.014369 509.984778 184.005727 487.987531 C 202.989123 480.008496 203.988249 477.995436 190.000483 467.015113 Z M 358.986014 530.993797 C 359.98514 468.991571 231.997085 443.004806 204.987375 405.012888 C 189.001357 381.99081 175.013592 393.995963 183.006601 430.999653 C 194.996114 478.983666 282.985821 531.982026 331.010483 542.010721 C 359.98514 548.013298 358.986014 537.984603 358.986014 530.993797 Z M 358.986014 530.993797 " transform="matrix(0.11729,0,0,0.106725,160,13.65)"/>
<path style="fill-rule:nonzero;fill:rgb(100%,100%,100%);fill-opacity:1;stroke-width:8;stroke-linecap:butt;stroke-linejoin:miter;stroke:rgb(0%,0%,0%);stroke-opacity:1;stroke-miterlimit:4;" d="M 354.98951 542.010721 C 273.993686 468.991571 205.986501 493.001878 181.008348 486.011072 C 155.996891 480.008496 146.00563 495.014938 185.004853 524.99122 C 232.996211 561.00668 306.998152 567.997486 338.004366 561.00668 C 369.01058 554.015875 360.984266 546.988468 354.98951 542.010721 Z M 499.996014 648.995671 C 477.016113 542.99895 404.013298 521.001703 385.995724 501.017514 C 369.01058 480.996725 350.993005 486.999302 366.013201 534.983314 C 383.997471 592.007793 443.012521 642.004865 473.98543 654.010019 C 503.992518 667.003401 501.994266 657.011307 499.996014 648.995671 Z M 499.996014 648.995671 " transform="matrix(0.11729,0,0,0.106725,160,13.65)"/>
<path style="fill-rule:nonzero;fill:rgb(100%,100%,100%);fill-opacity:1;stroke-width:8;stroke-linecap:butt;stroke-linejoin:miter;stroke:rgb(0%,0%,0%);stroke-opacity:1;stroke-miterlimit:4;" d="M 498.996887 663.013884 C 440.015142 567.997486 363.015823 570.998775 339.003492 558.005392 C 315.990287 543.987179 300.004269 555.992333 331.010483 596.98554 C 367.012327 646.982612 441.014268 674.982436 474.984556 676.995495 C 508.988149 679.008555 502.993392 670.004689 498.996887 663.013884 Z M 498.996887 663.013884 " transform="matrix(0.11729,0,0,0.106725,160,13.65)"/>
<path style="fill-rule:nonzero;fill:rgb(100%,100%,100%);fill-opacity:1;stroke-width:8;stroke-linecap:butt;stroke-linejoin:miter;stroke:rgb(0%,0%,0%);stroke-opacity:1;stroke-miterlimit:4;" d="M 574.997081 776.00141 C 609.000673 667.99163 531.002227 627.986652 523.009218 610.015523 C 513.983779 592.007793 504.991644 592.007793 499.996014 611.003752 C 478.015239 688.01242 548.986498 763.008028 560.010189 778.014469 C 571.000576 791.996081 572.998829 785.005275 574.997081 776.00141 Z M 574.997081 776.00141 " transform="matrix(0.11729,0,0,0.106725,160,13.65)"/>
<path style="fill-rule:nonzero;fill:rgb(100%,100%,100%);fill-opacity:1;stroke-width:8;stroke-linecap:butt;stroke-linejoin:miter;stroke:rgb(0%,0%,0%);stroke-opacity:1;stroke-miterlimit:4;" d="M 559.011063 806.014294 C 532.001354 685.011131 460.996791 692.001937 445.010773 674.982436 C 427.992325 657.999536 425.994072 670.004689 428.991451 692.001937 C 436.98446 751.002874 507.989023 791.007852 539.994362 810.99204 C 549.985624 816.994617 562.008441 823.985423 559.011063 806.014294 Z M 626.984943 947.989874 C 676.008731 834.014118 617.992808 757.005451 600.008538 739.98595 C 581.990964 723.991279 571.000576 717.000473 576.995333 739.98595 C 584.988342 775.013181 557.012811 865.015231 600.008538 931.006974 C 613.996304 953.004221 615.994556 974.01324 626.984943 947.989874 Z M 626.984943 947.989874 " transform="matrix(0.11729,0,0,0.106725,160,13.65)"/>
<path style="fill-rule:nonzero;fill:rgb(100%,100%,100%);fill-opacity:1;stroke-width:8;stroke-linecap:butt;stroke-linejoin:miter;stroke:rgb(0%,0%,0%);stroke-opacity:1;stroke-miterlimit:4;" d="M 601.007664 971.011952 C 611.998051 900.99409 571.999702 837.015407 529.003975 812.016871 C 503.992518 797.010429 502.993392 800.999946 502.993392 822.008965 C 504.991644 887.012479 566.004946 940.999068 583.989216 971.011952 C 601.007664 999.011776 600.008538 978.002757 601.007664 971.011952 Z M 601.007664 971.011952 " transform="matrix(0.11729,0,0,0.106725,160,13.65)"/>
<path style="fill-rule:nonzero;fill:rgb(100%,100%,100%);fill-opacity:1;stroke-width:8;stroke-linecap:butt;stroke-linejoin:miter;stroke:rgb(0%,0%,0%);stroke-opacity:1;stroke-miterlimit:4;" d="M 589.983973 1152.992509 C 554.015432 1021.009024 629.0165 944.988585 651.9964 929.982144 C 674.010479 913.987473 687.998245 907.984896 678.006984 932.983432 C 662.986788 969.987121 679.00611 1072.982554 621.989313 1137.986068 C 604.005042 1159.983315 597.01116 1183.005393 589.983973 1152.992509 Z M 589.983973 1152.992509 " transform="matrix(0.11729,0,0,0.106725,160,13.65)"/>
<path style="fill-rule:nonzero;fill:rgb(100%,100%,100%);fill-opacity:1;stroke-width:8;stroke-linecap:butt;stroke-linejoin:miter;stroke:rgb(0%,0%,0%);stroke-opacity:1;stroke-miterlimit:4;" d="M 598.010286 1124.004456 C 627.984069 1009.00387 563.007567 944.000356 542.991741 931.006974 C 524.008345 918.013591 511.985527 912.999244 521.010966 934.008262 C 533.00048 965.997604 520.01184 1055.999654 570.00145 1111.999302 C 585.987468 1130.995262 592.015529 1149.991221 598.010286 1124.004456 Z M 598.010286 1124.004456 " transform="matrix(0.11729,0,0,0.106725,160,13.65)"/>
<path style="fill-rule:nonzero;fill:rgb(100%,100%,100%);fill-opacity:1;stroke-width:8;stroke-linecap:butt;stroke-linejoin:miter;stroke:rgb(0%,0%,0%);stroke-opacity:1;stroke-miterlimit:4;" d="M 561.009315 1070.017866 C 506.989896 1127.993973 505.99077 1213.018277 530.003101 1263.015349 C 544.989993 1292.003402 546.988245 1289.990343 561.009315 1269.017925 C 599.009412 1208.003929 575.996207 1120.014938 577.994459 1080.99819 C 578.993585 1043.9945 567.004072 1064.01529 561.009315 1070.017866 Z M 561.009315 1070.017866 " transform="matrix(0.11729,0,0,0.106725,160,13.65)"/>
<path style="fill-rule:nonzero;fill:rgb(100%,100%,100%);fill-opacity:1;stroke-width:8;stroke-linecap:butt;stroke-linejoin:miter;stroke:rgb(0%,0%,0%);stroke-opacity:1;stroke-miterlimit:4;" d="M 649.998148 1161.996374 C 649.998148 1242.00633 601.007664 1307.009844 548.986498 1326.994032 C 519.012714 1338.010957 519.012714 1335.009668 523.009218 1310.999361 C 536.996984 1220.997312 606.003295 1187.98314 631.014752 1158.995086 C 654.993779 1130.995262 649.998148 1154.01734 649.998148 1161.996374 Z M 649.998148 1161.996374 " transform="matrix(0.11729,0,0,0.106725,160,13.65)"/>
<path style="fill-rule:nonzero;fill:rgb(100%,100%,100%);fill-opacity:1;stroke-width:8;stroke-linecap:butt;stroke-linejoin:miter;stroke:rgb(0%,0%,0%);stroke-opacity:1;stroke-miterlimit:4;" d="M 463.994169 1400.013182 C 551.983876 1320.003226 504.991644 1264.003578 508.988149 1211.993446 C 510.986401 1183.993622 499.996014 1190.984428 490.004752 1201.013123 C 433.987081 1255.987942 430.989703 1354.005627 443.012521 1391.997546 C 448.008151 1409.017047 456.00116 1407.003988 463.994169 1400.013182 Z M 463.994169 1400.013182 " transform="matrix(0.11729,0,0,0.106725,160,13.65)"/>
<path style="fill-rule:nonzero;fill:rgb(100%,100%,100%);fill-opacity:1;stroke-width:8;stroke-linecap:butt;stroke-linejoin:miter;stroke:rgb(0%,0%,0%);stroke-opacity:1;stroke-miterlimit:4;" d="M 581.990964 1348.003051 C 553.016306 1435.992041 475.983683 1490.015232 411.007181 1493.01652 C 373.007084 1494.992978 374.00621 1491.99169 386.99485 1466.004925 C 435.985334 1372.013358 523.009218 1360.996433 562.008441 1336.986126 C 598.010286 1314.988879 584.988342 1338.999186 581.990964 1348.003051 Z M 581.990964 1348.003051 " transform="matrix(0.11729,0,0,0.106725,160,13.65)"/>
<path style="fill-rule:nonzero;fill:rgb(100%,100%,100%);fill-opacity:1;stroke-width:8;stroke-linecap:butt;stroke-linejoin:miter;stroke:rgb(0%,0%,0%);stroke-opacity:1;stroke-miterlimit:4;" d="M 342.999996 1513.000709 C 457.000286 1456.012831 433.987081 1360.996433 455.002034 1336.986126 C 469.988926 1320.003226 452.004656 1322.016286 443.012521 1327.982261 C 376.004462 1366.99901 321.985044 1429.001235 320.985917 1494.992978 C 320.985917 1519.991514 322.98417 1522.992803 342.999996 1513.000709 Z M 342.999996 1513.000709 " transform="matrix(0.11729,0,0,0.106725,160,13.65)"/>
<path style="fill-rule:nonzero;fill:rgb(100%,100%,100%);fill-opacity:1;stroke-width:8;stroke-linecap:butt;stroke-linejoin:miter;stroke:rgb(0%,0%,0%);stroke-opacity:1;stroke-miterlimit:4;" d="M 187.003105 1618.997429 C 331.010483 1641.982906 397.985237 1532.984897 440.015142 1522.992803 C 461.995917 1518.015056 446.009899 1509.011191 434.986208 1507.986361 C 339.003492 1497.006038 217.010193 1541.988762 180.009222 1591.985834 C 164.989026 1612.006623 164.989026 1615.996141 187.003105 1618.997429 Z M 187.003105 1618.997429 " transform="matrix(0.11729,0,0,0.106725,160,13.65)"/>
<path style="fill-rule:nonzero;fill:rgb(100%,100%,100%);fill-opacity:1;stroke-width:8;stroke-linecap:butt;stroke-linejoin:miter;stroke:rgb(0%,0%,0%);stroke-opacity:1;stroke-miterlimit:4;" d="M 333.008735 1447.997195 C 304.000773 1543.013592 195.99524 1621.010488 114.999416 1627.013065 C 76.999319 1630.014354 76.999319 1625.988235 90.987085 1600.989699 C 155.996891 1482.987825 268.998055 1463.003637 308.996404 1432.990753 C 342.999996 1407.003988 336.006113 1438.99333 333.008735 1447.997195 Z M 29.007962 384.003869 C 41.996601 309.99649 151.001261 304.982143 167.986405 293.01359 C 188.002231 279.983607 185.004853 293.01359 178.01097 312.997779 C 157.995143 365.00791 89.987959 386.016928 59.015049 391.982904 C 34.003592 396.009023 26.010583 397.985481 29.007962 384.003869 Z M 29.007962 384.003869 " transform="matrix(0.11729,0,0,0.106725,160,13.65)"/>
<path style="fill-rule:nonzero;fill:rgb(100%,100%,100%);fill-opacity:1;stroke-width:8;stroke-linecap:butt;stroke-linejoin:miter;stroke:rgb(0%,0%,0%);stroke-opacity:1;stroke-miterlimit:4;" d="M -3.996504 386.016928 C -14.986892 309.99649 92.985337 274.017631 106.007281 256.99813 C 120.994173 238.9904 122.992425 250.007324 115.998542 271.016343 C 103.009903 315.999067 55.984367 368.997427 28.008836 383.01564 C 4.995631 394.984192 -1.998252 399.99854 -3.996504 386.016928 Z M -3.996504 386.016928 " transform="matrix(0.11729,0,0,0.106725,160,13.65)"/>
<path style="fill-rule:nonzero;fill:rgb(100%,100%,100%);fill-opacity:1;stroke-width:8;stroke-linecap:butt;stroke-linejoin:miter;stroke:rgb(0%,0%,0%);stroke-opacity:1;stroke-miterlimit:4;" d="M -92.985337 430.011424 C -103.009903 338.984544 -14.986892 325.002932 7.993009 296.014879 C 23.013205 278.007149 24.012331 287.999243 18.983396 309.008261 C 8.992135 355.015816 -35.002718 409.002405 -62.012428 425.985305 C -82.994076 439.015289 -91.986211 443.993035 -92.985337 430.011424 Z M -92.985337 430.011424 " transform="matrix(0.11729,0,0,0.106725,160,13.65)"/>
<path style="fill-rule:nonzero;fill:rgb(100%,100%,100%);fill-opacity:1;stroke-width:8;stroke-linecap:butt;stroke-linejoin:miter;stroke:rgb(0%,0%,0%);stroke-opacity:1;stroke-miterlimit:4;" d="M -66.008932 409.990634 C 25.011457 350.989697 88.988833 384.003869 114.999416 381.002581 C 140.010873 378.001292 148.003882 393.995963 105.008155 418.00627 C 51.987862 446.994324 -22.014079 443.004806 -50.988736 431.987882 C -80.995824 419.982728 -72.003689 414.016753 -66.008932 409.990634 Z M -202.989123 449.995612 C -175.013592 352.014527 -110.003786 368.009198 -90.987085 356.004045 C -72.003689 343.998891 -70.005437 347.00018 -74.001941 368.997427 C -81.99495 408.014176 -149.003008 450.983841 -182.007474 464.013825 C -193.996988 468.003342 -208.98388 474.005919 -202.989123 449.995612 Z M -202.989123 449.995612 " transform="matrix(0.11729,0,0,0.106725,160,13.65)"/>
<path style="fill-rule:nonzero;fill:rgb(100%,100%,100%);fill-opacity:1;stroke-width:8;stroke-linecap:butt;stroke-linejoin:miter;stroke:rgb(0%,0%,0%);stroke-opacity:1;stroke-miterlimit:4;" d="M -190.000483 467.015113 C -112.002038 403.988058 -50.988736 450.983841 -27.009709 443.993035 C -8.992135 439.015289 -16.985144 450.983841 -24.012331 455.998189 C -74.001941 490.988819 -136.014369 509.984778 -184.005727 487.987531 C -202.989123 480.008496 -203.988249 477.995436 -190.000483 467.015113 Z M -358.986014 530.993797 C -359.98514 468.991571 -231.997085 443.004806 -204.987375 405.012888 C -189.001357 381.99081 -175.013592 393.995963 -183.006601 430.999653 C -194.996114 478.983666 -282.985821 531.982026 -331.010483 542.010721 C -359.98514 548.013298 -358.986014 537.984603 -358.986014 530.993797 Z M -358.986014 530.993797 " transform="matrix(0.11729,0,0,0.106725,160,13.65)"/>
<path style="fill-rule:nonzero;fill:rgb(100%,100%,100%);fill-opacity:1;stroke-width:8;stroke-linecap:butt;stroke-linejoin:miter;stroke:rgb(0%,0%,0%);stroke-opacity:1;stroke-miterlimit:4;" d="M -354.98951 542.010721 C -273.993686 468.991571 -205.986501 493.001878 -181.008348 486.011072 C -155.996891 480.008496 -146.00563 495.014938 -185.004853 524.99122 C -232.996211 561.00668 -306.998152 567.997486 -338.004366 561.00668 C -369.01058 554.015875 -360.984266 546.988468 -354.98951 542.010721 Z M -499.996014 648.995671 C -477.016113 542.99895 -404.013298 521.001703 -385.995724 501.017514 C -369.01058 480.996725 -350.993005 486.999302 -366.013201 534.983314 C -383.997471 592.007793 -443.012521 642.004865 -473.98543 654.010019 C -503.992518 667.003401 -501.994266 657.011307 -499.996014 648.995671 Z M -499.996014 648.995671 " transform="matrix(0.11729,0,0,0.106725,160,13.65)"/>
<path style="fill-rule:nonzero;fill:rgb(100%,100%,100%);fill-opacity:1;stroke-width:8;stroke-linecap:butt;stroke-linejoin:miter;stroke:rgb(0%,0%,0%);stroke-opacity:1;stroke-miterlimit:4;" d="M -498.996887 663.013884 C -440.015142 567.997486 -363.015823 570.998775 -339.003492 558.005392 C -315.990287 543.987179 -300.004269 555.992333 -331.010483 596.98554 C -367.012327 646.982612 -441.014268 674.982436 -474.984556 676.995495 C -508.988149 679.008555 -502.993392 670.004689 -498.996887 663.013884 Z M -498.996887 663.013884 " transform="matrix(0.11729,0,0,0.106725,160,13.65)"/>
<path style="fill-rule:nonzero;fill:rgb(100%,100%,100%);fill-opacity:1;stroke-width:8;stroke-linecap:butt;stroke-linejoin:miter;stroke:rgb(0%,0%,0%);stroke-opacity:1;stroke-miterlimit:4;" d="M -574.997081 776.00141 C -609.000673 667.99163 -531.002227 627.986652 -523.009218 610.015523 C -513.983779 592.007793 -504.991644 592.007793 -499.996014 611.003752 C -478.015239 688.01242 -548.986498 763.008028 -560.010189 778.014469 C -571.000576 791.996081 -572.998829 785.005275 -574.997081 776.00141 Z M -574.997081 776.00141 " transform="matrix(0.11729,0,0,0.106725,160,13.65)"/>
<path style="fill-rule:nonzero;fill:rgb(100%,100%,100%);fill-opacity:1;stroke-width:8;stroke-linecap:butt;stroke-linejoin:miter;stroke:rgb(0%,0%,0%);stroke-opacity:1;stroke-miterlimit:4;" d="M -559.011063 806.014294 C -532.001354 685.011131 -460.996791 692.001937 -445.010773 674.982436 C -427.992325 657.999536 -425.994072 670.004689 -428.991451 692.001937 C -436.98446 751.002874 -507.989023 791.007852 -539.994362 810.99204 C -549.985624 816.994617 -562.008441 823.985423 -559.011063 806.014294 Z M -626.984943 947.989874 C -676.008731 834.014118 -617.992808 757.005451 -600.008538 739.98595 C -581.990964 723.991279 -571.000576 717.000473 -576.995333 739.98595 C -584.988342 775.013181 -557.012811 865.015231 -600.008538 931.006974 C -613.996304 953.004221 -615.994556 974.01324 -626.984943 947.989874 Z M -626.984943 947.989874 " transform="matrix(0.11729,0,0,0.106725,160,13.65)"/>
<path style="fill-rule:nonzero;fill:rgb(100%,100%,100%);fill-opacity:1;stroke-width:8;stroke-linecap:butt;stroke-linejoin:miter;stroke:rgb(0%,0%,0%);stroke-opacity:1;stroke-miterlimit:4;" d="M -601.007664 971.011952 C -611.998051 900.99409 -571.999702 837.015407 -529.003975 812.016871 C -503.992518 797.010429 -502.993392 800.999946 -502.993392 822.008965 C -504.991644 887.012479 -566.004946 940.999068 -583.989216 971.011952 C -601.007664 999.011776 -600.008538 978.002757 -601.007664 971.011952 Z M -601.007664 971.011952 " transform="matrix(0.11729,0,0,0.106725,160,13.65)"/>
<path style="fill-rule:nonzero;fill:rgb(100%,100%,100%);fill-opacity:1;stroke-width:8;stroke-linecap:butt;stroke-linejoin:miter;stroke:rgb(0%,0%,0%);stroke-opacity:1;stroke-miterlimit:4;" d="M -589.983973 1152.992509 C -554.015432 1021.009024 -629.0165 944.988585 -651.9964 929.982144 C -674.010479 913.987473 -687.998245 907.984896 -678.006984 932.983432 C -662.986788 969.987121 -679.00611 1072.982554 -621.989313 1137.986068 C -604.005042 1159.983315 -598.010286 1183.005393 -589.983973 1152.992509 Z M -589.983973 1152.992509 " transform="matrix(0.11729,0,0,0.106725,160,13.65)"/>
<path style="fill-rule:nonzero;fill:rgb(100%,100%,100%);fill-opacity:1;stroke-width:8;stroke-linecap:butt;stroke-linejoin:miter;stroke:rgb(0%,0%,0%);stroke-opacity:1;stroke-miterlimit:4;" d="M -598.010286 1124.004456 C -627.984069 1009.00387 -563.007567 944.000356 -542.991741 931.006974 C -524.008345 918.013591 -511.985527 912.999244 -521.010966 934.008262 C -533.00048 965.997604 -520.01184 1055.999654 -570.00145 1111.999302 C -585.987468 1130.995262 -592.015529 1149.991221 -598.010286 1124.004456 Z M -598.010286 1124.004456 " transform="matrix(0.11729,0,0,0.106725,160,13.65)"/>
<path style="fill-rule:nonzero;fill:rgb(100%,100%,100%);fill-opacity:1;stroke-width:8;stroke-linecap:butt;stroke-linejoin:miter;stroke:rgb(0%,0%,0%);stroke-opacity:1;stroke-miterlimit:4;" d="M -561.009315 1070.017866 C -506.989896 1127.993973 -505.99077 1213.018277 -530.003101 1263.015349 C -544.989993 1292.003402 -546.988245 1289.990343 -561.009315 1269.017925 C -599.009412 1208.003929 -575.996207 1120.014938 -577.994459 1080.99819 C -578.993585 1043.9945 -567.004072 1064.01529 -561.009315 1070.017866 Z M -561.009315 1070.017866 " transform="matrix(0.11729,0,0,0.106725,160,13.65)"/>
<path style="fill-rule:nonzero;fill:rgb(100%,100%,100%);fill-opacity:1;stroke-width:8;stroke-linecap:butt;stroke-linejoin:miter;stroke:rgb(0%,0%,0%);stroke-opacity:1;stroke-miterlimit:4;" d="M -649.998148 1161.996374 C -649.998148 1242.00633 -601.007664 1307.009844 -548.986498 1326.994032 C -519.012714 1338.010957 -519.012714 1335.009668 -523.009218 1310.999361 C -536.996984 1220.997312 -606.003295 1187.98314 -631.014752 1158.995086 C -654.993779 1130.995262 -649.998148 1154.01734 -649.998148 1161.996374 Z M -649.998148 1161.996374 " transform="matrix(0.11729,0,0,0.106725,160,13.65)"/>
<path style="fill-rule:nonzero;fill:rgb(100%,100%,100%);fill-opacity:1;stroke-width:8;stroke-linecap:butt;stroke-linejoin:miter;stroke:rgb(0%,0%,0%);stroke-opacity:1;stroke-miterlimit:4;" d="M -463.994169 1400.013182 C -551.983876 1320.003226 -504.991644 1264.003578 -508.988149 1211.993446 C -510.986401 1183.993622 -499.996014 1190.984428 -490.004752 1201.013123 C -433.987081 1255.987942 -430.989703 1354.005627 -443.012521 1391.997546 C -448.008151 1409.017047 -456.00116 1407.003988 -463.994169 1400.013182 Z M -463.994169 1400.013182 " transform="matrix(0.11729,0,0,0.106725,160,13.65)"/>
<path style="fill-rule:nonzero;fill:rgb(100%,100%,100%);fill-opacity:1;stroke-width:8;stroke-linecap:butt;stroke-linejoin:miter;stroke:rgb(0%,0%,0%);stroke-opacity:1;stroke-miterlimit:4;" d="M -581.990964 1348.003051 C -553.016306 1435.992041 -475.983683 1490.015232 -411.007181 1493.01652 C -373.007084 1494.992978 -374.00621 1491.99169 -386.99485 1466.004925 C -435.985334 1372.013358 -523.009218 1360.996433 -562.008441 1336.986126 C -598.010286 1314.988879 -584.988342 1338.999186 -581.990964 1348.003051 Z M -581.990964 1348.003051 " transform="matrix(0.11729,0,0,0.106725,160,13.65)"/>
<path style="fill-rule:nonzero;fill:rgb(100%,100%,100%);fill-opacity:1;stroke-width:8;stroke-linecap:butt;stroke-linejoin:miter;stroke:rgb(0%,0%,0%);stroke-opacity:1;stroke-miterlimit:4;" d="M -342.999996 1513.000709 C -457.000286 1456.012831 -433.987081 1360.996433 -455.002034 1336.986126 C -469.988926 1320.003226 -452.004656 1322.016286 -443.012521 1327.982261 C -376.004462 1366.99901 -321.985044 1429.001235 -320.985917 1494.992978 C -320.985917 1519.991514 -322.98417 1522.992803 -342.999996 1513.000709 Z M -342.999996 1513.000709 " transform="matrix(0.11729,0,0,0.106725,160,13.65)"/>
<path style="fill-rule:nonzero;fill:rgb(100%,100%,100%);fill-opacity:1;stroke-width:8;stroke-linecap:butt;stroke-linejoin:miter;stroke:rgb(0%,0%,0%);stroke-opacity:1;stroke-miterlimit:4;" d="M -187.003105 1618.997429 C -331.010483 1641.982906 -397.985237 1532.984897 -440.015142 1522.992803 C -461.995917 1518.015056 -446.009899 1509.011191 -434.986208 1507.986361 C -339.003492 1497.006038 -217.010193 1541.988762 -180.009222 1591.985834 C -164.989026 1612.006623 -164.989026 1615.996141 -187.003105 1618.997429 Z M -187.003105 1618.997429 " transform="matrix(0.11729,0,0,0.106725,160,13.65)"/>
<path style="fill-rule:nonzero;fill:rgb(100%,100%,100%);fill-opacity:1;stroke-width:8;stroke-linecap:butt;stroke-linejoin:miter;stroke:rgb(0%,0%,0%);stroke-opacity:1;stroke-miterlimit:4;" d="M -333.008735 1447.997195 C -304.000773 1543.013592 -195.99524 1621.010488 -114.999416 1627.013065 C -76.999319 1630.014354 -76.999319 1625.988235 -90.987085 1600.989699 C -155.996891 1482.987825 -268.998055 1463.003637 -308.996404 1432.990753 C -342.999996 1407.003988 -336.006113 1438.99333 -333.008735 1447.997195 Z M -333.008735 1447.997195 " transform="matrix(0.11729,0,0,0.106725,160,13.65)"/>
<path style=" stroke:none;fill-rule:nonzero;fill:rgb(0%,38.431373%,20%);fill-opacity:1;" d="M 179.800781 64.449219 C 177.601562 62.949219 169.398438 63.800781 167.851562 62.800781 C 170.800781 65.050781 177.351562 63.449219 179.851562 64.449219 Z M 199.648438 68.25 C 197.898438 65.398438 187.449219 63.449219 185.898438 60.898438 C 188.648438 65.800781 196.699219 65.148438 199.648438 68.25 M 198.148438 71.550781 C 194.25 68.148438 185.25 69.550781 182.5 67.550781 C 188.851562 72.75 192.351562 68.699219 198.101562 71.550781 Z M 175.5 56.398438 C 177.949219 57.601562 181 58.75 182.5 61.550781 C 180.75 59.398438 177.601562 58.550781 175 56.75 C 175.167969 56.714844 175.332031 56.601562 175.5 56.398438 M 214 78.398438 C 212.449219 75.199219 207 71.699219 206.550781 70.5 C 208.050781 74.648438 212.550781 75.648438 213.949219 78.398438 Z M 215.351562 84.050781 C 210.648438 77.351562 203.300781 78.050781 200.351562 75.550781 C 202.601562 78 211.050781 79.550781 215.351562 84.050781 M 226.25 94.398438 C 226.601562 87.25 220.75 84.601562 220.550781 80.550781 C 220.398438 85.351562 226.550781 91.851562 226.25 94.398438 M 223.351562 98.25 C 222.148438 92.050781 214.199219 91.648438 212.800781 88 C 212.800781 91.398438 222.148438 94.949219 223.300781 98.25 Z M 229.898438 94.75 C 234.148438 99.449219 231.199219 106.601562 232.949219 111.800781 C 230.851562 107.949219 231.898438 98.351562 229.949219 94.75 Z M 223 114.75 C 229.300781 121 226.75 127.898438 229.300781 130.898438 C 226.148438 126.75 226.601562 118.648438 223 114.800781 Z M 236.148438 115.648438 C 230.699219 121.101562 234 129.300781 231.148438 133.148438 C 234.351562 129.851562 233.898438 119.648438 236.148438 115.648438 M 229.300781 115.648438 C 228.601562 109.351562 222.148438 106.050781 221.601562 102.648438 C 220.851562 106.050781 227.800781 111.398438 229.300781 115.648438 M 226.050781 130.648438 C 227.050781 135.050781 223.199219 144.449219 224.398438 147.351562 C 221.800781 142.351562 226.601562 132.851562 226.050781 130.699219 Z M 234.351562 140.699219 C 231.800781 148.5 226.601562 148 225 152.699219 C 226.148438 148.199219 233 144.148438 234.351562 140.699219 M 217.601562 144.351562 C 214.199219 149.601562 217 155.550781 214.199219 159.300781 C 218.199219 155.550781 216.050781 148.601562 217.601562 144.351562 M 225.800781 158.648438 C 221.699219 165.601562 213.25 164.949219 209.851562 169.949219 C 213.25 163.648438 223.699219 162.601562 225.851562 158.648438 Z M 210.898438 157.800781 C 203.648438 162.398438 205.898438 167.199219 200.351562 172.300781 C 207.25 167.199219 206.699219 161.550781 210.898438 157.800781 M 207.5 176.398438 C 200.5 176.148438 190.398438 184.5 184.300781 183.851562 C 190.398438 185.050781 201.648438 177.550781 207.5 176.351562 Z M 196.148438 168.898438 C 195.648438 175.398438 177.351562 179.601562 175.398438 183.949219 C 177.601562 178.199219 193.699219 173.949219 196.148438 168.949219 Z M 154.75 48.898438 C 152.398438 47.050781 149.550781 45.550781 148.75 43.75 C 149.351562 46.101562 151.648438 47.75 154 49.398438 C 154.25 49.300781 154.5 48.949219 154.75 48.851562 Z M 150.75 50.75 C 147.101562 49.148438 142.898438 49.25 141 47.050781 C 142.199219 49.25 146.148438 50.101562 149.550781 51.300781 C 149.949219 51.066406 150.351562 50.898438 150.75 50.800781 Z M 140.199219 64.398438 C 142.398438 62.898438 150.601562 63.800781 152.148438 62.800781 C 149.199219 65.050781 142.648438 63.449219 140.148438 64.398438 Z M 120.351562 68.25 C 122.101562 65.398438 132.550781 63.449219 134.101562 60.898438 C 131.398438 65.800781 123.300781 65.148438 120.351562 68.25 M 121.851562 71.550781 C 125.75 68.148438 134.800781 69.550781 137.5 67.550781 C 131.148438 72.75 127.648438 68.699219 121.898438 71.550781 Z M 137.5 61.550781 C 139.699219 57.25 146 56.75 147.699219 54.148438 C 145.199219 58 139.851562 58.648438 137.5 61.550781 M 155.5 57.800781 C 162 55.050781 168.351562 57.398438 171.398438 56.101562 C 167.648438 57.898438 158.699219 57.050781 155.550781 57.800781 Z M 106.050781 78.398438 C 107.550781 75.199219 112.949219 71.648438 113.449219 70.5 C 111.949219 74.648438 107.449219 75.648438 106.050781 78.398438 M 104.648438 84.050781 C 109.351562 77.351562 116.699219 78.050781 119.648438 75.550781 C 117.449219 78 109 79.550781 104.648438 84.050781 M 93.75 94.398438 C 93.398438 87.25 99.25 84.601562 99.5 80.550781 C 99.601562 85.351562 93.5 91.851562 93.75 94.398438 M 96.648438 98.25 C 97.851562 92.050781 105.800781 91.648438 107.199219 88 C 107.199219 91.398438 97.851562 94.949219 96.699219 98.25 Z M 90.101562 94.75 C 85.898438 99.449219 88.800781 106.550781 87.101562 111.800781 C 89.148438 107.949219 88.101562 98.351562 90.101562 94.75 M 97 114.75 C 90.699219 121 93.25 127.898438 90.699219 130.898438 C 93.851562 126.75 93.398438 118.648438 97 114.800781 Z M 83.898438 115.648438 C 89.300781 121.101562 86 129.300781 88.800781 133.148438 C 85.648438 129.851562 86.101562 119.648438 83.898438 115.648438 M 90.699219 115.648438 C 91.398438 109.351562 97.851562 106.050781 98.398438 102.648438 C 99.148438 106.050781 92.199219 111.398438 90.699219 115.648438 M 93.949219 130.648438 C 92.949219 135.050781 96.800781 144.449219 95.601562 147.351562 C 98.199219 142.351562 93.398438 132.851562 93.949219 130.699219 Z M 85.648438 140.699219 C 88.25 148.5 93.398438 148 95.050781 152.699219 C 93.851562 148.199219 87.050781 144.148438 85.648438 140.699219 M 102.398438 144.351562 C 105.800781 149.601562 103 155.550781 105.800781 159.300781 C 101.800781 155.550781 103.949219 148.601562 102.398438 144.351562 M 94.199219 158.648438 C 98.300781 165.601562 106.75 164.949219 110.199219 169.949219 C 106.75 163.648438 96.300781 162.601562 94.199219 158.648438 M 109.101562 157.800781 C 116.351562 162.398438 114.148438 167.199219 119.648438 172.300781 C 112.75 167.199219 113.351562 161.550781 109.101562 157.800781 M 112.5 176.351562 C 119.5 176.148438 129.648438 184.5 135.699219 183.851562 C 129.648438 185 118.351562 177.550781 112.5 176.351562 M 123.898438 168.851562 C 124.351562 175.398438 142.648438 179.550781 144.648438 183.949219 C 142.398438 178.199219 126.351562 173.949219 123.851562 168.898438 Z M 150.5 58 C 151.898438 52.25 159 51.199219 159.898438 47.75 C 159.550781 51.398438 151.199219 55.449219 150.5 58 M 171.25 43.699219 C 170.25 48.101562 162.601562 50.550781 161.550781 53.851562 C 161.898438 49.351562 169.75 46.851562 171.25 43.699219 M 165.25 54.101562 C 168.898438 48.75 176.398438 50.101562 179 47.050781 C 177.101562 50.648438 167.851562 50.75 165.25 54.050781 Z M 165.25 54.101562 "/>
<path style="fill:none;stroke-width:1.8;stroke-linecap:round;stroke-linejoin:round;stroke:rgb(96.862745%,77.64706%,3.137255%);stroke-opacity:1;stroke-miterlimit:4;" d="M 429.796875 240 C 429.796875 295.5 380.5 340.398438 319.5 340.398438 C 258.601562 340.398438 209.203125 295.5 209.203125 240.101562 C 209.203125 184.601562 258.601562 139.703125 319.5 139.703125 C 380.5 139.703125 429.796875 184.703125 429.796875 240.101562 Z M 429.796875 240 " transform="matrix(0.5,0,0,0.5,0,0)"/>
<path style=" stroke:none;fill-rule:nonzero;fill:rgb(96.862745%,77.64706%,3.137255%);fill-opacity:1;" d="M 149 170.25 L 148.75 170.851562 C 148.582031 171.285156 148.234375 171.484375 147.699219 171.449219 L 143.699219 170.5 L 145 166.648438 L 149 167.5 C 149.5 167.632812 149.667969 167.933594 149.5 168.398438 L 149.398438 168.898438 M 139.898438 166.5 L 140.101562 165.898438 C 140.265625 165.433594 140.601562 165.265625 141.101562 165.398438 L 145 166.648438 L 143.75 170.5 C 142.351562 170.167969 141.035156 169.785156 139.800781 169.351562 C 139.398438 169.148438 139.300781 168.351562 139.449219 167.898438 "/>
<path style=" stroke:none;fill-rule:nonzero;fill:rgb(0%,38.431373%,20%);fill-opacity:1;" d="M 148.199219 169.898438 L 148.050781 170.351562 C 147.882812 170.683594 147.601562 170.816406 147.199219 170.75 L 143.898438 169.949219 L 144.800781 167.148438 C 146 167.5 147.25 167.75 148.101562 167.898438 C 148.535156 168.035156 148.699219 168.265625 148.601562 168.601562 L 148.5 168.949219 M 140.601562 166.949219 L 140.75 166.449219 C 140.882812 166.183594 141.148438 166.082031 141.550781 166.148438 C 142.484375 166.484375 143.566406 166.816406 144.800781 167.148438 L 143.898438 169.949219 L 140.648438 169 C 140.300781 168.800781 140.148438 168.25 140.300781 167.949219 "/>
<path style=" stroke:none;fill-rule:nonzero;fill:rgb(96.862745%,77.64706%,3.137255%);fill-opacity:1;" d="M 133.851562 165.398438 L 133.5 165.898438 C 133.199219 166.300781 132.800781 166.417969 132.300781 166.25 C 131.300781 165.648438 129.949219 165 128.800781 164.300781 L 131.199219 160.898438 L 134.75 162.75 C 135.148438 163.015625 135.234375 163.351562 135 163.75 L 134.699219 164.25 M 126.351562 159.449219 L 126.699219 158.949219 C 127.035156 158.550781 127.417969 158.464844 127.851562 158.699219 C 128.785156 159.367188 129.898438 160.101562 131.199219 160.898438 L 128.75 164.300781 L 125.398438 162.199219 C 125.050781 161.851562 125.199219 161.050781 125.398438 160.699219 "/>
<path style=" stroke:none;fill-rule:nonzero;fill:rgb(0%,38.431373%,20%);fill-opacity:1;" d="M 133.25 164.851562 L 132.949219 165.25 C 132.75 165.515625 132.433594 165.566406 132 165.398438 C 131.199219 164.898438 130.101562 164.398438 129.101562 163.800781 L 130.851562 161.351562 C 131.851562 162 133 162.550781 133.800781 162.898438 C 134.132812 163.101562 134.214844 163.367188 134.050781 163.699219 L 133.800781 164 M 126.898438 160.050781 L 127.148438 159.648438 C 127.382812 159.382812 127.683594 159.351562 128.050781 159.550781 L 130.851562 161.351562 L 129.101562 163.800781 C 128.066406 163.234375 127.132812 162.648438 126.300781 162.050781 C 126 161.800781 126.050781 161.199219 126.25 160.949219 "/>
<path style=" stroke:none;fill-rule:nonzero;fill:rgb(96.862745%,77.64706%,3.137255%);fill-opacity:1;" d="M 120.898438 156.851562 L 120.398438 157.25 C 119.964844 157.515625 119.535156 157.515625 119.101562 157.25 C 118.351562 156.449219 117.25 155.5 116.351562 154.5 L 119.699219 151.851562 C 120.699219 152.898438 121.800781 153.851562 122.550781 154.550781 C 122.882812 154.882812 122.867188 155.214844 122.5 155.550781 L 122.050781 155.949219 M 115.550781 149.25 L 116.050781 148.800781 C 116.449219 148.535156 116.832031 148.566406 117.199219 148.898438 C 117.980469 149.945312 118.8125 150.945312 119.699219 151.898438 L 116.351562 154.5 C 115.382812 153.5 114.515625 152.535156 113.75 151.601562 C 113.5 151.199219 113.898438 150.5 114.25 150.199219 "/>
<path style=" stroke:none;fill-rule:nonzero;fill:rgb(0%,38.431373%,20%);fill-opacity:1;" d="M 120.449219 156.199219 L 120.050781 156.5 C 119.785156 156.699219 119.464844 156.667969 119.101562 156.398438 L 116.800781 154.101562 L 119.25 152.199219 L 121.601562 154.449219 C 121.832031 154.785156 121.832031 155.066406 121.601562 155.300781 L 121.25 155.550781 M 115.851562 149.949219 L 116.199219 149.648438 C 116.535156 149.449219 116.832031 149.484375 117.101562 149.75 C 117.699219 150.515625 118.417969 151.351562 119.25 152.25 L 116.800781 154.101562 L 114.648438 151.699219 C 114.449219 151.398438 114.699219 150.851562 114.949219 150.648438 "/>
<path style=" stroke:none;fill-rule:nonzero;fill:rgb(96.862745%,77.64706%,3.137255%);fill-opacity:1;" d="M 111.101562 145.351562 L 110.449219 145.601562 C 110.015625 145.734375 109.617188 145.632812 109.25 145.300781 L 107.449219 141.898438 L 111.5 140.25 C 112.148438 141.5 112.851562 142.75 113.398438 143.550781 C 113.566406 143.984375 113.433594 144.316406 113 144.550781 L 112.5 144.75 M 108.300781 136.648438 L 108.898438 136.351562 C 109.398438 136.214844 109.765625 136.351562 110 136.75 C 110.4375 137.941406 110.9375 139.109375 111.5 140.25 L 107.5 141.898438 C 106.878906 140.800781 106.328125 139.667969 105.851562 138.5 C 105.75 138 106.351562 137.449219 106.800781 137.25 "/>
<path style=" stroke:none;fill-rule:nonzero;fill:rgb(0%,38.431373%,20%);fill-opacity:1;" d="M 110.851562 144.601562 L 110.398438 144.75 C 110.066406 144.882812 109.765625 144.785156 109.5 144.449219 L 108 141.648438 L 110.898438 140.449219 L 112.5 143.199219 C 112.632812 143.601562 112.550781 143.867188 112.25 144 L 111.851562 144.148438 M 108.351562 137.398438 L 108.851562 137.25 C 109.183594 137.117188 109.449219 137.214844 109.648438 137.550781 L 110.898438 140.449219 L 108.050781 141.648438 L 106.699219 138.800781 C 106.601562 138.449219 107 138 107.300781 137.851562 "/>
<path style=" stroke:none;fill-rule:nonzero;fill:rgb(96.862745%,77.64706%,3.137255%);fill-opacity:1;" d="M 105.25 131.75 L 104.550781 131.851562 C 104.121094 131.886719 103.71875 131.644531 103.550781 131.25 L 102.800781 127.550781 L 107.199219 127 C 107.410156 128.230469 107.695312 129.449219 108.050781 130.648438 C 108.050781 131.117188 107.816406 131.398438 107.351562 131.5 L 106.75 131.601562 M 105.25 122.75 L 105.949219 122.648438 C 106.449219 122.617188 106.75 122.816406 106.851562 123.25 C 106.882812 124.351562 107 125.601562 107.199219 127 L 102.800781 127.550781 L 102.300781 123.851562 C 102.398438 123.398438 103.148438 123 103.601562 122.949219 "/>
<path style=" stroke:none;fill-rule:nonzero;fill:rgb(0%,38.431373%,20%);fill-opacity:1;" d="M 105.25 131 L 104.75 131.050781 C 104.417969 131.082031 104.167969 130.917969 104 130.550781 L 103.449219 127.449219 L 106.601562 127.050781 L 107.25 130.101562 C 107.285156 130.464844 107.117188 130.699219 106.75 130.800781 L 106.351562 130.851562 M 105.101562 123.5 L 105.601562 123.398438 C 106 123.398438 106.214844 123.582031 106.25 123.949219 C 106.316406 124.882812 106.433594 125.917969 106.601562 127.050781 L 103.449219 127.449219 C 103.25 126.417969 103.117188 125.398438 103.050781 124.398438 C 103.050781 124.050781 103.601562 123.699219 103.949219 123.648438 "/>
<path style=" stroke:none;fill-rule:nonzero;fill:rgb(96.862745%,77.64706%,3.137255%);fill-opacity:1;" d="M 103.851562 117.25 L 103.148438 117.148438 C 102.648438 117.082031 102.382812 116.800781 102.351562 116.300781 C 102.5 115.300781 102.601562 113.898438 102.851562 112.601562 L 107.199219 113.199219 C 107.011719 114.425781 106.894531 115.660156 106.851562 116.898438 C 106.75 117.367188 106.449219 117.582031 105.949219 117.550781 L 105.351562 117.449219 M 106.648438 108.601562 L 107.351562 108.648438 C 107.816406 108.785156 108.050781 109.066406 108.050781 109.5 C 107.699219 110.71875 107.414062 111.953125 107.199219 113.199219 L 102.800781 112.601562 C 103 111.332031 103.234375 110.101562 103.5 108.898438 C 103.699219 108.5 104.550781 108.300781 105 108.398438 "/>
<path style=" stroke:none;fill-rule:nonzero;fill:rgb(0%,38.431373%,20%);fill-opacity:1;" d="M 104.101562 116.5 L 103.601562 116.5 C 103.265625 116.367188 103.082031 116.117188 103.050781 115.75 L 103.449219 112.699219 L 106.601562 113.101562 L 106.300781 116.199219 C 106.234375 116.566406 106 116.734375 105.601562 116.699219 L 105.199219 116.699219 M 106.25 109.25 L 106.75 109.351562 C 107.117188 109.417969 107.285156 109.648438 107.25 110.050781 C 107.015625 110.917969 106.800781 111.917969 106.601562 113.050781 L 103.449219 112.699219 L 104 109.601562 C 104.148438 109.25 104.75 109.101562 105.101562 109.101562 "/>
<path style=" stroke:none;fill-rule:nonzero;fill:rgb(96.862745%,77.64706%,3.137255%);fill-opacity:1;" d="M 107 103 L 106.351562 102.699219 C 105.917969 102.535156 105.75 102.199219 105.851562 101.699219 C 106.351562 100.699219 106.851562 99.398438 107.449219 98.25 L 111.449219 99.949219 C 110.886719 101.089844 110.386719 102.257812 109.949219 103.449219 C 109.75 103.816406 109.417969 103.933594 108.949219 103.800781 L 108.351562 103.550781 M 112.351562 95.351562 L 113 95.648438 C 113.433594 95.851562 113.566406 96.183594 113.398438 96.648438 C 112.710938 97.714844 112.074219 98.816406 111.5 99.949219 L 107.449219 98.25 C 108.015625 97.050781 108.617188 95.933594 109.25 94.898438 C 109.550781 94.550781 110.449219 94.550781 110.851562 94.75 "/>
<path style=" stroke:none;fill-rule:nonzero;fill:rgb(0%,38.431373%,20%);fill-opacity:1;" d="M 107.5 102.351562 L 107 102.148438 C 106.699219 102.050781 106.601562 101.648438 106.699219 101.351562 L 108 98.5 L 110.898438 99.699219 L 109.648438 102.601562 C 109.449219 102.933594 109.183594 103.035156 108.851562 102.898438 L 108.449219 102.75 M 111.800781 95.949219 L 112.25 96.148438 C 112.582031 96.285156 112.667969 96.550781 112.5 96.949219 L 110.898438 99.699219 L 108.050781 98.5 C 108.515625 97.464844 109.015625 96.535156 109.550781 95.699219 C 109.75 95.398438 110.398438 95.351562 110.699219 95.5 "/>
<path style=" stroke:none;fill-rule:nonzero;fill:rgb(96.862745%,77.64706%,3.137255%);fill-opacity:1;" d="M 114.449219 90.101562 L 113.898438 89.648438 C 113.566406 89.351562 113.5 88.984375 113.699219 88.550781 C 114.5 87.75 115.398438 86.601562 116.300781 85.648438 L 119.699219 88.300781 C 118.8125 89.253906 117.976562 90.253906 117.199219 91.300781 C 116.84375 91.566406 116.355469 91.566406 116 91.300781 L 115.550781 91 M 121.949219 84.148438 L 122.449219 84.550781 C 122.851562 84.882812 122.882812 85.25 122.550781 85.648438 L 119.699219 88.300781 L 116.300781 85.648438 C 117.234375 84.648438 118.167969 83.734375 119.101562 82.898438 C 119.5 82.648438 120.351562 82.898438 120.699219 83.148438 "/>
<path style=" stroke:none;fill-rule:nonzero;fill:rgb(0%,38.431373%,20%);fill-opacity:1;" d="M 115.101562 89.601562 L 114.699219 89.300781 C 114.464844 89.066406 114.449219 88.785156 114.648438 88.449219 L 116.800781 86 L 119.199219 87.898438 L 117.101562 90.398438 C 116.832031 90.667969 116.535156 90.699219 116.199219 90.5 L 115.898438 90.25 M 121.199219 84.550781 L 121.601562 84.851562 C 121.832031 85.082031 121.832031 85.351562 121.601562 85.648438 L 119.199219 87.949219 L 116.800781 86.050781 C 117.566406 85.183594 118.332031 84.417969 119.101562 83.75 C 119.449219 83.5 120.101562 83.648438 120.300781 83.851562 "/>
<path style=" stroke:none;fill-rule:nonzero;fill:rgb(96.862745%,77.64706%,3.137255%);fill-opacity:1;" d="M 125.5 79.601562 L 125.148438 79.101562 C 124.917969 78.699219 124.984375 78.316406 125.351562 77.949219 C 126.351562 77.398438 127.550781 76.550781 128.75 75.851562 L 131.148438 79.25 C 129.996094 79.925781 128.878906 80.660156 127.800781 81.449219 C 127.425781 81.613281 126.992188 81.535156 126.699219 81.25 L 126.351562 80.75 M 134.601562 75.851562 L 134.949219 76.351562 C 135.214844 76.816406 135.148438 77.167969 134.75 77.398438 C 133.648438 77.898438 132.449219 78.515625 131.148438 79.25 L 128.75 75.851562 C 129.917969 75.117188 131.082031 74.464844 132.25 73.898438 C 132.75 73.800781 133.449219 74.25 133.699219 74.601562 "/>
<path style=" stroke:none;fill-rule:nonzero;fill:rgb(0%,38.431373%,20%);fill-opacity:1;" d="M 126.351562 79.300781 L 126.050781 78.949219 C 125.917969 78.617188 125.984375 78.332031 126.25 78.101562 C 127.117188 77.535156 128.066406 76.949219 129.101562 76.351562 L 130.800781 78.75 L 128.050781 80.601562 C 127.683594 80.800781 127.382812 80.75 127.148438 80.449219 L 126.898438 80.148438 M 133.75 76.050781 L 134.050781 76.449219 C 134.183594 76.75 134.101562 77 133.800781 77.199219 L 130.800781 78.75 L 129.101562 76.351562 L 132 74.699219 C 132.398438 74.601562 132.949219 74.898438 133.148438 75.148438 "/>
<path style=" stroke:none;fill-rule:nonzero;fill:rgb(96.862745%,77.64706%,3.137255%);fill-opacity:1;" d="M 139.5 72.449219 L 139.25 71.800781 C 139.183594 71.367188 139.351562 71.035156 139.75 70.800781 L 143.699219 69.648438 L 144.949219 73.5 C 143.628906 73.867188 142.328125 74.300781 141.050781 74.800781 C 140.582031 74.898438 140.25 74.734375 140.050781 74.300781 L 139.898438 73.800781 M 149.300781 71.101562 L 149.5 71.75 C 149.601562 72.183594 149.433594 72.484375 149 72.648438 L 144.949219 73.5 L 143.699219 69.648438 C 145.015625 69.253906 146.351562 68.917969 147.699219 68.648438 C 148.148438 68.648438 148.699219 69.300781 148.851562 69.648438 "/>
<path style=" stroke:none;fill-rule:nonzero;fill:rgb(0%,38.431373%,20%);fill-opacity:1;" d="M 140.300781 72.351562 L 140.148438 71.851562 C 140.117188 71.582031 140.285156 71.351562 140.648438 71.148438 L 143.898438 70.148438 L 144.800781 72.949219 L 141.550781 73.949219 C 141.148438 74.082031 140.882812 73.984375 140.75 73.648438 L 140.601562 73.300781 M 148.449219 71.101562 L 148.601562 71.550781 C 148.699219 71.882812 148.535156 72.117188 148.101562 72.25 C 147.101562 72.417969 146 72.648438 144.800781 72.949219 L 143.898438 70.199219 L 147.199219 69.398438 C 147.601562 69.351562 148 69.800781 148.101562 70.101562 "/>
<path style=" stroke:none;fill-rule:nonzero;fill:rgb(96.862745%,77.64706%,3.137255%);fill-opacity:1;" d="M 155 69.101562 L 155 68.449219 C 155.066406 68.015625 155.351562 67.734375 155.851562 67.601562 L 159.949219 67.5 L 159.949219 71.550781 C 158.582031 71.550781 157.210938 71.617188 155.851562 71.75 C 155.316406 71.75 155.050781 71.5 155.050781 71 L 155.050781 70.5 M 164.898438 70.398438 L 164.898438 71 C 164.867188 71.464844 164.582031 71.714844 164.050781 71.75 L 159.949219 71.550781 L 159.949219 67.5 C 161.382812 67.5 162.75 67.535156 164.050781 67.601562 C 164.550781 67.699219 164.898438 68.449219 164.898438 68.898438 "/>
<path style=" stroke:none;fill-rule:nonzero;fill:rgb(0%,38.431373%,20%);fill-opacity:1;" d="M 155.898438 69.25 L 155.898438 68.75 C 155.898438 68.449219 156.117188 68.25 156.550781 68.148438 L 160 68.101562 L 160 71 C 158.667969 71 157.515625 71.050781 156.550781 71.148438 C 156.148438 71.117188 155.933594 70.949219 155.898438 70.648438 L 155.898438 70.199219 M 164.050781 70.148438 L 164.050781 70.601562 C 164.050781 70.933594 163.832031 71.101562 163.398438 71.101562 L 160 71 L 160 68.101562 L 163.398438 68.148438 C 163.800781 68.25 164.050781 68.75 164.050781 69.101562 "/>
<path style=" stroke:none;fill-rule:nonzero;fill:rgb(96.862745%,77.64706%,3.137255%);fill-opacity:1;" d="M 170 69.800781 L 170.148438 69.199219 C 170.316406 68.800781 170.667969 68.601562 171.199219 68.601562 L 175.199219 69.5 L 173.949219 73.398438 L 169.949219 72.601562 C 169.484375 72.433594 169.300781 72.117188 169.398438 71.648438 L 169.550781 71.148438 M 179.050781 73.5 L 178.851562 74.101562 C 178.683594 74.566406 178.351562 74.734375 177.851562 74.601562 L 173.949219 73.398438 L 175.199219 69.5 C 176.566406 69.832031 177.867188 70.214844 179.101562 70.648438 C 179.5 70.851562 179.601562 71.648438 179.5 72.050781 "/>
<path style=" stroke:none;fill-rule:nonzero;fill:rgb(0%,38.431373%,20%);fill-opacity:1;" d="M 170.75 70.148438 L 170.851562 69.699219 C 171.015625 69.367188 171.300781 69.234375 171.699219 69.300781 L 175 70.050781 L 174.148438 72.851562 L 170.800781 72.148438 C 170.433594 72.015625 170.265625 71.785156 170.300781 71.449219 L 170.449219 71.101562 M 178.351562 73.101562 L 178.199219 73.5 C 178.066406 73.832031 177.800781 73.949219 177.398438 73.851562 L 174.148438 72.851562 L 175 70.050781 C 176.167969 70.351562 177.265625 70.667969 178.300781 71 C 178.648438 71.148438 178.800781 71.75 178.648438 72 "/>
<path style=" stroke:none;fill-rule:nonzero;fill:rgb(96.862745%,77.64706%,3.137255%);fill-opacity:1;" d="M 185.101562 74.550781 L 185.449219 74.050781 C 185.75 73.648438 186.148438 73.535156 186.648438 73.699219 C 187.648438 74.25 189 74.898438 190.199219 75.601562 L 187.851562 79.050781 C 186.664062 78.390625 185.445312 77.789062 184.199219 77.25 C 183.800781 76.949219 183.714844 76.601562 183.949219 76.199219 L 184.300781 75.699219 M 192.699219 80.449219 L 192.300781 80.949219 C 192.019531 81.25 191.582031 81.351562 191.199219 81.199219 L 187.851562 79.050781 L 190.199219 75.601562 C 191.433594 76.265625 192.566406 76.964844 193.601562 77.699219 C 193.949219 78 193.800781 78.800781 193.550781 79.199219 "/>
<path style=" stroke:none;fill-rule:nonzero;fill:rgb(0%,38.431373%,20%);fill-opacity:1;" d="M 185.75 75.101562 L 186 74.699219 C 186.199219 74.464844 186.515625 74.398438 186.949219 74.5 C 187.816406 74.964844 188.785156 75.5 189.851562 76.101562 L 188.148438 78.601562 L 185.148438 77.050781 C 184.816406 76.851562 184.75 76.582031 184.949219 76.25 L 185.148438 75.898438 M 192.148438 79.851562 L 191.851562 80.25 C 191.648438 80.515625 191.351562 80.550781 190.949219 80.351562 L 188.148438 78.550781 L 189.851562 76.101562 L 192.699219 77.800781 C 193 78.101562 192.949219 78.648438 192.75 78.949219 "/>
<path style=" stroke:none;fill-rule:nonzero;fill:rgb(96.862745%,77.64706%,3.137255%);fill-opacity:1;" d="M 198.148438 83 L 198.648438 82.550781 C 199.050781 82.285156 199.464844 82.285156 199.898438 82.550781 L 202.699219 85.300781 L 199.398438 87.949219 C 198.480469 87.015625 197.511719 86.132812 196.5 85.300781 C 196.167969 84.964844 196.183594 84.632812 196.550781 84.300781 L 197 83.898438 M 203.601562 90.550781 L 203.101562 91 C 202.722656 91.238281 202.234375 91.199219 201.898438 90.898438 C 201.121094 89.871094 200.285156 88.886719 199.398438 87.949219 L 202.75 85.300781 C 203.683594 86.300781 204.550781 87.25 205.351562 88.148438 C 205.550781 88.550781 205.199219 89.300781 204.851562 89.550781 "/>
<path style=" stroke:none;fill-rule:nonzero;fill:rgb(0%,38.431373%,20%);fill-opacity:1;" d="M 198.601562 83.648438 L 198.949219 83.351562 C 199.214844 83.183594 199.550781 83.199219 199.949219 83.398438 C 200.617188 84.101562 201.382812 84.867188 202.25 85.699219 L 199.851562 87.601562 L 197.449219 85.351562 C 197.183594 85.050781 197.183594 84.785156 197.449219 84.550781 L 197.800781 84.300781 M 203.300781 89.800781 L 202.898438 90.148438 C 202.601562 90.351562 202.300781 90.316406 202 90.050781 L 199.851562 87.601562 L 202.25 85.699219 L 204.449219 88.050781 C 204.648438 88.398438 204.398438 88.949219 204.148438 89.148438 "/>
<path style=" stroke:none;fill-rule:nonzero;fill:rgb(96.862745%,77.64706%,3.137255%);fill-opacity:1;" d="M 208.050781 94.449219 L 208.699219 94.148438 C 209.167969 94.015625 209.566406 94.132812 209.898438 94.5 L 211.75 97.800781 L 207.699219 99.550781 C 207.035156 98.214844 206.367188 97.117188 205.699219 96.25 C 205.535156 95.816406 205.683594 95.484375 206.148438 95.25 L 206.648438 95 M 210.949219 103.101562 L 210.300781 103.351562 C 209.898438 103.550781 209.398438 103.351562 209.25 103 C 208.796875 101.804688 208.277344 100.636719 207.699219 99.5 L 211.699219 97.800781 L 213.351562 101.25 C 213.449219 101.699219 212.851562 102.25 212.449219 102.449219 "/>
<path style=" stroke:none;fill-rule:nonzero;fill:rgb(0%,38.431373%,20%);fill-opacity:1;" d="M 208.300781 95.199219 L 208.75 95 C 209.082031 94.867188 209.382812 94.964844 209.648438 95.300781 L 211.148438 98.050781 L 208.25 99.300781 L 206.648438 96.550781 C 206.515625 96.214844 206.601562 95.949219 206.898438 95.75 L 207.300781 95.601562 M 210.800781 102.351562 L 210.398438 102.5 C 210.066406 102.632812 209.785156 102.535156 209.550781 102.199219 C 209.214844 101.332031 208.785156 100.367188 208.25 99.300781 L 211.148438 98.050781 L 212.550781 100.898438 C 212.601562 101.300781 212.199219 101.75 211.898438 101.898438 "/>
<path style=" stroke:none;fill-rule:nonzero;fill:rgb(96.862745%,77.64706%,3.137255%);fill-opacity:1;" d="M 214 107.949219 L 214.699219 107.851562 C 215.144531 107.792969 215.574219 108.035156 215.75 108.449219 L 216.5 112.101562 L 212.101562 112.75 C 211.886719 111.519531 211.601562 110.300781 211.25 109.101562 C 211.214844 108.632812 211.449219 108.351562 211.949219 108.25 L 212.5 108.148438 M 214.101562 117 L 213.398438 117.101562 C 212.898438 117.132812 212.601562 116.917969 212.5 116.449219 L 212.101562 112.75 L 216.5 112.101562 C 216.699219 113.398438 216.867188 114.648438 217 115.851562 C 217 116.300781 216.199219 116.699219 215.75 116.75 "/>
<path style=" stroke:none;fill-rule:nonzero;fill:rgb(0%,38.431373%,20%);fill-opacity:1;" d="M 214 108.699219 L 214.5 108.648438 C 214.867188 108.648438 215.117188 108.816406 215.25 109.148438 C 215.449219 110.082031 215.648438 111.101562 215.851562 112.199219 L 212.699219 112.699219 L 212.050781 109.601562 C 211.984375 109.199219 212.148438 108.984375 212.550781 108.949219 L 212.949219 108.851562 M 214.25 116.199219 L 213.75 116.300781 C 213.382812 116.300781 213.148438 116.132812 213.050781 115.800781 L 212.699219 112.648438 L 215.851562 112.199219 C 216.082031 113.300781 216.234375 114.332031 216.300781 115.300781 C 216.300781 115.648438 215.75 116 215.398438 116.050781 "/>
<path style=" stroke:none;fill-rule:nonzero;fill:rgb(96.862745%,77.64706%,3.137255%);fill-opacity:1;" d="M 215.550781 122.449219 L 216.25 122.5 C 216.75 122.601562 217.035156 122.898438 217.101562 123.398438 L 216.648438 127.101562 L 212.25 126.550781 C 212.449219 125.199219 212.550781 123.800781 212.550781 122.800781 C 212.601562 122.398438 213.050781 122.101562 213.5 122.199219 L 214.050781 122.25 M 212.851562 131.148438 L 212.148438 131.050781 C 211.648438 130.984375 211.417969 130.699219 211.449219 130.199219 C 211.785156 129.167969 212.050781 127.949219 212.25 126.550781 L 216.648438 127.050781 C 216.449219 128.382812 216.234375 129.617188 216 130.75 C 215.800781 131.199219 214.949219 131.398438 214.5 131.351562 "/>
<path style=" stroke:none;fill-rule:nonzero;fill:rgb(0%,38.431373%,20%);fill-opacity:1;" d="M 215.300781 123.199219 L 215.800781 123.199219 C 216.132812 123.332031 216.332031 123.582031 216.398438 123.949219 L 216 127.050781 L 212.851562 126.648438 L 213.148438 123.550781 C 213.183594 123.183594 213.398438 123 213.800781 123 L 214.25 123 M 213.25 130.449219 L 212.75 130.398438 C 212.382812 130.332031 212.214844 130.101562 212.25 129.699219 C 212.484375 128.800781 212.683594 127.785156 212.851562 126.648438 L 216 127.050781 L 215.5 130.050781 C 215.351562 130.449219 214.699219 130.648438 214.398438 130.550781 "/>
<path style=" stroke:none;fill-rule:nonzero;fill:rgb(96.862745%,77.64706%,3.137255%);fill-opacity:1;" d="M 212.550781 136.75 L 213.199219 137 C 213.632812 137.234375 213.800781 137.566406 213.699219 138 L 212.199219 141.5 L 208.101562 139.851562 C 208.667969 138.714844 209.167969 137.542969 209.601562 136.351562 C 209.800781 135.949219 210.132812 135.816406 210.601562 135.949219 L 211.199219 136.148438 M 207.25 144.398438 L 206.648438 144.148438 C 206.183594 143.917969 206.035156 143.582031 206.199219 143.148438 C 206.832031 142.214844 207.464844 141.117188 208.101562 139.851562 L 212.148438 141.5 L 210.398438 144.851562 C 210.101562 145.199219 209.199219 145.199219 208.75 145 "/>
<path style=" stroke:none;fill-rule:nonzero;fill:rgb(0%,38.431373%,20%);fill-opacity:1;" d="M 212.101562 137.398438 L 212.601562 137.550781 C 212.832031 137.714844 212.933594 138 212.898438 138.398438 L 211.601562 141.25 L 208.648438 140.101562 L 209.898438 137.199219 C 210.101562 136.867188 210.367188 136.734375 210.699219 136.800781 L 211.101562 137 M 207.851562 143.800781 L 207.351562 143.648438 C 207.015625 143.449219 206.949219 143.183594 207.148438 142.851562 L 208.648438 140.101562 L 211.601562 141.25 L 210.101562 144.050781 C 209.851562 144.351562 209.199219 144.398438 208.898438 144.25 "/>
<path style=" stroke:none;fill-rule:nonzero;fill:rgb(96.862745%,77.64706%,3.137255%);fill-opacity:1;" d="M 205.25 149.699219 L 205.800781 150.101562 C 206.132812 150.433594 206.199219 150.816406 206 151.25 C 205.199219 152.050781 204.300781 153.148438 203.398438 154.148438 L 200 151.5 C 201 150.5 201.898438 149.351562 202.5 148.5 C 202.832031 148.199219 203.214844 148.183594 203.648438 148.449219 L 204.101562 148.800781 M 197.800781 155.699219 L 197.300781 155.300781 C 196.898438 154.964844 196.851562 154.617188 197.148438 154.25 C 198.015625 153.515625 198.964844 152.601562 200 151.5 L 203.398438 154.148438 L 200.648438 156.949219 C 200.25 157.199219 199.398438 156.949219 199.050781 156.648438 "/>
<path style=" stroke:none;fill-rule:nonzero;fill:rgb(0%,38.431373%,20%);fill-opacity:1;" d="M 204.601562 150.199219 L 205 150.5 C 205.234375 150.699219 205.25 150.984375 205.050781 151.351562 L 202.898438 153.75 L 200.449219 151.898438 C 201.316406 150.964844 202.015625 150.132812 202.550781 149.398438 C 202.851562 149.132812 203.148438 149.101562 203.449219 149.300781 L 203.75 149.550781 M 198.550781 155.300781 L 198.148438 155 C 197.882812 154.765625 197.882812 154.484375 198.148438 154.148438 L 200.449219 151.898438 L 202.949219 153.75 C 202.148438 154.617188 201.367188 155.398438 200.601562 156.101562 C 200.300781 156.300781 199.699219 156.148438 199.398438 155.949219 "/>
<path style=" stroke:none;fill-rule:nonzero;fill:rgb(96.862745%,77.64706%,3.137255%);fill-opacity:1;" d="M 194.25 160.25 L 194.601562 160.75 C 194.832031 161.183594 194.785156 161.566406 194.449219 161.898438 L 191.101562 164.050781 L 188.601562 160.648438 C 189.753906 159.972656 190.871094 159.242188 191.949219 158.449219 C 192.324219 158.285156 192.757812 158.367188 193.050781 158.648438 L 193.398438 159.101562 M 185.199219 164.101562 L 184.851562 163.601562 C 184.582031 163.167969 184.648438 162.800781 185.050781 162.5 L 188.648438 160.648438 L 191.050781 164.050781 L 187.550781 166.050781 C 187.101562 166.148438 186.398438 165.699219 186.101562 165.351562 "/>
<path style=" stroke:none;fill-rule:nonzero;fill:rgb(0%,38.431373%,20%);fill-opacity:1;" d="M 193.449219 160.550781 L 193.699219 160.949219 C 193.867188 161.214844 193.800781 161.5 193.5 161.800781 L 190.699219 163.550781 L 188.949219 161.148438 L 191.75 159.300781 C 192.082031 159.101562 192.367188 159.132812 192.601562 159.398438 L 192.851562 159.75 M 186.050781 163.898438 L 185.75 163.5 C 185.617188 163.199219 185.699219 162.933594 186 162.699219 L 189 161.148438 L 190.699219 163.550781 C 189.699219 164.183594 188.734375 164.734375 187.800781 165.199219 C 187.449219 165.351562 186.851562 165.050781 186.699219 164.800781 "/>
<path style=" stroke:none;fill-rule:nonzero;fill:rgb(96.862745%,77.64706%,3.137255%);fill-opacity:1;" d="M 180.398438 167.550781 L 180.601562 168.148438 C 180.699219 168.617188 180.535156 168.949219 180.101562 169.148438 L 176.199219 170.398438 L 174.898438 166.5 C 176.207031 166.136719 177.492188 165.703125 178.75 165.199219 C 179.25 165.132812 179.582031 165.300781 179.75 165.699219 L 179.949219 166.199219 M 170.550781 168.949219 L 170.351562 168.300781 C 170.25 167.832031 170.417969 167.535156 170.851562 167.398438 C 172.050781 167.199219 173.382812 166.898438 174.851562 166.5 L 176.199219 170.398438 C 174.867188 170.765625 173.535156 171.101562 172.199219 171.398438 C 171.699219 171.398438 171.199219 170.75 171.050781 170.398438 "/>
<path style=" stroke:none;fill-rule:nonzero;fill:rgb(0%,38.431373%,20%);fill-opacity:1;" d="M 179.5 167.648438 L 179.699219 168.101562 C 179.765625 168.433594 179.601562 168.683594 179.199219 168.851562 L 176 169.851562 L 175.050781 167.050781 L 178.25 166.050781 C 178.683594 165.917969 178.964844 166.015625 179.101562 166.351562 L 179.199219 166.699219 M 171.398438 168.949219 L 171.25 168.5 C 171.183594 168.167969 171.351562 167.933594 171.75 167.800781 L 175.050781 167.050781 L 176 169.851562 L 172.699219 170.648438 C 172.300781 170.648438 171.851562 170.25 171.699219 169.949219 "/>
<path style=" stroke:none;fill-rule:nonzero;fill:rgb(96.862745%,77.64706%,3.137255%);fill-opacity:1;" d="M 164.851562 171 L 164.851562 171.648438 C 164.816406 172.117188 164.550781 172.398438 164.050781 172.5 C 162.851562 172.5 161.351562 172.648438 159.949219 172.648438 L 159.898438 168.601562 C 161.269531 168.585938 162.636719 168.5 164 168.351562 C 164.535156 168.351562 164.800781 168.601562 164.800781 169.101562 L 164.800781 169.601562 M 155 169.800781 L 155 169.199219 C 155 168.734375 155.265625 168.484375 155.800781 168.449219 C 156.964844 168.515625 158.332031 168.566406 159.898438 168.601562 L 159.898438 172.648438 L 155.800781 172.601562 C 155.351562 172.5 155 171.75 155 171.300781 "/>
<path style=" stroke:none;fill-rule:nonzero;fill:rgb(0%,38.431373%,20%);fill-opacity:1;" d="M 164 170.898438 L 164 171.351562 C 163.964844 171.648438 163.734375 171.851562 163.300781 171.949219 L 159.898438 172.050781 L 159.898438 169.199219 C 161.234375 169.167969 162.367188 169.101562 163.300781 169 C 163.699219 169 163.933594 169.167969 164 169.5 L 164 169.898438 M 155.800781 170.050781 L 155.800781 169.550781 C 155.800781 169.25 156.015625 169.082031 156.449219 169.050781 C 157.449219 169.148438 158.601562 169.183594 159.898438 169.148438 L 159.898438 172.050781 L 156.5 172.050781 C 156.101562 171.949219 155.800781 171.398438 155.800781 171.101562 "/>
</g>
</svg>
