<?xml version="1.0" encoding="UTF-8"?>
<svg xmlns="http://www.w3.org/2000/svg" xmlns:xlink="http://www.w3.org/1999/xlink" width="px" height="px" viewBox="0 0 320 240" version="1.1">
<defs>
<clipPath id="clip1">
  <path d="M 0 0 L 319.996094 0 L 319.996094 239.996094 L 0 239.996094 Z M 0 0 "/>
</clipPath>
<clipPath id="clip2">
  <path d="M 0 160 L 319.996094 160 L 319.996094 200 L 0 200 Z M 0 160 "/>
</clipPath>
</defs>
<g id="surface1">
<g clip-path="url(#clip1)" clip-rule="nonzero">
<path style=" stroke:none;fill-rule:nonzero;fill:rgb(20%,60.000002%,80.000001%);fill-opacity:1;" d="M 0 0 L 0 239.996094 L 359.996094 239.996094 L 359.996094 0 Z M 0 0 "/>
</g>
<g clip-path="url(#clip2)" clip-rule="nonzero">
<path style=" stroke:none;fill-rule:nonzero;fill:rgb(100%,100%,0%);fill-opacity:1;" d="M 0 160 L 0 173.332031 L 359.996094 173.332031 L 359.996094 160 Z M 0 186.664062 L 0 199.996094 L 359.996094 199.996094 L 359.996094 186.664062 Z M 0 186.664062 "/>
</g>
<path style=" stroke:none;fill-rule:nonzero;fill:rgb(60.000002%,80.000001%,80.000001%);fill-opacity:1;" d="M 71.351562 14 L 72.800781 15.5 Z M 69.851562 17 L 71.351562 18.5 Z M 72.800781 17 L 74.300781 18.5 Z M 72.800781 17 "/>
<path style=" stroke:none;fill-rule:nonzero;fill:rgb(80.000001%,80.000001%,100%);fill-opacity:1;" d="M 69.851562 18.5 L 71.351562 19.949219 L 69.851562 18.449219 M 72.800781 18.449219 L 74.300781 19.949219 Z M 72.800781 18.449219 "/>
<path style=" stroke:none;fill-rule:nonzero;fill:rgb(40.000001%,80.000001%,80.000001%);fill-opacity:1;" d="M 68.351562 21.398438 L 69.851562 22.898438 Z M 68.351562 21.398438 "/>
<path style=" stroke:none;fill-rule:nonzero;fill:rgb(80.000001%,40.000001%,40.000001%);fill-opacity:1;" d="M 71.351562 21.398438 L 72.800781 22.898438 Z M 71.351562 21.398438 "/>
<path style=" stroke:none;fill-rule:nonzero;fill:rgb(40.000001%,80.000001%,80.000001%);fill-opacity:1;" d="M 74.300781 21.398438 L 75.75 22.898438 Z M 74.300781 21.398438 "/>
<path style=" stroke:none;fill-rule:nonzero;fill:rgb(80.000001%,80.000001%,100%);fill-opacity:1;" d="M 68.351562 22.898438 L 69.851562 24.398438 Z M 74.300781 22.898438 L 75.75 24.398438 Z M 74.300781 22.898438 "/>
<path style=" stroke:none;fill-rule:nonzero;fill:rgb(100%,80.000001%,80.000001%);fill-opacity:1;" d="M 69.851562 24.351562 L 71.351562 25.851562 Z M 72.800781 24.351562 L 74.300781 25.851562 Z M 72.800781 24.351562 "/>
<path style=" stroke:none;fill-rule:nonzero;fill:rgb(40.000001%,80.000001%,80.000001%);fill-opacity:1;" d="M 66.898438 25.851562 L 68.398438 27.351562 Z M 66.898438 25.851562 "/>
<path style="fill-rule:nonzero;fill:rgb(80.000001%,0%,0%);fill-opacity:1;stroke-width:3.7;stroke-linecap:butt;stroke-linejoin:miter;stroke:rgb(100%,100%,100%);stroke-opacity:1;stroke-miterlimit:4;" d="M 142.203125 34 L 121.5 112.5 L 42.796875 134 L 121.203125 154.5 L 142.203125 232.898438 L 163.101562 154.5 L 241.5 133.5 L 163.101562 112.601562 L 142.101562 34.203125 Z M 142.203125 34 " transform="matrix(0.5,0,0,0.5,0,0)"/>
<path style=" stroke:none;fill-rule:nonzero;fill:rgb(40.000001%,80.000001%,80.000001%);fill-opacity:1;" d="M 75.75 25.851562 L 77.25 27.351562 Z M 75.75 25.851562 "/>
<path style=" stroke:none;fill-rule:nonzero;fill:rgb(60.000002%,80.000001%,100%);fill-opacity:1;" d="M 66.898438 27.300781 L 68.398438 28.800781 Z M 75.75 27.300781 L 77.25 28.800781 Z M 75.75 27.300781 "/>
<path style=" stroke:none;fill-rule:nonzero;fill:rgb(100%,80.000001%,80.000001%);fill-opacity:1;" d="M 68.351562 28.800781 L 69.851562 30.300781 Z M 74.300781 28.800781 L 75.75 30.300781 Z M 74.300781 28.800781 "/>
<path style=" stroke:none;fill-rule:nonzero;fill:rgb(40.000001%,60.000002%,80.000001%);fill-opacity:1;" d="M 65.398438 30.25 L 66.898438 31.75 Z M 65.398438 30.25 "/>
<path style=" stroke:none;fill-rule:nonzero;fill:rgb(80.000001%,20%,20%);fill-opacity:1;" d="M 68.851562 31.25 L 69.351562 32.25 Z M 74.75 31.25 L 75.25 32.25 Z M 74.75 31.25 "/>
<path style=" stroke:none;fill-rule:nonzero;fill:rgb(40.000001%,60.000002%,80.000001%);fill-opacity:1;" d="M 77.25 30.25 L 78.75 31.75 Z M 77.25 30.25 "/>
<path style=" stroke:none;fill-rule:nonzero;fill:rgb(60.000002%,80.000001%,100%);fill-opacity:1;" d="M 65.398438 31.75 L 66.898438 33.25 Z M 77.25 31.75 L 78.75 33.25 Z M 77.25 31.75 "/>
<path style=" stroke:none;fill-rule:nonzero;fill:rgb(100%,80.000001%,80.000001%);fill-opacity:1;" d="M 66.898438 33.199219 L 68.398438 34.699219 Z M 75.75 33.199219 L 77.25 34.699219 Z M 75.75 33.199219 "/>
<path style=" stroke:none;fill-rule:nonzero;fill:rgb(40.000001%,60.000002%,80.000001%);fill-opacity:1;" d="M 63.949219 34.699219 L 65.449219 36.199219 Z M 78.699219 34.699219 L 80.199219 36.199219 Z M 78.699219 34.699219 "/>
<path style=" stroke:none;fill-rule:nonzero;fill:rgb(60.000002%,80.000001%,80.000001%);fill-opacity:1;" d="M 63.949219 36.148438 L 65.449219 37.648438 Z M 78.699219 36.148438 L 80.199219 37.648438 Z M 78.699219 36.148438 "/>
<path style=" stroke:none;fill-rule:nonzero;fill:rgb(80.000001%,100%,100%);fill-opacity:1;" d="M 63.949219 37.648438 L 65.449219 39.148438 Z M 78.699219 37.648438 L 80.199219 39.148438 Z M 78.699219 37.648438 "/>
<path style=" stroke:none;fill-rule:nonzero;fill:rgb(40.000001%,60.000002%,80.000001%);fill-opacity:1;" d="M 62.5 39.148438 L 63.949219 40.601562 Z M 62.5 39.148438 "/>
<path style=" stroke:none;fill-rule:nonzero;fill:rgb(100%,80.000001%,80.000001%);fill-opacity:1;" d="M 65.398438 39.148438 L 66.898438 40.601562 Z M 77.25 39.148438 L 78.75 40.648438 Z M 77.25 39.148438 "/>
<path style=" stroke:none;fill-rule:nonzero;fill:rgb(40.000001%,60.000002%,80.000001%);fill-opacity:1;" d="M 80.199219 39.148438 L 81.699219 40.601562 Z M 80.199219 39.148438 "/>
<path style=" stroke:none;fill-rule:nonzero;fill:rgb(60.000002%,80.000001%,80.000001%);fill-opacity:1;" d="M 62.5 40.601562 L 63.949219 42.101562 Z M 62.5 40.601562 "/>
<path style=" stroke:none;fill-rule:nonzero;fill:rgb(80.000001%,20%,20%);fill-opacity:1;" d="M 65.898438 41.601562 L 66.398438 42.601562 Z M 77.699219 41.601562 L 78.199219 42.601562 Z M 77.699219 41.601562 "/>
<path style=" stroke:none;fill-rule:nonzero;fill:rgb(60.000002%,80.000001%,80.000001%);fill-opacity:1;" d="M 80.199219 40.601562 L 81.699219 42.101562 Z M 80.199219 40.601562 "/>
<path style=" stroke:none;fill-rule:nonzero;fill:rgb(80.000001%,100%,100%);fill-opacity:1;" d="M 62.5 42.101562 L 63.949219 43.601562 Z M 80.25 42.101562 L 81.75 43.601562 Z M 80.25 42.101562 "/>
<path style=" stroke:none;fill-rule:nonzero;fill:rgb(100%,80.000001%,80.000001%);fill-opacity:1;" d="M 63.949219 43.550781 L 65.449219 45.050781 Z M 78.699219 43.550781 L 80.199219 45.050781 Z M 78.699219 43.550781 "/>
<path style=" stroke:none;fill-rule:nonzero;fill:rgb(60.000002%,80.000001%,80.000001%);fill-opacity:1;" d="M 61 45 L 62.5 46.5 Z M 61 45 "/>
<path style=" stroke:none;fill-rule:nonzero;fill:rgb(80.000001%,20%,20%);fill-opacity:1;" d="M 64.449219 46 L 64.949219 47 Z M 79.199219 46 L 79.699219 47 Z M 79.199219 46 "/>
<path style=" stroke:none;fill-rule:nonzero;fill:rgb(60.000002%,80.000001%,80.000001%);fill-opacity:1;" d="M 81.648438 45 L 83.148438 46.5 Z M 81.648438 45 "/>
<path style=" stroke:none;fill-rule:nonzero;fill:rgb(80.000001%,80.000001%,100%);fill-opacity:1;" d="M 61 46.5 L 62.5 48 Z M 81.648438 46.5 L 83.148438 48 Z M 81.648438 46.5 "/>
<path style=" stroke:none;fill-rule:nonzero;fill:rgb(100%,80.000001%,80.000001%);fill-opacity:1;" d="M 62.5 48 L 63.949219 49.5 Z M 80.25 48 L 81.75 49.5 Z M 80.25 48 "/>
<path style=" stroke:none;fill-rule:nonzero;fill:rgb(60.000002%,80.000001%,80.000001%);fill-opacity:1;" d="M 59.5 49.5 L 61 50.949219 Z M 59.5 49.5 "/>
<path style=" stroke:none;fill-rule:nonzero;fill:rgb(80.000001%,20%,20%);fill-opacity:1;" d="M 63 50.449219 L 63.449219 51.449219 Z M 80.699219 50.449219 L 81.199219 51.449219 Z M 80.699219 50.449219 "/>
<path style=" stroke:none;fill-rule:nonzero;fill:rgb(60.000002%,80.000001%,80.000001%);fill-opacity:1;" d="M 83.148438 49.5 L 84.648438 50.949219 Z M 83.148438 49.5 "/>
<path style=" stroke:none;fill-rule:nonzero;fill:rgb(80.000001%,80.000001%,100%);fill-opacity:1;" d="M 59.5 50.949219 L 61 52.449219 Z M 83.148438 50.949219 L 84.648438 52.449219 Z M 83.148438 50.949219 "/>
<path style=" stroke:none;fill-rule:nonzero;fill:rgb(100%,80.000001%,80.000001%);fill-opacity:1;" d="M 61 52.398438 L 62.5 53.898438 Z M 81.648438 52.398438 L 83.148438 53.898438 Z M 81.648438 52.398438 "/>
<path style=" stroke:none;fill-rule:nonzero;fill:rgb(60.000002%,80.000001%,80.000001%);fill-opacity:1;" d="M 58 53.898438 L 59.5 55.398438 Z M 58 53.898438 "/>
<path style=" stroke:none;fill-rule:nonzero;fill:rgb(80.000001%,20%,20%);fill-opacity:1;" d="M 61 53.898438 L 62.5 55.398438 Z M 81.648438 53.898438 L 83.148438 55.398438 Z M 81.648438 53.898438 "/>
<path style=" stroke:none;fill-rule:nonzero;fill:rgb(60.000002%,80.000001%,80.000001%);fill-opacity:1;" d="M 84.601562 53.898438 L 86.101562 55.398438 Z M 53.601562 55.398438 L 55.101562 56.851562 Z M 53.601562 55.398438 "/>
<path style=" stroke:none;fill-rule:nonzero;fill:rgb(80.000001%,80.000001%,100%);fill-opacity:1;" d="M 55.101562 55.351562 L 56.601562 56.851562 Z M 87.601562 55.351562 L 89.050781 56.851562 Z M 87.601562 55.351562 "/>
<path style=" stroke:none;fill-rule:nonzero;fill:rgb(60.000002%,80.000001%,80.000001%);fill-opacity:1;" d="M 89 55.351562 L 90.5 56.851562 Z M 49.199219 56.851562 L 50.699219 58.351562 Z M 49.199219 56.851562 "/>
<path style=" stroke:none;fill-rule:nonzero;fill:rgb(80.000001%,80.000001%,100%);fill-opacity:1;" d="M 50.648438 56.851562 L 52.148438 58.351562 Z M 50.648438 56.851562 "/>
<path style=" stroke:none;fill-rule:nonzero;fill:rgb(100%,80.000001%,80.000001%);fill-opacity:1;" d="M 56.550781 56.851562 L 58.050781 58.351562 Z M 56.550781 56.851562 "/>
<path style=" stroke:none;fill-rule:nonzero;fill:rgb(80.000001%,20%,20%);fill-opacity:1;" d="M 58 56.851562 L 59.5 58.351562 Z M 84.601562 56.851562 L 86.101562 58.351562 Z M 84.601562 56.851562 "/>
<path style=" stroke:none;fill-rule:nonzero;fill:rgb(100%,80.000001%,80.000001%);fill-opacity:1;" d="M 86.101562 56.851562 L 87.601562 58.351562 Z M 86.101562 56.851562 "/>
<path style=" stroke:none;fill-rule:nonzero;fill:rgb(80.000001%,80.000001%,100%);fill-opacity:1;" d="M 92 56.851562 L 93.5 58.351562 Z M 92 56.851562 "/>
<path style=" stroke:none;fill-rule:nonzero;fill:rgb(60.000002%,80.000001%,80.000001%);fill-opacity:1;" d="M 93.5 56.851562 L 94.949219 58.351562 Z M 93.5 56.851562 "/>
<path style=" stroke:none;fill-rule:nonzero;fill:rgb(40.000001%,60.000002%,80.000001%);fill-opacity:1;" d="M 43.300781 58.300781 L 44.800781 59.800781 Z M 43.300781 58.300781 "/>
<path style=" stroke:none;fill-rule:nonzero;fill:rgb(60.000002%,80.000001%,80.000001%);fill-opacity:1;" d="M 44.75 58.300781 L 46.25 59.800781 Z M 44.75 58.300781 "/>
<path style=" stroke:none;fill-rule:nonzero;fill:rgb(80.000001%,100%,100%);fill-opacity:1;" d="M 46.25 58.300781 L 47.75 59.800781 Z M 46.25 58.300781 "/>
<path style=" stroke:none;fill-rule:nonzero;fill:rgb(100%,80.000001%,80.000001%);fill-opacity:1;" d="M 52.148438 58.300781 L 53.648438 59.800781 Z M 52.148438 58.300781 "/>
<path style=" stroke:none;fill-rule:nonzero;fill:rgb(80.000001%,20%,20%);fill-opacity:1;" d="M 54.601562 58.800781 L 55.601562 59.300781 Z M 88.550781 58.800781 L 89.550781 59.300781 Z M 88.550781 58.800781 "/>
<path style=" stroke:none;fill-rule:nonzero;fill:rgb(100%,80.000001%,80.000001%);fill-opacity:1;" d="M 90.5 58.300781 L 92 59.800781 Z M 90.5 58.300781 "/>
<path style=" stroke:none;fill-rule:nonzero;fill:rgb(80.000001%,100%,100%);fill-opacity:1;" d="M 96.398438 58.300781 L 97.898438 59.800781 Z M 96.398438 58.300781 "/>
<path style=" stroke:none;fill-rule:nonzero;fill:rgb(60.000002%,80.000001%,80.000001%);fill-opacity:1;" d="M 97.898438 58.300781 L 99.398438 59.800781 Z M 97.898438 58.300781 "/>
<path style=" stroke:none;fill-rule:nonzero;fill:rgb(40.000001%,60.000002%,80.000001%);fill-opacity:1;" d="M 99.351562 58.300781 L 100.851562 59.800781 Z M 38.851562 59.800781 L 40.351562 61.300781 Z M 38.851562 59.800781 "/>
<path style=" stroke:none;fill-rule:nonzero;fill:rgb(60.000002%,80.000001%,80.000001%);fill-opacity:1;" d="M 40.351562 59.800781 L 41.851562 61.300781 Z M 40.351562 59.800781 "/>
<path style=" stroke:none;fill-rule:nonzero;fill:rgb(80.000001%,100%,100%);fill-opacity:1;" d="M 41.800781 59.800781 L 43.300781 61.300781 Z M 41.800781 59.800781 "/>
<path style=" stroke:none;fill-rule:nonzero;fill:rgb(100%,80.000001%,80.000001%);fill-opacity:1;" d="M 47.699219 59.800781 L 49.199219 61.300781 Z M 47.699219 59.800781 "/>
<path style=" stroke:none;fill-rule:nonzero;fill:rgb(80.000001%,20%,20%);fill-opacity:1;" d="M 50.148438 60.300781 L 51.148438 60.800781 Z M 92.949219 60.300781 L 93.949219 60.800781 Z M 92.949219 60.300781 "/>
<path style=" stroke:none;fill-rule:nonzero;fill:rgb(100%,80.000001%,80.000001%);fill-opacity:1;" d="M 94.949219 59.800781 L 96.449219 61.300781 Z M 94.949219 59.800781 "/>
<path style=" stroke:none;fill-rule:nonzero;fill:rgb(80.000001%,100%,100%);fill-opacity:1;" d="M 100.851562 59.800781 L 102.351562 61.300781 Z M 100.851562 59.800781 "/>
<path style=" stroke:none;fill-rule:nonzero;fill:rgb(60.000002%,80.000001%,80.000001%);fill-opacity:1;" d="M 102.300781 59.800781 L 103.800781 61.300781 Z M 102.300781 59.800781 "/>
<path style=" stroke:none;fill-rule:nonzero;fill:rgb(40.000001%,60.000002%,80.000001%);fill-opacity:1;" d="M 103.800781 59.800781 L 105.300781 61.300781 Z M 34.398438 61.300781 L 35.898438 62.75 Z M 34.398438 61.300781 "/>
<path style=" stroke:none;fill-rule:nonzero;fill:rgb(60.000002%,80.000001%,100%);fill-opacity:1;" d="M 35.898438 61.25 L 37.398438 62.75 Z M 35.898438 61.25 "/>
<path style=" stroke:none;fill-rule:nonzero;fill:rgb(100%,80.000001%,80.000001%);fill-opacity:1;" d="M 43.300781 61.25 L 44.800781 62.75 Z M 43.300781 61.25 "/>
<path style=" stroke:none;fill-rule:nonzero;fill:rgb(80.000001%,20%,20%);fill-opacity:1;" d="M 45.75 61.75 L 46.75 62.25 Z M 97.398438 61.75 L 98.398438 62.25 Z M 97.398438 61.75 "/>
<path style=" stroke:none;fill-rule:nonzero;fill:rgb(100%,80.000001%,80.000001%);fill-opacity:1;" d="M 99.351562 61.25 L 100.851562 62.75 Z M 99.351562 61.25 "/>
<path style=" stroke:none;fill-rule:nonzero;fill:rgb(60.000002%,80.000001%,100%);fill-opacity:1;" d="M 106.75 61.25 L 108.25 62.75 Z M 106.75 61.25 "/>
<path style=" stroke:none;fill-rule:nonzero;fill:rgb(40.000001%,60.000002%,80.000001%);fill-opacity:1;" d="M 108.199219 61.25 L 109.699219 62.75 Z M 108.199219 61.25 "/>
<path style=" stroke:none;fill-rule:nonzero;fill:rgb(40.000001%,80.000001%,80.000001%);fill-opacity:1;" d="M 30 62.75 L 31.5 64.25 Z M 30 62.75 "/>
<path style=" stroke:none;fill-rule:nonzero;fill:rgb(60.000002%,80.000001%,100%);fill-opacity:1;" d="M 31.5 62.75 L 32.949219 64.25 Z M 31.5 62.75 "/>
<path style=" stroke:none;fill-rule:nonzero;fill:rgb(100%,80.000001%,80.000001%);fill-opacity:1;" d="M 37.398438 62.75 L 38.851562 64.25 Z M 105.300781 62.75 L 106.75 64.25 Z M 105.300781 62.75 "/>
<path style=" stroke:none;fill-rule:nonzero;fill:rgb(60.000002%,80.000001%,100%);fill-opacity:1;" d="M 111.148438 62.75 L 112.648438 64.25 Z M 111.148438 62.75 "/>
<path style=" stroke:none;fill-rule:nonzero;fill:rgb(40.000001%,80.000001%,80.000001%);fill-opacity:1;" d="M 112.648438 62.75 L 114.148438 64.25 Z M 25.550781 64.25 L 27.050781 65.699219 Z M 25.550781 64.25 "/>
<path style=" stroke:none;fill-rule:nonzero;fill:rgb(80.000001%,80.000001%,100%);fill-opacity:1;" d="M 27 64.199219 L 28.5 65.699219 Z M 27 64.199219 "/>
<path style=" stroke:none;fill-rule:nonzero;fill:rgb(100%,80.000001%,80.000001%);fill-opacity:1;" d="M 32.949219 64.199219 L 34.449219 65.699219 Z M 32.949219 64.199219 "/>
<path style=" stroke:none;fill-rule:nonzero;fill:rgb(80.000001%,20%,20%);fill-opacity:1;" d="M 35.398438 64.699219 L 36.398438 65.199219 Z M 107.75 64.699219 L 108.75 65.199219 Z M 107.75 64.699219 "/>
<path style=" stroke:none;fill-rule:nonzero;fill:rgb(100%,80.000001%,80.000001%);fill-opacity:1;" d="M 109.699219 64.199219 L 111.199219 65.699219 Z M 109.699219 64.199219 "/>
<path style=" stroke:none;fill-rule:nonzero;fill:rgb(80.000001%,80.000001%,100%);fill-opacity:1;" d="M 115.601562 64.199219 L 117.101562 65.699219 Z M 115.601562 64.199219 "/>
<path style=" stroke:none;fill-rule:nonzero;fill:rgb(40.000001%,80.000001%,80.000001%);fill-opacity:1;" d="M 117.101562 64.199219 L 118.601562 65.699219 Z M 117.101562 64.199219 "/>
<path style=" stroke:none;fill-rule:nonzero;fill:rgb(60.000002%,80.000001%,80.000001%);fill-opacity:1;" d="M 21.148438 65.699219 L 22.648438 67.199219 Z M 21.148438 65.699219 "/>
<path style=" stroke:none;fill-rule:nonzero;fill:rgb(80.000001%,80.000001%,100%);fill-opacity:1;" d="M 22.601562 65.699219 L 24.101562 67.199219 Z M 22.601562 65.699219 "/>
<path style=" stroke:none;fill-rule:nonzero;fill:rgb(100%,80.000001%,80.000001%);fill-opacity:1;" d="M 28.5 65.699219 L 30 67.199219 Z M 114.148438 65.699219 L 115.648438 67.199219 Z M 114.148438 65.699219 "/>
<path style=" stroke:none;fill-rule:nonzero;fill:rgb(80.000001%,80.000001%,100%);fill-opacity:1;" d="M 120 65.699219 L 121.5 67.199219 Z M 120 65.699219 "/>
<path style=" stroke:none;fill-rule:nonzero;fill:rgb(60.000002%,80.000001%,80.000001%);fill-opacity:1;" d="M 121.5 65.699219 L 123 67.199219 Z M 18.199219 67.199219 L 19.699219 68.648438 Z M 18.199219 67.199219 "/>
<path style=" stroke:none;fill-rule:nonzero;fill:rgb(80.000001%,40.000001%,40.000001%);fill-opacity:1;" d="M 25.550781 67.148438 L 27.050781 68.648438 Z M 117.050781 67.148438 L 118.550781 68.648438 Z M 117.050781 67.148438 "/>
<path style=" stroke:none;fill-rule:nonzero;fill:rgb(60.000002%,80.000001%,80.000001%);fill-opacity:1;" d="M 124.5 67.148438 L 125.949219 68.648438 Z M 21.199219 68.648438 L 22.699219 70.148438 Z M 21.199219 68.648438 "/>
<path style=" stroke:none;fill-rule:nonzero;fill:rgb(80.000001%,80.000001%,100%);fill-opacity:1;" d="M 22.601562 68.648438 L 24.101562 70.148438 Z M 22.601562 68.648438 "/>
<path style=" stroke:none;fill-rule:nonzero;fill:rgb(100%,80.000001%,80.000001%);fill-opacity:1;" d="M 28.5 68.648438 L 30 70.148438 Z M 114.148438 68.648438 L 115.648438 70.148438 Z M 114.148438 68.648438 "/>
<path style=" stroke:none;fill-rule:nonzero;fill:rgb(80.000001%,80.000001%,100%);fill-opacity:1;" d="M 120 68.648438 L 121.5 70.148438 Z M 120 68.648438 "/>
<path style=" stroke:none;fill-rule:nonzero;fill:rgb(60.000002%,80.000001%,80.000001%);fill-opacity:1;" d="M 121.5 68.648438 L 123 70.148438 Z M 121.5 68.648438 "/>
<path style=" stroke:none;fill-rule:nonzero;fill:rgb(40.000001%,80.000001%,80.000001%);fill-opacity:1;" d="M 25.550781 70.148438 L 27.050781 71.601562 Z M 25.550781 70.148438 "/>
<path style=" stroke:none;fill-rule:nonzero;fill:rgb(80.000001%,80.000001%,100%);fill-opacity:1;" d="M 27 70.148438 L 28.5 71.601562 Z M 27 70.148438 "/>
<path style=" stroke:none;fill-rule:nonzero;fill:rgb(100%,80.000001%,80.000001%);fill-opacity:1;" d="M 32.949219 70.148438 L 34.449219 71.601562 Z M 32.949219 70.148438 "/>
<path style=" stroke:none;fill-rule:nonzero;fill:rgb(80.000001%,20%,20%);fill-opacity:1;" d="M 35.398438 70.601562 L 36.398438 71.101562 Z M 107.75 70.601562 L 108.75 71.101562 Z M 107.75 70.601562 "/>
<path style=" stroke:none;fill-rule:nonzero;fill:rgb(100%,80.000001%,80.000001%);fill-opacity:1;" d="M 109.699219 70.148438 L 111.199219 71.601562 Z M 109.699219 70.148438 "/>
<path style=" stroke:none;fill-rule:nonzero;fill:rgb(80.000001%,80.000001%,100%);fill-opacity:1;" d="M 115.601562 70.148438 L 117.101562 71.601562 Z M 115.601562 70.148438 "/>
<path style=" stroke:none;fill-rule:nonzero;fill:rgb(40.000001%,80.000001%,80.000001%);fill-opacity:1;" d="M 117.101562 70.148438 L 118.601562 71.601562 Z M 30 71.648438 L 31.5 73.148438 Z M 30 71.648438 "/>
<path style=" stroke:none;fill-rule:nonzero;fill:rgb(60.000002%,80.000001%,100%);fill-opacity:1;" d="M 31.5 71.601562 L 32.949219 73.101562 Z M 31.5 71.601562 "/>
<path style=" stroke:none;fill-rule:nonzero;fill:rgb(100%,80.000001%,80.000001%);fill-opacity:1;" d="M 37.398438 71.601562 L 38.851562 73.101562 Z M 105.300781 71.601562 L 106.75 73.101562 Z M 105.300781 71.601562 "/>
<path style=" stroke:none;fill-rule:nonzero;fill:rgb(60.000002%,80.000001%,100%);fill-opacity:1;" d="M 111.148438 71.601562 L 112.648438 73.101562 Z M 111.148438 71.601562 "/>
<path style=" stroke:none;fill-rule:nonzero;fill:rgb(40.000001%,80.000001%,80.000001%);fill-opacity:1;" d="M 112.648438 71.601562 L 114.148438 73.101562 Z M 112.648438 71.601562 "/>
<path style=" stroke:none;fill-rule:nonzero;fill:rgb(40.000001%,60.000002%,80.000001%);fill-opacity:1;" d="M 34.398438 73.101562 L 35.898438 74.550781 Z M 34.398438 73.101562 "/>
<path style=" stroke:none;fill-rule:nonzero;fill:rgb(60.000002%,80.000001%,100%);fill-opacity:1;" d="M 35.898438 73.101562 L 37.398438 74.550781 Z M 35.898438 73.101562 "/>
<path style=" stroke:none;fill-rule:nonzero;fill:rgb(100%,80.000001%,80.000001%);fill-opacity:1;" d="M 43.300781 73.101562 L 44.800781 74.550781 Z M 43.300781 73.101562 "/>
<path style=" stroke:none;fill-rule:nonzero;fill:rgb(80.000001%,20%,20%);fill-opacity:1;" d="M 45.75 73.550781 L 46.75 74.050781 Z M 97.398438 73.550781 L 98.398438 74.050781 Z M 97.398438 73.550781 "/>
<path style=" stroke:none;fill-rule:nonzero;fill:rgb(100%,80.000001%,80.000001%);fill-opacity:1;" d="M 99.351562 73.101562 L 100.851562 74.550781 Z M 99.351562 73.101562 "/>
<path style=" stroke:none;fill-rule:nonzero;fill:rgb(60.000002%,80.000001%,100%);fill-opacity:1;" d="M 106.75 73.101562 L 108.25 74.550781 Z M 106.75 73.101562 "/>
<path style=" stroke:none;fill-rule:nonzero;fill:rgb(40.000001%,60.000002%,80.000001%);fill-opacity:1;" d="M 108.199219 73.101562 L 109.699219 74.550781 Z M 38.851562 74.601562 L 40.351562 76.101562 Z M 38.851562 74.601562 "/>
<path style=" stroke:none;fill-rule:nonzero;fill:rgb(60.000002%,80.000001%,80.000001%);fill-opacity:1;" d="M 40.351562 74.550781 L 41.851562 76.050781 Z M 40.351562 74.550781 "/>
<path style=" stroke:none;fill-rule:nonzero;fill:rgb(80.000001%,100%,100%);fill-opacity:1;" d="M 41.800781 74.550781 L 43.300781 76.050781 Z M 41.800781 74.550781 "/>
<path style=" stroke:none;fill-rule:nonzero;fill:rgb(100%,80.000001%,80.000001%);fill-opacity:1;" d="M 47.699219 74.550781 L 49.199219 76.050781 Z M 47.699219 74.550781 "/>
<path style=" stroke:none;fill-rule:nonzero;fill:rgb(80.000001%,20%,20%);fill-opacity:1;" d="M 50.148438 75 L 51.148438 75.5 Z M 92.949219 75 L 93.949219 75.5 Z M 92.949219 75 "/>
<path style=" stroke:none;fill-rule:nonzero;fill:rgb(100%,80.000001%,80.000001%);fill-opacity:1;" d="M 94.949219 74.550781 L 96.449219 76.050781 Z M 94.949219 74.550781 "/>
<path style=" stroke:none;fill-rule:nonzero;fill:rgb(80.000001%,100%,100%);fill-opacity:1;" d="M 100.851562 74.550781 L 102.351562 76.050781 Z M 100.851562 74.550781 "/>
<path style=" stroke:none;fill-rule:nonzero;fill:rgb(60.000002%,80.000001%,80.000001%);fill-opacity:1;" d="M 102.300781 74.550781 L 103.800781 76.050781 Z M 102.300781 74.550781 "/>
<path style=" stroke:none;fill-rule:nonzero;fill:rgb(40.000001%,60.000002%,80.000001%);fill-opacity:1;" d="M 103.800781 74.550781 L 105.300781 76.050781 Z M 43.300781 76.050781 L 44.75 77.5 Z M 43.300781 76.050781 "/>
<path style=" stroke:none;fill-rule:nonzero;fill:rgb(60.000002%,80.000001%,80.000001%);fill-opacity:1;" d="M 44.75 76 L 46.25 77.5 Z M 44.75 76 "/>
<path style=" stroke:none;fill-rule:nonzero;fill:rgb(80.000001%,100%,100%);fill-opacity:1;" d="M 46.25 76 L 47.75 77.5 Z M 46.25 76 "/>
<path style=" stroke:none;fill-rule:nonzero;fill:rgb(100%,80.000001%,80.000001%);fill-opacity:1;" d="M 52.148438 76 L 53.648438 77.5 Z M 52.148438 76 "/>
<path style=" stroke:none;fill-rule:nonzero;fill:rgb(80.000001%,20%,20%);fill-opacity:1;" d="M 54.601562 76.5 L 55.601562 77 Z M 88.550781 76.5 L 89.550781 77 Z M 88.550781 76.5 "/>
<path style=" stroke:none;fill-rule:nonzero;fill:rgb(100%,80.000001%,80.000001%);fill-opacity:1;" d="M 90.5 76 L 92 77.5 Z M 90.5 76 "/>
<path style=" stroke:none;fill-rule:nonzero;fill:rgb(80.000001%,100%,100%);fill-opacity:1;" d="M 96.398438 76 L 97.898438 77.5 Z M 96.398438 76 "/>
<path style=" stroke:none;fill-rule:nonzero;fill:rgb(60.000002%,80.000001%,80.000001%);fill-opacity:1;" d="M 97.898438 76 L 99.398438 77.5 Z M 97.898438 76 "/>
<path style=" stroke:none;fill-rule:nonzero;fill:rgb(40.000001%,60.000002%,80.000001%);fill-opacity:1;" d="M 99.351562 76 L 100.851562 77.5 Z M 99.351562 76 "/>
<path style=" stroke:none;fill-rule:nonzero;fill:rgb(60.000002%,80.000001%,80.000001%);fill-opacity:1;" d="M 49.199219 77.5 L 50.699219 79 Z M 49.199219 77.5 "/>
<path style=" stroke:none;fill-rule:nonzero;fill:rgb(80.000001%,80.000001%,100%);fill-opacity:1;" d="M 50.648438 77.5 L 52.148438 79 Z M 50.648438 77.5 "/>
<path style=" stroke:none;fill-rule:nonzero;fill:rgb(100%,80.000001%,80.000001%);fill-opacity:1;" d="M 56.550781 77.5 L 58.050781 79 Z M 56.550781 77.5 "/>
<path style=" stroke:none;fill-rule:nonzero;fill:rgb(80.000001%,20%,20%);fill-opacity:1;" d="M 58 77.5 L 59.5 79 Z M 84.601562 77.5 L 86.101562 79 Z M 84.601562 77.5 "/>
<path style=" stroke:none;fill-rule:nonzero;fill:rgb(100%,80.000001%,80.000001%);fill-opacity:1;" d="M 86.101562 77.5 L 87.601562 79 Z M 86.101562 77.5 "/>
<path style=" stroke:none;fill-rule:nonzero;fill:rgb(80.000001%,80.000001%,100%);fill-opacity:1;" d="M 92 77.5 L 93.5 79 Z M 92 77.5 "/>
<path style=" stroke:none;fill-rule:nonzero;fill:rgb(60.000002%,80.000001%,80.000001%);fill-opacity:1;" d="M 93.5 77.5 L 94.949219 79 Z M 53.648438 79 L 55.148438 80.5 Z M 53.648438 79 "/>
<path style=" stroke:none;fill-rule:nonzero;fill:rgb(80.000001%,80.000001%,100%);fill-opacity:1;" d="M 55.101562 79 L 56.601562 80.5 Z M 87.601562 79 L 89.050781 80.5 Z M 87.601562 79 "/>
<path style=" stroke:none;fill-rule:nonzero;fill:rgb(60.000002%,80.000001%,80.000001%);fill-opacity:1;" d="M 89 79 L 90.5 80.5 Z M 58 80.5 L 59.5 81.949219 Z M 58 80.5 "/>
<path style=" stroke:none;fill-rule:nonzero;fill:rgb(80.000001%,20%,20%);fill-opacity:1;" d="M 61 80.5 L 62.5 81.949219 Z M 81.648438 80.5 L 83.148438 82 Z M 81.648438 80.5 "/>
<path style=" stroke:none;fill-rule:nonzero;fill:rgb(60.000002%,80.000001%,80.000001%);fill-opacity:1;" d="M 84.601562 80.5 L 86.101562 81.949219 Z M 84.601562 80.5 "/>
<path style=" stroke:none;fill-rule:nonzero;fill:rgb(100%,80.000001%,80.000001%);fill-opacity:1;" d="M 61 81.949219 L 62.5 83.449219 Z M 81.648438 81.949219 L 83.148438 83.449219 Z M 81.648438 81.949219 "/>
<path style=" stroke:none;fill-rule:nonzero;fill:rgb(80.000001%,80.000001%,100%);fill-opacity:1;" d="M 59.5 83.398438 L 61 84.898438 Z M 59.5 83.398438 "/>
<path style=" stroke:none;fill-rule:nonzero;fill:rgb(80.000001%,20%,20%);fill-opacity:1;" d="M 63 84.398438 L 63.449219 85.398438 Z M 80.699219 84.398438 L 81.199219 85.398438 Z M 80.699219 84.398438 "/>
<path style=" stroke:none;fill-rule:nonzero;fill:rgb(80.000001%,80.000001%,100%);fill-opacity:1;" d="M 83.148438 83.398438 L 84.648438 84.898438 Z M 83.148438 83.398438 "/>
<path style=" stroke:none;fill-rule:nonzero;fill:rgb(60.000002%,80.000001%,80.000001%);fill-opacity:1;" d="M 59.5 84.898438 L 61 86.398438 Z M 83.148438 84.898438 L 84.648438 86.398438 Z M 83.148438 84.898438 "/>
<path style=" stroke:none;fill-rule:nonzero;fill:rgb(100%,80.000001%,80.000001%);fill-opacity:1;" d="M 62.5 86.351562 L 63.949219 87.851562 Z M 80.25 86.351562 L 81.75 87.851562 Z M 80.25 86.351562 "/>
<path style=" stroke:none;fill-rule:nonzero;fill:rgb(80.000001%,80.000001%,100%);fill-opacity:1;" d="M 61 87.851562 L 62.5 89.351562 Z M 61 87.851562 "/>
<path style=" stroke:none;fill-rule:nonzero;fill:rgb(80.000001%,20%,20%);fill-opacity:1;" d="M 64.449219 88.800781 L 64.949219 89.800781 Z M 79.199219 88.800781 L 79.699219 89.800781 Z M 79.199219 88.800781 "/>
<path style=" stroke:none;fill-rule:nonzero;fill:rgb(80.000001%,80.000001%,100%);fill-opacity:1;" d="M 81.648438 87.851562 L 83.148438 89.351562 Z M 81.648438 87.851562 "/>
<path style=" stroke:none;fill-rule:nonzero;fill:rgb(60.000002%,80.000001%,80.000001%);fill-opacity:1;" d="M 61 89.300781 L 62.5 90.800781 Z M 81.648438 89.300781 L 83.148438 90.800781 Z M 81.648438 89.300781 "/>
<path style=" stroke:none;fill-rule:nonzero;fill:rgb(100%,80.000001%,80.000001%);fill-opacity:1;" d="M 63.949219 90.800781 L 65.449219 92.300781 Z M 78.699219 90.800781 L 80.199219 92.300781 Z M 78.699219 90.800781 "/>
<path style=" stroke:none;fill-rule:nonzero;fill:rgb(80.000001%,100%,100%);fill-opacity:1;" d="M 62.5 92.25 L 63.949219 93.75 Z M 62.5 92.25 "/>
<path style=" stroke:none;fill-rule:nonzero;fill:rgb(80.000001%,20%,20%);fill-opacity:1;" d="M 65.898438 93.25 L 66.398438 94.25 Z M 77.699219 93.25 L 78.199219 94.25 Z M 77.699219 93.25 "/>
<path style=" stroke:none;fill-rule:nonzero;fill:rgb(80.000001%,100%,100%);fill-opacity:1;" d="M 80.199219 92.25 L 81.699219 93.75 Z M 80.199219 92.25 "/>
<path style=" stroke:none;fill-rule:nonzero;fill:rgb(60.000002%,80.000001%,80.000001%);fill-opacity:1;" d="M 62.5 93.75 L 63.949219 95.25 Z M 80.25 93.75 L 81.75 95.25 Z M 80.25 93.75 "/>
<path style=" stroke:none;fill-rule:nonzero;fill:rgb(40.000001%,60.000002%,80.000001%);fill-opacity:1;" d="M 62.5 95.199219 L 63.949219 96.699219 Z M 62.5 95.199219 "/>
<path style=" stroke:none;fill-rule:nonzero;fill:rgb(100%,80.000001%,80.000001%);fill-opacity:1;" d="M 65.398438 95.199219 L 66.898438 96.699219 Z M 77.25 95.199219 L 78.75 96.699219 Z M 77.25 95.199219 "/>
<path style=" stroke:none;fill-rule:nonzero;fill:rgb(40.000001%,60.000002%,80.000001%);fill-opacity:1;" d="M 80.199219 95.199219 L 81.699219 96.699219 Z M 80.199219 95.199219 "/>
<path style=" stroke:none;fill-rule:nonzero;fill:rgb(80.000001%,100%,100%);fill-opacity:1;" d="M 63.949219 96.699219 L 65.449219 98.199219 Z M 78.699219 96.699219 L 80.199219 98.199219 Z M 78.699219 96.699219 "/>
<path style=" stroke:none;fill-rule:nonzero;fill:rgb(60.000002%,80.000001%,80.000001%);fill-opacity:1;" d="M 63.949219 98.148438 L 65.449219 99.648438 Z M 78.699219 98.148438 L 80.199219 99.648438 Z M 78.699219 98.148438 "/>
<path style=" stroke:none;fill-rule:nonzero;fill:rgb(40.000001%,60.000002%,80.000001%);fill-opacity:1;" d="M 63.949219 99.648438 L 65.449219 101.148438 Z M 78.699219 99.648438 L 80.199219 101.148438 Z M 78.699219 99.648438 "/>
<path style=" stroke:none;fill-rule:nonzero;fill:rgb(100%,80.000001%,80.000001%);fill-opacity:1;" d="M 66.898438 101.101562 L 68.398438 102.601562 Z M 75.75 101.101562 L 77.25 102.601562 Z M 75.75 101.101562 "/>
<path style=" stroke:none;fill-rule:nonzero;fill:rgb(60.000002%,80.000001%,100%);fill-opacity:1;" d="M 65.398438 102.601562 L 66.898438 104.101562 Z M 65.398438 102.601562 "/>
<path style=" stroke:none;fill-rule:nonzero;fill:rgb(80.000001%,20%,20%);fill-opacity:1;" d="M 68.851562 103.601562 L 69.351562 104.601562 Z M 74.75 103.601562 L 75.25 104.601562 Z M 74.75 103.601562 "/>
<path style=" stroke:none;fill-rule:nonzero;fill:rgb(60.000002%,80.000001%,100%);fill-opacity:1;" d="M 77.25 102.601562 L 78.75 104.101562 Z M 77.25 102.601562 "/>
<path style=" stroke:none;fill-rule:nonzero;fill:rgb(40.000001%,60.000002%,80.000001%);fill-opacity:1;" d="M 65.398438 104.101562 L 66.898438 105.550781 Z M 77.25 104.101562 L 78.75 105.601562 Z M 77.25 104.101562 "/>
<path style=" stroke:none;fill-rule:nonzero;fill:rgb(100%,80.000001%,80.000001%);fill-opacity:1;" d="M 68.351562 105.550781 L 69.851562 107.050781 Z M 74.300781 105.550781 L 75.75 107.050781 Z M 74.300781 105.550781 "/>
<path style=" stroke:none;fill-rule:nonzero;fill:rgb(60.000002%,80.000001%,100%);fill-opacity:1;" d="M 66.898438 107 L 68.398438 108.5 Z M 75.75 107 L 77.25 108.5 Z M 75.75 107 "/>
<path style=" stroke:none;fill-rule:nonzero;fill:rgb(40.000001%,80.000001%,80.000001%);fill-opacity:1;" d="M 66.898438 108.5 L 68.398438 110 Z M 75.75 108.5 L 77.25 110 Z M 75.75 108.5 "/>
<path style=" stroke:none;fill-rule:nonzero;fill:rgb(100%,80.000001%,80.000001%);fill-opacity:1;" d="M 69.851562 110 L 71.351562 111.5 Z M 72.800781 110 L 74.300781 111.5 Z M 72.800781 110 "/>
<path style=" stroke:none;fill-rule:nonzero;fill:rgb(80.000001%,80.000001%,100%);fill-opacity:1;" d="M 68.351562 111.449219 L 69.851562 112.949219 Z M 74.300781 111.449219 L 75.75 112.949219 Z M 74.300781 111.449219 "/>
<path style=" stroke:none;fill-rule:nonzero;fill:rgb(40.000001%,80.000001%,80.000001%);fill-opacity:1;" d="M 68.351562 112.949219 L 69.851562 114.449219 Z M 68.351562 112.949219 "/>
<path style=" stroke:none;fill-rule:nonzero;fill:rgb(80.000001%,40.000001%,40.000001%);fill-opacity:1;" d="M 71.351562 112.949219 L 72.800781 114.449219 Z M 71.351562 112.949219 "/>
<path style=" stroke:none;fill-rule:nonzero;fill:rgb(40.000001%,80.000001%,80.000001%);fill-opacity:1;" d="M 74.300781 112.949219 L 75.75 114.449219 Z M 74.300781 112.949219 "/>
<path style=" stroke:none;fill-rule:nonzero;fill:rgb(80.000001%,80.000001%,100%);fill-opacity:1;" d="M 69.851562 115.898438 L 71.351562 117.398438 Z M 72.800781 115.898438 L 74.300781 117.398438 Z M 72.800781 115.898438 "/>
<path style=" stroke:none;fill-rule:nonzero;fill:rgb(60.000002%,80.000001%,80.000001%);fill-opacity:1;" d="M 69.851562 117.351562 L 71.351562 118.851562 Z M 72.800781 117.351562 L 74.300781 118.851562 Z M 71.300781 120.351562 L 72.800781 121.800781 Z M 71.300781 120.351562 "/>
</g>
</svg>
