<?xml version="1.0" encoding="UTF-8"?>
<svg xmlns="http://www.w3.org/2000/svg" xmlns:xlink="http://www.w3.org/1999/xlink" width="px" height="px" viewBox="0 0 320 240" version="1.1">
<g id="surface1">
<path style=" stroke:none;fill-rule:nonzero;fill:rgb(24.705882%,61.176473%,20.784314%);fill-opacity:1;" d="M 0.0507812 0 L 320.050781 0 L 320.050781 240 L 0.0507812 240 Z M 0.0507812 0 "/>
<path style=" stroke:none;fill-rule:nonzero;fill:rgb(92.941177%,16.078432%,22.352941%);fill-opacity:1;" d="M 0.0507812 0 L 320.050781 0 L 320.050781 160 L 0.0507812 160 Z M 0.0507812 0 "/>
<path style=" stroke:none;fill-rule:nonzero;fill:rgb(0%,72.549021%,89.411765%);fill-opacity:1;" d="M 0.0507812 0 L 320.050781 0 L 320.050781 80 L 0.0507812 80 Z M 0.0507812 0 "/>
<path style=" stroke:none;fill-rule:nonzero;fill:rgb(100%,100%,100%);fill-opacity:1;" d="M 188 120 C 188 100.117188 171.882812 84 152 84 C 132.117188 84 116 100.117188 116 120 C 116 139.882812 132.117188 156 152 156 C 171.882812 156 188 139.882812 188 120 Z M 188 120 "/>
<path style=" stroke:none;fill-rule:nonzero;fill:rgb(92.941177%,16.078432%,22.352941%);fill-opacity:1;" d="M 190 120 C 190 103.429688 176.570312 90 160 90 C 143.429688 90 130 103.429688 130 120 C 130 136.570312 143.429688 150 160 150 C 176.570312 150 190 136.570312 190 120 Z M 190 120 "/>
<path style=" stroke:none;fill-rule:nonzero;fill:rgb(100%,100%,100%);fill-opacity:1;" d="M 192 100 L 195.851562 110.75 L 206.148438 105.851562 L 201.25 116.199219 L 212 120 L 201.25 123.851562 L 206.148438 134.148438 L 195.851562 129.25 L 192 140 L 188.148438 129.25 L 177.851562 134.148438 L 182.75 123.851562 L 172 120 L 182.75 116.148438 L 177.851562 105.851562 L 188.148438 110.75 Z M 192 100 "/>
</g>
</svg>
