<?xml version="1.0" encoding="UTF-8"?>
<svg xmlns="http://www.w3.org/2000/svg" xmlns:xlink="http://www.w3.org/1999/xlink" width="px" height="px" viewBox="0 0 320 240" version="1.1">
<defs>
<clipPath id="clip1">
  <path d="M 0.015625 0 L 319.984375 0 L 319.984375 240 L 0.015625 240 Z M 0.015625 0 "/>
</clipPath>
</defs>
<g id="surface1">
<g clip-path="url(#clip1)" clip-rule="nonzero">
<path style=" stroke:none;fill-rule:evenodd;fill:rgb(0%,0%,60.000002%);fill-opacity:1;" d="M 0.015625 0 L 319.984375 0 L 319.984375 240 L 0.015625 240 Z M 0.015625 0 "/>
</g>
<path style=" stroke:none;fill-rule:evenodd;fill:rgb(100%,80.000001%,0%);fill-opacity:1;" d="M 66.484375 0 L 306.015625 240.140625 L 306.015625 0.140625 Z M 66.484375 0 "/>
<path style=" stroke:none;fill-rule:evenodd;fill:rgb(100%,100%,100%);fill-opacity:1;" d="M 246.203125 225.703125 L 233.125 216.1875 L 219.71875 225.65625 L 224.78125 210.09375 L 211.5625 200.484375 L 227.96875 200.484375 L 233.03125 184.921875 L 238.046875 200.53125 L 254.453125 200.53125 L 241.328125 210.234375 Z M 284.3125 230.578125 L 267.90625 230.53125 L 262.890625 214.921875 L 257.828125 230.484375 L 241.421875 230.484375 L 254.640625 240.09375 L 249.578125 255.65625 L 262.984375 246.1875 L 276.109375 255.703125 L 271.1875 240.234375 Z M 211.375 180.328125 L 224.5 170.625 L 208.09375 170.578125 L 203.078125 155.015625 L 198.015625 170.578125 L 181.609375 170.53125 L 194.828125 180.140625 L 189.765625 195.75 L 203.171875 186.234375 L 216.296875 195.796875 Z M 181.234375 150.09375 L 194.359375 140.4375 L 177.953125 140.390625 L 172.9375 124.78125 L 167.828125 140.34375 L 151.46875 140.34375 L 164.6875 149.953125 L 159.625 165.515625 L 173.03125 156.046875 L 186.109375 165.5625 Z M 151.375 120.28125 L 164.5 110.578125 L 148.09375 110.578125 L 143.125 94.921875 L 138.0625 110.484375 L 121.65625 110.484375 L 134.875 120.046875 L 129.8125 135.65625 L 143.21875 126.140625 L 156.34375 135.703125 L 151.421875 120.234375 Z M 121.1875 90.140625 L 134.3125 80.484375 L 117.90625 80.4375 L 112.890625 64.828125 L 107.78125 80.390625 L 91.421875 80.390625 L 104.6875 90 L 99.625 105.5625 L 113.03125 96.09375 L 126.109375 105.609375 L 121.234375 90.140625 Z M 91.375 60.1875 L 104.453125 50.484375 L 88.046875 50.484375 L 83.078125 34.828125 L 77.96875 50.4375 L 61.5625 50.4375 L 74.875 60 L 69.765625 75.5625 L 83.171875 66.09375 L 96.203125 75.65625 Z M 61.375 30.1875 L 74.453125 20.484375 L 58.046875 20.484375 L 53.078125 4.828125 L 47.96875 20.4375 L 31.5625 20.4375 L 44.875 30 L 39.71875 45.609375 L 53.171875 36.09375 L 66.203125 45.65625 Z M 31.375 0.1875 L 44.40625 -9.515625 L 28 -9.515625 L 22.984375 -25.125 L 17.96875 -9.5625 L 1.5625 -9.5625 L 14.828125 0 L 9.765625 15.5625 L 23.171875 6.09375 L 36.203125 15.65625 Z M 31.375 0.1875 "/>
</g>
</svg>
