<?xml version="1.0" encoding="UTF-8"?>
<svg xmlns="http://www.w3.org/2000/svg" xmlns:xlink="http://www.w3.org/1999/xlink" width="px" height="px" viewBox="0 0 320 240" version="1.1">
<defs>
<clipPath id="clip1">
  <path d="M 0.0273438 0 L 319.949219 0 L 319.949219 240 L 0.0273438 240 Z M 0.0273438 0 "/>
</clipPath>
<clipPath id="clip2">
  <path d="M 0.0273438 0 L 319.949219 0 L 319.949219 240 L 0.0273438 240 Z M 0.0273438 0 "/>
</clipPath>
</defs>
<g id="surface1">
<g clip-path="url(#clip1)" clip-rule="nonzero">
<path style=" stroke:none;fill-rule:evenodd;fill:rgb(9.411765%,71.372551%,21.568628%);fill-opacity:1;" d="M -40.988281 0 L 160.011719 120 L -40.988281 240 Z M 361.011719 0 L 160.011719 120 L 361.011719 240 Z M 361.011719 0 "/>
<path style=" stroke:none;fill-rule:evenodd;fill:rgb(81.176472%,3.529412%,12.941177%);fill-opacity:1;" d="M -40.988281 0 L 160.011719 120 L 361.011719 0 Z M -40.988281 240 L 160.011719 120 L 361.011719 240 Z M -40.988281 240 "/>
<path style=" stroke:none;fill-rule:evenodd;fill:rgb(100%,100%,100%);fill-opacity:1;" d="M 361.011719 0 L 323.558594 0 L -40.988281 217.640625 L -40.988281 240 L -3.535156 240 L 361.011719 22.359375 Z M 361.011719 0 "/>
</g>
<path style=" stroke:none;fill-rule:evenodd;fill:rgb(100%,100%,100%);fill-opacity:1;" d="M 229.433594 120 C 229.433594 158.328125 198.363281 189.398438 160.035156 189.398438 C 121.707031 189.398438 90.636719 158.328125 90.636719 120 C 90.636719 81.683594 121.699219 50.625 160.011719 50.625 C 198.328125 50.625 229.386719 81.683594 229.386719 120 Z M 229.433594 120 "/>
<g clip-path="url(#clip2)" clip-rule="nonzero">
<path style=" stroke:none;fill-rule:evenodd;fill:rgb(100%,100%,100%);fill-opacity:1;" d="M -40.988281 0 L -40.988281 22.359375 L 323.558594 240 L 361.011719 240 L 361.011719 217.640625 L -3.535156 0 Z M -40.988281 0 "/>
</g>
<path style="fill-rule:evenodd;fill:rgb(81.176472%,3.529412%,12.941177%);fill-opacity:1;stroke-width:3.9;stroke-linecap:butt;stroke-linejoin:miter;stroke:rgb(9.411765%,71.372551%,21.568628%);stroke-opacity:1;stroke-miterlimit:4;" d="M 279.998332 200.2 L 260.698332 200.5 L 250.698332 216.9 L 240.798332 200.5 L 221.598332 200.1 L 230.898332 183.2 L 221.698332 166.4 L 240.898332 166 L 250.898332 149.6 L 260.798332 166.1 L 279.998332 166.5 L 270.698332 183.3 Z M 215.398332 311.8 L 196.198332 312.1 L 186.198332 328.5 L 176.298332 312.1 L 157.098332 311.7 L 166.398332 294.8 L 157.198332 278 L 176.398332 277.6 L 186.398332 261.2 L 196.298332 277.7 L 215.498332 278.1 L 206.198332 294.9 Z M 345.998332 311.8 L 326.798332 312.1 L 316.798332 328.5 L 306.798332 312.1 L 287.698332 311.7 L 296.998332 294.8 L 287.698332 278 L 306.898332 277.6 L 316.898332 261.2 L 326.898332 277.7 L 346.098332 278.1 L 336.698332 294.9 Z M 345.998332 311.8 " transform="matrix(0.46875,0,0,0.46875,42.450001,0)"/>
</g>
</svg>
