<?xml version="1.0" encoding="UTF-8"?>
<svg xmlns="http://www.w3.org/2000/svg" xmlns:xlink="http://www.w3.org/1999/xlink" width="px" height="px" viewBox="0 0 320 240" version="1.1">
<g id="surface1">
<rect x="0" y="0" width="320" height="240" style="fill:rgb(81.176472%,7.843138%,16.862746%);fill-opacity:1;stroke:none;"/>
<path style=" stroke:none;fill-rule:nonzero;fill:rgb(100%,100%,100%);fill-opacity:1;" d="M 279.851562 65.300781 L 279.851562 146.101562 C 279.851562 167.648438 236.75 174.699219 236.75 174.699219 C 236.75 174.699219 193.550781 167.699219 193.550781 146 L 193.550781 65.300781 Z M 279.851562 65.300781 "/>
<path style=" stroke:none;fill-rule:nonzero;fill:rgb(18.431373%,56.078434%,13.333334%);fill-opacity:1;" d="M 279.851562 146.101562 C 279.851562 167.648438 236.75 174.699219 236.75 174.699219 C 236.75 174.699219 193.550781 167.699219 193.550781 146 C 193.550781 146 193.550781 144.25 194.449219 143.300781 C 194.449219 143.300781 193.949219 146.851562 196.699219 149.601562 C 196.699219 149.601562 194.550781 145.699219 196.699219 141.949219 C 196.699219 141.949219 195.851562 146.851562 198.898438 149.601562 C 198.898438 149.601562 197.25 145.648438 199.101562 141.25 C 199.101562 141.25 198.199219 148.398438 201.449219 149.898438 C 201.449219 149.898438 202.351562 145.699219 201.050781 143.101562 C 201.050781 143.101562 203.300781 144 203.199219 150 C 203.199219 150 203.898438 149.101562 204.101562 144.75 C 204.101562 144.75 204.199219 149.75 205.851562 150.898438 C 205.851562 150.898438 206.449219 150.398438 205.699219 148.148438 C 204.898438 145.949219 206 145.148438 206.199219 145.148438 C 206.199219 145.148438 205.800781 147.648438 207.898438 149.550781 C 207.898438 149.550781 207 145.601562 208.25 145.050781 C 208.25 145.050781 207.949219 148.398438 210.648438 149.101562 C 210.648438 149.101562 210.800781 148.148438 210.25 147.101562 C 210.25 147.101562 209.75 145.851562 210.101562 144.851562 C 210.101562 144.851562 210.949219 147.851562 212.101562 148.351562 C 212.101562 148.351562 211.398438 146.550781 212.101562 144.851562 C 212.101562 144.851562 212.199219 147.351562 214.449219 148.398438 C 214.449219 148.398438 212.949219 146.398438 213.5 144.300781 L 227.851562 145 L 235.351562 145.351562 L 257.699219 143.851562 L 261.5 140.5 C 261.5 140.5 263.050781 142.550781 260.601562 145.898438 C 260.601562 145.898438 263 145.5 263.75 141.75 C 263.75 141.75 264.75 143.800781 263.398438 146.148438 C 263.398438 146.148438 266.050781 143.449219 266.398438 140.5 C 266.398438 140.5 267.449219 143.398438 264.949219 146.5 C 264.949219 146.5 267.148438 145.699219 268.101562 142.449219 C 268.101562 142.449219 268.898438 144.449219 266.75 147.199219 C 266.75 147.199219 270.800781 145.148438 270.699219 140.699219 C 270.699219 140.699219 272.351562 143.101562 270.449219 146.5 C 270.449219 146.5 272.449219 144.648438 272.699219 141.851562 C 272.699219 141.851562 273.851562 143.101562 272.601562 146.550781 C 272.601562 146.550781 275.101562 144.148438 275.5 141.601562 C 275.5 141.601562 276 144 273.898438 147 C 273.898438 147 275.351562 146.601562 276.75 143.699219 C 276.75 143.699219 277.101562 144.898438 275.851562 147 C 275.851562 147 277.25 146.75 278.148438 144.050781 C 278.148438 144.050781 278.300781 145.648438 277.898438 147.050781 C 277.898438 147.050781 278.949219 146.398438 279.199219 143.398438 C 279.207031 144.171875 279.414062 144.929688 279.800781 145.601562 L 279.800781 146 Z M 279.851562 146.101562 "/>
<path style="fill-rule:nonzero;fill:rgb(83.137256%,0%,0%);fill-opacity:1;stroke-width:1.2;stroke-linecap:butt;stroke-linejoin:round;stroke:rgb(0%,0%,0%);stroke-opacity:1;stroke-miterlimit:4;" d="M 515.398438 198.703125 C 515.398438 198.703125 512.398438 199.296875 508.398438 198.101562 C 504.601562 196.898438 503.101562 197.398438 501.898438 198.101562 C 501.898438 198.101562 503.398438 195 499.601562 192.5 C 499.601562 192.5 500.796875 195.703125 499.101562 197.101562 C 499.101562 197.101562 498.398438 197.796875 497.5 196.796875 C 497.5 196.796875 496.203125 195.296875 494.703125 194.398438 C 494.703125 194.398438 498 193.203125 497.398438 189.898438 C 496.796875 186.601562 495 186.296875 494.101562 185.796875 C 493.9375 186.59375 493.9375 187.40625 494.101562 188.203125 C 494.101562 188.203125 490.601562 186.203125 495.296875 183.5 C 500 180.796875 499.296875 179.101562 498.398438 177.703125 C 497.476562 176.28125 496.289062 175.0625 494.898438 174.101562 C 494.898438 174.101562 495.898438 175.703125 495.601562 177 C 495.5 178.203125 493.203125 179 493.601562 176.898438 C 494.101562 174.5 493.601562 174.898438 493.601562 172.601562 C 493.601562 172.601562 497.796875 174 499.601562 169.796875 C 499.601562 169.796875 501.203125 165.5 495.796875 163.398438 C 495.796875 163.398438 497.101562 165.203125 496.5 166.398438 C 496.5 166.398438 495.296875 168.601562 494 167 C 492.703125 165.398438 491.796875 164.796875 491.898438 162.796875 C 491.898438 162.796875 496.796875 163.5 495.5 158.101562 C 495.5 158.101562 494.601562 161.703125 488.296875 156.898438 C 488.296875 156.898438 492.5 152.703125 490.796875 149.296875 C 490.796875 149.296875 490.296875 147.796875 485.898438 148.601562 C 485.898438 148.601562 489.703125 146.203125 488.203125 144.101562 C 488.203125 144.101562 487.296875 142.796875 483.601562 144.5 C 483.601562 144.5 485.101562 142.203125 481.5 139.5 C 481.5 139.5 479.101562 140.703125 477.898438 141.898438 C 477.898438 141.898438 475.5 138.898438 473.898438 137.601562 C 473.898438 137.601562 471.101562 138.703125 470.398438 141.898438 C 470.398438 141.898438 469.101562 140.398438 466.101562 139.5 C 466.101562 139.5 464.703125 142.296875 466.601562 144.5 C 466.601562 144.5 465.203125 144.5 462.601562 143.398438 C 462.601562 143.398438 459.796875 142.203125 460.296875 144.5 C 460.601562 146.898438 460.898438 147.5 461.5 148.703125 C 461.5 148.703125 455 147.203125 455.296875 150.703125 C 455.4375 153.085938 456.515625 155.3125 458.296875 156.898438 C 458.296875 156.898438 454.796875 161.703125 451.703125 158.101562 C 451.703125 158.101562 450.5 159.296875 452.898438 162.296875 C 452.898438 162.296875 455.296875 164.796875 453.203125 166.5 C 453.203125 166.5 450.703125 168.5 449.5 164.5 C 449.5 164.5 445.398438 168.601562 450.296875 171.703125 C 450.296875 171.703125 453.296875 173.5 456.601562 170.703125 C 456.601562 170.703125 455.601562 178.703125 452.601562 177.101562 C 452.601562 177.101562 450.703125 175.898438 454 174.203125 C 454 174.203125 449.203125 173.601562 448.5 178.203125 C 448.5 178.203125 447.898438 181.703125 452 183.203125 C 452 183.203125 455.101562 184.398438 452 186.796875 C 452 186.796875 449.5 188.5 451.101562 191.203125 C 451.101562 191.203125 452.898438 194 448.203125 194.398438 C 448.203125 194.398438 445.796875 194.398438 444.898438 194 C 444.898438 194 443.898438 196 444.5 198 C 444.5 198 442.203125 196.296875 437 198.203125 C 431.796875 200.203125 432.101562 198.796875 431.796875 199.398438 L 430.203125 201.796875 C 430.203125 201.796875 433 205.398438 433.101562 205.101562 L 432.5 209.101562 L 433.898438 209.703125 L 444.703125 204.898438 L 455.703125 199.203125 L 464.601562 199.601562 L 470.203125 200.898438 L 477.398438 201.5 L 482.796875 198.703125 L 490.398438 198.703125 L 498.796875 202.898438 L 508.296875 208.601562 L 513.296875 209.601562 L 517.203125 209.296875 L 517.203125 201.5 Z M 515.398438 198.703125 " transform="matrix(0.5,0,0,0.5,0,0)"/>
<path style="fill-rule:nonzero;fill:rgb(83.137256%,0%,0%);fill-opacity:1;stroke-width:1.2;stroke-linecap:butt;stroke-linejoin:round;stroke:rgb(0%,0%,0%);stroke-opacity:1;stroke-miterlimit:4;" d="M 428.203125 207.703125 C 428.203125 207.703125 432.398438 209.898438 434.203125 207.398438 C 434.203125 207.398438 436.398438 203 431.398438 201.398438 C 431.398438 201.398438 434.203125 198.203125 431.203125 195.203125 C 431.203125 195.203125 429.601562 193.601562 427 194.703125 C 427 194.703125 425.796875 192.398438 423.296875 192.5 C 423.296875 192.5 420.898438 192.5 420.296875 195 C 420.296875 195 417.101562 193.796875 415.398438 195.601562 C 415.398438 195.601562 412.398438 198.796875 416.5 201.398438 L 419.398438 201.703125 L 422.203125 200.296875 L 425.5 201.203125 C 425.5 201.203125 424.601562 204.398438 428.203125 207.703125 Z M 428.203125 207.703125 " transform="matrix(0.5,0,0,0.5,0,0)"/>
<path style="fill-rule:nonzero;fill:rgb(39.215687%,70.588237%,81.960785%);fill-opacity:1;stroke-width:1.2;stroke-linecap:butt;stroke-linejoin:miter;stroke:rgb(0%,0%,0%);stroke-opacity:1;stroke-miterlimit:4;" d="M 521.601562 200.101562 C 524.460938 199.828125 527.195312 201.335938 528.5 203.898438 C 531.101562 210.101562 525.5 213.5 525.5 213.5 C 525.898438 214.796875 526 216.703125 526 216.703125 C 533.796875 217.703125 532.398438 226.5 532.398438 226.5 L 529.796875 224.296875 C 525.296875 222.5 520.5 226.5 517.203125 232.898438 C 513.796875 239.5 515.398438 242.398438 516 250.203125 C 516.601562 257.898438 529 262.601562 529 262.601562 L 519.296875 287.601562 C 515.5 297.601562 507.296875 293.5 505 291.296875 C 502.703125 289.296875 502.101562 290.5 501 291.296875 C 499.898438 292.296875 506.296875 297.296875 494.5 302.101562 C 482.796875 306.796875 480.796875 310.398438 478.796875 311.601562 C 476.796875 312.796875 468.796875 312.101562 468 311 C 467 310 467.601562 310 464.5 308.101562 C 461.5 306.398438 456.296875 304.601562 450.703125 301.898438 C 445.101562 299.203125 445.296875 295.703125 445.398438 295 C 445.398438 294.296875 447.296875 288.5 440.703125 293.101562 C 434.203125 297.796875 428.601562 290.898438 428.601562 290.898438 C 427.398438 289.203125 421.796875 274.5 421.796875 274.5 C 420.648438 270.40625 419.210938 266.398438 417.5 262.5 C 417.5 262.5 417.101562 263.296875 422 260.5 C 426.796875 257.796875 429 253.203125 430.703125 248.601562 C 432.398438 244 430.703125 236.101562 430.101562 234.601562 C 429.5 233 425.898438 225.703125 421.398438 224.203125 C 417 222.601562 413.898438 226.601562 413.898438 226.601562 C 413.898438 226.601562 412.601562 217.601562 420.5 216.601562 C 420.5 216.601562 420.5 214.796875 420.898438 213.5 C 420.898438 213.5 415.296875 210.101562 417.898438 203.898438 C 417.898438 203.898438 419.703125 199.601562 424.703125 200.101562 L 423.601562 202.5 C 423.601562 202.5 422.398438 215.101562 440.796875 206.703125 C 459.296875 198.101562 458.796875 196.5 469.5 201.898438 L 477.101562 201.796875 C 477.101562 201.796875 488.101562 196.5 491.796875 198.796875 C 495.296875 201.101562 508.101562 208.203125 508.101562 208.203125 C 508.101562 208.203125 520.5 212.898438 523 204.203125 Z M 521.601562 200.101562 " transform="matrix(0.5,0,0,0.5,0,0)"/>
<path style="fill-rule:nonzero;fill:rgb(100%,100%,100%);fill-opacity:1;stroke-width:1.2;stroke-linecap:butt;stroke-linejoin:miter;stroke:rgb(0%,14.117648%,49.019608%);stroke-opacity:1;stroke-miterlimit:10;" d="M 465.796875 255 C 465.796875 255 465.203125 251.101562 464.601562 248.601562 C 464.601562 248.601562 463.101562 244.703125 465.601562 241.796875 L 468.398438 238.5 C 468.398438 238.5 470.203125 236.101562 472.398438 235.796875 C 472.398438 235.796875 474.703125 235.796875 474.796875 235.296875 C 475.101562 234.796875 477.601562 230.796875 483.398438 235.296875 C 483.398438 235.296875 485.203125 232.296875 488.203125 231.703125 C 488.203125 231.703125 491.203125 230.898438 492.703125 233.101562 C 492.703125 233.101562 496.203125 230.5 499.101562 234.796875 C 499.101562 234.796875 503.203125 232.398438 506.296875 237.101562 C 506.296875 237.101562 510.296875 235.101562 512.703125 239.203125 C 515.203125 243.5 514.703125 245.203125 514.703125 245.203125 L 516.703125 252 L 523.203125 260 L 508 265.796875 L 501 265.796875 L 487.296875 269.398438 L 463 271.296875 L 456.296875 263.296875 L 465.898438 255 Z M 465.796875 255 " transform="matrix(0.5,0,0,0.5,0,0)"/>
<path style="fill-rule:nonzero;fill:rgb(83.137256%,0%,0%);fill-opacity:1;stroke-width:1.2;stroke-linecap:butt;stroke-linejoin:round;stroke:rgb(0%,0%,0%);stroke-opacity:1;stroke-miterlimit:4;" d="M 445.296875 295.5 C 445.296875 295.5 441.703125 295.601562 439.796875 296.703125 C 438 297.5 436.5 298.5 434.398438 299.898438 C 434.398438 299.898438 433.398438 301.203125 429.203125 300.398438 C 429.203125 300.398438 422 298.703125 422 304.398438 C 422 304.398438 413.203125 305 416.796875 312.703125 C 416.796875 312.703125 419.101562 318.703125 424.101562 314.5 C 424.101562 314.5 420.898438 319 427.101562 320.796875 C 427.101562 320.796875 431.5 322 432.898438 317.296875 C 432.898438 317.296875 433.601562 315.5 431.898438 313.296875 C 431.898438 313.296875 434 312.898438 435.5 310.601562 C 435.5 310.601562 430.898438 316.398438 436 318.601562 C 436 318.601562 442.296875 320.101562 442.601562 313.601562 C 442.601562 313.601562 442 310.398438 444.601562 309.296875 C 444.601562 309.296875 449.601562 308.101562 451.601562 302.703125 C 451.601562 302.703125 444.601562 298.796875 445.296875 295.5 Z M 430.601562 238 C 430.601562 238 425 235.5 422.203125 238 C 422.203125 238 418.703125 235.796875 414.703125 238 C 414.703125 238 411 240.398438 408.398438 243.203125 C 408.398438 243.203125 406.601562 244.703125 407.203125 249.601562 C 407.203125 249.601562 408.203125 253.101562 407.703125 254.703125 C 407.703125 254.703125 406.5 254.5 404 257.5 C 404 257.5 400.898438 261 398 257.796875 C 398 257.796875 399 262.398438 404.101562 261.601562 C 404.101562 261.601562 401.601562 263.601562 403.796875 268.601562 C 403.796875 268.601562 405.398438 272.203125 402.796875 276.796875 C 402.796875 276.796875 407.296875 275 407.203125 269.601562 C 407.203125 269.601562 406.703125 266 408.203125 263.601562 C 408.203125 263.601562 406.703125 265.796875 409.796875 270.703125 C 409.796875 270.703125 412.203125 274.296875 410.296875 277.898438 C 410.296875 277.898438 414.703125 276.296875 414.296875 270.898438 C 413.898438 265.5 411.296875 267.703125 412.898438 262.703125 C 412.898438 262.703125 413.398438 265.296875 414.703125 266.703125 C 416.765625 268.382812 417.703125 271.101562 417.101562 273.703125 C 417.101562 273.703125 419.703125 270.296875 419.101562 266.898438 C 418.929688 265.367188 418.492188 263.875 417.796875 262.5 L 426.203125 257.703125 L 430.5 250.203125 Z M 430.601562 238 " transform="matrix(0.5,0,0,0.5,0,0)"/>
<path style="fill:none;stroke-width:1.2;stroke-linecap:butt;stroke-linejoin:miter;stroke:rgb(0%,0%,0%);stroke-opacity:1;stroke-miterlimit:10;" d="M 417.796875 259.5 C 417.796875 259.5 414.296875 259.296875 413.796875 256.5 M 407.703125 254.703125 C 407.703125 254.703125 408.898438 254.703125 410.101562 255.898438 C 410.101562 255.898438 410.796875 257.101562 412 256.898438 " transform="matrix(0.5,0,0,0.5,0,0)"/>
<path style=" stroke:none;fill-rule:nonzero;fill:rgb(0%,0%,0%);fill-opacity:1;" d="M 211.5 124.601562 C 211.5 124.601562 210.601562 124.601562 210 124.199219 C 210 124.199219 209.550781 123.851562 209.25 124.398438 C 209.25 124.398438 208.75 125.199219 209.648438 125.550781 C 209.648438 125.550781 210.75 126.148438 209.050781 127.25 C 209.050781 127.25 211.050781 126.449219 210.25 125.449219 C 210.25 125.449219 209.351562 124.851562 209.648438 124.601562 C 209.648438 124.601562 209.75 124.398438 210.148438 124.601562 C 210.449219 124.898438 211.148438 124.800781 211.5 124.601562 "/>
<path style="fill-rule:nonzero;fill:rgb(47.058824%,26.666668%,12.941177%);fill-opacity:1;stroke-width:1.2;stroke-linecap:butt;stroke-linejoin:miter;stroke:rgb(0%,0%,0%);stroke-opacity:1;stroke-miterlimit:4;" d="M 477.601562 259 L 479.703125 258.398438 L 465.703125 210.398438 L 465.296875 210.398438 Z M 477.601562 259 " transform="matrix(0.5,0,0,0.5,0,0)"/>
<path style=" stroke:none;fill-rule:nonzero;fill:rgb(0%,0%,0%);fill-opacity:1;" d="M 215.601562 156.148438 C 215.601562 156.148438 214 155.199219 212.601562 156.300781 C 212.601562 156.300781 212.800781 155.699219 213.800781 155.449219 C 213.800781 155.449219 214.398438 153.851562 215.949219 154 C 215.949219 154 215.300781 154.800781 214.449219 155.398438 C 214.449219 155.398438 215.351562 155.5 215.648438 156.148438 Z M 215.601562 156.148438 "/>
<path style="fill-rule:nonzero;fill:rgb(39.215687%,70.588237%,81.960785%);fill-opacity:1;stroke-width:1.2;stroke-linecap:butt;stroke-linejoin:miter;stroke:rgb(0%,14.117648%,49.019608%);stroke-opacity:1;stroke-miterlimit:2.6;" d="M 419.703125 319.796875 C 419.703125 319.796875 414.5 316.601562 417.398438 311.101562 C 417.398438 311.101562 418.203125 309.601562 419.703125 309.898438 C 419.703125 309.898438 423 310.898438 420.5 315.398438 C 420.5 315.398438 419.101562 318.296875 419.703125 319.898438 Z M 430.203125 325.101562 C 430.203125 325.101562 422.796875 321.703125 425.101562 315.898438 C 425.101562 315.898438 425.796875 313.898438 427.5 314.101562 C 427.5 314.101562 430.296875 314.296875 429.796875 318.101562 C 429.796875 318.101562 428.898438 321.703125 430.203125 325.101562 Z M 430.203125 325.101562 " transform="matrix(0.5,0,0,0.5,0,0)"/>
<path style=" stroke:none;fill-rule:nonzero;fill:rgb(0%,0%,0%);fill-opacity:1;" d="M 214.351562 151.800781 C 214.351562 151.800781 213.199219 152.648438 212.800781 153.199219 C 212.800781 153.199219 212.300781 152.601562 211.699219 152.300781 C 211.699219 152.300781 212.449219 152.148438 212.800781 152.449219 C 212.800781 152.449219 213.398438 151.949219 214.300781 151.800781 Z M 214.351562 151.800781 "/>
<path style="fill-rule:nonzero;fill:rgb(39.215687%,70.588237%,81.960785%);fill-opacity:1;stroke-width:1.2;stroke-linecap:butt;stroke-linejoin:miter;stroke:rgb(0%,14.117648%,49.019608%);stroke-opacity:1;stroke-miterlimit:2.6;" d="M 435.203125 323.601562 C 435.203125 323.601562 441.203125 322.203125 440 316.101562 C 440 316.101562 439.398438 313.5 437 313.898438 C 437 313.898438 434 314.703125 436 318.5 C 436 318.5 437.101562 321.101562 435.203125 323.601562 Z M 435.203125 323.601562 " transform="matrix(0.5,0,0,0.5,0,0)"/>
<path style="fill-rule:nonzero;fill:rgb(96.078432%,80.784315%,0%);fill-opacity:1;stroke-width:1.2;stroke-linecap:butt;stroke-linejoin:miter;stroke:rgb(0%,0%,0%);stroke-opacity:1;stroke-miterlimit:2.6;" d="M 461.601562 196.703125 L 467.296875 198.601562 C 467.296875 198.601562 472.703125 200.898438 479.601562 198.601562 L 484.796875 196.601562 L 481.296875 202 L 481.296875 204.898438 L 483.398438 208.101562 C 483.398438 208.101562 482.101562 208.703125 478 206.101562 C 478 206.101562 473.601562 202.703125 468.398438 206.101562 C 468.398438 206.101562 465.398438 208.101562 463 208.101562 L 466.5 204.296875 L 465.203125 200.796875 L 461.601562 196.5 Z M 461.601562 196.703125 " transform="matrix(0.5,0,0,0.5,0,0)"/>
<path style=" stroke:none;fill-rule:nonzero;fill:rgb(100%,100%,100%);fill-opacity:1;" d="M 218.75 158.25 C 218.75 158.25 218.851562 158.050781 218.75 158 L 218.5 158.101562 C 218.5 158.101562 218.199219 158.601562 218.5 159.300781 C 218.5 159.300781 218.75 159.75 218.648438 160.199219 L 218.648438 160.398438 C 218.648438 160.398438 218.800781 160.351562 218.800781 160.199219 C 218.800781 160.199219 219 159.800781 218.699219 159.300781 C 218.699219 159.300781 218.398438 158.601562 218.75 158.25 "/>
<path style="fill-rule:nonzero;fill:rgb(83.137256%,0%,0%);fill-opacity:1;stroke-width:1.2;stroke-linecap:butt;stroke-linejoin:round;stroke:rgb(0%,0%,0%);stroke-opacity:1;stroke-miterlimit:4;" d="M 518 207.703125 C 518 207.703125 513.796875 209.898438 512 207.398438 C 512 207.398438 509.898438 203 514.898438 201.398438 C 514.898438 201.398438 512.101562 198.203125 515 195.203125 C 515 195.203125 516.601562 193.601562 519.203125 194.703125 C 519.203125 194.703125 520.398438 192.398438 522.898438 192.5 C 522.898438 192.5 525.296875 192.5 525.898438 195 C 525.898438 195 529.203125 193.796875 530.898438 195.601562 C 530.898438 195.601562 533.703125 198.796875 529.703125 201.398438 L 526.796875 201.703125 L 523.898438 200.296875 L 520.898438 201.203125 C 520.898438 201.203125 521.703125 204.398438 517.898438 207.703125 Z M 518 207.703125 " transform="matrix(0.5,0,0,0.5,0,0)"/>
<path style="fill-rule:nonzero;fill:rgb(96.078432%,80.784315%,0%);fill-opacity:1;stroke-width:1.2;stroke-linecap:butt;stroke-linejoin:miter;stroke:rgb(0%,0%,0%);stroke-opacity:1;stroke-miterlimit:2.6;" d="M 484.796875 204.398438 C 484.796875 204.398438 484.796875 205.203125 484 205.398438 C 484 205.398438 483 205.703125 482.5 204.5 L 482.5 204.203125 C 482.5 203.703125 482.203125 202.203125 483.898438 200.898438 C 483.898438 200.898438 486.5 198.796875 491.5 201.398438 C 496.320312 204.109375 501.257812 206.617188 506.296875 208.898438 C 506.296875 208.898438 509.398438 210.5 514.203125 210.703125 C 514.203125 210.703125 520.703125 211.203125 523.5 206.601562 C 523.5 206.601562 525.601562 203.101562 523.5 200.796875 C 523.5 200.796875 522.601562 199.796875 521.203125 200 C 520.46875 200.164062 519.828125 200.59375 519.398438 201.203125 C 519.398438 201.203125 518.398438 202.601562 519.5 203.703125 C 519.5 203.703125 521.101562 204.703125 521.703125 202.703125 C 521.703125 202.898438 522.203125 204.398438 521.296875 205.601562 C 521.296875 205.601562 517.296875 211.601562 506.398438 205.5 L 492.101562 197.398438 C 492.101562 197.398438 485 193.703125 480.5 199.5 C 480.5 199.5 477.101562 204.296875 481.601562 207.398438 C 481.601562 207.398438 485 209.398438 487 206.203125 C 487 206.203125 488.796875 203.101562 486 201.796875 C 486 201.796875 483.601562 200.601562 482.703125 203 C 481.703125 205.398438 484.5 206 484.703125 204.296875 C 484.703125 204.296875 484.703125 203.898438 485 204.296875 Z M 484.796875 204.398438 " transform="matrix(0.5,0,0,0.5,0,0)"/>
<path style="fill-rule:nonzero;fill:rgb(89.411765%,79.607844%,36.862746%);fill-opacity:1;stroke-width:1.2;stroke-linecap:butt;stroke-linejoin:miter;stroke:rgb(0%,0%,0%);stroke-opacity:1;stroke-miterlimit:2.6;" d="M 428 229.203125 L 428 220.203125 C 428 219.398438 428 219 429.203125 218 C 430.203125 217.203125 431.296875 215.703125 432.898438 219.703125 C 432.898438 219.703125 436.101562 216.203125 437.101562 215.703125 C 437.101562 215.703125 439.101562 214.203125 440.398438 216.398438 C 440.398438 216.398438 442 213.796875 443.398438 213.203125 C 443.398438 213.203125 446.601562 211.203125 446.703125 217.398438 L 449.203125 215 C 449.203125 215 451.203125 213.5 453.398438 215.703125 C 453.398438 215.703125 456.898438 219.296875 457.398438 220.296875 C 457.398438 220.296875 458.203125 221.296875 458.398438 223 C 458.398438 223 458.398438 225 459.398438 226 C 459.398438 226 460.5 227 461.601562 227.203125 C 461.601562 227.203125 464.101562 227.296875 465.203125 229.796875 C 465.203125 229.796875 465.5 229.296875 466.796875 241 L 466.796875 262.5 L 452.398438 279.601562 L 429.296875 273 L 420.101562 269.101562 L 417.898438 262.5 L 426.898438 256.601562 L 431.703125 243.601562 L 430.203125 234.296875 L 428 229.101562 Z M 428 229.203125 " transform="matrix(0.5,0,0,0.5,0,0)"/>
<path style="fill-rule:nonzero;fill:rgb(47.058824%,26.666668%,12.941177%);fill-opacity:1;stroke-width:1.2;stroke-linecap:butt;stroke-linejoin:miter;stroke:rgb(0%,0%,0%);stroke-opacity:1;stroke-miterlimit:4;" d="M 491.601562 240.398438 L 492.796875 238.898438 L 495.296875 236.898438 C 495.296875 236.898438 499.296875 247.296875 499.5 249.601562 L 499.5 252.796875 C 499.5 252.796875 505.5 254.398438 506.703125 263.5 L 501.703125 272.703125 L 493.898438 268.296875 L 491.601562 266.796875 Z M 491.601562 240.398438 " transform="matrix(0.5,0,0,0.5,0,0)"/>
<path style=" stroke:none;fill-rule:nonzero;fill:rgb(100%,100%,100%);fill-opacity:1;" d="M 209.148438 156.199219 C 209.148438 156.199219 209.25 156.050781 209.148438 155.898438 L 208.898438 156.101562 C 208.898438 156.101562 208.148438 156.949219 208.800781 158.300781 C 208.800781 158.300781 208.800781 158.5 208.949219 158.398438 C 208.949219 158.398438 209.101562 158.398438 208.949219 158.25 C 208.949219 158.25 208.398438 157.050781 209.148438 156.25 Z M 209.148438 156.199219 "/>
<path style="fill:none;stroke-width:1.2;stroke-linecap:butt;stroke-linejoin:miter;stroke:rgb(0%,0%,0%);stroke-opacity:1;stroke-miterlimit:10;" d="M 441.703125 310.601562 C 441.703125 310.601562 441.796875 309.796875 441.296875 309 C 441.164062 309 441.101562 308.5 441.101562 307.5 M 446.703125 217.398438 C 446.703125 217.398438 446.703125 219.703125 447.398438 221.398438 C 448 223 450.296875 225.898438 450.398438 227.296875 " transform="matrix(0.5,0,0,0.5,0,0)"/>
<path style="fill-rule:nonzero;fill:rgb(83.137256%,0%,0%);fill-opacity:1;stroke-width:1.2;stroke-linecap:butt;stroke-linejoin:round;stroke:rgb(0%,0%,0%);stroke-opacity:1;stroke-miterlimit:4;" d="M 501 295.5 C 501 295.5 504.601562 295.601562 506.5 296.703125 C 508.5 297.5 509.898438 298.5 512 299.898438 C 512 299.898438 513 301.203125 517.203125 300.398438 C 517.203125 300.398438 524.398438 298.703125 524.398438 304.398438 C 524.398438 304.398438 533.101562 305 529.601562 312.703125 C 529.601562 312.703125 527.203125 318.703125 522.203125 314.5 C 522.203125 314.5 525.398438 319 519.203125 320.796875 C 519.203125 320.796875 514.796875 322 513.5 317.296875 C 513.5 317.296875 512.703125 315.5 514.5 313.296875 C 514.5 313.296875 512.398438 312.898438 511 310.601562 C 511 310.601562 515.5 316.398438 510.5 318.601562 C 510.5 318.601562 504.203125 320.101562 503.796875 313.601562 C 503.796875 313.601562 504.296875 310.398438 501.796875 309.296875 C 501.796875 309.296875 496.796875 308.101562 494.601562 302.703125 C 494.601562 302.703125 501.796875 298.796875 501.101562 295.5 Z M 501 295.5 " transform="matrix(0.5,0,0,0.5,0,0)"/>
<path style="fill:none;stroke-width:1.2;stroke-linecap:butt;stroke-linejoin:miter;stroke:rgb(0%,0%,0%);stroke-opacity:1;stroke-miterlimit:10;" d="M 443.796875 227.398438 L 449.796875 275.203125 M 445.296875 227.296875 L 451.898438 271.898438 M 446.398438 227.101562 L 454.203125 271.296875 " transform="matrix(0.5,0,0,0.5,0,0)"/>
<path style="fill-rule:nonzero;fill:rgb(47.058824%,26.666668%,12.941177%);fill-opacity:1;stroke-width:1.2;stroke-linecap:butt;stroke-linejoin:miter;stroke:rgb(0%,0%,0%);stroke-opacity:1;stroke-miterlimit:4;" d="M 458.601562 267.5 L 460.796875 266.796875 L 446.796875 218.796875 L 446.296875 218.796875 Z M 458.601562 267.5 " transform="matrix(0.5,0,0,0.5,0,0)"/>
<path style="fill:none;stroke-width:1.2;stroke-linecap:butt;stroke-linejoin:miter;stroke:rgb(0%,0%,0%);stroke-opacity:1;stroke-miterlimit:10;" d="M 450.703125 225.296875 L 464.796875 260.796875 M 449.796875 225.796875 L 463.398438 262.796875 " transform="matrix(0.5,0,0,0.5,0,0)"/>
<path style=" stroke:none;fill-rule:nonzero;fill:rgb(100%,100%,100%);fill-opacity:1;" d="M 213.800781 160.800781 C 213.800781 160.800781 212.949219 160.050781 213.101562 158.648438 C 213.101562 158.648438 213.101562 158.351562 212.949219 158.300781 C 212.949219 158.300781 212.800781 158.25 212.800781 158.601562 C 212.800781 158.601562 212.550781 160.050781 213.550781 160.851562 C 213.550781 160.917969 213.617188 160.949219 213.75 160.949219 C 213.785156 160.949219 213.785156 160.898438 213.75 160.800781 Z M 213.800781 160.800781 "/>
<path style="fill:none;stroke-width:1.2;stroke-linecap:butt;stroke-linejoin:miter;stroke:rgb(0%,0%,0%);stroke-opacity:1;stroke-miterlimit:10;" d="M 451.5 224.796875 L 465.796875 257.203125 M 447.5 226.796875 L 456.5 270.5 " transform="matrix(0.5,0,0,0.5,0,0)"/>
<path style="fill-rule:nonzero;fill:rgb(96.078432%,80.784315%,0%);fill-opacity:1;stroke-width:1.2;stroke-linecap:butt;stroke-linejoin:miter;stroke:rgb(0%,0%,0%);stroke-opacity:1;stroke-miterlimit:2.6;" d="M 520 259 C 513.703125 255.398438 512.296875 247.601562 512.296875 247.601562 C 511.421875 242.78125 511.976562 237.804688 513.898438 233.296875 C 517.898438 224.703125 525 223 525 223 C 525 223 518.101562 227.796875 516.203125 234.203125 C 516.203125 234.203125 514.796875 239.703125 515.601562 244.898438 C 516.398438 250.398438 516.101562 249 517.398438 253.203125 L 520 259.203125 Z M 520 259 " transform="matrix(0.5,0,0,0.5,0,0)"/>
<path style="fill-rule:nonzero;fill:rgb(47.058824%,26.666668%,12.941177%);fill-opacity:1;stroke-width:1.2;stroke-linecap:butt;stroke-linejoin:miter;stroke:rgb(0%,0%,0%);stroke-opacity:1;stroke-miterlimit:4;" d="M 492.703125 238.703125 L 466.101562 247.203125 L 464.703125 259.203125 C 458.398438 268.296875 445.5 269.898438 445.5 269.898438 L 455.5 280.601562 L 474.5 284.601562 L 484.703125 276.796875 L 493.898438 268.398438 C 492.898438 263.898438 493.398438 257.203125 493.398438 257.203125 C 493.398438 256 493.898438 253.398438 493.898438 253.398438 C 493.898438 253.398438 492.398438 242.703125 492.703125 238.898438 Z M 492.703125 238.703125 " transform="matrix(0.5,0,0,0.5,0,0)"/>
<path style="fill:none;stroke-width:1.2;stroke-linecap:butt;stroke-linejoin:miter;stroke:rgb(0%,0%,0%);stroke-opacity:1;stroke-miterlimit:10;" d="M 465 256.203125 C 465 256.203125 482.601562 250.703125 493 246.203125 M 456.601562 266.203125 C 456.601562 266.203125 478.601562 262.203125 493.898438 253.398438 L 499.5 249.601562 " transform="matrix(0.5,0,0,0.5,0,0)"/>
<path style="fill:none;stroke-width:1.2;stroke-linecap:butt;stroke-linejoin:miter;stroke:rgb(0%,0%,0%);stroke-opacity:1;stroke-miterlimit:10;" d="M 499.5 252.796875 L 493.5 257.203125 C 493.5 257.203125 469 268.398438 450.296875 268.796875 M 493.398438 265.203125 C 493.398438 265.203125 474.601562 275 464 275 " transform="matrix(0.5,0,0,0.5,0,0)"/>
<path style="fill-rule:nonzero;fill:rgb(83.137256%,0%,0%);fill-opacity:1;stroke-width:1.2;stroke-linecap:butt;stroke-linejoin:round;stroke:rgb(0%,0%,0%);stroke-opacity:1;stroke-miterlimit:4;" d="M 515.796875 238 C 515.796875 238 521.398438 235.5 524.203125 238 C 524.203125 238 527.796875 235.796875 531.796875 238 C 531.796875 238 535.398438 240.398438 538 243.203125 C 538 243.203125 539.796875 244.703125 539.203125 249.601562 C 539.203125 249.601562 538.203125 253.101562 538.898438 254.703125 C 538.898438 254.703125 540 254.5 542.398438 257.5 C 542.398438 257.5 545.703125 261 548.398438 257.796875 C 548.398438 257.796875 547.601562 262.398438 542.398438 261.601562 C 542.398438 261.601562 544.796875 263.601562 542.703125 268.601562 C 542.703125 268.601562 541.101562 272.203125 543.703125 276.796875 C 543.703125 276.796875 539.101562 275 539.296875 269.601562 C 539.296875 269.601562 539.703125 266 538.296875 263.601562 C 538.296875 263.601562 539.703125 265.796875 536.601562 270.703125 C 536.601562 270.703125 534.203125 274.296875 536.203125 277.898438 C 536.203125 277.898438 531.703125 276.296875 532.203125 270.898438 C 532.5 265.5 535.203125 267.703125 533.5 262.703125 C 533.5 262.703125 533.101562 265.296875 531.796875 266.703125 C 529.734375 268.382812 528.796875 271.101562 529.398438 273.703125 C 529.398438 273.703125 526.796875 270.296875 527.398438 266.898438 C 528 263.398438 528.601562 262.5 528.601562 262.5 L 520.296875 257.703125 L 516.101562 250.203125 Z M 515.796875 238 " transform="matrix(0.5,0,0,0.5,0,0)"/>
<path style="fill-rule:nonzero;fill:rgb(100%,100%,100%);fill-opacity:1;stroke-width:1.2;stroke-linecap:butt;stroke-linejoin:miter;stroke:rgb(0%,14.117648%,49.019608%);stroke-opacity:1;stroke-miterlimit:10;" d="M 420.601562 268.398438 C 420.601562 268.398438 421.398438 264.703125 424.898438 266 C 424.898438 266 426.101562 260 432.601562 259.796875 C 439.101562 259.601562 439.398438 266.203125 439.398438 266.601562 C 439.398438 266.601562 441.398438 263.796875 444.5 264.101562 C 444.5 264.101562 450 263.796875 448.101562 272.601562 L 449.101562 273.796875 C 449.101562 273.796875 453.203125 263.898438 461.796875 266.398438 C 461.796875 266.398438 470.203125 269 464.796875 277.101562 C 464.796875 277.101562 469 282.601562 472.398438 282.101562 C 476 281.601562 479.101562 280.5 482.601562 274.296875 C 486.203125 268.101562 494.296875 267.101562 496.296875 267.5 C 498.296875 267.796875 500 269.296875 500.296875 270.703125 C 500.296875 270.703125 504.601562 256.398438 520.101562 258.5 L 526.296875 261.796875 L 528.703125 262.796875 L 525.101562 272.796875 L 516.703125 292 L 510.101562 294 L 503.296875 290.101562 L 500.898438 291.296875 L 500.898438 297.203125 L 491.898438 303.601562 L 485.703125 306.101562 L 478.898438 310.898438 L 477.203125 315.101562 C 477.203125 315.101562 473.5 313.398438 469.203125 315.101562 L 467.796875 311.5 L 463.796875 307.796875 L 448.203125 300.398438 L 445.5 291.398438 L 442.601562 290.101562 L 439.398438 293.703125 L 434.898438 294.296875 L 427.898438 289.5 L 420.5 268.5 Z M 420.601562 268.398438 " transform="matrix(0.5,0,0,0.5,0,0)"/>
<path style="fill:none;stroke-width:1.2;stroke-linecap:butt;stroke-linejoin:miter;stroke:rgb(0%,0%,0%);stroke-opacity:1;stroke-miterlimit:2.6;" d="M 488.203125 198 C 488.203125 198 482.203125 197.796875 482.5 204 " transform="matrix(0.5,0,0,0.5,0,0)"/>
<path style="fill-rule:nonzero;fill:rgb(96.078432%,80.784315%,0%);fill-opacity:1;stroke-width:1.2;stroke-linecap:butt;stroke-linejoin:miter;stroke:rgb(0%,0%,0%);stroke-opacity:1;stroke-miterlimit:2.6;" d="M 527 263.296875 C 516.796875 260.101562 514 249 514 249 C 512.8125 243.828125 513.226562 238.421875 515.203125 233.5 C 520 222.5 527.898438 222.5 527.898438 222.5 C 530.015625 222.195312 531.992188 223.601562 532.398438 225.703125 C 532.796875 228.101562 531.101562 229 531.101562 229 C 528.398438 230.5 526.601562 228.5 526.601562 228.5 C 525.398438 226.898438 526.296875 225.601562 526.296875 225.601562 C 527 224.601562 528.296875 225.203125 528.296875 225.203125 C 529.601562 225.398438 529.296875 226.796875 529.296875 226.796875 C 529.296875 226.796875 529.703125 225.203125 528.101562 225 C 528.101562 225 524.898438 224.296875 521.296875 228.796875 C 521.296875 228.796875 516.601562 234.898438 516.601562 242.898438 C 516.601562 242.898438 516 257.703125 531.296875 261.5 C 531.296875 261.5 529.703125 263.898438 526.703125 272.601562 C 526.703125 272.601562 523.398438 283.796875 520.296875 289.898438 C 520.296875 289.898438 516 298.5 506.398438 295 C 506.398438 295 500.796875 292.5 500.796875 288.5 C 500.796875 288.5 500.5 284.703125 503.796875 284.5 C 503.796875 284.5 507.101562 284.203125 507.101562 287 C 507.101562 287 507.101562 290 503.601562 289.398438 C 503.601562 289.398438 502.398438 289.101562 502.5 287.898438 C 502.5 287.898438 502.703125 286.703125 504.296875 287.296875 C 505.796875 287.898438 504.296875 287.296875 504.296875 287.203125 C 504.296875 287.203125 503.703125 286.898438 503.101562 287.203125 C 503.101562 287.203125 502.5 287.203125 502.5 288.203125 C 502.367188 288.335938 502.601562 288.703125 503.203125 289.296875 L 504.898438 289.5 C 504.898438 289.5 505.898438 291.5 507.898438 292.203125 C 510.320312 292.945312 512.960938 292.5 515 291 C 516.328125 289.828125 517.359375 288.351562 518 286.703125 C 520.023438 282.3125 521.757812 277.804688 523.203125 273.203125 C 523.203125 273.203125 525 267.5 526.601562 264.5 Z M 527 263.296875 " transform="matrix(0.5,0,0,0.5,0,0)"/>
<path style="fill-rule:nonzero;fill:rgb(96.078432%,80.784315%,0%);fill-opacity:1;stroke-width:1.2;stroke-linecap:butt;stroke-linejoin:miter;stroke:rgb(0%,0%,0%);stroke-opacity:1;stroke-miterlimit:2.6;" d="M 498 291.398438 C 498 291.398438 500 291.203125 500 292.898438 C 500 292.898438 499.898438 295.296875 496.796875 294.796875 C 496.796875 294.796875 493.796875 294.203125 494.796875 290.796875 C 494.796875 290.796875 495.601562 288.5 498.398438 288.796875 C 498.398438 288.796875 501.203125 288.796875 502.398438 292.601562 C 502.398438 292.601562 503.398438 295.898438 501.703125 298.601562 C 499.898438 301.601562 495.5 303.601562 493.296875 304.601562 C 493.296875 304.601562 484.601562 307.898438 482 309.898438 C 482 309.898438 478 312.796875 479.796875 315.5 C 479.796875 315.5 480.5 316.601562 481.5 316.601562 C 481.5 316.601562 482.703125 316.601562 482.796875 315.398438 C 482.796875 315.398438 482.796875 316.101562 482.101562 316.398438 C 482.101562 316.398438 481.296875 316.796875 480.398438 316.101562 C 480.398438 316.101562 479.398438 315.101562 480.203125 313.703125 C 480.203125 313.703125 481.203125 312.101562 483.796875 313.101562 C 483.796875 313.101562 485.796875 314.203125 485 316.398438 C 485 316.398438 484.101562 318.5 481.601562 318.398438 C 481.601562 318.398438 479.703125 318.398438 478.398438 317.203125 C 476.398438 315.101562 476.398438 311.203125 478.203125 309.203125 C 478.203125 309.203125 479.703125 307.101562 482.898438 305.601562 L 491.898438 302.101562 C 494.570312 301.101562 496.703125 299.734375 498.296875 298 C 498.296875 298 499.601562 296.601562 500.101562 294 C 500.101562 294 500.5 292 499.296875 291.601562 L 498.101562 291.296875 Z M 498 291.398438 " transform="matrix(0.5,0,0,0.5,0,0)"/>
<path style="fill:none;stroke-width:1.2;stroke-linecap:butt;stroke-linejoin:miter;stroke:rgb(0%,0%,0%);stroke-opacity:1;stroke-miterlimit:2.6;" d="M 498.203125 291.398438 C 498.203125 291.398438 500.296875 291 501.703125 293.601562 C 501.703125 293.601562 502.398438 295.101562 502.5 296.101562 M 503.203125 287.101562 C 503.203125 287.101562 501.101562 287.398438 502.203125 290.5 C 503.296875 293.398438 505.203125 294.203125 505.703125 294.703125 " transform="matrix(0.5,0,0,0.5,0,0)"/>
<path style="fill-rule:nonzero;fill:rgb(96.078432%,80.784315%,0%);fill-opacity:1;stroke-width:1.2;stroke-linecap:butt;stroke-linejoin:miter;stroke:rgb(0%,0%,0%);stroke-opacity:1;stroke-miterlimit:2.6;" d="M 461.601562 204.398438 C 461.601562 204.398438 461.601562 205.203125 462.601562 205.398438 C 462.601562 205.398438 463.398438 205.601562 463.898438 204.5 L 463.898438 204.203125 C 463.898438 203.703125 464.203125 202.203125 462.703125 200.898438 C 462.703125 200.898438 459.898438 198.796875 454.898438 201.398438 C 454.898438 201.398438 450.898438 203.398438 448.203125 205 C 448.203125 205 441.101562 208.796875 440.203125 209 C 440.203125 209 437 210.601562 432.203125 210.796875 C 432.203125 210.796875 425.703125 211.296875 423 206.703125 C 423 206.703125 420.796875 203.203125 423 200.898438 C 423 200.898438 423.796875 199.898438 425.203125 200.101562 C 425.796875 200.101562 426.398438 200.5 427 201.296875 C 427 201.296875 428 202.703125 426.898438 203.796875 C 426.898438 203.796875 425.296875 204.796875 424.703125 202.796875 C 424.703125 203 424.398438 204.398438 425.203125 205.796875 C 425.203125 205.796875 429.203125 211.703125 440 205.5 L 454.296875 197.5 C 454.296875 197.5 461.5 193.796875 465.898438 199.5 C 465.898438 199.5 469.296875 204.296875 464.898438 207.5 C 464.898438 207.5 461.601562 209.5 459.398438 206.296875 C 459.398438 206.296875 457.796875 203.296875 460.398438 201.898438 C 460.398438 201.898438 462.796875 200.703125 463.898438 203.101562 C 464.898438 205.5 461.898438 206.101562 461.703125 204.398438 C 461.703125 204.398438 461.703125 204 461.601562 204.398438 Z M 426.398438 259.101562 C 432.703125 255.601562 434.203125 247.601562 434.203125 247.601562 C 435.601562 239.601562 432.5 233.296875 432.5 233.296875 C 428.5 224.703125 421.5 223 421.5 223 C 421.5 223 428.296875 227.796875 430.203125 234.203125 C 430.203125 234.203125 431.796875 239.703125 430.796875 244.898438 C 430 250.398438 430.296875 249 429 253.203125 Z M 426.398438 259.101562 " transform="matrix(0.5,0,0,0.5,0,0)"/>
<path style="fill:none;stroke-width:1.2;stroke-linecap:butt;stroke-linejoin:miter;stroke:rgb(0%,0%,0%);stroke-opacity:1;stroke-miterlimit:2.6;" d="M 458.398438 198 C 458.398438 198 464.398438 197.796875 464 204 " transform="matrix(0.5,0,0,0.5,0,0)"/>
<path style="fill-rule:nonzero;fill:rgb(96.078432%,80.784315%,0%);fill-opacity:1;stroke-width:1.2;stroke-linecap:butt;stroke-linejoin:miter;stroke:rgb(0%,0%,0%);stroke-opacity:1;stroke-miterlimit:2.6;" d="M 419.296875 263.296875 C 429.601562 260.101562 432.296875 249 432.296875 249 C 433.523438 243.84375 433.140625 238.4375 431.203125 233.5 C 426.398438 222.5 418.5 222.5 418.5 222.5 C 416.382812 222.195312 414.40625 223.601562 414 225.703125 C 413.703125 228.101562 415.296875 229 415.296875 229 C 418.101562 230.5 419.898438 228.5 419.898438 228.5 C 421 226.898438 420.101562 225.601562 420.101562 225.601562 C 419.398438 224.601562 418.101562 225.203125 418.101562 225.203125 C 416.898438 225.398438 417.101562 226.796875 417.101562 226.796875 C 417.101562 226.796875 416.796875 225.203125 418.296875 225 C 418.296875 225 421.5 224.296875 425.101562 228.796875 C 425.101562 228.796875 429.898438 234.898438 429.898438 242.898438 C 429.898438 242.898438 430.5 257.703125 415.101562 261.5 C 415.101562 261.5 416.796875 263.898438 419.703125 272.601562 C 419.703125 272.601562 423.101562 283.796875 426.296875 289.898438 C 426.296875 289.898438 430.5 298.5 440 295 C 440 295 445.601562 292.5 445.601562 288.5 C 445.601562 288.5 446 284.703125 442.601562 284.5 C 442.601562 284.5 439.296875 284.203125 439.296875 287 C 439.296875 287 439.296875 290 442.898438 289.398438 C 442.898438 289.398438 444.101562 289.101562 443.898438 287.898438 C 443.898438 287.898438 443.703125 286.703125 442.203125 287.296875 C 440.601562 287.898438 442.203125 287.296875 442.203125 287.203125 C 442.203125 287.203125 442.703125 286.898438 443.296875 287.203125 C 443.296875 287.203125 443.898438 287.203125 443.898438 288.203125 C 444.03125 288.335938 443.796875 288.703125 443.203125 289.296875 L 441.703125 289.5 C 441.703125 289.5 440.703125 291.5 438.5 292.203125 C 436.109375 292.914062 433.515625 292.46875 431.5 291 C 430.171875 289.828125 429.140625 288.351562 428.5 286.703125 C 426.445312 282.320312 424.679688 277.804688 423.203125 273.203125 C 423.203125 273.203125 421.398438 267.5 420 264.5 L 419.398438 263.296875 Z M 419.296875 263.296875 " transform="matrix(0.5,0,0,0.5,0,0)"/>
<path style="fill-rule:nonzero;fill:rgb(96.078432%,80.784315%,0%);fill-opacity:1;stroke-width:1.2;stroke-linecap:butt;stroke-linejoin:miter;stroke:rgb(0%,0%,0%);stroke-opacity:1;stroke-miterlimit:2.6;" d="M 448.5 291.398438 C 448.5 291.398438 446.5 291.203125 446.5 292.898438 C 446.5 292.898438 446.5 295.296875 449.703125 294.796875 C 449.703125 294.796875 452.703125 294.203125 451.601562 290.796875 C 451.601562 290.796875 450.898438 288.5 448 288.796875 C 448 288.796875 445.296875 288.796875 444 292.601562 C 444 292.601562 443.101562 295.898438 444.796875 298.601562 C 446.601562 301.601562 451 303.601562 453.101562 304.601562 C 453.101562 304.601562 461.796875 307.898438 464.5 309.898438 C 464.5 309.898438 468.398438 312.796875 466.601562 315.5 C 466.601562 315.5 466 316.601562 464.898438 316.601562 C 464.898438 316.601562 463.703125 316.601562 463.601562 315.398438 C 463.601562 315.398438 463.601562 316.101562 464.296875 316.398438 C 464.296875 316.398438 465.203125 316.796875 466 316.101562 C 466 316.101562 467 315.101562 466.203125 313.703125 C 466.203125 313.703125 465.203125 312.101562 462.796875 313.101562 C 462.796875 313.101562 460.601562 314.203125 461.601562 316.398438 C 461.601562 316.398438 462.296875 318.5 464.796875 318.398438 C 464.796875 318.398438 466.796875 318.398438 468 317.203125 C 470 315.101562 470 311.203125 468.398438 309.203125 C 468.398438 309.203125 466.703125 307.101562 463.601562 305.601562 C 461.703125 305 458.101562 303.5 454.601562 302.101562 C 451.867188 301.101562 449.703125 299.734375 448.101562 298 C 448.101562 298 446.796875 296.601562 446.296875 294 C 446.296875 294 446 292 447.203125 291.601562 L 448.398438 291.296875 Z M 448.5 291.398438 " transform="matrix(0.5,0,0,0.5,0,0)"/>
<path style="fill:none;stroke-width:1.2;stroke-linecap:butt;stroke-linejoin:miter;stroke:rgb(0%,0%,0%);stroke-opacity:1;stroke-miterlimit:2.6;" d="M 448.203125 291.398438 C 448.203125 291.398438 446.101562 291 444.796875 293.601562 C 444.796875 293.601562 444.101562 295.101562 443.898438 296.101562 M 443.203125 287.101562 C 443.203125 287.101562 445.398438 287.398438 444.296875 290.5 C 443.101562 293.398438 441.296875 294.203125 440.703125 294.703125 M 468.101562 203.601562 C 468.101562 203.601562 473.296875 200.296875 478.5 203.898438 M 438.796875 235.203125 C 438.796875 235.203125 439.5 232.203125 436.203125 227.203125 C 436.203125 227.203125 434 222.5 433 219.703125 M 440.398438 216.398438 L 442.703125 223 L 445.703125 229.796875 " transform="matrix(0.5,0,0,0.5,0,0)"/>
<path style="fill:none;stroke-width:1.2;stroke-linecap:butt;stroke-linejoin:miter;stroke:rgb(0%,0%,0%);stroke-opacity:1;stroke-miterlimit:10;" d="M 441.203125 238.296875 C 441.203125 238.296875 443.203125 240.398438 443 243.898438 M 434.898438 236 C 434.898438 236 437 237 436.796875 242.796875 C 436.796875 242.796875 436.703125 246.796875 439.796875 249 M 434.5 250.398438 C 434.5 250.398438 441.203125 249.703125 441.703125 253.898438 C 441.703125 253.898438 441.703125 257.898438 444.101562 258.203125 C 444.101562 258.203125 447.398438 258.5 448.101562 261.796875 M 436.703125 255 C 436.703125 255 437.898438 256.703125 439.101562 257.601562 M 445.296875 250.601562 C 445.296875 250.601562 446.898438 253.296875 447.296875 254.703125 M 452.601562 219.703125 C 452.601562 219.703125 454.203125 221.796875 455.703125 222.703125 M 458.796875 232.296875 C 458.796875 232.296875 462.203125 233.898438 461.796875 242.296875 C 461.796875 242.296875 461.203125 247.296875 462.703125 250 " transform="matrix(0.5,0,0,0.5,0,0)"/>
<path style="fill-rule:nonzero;fill:rgb(47.058824%,26.666668%,12.941177%);fill-opacity:1;stroke-width:1.2;stroke-linecap:butt;stroke-linejoin:miter;stroke:rgb(0%,0%,0%);stroke-opacity:1;stroke-miterlimit:4;" d="M 443.101562 226.601562 L 443.5 227.398438 C 443.5 227.398438 449.5 227.703125 452.601562 223.601562 L 452.296875 222.796875 C 452.296875 222.796875 447 222.5 443.296875 226.601562 Z M 443.101562 226.601562 " transform="matrix(0.5,0,0,0.5,0,0)"/>
<path style="fill:none;stroke-width:1.2;stroke-linecap:butt;stroke-linejoin:miter;stroke:rgb(0%,0%,0%);stroke-opacity:1;stroke-miterlimit:10;" d="M 464.703125 258.5 C 464.703125 258.5 485.296875 252.5 493.296875 248.898438 " transform="matrix(0.5,0,0,0.5,0,0)"/>
<path style="fill-rule:nonzero;fill:rgb(47.058824%,26.666668%,12.941177%);fill-opacity:1;stroke-width:1.2;stroke-linecap:butt;stroke-linejoin:miter;stroke:rgb(0%,0%,0%);stroke-opacity:1;stroke-miterlimit:4;" d="M 462.5 220.5 L 462.296875 219.898438 L 472.398438 215.898438 L 472.703125 216.703125 Z M 462.5 220.5 " transform="matrix(0.5,0,0,0.5,0,0)"/>
<path style="fill:none;stroke-width:1.2;stroke-linecap:butt;stroke-linejoin:miter;stroke:rgb(0%,0%,0%);stroke-opacity:1;stroke-miterlimit:10;" d="M 463.398438 220.101562 L 470.203125 253.398438 M 464.601562 219.796875 L 472.296875 252.796875 M 465.898438 219.203125 L 474.296875 252.101562 M 469.296875 218 L 480.796875 242.601562 M 470.796875 217.601562 L 483.101562 241.796875 M 471.796875 217 L 485.203125 241.296875 M 469.703125 253.703125 L 474.898438 252.101562 M 465.796875 250.5 C 465.796875 250.5 481 246 492.796875 241.296875 M 465.398438 252 C 465.398438 252 484.898438 247 492.601562 243.203125 M 471.398438 267.796875 L 472.398438 271.101562 L 475.203125 270.101562 L 474.203125 267 M 479.203125 265.703125 L 480.203125 268.703125 L 483 267.796875 L 482 264.796875 M 466 247.203125 L 465.796875 243 L 491.296875 235.296875 L 492.601562 238.898438 M 476.601562 239.703125 L 477.898438 243.5 M 485.5 237.101562 L 487.101562 240.703125 M 487.601562 236.398438 L 489.203125 239.703125 M 489.601562 235.703125 L 491.203125 239.296875 M 491.203125 235.296875 L 494 233.703125 L 495.203125 236.796875 M 492.601562 234.5 L 494 237.796875 " transform="matrix(0.5,0,0,0.5,0,0)"/>
<path style="fill:none;stroke-width:1.2;stroke-linecap:butt;stroke-linejoin:miter;stroke:rgb(0%,14.117648%,49.019608%);stroke-opacity:1;stroke-miterlimit:10;" d="M 429.5 283.101562 C 429.5 283.101562 424.5 278 429.5 273.101562 C 429.5 273.101562 424 270.5 424.898438 266.101562 M 438.5 287.101562 C 438.5 287.101562 433.203125 287.796875 434.796875 277.703125 C 434.796875 277.703125 432.601562 281.703125 431.898438 283.703125 C 431.359375 285.742188 432.15625 287.90625 433.898438 289.101562 C 434.796875 289.703125 439.398438 290.898438 440.898438 287.898438 M 432.601562 271.703125 C 432.601562 271.703125 430.5 273.601562 432 277.101562 M 434.796875 272.101562 C 434.796875 272.101562 435 275.601562 436.796875 277.5 M 436.296875 270.796875 C 436.296875 270.796875 436.296875 274.796875 439.203125 277.398438 M 437.703125 269.398438 C 437.703125 269.398438 437.703125 273.898438 441.101562 276.796875 M 454.601562 276.101562 C 454.601562 276.101562 456.203125 272.203125 459.796875 272.5 C 459.796875 272.5 458.101562 273.296875 458.101562 275 C 458.101562 275 457.898438 278 461 278.203125 C 461 278.203125 463.5 278.601562 464.796875 277.203125 " transform="matrix(0.5,0,0,0.5,0,0)"/>
<path style="fill:none;stroke-width:1.2;stroke-linecap:butt;stroke-linejoin:miter;stroke:rgb(0%,14.117648%,49.019608%);stroke-opacity:1;stroke-miterlimit:10;" d="M 463.101562 293.101562 C 463.101562 293.101562 454.203125 288.898438 455.101562 283 C 455.101562 283 455.5 279.398438 459.101562 277.601562 M 457.101562 281.398438 C 457.101562 281.398438 456.296875 283.898438 458.101562 285.703125 M 459.203125 279.703125 C 459.203125 279.703125 458 282.5 459.898438 284.5 M 461.398438 278.203125 C 461.398438 278.203125 460 280.601562 461.601562 282.703125 M 453.203125 293.703125 C 453.203125 293.703125 458 298 461.796875 298 M 451.703125 295.101562 C 451.703125 295.101562 456.203125 298.703125 459.101562 299.296875 M 450.101562 296.101562 C 450.101562 296.101562 455.601562 301 459.101562 301.296875 M 472.796875 305.898438 C 472.796875 305.898438 467.296875 308.898438 471.601562 312.101562 M 469.203125 302.703125 L 478.203125 298.101562 M 471.5 304.296875 C 471.5 304.296875 480.5 298.796875 483.203125 297.601562 M 476.203125 304.796875 C 476.203125 304.796875 483.898438 299.601562 488.101562 297.296875 M 481.296875 304.398438 C 481.296875 304.398438 486.601562 300.398438 491.796875 297.296875 M 493.5 292.203125 C 493.5 292.203125 490.898438 288.296875 482.296875 292.203125 C 482.296875 292.203125 485.601562 289.296875 491.796875 287 M 500.296875 270.703125 C 500.296875 270.703125 501.101562 273.796875 500.296875 275.703125 " transform="matrix(0.5,0,0,0.5,0,0)"/>
<path style="fill:none;stroke-width:1.2;stroke-linecap:butt;stroke-linejoin:miter;stroke:rgb(0%,14.117648%,49.019608%);stroke-opacity:1;stroke-miterlimit:10;" d="M 486.5 285.703125 C 486.5 285.703125 488.296875 283.101562 492.796875 281.703125 C 492.796875 281.703125 494 284.703125 497.601562 284.203125 C 497.601562 284.203125 502.796875 283.101562 501.203125 277.203125 C 501.203125 277.203125 500.101562 273 494 272.5 M 512.101562 265.203125 C 512.101562 265.203125 518.203125 266.398438 518.101562 271.296875 C 518.101562 271.296875 518.703125 278.898438 510.703125 280.296875 M 517.296875 268.296875 C 517.296875 268.296875 518.898438 264.601562 522.796875 263.101562 M 518.203125 260.898438 C 518.203125 260.898438 519.898438 263.703125 521 264 M 517.398438 263 C 517.398438 263 518.898438 265.101562 519.398438 265.5 M 516.796875 265 L 518.296875 266.601562 M 485 235.796875 C 485 235.796875 486.203125 233.796875 489.296875 234.601562 M 501.398438 250.398438 C 501.398438 250.398438 503.398438 242.601562 509.898438 245.398438 M 507.296875 244.796875 C 507.296875 244.796875 507.898438 241.203125 506.296875 239.296875 M 502.703125 244.5 C 502.703125 244.5 503.601562 246 502.796875 247.203125 " transform="matrix(0.5,0,0,0.5,0,0)"/>
<path style="fill-rule:nonzero;fill:rgb(39.215687%,70.588237%,81.960785%);fill-opacity:1;stroke-width:1.2;stroke-linecap:butt;stroke-linejoin:miter;stroke:rgb(0%,14.117648%,49.019608%);stroke-opacity:1;stroke-miterlimit:2.6;" d="M 516.203125 325 C 516.203125 325 523.601562 321.703125 521.296875 315.898438 C 521.296875 315.898438 520.601562 313.898438 518.898438 314.101562 C 518.898438 314.101562 516.101562 314.203125 516.601562 318.101562 C 516.601562 318.101562 517.601562 321.898438 516.101562 325.101562 Z M 516.203125 325 " transform="matrix(0.5,0,0,0.5,0,0)"/>
<path style=" stroke:none;fill-rule:nonzero;fill:rgb(100%,100%,100%);fill-opacity:1;" d="M 259.398438 160.800781 C 259.398438 160.800781 260.25 160.050781 260.148438 158.648438 C 260.148438 158.648438 260.050781 158.351562 260.148438 158.300781 C 260.148438 158.300781 260.351562 158.25 260.351562 158.601562 C 260.351562 158.601562 260.601562 160.050781 259.648438 160.851562 C 259.648438 160.917969 259.582031 160.949219 259.449219 160.949219 C 259.382812 160.949219 259.382812 160.898438 259.449219 160.800781 Z M 259.398438 160.800781 "/>
<path style="fill-rule:nonzero;fill:rgb(39.215687%,70.588237%,81.960785%);fill-opacity:1;stroke-width:1.2;stroke-linecap:butt;stroke-linejoin:miter;stroke:rgb(0%,14.117648%,49.019608%);stroke-opacity:1;stroke-miterlimit:2.6;" d="M 526.703125 319.796875 C 526.703125 319.796875 531.898438 316.601562 529.101562 311.101562 C 529.101562 311.101562 528.203125 309.601562 526.703125 309.898438 C 526.703125 309.898438 523.5 310.898438 526 315.398438 C 526 315.398438 527.203125 318.296875 526.703125 319.898438 Z M 526.703125 319.796875 " transform="matrix(0.5,0,0,0.5,0,0)"/>
<path style=" stroke:none;fill-rule:nonzero;fill:rgb(100%,100%,100%);fill-opacity:1;" d="M 264 156.199219 C 264 156.199219 263.898438 156.050781 264 155.898438 L 264.199219 156.101562 C 264.199219 156.101562 264.949219 156.949219 264.351562 158.300781 C 264.351562 158.300781 264.300781 158.5 264.101562 158.398438 L 264.101562 158.25 C 264.101562 158.25 264.699219 157.050781 264 156.25 Z M 264 156.199219 "/>
<path style="fill-rule:nonzero;fill:rgb(39.215687%,70.588237%,81.960785%);fill-opacity:1;stroke-width:1.2;stroke-linecap:butt;stroke-linejoin:miter;stroke:rgb(0%,14.117648%,49.019608%);stroke-opacity:1;stroke-miterlimit:2.6;" d="M 511 323.601562 C 511 323.601562 505.203125 322.203125 506.296875 316.101562 C 506.296875 316.101562 506.898438 313.5 509.398438 313.898438 C 509.398438 313.898438 512.398438 314.703125 510.398438 318.5 C 510.398438 318.5 509.296875 321.101562 511.101562 323.601562 Z M 511 323.601562 " transform="matrix(0.5,0,0,0.5,0,0)"/>
<path style=" stroke:none;fill-rule:nonzero;fill:rgb(100%,100%,100%);fill-opacity:1;" d="M 254.398438 158.25 L 254.398438 158 C 254.398438 158 254.601562 158 254.648438 158.101562 C 254.648438 158.101562 254.949219 158.601562 254.699219 159.300781 C 254.699219 159.300781 254.449219 159.75 254.601562 160.199219 C 254.601562 160.234375 254.550781 160.300781 254.449219 160.398438 L 254.351562 160.199219 C 254.351562 160.199219 254.199219 159.800781 254.449219 159.300781 C 254.449219 159.300781 254.75 158.601562 254.449219 158.25 Z M 254.398438 158.25 "/>
<path style=" stroke:none;fill-rule:nonzero;fill:rgb(0%,0%,0%);fill-opacity:1;" d="M 257.601562 156.148438 C 257.601562 156.148438 259.300781 155.199219 260.601562 156.300781 C 260.601562 156.300781 260.5 155.699219 259.398438 155.449219 C 259.398438 155.449219 258.898438 153.851562 257.300781 154 C 257.300781 154 257.898438 154.800781 258.800781 155.398438 C 258.800781 155.398438 257.898438 155.5 257.601562 156.148438 M 258.800781 151.800781 C 258.800781 151.800781 260 152.648438 260.398438 153.199219 C 260.398438 153.199219 260.851562 152.601562 261.398438 152.300781 C 261.398438 152.300781 260.800781 152.148438 260.398438 152.449219 C 260.398438 152.449219 259.851562 151.949219 258.898438 151.800781 Z M 258.800781 151.800781 "/>
<path style="fill:none;stroke-width:1.2;stroke-linecap:butt;stroke-linejoin:miter;stroke:rgb(0%,0%,0%);stroke-opacity:1;stroke-miterlimit:10;" d="M 504.796875 310.601562 C 504.796875 310.601562 504.5 309.796875 505.101562 309 C 505.101562 309 505.5 308.398438 505.296875 307.5 M 528.703125 259.5 C 528.703125 259.5 532.203125 259.296875 532.703125 256.5 M 538.703125 254.703125 C 538.703125 254.703125 537.5 254.703125 536.5 255.898438 C 536.5 255.898438 535.601562 257.101562 534.5 256.898438 " transform="matrix(0.5,0,0,0.5,0,0)"/>
<path style=" stroke:none;fill-rule:nonzero;fill:rgb(0%,0%,0%);fill-opacity:1;" d="M 261.800781 124.601562 C 261.800781 124.601562 262.699219 124.601562 263.148438 124.199219 C 263.148438 124.199219 263.699219 123.851562 264 124.398438 C 264 124.398438 264.5 125.199219 263.601562 125.550781 C 263.601562 125.550781 262.5 126.148438 264.25 127.25 C 264.25 127.25 262.148438 126.449219 263.050781 125.449219 C 263.050781 125.449219 263.949219 124.851562 263.550781 124.601562 C 263.550781 124.601562 263.449219 124.398438 263.101562 124.601562 C 262.75 124.898438 262.050781 124.800781 261.800781 124.601562 "/>
<path style="fill-rule:nonzero;fill:rgb(39.215687%,70.588237%,81.960785%);fill-opacity:1;stroke-width:1.2;stroke-linecap:butt;stroke-linejoin:miter;stroke:rgb(0%,14.117648%,49.019608%);stroke-opacity:1;stroke-miterlimit:2.6;" d="M 526 205.601562 C 526 205.601562 526.796875 204.398438 526.5 201.203125 C 526.203125 198 529.101562 197.5 530.101562 198.398438 C 530.101562 198.398438 531.296875 199.398438 530.101562 201.5 C 529.296875 203.328125 527.828125 204.796875 526 205.601562 Z M 526 205.601562 " transform="matrix(0.5,0,0,0.5,0,0)"/>
<path style=" stroke:none;fill-rule:nonzero;fill:rgb(100%,100%,100%);fill-opacity:1;" d="M 263.5 101.5 C 263.5 101.5 264.101562 100.949219 263.800781 99.699219 L 263.898438 99.601562 L 264.050781 99.601562 C 264.050781 99.601562 264.351562 101 263.75 101.699219 C 263.75 101.699219 263.648438 101.851562 263.5 101.699219 Z M 263.5 101.5 "/>
<path style="fill-rule:nonzero;fill:rgb(39.215687%,70.588237%,81.960785%);fill-opacity:1;stroke-width:1.2;stroke-linecap:butt;stroke-linejoin:miter;stroke:rgb(0%,14.117648%,49.019608%);stroke-opacity:1;stroke-miterlimit:2.6;" d="M 525.101562 204.398438 C 525.101562 204.398438 525.101562 203 522.796875 200.796875 C 520.398438 198.398438 522.296875 196.398438 523.796875 196.398438 C 523.796875 196.398438 525.101562 196.398438 525.796875 198.703125 C 526.28125 200.625 526.03125 202.648438 525.101562 204.398438 Z M 525.101562 204.398438 " transform="matrix(0.5,0,0,0.5,0,0)"/>
<path style=" stroke:none;fill-rule:nonzero;fill:rgb(100%,100%,100%);fill-opacity:1;" d="M 262.398438 100.699219 C 262.398438 100.699219 262.398438 99.898438 261.300781 99.050781 L 261.300781 98.851562 L 261.5 98.851562 C 261.5 98.851562 262.648438 99.75 262.648438 100.75 C 262.648438 100.816406 262.601562 100.867188 262.5 100.898438 C 262.464844 100.933594 262.433594 100.867188 262.398438 100.699219 "/>
<path style="fill-rule:nonzero;fill:rgb(39.215687%,70.588237%,81.960785%);fill-opacity:1;stroke-width:1.2;stroke-linecap:butt;stroke-linejoin:miter;stroke:rgb(0%,14.117648%,49.019608%);stroke-opacity:1;stroke-miterlimit:2.6;" d="M 522 203.296875 C 522 203.296875 521.296875 202.296875 518.5 201.203125 C 515.601562 200.203125 516.296875 197.703125 517.5 197.203125 C 517.5 197.203125 518.796875 196.703125 520.101562 198.296875 C 521.25 199.710938 521.890625 201.476562 521.898438 203.296875 Z M 522 203.296875 " transform="matrix(0.5,0,0,0.5,0,0)"/>
<path style=" stroke:none;fill-rule:nonzero;fill:rgb(100%,100%,100%);fill-opacity:1;" d="M 260.300781 100.648438 C 260.300781 100.648438 260 99.949219 258.699219 99.601562 C 258.667969 99.601562 258.632812 99.550781 258.601562 99.449219 C 258.601562 99.417969 258.648438 99.398438 258.75 99.398438 C 258.75 99.398438 260.199219 99.699219 260.601562 100.601562 L 260.550781 100.75 C 260.550781 100.75 260.398438 100.75 260.351562 100.648438 Z M 260.300781 100.648438 "/>
<path style="fill-rule:nonzero;fill:rgb(39.215687%,70.588237%,81.960785%);fill-opacity:1;stroke-width:1.2;stroke-linecap:butt;stroke-linejoin:miter;stroke:rgb(0%,14.117648%,49.019608%);stroke-opacity:1;stroke-miterlimit:2.6;" d="M 523.703125 204.398438 C 523.703125 204.398438 522.398438 204.898438 519.296875 203.398438 C 516.203125 201.898438 514.898438 204.5 515.5 205.703125 C 515.5 205.703125 516 207.296875 518.296875 206.898438 C 520.34375 206.820312 522.273438 205.960938 523.703125 204.5 Z M 523.703125 204.398438 " transform="matrix(0.5,0,0,0.5,0,0)"/>
<path style=" stroke:none;fill-rule:nonzero;fill:rgb(100%,100%,100%);fill-opacity:1;" d="M 258.300781 102.699219 C 258.300781 102.699219 259 103.199219 260.25 102.699219 L 260.398438 102.699219 C 260.398438 102.699219 260.398438 102.800781 260.300781 102.851562 C 260.300781 102.851562 259 103.449219 258.101562 102.898438 C 258.066406 102.898438 258.066406 102.851562 258.101562 102.75 Z M 258.300781 102.699219 "/>
<path style="fill:none;stroke-width:1.2;stroke-linecap:butt;stroke-linejoin:miter;stroke:rgb(0%,0%,0%);stroke-opacity:1;stroke-miterlimit:2.6;" d="M 519.296875 194.703125 C 519.296875 194.703125 520.703125 195.5 520.5 197.203125 " transform="matrix(0.5,0,0,0.5,0,0)"/>
<path style="fill:none;stroke-width:1.2;stroke-linecap:butt;stroke-linejoin:miter;stroke:rgb(0%,0%,0%);stroke-opacity:1;stroke-miterlimit:10;" d="M 526 195 C 526 195 526.601562 196.898438 526 198 " transform="matrix(0.5,0,0,0.5,0,0)"/>
<path style="fill-rule:nonzero;fill:rgb(39.215687%,70.588237%,81.960785%);fill-opacity:1;stroke-width:1.2;stroke-linecap:butt;stroke-linejoin:miter;stroke:rgb(0%,14.117648%,49.019608%);stroke-opacity:1;stroke-miterlimit:2.6;" d="M 420.203125 205.601562 C 420.203125 205.601562 419.398438 204.398438 419.703125 201.203125 C 420.101562 197.796875 417.203125 197.5 416.203125 198.398438 C 416.203125 198.398438 415 199.398438 416 201.5 C 416.828125 203.351562 418.328125 204.8125 420.203125 205.601562 Z M 420.203125 205.601562 " transform="matrix(0.5,0,0,0.5,0,0)"/>
<path style=" stroke:none;fill-rule:nonzero;fill:rgb(100%,100%,100%);fill-opacity:1;" d="M 209.550781 101.5 C 209.550781 101.5 209.050781 100.949219 209.25 99.699219 L 209.25 99.601562 L 209.050781 99.601562 C 209.050781 99.601562 208.800781 101 209.398438 101.699219 C 209.398438 101.699219 209.5 101.851562 209.550781 101.699219 Z M 209.550781 101.5 "/>
<path style="fill-rule:nonzero;fill:rgb(39.215687%,70.588237%,81.960785%);fill-opacity:1;stroke-width:1.2;stroke-linecap:butt;stroke-linejoin:miter;stroke:rgb(0%,14.117648%,49.019608%);stroke-opacity:1;stroke-miterlimit:2.6;" d="M 421.203125 204.398438 C 421.203125 204.398438 421.203125 203 423.601562 200.796875 C 425.898438 198.398438 424 196.398438 422.601562 196.398438 C 422.601562 196.398438 421 196.398438 420.601562 198.703125 C 420.085938 200.609375 420.304688 202.640625 421.203125 204.398438 Z M 421.203125 204.398438 " transform="matrix(0.5,0,0,0.5,0,0)"/>
<path style=" stroke:none;fill-rule:nonzero;fill:rgb(100%,100%,100%);fill-opacity:1;" d="M 210.75 100.699219 C 210.75 100.699219 210.75 99.898438 211.75 99.050781 C 211.75 99.050781 211.898438 98.898438 211.75 98.851562 L 211.648438 98.851562 C 211.648438 98.851562 210.449219 99.75 210.449219 100.75 C 210.417969 100.816406 210.484375 100.867188 210.648438 100.898438 C 210.683594 100.933594 210.714844 100.867188 210.75 100.699219 "/>
<path style="fill-rule:nonzero;fill:rgb(39.215687%,70.588237%,81.960785%);fill-opacity:1;stroke-width:1.2;stroke-linecap:butt;stroke-linejoin:miter;stroke:rgb(0%,14.117648%,49.019608%);stroke-opacity:1;stroke-miterlimit:2.6;" d="M 424.296875 203.296875 C 424.296875 203.296875 424.898438 202.296875 427.796875 201.203125 C 430.601562 200.203125 429.796875 197.703125 428.703125 197.203125 C 428.703125 197.203125 427.5 196.703125 426.101562 198.296875 C 424.945312 199.710938 424.3125 201.476562 424.296875 203.296875 Z M 424.296875 203.296875 " transform="matrix(0.5,0,0,0.5,0,0)"/>
<path style=" stroke:none;fill-rule:nonzero;fill:rgb(100%,100%,100%);fill-opacity:1;" d="M 212.800781 100.648438 C 212.800781 100.648438 213.101562 99.949219 214.398438 99.601562 C 214.433594 99.601562 214.464844 99.550781 214.5 99.449219 C 214.5 99.417969 214.464844 99.398438 214.398438 99.398438 C 214.398438 99.398438 212.949219 99.699219 212.550781 100.601562 L 212.550781 100.75 C 212.550781 100.75 212.75 100.75 212.800781 100.648438 "/>
<path style="fill-rule:nonzero;fill:rgb(39.215687%,70.588237%,81.960785%);fill-opacity:1;stroke-width:1.2;stroke-linecap:butt;stroke-linejoin:miter;stroke:rgb(0%,14.117648%,49.019608%);stroke-opacity:1;stroke-miterlimit:2.6;" d="M 422.5 204.398438 C 422.5 204.398438 423.898438 204.898438 426.898438 203.398438 C 429.898438 201.898438 431.296875 204.5 430.898438 205.703125 C 430.898438 205.703125 430.203125 207.296875 427.898438 206.898438 C 425.859375 206.820312 423.929688 205.960938 422.5 204.5 Z M 422.5 204.398438 " transform="matrix(0.5,0,0,0.5,0,0)"/>
<path style=" stroke:none;fill-rule:nonzero;fill:rgb(100%,100%,100%);fill-opacity:1;" d="M 214.800781 102.699219 C 214.800781 102.699219 214.148438 103.199219 212.851562 102.699219 L 212.75 102.699219 L 212.75 102.851562 C 212.75 102.851562 214.148438 103.449219 215 102.898438 C 215.066406 102.898438 215.066406 102.851562 215 102.75 Z M 214.800781 102.699219 "/>
<path style="fill:none;stroke-width:1.2;stroke-linecap:butt;stroke-linejoin:miter;stroke:rgb(0%,0%,0%);stroke-opacity:1;stroke-miterlimit:2.6;" d="M 427 194.703125 C 427 194.703125 425.5 195.5 425.796875 197.203125 " transform="matrix(0.5,0,0,0.5,0,0)"/>
<path style="fill:none;stroke-width:1.2;stroke-linecap:butt;stroke-linejoin:miter;stroke:rgb(0%,0%,0%);stroke-opacity:1;stroke-miterlimit:10;" d="M 420.203125 195 C 420.203125 195 419.601562 196.898438 420.203125 198 " transform="matrix(0.5,0,0,0.5,0,0)"/>
<path style=" stroke:none;fill-rule:nonzero;fill:rgb(0%,0%,0%);fill-opacity:1;" d="M 243.351562 88.800781 C 243.351562 88.800781 243.851562 90.148438 243.648438 91.398438 C 243.5 92.601562 243.75 92.851562 244.148438 93.101562 C 244.5 93.25 245.351562 92.898438 245.398438 92 C 245.398438 92 246.398438 93.898438 244.5 95.148438 C 244.5 95.148438 243.148438 96 242 94.949219 C 241.601562 94.5 241.398438 93.449219 241.648438 92.449219 C 241.648438 92.449219 241.949219 91.101562 241.398438 89.699219 C 241.398438 89.699219 242.199219 90.5 242 92.148438 C 242 92.148438 241.601562 95.148438 243.800781 94.949219 C 243.800781 94.949219 245.300781 94.949219 245.300781 93.148438 C 245.300781 93.148438 244.75 93.75 244.101562 93.550781 C 243.472656 93.402344 243.074219 92.78125 243.199219 92.148438 C 243.25 91.351562 243.5 90 243.351562 88.800781 M 241 93.5 C 241 93.5 240.800781 95.898438 238.699219 96.449219 C 238.699219 96.449219 239 96 238.550781 94.800781 C 238.550781 94.800781 238.050781 94.199219 238.050781 93.148438 C 238.050781 93.148438 237.449219 93.648438 238.199219 95.050781 C 238.699219 95.898438 238.199219 96.851562 238.148438 96.898438 C 237.949219 96.949219 241.601562 96.398438 240.949219 93.550781 Z M 238.199219 91.25 C 238.199219 91.25 237.648438 90.648438 237.601562 89.351562 C 237.601562 88 237.351562 87.648438 237.148438 87.550781 C 237.148438 87.550781 237.398438 88.699219 237.351562 89.351562 C 237.304688 89.859375 237.375 90.371094 237.550781 90.851562 C 237.550781 90.851562 236.351562 91 235.601562 89.351562 C 234.949219 87.699219 234.25 87.851562 233.898438 87.851562 C 233.898438 87.851562 234.300781 87.898438 235.101562 89.351562 C 235.898438 90.851562 236.148438 91.199219 238.199219 91.199219 Z M 232.800781 87.75 C 232.800781 87.75 233.398438 89.351562 233.5 90.148438 C 233.5 90.148438 231.949219 89.648438 231.5 88.398438 C 231.5 88.398438 229.898438 88.898438 230.5 90.75 C 230.5 90.75 229.050781 90.25 228.398438 89.148438 C 228.398438 89.148438 229.199219 89.75 229.949219 90 C 229.949219 90 229.851562 88.449219 231.75 87.898438 C 231.75 87.898438 232.050781 89.25 233.050781 89.550781 Z M 235.300781 85.050781 C 235.300781 85.050781 235.898438 85.800781 237 85.800781 C 237.621094 85.8125 238.210938 85.535156 238.601562 85.050781 C 238.601562 85.050781 238.550781 86.351562 237 86.398438 C 237 86.398438 235.351562 86.398438 235.351562 85.050781 Z M 228.601562 94.300781 L 229.601562 95.25 C 229.601562 95.25 230.199219 95.851562 230.601562 95.101562 C 230.601562 95.101562 231.25 93.898438 232.050781 94 C 232.050781 94 231.449219 94.351562 230.851562 95.5 C 230.851562 95.5 230.75 95.851562 230.25 95.898438 C 230 95.898438 229.75 96 229.351562 95.550781 C 229.285156 95.550781 229.035156 95.148438 228.601562 94.351562 Z M 236.949219 79.601562 C 235.351562 79.601562 236.699219 80.800781 236.699219 80.800781 C 236.699219 82.800781 235.148438 83.5 234.050781 82.898438 C 232.949219 82.300781 233.851562 80.898438 233.851562 80.898438 C 233.851562 80.898438 232.648438 81.648438 233.351562 82.851562 C 234.148438 84.050781 236.199219 83.449219 236.949219 82.398438 C 237.699219 83.5 239.800781 84.050781 240.5 82.851562 C 241.351562 81.648438 240.101562 80.851562 240.101562 80.851562 C 240.101562 80.851562 241 82.300781 239.851562 82.851562 C 238.800781 83.5 237.148438 82.851562 237.25 80.851562 C 237.25 80.851562 238.601562 79.601562 237 79.601562 Z M 237.949219 77.398438 C 237.949219 77.398438 238.550781 78.398438 238.449219 79.898438 C 238.449219 79.898438 238.898438 78.398438 237.949219 77.449219 Z M 232.949219 79.75 C 232.949219 79.75 232.800781 78.648438 231.75 78.550781 C 231.75 78.550781 232.699219 79.199219 232.949219 79.75 M 240.949219 79.75 C 240.949219 79.75 241.101562 78.648438 242.199219 78.550781 C 242.199219 78.550781 241.300781 79.199219 241 79.75 Z M 231.351562 81.351562 C 231.351562 81.351562 232.148438 81.601562 232.648438 81 Z M 228.648438 74.800781 C 228.648438 74.800781 229.601562 74.75 230.550781 76.148438 C 230.550781 76.148438 229.601562 76.648438 229.351562 76.949219 C 229.351562 76.949219 229.351562 76.449219 229.851562 76.101562 C 229.851562 76.101562 229.648438 75.398438 228.648438 74.851562 Z M 244.648438 74.800781 C 244.648438 74.800781 243.648438 74.75 242.699219 76.148438 C 242.699219 76.148438 243.699219 76.648438 243.898438 76.949219 C 243.898438 76.949219 243.898438 76.449219 243.398438 76.101562 C 243.398438 76.101562 243.601562 75.398438 244.648438 74.851562 Z M 237.300781 75.898438 C 237.300781 75.898438 238.148438 76.148438 239.199219 75.550781 C 239.199219 75.550781 240.5 74.851562 241.351562 75.550781 C 241.351562 75.550781 240.648438 75.199219 239.199219 75.898438 C 239.199219 75.898438 237.851562 76.699219 237.300781 75.898438 "/>
<path style=" stroke:none;fill-rule:nonzero;fill:rgb(100%,100%,100%);fill-opacity:1;" d="M 238.199219 76.800781 C 238.199219 76.800781 238.898438 75.550781 241.199219 75.800781 C 241.199219 75.800781 240.550781 77.601562 238.199219 76.800781 "/>
<path style=" stroke:none;fill-rule:nonzero;fill:rgb(47.058824%,26.666668%,12.941177%);fill-opacity:1;" d="M 240.101562 76.398438 C 240.101562 76.097656 239.921875 75.851562 239.699219 75.851562 C 239.480469 75.851562 239.300781 76.097656 239.300781 76.398438 C 239.300781 76.703125 239.480469 76.949219 239.699219 76.949219 C 239.921875 76.949219 240.101562 76.703125 240.101562 76.398438 Z M 240.101562 76.398438 "/>
<path style=" stroke:none;fill-rule:nonzero;fill:rgb(0%,0%,0%);fill-opacity:1;" d="M 239.949219 76.398438 C 239.949219 76.207031 239.839844 76.050781 239.699219 76.050781 C 239.5625 76.050781 239.449219 76.207031 239.449219 76.398438 C 239.449219 76.59375 239.5625 76.75 239.699219 76.75 C 239.839844 76.75 239.949219 76.59375 239.949219 76.398438 Z M 239.949219 76.398438 "/>
<path style=" stroke:none;fill-rule:nonzero;fill:rgb(0%,0%,0%);fill-opacity:1;" d="M 233.398438 74.050781 C 233.398438 74.050781 234.800781 74.199219 235.699219 74.648438 C 235.699219 74.648438 236.601562 75.25 237.601562 74.5 C 237.601562 74.5 238.699219 73.800781 239.449219 72.949219 C 239.449219 72.949219 237.699219 74.101562 237.050781 74.300781 C 237.050781 74.300781 236.449219 73.800781 236.300781 73.148438 C 236.300781 73.148438 236.300781 72.648438 237.300781 71.800781 C 237.300781 71.800781 236.050781 72.199219 235.800781 73.25 C 235.957031 73.675781 236.195312 74.066406 236.5 74.398438 C 236.5 74.398438 236.300781 74.550781 235.699219 74.101562 C 235.699219 74.101562 234.300781 73.699219 233.398438 74.101562 Z M 237 82.550781 C 235.800781 83.601562 237 83.5 237 83.5 C 237 83.5 238.199219 83.601562 237 82.5 Z M 236.300781 75.949219 C 236.300781 75.949219 235.398438 76.199219 234.300781 75.601562 C 234.300781 75.601562 233 74.898438 232.148438 75.601562 C 232.148438 75.601562 232.898438 75.25 234.300781 75.949219 C 234.300781 75.949219 235.75 76.75 236.300781 75.949219 "/>
<path style=" stroke:none;fill-rule:nonzero;fill:rgb(100%,100%,100%);fill-opacity:1;" d="M 235.398438 76.800781 C 235.398438 76.800781 234.648438 75.550781 232.398438 75.800781 C 232.398438 75.800781 233 77.601562 235.398438 76.800781 "/>
<path style=" stroke:none;fill-rule:nonzero;fill:rgb(47.058824%,26.666668%,12.941177%);fill-opacity:1;" d="M 234.25 76.398438 C 234.25 76.097656 234.070312 75.851562 233.851562 75.851562 C 233.628906 75.851562 233.449219 76.097656 233.449219 76.398438 C 233.449219 76.703125 233.628906 76.949219 233.851562 76.949219 C 234.070312 76.949219 234.25 76.703125 234.25 76.398438 Z M 234.25 76.398438 "/>
<path style=" stroke:none;fill-rule:nonzero;fill:rgb(0%,0%,0%);fill-opacity:1;" d="M 234.101562 76.398438 C 234.101562 76.207031 233.988281 76.050781 233.851562 76.050781 C 233.710938 76.050781 233.601562 76.207031 233.601562 76.398438 C 233.601562 76.59375 233.710938 76.75 233.851562 76.75 C 233.988281 76.75 234.101562 76.59375 234.101562 76.398438 Z M 234.101562 76.398438 "/>
<path style="fill:none;stroke-width:1.2;stroke-linecap:butt;stroke-linejoin:miter;stroke:rgb(0%,0%,0%);stroke-opacity:1;stroke-miterlimit:4;" d="M 560 130.601562 L 560 292.203125 C 560 335.296875 473.796875 349.398438 473.796875 349.398438 C 473.796875 349.398438 387.398438 335.398438 387.398438 292.203125 L 387.398438 130.601562 Z M 560 130.601562 " transform="matrix(0.5,0,0,0.5,0,0)"/>
<path style=" stroke:none;fill-rule:nonzero;fill:rgb(0%,0%,40.000001%);fill-opacity:1;" d="M 0 0 L 160 0 L 160 120 L 0 120 Z M 0 0 "/>
<path style=" stroke:none;fill-rule:nonzero;fill:rgb(100%,100%,100%);fill-opacity:1;" d="M 18.75 0 L 79.75 45.25 L 140.5 0 L 160 0 L 160 15.5 L 100 60.25 L 160 104.75 L 160 120 L 140 120 L 80 75.25 L 20.25 120 L 0 120 L 0 105 L 59.75 60.5 L 0 16 L 0 0 Z M 18.75 0 "/>
<path style=" stroke:none;fill-rule:nonzero;fill:rgb(78.431374%,6.27451%,18.039216%);fill-opacity:1;" d="M 106 70.25 L 160 110 L 160 120 L 92.25 70.25 Z M 60 75.25 L 61.5 84 L 13.5 120 L 0 120 Z M 160 0 L 160 0.75 L 97.75 47.75 L 98.25 36.75 L 147.5 0 Z M 0 0 L 59.75 44 L 44.75 44 L 0 10.5 Z M 0 0 "/>
<path style=" stroke:none;fill-rule:nonzero;fill:rgb(100%,100%,100%);fill-opacity:1;" d="M 60.25 0 L 60.25 120 L 100.25 120 L 100.25 0 Z M 0 40 L 0 80 L 160 80 L 160 40 Z M 0 40 "/>
<path style=" stroke:none;fill-rule:nonzero;fill:rgb(78.431374%,6.27451%,18.039216%);fill-opacity:1;" d="M 0 48.25 L 0 72.25 L 160 72.25 L 160 48.25 Z M 68.25 0 L 68.25 120 L 92.25 120 L 92.25 0 Z M 68.25 0 "/>
</g>
</svg>
