<?xml version="1.0" encoding="UTF-8"?>
<svg xmlns="http://www.w3.org/2000/svg" xmlns:xlink="http://www.w3.org/1999/xlink" width="px" height="px" viewBox="0 0 320 240" version="1.1">
<g id="surface1">
<rect x="0" y="0" width="320" height="240" style="fill:rgb(13.333334%,61.960787%,27.058825%);fill-opacity:1;stroke:none;"/>
<path style=" stroke:none;fill-rule:evenodd;fill:rgb(97.254902%,89.803922%,3.529412%);fill-opacity:1;" d="M 160.699219 218 L 311.449219 120.148438 L 159.800781 22 L 8.550781 120.351562 Z M 160.699219 218 "/>
<path style=" stroke:none;fill-rule:evenodd;fill:rgb(16.862746%,28.627452%,63.921571%);fill-opacity:1;" d="M 226.398438 120 C 226.398438 155.148438 197.851562 183.648438 162.601562 183.648438 C 127.425781 183.59375 98.953125 155.039062 99 119.867188 C 99.046875 84.691406 127.59375 56.214844 162.765625 56.25 C 197.941406 56.285156 226.425781 84.824219 226.398438 120 "/>
<path style=" stroke:none;fill-rule:evenodd;fill:rgb(100%,100%,93.725491%);fill-opacity:1;" d="M 141.648438 158.148438 L 139.648438 157 L 137.648438 158 L 138.101562 155.75 L 136.5 154.050781 L 138.75 153.800781 L 139.851562 151.800781 L 140.800781 153.898438 L 143 154.300781 L 141.351562 155.800781 M 184.351562 168.949219 L 182.398438 167.800781 L 180.398438 168.800781 L 180.800781 166.550781 L 179.25 164.898438 L 181.5 164.648438 L 182.550781 162.601562 L 183.550781 164.699219 L 185.75 165.101562 L 184.050781 166.648438 M 165.949219 151.648438 L 164.25 150.648438 L 162.5 151.550781 L 162.898438 149.601562 L 161.5 148.148438 L 163.5 147.949219 L 164.398438 146.148438 L 165.199219 148 L 167.148438 148.351562 L 165.648438 149.699219 M 209.148438 145.449219 L 207.449219 144.449219 L 205.699219 145.351562 L 206.101562 143.398438 L 204.75 142 L 206.699219 141.800781 L 207.601562 140.050781 L 208.398438 141.851562 L 210.300781 142.199219 L 208.851562 143.5 M 165.199219 132.5 L 163.199219 131.398438 L 161.199219 132.398438 L 161.601562 130.101562 L 160.050781 128.449219 L 162.300781 128.199219 L 163.351562 126.148438 L 164.351562 128.25 L 166.550781 128.648438 L 164.851562 130.25 M 112.550781 112.75 L 110.550781 111.648438 L 108.550781 112.648438 L 109.050781 110.351562 L 107.398438 108.699219 L 109.699219 108.449219 L 110.699219 106.398438 L 111.699219 108.5 L 113.898438 108.898438 L 112.25 110.449219 M 118.898438 139.050781 L 116.898438 137.898438 L 114.898438 138.898438 L 115.351562 136.648438 L 113.75 135 L 116 134.699219 L 117.050781 132.699219 L 118.050781 134.800781 L 120.25 135.199219 L 118.601562 136.75 M 184.601562 103.101562 L 182.800781 102.101562 L 181 103 L 181.398438 101 L 180 99.5 L 182 99.25 L 182.949219 97.449219 L 183.800781 99.351562 L 185.800781 99.699219 L 184.300781 101.050781 M 180.949219 120.199219 L 179.601562 119.398438 L 178.148438 120.101562 L 178.449219 118.5 L 177.351562 117.351562 L 178.949219 117.148438 L 179.699219 115.75 L 180.351562 117.25 L 181.851562 117.5 L 180.75 118.601562 M 109.648438 143.800781 L 108.300781 143.050781 L 106.949219 143.699219 L 107.25 142.199219 L 106.199219 141.101562 L 107.699219 140.898438 L 108.398438 139.550781 L 109.050781 140.949219 L 110.550781 141.25 L 109.398438 142.25 M 209.5 149.898438 L 208.398438 149.351562 L 207.300781 149.851562 L 207.550781 148.699219 L 206.699219 147.898438 L 207.898438 147.75 L 208.5 146.75 L 209 147.75 L 210.25 148 L 209.300781 148.75 "/>
<path style=" stroke:none;fill-rule:evenodd;fill:rgb(100%,100%,93.725491%);fill-opacity:1;" d="M 109.648438 143.800781 L 108.300781 143.050781 L 106.949219 143.699219 L 107.25 142.199219 L 106.199219 141.101562 L 107.699219 140.898438 L 108.398438 139.550781 L 109.050781 140.949219 L 110.550781 141.25 L 109.398438 142.25 "/>
<path style=" stroke:none;fill-rule:evenodd;fill:rgb(100%,100%,93.725491%);fill-opacity:1;" d="M 109.648438 143.800781 L 108.300781 143.050781 L 106.949219 143.699219 L 107.25 142.199219 L 106.199219 141.101562 L 107.699219 140.898438 L 108.398438 139.550781 L 109.050781 140.949219 L 110.550781 141.25 L 109.398438 142.25 M 130.550781 143.75 L 129.25 143.050781 L 127.898438 143.699219 L 128.199219 142.199219 L 127.148438 141.101562 L 128.648438 140.898438 L 129.351562 139.550781 L 130 140.949219 L 131.5 141.199219 L 130.351562 142.25 M 127.949219 150.75 L 126.648438 150 L 125.300781 150.699219 L 125.601562 149.199219 L 124.550781 148.050781 L 126.050781 147.851562 L 126.75 146.5 L 127.398438 147.898438 L 128.898438 148.199219 L 127.75 149.199219 M 171.449219 138.101562 L 170.148438 137.300781 L 168.75 138 L 169.050781 136.5 L 168.050781 135.351562 L 169.550781 135.199219 L 170.25 133.851562 L 170.851562 135.25 L 172.351562 135.5 L 171.25 136.550781 M 158.699219 138.050781 L 157.351562 137.300781 L 156 138 L 156.300781 136.5 L 155.300781 135.351562 L 156.800781 135.199219 L 157.5 133.800781 L 158.101562 135.25 L 159.601562 135.5 L 158.5 136.550781 M 124.101562 133.648438 L 123.25 133.148438 L 122.398438 133.550781 L 122.601562 132.601562 L 121.949219 131.898438 L 122.898438 131.800781 L 123.300781 130.949219 L 123.699219 131.851562 L 124.648438 132 L 123.949219 132.648438 M 207.851562 155.351562 L 206.550781 154.601562 L 205.199219 155.300781 L 205.5 153.800781 L 204.449219 152.648438 L 205.949219 152.449219 L 206.648438 151.101562 L 207.300781 152.5 L 208.800781 152.800781 L 207.648438 153.800781 M 197.25 156.800781 L 196.148438 156.101562 L 195 156.699219 L 195.25 155.398438 L 194.398438 154.5 L 195.648438 154.351562 L 196.25 153.199219 L 196.75 154.398438 L 198 154.601562 L 197.050781 155.5 M 202.25 156.648438 L 201.25 156.050781 L 200.199219 156.550781 L 200.398438 155.398438 L 199.601562 154.550781 L 200.75 154.398438 L 201.300781 153.398438 L 201.800781 154.398438 L 202.949219 154.648438 L 202.101562 155.449219 M 216.648438 144.050781 L 215.648438 143.550781 L 214.648438 144.050781 L 214.898438 142.898438 L 214.101562 142.050781 L 215.25 141.898438 L 215.75 140.898438 L 216.25 141.949219 L 217.300781 142.148438 L 216.5 142.949219 M 197.101562 163.851562 L 195.851562 163.148438 L 194.5 163.75 L 194.800781 162.351562 L 193.800781 161.351562 L 195.300781 161.199219 L 195.949219 159.949219 L 196.550781 161.25 L 198.050781 161.5 L 196.898438 162.449219 M 197.199219 169.550781 L 196 168.851562 L 194.800781 169.5 L 195.101562 168.101562 L 194.148438 167.101562 L 195.5 166.898438 L 196.101562 165.648438 L 196.648438 166.949219 L 198 167.199219 L 197 168.199219 M 187.5 156.648438 L 186.550781 156.050781 L 185.550781 156.550781 L 185.75 155.449219 L 185 154.601562 L 186.101562 154.5 L 186.601562 153.5 L 187.101562 154.5 L 188.199219 154.699219 L 187.398438 155.5 M 178.5 156.648438 L 177.5 156.050781 L 176.5 156.550781 L 176.75 155.449219 L 175.949219 154.601562 L 177.101562 154.5 L 177.601562 153.5 L 178.101562 154.5 L 179.148438 154.699219 L 178.351562 155.5 M 163.148438 143.199219 L 162.148438 142.648438 L 161.148438 143.148438 L 161.398438 142 L 160.601562 141.199219 L 161.699219 141.050781 L 162.199219 140.050781 L 162.699219 141.050781 L 163.800781 141.300781 L 163 142.050781 M 164.851562 170.550781 L 164.050781 170.101562 L 163.148438 170.550781 L 163.351562 169.550781 L 162.699219 168.851562 L 163.648438 168.75 L 164.101562 167.898438 L 164.5 168.800781 L 165.449219 168.949219 L 164.75 169.601562 M 141.648438 126.300781 L 139.648438 125.148438 L 137.648438 126.148438 L 138.101562 123.898438 L 136.5 122.25 L 138.75 121.949219 L 139.851562 119.949219 L 140.800781 122.050781 L 143 122.449219 L 141.351562 124 "/>
<path style=" stroke:none;fill-rule:evenodd;fill:rgb(100%,100%,100%);fill-opacity:1;" d="M 222.199219 142.898438 C 223.4375 139.6875 224.40625 136.375 225.101562 133 C 191.199219 103.25 153.449219 88 105.75 91.148438 C 104.019531 94.5 102.597656 97.996094 101.5 101.601562 C 158 96.199219 199.5 121.199219 222.199219 142.898438 "/>
<path style=" stroke:none;fill-rule:nonzero;fill:rgb(18.82353%,61.960787%,22.745098%);fill-opacity:1;" d="M 207 126.199219 L 208.148438 126.851562 C 207.960938 127.183594 207.90625 127.578125 208 127.949219 C 208.117188 128.3125 208.367188 128.617188 208.699219 128.800781 C 209.035156 129.066406 209.367188 129.183594 209.699219 129.148438 C 210 129.148438 210.214844 129.035156 210.351562 128.800781 L 210.449219 128.351562 L 210.199219 127.851562 C 210.101562 127.683594 209.851562 127.382812 209.449219 126.949219 C 209.042969 126.523438 208.734375 126.011719 208.550781 125.449219 C 208.351562 124.574219 208.761719 123.675781 209.550781 123.25 C 209.914062 123.105469 210.316406 123.070312 210.699219 123.148438 C 211.171875 123.257812 211.613281 123.460938 212 123.75 C 212.699219 124.25 213.132812 124.785156 213.300781 125.351562 C 213.445312 125.917969 213.335938 126.519531 213 127 L 211.800781 126.25 C 211.964844 125.917969 212 125.632812 211.898438 125.398438 C 211.832031 125.132812 211.632812 124.898438 211.300781 124.699219 C 211.046875 124.488281 210.730469 124.363281 210.398438 124.351562 C 210.214844 124.34375 210.042969 124.441406 209.949219 124.601562 C 209.851562 124.734375 209.832031 124.898438 209.898438 125.101562 C 209.964844 125.367188 210.234375 125.734375 210.699219 126.199219 C 211.167969 126.667969 211.5 127.082031 211.699219 127.449219 C 212.050781 128.121094 211.996094 128.933594 211.550781 129.550781 C 211.320312 129.890625 210.988281 130.152344 210.601562 130.300781 C 210.226562 130.472656 209.804688 130.523438 209.398438 130.449219 C 208.964844 130.351562 208.5 130.132812 208 129.800781 C 207.265625 129.300781 206.816406 128.75 206.648438 128.148438 C 206.464844 127.472656 206.574219 126.746094 206.949219 126.148438 Z M 201.199219 122.398438 L 202.449219 123.050781 C 202.277344 123.390625 202.242188 123.785156 202.351562 124.148438 C 202.476562 124.492188 202.726562 124.777344 203.050781 124.949219 C 203.417969 125.214844 203.75 125.316406 204.050781 125.25 C 204.351562 125.25 204.566406 125.117188 204.699219 124.851562 L 204.800781 124.449219 C 204.800781 124.285156 204.714844 124.117188 204.550781 123.949219 L 203.75 123.050781 C 203.183594 122.515625 202.851562 122.050781 202.75 121.648438 C 202.605469 121.128906 202.675781 120.566406 202.949219 120.101562 C 203.148438 119.796875 203.425781 119.558594 203.75 119.398438 C 204.09375 119.246094 204.476562 119.195312 204.851562 119.25 C 205.3125 119.328125 205.753906 119.496094 206.148438 119.75 C 206.917969 120.25 207.367188 120.765625 207.5 121.300781 C 207.691406 121.867188 207.617188 122.492188 207.300781 123 L 206.050781 122.300781 C 206.214844 121.964844 206.25 121.683594 206.148438 121.449219 C 206.015625 121.117188 205.800781 120.882812 205.5 120.75 C 205.226562 120.542969 204.890625 120.4375 204.550781 120.449219 C 204.382812 120.460938 204.234375 120.554688 204.148438 120.699219 C 204.050781 120.832031 204.035156 121 204.101562 121.199219 C 204.199219 121.464844 204.484375 121.832031 204.949219 122.300781 C 205.449219 122.800781 205.785156 123.199219 205.949219 123.5 C 206.347656 124.144531 206.347656 124.957031 205.949219 125.601562 C 205.738281 125.953125 205.425781 126.230469 205.050781 126.398438 C 204.675781 126.574219 204.257812 126.625 203.851562 126.550781 C 203.335938 126.464844 202.84375 126.277344 202.398438 126 C 201.753906 125.65625 201.253906 125.085938 201 124.398438 C 200.785156 123.734375 200.855469 123.007812 201.199219 122.398438 M 194.101562 120.5 L 197.75 114.5 L 202.148438 117.25 L 201.550781 118.25 L 198.351562 116.25 L 197.550781 117.601562 L 200.550781 119.449219 L 199.898438 120.449219 L 196.898438 118.601562 L 195.898438 120.25 L 199.25 122.25 L 198.648438 123.25 Z M 183.75 112 L 184.300781 111 L 187 112.351562 L 185.75 114.851562 C 185.351562 114.949219 184.851562 114.984375 184.25 114.949219 C 183.671875 114.890625 183.113281 114.722656 182.601562 114.449219 C 182 114.148438 181.484375 113.703125 181.101562 113.148438 C 180.757812 112.632812 180.582031 112.019531 180.601562 111.398438 C 180.632812 110.753906 180.800781 110.125 181.101562 109.550781 C 181.402344 108.949219 181.847656 108.433594 182.398438 108.050781 C 182.925781 107.679688 183.554688 107.484375 184.199219 107.5 C 184.667969 107.5 185.199219 107.667969 185.800781 108 C 186.601562 108.367188 187.117188 108.832031 187.351562 109.398438 C 187.609375 109.945312 187.664062 110.566406 187.5 111.148438 L 186.148438 110.75 C 186.234375 110.414062 186.199219 110.0625 186.050781 109.75 C 185.917969 109.449219 185.648438 109.214844 185.25 109.050781 C 184.773438 108.792969 184.214844 108.738281 183.699219 108.898438 C 183.199219 109.066406 182.765625 109.5 182.398438 110.199219 C 182.035156 110.898438 181.917969 111.535156 182.050781 112.101562 C 182.207031 112.617188 182.566406 113.050781 183.050781 113.300781 C 183.316406 113.464844 183.601562 113.550781 183.898438 113.550781 L 184.800781 113.550781 L 185.199219 112.75 Z M 138.648438 100.851562 L 139.648438 93.851562 L 141.75 94.199219 L 142.300781 99.101562 L 144.25 94.601562 L 146.351562 94.898438 L 145.351562 101.800781 L 144 101.601562 L 144.851562 96.148438 L 142.648438 101.398438 L 141.300781 101.199219 L 140.75 95.550781 L 139.949219 101.050781 Z M 131.601562 100 L 132.25 93 L 137.398438 93.5 L 137.300781 94.699219 L 133.550781 94.351562 L 133.398438 95.851562 L 136.898438 96.199219 L 136.75 97.398438 L 133.25 97.050781 L 133.101562 98.949219 L 137 99.300781 L 136.898438 100.5 Z M 131.601562 100 "/>
<path style=" stroke:none;fill-rule:nonzero;fill:rgb(18.82353%,61.960787%,22.745098%);fill-opacity:1;" d="M 108.25 95.648438 C 108.25 94.917969 108.367188 94.316406 108.601562 93.851562 C 108.777344 93.496094 109.015625 93.175781 109.300781 92.898438 C 109.550781 92.636719 109.859375 92.433594 110.199219 92.300781 C 110.699219 92.132812 111.199219 92.050781 111.699219 92.050781 C 112.734375 92.082031 113.566406 92.417969 114.199219 93.050781 C 114.847656 93.8125 115.136719 94.8125 115 95.800781 C 115 96.898438 114.667969 97.785156 114 98.449219 C 113.308594 99.050781 112.414062 99.355469 111.5 99.300781 C 110.601562 99.289062 109.742188 98.929688 109.101562 98.300781 C 108.460938 97.570312 108.15625 96.613281 108.25 95.648438 "/>
<path style=" stroke:none;fill-rule:nonzero;fill:rgb(96.862745%,100%,100%);fill-opacity:1;" d="M 109.699219 95.648438 C 109.699219 96.417969 109.867188 97.015625 110.199219 97.449219 C 110.535156 97.882812 111 98.101562 111.601562 98.101562 C 112.121094 98.105469 112.621094 97.910156 113 97.550781 C 113.332031 97.148438 113.515625 96.535156 113.550781 95.699219 C 113.582031 94.898438 113.417969 94.300781 113.050781 93.898438 C 112.703125 93.515625 112.21875 93.285156 111.699219 93.25 C 111.171875 93.257812 110.667969 93.472656 110.300781 93.851562 C 109.933594 94.25 109.734375 94.851562 109.699219 95.648438 "/>
<path style=" stroke:none;fill-rule:nonzero;fill:rgb(18.82353%,61.960787%,22.745098%);fill-opacity:1;" d="M 116.5 99.25 L 116.601562 92.25 L 119.601562 92.25 C 120.332031 92.25 120.867188 92.332031 121.199219 92.5 C 121.535156 92.601562 121.800781 92.816406 122 93.148438 C 122.300781 93.648438 122.300781 93.851562 122.300781 94.300781 C 122.292969 94.777344 122.117188 95.242188 121.800781 95.601562 C 121.421875 95.929688 120.949219 96.140625 120.449219 96.199219 L 121.199219 96.800781 C 121.398438 97 121.648438 97.382812 121.949219 97.949219 L 122.800781 99.351562 L 121.101562 99.351562 L 120.101562 97.75 L 119.398438 96.75 L 118.949219 96.449219 L 118.25 96.351562 L 117.949219 96.351562 L 117.949219 99.25 Z M 116.5 99.25 "/>
<path style=" stroke:none;fill-rule:nonzero;fill:rgb(100%,100%,100%);fill-opacity:1;" d="M 118 95.25 L 119 95.25 C 119.699219 95.25 120.132812 95.214844 120.300781 95.148438 C 120.464844 95.117188 120.601562 95.035156 120.699219 94.898438 C 120.832031 94.699219 120.882812 94.535156 120.851562 94.398438 C 120.851562 94.101562 120.785156 93.898438 120.648438 93.800781 C 120.550781 93.667969 120.382812 93.566406 120.148438 93.5 L 119.148438 93.5 L 118 93.449219 Z M 118 95.25 "/>
<path style=" stroke:none;fill-rule:nonzero;fill:rgb(18.82353%,61.960787%,22.745098%);fill-opacity:1;" d="M 124.5 92.601562 L 127.101562 92.75 C 127.667969 92.75 128.101562 92.800781 128.398438 92.898438 C 128.785156 93.046875 129.128906 93.289062 129.398438 93.601562 C 129.6875 93.949219 129.894531 94.359375 130 94.800781 C 130.132812 95.265625 130.183594 95.816406 130.148438 96.449219 C 130.152344 96.960938 130.066406 97.46875 129.898438 97.949219 C 129.699219 98.449219 129.417969 98.851562 129.050781 99.148438 C 128.757812 99.390625 128.417969 99.5625 128.050781 99.648438 C 127.714844 99.75 127.300781 99.785156 126.800781 99.75 L 124.148438 99.601562 Z M 124.5 92.601562 "/>
<path style=" stroke:none;fill-rule:nonzero;fill:rgb(100%,100%,100%);fill-opacity:1;" d="M 125.851562 93.851562 L 125.601562 98.5 L 127.5 98.5 C 127.765625 98.5 127.964844 98.417969 128.101562 98.25 C 128.265625 98.117188 128.398438 97.898438 128.5 97.601562 C 128.601562 97.300781 128.667969 96.867188 128.699219 96.300781 L 128.648438 95.050781 C 128.582031 94.785156 128.445312 94.542969 128.25 94.351562 L 127.648438 94 L 126.5 93.851562 Z M 125.851562 93.851562 "/>
<path style=" stroke:none;fill-rule:nonzero;fill:rgb(18.82353%,61.960787%,22.745098%);fill-opacity:1;" d="M 158.800781 105.101562 L 160.449219 98.300781 L 162.648438 98.800781 L 164.25 99.300781 C 164.617188 99.5 164.882812 99.816406 165.050781 100.25 C 165.214844 100.683594 165.25 101.148438 165.148438 101.648438 C 165.050781 102.050781 164.882812 102.382812 164.648438 102.648438 C 164.273438 103.089844 163.726562 103.34375 163.148438 103.351562 C 162.816406 103.351562 162.316406 103.265625 161.648438 103.101562 L 160.800781 102.851562 L 160.199219 105.449219 Z M 158.800781 105.101562 "/>
<path style=" stroke:none;fill-rule:nonzero;fill:rgb(100%,100%,100%);fill-opacity:1;" d="M 161.5 99.800781 L 161.101562 101.699219 L 161.851562 101.898438 C 162.382812 102.035156 162.75 102.082031 162.949219 102.050781 C 163.34375 101.980469 163.65625 101.6875 163.75 101.300781 C 163.75 101.066406 163.714844 100.851562 163.648438 100.648438 C 163.539062 100.445312 163.363281 100.289062 163.148438 100.199219 L 162.199219 99.949219 L 161.550781 99.800781 Z M 161.5 99.800781 "/>
<path style=" stroke:none;fill-rule:nonzero;fill:rgb(18.82353%,61.960787%,22.745098%);fill-opacity:1;" d="M 165.300781 107.050781 L 167.648438 100.449219 L 170.398438 101.449219 C 171.132812 101.714844 171.632812 101.949219 171.898438 102.148438 C 172.167969 102.382812 172.332031 102.683594 172.398438 103.050781 C 172.5 103.601562 172.5 103.800781 172.398438 104.199219 C 172.199219 104.699219 171.898438 105.066406 171.5 105.300781 C 171.101562 105.5 170.601562 105.550781 170 105.449219 C 170.199219 105.683594 170.367188 105.949219 170.5 106.25 L 170.898438 107.601562 L 171.199219 109.148438 L 169.648438 108.601562 L 169.148438 106.800781 L 168.800781 105.601562 L 168.5 105.199219 C 168.398438 105.066406 168.183594 104.949219 167.851562 104.851562 L 167.601562 104.75 L 166.601562 107.550781 Z M 165.300781 107.050781 "/>
<path style=" stroke:none;fill-rule:nonzero;fill:rgb(100%,100%,100%);fill-opacity:1;" d="M 168 103.699219 L 168.949219 104.050781 C 169.617188 104.285156 170.035156 104.398438 170.199219 104.398438 C 170.367188 104.398438 170.515625 104.351562 170.648438 104.25 C 170.816406 104.148438 170.917969 104 170.949219 103.800781 C 171.050781 103.601562 171.050781 103.398438 170.949219 103.199219 C 170.867188 103.011719 170.726562 102.855469 170.550781 102.75 L 169.550781 102.398438 L 168.550781 102.050781 L 167.949219 103.699219 Z M 168 103.699219 "/>
<path style=" stroke:none;fill-rule:nonzero;fill:rgb(18.82353%,61.960787%,22.745098%);fill-opacity:1;" d="M 173.5 106.800781 C 173.671875 106.214844 173.960938 105.671875 174.351562 105.199219 C 174.605469 104.902344 174.910156 104.648438 175.25 104.449219 L 176.25 104.101562 C 176.75 104.066406 177.265625 104.132812 177.800781 104.300781 C 178.691406 104.550781 179.445312 105.144531 179.898438 105.949219 C 180.300781 106.75 180.332031 107.699219 180 108.800781 C 179.773438 109.753906 179.15625 110.570312 178.300781 111.050781 C 177.535156 111.484375 176.667969 111.550781 175.699219 111.25 C 174.808594 111 174.054688 110.40625 173.601562 109.601562 C 173.179688 108.722656 173.140625 107.707031 173.5 106.800781 "/>
<path style=" stroke:none;fill-rule:nonzero;fill:rgb(100%,100%,100%);fill-opacity:1;" d="M 174.898438 107.199219 C 174.667969 107.964844 174.667969 108.601562 174.898438 109.101562 C 175.25 109.851562 175.5 109.898438 176.050781 110.101562 C 176.550781 110.265625 177.050781 110.199219 177.550781 109.898438 C 178.015625 109.632812 178.367188 109.101562 178.601562 108.300781 C 178.867188 107.566406 178.867188 106.949219 178.601562 106.449219 C 178.375 105.988281 177.980469 105.628906 177.5 105.449219 C 177 105.300781 176.460938 105.355469 176 105.601562 C 175.5 105.867188 175.132812 106.398438 174.898438 107.199219 "/>
<path style=" stroke:none;fill-rule:nonzero;fill:rgb(18.82353%,61.960787%,22.745098%);fill-opacity:1;" d="M 187.148438 116.550781 L 190.351562 110.351562 L 193 111.699219 C 193.5 111.941406 193.957031 112.261719 194.351562 112.648438 C 194.617188 112.882812 194.75 113.199219 194.75 113.601562 C 194.75 114.199219 194.75 114.351562 194.550781 114.699219 C 194.347656 115.144531 193.992188 115.5 193.550781 115.699219 C 193.050781 115.832031 192.535156 115.800781 192 115.601562 C 192.199219 115.933594 192.332031 116.214844 192.398438 116.449219 C 192.5 116.75 192.566406 117.214844 192.601562 117.851562 L 192.699219 119.449219 L 191.199219 118.699219 L 191 116.851562 L 190.851562 115.601562 L 190.601562 115.101562 L 190 114.75 L 189.75 114.601562 L 188.398438 117.199219 Z M 187.148438 116.550781 "/>
<path style=" stroke:none;fill-rule:nonzero;fill:rgb(100%,100%,100%);fill-opacity:1;" d="M 190.25 113.601562 L 191.199219 114.101562 C 191.800781 114.433594 192.183594 114.601562 192.351562 114.601562 C 192.515625 114.601562 192.683594 114.566406 192.851562 114.5 C 192.984375 114.433594 193.101562 114.300781 193.199219 114.101562 C 193.300781 113.898438 193.332031 113.699219 193.300781 113.5 L 192.949219 113 L 192.050781 112.5 L 191.050781 112 Z M 190.25 113.601562 "/>
<path style=" stroke:none;fill-rule:nonzero;fill:rgb(18.82353%,61.960787%,22.745098%);fill-opacity:1;" d="M 213.050781 129.351562 C 213.375 128.835938 213.800781 128.394531 214.300781 128.050781 C 214.636719 127.839844 215.011719 127.6875 215.398438 127.601562 C 215.761719 127.53125 216.136719 127.53125 216.5 127.601562 C 217 127.699219 217.464844 127.898438 217.898438 128.199219 C 218.671875 128.707031 219.210938 129.496094 219.398438 130.398438 C 219.535156 131.265625 219.300781 132.183594 218.699219 133.148438 C 218.210938 133.988281 217.394531 134.585938 216.449219 134.800781 C 215.542969 134.964844 214.609375 134.769531 213.851562 134.25 C 213.078125 133.742188 212.539062 132.953125 212.351562 132.050781 C 212.214844 131.148438 212.449219 130.25 213.050781 129.351562 "/>
<path style=" stroke:none;fill-rule:nonzero;fill:rgb(100%,100%,100%);fill-opacity:1;" d="M 214.300781 130.148438 C 213.832031 130.816406 213.648438 131.417969 213.75 131.949219 C 213.847656 132.453125 214.132812 132.902344 214.550781 133.199219 C 215.050781 133.535156 215.550781 133.632812 216.050781 133.5 C 216.550781 133.367188 217.035156 132.964844 217.5 132.300781 C 217.964844 131.601562 218.148438 131 218.050781 130.5 C 217.949219 130 217.683594 129.566406 217.25 129.199219 C 216.550781 128.648438 216.25 128.800781 215.75 128.949219 C 215.25 129.050781 214.75 129.449219 214.25 130.148438 Z M 214.300781 130.148438 "/>
<path style=" stroke:none;fill-rule:nonzero;fill:rgb(18.82353%,61.960787%,22.745098%);fill-opacity:1;" d="M 150.898438 102.25 L 152.050781 97.351562 L 155.648438 98.199219 L 155.5 99 L 152.851562 98.398438 L 152.601562 99.5 L 155.050781 100.050781 L 154.851562 100.898438 L 152.398438 100.300781 L 152.101562 101.648438 L 154.851562 102.300781 L 154.648438 103.101562 Z M 150.898438 102.25 "/>
</g>
</svg>
