<?xml version="1.0" encoding="UTF-8"?>
<svg xmlns="http://www.w3.org/2000/svg" xmlns:xlink="http://www.w3.org/1999/xlink" width="px" height="px" viewBox="0 0 320 240" version="1.1">
<defs>
<clipPath id="clip1">
  <path d="M 2 0 L 25 0 L 25 111 L 2 111 Z M 2 0 "/>
</clipPath>
<clipPath id="clip2">
  <path d="M 2.5 0 L 55.386719 0 L 55.386719 162.132812 L 57.5 162.132812 L 57.5 237.863281 L 55.386719 240 L 2.5 240 Z M 2.5 0 "/>
</clipPath>
<clipPath id="clip3">
  <path d="M 33 0 L 58 0 L 58 111 L 33 111 Z M 33 0 "/>
</clipPath>
<clipPath id="clip4">
  <path d="M 2.5 0 L 55.386719 0 L 55.386719 162.132812 L 57.5 162.132812 L 57.5 237.863281 L 55.386719 240 L 2.5 240 Z M 2.5 0 "/>
</clipPath>
<clipPath id="clip5">
  <path d="M 2 0 L 58 0 L 58 75 L 2 75 Z M 2 0 "/>
</clipPath>
<clipPath id="clip6">
  <path d="M 2.5 0 L 55.386719 0 L 55.386719 162.132812 L 57.5 162.132812 L 57.5 237.863281 L 55.386719 240 L 2.5 240 Z M 2.5 0 "/>
</clipPath>
<clipPath id="clip7">
  <path d="M 2 129 L 25 129 L 25 240 L 2 240 Z M 2 129 "/>
</clipPath>
<clipPath id="clip8">
  <path d="M 2.5 0 L 55.386719 0 L 55.386719 162.132812 L 57.5 162.132812 L 57.5 237.863281 L 55.386719 240 L 2.5 240 Z M 2.5 0 "/>
</clipPath>
<clipPath id="clip9">
  <path d="M 33 129 L 58 129 L 58 240 L 33 240 Z M 33 129 "/>
</clipPath>
<clipPath id="clip10">
  <path d="M 2.5 0 L 55.386719 0 L 55.386719 162.132812 L 57.5 162.132812 L 57.5 237.863281 L 55.386719 240 L 2.5 240 Z M 2.5 0 "/>
</clipPath>
<clipPath id="clip11">
  <path d="M 2 165 L 58 165 L 58 240 L 2 240 Z M 2 165 "/>
</clipPath>
<clipPath id="clip12">
  <path d="M 2.5 0 L 55.386719 0 L 55.386719 162.132812 L 57.5 162.132812 L 57.5 237.863281 L 55.386719 240 L 2.5 240 Z M 2.5 0 "/>
</clipPath>
<clipPath id="clip13">
  <path d="M 2 94 L 58 94 L 58 146 L 2 146 Z M 2 94 "/>
</clipPath>
<clipPath id="clip14">
  <path d="M 2.5 0 L 55.386719 0 L 55.386719 162.132812 L 57.5 162.132812 L 57.5 237.863281 L 55.386719 240 L 2.5 240 Z M 2.5 0 "/>
</clipPath>
</defs>
<g id="surface1">
<rect x="0" y="0" width="320" height="240" style="fill:rgb(80.784315%,9.019608%,12.54902%);fill-opacity:1;stroke:none;"/>
<g clip-path="url(#clip1)" clip-rule="nonzero">
<g clip-path="url(#clip2)" clip-rule="nonzero">
<path style=" stroke:none;fill-rule:nonzero;fill:rgb(100%,100%,100%);fill-opacity:1;" d="M 12.019531 0 L 12.019531 3.734375 L 9.640625 3.734375 L 9.640625 7.464844 L 6.730469 7.464844 L 6.730469 11.734375 L 4.617188 11.734375 L 4.617188 15.199219 L 0.382812 15.199219 L 0.382812 6.398438 L 4.617188 6.398438 L 4.617188 1.601562 L 0.382812 1.601562 L 0.382812 0 Z M 18.894531 20.535156 L 18.894531 24.53125 L 16.777344 24.53125 L 16.777344 27.734375 L 14.664062 27.734375 L 14.664062 24.53125 L 12.546875 24.53125 L 12.546875 20.535156 L 10.433594 20.535156 L 10.433594 15.199219 L 12.546875 15.199219 L 12.546875 11.199219 L 14.664062 11.199219 L 14.664062 8 L 16.777344 8 L 16.777344 11.199219 L 18.894531 11.199219 L 18.894531 15.199219 L 21.007812 15.199219 L 21.007812 20.535156 Z M 14.398438 20.265625 L 17.042969 20.265625 L 17.042969 15.464844 L 14.398438 15.464844 Z M 7.523438 48.800781 L 9.640625 48.800781 L 9.640625 44 L 7.523438 44 Z M 21.804688 48.800781 L 23.917969 48.800781 L 23.917969 44 L 21.804688 44 Z M 0.382812 81.332031 L 4.085938 81.332031 L 4.085938 84.800781 L 5.671875 84.800781 L 5.671875 89.066406 L 8.054688 89.066406 L 8.054688 93.066406 L 11.226562 93.066406 L 11.226562 89.066406 L 13.605469 89.066406 L 13.605469 84.800781 L 15.722656 84.800781 L 15.722656 81.332031 L 12.546875 81.332031 L 12.546875 77.332031 L 18.101562 77.332031 L 18.101562 80 L 21.539062 80 L 21.539062 84.53125 L 24.449219 84.53125 L 24.449219 89.597656 L 22.332031 89.597656 L 22.332031 93.332031 L 20.480469 93.332031 L 20.480469 96.800781 L 18.894531 96.800781 L 18.894531 100.53125 L 16.515625 100.53125 L 16.515625 103.734375 L 14.664062 103.734375 L 14.664062 106.664062 L 12.285156 106.664062 L 12.285156 110.398438 L 8.847656 110.398438 L 8.847656 106.398438 L 6.464844 106.398438 L 6.464844 102.667969 L 4.617188 102.667969 L 4.617188 100.265625 L 0.382812 100.265625 L 0.382812 94.132812 L 4.617188 94.132812 L 4.617188 88.800781 L 0.382812 88.800781 Z M 0.382812 81.332031 "/>
</g>
</g>
<g clip-path="url(#clip3)" clip-rule="nonzero">
<g clip-path="url(#clip4)" clip-rule="nonzero">
<path style=" stroke:none;fill-rule:nonzero;fill:rgb(100%,100%,100%);fill-opacity:1;" d="M 45.867188 0 L 45.867188 3.734375 L 48.246094 3.734375 L 48.246094 7.464844 L 51.152344 7.464844 L 51.152344 11.734375 L 53.269531 11.734375 L 53.269531 15.199219 L 57.5 15.199219 L 57.5 6.398438 L 53.269531 6.398438 L 53.269531 1.601562 L 57.5 1.601562 L 57.5 0 Z M 38.992188 20.535156 L 38.992188 24.53125 L 41.105469 24.53125 L 41.105469 27.734375 L 43.222656 27.734375 L 43.222656 24.53125 L 45.335938 24.53125 L 45.335938 20.535156 L 47.453125 20.535156 L 47.453125 15.199219 L 45.335938 15.199219 L 45.335938 11.199219 L 43.222656 11.199219 L 43.222656 8 L 41.105469 8 L 41.105469 11.199219 L 38.992188 11.199219 L 38.992188 15.199219 L 36.875 15.199219 L 36.875 20.535156 Z M 43.484375 20.265625 L 40.839844 20.265625 L 40.839844 15.464844 L 43.484375 15.464844 Z M 50.359375 48.800781 L 48.246094 48.800781 L 48.246094 44 L 50.359375 44 Z M 36.082031 48.800781 L 33.964844 48.800781 L 33.964844 44 L 36.082031 44 Z M 57.5 81.332031 L 53.796875 81.332031 L 53.796875 84.800781 L 52.210938 84.800781 L 52.210938 89.066406 L 49.832031 89.066406 L 49.832031 93.066406 L 46.660156 93.066406 L 46.660156 89.066406 L 44.277344 89.066406 L 44.277344 84.800781 L 42.164062 84.800781 L 42.164062 81.332031 L 45.335938 81.332031 L 45.335938 77.332031 L 39.785156 77.332031 L 39.785156 80 L 36.347656 80 L 36.347656 84.53125 L 33.4375 84.53125 L 33.4375 89.597656 L 35.554688 89.597656 L 35.554688 93.332031 L 37.402344 93.332031 L 37.402344 96.800781 L 38.992188 96.800781 L 38.992188 100.53125 L 41.371094 100.53125 L 41.371094 103.734375 L 43.222656 103.734375 L 43.222656 106.664062 L 45.601562 106.664062 L 45.601562 110.398438 L 49.039062 110.398438 L 49.039062 106.398438 L 51.417969 106.398438 L 51.417969 102.667969 L 53.269531 102.667969 L 53.269531 100.265625 L 57.5 100.265625 L 57.5 94.132812 L 53.269531 94.132812 L 53.269531 88.800781 L 57.5 88.800781 Z M 57.5 81.332031 "/>
</g>
</g>
<g clip-path="url(#clip5)" clip-rule="nonzero">
<g clip-path="url(#clip6)" clip-rule="nonzero">
<path style=" stroke:none;fill-rule:nonzero;fill:rgb(100%,100%,100%);fill-opacity:1;" d="M 27.886719 0 L 27.886719 8.535156 L 30 8.535156 L 30 0 L 38.460938 0 L 38.460938 3.734375 L 36.347656 3.734375 L 36.347656 7.464844 L 33.171875 7.464844 L 33.171875 11.734375 L 31.058594 11.734375 L 31.058594 15.199219 L 26.828125 15.199219 L 26.828125 11.734375 L 24.710938 11.734375 L 24.710938 7.464844 L 21.539062 7.464844 L 21.539062 3.734375 L 19.421875 3.734375 L 19.421875 0 Z M 27.355469 73.066406 L 27.355469 70.132812 L 25.769531 70.132812 L 25.769531 66.667969 L 23.917969 66.667969 L 23.917969 62.933594 L 21.804688 62.933594 L 21.804688 59.199219 L 19.6875 59.199219 L 19.6875 56.53125 L 17.308594 56.53125 L 17.308594 52.800781 L 14.132812 52.800781 L 14.132812 56.53125 L 11.753906 56.53125 L 11.753906 59.199219 L 9.902344 59.199219 L 9.902344 62.933594 L 7.789062 62.933594 L 7.789062 66.667969 L 6.203125 66.667969 L 6.203125 70.132812 L 4.617188 70.132812 L 4.617188 74.667969 L 0.382812 74.667969 L 0.382812 62.933594 L 4.617188 62.933594 L 4.617188 57.601562 L 0.382812 57.601562 L 0.382812 48.800781 L 4.617188 48.800781 L 4.617188 52.53125 L 7.257812 52.53125 L 7.257812 56.265625 L 9.902344 56.265625 L 9.902344 52.53125 L 12.546875 52.53125 L 12.546875 48.800781 L 14.664062 48.800781 L 14.664062 44 L 12.546875 44 L 12.546875 40.265625 L 9.902344 40.265625 L 9.902344 36.53125 L 7.257812 36.53125 L 7.257812 40.265625 L 4.617188 40.265625 L 4.617188 44 L 0.382812 44 L 0.382812 33.066406 L 4.617188 33.066406 L 4.617188 28 L 0.382812 28 L 0.382812 20.535156 L 4.617188 20.535156 L 4.617188 24 L 6.730469 24 L 6.730469 28.265625 L 9.640625 28.265625 L 9.640625 31.734375 L 12.019531 31.734375 L 12.019531 35.734375 L 13.871094 35.734375 L 13.871094 38.933594 L 17.570312 38.933594 L 17.570312 35.734375 L 19.421875 35.734375 L 19.421875 31.734375 L 21.804688 31.734375 L 21.804688 28.265625 L 24.710938 28.265625 L 24.710938 24 L 26.828125 24 L 26.828125 20.535156 L 31.058594 20.535156 L 31.058594 24 L 33.171875 24 L 33.171875 28.265625 L 36.082031 28.265625 L 36.082031 31.734375 L 38.460938 31.734375 L 38.460938 35.734375 L 40.3125 35.734375 L 40.3125 38.933594 L 44.015625 38.933594 L 44.015625 35.734375 L 45.867188 35.734375 L 45.867188 31.734375 L 48.246094 31.734375 L 48.246094 28.265625 L 51.152344 28.265625 L 51.152344 24 L 53.269531 24 L 53.269531 20.535156 L 57.5 20.535156 L 57.5 28 L 53.269531 28 L 53.269531 33.066406 L 57.5 33.066406 L 57.5 44 L 53.269531 44 L 53.269531 40.265625 L 50.625 40.265625 L 50.625 36.53125 L 47.980469 36.53125 L 47.980469 40.265625 L 45.335938 40.265625 L 45.335938 44 L 43.222656 44 L 43.222656 48.800781 L 45.335938 48.800781 L 45.335938 52.53125 L 47.980469 52.53125 L 47.980469 56.265625 L 50.625 56.265625 L 50.625 52.53125 L 53.269531 52.53125 L 53.269531 48.800781 L 57.5 48.800781 L 57.5 57.601562 L 53.269531 57.601562 L 53.269531 62.933594 L 57.5 62.933594 L 57.5 74.667969 L 53.269531 74.667969 L 53.269531 70.132812 L 51.683594 70.132812 L 51.683594 66.667969 L 50.097656 66.667969 L 50.097656 62.933594 L 47.980469 62.933594 L 47.980469 59.199219 L 46.128906 59.199219 L 46.128906 56.53125 L 43.75 56.53125 L 43.75 52.800781 L 40.578125 52.800781 L 40.578125 56.53125 L 38.199219 56.53125 L 38.199219 59.199219 L 36.082031 59.199219 L 36.082031 62.933594 L 33.964844 62.933594 L 33.964844 66.667969 L 32.117188 66.667969 L 32.117188 70.132812 L 30.527344 70.132812 L 30.527344 73.066406 Z M 27.886719 28.53125 L 27.886719 35.734375 L 30 35.734375 L 30 28.53125 Z M 26.828125 44 L 26.828125 40.265625 L 24.183594 40.265625 L 24.183594 36.53125 L 21.539062 36.53125 L 21.539062 40.265625 L 18.894531 40.265625 L 18.894531 44 L 16.777344 44 L 16.777344 48.800781 L 18.894531 48.800781 L 18.894531 52.53125 L 21.539062 52.53125 L 21.539062 56.265625 L 24.183594 56.265625 L 24.183594 52.53125 L 26.828125 52.53125 L 26.828125 48.800781 L 31.058594 48.800781 L 31.058594 52.53125 L 33.703125 52.53125 L 33.703125 56.265625 L 36.347656 56.265625 L 36.347656 52.53125 L 38.992188 52.53125 L 38.992188 48.800781 L 41.105469 48.800781 L 41.105469 44 L 38.992188 44 L 38.992188 40.265625 L 36.347656 40.265625 L 36.347656 36.53125 L 33.703125 36.53125 L 33.703125 40.265625 L 31.058594 40.265625 L 31.058594 44 Z M 27.886719 56.265625 L 27.886719 63.464844 L 30 63.464844 L 30 56.265625 Z M 27.886719 56.265625 "/>
</g>
</g>
<g clip-path="url(#clip7)" clip-rule="nonzero">
<g clip-path="url(#clip8)" clip-rule="nonzero">
<path style=" stroke:none;fill-rule:nonzero;fill:rgb(100%,100%,100%);fill-opacity:1;" d="M 12.019531 240 L 12.019531 236.265625 L 9.640625 236.265625 L 9.640625 232.53125 L 6.730469 232.53125 L 6.730469 228.265625 L 4.617188 228.265625 L 4.617188 224.796875 L 0.382812 224.796875 L 0.382812 233.597656 L 4.617188 233.597656 L 4.617188 238.398438 L 0.382812 238.398438 L 0.382812 240 Z M 18.894531 219.464844 L 18.894531 215.464844 L 16.777344 215.464844 L 16.777344 212.265625 L 14.664062 212.265625 L 14.664062 215.464844 L 12.546875 215.464844 L 12.546875 219.464844 L 10.433594 219.464844 L 10.433594 224.796875 L 12.546875 224.796875 L 12.546875 228.796875 L 14.664062 228.796875 L 14.664062 232 L 16.777344 232 L 16.777344 228.796875 L 18.894531 228.796875 L 18.894531 224.796875 L 21.007812 224.796875 L 21.007812 219.464844 Z M 14.398438 219.730469 L 17.042969 219.730469 L 17.042969 224.53125 L 14.398438 224.53125 Z M 7.523438 191.199219 L 9.640625 191.199219 L 9.640625 196 L 7.523438 196 Z M 21.804688 191.199219 L 23.917969 191.199219 L 23.917969 196 L 21.804688 196 Z M 0.382812 158.664062 L 4.085938 158.664062 L 4.085938 155.199219 L 5.671875 155.199219 L 5.671875 150.933594 L 8.054688 150.933594 L 8.054688 146.933594 L 11.226562 146.933594 L 11.226562 150.933594 L 13.605469 150.933594 L 13.605469 155.199219 L 15.722656 155.199219 L 15.722656 158.664062 L 12.546875 158.664062 L 12.546875 162.664062 L 18.101562 162.664062 L 18.101562 160 L 21.539062 160 L 21.539062 155.464844 L 24.449219 155.464844 L 24.449219 150.398438 L 22.332031 150.398438 L 22.332031 146.664062 L 20.480469 146.664062 L 20.480469 143.199219 L 18.894531 143.199219 L 18.894531 139.464844 L 16.515625 139.464844 L 16.515625 136.265625 L 14.664062 136.265625 L 14.664062 133.332031 L 12.285156 133.332031 L 12.285156 129.597656 L 8.847656 129.597656 L 8.847656 133.597656 L 6.464844 133.597656 L 6.464844 137.332031 L 4.617188 137.332031 L 4.617188 139.734375 L 0.382812 139.734375 L 0.382812 145.867188 L 4.617188 145.867188 L 4.617188 151.199219 L 0.382812 151.199219 Z M 0.382812 158.664062 "/>
</g>
</g>
<g clip-path="url(#clip9)" clip-rule="nonzero">
<g clip-path="url(#clip10)" clip-rule="nonzero">
<path style=" stroke:none;fill-rule:nonzero;fill:rgb(100%,100%,100%);fill-opacity:1;" d="M 45.867188 240 L 45.867188 236.265625 L 48.246094 236.265625 L 48.246094 232.53125 L 51.152344 232.53125 L 51.152344 228.265625 L 53.269531 228.265625 L 53.269531 224.796875 L 57.5 224.796875 L 57.5 233.597656 L 53.269531 233.597656 L 53.269531 238.398438 L 57.5 238.398438 L 57.5 240 Z M 38.992188 219.464844 L 38.992188 215.464844 L 41.105469 215.464844 L 41.105469 212.265625 L 43.222656 212.265625 L 43.222656 215.464844 L 45.335938 215.464844 L 45.335938 219.464844 L 47.453125 219.464844 L 47.453125 224.796875 L 45.335938 224.796875 L 45.335938 228.796875 L 43.222656 228.796875 L 43.222656 232 L 41.105469 232 L 41.105469 228.796875 L 38.992188 228.796875 L 38.992188 224.796875 L 36.875 224.796875 L 36.875 219.464844 Z M 43.484375 219.730469 L 40.839844 219.730469 L 40.839844 224.53125 L 43.484375 224.53125 Z M 50.359375 191.199219 L 48.246094 191.199219 L 48.246094 196 L 50.359375 196 Z M 36.082031 191.199219 L 33.964844 191.199219 L 33.964844 196 L 36.082031 196 Z M 57.5 158.664062 L 53.796875 158.664062 L 53.796875 155.199219 L 52.210938 155.199219 L 52.210938 150.933594 L 49.832031 150.933594 L 49.832031 146.933594 L 46.660156 146.933594 L 46.660156 150.933594 L 44.277344 150.933594 L 44.277344 155.199219 L 42.164062 155.199219 L 42.164062 158.664062 L 45.335938 158.664062 L 45.335938 162.664062 L 39.785156 162.664062 L 39.785156 160 L 36.347656 160 L 36.347656 155.464844 L 33.4375 155.464844 L 33.4375 150.398438 L 35.554688 150.398438 L 35.554688 146.664062 L 37.402344 146.664062 L 37.402344 143.199219 L 38.992188 143.199219 L 38.992188 139.464844 L 41.371094 139.464844 L 41.371094 136.265625 L 43.222656 136.265625 L 43.222656 133.332031 L 45.601562 133.332031 L 45.601562 129.597656 L 49.039062 129.597656 L 49.039062 133.597656 L 51.417969 133.597656 L 51.417969 137.332031 L 53.269531 137.332031 L 53.269531 139.734375 L 57.5 139.734375 L 57.5 145.867188 L 53.269531 145.867188 L 53.269531 151.199219 L 57.5 151.199219 Z M 57.5 158.664062 "/>
</g>
</g>
<g clip-path="url(#clip11)" clip-rule="nonzero">
<g clip-path="url(#clip12)" clip-rule="nonzero">
<path style=" stroke:none;fill-rule:nonzero;fill:rgb(100%,100%,100%);fill-opacity:1;" d="M 27.886719 240 L 27.886719 231.464844 L 30 231.464844 L 30 240 L 38.460938 240 L 38.460938 236.265625 L 36.347656 236.265625 L 36.347656 232.53125 L 33.171875 232.53125 L 33.171875 228.265625 L 31.058594 228.265625 L 31.058594 224.796875 L 26.828125 224.796875 L 26.828125 228.265625 L 24.710938 228.265625 L 24.710938 232.53125 L 21.539062 232.53125 L 21.539062 236.265625 L 19.421875 236.265625 L 19.421875 240 Z M 27.355469 166.933594 L 27.355469 169.867188 L 25.769531 169.867188 L 25.769531 173.332031 L 23.917969 173.332031 L 23.917969 177.066406 L 21.804688 177.066406 L 21.804688 180.800781 L 19.6875 180.800781 L 19.6875 183.464844 L 17.308594 183.464844 L 17.308594 187.199219 L 14.132812 187.199219 L 14.132812 183.464844 L 11.753906 183.464844 L 11.753906 180.800781 L 9.902344 180.800781 L 9.902344 177.066406 L 7.789062 177.066406 L 7.789062 173.332031 L 6.203125 173.332031 L 6.203125 169.867188 L 4.617188 169.867188 L 4.617188 165.332031 L 0.382812 165.332031 L 0.382812 177.066406 L 4.617188 177.066406 L 4.617188 182.398438 L 0.382812 182.398438 L 0.382812 191.199219 L 4.617188 191.199219 L 4.617188 187.464844 L 7.257812 187.464844 L 7.257812 183.730469 L 9.902344 183.730469 L 9.902344 187.464844 L 12.546875 187.464844 L 12.546875 191.199219 L 14.664062 191.199219 L 14.664062 196 L 12.546875 196 L 12.546875 199.730469 L 9.902344 199.730469 L 9.902344 203.464844 L 7.257812 203.464844 L 7.257812 199.730469 L 4.617188 199.730469 L 4.617188 196 L 0.382812 196 L 0.382812 206.933594 L 4.617188 206.933594 L 4.617188 212 L 0.382812 212 L 0.382812 219.464844 L 4.617188 219.464844 L 4.617188 216 L 6.730469 216 L 6.730469 211.730469 L 9.640625 211.730469 L 9.640625 208.265625 L 12.019531 208.265625 L 12.019531 204.265625 L 13.871094 204.265625 L 13.871094 201.066406 L 17.570312 201.066406 L 17.570312 204.265625 L 19.421875 204.265625 L 19.421875 208.265625 L 21.804688 208.265625 L 21.804688 211.730469 L 24.710938 211.730469 L 24.710938 216 L 26.828125 216 L 26.828125 219.464844 L 31.058594 219.464844 L 31.058594 216 L 33.171875 216 L 33.171875 211.730469 L 36.082031 211.730469 L 36.082031 208.265625 L 38.460938 208.265625 L 38.460938 204.265625 L 40.3125 204.265625 L 40.3125 201.066406 L 44.015625 201.066406 L 44.015625 204.265625 L 45.867188 204.265625 L 45.867188 208.265625 L 48.246094 208.265625 L 48.246094 211.730469 L 51.152344 211.730469 L 51.152344 216 L 53.269531 216 L 53.269531 219.464844 L 57.5 219.464844 L 57.5 212 L 53.269531 212 L 53.269531 206.933594 L 57.5 206.933594 L 57.5 196 L 53.269531 196 L 53.269531 199.730469 L 50.625 199.730469 L 50.625 203.464844 L 47.980469 203.464844 L 47.980469 199.730469 L 45.335938 199.730469 L 45.335938 196 L 43.222656 196 L 43.222656 191.199219 L 45.335938 191.199219 L 45.335938 187.464844 L 47.980469 187.464844 L 47.980469 183.730469 L 50.625 183.730469 L 50.625 187.464844 L 53.269531 187.464844 L 53.269531 191.199219 L 57.5 191.199219 L 57.5 182.398438 L 53.269531 182.398438 L 53.269531 177.066406 L 57.5 177.066406 L 57.5 165.332031 L 53.269531 165.332031 L 53.269531 169.867188 L 51.683594 169.867188 L 51.683594 173.332031 L 50.097656 173.332031 L 50.097656 177.066406 L 47.980469 177.066406 L 47.980469 180.800781 L 46.128906 180.800781 L 46.128906 183.464844 L 43.75 183.464844 L 43.75 187.199219 L 40.578125 187.199219 L 40.578125 183.464844 L 38.199219 183.464844 L 38.199219 180.800781 L 36.082031 180.800781 L 36.082031 177.066406 L 33.964844 177.066406 L 33.964844 173.332031 L 32.117188 173.332031 L 32.117188 169.867188 L 30.527344 169.867188 L 30.527344 166.933594 Z M 27.886719 211.464844 L 27.886719 204.265625 L 30 204.265625 L 30 211.464844 Z M 26.828125 196 L 26.828125 199.730469 L 24.183594 199.730469 L 24.183594 203.464844 L 21.539062 203.464844 L 21.539062 199.730469 L 18.894531 199.730469 L 18.894531 196 L 16.777344 196 L 16.777344 191.199219 L 18.894531 191.199219 L 18.894531 187.464844 L 21.539062 187.464844 L 21.539062 183.730469 L 24.183594 183.730469 L 24.183594 187.464844 L 26.828125 187.464844 L 26.828125 191.199219 L 31.058594 191.199219 L 31.058594 187.464844 L 33.703125 187.464844 L 33.703125 183.730469 L 36.347656 183.730469 L 36.347656 187.464844 L 38.992188 187.464844 L 38.992188 191.199219 L 41.105469 191.199219 L 41.105469 196 L 38.992188 196 L 38.992188 199.730469 L 36.347656 199.730469 L 36.347656 203.464844 L 33.703125 203.464844 L 33.703125 199.730469 L 31.058594 199.730469 L 31.058594 196 Z M 27.886719 183.730469 L 27.886719 176.53125 L 30 176.53125 L 30 183.730469 Z M 27.886719 183.730469 "/>
</g>
</g>
<g clip-path="url(#clip13)" clip-rule="nonzero">
<g clip-path="url(#clip14)" clip-rule="nonzero">
<path style=" stroke:none;fill-rule:nonzero;fill:rgb(100%,100%,100%);fill-opacity:1;" d="M 0.382812 108.800781 L 4.617188 108.800781 L 4.617188 112.53125 L 6.464844 112.53125 L 6.464844 114.664062 L 8.582031 114.664062 L 8.582031 118.398438 L 10.433594 118.398438 L 10.433594 121.597656 L 8.582031 121.597656 L 8.582031 125.332031 L 6.464844 125.332031 L 6.464844 127.464844 L 4.617188 127.464844 L 4.617188 131.199219 L 0.382812 131.199219 Z M 57.5 108.800781 L 57.5 131.199219 L 53.269531 131.199219 L 53.269531 127.464844 L 51.417969 127.464844 L 51.417969 125.332031 L 49.304688 125.332031 L 49.304688 121.597656 L 47.453125 121.597656 L 47.453125 118.398438 L 49.304688 118.398438 L 49.304688 114.664062 L 51.417969 114.664062 L 51.417969 112.53125 L 53.269531 112.53125 L 53.269531 108.800781 Z M 18.894531 122.398438 L 21.007812 122.398438 L 21.007812 117.597656 L 18.894531 117.597656 Z M 38.992188 122.398438 L 38.992188 117.597656 L 36.875 117.597656 L 36.875 122.398438 Z M 27.886719 106.664062 L 30 106.664062 L 30 101.867188 L 27.886719 101.867188 Z M 27.886719 133.332031 L 27.886719 138.132812 L 30 138.132812 L 30 133.332031 Z M 14.664062 113.332031 L 18.367188 113.332031 L 18.367188 110.398438 L 21.007812 110.398438 L 21.007812 107.734375 L 22.332031 107.734375 L 22.332031 105.066406 L 23.917969 105.066406 L 23.917969 101.332031 L 26.035156 101.332031 L 26.035156 97.597656 L 27.089844 97.597656 L 27.089844 94.132812 L 30.792969 94.132812 L 30.792969 97.597656 L 31.851562 97.597656 L 31.851562 101.332031 L 33.964844 101.332031 L 33.964844 105.066406 L 35.554688 105.066406 L 35.554688 107.734375 L 36.875 107.734375 L 36.875 110.398438 L 39.519531 110.398438 L 39.519531 113.332031 L 43.222656 113.332031 L 43.222656 126.664062 L 39.519531 126.664062 L 39.519531 129.597656 L 36.875 129.597656 L 36.875 132.265625 L 35.554688 132.265625 L 35.554688 134.933594 L 33.964844 134.933594 L 33.964844 138.664062 L 31.851562 138.664062 L 31.851562 142.398438 L 30.792969 142.398438 L 30.792969 145.867188 L 27.089844 145.867188 L 27.089844 142.398438 L 26.035156 142.398438 L 26.035156 138.664062 L 23.917969 138.664062 L 23.917969 134.933594 L 22.332031 134.933594 L 22.332031 132.265625 L 21.007812 132.265625 L 21.007812 129.597656 L 18.367188 129.597656 L 18.367188 126.664062 L 14.664062 126.664062 Z M 27.886719 115.734375 L 27.886719 111.734375 L 25.769531 111.734375 L 25.769531 109.066406 L 23.652344 109.066406 L 23.652344 115.734375 L 25.769531 115.734375 L 25.769531 118.132812 L 27.089844 118.132812 L 27.089844 121.867188 L 25.769531 121.867188 L 25.769531 124.265625 L 23.652344 124.265625 L 23.652344 130.933594 L 25.769531 130.933594 L 25.769531 128.265625 L 27.886719 128.265625 L 27.886719 124.265625 L 30 124.265625 L 30 128.265625 L 32.117188 128.265625 L 32.117188 130.933594 L 34.230469 130.933594 L 34.230469 124.265625 L 32.117188 124.265625 L 32.117188 121.867188 L 30.792969 121.867188 L 30.792969 118.132812 L 32.117188 118.132812 L 32.117188 115.734375 L 34.230469 115.734375 L 34.230469 109.066406 L 32.117188 109.066406 L 32.117188 111.734375 L 30 111.734375 L 30 115.734375 Z M 27.886719 115.734375 "/>
</g>
</g>
<path style=" stroke:none;fill-rule:nonzero;fill:rgb(0%,48.627451%,18.82353%);fill-opacity:1;" d="M 55 160 L 320 160 L 320 240 L 55 240 Z M 55 160 "/>
</g>
</svg>
