<?xml version="1.0" encoding="UTF-8"?>
<svg xmlns="http://www.w3.org/2000/svg" xmlns:xlink="http://www.w3.org/1999/xlink" width="px" height="px" viewBox="0 0 320 240" version="1.1">
<g id="surface1">
<path style=" stroke:none;fill-rule:nonzero;fill:rgb(100%,100%,100%);fill-opacity:1;" d="M 75.050781 0 L 244.898438 0 L 244.898438 240 L 75 240 Z M 75.050781 0 "/>
<path style=" stroke:none;fill-rule:nonzero;fill:rgb(83.529413%,16.862746%,11.764706%);fill-opacity:1;" d="M -9.851562 0 L 75.050781 0 L 75.050781 240 L -9.851562 240 Z M 244.898438 0 L 329.800781 0 L 329.800781 240 L 244.949219 240 Z M 100.5 116 L 93.851562 118.199219 L 124.550781 145.199219 C 126.898438 152.050781 123.75 154.101562 121.75 157.699219 L 155.050781 153.5 L 154.25 187 L 161.199219 186.851562 L 159.648438 153.550781 L 193 157.550781 C 190.949219 153.199219 189.101562 150.898438 191 143.949219 L 221.648438 118.449219 L 216.300781 116.449219 C 211.898438 113.050781 218.199219 100.148438 219.101562 92 C 219.101562 92 201.25 98.148438 200.101562 94.898438 L 195.5 86.148438 L 179.199219 104.050781 C 177.449219 104.5 176.699219 103.800781 176.25 102.300781 L 183.75 64.898438 L 171.851562 71.601562 C 170.785156 72.035156 169.917969 71.667969 169.25 70.5 L 157.75 47.5 L 145.949219 71.398438 C 145.015625 72.234375 144.183594 72.351562 143.449219 71.75 L 132 65.398438 L 138.851562 102.449219 C 138.300781 103.949219 137 104.351562 135.5 103.550781 L 119.898438 85.898438 C 117.898438 89.148438 116.5 94.449219 113.800781 95.648438 C 111.101562 96.851562 102.050781 93.398438 96 92.148438 C 98.101562 99.550781 104.5 111.949219 100.5 116 "/>
</g>
</svg>
