<?xml version="1.0" encoding="UTF-8"?>
<svg xmlns="http://www.w3.org/2000/svg" xmlns:xlink="http://www.w3.org/1999/xlink" width="px" height="px" viewBox="0 0 320 240" version="1.1">
<g id="surface1">
<rect x="0" y="0" width="320" height="240" style="fill:rgb(0%,20%,60.000002%);fill-opacity:1;stroke:none;"/>
<path style="fill:none;stroke-width:27.5;stroke-linecap:butt;stroke-linejoin:miter;stroke:rgb(100%,80.000001%,0%);stroke-opacity:1;stroke-miterlimit:4;" d="M 350.398438 249.796875 C 350.398438 233.007812 336.789062 219.398438 320 219.398438 C 303.210938 219.398438 289.601562 233.007812 289.601562 249.796875 C 289.601562 266.585938 303.210938 280.203125 320 280.203125 C 336.789062 280.203125 350.398438 266.585938 350.398438 249.796875 Z M 350.398438 249.796875 " transform="matrix(0.5,0,0,0.5,0,0)"/>
<path style="fill:none;stroke-width:27.5;stroke-linecap:butt;stroke-linejoin:miter;stroke:rgb(100%,80.000001%,0%);stroke-opacity:1;stroke-miterlimit:4;" d="M 408.296875 249.796875 C 408.296875 201.03125 368.765625 161.5 320 161.5 C 271.234375 161.5 231.703125 201.03125 231.703125 249.796875 C 231.703125 298.570312 271.234375 338.101562 320 338.101562 C 368.765625 338.101562 408.296875 298.570312 408.296875 249.796875 Z M 408.296875 249.796875 " transform="matrix(0.5,0,0,0.5,0,0)"/>
<path style=" stroke:none;fill-rule:nonzero;fill:rgb(0%,20%,60.000002%);fill-opacity:1;" d="M 202.351562 82.550781 L 244.699219 124.898438 L 202.351562 167.25 L 160 124.898438 Z M 202.351562 82.550781 "/>
<path style=" stroke:none;fill-rule:nonzero;fill:rgb(100%,80.000001%,0%);fill-opacity:1;" d="M 87.851562 118.050781 L 117.449219 118.050781 L 117.449219 131.800781 L 87.851562 131.800781 Z M 217.398438 118.050781 L 261.550781 118.050781 L 261.550781 131.800781 L 217.398438 131.800781 Z M 181.5 93.699219 L 200.898438 74.300781 L 210.601562 84.050781 L 191.25 103.398438 Z M 153.148438 24.300781 L 166.898438 24.300781 L 166.898438 77.851562 L 153.148438 77.851562 Z M 153.148438 24.300781 "/>
<path style=" stroke:none;fill-rule:nonzero;fill:rgb(100%,80.000001%,0%);fill-opacity:1;" d="M 119.398438 79.800781 C 119.398438 76.015625 116.332031 72.949219 112.550781 72.949219 C 108.765625 72.949219 105.699219 76.015625 105.699219 79.800781 C 105.699219 83.582031 108.765625 86.648438 112.550781 86.648438 C 116.332031 86.648438 119.398438 83.582031 119.398438 79.800781 Z M 119.398438 79.800781 "/>
<path style=" stroke:none;fill-rule:nonzero;fill:rgb(100%,80.000001%,0%);fill-opacity:1;" d="M 79 124.898438 C 79 121.117188 75.933594 118.050781 72.148438 118.050781 C 68.367188 118.050781 65.300781 121.117188 65.300781 124.898438 C 65.300781 128.683594 68.367188 131.75 72.148438 131.75 C 75.933594 131.75 79 128.683594 79 124.898438 Z M 79 124.898438 "/>
<path style=" stroke:none;fill-rule:nonzero;fill:rgb(100%,80.000001%,0%);fill-opacity:1;" d="M 166.851562 190.699219 C 166.851562 186.917969 163.78125 183.851562 160 183.851562 C 156.21875 183.851562 153.148438 186.917969 153.148438 190.699219 C 153.148438 194.484375 156.21875 197.550781 160 197.550781 C 163.78125 197.550781 166.851562 194.484375 166.851562 190.699219 Z M 166.851562 190.699219 "/>
<path style=" stroke:none;fill-rule:nonzero;fill:rgb(100%,80.000001%,0%);fill-opacity:1;" d="M 166.851562 212.75 C 166.851562 208.96875 163.78125 205.898438 160 205.898438 C 156.21875 205.898438 153.148438 208.96875 153.148438 212.75 C 153.148438 216.53125 156.21875 219.601562 160 219.601562 C 163.78125 219.601562 166.851562 216.53125 166.851562 212.75 Z M 166.851562 212.75 "/>
<path style=" stroke:none;fill-rule:nonzero;fill:rgb(100%,80.000001%,0%);fill-opacity:1;" d="M 211 124.898438 C 211 121.117188 207.933594 118.050781 204.148438 118.050781 C 200.367188 118.050781 197.300781 121.117188 197.300781 124.898438 C 197.300781 128.683594 200.367188 131.75 204.148438 131.75 C 207.933594 131.75 211 128.683594 211 124.898438 Z M 211 124.898438 "/>
<path style=" stroke:none;fill-rule:nonzero;fill:rgb(100%,80.000001%,0%);fill-opacity:1;" d="M 104.148438 170.75 L 113.898438 161.050781 L 123.601562 170.75 L 113.898438 180.5 Z M 206.5 181.25 L 216.25 171.5 L 226 181.25 L 216.25 190.949219 Z M 206.5 181.25 "/>
</g>
</svg>
