<?xml version="1.0" encoding="UTF-8"?>
<svg xmlns="http://www.w3.org/2000/svg" xmlns:xlink="http://www.w3.org/1999/xlink" width="px" height="px" viewBox="0 0 320 240" version="1.1">
<g id="surface1">
<rect x="0" y="0" width="320" height="240" style="fill:rgb(0%,12.941177%,67.843139%);fill-opacity:1;stroke:none;"/>
<path style=" stroke:none;fill-rule:nonzero;fill:rgb(10.980392%,54.11765%,25.882354%);fill-opacity:1;" d="M 0 0 L 320 0 L 320 240 Z M 0 0 "/>
<path style=" stroke:none;fill-rule:nonzero;fill:rgb(100%,77.64706%,22.352941%);fill-opacity:1;" d="M 188.898438 120 C 188.898438 104.039062 175.960938 91.101562 160 91.101562 C 144.039062 91.101562 131.101562 104.039062 131.101562 120 C 131.101562 135.960938 144.039062 148.898438 160 148.898438 C 175.960938 148.898438 188.898438 135.960938 188.898438 120 Z M 188.898438 120 "/>
<path style=" stroke:none;fill-rule:nonzero;fill:rgb(10.980392%,54.11765%,25.882354%);fill-opacity:1;" d="M 142.351562 107 C 144.351562 109.75 147.351562 114.300781 149.75 113.101562 C 151.601562 113.101562 152.601562 113.25 152.851562 114.5 C 159.214844 115.128906 165.457031 112.425781 169.351562 107.351562 C 169.351562 107.351562 169.75 107.351562 169.601562 105.101562 C 169.601562 104.101562 171 104.300781 171 104.601562 C 171.199219 105.101562 171.199219 105.449219 171.449219 105.5 C 171.949219 105.300781 172.800781 104 173.449219 103.199219 C 173.550781 102.867188 173.582031 102.464844 173.550781 102 C 173.898438 101.148438 174.75 101.351562 174.949219 101.800781 L 175.25 102.601562 C 176.148438 103.199219 177.75 102.601562 177.851562 102.601562 C 178 101.898438 178.449219 102 178.449219 102 C 179.050781 101.851562 178.800781 101.898438 179.199219 102.101562 C 178.851562 105.949219 179.949219 106.101562 179.851562 108.101562 C 179.898438 110.300781 179.199219 110.898438 179.199219 111.75 C 179.398438 112.75 182.699219 112.800781 181.5 113.699219 C 180.5 114.199219 181.5 115.199219 180 115.601562 C 175.601562 117.851562 174.800781 119.75 174.800781 119.75 C 174.800781 119.75 173.699219 121.851562 173.550781 121.851562 C 172.800781 123.25 171.898438 122.449219 171.351562 123.148438 C 171.101562 124 170.851562 125.898438 171.351562 126.851562 C 171.601562 128.199219 171.351562 128.949219 171 130.300781 C 170.699219 133.101562 169.601562 133.550781 169.449219 134.5 C 168.949219 135.601562 169.550781 140.5 169.050781 140.5 C 165.800781 140.601562 163.300781 139.898438 162 139.648438 C 163.25 134.199219 162.75 129.449219 162.75 128.949219 C 162.449219 125.050781 156.949219 126 156.101562 125.449219 C 155.398438 125.351562 154.949219 124.800781 154.75 124.550781 C 153.949219 124.449219 153.648438 124.25 152.898438 124.199219 C 152.5 124.398438 152.75 124.601562 151.898438 124.851562 C 149.648438 125.101562 148.699219 122.949219 148.699219 122.949219 C 148.800781 122.199219 143.75 123.101562 141.050781 122.449219 C 139.898438 123.101562 139.398438 124.949219 138.5 125.148438 C 138.5 125.699219 137 124.648438 136.699219 124.148438 C 136.601562 122.449219 138.101562 121.75 138.101562 121.75 C 139.300781 120.898438 140 120.75 140.601562 120.199219 C 140.851562 118.75 140.699219 117.699219 141.351562 116.648438 C 141.851562 115.800781 142.601562 116.148438 143.101562 115.851562 C 143.648438 115.449219 143.898438 113.050781 143.398438 112.351562 L 141.050781 110.25 C 140.351562 108.199219 141.898438 106.851562 142.351562 107 "/>
<path style=" stroke:none;fill-rule:nonzero;fill:rgb(100%,77.64706%,22.352941%);fill-opacity:1;" d="M 280.949219 71.199219 C 279.648438 66.050781 267.949219 54.851562 259.101562 47.75 C 257 46.351562 255.601562 47.199219 255.898438 49.25 C 257 51.050781 257.800781 53.050781 258.898438 54.898438 C 259.199219 56.148438 259.800781 57 260.101562 58.199219 C 260.101562 58.199219 260.199219 60.300781 260.398438 60.5 C 263.101562 63.5 263.5 66.050781 263.5 66.050781 C 264.878906 69.007812 266.832031 71.660156 269.25 73.851562 C 272.351562 75.800781 270.050781 81.851562 270.148438 85.101562 C 270.148438 87.101562 268.699219 86.898438 267.398438 86.601562 C 257.351562 77.351562 247.351562 77.351562 238.5 74.648438 C 235.101562 74.300781 235 75.949219 236.148438 76.851562 C 241.660156 82.988281 248.296875 88.011719 255.699219 91.648438 L 259.550781 94.050781 L 263.949219 97.699219 C 267.351562 99.898438 267.601562 101.898438 267.601562 102.101562 C 267.699219 106.199219 265.5 109.398438 264.851562 110.699219 C 263.699219 115.050781 261.351562 115.800781 261.351562 115.800781 C 242.550781 128.5 232.648438 131.800781 202.148438 127.851562 C 201.648438 127.648438 198.75 128.101562 202.148438 129.351562 C 209.898438 131.949219 229 136.101562 247.449219 127.351562 C 251.949219 124.25 254.851562 125.25 258.101562 123.351562 C 262.667969 120.519531 267.394531 117.949219 272.25 115.648438 C 276.398438 113.398438 287.898438 110.949219 290.550781 108.75 C 293.601562 108.5 296.75 108.101562 296.949219 105.5 C 297.949219 104.851562 299.449219 105.351562 300.550781 103.199219 C 302.949219 102.75 302.550781 101.898438 302.550781 101.898438 C 301.949219 100.199219 299.648438 99.5 298.050781 98.25 C 295.648438 97.449219 294.050781 97.25 292.300781 98.050781 L 290.648438 98.800781 C 290.648438 98.800781 288.101562 98.449219 288.101562 98.25 C 282.398438 97.949219 282.949219 79.101562 280.949219 71.25 Z M 280.949219 71.199219 "/>
<path style=" stroke:none;fill-rule:nonzero;fill:rgb(10.980392%,54.11765%,25.882354%);fill-opacity:1;" d="M 294.300781 102.101562 C 294.132812 102.574219 293.390625 102.769531 292.644531 102.535156 C 291.898438 102.300781 291.429688 101.722656 291.601562 101.25 C 291.769531 100.777344 292.507812 100.582031 293.253906 100.816406 C 294 101.050781 294.46875 101.625 294.300781 102.101562 "/>
<path style=" stroke:none;fill-rule:nonzero;fill:rgb(100%,100%,100%);fill-opacity:1;" d="M 60.222656 101.121094 L 56.128906 97.28125 L 52 101.054688 L 52.449219 95.488281 L 46.910156 94.59375 L 51.550781 91.457031 L 48.800781 86.59375 L 54.144531 88.289062 L 56.222656 83.105469 L 58.238281 88.320312 L 63.585938 86.71875 L 60.769531 91.519531 L 65.375 94.71875 L 59.839844 95.519531 Z M 60.222656 101.121094 "/>
<path style=" stroke:none;fill-rule:nonzero;fill:rgb(100%,100%,100%);fill-opacity:1;" d="M 74.6875 147.359375 L 70.273438 144.449219 L 65.984375 147.519531 L 67.519531 142.558594 L 63.167969 139.519531 L 68.480469 139.390625 L 70.078125 134.433594 L 71.871094 139.328125 L 77.214844 139.296875 L 72.960938 142.398438 L 74.65625 147.328125 Z M 74.6875 147.359375 "/>
<path style=" stroke:none;fill-rule:nonzero;fill:rgb(100%,100%,100%);fill-opacity:1;" d="M 61.023438 187.230469 L 56.929688 183.390625 L 52.800781 187.167969 L 53.246094 181.601562 L 47.710938 180.703125 L 52.351562 177.566406 L 49.601562 172.703125 L 54.945312 174.398438 L 57.023438 169.214844 L 59.039062 174.433594 L 64.382812 172.832031 L 61.566406 177.632812 L 66.175781 180.832031 L 60.640625 181.632812 Z M 61.023438 187.230469 "/>
<path style=" stroke:none;fill-rule:nonzero;fill:rgb(100%,100%,100%);fill-opacity:1;" d="M 24.351562 140.542969 L 20.257812 136.703125 L 16.128906 140.480469 L 16.574219 134.910156 L 11.039062 134.015625 L 15.679688 130.878906 L 12.929688 126.015625 L 18.273438 127.710938 L 20.351562 122.527344 L 22.367188 127.742188 L 27.710938 126.144531 L 24.894531 130.945312 L 29.503906 134.144531 L 23.96875 134.945312 Z M 24.351562 140.542969 "/>
<path style=" stroke:none;fill-rule:nonzero;fill:rgb(100%,100%,100%);fill-opacity:1;" d="M 94.910156 128.320312 L 90.816406 124.480469 L 86.6875 128.257812 L 87.136719 122.6875 L 81.601562 121.792969 L 86.238281 118.65625 L 83.488281 113.792969 L 88.832031 115.488281 L 90.910156 110.304688 L 92.929688 115.519531 L 98.273438 113.921875 L 95.457031 118.71875 L 100.0625 121.921875 L 94.527344 122.71875 Z M 94.910156 128.320312 "/>
</g>
</svg>
