<?xml version="1.0" encoding="UTF-8"?>
<svg xmlns="http://www.w3.org/2000/svg" xmlns:xlink="http://www.w3.org/1999/xlink" width="px" height="px" viewBox="0 0 320 240" version="1.1">
<g id="surface1">
<rect x="0" y="0" width="320" height="240" style="fill:rgb(6.27451%,54.901963%,0%);fill-opacity:1;stroke:none;"/>
<path style=" stroke:none;fill-rule:evenodd;fill:rgb(100%,83.92157%,0%);fill-opacity:1;" d="M -82.351562 83.753906 L 402.972656 83.753906 L 402.972656 107.300781 L -82.351562 107.300781 Z M -82.351562 83.753906 "/>
<path style=" stroke:none;fill-rule:evenodd;fill:rgb(100%,83.92157%,0%);fill-opacity:1;" d="M 124.921875 0 L 147.714844 0 L 147.714844 240.640625 L 124.96875 240.640625 Z M 124.921875 0 "/>
<path style=" stroke:none;fill-rule:evenodd;fill:rgb(0%,0%,0.392157%);fill-opacity:1;" d="M 146.914062 0 L 169.664062 0 L 169.664062 240.640625 L 146.914062 240.640625 Z M 146.914062 0 "/>
<path style=" stroke:none;fill-rule:evenodd;fill:rgb(0%,0%,0.392157%);fill-opacity:1;" d="M -82.351562 106.503906 L 402.972656 106.503906 L 402.972656 130.097656 L -82.351562 130.097656 Z M -82.351562 106.503906 "/>
<path style=" stroke:none;fill-rule:evenodd;fill:rgb(100%,100%,100%);fill-opacity:1;" d="M -82.351562 130.097656 L 402.972656 130.097656 L 402.972656 153.644531 L -82.351562 153.644531 Z M -82.351562 130.097656 "/>
<path style=" stroke:none;fill-rule:evenodd;fill:rgb(100%,100%,100%);fill-opacity:1;" d="M 169.664062 0 L 192.460938 0 L 192.460938 240.640625 L 169.664062 240.640625 Z M 169.664062 0 "/>
<path style=" stroke:none;fill-rule:evenodd;fill:rgb(90.588236%,16.078432%,6.27451%);fill-opacity:1;" d="M 160.96875 185.132812 C 125.433594 185.132812 96.625 156.199219 96.625 120.507812 C 96.625 84.816406 125.433594 55.882812 160.96875 55.882812 C 196.503906 55.882812 225.3125 84.816406 225.3125 120.507812 C 225.3125 156.199219 196.503906 185.132812 160.96875 185.132812 Z M 160.96875 185.132812 "/>
<path style=" stroke:none;fill-rule:evenodd;fill:rgb(0%,0%,0%);fill-opacity:1;" d="M 157.585938 64.390625 L 160.21875 56.871094 L 162.613281 64.25 C 162.613281 64.25 170.652344 64.484375 170.652344 64.34375 C 170.652344 64.203125 164.304688 69.183594 164.304688 69.183594 L 167.171875 77.457031 C 167.078125 77.222656 160.21875 72.332031 160.21875 72.332031 C 160.21875 72.332031 153.261719 77.222656 153.402344 77.222656 C 153.542969 77.222656 156.035156 69.230469 156.035156 69.230469 L 149.78125 64.484375 L 157.585938 64.34375 Z M 157.585938 64.390625 "/>
<path style=" stroke:none;fill-rule:evenodd;fill:rgb(100%,90.588236%,0%);fill-opacity:1;" d="M 157.960938 64.71875 L 160.171875 58.28125 L 162.238281 64.671875 C 162.238281 64.671875 169.242188 64.859375 169.242188 64.765625 C 169.242188 64.671875 163.742188 68.996094 163.742188 68.996094 L 166.1875 76.140625 C 166.09375 75.90625 160.171875 71.722656 160.171875 71.722656 C 160.171875 71.722656 154.152344 75.953125 154.246094 75.953125 C 154.34375 75.953125 156.597656 68.996094 156.597656 68.996094 L 151.144531 64.859375 L 157.914062 64.765625 Z M 157.960938 64.71875 "/>
<path style=" stroke:none;fill-rule:evenodd;fill:rgb(6.27451%,54.901963%,0%);fill-opacity:1;" d="M 158.902344 65.800781 L 160.21875 62.039062 L 161.4375 65.753906 C 161.4375 65.753906 165.433594 65.847656 165.433594 65.753906 C 165.433594 65.660156 162.285156 68.195312 162.285156 68.195312 L 163.695312 72.332031 C 163.648438 72.191406 160.21875 69.796875 160.21875 69.796875 L 156.832031 72.238281 C 156.925781 72.238281 158.148438 68.242188 158.148438 68.242188 L 155.046875 65.894531 Z M 158.902344 65.800781 "/>
<path style=" stroke:none;fill-rule:evenodd;fill:rgb(0%,0%,0%);fill-opacity:1;" d="M 207.59375 99.546875 L 210.226562 92.027344 L 212.574219 99.40625 C 212.574219 99.40625 220.660156 99.6875 220.660156 99.546875 C 220.660156 99.40625 214.3125 104.386719 214.3125 104.386719 L 217.132812 112.660156 C 217.039062 112.425781 210.226562 107.535156 210.226562 107.535156 C 210.226562 107.535156 203.269531 112.425781 203.410156 112.425781 C 203.550781 112.425781 206.042969 104.433594 206.042969 104.433594 L 199.789062 99.640625 L 207.59375 99.5 Z M 207.59375 99.546875 "/>
<path style=" stroke:none;fill-rule:evenodd;fill:rgb(100%,90.588236%,0%);fill-opacity:1;" d="M 207.921875 99.921875 L 210.226562 93.390625 L 212.292969 99.828125 C 212.292969 99.828125 219.25 100.015625 219.25 99.921875 C 219.25 99.828125 213.75 104.152344 213.75 104.152344 L 216.242188 111.25 C 216.148438 111.0625 210.226562 106.832031 210.226562 106.832031 C 210.226562 106.832031 204.210938 111.0625 204.304688 111.0625 C 204.398438 111.0625 206.605469 104.105469 206.605469 104.105469 L 201.199219 100.015625 Z M 207.921875 99.921875 "/>
<path style=" stroke:none;fill-rule:evenodd;fill:rgb(6.27451%,54.901963%,0%);fill-opacity:1;" d="M 208.910156 101.003906 L 210.226562 97.242188 L 211.398438 100.910156 L 215.441406 101.003906 L 212.246094 103.398438 C 212.246094 103.398438 213.75 107.628906 213.65625 107.535156 C 213.65625 107.394531 210.226562 104.996094 210.226562 104.996094 L 206.792969 107.394531 L 208.109375 103.398438 L 205.007812 101.050781 Z M 208.910156 101.003906 "/>
<path style=" stroke:none;fill-rule:evenodd;fill:rgb(0%,0%,0%);fill-opacity:1;" d="M 193.023438 155.382812 L 195.65625 147.863281 L 198.003906 155.289062 C 198.003906 155.289062 206.089844 155.523438 206.089844 155.429688 C 206.089844 155.335938 199.742188 160.269531 199.742188 160.269531 L 202.5625 168.496094 C 202.46875 168.261719 195.65625 163.417969 195.65625 163.417969 C 195.65625 163.417969 188.699219 168.261719 188.792969 168.261719 C 188.886719 168.261719 191.472656 160.269531 191.472656 160.269531 L 185.222656 155.570312 Z M 193.023438 155.382812 "/>
<path style=" stroke:none;fill-rule:evenodd;fill:rgb(100%,90.588236%,0%);fill-opacity:1;" d="M 193.351562 155.757812 L 195.65625 149.273438 L 197.722656 155.664062 C 197.722656 155.664062 204.679688 155.898438 204.679688 155.757812 C 204.679688 155.617188 199.179688 159.988281 199.179688 159.988281 L 201.671875 167.132812 C 201.578125 166.898438 195.65625 162.714844 195.65625 162.714844 C 195.65625 162.714844 189.640625 166.945312 189.734375 166.945312 C 189.828125 166.945312 192.035156 159.988281 192.035156 159.988281 L 186.632812 155.898438 Z M 193.351562 155.757812 "/>
<path style=" stroke:none;fill-rule:evenodd;fill:rgb(6.27451%,54.901963%,0%);fill-opacity:1;" d="M 194.339844 156.839844 L 195.65625 153.078125 L 196.828125 156.792969 C 196.828125 156.792969 200.871094 156.933594 200.871094 156.839844 C 200.871094 156.746094 197.675781 159.28125 197.675781 159.28125 L 199.085938 163.371094 C 199.085938 163.277344 195.65625 160.835938 195.65625 160.835938 L 192.222656 163.277344 L 193.539062 159.28125 L 190.4375 156.933594 Z M 194.339844 156.839844 "/>
<path style=" stroke:none;fill-rule:evenodd;fill:rgb(0%,0%,0%);fill-opacity:1;" d="M 123.132812 155.382812 L 125.765625 147.863281 L 128.117188 155.289062 C 128.117188 155.289062 136.152344 155.523438 136.152344 155.429688 C 136.152344 155.335938 129.808594 160.269531 129.808594 160.269531 L 132.722656 168.496094 C 132.582031 168.261719 125.765625 163.417969 125.765625 163.417969 C 125.765625 163.417969 118.808594 168.261719 118.902344 168.261719 C 118.996094 168.261719 121.582031 160.269531 121.582031 160.269531 L 115.332031 155.570312 Z M 123.132812 155.382812 "/>
<path style=" stroke:none;fill-rule:evenodd;fill:rgb(100%,90.588236%,0%);fill-opacity:1;" d="M 123.511719 155.757812 L 125.765625 149.273438 L 127.835938 155.664062 C 127.835938 155.664062 134.789062 155.898438 134.789062 155.757812 C 134.789062 155.617188 129.289062 159.988281 129.289062 159.988281 L 131.78125 167.132812 C 131.6875 166.898438 125.765625 162.714844 125.765625 162.714844 C 125.765625 162.714844 119.75 166.945312 119.84375 166.945312 C 119.9375 166.945312 122.148438 159.988281 122.148438 159.988281 L 116.742188 155.898438 Z M 123.511719 155.757812 "/>
<path style=" stroke:none;fill-rule:evenodd;fill:rgb(6.27451%,54.901963%,0%);fill-opacity:1;" d="M 124.449219 156.839844 L 125.765625 153.078125 L 126.941406 156.792969 C 126.941406 156.792969 130.984375 156.933594 130.984375 156.839844 C 130.984375 156.746094 127.785156 159.28125 127.785156 159.28125 L 129.195312 163.371094 C 129.195312 163.277344 125.765625 160.835938 125.765625 160.835938 L 122.335938 163.277344 L 123.652344 159.28125 L 120.550781 156.933594 Z M 124.449219 156.839844 "/>
<path style=" stroke:none;fill-rule:evenodd;fill:rgb(0%,0%,0%);fill-opacity:1;" d="M 110.351562 98.089844 L 112.980469 90.570312 L 115.378906 97.996094 C 115.378906 97.996094 123.414062 98.230469 123.414062 98.089844 C 123.414062 97.949219 117.070312 102.976562 117.070312 102.976562 L 119.9375 111.203125 C 119.796875 110.96875 112.980469 106.125 112.980469 106.125 C 112.980469 106.125 106.027344 110.921875 106.167969 110.921875 C 106.308594 110.921875 108.800781 102.929688 108.800781 102.929688 L 102.546875 98.230469 Z M 110.351562 98.089844 "/>
<path style=" stroke:none;fill-rule:evenodd;fill:rgb(100%,90.588236%,0%);fill-opacity:1;" d="M 110.726562 98.464844 L 112.980469 91.980469 L 115.097656 98.371094 C 115.097656 98.371094 122.007812 98.605469 122.007812 98.464844 C 122.007812 98.324219 116.507812 102.695312 116.507812 102.695312 L 118.996094 109.839844 C 118.902344 109.605469 112.980469 105.421875 112.980469 105.421875 C 112.980469 105.421875 106.964844 109.652344 107.105469 109.652344 C 107.246094 109.652344 109.363281 102.695312 109.363281 102.695312 L 103.957031 98.605469 Z M 110.726562 98.464844 "/>
<path style=" stroke:none;fill-rule:evenodd;fill:rgb(6.27451%,54.901963%,0%);fill-opacity:1;" d="M 111.664062 99.546875 L 112.980469 95.785156 L 114.203125 99.5 L 118.199219 99.546875 L 115.050781 101.988281 L 116.460938 106.078125 C 116.414062 105.984375 112.980469 103.539062 112.980469 103.539062 L 109.597656 105.984375 C 109.691406 105.984375 110.914062 101.988281 110.914062 101.988281 L 107.8125 99.640625 Z M 111.664062 99.546875 "/>
<path style=" stroke:none;fill-rule:evenodd;fill:rgb(0%,0%,0%);fill-opacity:1;" d="M 192.410156 81.828125 L 189.78125 89.347656 L 187.429688 81.96875 C 187.429688 81.96875 179.347656 81.734375 179.347656 81.828125 C 179.347656 81.921875 185.691406 76.984375 185.691406 76.984375 L 182.871094 68.761719 C 182.964844 68.996094 189.78125 73.835938 189.78125 73.835938 C 189.78125 73.835938 196.734375 68.996094 196.59375 68.996094 C 196.453125 68.996094 193.964844 76.984375 193.964844 76.984375 L 200.214844 81.6875 Z M 192.410156 81.828125 "/>
<path style=" stroke:none;fill-rule:evenodd;fill:rgb(100%,90.588236%,0%);fill-opacity:1;" d="M 192.082031 81.449219 C 192.082031 81.59375 189.734375 87.984375 189.734375 87.984375 L 187.710938 81.59375 C 187.710938 81.59375 180.757812 81.355469 180.757812 81.449219 C 180.757812 81.546875 186.253906 77.269531 186.253906 77.269531 L 183.765625 70.125 C 183.859375 70.359375 189.78125 74.542969 189.78125 74.542969 C 189.78125 74.542969 195.796875 70.3125 195.703125 70.3125 C 195.609375 70.3125 193.398438 77.269531 193.398438 77.269531 L 198.804688 81.355469 Z M 192.082031 81.449219 "/>
<path style=" stroke:none;fill-rule:evenodd;fill:rgb(6.27451%,54.901963%,0%);fill-opacity:1;" d="M 191.097656 80.371094 L 189.78125 84.128906 L 188.605469 80.464844 C 188.605469 80.464844 184.5625 80.324219 184.5625 80.417969 C 184.5625 80.511719 187.757812 77.972656 187.757812 77.972656 L 186.347656 73.882812 C 186.347656 73.976562 189.78125 76.421875 189.78125 76.421875 L 193.210938 73.976562 C 193.117188 73.976562 191.847656 77.972656 191.847656 77.972656 L 194.996094 80.324219 L 191.097656 80.417969 Z M 191.097656 80.371094 "/>
<path style=" stroke:none;fill-rule:evenodd;fill:rgb(0%,0%,0%);fill-opacity:1;" d="M 212.480469 136.441406 L 209.847656 143.960938 L 207.5 136.535156 C 207.5 136.535156 199.414062 136.300781 199.414062 136.441406 C 199.414062 136.582031 205.761719 131.601562 205.761719 131.601562 L 202.941406 123.328125 C 203.035156 123.5625 209.847656 128.402344 209.847656 128.402344 C 209.847656 128.402344 216.804688 123.5625 216.664062 123.5625 C 216.523438 123.5625 214.03125 131.554688 214.03125 131.554688 L 220.328125 136.300781 Z M 212.480469 136.441406 "/>
<path style=" stroke:none;fill-rule:evenodd;fill:rgb(100%,90.588236%,0%);fill-opacity:1;" d="M 212.152344 136.066406 L 209.847656 142.550781 L 207.78125 136.160156 C 207.78125 136.160156 200.824219 135.972656 200.824219 136.066406 C 200.824219 136.160156 206.324219 131.835938 206.324219 131.835938 L 203.832031 124.691406 C 203.925781 124.925781 209.847656 129.109375 209.847656 129.109375 C 209.847656 129.109375 215.863281 124.878906 215.769531 124.878906 C 215.675781 124.878906 213.46875 131.835938 213.46875 131.835938 L 218.871094 135.972656 Z M 212.152344 136.066406 "/>
<path style=" stroke:none;fill-rule:evenodd;fill:rgb(6.27451%,54.901963%,0%);fill-opacity:1;" d="M 211.164062 134.984375 L 209.847656 138.742188 L 208.675781 135.03125 C 208.675781 135.03125 204.632812 134.9375 204.632812 135.03125 C 204.632812 135.125 207.828125 132.585938 207.828125 132.585938 L 206.417969 128.449219 C 206.417969 128.59375 209.847656 130.988281 209.847656 130.988281 L 213.28125 128.546875 C 213.1875 128.546875 211.917969 132.585938 211.917969 132.585938 L 215.066406 134.9375 Z M 211.164062 134.984375 "/>
<path style=" stroke:none;fill-rule:evenodd;fill:rgb(0%,0%,0%);fill-opacity:1;" d="M 162.707031 176.390625 L 160.074219 183.910156 L 157.726562 176.484375 C 157.726562 176.484375 149.640625 176.25 149.640625 176.34375 C 149.640625 176.4375 155.988281 171.503906 155.988281 171.503906 L 153.167969 163.277344 C 153.261719 163.511719 160.074219 168.355469 160.074219 168.355469 C 160.074219 168.355469 167.03125 163.511719 166.890625 163.511719 C 166.75 163.511719 164.257812 171.503906 164.257812 171.503906 L 170.511719 176.25 Z M 162.707031 176.390625 "/>
<path style=" stroke:none;fill-rule:evenodd;fill:rgb(100%,90.588236%,0%);fill-opacity:1;" d="M 162.378906 175.96875 L 160.074219 182.546875 L 158.007812 176.109375 C 158.007812 176.109375 151.050781 175.875 151.050781 176.015625 C 151.050781 176.15625 156.550781 171.785156 156.550781 171.785156 L 154.058594 164.640625 C 154.152344 164.875 160.074219 169.058594 160.074219 169.058594 C 160.074219 169.058594 166.09375 164.828125 165.996094 164.828125 C 165.902344 164.828125 163.695312 171.785156 163.695312 171.785156 L 169.101562 175.875 L 162.378906 176.015625 Z M 162.378906 175.96875 "/>
<path style=" stroke:none;fill-rule:evenodd;fill:rgb(6.27451%,54.901963%,0%);fill-opacity:1;" d="M 161.390625 174.933594 L 160.074219 178.695312 L 158.902344 174.980469 C 158.902344 174.980469 154.859375 174.839844 154.859375 174.933594 C 154.859375 175.027344 158.054688 172.488281 158.054688 172.488281 L 156.644531 168.402344 C 156.644531 168.496094 160.074219 170.9375 160.074219 170.9375 L 163.507812 168.496094 L 162.191406 172.488281 L 165.292969 174.839844 Z M 161.390625 174.933594 "/>
<path style=" stroke:none;fill-rule:evenodd;fill:rgb(0%,0%,0%);fill-opacity:1;" d="M 115.988281 136.441406 L 113.3125 143.960938 L 110.960938 136.535156 C 110.960938 136.535156 102.878906 136.300781 102.878906 136.441406 C 102.878906 136.582031 109.222656 131.601562 109.222656 131.601562 L 106.402344 123.328125 C 106.496094 123.5625 113.3125 128.402344 113.3125 128.402344 L 120.21875 123.609375 L 117.539062 131.601562 L 123.792969 136.347656 L 115.988281 136.488281 Z M 115.988281 136.441406 "/>
<path style=" stroke:none;fill-rule:evenodd;fill:rgb(100%,90.588236%,0%);fill-opacity:1;" d="M 115.613281 136.066406 L 113.3125 142.550781 L 111.242188 136.160156 C 111.242188 136.160156 104.285156 135.972656 104.285156 136.066406 C 104.285156 136.160156 109.785156 131.835938 109.785156 131.835938 L 107.296875 124.691406 C 107.390625 124.925781 113.3125 129.109375 113.3125 129.109375 C 113.3125 129.109375 119.328125 124.878906 119.234375 124.878906 C 119.140625 124.878906 116.929688 131.835938 116.929688 131.835938 L 122.335938 135.972656 Z M 115.613281 136.066406 "/>
<path style=" stroke:none;fill-rule:evenodd;fill:rgb(6.27451%,54.901963%,0%);fill-opacity:1;" d="M 114.628906 134.984375 L 113.3125 138.742188 L 112.136719 135.03125 C 112.136719 135.03125 108.09375 134.9375 108.09375 135.03125 C 108.09375 135.125 111.289062 132.585938 111.289062 132.585938 L 109.878906 128.449219 C 109.878906 128.59375 113.3125 130.988281 113.3125 130.988281 L 116.742188 128.546875 L 115.425781 132.585938 L 118.527344 134.9375 Z M 114.628906 134.984375 "/>
<path style=" stroke:none;fill-rule:evenodd;fill:rgb(0%,0%,0%);fill-opacity:1;" d="M 133.238281 82.625 L 130.605469 90.144531 L 128.164062 82.765625 C 128.164062 82.765625 120.171875 82.53125 120.171875 82.625 C 120.171875 82.71875 126.519531 77.785156 126.519531 77.785156 L 123.652344 69.558594 C 123.746094 69.796875 130.558594 74.636719 130.558594 74.636719 C 130.558594 74.636719 137.515625 69.796875 137.421875 69.796875 C 137.328125 69.796875 134.789062 77.785156 134.789062 77.785156 L 140.992188 82.484375 Z M 133.238281 82.625 "/>
<path style=" stroke:none;fill-rule:evenodd;fill:rgb(100%,90.588236%,0%);fill-opacity:1;" d="M 132.863281 82.25 L 130.558594 88.828125 L 128.492188 82.390625 C 128.492188 82.390625 121.535156 82.15625 121.535156 82.296875 C 121.535156 82.4375 127.035156 78.066406 127.035156 78.066406 L 124.542969 70.921875 C 124.636719 71.15625 130.558594 75.339844 130.558594 75.339844 C 130.558594 75.339844 136.574219 71.109375 136.480469 71.109375 C 136.386719 71.109375 134.226562 78.066406 134.226562 78.066406 L 139.585938 82.15625 L 132.863281 82.296875 Z M 132.863281 82.25 "/>
<path style=" stroke:none;fill-rule:evenodd;fill:rgb(6.27451%,54.901963%,0%);fill-opacity:1;" d="M 131.875 81.214844 L 130.558594 84.976562 L 129.386719 81.261719 C 129.386719 81.261719 125.390625 81.121094 125.390625 81.214844 C 125.390625 81.308594 128.539062 78.773438 128.539062 78.773438 L 127.128906 74.683594 C 127.128906 74.777344 130.558594 77.222656 130.558594 77.222656 L 133.992188 74.777344 L 132.675781 78.773438 L 135.777344 81.121094 Z M 131.875 81.214844 "/>
<path style="fill-rule:evenodd;fill:rgb(0%,57.254905%,0%);fill-opacity:1;stroke-width:2.5;stroke-linecap:butt;stroke-linejoin:miter;stroke:rgb(0%,0%,0%);stroke-opacity:1;stroke-miterlimit:4;" d="M 710.990098 586.088911 C 710.990098 481.266941 697.219013 396.279454 680.201377 396.296102 C 663.183741 396.312751 649.412656 481.27804 649.412656 586.10001 C 649.412656 690.921981 663.183741 775.909468 680.201377 775.892819 C 697.219013 775.920567 710.990098 690.910881 710.990098 586.088911 Z M 710.990098 586.088911 " transform="matrix(0.109491,-0.0136864,0,0.087984,90.367691,91.957416)"/>
<path style="fill-rule:evenodd;fill:rgb(0%,57.254905%,0%);fill-opacity:1;stroke-width:2.5;stroke-linecap:butt;stroke-linejoin:miter;stroke:rgb(0%,0%,0%);stroke-opacity:1;stroke-miterlimit:4;" d="M 711.016184 586.10762 C 711.016184 481.285649 697.197531 396.314811 680.215572 396.281513 C 663.200314 396.287063 649.414959 481.27455 649.414959 586.09652 C 649.414959 690.918491 663.200314 775.883779 680.215572 775.922627 C 697.197531 775.911527 711.016184 690.92959 711.016184 586.10762 Z M 711.016184 586.10762 " transform="matrix(0.117312,-0.014664,0,0.087984,89.358806,92.373873)"/>
<path style="fill-rule:evenodd;fill:rgb(0%,57.254905%,0%);fill-opacity:1;stroke-width:2.5;stroke-linecap:butt;stroke-linejoin:miter;stroke:rgb(0%,0%,0%);stroke-opacity:1;stroke-miterlimit:4;" d="M 711.006072 586.087273 C 711.006072 481.269341 697.229042 396.293964 680.205461 396.288919 C 663.18188 396.283874 649.40485 481.269341 649.40485 586.087273 C 649.40485 690.905205 663.18188 775.880582 680.205461 775.885627 C 697.229042 775.890672 711.006072 690.905205 711.006072 586.087273 Z M 711.006072 586.087273 " transform="matrix(0.0938496,-0.0117312,0,0.0967824,103.608303,85.938333)"/>
<path style="fill-rule:evenodd;fill:rgb(66.274512%,33.725491%,0%);fill-opacity:1;stroke-width:0.5;stroke-linecap:butt;stroke-linejoin:miter;stroke:rgb(0%,0%,0%);stroke-opacity:1;stroke-miterlimit:4;" d="M 388.502567 -52.997344 C 394.496199 -53.301021 391.898959 -56.297837 394.903767 -58.000029 C 397.900583 -59.598331 402.200015 -58.599392 403.502631 -56.601515 C 404.797256 -54.603637 403.798317 -52.597768 405.500509 -52.597768 C 407.202701 -52.597768 452.49858 -55.099111 454.096882 -53.500809 C 455.703176 -51.902507 456.102751 -48.498123 454.400559 -47.203499 C 452.802257 -45.796993 395.50313 -44.198691 393.497261 -45.597205 C 391.499383 -47.003711 388.502567 -52.597768 388.502567 -52.997344 Z M 388.502567 -52.997344 " transform="matrix(0.4888,0,0,0.4888,-42.298485,164.127757)"/>
<path style="fill-rule:evenodd;fill:rgb(100%,100%,0%);fill-opacity:1;stroke-width:3.9;stroke-linecap:butt;stroke-linejoin:miter;stroke:rgb(0%,0%,0%);stroke-opacity:1;stroke-miterlimit:4;" d="M 529.581874 405.460707 C 529.581874 445.498173 575.186756 433.271162 576.412121 466.675674 C 575.719524 502.078063 499.693627 470.191938 497.775665 405.460707 C 499.693627 340.729476 572.789304 307.484795 574.494159 344.485486 C 575.719524 375.092969 529.47532 365.503157 529.47532 405.460707 Z M 529.581874 405.460707 " transform="matrix(0.07332,0,0,0.04888,124.089026,124.1928)"/>
<path style="fill-rule:evenodd;fill:rgb(100%,100%,0%);fill-opacity:1;stroke-width:3.9;stroke-linecap:butt;stroke-linejoin:miter;stroke:rgb(0%,0%,0%);stroke-opacity:1;stroke-miterlimit:4;" d="M 529.606851 405.499619 C 529.606851 445.537084 575.211734 433.310074 576.383822 466.714586 C 575.691224 502.116975 499.718604 470.23085 497.800642 405.499619 C 499.718604 340.688473 572.814281 307.523706 574.519136 344.524398 C 575.691224 375.131881 529.500297 365.462154 529.500297 405.499619 Z M 529.606851 405.499619 " transform="matrix(0.07332,0,0,0.04888,126.044226,124.241679)"/>
<path style="fill-rule:evenodd;fill:rgb(100%,100%,0%);fill-opacity:1;stroke-width:3.9;stroke-linecap:butt;stroke-linejoin:miter;stroke:rgb(0%,0%,0%);stroke-opacity:1;stroke-miterlimit:4;" d="M 529.602945 405.501787 C 529.602945 445.539252 575.207828 433.312242 576.379916 466.716754 C 575.687319 502.119143 499.714699 470.233018 497.796736 405.501787 C 499.714699 340.690641 572.810375 307.525874 574.51523 344.526566 C 575.687319 375.134049 529.496392 365.464322 529.496392 405.501787 Z M 529.602945 405.501787 " transform="matrix(0.07332,0,0,0.04888,128.146075,124.143917)"/>
<path style="fill-rule:evenodd;fill:rgb(100%,100%,0%);fill-opacity:1;stroke-width:3.9;stroke-linecap:butt;stroke-linejoin:miter;stroke:rgb(0%,0%,0%);stroke-opacity:1;stroke-miterlimit:4;" d="M 529.574646 405.501787 C 529.574646 445.539252 575.179528 433.312242 576.404893 466.716754 C 575.712296 502.119143 499.686399 470.233018 497.821713 405.501787 C 499.686399 340.690641 572.782075 307.525874 574.486931 344.526566 C 575.712296 375.134049 529.521369 365.464322 529.521369 405.501787 Z M 529.574646 405.501787 " transform="matrix(0.07332,0,0,0.04888,130.101274,124.143917)"/>
<path style="fill-rule:evenodd;fill:rgb(66.274512%,33.725491%,0%);fill-opacity:1;stroke-width:0.4;stroke-linecap:butt;stroke-linejoin:miter;stroke:rgb(0%,0%,0%);stroke-opacity:1;stroke-miterlimit:4;" d="M 481.899559 -41.103177 C 481.90177 -42.979483 480.333908 -44.501874 478.401395 -44.503011 C 476.469008 -44.497201 474.898367 -42.97582 474.90342 -41.09964 C 474.901209 -39.223334 476.469071 -37.700943 478.401584 -37.699807 C 480.334097 -37.69867 481.897475 -39.219924 481.899559 -41.103177 Z M 481.899559 -41.103177 " transform="matrix(0.53768,0.009776,-0.009776,0.56212,-79.251763,166.425117)"/>
<path style="fill-rule:evenodd;fill:rgb(0%,57.254905%,0%);fill-opacity:1;stroke-width:2.5;stroke-linecap:butt;stroke-linejoin:miter;stroke:rgb(0%,0%,0%);stroke-opacity:1;stroke-miterlimit:4;" d="M 447.887026 904.998061 C 447.87933 891.693599 438.602678 880.901199 427.119234 880.909075 C 415.593773 880.88958 406.300489 891.683981 406.308185 904.988442 C 406.311131 918.317749 415.587783 929.110149 427.117995 929.104798 C 438.601438 929.096923 447.894722 918.302522 447.887026 904.998061 Z M 447.887026 904.998061 " transform="matrix(0.0826706,-0.00839737,0.0158068,0.155615,116.644328,7.24598)"/>
<path style="fill-rule:evenodd;fill:rgb(0%,57.254905%,0%);fill-opacity:1;stroke-width:2.5;stroke-linecap:butt;stroke-linejoin:miter;stroke:rgb(0%,0%,0%);stroke-opacity:1;stroke-miterlimit:4;" d="M 447.887218 904.987998 C 447.879522 891.683536 438.60287 880.891136 427.119426 880.899011 C 415.589214 880.904362 406.29593 891.698763 406.303626 905.003224 C 406.311323 918.307686 415.634743 929.102609 427.118187 929.094734 C 438.59688 929.111705 447.890164 918.317305 447.887218 904.987998 Z M 447.887218 904.987998 " transform="matrix(0.0826706,-0.00839737,0.0158068,0.155615,113.769472,6.997548)"/>
<path style="fill-rule:evenodd;fill:rgb(0%,57.254905%,0%);fill-opacity:1;stroke-width:2.5;stroke-linecap:butt;stroke-linejoin:miter;stroke:rgb(0%,0%,0%);stroke-opacity:1;stroke-miterlimit:4;" d="M 447.892909 905.000684 C 447.885212 891.696223 438.60856 880.903823 427.078348 880.909174 C 415.599655 880.892204 406.306371 891.686604 406.314068 904.991065 C 406.317013 918.320373 415.598416 929.087927 427.077109 929.104897 C 438.607321 929.099546 447.900605 918.305146 447.892909 905.000684 Z M 447.892909 905.000684 " transform="matrix(0.0826706,-0.00839737,0.0158068,0.155615,111.725832,3.323747)"/>
<path style="fill-rule:evenodd;fill:rgb(0%,57.254905%,0%);fill-opacity:1;stroke-width:2.5;stroke-linecap:butt;stroke-linejoin:miter;stroke:rgb(0%,0%,0%);stroke-opacity:1;stroke-miterlimit:4;" d="M 447.912714 904.99667 C 447.908453 891.685254 438.606794 880.902713 427.111407 880.896785 C 415.61602 880.890857 406.290424 891.680558 406.294685 904.991974 C 406.298946 918.30339 415.595557 929.108647 427.095992 929.091859 C 438.591379 929.097787 447.916975 918.308086 447.912714 904.99667 Z M 447.912714 904.99667 " transform="matrix(0.0778076,-0.00790341,0.0172887,0.170204,114.533999,-11.111367)"/>
<path style="fill-rule:evenodd;fill:rgb(0%,57.254905%,0%);fill-opacity:1;stroke-width:2.5;stroke-linecap:butt;stroke-linejoin:miter;stroke:rgb(0%,0%,0%);stroke-opacity:1;stroke-miterlimit:4;" d="M 447.888766 904.997597 C 447.916704 891.684279 438.578146 880.903649 427.08276 880.897361 C 415.637064 880.893521 406.298675 891.679297 406.320428 904.995063 C 406.29249 918.308382 415.631048 929.089012 427.076743 929.092852 C 438.57213 929.09914 447.910519 918.313363 447.888766 904.997597 Z M 447.888766 904.997597 " transform="matrix(0.0778076,-0.00790341,0.0163008,0.160478,119.480698,-1.591008)"/>
<path style="fill-rule:evenodd;fill:rgb(0%,57.254905%,0%);fill-opacity:1;stroke-width:2.5;stroke-linecap:butt;stroke-linejoin:miter;stroke:rgb(0%,0%,0%);stroke-opacity:1;stroke-miterlimit:4;" d="M 447.903852 905.004812 C 447.882099 891.689046 438.593232 880.910864 427.097845 880.904576 C 415.602458 880.898289 406.313761 891.686512 406.285822 904.999831 C 406.307575 918.315597 415.596442 929.093779 427.091829 929.100067 C 438.587216 929.106355 447.875914 918.318131 447.903852 905.004812 Z M 447.903852 905.004812 " transform="matrix(0.0778076,-0.00790341,0.0163008,0.160478,117.280188,-2.939703)"/>
<path style="fill-rule:evenodd;fill:rgb(0%,57.254905%,0%);fill-opacity:1;stroke-width:2.5;stroke-linecap:butt;stroke-linejoin:miter;stroke:rgb(0%,0%,0%);stroke-opacity:1;stroke-miterlimit:4;" d="M 447.91978 904.992413 C 447.89298 891.70074 438.609161 880.898465 427.113774 880.892177 C 415.61334 880.909982 406.274951 891.695758 406.296704 905.011525 C 406.323504 918.303198 415.607323 929.105473 427.10271 929.111761 C 438.603145 929.093955 447.891842 918.305732 447.91978 904.992413 Z M 447.91978 904.992413 " transform="matrix(0.0778076,-0.00790341,0.0163008,0.160478,114.529151,-4.871181)"/>
<path style="fill-rule:evenodd;fill:rgb(0%,57.254905%,0%);fill-opacity:1;stroke-width:2.5;stroke-linecap:butt;stroke-linejoin:miter;stroke:rgb(0%,0%,0%);stroke-opacity:1;stroke-miterlimit:4;" d="M 447.911465 905.000508 C 447.889712 891.684741 438.600845 880.906559 427.105458 880.900271 C 415.610072 880.893984 406.321374 891.682207 406.293436 904.995526 C 406.315189 918.311292 415.604055 929.089475 427.099442 929.095762 C 438.594829 929.10205 447.883527 918.313826 447.911465 905.000508 Z M 447.911465 905.000508 " transform="matrix(0.0778076,-0.00790341,0.0163008,0.160478,111.959353,-5.985827)"/>
<path style="fill-rule:evenodd;fill:rgb(50.196081%,29.411766%,100%);fill-opacity:1;stroke-width:0.5;stroke-linecap:butt;stroke-linejoin:miter;stroke:rgb(0%,0%,0%);stroke-opacity:1;stroke-miterlimit:4;" d="M 482.596053 -141.002262 C 482.596053 -141.002262 470.896482 -130.996891 472.502776 -104.097468 C 474.300866 -77.102147 499.002624 -64.603425 499.002624 -64.603425 C 499.002624 -64.603425 505.196044 -72.299249 504.197105 -94.100089 C 502.199228 -125.898308 490.403759 -139.803535 490.403759 -139.803535 L 482.596053 -141.09816 Z M 482.596053 -141.002262 " transform="matrix(0.4888,0,0,0.4888,-77.932004,168.917997)"/>
<path style="fill-rule:evenodd;fill:rgb(0%,57.254905%,0%);fill-opacity:1;stroke-width:2.5;stroke-linecap:butt;stroke-linejoin:miter;stroke:rgb(0%,0%,0%);stroke-opacity:1;stroke-miterlimit:4;" d="M 447.902846 904.990864 C 447.912659 891.688536 438.581997 880.906045 427.123975 880.909145 C 415.615401 880.889308 406.324146 891.698866 406.314333 905.001194 C 406.30452 918.303522 415.592006 929.112869 427.096892 929.10781 C 438.601778 929.102751 447.896721 918.318089 447.902846 904.990864 Z M 447.902846 904.990864 " transform="matrix(0.0828398,0.00651964,-0.0122723,0.155934,145.935674,1.113504)"/>
<path style="fill-rule:evenodd;fill:rgb(0%,57.254905%,0%);fill-opacity:1;stroke-width:2.5;stroke-linecap:butt;stroke-linejoin:miter;stroke:rgb(0%,0%,0%);stroke-opacity:1;stroke-miterlimit:4;" d="M 447.890885 904.995515 C 447.900698 891.693187 438.570036 880.910695 427.108326 880.888899 C 415.60344 880.893958 406.308497 891.67862 406.302372 905.005844 C 406.292559 918.308173 415.623221 929.090664 427.084931 929.11246 C 438.589817 929.107401 447.88476 918.322739 447.890885 904.995515 Z M 447.890885 904.995515 " transform="matrix(0.0828398,0.00651964,-0.0122723,0.155934,143.151566,0.355045)"/>
<path style="fill-rule:evenodd;fill:rgb(0%,57.254905%,0%);fill-opacity:1;stroke-width:2.5;stroke-linecap:butt;stroke-linejoin:miter;stroke:rgb(0%,0%,0%);stroke-opacity:1;stroke-miterlimit:4;" d="M 447.917564 904.991429 C 447.880513 891.69106 438.596715 880.90661 427.091829 880.911669 C 415.630119 880.889873 406.292 891.70139 406.282187 905.003718 C 406.319238 918.304087 415.603036 929.088538 427.11161 929.108375 C 438.569632 929.105275 447.911439 918.318654 447.917564 904.991429 Z M 447.917564 904.991429 " transform="matrix(0.0828398,0.00651964,-0.0122723,0.155934,141.797743,-3.624961)"/>
<path style="fill-rule:evenodd;fill:rgb(0%,57.254905%,0%);fill-opacity:1;stroke-width:2.5;stroke-linecap:butt;stroke-linejoin:miter;stroke:rgb(0%,0%,0%);stroke-opacity:1;stroke-miterlimit:4;" d="M 447.882648 905.002397 C 447.896306 891.694978 438.572621 880.899328 427.099493 880.899845 C 415.626365 880.900361 406.309501 891.679554 406.299762 905.009736 C 406.286103 918.317155 415.605869 929.090042 427.078998 929.089526 C 438.605838 929.10998 447.918782 918.308025 447.882648 905.002397 Z M 447.882648 905.002397 " transform="matrix(0.0779669,0.00613613,-0.0134228,0.170553,147.141687,-17.325347)"/>
<path style="fill-rule:evenodd;fill:rgb(0%,57.254905%,0%);fill-opacity:1;stroke-width:2.5;stroke-linecap:butt;stroke-linejoin:miter;stroke:rgb(0%,0%,0%);stroke-opacity:1;stroke-miterlimit:4;" d="M 447.88734 904.99158 C 447.88094 891.680039 438.567395 880.909886 427.094267 880.910433 C 415.621139 880.910981 406.298054 891.687823 406.304454 904.999364 C 406.310854 918.310905 415.628318 929.1052 427.101446 929.104653 C 438.574575 929.104105 447.893741 918.303121 447.88734 904.99158 Z M 447.88734 904.99158 " transform="matrix(0.0779669,0.00613613,-0.0126558,0.160807,150.306409,-7.073927)"/>
<path style="fill-rule:evenodd;fill:rgb(0%,57.254905%,0%);fill-opacity:1;stroke-width:2.5;stroke-linecap:butt;stroke-linejoin:miter;stroke:rgb(0%,0%,0%);stroke-opacity:1;stroke-miterlimit:4;" d="M 447.914817 905.000897 C 447.908417 891.689356 438.590953 880.89506 427.117825 880.895608 C 415.594904 880.898056 406.325531 891.697139 406.282138 905.010581 C 406.288538 918.322122 415.602083 929.092275 427.075211 929.091727 C 438.598133 929.089279 447.921217 918.312438 447.914817 905.000897 Z M 447.914817 905.000897 " transform="matrix(0.0779669,0.00613613,-0.0126558,0.160807,148.38251,-8.794344)"/>
<path style="fill-rule:evenodd;fill:rgb(0%,57.254905%,0%);fill-opacity:1;stroke-width:2.5;stroke-linecap:butt;stroke-linejoin:miter;stroke:rgb(0%,0%,0%);stroke-opacity:1;stroke-miterlimit:4;" d="M 447.891847 905.011841 C 447.885447 891.7003 438.567983 880.906004 427.094855 880.906552 C 415.621726 880.9071 406.298642 891.683941 406.305042 904.995483 C 406.311442 918.307024 415.628906 929.101319 427.102034 929.100771 C 438.575162 929.100224 447.894328 918.29924 447.891847 905.011841 Z M 447.891847 905.011841 " transform="matrix(0.0779669,0.00613613,-0.0126558,0.160807,146.021158,-11.186588)"/>
<path style="fill-rule:evenodd;fill:rgb(0%,57.254905%,0%);fill-opacity:1;stroke-width:2.5;stroke-linecap:butt;stroke-linejoin:miter;stroke:rgb(0%,0%,0%);stroke-opacity:1;stroke-miterlimit:4;" d="M 447.90164 904.996388 C 447.89524 891.684847 438.577776 880.890552 427.104648 880.8911 C 415.631519 880.891647 406.312353 891.692631 406.318753 905.004172 C 406.325154 918.315713 415.592824 929.111909 427.115746 929.109461 C 438.588874 929.108913 447.90804 918.307929 447.90164 904.996388 Z M 447.90164 904.996388 " transform="matrix(0.0779669,0.00613613,-0.0126558,0.160807,143.692074,-12.742757)"/>
<path style="fill-rule:evenodd;fill:rgb(78.823531%,0%,0%);fill-opacity:1;stroke-width:1.25;stroke-linecap:butt;stroke-linejoin:miter;stroke:rgb(0%,0%,0%);stroke-opacity:1;stroke-miterlimit:4;" d="M 682.710046 606.130074 C 682.692671 503.085924 656.607337 419.609391 624.38939 419.615182 C 592.188815 419.574645 566.103485 503.120669 566.0948 606.101119 C 566.086116 709.081568 592.197509 792.621801 624.415457 792.61601 C 656.589972 792.592846 682.701362 709.110523 682.710046 606.130074 Z M 682.710046 606.130074 " transform="matrix(0.078208,-0.029328,0.029328,0.07332,102.728472,98.041999)"/>
<path style="fill-rule:evenodd;fill:rgb(0%,57.254905%,0%);fill-opacity:1;stroke-width:1.5;stroke-linecap:butt;stroke-linejoin:miter;stroke:rgb(0%,0%,0%);stroke-opacity:1;stroke-miterlimit:4;" d="M 228.898232 356.811761 C 228.904665 349.671442 224.073383 343.895907 218.098896 343.901742 C 212.144384 343.907111 207.304274 349.667951 207.297841 356.80827 C 207.291059 363.921955 212.142317 369.697026 218.096828 369.691656 C 224.071664 369.712456 228.89145 363.925446 228.898232 356.811761 Z M 228.898232 356.811761 " transform="matrix(0.19549,0.00341229,-0.00255922,0.146618,124.833764,57.849337)"/>
<path style="fill-rule:evenodd;fill:rgb(0%,57.254905%,0%);fill-opacity:1;stroke-width:1.6;stroke-linecap:butt;stroke-linejoin:miter;stroke:rgb(0%,0%,0%);stroke-opacity:1;stroke-miterlimit:4;" d="M 228.909794 356.797579 C 228.894716 349.684359 224.058132 343.894877 218.098063 343.909679 C 212.137595 343.897848 207.29132 349.671375 207.306798 356.811229 C 207.299047 363.924914 212.135232 369.687762 218.0957 369.699594 C 224.056168 369.711425 228.902044 363.911264 228.909794 356.797579 Z M 228.909794 356.797579 " transform="matrix(0.171054,0.00298576,-0.00255922,0.146618,130.84314,55.265421)"/>
<path style="fill-rule:evenodd;fill:rgb(0%,57.254905%,0%);fill-opacity:1;stroke-width:1.6;stroke-linecap:butt;stroke-linejoin:miter;stroke:rgb(0%,0%,0%);stroke-opacity:1;stroke-miterlimit:4;" d="M 228.900644 356.807254 C 228.907996 349.666935 224.071811 343.904087 218.088514 343.89272 C 212.128444 343.907522 207.304999 349.680584 207.297249 356.794269 C 207.289897 363.934589 212.126081 369.697437 218.109379 369.708804 C 224.069449 369.694001 228.892893 363.920939 228.900644 356.807254 Z M 228.900644 356.807254 " transform="matrix(0.171054,0.00298576,-0.00255922,0.146618,128.301762,55.221061)"/>
<path style="fill-rule:evenodd;fill:rgb(0%,57.254905%,0%);fill-opacity:1;stroke-width:1.6;stroke-linecap:butt;stroke-linejoin:miter;stroke:rgb(0%,0%,0%);stroke-opacity:1;stroke-miterlimit:4;" d="M 228.902662 356.804904 C 228.898199 349.670762 224.072201 343.895264 218.10999 343.889866 C 212.12656 343.914578 207.296404 349.684229 207.300491 356.788778 C 207.304954 363.92292 212.130952 369.698419 218.093163 369.703817 C 224.055374 369.709215 228.907125 363.939047 228.902662 356.804904 Z M 228.902662 356.804904 " transform="matrix(0.180828,0.00315637,-0.0023033,0.131956,127.058621,56.421548)"/>
<path style="fill-rule:evenodd;fill:rgb(0%,57.254905%,0%);fill-opacity:1;stroke-width:1.6;stroke-linecap:butt;stroke-linejoin:miter;stroke:rgb(0%,0%,0%);stroke-opacity:1;stroke-miterlimit:4;" d="M 228.896859 356.808115 C 228.892395 349.673972 224.066398 343.898474 218.104186 343.893076 C 212.141975 343.887678 207.290601 349.687439 207.294687 356.791988 C 207.29915 363.92613 212.125148 369.701629 218.108955 369.70651 C 224.071166 369.711908 228.900945 363.912663 228.896859 356.808115 Z M 228.896859 356.808115 " transform="matrix(0.180828,0.00315637,-0.0023033,0.131956,126.852647,54.218018)"/>
<path style="fill-rule:evenodd;fill:rgb(0%,57.254905%,0%);fill-opacity:1;stroke-width:1.6;stroke-linecap:butt;stroke-linejoin:miter;stroke:rgb(0%,0%,0%);stroke-opacity:1;stroke-miterlimit:4;" d="M 228.910701 356.786753 C 228.895622 349.673532 224.059438 343.910684 218.09897 343.898853 C 212.138501 343.887021 207.292626 349.687182 207.307705 356.800402 C 207.299954 363.914087 212.136537 369.70357 218.096607 369.688767 C 224.057075 369.700599 228.903349 363.927072 228.910701 356.786753 Z M 228.910701 356.786753 " transform="matrix(0.171054,0.00298576,-0.00255922,0.146618,125.88202,53.809975)"/>
<path style="fill-rule:evenodd;fill:rgb(0%,57.254905%,0%);fill-opacity:1;stroke-width:1.6;stroke-linecap:butt;stroke-linejoin:miter;stroke:rgb(0%,0%,0%);stroke-opacity:1;stroke-miterlimit:4;" d="M 228.905537 356.790454 C 228.890458 349.677234 224.053875 343.887751 218.093805 343.902554 C 212.133337 343.890722 207.309892 349.663784 207.30254 356.804104 C 207.29479 363.917789 212.131373 369.707271 218.091442 369.692468 C 224.07474 369.703835 228.898185 363.930773 228.905537 356.790454 Z M 228.905537 356.790454 " transform="matrix(0.171054,0.00298576,-0.00255922,0.146618,126.394632,52.450072)"/>
<path style="fill-rule:evenodd;fill:rgb(0%,57.254905%,0%);fill-opacity:1;stroke-width:1.5;stroke-linecap:butt;stroke-linejoin:miter;stroke:rgb(0%,0%,0%);stroke-opacity:1;stroke-miterlimit:4;" d="M 228.897902 356.788372 C 228.904684 349.674687 224.073402 343.899151 218.098915 343.904986 C 212.144403 343.910356 207.304293 349.671196 207.29786 356.811515 C 207.291078 363.9252 212.142336 369.70027 218.096847 369.6949 C 224.071335 369.689066 228.891469 363.928691 228.897902 356.788372 Z M 228.897902 356.788372 " transform="matrix(0.19549,0.00341229,-0.00255922,0.146618,118.982206,51.39183)"/>
<path style="fill-rule:evenodd;fill:rgb(0%,57.254905%,0%);fill-opacity:1;stroke-width:1.6;stroke-linecap:butt;stroke-linejoin:miter;stroke:rgb(0%,0%,0%);stroke-opacity:1;stroke-miterlimit:4;" d="M 228.903862 356.79839 C 228.899399 349.664248 224.073401 343.888749 218.089971 343.913462 C 212.12776 343.908064 207.297604 349.677715 207.302068 356.811857 C 207.306154 363.916406 212.132152 369.691904 218.094363 369.697302 C 224.056574 369.7027 228.908325 363.932532 228.903862 356.79839 Z M 228.903862 356.79839 " transform="matrix(0.180828,0.00315637,-0.0023033,0.131956,125.433389,51.504435)"/>
<path style="fill-rule:evenodd;fill:rgb(0%,57.254905%,0%);fill-opacity:1;stroke-width:1.6;stroke-linecap:butt;stroke-linejoin:miter;stroke:rgb(0%,0%,0%);stroke-opacity:1;stroke-miterlimit:4;" d="M 228.897233 356.788281 C 228.904983 349.674596 224.068799 343.911748 218.108331 343.899916 C 212.125033 343.888549 207.301987 349.688246 207.294236 356.801931 C 207.309315 363.915151 212.145898 369.704633 218.105968 369.68983 C 224.066436 369.701662 228.889881 363.9286 228.897233 356.788281 Z M 228.897233 356.788281 " transform="matrix(0.171054,0.00298576,-0.00255922,0.146618,124.583547,49.778541)"/>
<path style="fill-rule:evenodd;fill:rgb(0%,57.254905%,0%);fill-opacity:1;stroke-width:1.6;stroke-linecap:butt;stroke-linejoin:miter;stroke:rgb(0%,0%,0%);stroke-opacity:1;stroke-miterlimit:4;" d="M 228.89096 356.795249 C 228.89871 349.681564 224.062127 343.892082 218.102058 343.906885 C 212.141589 343.895053 207.295315 349.66858 207.310793 356.808434 C 207.303042 363.922119 212.139625 369.711602 218.099695 369.696799 C 224.060163 369.708631 228.906437 363.935104 228.89096 356.795249 Z M 228.89096 356.795249 " transform="matrix(0.171054,0.00298576,-0.00255922,0.146618,120.59245,51.5666)"/>
<path style="fill-rule:evenodd;fill:rgb(0%,57.254905%,0%);fill-opacity:1;stroke-width:1.6;stroke-linecap:butt;stroke-linejoin:miter;stroke:rgb(0%,0%,0%);stroke-opacity:1;stroke-miterlimit:4;" d="M 228.90969 356.787947 C 228.894611 349.674727 224.058426 343.911879 218.097958 343.900047 C 212.13749 343.888216 207.291614 349.688377 207.306693 356.801597 C 207.298943 363.915282 212.135526 369.704764 218.095595 369.689962 C 224.056064 369.701793 228.902338 363.928266 228.90969 356.787947 Z M 228.90969 356.787947 " transform="matrix(0.171054,0.00298576,-0.00255922,0.146618,121.233759,51.235584)"/>
<path style="fill-rule:evenodd;fill:rgb(0%,57.254905%,0%);fill-opacity:1;stroke-width:1.6;stroke-linecap:butt;stroke-linejoin:miter;stroke:rgb(0%,0%,0%);stroke-opacity:1;stroke-miterlimit:4;" d="M 228.910912 356.797491 C 228.895833 349.684271 224.05925 343.894788 218.09918 343.909591 C 212.138712 343.897759 207.292438 349.671286 207.307915 356.811141 C 207.300165 363.924826 212.136349 369.687674 218.096817 369.699505 C 224.057285 369.711337 228.903161 363.911176 228.910912 356.797491 Z M 228.910912 356.797491 " transform="matrix(0.171054,0.00298576,-0.00255922,0.146618,122.042168,49.734181)"/>
<path style="fill-rule:evenodd;fill:rgb(0%,57.254905%,0%);fill-opacity:1;stroke-width:2.5;stroke-linecap:butt;stroke-linejoin:miter;stroke:rgb(0%,0%,0%);stroke-opacity:1;stroke-miterlimit:4;" d="M 596.095104 564.486761 C 596.0793 450.946756 565.927977 358.889375 528.682517 358.906014 C 491.492242 358.895754 461.300429 450.950638 461.316233 564.490643 C 461.276853 678.057548 491.48336 770.088029 528.713845 770.112155 C 565.919095 770.08165 596.095934 678.067531 596.095104 564.486761 Z M 596.095104 564.486761 " transform="matrix(0.0862243,-0.029328,0.0316742,0.0850512,106.22632,94.659502)"/>
<path style="fill-rule:evenodd;fill:rgb(0%,57.254905%,0%);fill-opacity:1;stroke-width:2.5;stroke-linecap:butt;stroke-linejoin:miter;stroke:rgb(0%,0%,0%);stroke-opacity:1;stroke-miterlimit:4;" d="M 542.006596 646.104457 C 541.996114 623.547041 536.055674 605.302566 528.70387 605.299458 C 521.352067 605.29635 515.380621 623.567159 515.406972 646.087905 C 515.417453 668.645321 521.357893 686.889796 528.709697 686.892904 C 536.061501 686.896012 541.976332 668.644242 542.006596 646.104457 Z M 542.006596 646.104457 " transform="matrix(0.0807477,-0.0388252,0.0349427,0.0897197,109.321656,92.739272)"/>
<path style="fill-rule:evenodd;fill:rgb(0%,57.254905%,0%);fill-opacity:1;stroke-width:1.5;stroke-linecap:butt;stroke-linejoin:miter;stroke:rgb(0%,0%,0%);stroke-opacity:1;stroke-miterlimit:4;" d="M 139.887522 644.009556 C 139.893874 701.713446 121.099851 730.21331 105.295881 754.291502 C 112.810849 721.801067 118.296473 701.691978 118.30985 643.995779 C 118.303498 586.291889 147.801756 558.71408 158.609151 542.000211 C 154.39263 558.709866 139.900899 586.313357 139.887522 644.009556 Z M 139.887522 644.009556 " transform="matrix(0.16541,-0.0449696,0.0835848,0.115357,96.856026,61.968559)"/>
<path style="fill-rule:evenodd;fill:rgb(0%,57.254905%,0%);fill-opacity:1;stroke-width:1.5;stroke-linecap:butt;stroke-linejoin:miter;stroke:rgb(0%,0%,0%);stroke-opacity:1;stroke-miterlimit:4;" d="M 139.896825 643.99848 C 139.903177 701.70237 121.109154 730.202233 105.290889 754.308715 C 112.786127 721.810589 118.291481 701.709191 118.304858 644.012992 C 118.298506 586.309102 147.791329 558.695312 158.584429 542.009733 C 154.401932 558.698789 139.910202 586.30228 139.896825 643.99848 Z M 139.896825 643.99848 " transform="matrix(0.16541,-0.0449696,0.0835848,0.115357,97.199163,67.247599)"/>
<path style="fill-rule:evenodd;fill:rgb(0%,57.254905%,0%);fill-opacity:1;stroke-width:1.5;stroke-linecap:butt;stroke-linejoin:miter;stroke:rgb(0%,0%,0%);stroke-opacity:1;stroke-miterlimit:4;" d="M 139.89427 643.988594 C 139.902449 701.689446 121.092274 730.197885 105.307565 754.292341 C 112.792495 721.79793 118.287794 701.707694 118.298981 644.015191 C 118.305528 586.28624 147.793856 558.694714 158.60868 541.999654 C 154.400121 558.68321 139.905458 586.29609 139.89427 643.988594 Z M 139.89427 643.988594 " transform="matrix(0.16453,-0.04888,0.0862243,0.113402,96.00258,73.289167)"/>
<path style="fill-rule:evenodd;fill:rgb(0%,57.254905%,0%);fill-opacity:1;stroke-width:1.4;stroke-linecap:butt;stroke-linejoin:miter;stroke:rgb(0%,0%,0%);stroke-opacity:1;stroke-miterlimit:4;" d="M 542.00679 646.105768 C 541.991817 623.565083 536.045713 605.303406 528.700519 605.290493 C 521.34667 605.299834 515.404276 623.561237 515.396721 646.096427 C 515.389165 668.631617 521.357797 686.898789 528.702991 686.911702 C 536.034311 686.896866 541.999234 668.640958 542.00679 646.105768 Z M 542.00679 646.105768 " transform="matrix(0.158371,-0.039104,0.0615888,0.160326,47.29464,41.3412)"/>
<path style="fill-rule:evenodd;fill:rgb(0%,57.254905%,0%);fill-opacity:1;stroke-width:1.6;stroke-linecap:butt;stroke-linejoin:miter;stroke:rgb(0%,0%,0%);stroke-opacity:1;stroke-miterlimit:4;" d="M 541.992088 646.098385 C 541.991057 623.57399 536.032231 605.303041 528.706938 605.298152 C 521.355863 605.288871 515.40735 623.573437 515.408381 646.097831 C 515.409412 668.622225 521.368237 686.893174 528.69353 686.898063 C 536.044606 686.907345 541.993119 668.622779 541.992088 646.098385 Z M 541.992088 646.098385 " transform="matrix(0.143414,-0.0224848,0.0475114,0.131976,62.78862,53.971791)"/>
<path style="fill-rule:evenodd;fill:rgb(0%,57.254905%,0%);fill-opacity:1;stroke-width:1.6;stroke-linecap:butt;stroke-linejoin:miter;stroke:rgb(0%,0%,0%);stroke-opacity:1;stroke-miterlimit:4;" d="M 541.991993 646.109477 C 541.986435 623.573777 536.041248 605.306199 528.685457 605.311545 C 521.364352 605.292612 515.403067 623.572072 515.408625 646.107772 C 515.38812 668.639639 521.35937 686.91105 528.689098 686.901871 C 536.044888 686.896525 541.99755 668.645177 541.991993 646.109477 Z M 541.991993 646.109477 " transform="matrix(0.143414,-0.019552,0.043992,0.132954,61.812,53.971791)"/>
<path style="fill-rule:evenodd;fill:rgb(0%,57.254905%,0%);fill-opacity:1;stroke-width:2.1;stroke-linecap:butt;stroke-linejoin:miter;stroke:rgb(0%,0%,0%);stroke-opacity:1;stroke-miterlimit:4;" d="M 541.99623 646.08878 C 542.014447 623.556365 536.046644 605.300931 528.700678 605.310167 C 521.354712 605.319403 515.41242 623.550314 515.394202 646.082728 C 515.407833 668.621513 521.362164 686.91421 528.70813 686.904974 C 536.054096 686.895738 542.009861 668.627564 541.99623 646.08878 Z M 541.99623 646.08878 " transform="matrix(0.114379,-0.019552,0.0413525,0.09776,81.133284,67.599535)"/>
<path style="fill-rule:evenodd;fill:rgb(0%,57.254905%,0%);fill-opacity:1;stroke-width:2.1;stroke-linecap:butt;stroke-linejoin:miter;stroke:rgb(0%,0%,0%);stroke-opacity:1;stroke-miterlimit:4;" d="M 542.004135 646.103669 C 542.006322 623.564783 536.044741 605.316374 528.710869 605.282996 C 521.365757 605.286993 515.39637 623.581301 515.405424 646.082812 C 515.403238 668.621699 521.353578 686.907482 528.69869 686.903486 C 536.043803 686.899489 542.001949 668.642556 542.004135 646.103669 Z M 542.004135 646.103669 " transform="matrix(0.117019,-0.0127088,0.0351936,0.100693,82.285872,64.138831)"/>
<path style="fill-rule:evenodd;fill:rgb(0%,57.254905%,0%);fill-opacity:1;stroke-width:2.1;stroke-linecap:butt;stroke-linejoin:miter;stroke:rgb(0%,0%,0%);stroke-opacity:1;stroke-miterlimit:4;" d="M 145.688912 569.48703 C 145.716064 603.496317 138.995776 631.090974 130.714182 631.103506 C 122.396343 631.10068 115.708001 603.513272 115.680849 569.503986 " transform="matrix(0.0906235,-0.04888,0.0404726,0.115357,128.978983,61.528639)"/>
<path style="fill-rule:evenodd;fill:rgb(0%,57.254905%,0%);fill-opacity:1;stroke-width:2.1;stroke-linecap:butt;stroke-linejoin:miter;stroke:rgb(0%,0%,0%);stroke-opacity:1;stroke-miterlimit:4;" d="M 542.002676 646.112706 C 542.004862 623.57382 536.054522 605.288036 528.70941 605.292033 C 521.364298 605.29603 515.406151 623.552963 515.403965 646.091849 C 515.401779 668.630736 521.352119 686.916519 528.697231 686.912523 C 536.042343 686.908526 542.00049 668.651593 542.002676 646.112706 Z M 542.002676 646.112706 " transform="matrix(0.117019,-0.0127088,0.0351936,0.100693,82.1451,59.583215)"/>
<path style="fill-rule:evenodd;fill:rgb(0%,57.254905%,0%);fill-opacity:1;stroke-width:2.1;stroke-linecap:butt;stroke-linejoin:miter;stroke:rgb(0%,0%,0%);stroke-opacity:1;stroke-miterlimit:4;" d="M 541.991321 646.112303 C 541.992383 623.559441 536.055669 605.31507 528.715811 605.300888 C 521.343464 605.283581 515.382945 623.575029 515.392567 646.090498 C 515.391504 668.64336 521.360707 686.890854 528.700565 686.905037 C 536.051107 686.881826 542.000942 668.627771 541.991321 646.112303 Z M 541.991321 646.112303 " transform="matrix(0.117019,-0.009776,0.0334339,0.10167,80.869332,59.025984)"/>
<path style="fill-rule:evenodd;fill:rgb(0%,57.254905%,0%);fill-opacity:1;stroke-width:2.9;stroke-linecap:butt;stroke-linejoin:miter;stroke:rgb(0%,0%,0%);stroke-opacity:1;stroke-miterlimit:4;" d="M 145.679021 569.49618 C 145.706525 603.526203 138.975869 631.08846 130.678855 631.108764 C 122.406277 631.093477 115.715167 603.487603 115.710446 569.520912 " transform="matrix(0.0589493,-0.0459472,0.0404726,0.078208,131.328156,76.955167)"/>
<path style="fill-rule:evenodd;fill:rgb(0%,57.254905%,0%);fill-opacity:1;stroke-width:2.9;stroke-linecap:butt;stroke-linejoin:miter;stroke:rgb(0%,0%,0%);stroke-opacity:1;stroke-miterlimit:4;" d="M 145.714008 569.514977 C 145.694294 603.517259 139.010857 631.107256 130.713843 631.127561 C 122.394046 631.084533 115.702936 603.478658 115.698215 569.511967 " transform="matrix(0.0589493,-0.0459472,0.0404726,0.078208,132.34877,75.244367)"/>
<path style="fill-rule:evenodd;fill:rgb(0%,57.254905%,0%);fill-opacity:1;stroke-width:2.1;stroke-linecap:butt;stroke-linejoin:miter;stroke:rgb(0%,0%,0%);stroke-opacity:1;stroke-miterlimit:4;" d="M 145.687143 569.505432 C 145.682961 603.50324 138.984864 631.09998 130.708567 631.115911 C 122.39844 631.112159 115.697883 603.4934 115.702066 569.495591 " transform="matrix(0.082705,-0.0625664,0.0563098,0.107536,124.315831,61.900127)"/>
<path style="fill-rule:evenodd;fill:rgb(0%,57.254905%,0%);fill-opacity:1;stroke-width:2.7;stroke-linecap:butt;stroke-linejoin:miter;stroke:rgb(0%,0%,0%);stroke-opacity:1;stroke-miterlimit:4;" d="M 145.716132 569.495638 C 145.698668 603.494642 139.006399 631.097503 130.718765 631.104146 C 122.38399 631.082933 115.672974 603.506053 115.690438 569.507049 " transform="matrix(0.0589493,-0.0508352,0.0404726,0.0860288,133.88849,69.906671)"/>
<path style="fill-rule:evenodd;fill:rgb(50.196081%,29.411766%,100%);fill-opacity:1;stroke-width:2.5;stroke-linecap:butt;stroke-linejoin:miter;stroke:rgb(0%,0%,0%);stroke-opacity:1;stroke-miterlimit:4;" d="M 276.295126 345.413093 C 264.008179 354.603329 276.694701 370.58635 288.282391 376.107757 C 301.318543 383.808667 374.890384 434.300481 424.587589 388.095022 C 383.78094 388.894173 305.913661 324.889442 276.295126 345.413093 Z M 276.295126 345.413093 " transform="matrix(0.078208,0,0,0.107536,145.938387,64.168159)"/>
<path style="fill-rule:evenodd;fill:rgb(50.196081%,29.411766%,100%);fill-opacity:1;stroke-width:2.5;stroke-linecap:butt;stroke-linejoin:miter;stroke:rgb(0%,0%,0%);stroke-opacity:1;stroke-miterlimit:4;" d="M 276.304374 345.387038 C 264.017426 354.6136 276.703949 370.59662 288.291639 376.118027 C 301.277843 383.782612 374.899632 434.310751 424.596837 388.105292 C 383.790187 388.904443 305.922909 324.899712 276.304374 345.387038 Z M 276.304374 345.387038 " transform="matrix(0.078208,0,0,0.107536,145.25407,61.284242)"/>
<path style="fill-rule:evenodd;fill:rgb(50.196081%,29.411766%,100%);fill-opacity:1;stroke-width:2.5;stroke-linecap:butt;stroke-linejoin:miter;stroke:rgb(0%,0%,0%);stroke-opacity:1;stroke-miterlimit:4;" d="M 276.316427 345.414079 C 263.979533 354.604315 276.716002 370.587336 288.303692 376.108743 C 301.289897 383.809653 374.911685 434.301467 424.60889 388.096008 C 383.802241 388.895159 305.885015 324.890428 276.316427 345.414079 Z M 276.316427 345.414079 " transform="matrix(0.078208,0,0,0.107536,144.374221,58.54696)"/>
<path style="fill-rule:evenodd;fill:rgb(50.196081%,29.411766%,100%);fill-opacity:1;stroke-width:2.5;stroke-linecap:butt;stroke-linejoin:miter;stroke:rgb(0%,0%,0%);stroke-opacity:1;stroke-miterlimit:4;" d="M 276.317283 345.408598 C 263.980389 354.598835 276.716858 370.581855 288.304548 376.103262 C 301.290753 383.804172 374.912541 434.295986 424.609746 388.090528 C 383.803096 388.889679 305.885871 324.884947 276.317283 345.408598 Z M 276.317283 345.408598 " transform="matrix(0.078208,0,0,0.107536,142.467904,55.418643)"/>
<path style="fill-rule:evenodd;fill:rgb(50.196081%,29.411766%,100%);fill-opacity:1;stroke-width:2.5;stroke-linecap:butt;stroke-linejoin:miter;stroke:rgb(0%,0%,0%);stroke-opacity:1;stroke-miterlimit:4;" d="M 211.219264 247.282012 C 232.89213 235.30644 267.786636 237.488986 290.915785 258.5078 C 310.28624 275.497881 336.200636 333.712223 361.204005 351.309025 C 345.646641 352.101677 330.481223 346.610115 318.992713 336.116061 C 290.207225 351.605213 280.884197 352.816654 254.999003 351.789782 C 219.203152 350.397476 192.580162 334.108777 187.016795 311.200255 C 180.711306 289.423441 191.788725 258.693831 211.219264 247.282012 Z M 211.219264 247.282012 " transform="matrix(0.0980863,-0.0178429,0.0229007,0.0883971,128.963084,73.085518)"/>
<path style="fill-rule:evenodd;fill:rgb(100%,0%,0%);fill-opacity:1;stroke-width:2.5;stroke-linecap:butt;stroke-linejoin:miter;stroke:rgb(0%,0%,0%);stroke-opacity:1;stroke-miterlimit:4;" d="M 301.400793 323.019113 C 301.389401 314.719355 295.030009 307.985299 287.197291 308.002293 C 279.364572 308.019287 272.998954 314.688629 273.010346 322.988387 C 272.989777 331.289218 279.349169 338.023275 287.213849 338.005208 C 295.046567 337.988213 301.411627 331.257408 301.400793 323.019113 Z M 301.400793 323.019113 " transform="matrix(0.122181,0.00213268,-0.001109,0.0635343,126.04438,72.252377)"/>
<path style="fill-rule:evenodd;fill:rgb(100%,100%,0%);fill-opacity:1;stroke-width:2.5;stroke-linecap:butt;stroke-linejoin:miter;stroke:rgb(0%,0%,0%);stroke-opacity:1;stroke-miterlimit:4;" d="M 227.89344 348.274721 C 227.914211 339.508062 217.458436 332.408603 204.601148 332.405142 C 191.74386 332.401681 181.322124 339.508314 181.287828 348.31561 C 181.301605 357.097706 191.722832 364.181728 204.614669 364.200626 C 217.471957 364.204087 227.893692 357.097454 227.89344 348.274721 Z M 227.89344 348.274721 " transform="matrix(0.0984276,-0.0373919,0.0327606,0.0836805,124.467921,75.744755)"/>
<path style=" stroke:none;fill-rule:evenodd;fill:rgb(0%,0%,0%);fill-opacity:1;" d="M 158.59375 96.421875 C 158.597656 96.109375 158.347656 95.851562 158.035156 95.847656 C 157.722656 95.839844 157.464844 96.089844 157.457031 96.402344 C 157.453125 96.714844 157.703125 96.976562 158.015625 96.980469 C 158.328125 96.984375 158.585938 96.738281 158.59375 96.421875 Z M 158.59375 96.421875 "/>
<path style="fill-rule:evenodd;fill:rgb(100%,100%,0%);fill-opacity:1;stroke-width:6.6;stroke-linecap:butt;stroke-linejoin:miter;stroke:rgb(0%,0%,0%);stroke-opacity:1;stroke-miterlimit:4;" d="M 516.772835 260.281132 C 521.18023 278.268514 510.1 303.287727 483.697751 312.855612 C 456.86769 326.129468 437.604878 354.724125 428.01887 400.891464 C 380.779808 297.716979 405.007578 252.628901 448.63957 240.586992 C 486.004266 226.184101 509.03723 227.180185 516.772835 260.281132 Z M 516.772835 260.281132 " transform="matrix(0.0488726,0.000853074,-0.000682459,0.039098,133.710685,83.972516)"/>
<path style=" stroke:none;fill-rule:evenodd;fill:rgb(0%,0%,0%);fill-opacity:1;" d="M 153.765625 98.488281 C 153.769531 98.238281 153.566406 98.027344 153.3125 98.023438 C 153.058594 98.019531 152.851562 98.21875 152.847656 98.472656 C 152.84375 98.726562 153.042969 98.9375 153.296875 98.941406 C 153.550781 98.945312 153.761719 98.742188 153.765625 98.488281 Z M 153.765625 98.488281 "/>
</g>
</svg>
