<?xml version="1.0" encoding="UTF-8"?>
<svg xmlns="http://www.w3.org/2000/svg" xmlns:xlink="http://www.w3.org/1999/xlink" width="px" height="px" viewBox="0 0 320 240" version="1.1">
<g id="surface1">
<rect x="0" y="0" width="320" height="240" style="fill:rgb(100%,90.980393%,0%);fill-opacity:1;stroke:none;"/>
<path style=" stroke:none;fill-rule:evenodd;fill:rgb(0%,7.843138%,55.686277%);fill-opacity:1;" d="M 0 120 L 320 120 L 320 240 L 0 240 Z M 0 120 "/>
<path style=" stroke:none;fill-rule:evenodd;fill:rgb(85.490197%,0%,6.27451%);fill-opacity:1;" d="M 0 180 L 320 180 L 320 240 L 0 240 Z M 0 180 "/>
<path style=" stroke:none;fill-rule:evenodd;fill:rgb(0%,0%,0%);fill-opacity:1;" d="M 134.800781 145.398438 L 98.5 183.648438 L 97.898438 182.851562 L 134.101562 144.601562 L 134.699219 145.398438 Z M 160 151.648438 L 112.601562 201.648438 L 111.800781 200.851562 L 159.148438 150.851562 Z M 160 151.648438 "/>
<path style="fill-rule:evenodd;fill:rgb(50.196081%,50.196081%,50.196081%);fill-opacity:1;stroke-width:4.1;stroke-linecap:butt;stroke-linejoin:miter;stroke:rgb(0%,0%,0%);stroke-opacity:1;stroke-miterlimit:4;" d="M 478.392899 60.203094 L 478.392899 148.796842 L 496.138434 237.390591 L 513.772363 148.796842 L 513.772363 60.203094 Z M 478.392899 60.203094 " transform="matrix(-0.035,-0.035,-0.05,0.05,132.5,214.800003)"/>
<path style="fill-rule:evenodd;fill:rgb(50.196081%,50.196081%,50.196081%);fill-opacity:1;stroke-width:4.1;stroke-linecap:butt;stroke-linejoin:miter;stroke:rgb(0%,0%,0%);stroke-opacity:1;stroke-miterlimit:4;" d="M 478.392899 60.18753 L 478.392899 148.781278 L 496.082631 237.414089 L 513.772363 148.781278 L 513.772363 60.18753 Z M 478.392899 60.18753 " transform="matrix(-0.035,-0.035,-0.05,0.05,120.300003,195.25)"/>
<path style="fill-rule:evenodd;fill:rgb(100%,87.450981%,0%);fill-opacity:1;stroke-width:1.25;stroke-linecap:butt;stroke-linejoin:miter;stroke:rgb(0%,0%,0%);stroke-opacity:1;stroke-miterlimit:4;" d="M 301.194449 272.795415 C 301.194449 272.795415 283.503476 609.404309 354.302089 609.404309 C 425.100702 609.404309 460.604175 574.003918 460.604175 574.003918 L 459.805564 388.994148 Z M 301.194449 272.795415 " transform="matrix(0.225,0,0,0.32,36.200001,-29.9)"/>
<path style="fill-rule:evenodd;fill:rgb(0%,0%,76.862746%);fill-opacity:1;stroke-width:1.25;stroke-linecap:butt;stroke-linejoin:miter;stroke:rgb(0%,0%,0%);stroke-opacity:1;stroke-miterlimit:4;" d="M 344.493061 304.204107 C 344.493061 321.904303 336.593756 574.003918 371.993062 574.003918 C 407.392369 574.003918 460.604175 556.303722 460.604175 556.303722 L 459.805564 388.994148 Z M 344.493061 304.204107 " transform="matrix(0.225,0,0,0.32,36.200001,-29.9)"/>
<path style="fill-rule:evenodd;fill:rgb(88.235295%,0%,0%);fill-opacity:1;stroke-width:1.25;stroke-linecap:butt;stroke-linejoin:miter;stroke:rgb(0%,0%,0%);stroke-opacity:1;stroke-miterlimit:4;" d="M 367.496534 321.196295 C 367.496534 338.896491 371.993062 538.603526 407.496535 538.603526 L 460.604175 538.603526 L 459.805564 388.994148 Z M 367.496534 321.196295 " transform="matrix(0.225,0,0,0.32,36.200001,-29.9)"/>
<path style=" stroke:none;fill-rule:evenodd;fill:rgb(0%,0%,0%);fill-opacity:1;" d="M 103.101562 58 L 139.300781 96.25 L 139.949219 95.449219 L 103.75 57.199219 Z M 103.101562 58 "/>
<path style="fill-rule:evenodd;fill:rgb(100%,87.450981%,0%);fill-opacity:1;stroke-width:1.25;stroke-linecap:butt;stroke-linejoin:miter;stroke:rgb(0%,0%,0%);stroke-opacity:1;stroke-miterlimit:4;" d="M 301.201517 272.802417 C 301.201517 272.802417 265.802809 609.395156 371.998932 609.395156 C 460.495702 609.395156 460.495702 556.295358 478.195056 556.295358 L 460.495702 432.303424 Z M 301.201517 272.802417 " transform="matrix(0.29,0,0,0.31,4.8,-5.1)"/>
<path style="fill:none;stroke-width:2.3;stroke-linecap:butt;stroke-linejoin:miter;stroke:rgb(0%,0%,0%);stroke-opacity:1;stroke-miterlimit:4;" d="M 269.599487 155.202297 C 270.693801 155.20681 297.907812 61.200152 388.6005 7.991667 " transform="matrix(0.2,-0.015,-0.025,0.175,67.550003,73.699997)"/>
<path style="fill-rule:evenodd;fill:rgb(0%,35.686275%,0%);fill-opacity:1;stroke-width:1.25;stroke-linecap:butt;stroke-linejoin:miter;stroke:rgb(0%,0%,0%);stroke-opacity:1;stroke-miterlimit:4;" d="M 421.392368 -20.300793 C 421.401494 -2.206094 416.810737 11.394592 409.983926 24.997103 C 404.398354 6.900579 400.994076 -2.187841 401.01233 -20.295317 C 401.003203 -38.390015 407.798983 -55.389504 413.413762 -68.999316 C 415.693624 -56.599711 421.386892 -38.501362 421.392368 -20.300793 Z M 421.392368 -20.300793 " transform="matrix(0.07,-0.11,0.15,0.07,87.949997,128.699997)"/>
<path style="fill-rule:evenodd;fill:rgb(100%,0%,0%);fill-opacity:1;stroke-width:1.25;stroke-linecap:butt;stroke-linejoin:miter;stroke:rgb(0%,0%,0%);stroke-opacity:1;stroke-miterlimit:4;" d="M 454.212967 -169.286556 C 454.207194 -165.29179 450.401006 -161.878151 445.680793 -161.897394 C 440.993294 -161.897394 437.183257 -165.195577 437.214045 -169.313496 C 437.192878 -173.41602 441.000991 -176.598748 445.68849 -176.598748 C 450.408703 -176.579506 454.186027 -173.300565 454.212967 -169.286556 Z M 454.212967 -169.286556 " transform="matrix(0.09,-0.05,0.05,0.085,88.800003,128.350006)"/>
<path style="fill-rule:evenodd;fill:rgb(0%,35.686275%,0%);fill-opacity:1;stroke-width:1.25;stroke-linecap:butt;stroke-linejoin:miter;stroke:rgb(0%,0%,0%);stroke-opacity:1;stroke-miterlimit:4;" d="M 421.399362 -20.309996 C 421.411861 -2.203746 416.789986 11.408754 409.988944 25.008753 C 404.411861 6.890003 401.01707 -2.197496 401.004571 -20.303746 C 401.005613 -38.391246 407.816031 -55.403745 413.397281 -69.009995 C 415.721239 -56.597495 421.414988 -38.497495 421.399362 -20.309996 Z M 421.399362 -20.309996 " transform="matrix(0.09,0.06,-0.065,0.165,90.5,48.200001)"/>
<path style="fill-rule:evenodd;fill:rgb(0%,35.686275%,0%);fill-opacity:1;stroke-width:1.25;stroke-linecap:butt;stroke-linejoin:miter;stroke:rgb(0%,0%,0%);stroke-opacity:1;stroke-miterlimit:4;" d="M 421.400281 -20.294113 C 421.421511 -2.205062 416.789208 11.38897 409.999975 24.999987 C 404.416586 6.902444 401.019847 -2.189494 400.994371 -20.302604 C 401.019847 -38.387409 407.804834 -55.407902 413.400961 -69.009011 C 415.681022 -56.609498 421.404527 -38.499218 421.400281 -20.294113 Z M 421.400281 -20.294113 " transform="matrix(0.085,-0.015,-0.015,0.165,89.650002,79.650002)"/>
<path style="fill-rule:evenodd;fill:rgb(0%,35.686275%,0%);fill-opacity:1;stroke-width:1.25;stroke-linecap:butt;stroke-linejoin:miter;stroke:rgb(0%,0%,0%);stroke-opacity:1;stroke-miterlimit:4;" d="M 421.394784 -20.298167 C 421.381883 -2.196103 416.790426 11.394779 410.005736 24.99283 C 404.399371 6.883598 401.020644 -2.213305 400.980507 -20.288133 C 400.993408 -38.390197 407.779532 -55.388477 413.380163 -68.990827 C 415.683775 -56.596906 421.391917 -38.497709 421.394784 -20.298167 Z M 421.394784 -20.298167 " transform="matrix(0.03,0.125,-0.085,0.1,114,22.75)"/>
<path style="fill-rule:evenodd;fill:rgb(0%,35.686275%,0%);fill-opacity:1;stroke-width:1.25;stroke-linecap:butt;stroke-linejoin:miter;stroke:rgb(0%,0%,0%);stroke-opacity:1;stroke-miterlimit:4;" d="M 421.401264 -20.284098 C 421.394162 -2.191058 416.79544 11.392039 409.991462 24.992891 C 404.412628 6.899851 401.003537 -2.191058 400.989333 -20.301854 C 400.996435 -38.394894 407.811066 -55.404837 413.404106 -69.005689 C 415.69814 -56.612223 421.415469 -38.501428 421.401264 -20.284098 Z M 421.401264 -20.284098 " transform="matrix(0.1,-0.1,0.1,0.12,75.150002,120.5)"/>
<path style="fill-rule:evenodd;fill:rgb(0%,35.686275%,0%);fill-opacity:1;stroke-width:1.25;stroke-linecap:butt;stroke-linejoin:miter;stroke:rgb(0%,0%,0%);stroke-opacity:1;stroke-miterlimit:4;" d="M 421.412568 -20.305583 C 421.396786 -2.197944 416.796091 11.413167 409.997638 24.989556 C 404.39868 6.916639 401.013263 -2.197944 400.993534 -20.305583 C 400.989588 -38.39586 407.803824 -55.392388 413.398837 -69.003499 C 415.699184 -56.590305 421.384948 -38.500027 421.412568 -20.305583 Z M 421.412568 -20.305583 " transform="matrix(0.11,-0.11,0.125,0.1,67.800003,141.050003)"/>
<path style="fill-rule:evenodd;fill:rgb(0%,35.686275%,0%);fill-opacity:1;stroke-width:1.25;stroke-linecap:butt;stroke-linejoin:miter;stroke:rgb(0%,0%,0%);stroke-opacity:1;stroke-miterlimit:4;" d="M 421.392934 -20.298566 C 421.395962 -2.208692 416.814446 11.40565 410.001219 25.009393 C 404.40226 6.910434 400.995647 -2.205663 400.992618 -20.295538 C 401.013814 -38.392982 407.790704 -55.403339 413.407831 -68.999511 C 415.700103 -56.605495 421.402017 -38.489882 421.392934 -20.298566 Z M 421.392934 -20.298566 " transform="matrix(0.13,0.05,-0.1,0.16,65.400002,73.849998)"/>
<path style="fill-rule:evenodd;fill:rgb(0%,35.686275%,0%);fill-opacity:1;stroke-width:1.25;stroke-linecap:butt;stroke-linejoin:miter;stroke:rgb(0%,0%,0%);stroke-opacity:1;stroke-miterlimit:4;" d="M 421.403975 -20.289145 C 421.392699 -2.20361 416.819568 11.399805 409.989671 24.995166 C 404.393666 6.893523 400.993215 -2.195556 400.996437 -20.30928 C 401.007713 -38.394815 407.800561 -55.401098 413.398177 -69.012567 C 415.691991 -56.609216 421.400754 -38.503546 421.403975 -20.289145 Z M 421.403975 -20.289145 " transform="matrix(0.075,0.1,-0.16,0.11,89.25,51.650002)"/>
<path style="fill-rule:evenodd;fill:rgb(0%,35.686275%,0%);fill-opacity:1;stroke-width:1.25;stroke-linecap:butt;stroke-linejoin:miter;stroke:rgb(0%,0%,0%);stroke-opacity:1;stroke-miterlimit:4;" d="M 421.423768 -20.313678 C 421.406277 -2.187512 416.77125 11.40274 410.00819 25.004653 C 404.382024 6.890147 401.006324 -2.181681 401.023814 -20.307847 C 400.994663 -38.404862 407.786873 -55.394135 413.378058 -68.996047 C 415.733468 -56.600991 421.406277 -38.515637 421.423768 -20.313678 Z M 421.423768 -20.313678 " transform="matrix(0.04,0.05,-0.07,0.08,125.349998,51.299999)"/>
<path style="fill-rule:evenodd;fill:rgb(0%,35.686275%,0%);fill-opacity:1;stroke-width:1.25;stroke-linecap:butt;stroke-linejoin:miter;stroke:rgb(0%,0%,0%);stroke-opacity:1;stroke-miterlimit:4;" d="M 421.39892 -20.321655 C 421.352964 -2.215038 416.766566 11.387903 409.992669 24.990844 C 404.413625 6.884227 400.962339 -2.215038 401.008295 -20.321655 C 401.012891 -38.382317 407.800576 -55.385993 413.402598 -68.988934 C 415.750943 -56.580846 421.371347 -38.520184 421.39892 -20.321655 Z M 421.39892 -20.321655 " transform="matrix(0.05,0,-0.04,0.085,119,68.199997)"/>
<path style="fill-rule:evenodd;fill:rgb(0%,35.686275%,0%);fill-opacity:1;stroke-width:1.25;stroke-linecap:butt;stroke-linejoin:miter;stroke:rgb(0%,0%,0%);stroke-opacity:1;stroke-miterlimit:4;" d="M 421.377585 -20.301383 C 421.425417 -2.221026 416.825608 11.395046 409.993657 25.011117 C 404.397356 6.874956 401.00131 -2.221026 401.009281 -20.301383 C 401.017253 -38.38174 407.785429 -55.401829 413.389701 -69.0179 C 415.709536 -56.573704 421.393528 -38.493347 421.377585 -20.301383 Z M 421.377585 -20.301383 " transform="matrix(0,0.07,-0.07,0.04,143.699997,40.549999)"/>
<path style="fill-rule:evenodd;fill:rgb(0%,35.686275%,0%);fill-opacity:1;stroke-width:1.25;stroke-linecap:butt;stroke-linejoin:miter;stroke:rgb(0%,0%,0%);stroke-opacity:1;stroke-miterlimit:4;" d="M 421.404069 -20.300622 C 421.382061 -2.213035 416.804596 11.411525 410.004419 25.007476 C 404.414631 6.911085 400.981533 -2.206432 401.003541 -20.29402 C 400.970531 -38.397013 407.792715 -55.393052 413.437522 -69.000006 C 415.682239 -56.590235 421.415073 -38.485041 421.404069 -20.300622 Z M 421.404069 -20.300622 " transform="matrix(0.035,0.05,-0.125,0.075,110.349998,57.799999)"/>
<path style="fill-rule:evenodd;fill:rgb(0%,35.686275%,0%);fill-opacity:1;stroke-width:1.25;stroke-linecap:butt;stroke-linejoin:miter;stroke:rgb(0%,0%,0%);stroke-opacity:1;stroke-miterlimit:4;" d="M 421.41355 -20.304895 C 421.396911 -2.200655 416.80687 11.403078 409.983213 25.00285 C 404.394819 6.892271 401.016269 -2.203824 400.990914 -20.300933 C 401.007553 -38.405173 407.796346 -55.404095 413.414056 -69.005451 C 415.700758 -56.598948 421.399288 -38.492331 421.41355 -20.304895 Z M 421.41355 -20.304895 " transform="matrix(0.065,0.11,-0.165,0.1,103.5,35.049999)"/>
<path style="fill:none;stroke-width:2.4;stroke-linecap:butt;stroke-linejoin:miter;stroke:rgb(0%,0%,0%);stroke-opacity:1;stroke-miterlimit:4;" d="M 269.605902 155.203984 C 270.699652 155.203984 297.895833 61.209069 388.598959 8.000366 " transform="matrix(0.175,-0.1,0.07,0.14,55.900002,113.900002)"/>
<path style="fill-rule:evenodd;fill:rgb(100%,0%,0%);fill-opacity:1;stroke-width:1.25;stroke-linecap:butt;stroke-linejoin:miter;stroke:rgb(0%,0%,0%);stroke-opacity:1;stroke-miterlimit:4;" d="M 454.197186 -169.304995 C 454.191413 -165.310229 450.385224 -161.896589 445.697725 -161.896589 C 441.010225 -161.896589 437.200188 -165.194773 437.179021 -169.297297 C 437.209809 -173.415216 441.017922 -176.597944 445.705422 -176.597944 C 450.392922 -176.597944 454.202958 -173.29976 454.197186 -169.304995 Z M 454.197186 -169.304995 " transform="matrix(0.09,-0.05,0.05,0.085,100.150002,112.300003)"/>
<path style="fill-rule:evenodd;fill:rgb(100%,0%,0%);fill-opacity:1;stroke-width:1.25;stroke-linecap:butt;stroke-linejoin:miter;stroke:rgb(0%,0%,0%);stroke-opacity:1;stroke-miterlimit:4;" d="M 454.209096 -169.279588 C 454.203323 -165.284822 450.416377 -161.90582 445.696165 -161.925062 C 440.989422 -161.890426 437.198628 -165.223246 437.210174 -169.306528 C 437.189007 -173.409052 440.99712 -176.59178 445.684619 -176.59178 C 450.424074 -176.607174 454.182156 -173.293597 454.209096 -169.279588 Z M 454.209096 -169.279588 " transform="matrix(0.09,-0.05,0.05,0.085,105.550003,109.150002)"/>
<path style="fill-rule:evenodd;fill:rgb(100%,0%,0%);fill-opacity:1;stroke-width:1.25;stroke-linecap:butt;stroke-linejoin:miter;stroke:rgb(0%,0%,0%);stroke-opacity:1;stroke-miterlimit:4;" d="M 454.195052 -169.285033 C 454.209257 -165.307761 450.407174 -161.922344 445.703102 -161.874995 C 440.984825 -161.89867 437.206416 -165.165715 437.211151 -169.308708 C 437.199314 -173.404352 441.013235 -176.600374 445.700734 -176.600374 C 450.388234 -176.600374 454.19742 -173.309655 454.195052 -169.285033 Z M 454.195052 -169.285033 " transform="matrix(0.1,-0.05,0.035,0.065,83.400002,116.349998)"/>
<path style="fill-rule:evenodd;fill:rgb(100%,0%,0%);fill-opacity:1;stroke-width:1.25;stroke-linecap:butt;stroke-linejoin:miter;stroke:rgb(0%,0%,0%);stroke-opacity:1;stroke-miterlimit:4;" d="M 454.220646 -169.31347 C 454.187502 -165.312523 450.416195 -161.903432 445.697918 -161.927106 C 440.993846 -161.879758 437.201233 -165.217826 437.189396 -169.31347 C 437.208335 -173.38544 440.991479 -176.605137 445.709756 -176.581463 C 450.397256 -176.581463 454.206441 -173.290743 454.220646 -169.31347 Z M 454.220646 -169.31347 " transform="matrix(0.1,-0.05,0.035,0.065,85,115.650002)"/>
<path style="fill-rule:evenodd;fill:rgb(100%,0%,0%);fill-opacity:1;stroke-width:1.25;stroke-linecap:butt;stroke-linejoin:miter;stroke:rgb(0%,0%,0%);stroke-opacity:1;stroke-miterlimit:4;" d="M 454.196 -169.332428 C 454.193633 -165.307807 450.39155 -161.92239 445.70405 -161.92239 C 440.999978 -161.875042 437.207364 -165.21311 437.195527 -169.308754 C 437.18369 -173.404398 440.99761 -176.600421 445.68511 -176.600421 C 450.403387 -176.576746 454.212572 -173.286027 454.196 -169.332428 Z M 454.196 -169.332428 " transform="matrix(0.1,-0.05,0.035,0.065,84.050003,117.150002)"/>
<path style="fill-rule:evenodd;fill:rgb(100%,0%,0%);fill-opacity:1;stroke-width:0.3;stroke-linecap:butt;stroke-linejoin:miter;stroke:rgb(0%,0%,0%);stroke-opacity:1;stroke-miterlimit:4;" d="M 252.703125 167.296875 C 253.03125 168.234375 252.703125 169 251.703125 169.601562 C 250.203125 170.5 249.703125 169.796875 249.296875 168.898438 C 248.898438 168 249.296875 167.101562 250.296875 166.601562 C 251.296875 166.101562 252.296875 166.398438 252.601562 167.296875 Z M 252.703125 167.296875 " transform="matrix(0.5,0,0,0.5,0,0)"/>
<path style="fill-rule:evenodd;fill:rgb(100%,0%,0%);fill-opacity:1;stroke-width:0.3;stroke-linecap:butt;stroke-linejoin:miter;stroke:rgb(0%,0%,0%);stroke-opacity:1;stroke-miterlimit:4;" d="M 255 164.898438 C 255.335938 165.835938 255 166.601562 254 167.203125 C 252.5 168.101562 252 167.398438 251.5 166.601562 C 251 165.796875 251.5 164.703125 252.5 164.203125 C 253.5 163.703125 254.5 164.101562 254.898438 164.898438 Z M 255 164.898438 " transform="matrix(0.5,0,0,0.5,0,0)"/>
<path style="fill-rule:evenodd;fill:rgb(100%,0%,0%);fill-opacity:1;stroke-width:0.3;stroke-linecap:butt;stroke-linejoin:miter;stroke:rgb(0%,0%,0%);stroke-opacity:1;stroke-miterlimit:4;" d="M 255.5 166 C 255.898438 166.796875 255.5 167.898438 254.5 168.296875 C 253.5 168.703125 252.5 168.5 252.101562 167.703125 C 251.703125 166.898438 252.101562 165.898438 253.101562 165.398438 C 254.101562 164.898438 255.101562 165.203125 255.5 166 Z M 255.5 166 " transform="matrix(0.5,0,0,0.5,0,0)"/>
<path style="fill-rule:evenodd;fill:rgb(0%,0%,76.862746%);fill-opacity:1;stroke-width:1.25;stroke-linecap:butt;stroke-linejoin:miter;stroke:rgb(0%,0%,0%);stroke-opacity:1;stroke-miterlimit:4;" d="M 336.600225 308.298888 C 336.600225 326.003021 301.201517 520.899693 389.806045 573.999491 C 425.204753 591.703624 478.302815 556.295358 478.302815 573.999491 L 460.603461 432.303424 Z M 336.600225 308.298888 " transform="matrix(0.29,0,0,0.31,4.8,-5.1)"/>
<path style="fill-rule:evenodd;fill:rgb(88.235295%,0%,0%);fill-opacity:1;stroke-width:1.25;stroke-linecap:butt;stroke-linejoin:miter;stroke:rgb(0%,0%,0%);stroke-opacity:1;stroke-miterlimit:4;" d="M 371.998932 343.694554 C 371.998932 361.398686 354.299579 503.094754 407.505399 538.603826 C 442.904107 573.999491 531.495165 564.397677 531.495165 564.397677 L 460.603461 432.303424 Z M 371.998932 343.694554 " transform="matrix(0.29,0,0,0.31,4.8,-5.1)"/>
<path style=" stroke:none;fill-rule:evenodd;fill:rgb(0%,0%,0%);fill-opacity:1;" d="M 91.898438 79 L 139.300781 129 L 140.148438 128.199219 L 92.75 78.25 Z M 91.898438 79 "/>
<path style="fill-rule:evenodd;fill:rgb(80.784315%,80.784315%,80.000001%);fill-opacity:1;stroke-width:1.25;stroke-linecap:butt;stroke-linejoin:miter;stroke:rgb(0%,0%,0%);stroke-opacity:1;stroke-miterlimit:4;" d="M 460.580333 184.296872 L 478.297967 219.726559 L 478.297967 237.382809 C 477.488815 236.093746 478.297967 255.117184 460.608235 255.117184 C 442.890601 255.078121 443.002208 219.687497 443.002208 219.687497 C 443.002208 219.687497 425.284575 255.117184 425.284575 290.585933 C 425.312476 326.093745 443.002208 343.67187 443.002208 343.67187 C 443.002208 343.67187 440.407342 306.992183 460.691941 308.281245 C 481.088146 309.492183 478.409574 325.976558 478.409574 325.976558 L 478.381673 361.406245 L 496.183012 361.406245 L 496.183012 219.687497 L 513.900646 184.335935 L 486.696405 131.093748 L 460.691941 184.218747 Z M 460.580333 184.296872 " transform="matrix(0.07,-0.07,0.05,0.05,43.150002,96.099998)"/>
<path style="fill-rule:evenodd;fill:rgb(80.784315%,80.784315%,80.000001%);fill-opacity:1;stroke-width:1.25;stroke-linecap:butt;stroke-linejoin:miter;stroke:rgb(0%,0%,0%);stroke-opacity:1;stroke-miterlimit:4;" d="M 557.792265 95.717572 L 531.519117 166.493035 L 549.203338 219.709662 L 513.801139 201.972395 L 549.198516 255.092571 L 549.208161 290.576753 L 566.993655 290.596043 L 567.0033 254.986475 L 602.48266 201.9097 L 567.008122 219.603566 L 584.779148 166.396584 L 557.903183 95.582541 Z M 557.792265 95.717572 " transform="matrix(0.05,-0.08,0.07,0.05,57,91.900002)"/>
<path style="fill-rule:evenodd;fill:rgb(88.235295%,0%,0%);fill-opacity:1;stroke-width:1.25;stroke-linecap:butt;stroke-linejoin:miter;stroke:rgb(0%,0%,0%);stroke-opacity:1;stroke-miterlimit:4;" d="M 422.492183 136.994776 C 422.492183 138.999984 420.499996 140.692693 418.195308 140.692693 C 415.890621 140.692693 413.800777 138.999984 413.800777 136.994776 C 413.800777 134.989568 415.792964 133.192693 418.195308 133.192693 C 420.597652 133.192693 422.492183 134.911443 422.492183 136.994776 Z M 416.300777 144.911442 C 416.300777 180.692691 437.199214 332.697893 438.898433 336.39581 C 438.996089 340.901018 434.093745 342.80206 431.808589 337.307268 C 425.207027 319.911435 411.007808 177.307274 410.499996 143.999984 C 410.207027 130.302068 414.191402 129.208318 418.800777 129.494776 C 422.492183 129.70311 427.101558 133.192693 427.101558 137.411443 C 427.101558 142.411443 421.300777 146.109359 416.300777 144.911442 Z M 416.300777 144.911442 " transform="matrix(0.2,0,0,0.15,21.9,34.900002)"/>
<path style="fill-rule:evenodd;fill:rgb(0%,0%,76.862746%);fill-opacity:1;stroke-width:1.25;stroke-linecap:butt;stroke-linejoin:miter;stroke:rgb(0%,0%,0%);stroke-opacity:1;stroke-miterlimit:4;" d="M 422.496369 136.990783 C 422.505454 138.992964 420.506907 140.700812 418.199494 140.6887 C 415.901166 140.699601 413.793608 139.006287 413.802692 136.998051 C 413.793608 134.995871 415.801238 133.206869 418.199494 133.1887 C 420.606834 133.193545 422.496369 134.90745 422.496369 136.990783 Z M 416.300875 144.889281 C 447.796152 206.291895 465.00182 311.598334 466.709669 315.404051 C 466.800512 319.800853 461.894989 321.800611 459.605745 316.209526 C 457.107562 312.901629 446.896806 215.992718 410.50509 144.00871 C 410.196224 130.309582 414.202401 129.208565 418.799058 129.499262 C 422.496369 129.699117 427.102111 133.189911 427.102111 137.408661 C 427.102111 142.408661 421.297241 146.088409 416.300875 144.889281 Z M 416.300875 144.889281 " transform="matrix(0.19,0.05,-0.075,0.15,38,19.1)"/>
<path style="fill-rule:evenodd;fill:rgb(88.235295%,0%,0%);fill-opacity:1;stroke-width:0.7;stroke-linecap:butt;stroke-linejoin:miter;stroke:rgb(0%,0%,0%);stroke-opacity:1;stroke-miterlimit:4;" d="M 186.703125 151.5 C 186.703125 152.5 185.703125 153.5 184.5 153.5 C 183.296875 153.5 182.296875 152.5 182.296875 151.5 C 182.296875 150.5 183.296875 149.703125 184.5 149.703125 C 185.835938 149.835938 186.53125 150.429688 186.601562 151.5 Z M 183.5 155.5 C 183.5 173.398438 194 249.398438 194.796875 251.296875 C 194.796875 253.5 192.5 254.5 191.296875 251.703125 C 188 243 180.898438 171.703125 180.601562 155.101562 C 180.5 148.203125 182.5 147.703125 184.796875 147.796875 C 186.703125 147.898438 188.898438 149.703125 188.898438 151.796875 C 188.898438 154.203125 186 156.101562 183.5 155.5 Z M 183.5 155.5 " transform="matrix(0.5,0,0,0.5,0,0)"/>
<path style="fill-rule:evenodd;fill:rgb(0%,0%,76.862746%);fill-opacity:1;stroke-width:1.25;stroke-linecap:butt;stroke-linejoin:miter;stroke:rgb(0%,0%,0%);stroke-opacity:1;stroke-miterlimit:4;" d="M 422.502407 136.997943 C 422.506007 138.998771 420.497078 140.70078 418.202532 140.70168 C 415.907985 140.70258 413.79945 139.001471 413.795849 137.000643 C 413.792249 134.999815 415.793977 133.2024 418.201331 133.1988 C 420.594285 133.1997 422.506007 134.897208 422.502407 136.997943 Z M 416.30281 144.892348 C 447.800027 206.305979 464.99953 311.60822 466.696438 315.407363 C 466.802045 319.801445 461.906932 321.803173 459.601584 316.192214 C 457.107824 312.902503 446.90477 215.9933 410.496838 144.004892 C 410.204019 130.294314 414.203875 129.190843 418.791769 129.498663 C 422.507207 129.704776 427.104701 133.1997 427.097501 137.401169 C 427.096301 142.398288 421.29753 146.098425 416.30281 144.892348 Z M 416.30281 144.892348 " transform="matrix(0.24,0.075,-0.1,0.24,8.35,15.8)"/>
<path style=" stroke:none;fill-rule:evenodd;fill:rgb(0%,0%,0%);fill-opacity:1;" d="M 185.199219 145.398438 L 221.449219 183.648438 L 222.101562 182.851562 L 185.851562 144.601562 Z M 160 151.648438 L 207.398438 201.648438 L 208.199219 200.851562 L 160.851562 150.851562 Z M 160 151.648438 "/>
<path style="fill-rule:evenodd;fill:rgb(50.196081%,50.196081%,50.196081%);fill-opacity:1;stroke-width:4.1;stroke-linecap:butt;stroke-linejoin:miter;stroke:rgb(0%,0%,0%);stroke-opacity:1;stroke-miterlimit:4;" d="M 478.392899 60.203094 L 478.392899 148.796842 L 496.138434 237.390591 L 513.772363 148.796842 L 513.772363 60.203094 Z M 478.392899 60.203094 " transform="matrix(0.035,-0.035,0.05,0.05,187.5,214.800003)"/>
<path style="fill-rule:evenodd;fill:rgb(50.196081%,50.196081%,50.196081%);fill-opacity:1;stroke-width:4.1;stroke-linecap:butt;stroke-linejoin:miter;stroke:rgb(0%,0%,0%);stroke-opacity:1;stroke-miterlimit:4;" d="M 478.392899 60.18753 L 478.392899 148.781278 L 496.082631 237.414089 L 513.772363 148.781278 L 513.772363 60.18753 Z M 478.392899 60.18753 " transform="matrix(0.035,-0.035,0.05,0.05,199.699997,195.25)"/>
<path style="fill-rule:evenodd;fill:rgb(100%,87.450981%,0%);fill-opacity:1;stroke-width:1.25;stroke-linecap:butt;stroke-linejoin:miter;stroke:rgb(0%,0%,0%);stroke-opacity:1;stroke-miterlimit:4;" d="M 301.194398 272.795415 C 301.194398 272.795415 283.503425 609.404309 354.302038 609.404309 C 425.100651 609.404309 460.604125 574.003918 460.604125 574.003918 L 459.805513 388.994148 Z M 301.194398 272.795415 " transform="matrix(-0.225,0,0,0.32,283.799988,-29.9)"/>
<path style="fill-rule:evenodd;fill:rgb(0%,0%,76.862746%);fill-opacity:1;stroke-width:1.25;stroke-linecap:butt;stroke-linejoin:miter;stroke:rgb(0%,0%,0%);stroke-opacity:1;stroke-miterlimit:4;" d="M 344.49301 304.204107 C 344.49301 321.904303 336.593705 574.003918 371.993011 574.003918 C 407.392318 574.003918 460.604125 556.303722 460.604125 556.303722 L 459.805513 388.994148 Z M 344.49301 304.204107 " transform="matrix(-0.225,0,0,0.32,283.799988,-29.9)"/>
<path style="fill-rule:evenodd;fill:rgb(88.235295%,0%,0%);fill-opacity:1;stroke-width:1.25;stroke-linecap:butt;stroke-linejoin:miter;stroke:rgb(0%,0%,0%);stroke-opacity:1;stroke-miterlimit:4;" d="M 367.496483 321.196295 C 367.496483 338.896491 371.993011 538.603526 407.496484 538.603526 L 460.604125 538.603526 L 459.805513 388.994148 Z M 367.496483 321.196295 " transform="matrix(-0.225,0,0,0.32,283.799988,-29.9)"/>
<path style=" stroke:none;fill-rule:evenodd;fill:rgb(0%,0%,0%);fill-opacity:1;" d="M 216.898438 58 L 180.699219 96.25 L 180.050781 95.449219 L 216.25 57.199219 Z M 216.898438 58 "/>
<path style="fill-rule:evenodd;fill:rgb(0%,35.686275%,0%);fill-opacity:1;stroke-width:1.25;stroke-linecap:butt;stroke-linejoin:miter;stroke:rgb(0%,0%,0%);stroke-opacity:1;stroke-miterlimit:4;" d="M 428.177007 -16.998527 C 428.177007 -16.998527 509.683198 73.700034 539.210898 137.105575 C 568.599089 200.594822 593.581334 293.403772 593.581334 293.403772 C 593.581334 293.403772 595.812208 207.399053 557.303938 130.411683 C 505.182133 32.79982 425.880183 -12.502535 428.177007 -16.998527 Z M 428.177007 -16.998527 " transform="matrix(0.08,-0.035,0.04,0.175,154.75,105.5)"/>
<path style="fill-rule:evenodd;fill:rgb(0%,35.686275%,0%);fill-opacity:1;stroke-width:1.25;stroke-linecap:butt;stroke-linejoin:miter;stroke:rgb(0%,0%,0%);stroke-opacity:1;stroke-miterlimit:4;" d="M 428.214445 -16.996646 C 428.214445 -16.996646 509.713321 73.698525 539.205275 137.092049 C 568.620506 200.593171 593.598051 293.402863 593.598051 293.402863 C 593.598051 293.402863 595.805199 207.409226 557.287235 130.406982 C 505.198912 32.802193 425.898764 -12.50095 428.214445 -16.996646 Z M 428.214445 -16.996646 " transform="matrix(0.1,-0.025,0.035,0.2,145.75,91.300003)"/>
<path style="fill-rule:evenodd;fill:rgb(0%,35.686275%,0%);fill-opacity:1;stroke-width:1.25;stroke-linecap:butt;stroke-linejoin:miter;stroke:rgb(0%,0%,0%);stroke-opacity:1;stroke-miterlimit:4;" d="M 428.183789 -16.997143 C 428.183789 -16.997143 509.713153 73.686328 539.213055 137.09183 C 568.590328 200.598846 593.603321 293.406797 593.603321 293.406797 C 593.603321 293.406797 595.802515 207.402706 557.293063 130.392734 C 505.196196 32.806326 425.883081 -12.500489 428.183789 -16.997143 Z M 428.183789 -16.997143 " transform="matrix(0.115,0.07,-0.015,0.2,148.25,34.700001)"/>
<path style="fill-rule:evenodd;fill:rgb(0%,35.686275%,0%);fill-opacity:1;stroke-width:1.25;stroke-linecap:butt;stroke-linejoin:miter;stroke:rgb(0%,0%,0%);stroke-opacity:1;stroke-miterlimit:4;" d="M 428.197294 -16.997116 C 428.197294 -16.997116 509.691524 73.700011 539.213347 137.099092 C 568.602344 200.596007 593.615199 293.40408 593.615199 293.40408 C 593.615199 293.40408 595.807554 207.405879 557.312068 130.396338 C 505.213976 32.794361 425.900676 -12.508142 428.197294 -16.997116 Z M 428.197294 -16.997116 " transform="matrix(0.125,0.015,0.01,0.22,137.199997,57.5)"/>
<path style="fill-rule:evenodd;fill:rgb(0%,35.686275%,0%);fill-opacity:1;stroke-width:1.25;stroke-linecap:butt;stroke-linejoin:miter;stroke:rgb(0%,0%,0%);stroke-opacity:1;stroke-miterlimit:4;" d="M 428.208929 -17.005054 C 428.208929 -17.005054 509.695092 73.706132 539.191196 137.102669 C 568.583208 200.616728 593.586564 293.405278 593.586564 293.405278 C 593.586564 293.405278 595.785929 207.403978 557.318882 130.396007 C 505.206822 32.805791 425.912189 -12.496637 428.208929 -17.005054 Z M 428.208929 -17.005054 " transform="matrix(0.09,0.085,-0.02,0.175,165,33.5)"/>
<path style="fill-rule:evenodd;fill:rgb(0%,35.686275%,0%);fill-opacity:1;stroke-width:1.25;stroke-linecap:butt;stroke-linejoin:miter;stroke:rgb(0%,0%,0%);stroke-opacity:1;stroke-miterlimit:4;" d="M 428.208693 -16.996078 C 428.208693 -16.996078 509.686274 73.707045 539.188651 137.105482 C 568.610356 200.601575 593.599317 293.394542 593.599317 293.394542 C 593.599317 293.394542 595.814839 207.39845 557.283929 130.406263 C 505.204276 32.808609 425.890419 -12.503891 428.208693 -16.996078 Z M 428.208693 -16.996078 " transform="matrix(0.115,0,0.015,0.2,140.300003,70.949997)"/>
<path style="fill-rule:evenodd;fill:rgb(0%,35.686275%,0%);fill-opacity:1;stroke-width:1.25;stroke-linecap:butt;stroke-linejoin:miter;stroke:rgb(0%,0%,0%);stroke-opacity:1;stroke-miterlimit:4;" d="M 428.184262 -16.999782 C 428.184262 -16.999782 509.684376 73.691852 539.207707 137.107335 C 568.587148 200.599108 593.60453 293.406587 593.60453 293.406587 C 593.60453 293.406587 595.815014 207.403419 557.295237 130.406354 C 505.208364 32.797422 425.908111 -12.505422 428.184262 -16.999782 Z M 428.184262 -16.999782 " transform="matrix(0.1,-0.035,0.035,0.19,145.050003,98.400002)"/>
<path style="fill-rule:evenodd;fill:rgb(0%,35.686275%,0%);fill-opacity:1;stroke-width:1.25;stroke-linecap:butt;stroke-linejoin:miter;stroke:rgb(0%,0%,0%);stroke-opacity:1;stroke-miterlimit:4;" d="M 428.209292 -16.993686 C 428.209292 -16.993686 509.713317 73.708958 539.218684 137.093734 C 568.613814 200.606962 593.618607 293.400289 593.618607 293.400289 C 593.618607 293.400289 595.785018 207.390896 557.297672 130.402784 C 505.212742 32.805009 425.913471 -12.497904 428.209292 -16.993686 Z M 428.209292 -16.993686 " transform="matrix(0.1,-0.015,0.025,0.2,146.350006,83.400002)"/>
<path style="fill-rule:evenodd;fill:rgb(0%,35.686275%,0%);fill-opacity:1;stroke-width:1.25;stroke-linecap:butt;stroke-linejoin:miter;stroke:rgb(0%,0%,0%);stroke-opacity:1;stroke-miterlimit:4;" d="M 428.204755 -16.992838 C 428.204755 -16.992838 509.684586 73.705913 539.185135 137.102078 C 568.600784 200.593434 593.59907 293.398388 593.59907 293.398388 C 593.59907 293.398388 595.786741 207.399142 557.30053 130.403567 C 505.214909 32.789338 425.88759 -12.500865 428.204755 -16.992838 Z M 428.204755 -16.992838 " transform="matrix(0.11,0.075,-0.025,0.19,152.5,32.75)"/>
<path style="fill-rule:evenodd;fill:rgb(0%,35.686275%,0%);fill-opacity:1;stroke-width:1.25;stroke-linecap:butt;stroke-linejoin:miter;stroke:rgb(0%,0%,0%);stroke-opacity:1;stroke-miterlimit:4;" d="M 428.216181 -16.995441 C 428.216181 -16.995441 509.694047 73.692444 539.186235 137.102423 C 568.613319 200.590823 593.61332 293.399772 593.61332 293.399772 C 593.61332 293.399772 595.79431 207.391989 557.285194 130.393735 C 505.20186 32.79667 425.904983 -12.506952 428.216181 -16.995441 Z M 428.216181 -16.995441 " transform="matrix(0.12,0.025,0,0.22,139.449997,48.849998)"/>
<path style="fill-rule:evenodd;fill:rgb(0%,35.686275%,0%);fill-opacity:1;stroke-width:1.25;stroke-linecap:butt;stroke-linejoin:miter;stroke:rgb(0%,0%,0%);stroke-opacity:1;stroke-miterlimit:4;" d="M 428.195697 -16.987179 C 428.195697 -16.987179 509.696684 73.697914 539.196824 137.099355 C 568.594447 200.600955 593.58384 293.409446 593.58384 293.409446 C 593.58384 293.409446 595.807399 207.391821 557.285767 130.40865 C 505.193009 32.812499 425.919113 -12.5 428.195697 -16.987179 Z M 428.195697 -16.987179 " transform="matrix(0.085,0.085,-0.03,0.165,169.5,35)"/>
<path style="fill-rule:evenodd;fill:rgb(0%,35.686275%,0%);fill-opacity:1;stroke-width:1.25;stroke-linecap:butt;stroke-linejoin:miter;stroke:rgb(0%,0%,0%);stroke-opacity:1;stroke-miterlimit:4;" d="M 428.216181 -16.996746 C 428.216181 -16.996746 509.694047 73.694985 539.186235 137.103187 C 568.613319 200.592769 593.61332 293.405268 593.61332 293.405268 C 593.61332 293.405268 595.79431 207.397782 557.285194 130.397458 C 505.20186 32.806313 425.904983 -12.506186 428.216181 -16.996746 Z M 428.216181 -16.996746 " transform="matrix(0.12,0.01,0,0.2,138.199997,64)"/>
<path style="fill-rule:evenodd;fill:rgb(100%,87.450981%,0%);fill-opacity:1;stroke-width:1.25;stroke-linecap:butt;stroke-linejoin:miter;stroke:rgb(0%,0%,0%);stroke-opacity:1;stroke-miterlimit:4;" d="M 301.201559 272.802417 C 301.201559 272.802417 265.802851 609.395156 371.998975 609.395156 C 460.495745 609.395156 460.495745 556.295358 478.195099 556.295358 L 460.495745 432.303424 Z M 301.201559 272.802417 " transform="matrix(-0.29,0,0,0.31,315.200012,-5.1)"/>
<path style="fill-rule:evenodd;fill:rgb(0%,0%,76.862746%);fill-opacity:1;stroke-width:1.25;stroke-linecap:butt;stroke-linejoin:miter;stroke:rgb(0%,0%,0%);stroke-opacity:1;stroke-miterlimit:4;" d="M 336.600267 308.298888 C 336.600267 326.003021 301.201559 520.899693 389.806088 573.999491 C 425.204796 591.703624 478.302858 556.295358 478.302858 573.999491 L 460.603504 432.303424 Z M 336.600267 308.298888 " transform="matrix(-0.29,0,0,0.31,315.200012,-5.1)"/>
<path style="fill-rule:evenodd;fill:rgb(88.235295%,0%,0%);fill-opacity:1;stroke-width:1.25;stroke-linecap:butt;stroke-linejoin:miter;stroke:rgb(0%,0%,0%);stroke-opacity:1;stroke-miterlimit:4;" d="M 371.998975 343.694554 C 371.998975 361.398686 354.299621 503.094754 407.505442 538.603826 C 442.90415 573.999491 531.495208 564.397677 531.495208 564.397677 L 460.603504 432.303424 Z M 371.998975 343.694554 " transform="matrix(-0.29,0,0,0.31,315.200012,-5.1)"/>
<path style=" stroke:none;fill-rule:evenodd;fill:rgb(0%,0%,0%);fill-opacity:1;" d="M 228.101562 79 L 180.699219 129 L 179.851562 128.199219 L 227.25 78.25 Z M 228.101562 79 "/>
<path style="fill-rule:evenodd;fill:rgb(80.784315%,80.784315%,80.000001%);fill-opacity:1;stroke-width:1.25;stroke-linecap:butt;stroke-linejoin:miter;stroke:rgb(0%,0%,0%);stroke-opacity:1;stroke-miterlimit:4;" d="M 460.580388 184.296949 L 478.298022 219.726636 L 478.298022 237.382885 C 477.48887 236.093823 478.298022 255.11726 460.60829 255.11726 C 442.890656 255.078197 443.002263 219.687573 443.002263 219.687573 C 443.002263 219.687573 425.284629 255.11726 425.284629 290.586009 C 425.312531 326.093821 443.002263 343.671946 443.002263 343.671946 C 443.002263 343.671946 440.407397 306.992259 460.691995 308.281322 C 481.0882 309.492259 478.409629 325.976634 478.409629 325.976634 L 478.381727 361.406321 L 496.183066 361.406321 L 496.183066 219.687573 L 513.9007 184.336011 L 486.696459 131.093824 L 460.691995 184.218824 Z M 460.580388 184.296949 " transform="matrix(-0.07,-0.07,-0.05,0.05,276.850006,96.099998)"/>
<path style="fill-rule:evenodd;fill:rgb(80.784315%,80.784315%,80.000001%);fill-opacity:1;stroke-width:1.25;stroke-linecap:butt;stroke-linejoin:miter;stroke:rgb(0%,0%,0%);stroke-opacity:1;stroke-miterlimit:4;" d="M 557.792265 95.717572 L 531.519117 166.493035 L 549.203338 219.709662 L 513.801139 201.972395 L 549.198516 255.092571 L 549.208161 290.576753 L 566.993655 290.596043 L 567.0033 254.986475 L 602.48266 201.9097 L 567.008122 219.603566 L 584.779148 166.396584 L 557.903183 95.582541 Z M 557.792265 95.717572 " transform="matrix(-0.05,-0.08,-0.07,0.05,263,91.900002)"/>
<path style="fill-rule:evenodd;fill:rgb(88.235295%,0%,0%);fill-opacity:1;stroke-width:1.25;stroke-linecap:butt;stroke-linejoin:miter;stroke:rgb(0%,0%,0%);stroke-opacity:1;stroke-miterlimit:4;" d="M 422.507776 136.994776 C 422.507776 138.999984 420.496057 140.692693 418.19137 140.692693 C 415.906213 140.692693 413.796838 138.999984 413.796838 136.994776 C 413.796838 134.989568 415.808557 133.192693 418.19137 133.192693 C 420.593713 133.192693 422.507776 134.911443 422.507776 136.994776 Z M 416.296838 144.911442 C 416.296838 180.692691 437.195275 332.697893 438.894494 336.39581 C 438.99215 340.901018 434.109338 342.80206 431.804651 337.307268 C 425.203088 319.911435 411.00387 177.307274 410.496057 143.999984 C 410.203088 130.302068 414.206995 129.208318 418.796838 129.494776 C 422.507776 129.70311 427.097619 133.192693 427.097619 137.411443 C 427.097619 142.411443 421.296838 146.109359 416.296838 144.911442 Z M 416.296838 144.911442 " transform="matrix(-0.2,0,0,0.15,298.149994,34.900002)"/>
<path style="fill-rule:evenodd;fill:rgb(0%,0%,76.862746%);fill-opacity:1;stroke-width:1.25;stroke-linecap:butt;stroke-linejoin:miter;stroke:rgb(0%,0%,0%);stroke-opacity:1;stroke-miterlimit:4;" d="M 422.496369 136.990783 C 422.505454 138.992964 420.506907 140.700812 418.199494 140.6887 C 415.901166 140.699601 413.793608 139.006287 413.802692 136.998051 C 413.793608 134.995871 415.801238 133.206869 418.199494 133.1887 C 420.606834 133.193545 422.496369 134.90745 422.496369 136.990783 Z M 416.300875 144.889281 C 447.796152 206.291895 465.00182 311.598334 466.709669 315.404051 C 466.800512 319.800853 461.894989 321.800611 459.605745 316.209526 C 457.107562 312.901629 446.896806 215.992718 410.50509 144.00871 C 410.196224 130.309582 414.202401 129.208565 418.799058 129.499262 C 422.496369 129.699117 427.102111 133.189911 427.102111 137.408661 C 427.102111 142.408661 421.297241 146.088409 416.300875 144.889281 Z M 416.300875 144.889281 " transform="matrix(-0.19,0.05,0.075,0.15,282,19.1)"/>
<path style="fill-rule:evenodd;fill:rgb(88.235295%,0%,0%);fill-opacity:1;stroke-width:0.7;stroke-linecap:butt;stroke-linejoin:miter;stroke:rgb(0%,0%,0%);stroke-opacity:1;stroke-miterlimit:4;" d="M 453.398438 151.5 C 453.398438 152.5 454.398438 153.5 455.5 153.5 C 456.601562 153.5 457.703125 152.5 457.703125 151.5 C 457.703125 150.5 456.703125 149.703125 455.5 149.703125 C 454.164062 149.835938 453.46875 150.429688 453.398438 151.5 Z M 456.398438 155.5 C 454.007812 187.578125 450.265625 219.539062 445.203125 251.296875 C 445.203125 253.5 447.5 254.5 448.703125 251.703125 C 452 243 459.101562 171.703125 459.398438 155.101562 C 459.5 148.203125 457.5 147.703125 455.203125 147.796875 C 453.296875 147.898438 451.101562 149.703125 451.101562 151.796875 C 451.101562 154.203125 454 156.101562 456.5 155.5 Z M 456.398438 155.5 " transform="matrix(0.5,0,0,0.5,0,0)"/>
<path style="fill-rule:evenodd;fill:rgb(0%,0%,76.862746%);fill-opacity:1;stroke-width:1.25;stroke-linecap:butt;stroke-linejoin:miter;stroke:rgb(0%,0%,0%);stroke-opacity:1;stroke-miterlimit:4;" d="M 422.502386 136.997949 C 422.505986 138.998778 420.497057 140.700787 418.20251 140.701687 C 415.907964 140.702587 413.799429 139.001478 413.795828 137.00065 C 413.792228 134.999822 415.793956 133.202407 418.20131 133.198806 C 420.594263 133.199706 422.505986 134.897215 422.502386 136.997949 Z M 416.302789 144.892355 C 447.800006 206.305986 464.999509 311.608227 466.696417 315.40737 C 466.802024 319.801451 461.906911 321.80318 459.601563 316.19222 C 457.107803 312.90251 446.904749 215.993306 410.496817 144.004898 C 410.203998 130.29432 414.203854 129.19085 418.791748 129.498669 C 422.507186 129.704783 427.10468 133.199706 427.09748 137.401175 C 427.09628 142.398295 421.297509 146.098432 416.302789 144.892355 Z M 416.302789 144.892355 " transform="matrix(-0.24,0.075,0.1,0.24,311.649994,15.8)"/>
<path style="fill-rule:evenodd;fill:rgb(88.235295%,0%,0%);fill-opacity:1;stroke-width:1.25;stroke-linecap:butt;stroke-linejoin:miter;stroke:rgb(0%,0%,0%);stroke-opacity:1;stroke-miterlimit:4;" d="M 478.397104 698.004027 C 494.830294 707.505035 515.075445 707.505035 531.495165 698.004027 L 531.495165 556.295358 L 496.096458 556.295358 C 513.795812 609.395156 513.795812 662.595761 478.302815 698.004027 Z M 478.397104 698.004027 " transform="matrix(0.29,0,0,0.31,4.8,-5.1)"/>
<path style="fill-rule:evenodd;fill:rgb(0%,0%,76.862746%);fill-opacity:1;stroke-width:1.25;stroke-linecap:butt;stroke-linejoin:miter;stroke:rgb(0%,0%,0%);stroke-opacity:1;stroke-miterlimit:4;" d="M 513.794652 609.497778 C 513.794652 698.002244 471.294651 717.700905 471.294651 735.502245 C 488.995544 735.502245 500.80358 727.198673 513.794652 715.803584 C 531.495545 698.002244 533.191973 608.102689 531.495545 609.497778 Z M 513.794652 609.497778 " transform="matrix(0.175,0,0,0.35,61.75,-45)"/>
<path style="fill-rule:evenodd;fill:rgb(0%,0%,76.862746%);fill-opacity:1;stroke-width:1.25;stroke-linecap:butt;stroke-linejoin:miter;stroke:rgb(0%,0%,0%);stroke-opacity:1;stroke-miterlimit:4;" d="M 478.392865 609.497778 C 477.500008 661.205368 433.593757 709.095994 441.897329 719.698673 C 451.294651 729.196441 478.392865 698.002244 513.794652 715.703137 C 531.495545 698.002244 533.191973 608.102689 531.495545 609.397332 Z M 478.392865 609.497778 " transform="matrix(0.175,0,0,0.35,61.75,-45)"/>
<path style="fill-rule:evenodd;fill:rgb(100%,87.450981%,0%);fill-opacity:1;stroke-width:1.25;stroke-linecap:butt;stroke-linejoin:miter;stroke:rgb(0%,0%,0%);stroke-opacity:1;stroke-miterlimit:4;" d="M 513.794652 609.493875 C 513.794652 697.995911 473.102687 703.906237 473.102687 727.49659 C 490.80358 727.49659 513.705366 714.605965 513.794652 715.794824 C 531.495545 697.995911 533.191973 608.101212 531.495545 609.493875 Z M 513.794652 609.493875 " transform="matrix(0.175,0,0,0.23,56.25,25.5)"/>
<path style="fill-rule:evenodd;fill:rgb(100%,87.450981%,0%);fill-opacity:1;stroke-width:1.25;stroke-linecap:butt;stroke-linejoin:miter;stroke:rgb(0%,0%,0%);stroke-opacity:1;stroke-miterlimit:4;" d="M 478.392865 609.493875 C 477.500008 661.192243 434.598222 705.196998 442.901793 715.794824 C 452.410722 725.203791 478.392865 697.995911 513.794652 715.794824 C 531.495545 697.995911 533.191973 608.101212 531.495545 609.493875 Z M 478.392865 609.493875 " transform="matrix(0.175,0,0,0.23,56.25,25.5)"/>
<path style="fill-rule:evenodd;fill:rgb(88.235295%,0%,0%);fill-opacity:1;stroke-width:1.25;stroke-linecap:butt;stroke-linejoin:miter;stroke:rgb(0%,0%,0%);stroke-opacity:1;stroke-miterlimit:4;" d="M 478.397146 698.004027 C 494.830337 707.505035 515.075488 707.505035 531.495208 698.004027 L 531.495208 556.295358 L 496.0965 556.295358 C 513.795854 609.395156 513.795854 662.595761 478.302858 698.004027 Z M 478.397146 698.004027 " transform="matrix(-0.29,0,0,0.31,315.200012,-5.1)"/>
<path style="fill-rule:evenodd;fill:rgb(0%,0%,76.862746%);fill-opacity:1;stroke-width:1.25;stroke-linecap:butt;stroke-linejoin:miter;stroke:rgb(0%,0%,0%);stroke-opacity:1;stroke-miterlimit:4;" d="M 513.794652 609.497778 C 513.794652 698.002244 471.294651 717.700905 471.294651 735.502245 C 488.995544 735.502245 500.80358 727.198673 513.794652 715.803584 C 531.495545 698.002244 533.191973 608.102689 531.495545 609.497778 Z M 513.794652 609.497778 " transform="matrix(-0.175,0,0,0.35,258.25,-45)"/>
<path style="fill-rule:evenodd;fill:rgb(0%,0%,76.862746%);fill-opacity:1;stroke-width:1.25;stroke-linecap:butt;stroke-linejoin:miter;stroke:rgb(0%,0%,0%);stroke-opacity:1;stroke-miterlimit:4;" d="M 478.392865 609.497778 C 477.500008 661.205368 433.593757 709.095994 441.897329 719.698673 C 451.294651 729.196441 478.392865 698.002244 513.794652 715.703137 C 531.495545 698.002244 533.191973 608.102689 531.495545 609.397332 Z M 478.392865 609.497778 " transform="matrix(-0.175,0,0,0.35,258.25,-45)"/>
<path style="fill-rule:evenodd;fill:rgb(100%,87.450981%,0%);fill-opacity:1;stroke-width:1.25;stroke-linecap:butt;stroke-linejoin:miter;stroke:rgb(0%,0%,0%);stroke-opacity:1;stroke-miterlimit:4;" d="M 513.794652 609.493875 C 513.794652 697.995911 473.102687 703.906237 473.102687 727.49659 C 490.80358 727.49659 513.705366 714.605965 513.794652 715.794824 C 531.495545 697.995911 533.191973 608.101212 531.495545 609.493875 Z M 513.794652 609.493875 " transform="matrix(-0.175,0,0,0.23,263.75,25.5)"/>
<path style="fill-rule:evenodd;fill:rgb(100%,87.450981%,0%);fill-opacity:1;stroke-width:1.25;stroke-linecap:butt;stroke-linejoin:miter;stroke:rgb(0%,0%,0%);stroke-opacity:1;stroke-miterlimit:4;" d="M 478.392865 609.493875 C 477.500008 661.192243 434.598222 705.196998 442.901793 715.794824 C 452.410722 725.203791 478.392865 697.995911 513.794652 715.794824 C 531.495545 697.995911 533.191973 608.101212 531.495545 609.493875 Z M 478.392865 609.493875 " transform="matrix(-0.175,0,0,0.23,263.75,25.5)"/>
<path style="fill-rule:evenodd;fill:rgb(56.470591%,56.078434%,54.11765%);fill-opacity:1;stroke-width:4.5;stroke-linecap:butt;stroke-linejoin:miter;stroke:rgb(0%,0%,0%);stroke-opacity:1;stroke-miterlimit:4;" d="M 198.60675 78.011392 L 108.893206 113.416222 L 198.60675 148.78554 L 243.398418 131.100881 L 265.794251 148.78554 L 288.190085 184.19037 L 310.716127 148.78554 L 333.111961 131.100881 L 1535.000009 131.100881 L 1535.000009 95.696051 L 332.981753 95.696051 L 310.585919 77.904858 C 310.585919 60.184687 315.273419 42.500028 333.111961 42.500028 L 422.695297 42.500028 C 422.695297 24.815369 377.903629 -10.589461 288.190085 -10.589461 C 198.60675 -10.589461 153.684874 24.815369 153.684874 42.500028 L 243.398418 42.500028 C 261.106751 42.500028 265.794251 60.184687 265.794251 78.011392 L 243.398418 95.696051 Z M 198.60675 78.011392 " transform="matrix(0.06,0,0,0.11,108.900002,162.199997)"/>
<path style="fill-rule:evenodd;fill:rgb(71.764708%,30.19608%,0%);fill-opacity:1;stroke-width:1.8;stroke-linecap:butt;stroke-linejoin:miter;stroke:rgb(0%,0%,0%);stroke-opacity:1;stroke-miterlimit:4;" d="M 204.296874 95.694418 L 540.987721 95.694418 L 540.987721 113.402751 L 204.408481 113.402751 Z M 204.296874 77.89928 L 540.987721 77.89928 L 540.987721 95.694418 L 204.408481 95.694418 Z M 204.296874 60.190947 L 540.987721 60.190947 L 540.987721 77.986085 L 204.408481 77.986085 Z M 204.296874 42.51155 L 540.987721 42.51155 L 540.987721 60.190947 L 204.408481 60.190947 Z M 204.296874 24.803217 L 540.987721 24.803217 L 540.987721 42.51155 L 204.408481 42.51155 Z M 204.296874 7.008079 L 540.987721 7.008079 L 540.987721 24.803217 L 204.408481 24.803217 Z M 204.296874 -10.613448 L 540.987721 -10.613448 L 540.987721 7.008079 L 204.408481 7.008079 Z M 204.296874 -10.613448 " transform="matrix(0.14,0,0,0.135,108,167.300003)"/>
<path style="fill-rule:evenodd;fill:rgb(56.470591%,56.078434%,54.11765%);fill-opacity:1;stroke-width:3.3;stroke-linecap:butt;stroke-linejoin:miter;stroke:rgb(0%,0%,0%);stroke-opacity:1;stroke-miterlimit:4;" d="M 423.212524 60.196712 L 560.993774 184.21291 L 580.712524 184.21291 L 442.993774 60.312452 L 423.306274 60.312452 Z M 423.212524 60.196712 " transform="matrix(0.125,0,0,0.135,85.949997,157.600006)"/>
<path style="fill-rule:evenodd;fill:rgb(56.470591%,56.078434%,54.11765%);fill-opacity:1;stroke-width:3.3;stroke-linecap:butt;stroke-linejoin:miter;stroke:rgb(0%,0%,0%);stroke-opacity:1;stroke-miterlimit:4;" d="M 423.212524 60.202589 L 560.993774 184.189853 L 580.712524 184.189853 L 442.993774 60.289395 L 423.306274 60.289395 Z M 423.212524 60.202589 " transform="matrix(0.125,0,0,-0.135,85.949997,191.100006)"/>
<path style="fill-rule:evenodd;fill:rgb(56.470591%,56.078434%,54.11765%);fill-opacity:1;stroke-width:3.1;stroke-linecap:butt;stroke-linejoin:miter;stroke:rgb(0%,0%,0%);stroke-opacity:1;stroke-miterlimit:4;" d="M 425.200869 60.196712 L 425.200869 184.21291 L 442.890601 184.21291 L 442.890601 60.196712 Z M 425.200869 60.196712 " transform="matrix(0.14,0,0,0.135,79.800003,157.600006)"/>
<path style="fill-rule:evenodd;fill:rgb(56.470591%,56.078434%,54.11765%);fill-opacity:1;stroke-width:3.3;stroke-linecap:butt;stroke-linejoin:miter;stroke:rgb(0%,0%,0%);stroke-opacity:1;stroke-miterlimit:4;" d="M 423.200012 60.196712 L 561.012512 184.21291 L 580.700012 184.21291 L 443.012512 60.312452 L 423.293762 60.312452 Z M 423.200012 60.196712 " transform="matrix(0.125,0,0,0.135,108.099998,157.600006)"/>
<path style="fill-rule:evenodd;fill:rgb(56.470591%,56.078434%,54.11765%);fill-opacity:1;stroke-width:3.3;stroke-linecap:butt;stroke-linejoin:miter;stroke:rgb(0%,0%,0%);stroke-opacity:1;stroke-miterlimit:4;" d="M 423.200012 60.202589 L 561.012512 184.189853 L 580.700012 184.189853 L 443.012512 60.289395 L 423.293762 60.289395 Z M 423.200012 60.202589 " transform="matrix(0.125,0,0,-0.135,108.099998,191.100006)"/>
<path style="fill-rule:evenodd;fill:rgb(56.470591%,56.078434%,54.11765%);fill-opacity:1;stroke-width:3.1;stroke-linecap:butt;stroke-linejoin:miter;stroke:rgb(0%,0%,0%);stroke-opacity:1;stroke-miterlimit:4;" d="M 425.189752 60.196712 L 425.189752 184.21291 L 442.907386 184.21291 L 442.907386 60.196712 Z M 425.189752 60.196712 " transform="matrix(0.14,0,0,0.135,119.199997,157.600006)"/>
<path style="fill-rule:evenodd;fill:rgb(56.470591%,56.078434%,54.11765%);fill-opacity:1;stroke-width:3.1;stroke-linecap:butt;stroke-linejoin:miter;stroke:rgb(0%,0%,0%);stroke-opacity:1;stroke-miterlimit:4;" d="M 425.195311 60.196712 L 425.195311 184.21291 L 442.912945 184.21291 L 442.912945 60.196712 Z M 425.195311 60.196712 " transform="matrix(0.14,0,0,0.135,102,157.600006)"/>
<path style="fill-rule:evenodd;fill:rgb(56.470591%,56.078434%,54.11765%);fill-opacity:1;stroke-width:3.1;stroke-linecap:butt;stroke-linejoin:miter;stroke:rgb(0%,0%,0%);stroke-opacity:1;stroke-miterlimit:4;" d="M 425.195311 60.196712 L 425.195311 184.21291 L 442.912945 184.21291 L 442.912945 60.196712 Z M 425.195311 60.196712 " transform="matrix(0.14,0,0,0.135,97,157.600006)"/>
<path style="fill-rule:evenodd;fill:rgb(100%,87.450981%,0%);fill-opacity:1;stroke-width:1.25;stroke-linecap:butt;stroke-linejoin:miter;stroke:rgb(0%,0%,0%);stroke-opacity:1;stroke-miterlimit:4;" d="M 655.498402 396.895158 C 655.498402 484.89919 599.894952 556.295358 531.495165 556.295358 C 463.095379 556.295358 407.505399 484.89919 407.505399 396.895158 C 407.505399 308.903727 463.00109 237.394151 531.495165 237.394151 C 600.002711 237.394151 655.498402 308.802921 655.498402 396.794351 Z M 637.799048 396.895158 C 637.799048 475.095762 590.196676 538.603826 531.495165 538.603826 C 472.793655 538.603826 425.204753 475.095762 425.204753 396.895158 C 425.204753 318.593747 472.793655 255.098284 531.495165 255.098284 C 590.196676 255.098284 637.799048 318.593747 637.799048 396.895158 Z M 637.799048 396.895158 " transform="matrix(0.29,0,0,0.31,4.8,-5.1)"/>
<path style="fill-rule:evenodd;fill:rgb(100%,87.450981%,0%);fill-opacity:1;stroke-width:1.25;stroke-linecap:butt;stroke-linejoin:miter;stroke:rgb(0%,0%,0%);stroke-opacity:1;stroke-miterlimit:4;" d="M 579.797969 249.994957 C 564.900339 241.90524 548.601847 237.394151 531.495165 237.394151 C 514.401954 237.394151 498.103462 241.90524 483.205832 249.894151 L 490.196673 266.300401 C 515.802816 251.582659 547.295274 251.582659 572.901417 266.300401 Z M 579.797969 249.994957 " transform="matrix(0.29,0,0,0.31,4.8,-5.1)"/>
<path style="fill-rule:evenodd;fill:rgb(100%,87.450981%,0%);fill-opacity:1;stroke-width:1.25;stroke-linecap:butt;stroke-linejoin:miter;stroke:rgb(0%,0%,0%);stroke-opacity:1;stroke-miterlimit:4;" d="M 579.803357 250.005019 C 564.905727 241.9027 548.593765 237.404212 531.500554 237.404212 C 514.393872 237.404212 498.09538 241.9027 483.197751 249.904212 L 490.202061 266.297861 C 515.808204 251.59272 547.300662 251.59272 572.893335 266.297861 Z M 579.803357 250.005019 " transform="matrix(0.29,0,0,-0.31,4.9,239.649994)"/>
<path style=" stroke:none;fill-rule:evenodd;fill:rgb(65.490198%,81.176472%,100%);fill-opacity:1;" d="M 189.800781 117.949219 C 189.800781 142.199219 175.949219 161.851562 158.949219 161.851562 C 141.949219 161.851562 128.148438 142.199219 128.148438 117.949219 C 128.148438 93.699219 141.949219 73.949219 158.949219 73.949219 C 175.949219 73.949219 189.800781 93.648438 189.800781 117.949219 "/>
<path style="fill-rule:evenodd;fill:rgb(68.627453%,100%,48.235294%);fill-opacity:1;stroke-width:1.25;stroke-linecap:butt;stroke-linejoin:miter;stroke:rgb(0%,0%,0%);stroke-opacity:1;stroke-miterlimit:4;" d="M 637.799048 396.895158 C 638.903574 423.49546 633.205837 436.499492 625.90519 464.196065 C 624.005944 467.195057 614.90034 457.694049 609.498939 452.993948 C 604.097538 448.293847 601.699909 457.202617 594.897646 449.994956 C 588.203141 442.598283 583.906266 451.998484 578.89549 445.798887 C 573.898184 439.599291 527.602385 438.80544 527.602385 438.200601 C 532.195597 435.99546 555.794735 438.402214 551.996244 427.099291 C 547.699369 415.304936 521.00217 426.696065 517.405725 411.701105 C 514.900337 396.706146 463.79581 396.101307 460.105077 392.497477 C 461.600228 398.104835 499.894949 400.498989 499.00594 415.002517 C 498.103462 421.0005 461.303892 422.701609 457.693978 427.704129 C 454.703676 434.004533 486.694518 426.003021 487.799044 433.702113 C 487.799044 436.902718 483.098074 433.702113 466.503246 438.704633 C 458.098073 441.199593 481.899259 448.999492 472.901414 453.296367 C 463.903569 457.605843 444.601305 459.495964 445.396025 461.297879 C 448.399797 470.294855 490.102384 480.904734 485.994087 482.40423 C 471.204215 488.994452 463.405185 493.303927 456.306586 497.09677 C 435.509171 467.8755 424.598611 432.769654 425.204753 396.895158 C 456.899258 385.504029 450.204754 383.097275 508.798505 383.097275 C 567.405727 383.097275 586.802279 385.403223 637.799048 396.895158 Z M 637.799048 396.895158 " transform="matrix(0.29,0,0,0.31,4.8,-5.1)"/>
<path style="fill-rule:evenodd;fill:rgb(100%,100%,100%);fill-opacity:1;stroke-width:1.25;stroke-linecap:butt;stroke-linejoin:miter;stroke:rgb(0%,0%,0%);stroke-opacity:1;stroke-miterlimit:4;" d="M 637.799048 396.895158 C 629.79797 396.895158 621.406267 400.297376 612.799047 400.297376 C 604.205297 400.297376 595.301741 396.794351 586.303896 396.794351 C 577.30605 396.794351 567.001632 401.406247 557.80174 401.406247 C 548.494088 401.406247 540.398722 396.895158 531.10454 396.895158 C 521.796889 396.895158 512.502708 400.297376 503.302816 400.297376 C 494.102923 400.297376 484.997319 396.794351 476.093763 396.794351 C 467.203677 396.794351 458.394409 400.297376 449.894948 400.297376 C 441.395486 400.297376 433.098072 396.794351 425.204753 396.794351 C 425.339451 377.200098 428.127706 358.828122 433.596456 341.703626 C 460.603461 343.694554 444.601305 326.003021 460.603461 326.003021 C 470.04581 325.486388 479.259173 329.052417 485.899798 335.793848 C 488.297427 335.793848 500.299044 324.402719 513.795812 326.003021 C 527.306049 327.603324 522.295273 353.296368 540.196674 354.594251 C 549.194519 361.398686 554.501632 365.695561 566.893873 368.505541 C 584.606697 370.105844 635.29366 365.997981 635.603466 368.303928 C 637.058207 377.767134 637.799048 387.318545 637.799048 396.895158 Z M 637.799048 396.895158 " transform="matrix(0.29,0,0,0.31,4.8,-5.1)"/>
<path style="fill-rule:evenodd;fill:rgb(0%,0%,0%);fill-opacity:1;stroke-width:1.25;stroke-linecap:butt;stroke-linejoin:miter;stroke:rgb(0%,0%,0%);stroke-opacity:1;stroke-miterlimit:4;" d="M 549.898445 474.007172 C 549.898445 468.294281 563.414069 464.501964 563.414069 455.403656 C 563.414069 446.305349 551.38282 446.09376 550.992195 437.597666 C 550.796882 434.098317 561.304694 430.598968 565.914069 430.192067 C 570.484382 429.801442 574.390632 437.597666 574.390632 439.30665 C 574.390632 440.999359 569.703132 435.107432 565.796882 434.993499 C 561.890632 434.895843 553.492195 435.595713 553.492195 437.304697 C 553.492195 440.70639 568.296882 444.905609 567.203132 456.298838 C 566.109382 467.496755 554.507819 470.898448 554.507819 474.300141 C 554.507819 477.701834 559.507819 487.09311 559.507819 487.09311 C 559.507819 487.09311 549.781257 479.606131 549.781257 473.89324 Z M 549.898445 474.007172 " transform="matrix(0.1,0,0,0.24,108.599998,29.75)"/>
<path style="fill-rule:evenodd;fill:rgb(0%,0%,0%);fill-opacity:1;stroke-width:1.25;stroke-linecap:butt;stroke-linejoin:miter;stroke:rgb(0%,0%,0%);stroke-opacity:1;stroke-miterlimit:4;" d="M 549.898368 473.994154 C 549.898368 468.29754 563.413993 464.505222 563.413993 455.406914 C 563.413993 446.292331 551.382743 446.097018 550.992118 437.600924 C 550.015556 433.597018 562.788993 430.992851 567.398368 430.699883 C 572.007743 430.406914 577.398368 438.707695 577.398368 440.302747 C 577.398368 441.8978 572.007743 435.094414 568.101493 434.996758 C 564.195243 434.899101 553.492118 435.598971 553.492118 437.307956 C 553.492118 440.693372 568.296805 444.892591 567.203056 456.302097 C 566.109306 467.500014 554.507743 470.901706 554.507743 474.303399 C 554.507743 477.705092 559.507743 487.096368 559.507743 487.096368 C 559.507743 487.096368 549.781181 479.593113 549.781181 473.896498 Z M 549.898368 473.994154 " transform="matrix(-0.1,0,0,0.24,222.899994,29.549999)"/>
<path style=" stroke:none;fill-rule:evenodd;fill:rgb(0%,0%,0%);fill-opacity:1;" d="M 166.5 132.449219 C 166.5 133.101562 166.148438 133.648438 165.75 133.648438 C 165.351562 133.648438 165.050781 133.101562 165.050781 132.398438 C 165.050781 131.699219 165.351562 131.199219 165.75 131.199219 C 166.148438 131.199219 166.5 131.75 166.5 132.449219 M 175 136.949219 L 175.199219 136.949219 L 175.199219 146.699219 L 174.949219 146.699219 Z M 177.050781 136.148438 L 177.300781 136.148438 L 177.300781 146 L 177.050781 146 Z M 177.050781 136.148438 "/>
<path style=" stroke:none;fill-rule:evenodd;fill:rgb(0%,0%,0%);fill-opacity:1;" d="M 176.300781 140.601562 L 176.300781 140.351562 L 178.300781 140.699219 L 178.300781 140.949219 Z M 176.300781 140.601562 "/>
<path style="fill-rule:evenodd;fill:rgb(71.764708%,30.19608%,0%);fill-opacity:1;stroke-width:1.25;stroke-linecap:butt;stroke-linejoin:miter;stroke:rgb(0%,0%,0%);stroke-opacity:1;stroke-miterlimit:4;" d="M 497.306049 477.998988 C 497.306049 477.998988 523.302817 489.402718 529.000554 496.194553 C 534.698291 502.998988 532.394951 502.998988 532.394951 502.998988 L 590.099694 505.304936 C 590.099694 501.902718 600.296353 501.902718 602.599694 493.901206 C 604.903035 485.899694 604.903035 483.694553 604.903035 483.694553 L 586.799586 489.402718 L 587.796353 479.196065 L 571.996245 479.196065 L 569.706374 489.402718 L 535.695059 488.293847 L 537.998399 461.0005 L 531.196136 462.096771 L 530.199369 488.104835 C 529.000554 488.104835 498.397105 480.204129 497.19829 477.998988 Z M 497.306049 477.998988 " transform="matrix(0.29,0,0,0.31,3.5,-4.75)"/>
<path style="fill-rule:evenodd;fill:rgb(99.607843%,87.058824%,0%);fill-opacity:1;stroke-width:1.25;stroke-linecap:butt;stroke-linejoin:miter;stroke:rgb(99.607843%,87.058824%,0%);stroke-opacity:1;stroke-miterlimit:4;" d="M 440.506478 316.3004 C 440.506478 316.3004 478.195056 305.098284 532.599691 305.904735 C 587.004327 306.698586 624.706375 318.694554 623.898185 318.694554 C 623.103466 318.694554 613.499478 300.297376 613.499478 300.297376 C 613.499478 300.297376 575.096999 289.800905 531.804972 288.994453 C 488.593763 288.200602 450.905185 296.995965 451.794193 297.802417 Z M 440.506478 316.3004 " transform="matrix(0.29,0,0,0.31,4.8,-5.1)"/>
<path style=" stroke:none;fill-rule:evenodd;fill:rgb(21.960784%,66.274512%,97.647059%);fill-opacity:1;" d="M 153 84.898438 L 159.800781 84.800781 L 159.898438 88.75 L 153.101562 88.898438 Z M 137.398438 87.050781 L 135 91 L 143.101562 90 L 142.449219 86.148438 L 137.398438 87.148438 Z M 144.25 85.550781 L 151.050781 85 L 151.351562 88.898438 L 144.601562 89.5 Z M 168.699219 85.199219 L 161.949219 84.699219 L 161.699219 88.699219 L 168.449219 89.101562 Z M 183.300781 87.699219 L 185.75 92.5 L 178.449219 90.699219 L 179.25 86.851562 L 183.25 87.648438 Z M 177.398438 86.199219 L 170.699219 85.351562 L 170.199219 89.25 L 176.949219 90.148438 Z M 177.398438 86.199219 "/>
<path style="fill-rule:evenodd;fill:rgb(100%,87.450981%,0%);fill-opacity:1;stroke-width:1.25;stroke-linecap:butt;stroke-linejoin:miter;stroke:rgb(0%,0%,0%);stroke-opacity:1;stroke-miterlimit:4;" d="M 532.599691 323.495461 L 530.094303 309.999997 L 522.49732 321.504534 L 525.299045 307.996469 L 513.997859 315.695562 L 521.594842 304.405239 L 508.205833 307.202618 L 519.695596 299.604332 L 506.198829 297.096772 L 519.695596 294.501005 L 508.205833 286.902719 L 521.594842 289.700098 L 513.90357 278.397175 L 525.299045 286.096268 L 522.49732 272.600804 L 530.094303 284.10534 L 532.599691 270.597276 L 535.199368 284.10534 L 542.702062 272.600804 L 539.994627 286.096268 L 551.295813 278.397175 L 543.604541 289.700098 L 557.101308 286.902719 L 545.598075 294.501005 L 559.094843 297.096772 L 545.598075 299.604332 L 557.101308 307.202618 L 543.604541 304.405239 L 551.295813 315.695562 L 539.994627 307.996469 L 542.796351 321.504534 L 535.199368 309.999997 Z M 532.599691 323.495461 " transform="matrix(0.29,0,0,0.31,4.8,-5.1)"/>
<path style="fill-rule:evenodd;fill:rgb(100%,87.450981%,0%);fill-opacity:1;stroke-width:1.25;stroke-linecap:butt;stroke-linejoin:miter;stroke:rgb(0%,0%,0%);stroke-opacity:1;stroke-miterlimit:4;" d="M 547.006587 293.900002 C 547.006587 303.196877 540.400227 310.696877 532.203955 310.696877 C 523.993977 310.696877 517.401324 303.196877 517.401324 293.900002 C 517.401324 284.603127 523.993977 276.993752 532.203955 276.993752 C 540.400227 276.993752 547.006587 284.603127 547.006587 293.993752 Z M 547.006587 293.900002 " transform="matrix(0.285,0,0,0.25,9.15,10.9)"/>
<path style=" stroke:none;fill-rule:evenodd;fill:rgb(0%,0%,0%);fill-opacity:1;" d="M 160.351562 85.300781 C 160.351562 85.550781 159.699219 85.800781 158.949219 85.800781 C 158.199219 85.800781 157.550781 85.550781 157.550781 85.300781 C 157.550781 85.050781 158.148438 84.800781 158.949219 84.800781 C 159.75 84.800781 160.351562 85 160.351562 85.300781 M 163.351562 85.300781 C 163.285156 85.601562 162.949219 85.765625 162.351562 85.800781 C 161.449219 85.851562 161.25 85.550781 161.25 85.300781 C 161.25 85.050781 161.75 84.800781 162.300781 84.800781 C 162.851562 84.800781 163.351562 85 163.351562 85.300781 "/>
<path style="fill:none;stroke-width:1.25;stroke-linecap:butt;stroke-linejoin:miter;stroke:rgb(0%,0%,0%);stroke-opacity:1;stroke-miterlimit:4;" d="M 529.399293 297.89791 L 530.202493 298.698766 C 528.299448 296.695561 529.199399 297.4994 531.798025 301.898779 C 534.197183 301.394568 534.901501 300.499093 536.60039 299.498343 " transform="matrix(0.28,-0.09,0.085,0.3,-13.35,45.299999)"/>
<path style="fill:none;stroke-width:1.25;stroke-linecap:butt;stroke-linejoin:miter;stroke:rgb(0%,0%,0%);stroke-opacity:1;stroke-miterlimit:4;" d="M 527.793658 304.304433 L 528.601847 305.098284 C 526.702602 303.094755 527.60508 304.10282 531.794197 306.698586 C 535.794736 307.202618 539.903033 305.501509 542.300662 302.70413 " transform="matrix(0.29,0,0,0.31,4.35,-5.1)"/>
<path style=" stroke:none;fill-rule:evenodd;fill:rgb(71.764708%,88.235295%,100%);fill-opacity:1;" d="M 140.699219 97.398438 C 140.699219 97.398438 141.199219 101.398438 138.148438 106.398438 C 135.101562 111.398438 135.601562 109.601562 135.601562 109.601562 C 135.601562 109.601562 137 112.351562 136.75 112.351562 C 136.5 112.351562 134.398438 109.851562 134.398438 109.851562 L 131.898438 112.601562 C 131.898438 112.601562 134.199219 108.351562 133.949219 108.351562 C 133.699219 108.351562 133.25 106.851562 133.25 106.851562 L 135.101562 106.101562 C 135.101562 106.101562 137.898438 100.898438 137.898438 101.148438 C 137.898438 101.398438 129.550781 106.851562 129.550781 106.851562 Z M 142.550781 98.898438 C 142.300781 98.898438 143.699219 102.898438 144.898438 104.898438 C 146.050781 106.898438 146.050781 109.351562 146.050781 109.351562 L 150 111.351562 L 144.898438 103.648438 L 148.148438 104.851562 Z M 142.550781 109.351562 C 142.550781 109.351562 145.351562 112.351562 145.550781 113.351562 C 145.75 114.351562 145.800781 116.550781 145.800781 116.550781 L 144.648438 114.050781 L 143 116.300781 C 143 116.300781 144.199219 112.800781 143.949219 112.550781 C 143.699219 112.300781 142.101562 113.800781 142.101562 113.800781 C 142.101562 113.800781 142.800781 111.800781 142.800781 111.601562 C 142.800781 111.398438 142.800781 110.101562 142.550781 109.351562 M 128.601562 116.300781 C 129.550781 115.550781 131.398438 115.050781 131.398438 115.050781 C 131.398438 115.050781 130.25 117.050781 130 117.050781 C 129.75 117.050781 129.101562 117.050781 128.601562 116.300781 M 160.648438 105.398438 C 160.648438 105.398438 166.699219 109.101562 166.699219 109.351562 C 166.699219 109.601562 162.75 107.601562 162.75 107.601562 Z M 149.75 97.648438 C 150.25 97.898438 158.601562 104.851562 158.351562 104.851562 C 158.101562 104.851562 154.648438 102.851562 154.648438 103.148438 L 154.648438 104.851562 L 152.75 100.898438 L 152.300781 102.398438 Z M 151.851562 108.851562 L 154.148438 113.550781 L 156.5 113.050781 C 156.5 113.050781 152.101562 108.851562 151.851562 108.851562 M 159.050781 105.851562 L 159.300781 110.351562 C 159.300781 110.351562 160.648438 111.601562 160.648438 111.351562 C 160.648438 111.101562 159.300781 106.101562 159.050781 105.851562 "/>
<path style=" stroke:none;fill-rule:evenodd;fill:rgb(59.607846%,25.098041%,0%);fill-opacity:1;" d="M 91.300781 44.75 C 91.300781 44.75 101.800781 38.949219 113.75 34.648438 C 122.542969 31.421875 131.613281 29.011719 140.851562 27.449219 C 144.351562 27.449219 150.449219 36.351562 151.449219 36.351562 C 152.449219 36.351562 156.5 33.851562 161.601562 33.851562 C 166.699219 33.851562 169.648438 37.851562 170.699219 37.851562 L 179.800781 37.851562 C 180.800781 37.851562 176.75 27.949219 179.800781 28.449219 C 181.300781 28.699219 194.199219 30.699219 206.199219 34.550781 C 218.199219 38.449219 235.199219 45.351562 235.199219 45.351562 C 235.199219 45.351562 207.449219 49 200 47.949219 C 199 48.449219 200 54.449219 198.5 51.800781 C 196.199219 51.300781 187.648438 49.949219 186.148438 49.949219 C 184.648438 49.949219 181.800781 51.648438 177.75 52.648438 C 173.75 53.648438 168.648438 55.148438 168.648438 55.148438 L 175.25 65.5 L 167.148438 69.5 C 167.148438 69.5 162.101562 57.601562 160.050781 57.601562 C 158 57.601562 157.050781 66 154.5 65.5 C 151.949219 65 151 57.601562 148.949219 55.601562 C 146.949219 53.648438 136.25 52.898438 132.199219 51.949219 C 128.199219 50.949219 121.648438 50.199219 118.101562 49.199219 C 114.550781 48.199219 111 51.699219 109.5 51.699219 C 108 51.699219 111.5 48.699219 110 48.199219 C 108.5 47.699219 107.5 49.699219 106.5 49.699219 C 105.5 49.699219 94.851562 47.699219 93.851562 47.199219 C 92.851562 46.699219 96.351562 44.75 95.351562 44.75 Z M 91.300781 44.75 "/>
<path style="fill-rule:evenodd;fill:rgb(50.196081%,50.196081%,50.196081%);fill-opacity:1;stroke-width:3.7;stroke-linecap:butt;stroke-linejoin:miter;stroke:rgb(46.666667%,14.901961%,0%);stroke-opacity:1;stroke-miterlimit:4;" d="M 463.004236 -64.993993 C 463.004236 -43.810098 442.407645 -26.592549 417.088043 -26.592549 C 391.803952 -26.592549 371.313895 -43.810098 371.313895 -64.993993 C 371.313895 -86.207936 391.803952 -103.305292 417.088043 -103.305292 C 442.407645 -103.305292 463.004236 -86.087744 463.004236 -64.993993 Z M 463.004236 -64.993993 " transform="matrix(0.11,0,0,0.13,115.800003,48.25)"/>
<path style="fill-rule:evenodd;fill:rgb(59.607846%,25.098041%,0%);fill-opacity:1;stroke-width:5.3;stroke-linecap:butt;stroke-linejoin:miter;stroke:rgb(46.666667%,14.901961%,0%);stroke-opacity:1;stroke-miterlimit:4;" d="M 284.687511 -59.999992 C 291.400474 -66.591789 299.704872 -76.601555 321.40626 -76.601555 C 326.412047 -78.310539 326.412047 -88.295891 337.98612 -88.295891 C 349.589129 -88.295891 346.290518 -78.310539 354.710657 -74.89257 C 362.986119 -71.596672 431.302089 -78.310539 431.302089 -78.310539 C 431.302089 -78.310539 437.899311 -73.305656 437.899311 -66.591789 C 437.899311 -59.902336 432.893524 -54.995109 431.302089 -54.995109 C 429.710654 -54.995109 362.986119 -59.999992 358.009268 -58.291007 C 353.003481 -56.606437 349.70487 -54.995109 337.98612 -54.995109 C 326.296306 -54.995109 322.997695 -66.591789 314.693297 -66.591789 C 306.388899 -66.591789 298.113437 -68.300773 284.687511 -59.902336 Z M 284.687511 -59.999992 " transform="matrix(0.135,0,0,0.16,102.699997,50.349998)"/>
<path style="fill:none;stroke-width:3.5;stroke-linecap:butt;stroke-linejoin:miter;stroke:rgb(46.666667%,14.901961%,0%);stroke-opacity:1;stroke-miterlimit:4;" d="M 487.899309 -76.591803 L 514.490743 -76.591803 C 524.097224 -76.494147 527.395835 -73.588874 536.192131 -73.295905 L 559.513889 -73.295905 C 567.991898 -73.588874 572.505787 -75.590827 581.099537 -76.591803 C 595.596064 -76.81153 590.706018 -77.910163 587.812499 -86.601569 C 585.208333 -93.09571 584.80324 -96.196296 581.099537 -99.907234 C 579.710648 -107.890632 576.498842 -110.698249 576.09375 -119.902351 C 574.58912 -126.909187 571.811342 -131.596687 574.502315 -139.897469 C 578.292824 -134.208992 579.797453 -131.889656 589.49074 -131.499031 C 599.502314 -131.499031 603.408563 -131.792 609.513887 -128.203133 C 614.085646 -123.295906 620.306711 -124.907234 629.508099 -124.907234 C 637.089118 -123.491218 638.391201 -119.609382 644.409719 -116.606453 C 651.498839 -112.602546 656.099534 -111.60157 665.995367 -111.60157 C 674.010412 -110.087898 681.012727 -108.989265 685.989579 -106.596687 C 690.300921 -101.494148 697.013884 -100.200202 706.012726 -99.907234 C 710.989578 -99.907234 715.011568 -100.395515 719.293976 -101.591804 C 726.990734 -101.201179 734.803234 -101.591804 744.293975 -101.591804 C 750.486104 -94.389655 751.903928 -91.704108 762.609946 -91.606452 C 769.988418 -86.406257 776.209483 -85.600593 782.604158 -83.305671 L 807.604157 -83.305671 C 816.602999 -82.597663 819.409712 -78.911139 827.598369 -76.591803 C 834.629619 -73.417975 841.83448 -70.659186 849.212952 -68.291022 C 856.359942 -66.997077 863.622673 -66.435553 870.91434 -66.606452 C 876.990728 -63.408209 884.513876 -63.188483 889.201376 -59.99024 C 896.08795 -58.500983 905.491885 -56.694342 910.787023 -55.009772 C 919.612255 -53.789068 922.997671 -51.005865 930.810171 -50.004889 C 937.494198 -48.002936 928.611097 -46.391607 924.097208 -45.000006 C 914.288181 -45.292975 913.593736 -49.003912 904.102996 -50.004889 C 899.097209 -52.910162 891.487256 -52.495123 884.108784 -55.009772 L 882.488413 -55.009772 C 889.085635 -51.005865 895.509246 -48.491217 892.499987 -41.606451 C 883.993043 -41.606451 877.106469 -42.705084 869.207164 -43.291021 C 860.787025 -44.90235 856.996516 -46.611334 847.592582 -46.611334 C 856.996516 -48.906256 859.398137 -46.391607 865.908553 -43.291021 C 868.310173 -35.307623 863.10184 -38.310552 854.189803 -38.310552 C 846.608785 -40.996099 842.008091 -44.291998 832.604156 -45.000006 L 812.609944 -45.000006 C 822.505777 -44.609381 824.58911 -40.898443 830.89698 -36.601568 C 831.388878 -33.989263 830.810175 -34.20899 825.891193 -33.30567 C 820.711796 -37.797857 813.998833 -39.311529 805.896981 -41.606451 C 797.997676 -41.89942 789.693278 -42.607428 782.604158 -45.000006 C 777.714112 -45.292975 778.495362 -51.103522 789.288186 -41.606451 C 795.798602 -37.797857 798.113417 -34.599615 797.592584 -31.596685 C 788.998834 -33.793951 784.803232 -37.21192 779.305547 -39.995123 C 771.811335 -42.607428 763.912029 -43.730474 756.012724 -43.291021 C 747.390039 -45.610357 756.909715 -46.904303 762.609946 -38.310552 C 774.994205 -29.497076 760.989576 -33.30567 756.012724 -34.99024 C 748.489576 -37.089849 740.706012 -40.190435 734.311336 -41.606451 C 729.305549 -43.095709 724.907401 -44.511725 719.293976 -45.000006 C 728.003466 -44.194342 730.896984 -41.093756 734.311336 -34.99024 C 743.107632 -29.008794 733.906243 -31.889654 726.006938 -33.30567 C 721.001151 -37.700201 714.490735 -39.995123 710.989578 -45.000006 C 702.714115 -49.101568 702.395828 -54.008795 707.690967 -43.291021 C 708.99305 -39.897467 708.703698 -32.500005 709.311337 -31.596685 C 703.206013 -38.310552 704.508096 -39.995123 697.708328 -39.995123 C 692.991893 -43.193365 686.192125 -45.708014 682.690968 -50.004889 C 676.296292 -50.590826 675.891199 -52.910162 669.409718 -55.009772 C 674.704857 -48.710943 681.793977 -42.509771 685.989579 -36.601568 C 693.599532 -32.402349 695.711801 -28.593755 701.006939 -25.004888 C 703.090272 -21.293951 708.99305 -18.291021 702.714115 -23.295904 C 695.509254 -30.30274 690.214116 -32.011724 679.392357 -36.601568 C 673.200227 -41.606451 671.001153 -43.608404 664.403931 -48.295904 C 655.405089 -51.201178 658.906246 -52.788092 664.403931 -43.291021 C 670.711802 -37.504888 675.486107 -31.108404 681.012727 -26.591802 C 685.324069 -21.440435 690.358791 -16.972661 696.001152 -13.310552 C 697.505782 -11.088872 701.990735 -10.698247 696.001152 -9.990239 C 690.995366 -14.604497 683.587958 -17.509771 677.714116 -21.70899 C 669.409718 -24.003912 665.503468 -28.300787 659.398145 -33.30567 C 655.405089 -39.189459 649.010413 -43.70606 644.409719 -48.295904 C 634.803238 -52.104498 646.290506 -44.707037 649.386571 -39.995123 C 651.498839 -33.891607 654.189811 -29.008794 656.012728 -23.295904 C 658.790506 -17.80274 647.592589 -24.589849 644.409719 -26.591802 C 637.812497 -30.864263 630.434025 -33.720709 622.708331 -34.99024 C 616.082174 -36.333013 609.398147 -37.431646 602.714119 -38.310552 C 595.190971 -40.288092 606.79398 -33.500982 611.105322 -26.591802 C 619.496526 -18.70606 602.800925 -25.200201 597.795138 -26.591802 C 589.54861 -28.007818 581.157407 -28.569341 572.795139 -28.300787 C 562.089121 -27.690435 569.78588 -26.298833 572.795139 -21.70899 C 576.09375 -19.096685 578.408564 -13.701177 577.800926 -11.699224 C 570.798611 -12.7002 564.809028 -14.702154 556.099538 -14.995122 C 549.097223 -12.7002 540.792825 -13.310552 532.806714 -13.310552 C 532.488427 -9.111333 534.311344 -12.7002 537.812501 -8.305669 C 543.599538 -6.010747 547.390047 -3.20313 546.203705 -0.00488758 L 497.910882 -0.00488758 C 492.586809 1.411128 499.010419 0.70312 502.887734 6.70898 C 500.68866 12.104488 497.910882 10.004878 491.19792 10.004878 C 486.712966 8.198238 477.598383 7.392574 472.910883 4.999995 C 468.194448 4.999995 468.599541 3.803706 464.606486 3.291011 C 478.611115 13.300777 471.6088 10.810542 479.594911 18.30566 C 480.896994 18.793941 484.1088 19.99023 481.186346 19.99023 M 371.290517 73.310544 C 370.306721 73.310544 368.107647 67.890622 364.693295 63.300778 C 362.291675 57.294918 359.311351 60.688473 356.302092 51.606442 C 356.707184 42.207027 356.996536 40.595699 356.302092 31.611324 C 349.502324 26.801754 346.608805 25.410152 341.313666 16.596675 C 332.893528 9.589839 342.586815 -2.397466 344.207185 -11.210943 C 336.799778 -12.797857 333.211815 0.288081 321.898158 4.999995 C 313.709501 10.49316 320.914362 -6.401372 316.892371 -16.191411 C 314.201399 -30.107427 306.099547 -9.208989 303.090288 -3.300786 C 297.592603 0.410151 295.914363 5.195308 288.101863 -1.689458 C 288.101863 -6.791997 292.991909 -21.196294 290.908576 -24.003912 C 283.096076 -20.097661 272.910891 -8.500982 264.80904 -6.694341 C 256.591448 -8.403325 266.487281 -21.489263 266.487281 -31.20606 C 263.506957 -32.207037 251.788207 -5.400396 247.013902 -5.205083 C 242.210661 -5.009771 244.293994 -31.20606 242.008115 -30.595709 C 238.506958 -25.590826 231.388902 -15.190435 226.498856 -11.601568 C 217.008116 -12.895513 227.887745 -29.106451 229.305569 -35.087896 C 230.897004 -42.290045 220.393532 -21.293951 214.809042 -20.000005 C 210.700246 -16.411138 202.598394 -13.994146 199.791681 -13.310552 C 203.003487 -19.511724 218.802097 -32.011724 217.789366 -35.600592 C 208.501172 -35.307623 194.409737 -23.100591 186.510432 -21.611333 C 181.302099 -21.611333 174.097238 -19.902349 173.200247 -20.000005 C 173.60534 -28.007818 192.586821 -34.599615 195.59608 -39.506842 C 186.307886 -37.99317 168.397007 -29.790044 163.188674 -23.295904 C 156.996544 -22.001958 149.21298 -20.292974 143.194461 -23.295904 C 144.091452 -30.791021 158.096081 -45.292975 161.192146 -50.102545 C 152.714137 -46.391607 148.4896 -43.510748 139.490758 -41.801764 C 137.812517 -40.092779 133.009277 -36.503912 134.513906 -40.092779 C 137.204878 -47.099615 141.197934 -50.102545 144.496545 -55.107428 C 137.002332 -53.691412 134.195619 -49.394537 126.209508 -45.097662 C 121.087981 -44.90235 106.504648 -30.205084 101.585667 -30.009771 C 93.310204 -23.466802 83.616917 -18.901372 73.287057 -16.704107 C 65.706039 -15.288091 62.002335 -13.701177 58.298631 -9.990239 C 62.089141 -16.704107 67.905112 -23.002935 73.287057 -26.591802 C 76.614603 -32.670904 81.909742 -37.382818 88.304417 -39.995123 C 90.214139 -42.290045 95.393537 -42.900396 89.895852 -43.291021 C 85.208353 -39.091803 77.193307 -34.306646 73.287057 -31.596685 C 68.194464 -28.398443 62.291687 -25.200201 59.890067 -26.591802 C 62.609974 -33.793951 67.413214 -35.600592 71.608816 -41.606451 C 80.405112 -47.197271 71.608816 -43.608404 64.895853 -41.606451 C 60.613446 -37.797857 52.887752 -34.892584 46.608817 -31.596685 C 39.606503 -29.790044 34.890068 -25.590826 26.58567 -23.295904 C 26.58567 -20.903326 28.98729 -27.592779 30.000021 -30.009771 C 36.79979 -37.407232 38.593771 -39.506842 46.608817 -41.606451 C 48.605345 -44.511725 51.006965 -43.291021 44.988447 -43.291021 C 40.387752 -39.311529 34.195623 -37.089849 28.292846 -33.30567 C 22.390068 -32.011724 14.693309 -31.596685 6.707198 -31.596685 C -3.709468 -30.400396 -2.812477 -29.594732 6.707198 -34.99024 C 12.002337 -39.995123 16.400485 -38.701178 16.689837 -45.000006 C 10.410902 -40.410162 2.714143 -36.992193 -5.011551 -33.30567 C -11.406227 -33.110357 -13.113403 -31.596685 -19.999977 -31.596685 C -16.701366 -34.99024 -14.704838 -39.311529 -9.988403 -41.606451 C -2.986088 -49.296881 -14.386551 -43.095709 -16.701366 -41.606451 L -41.701365 -41.606451 C -46.099513 -35.991217 -41.903911 -41.606451 -38.287013 -45.000006 C -34.004606 -47.197271 -29.490717 -50.102545 -30.01155 -51.591803 C -34.988402 -47.294928 -40.688633 -45.292975 -44.999976 -41.606451 C -49.60067 -40.190435 -55.011549 -39.604498 -55.011549 -38.310552 C -51.307846 -43.608404 -45.405068 -46.904303 -41.585624 -51.591803 C -36.001133 -52.788092 -31.197893 -54.594733 -30.01155 -56.596686 L -53.304373 -56.596686 L -36.695578 -56.596686 C -28.188634 -56.596686 -21.012708 -57.40235 -13.287014 -58.30567 C -0.09257 -60.502936 -14.502292 -61.601569 -21.707152 -61.601569 C -23.009236 -64.189459 -17.511551 -65.605475 -11.695579 -66.606452 C -6.689792 -68.99903 -0.410857 -71.098639 5.000022 -73.295905 C 9.774328 -74.736335 14.259281 -76.982428 18.310207 -79.912116 C 13.30442 -79.692389 13.30442 -78.4961 8.298633 -78.300788 C 15.792846 -78.789069 21.087985 -79.912116 30.000021 -79.912116 C 37.320623 -82.304694 44.525484 -85.087897 51.585669 -88.188483 C 54.594928 -91.801765 55.810206 -91.606452 48.287058 -91.606452 C 55.00002 -93.706062 64.490761 -94.804694 69.90164 -96.611335 C 76.788214 -98.051765 83.501177 -100.24903 89.895852 -103.203132 C 94.785898 -106.499031 97.592611 -110.405281 103.206037 -113.188484 C 109.687518 -108.793953 109.803259 -108.208015 121.493073 -108.208015 C 130.897008 -108.305671 136.71298 -110.600593 141.487286 -114.897468 C 148.692146 -116.899421 149.99423 -120.292976 158.211822 -121.489265 C 165.908581 -120.292976 173.692145 -119.755867 181.504645 -119.902351 C 189.490756 -122.001961 197.187515 -125.908211 203.090292 -129.912117 C 208.21182 -132.402351 214.288209 -135.991219 219.785894 -138.188484 C 225.804412 -135.087898 230.607652 -132.597664 238.101865 -131.499031 C 245.798624 -132.69532 249.90742 -136.503914 256.388901 -138.188484 C 260.410892 -142.460945 265.64816 -145.366219 271.406262 -146.489266 C 281.099548 -151.298836 280.405104 -145.000008 284.687511 -139.897469 C 289.693298 -134.697273 296.087974 -137.211922 303.003483 -134.892586 C 306.909733 -128.91114 309.68751 -124.907234 314.693297 -121.611336 C 318.599547 -116.801765 323.200241 -115.605476 331.388898 -114.897468 C 334.398157 -110.893562 331.996537 -108.110359 337.98612 -106.596687 C 340.387741 -104.008796 344.496537 -103.00782 347.997694 -101.591804 " transform="matrix(0.135,0,0,0.16,102.699997,52.450001)"/>
<path style="fill:none;stroke-width:3.1;stroke-linecap:butt;stroke-linejoin:miter;stroke:rgb(47.058824%,14.901961%,0%);stroke-opacity:1;stroke-miterlimit:4;" d="M 468.686347 30.80566 L 468.686347 31.611324 C 468.686347 29.291988 468.686347 30.610347 470.393522 35.004879 C 471.001161 38.593746 469.612272 38.203121 467.905097 40.791012 C 467.58681 44.501949 467.094911 47.21191 467.094911 51.606442 C 466.487273 55.195309 464.490745 58.588864 462.89931 61.591793 C 461.307875 64.692379 454.392366 66.49902 454.594912 70.795895 C 450.601857 71.894528 450.486116 69.306637 450.39931 64.912106 C 447.99769 62.202145 447.187505 58.491207 445.393523 54.90234 C 444.409727 51.508785 442.008107 48.896481 440.387737 44.892574 C 437.986116 41.206051 435.902783 40.107418 433.790515 35.810543 C 432.893524 33.80859 433.09607 31.196285 431.302089 29.999996 C 428.611117 26.508785 426.7882 25.99609 422.1007 25.800777 C 418.512737 26.606441 417.094913 28.193355 413.796302 29.096676 C 411.192136 29.999996 406.186349 29.707027 403.003479 30.80566 C 402.193294 32.099605 404.594914 32.807613 405.491905 35.810543 C 403.292831 37.59277 402.511581 40.693356 401.296303 43.30566 C 399.299775 45.795895 397.997692 46.992184 397.100701 50.800778 C 398.48959 53.0957 397.303248 56.196286 395.509266 58.295895 C 394.901627 62.104489 392.991905 64.204098 392.094914 67.40234 C 389.490748 69.306637 388.506952 70.991208 386.307878 74.091794 C 384.398155 76.801755 382.69098 76.606442 378.00348 76.606442 C 374.299776 75.605466 373.807878 73.603513 370.509267 72.407223 C 370.364591 71.528317 369.785888 70.991208 368.802091 70.795895 " transform="matrix(0.135,0,0,0.16,102.699997,52.450001)"/>
<path style=" stroke:none;fill-rule:evenodd;fill:rgb(50.588238%,18.039216%,0%);fill-opacity:1;" d="M 153.800781 62.75 C 153.800781 62.75 153.601562 65.25 152 66.898438 C 150.398438 68.550781 147.101562 70.449219 147.101562 70.449219 C 147.101562 70.449219 151.550781 68.351562 152 68.800781 C 152.449219 69.25 149.148438 72.949219 149.148438 72.949219 C 149.148438 72.949219 153.5 69.101562 154.050781 69.101562 C 154.601562 69.101562 155.851562 72.851562 156.351562 72.75 C 156.851562 72.648438 155.351562 68 155.550781 67.25 C 155.75 66.550781 155.550781 62.601562 155.550781 62.601562 L 153.851562 62.75 Z M 164.050781 62.449219 C 164.050781 62.449219 163.851562 65.101562 162.25 66.851562 C 160.648438 68.601562 157.351562 70.648438 157.351562 70.648438 C 157.351562 70.648438 161.800781 68.398438 162.25 68.898438 C 162.699219 69.398438 159.398438 73.300781 159.398438 73.300781 C 159.398438 73.300781 163.75 69.199219 164.300781 69.199219 C 164.851562 69.199219 166.101562 73.199219 166.601562 73.101562 C 167.101562 73 165.601562 68 165.800781 67.25 C 166 66.449219 165.800781 62.25 165.800781 62.25 Z M 149.699219 38.449219 C 149.699219 38.898438 149.199219 39.300781 148.648438 39.300781 C 148.101562 39.300781 147.550781 38.898438 147.550781 38.398438 C 147.550781 37.898438 148.050781 37.5 148.648438 37.5 C 149.25 37.5 149.699219 37.898438 149.699219 38.398438 Z M 149.699219 38.449219 "/>
</g>
</svg>
