<?xml version="1.0" encoding="UTF-8"?>
<svg xmlns="http://www.w3.org/2000/svg" xmlns:xlink="http://www.w3.org/1999/xlink" width="px" height="px" viewBox="0 0 320 240" version="1.1">
<g id="surface1">
<rect x="0" y="0" width="320" height="240" style="fill:rgb(40.784314%,74.901962%,89.803922%);fill-opacity:1;stroke:none;"/>
<path style=" stroke:none;fill-rule:nonzero;fill:rgb(100%,100%,100%);fill-opacity:1;" d="M 210.449219 96.601562 L 210.449219 164.800781 C 210.449219 187.101562 250.75 200.300781 250.75 200.300781 C 250.75 200.300781 291 187.101562 291 164.800781 L 291 96.601562 Z M 210.449219 96.601562 "/>
<path style=" stroke:none;fill-rule:nonzero;fill:rgb(82.352942%,6.27451%,20.392157%);fill-opacity:1;" d="M 245.148438 120.601562 L 245.148438 151.300781 L 210.449219 151.300781 L 210.449219 162.449219 L 245.148438 162.449219 L 245.148438 198.199219 L 250.75 200.351562 L 256.300781 198.199219 L 256.300781 162.5 L 291 162.5 L 291 151.300781 L 256.300781 151.300781 L 256.300781 120.601562 Z M 245.148438 120.601562 "/>
<path style=" stroke:none;fill-rule:nonzero;fill:rgb(82.352942%,6.27451%,20.392157%);fill-opacity:1;" d="M 210.449219 96.601562 L 291 96.601562 L 291 123 L 210.398438 123 Z M 210.449219 96.601562 "/>
<path style="fill-rule:nonzero;fill:rgb(100%,100%,100%);fill-opacity:1;stroke-width:0.8;stroke-linecap:butt;stroke-linejoin:miter;stroke:rgb(0%,0%,0%);stroke-opacity:1;stroke-miterlimit:3;" d="M 811.803885 192.204465 C 811.803885 186.129408 805.705326 181.194158 798.196697 181.194158 C 790.688067 181.194158 784.60126 186.129408 784.60126 192.204465 C 784.60126 198.279522 790.688067 203.203021 798.196697 203.203021 C 805.705326 203.203021 811.803885 198.279522 811.803885 192.204465 Z M 811.803885 192.204465 " transform="matrix(0.33243,0,0,0.33243,-48.450001,48.75)"/>
<path style="fill-rule:nonzero;fill:rgb(100%,100%,100%);fill-opacity:1;stroke-width:0.8;stroke-linecap:butt;stroke-linejoin:miter;stroke:rgb(0%,0%,0%);stroke-opacity:1;stroke-miterlimit:3;" d="M 810.299809 186.505427 C 810.299809 183.133006 804.882785 180.395118 798.196697 180.395118 C 791.52236 180.395118 786.105336 183.133006 786.105336 186.505427 C 786.105336 189.866097 791.52236 192.603985 798.196697 192.603985 C 804.882785 192.603985 810.299809 189.866097 810.299809 186.505427 Z M 810.299809 186.505427 " transform="matrix(0.33243,0,0,0.33243,-48.450001,48.75)"/>
<path style="fill-rule:nonzero;fill:rgb(100%,100%,100%);fill-opacity:1;stroke-width:0.8;stroke-linecap:butt;stroke-linejoin:miter;stroke:rgb(0%,0%,0%);stroke-opacity:1;stroke-miterlimit:3;" d="M 810.299809 198.796548 C 810.299809 195.435878 804.882785 192.69799 798.196697 192.69799 C 791.52236 192.69799 786.105336 195.435878 786.105336 198.796548 C 786.105336 202.168969 791.52236 204.895106 798.196697 204.895106 C 804.882785 204.895106 810.299809 202.168969 810.299809 198.796548 Z M 810.299809 198.796548 " transform="matrix(0.33243,0,0,0.33243,-48.450001,48.75)"/>
<path style="fill-rule:nonzero;fill:rgb(100%,100%,100%);fill-opacity:1;stroke-width:0.8;stroke-linecap:butt;stroke-linejoin:miter;stroke:rgb(0%,0%,0%);stroke-opacity:1;stroke-miterlimit:3;" d="M 810.299809 192.204465 C 810.299809 188.832044 804.882785 186.094156 798.196697 186.094156 C 791.52236 186.094156 786.105336 188.832044 786.105336 192.204465 C 786.105336 195.565135 791.52236 198.303023 798.196697 198.303023 C 804.882785 198.303023 810.299809 195.565135 810.299809 192.204465 Z M 810.299809 192.204465 " transform="matrix(0.33243,0,0,0.33243,-48.450001,48.75)"/>
<path style="fill-rule:nonzero;fill:rgb(100%,81.960785%,0%);fill-opacity:1;stroke-width:0.8;stroke-linecap:butt;stroke-linejoin:miter;stroke:rgb(0%,0%,0%);stroke-opacity:1;stroke-miterlimit:3;" d="M 578 235.398438 L 576.703125 231.796875 C 576.703125 231.796875 573.101562 230.296875 572.796875 228.398438 C 572.203125 223.296875 570.398438 221.398438 567.601562 220.601562 C 566.09375 220.171875 564.476562 220.351562 563.101562 221.101562 C 562.296875 222.296875 558.101562 222.296875 555.898438 222.398438 C 553.601562 222.398438 553.5 221.398438 553.5 221.398438 C 551.796875 221.398438 551 220.101562 551 220.101562 C 549.898438 217.796875 549 216.898438 548.398438 216.601562 C 551.398438 216.601562 553.601562 215.296875 557 211.796875 C 560.601562 208 563.203125 209.398438 563.203125 209.398438 C 561.398438 213 563.796875 212.703125 563.796875 212.703125 C 568.601562 210.203125 564.398438 204 563 204.296875 C 561.5 204.601562 561.101562 203.601562 561.101562 203.601562 C 561.101562 204.703125 559.5 205.203125 559.5 205.203125 C 560.703125 198.101562 556.5 196.203125 556.5 196.203125 C 555.898438 196.796875 555.5 198.101562 555.5 198.101562 C 554.296875 202.398438 550.398438 201.703125 546 199.601562 C 541.601562 197.601562 530 201.796875 526.296875 203.296875 C 522.601562 204.796875 515.898438 207 509.898438 203.703125 C 503.898438 200.398438 502.398438 200.898438 500 201.601562 C 497.703125 202.203125 493.5 203.203125 492 202.398438 C 490.9375 201.882812 489.78125 201.570312 488.601562 201.5 C 489 201.296875 488.398438 200.296875 488.398438 200.296875 C 486.5 197.796875 488.601562 196.296875 488.601562 196.296875 C 488.601562 196.296875 485.203125 197.296875 486.601562 203.101562 L 487.203125 203.898438 C 487.203125 203.898438 487.601562 205.796875 488.601562 206.296875 L 488.601562 206.703125 C 488.601562 206.703125 489.5 206.296875 489.703125 207.5 C 489.898438 208.703125 491.296875 207.5 491.796875 206.5 C 491.796875 206.5 490.898438 211.898438 497.5 213.203125 C 497.5 213.203125 496.796875 212.296875 497 211.796875 C 497.296875 211.203125 496.203125 210.796875 496.296875 210 C 496.398438 209.203125 494.703125 208.796875 496 208.101562 C 497.296875 207.398438 498 206.203125 501 208 C 503.898438 209.703125 506.203125 209.296875 506.203125 209.296875 C 506.203125 209.296875 504.398438 205.703125 505.398438 205.703125 C 506.398438 205.703125 510.796875 211.101562 512.898438 210.898438 C 515.101562 210.601562 519.296875 208.101562 521.398438 209 C 521.398438 209 521.601562 208 529.601562 206.601562 C 537.601562 205.203125 547.601562 201.203125 551.296875 204.703125 C 551.296875 204.703125 551.703125 207.5 553.296875 208.203125 C 553.296875 208.203125 553 214 543.101562 210.796875 L 539.5 209.796875 C 539.5 209.796875 538.898438 208.101562 520 213 C 520 213 518.898438 213.398438 518.101562 213.898438 C 517.296875 214.398438 516.398438 213.601562 512.601562 214.898438 C 508.898438 216.398438 494.898438 220.898438 486.296875 219.296875 C 484.398438 218.703125 482.703125 219 482.601562 218.703125 C 482.601562 218.398438 483.601562 218.796875 483.601562 218.796875 C 483 218.132812 482.703125 217.867188 482.703125 218 C 475.5 217.203125 476.703125 214 476.703125 214 L 477.101562 215 C 478.296875 213.398438 476.703125 209.796875 476.703125 209.796875 L 476.601562 209.796875 L 476.601562 209.5 L 477.101562 209.101562 C 480.601562 206.101562 484.601562 205.601562 484.601562 205.601562 C 482.203125 202.601562 477.203125 204.203125 477.203125 204.203125 C 477.296875 200.703125 475.796875 196.5 475.796875 196.5 C 472.71875 197.007812 469.960938 198.695312 468.101562 201.203125 C 467.898438 197.5 463.203125 195.398438 463.203125 195.398438 C 465 197.5 463.898438 202.601562 463.898438 202.601562 L 464.101562 202.601562 L 463.601562 202.601562 L 463.5 203.703125 L 463.296875 203.703125 C 463.296875 203.703125 461.601562 204.296875 459.601562 208.898438 C 459.601562 208.898438 459.398438 209.898438 458.601562 210.898438 L 458.601562 210.5 C 458.601562 210.5 456.296875 213.5 451.203125 210.5 C 451.203125 210.5 444.203125 206.398438 441.601562 206.5 C 439.203125 206.703125 437.601562 207.796875 437.703125 208.5 C 437.703125 208.5 432 208.101562 430.101562 211.296875 C 430.101562 211.296875 425.796875 212.898438 429.5 216.296875 C 429.5 216.296875 430 217.898438 431 218.703125 C 431 218.703125 430.898438 215.5 431.703125 216.398438 L 432.203125 217 C 432.296875 217.398438 432.703125 218.601562 433.398438 219.296875 L 434 219.101562 C 434 218.296875 434.203125 217.296875 434.398438 216.898438 L 434.601562 216.898438 L 435.601562 218.5 L 436.601562 217.898438 C 437.203125 217.898438 437.898438 218.398438 437.898438 218.398438 L 439.203125 217.296875 C 440.5 217.5 440.898438 214.898438 440.898438 214.898438 C 441.960938 215.164062 443.078125 214.984375 444 214.398438 C 444.601562 216.398438 449.203125 218.703125 449.203125 218.703125 L 449.398438 218.703125 L 448.796875 219.101562 C 450.898438 220.601562 454.796875 220.203125 454.796875 220.203125 C 453.203125 220.796875 453.398438 223.898438 453.398438 223.898438 C 452.398438 224.296875 452.398438 225.203125 452.398438 225.203125 C 455.601562 226.5 457.703125 225.398438 457.703125 225.398438 C 457.765625 226.335938 457.765625 226.734375 457.703125 226.601562 C 456.398438 229.296875 455.796875 232 455.796875 232 L 455.898438 232 L 455.898438 232.203125 C 455.898438 232.203125 450.203125 234.203125 447.796875 236.898438 C 447.796875 236.898438 447.5 236.101562 446.796875 236.101562 C 446.101562 236.101562 444 234.296875 443 234 C 442 233.703125 440.5 234.296875 440 233.796875 C 439.703125 233.398438 439.898438 230.203125 439.203125 229.796875 L 438.5 227.796875 C 438.101562 228.796875 436.101562 228.601562 436.101562 228.601562 L 435.296875 229.203125 L 434.5 229.101562 C 434.296875 229.164062 434.132812 229.5 434 230.101562 L 433.703125 230.398438 L 433.703125 229.796875 C 433.398438 230.101562 432.601562 229.703125 432.296875 229.703125 C 432.101562 229.703125 431.929688 230 431.796875 230.601562 L 429.898438 230.703125 C 429.601562 230.898438 429.898438 233.296875 429.898438 233.296875 C 427.601562 234.5 428.703125 236.398438 428.703125 236.398438 C 429.898438 242.398438 440.203125 239.703125 441 240.5 C 441.796875 241.296875 443.601562 241.5 444.5 241.5 C 445.5 241.5 446.601562 243.703125 447.898438 243.898438 C 449.203125 244.101562 447.898438 242.101562 454 240.703125 C 460.101562 239.296875 462.203125 236.703125 462.203125 236.703125 C 464.101562 236.296875 464.601562 234 464.703125 233.101562 L 464.898438 234.5 C 465.203125 236.601562 463.703125 237.5 463.703125 237.5 L 469 235.796875 C 471.101562 235.296875 470.796875 233.398438 470.796875 233.398438 C 472.796875 239.203125 476.5 239.601562 476.5 239.601562 C 477.203125 237.398438 477.101562 236.703125 477.101562 236.703125 L 478.796875 236.703125 C 478.796875 235.398438 477.796875 234.5 477.101562 234.101562 L 479.703125 235.601562 L 480.703125 235.5 C 480.703125 236.398438 482 237.203125 482 237.203125 L 482.203125 236 C 483.398438 237.601562 485.601562 237 485.601562 237 L 485.398438 236.203125 C 490.101562 239.101562 497.601562 235.398438 497.601562 235.398438 C 499.601562 235.796875 499.898438 234.601562 499.898438 234.601562 C 502.101562 234.898438 502.703125 233.296875 502.703125 233.296875 C 508 232.898438 511.796875 229.101562 511.796875 229.101562 C 514.5 228.898438 514.601562 227 514.601562 227 C 514.601562 227 517.203125 227.5 519.796875 224.296875 C 525.796875 215.796875 534.601562 220.296875 534.601562 220.296875 L 529.5 220.601562 C 516 220.5 521.601562 229.601562 521.601562 229.601562 L 522.398438 229.601562 C 523.703125 229.796875 528.101562 233.296875 526.398438 235.796875 L 526.398438 236 C 523.601562 239.703125 518.601562 236.203125 517.101562 233 C 515.703125 229.796875 512.703125 230.5 512.703125 230.5 C 512.703125 230.5 505.203125 231.796875 508.296875 237.796875 C 508.398438 239.296875 509.296875 241 512.101562 242.601562 C 513.601562 244.796875 518.601562 245 522.203125 244.203125 C 524 244 533 240 533 240 C 533.703125 238 536 238.5 538 235.601562 C 540 232.796875 535.101562 231.796875 534 230.203125 C 533 228.703125 534.296875 229 534.296875 229 C 538.703125 231.296875 539.101562 223.796875 539.101562 223.796875 C 539.453125 226.265625 541.085938 228.359375 543.398438 229.296875 C 545.703125 227 544 222.101562 544 222.101562 C 549.703125 232.296875 553.101562 230.601562 553.101562 230.601562 C 550.101562 228.796875 551.601562 226.203125 551.601562 226.203125 C 554.296875 237 565.601562 227.601562 565.601562 227.601562 C 565 229.203125 565.601562 230.101562 566.601562 231.101562 C 567.601562 232.101562 568.796875 232.5 568.203125 234.398438 C 567.703125 236.203125 562.398438 235.796875 562.398438 235.796875 C 562.398438 235.796875 557.398438 235.601562 557.796875 239.796875 C 558.101562 240.796875 561.398438 241.203125 562.796875 240.898438 C 562.796875 240.898438 562.203125 241.101562 564.101562 241.296875 L 566.296875 241.296875 C 568.398438 241.296875 570.796875 240.898438 570.796875 240.898438 C 573.703125 240.296875 573.203125 239.296875 573.203125 239.296875 C 577.703125 238.5 578.203125 235.5 578.203125 235.5 Z M 578 235.398438 " transform="matrix(0.5,0,0,0.5,0,0)"/>
<path style=" stroke:none;fill-rule:nonzero;fill:rgb(0%,0%,0%);fill-opacity:1;" d="M 214.800781 108.351562 C 214.800781 108.351562 214.949219 108.101562 215.148438 108.050781 C 215.351562 108.050781 215.550781 108.183594 215.75 108.449219 L 215.898438 108.351562 C 215.898438 108.351562 215.300781 107.449219 215.5 106.851562 C 215.632812 106.515625 215.898438 106.332031 216.300781 106.300781 L 216.300781 106.148438 C 215.800781 106.25 215.5 106.464844 215.398438 106.800781 L 215.300781 107.148438 C 215.300781 107.484375 215.382812 107.765625 215.550781 108 L 215.148438 107.898438 C 214.972656 107.921875 214.820312 108.035156 214.75 108.199219 Z M 285.300781 120.351562 C 283.800781 120.601562 281.550781 120.699219 281.351562 120.25 C 281.351562 120.148438 281.351562 119.851562 282.550781 119.050781 L 282.449219 118.800781 C 281.417969 119.464844 280.964844 119.964844 281.101562 120.300781 C 281.449219 121.199219 284.699219 120.699219 285.351562 120.601562 Z M 256.101562 121.199219 C 255.765625 120.667969 255.933594 119.949219 256.601562 119.050781 L 256.351562 118.898438 C 255.683594 119.898438 255.515625 120.734375 255.851562 121.398438 Z M 256.101562 121.199219 "/>
<path style=" stroke:none;fill-rule:nonzero;fill:rgb(0%,0%,0%);fill-opacity:1;" d="M 254.050781 118.898438 C 254.050781 119.867188 254.699219 120.714844 256 121.449219 L 256.148438 121.199219 C 254.949219 120.464844 254.351562 119.699219 254.351562 118.898438 C 254.25 117.648438 255.601562 116.648438 255.648438 116.648438 L 255.5 116.449219 C 255.398438 116.449219 254 117.5 254.050781 118.949219 Z M 280.050781 119.25 C 279.648438 119.898438 279.800781 120.648438 279.800781 120.648438 L 280.050781 120.648438 C 280.050781 120.601562 279.949219 119.949219 280.300781 119.398438 C 280.539062 119.074219 280.898438 118.855469 281.300781 118.800781 L 281.300781 118.550781 C 280.734375 118.648438 280.332031 118.882812 280.101562 119.25 Z M 220.5 107.550781 L 220.398438 107.550781 L 220.398438 107.648438 C 220.398438 107.648438 220.300781 108.449219 219.898438 108.648438 L 219.601562 108.648438 L 218.949219 108.300781 C 218.882812 108.199219 218.75 108.167969 218.550781 108.199219 C 218.398438 108 218.328125 107.75 218.351562 107.5 C 218.382812 107.167969 218.648438 106.832031 219.148438 106.5 L 219.050781 106.351562 C 218.550781 106.683594 218.265625 107.066406 218.199219 107.5 C 218.199219 108 218.449219 108.300781 218.449219 108.300781 L 218.449219 108.351562 L 218.550781 108.351562 C 218.648438 108.316406 218.75 108.351562 218.851562 108.449219 L 219.550781 108.851562 L 220.050781 108.851562 C 220.398438 108.601562 220.550781 107.898438 220.550781 107.75 C 222.148438 108.101562 223.449219 106.101562 223.550781 106.050781 L 223.398438 105.949219 C 223.398438 105.949219 222.050781 107.949219 220.5 107.550781 "/>
<path style=" stroke:none;fill-rule:nonzero;fill:rgb(0%,0%,0%);fill-opacity:1;" d="M 216.550781 107.25 C 216.496094 107.597656 216.570312 107.949219 216.75 108.25 C 216.917969 108.515625 217.082031 108.667969 217.25 108.699219 C 217.484375 108.699219 217.683594 108.601562 217.851562 108.398438 C 217.949219 108.300781 218.050781 108.234375 218.148438 108.199219 L 218.300781 108.300781 L 218.398438 108.199219 L 218.148438 108.050781 C 217.984375 108.050781 217.851562 108.132812 217.75 108.300781 C 217.648438 108.464844 217.484375 108.550781 217.25 108.550781 C 217.148438 108.550781 217.015625 108.417969 216.851562 108.148438 C 216.675781 107.902344 216.617188 107.589844 216.699219 107.300781 C 216.898438 106.601562 217.75 106.050781 217.75 106.050781 L 217.699219 105.898438 C 217.648438 105.898438 216.75 106.5 216.550781 107.25 M 214.351562 117.601562 C 214.417969 117.332031 214.632812 117.101562 215 116.898438 C 214.898438 116.898438 215.300781 117.199219 215.648438 117.199219 L 215.898438 117.050781 C 216 117.148438 216.601562 117.699219 216.601562 118.398438 C 216.601562 118.566406 216.566406 118.714844 216.5 118.851562 L 216.648438 118.898438 C 217.101562 117.851562 215.949219 116.898438 215.949219 116.898438 L 215.851562 116.898438 L 215.648438 117.050781 C 215.351562 117.050781 215 116.75 215 116.75 C 214.535156 116.949219 214.265625 117.214844 214.199219 117.550781 Z M 219.5 114.898438 C 219.148438 114.949219 218.25 115.101562 217.949219 115.601562 C 217.816406 115.800781 217.800781 116 217.898438 116.199219 L 218 116.5 C 218.300781 117.300781 218.601562 118.101562 218.949219 118.300781 L 219 118.148438 C 218.699219 118 218.398438 117.148438 218.148438 116.449219 L 218.050781 116.148438 C 217.960938 115.996094 217.960938 115.804688 218.050781 115.648438 C 218.300781 115.300781 219.148438 115.148438 219.550781 115.101562 C 219.75 115.101562 219.800781 115.851562 219.851562 116.300781 L 220 116.300781 C 219.949219 115.601562 219.851562 114.898438 219.5 114.898438 "/>
<path style=" stroke:none;fill-rule:nonzero;fill:rgb(0%,0%,0%);fill-opacity:1;" d="M 216.949219 115.699219 C 216.816406 115.898438 216.765625 116.050781 216.800781 116.148438 C 216.800781 116.199219 216.898438 118.148438 217.800781 118.550781 L 217.851562 118.398438 C 217.050781 118.050781 216.949219 116.148438 216.949219 116.101562 C 216.949219 116.035156 216.984375 115.933594 217.050781 115.800781 C 217.183594 115.667969 217.449219 115.667969 217.851562 115.800781 L 217.898438 115.648438 C 217.464844 115.515625 217.148438 115.515625 216.949219 115.648438 Z M 216.949219 115.699219 "/>
<path style=" stroke:none;fill-rule:nonzero;fill:rgb(0%,0%,0%);fill-opacity:1;" d="M 216.199219 115.851562 C 215.800781 116.148438 215.851562 116.949219 215.851562 117 L 216 117 C 216 117 216 116.199219 216.300781 116 C 216.433594 115.898438 216.601562 115.898438 216.800781 116 L 216.851562 115.800781 C 216.582031 115.699219 216.367188 115.699219 216.199219 115.800781 Z M 216.199219 115.851562 "/>
<path style=" stroke:none;fill-rule:nonzero;fill:rgb(0%,0%,0%);fill-opacity:1;" d="M 238.203125 105.097656 C 238.203125 105.097656 238.636719 106.09375 238.636719 106.859375 C 238.636719 106.992188 238.601562 107.101562 238.535156 107.191406 L 238.371094 106.757812 L 238.269531 107.089844 C 238.269531 107.089844 238.070312 107.558594 238.371094 108.054688 C 238.769531 108.71875 239.765625 109.128906 241.363281 109.285156 L 241.363281 109.320312 L 241.230469 109.351562 L 241.164062 109.417969 L 241.164062 109.550781 C 241.207031 109.683594 241.40625 109.738281 241.761719 109.71875 L 241.992188 109.75 L 242.195312 109.816406 L 242.160156 109.785156 C 242.515625 109.785156 242.914062 109.871094 243.355469 110.050781 L 243.023438 110.117188 L 243.390625 110.28125 C 243.421875 110.28125 246.28125 111.445312 247.445312 112.378906 C 247.113281 112.675781 245.683594 113.707031 243.222656 113.109375 L 242.824219 113.007812 L 243.089844 113.339844 C 243.089844 113.339844 244.71875 115.203125 245.050781 116.332031 C 244.488281 116.332031 242.328125 116.332031 241.5625 115.667969 L 241.394531 115.835938 C 241.394531 115.835938 242.394531 117.363281 242.660156 118.527344 C 242.328125 118.59375 241.660156 118.625 241.230469 118.0625 L 241.03125 117.828125 L 240.929688 118.492188 C 240.730469 118.328125 240.464844 118.128906 240.464844 117.863281 L 240.464844 117.730469 L 239.867188 117.828125 L 238.601562 117.0625 L 238.402344 116.929688 L 238.269531 117.164062 L 238.46875 117.265625 C 238.734375 117.464844 239.203125 117.828125 239.234375 118.359375 L 238.4375 118.359375 L 238.4375 118.527344 C 238.4375 118.625 238.4375 118.992188 238.136719 119.757812 C 237.773438 119.691406 236.375 119.191406 235.546875 116.832031 L 235.277344 116.898438 L 235.277344 116.964844 C 235.277344 117.199219 235.210938 117.730469 234.480469 117.929688 L 232.320312 118.59375 C 232.5 118.316406 232.59375 117.992188 232.585938 117.664062 L 232.585938 117.398438 L 232.519531 116.53125 C 232.496094 116.042969 232.652344 115.710938 232.984375 115.535156 L 232.851562 115.269531 C 232.820312 115.269531 229.660156 116.566406 228.097656 116.035156 C 228.164062 115.703125 228.429688 114.636719 228.960938 113.507812 L 228.894531 113.574219 C 228.996094 113.507812 229.097656 113.375 228.996094 112.84375 L 228.996094 112.675781 L 228.828125 112.742188 C 228.828125 112.742188 227.832031 113.207031 226.371094 112.675781 C 226.371094 112.519531 226.503906 112.367188 226.769531 112.210938 L 226.867188 112.175781 L 226.867188 111.910156 C 226.867188 111.511719 226.902344 110.582031 227.46875 110.382812 L 227.402344 110.117188 C 227.402344 110.117188 225.703125 110.25 224.675781 109.683594 C 225.121094 109.363281 225.628906 109.148438 226.171875 109.054688 L 226.269531 109.054688 L 226.269531 108.917969 C 226.265625 108.65625 226.210938 108.398438 226.105469 108.15625 C 226.503906 108.289062 226.96875 108.386719 227.132812 108.253906 L 227.199219 108.222656 L 227.132812 107.191406 L 226.867188 107.191406 L 226.902344 108.054688 L 225.90625 107.824219 L 225.503906 107.691406 L 225.773438 108.023438 C 225.933594 108.257812 226.015625 108.535156 226.003906 108.820312 C 225.402344 108.953125 224.835938 109.214844 224.34375 109.585938 L 224.175781 109.71875 L 224.34375 109.816406 C 225.140625 110.347656 226.371094 110.414062 227 110.382812 C 226.710938 110.828125 226.5625 111.347656 226.570312 111.878906 L 226.570312 112.011719 C 226.296875 112.164062 226.113281 112.433594 226.070312 112.742188 L 226.070312 112.84375 L 226.136719 112.875 C 226.960938 113.253906 227.898438 113.3125 228.761719 113.042969 L 228.761719 113.339844 C 228.097656 114.738281 227.765625 116.101562 227.765625 116.101562 L 227.765625 116.234375 L 227.867188 116.234375 C 229.164062 116.765625 231.421875 116.066406 232.453125 115.703125 C 232.320312 115.921875 232.242188 116.199219 232.21875 116.53125 L 232.320312 117.664062 C 232.320312 118.425781 231.820312 118.726562 231.789062 118.726562 L 231.886719 118.992188 L 234.546875 118.195312 C 235.144531 118.027344 235.378906 117.664062 235.476562 117.363281 C 236.507812 119.824219 238.136719 120.023438 238.238281 120.054688 L 238.335938 120.054688 L 238.371094 119.957031 C 238.546875 119.53125 238.660156 119.085938 238.703125 118.625 L 239.5 118.59375 L 239.5 118.425781 C 239.5 118.207031 239.457031 118.007812 239.367188 117.828125 L 239.832031 118.09375 L 240.265625 118.027344 C 240.363281 118.460938 240.898438 118.828125 240.964844 118.859375 L 241.128906 118.960938 L 241.230469 118.394531 C 241.894531 118.960938 242.792969 118.792969 242.859375 118.792969 L 242.957031 118.757812 L 242.957031 118.625 C 242.824219 117.730469 242.226562 116.664062 241.859375 116.101562 C 243.023438 116.632812 245.152344 116.597656 245.25 116.597656 L 245.386719 116.597656 L 245.386719 116.433594 C 244.945312 115.332031 244.316406 114.320312 243.523438 113.441406 C 246.25 113.941406 247.710938 112.511719 247.777344 112.445312 L 247.878906 112.34375 L 247.746094 112.277344 C 246.550781 111.425781 245.253906 110.722656 243.890625 110.183594 L 244.1875 110.117188 L 243.855469 109.949219 C 243.257812 109.648438 242.597656 109.488281 241.925781 109.484375 C 241.59375 109.085938 241.429688 109.054688 241.394531 109.019531 C 239.535156 108.820312 238.871094 108.320312 238.601562 107.921875 L 238.601562 107.824219 L 238.667969 107.722656 C 238.824219 107.5 238.902344 107.214844 238.902344 106.859375 C 238.902344 105.996094 238.46875 105.03125 238.46875 104.996094 Z M 238.203125 105.097656 "/>
<path style=" stroke:none;fill-rule:nonzero;fill:rgb(0%,0%,0%);fill-opacity:1;" d="M 229.726562 104.566406 C 229.726562 104.566406 229.527344 105.5625 228.664062 106.0625 C 228 106.414062 227.15625 106.382812 226.136719 105.960938 L 226.003906 105.929688 L 226.003906 106.0625 C 226.078125 106.488281 226.316406 106.871094 226.667969 107.125 C 227.113281 107.457031 227.765625 107.589844 228.628906 107.523438 C 228.332031 107.855469 227.433594 108.984375 227.433594 110.117188 L 227.433594 110.28125 C 227.566406 110.347656 228.960938 110.75 229.628906 109.917969 C 229.628906 110.25 229.761719 111.414062 230.191406 111.84375 C 230.4375 112.132812 230.546875 112.433594 230.523438 112.742188 C 230.503906 113.03125 230.480469 113.1875 230.457031 113.207031 L 230.390625 113.40625 L 230.558594 113.273438 C 230.625 113.242188 231.921875 112.277344 232.320312 111.046875 C 232.320312 111.046875 232.554688 110.714844 232.953125 110.613281 L 232.953125 110.78125 C 232.953125 111.28125 233.152344 112.144531 234.546875 112.675781 L 234.648438 112.710938 L 234.648438 112.378906 C 234.648438 112.011719 234.648438 111.378906 235.011719 111.046875 C 235.296875 110.757812 235.375 110.324219 235.210938 109.949219 C 235.511719 110.015625 236.175781 110.25 236.441406 110.75 C 236.839844 111.480469 238.203125 110.882812 238.269531 110.882812 L 238.238281 110.714844 C 238.238281 110.714844 237.640625 110.847656 237.273438 110.613281 C 237.113281 110.496094 237.019531 110.3125 237.007812 110.117188 L 236.941406 109.320312 C 236.941406 108.984375 236.863281 108.742188 236.707031 108.585938 C 236.875 108.585938 237.242188 108.585938 237.375 108.917969 C 237.640625 109.453125 238.46875 109.484375 238.503906 109.484375 L 238.804688 109.519531 L 238.570312 109.351562 C 238.570312 109.351562 237.839844 108.886719 237.972656 108.253906 L 238.070312 107.789062 C 238.269531 106.957031 238.601562 105.59375 238.304688 104.730469 L 238.171875 104.796875 C 238.238281 105.019531 238.269531 105.261719 238.269531 105.527344 C 238.269531 106.261719 238.039062 107.191406 237.9375 107.757812 L 237.804688 108.222656 L 237.804688 108.386719 C 237.851562 108.832031 237.992188 109.128906 238.238281 109.285156 C 238.003906 109.253906 237.671875 109.121094 237.574219 108.851562 C 237.339844 108.386719 236.808594 108.386719 236.574219 108.421875 L 236.375 108.453125 L 236.507812 108.585938 C 236.730469 108.699219 236.820312 108.953125 236.773438 109.351562 L 236.839844 110.117188 C 236.886719 110.382812 236.996094 110.582031 237.175781 110.714844 C 237.394531 110.824219 237.582031 110.882812 237.738281 110.882812 C 237.339844 110.980469 236.773438 111.046875 236.574219 110.683594 C 236.210938 109.949219 235.144531 109.785156 235.113281 109.75 L 234.945312 109.75 L 235.011719 109.882812 C 235.011719 109.882812 235.144531 110.082031 235.144531 110.347656 C 235.144531 110.527344 235.070312 110.714844 234.914062 110.914062 C 234.546875 111.28125 234.480469 111.976562 234.480469 112.34375 L 234.480469 112.476562 C 233.285156 111.976562 233.085938 111.246094 233.085938 110.816406 L 233.085938 110.480469 L 233.152344 110.382812 L 233.019531 110.382812 C 232.671875 110.464844 232.375 110.679688 232.1875 110.980469 C 231.855469 111.792969 231.316406 112.503906 230.625 113.042969 L 230.660156 112.710938 C 230.679688 112.398438 230.570312 112.078125 230.324219 111.746094 C 229.828125 111.28125 229.761719 109.75 229.761719 109.75 L 229.761719 109.484375 L 229.628906 109.71875 C 229.097656 110.648438 227.566406 110.183594 227.535156 110.183594 C 227.46875 109.019531 228.863281 107.492188 228.863281 107.457031 L 228.996094 107.324219 L 228.796875 107.324219 C 227.910156 107.433594 227.222656 107.324219 226.734375 106.992188 C 226.476562 106.773438 226.292969 106.484375 226.203125 106.160156 C 227.199219 106.539062 228.042969 106.546875 228.730469 106.195312 C 229.324219 105.855469 229.734375 105.269531 229.859375 104.597656 C 230.859375 102.402344 231.6875 102.039062 231.6875 102.039062 L 231.65625 101.90625 C 231.589844 101.90625 230.726562 102.238281 229.726562 104.566406 "/>
<path style=" stroke:none;fill-rule:nonzero;fill:rgb(0%,0%,0%);fill-opacity:1;" d="M 231.953125 101.273438 L 231.886719 101.273438 L 231.089844 102.371094 L 231.324219 102.371094 C 233.804688 102.566406 236.128906 103.652344 237.871094 105.429688 L 237.972656 105.527344 L 238.734375 104.699219 L 238.667969 104.597656 C 236.507812 101.207031 231.988281 101.273438 231.921875 101.273438 Z M 232.019531 101.574219 C 232.554688 101.574219 236.410156 101.671875 238.402344 104.664062 L 237.972656 105.128906 C 236.21875 103.464844 233.960938 102.421875 231.554688 102.171875 Z M 232.019531 101.574219 "/>
<path style=" stroke:none;fill-rule:nonzero;fill:rgb(0%,0%,0%);fill-opacity:1;" d="M 231.324219 103.535156 C 230.964844 104.003906 230.726562 104.550781 230.625 105.128906 L 230.660156 105.261719 C 230.179688 105.746094 229.9375 106.414062 229.992188 107.089844 C 229.992188 107.535156 230.058594 107.957031 230.191406 108.355469 L 230.292969 108.585938 C 230.691406 109.71875 231.058594 110.714844 232.886719 110.117188 C 234.613281 109.585938 234.679688 109.453125 235.113281 108.71875 L 235.246094 108.554688 C 235.476562 108.15625 235.746094 108.089844 236.011719 107.988281 C 236.34375 107.890625 236.675781 107.789062 237.007812 107.191406 L 237.273438 106.757812 C 237.605469 106.328125 238.003906 105.761719 238.039062 105.097656 L 237.90625 105.097656 C 237.804688 105.671875 237.550781 106.210938 237.175781 106.660156 L 236.839844 107.125 C 236.675781 107.484375 236.359375 107.753906 235.976562 107.855469 C 235.617188 107.929688 235.304688 108.144531 235.113281 108.453125 L 234.980469 108.652344 C 234.582031 109.351562 234.515625 109.453125 232.820312 109.984375 C 231.125 110.515625 230.824219 109.683594 230.425781 108.519531 L 230.324219 108.289062 C 229.859375 107.023438 230.226562 105.761719 230.859375 105.296875 L 231.058594 105.128906 L 230.757812 105.164062 L 230.757812 105.128906 C 230.757812 104.898438 230.992188 104.265625 231.421875 103.632812 C 231.820312 103.101562 232.753906 102.605469 232.753906 102.570312 L 232.6875 102.4375 C 232.621094 102.46875 231.722656 103.003906 231.324219 103.535156 "/>
<path style=" stroke:none;fill-rule:nonzero;fill:rgb(0%,0%,0%);fill-opacity:1;" d="M 230.523438 108.15625 C 230.8125 108.332031 231.222656 108.332031 231.753906 108.15625 C 231.753906 108.320312 231.753906 108.71875 232.085938 108.984375 C 232.488281 109.320312 233.097656 109.386719 233.917969 109.1875 L 233.917969 109.019531 C 233.117188 109.21875 232.542969 109.164062 232.1875 108.851562 C 231.972656 108.644531 231.863281 108.351562 231.886719 108.054688 L 231.886719 107.921875 L 231.789062 107.988281 C 231.300781 108.210938 230.902344 108.210938 230.589844 107.988281 C 230.09375 107.65625 230.125 106.757812 230.125 106.757812 L 229.992188 106.757812 C 229.992188 106.757812 229.925781 107.757812 230.523438 108.15625 "/>
<path style=" stroke:none;fill-rule:nonzero;fill:rgb(0%,0%,0%);fill-opacity:1;" d="M 231.457031 106.925781 C 231.277344 107.015625 231.191406 107.136719 231.191406 107.289062 L 231.191406 107.390625 C 231.257812 107.789062 231.6875 108.054688 232.054688 108.15625 C 232.421875 108.253906 232.917969 108.289062 233.085938 108.054688 C 233.171875 107.96875 233.171875 107.777344 233.085938 107.492188 C 232.789062 106.90625 232.085938 106.660156 231.488281 106.925781 Z M 232.121094 108.023438 C 231.789062 107.921875 231.390625 107.691406 231.355469 107.355469 C 231.355469 107.355469 231.324219 107.125 231.523438 107.058594 C 232.054688 106.84375 232.664062 107.074219 232.917969 107.589844 C 233.007812 107.746094 233.019531 107.855469 232.953125 107.921875 C 232.851562 108.089844 232.488281 108.121094 232.121094 108.023438 M 231.988281 108.917969 C 231.886719 109.75 231.988281 109.785156 232.019531 109.785156 L 232.085938 109.785156 L 232.152344 109.75 L 232.621094 109.085938 L 232.019531 108.820312 L 232.019531 108.917969 Z M 232.152344 109.054688 L 232.386719 109.152344 L 232.121094 109.519531 Z M 230.757812 108.253906 L 230.726562 109.019531 L 231.390625 108.222656 L 230.726562 108.15625 Z M 230.890625 108.320312 L 231.089844 108.320312 L 230.890625 108.585938 Z M 230.890625 108.320312 "/>
<path style=" stroke:none;fill-rule:nonzero;fill:rgb(0%,0%,0%);fill-opacity:1;" d="M 230.292969 107.988281 C 230.292969 107.988281 230.792969 108.953125 230.890625 109.320312 C 230.957031 109.539062 231.179688 109.730469 231.554688 109.882812 C 231.933594 110.039062 232.230469 110.027344 232.453125 109.851562 L 232.886719 109.484375 C 232.996094 109.328125 233.105469 109.273438 233.21875 109.320312 L 233.21875 109.152344 C 233.039062 109.152344 232.898438 109.21875 232.785156 109.351562 L 232.355469 109.683594 C 232.085938 109.882812 231.789062 109.816406 231.621094 109.75 C 231.269531 109.617188 231.066406 109.453125 231.023438 109.253906 C 230.925781 108.917969 230.457031 107.957031 230.425781 107.921875 Z M 230.957031 105.128906 C 230.582031 105.328125 230.296875 105.660156 230.160156 106.0625 L 230.292969 106.09375 C 230.292969 106.09375 230.523438 105.496094 230.992188 105.261719 C 231.246094 105.152344 231.535156 105.152344 231.789062 105.261719 L 231.820312 105.128906 C 231.511719 104.996094 231.210938 104.996094 230.925781 105.128906 Z M 234.546875 106.859375 C 234.613281 106.859375 235.613281 107.65625 235.046875 108.585938 L 235.144531 108.6875 C 235.8125 107.589844 234.648438 106.726562 234.648438 106.691406 Z M 231.488281 106.992188 C 231.488281 106.992188 231.324219 107.558594 232.152344 107.757812 C 232.152344 107.757812 231.390625 107.757812 231.324219 107.558594 C 231.289062 107.355469 231.324219 106.925781 231.488281 106.992188 M 233.984375 107.65625 C 233.984375 107.722656 233.949219 107.757812 233.882812 107.757812 L 233.78125 107.691406 C 233.78125 107.625 233.816406 107.589844 233.882812 107.589844 C 233.949219 107.589844 233.984375 107.625 233.984375 107.691406 Z M 234.050781 108.054688 C 234.050781 108.101562 234.027344 108.121094 233.984375 108.121094 L 233.882812 108.054688 L 233.984375 107.957031 C 234.027344 107.957031 234.050781 107.988281 234.050781 108.054688 "/>
<path style=" stroke:none;fill-rule:nonzero;fill:rgb(0%,0%,0%);fill-opacity:1;" d="M 233.550781 107.855469 C 233.550781 107.800781 233.503906 107.757812 233.449219 107.757812 C 233.394531 107.757812 233.351562 107.800781 233.351562 107.855469 C 233.351562 107.910156 233.394531 107.957031 233.449219 107.957031 C 233.503906 107.957031 233.550781 107.910156 233.550781 107.855469 Z M 233.550781 107.855469 "/>
<path style=" stroke:none;fill-rule:nonzero;fill:rgb(0%,0%,0%);fill-opacity:1;" d="M 233.714844 108.386719 C 233.714844 108.441406 233.671875 108.488281 233.617188 108.488281 C 233.5625 108.488281 233.515625 108.441406 233.515625 108.386719 C 233.515625 108.34375 233.550781 108.320312 233.617188 108.320312 Z M 231.355469 105.960938 C 231.355469 106.015625 231.3125 106.0625 231.257812 106.0625 C 231.203125 106.0625 231.15625 106.015625 231.15625 105.960938 C 231.175781 105.933594 231.207031 105.917969 231.238281 105.917969 C 231.273438 105.917969 231.304688 105.933594 231.324219 105.960938 Z M 231.355469 105.960938 "/>
<path style=" stroke:none;fill-rule:nonzero;fill:rgb(0%,0%,0%);fill-opacity:1;" d="M 231.421875 106.328125 C 231.421875 106.273438 231.378906 106.226562 231.324219 106.226562 C 231.269531 106.226562 231.222656 106.273438 231.222656 106.328125 C 231.222656 106.382812 231.269531 106.425781 231.324219 106.425781 C 231.378906 106.425781 231.421875 106.382812 231.421875 106.328125 Z M 231.421875 106.328125 "/>
<path style=" stroke:none;fill-rule:nonzero;fill:rgb(0%,0%,0%);fill-opacity:1;" d="M 230.925781 106.160156 C 230.925781 106.105469 230.878906 106.0625 230.824219 106.0625 C 230.769531 106.0625 230.726562 106.105469 230.726562 106.160156 C 230.726562 106.214844 230.769531 106.261719 230.824219 106.261719 C 230.878906 106.261719 230.925781 106.214844 230.925781 106.160156 Z M 230.925781 106.160156 "/>
<path style=" stroke:none;fill-rule:nonzero;fill:rgb(0%,0%,0%);fill-opacity:1;" d="M 231.058594 106.691406 L 230.992188 106.792969 C 230.9375 106.792969 230.890625 106.746094 230.890625 106.691406 C 230.890625 106.636719 230.9375 106.59375 230.992188 106.59375 Z M 232.652344 103.5 C 232.652344 103.5 233.816406 104.234375 232.6875 105.59375 C 232.6875 105.59375 233.25 105.164062 233.285156 104.464844 C 233.316406 103.765625 232.886719 103.203125 232.621094 103.5 Z M 237.140625 105.460938 C 236.742188 105.660156 236.210938 105.296875 235.945312 104.964844 C 235.679688 104.632812 235.113281 104.53125 234.746094 105.164062 C 234.414062 105.761719 233.917969 105.996094 233.917969 105.996094 C 233.917969 105.996094 234.414062 105.726562 234.914062 105.164062 C 235.410156 104.597656 235.710938 105.0625 236.210938 105.328125 C 236.675781 105.59375 236.773438 105.660156 237.105469 105.496094 L 237.105469 105.460938 Z M 237.140625 105.460938 "/>
<path style=" stroke:none;fill-rule:nonzero;fill:rgb(0%,0%,0%);fill-opacity:1;" d="M 237.039062 105.5625 C 236.8125 105.699219 236.523438 105.683594 236.308594 105.527344 C 235.976562 105.261719 235.746094 104.929688 235.378906 105.128906 C 234.980469 105.328125 234.28125 105.863281 234.28125 105.863281 C 234.28125 105.863281 235.445312 105.0625 235.679688 105.261719 C 235.878906 105.429688 236.410156 105.863281 236.707031 105.726562 Z M 237.039062 105.5625 "/>
<path style=" stroke:none;fill-rule:nonzero;fill:rgb(0%,0%,0%);fill-opacity:1;" d="M 236.144531 106.027344 C 235.777344 105.761719 235.410156 106.359375 235.113281 106.292969 C 234.78125 106.226562 234.546875 105.695312 234.546875 105.695312 C 234.546875 105.695312 234.8125 106.226562 235.210938 106.128906 C 235.644531 105.996094 235.910156 105.726562 236.175781 105.929688 C 236.441406 106.128906 236.144531 106.027344 236.144531 106.027344 "/>
<path style=" stroke:none;fill-rule:nonzero;fill:rgb(0%,0%,0%);fill-opacity:1;" d="M 235.578125 106.128906 C 235.386719 106.167969 235.1875 106.121094 235.03125 105.996094 C 234.878906 105.875 234.785156 105.691406 234.78125 105.496094 C 234.78125 105.496094 235.011719 106.09375 235.644531 105.996094 Z M 235.578125 106.128906 "/>
<path style=" stroke:none;fill-rule:nonzero;fill:rgb(0%,0%,0%);fill-opacity:1;" d="M 235.546875 105.660156 C 235.613281 105.839844 235.554688 105.929688 235.378906 105.929688 C 235.136719 105.929688 235.023438 105.839844 235.046875 105.660156 C 235.046875 105.496094 235.511719 105.527344 235.546875 105.660156 M 232.953125 104.664062 C 232.910156 104.765625 232.824219 104.839844 232.71875 104.863281 C 232.585938 104.863281 232.53125 104.796875 232.554688 104.664062 C 232.585938 104.464844 232.554688 104.433594 232.71875 104.433594 C 232.886719 104.433594 232.953125 104.53125 232.953125 104.664062 "/>
<path style=" stroke:none;fill-rule:nonzero;fill:rgb(0%,0%,0%);fill-opacity:1;" d="M 232.121094 103.832031 C 232.121094 103.832031 233.382812 103.832031 232.785156 105.394531 C 232.785156 105.394531 233.25 104.632812 232.953125 104.066406 C 232.621094 103.535156 232.1875 103.667969 232.1875 103.667969 C 232.1875 103.667969 232.054688 103.765625 232.121094 103.832031 "/>
<path style=" stroke:none;fill-rule:nonzero;fill:rgb(0%,0%,0%);fill-opacity:1;" d="M 232.121094 104.464844 C 232.121094 104.777344 232.320312 105.097656 232.71875 105.429688 L 232.820312 105.296875 C 232.441406 105.007812 232.253906 104.730469 232.253906 104.464844 C 232.253906 104.066406 232.453125 104.03125 232.453125 104.03125 L 232.355469 103.933594 C 232.355469 103.933594 232.121094 104.132812 232.085938 104.464844 Z M 232.121094 104.464844 "/>
<path style=" stroke:none;fill-rule:nonzero;fill:rgb(0%,0%,0%);fill-opacity:1;" d="M 232.386719 104.730469 C 232.429688 104.910156 232.5625 105.042969 232.785156 105.128906 L 232.851562 104.996094 C 232.675781 104.929688 232.5625 104.820312 232.519531 104.664062 C 232.453125 104.398438 232.652344 104.097656 232.652344 104.097656 L 232.519531 104 C 232.519531 104 232.289062 104.398438 232.386719 104.730469 M 234.082031 105.59375 C 234.082031 105.59375 234.316406 106.09375 233.984375 106.625 L 233.648438 107.15625 C 233.648438 107.15625 234.050781 106.394531 233.882812 106.09375 C 233.714844 105.796875 234.082031 105.59375 234.082031 105.59375 M 238.9375 110.847656 C 240.199219 111.082031 243.089844 113.339844 243.089844 113.339844 L 243.257812 113.140625 C 243.15625 113.042969 240.296875 110.816406 238.96875 110.582031 Z M 240.066406 114.007812 C 240.132812 115.167969 241.394531 115.867188 241.394531 115.902344 L 241.5625 115.667969 C 241.5625 115.667969 240.398438 115.003906 240.332031 114.007812 Z M 236.972656 114.273438 C 236.972656 115.535156 238.171875 117.0625 238.238281 117.128906 L 238.4375 116.964844 C 238.4375 116.964844 237.242188 115.433594 237.242188 114.273438 Z M 232.953125 114.40625 C 233.128906 114.824219 233.171875 115.070312 233.085938 115.136719 C 232.972656 115.246094 232.90625 115.292969 232.886719 115.269531 L 232.917969 115.535156 C 233.050781 115.535156 233.183594 115.445312 233.316406 115.269531 C 233.449219 115.046875 233.40625 114.714844 233.183594 114.273438 Z M 232.953125 114.40625 "/>
<path style="fill-rule:nonzero;fill:rgb(100%,100%,100%);fill-opacity:1;stroke-width:0.2;stroke-linecap:butt;stroke-linejoin:miter;stroke:rgb(0%,0%,0%);stroke-opacity:1;stroke-miterlimit:3;" d="M 429.601562 216.296875 C 429.601562 216.296875 429.703125 218 431 219 C 431 219 430.898438 217.203125 431.296875 216.398438 C 431.296875 216.398438 430.601562 215.601562 429.601562 216.296875 Z M 432.203125 217.296875 C 432.203125 217.296875 432.5 218.898438 433.398438 219.601562 L 434 219.5 C 434 219.5 434.203125 217.5 434.5 217.296875 C 434.796875 217.101562 433.203125 218 432.203125 217.296875 Z M 432.203125 217.296875 " transform="matrix(0.5,0,0,0.5,0,0)"/>
<path style="fill-rule:nonzero;fill:rgb(100%,100%,100%);fill-opacity:1;stroke-width:0.2;stroke-linecap:butt;stroke-linejoin:miter;stroke:rgb(0%,0%,0%);stroke-opacity:1;stroke-miterlimit:3;" d="M 434.5 217.296875 L 435.5 218.898438 L 436.703125 218.203125 L 436.5 216.398438 C 436.5 216.398438 435.796875 216.203125 434.5 217.296875 Z M 439.203125 217.601562 L 437.898438 218.703125 C 437.898438 218.703125 437.203125 218.203125 436.703125 218.203125 L 436.898438 216.5 C 436.898438 216.5 437.898438 215.796875 439.203125 217.601562 Z M 429.898438 233.601562 C 429.898438 233.601562 429.703125 231.203125 429.898438 231.101562 C 429.898438 231.101562 430.898438 231.398438 431.296875 231.101562 C 431.296875 231.101562 431.796875 232.898438 431.703125 233.703125 C 431.5 234.5 430.601562 234.203125 429.898438 233.703125 Z M 435.898438 231.203125 C 435.898438 231.203125 435.796875 229.203125 436.101562 228.898438 C 436.101562 228.898438 438.101562 229.203125 438.5 228.101562 L 439.203125 230.101562 C 439.203125 230.101562 437.101562 229.796875 435.796875 231.101562 Z M 435.898438 231.203125 " transform="matrix(0.5,0,0,0.5,0,0)"/>
<path style="fill-rule:nonzero;fill:rgb(100%,100%,100%);fill-opacity:1;stroke-width:0.2;stroke-linecap:butt;stroke-linejoin:miter;stroke:rgb(0%,0%,0%);stroke-opacity:1;stroke-miterlimit:3;" d="M 433.796875 231.601562 C 433.796875 231.601562 434.101562 229.5 434.5 229.398438 C 434.5 229.398438 435.5 229.703125 435.796875 229.296875 L 435.796875 231.898438 C 435.796875 231.898438 435.796875 230.796875 433.796875 231.601562 Z M 431.5 231.898438 C 431.5 231.898438 432 230 432.296875 230 C 432.601562 230 433.296875 230.5 433.703125 230.203125 L 433.703125 231.601562 C 433.703125 231.601562 432.101562 231.203125 431.796875 233.5 Z M 431.5 231.898438 " transform="matrix(0.5,0,0,0.5,0,0)"/>
<path style="fill-rule:nonzero;fill:rgb(0%,65.098041%,31.764707%);fill-opacity:1;stroke-width:0.5;stroke-linecap:butt;stroke-linejoin:miter;stroke:rgb(0%,0%,0%);stroke-opacity:1;stroke-miterlimit:4.8;" d="M 461.703125 270.398438 C 461.703125 270.398438 466.898438 275.296875 465.601562 279.601562 C 465.601562 279.601562 468.898438 272.296875 465.296875 270.101562 C 461.703125 268.101562 461.601562 269.601562 461.703125 270.398438 Z M 461.703125 270.398438 " transform="matrix(0.5,0,0,0.5,0,0)"/>
<path style="fill-rule:nonzero;fill:rgb(58.823532%,29.411766%,21.176471%);fill-opacity:1;stroke-width:0.5;stroke-linecap:butt;stroke-linejoin:miter;stroke:rgb(0%,0%,0%);stroke-opacity:1;stroke-miterlimit:4.8;" d="M 455 275.101562 C 455 275.101562 453.703125 277.101562 455.203125 278.398438 C 455.203125 278.398438 453.5 280.796875 454.796875 282.796875 C 454.796875 282.796875 453.796875 284.898438 454 287.203125 C 454 287.203125 453.203125 290.703125 455 292.296875 C 455 292.296875 457 293.296875 458 292.398438 C 458 292.398438 459.703125 289.796875 458.601562 287.101562 C 458.601562 287.101562 459.796875 284.796875 458.398438 281.898438 C 458.398438 281.898438 458.796875 280.296875 457.703125 278.398438 C 457.703125 278.398438 458.398438 277.203125 457.796875 276.203125 C 457.796875 276.203125 455.296875 273.5 455 275.203125 Z M 455 275.101562 " transform="matrix(0.5,0,0,0.5,0,0)"/>
<path style="fill-rule:nonzero;fill:rgb(0%,65.098041%,31.764707%);fill-opacity:1;stroke-width:0.5;stroke-linecap:butt;stroke-linejoin:miter;stroke:rgb(0%,0%,0%);stroke-opacity:1;stroke-miterlimit:4.8;" d="M 456.5 269 C 456.5 269 450.296875 257 445.898438 256.5 C 441.5 256 441.296875 251.703125 441.296875 251.703125 C 441.296875 251.703125 441.796875 253.703125 445.296875 253.703125 C 448.796875 253.703125 455.5 258.703125 456.296875 262.398438 C 457 266.101562 457.796875 265.601562 457.796875 265.601562 Z M 456.5 269 " transform="matrix(0.5,0,0,0.5,0,0)"/>
<path style="fill-rule:nonzero;fill:rgb(0%,65.098041%,31.764707%);fill-opacity:1;stroke-width:0.5;stroke-linecap:butt;stroke-linejoin:miter;stroke:rgb(0%,0%,0%);stroke-opacity:1;stroke-miterlimit:4.8;" d="M 456.5 268.101562 C 456.5 268.101562 458.796875 253 468.703125 252.703125 C 478.601562 252.5 475.296875 253.5 477.703125 251.898438 C 477.703125 251.898438 471.101562 255.296875 467 255.898438 C 462.796875 256.296875 459.398438 264.398438 459.601562 265.898438 C 459.601562 267.398438 457.296875 270.296875 456.203125 269.296875 C 455.101562 268.296875 456.5 268.101562 456.5 268.101562 Z M 456.5 268.101562 " transform="matrix(0.5,0,0,0.5,0,0)"/>
<path style="fill-rule:nonzero;fill:rgb(0%,65.098041%,31.764707%);fill-opacity:1;stroke-width:0.5;stroke-linecap:butt;stroke-linejoin:miter;stroke:rgb(0%,0%,0%);stroke-opacity:1;stroke-miterlimit:4.8;" d="M 458.796875 273.796875 C 458.796875 273.796875 461.101562 267.796875 464.898438 269.796875 C 464.898438 269.796875 461.898438 264 456.5 269 C 456.5 269 458.898438 272.296875 458.796875 273.796875 Z M 451.296875 267.796875 C 451.296875 267.796875 454.5 281.203125 449.5 285.296875 C 449.5 285.296875 449.703125 278.398438 446.601562 274.296875 C 443.601562 270.101562 449.601562 265.601562 451.296875 267.796875 Z M 451.296875 267.796875 " transform="matrix(0.5,0,0,0.5,0,0)"/>
<path style="fill-rule:nonzero;fill:rgb(0%,65.098041%,31.764707%);fill-opacity:1;stroke-width:0.5;stroke-linecap:butt;stroke-linejoin:miter;stroke:rgb(0%,0%,0%);stroke-opacity:1;stroke-miterlimit:4.8;" d="M 451.703125 270.101562 C 451.703125 270.101562 457.601562 275.796875 457.898438 277.703125 C 458.296875 279.5 459.703125 272 456.898438 269.898438 C 454.101562 267.796875 451.203125 267.398438 451.203125 267.398438 L 451.703125 270.203125 Z M 451.703125 270.101562 " transform="matrix(0.5,0,0,0.5,0,0)"/>
<path style="fill-rule:nonzero;fill:rgb(58.823532%,29.411766%,21.176471%);fill-opacity:1;stroke-width:0.5;stroke-linecap:butt;stroke-linejoin:miter;stroke:rgb(0%,0%,0%);stroke-opacity:1;stroke-miterlimit:4.8;" d="M 440.796875 285 C 440.796875 285 441.296875 287.296875 442.796875 287.796875 C 442.796875 287.796875 442.796875 289.5 444.203125 290 C 444.203125 290 443.5 291.5 444.601562 292.398438 C 444.601562 292.398438 444.398438 295.398438 445.398438 295.898438 C 445.398438 295.898438 448.101562 295.796875 449 295 C 449 295 449.5 293.101562 448 291.203125 C 448 291.203125 448.296875 289.398438 446.796875 288.398438 C 446.796875 288.398438 447.296875 285.898438 445.398438 285 C 445.398438 285 445.101562 283 444 282 C 444 282 441.796875 285.101562 440.796875 285 Z M 440.796875 285 " transform="matrix(0.5,0,0,0.5,0,0)"/>
<path style="fill-rule:nonzero;fill:rgb(0%,65.098041%,31.764707%);fill-opacity:1;stroke-width:0.5;stroke-linecap:butt;stroke-linejoin:miter;stroke:rgb(0%,0%,0%);stroke-opacity:1;stroke-miterlimit:4.8;" d="M 443.703125 282 C 443.703125 282 436 279.203125 431.703125 283.203125 C 431.703125 283.203125 438.296875 284.203125 439.101562 285.5 C 439.898438 286.796875 444 283.296875 443.703125 282 Z M 443.703125 282 " transform="matrix(0.5,0,0,0.5,0,0)"/>
<path style="fill-rule:nonzero;fill:rgb(0%,65.098041%,31.764707%);fill-opacity:1;stroke-width:0.5;stroke-linecap:butt;stroke-linejoin:miter;stroke:rgb(0%,0%,0%);stroke-opacity:1;stroke-miterlimit:4.8;" d="M 441.296875 286.796875 L 439.898438 285.796875 C 439.203125 285.203125 432.703125 283.5 431.796875 289.796875 C 431.796875 289.796875 429.398438 283.5 432.796875 282.796875 C 436.296875 281.796875 439 283.796875 441.296875 286.796875 M 436.296875 274 C 436.296875 274 438.601562 279.203125 439.5 279.398438 C 440.398438 279.601562 441 278.796875 441 278.796875 C 441 278.796875 437.898438 274.203125 436.203125 274 Z M 434.5 266.101562 C 434.5 266.101562 432.5 259.5 430.101562 261.296875 C 427.703125 263.101562 428.296875 267.796875 428.296875 267.796875 C 428.296875 267.796875 423.601562 262.796875 426.296875 259 C 429 255.203125 434.5 259.398438 434.5 266.101562 Z M 434.5 266.101562 " transform="matrix(0.5,0,0,0.5,0,0)"/>
<path style="fill-rule:nonzero;fill:rgb(58.823532%,29.411766%,21.176471%);fill-opacity:1;stroke-width:0.5;stroke-linecap:butt;stroke-linejoin:miter;stroke:rgb(0%,0%,0%);stroke-opacity:1;stroke-miterlimit:4.8;" d="M 439.898438 279.796875 C 439.898438 279.796875 439.898438 281.101562 440.796875 281.398438 C 441.703125 281.703125 443.296875 282.398438 443.296875 281.703125 C 443.296875 281 442 278 441.5 278.398438 C 441 278.796875 440.101562 278.796875 439.898438 279.796875 Z M 439.898438 279.796875 " transform="matrix(0.5,0,0,0.5,0,0)"/>
<path style="fill-rule:nonzero;fill:rgb(0%,65.098041%,31.764707%);fill-opacity:1;stroke-width:0.5;stroke-linecap:butt;stroke-linejoin:miter;stroke:rgb(0%,0%,0%);stroke-opacity:1;stroke-miterlimit:4.8;" d="M 438.398438 272 C 438.398438 272 438.101562 266.296875 441.898438 264.101562 C 441.898438 264.101562 442.601562 264.296875 443 263.101562 C 443 263.101562 440 270.398438 440.898438 274.101562 L 440.796875 274.5 " transform="matrix(0.5,0,0,0.5,0,0)"/>
<path style="fill-rule:nonzero;fill:rgb(0%,65.098041%,31.764707%);fill-opacity:1;stroke-width:0.5;stroke-linecap:butt;stroke-linejoin:miter;stroke:rgb(0%,0%,0%);stroke-opacity:1;stroke-miterlimit:4.8;" d="M 439.101562 265 C 439.101562 265 445.898438 251 454.101562 255.898438 C 454.101562 255.898438 445.5 257.601562 442.398438 263.796875 L 439.296875 268.398438 Z M 439.101562 265 " transform="matrix(0.5,0,0,0.5,0,0)"/>
<path style="fill-rule:nonzero;fill:rgb(0%,65.098041%,31.764707%);fill-opacity:1;stroke-width:0.5;stroke-linecap:butt;stroke-linejoin:miter;stroke:rgb(0%,0%,0%);stroke-opacity:1;stroke-miterlimit:4.8;" d="M 435.5 270.101562 C 435.5 270.101562 433.5 260.703125 432.203125 259.5 C 431 258.203125 428.898438 256.898438 426.296875 259 C 426.296875 259 430.703125 255.101562 435.296875 258.398438 C 440 261.601562 439 266.796875 439 266.796875 L 438.5 273.296875 L 435.398438 270.398438 " transform="matrix(0.5,0,0,0.5,0,0)"/>
<path style="fill-rule:nonzero;fill:rgb(0%,65.098041%,31.764707%);fill-opacity:1;stroke-width:0.5;stroke-linecap:butt;stroke-linejoin:miter;stroke:rgb(0%,0%,0%);stroke-opacity:1;stroke-miterlimit:4.8;" d="M 442.796875 281.296875 C 442.796875 281.296875 434.5 265.601562 429.101562 276.796875 C 429.101562 276.796875 428.101562 279.703125 429.203125 280.796875 C 429.203125 280.796875 426.203125 278.5 427.601562 273 C 429 267.5 438.101562 270 440.796875 274.5 C 443.5 279 444.101562 281.296875 443.796875 281.5 C 443.398438 281.796875 442.796875 281.296875 442.796875 281.296875 Z M 466.101562 285.796875 C 466.101562 285.796875 472.101562 273.398438 475.601562 279 C 475.601562 279 476.601562 281.796875 475.101562 283 C 475.101562 283 472.703125 280 470.601562 283.601562 C 468.398438 287.101562 469.296875 286.796875 469.296875 286.796875 C 469.296875 286.796875 467.101562 287.398438 466.101562 285.796875 Z M 466.101562 285.796875 " transform="matrix(0.5,0,0,0.5,0,0)"/>
<path style="fill-rule:nonzero;fill:rgb(0%,65.098041%,31.764707%);fill-opacity:1;stroke-width:0.5;stroke-linecap:butt;stroke-linejoin:miter;stroke:rgb(0%,0%,0%);stroke-opacity:1;stroke-miterlimit:4.8;" d="M 475 283 C 475 283 478.296875 284.703125 477.203125 288.203125 C 477.203125 288.203125 481.601562 279.796875 475.601562 279 C 475.601562 279 476.703125 281.703125 475.101562 283 Z M 475.5 274.398438 C 475.5 274.398438 483.398438 276.703125 483.601562 280.101562 C 483.601562 280.101562 485 273.5 480.5 271.5 C 480.5 271.5 475.101562 272.5 475.5 274.5 Z M 475.5 274.398438 " transform="matrix(0.5,0,0,0.5,0,0)"/>
<path style="fill-rule:nonzero;fill:rgb(0%,65.098041%,31.764707%);fill-opacity:1;stroke-width:0.5;stroke-linecap:butt;stroke-linejoin:miter;stroke:rgb(0%,0%,0%);stroke-opacity:1;stroke-miterlimit:4.8;" d="M 479 264 C 482.398438 257.398438 486.601562 266.101562 486.601562 266.101562 C 486.601562 266.101562 488.101562 259.203125 483.898438 258 C 479.601562 256.703125 476.898438 272.703125 476.898438 272.703125 L 471.898438 273.703125 C 471.898438 273.703125 473.203125 259.898438 480.703125 258.703125 L 481.703125 258.703125 " transform="matrix(0.5,0,0,0.5,0,0)"/>
<path style="fill-rule:nonzero;fill:rgb(0%,65.098041%,31.764707%);fill-opacity:1;stroke-width:0.5;stroke-linecap:butt;stroke-linejoin:miter;stroke:rgb(0%,0%,0%);stroke-opacity:1;stroke-miterlimit:4.8;" d="M 473 268 C 473 268 468.203125 258.203125 465 257.203125 C 461.796875 256.203125 466.703125 254.703125 468.703125 256.601562 C 470.703125 258.5 474.5 260.898438 474.101562 265.898438 Z M 468 281.398438 C 468 281.398438 469.398438 274.796875 473.203125 272.796875 C 477 270.796875 480.5 271.5 480.5 271.5 C 480.5 271.5 476 272.5 475.203125 274.796875 C 474.398438 277.101562 473.203125 277.203125 473.203125 277.203125 Z M 468 281.398438 " transform="matrix(0.5,0,0,0.5,0,0)"/>
<path style="fill-rule:nonzero;fill:rgb(58.823532%,29.411766%,21.176471%);fill-opacity:1;stroke-width:0.5;stroke-linecap:butt;stroke-linejoin:miter;stroke:rgb(0%,0%,0%);stroke-opacity:1;stroke-miterlimit:4.8;" d="M 466 285.796875 C 466 285.796875 464 289.796875 464.398438 290.398438 C 464.398438 290.398438 462.203125 293.703125 463.101562 295.398438 C 463.101562 295.398438 465.296875 297.101562 466.296875 296.398438 C 466.296875 296.398438 468.898438 292.703125 468.203125 290.703125 C 468.203125 290.703125 470 288.296875 469.296875 286.796875 C 469.296875 286.796875 466.703125 286.898438 466.101562 285.796875 Z M 466 285.796875 " transform="matrix(0.5,0,0,0.5,0,0)"/>
<path style=" stroke:none;fill-rule:nonzero;fill:rgb(0%,0%,0.392157%);fill-opacity:1;" d="M 227.5 139.300781 C 227.601562 139.351562 228.25 139.648438 228.648438 139.5 L 228.949219 139.25 L 228.699219 139.148438 C 228.550781 139.449219 227.851562 139.199219 227.648438 139.101562 L 227.550781 139.300781 Z M 227.449219 141.300781 L 227.351562 141.550781 C 227.398438 141.550781 228.699219 141.800781 229.300781 141.25 L 229.101562 141.050781 C 228.601562 141.5 227.449219 141.25 227.398438 141.25 Z M 227.101562 143.5 L 226.949219 143.699219 C 226.949219 143.699219 228.449219 144.75 229.398438 143.601562 L 229.148438 143.449219 C 228.398438 144.398438 227.148438 143.550781 227.101562 143.449219 Z M 221.351562 143.800781 L 221.398438 143.949219 C 221.449219 143.949219 222.699219 143.449219 222.800781 142.5 L 222.648438 142.5 C 222.601562 143.300781 221.398438 143.800781 221.351562 143.800781 M 222.050781 144.949219 L 222.050781 145.101562 C 222.148438 145.101562 223.300781 145 223.5 144.199219 L 223.351562 144.199219 C 223.148438 144.851562 222.101562 144.949219 222.050781 144.949219 M 222.300781 146.148438 L 222.300781 146.300781 C 222.351562 146.300781 223.648438 146.351562 224.101562 145.648438 L 223.949219 145.550781 C 223.550781 146.199219 222.300781 146.148438 222.300781 146.148438 M 232.148438 145.300781 C 232.148438 145.300781 232.699219 145.898438 233.351562 145.851562 C 233.683594 145.867188 234 145.714844 234.199219 145.449219 L 234 145.25 C 233.800781 145.484375 233.582031 145.601562 233.351562 145.601562 C 232.851562 145.601562 232.351562 145.101562 232.351562 145.101562 Z M 232.148438 145.300781 "/>
<path style="fill-rule:nonzero;fill:rgb(58.823532%,29.411766%,21.176471%);fill-opacity:1;stroke-width:0.3;stroke-linecap:butt;stroke-linejoin:miter;stroke:rgb(0%,0%,0%);stroke-opacity:1;stroke-miterlimit:4.8;" d="M 542 299.796875 L 541.703125 300.101562 L 542.101562 299.796875 Z M 551.296875 297.5 C 551.164062 297.367188 551.070312 297.296875 551 297.296875 L 550.601562 296.5 L 550.296875 296.5 L 549.601562 295.101562 L 549.601562 294.398438 C 549.601562 294.398438 549.398438 294.398438 549.296875 294.203125 L 549.296875 292.601562 L 549.203125 292.101562 L 548.898438 291 L 548.898438 290 C 548.898438 289.664062 548.867188 289.335938 548.796875 289 L 548.898438 288.101562 L 548.898438 282.703125 L 548.796875 281.703125 L 548.703125 281.296875 L 548.703125 279.703125 L 548.703125 282.296875 L 548.5 278 L 545.101562 276.398438 C 545.101562 276.398438 544.796875 282.601562 544.898438 283.398438 C 544.898438 284.296875 545.296875 290.101562 545.101562 290.796875 L 544.601562 295.101562 C 544.601562 295.101562 543 296.296875 542.398438 297.5 C 541.703125 298.796875 541.898438 299.203125 541.703125 299.203125 L 543.203125 299 L 542.101562 299.796875 L 542.796875 299.898438 L 543 300.101562 L 543.203125 299.898438 C 543.5 299.898438 543.703125 300.296875 543.898438 300.203125 L 544.296875 300 L 544.5 299.601562 C 544.632812 299.601562 544.765625 299.601562 544.898438 299.601562 L 545.601562 299.601562 C 545.929688 299.46875 546.234375 299.234375 546.5 298.898438 C 546.703125 298.703125 546.929688 298.601562 547.203125 298.601562 C 547.46875 298.664062 547.796875 298.765625 548.203125 298.898438 C 548.398438 298.898438 548.570312 298.835938 548.703125 298.703125 L 549.101562 298.101562 L 549.898438 298 L 550.296875 298.101562 L 550.898438 298.101562 L 551.203125 298.296875 L 551.398438 297.898438 Z M 551.296875 297.5 " transform="matrix(0.5,0,0,0.5,0,0)"/>
<path style="fill-rule:nonzero;fill:rgb(58.823532%,29.411766%,21.176471%);fill-opacity:1;stroke-width:0.3;stroke-linecap:butt;stroke-linejoin:miter;stroke:rgb(0%,0%,0%);stroke-opacity:1;stroke-miterlimit:4.8;" d="M 544.5 299.703125 L 545.101562 299.703125 L 545.101562 299.898438 L 545.296875 299.898438 L 545.601562 300.101562 L 545.898438 300.101562 L 546.296875 300.203125 C 546.5 300.265625 546.703125 300.234375 546.898438 300.101562 C 547.101562 299.96875 547.296875 300.03125 547.5 300.296875 C 547.570312 300.429688 547.632812 300.429688 547.703125 300.296875 L 547.796875 300.203125 L 548.101562 300.101562 L 548.398438 300 L 548.796875 299.796875 L 549.203125 300 L 549.398438 300 L 550.101562 299.5 C 550.367188 299.429688 550.601562 299.429688 550.796875 299.5 L 551.101562 299.5 C 551.164062 299.5 551.296875 299.5 551.5 299.5 C 551.5 299.429688 551.570312 299.335938 551.703125 299.203125 L 552.398438 299.601562 C 552.5 299.703125 553.101562 299.796875 553 299.398438 C 552.898438 299 552.601562 299.296875 552.5 299 L 552.5 298.398438 L 552.203125 298 C 552.070312 298 551.929688 298 551.796875 298 L 551.601562 297.398438 L 551.296875 297.601562 C 551.164062 297.601562 551.070312 297.5 551 297.296875 C 550.703125 297 550.601562 297.5 550.296875 297.398438 C 550.101562 297.265625 549.929688 297.03125 549.796875 296.703125 C 549.664062 296.367188 549.5 296.234375 549.296875 296.296875 C 549.164062 296.5 549.164062 296.734375 549.296875 297 L 548.796875 297 C 548.664062 297 548.570312 297.070312 548.5 297.203125 C 548.367188 297.664062 548.132812 297.867188 547.796875 297.796875 C 547.664062 297.796875 547.53125 297.796875 547.398438 297.796875 L 546.898438 298 L 546.5 298 L 546.101562 297.601562 L 545.796875 297.398438 C 545.664062 297.398438 545.570312 297.5 545.5 297.703125 L 545.398438 298.203125 L 545.101562 298.601562 L 544.703125 298.703125 C 544.5 298.703125 544.296875 299 544.296875 298.703125 C 544.101562 298.296875 544.601562 297.601562 544.101562 297.703125 C 544.03125 297.703125 543.929688 297.765625 543.796875 297.898438 L 543.796875 298.601562 C 543.703125 298.898438 543.101562 299.398438 543.203125 299.601562 C 543.203125 299.898438 543.601562 299.601562 543.601562 299.601562 L 543.796875 300 C 544 300.296875 544.5 299.601562 544.5 300 M 542.398438 297.296875 L 542.398438 297.101562 L 542 297 C 541.796875 297.070312 541.632812 297.203125 541.5 297.398438 C 541.296875 297.796875 541.296875 298.398438 540.898438 298.398438 L 540.398438 298.398438 L 540.398438 299.398438 C 540.398438 299.398438 540.203125 299.398438 540.203125 299.601562 C 540.203125 299.867188 540.335938 299.929688 540.601562 299.796875 L 541.601562 299.796875 L 542.101562 299.703125 C 542.296875 299.703125 542.46875 299.632812 542.601562 299.5 L 542.796875 299.101562 L 542.796875 298.703125 C 542.867188 298.632812 542.96875 298.5 543.101562 298.296875 C 543.203125 297.601562 542.5 298.101562 542.601562 297.398438 " transform="matrix(0.5,0,0,0.5,0,0)"/>
<path style="fill-rule:nonzero;fill:rgb(0%,0%,0%);fill-opacity:1;stroke-width:0.5;stroke-linecap:butt;stroke-linejoin:miter;stroke:rgb(0%,0%,0%);stroke-opacity:1;stroke-miterlimit:4.8;" d="M 550.796875 277.898438 C 550.734375 278.898438 550.265625 279.429688 549.398438 279.5 C 548.601562 279.429688 548.132812 278.898438 548 277.898438 C 548.132812 276.898438 548.601562 276.367188 549.398438 276.296875 C 550.265625 276.367188 550.734375 276.898438 550.796875 277.898438 Z M 546.296875 275.898438 C 546.234375 276.898438 545.765625 277.429688 544.898438 277.5 C 543.601562 277.601562 543.5 276.796875 543.5 275.898438 C 543.632812 274.835938 544.101562 274.296875 544.898438 274.296875 C 546.101562 274.296875 546.296875 275 546.296875 275.898438 Z M 546.296875 275.898438 " transform="matrix(0.5,0,0,0.5,0,0)"/>
<path style="fill-rule:nonzero;fill:rgb(0%,0%,0%);fill-opacity:1;stroke-width:0.5;stroke-linecap:butt;stroke-linejoin:miter;stroke:rgb(0%,0%,0%);stroke-opacity:1;stroke-miterlimit:4.8;" d="M 548.703125 276.5 C 548.632812 277.570312 548.164062 278.101562 547.296875 278.101562 C 546.429688 278.03125 545.96875 277.5 545.898438 276.5 C 545.96875 275.5 546.429688 274.96875 547.296875 274.898438 C 548.164062 274.96875 548.632812 275.5 548.703125 276.5 Z M 548.703125 276.5 " transform="matrix(0.5,0,0,0.5,0,0)"/>
<path style="fill-rule:nonzero;fill:rgb(0%,0%,0%);fill-opacity:1;stroke-width:0.5;stroke-linecap:butt;stroke-linejoin:miter;stroke:rgb(0%,0%,0%);stroke-opacity:1;stroke-miterlimit:4.8;" d="M 546.398438 278 C 546.335938 279 545.867188 279.53125 545 279.601562 C 544.132812 279.53125 543.664062 279 543.601562 278 C 543.664062 277 544.132812 276.46875 545 276.398438 C 545.867188 276.46875 546.335938 277 546.398438 278 Z M 546.398438 278 " transform="matrix(0.5,0,0,0.5,0,0)"/>
<path style="fill-rule:nonzero;fill:rgb(0%,0%,0%);fill-opacity:1;stroke-width:0.5;stroke-linecap:butt;stroke-linejoin:miter;stroke:rgb(0%,0%,0%);stroke-opacity:1;stroke-miterlimit:4.8;" d="M 548.5 279.296875 C 548.429688 280.234375 547.96875 280.765625 547.101562 280.898438 C 546.296875 280.835938 545.835938 280.296875 545.703125 279.296875 C 545.835938 278.234375 546.296875 277.664062 547.101562 277.601562 C 547.96875 277.664062 548.429688 278.203125 548.5 279.203125 Z M 548.5 279.296875 " transform="matrix(0.5,0,0,0.5,0,0)"/>
<path style="fill-rule:nonzero;fill:rgb(0%,65.098041%,31.764707%);fill-opacity:1;stroke-width:0.5;stroke-linecap:butt;stroke-linejoin:miter;stroke:rgb(0%,0%,0%);stroke-opacity:1;stroke-miterlimit:4.8;" d="M 549.203125 261.5 C 549.203125 261.5 563.101562 242.101562 578 262.203125 C 578 262.203125 578.101562 264.203125 576.703125 266.398438 L 576.398438 264.703125 L 575.398438 265 L 575.203125 264 L 573.601562 263.898438 L 574.101562 261.703125 L 572.398438 263.101562 L 572.601562 261.601562 L 570.601562 263.601562 L 570.898438 259.296875 L 568.703125 263 L 569 260.5 L 568.203125 261.601562 L 567.796875 260.101562 L 567.101562 261.601562 L 566.101562 260.898438 L 566.101562 261.898438 L 564.296875 260.398438 L 563.703125 262.398438 L 562.796875 260.203125 L 562.601562 261.703125 L 561.703125 260 L 561.601562 261.898438 L 558.703125 260.601562 L 559.296875 262.398438 L 558 261.398438 L 558.203125 262.398438 L 556.296875 262 L 556.5 263.101562 L 554.5 262.703125 L 554.796875 263.703125 L 552.101562 263.398438 L 553.101562 264.398438 L 552.796875 265 C 552.796875 265 567.796875 260 568.796875 278.796875 L 566.101562 280.101562 L 566.898438 278.601562 L 566.101562 278.101562 L 563.796875 276.398438 L 564.5 274 L 563.703125 274.296875 L 563.601562 272.898438 L 563.203125 273.101562 L 562.296875 271.796875 L 562.101562 272.296875 L 561.5 270.601562 L 560.796875 271.796875 L 560.5 269 L 559.5 270.796875 L 559.296875 269.796875 L 559 270.398438 L 557.703125 268.898438 L 557.296875 269.898438 L 556.796875 269.101562 L 556.5 270.101562 L 555.101562 268.703125 L 555.101562 269.703125 L 554.101562 269 L 553.796875 269.5 L 551.703125 268.398438 L 551.601562 269.398438 L 550.398438 268.398438 L 550.101562 269.398438 C 550.101562 269.398438 563.703125 277.203125 559.5 289.796875 L 558.703125 291.398438 L 558.5 287.203125 L 557.203125 289.398438 L 558.101562 284.5 L 557.203125 285.5 L 557.101562 283.5 L 556 285.5 L 555.601562 283.296875 L 555.101562 283.898438 L 554.296875 280.703125 L 553.703125 282 L 552.703125 278.398438 L 551.898438 279.898438 L 551.398438 276.796875 L 550.898438 278.703125 L 549.398438 275.898438 L 549.203125 277 L 548.296875 274.796875 L 547.796875 275.5 C 547.796875 275.5 545.296875 275.398438 544.5 274.796875 C 543.703125 274.203125 541.703125 278.5 541.703125 278.5 L 541.898438 275.898438 L 541 277.703125 L 541 275.898438 L 539.398438 281.203125 L 539 277.398438 L 538.203125 280.703125 L 537.796875 279.703125 L 537.5 281 L 537 280.5 L 536.601562 282 L 535.796875 281.398438 L 535.796875 283.398438 L 535 282.398438 L 534.398438 285.398438 L 534 284.203125 L 534 285.5 L 533.398438 284.796875 L 532.796875 287.796875 L 531.796875 286.5 L 531.796875 288.703125 L 532.101562 290.296875 L 531.101562 289.796875 L 531.5 292.398438 C 531.5 292.398438 527.601562 285.203125 532.296875 278.203125 C 536.898438 271.203125 543.203125 269.203125 543.203125 269.203125 L 542.5 268.601562 L 542.5 268 L 538.703125 269.898438 L 538.703125 268.796875 L 537.703125 269.601562 L 537.5 268.398438 L 536.898438 269.5 L 536.796875 269 L 535.796875 270.398438 L 535.398438 268.398438 L 534.796875 270.796875 L 534.203125 269.101562 L 532.898438 272.601562 L 532.898438 270 L 531.898438 272.796875 L 531.5 269.796875 L 530.796875 273.203125 L 530.796875 270.203125 L 529.601562 273.203125 L 528.898438 270.203125 L 528.398438 273.203125 L 527.601562 270.898438 L 526.898438 274.296875 L 525.703125 271.296875 L 525.101562 275.796875 L 524.398438 274 L 524.203125 277.296875 L 523.398438 275.296875 L 524.203125 279.5 L 523.203125 277.898438 L 523.5 280.5 L 521.898438 277.601562 L 521.898438 281 L 521.101562 279.898438 L 520.703125 281.203125 C 520.703125 281.203125 520.398438 268.203125 529.296875 265.601562 C 538.203125 263 543.898438 266.398438 543.898438 266.398438 L 540.5 263.601562 L 540.898438 262.703125 L 539.703125 262.703125 L 540.203125 261.703125 L 537.5 261.796875 L 538.296875 260.796875 L 536.296875 261.101562 L 536.296875 260.5 L 535 261.5 L 535.5 260.296875 L 533.796875 261.5 L 533.703125 259.796875 L 532.703125 261.203125 L 532.296875 259.703125 L 528.296875 263.703125 L 529.296875 259.601562 L 528.601562 260.5 L 528.5 259.5 L 527.398438 261.296875 L 527.101562 260.101562 L 526.601562 261.601562 L 526.203125 259.796875 L 525.398438 261.601562 L 524.398438 260 L 524.101562 262.101562 L 523.5 261 L 522.703125 262.601562 L 521.703125 261.601562 L 521.703125 262.601562 L 519.703125 261.703125 L 520.101562 263.203125 L 518.601562 262 L 518.203125 264 L 517.398438 263 L 516.703125 265.5 L 516.101562 263.101562 L 515.5 265 C 515.5 265 523.296875 244.796875 543.101562 258 C 543.101562 258 545.296875 260.101562 545.796875 261.601562 C 546.296875 263.101562 545.898438 261.796875 545.898438 261.796875 L 545.5 247.898438 L 546.296875 253.898438 L 546.796875 251.898438 L 546.703125 254.898438 L 548.703125 250.601562 C 548.703125 250.601562 546.296875 257.796875 547.203125 260.5 C 547.203125 260.5 548.101562 252.101562 551.101562 251.101562 L 548.296875 257.101562 L 549.203125 257 L 548.601562 258.203125 L 549.296875 258.203125 L 548.398438 260.203125 L 547.898438 261.203125 L 548.398438 262.203125 Z M 549.203125 261.5 " transform="matrix(0.5,0,0,0.5,0,0)"/>
<path style=" stroke:none;fill-rule:nonzero;fill:rgb(0%,0%,0%);fill-opacity:1;" d="M 273.550781 134.800781 L 273.75 135 C 273.75 135 274.398438 134.300781 275.449219 135.199219 L 275.601562 135 C 274.351562 133.949219 273.601562 134.800781 273.601562 134.800781 Z M 273.25 131.398438 L 273.25 131.648438 L 273.699219 131.449219 L 273.351562 132.050781 L 274.101562 131.800781 L 273.199219 132.949219 L 273.398438 133.101562 L 274.851562 131.25 L 273.949219 131.550781 L 274.351562 130.898438 L 273.550781 131.199219 L 273.699219 130.25 L 273.449219 130.25 Z M 273.25 131.398438 "/>
<path style=" stroke:none;fill-rule:nonzero;fill:rgb(0%,0%,0%);fill-opacity:1;" d="M 271.949219 131.5 L 272.25 132.148438 L 271.75 131.949219 L 273.199219 134.550781 L 273.398438 134.300781 L 273.101562 135.050781 L 273.351562 135.148438 L 273.949219 133.550781 L 273.75 133.398438 L 273.25 134.050781 L 272.351562 132.5 L 272.75 132.648438 L 272.351562 131.800781 L 272.898438 132.101562 L 272.898438 131.148438 L 272.648438 131.148438 L 272.648438 131.648438 L 271.75 131.101562 Z M 271 134.699219 L 271.101562 134.949219 C 271.5 134.785156 271.832031 134.75 272.101562 134.851562 C 272.332031 135.050781 272.449219 135.214844 272.449219 135.351562 L 272.699219 135.25 C 272.699219 135.25 272.601562 134.800781 272.199219 134.648438 C 271.898438 134.484375 271.5 134.5 271 134.699219 M 272.148438 137.398438 L 271.898438 136 L 272.199219 136 L 272.398438 137.351562 Z M 274.050781 137.199219 L 273.699219 136.101562 L 273.949219 136.050781 L 274.300781 137.050781 Z M 274.75 137.949219 L 274.5 136.898438 L 274.75 136.851562 L 275.050781 137.898438 Z M 274.75 137.949219 "/>
<path style="fill-rule:nonzero;fill:rgb(0%,65.098041%,31.764707%);fill-opacity:1;stroke-width:0.5;stroke-linecap:butt;stroke-linejoin:miter;stroke:rgb(0%,0%,0%);stroke-opacity:1;stroke-miterlimit:4.8;" d="M 442.601562 340.203125 C 442.601562 340.203125 440.203125 339.203125 439.101562 340 C 438.101562 340.703125 438.203125 341.898438 437.296875 341.796875 C 437.296875 341.796875 440.898438 342.601562 441.601562 341.703125 L 442.601562 340.5 M 443 341.203125 C 443 341.203125 441.398438 343.203125 442 344.5 C 442.5 345.703125 443.703125 345.796875 443.398438 346.703125 C 443.398438 346.703125 444.898438 343.398438 444.203125 342.398438 C 443.5 341.398438 443.203125 341.296875 443.203125 341.296875 M 440.398438 335.5 C 440.398438 335.5 437.898438 336.296875 437.601562 337.5 C 437.398438 338.898438 438.203125 339.601562 437.5 340.203125 C 437.5 340.203125 440.703125 338.398438 440.601562 337.203125 L 440.601562 335.703125 M 441.796875 336.398438 C 441.796875 336.398438 443 334.101562 442.296875 333 C 441.5 331.796875 440.296875 332 440.5 331 C 440.5 331 439.5 334.5 440.5 335.398438 L 441.601562 336.398438 M 439.398438 335.5 C 439.398438 335.5 439.398438 332.898438 438.398438 332.296875 C 437.203125 331.601562 436.203125 332.203125 435.898438 331.296875 C 435.898438 331.296875 436.601562 334.898438 437.703125 335.296875 L 439.203125 335.601562 M 443.601562 339.796875 C 443.601562 339.796875 446.296875 338.796875 446.601562 341.796875 C 446.898438 344.796875 446.398438 343.796875 446.398438 343.796875 C 446.398438 343.796875 445 340.601562 443.398438 340.101562 Z M 443.601562 339.796875 " transform="matrix(0.5,0,0,0.5,0,0)"/>
<path style=" stroke:none;fill-rule:nonzero;fill:rgb(0%,0%,0%);fill-opacity:1;" d="M 221.5 170.648438 L 221.601562 171.75 L 221.800781 171.75 L 221.648438 170.648438 L 222.148438 168.199219 L 221.949219 168.199219 L 221.449219 170.648438 Z M 221.5 170.648438 "/>
<path style=" stroke:none;fill-rule:nonzero;fill:rgb(0%,0%,0%);fill-opacity:1;" d="M 220.25 170.300781 L 220.199219 170.449219 C 220.851562 170.699219 221.699219 169.949219 221.75 169.949219 L 221.648438 169.800781 C 221.648438 169.800781 220.800781 170.449219 220.25 170.300781 M 221.949219 168.851562 L 218.949219 167.351562 L 219.050781 167.101562 L 222.050781 168.601562 Z M 221.949219 168.851562 "/>
<path style=" stroke:none;fill-rule:nonzero;fill:rgb(0%,0%,0%);fill-opacity:1;" d="M 219.75 168.5 L 219.550781 168.300781 L 220.148438 167.699219 L 220.351562 167.898438 Z M 220.800781 168.199219 L 220.148438 166.800781 L 220.398438 166.699219 L 221.050781 168.101562 Z M 221.699219 169.898438 L 221.699219 170.199219 C 222.550781 170.148438 222.699219 170.699219 222.699219 170.699219 L 223 170.601562 C 223 170.449219 222.648438 169.851562 221.699219 169.898438 "/>
<path style="fill-rule:nonzero;fill:rgb(100%,100%,100%);fill-opacity:1;stroke-width:0.7;stroke-linecap:butt;stroke-linejoin:miter;stroke:rgb(0%,0%,0%);stroke-opacity:1;stroke-miterlimit:4.8;" d="M 471.203125 341 C 473.203125 340 473.601562 336 473.601562 336 C 473.101562 337.398438 469.398438 338.898438 469.398438 338.898438 C 472.101562 337.203125 475.398438 329.5 475.398438 329.5 C 474.601562 332.203125 467.398438 334.5 462.796875 337.101562 C 458.203125 339.703125 460.601562 347.101562 460.601562 347.101562 C 459.296875 346.203125 456.796875 342.296875 456.296875 338.796875 C 455.796875 335.296875 454.5 333.898438 451.296875 333.5 C 448.203125 333.101562 446.296875 336.703125 446.296875 336.703125 L 441.601562 339.101562 L 446.398438 339.296875 C 446.398438 339.296875 449.796875 340.398438 449.796875 343.101562 C 449.796875 345.796875 446.796875 356.398438 451.796875 362.398438 C 455.101562 366.5 467.796875 368.898438 467.796875 368.898438 " transform="matrix(0.5,0,0,0.5,0,0)"/>
<path style="fill-rule:nonzero;fill:rgb(100%,100%,100%);fill-opacity:1;stroke-width:0.7;stroke-linecap:butt;stroke-linejoin:miter;stroke:rgb(0%,0%,0%);stroke-opacity:1;stroke-miterlimit:4.8;" d="M 461.898438 349.296875 C 461.898438 349.296875 462.898438 344.5 466 344.703125 C 469.101562 344.898438 470 341.101562 471.898438 340.601562 C 473.796875 340 483.398438 337.398438 484.398438 332.796875 C 484.398438 332.796875 483.5 340.398438 474.703125 344.203125 C 474.703125 344.203125 481.796875 341.898438 482.703125 340.296875 C 482.703125 340.296875 479.5 347.101562 471.796875 348.203125 C 471.796875 348.203125 479 347.601562 480 345.703125 C 480 345.703125 476.796875 349.898438 471.5 350.5 C 471.5 350.5 476.5 352.5 477.703125 350.796875 C 477.703125 350.796875 475 354 471.703125 354.203125 L 472.703125 354.398438 C 472.703125 354.398438 469.5 358.203125 466 355.703125 C 462.5 353.203125 462.398438 356.296875 462.398438 356.296875 " transform="matrix(0.5,0,0,0.5,0,0)"/>
<path style="fill-rule:nonzero;fill:rgb(100%,100%,100%);fill-opacity:1;stroke-width:0.7;stroke-linecap:butt;stroke-linejoin:miter;stroke:rgb(0%,0%,0%);stroke-opacity:1;stroke-miterlimit:4.8;" d="M 469 356.5 C 469 356.5 473.101562 363.296875 473.5 366.898438 C 473.5 366.898438 481.296875 375.398438 484.203125 375.898438 C 484.203125 375.898438 482.796875 376.5 480.203125 374.398438 C 480.203125 374.398438 482.398438 376.601562 482.796875 376.703125 C 483.203125 376.796875 481.101562 376.5 480.796875 375.898438 L 482.203125 377.398438 L 481.703125 377.203125 C 481.703125 377.203125 480.703125 377.101562 480.101562 376.703125 C 479.601562 376.296875 480 377.703125 480 377.703125 C 480 377.703125 478.796875 377.398438 478.398438 377 C 478 376.601562 478.5 377.898438 478.5 377.898438 L 477.5 377.601562 L 476.703125 378.101562 C 476.703125 378.101562 476.703125 378.601562 476.203125 378.101562 C 475.703125 377.796875 474.796875 378.101562 474.796875 378.101562 C 474.796875 378.101562 474.203125 378.703125 473.796875 378.296875 C 473.5 377.898438 472.296875 379.898438 472.296875 379.898438 L 467.296875 367.601562 " transform="matrix(0.5,0,0,0.5,0,0)"/>
<path style=" stroke:none;fill-rule:nonzero;fill:rgb(0%,0%,0%);fill-opacity:1;" d="M 236.949219 189.351562 L 233.75 183.25 L 234.050781 183.050781 L 237.25 189.199219 Z M 239.75 188.949219 L 234.25 182.800781 L 234.550781 182.550781 L 240.050781 188.699219 Z M 241 188.449219 L 234.75 182.5 L 235 182.25 L 241.25 188.101562 Z M 241 188.449219 "/>
<path style=" stroke:none;fill-rule:nonzero;fill:rgb(0%,0%,0%);fill-opacity:1;" d="M 225.273438 168.691406 C 225.273438 168.691406 224.875 167.960938 224.507812 168.257812 C 224.175781 168.503906 223.976562 168.601562 223.910156 168.558594 C 223.910156 168.558594 224.242188 168.558594 224.476562 168.390625 C 224.695312 168.171875 224.960938 168.28125 225.273438 168.722656 Z M 223.078125 168.359375 L 223.3125 168.824219 L 223.046875 169.589844 L 223.246094 169.65625 L 223.476562 168.824219 L 223.246094 168.292969 Z M 223.078125 168.359375 "/>
<path style=" stroke:none;fill-rule:nonzero;fill:rgb(0%,0%,0%);fill-opacity:1;" d="M 225.207031 168.589844 C 225.207031 168.589844 224.875 168.921875 224.476562 168.855469 L 224.042969 168.757812 L 224.640625 168.757812 C 224.875 168.757812 225.171875 168.65625 225.207031 168.589844 "/>
<path style=" stroke:none;fill-rule:nonzero;fill:rgb(0%,0%,0%);fill-opacity:1;" d="M 225.105469 168.65625 C 225.105469 168.65625 224.707031 168.257812 224.441406 168.390625 C 224.441406 168.390625 224.90625 168.226562 225.171875 168.625 Z M 225.105469 168.65625 "/>
<path style=" stroke:none;fill-rule:nonzero;fill:rgb(0%,0%,0%);fill-opacity:1;" d="M 225.039062 168.589844 C 225.039062 168.589844 224.609375 168.890625 224.144531 168.589844 L 224.109375 168.523438 L 224.175781 168.523438 C 224.175781 168.523438 224.742188 168.757812 225.039062 168.589844 "/>
<path style=" stroke:none;fill-rule:nonzero;fill:rgb(0%,0%,0%);fill-opacity:1;" d="M 224.808594 168.523438 C 224.808594 168.449219 224.746094 168.390625 224.675781 168.390625 C 224.601562 168.390625 224.542969 168.449219 224.542969 168.523438 C 224.542969 168.597656 224.601562 168.65625 224.675781 168.65625 C 224.746094 168.65625 224.808594 168.597656 224.808594 168.523438 Z M 224.808594 168.523438 "/>
<path style=" stroke:none;fill-rule:nonzero;fill:rgb(0%,0%,0%);fill-opacity:1;" d="M 225 179.800781 C 225 179.800781 224.648438 180.398438 224.851562 180.800781 C 225 181.148438 225.851562 181.300781 225.898438 181.800781 C 225.949219 182.300781 226.300781 182.300781 226.648438 182.300781 L 227.101562 182.148438 C 227.101562 182.148438 225.550781 181.351562 225.101562 180 Z M 225 179.800781 "/>
<path style="fill-rule:nonzero;fill:rgb(58.823532%,29.411766%,21.176471%);fill-opacity:1;stroke-width:0.3;stroke-linecap:butt;stroke-linejoin:miter;stroke:rgb(0%,0%,0%);stroke-opacity:1;stroke-miterlimit:4.8;" d="M 549.398438 334.796875 C 549.398438 334.796875 555 327.398438 560 329.296875 C 565 331.203125 568.101562 332.296875 568.101562 332.296875 C 568.101562 332.296875 568.203125 337.203125 565.601562 337.203125 C 563 337.203125 560.398438 332.203125 558 333.703125 C 556.1875 334.71875 554.640625 336.15625 553.5 337.898438 C 553.398438 338.601562 547.203125 338.703125 549.398438 334.796875 Z M 549.398438 334.796875 " transform="matrix(0.5,0,0,0.5,0,0)"/>
<path style="fill-rule:nonzero;fill:rgb(58.823532%,29.411766%,21.176471%);fill-opacity:1;stroke-width:0.5;stroke-linecap:butt;stroke-linejoin:miter;stroke:rgb(0%,0%,0%);stroke-opacity:1;stroke-miterlimit:4.8;" d="M 528.203125 370.398438 C 528.203125 370.398438 526.601562 372 527.296875 372.398438 C 528 372.796875 529.398438 372.398438 529.398438 371.796875 C 529.398438 371.203125 528.398438 370.203125 528.203125 370.398438 Z M 528.203125 370.398438 " transform="matrix(0.5,0,0,0.5,0,0)"/>
<path style="fill-rule:nonzero;fill:rgb(58.823532%,29.411766%,21.176471%);fill-opacity:1;stroke-width:0.5;stroke-linecap:butt;stroke-linejoin:miter;stroke:rgb(0%,0%,0%);stroke-opacity:1;stroke-miterlimit:4.8;" d="M 527 372 C 527 372 524 370.296875 521.796875 374.203125 C 519.5 378 517.703125 384.296875 516.398438 385.203125 C 515.101562 386 529.203125 379 529.398438 376 C 529.398438 376 530.296875 372.203125 528.796875 372.296875 C 527.296875 372.398438 527.203125 372.5 526.898438 371.898438 Z M 527 372 " transform="matrix(0.5,0,0,0.5,0,0)"/>
<path style="fill-rule:nonzero;fill:rgb(58.823532%,29.411766%,21.176471%);fill-opacity:1;stroke-width:0.3;stroke-linecap:butt;stroke-linejoin:miter;stroke:rgb(0%,0%,0%);stroke-opacity:1;stroke-miterlimit:4.8;" d="M 527.296875 372.398438 C 527.296875 372.398438 524.296875 373.101562 523.703125 377.296875 C 523.101562 381.5 519 383.601562 518.703125 383.796875 M 568.101562 332.203125 C 568.101562 332.203125 563.703125 333.796875 564.398438 336.898438 " transform="matrix(0.5,0,0,0.5,0,0)"/>
<path style="fill-rule:nonzero;fill:rgb(100%,94.901961%,0%);fill-opacity:1;stroke-width:0.3;stroke-linecap:butt;stroke-linejoin:miter;stroke:rgb(0%,0%,0%);stroke-opacity:1;stroke-miterlimit:4.8;" d="M 533.703125 341.296875 C 533.703125 341.296875 533.898438 330.703125 542.601562 331.101562 C 544.203125 331.296875 543.398438 333.203125 543.398438 333.203125 C 543.398438 333.203125 545.398438 331.898438 546.203125 334 C 546.203125 334 548.898438 332.796875 549.203125 335.5 C 549.203125 335.5 552.203125 335.101562 551.796875 337.5 C 551.796875 337.5 553.796875 337 553.796875 338.703125 C 553.796875 338.703125 556.101562 337.796875 555.796875 340.203125 C 555.796875 340.203125 558.398438 338.5 558.101562 341.601562 C 558.101562 341.601562 560.703125 339.703125 561.601562 342.796875 C 562.601562 346 559 352.601562 555.5 354.296875 " transform="matrix(0.5,0,0,0.5,0,0)"/>
<path style=" stroke:none;fill-rule:nonzero;fill:rgb(0%,0%,0%);fill-opacity:1;" d="M 278.949219 171 C 278.949219 171 279.5 175.101562 277.199219 176.648438 L 277.25 176.75 C 279.699219 175.25 279.101562 171 279.101562 170.949219 L 278.949219 170.949219 Z M 276.101562 175.5 L 276.199219 175.601562 C 277.699219 174.148438 278.050781 170.300781 278.050781 170.101562 L 277.898438 170.101562 C 277.898438 170.101562 277.550781 174.101562 276.101562 175.5 M 274.75 174.550781 L 274.898438 174.550781 C 275.207031 172.707031 275.90625 170.949219 276.949219 169.398438 L 276.851562 169.351562 C 276.851562 169.351562 274.949219 172.101562 274.75 174.550781 M 273.648438 173.851562 L 273.800781 173.851562 C 274.050781 171 276 168.851562 276 168.800781 L 275.898438 168.699219 C 275.898438 168.699219 273.898438 170.949219 273.648438 173.851562 M 272.148438 172.851562 L 272.300781 172.851562 C 272.449219 169.5 274.699219 167.851562 274.699219 167.851562 L 274.601562 167.699219 C 274.601562 167.699219 272.300781 169.398438 272.101562 172.898438 Z M 270.75 172.050781 L 270.898438 172.050781 C 270.800781 168.949219 273.148438 167.050781 273.199219 167.050781 L 273.101562 166.949219 C 273.101562 166.949219 270.601562 168.851562 270.75 172.050781 M 268.25 170.898438 L 268.398438 170.898438 C 268.613281 168.957031 269.941406 167.3125 271.800781 166.699219 L 271.800781 166.550781 C 269.910156 167.242188 268.546875 168.910156 268.25 170.898438 "/>
<path style="fill-rule:nonzero;fill:rgb(0%,65.098041%,31.764707%);fill-opacity:1;stroke-width:0.3;stroke-linecap:butt;stroke-linejoin:miter;stroke:rgb(0%,0%,0%);stroke-opacity:1;stroke-miterlimit:4.8;" d="M 528.601562 354.203125 C 528.601562 354.203125 527.101562 344.296875 533 341.203125 C 533 341.203125 534.101562 341 534.703125 342.398438 C 534.703125 342.398438 537.796875 341.101562 537.898438 343.703125 C 537.898438 343.703125 539.5 342.5 539.898438 344.203125 C 539.898438 344.203125 543.203125 343.5 542.601562 346 C 542.601562 346 545.398438 345.203125 545.101562 347.601562 C 545.101562 347.601562 547.898438 346.601562 547.5 348.601562 C 547.5 348.601562 550.5 348 549.703125 350.398438 C 549.703125 350.398438 553.398438 350 552.296875 352.5 C 552.296875 352.5 555 351.796875 554.296875 353.898438 C 554.296875 353.898438 557.898438 354.601562 556.296875 356.898438 C 553.679688 360.03125 550.304688 362.4375 546.5 363.898438 " transform="matrix(0.5,0,0,0.5,0,0)"/>
<path style="fill-rule:nonzero;fill:rgb(0%,65.098041%,31.764707%);fill-opacity:1;stroke-width:0.3;stroke-linecap:butt;stroke-linejoin:miter;stroke:rgb(0%,0%,0%);stroke-opacity:1;stroke-miterlimit:4.8;" d="M 525.398438 364.101562 C 525.398438 364.101562 523 355.898438 527.601562 353.796875 C 527.601562 353.796875 528.5 353.601562 528.601562 354.398438 C 528.601562 354.398438 529.601562 353.101562 530.398438 354.296875 C 530.398438 354.296875 532.703125 353.203125 533.296875 354.898438 C 533.296875 354.898438 534.796875 353.601562 535.601562 355.5 C 535.601562 355.5 537.101562 354.898438 537.101562 356.5 C 537.101562 356.5 539.101562 355.5 539.101562 357.5 C 539.101562 357.5 541.101562 356.703125 540.601562 358.703125 C 540.601562 358.703125 543.601562 359.203125 542.703125 360.601562 C 542.703125 360.601562 545.398438 361.296875 544.398438 362.398438 C 544.398438 362.398438 547.203125 362.101562 545.703125 364 C 545.703125 364 547.898438 363.296875 546.703125 365.703125 C 545.5 368.101562 541.5 370.703125 538.703125 371.101562 " transform="matrix(0.5,0,0,0.5,0,0)"/>
<path style="fill-rule:nonzero;fill:rgb(0%,65.098041%,31.764707%);fill-opacity:1;stroke-width:0.3;stroke-linecap:butt;stroke-linejoin:miter;stroke:rgb(0%,0%,0%);stroke-opacity:1;stroke-miterlimit:4.8;" d="M 528.296875 370.601562 C 528.296875 370.601562 523.203125 365.601562 525.601562 364.203125 C 525.601562 364.203125 526.601562 364.5 527.101562 365.601562 C 527.101562 365.601562 528.296875 363.796875 529.101562 365.601562 C 529.101562 365.601562 530.898438 365 530.898438 366.296875 L 532.296875 367.296875 C 532.296875 367.296875 534 367.203125 533.703125 368.296875 C 533.703125 368.296875 535.601562 368 535.5 369 C 535.5 369 537.101562 369.101562 537 370.203125 C 537 370.203125 539.796875 370.703125 538.5 372.101562 C 538.5 372.101562 533.703125 373.101562 530.203125 371.703125 C 530.203125 371.703125 528.5 371.101562 528.296875 370.601562 Z M 528.296875 370.601562 " transform="matrix(0.5,0,0,0.5,0,0)"/>
<path style=" stroke:none;fill-rule:nonzero;fill:rgb(0%,0%,0%);fill-opacity:1;" d="M 272.949219 181.199219 L 272.949219 181.351562 C 274.621094 180.15625 276.074219 178.683594 277.25 177 L 277.101562 176.898438 C 277.101562 176.949219 274.398438 180.648438 272.949219 181.199219 M 272.050781 180.550781 L 272.148438 180.699219 C 273.449219 179.949219 276.101562 176.449219 276.148438 176.300781 L 276.101562 176.199219 C 276.050781 176.25 273.351562 179.800781 272.101562 180.550781 Z M 271.300781 180.25 L 271.398438 180.351562 C 272.785156 178.792969 273.960938 177.0625 274.898438 175.199219 L 274.800781 175.148438 C 274.800781 175.148438 272.699219 179.101562 271.300781 180.25 M 270.648438 179.351562 L 270.800781 179.351562 C 271.050781 177.449219 273.800781 174.398438 273.800781 174.351562 L 273.648438 174.300781 C 273.550781 174.398438 270.898438 177.398438 270.648438 179.351562 M 265.199219 177 L 265.351562 177 C 265.148438 174.25 267.398438 171.25 267.449219 171.25 L 267.300781 171.148438 C 267.300781 171.148438 264.949219 174.25 265.199219 177 M 266.648438 177.25 L 266.800781 177.25 C 266.398438 175.050781 269 171.949219 269 171.898438 L 268.898438 171.800781 C 268.800781 171.949219 266.25 175 266.648438 177.25 M 268.851562 178.050781 L 269 178.050781 C 268.898438 175.550781 271.300781 173.050781 271.351562 173.050781 L 271.25 172.898438 C 271.25 172.949219 268.75 175.5 268.851562 178.050781 M 263.601562 182.550781 L 263.75 182.550781 C 262.851562 180.199219 264.351562 177.25 264.398438 177.25 L 264.25 177.148438 C 264.25 177.148438 262.699219 180.199219 263.601562 182.601562 Z M 264.601562 182.75 L 264.75 182.699219 C 263.949219 180.351562 265.25 177.199219 265.25 177.199219 L 265.148438 177.101562 C 265.148438 177.101562 263.800781 180.351562 264.601562 182.75 M 268.75 185.101562 L 268.75 185.199219 C 271.25 184.351562 272.898438 182.050781 272.898438 182.050781 L 272.75 181.949219 C 272.75 181.949219 271.148438 184.199219 268.75 185.101562 M 268.25 184.550781 L 268.25 184.699219 C 270.25 183.800781 272.101562 181.300781 272.101562 181.300781 L 272 181.199219 C 272 181.199219 270.148438 183.699219 268.25 184.550781 M 267.75 184.351562 L 267.851562 184.5 C 269.351562 183.351562 271.351562 180.5 271.351562 180.5 L 271.25 180.398438 C 271.25 180.398438 269.25 183.25 267.75 184.351562 M 265.25 182.898438 L 265.449219 182.898438 C 265.367188 181.003906 265.796875 179.121094 266.699219 177.449219 L 266.550781 177.398438 C 266.550781 177.398438 264.949219 180.398438 265.300781 182.898438 Z M 266.351562 183.601562 L 266.449219 183.699219 C 268.050781 182.25 268.601562 178.398438 268.601562 178.199219 L 268.449219 178.199219 C 268.449219 178.199219 267.949219 182.199219 266.351562 183.601562 M 267.449219 184 L 267.550781 184.148438 C 269.003906 182.929688 270.007812 181.257812 270.398438 179.398438 L 270.25 179.398438 C 270.25 179.398438 269.648438 182.398438 267.449219 184.050781 Z M 267.699219 177.300781 L 267.699219 177.75 L 266 183.25 L 266.148438 183.300781 L 267.851562 177.800781 C 267.601562 175.101562 269.949219 172.148438 270 172.148438 L 269.851562 172.050781 C 269.851562 172.050781 267.699219 174.699219 267.699219 177.300781 "/>
<path style=" stroke:none;fill-rule:nonzero;fill:rgb(0%,0%,0%);fill-opacity:1;" d="M 269.5 178.648438 C 269.5 178.75 268.949219 182.5 266.898438 183.898438 L 267 184.050781 C 269.101562 182.601562 269.601562 178.898438 269.601562 178.699219 C 270.5 177.648438 272.601562 173.851562 272.601562 173.851562 L 272.5 173.75 C 272.5 173.75 270.398438 177.550781 269.5 178.648438 M 263.5 182.800781 C 263.5 182.851562 263.800781 184.800781 264.199219 185.398438 L 264.351562 185.351562 C 263.949219 184.699219 263.601562 182.800781 263.601562 182.75 L 263.449219 182.800781 Z M 264.449219 182.800781 L 264.398438 185.449219 L 264.550781 185.449219 L 264.550781 182.800781 Z M 264.449219 182.800781 "/>
<path style=" stroke:none;fill-rule:nonzero;fill:rgb(0%,0%,0%);fill-opacity:1;" d="M 264.5 185.5 L 264.648438 185.550781 C 265.300781 184.148438 265.5 183.148438 265.5 183.148438 L 265.351562 183.148438 C 265.351562 183.148438 265.148438 184.101562 264.5 185.5 M 264.648438 185.550781 L 264.75 185.699219 C 265.480469 185.242188 266.011719 184.527344 266.25 183.699219 L 266.101562 183.699219 C 266.101562 183.699219 265.800781 184.898438 264.648438 185.550781 M 264.898438 185.648438 L 264.898438 185.800781 C 266.101562 185.699219 266.898438 184.25 266.898438 184.148438 L 266.800781 184.148438 C 266.800781 184.148438 266 185.550781 264.898438 185.648438 "/>
<path style=" stroke:none;fill-rule:nonzero;fill:rgb(0%,0%,0%);fill-opacity:1;" d="M 265 185.75 L 265 185.898438 C 266.949219 185.75 267.800781 184.601562 267.800781 184.550781 L 267.699219 184.5 C 267.699219 184.5 266.851562 185.601562 265 185.75 "/>
<path style=" stroke:none;fill-rule:nonzero;fill:rgb(0%,0%,0%);fill-opacity:1;" d="M 265.148438 185.75 L 265.148438 185.898438 C 265.199219 185.898438 267.648438 186.449219 268.5 185.199219 L 268.351562 185.101562 C 267.601562 186.300781 265.148438 185.800781 265.148438 185.75 "/>
<path style="fill:none;stroke-width:2.8;stroke-linecap:butt;stroke-linejoin:miter;stroke:rgb(0%,0%,0%);stroke-opacity:1;stroke-miterlimit:4.8;" d="M 420.898438 193.203125 L 420.898438 329.601562 C 420.898438 374.203125 501.5 400.601562 501.5 400.601562 C 501.5 400.601562 582 374.203125 582 329.601562 L 582 193.203125 Z M 420.898438 193.203125 " transform="matrix(0.5,0,0,0.5,0,0)"/>
<path style=" stroke:none;fill-rule:nonzero;fill:rgb(0.392157%,12.941177%,41.176471%);fill-opacity:1;" d="M 0 0 L 160 0 L 160 120 L 0 120 Z M 0 0 "/>
<path style=" stroke:none;fill-rule:nonzero;fill:rgb(100%,100%,100%);fill-opacity:1;" d="M 18.75 0 L 79.75 45.25 L 140.5 0 L 160 0 L 160 15.5 L 100 60.25 L 160 104.75 L 160 120 L 140 120 L 80 75.25 L 20.25 120 L 0 120 L 0 105 L 59.75 60.5 L 0 16 L 0 0 Z M 18.75 0 "/>
<path style=" stroke:none;fill-rule:nonzero;fill:rgb(78.431374%,6.27451%,18.039216%);fill-opacity:1;" d="M 106 70.25 L 160 110 L 160 120 L 92.25 70.25 Z M 60 75.25 L 61.5 84 L 13.5 120 L 0 120 Z M 160 0 L 160 0.75 L 97.75 47.75 L 98.25 36.75 L 147.5 0 Z M 0 0 L 59.75 44 L 44.75 44 L 0 10.5 Z M 0 0 "/>
<path style=" stroke:none;fill-rule:nonzero;fill:rgb(100%,100%,100%);fill-opacity:1;" d="M 60.25 0 L 60.25 120 L 100.25 120 L 100.25 0 Z M 0 40 L 0 80 L 160 80 L 160 40 Z M 0 40 "/>
<path style=" stroke:none;fill-rule:nonzero;fill:rgb(78.431374%,6.27451%,18.039216%);fill-opacity:1;" d="M 0 48.25 L 0 72.25 L 160 72.25 L 160 48.25 Z M 68.25 0 L 68.25 120 L 92.25 120 L 92.25 0 Z M 68.25 0 "/>
</g>
</svg>
