<?xml version="1.0" encoding="UTF-8"?>
<svg xmlns="http://www.w3.org/2000/svg" xmlns:xlink="http://www.w3.org/1999/xlink" width="px" height="px" viewBox="0 0 320 240" version="1.1">
<g id="surface1">
<rect x="0" y="0" width="320" height="240" style="fill:rgb(0.392157%,12.941177%,41.176471%);fill-opacity:1;stroke:none;"/>
<path style=" stroke:none;fill-rule:nonzero;fill:rgb(100%,100%,100%);fill-opacity:1;" d="M 37.5 0 L 159.5 90.5 L 281 0 L 320 0 L 320 31 L 200 120.5 L 320 209.5 L 320 240 L 280 240 L 160 150.5 L 40.5 240 L 0 240 L 0 210 L 119.5 121 L 0 32 L 0 0 Z M 37.5 0 "/>
<path style=" stroke:none;fill-rule:nonzero;fill:rgb(78.431374%,6.27451%,18.039216%);fill-opacity:1;" d="M 212 140.5 L 320 220 L 320 240 L 184.5 140.5 Z M 120 150.5 L 123 168 L 27 240 L 0 240 Z M 320 0 L 320 1.5 L 195.5 95.5 L 196.5 73.5 L 295 0 Z M 0 0 L 119.5 88 L 89.5 88 L 0 21 Z M 0 0 "/>
<path style=" stroke:none;fill-rule:nonzero;fill:rgb(100%,100%,100%);fill-opacity:1;" d="M 120.5 0 L 120.5 240 L 200.5 240 L 200.5 0 Z M 0 80 L 0 160 L 320 160 L 320 80 Z M 0 80 "/>
<path style=" stroke:none;fill-rule:nonzero;fill:rgb(78.431374%,6.27451%,18.039216%);fill-opacity:1;" d="M 0 96.5 L 0 144.5 L 320 144.5 L 320 96.5 Z M 136.5 0 L 136.5 240 L 184.5 240 L 184.5 0 Z M 136.5 0 "/>
</g>
</svg>
