<?xml version="1.0" encoding="UTF-8"?>
<svg xmlns="http://www.w3.org/2000/svg" xmlns:xlink="http://www.w3.org/1999/xlink" width="px" height="px" viewBox="0 0 320 240" version="1.1">
<g id="surface1">
<rect x="0" y="0" width="320" height="240" style="fill:rgb(80.784315%,6.666667%,14.901961%);fill-opacity:1;stroke:none;"/>
<path style=" stroke:none;fill-rule:nonzero;fill:rgb(0%,47.843137%,36.862746%);fill-opacity:1;" d="M 33.601562 33.601562 L 286.398438 33.601562 L 286.398438 206.398438 L 33.601562 206.398438 Z M 33.601562 33.601562 "/>
<path style=" stroke:none;fill-rule:nonzero;fill:rgb(98.823529%,81.960785%,8.627451%);fill-opacity:1;" d="M 33.601562 33.648438 L 286.398438 33.648438 L 33.601562 206.449219 L 286.398438 206.449219 Z M 33.601562 33.648438 "/>
<path style=" stroke:none;fill-rule:nonzero;fill:rgb(80.784315%,6.666667%,14.901961%);fill-opacity:1;" d="M 188.75 120.050781 C 188.75 104.144531 175.855469 91.25 159.949219 91.25 C 144.042969 91.25 131.148438 104.144531 131.148438 120.050781 C 131.148438 135.957031 144.042969 148.851562 159.949219 148.851562 C 175.855469 148.851562 188.75 135.957031 188.75 120.050781 Z M 188.75 120.050781 "/>
<path style=" stroke:none;fill-rule:nonzero;fill:rgb(98.823529%,81.960785%,8.627451%);fill-opacity:1;" d="M 160 93.601562 L 151.84375 118.707031 L 164.394531 122.785156 "/>
<path style=" stroke:none;fill-rule:nonzero;fill:rgb(98.823529%,81.960785%,8.627451%);fill-opacity:1;" d="M 160 93.601562 L 168.15625 118.707031 L 155.605469 122.785156 "/>
<path style=" stroke:none;fill-rule:nonzero;fill:rgb(98.823529%,81.960785%,8.627451%);fill-opacity:1;" d="M 185.109375 111.84375 L 158.707031 111.84375 L 158.707031 125.042969 "/>
<path style=" stroke:none;fill-rule:nonzero;fill:rgb(98.823529%,81.960785%,8.627451%);fill-opacity:1;" d="M 185.109375 111.84375 L 163.75 127.359375 L 155.992188 116.679688 "/>
<path style=" stroke:none;fill-rule:nonzero;fill:rgb(98.823529%,81.960785%,8.627451%);fill-opacity:1;" d="M 175.515625 141.359375 L 167.359375 116.25 L 154.804688 120.328125 "/>
<path style=" stroke:none;fill-rule:nonzero;fill:rgb(98.823529%,81.960785%,8.627451%);fill-opacity:1;" d="M 175.515625 141.359375 L 154.160156 125.839844 L 161.917969 115.160156 "/>
<path style=" stroke:none;fill-rule:nonzero;fill:rgb(98.823529%,81.960785%,8.627451%);fill-opacity:1;" d="M 144.484375 141.359375 L 165.839844 125.839844 L 158.082031 115.160156 "/>
<path style=" stroke:none;fill-rule:nonzero;fill:rgb(98.823529%,81.960785%,8.627451%);fill-opacity:1;" d="M 144.484375 141.359375 L 152.640625 116.25 L 165.195312 120.328125 "/>
<path style=" stroke:none;fill-rule:nonzero;fill:rgb(98.823529%,81.960785%,8.627451%);fill-opacity:1;" d="M 134.890625 111.84375 L 156.25 127.359375 L 164.007812 116.679688 "/>
<path style=" stroke:none;fill-rule:nonzero;fill:rgb(98.823529%,81.960785%,8.627451%);fill-opacity:1;" d="M 134.890625 111.84375 L 161.292969 111.84375 L 161.292969 125.042969 "/>
<path style=" stroke:none;fill-rule:nonzero;fill:rgb(98.823529%,81.960785%,8.627451%);fill-opacity:1;" d="M 94.851562 1.199219 L 90.03125 16.035156 L 97.449219 18.445312 "/>
<path style=" stroke:none;fill-rule:nonzero;fill:rgb(98.823529%,81.960785%,8.627451%);fill-opacity:1;" d="M 94.851562 1.199219 L 99.671875 16.035156 L 92.253906 18.445312 "/>
<path style=" stroke:none;fill-rule:nonzero;fill:rgb(98.823529%,81.960785%,8.627451%);fill-opacity:1;" d="M 109.6875 11.980469 L 94.085938 11.980469 L 94.085938 19.78125 "/>
<path style=" stroke:none;fill-rule:nonzero;fill:rgb(98.823529%,81.960785%,8.627451%);fill-opacity:1;" d="M 109.6875 11.980469 L 97.066406 21.148438 L 92.480469 14.839844 "/>
<path style=" stroke:none;fill-rule:nonzero;fill:rgb(98.823529%,81.960785%,8.627451%);fill-opacity:1;" d="M 104.019531 29.421875 L 99.199219 14.585938 L 91.78125 16.996094 "/>
<path style=" stroke:none;fill-rule:nonzero;fill:rgb(98.823529%,81.960785%,8.627451%);fill-opacity:1;" d="M 104.019531 29.421875 L 91.398438 20.25 L 95.984375 13.941406 "/>
<path style=" stroke:none;fill-rule:nonzero;fill:rgb(98.823529%,81.960785%,8.627451%);fill-opacity:1;" d="M 85.679688 29.421875 L 98.300781 20.25 L 93.714844 13.941406 "/>
<path style=" stroke:none;fill-rule:nonzero;fill:rgb(98.823529%,81.960785%,8.627451%);fill-opacity:1;" d="M 85.679688 29.421875 L 90.5 14.585938 L 97.917969 16.996094 "/>
<path style=" stroke:none;fill-rule:nonzero;fill:rgb(98.823529%,81.960785%,8.627451%);fill-opacity:1;" d="M 80.011719 11.980469 L 92.632812 21.148438 L 97.21875 14.839844 "/>
<path style=" stroke:none;fill-rule:nonzero;fill:rgb(98.823529%,81.960785%,8.627451%);fill-opacity:1;" d="M 80.011719 11.980469 L 95.613281 11.980469 L 95.613281 19.78125 "/>
<path style=" stroke:none;fill-rule:nonzero;fill:rgb(98.823529%,81.960785%,8.627451%);fill-opacity:1;" d="M 160 1.199219 L 155.179688 16.035156 L 162.597656 18.445312 "/>
<path style=" stroke:none;fill-rule:nonzero;fill:rgb(98.823529%,81.960785%,8.627451%);fill-opacity:1;" d="M 160 1.199219 L 164.820312 16.035156 L 157.402344 18.445312 "/>
<path style=" stroke:none;fill-rule:nonzero;fill:rgb(98.823529%,81.960785%,8.627451%);fill-opacity:1;" d="M 174.835938 11.980469 L 159.238281 11.980469 L 159.238281 19.78125 "/>
<path style=" stroke:none;fill-rule:nonzero;fill:rgb(98.823529%,81.960785%,8.627451%);fill-opacity:1;" d="M 174.835938 11.980469 L 162.214844 21.148438 L 157.632812 14.839844 "/>
<path style=" stroke:none;fill-rule:nonzero;fill:rgb(98.823529%,81.960785%,8.627451%);fill-opacity:1;" d="M 169.167969 29.421875 L 164.347656 14.585938 L 156.929688 16.996094 "/>
<path style=" stroke:none;fill-rule:nonzero;fill:rgb(98.823529%,81.960785%,8.627451%);fill-opacity:1;" d="M 169.167969 29.421875 L 156.546875 20.25 L 161.132812 13.941406 "/>
<path style=" stroke:none;fill-rule:nonzero;fill:rgb(98.823529%,81.960785%,8.627451%);fill-opacity:1;" d="M 150.832031 29.421875 L 163.453125 20.25 L 158.867188 13.941406 "/>
<path style=" stroke:none;fill-rule:nonzero;fill:rgb(98.823529%,81.960785%,8.627451%);fill-opacity:1;" d="M 150.832031 29.421875 L 155.652344 14.585938 L 163.070312 16.996094 "/>
<path style=" stroke:none;fill-rule:nonzero;fill:rgb(98.823529%,81.960785%,8.627451%);fill-opacity:1;" d="M 145.164062 11.980469 L 157.785156 21.148438 L 162.367188 14.839844 "/>
<path style=" stroke:none;fill-rule:nonzero;fill:rgb(98.823529%,81.960785%,8.627451%);fill-opacity:1;" d="M 145.164062 11.980469 L 160.761719 11.980469 L 160.761719 19.78125 "/>
<path style=" stroke:none;fill-rule:nonzero;fill:rgb(98.823529%,81.960785%,8.627451%);fill-opacity:1;" d="M 225.148438 1.199219 L 220.328125 16.035156 L 227.746094 18.445312 "/>
<path style=" stroke:none;fill-rule:nonzero;fill:rgb(98.823529%,81.960785%,8.627451%);fill-opacity:1;" d="M 225.148438 1.199219 L 229.96875 16.035156 L 222.550781 18.445312 "/>
<path style=" stroke:none;fill-rule:nonzero;fill:rgb(98.823529%,81.960785%,8.627451%);fill-opacity:1;" d="M 239.988281 11.980469 L 224.386719 11.980469 L 224.386719 19.78125 "/>
<path style=" stroke:none;fill-rule:nonzero;fill:rgb(98.823529%,81.960785%,8.627451%);fill-opacity:1;" d="M 239.988281 11.980469 L 227.367188 21.148438 L 222.78125 14.839844 "/>
<path style=" stroke:none;fill-rule:nonzero;fill:rgb(98.823529%,81.960785%,8.627451%);fill-opacity:1;" d="M 234.320312 29.421875 L 229.5 14.585938 L 222.082031 16.996094 "/>
<path style=" stroke:none;fill-rule:nonzero;fill:rgb(98.823529%,81.960785%,8.627451%);fill-opacity:1;" d="M 234.320312 29.421875 L 221.699219 20.25 L 226.285156 13.941406 "/>
<path style=" stroke:none;fill-rule:nonzero;fill:rgb(98.823529%,81.960785%,8.627451%);fill-opacity:1;" d="M 215.980469 29.421875 L 228.601562 20.25 L 224.015625 13.941406 "/>
<path style=" stroke:none;fill-rule:nonzero;fill:rgb(98.823529%,81.960785%,8.627451%);fill-opacity:1;" d="M 215.980469 29.421875 L 220.800781 14.585938 L 228.21875 16.996094 "/>
<path style=" stroke:none;fill-rule:nonzero;fill:rgb(98.823529%,81.960785%,8.627451%);fill-opacity:1;" d="M 210.3125 11.980469 L 222.933594 21.148438 L 227.519531 14.839844 "/>
<path style=" stroke:none;fill-rule:nonzero;fill:rgb(98.823529%,81.960785%,8.627451%);fill-opacity:1;" d="M 210.3125 11.980469 L 225.914062 11.980469 L 225.914062 19.78125 "/>
<path style=" stroke:none;fill-rule:nonzero;fill:rgb(80.784315%,6.666667%,14.901961%);fill-opacity:1;" d="M 51.148438 120.351562 C 54.9375 127.441406 60.773438 133.226562 67.898438 136.949219 C 67.621094 129.136719 65.699219 121.46875 62.25 114.449219 Z M 51.148438 120.351562 "/>
<path style=" stroke:none;fill-rule:nonzero;fill:rgb(98.823529%,81.960785%,8.627451%);fill-opacity:1;" d="M 45.050781 97.351562 C 50.25 108.199219 31.5 134.199219 62.800781 140.300781 C 58.566406 134.179688 56.632812 126.757812 57.351562 119.351562 C 64.308594 122.566406 70.015625 127.976562 73.601562 134.75 C 81.800781 105 52.601562 106.851562 45.050781 97.351562 "/>
<path style=" stroke:none;fill-rule:nonzero;fill:rgb(98.823529%,81.960785%,8.627451%);fill-opacity:1;" d="M 94.851562 208.5 L 90.03125 223.335938 L 97.449219 225.746094 "/>
<path style=" stroke:none;fill-rule:nonzero;fill:rgb(98.823529%,81.960785%,8.627451%);fill-opacity:1;" d="M 94.851562 208.5 L 99.671875 223.335938 L 92.253906 225.746094 "/>
<path style=" stroke:none;fill-rule:nonzero;fill:rgb(98.823529%,81.960785%,8.627451%);fill-opacity:1;" d="M 109.6875 219.28125 L 94.085938 219.28125 L 94.085938 227.078125 "/>
<path style=" stroke:none;fill-rule:nonzero;fill:rgb(98.823529%,81.960785%,8.627451%);fill-opacity:1;" d="M 109.6875 219.28125 L 97.066406 228.449219 L 92.480469 222.136719 "/>
<path style=" stroke:none;fill-rule:nonzero;fill:rgb(98.823529%,81.960785%,8.627451%);fill-opacity:1;" d="M 104.019531 236.71875 L 99.199219 221.882812 L 91.78125 224.292969 "/>
<path style=" stroke:none;fill-rule:nonzero;fill:rgb(98.823529%,81.960785%,8.627451%);fill-opacity:1;" d="M 104.019531 236.71875 L 91.398438 227.550781 L 95.984375 221.242188 "/>
<path style=" stroke:none;fill-rule:nonzero;fill:rgb(98.823529%,81.960785%,8.627451%);fill-opacity:1;" d="M 85.679688 236.71875 L 98.300781 227.550781 L 93.714844 221.242188 "/>
<path style=" stroke:none;fill-rule:nonzero;fill:rgb(98.823529%,81.960785%,8.627451%);fill-opacity:1;" d="M 85.679688 236.71875 L 90.5 221.882812 L 97.917969 224.292969 "/>
<path style=" stroke:none;fill-rule:nonzero;fill:rgb(98.823529%,81.960785%,8.627451%);fill-opacity:1;" d="M 80.011719 219.28125 L 92.632812 228.449219 L 97.21875 222.136719 "/>
<path style=" stroke:none;fill-rule:nonzero;fill:rgb(98.823529%,81.960785%,8.627451%);fill-opacity:1;" d="M 80.011719 219.28125 L 95.613281 219.28125 L 95.613281 227.078125 "/>
<path style=" stroke:none;fill-rule:nonzero;fill:rgb(98.823529%,81.960785%,8.627451%);fill-opacity:1;" d="M 160 208.5 L 155.179688 223.335938 L 162.597656 225.746094 "/>
<path style=" stroke:none;fill-rule:nonzero;fill:rgb(98.823529%,81.960785%,8.627451%);fill-opacity:1;" d="M 160 208.5 L 164.820312 223.335938 L 157.402344 225.746094 "/>
<path style=" stroke:none;fill-rule:nonzero;fill:rgb(98.823529%,81.960785%,8.627451%);fill-opacity:1;" d="M 174.835938 219.28125 L 159.238281 219.28125 L 159.238281 227.078125 "/>
<path style=" stroke:none;fill-rule:nonzero;fill:rgb(98.823529%,81.960785%,8.627451%);fill-opacity:1;" d="M 174.835938 219.28125 L 162.214844 228.449219 L 157.632812 222.136719 "/>
<path style=" stroke:none;fill-rule:nonzero;fill:rgb(98.823529%,81.960785%,8.627451%);fill-opacity:1;" d="M 169.167969 236.71875 L 164.347656 221.882812 L 156.929688 224.292969 "/>
<path style=" stroke:none;fill-rule:nonzero;fill:rgb(98.823529%,81.960785%,8.627451%);fill-opacity:1;" d="M 169.167969 236.71875 L 156.546875 227.550781 L 161.132812 221.242188 "/>
<path style=" stroke:none;fill-rule:nonzero;fill:rgb(98.823529%,81.960785%,8.627451%);fill-opacity:1;" d="M 150.832031 236.71875 L 163.453125 227.550781 L 158.867188 221.242188 "/>
<path style=" stroke:none;fill-rule:nonzero;fill:rgb(98.823529%,81.960785%,8.627451%);fill-opacity:1;" d="M 150.832031 236.71875 L 155.652344 221.882812 L 163.070312 224.292969 "/>
<path style=" stroke:none;fill-rule:nonzero;fill:rgb(98.823529%,81.960785%,8.627451%);fill-opacity:1;" d="M 145.164062 219.28125 L 157.785156 228.449219 L 162.367188 222.136719 "/>
<path style=" stroke:none;fill-rule:nonzero;fill:rgb(98.823529%,81.960785%,8.627451%);fill-opacity:1;" d="M 145.164062 219.28125 L 160.761719 219.28125 L 160.761719 227.078125 "/>
<path style=" stroke:none;fill-rule:nonzero;fill:rgb(98.823529%,81.960785%,8.627451%);fill-opacity:1;" d="M 225.148438 208.5 L 220.328125 223.335938 L 227.746094 225.746094 "/>
<path style=" stroke:none;fill-rule:nonzero;fill:rgb(98.823529%,81.960785%,8.627451%);fill-opacity:1;" d="M 225.148438 208.5 L 229.96875 223.335938 L 222.550781 225.746094 "/>
<path style=" stroke:none;fill-rule:nonzero;fill:rgb(98.823529%,81.960785%,8.627451%);fill-opacity:1;" d="M 239.988281 219.28125 L 224.386719 219.28125 L 224.386719 227.078125 "/>
<path style=" stroke:none;fill-rule:nonzero;fill:rgb(98.823529%,81.960785%,8.627451%);fill-opacity:1;" d="M 239.988281 219.28125 L 227.367188 228.449219 L 222.78125 222.136719 "/>
<path style=" stroke:none;fill-rule:nonzero;fill:rgb(98.823529%,81.960785%,8.627451%);fill-opacity:1;" d="M 234.320312 236.71875 L 229.5 221.882812 L 222.082031 224.292969 "/>
<path style=" stroke:none;fill-rule:nonzero;fill:rgb(98.823529%,81.960785%,8.627451%);fill-opacity:1;" d="M 234.320312 236.71875 L 221.699219 227.550781 L 226.285156 221.242188 "/>
<path style=" stroke:none;fill-rule:nonzero;fill:rgb(98.823529%,81.960785%,8.627451%);fill-opacity:1;" d="M 215.980469 236.71875 L 228.601562 227.550781 L 224.015625 221.242188 "/>
<path style=" stroke:none;fill-rule:nonzero;fill:rgb(98.823529%,81.960785%,8.627451%);fill-opacity:1;" d="M 215.980469 236.71875 L 220.800781 221.882812 L 228.21875 224.292969 "/>
<path style=" stroke:none;fill-rule:nonzero;fill:rgb(98.823529%,81.960785%,8.627451%);fill-opacity:1;" d="M 210.3125 219.28125 L 222.933594 228.449219 L 227.519531 222.136719 "/>
<path style=" stroke:none;fill-rule:nonzero;fill:rgb(98.823529%,81.960785%,8.627451%);fill-opacity:1;" d="M 210.3125 219.28125 L 225.914062 219.28125 L 225.914062 227.078125 "/>
</g>
</svg>
