<?xml version="1.0" encoding="UTF-8"?>
<svg xmlns="http://www.w3.org/2000/svg" xmlns:xlink="http://www.w3.org/1999/xlink" width="px" height="px" viewBox="0 0 320 240" version="1.1">
<g id="surface1">
<rect x="0" y="0" width="320" height="240" style="fill:rgb(89.019608%,12.941177%,9.411765%);fill-opacity:1;stroke:none;"/>
<path style=" stroke:none;fill-rule:nonzero;fill:rgb(100%,100%,100%);fill-opacity:1;" d="M 0 0 L 320 0 L 320 160 L 0 160 Z M 0 0 "/>
<path style=" stroke:none;fill-rule:nonzero;fill:rgb(24.313726%,60.392159%,0%);fill-opacity:1;" d="M 0 0 L 320 0 L 320 80 L 0 80 Z M 0 0 "/>
<path style=" stroke:none;fill-rule:nonzero;fill:rgb(0%,45.09804%,80.784315%);fill-opacity:1;" d="M 0 0 L 0 240 L 90 120 Z M 0 0 "/>
<path style="fill-rule:nonzero;fill:rgb(100%,100%,100%);fill-opacity:1;stroke-width:1;stroke-linecap:butt;stroke-linejoin:miter;stroke:rgb(0%,0%,0%);stroke-opacity:1;stroke-miterlimit:4;" d="M 281.601562 191.796875 L 358.203125 191.796875 L 358.203125 272 C 358.203125 299 323 278.203125 320 292.601562 C 314.796875 277.796875 281.796875 299.203125 281.796875 270.398438 Z M 281.601562 191.796875 " transform="matrix(0.5,0,0,0.5,0,0)"/>
<path style="fill-rule:nonzero;fill:rgb(45.09804%,27.058825%,16.862746%);fill-opacity:1;stroke-width:0.2;stroke-linecap:butt;stroke-linejoin:miter;stroke:rgb(0%,0%,0%);stroke-opacity:1;stroke-miterlimit:4;" d="M 325.398438 279.796875 C 325.398438 279.796875 324.398438 280.796875 322.601562 280 C 320.796875 279.203125 320.601562 228.601562 320.601562 228.601562 C 324.601562 224.203125 327.796875 222.796875 327.796875 222.796875 L 330.203125 224.796875 C 321.203125 229.398438 322 236 322.796875 247.398438 C 323 251.601562 323 257 324 262.203125 C 325.398438 268.796875 328.203125 274.398438 328.398438 278.601562 C 328.601562 281.203125 325.398438 279.796875 325.398438 279.796875 Z M 325.398438 279.796875 " transform="matrix(0.5,0,0,0.5,0,0)"/>
<path style="fill-rule:nonzero;fill:rgb(45.09804%,27.058825%,16.862746%);fill-opacity:1;stroke-width:0.2;stroke-linecap:butt;stroke-linejoin:miter;stroke:rgb(0%,0%,0%);stroke-opacity:1;stroke-miterlimit:4;" d="M 319.203125 221.601562 L 322.796875 221.601562 C 319.796875 250.601562 322.398438 267.796875 322.398438 276.203125 C 322.398438 279 324 280 323.796875 280 C 320.203125 284 318.398438 279.796875 318.398438 279.796875 Z M 319.203125 221.601562 " transform="matrix(0.5,0,0,0.5,0,0)"/>
<path style="fill-rule:nonzero;fill:rgb(63.921571%,40.000001%,16.078432%);fill-opacity:1;stroke-width:0.2;stroke-linecap:butt;stroke-linejoin:miter;stroke:rgb(0%,0%,0%);stroke-opacity:1;stroke-miterlimit:4;" d="M 313.601562 279.796875 C 310.203125 281.398438 309.796875 278.203125 310 277.796875 C 317.398438 262.796875 320.601562 229.796875 313.796875 226.203125 L 314.203125 223 C 316.796875 223.796875 319.203125 227.203125 319.203125 227.203125 C 320.203125 264.203125 319.203125 279.398438 318.601562 280 C 315 283.796875 313.601562 279.398438 313.398438 279 " transform="matrix(0.5,0,0,0.5,0,0)"/>
<path style="fill:none;stroke-width:0.2;stroke-linecap:butt;stroke-linejoin:miter;stroke:rgb(0%,0%,0%);stroke-opacity:1;stroke-miterlimit:4;" d="M 313.398438 279.203125 C 312.796875 276 318.601562 267.796875 318.203125 259.203125 M 323.203125 266.203125 C 325.070312 271.132812 325.796875 275.664062 325.398438 279.796875 " transform="matrix(0.5,0,0,0.5,0,0)"/>
<path style="fill-rule:nonzero;fill:rgb(0%,60.392159%,23.137255%);fill-opacity:1;stroke-width:0.2;stroke-linecap:butt;stroke-linejoin:miter;stroke:rgb(0%,0%,0%);stroke-opacity:1;stroke-miterlimit:4;" d="M 331 208 C 332.203125 206.601562 332.203125 206.601562 334.398438 206.601562 C 334.796875 203.601562 339.796875 203.601562 340.203125 207.398438 C 344.203125 206.601562 345 209 343.398438 211.398438 C 347.203125 210.398438 350.601562 211.398438 349.601562 215.796875 C 356.398438 217.601562 353.796875 222.398438 350.796875 223.398438 C 350.398438 226.398438 347.601562 227.398438 343.796875 226.203125 C 339 229.601562 336.203125 228.398438 334 225 C 328.601562 225.796875 328.203125 224.601562 325.796875 221.601562 C 321.601562 223.398438 320.796875 223.398438 317.203125 221.203125 C 317 224 316 223.203125 314.203125 223 C 314.46875 226.734375 313 228.070312 309.796875 227 C 312.203125 232 306 234.203125 303 230 C 300.203125 230.203125 300 229.398438 298.601562 228.398438 C 297.398438 232.398438 293 231.796875 292.203125 229.601562 C 286.601562 228.796875 287.203125 225.796875 291.796875 225.601562 C 292.203125 222.398438 295 223 296.796875 223.398438 C 297 221.398438 298.203125 221.796875 299.203125 222.203125 C 298.53125 220.867188 299.070312 220 300.796875 219.601562 C 298.203125 216.203125 299.796875 215 302.398438 213.796875 C 301 210.601562 303.398438 210.796875 305.203125 210.601562 C 305 207.203125 306 206.601562 309.601562 206.203125 C 309.203125 205 309.796875 204 311.796875 204 C 310.601562 200.601562 312.203125 199.796875 315.796875 200.398438 C 316.398438 195.398438 327 197.796875 326.203125 204.601562 C 329.203125 205 330.203125 205.601562 331 208 Z M 331 208 " transform="matrix(0.5,0,0,0.5,0,0)"/>
<path style="fill:none;stroke-width:0.2;stroke-linecap:butt;stroke-linejoin:miter;stroke:rgb(0%,0%,0%);stroke-opacity:1;stroke-miterlimit:4;" d="M 309.601562 206.203125 C 310.398438 206.601562 311.398438 206.203125 311.601562 208.398438 C 313.203125 205.601562 315.203125 207.203125 315.203125 210.398438 M 326.203125 204.601562 C 325.398438 205.796875 322.398438 205.796875 322.796875 209 C 321.796875 207.601562 319.796875 207.203125 319 208.601562 M 331 208 C 331 208.796875 330.796875 211.203125 330 212.398438 M 343.398438 211.398438 C 343.601562 211.601562 340.601562 211.398438 339.203125 212.398438 M 350.796875 223.398438 C 350 223 348.398438 222 347.203125 223.601562 C 347.203125 222.796875 347.203125 220.601562 345 220.601562 M 343.796875 226.203125 C 343.796875 224.203125 343.398438 223.601562 343 223 M 337.203125 223.398438 C 335.601562 222.203125 334 224 334 225 M 325.601562 221.601562 C 325.601562 220.796875 325 219.203125 326.398438 218.601562 M 302.796875 230 C 303.203125 228 304.601562 228 304.398438 227 C 304.203125 225.398438 302.398438 224 300.203125 226.203125 M 304.398438 227 C 305.734375 226.664062 306.664062 226.796875 307.203125 227.398438 M 301 219.601562 C 301.796875 218.796875 303.796875 219 305 219.601562 M 305 214.796875 C 306 214.796875 307.796875 214.398438 308.398438 216.203125 C 310.601562 212.796875 312.203125 213.203125 312.601562 214 M 316.601562 213.601562 C 318.203125 213 321 214.601562 322.601562 217.398438 C 323.398438 215.203125 324.601562 215.601562 325.796875 215.398438 M 333.398438 217.398438 C 336 216.203125 337.601562 218.601562 338.398438 219.601562 C 339.601562 218 340.601562 218 341.796875 218 M 309.203125 222.203125 C 309.796875 221.203125 311.203125 221 312.203125 221.601562 C 312 219.796875 313.203125 219 314 219.398438 " transform="matrix(0.5,0,0,0.5,0,0)"/>
<path style="fill-rule:nonzero;fill:rgb(100%,84.313726%,0%);fill-opacity:1;stroke-width:0.7;stroke-linecap:butt;stroke-linejoin:miter;stroke:rgb(0%,0%,0%);stroke-opacity:1;stroke-miterlimit:4;" d="M 317.398438 180.5 L 313 180.703125 L 310.796875 184.703125 L 308.398438 180.898438 L 304 181.101562 L 306 177.101562 L 303.601562 173.398438 L 308.203125 173.203125 L 310.203125 169.203125 L 312.601562 173 L 317 172.796875 L 315 176.796875 Z M 298.601562 182 L 294.203125 183 L 293 187.296875 L 289.796875 184.101562 L 285.601562 185.101562 L 286.796875 180.898438 L 283.796875 177.703125 L 288 176.601562 L 289.203125 172.296875 L 292.398438 175.5 L 296.796875 174.5 L 295.398438 178.796875 Z M 280.398438 185.703125 L 276.398438 187.703125 L 276.203125 192.101562 L 272.398438 189.703125 L 268.398438 191.703125 L 268.796875 187.203125 L 265 184.796875 L 269 182.796875 L 269.398438 178.296875 L 273 180.796875 L 277 178.796875 L 276.796875 183.203125 Z M 323.203125 180.5 L 327.601562 180.703125 L 329.601562 184.703125 L 332 180.898438 L 336.398438 181.101562 L 334.398438 177.101562 L 336.796875 173.398438 L 332.398438 173.203125 L 330.203125 169.203125 L 327.796875 173 L 323.398438 172.796875 L 325.398438 176.796875 Z M 342 182 L 346.203125 183 L 347.398438 187.296875 L 350.601562 184.101562 L 354.796875 185.101562 L 353.601562 180.898438 L 356.796875 177.703125 L 352.398438 176.601562 L 351.203125 172.296875 L 348 175.5 L 343.796875 174.5 L 345 178.796875 Z M 360 185.703125 L 364 187.703125 L 364.203125 192.101562 L 368 189.703125 L 372 191.703125 L 371.796875 187.203125 L 375.398438 184.796875 L 371.398438 182.796875 L 371.203125 178.296875 L 367.398438 180.796875 L 363.398438 178.796875 L 363.796875 183.203125 Z M 360 185.703125 " transform="matrix(0.5,0,0,0.5,0,0)"/>
<path style="fill-rule:nonzero;fill:rgb(100%,100%,100%);fill-opacity:1;stroke-width:0.7;stroke-linecap:butt;stroke-linejoin:miter;stroke:rgb(0%,0%,0%);stroke-opacity:1;stroke-miterlimit:4;" d="M 365.398438 270.398438 L 370.398438 277.601562 L 375 270.796875 L 371.796875 265 Z M 333.601562 291.398438 L 334 298.601562 C 334 298.601562 336 298.601562 337.796875 298 C 339.398438 297.398438 340.796875 296.203125 340.796875 296.203125 L 340.601562 292.398438 Z M 306.796875 291.398438 L 306.398438 298.398438 C 306.398438 298.398438 304.601562 298.398438 302.796875 298 C 301.203125 297.601562 299.796875 296.601562 299.796875 296.601562 L 297.796875 291.796875 Z M 274.601562 270.398438 L 269.398438 277.601562 L 263.796875 268.398438 L 268 264 Z M 274.601562 270.398438 " transform="matrix(0.5,0,0,0.5,0,0)"/>
<path style="fill-rule:nonzero;fill:rgb(100%,100%,100%);fill-opacity:1;stroke-width:0.7;stroke-linecap:butt;stroke-linejoin:miter;stroke:rgb(0%,0%,0%);stroke-opacity:1;stroke-miterlimit:4;" d="M 299.601562 305.796875 C 299.601562 312.601562 340.796875 312.601562 340.796875 305.796875 L 340.796875 296.203125 C 340.796875 301.203125 299.601562 300.203125 299.601562 296.203125 Z M 299.601562 305.796875 " transform="matrix(0.5,0,0,0.5,0,0)"/>
<path style="fill-rule:nonzero;fill:rgb(100%,100%,100%);fill-opacity:1;stroke-width:0.7;stroke-linecap:butt;stroke-linejoin:miter;stroke:rgb(0%,0%,0%);stroke-opacity:1;stroke-miterlimit:4;" d="M 262.796875 283.601562 C 266.398438 302 299.601562 302.398438 299.601562 302.398438 L 299.601562 296.203125 C 298.796875 293.796875 300.203125 293 305.601562 292.203125 C 307.796875 292 306.796875 288.796875 306.796875 288.796875 C 306.796875 288.796875 292.398438 291.398438 282.203125 287.398438 C 268.398438 281.796875 266.398438 271 266.398438 271 C 266.398438 271 265.398438 279.398438 262.796875 283.601562 Z M 377.398438 283.601562 C 374 302 340.796875 302.398438 340.796875 302.398438 L 340.796875 296.203125 C 341.398438 293.796875 340 293 334.601562 292.203125 C 332.398438 292 333.601562 288.796875 333.601562 288.796875 C 333.601562 288.796875 348 291.398438 358.203125 287.398438 C 371.796875 281.796875 373.398438 271 373.398438 271 C 373.398438 271 374.796875 279.398438 377.398438 283.601562 Z M 377.398438 283.601562 " transform="matrix(0.5,0,0,0.5,0,0)"/>
<path style="fill-rule:nonzero;fill:rgb(100%,100%,100%);fill-opacity:1;stroke-width:0.7;stroke-linecap:butt;stroke-linejoin:miter;stroke:rgb(0%,0%,0%);stroke-opacity:1;stroke-miterlimit:4;" d="M 265.398438 276.601562 C 256.203125 271.601562 263.398438 266.398438 264.203125 251.601562 C 265.601562 260.601562 275.796875 264.398438 274.601562 270.203125 C 270.398438 270.398438 268.398438 264 266.398438 271 Z M 374.796875 276.601562 C 384 271.398438 376.398438 266.398438 375.601562 251.601562 C 374.203125 260.601562 364.203125 264.398438 365.398438 270.203125 C 369.398438 270.398438 371.398438 264 373.398438 271 L 374.796875 276.398438 Z M 374.796875 276.601562 " transform="matrix(0.5,0,0,0.5,0,0)"/>
<path style=" stroke:none;fill-rule:nonzero;fill:rgb(0%,0%,0%);fill-opacity:1;" d="M 135.5 141.699219 L 136 142.101562 L 134.898438 143.300781 C 134.433594 143.765625 134.351562 144.132812 134.648438 144.398438 C 134.984375 144.734375 135.316406 144.667969 135.648438 144.199219 L 136.898438 142.898438 L 137.300781 143.300781 L 136.101562 144.699219 C 135.449219 145.449219 134.851562 145.300781 134.300781 144.800781 C 133.898438 144.398438 133.601562 143.800781 134.300781 143.050781 Z M 137.5 143.398438 L 138 143.699219 L 137.898438 146.101562 L 139 144.398438 L 139.5 144.699219 L 137.898438 147.300781 L 137.300781 147 L 137.398438 144.601562 L 136.300781 146.300781 L 135.800781 146 Z M 138.398438 147.601562 L 139.800781 144.800781 L 140.300781 145.101562 L 139 147.800781 Z M 140.601562 145.199219 L 139.5 148.101562 L 140.601562 148.5 C 141.535156 148.800781 142.132812 148.484375 142.398438 147.550781 C 142.800781 146.683594 142.535156 146.035156 141.601562 145.601562 Z M 141 145.898438 C 142 146.25 142.101562 146.648438 141.800781 147.398438 C 141.5 148.050781 141.300781 148.300781 140.300781 147.800781 Z M 143.898438 146.300781 L 142.101562 149 L 142.800781 149.199219 L 143.199219 148.5 L 144.398438 148.800781 L 144.5 149.5 L 145.199219 149.601562 L 144.5 146.398438 Z M 144.101562 147 L 144.300781 148.199219 L 143.5 148.101562 Z M 145.601562 146.550781 L 145.5 149.648438 L 146.648438 149.648438 C 147.75 149.699219 148.050781 149.148438 148.101562 148.148438 C 148.101562 147.25 147.75 146.648438 146.648438 146.648438 Z M 146.199219 147.050781 C 147.300781 147.101562 147.449219 147.449219 147.449219 148.199219 C 147.398438 148.949219 147.25 149.25 146.148438 149.101562 L 146.148438 147.101562 Z M 156.101562 150.898438 L 156.101562 154.101562 L 156.800781 154.101562 L 156.800781 152.898438 C 156.800781 152.898438 157.398438 152.898438 157.898438 152.800781 C 158.300781 152.734375 158.515625 152.398438 158.550781 151.800781 C 158.550781 151.199219 158.234375 150.898438 157.601562 150.898438 Z M 156.800781 151.398438 L 157.5 151.398438 C 158.050781 151.398438 158 152.300781 157.5 152.300781 L 156.800781 152.300781 Z M 159.699219 150.898438 L 158.398438 154.101562 L 159.101562 154.101562 L 159.398438 153.300781 L 160.699219 153.300781 L 161 154.101562 L 161.699219 154.101562 L 160.398438 150.898438 Z M 160 151.601562 L 160.5 152.800781 L 159.601562 152.800781 Z M 161.699219 153.5 L 163.398438 151.398438 L 161.898438 151.398438 L 161.898438 150.898438 L 164.300781 150.898438 L 164.300781 151.398438 L 162.5 153.5 L 164.300781 153.5 L 164.300781 154.101562 L 161.699219 154.101562 Z M 171.800781 147.300781 L 172.398438 147.199219 L 172.699219 149 C 172.765625 149.667969 172.550781 150.082031 172.050781 150.25 C 171.550781 150.449219 170.851562 150.25 170.800781 149.398438 L 171.300781 149.300781 C 171.433594 149.734375 171.601562 149.898438 171.800781 149.800781 C 172.066406 149.667969 172.167969 149.433594 172.101562 149.101562 Z M 172.800781 147.101562 L 173.351562 147 L 173.648438 148.5 C 173.714844 149.132812 173.964844 149.417969 174.398438 149.351562 C 174.832031 149.285156 174.984375 148.949219 174.851562 148.351562 L 174.5 146.800781 L 175.101562 146.699219 L 175.5 148.351562 C 175.699219 149.351562 175.199219 149.699219 174.5 149.851562 C 173.949219 149.949219 173.300781 149.851562 173.101562 148.851562 Z M 175.898438 148.5 L 176.398438 148.300781 C 176.648438 148.75 177 148.699219 177.300781 148.601562 C 177.699219 148.332031 177.785156 148.101562 177.550781 147.898438 C 177.25 147.75 176.550781 148 176.199219 147.898438 C 175.734375 147.699219 175.535156 147.417969 175.601562 147.050781 C 175.667969 146.582031 175.949219 146.300781 176.449219 146.199219 C 176.984375 146 177.433594 146.167969 177.800781 146.699219 L 177.199219 146.898438 C 176.964844 146.601562 176.734375 146.535156 176.5 146.699219 C 176.300781 146.800781 176 146.949219 176.199219 147.199219 C 176.300781 147.449219 177.050781 147.300781 177.449219 147.300781 C 177.851562 147.300781 178.148438 147.601562 178.199219 147.949219 C 178.332031 148.484375 178.082031 148.851562 177.449219 149.050781 C 176.699219 149.351562 176 149.050781 175.898438 148.5 M 178.601562 146 L 177.800781 146.398438 L 177.601562 145.898438 L 179.800781 145 L 180 145.398438 L 179.199219 145.800781 L 180.101562 148 L 179.601562 148.300781 Z M 179.898438 144.898438 L 180.398438 144.601562 L 181.800781 147.199219 L 181.300781 147.5 Z M 183.300781 145.101562 L 183.898438 144.898438 C 184.058594 145.285156 184.003906 145.722656 183.757812 146.058594 C 183.515625 146.394531 183.113281 146.582031 182.699219 146.550781 C 181.199219 146.550781 181 144.851562 181.25 144.300781 C 181.648438 143.351562 182.75 143.398438 183.25 143.898438 L 182.75 144.300781 C 182.449219 143.898438 181.75 144.148438 181.75 144.5 C 181.660156 145.09375 181.9375 145.6875 182.449219 146 C 182.949219 146.199219 183.648438 145.601562 183.300781 145.101562 M 183 143 L 183.5 142.601562 L 185.300781 145 L 184.800781 145.398438 Z M 184.898438 141.5 L 184.398438 141.898438 L 185.5 144.898438 L 186 144.398438 L 185.699219 143.800781 L 186.601562 143 L 187.199219 143.300781 L 187.699219 142.898438 Z M 185.101562 142.199219 L 186.101562 142.699219 L 185.5 143.300781 Z M 185.101562 142.199219 "/>
</g>
</svg>
