<?xml version="1.0" encoding="UTF-8"?>
<svg xmlns="http://www.w3.org/2000/svg" xmlns:xlink="http://www.w3.org/1999/xlink" width="px" height="px" viewBox="0 0 320 240" version="1.1">
<g id="surface1">
<rect x="0" y="0" width="320" height="240" style="fill:rgb(92.54902%,10.588235%,18.039216%);fill-opacity:1;stroke:none;"/>
<path style=" stroke:none;fill-rule:nonzero;fill:rgb(100%,100%,100%);fill-opacity:1;" d="M 173.148438 51.550781 C 133.5 49 115.300781 100.949219 152.800781 120.148438 C 139.800781 108.949219 142.5 92.5 147.75 83.949219 L 148.699219 84.5 C 141.800781 96.25 143.101562 110.851562 154.25 120 C 147.898438 113.851562 149.5 100.5 160.300781 95.550781 C 171.101562 90.601562 172.101562 75.898438 168.5 71 C 163.601562 62.464844 165.148438 55.984375 173.148438 51.550781 M 153.949219 82 L 151.601562 85.699219 L 150.699219 81.398438 L 146.398438 80.25 L 150.300781 78.101562 L 150 73.648438 L 153.25 76.699219 L 157.398438 75.050781 L 155.550781 79.101562 L 158.351562 82.5 Z M 153.949219 82 "/>
<path style=" stroke:none;fill-rule:nonzero;fill:rgb(100%,100%,100%);fill-opacity:1;" d="M 228.238281 116.128906 C 218.410156 77.632812 163.378906 76.375 156.707031 117.972656 C 163.339844 102.148438 179.820312 99.632812 189.574219 101.984375 L 189.34375 103.058594 C 176.035156 100.128906 162.554688 105.875 157.296875 119.308594 C 161.183594 111.367188 174.375 108.765625 182.417969 117.503906 C 190.464844 126.246094 204.753906 122.65625 208.300781 117.71875 C 214.902344 110.421875 221.546875 109.890625 228.238281 116.128906 M 193.34375 107.277344 L 189.097656 106.1875 L 192.910156 104.003906 L 192.675781 99.558594 L 195.925781 102.601562 L 200.066406 100.941406 L 198.167969 104.976562 L 201.019531 108.414062 L 196.597656 107.90625 L 194.226562 111.617188 Z M 193.34375 107.277344 "/>
<path style=" stroke:none;fill-rule:nonzero;fill:rgb(100%,100%,100%);fill-opacity:1;" d="M 183.839844 188.476562 C 217.417969 167.234375 201.605469 114.507812 159.980469 121.015625 C 177.082031 122.4375 184.566406 137.332031 185.34375 147.335938 L 184.253906 147.449219 C 182.929688 133.886719 173.296875 122.839844 158.898438 121.988281 C 167.648438 123.234375 174.203125 134.972656 168.375 145.328125 C 162.546875 155.679688 170.378906 168.160156 176.167969 170.007812 C 185.148438 174.03125 187.707031 180.1875 183.839844 188.476562 M 181.476562 152.554688 L 181.203125 148.183594 L 184.457031 151.132812 L 188.613281 149.535156 L 186.71875 153.566406 L 189.578125 156.988281 L 185.15625 156.433594 L 182.769531 160.207031 L 181.886719 155.84375 L 177.621094 154.738281 Z M 181.476562 152.554688 "/>
<path style=" stroke:none;fill-rule:nonzero;fill:rgb(100%,100%,100%);fill-opacity:1;" d="M 101.316406 168.609375 C 131.894531 193.976562 177.152344 162.648438 158.101562 125.074219 C 162.035156 141.773438 150.179688 153.496094 140.910156 157.328125 L 140.464844 156.324219 C 152.953125 150.875 160.480469 138.296875 156.839844 124.339844 C 158.363281 133.050781 149.21875 142.910156 137.574219 140.566406 C 125.925781 138.222656 116.476562 149.527344 116.507812 155.605469 C 115.457031 165.390625 110.394531 169.726562 101.316406 168.609375 M 134.746094 155.261719 L 138.824219 153.648438 L 137.023438 157.65625 L 139.824219 161.113281 L 135.40625 160.5625 L 133.035156 164.335938 L 132.199219 159.960938 L 127.871094 158.855469 L 131.746094 156.667969 L 131.480469 152.269531 Z M 134.746094 155.261719 "/>
<path style=" stroke:none;fill-rule:nonzero;fill:rgb(100%,100%,100%);fill-opacity:1;" d="M 94.707031 83.984375 C 80.03125 120.90625 123.8125 154.269531 153.664062 124.535156 C 138.992188 133.441406 124.183594 125.789062 117.671875 118.152344 L 118.488281 117.417969 C 127.53125 127.613281 141.820312 130.886719 153.96875 123.113281 C 146.15625 127.25 133.953125 121.601562 132.582031 109.800781 C 131.214844 98 117.542969 92.507812 111.769531 94.417969 C 102.140625 96.441406 96.453125 92.960938 94.707031 83.984375 M 117.734375 111.652344 L 120.527344 115.03125 L 116.160156 114.558594 L 113.738281 118.292969 L 112.898438 113.921875 L 108.574219 112.832031 L 112.476562 110.683594 L 112.191406 106.226562 L 115.472656 109.234375 L 119.570312 107.625 Z M 117.734375 111.652344 "/>
</g>
</svg>
