<?xml version="1.0" encoding="UTF-8"?>
<svg xmlns="http://www.w3.org/2000/svg" xmlns:xlink="http://www.w3.org/1999/xlink" width="px" height="px" viewBox="0 0 320 240" version="1.1">
<g id="surface1">
<rect x="0" y="0" width="320" height="240" style="fill:rgb(9.411765%,76.47059%,87.450981%);fill-opacity:1;stroke:none;"/>
<path style=" stroke:none;fill-rule:nonzero;fill:rgb(100%,100%,100%);fill-opacity:1;" d="M 0 80 L 320 80 L 320 160 L 0 160 Z M 0 80 "/>
<path style=" stroke:none;fill-rule:nonzero;fill:rgb(9.411765%,76.47059%,87.450981%);fill-opacity:1;" d="M 156 120 L 162.667969 121.332031 L 160 106.667969 Z M 156 120 "/>
<path style=" stroke:none;fill-rule:nonzero;fill:rgb(9.411765%,76.47059%,87.450981%);fill-opacity:1;" d="M 164 120 L 157.332031 121.332031 L 160 106.667969 Z M 164 120 "/>
<path style=" stroke:none;fill-rule:nonzero;fill:rgb(9.411765%,76.47059%,87.450981%);fill-opacity:1;" d="M 158.765625 116.195312 L 159.554688 122.949219 L 172.679688 115.878906 Z M 158.765625 116.195312 "/>
<path style=" stroke:none;fill-rule:nonzero;fill:rgb(9.411765%,76.47059%,87.450981%);fill-opacity:1;" d="M 161.234375 123.804688 L 157.90625 117.875 L 172.679688 115.878906 Z M 161.234375 123.804688 "/>
<path style=" stroke:none;fill-rule:nonzero;fill:rgb(9.411765%,76.47059%,87.450981%);fill-opacity:1;" d="M 158.765625 123.804688 L 162.09375 117.875 L 147.320312 115.878906 Z M 158.765625 123.804688 "/>
<path style=" stroke:none;fill-rule:nonzero;fill:rgb(9.411765%,76.47059%,87.450981%);fill-opacity:1;" d="M 161.234375 116.195312 L 160.445312 122.949219 L 147.320312 115.878906 Z M 161.234375 116.195312 "/>
<path style=" stroke:none;fill-rule:nonzero;fill:rgb(9.411765%,76.47059%,87.450981%);fill-opacity:1;" d="M 163.234375 117.648438 L 157.058594 120.488281 L 167.835938 130.785156 Z M 163.234375 117.648438 "/>
<path style=" stroke:none;fill-rule:nonzero;fill:rgb(9.411765%,76.47059%,87.450981%);fill-opacity:1;" d="M 156.765625 122.351562 L 161.375 117.355469 L 167.835938 130.785156 Z M 156.765625 122.351562 "/>
<path style=" stroke:none;fill-rule:nonzero;fill:rgb(9.411765%,76.47059%,87.450981%);fill-opacity:1;" d="M 163.234375 122.351562 L 158.625 117.355469 L 152.164062 130.785156 Z M 163.234375 122.351562 "/>
<path style=" stroke:none;fill-rule:nonzero;fill:rgb(9.411765%,76.47059%,87.450981%);fill-opacity:1;" d="M 156.765625 117.648438 L 162.941406 120.488281 L 152.164062 130.785156 Z M 156.765625 117.648438 "/>
<path style=" stroke:none;fill-rule:nonzero;fill:rgb(9.411765%,76.47059%,87.450981%);fill-opacity:1;" d="M 222.648438 98.648438 L 229.316406 99.984375 L 226.648438 85.316406 Z M 222.648438 98.648438 "/>
<path style=" stroke:none;fill-rule:nonzero;fill:rgb(9.411765%,76.47059%,87.450981%);fill-opacity:1;" d="M 230.648438 98.648438 L 223.984375 99.984375 L 226.648438 85.316406 Z M 230.648438 98.648438 "/>
<path style=" stroke:none;fill-rule:nonzero;fill:rgb(9.411765%,76.47059%,87.450981%);fill-opacity:1;" d="M 225.414062 94.847656 L 226.207031 101.597656 L 239.332031 94.53125 Z M 225.414062 94.847656 "/>
<path style=" stroke:none;fill-rule:nonzero;fill:rgb(9.411765%,76.47059%,87.450981%);fill-opacity:1;" d="M 227.886719 102.453125 L 224.558594 96.527344 L 239.332031 94.53125 Z M 227.886719 102.453125 "/>
<path style=" stroke:none;fill-rule:nonzero;fill:rgb(9.411765%,76.47059%,87.450981%);fill-opacity:1;" d="M 225.414062 102.453125 L 228.742188 96.527344 L 213.96875 94.53125 Z M 225.414062 102.453125 "/>
<path style=" stroke:none;fill-rule:nonzero;fill:rgb(9.411765%,76.47059%,87.450981%);fill-opacity:1;" d="M 227.886719 94.847656 L 227.09375 101.597656 L 213.96875 94.53125 Z M 227.886719 94.847656 "/>
<path style=" stroke:none;fill-rule:nonzero;fill:rgb(9.411765%,76.47059%,87.450981%);fill-opacity:1;" d="M 229.886719 96.300781 L 223.707031 99.140625 L 234.488281 109.4375 Z M 229.886719 96.300781 "/>
<path style=" stroke:none;fill-rule:nonzero;fill:rgb(9.411765%,76.47059%,87.450981%);fill-opacity:1;" d="M 223.414062 101 L 228.023438 96.003906 L 234.488281 109.4375 Z M 223.414062 101 "/>
<path style=" stroke:none;fill-rule:nonzero;fill:rgb(9.411765%,76.47059%,87.450981%);fill-opacity:1;" d="M 229.886719 101 L 225.277344 96.003906 L 218.8125 109.4375 Z M 229.886719 101 "/>
<path style=" stroke:none;fill-rule:nonzero;fill:rgb(9.411765%,76.47059%,87.450981%);fill-opacity:1;" d="M 223.414062 96.300781 L 229.589844 99.140625 L 218.8125 109.4375 Z M 223.414062 96.300781 "/>
<path style=" stroke:none;fill-rule:nonzero;fill:rgb(9.411765%,76.47059%,87.450981%);fill-opacity:1;" d="M 222.648438 138.648438 L 229.316406 139.984375 L 226.648438 125.316406 Z M 222.648438 138.648438 "/>
<path style=" stroke:none;fill-rule:nonzero;fill:rgb(9.411765%,76.47059%,87.450981%);fill-opacity:1;" d="M 230.648438 138.648438 L 223.984375 139.984375 L 226.648438 125.316406 Z M 230.648438 138.648438 "/>
<path style=" stroke:none;fill-rule:nonzero;fill:rgb(9.411765%,76.47059%,87.450981%);fill-opacity:1;" d="M 225.414062 134.847656 L 226.207031 141.597656 L 239.332031 134.53125 Z M 225.414062 134.847656 "/>
<path style=" stroke:none;fill-rule:nonzero;fill:rgb(9.411765%,76.47059%,87.450981%);fill-opacity:1;" d="M 227.886719 142.453125 L 224.558594 136.527344 L 239.332031 134.53125 Z M 227.886719 142.453125 "/>
<path style=" stroke:none;fill-rule:nonzero;fill:rgb(9.411765%,76.47059%,87.450981%);fill-opacity:1;" d="M 225.414062 142.453125 L 228.742188 136.527344 L 213.96875 134.53125 Z M 225.414062 142.453125 "/>
<path style=" stroke:none;fill-rule:nonzero;fill:rgb(9.411765%,76.47059%,87.450981%);fill-opacity:1;" d="M 227.886719 134.847656 L 227.09375 141.597656 L 213.96875 134.53125 Z M 227.886719 134.847656 "/>
<path style=" stroke:none;fill-rule:nonzero;fill:rgb(9.411765%,76.47059%,87.450981%);fill-opacity:1;" d="M 229.886719 136.300781 L 223.707031 139.140625 L 234.488281 149.4375 Z M 229.886719 136.300781 "/>
<path style=" stroke:none;fill-rule:nonzero;fill:rgb(9.411765%,76.47059%,87.450981%);fill-opacity:1;" d="M 223.414062 141 L 228.023438 136.003906 L 234.488281 149.4375 Z M 223.414062 141 "/>
<path style=" stroke:none;fill-rule:nonzero;fill:rgb(9.411765%,76.47059%,87.450981%);fill-opacity:1;" d="M 229.886719 141 L 225.277344 136.003906 L 218.8125 149.4375 Z M 229.886719 141 "/>
<path style=" stroke:none;fill-rule:nonzero;fill:rgb(9.411765%,76.47059%,87.450981%);fill-opacity:1;" d="M 223.414062 136.300781 L 229.589844 139.140625 L 218.8125 149.4375 Z M 223.414062 136.300781 "/>
<path style=" stroke:none;fill-rule:nonzero;fill:rgb(9.411765%,76.47059%,87.450981%);fill-opacity:1;" d="M 89.351562 98.648438 L 96.015625 99.984375 L 93.351562 85.316406 Z M 89.351562 98.648438 "/>
<path style=" stroke:none;fill-rule:nonzero;fill:rgb(9.411765%,76.47059%,87.450981%);fill-opacity:1;" d="M 97.351562 98.648438 L 90.683594 99.984375 L 93.351562 85.316406 Z M 97.351562 98.648438 "/>
<path style=" stroke:none;fill-rule:nonzero;fill:rgb(9.411765%,76.47059%,87.450981%);fill-opacity:1;" d="M 92.113281 94.847656 L 92.90625 101.597656 L 106.03125 94.53125 Z M 92.113281 94.847656 "/>
<path style=" stroke:none;fill-rule:nonzero;fill:rgb(9.411765%,76.47059%,87.450981%);fill-opacity:1;" d="M 94.585938 102.453125 L 91.257812 96.527344 L 106.03125 94.53125 Z M 94.585938 102.453125 "/>
<path style=" stroke:none;fill-rule:nonzero;fill:rgb(9.411765%,76.47059%,87.450981%);fill-opacity:1;" d="M 92.113281 102.453125 L 95.441406 96.527344 L 80.667969 94.53125 Z M 92.113281 102.453125 "/>
<path style=" stroke:none;fill-rule:nonzero;fill:rgb(9.411765%,76.47059%,87.450981%);fill-opacity:1;" d="M 94.585938 94.847656 L 93.792969 101.597656 L 80.667969 94.53125 Z M 94.585938 94.847656 "/>
<path style=" stroke:none;fill-rule:nonzero;fill:rgb(9.411765%,76.47059%,87.450981%);fill-opacity:1;" d="M 96.585938 96.300781 L 90.410156 99.140625 L 101.1875 109.4375 Z M 96.585938 96.300781 "/>
<path style=" stroke:none;fill-rule:nonzero;fill:rgb(9.411765%,76.47059%,87.450981%);fill-opacity:1;" d="M 90.113281 101 L 94.722656 96.003906 L 101.1875 109.4375 Z M 90.113281 101 "/>
<path style=" stroke:none;fill-rule:nonzero;fill:rgb(9.411765%,76.47059%,87.450981%);fill-opacity:1;" d="M 96.585938 101 L 91.976562 96.003906 L 85.511719 109.4375 Z M 96.585938 101 "/>
<path style=" stroke:none;fill-rule:nonzero;fill:rgb(9.411765%,76.47059%,87.450981%);fill-opacity:1;" d="M 90.113281 96.300781 L 96.292969 99.140625 L 85.511719 109.4375 Z M 90.113281 96.300781 "/>
<path style=" stroke:none;fill-rule:nonzero;fill:rgb(9.411765%,76.47059%,87.450981%);fill-opacity:1;" d="M 89.351562 138.648438 L 96.015625 139.984375 L 93.351562 125.316406 Z M 89.351562 138.648438 "/>
<path style=" stroke:none;fill-rule:nonzero;fill:rgb(9.411765%,76.47059%,87.450981%);fill-opacity:1;" d="M 97.351562 138.648438 L 90.683594 139.984375 L 93.351562 125.316406 Z M 97.351562 138.648438 "/>
<path style=" stroke:none;fill-rule:nonzero;fill:rgb(9.411765%,76.47059%,87.450981%);fill-opacity:1;" d="M 92.113281 134.847656 L 92.90625 141.597656 L 106.03125 134.53125 Z M 92.113281 134.847656 "/>
<path style=" stroke:none;fill-rule:nonzero;fill:rgb(9.411765%,76.47059%,87.450981%);fill-opacity:1;" d="M 94.585938 142.453125 L 91.257812 136.527344 L 106.03125 134.53125 Z M 94.585938 142.453125 "/>
<path style=" stroke:none;fill-rule:nonzero;fill:rgb(9.411765%,76.47059%,87.450981%);fill-opacity:1;" d="M 92.113281 142.453125 L 95.441406 136.527344 L 80.667969 134.53125 Z M 92.113281 142.453125 "/>
<path style=" stroke:none;fill-rule:nonzero;fill:rgb(9.411765%,76.47059%,87.450981%);fill-opacity:1;" d="M 94.585938 134.847656 L 93.792969 141.597656 L 80.667969 134.53125 Z M 94.585938 134.847656 "/>
<path style=" stroke:none;fill-rule:nonzero;fill:rgb(9.411765%,76.47059%,87.450981%);fill-opacity:1;" d="M 96.585938 136.300781 L 90.410156 139.140625 L 101.1875 149.4375 Z M 96.585938 136.300781 "/>
<path style=" stroke:none;fill-rule:nonzero;fill:rgb(9.411765%,76.47059%,87.450981%);fill-opacity:1;" d="M 90.113281 141 L 94.722656 136.003906 L 101.1875 149.4375 Z M 90.113281 141 "/>
<path style=" stroke:none;fill-rule:nonzero;fill:rgb(9.411765%,76.47059%,87.450981%);fill-opacity:1;" d="M 96.585938 141 L 91.976562 136.003906 L 85.511719 149.4375 Z M 96.585938 141 "/>
<path style=" stroke:none;fill-rule:nonzero;fill:rgb(9.411765%,76.47059%,87.450981%);fill-opacity:1;" d="M 90.113281 136.300781 L 96.292969 139.140625 L 85.511719 149.4375 Z M 90.113281 136.300781 "/>
</g>
</svg>
