<?xml version="1.0" encoding="UTF-8"?>
<svg xmlns="http://www.w3.org/2000/svg" xmlns:xlink="http://www.w3.org/1999/xlink" width="px" height="px" viewBox="0 0 320 240" version="1.1">
<g id="surface1">
<rect x="0" y="0" width="320" height="240" style="fill:rgb(72.941178%,0%,0%);fill-opacity:1;stroke:none;"/>
<path style="fill-rule:evenodd;fill:rgb(100%,93.725491%,0%);fill-opacity:1;stroke-width:2.2;stroke-linecap:butt;stroke-linejoin:miter;stroke:rgb(0%,0%,0%);stroke-opacity:1;stroke-miterlimit:4;" d="M 280.997338 375.997341 C 281.196806 375.398937 281.604053 369.198804 281.396274 369.198804 C 281.196806 369.198804 271.996341 358.30286 272.20412 358.30286 C 272.403588 358.30286 283.99767 360.895945 283.99767 360.497009 C 283.99767 360.098073 288.701793 349.00266 288.701793 348.803192 L 294.303521 362.300533 L 305.79787 367.303857 L 297.802524 374.002661 L 299.498003 387.001331 C 299.498003 387.300533 291.502657 379.39661 291.502657 379.39661 L 282.601394 380.402262 C 282.601394 380.402262 281.396274 376.396278 280.997338 375.997341 Z M 280.997338 375.997341 " transform="matrix(0.47,0,0,0.47,36.400002,0)"/>
<path style="fill-rule:evenodd;fill:rgb(100%,100%,100%);fill-opacity:1;stroke-width:2.6;stroke-linecap:butt;stroke-linejoin:miter;stroke:rgb(0%,0%,0%);stroke-opacity:1;stroke-miterlimit:4;" d="M 218.696806 206.898272 C 211.000662 210.895945 181.703787 244.398272 177.697803 249.601064 C 173.62533 258.385971 167.923867 266.323139 160.900928 272.997009 C 153.603721 278.499003 149.597736 286.00399 150.603388 293.001995 C 150.603388 302.002993 155.498667 308.003658 159.396606 314.104057 C 161.865024 317.029589 164.798867 318.700134 168.198135 319.09907 C 175.096407 319.896942 175.703122 322.099402 179.202125 323.296211 C 192.599731 341.697142 212.795875 355.302527 227.199133 365.999004 C 233.831447 369.132315 239.906912 373.321145 245.201128 378.39927 C 249.398269 386.602395 248.600396 394.398272 248.001992 398.395945 L 237.297205 438.996012 C 235.402258 450.000001 245.101394 447.598073 245.600064 445.403924 C 249.896939 439.702461 256.396274 443.700134 265.596739 411.103724 L 278.395942 393.999336 C 278.395942 393.999336 283.299532 391.996344 283.299532 391.497674 C 290.796208 382.496677 285.103056 377.501663 280.79787 375.797873 L 271.597404 372.398605 C 271.597404 372.398605 260.801194 361.602395 260.302524 361.602395 C 255.199465 346.700466 229.999997 315.001663 224.198801 310.596743 C 220.201128 306.299868 218.198136 304.596078 214.399931 302.202461 C 208.499 299.401597 206.604053 298.395945 202.997005 296.999668 C 199.996673 295.80286 202.099399 292.503325 204.002657 290.999003 C 223.999332 280.103059 239.699133 268.101729 258.798202 255.900932 L 261.798535 253.897939 L 254.900263 214.702461 L 223.101726 203.499003 C 221.49767 204.629322 220.034904 205.767953 218.696806 206.898272 Z M 218.696806 206.898272 " transform="matrix(0.47,0,0,0.47,36.400002,0)"/>
<path style=" stroke:none;fill-rule:evenodd;fill:rgb(100%,92.54902%,0%);fill-opacity:1;" d="M 151.691406 194.15625 C 151.691406 193.96875 161.089844 192.277344 161.089844 192.277344 L 159.914062 195.753906 L 150.65625 198.574219 Z M 151.691406 194.15625 "/>
<path style="fill:none;stroke-width:2.2;stroke-linecap:butt;stroke-linejoin:miter;stroke:rgb(0%,0%,0%);stroke-opacity:1;stroke-miterlimit:4;" d="M 193.597072 338.497341 C 197.736034 329.047541 205.531912 321.683844 215.197803 318.10173 " transform="matrix(0.47,0,0,0.47,36.400002,0)"/>
<path style="fill:none;stroke-width:2.4;stroke-linecap:butt;stroke-linejoin:miter;stroke:rgb(0%,0%,0%);stroke-opacity:1;stroke-miterlimit:4;" d="M 244.602723 413.297873 C 245.899266 412.998671 251.600729 411.303193 253.196473 411.00399 C 254.999997 410.663232 256.737032 410.197807 258.399266 409.599403 C 260.402258 409.200466 261.599067 408.80153 263.602059 408.502328 L 268.597072 407.09774 M 241.003987 425.598405 L 243.497338 423.603724 C 244.602723 423.196477 248.500662 421.600732 249.996673 421.30153 L 254.700795 419.896943 L 259.296872 418.700134 C 260.76795 418.10173 262.230716 417.636304 263.701793 417.303857 " transform="matrix(0.47,0,0,0.47,36.400002,0)"/>
<path style="fill:none;stroke-width:2.2;stroke-linecap:butt;stroke-linejoin:miter;stroke:rgb(0%,0%,0%);stroke-opacity:1;stroke-miterlimit:4;" d="M 248.999332 341.39794 L 248.799864 341.39794 C 249.597737 341.39794 249.099067 341.39794 247.902258 342.802527 C 247.503322 343.899602 243.896274 346.500998 241.103721 346.500998 L 236.399598 346.8002 L 235.103056 346.500998 M 248.799864 400.000001 L 250.196141 400.000001 C 251.733707 400.06649 253.129984 400.166224 254.401593 400.299203 C 255.897604 400.299203 257.302192 400.698139 258.698468 400.698139 C 260.236035 400.764629 261.798535 400.897607 263.402591 401.097075 C 264.931846 401.230054 266.502657 401.329788 268.098402 401.396278 C 269.502989 401.496012 270.300862 401.703791 271.796872 401.703791 L 268.098402 401.396278 C 269.502989 401.496012 270.300862 401.703791 271.796872 401.703791 M 239.100729 434.699137 L 241.402923 432.696145 C 242.400263 432.396943 245.999 430.701464 247.403588 430.501996 L 251.600729 428.997674 L 255.897604 428.000334 C 257.235702 427.33544 258.565489 426.83677 259.903588 426.496012 M 265.696473 385.297541 C 264.898601 387.599735 266.003987 388.198139 266.402923 389.203791 C 267.940489 390.849403 269.918548 392.021278 272.096075 392.60306 C 273.301194 392.902262 274.099067 393.201464 275.503654 393.799868 C 276.235037 393.866357 276.899931 394.032581 277.498335 394.298538 M 153.096739 299.501331 L 153.395941 299.501331 C 152.498335 299.501331 153.096739 299.601065 154.501327 298.50399 C 155.498667 297.398604 156.196806 296.899934 157.102723 295.80286 M 171.49767 319.797208 C 171.697138 319.797208 188.103388 311.602394 189.798867 309.79887 L 193.497338 306.898272 C 194.4365 306.366357 195.300862 305.801198 196.098734 305.202793 C 196.896606 304.263631 197.669545 303.366025 198.400928 302.501663 C 199.398269 301.604057 198.899598 300.698139 199.797205 299.601065 L 201.102058 295.80286 M 221.896606 308.003658 C 221.99634 308.602062 221.697138 310.397275 221.697138 311.801862 C 221.697138 313.397607 219.602723 318.301198 217.101061 319.797208 " transform="matrix(0.47,0,0,0.47,36.400002,0)"/>
<path style="fill:none;stroke-width:2.2;stroke-linecap:butt;stroke-linejoin:miter;stroke:rgb(0%,0%,0%);stroke-opacity:1;stroke-miterlimit:4;" d="M 192.599731 307.795878 L 199.298534 309.898605 C 204.301859 311.702128 214.699133 318.301198 215.796207 319.198804 C 216.801859 319.996676 218.79654 320.80286 219.403255 321.700466 C 220.533574 322.697807 221.49767 323.769948 222.303854 324.900267 C 223.367683 326.097075 224.198801 327.235706 224.797205 328.299535 C 230.265955 335.879323 234.762298 344.107381 238.203122 352.800865 C 238.901261 353.499004 239.200463 354.496344 239.898601 355.60173 C 240.497005 356.998006 241.203455 357.59641 241.901593 358.701796 C 242.898934 359.399934 244.104053 360.696477 245.300862 361.303192 C 246.597404 362.400267 247.802524 362.799203 248.799864 363.597075 C 250.096407 364.203791 265.098069 373.603724 265.796208 374.102395 C 267.200795 375.199469 271.298202 379.496344 268.397604 382.696145 C 267.200795 383.701796 266.003987 385.197807 264.998335 385.696477 C 263.801527 386.768618 262.496673 387.500001 261.100396 387.898937 C 254.401593 389.901929 250.90259 389.203791 249.597737 389.203791 L 248.20146 389.203791 M 159.396606 274.301862 C 161.399598 275.099735 160.601726 274.50133 162.297205 275.299203 C 163.502324 275.797873 164.300197 275.797873 165.297537 276.296543 C 166.602391 276.604057 170.001659 277.302195 171.597404 278.89794 C 172.802524 279.903591 173.600396 280.900932 174.996673 281.59907 C 176.434505 282.579788 177.980383 283.385971 179.601061 284.000998 C 181.263295 284.732381 182.93384 285.164562 184.596074 285.297541 L 192.400263 285.297541 L 188.40259 285.297541 L 192.400263 285.297541 " transform="matrix(0.47,0,0,0.47,36.400002,0)"/>
<path style="fill-rule:evenodd;fill:rgb(100%,90.196079%,2.352941%);fill-opacity:1;stroke-width:2.2;stroke-linecap:butt;stroke-linejoin:miter;stroke:rgb(0%,0%,0%);stroke-opacity:1;stroke-miterlimit:4;" d="M 158.99767 293.301198 C 163.203122 293.001995 170.300862 294.298538 170.50033 294.298538 L 179.900263 294.09907 C 184.903588 293.700134 185.900928 291.796876 186.6988 290.400599 C 188.602058 287.599735 189.798867 286.602394 191.303189 284.399934 C 193.497338 282.795878 196.697138 286.702128 196.796872 286.702128 C 204.800529 294.298538 198.400928 303.499003 198.001992 303.798206 C 193.996008 307.496676 193.098401 307.696144 190.696473 305.402261 C 188.302856 302.501663 187.596407 301.196809 185.601726 300.199469 C 181.703787 298.395945 173.799864 299.800533 173.600396 299.800533 L 169.502989 301.396277 C 167.499997 302.102727 166.303189 303.798206 163.003654 304.39661 C 159.49634 304.596078 158.399266 304.296876 156.703787 301.496011 C 154.401593 297.997009 155.498667 293.700134 158.99767 293.301198 Z M 158.99767 293.301198 " transform="matrix(0.47,0,0,0.47,36.400002,0)"/>
<path style="fill-rule:evenodd;fill:rgb(100%,93.725491%,0%);fill-opacity:1;stroke-width:2.2;stroke-linecap:butt;stroke-linejoin:miter;stroke:rgb(0%,0%,0%);stroke-opacity:1;stroke-miterlimit:4;" d="M 381.803522 120.703125 C 381.196806 120.703125 375.503655 123.50399 375.603389 123.703458 C 375.703123 123.803192 370.799532 137.200798 370.699798 137.101064 C 370.600064 136.901596 367.200796 125.398936 366.801859 125.598405 C 366.402923 125.797873 354.501327 127.20246 354.401593 127.302194 L 363.402591 115.799535 L 362.097737 103.299535 L 371.896607 107.09774 L 382.401926 99.102394 C 382.601394 99.00266 379.700796 109.898604 379.700796 109.898604 L 384.903588 117.096077 C 384.903588 117.096077 381.903256 120.09641 381.803522 120.703125 Z M 381.803522 120.703125 " transform="matrix(0.47,0,0,0.47,36.400002,0)"/>
<path style="fill-rule:evenodd;fill:rgb(100%,100%,100%);fill-opacity:1;stroke-width:2.6;stroke-linecap:butt;stroke-linejoin:miter;stroke:rgb(0%,0%,0%);stroke-opacity:1;stroke-miterlimit:4;" d="M 264.998335 257.903924 C 272.096075 262.599735 315.696474 271.8002 322.303854 272.697807 C 331.953123 271.958112 341.652258 273.046876 350.902591 275.897607 C 359.197139 279.496344 367.699466 279.296876 373.400929 274.900267 C 381.196806 270.703126 383.997671 263.497341 387.396939 256.898272 C 388.851394 253.723405 388.851394 250.074801 387.396939 246.899934 C 384.803854 240.500333 386.399599 238.896277 385.801195 235.29754 C 395.201128 214.502993 397.20412 190.300865 399.398269 172.398604 C 399.198801 161.901596 400.295875 153.897939 401.401261 150.698139 C 405.282578 145.021609 410.892617 140.741357 417.400264 138.497341 L 458.100064 127.900599 C 468.696806 124.102394 461.798535 116.896609 459.596075 117.503325 C 452.59807 116.497673 452.797538 108.901264 419.901926 116.796875 L 398.700131 114.104056 C 398.700131 114.104056 394.702458 110.79621 394.203788 111.103724 C 382.701128 109.000998 381.097072 116.397939 381.703788 120.902593 L 383.299532 130.701463 C 383.299532 130.701463 379.202125 145.295878 379.401593 145.703125 C 368.896274 157.496676 353.395942 195.295878 352.398601 202.601397 C 351.899931 209.399934 349.398269 208.103391 349.996673 214.802195 C 349.996673 219.996676 349.398269 216.796876 351.102059 227.401929 C 351.600729 230.601729 347.603056 230.402261 345.400596 229.39661 C 326.201793 217.403591 308.00033 209.499668 287.90392 198.902926 L 284.803854 197.29887 L 254.002657 222.498338 L 259.803854 255.701463 C 261.532577 256.565825 263.236367 257.297208 264.898601 257.903924 Z M 264.998335 257.903924 " transform="matrix(0.47,0,0,0.47,36.400002,0)"/>
<path style=" stroke:none;fill-rule:evenodd;fill:rgb(100%,92.54902%,0%);fill-opacity:1;" d="M 239.300781 62.792969 C 237.148438 60.4375 235.066406 58.023438 233.046875 55.554688 L 236.621094 54.847656 L 243.574219 61.570312 Z M 239.300781 62.792969 "/>
<path style="fill:none;stroke-width:2.2;stroke-linecap:butt;stroke-linejoin:miter;stroke:rgb(0%,0%,0%);stroke-opacity:1;stroke-miterlimit:4;" d="M 392.001328 215.201131 C 381.728721 216.248338 371.481048 213.06516 363.602059 206.399602 " transform="matrix(0.47,0,0,0.47,36.400002,0)"/>
<path style="fill:none;stroke-width:2.4;stroke-linecap:butt;stroke-linejoin:miter;stroke:rgb(0%,0%,0%);stroke-opacity:1;stroke-miterlimit:4;" d="M 432.202458 134.100732 C 431.196806 133.203125 426.999665 129.097407 426.002325 127.701131 L 422.20412 123.902926 C 420.899266 122.398604 419.901926 121.500998 418.597072 119.896942 L 414.998336 116.298205 M 444.602724 131.299867 C 444.303522 131.299867 442.599732 130.601729 441.602391 130.103059 C 440.796208 129.197141 437.396939 126.70379 436.499333 125.498671 L 433.00033 122.099402 C 431.803522 120.802859 430.897604 120.09641 429.700796 118.600399 L 426.301527 115.600067 " transform="matrix(0.47,0,0,0.47,36.400002,0)"/>
<path style="fill:none;stroke-width:2.2;stroke-linecap:butt;stroke-linejoin:miter;stroke:rgb(0%,0%,0%);stroke-opacity:1;stroke-miterlimit:4;" d="M 367.30053 165.500333 L 367.400264 165.799535 C 367.001327 165.001663 367.200796 165.500333 369.104054 165.799535 C 370.300862 165.600067 374.298535 167.503325 375.603389 169.896942 C 376.401261 171.002328 377.59807 172.697806 378.196474 173.902926 C 378.329453 174.368352 378.470742 174.800532 378.603721 175.199469 M 418.597072 137.00133 L 418.397604 136.801862 L 417.7992 135.79621 L 416.003987 131.898272 C 415.463761 130.568484 414.898602 129.263631 414.300197 128.000333 C 413.635304 126.604056 412.97041 125.199468 412.297205 123.803192 C 411.499333 122.29887 411.100397 121.002327 410.302524 119.398272 C 409.596075 118.201463 409.496341 117.403591 408.698469 116.098737 L 410.302524 119.398272 C 409.596075 118.201463 409.496341 117.403591 408.698469 116.098737 M 453.503987 128.399269 L 450.703123 127.401929 C 449.896939 126.70379 446.697139 124.401596 445.699798 123.395944 L 442.400264 120.403923 C 441.402923 119.099069 440.497006 118.400931 439.399931 117.096077 L 436.200131 114.403258 M 397.303854 129.396609 C 399.797205 128.997673 399.797205 127.800865 400.403921 126.903258 C 400.902591 125.897607 401.301527 123.395944 400.603389 120.295878 L 399.996673 116.796875 C 399.664226 115.999003 399.498003 115.334109 399.498003 114.802194 M 377.797538 269.59774 L 377.697804 269.398272 C 378.09674 270.196144 377.897272 269.697474 376.102059 268.899602 L 372.603056 267.902261 M 386.499333 243.6004 C 386.399599 243.400931 371.198468 233.203126 368.79654 232.59641 C 367.400264 231.898272 366.103721 231.59907 364.499665 230.801197 L 361.698801 229.39661 C 360.402258 229.197142 359.296873 228.698471 358.199798 228.698471 C 357.00299 228.299535 356.29654 229.097407 354.999998 228.897939 L 351.002325 229.596078 M 351.500995 205.501995 C 351.899931 205.103059 353.703455 204.496344 354.900264 203.798205 C 356.29654 203.100067 361.599067 202.501663 364.100729 203.897939 " transform="matrix(0.47,0,0,0.47,36.400002,0)"/>
<path style="fill:none;stroke-width:2.2;stroke-linecap:butt;stroke-linejoin:miter;stroke:rgb(0%,0%,0%);stroke-opacity:1;stroke-miterlimit:4;" d="M 365.696474 231.200134 L 364.200463 224.202128 C 363.61037 217.943817 363.61037 211.652261 364.200463 205.402261 C 364.399931 204.097407 364.200463 202.002993 364.699133 200.897607 C 365.03158 199.56782 365.463761 198.229721 366.003987 196.899934 C 366.602391 195.437168 367.167551 194.132314 367.699466 193.001995 C 368.397604 188.996011 379.700796 172.897274 380.498668 172.099402 L 382.50166 169.398272 C 382.900596 168.467421 383.432511 167.47008 384.097405 166.397939 C 385.103056 165.300865 385.302524 164.403258 385.900929 163.198139 C 386.000663 162.101064 386.499333 160.29754 386.499333 159.000998 C 386.798535 157.297208 386.499333 156.000665 386.798535 154.903591 C 386.599067 153.399269 387.496673 135.696476 387.596407 134.898604 C 387.903921 133.103391 389.599399 127.401929 393.79654 128.399269 C 395.300862 128.897939 397.096075 129.197141 398.201461 129.903591 C 399.597737 130.302527 400.802857 131.399601 401.899931 132.197474 C 406.903256 137.101064 408.00033 140.400599 408.698469 141.597407 L 409.396607 142.802527 M 352.598069 275.997341 L 352.498335 275.797873 C 352.830782 276.462767 352.731048 276.097075 352.199133 274.700799 C 352.099399 273.395945 351.700463 271.700466 351.500995 270.503658 C 351.201793 269.198804 350.603389 267.802527 350.802857 266.996344 C 350.295875 265.699801 350.603389 264.702461 350.802857 263.397607 C 351.102059 261.801862 351.301527 260.696477 351.301527 259.200466 C 351.500995 257.197474 351.301527 256.000666 351.401261 254.197142 C 350.902591 252.701131 350.802857 251.496011 350.096407 250.000001 L 348.101726 246.002328 L 346.098734 242.503325 L 348.101726 245.902594 L 346.098734 242.503325 " transform="matrix(0.47,0,0,0.47,36.400002,0)"/>
<path style="fill-rule:evenodd;fill:rgb(100%,90.196079%,2.352941%);fill-opacity:1;stroke-width:2.2;stroke-linecap:butt;stroke-linejoin:miter;stroke:rgb(0%,0%,0%);stroke-opacity:1;stroke-miterlimit:4;" d="M 369.50299 267.603059 C 367.200796 263.996011 364.798867 257.197474 364.699133 257.09774 L 360.003322 248.902926 C 357.202458 244.896942 354.999998 244.896942 353.395942 244.896942 C 349.996673 244.59774 348.500663 243.899602 345.999 243.799868 C 343.397604 242.603059 345.300862 237.898937 345.201128 237.799203 C 347.902258 227.202461 359.197139 228.199801 359.596075 228.399269 C 364.699133 230.103059 365.297538 230.801197 364.499665 234.000998 C 363.203123 237.500001 362.496673 238.796543 362.496673 240.999003 C 362.795875 245.196144 367.998668 251.496011 367.998668 251.604056 L 371.397937 254.39661 C 373.001992 255.801197 375.096407 256.000666 377.199133 258.701796 C 379.102391 261.602394 379.401593 262.699469 377.797538 265.500333 C 375.802857 269.298538 371.597405 270.403924 369.50299 267.603059 Z M 369.50299 267.603059 " transform="matrix(0.47,0,0,0.47,36.400002,0)"/>
<path style="fill-rule:evenodd;fill:rgb(100%,93.725491%,0%);fill-opacity:1;stroke-width:2.2;stroke-linecap:butt;stroke-linejoin:miter;stroke:rgb(0%,0%,0%);stroke-opacity:1;stroke-miterlimit:4;" d="M 105.199465 168.700133 C 105.698135 169.09907 111.000662 172.398604 111.20013 172.199136 C 111.399598 171.999668 125.196141 168.799867 124.996673 168.999336 C 124.797205 169.198804 117.200795 178.299535 117.599731 178.499003 C 117.998667 178.698471 125.603388 187.898937 125.802856 187.998671 L 111.299864 186.801862 L 101.500994 194.59774 L 99.298534 184.399934 L 86.998002 180.003325 C 86.798534 179.903591 97.503321 176.396277 97.503321 176.396277 L 100.703122 168.101729 C 100.703122 168.101729 104.800529 168.799867 105.398933 168.700133 Z M 105.199465 168.700133 " transform="matrix(0.47,0,0,0.47,36.400002,0)"/>
<path style="fill-rule:evenodd;fill:rgb(100%,100%,100%);fill-opacity:1;stroke-width:2.6;stroke-linecap:butt;stroke-linejoin:miter;stroke:rgb(0%,0%,0%);stroke-opacity:1;stroke-miterlimit:4;" d="M 283.99767 191.298205 C 283.99767 182.59641 267.7992 141.098737 264.998335 135.197806 C 259.089093 127.526596 254.675862 118.808178 251.999665 109.499668 C 250.503654 100.49867 245.699798 93.500665 239.000995 91.098737 C 231.097072 87.00133 223.500662 88.597075 216.203455 89.303524 C 212.596407 90.001662 209.49634 91.996343 207.800862 94.797208 C 203.803189 100.49867 201.700463 100 198.899598 102.501662 C 176.40126 106.000665 155.099731 117.603059 138.90126 125.498671 C 133.058508 129.920213 126.54255 133.361038 119.602723 135.696476 C 112.721074 135.596742 106.055516 133.286237 100.603388 129.097407 L 69.502989 100.797873 C 60.501992 94.099069 58.299531 103.798205 60.003321 105.302527 C 63.003654 111.702128 56.496008 115.600067 81.196805 138.896277 L 90.497005 158.103391 C 90.497005 158.103391 89.998335 163.297873 90.497005 163.497341 C 94.901925 174.301862 102.099399 171.600732 105.498667 168.600399 L 112.795875 161.901596 C 112.795875 161.901596 127.298867 157.297208 127.498335 156.898272 C 143.098401 159.200466 183.299532 151.604056 189.898601 148.395945 C 195.899266 145.09641 196.198468 147.897274 201.401261 143.700133 C 205.698136 140.799535 203.395941 143.101729 211.399598 135.79621 C 213.801527 133.80153 215.696473 137.101064 216.203455 139.502992 C 216.602391 162.200798 220.00166 181.698804 222.096074 204.296876 L 222.503322 207.795878 L 260.501992 219.797208 L 285.103056 196.8002 L 284.097404 191.198471 Z M 283.99767 191.298205 " transform="matrix(0.47,0,0,0.47,36.400002,0)"/>
<path style=" stroke:none;fill-rule:evenodd;fill:rgb(100%,92.54902%,0%);fill-opacity:1;" d="M 78.089844 56.304688 C 78.230469 56.445312 75.457031 65.519531 75.457031 65.519531 L 72.917969 62.933594 L 74.703125 53.390625 Z M 78.089844 56.304688 "/>
<path style="fill:none;stroke-width:2.2;stroke-linecap:butt;stroke-linejoin:miter;stroke:rgb(0%,0%,0%);stroke-opacity:1;stroke-miterlimit:4;" d="M 178.803189 108.402593 C 186.000662 116.397939 188.302856 129.596077 186.998003 137.00133 " transform="matrix(0.47,0,0,0.47,36.400002,0)"/>
<path style="fill:none;stroke-width:2.4;stroke-linecap:butt;stroke-linejoin:miter;stroke:rgb(0%,0%,0%);stroke-opacity:1;stroke-miterlimit:4;" d="M 89.000994 119.099069 C 88.701792 120.403923 87.496673 126.296543 86.998002 127.800865 L 85.801194 133.103391 L 84.396606 138.297873 C 84.197138 139.968418 83.864691 141.630652 83.399266 143.301197 M 79.700795 110.29754 C 79.800529 110.596742 80.199465 112.300532 80.299199 113.397607 C 80.099731 114.602726 79.800529 118.799867 79.301859 120.295878 L 78.395941 125.099734 L 77.398601 129.704123 L 76.600728 134.3002 " transform="matrix(0.47,0,0,0.47,36.400002,0)"/>
<path style="fill:none;stroke-width:2.2;stroke-linecap:butt;stroke-linejoin:miter;stroke:rgb(0%,0%,0%);stroke-opacity:1;stroke-miterlimit:4;" d="M 150.703122 156.299867 L 150.802856 156.000665 C 150.40392 156.798538 150.802856 156.299867 149.996673 154.596078 C 149.099066 153.598737 148.600396 149.301862 149.797205 146.8002 L 151.800197 142.503325 C 151.999665 142.162567 152.265622 141.83012 152.598069 141.497673 M 98.799864 128.997673 L 98.70013 129.197141 L 98.101726 130.202793 C 97.370343 131.53258 96.630649 132.762633 95.899266 133.901264 C 95.300861 135.197806 94.203787 136.203458 93.597071 137.5 L 91.203454 141.497673 C 90.264292 142.835772 89.39993 144.165559 88.602058 145.503657 L 86.599066 148.703458 L 88.602058 145.503657 L 86.599066 148.703458 M 72.403587 104.396609 C 72.603055 104.596077 73.101726 106.299867 73.20146 107.396942 C 73.001992 108.402593 72.802524 112.400266 72.403587 113.696809 L 71.697138 118.101729 C 71.298202 119.697474 71.198468 120.802859 70.699797 122.398604 L 70.201127 126.604056 M 104.002657 150.997341 C 102.298867 149.102394 101.301526 149.800532 100.196141 149.700798 C 98.010303 150.299203 96.032244 151.512633 94.502989 153.199801 C 93.829784 154.064163 92.965423 154.903591 91.901593 155.701463 C 91.402923 156.499336 91.003986 156.698804 90.497005 157.197474 M 232.002989 90.400599 L 231.903255 90.699801 C 232.302191 89.901928 232.002989 90.300865 232.401926 92.204123 C 232.900596 93.500665 232.900596 94.398272 233.399266 95.603391 M 205.498667 97.398604 C 205.498667 97.598072 205.199465 115.899269 205.997338 118.301197 C 206.196806 119.797208 206.604053 121.002327 206.803521 122.897274 C 206.870011 123.902926 207.002989 124.900266 207.202457 125.897607 C 207.800862 127.102726 207.900596 128.299535 208.598734 129.197141 C 208.897936 130.501995 209.903588 130.601729 210.501992 131.698804 C 211.20013 132.59641 212.496673 134.100732 213.302856 134.699136 M 192.799199 147.598072 C 192.200795 147.398604 190.796207 146.201796 189.599399 145.603391 C 188.203122 144.797208 184.70412 140.699801 184.596074 137.799202 " transform="matrix(0.47,0,0,0.47,36.400002,0)"/>
<path style="fill:none;stroke-width:2.2;stroke-linecap:butt;stroke-linejoin:miter;stroke:rgb(0%,0%,0%);stroke-opacity:1;stroke-miterlimit:4;" d="M 206.496008 121.600732 L 201.500995 126.604056 C 196.589093 130.551862 191.294878 134.000998 185.70146 136.901596 C 184.49634 137.5 183.00033 138.896277 181.703787 138.996011 C 180.365689 139.536237 179.035901 139.901929 177.697803 140.101397 C 168.239691 141.821809 158.590423 142.320479 148.999332 141.597407 L 145.600064 141.397939 C 144.669213 141.530918 143.563827 141.597407 142.300529 141.597407 C 140.696473 141.497673 139.898601 141.796875 138.602058 141.896609 C 137.596407 142.503325 135.900928 143.001995 134.704119 143.799867 C 133.299532 144.464761 132.102723 145.129655 131.097072 145.802859 C 130.099731 146.700466 114.699133 155.601729 113.90126 156.000665 C 112.297204 156.698804 106.604053 158.502328 105.099731 154.396609 C 104.567816 152.667886 104.202125 151.163564 104.002657 149.900266 C 103.503986 148.50399 103.803189 146.899934 103.803189 145.503657 C 105.199465 138.597075 107.401925 135.895944 108.000329 134.699136 L 108.698468 133.502327 M 251.002325 108.003657 L 250.90259 108.302859 C 251.301527 107.629655 251.035569 107.903923 250.096407 109.100732 C 249.032577 109.965093 248.001992 110.970745 246.99634 112.101064 C 245.999 112.898936 245.201128 114.104056 244.403255 114.502992 C 243.597072 115.367354 242.599731 116.032248 241.402923 116.497673 C 240.073136 116.996343 238.793215 117.636303 237.596407 118.400931 C 235.900928 119.198803 234.903588 120.09641 233.399266 121.002327 C 232.401926 122.199136 231.396274 122.997008 230.598402 124.401596 C 229.800529 125.598405 229.035902 126.903258 228.296207 128.299535 L 226.500995 131.798538 L 228.296207 128.299535 L 226.500995 131.798538 M 238.203122 204.903591 L 238.502324 204.39661 C 238.036899 205.402261 238.070144 205.103059 238.602059 203.499003 C 238.602059 201.70379 239.100729 199.401596 239.100729 197.697806 C 239.433176 195.902594 239.632644 194.065825 239.699133 192.204123 C 239.699133 190.201131 239.566154 188.198139 239.300197 186.203458 C 239.167218 184.399934 239.067484 182.529921 239.000995 180.601729 C 239.000995 178.864695 238.801527 177.202461 238.40259 175.598405 L 238.003654 170.802859 C 238.003654 169.59774 237.837431 168.467421 237.496673 167.403591 L 236.299864 162.300532 L 235.302524 158.203125 C 235.103056 156.59907 234.296872 154.596078 233.897936 153.299535 C 233.390955 152.219083 233.016952 151.072141 232.800862 149.900266 C 232.135968 148.769947 231.703787 147.564828 231.496008 146.30153 L 229.900263 142.603059 L 228.503987 138.996011 C 227.963761 137.666224 227.46509 136.336437 226.999665 134.998338 C 226.600729 134.466423 226.334771 134.000998 226.201793 133.602062 " transform="matrix(0.47,0,0,0.47,36.400002,0)"/>
<path style="fill-rule:evenodd;fill:rgb(100%,90.196079%,2.352941%);fill-opacity:1;stroke-width:2.2;stroke-linecap:butt;stroke-linejoin:miter;stroke:rgb(0%,0%,0%);stroke-opacity:1;stroke-miterlimit:4;" d="M 234.903588 98.50399 C 233.158242 101.928192 231.080449 105.177859 228.703455 108.203125 L 224.498003 116.597407 C 222.70279 121.201796 223.799864 123.096742 224.597737 124.401596 C 226.301527 127.401929 226.600729 128.997673 227.797537 131.200133 C 228.296207 134.000998 223.301194 134.998338 223.301194 135.098072 C 212.90392 138.696809 207.601394 128.698471 207.601394 128.199801 C 206.196806 122.997008 206.396274 122.199136 209.596074 121.102061 C 213.203122 120.196144 214.599399 120.09641 216.402923 118.899601 C 219.901926 116.298205 222.303854 108.602061 222.403588 108.502327 L 222.802524 104.097407 C 223.101726 102.102726 222.20412 100.099734 223.20146 96.899934 C 224.597737 93.700133 225.40392 92.902261 228.603721 92.603059 C 232.800862 92.303857 236.100396 95.196144 234.903588 98.50399 Z M 234.903588 98.50399 " transform="matrix(0.47,0,0,0.47,36.400002,0)"/>
<path style="fill-rule:evenodd;fill:rgb(100%,93.725491%,0%);fill-opacity:1;stroke-width:2.2;stroke-linecap:butt;stroke-linejoin:miter;stroke:rgb(0%,0%,0%);stroke-opacity:1;stroke-miterlimit:4;" d="M 221.298202 199.700798 C 219.702457 198.196477 250.703122 210.895945 254.999997 211.00399 C 260.801194 208.901264 284.903588 188.597075 284.903588 188.597075 C 285.103056 190.600067 286.000662 195.703125 288.302857 196.8002 C 279.002657 204.296876 270.600064 211.602394 261.299864 219.09907 C 261.898269 231.1004 259.803854 243.799868 265.796208 257.09774 C 265.796208 257.09774 258.598734 257.297208 258.598734 257.09774 C 252.199133 250.698139 249.896939 219.896942 249.896939 219.896942 L 219.303521 206.299868 C 220.799532 205.302527 221.896606 202.401929 221.298202 199.601064 Z M 221.298202 199.700798 " transform="matrix(0.47,0,0,0.47,36.400002,0)"/>
<path style="fill:none;stroke-width:2.2;stroke-linecap:butt;stroke-linejoin:miter;stroke:rgb(0%,0%,0%);stroke-opacity:1;stroke-miterlimit:4;" d="M 250.802856 231.299868 C 251.301527 230.900931 245.201128 234.100732 243.597072 234.898604 C 215.497005 249.900267 201.002324 271.899934 200.096407 272.697807 L 197.902258 276.097075 L 195.600064 279.097408 L 192.001327 283.80153 C 191.801859 284.399934 192.400263 283.502328 192.200795 284.000998 M 270.101394 213.397607 C 272.187497 215.076463 274.356713 216.647274 276.600729 218.101729 C 302.797537 236.303192 328.902923 239.203791 330.099732 239.602727 C 331.163561 239.669216 332.50166 239.835439 334.097405 240.101397 C 335.369014 240.234376 336.632311 240.400599 337.90392 240.600067 C 339.300197 240.799535 342.30053 241.397939 343.696806 241.796876 C 344.303522 241.597408 343.198136 241.497673 343.696806 241.397939 " transform="matrix(0.47,0,0,0.47,36.400002,0)"/>
</g>
</svg>
