<?xml version="1.0" encoding="UTF-8"?>
<svg xmlns="http://www.w3.org/2000/svg" xmlns:xlink="http://www.w3.org/1999/xlink" width="px" height="px" viewBox="0 0 320 240" version="1.1">
<g id="surface1">
<rect x="0" y="0" width="320" height="240" style="fill:rgb(100%,100%,100%);fill-opacity:1;stroke:none;"/>
<path style=" stroke:none;fill-rule:evenodd;fill:rgb(0%,0%,38.82353%);fill-opacity:1;" d="M 320 208.101562 C 316.398438 211.449219 313.351562 219.101562 303.800781 219.101562 C 284.75 219.101562 280 202.851562 265.699219 202.851562 C 256.199219 202.851562 251.449219 219.101562 241.898438 219.101562 C 222.851562 219.101562 218.101562 202.851562 203.800781 202.851562 C 194.300781 202.851562 189.550781 219.101562 180.050781 219.101562 C 160.949219 219.101562 156.199219 202.851562 141.898438 202.851562 C 132.398438 202.851562 127.601562 219.101562 118.101562 219.101562 C 99.050781 219.101562 94.300781 202.851562 80 202.851562 C 70.5 202.851562 65.699219 219.101562 56.199219 219.101562 C 37.101562 219.101562 32.351562 202.851562 18.101562 202.851562 C 8.601562 202.851562 5.699219 214.449219 0 214.449219 L 0 235.300781 C 5.699219 235.300781 8.550781 223.800781 18.148438 223.800781 C 32.398438 223.800781 37.148438 240 56.148438 240 C 65.699219 240 70.449219 223.75 80 223.75 C 94.300781 223.75 99.050781 240 118.148438 240 C 127.648438 240 132.351562 223.75 141.898438 223.75 C 156.199219 223.75 160.949219 240 180 240 C 189.5 240 194.300781 223.75 203.800781 223.75 C 218.101562 223.75 222.851562 240 241.898438 240 C 251.398438 240 256.199219 223.75 265.699219 223.75 C 280 223.75 284.800781 240 303.800781 240 C 313.300781 240 316.398438 235.398438 320 232.101562 Z M 320 167.5 C 316.398438 170.851562 313.351562 178.5 303.800781 178.5 C 284.75 178.5 280 162.25 265.699219 162.25 C 256.199219 162.25 251.449219 178.5 241.898438 178.5 C 222.851562 178.5 218.101562 162.25 203.800781 162.25 C 194.300781 162.25 189.550781 178.5 180.050781 178.5 C 160.949219 178.5 156.199219 162.25 141.898438 162.25 C 132.398438 162.25 127.601562 178.5 118.101562 178.5 C 99.050781 178.5 94.300781 162.25 80 162.25 C 70.5 162.25 65.699219 178.5 56.199219 178.5 C 37.101562 178.5 32.351562 162.25 18.101562 162.25 C 8.601562 162.25 5.699219 173.851562 0 173.851562 L 0 194.75 C 5.699219 194.75 8.550781 183.199219 18.148438 183.199219 C 32.398438 183.199219 37.148438 199.449219 56.148438 199.449219 C 65.699219 199.449219 70.449219 183.199219 80 183.199219 C 94.300781 183.199219 99.050781 199.449219 118.148438 199.449219 C 127.648438 199.449219 132.351562 183.199219 141.898438 183.199219 C 156.199219 183.199219 160.949219 199.449219 180.050781 199.449219 C 189.550781 199.449219 194.300781 183.199219 203.800781 183.199219 C 218.101562 183.199219 222.851562 199.449219 241.898438 199.449219 C 251.398438 199.449219 256.199219 183.199219 265.699219 183.199219 C 280 183.199219 284.800781 199.449219 303.800781 199.449219 C 313.300781 199.449219 316.398438 194.851562 320 191.550781 Z M 320 126.949219 C 316.398438 130.300781 313.351562 137.949219 303.800781 137.949219 C 284.75 137.949219 280 121.699219 265.699219 121.699219 C 256.199219 121.699219 251.449219 137.949219 241.898438 137.949219 C 222.851562 137.949219 218.101562 121.699219 203.800781 121.699219 C 194.300781 121.699219 189.550781 137.949219 180.050781 137.949219 C 160.949219 137.949219 156.199219 121.699219 141.898438 121.699219 C 132.398438 121.699219 127.601562 137.949219 118.101562 137.949219 C 99.050781 137.949219 94.300781 121.699219 80 121.699219 C 70.5 121.699219 65.699219 137.949219 56.199219 137.949219 C 37.101562 137.949219 32.351562 121.699219 18.101562 121.699219 C 8.601562 121.699219 5.699219 133.300781 0 133.300781 L 0 154.199219 C 5.699219 154.199219 8.550781 142.601562 18.148438 142.601562 C 32.398438 142.601562 37.148438 158.851562 56.148438 158.851562 C 65.699219 158.851562 70.449219 142.601562 80 142.601562 C 94.300781 142.601562 99.050781 158.851562 118.148438 158.851562 C 127.648438 158.851562 132.351562 142.601562 141.898438 142.601562 C 156.199219 142.601562 160.949219 158.851562 180.050781 158.851562 C 189.550781 158.851562 194.300781 142.601562 203.800781 142.601562 C 218.101562 142.601562 222.851562 158.851562 241.898438 158.851562 C 251.398438 158.851562 256.199219 142.601562 265.699219 142.601562 C 280 142.601562 284.800781 158.851562 303.800781 158.851562 C 313.300781 158.851562 316.398438 154.25 320 150.949219 Z M 320 86.398438 C 316.398438 89.699219 313.351562 97.398438 303.800781 97.398438 C 284.75 97.398438 280 81.148438 265.699219 81.148438 C 256.199219 81.148438 251.449219 97.398438 241.898438 97.398438 C 222.851562 97.398438 218.101562 81.148438 203.800781 81.148438 C 194.300781 81.148438 189.550781 97.398438 180.050781 97.398438 C 160.949219 97.398438 156.199219 81.148438 141.898438 81.148438 C 132.398438 81.148438 127.601562 97.398438 118.101562 97.398438 C 99.050781 97.398438 94.300781 81.148438 80 81.148438 C 70.5 81.148438 65.699219 97.398438 56.199219 97.398438 C 37.101562 97.398438 32.351562 81.148438 18.101562 81.148438 C 8.601562 81.148438 5.699219 92.75 0 92.75 L 0 113.601562 C 5.699219 113.601562 8.550781 102.101562 18.148438 102.101562 C 32.398438 102.101562 37.148438 118.300781 56.148438 118.300781 C 65.699219 118.300781 70.449219 102.050781 80 102.050781 C 94.300781 102.050781 99.050781 118.300781 118.148438 118.300781 C 127.648438 118.300781 132.351562 102.050781 141.898438 102.050781 C 156.199219 102.050781 160.949219 118.300781 180.050781 118.300781 C 189.550781 118.300781 194.300781 102.050781 203.800781 102.050781 C 218.101562 102.050781 222.851562 118.300781 241.898438 118.300781 C 251.398438 118.300781 256.199219 102.050781 265.699219 102.050781 C 280 102.050781 284.800781 118.300781 303.800781 118.300781 C 313.300781 118.300781 316.398438 113.648438 320 110.351562 Z M 320 45.75 C 316.398438 49.101562 313.351562 56.800781 303.800781 56.800781 C 284.75 56.800781 280 40.550781 265.699219 40.550781 C 256.199219 40.550781 251.449219 56.800781 241.898438 56.800781 C 222.851562 56.800781 218.101562 40.550781 203.800781 40.550781 C 194.300781 40.550781 189.550781 56.800781 180.050781 56.800781 C 160.949219 56.800781 156.199219 40.550781 141.898438 40.550781 C 132.398438 40.550781 127.601562 56.800781 118.101562 56.800781 C 99.050781 56.800781 94.300781 40.550781 80 40.550781 C 70.5 40.550781 65.699219 56.800781 56.199219 56.800781 C 37.101562 56.800781 32.351562 40.550781 18.101562 40.550781 C 8.601562 40.601562 5.699219 52.199219 0 52.199219 L 0 73.101562 C 5.699219 73.101562 8.550781 61.550781 18.101562 61.550781 C 32.351562 61.550781 37.148438 77.800781 56.199219 77.800781 C 65.699219 77.800781 70.449219 61.550781 80 61.550781 C 94.300781 61.550781 99.050781 77.800781 118.148438 77.800781 C 127.648438 77.800781 132.351562 61.550781 141.851562 61.550781 C 156.199219 61.550781 160.949219 77.800781 180 77.800781 C 189.5 77.800781 194.300781 61.550781 203.800781 61.550781 C 218.101562 61.550781 222.851562 77.800781 241.898438 77.800781 C 251.398438 77.800781 256.199219 61.550781 265.699219 61.550781 C 280 61.550781 284.800781 77.800781 303.800781 77.800781 C 313.300781 77.800781 316.398438 73.148438 320 69.851562 Z M 320 5.25 C 316.398438 8.550781 313.351562 16.25 303.800781 16.25 C 284.75 16.25 280 0 265.699219 0 C 256.199219 0 251.449219 16.25 241.898438 16.25 C 222.851562 16.25 218.101562 0 203.800781 0 C 194.300781 0 189.550781 16.25 180.050781 16.25 C 160.949219 16.25 156.199219 0 141.898438 0 C 132.398438 0 127.601562 16.25 118.101562 16.25 C 99 16.25 94.300781 0 80 0 C 70.5 0 65.699219 16.25 56.199219 16.25 C 37.101562 16.25 32.351562 0 18.101562 0 C 8.601562 0 5.699219 11.601562 0 11.601562 L 0 32.550781 C 5.699219 32.5 8.550781 21 18.101562 21 C 32.351562 21 37.148438 37.199219 56.199219 37.199219 C 65.699219 37.199219 70.449219 21 80 21 C 94.300781 21 99.050781 37.199219 118.148438 37.199219 C 127.648438 37.199219 132.351562 21 141.851562 21 C 156.199219 21 160.949219 37.199219 180 37.199219 C 189.5 37.199219 194.300781 21 203.800781 21 C 218.101562 21 222.851562 37.199219 241.898438 37.199219 C 251.398438 37.199219 256.199219 21 265.699219 21 C 280 21 284.800781 37.199219 303.800781 37.199219 C 313.300781 37.199219 316.398438 32.601562 320 29.300781 Z M 320 5.25 "/>
<path style="fill-rule:evenodd;fill:rgb(63.529414%,26.274511%,0%);fill-opacity:1;stroke-width:2.1;stroke-linecap:butt;stroke-linejoin:miter;stroke:rgb(100%,100%,100%);stroke-opacity:1;stroke-miterlimit:4;" d="M 474.796875 131.703125 L 471.296875 460.703125 C 471.296875 478 487 478 488.703125 460.703125 L 485.203125 131.703125 Z M 474.796875 131.703125 " transform="matrix(0.5,0,0,0.5,0,0)"/>
<path style="fill-rule:evenodd;fill:rgb(0%,42.745098%,0%);fill-opacity:1;stroke-width:1.8;stroke-linecap:butt;stroke-linejoin:miter;stroke:rgb(100%,100%,100%);stroke-opacity:1;stroke-miterlimit:4;" d="M 510.703125 254 L 499.703125 242.101562 L 497.101562 254.203125 L 492.398438 236.703125 L 487.898438 245.5 L 487.101562 226.898438 L 482.703125 235.703125 L 481.898438 217.101562 L 477.5 225.898438 L 475 204 L 470.601562 212.796875 L 468 191 L 463.5 199.796875 L 461 177.898438 L 459.703125 166.898438 L 461.898438 162.601562 L 467.703125 164.703125 L 476.796875 173.398438 L 495.101562 190.796875 L 483.796875 186.5 L 502.101562 203.898438 L 490.703125 199.601562 L 509 216.898438 L 497.601562 212.703125 L 514.203125 226.703125 L 502.898438 222.5 L 519.398438 236.5 L 508.101562 232.296875 L 520.703125 247.5 L 507.601562 239.898438 L 510.601562 254.203125 Z M 510.703125 254 " transform="matrix(0.5,0,0,0.5,0,0)"/>
<path style="fill:none;stroke-width:0.3;stroke-linecap:butt;stroke-linejoin:miter;stroke:rgb(0%,0%,0%);stroke-opacity:1;stroke-miterlimit:4;" d="M 510.703125 254 L 462 162.601562 M 495.101562 190.796875 L 469 175.601562 L 463.601562 199.703125 " transform="matrix(0.5,0,0,0.5,0,0)"/>
<path style="fill:none;stroke-width:0.3;stroke-linecap:butt;stroke-linejoin:miter;stroke:rgb(0%,0%,0%);stroke-opacity:1;stroke-miterlimit:4;" d="M 502.203125 203.796875 L 475.898438 188.703125 L 470.601562 212.796875 " transform="matrix(0.5,0,0,0.5,0,0)"/>
<path style="fill:none;stroke-width:0.3;stroke-linecap:butt;stroke-linejoin:miter;stroke:rgb(0%,0%,0%);stroke-opacity:1;stroke-miterlimit:4;" d="M 509.101562 216.796875 L 482.898438 201.796875 L 477.5 225.796875 " transform="matrix(0.5,0,0,0.5,0,0)"/>
<path style="fill:none;stroke-width:0.3;stroke-linecap:butt;stroke-linejoin:miter;stroke:rgb(0%,0%,0%);stroke-opacity:1;stroke-miterlimit:4;" d="M 514.296875 226.703125 L 489.796875 214.796875 L 482.796875 235.796875 " transform="matrix(0.5,0,0,0.5,0,0)"/>
<path style="fill:none;stroke-width:0.3;stroke-linecap:butt;stroke-linejoin:miter;stroke:rgb(0%,0%,0%);stroke-opacity:1;stroke-miterlimit:4;" d="M 519.5 236.5 L 495 224.601562 L 488 245.601562 " transform="matrix(0.5,0,0,0.5,0,0)"/>
<path style="fill:none;stroke-width:0.3;stroke-linecap:butt;stroke-linejoin:miter;stroke:rgb(0%,0%,0%);stroke-opacity:1;stroke-miterlimit:4;" d="M 520.796875 247.398438 L 498.5 231.203125 L 497.101562 254.203125 " transform="matrix(0.5,0,0,0.5,0,0)"/>
<path style="fill-rule:evenodd;fill:rgb(0%,42.745098%,0%);fill-opacity:1;stroke-width:2;stroke-linecap:butt;stroke-linejoin:miter;stroke:rgb(100%,100%,100%);stroke-opacity:1;stroke-miterlimit:4;" d="M 383 97.898438 L 400.796875 104.703125 L 395.601562 91.203125 L 411.203125 106.5 L 409.703125 95.5 L 422.296875 113.898438 L 420.796875 102.898438 L 433.398438 121.296875 L 431.898438 110.296875 L 448.203125 131.101562 L 446.703125 120.101562 L 463 140.898438 L 461.601562 129.898438 L 477.796875 150.703125 L 486 161.101562 L 486.703125 166.601562 L 480 167.203125 L 466 162.898438 L 437.796875 154.203125 L 451.101562 153.101562 L 423 144.398438 L 436.296875 143.296875 L 408.203125 134.601562 L 421.5 133.398438 L 397.101562 127.203125 L 410.398438 126.101562 L 386 119.898438 L 399.296875 118.703125 L 377.796875 109.398438 L 394.898438 110.703125 L 383.101562 98 Z M 383 97.898438 " transform="matrix(0.5,0,0,0.5,0,0)"/>
<path style="fill:none;stroke-width:0.3;stroke-linecap:butt;stroke-linejoin:miter;stroke:rgb(0%,0%,0%);stroke-opacity:1;stroke-miterlimit:4;" d="M 383 97.898438 L 486.703125 166.601562 M 437.796875 154.203125 L 471.898438 156.796875 L 461.601562 129.898438 " transform="matrix(0.5,0,0,0.5,0,0)"/>
<path style="fill:none;stroke-width:0.3;stroke-linecap:butt;stroke-linejoin:miter;stroke:rgb(0%,0%,0%);stroke-opacity:1;stroke-miterlimit:4;" d="M 423 144.398438 L 457 147 L 446.703125 120 " transform="matrix(0.5,0,0,0.5,0,0)"/>
<path style="fill:none;stroke-width:0.3;stroke-linecap:butt;stroke-linejoin:miter;stroke:rgb(0%,0%,0%);stroke-opacity:1;stroke-miterlimit:4;" d="M 408.203125 134.601562 L 442.203125 137.203125 L 431.898438 110.203125 " transform="matrix(0.5,0,0,0.5,0,0)"/>
<path style="fill:none;stroke-width:0.3;stroke-linecap:butt;stroke-linejoin:miter;stroke:rgb(0%,0%,0%);stroke-opacity:1;stroke-miterlimit:4;" d="M 397 127.203125 L 427.5 127.296875 L 420.796875 102.898438 " transform="matrix(0.5,0,0,0.5,0,0)"/>
<path style="fill:none;stroke-width:0.3;stroke-linecap:butt;stroke-linejoin:miter;stroke:rgb(0%,0%,0%);stroke-opacity:1;stroke-miterlimit:4;" d="M 386 119.796875 L 416.398438 120 L 409.703125 95.5 " transform="matrix(0.5,0,0,0.5,0,0)"/>
<path style="fill:none;stroke-width:0.3;stroke-linecap:butt;stroke-linejoin:miter;stroke:rgb(0%,0%,0%);stroke-opacity:1;stroke-miterlimit:4;" d="M 377.796875 109.398438 L 408.898438 115.101562 L 395.703125 91.203125 " transform="matrix(0.5,0,0,0.5,0,0)"/>
<path style="fill-rule:evenodd;fill:rgb(0%,42.745098%,0%);fill-opacity:1;stroke-width:2;stroke-linecap:butt;stroke-linejoin:miter;stroke:rgb(100%,100%,100%);stroke-opacity:1;stroke-miterlimit:4;" d="M 589.796875 120.796875 L 575 131.703125 L 591.398438 133.5 L 568.5 138.898438 L 580.703125 142.5 L 556 144.296875 L 568.203125 147.898438 L 543.5 149.703125 L 555.601562 153.398438 L 526.703125 157 L 538.898438 160.601562 L 510 164.203125 L 522.203125 167.796875 L 493.296875 171.398438 L 478.796875 173.203125 L 472.796875 171.398438 L 475 166 L 485.703125 157 L 507 138.898438 L 502.398438 149.703125 L 523.703125 131.703125 L 519.101562 142.5 L 540.398438 124.5 L 535.796875 135.296875 L 553 119 L 548.5 129.898438 L 565.5 113.601562 L 561 124.398438 L 580 111.796875 L 571.296875 124.5 L 589.898438 120.898438 Z M 589.796875 120.796875 " transform="matrix(0.5,0,0,0.5,0,0)"/>
<path style="fill:none;stroke-width:0.3;stroke-linecap:butt;stroke-linejoin:miter;stroke:rgb(0%,0%,0%);stroke-opacity:1;stroke-miterlimit:4;" d="M 589.796875 120.796875 L 472.796875 171.398438 M 506.898438 138.898438 L 489.5 164.203125 L 522.203125 167.796875 " transform="matrix(0.5,0,0,0.5,0,0)"/>
<path style="fill:none;stroke-width:0.3;stroke-linecap:butt;stroke-linejoin:miter;stroke:rgb(0%,0%,0%);stroke-opacity:1;stroke-miterlimit:4;" d="M 523.703125 131.703125 L 506.203125 157 L 538.898438 160.601562 " transform="matrix(0.5,0,0,0.5,0,0)"/>
<path style="fill:none;stroke-width:0.3;stroke-linecap:butt;stroke-linejoin:miter;stroke:rgb(0%,0%,0%);stroke-opacity:1;stroke-miterlimit:4;" d="M 540.398438 124.398438 L 522.898438 149.703125 L 555.601562 153.398438 " transform="matrix(0.5,0,0,0.5,0,0)"/>
<path style="fill:none;stroke-width:0.3;stroke-linecap:butt;stroke-linejoin:miter;stroke:rgb(0%,0%,0%);stroke-opacity:1;stroke-miterlimit:4;" d="M 553 119 L 539.703125 142.5 L 568.203125 147.898438 " transform="matrix(0.5,0,0,0.5,0,0)"/>
<path style="fill:none;stroke-width:0.3;stroke-linecap:butt;stroke-linejoin:miter;stroke:rgb(0%,0%,0%);stroke-opacity:1;stroke-miterlimit:4;" d="M 565.5 113.601562 L 552.203125 137.101562 L 580.703125 142.5 " transform="matrix(0.5,0,0,0.5,0,0)"/>
<path style="fill:none;stroke-width:0.3;stroke-linecap:butt;stroke-linejoin:miter;stroke:rgb(0%,0%,0%);stroke-opacity:1;stroke-miterlimit:4;" d="M 580 111.796875 L 560.601562 133.5 L 591.296875 133.5 " transform="matrix(0.5,0,0,0.5,0,0)"/>
<path style="fill-rule:evenodd;fill:rgb(0%,42.745098%,0%);fill-opacity:1;stroke-width:2;stroke-linecap:butt;stroke-linejoin:miter;stroke:rgb(100%,100%,100%);stroke-opacity:1;stroke-miterlimit:4;" d="M 587.398438 230.296875 L 569 225 L 575.601562 238 L 558.5 224 L 561.101562 234.703125 L 546.601562 217.5 L 549.296875 228.296875 L 534.796875 211 L 537.398438 221.796875 L 518.898438 202.398438 L 521.601562 213.203125 L 503.101562 193.796875 L 505.796875 204.601562 L 487.296875 185.203125 L 478.101562 175.5 L 476.796875 170.101562 L 483.398438 168.898438 L 497.898438 172.101562 L 526.898438 178.5 L 513.703125 180.703125 L 542.703125 187.101562 L 529.5 189.296875 L 558.5 195.703125 L 545.296875 198 L 570.296875 202.203125 L 557.101562 204.398438 L 582.101562 208.601562 L 569 211 L 591.296875 218.5 L 574.296875 218.5 L 587.296875 230.5 Z M 587.398438 230.296875 " transform="matrix(0.5,0,0,0.5,0,0)"/>
<path style="fill:none;stroke-width:0.3;stroke-linecap:butt;stroke-linejoin:miter;stroke:rgb(0%,0%,0%);stroke-opacity:1;stroke-miterlimit:4;" d="M 587.398438 230.296875 L 476.796875 170.101562 M 526.796875 178.5 L 492.601562 178.703125 L 505.796875 204.703125 " transform="matrix(0.5,0,0,0.5,0,0)"/>
<path style="fill:none;stroke-width:0.3;stroke-linecap:butt;stroke-linejoin:miter;stroke:rgb(0%,0%,0%);stroke-opacity:1;stroke-miterlimit:4;" d="M 542.601562 187.101562 L 508.398438 187.296875 L 521.601562 213.296875 " transform="matrix(0.5,0,0,0.5,0,0)"/>
<path style="fill:none;stroke-width:0.3;stroke-linecap:butt;stroke-linejoin:miter;stroke:rgb(0%,0%,0%);stroke-opacity:1;stroke-miterlimit:4;" d="M 558.398438 195.703125 L 524.203125 195.898438 L 537.398438 221.898438 " transform="matrix(0.5,0,0,0.5,0,0)"/>
<path style="fill:none;stroke-width:0.3;stroke-linecap:butt;stroke-linejoin:miter;stroke:rgb(0%,0%,0%);stroke-opacity:1;stroke-miterlimit:4;" d="M 570.296875 202.203125 L 540 204.5 L 549.296875 228.296875 " transform="matrix(0.5,0,0,0.5,0,0)"/>
<path style="fill:none;stroke-width:0.3;stroke-linecap:butt;stroke-linejoin:miter;stroke:rgb(0%,0%,0%);stroke-opacity:1;stroke-miterlimit:4;" d="M 582.203125 208.703125 L 551.898438 210.898438 L 561.101562 234.703125 " transform="matrix(0.5,0,0,0.5,0,0)"/>
<path style="fill:none;stroke-width:0.3;stroke-linecap:butt;stroke-linejoin:miter;stroke:rgb(0%,0%,0%);stroke-opacity:1;stroke-miterlimit:4;" d="M 591.296875 218.398438 L 559.796875 215.203125 L 575.601562 238 " transform="matrix(0.5,0,0,0.5,0,0)"/>
<path style="fill-rule:evenodd;fill:rgb(0%,42.745098%,0%);fill-opacity:1;stroke-width:1.8;stroke-linecap:butt;stroke-linejoin:miter;stroke:rgb(100%,100%,100%);stroke-opacity:1;stroke-miterlimit:4;" d="M 395.203125 236.601562 L 404.5 223.601562 L 390.398438 225.703125 L 407.796875 215.796875 L 396.703125 215.296875 L 416.703125 208.296875 L 405.601562 207.703125 L 425.601562 200.703125 L 414.5 200.101562 L 437.5 190.5 L 426.296875 190 L 449.296875 180.296875 L 438.203125 179.796875 L 461.203125 170.203125 L 472.703125 165.296875 L 478.296875 165.601562 L 477.898438 170.898438 L 471.601562 181.296875 L 459 202.101562 L 459.796875 191.5 L 447.203125 212.296875 L 447.898438 201.601562 L 435.296875 222.398438 L 436 211.796875 L 426.398438 230 L 427.101562 219.398438 L 417.5 237.601562 L 418.203125 227 L 406 242.398438 L 409.703125 229.203125 Z M 395.203125 236.601562 " transform="matrix(0.5,0,0,0.5,0,0)"/>
<path style="fill:none;stroke-width:0.3;stroke-linecap:butt;stroke-linejoin:miter;stroke:rgb(0%,0%,0%);stroke-opacity:1;stroke-miterlimit:4;" d="M 395.203125 236.601562 L 478.203125 165.601562 M 459.101562 202.101562 L 466.398438 175.703125 L 438.203125 179.796875 " transform="matrix(0.5,0,0,0.5,0,0)"/>
<path style="fill:none;stroke-width:0.3;stroke-linecap:butt;stroke-linejoin:miter;stroke:rgb(0%,0%,0%);stroke-opacity:1;stroke-miterlimit:4;" d="M 447.203125 212.296875 L 454.5 185.898438 L 426.296875 189.898438 " transform="matrix(0.5,0,0,0.5,0,0)"/>
<path style="fill:none;stroke-width:0.3;stroke-linecap:butt;stroke-linejoin:miter;stroke:rgb(0%,0%,0%);stroke-opacity:1;stroke-miterlimit:4;" d="M 435.296875 222.398438 L 442.703125 196 L 414.5 200.101562 " transform="matrix(0.5,0,0,0.5,0,0)"/>
<path style="fill:none;stroke-width:0.3;stroke-linecap:butt;stroke-linejoin:miter;stroke:rgb(0%,0%,0%);stroke-opacity:1;stroke-miterlimit:4;" d="M 426.398438 230 L 430.796875 206.203125 L 405.601562 207.703125 " transform="matrix(0.5,0,0,0.5,0,0)"/>
<path style="fill:none;stroke-width:0.3;stroke-linecap:butt;stroke-linejoin:miter;stroke:rgb(0%,0%,0%);stroke-opacity:1;stroke-miterlimit:4;" d="M 417.5 237.601562 L 421.898438 213.796875 L 396.703125 215.296875 " transform="matrix(0.5,0,0,0.5,0,0)"/>
<path style="fill:none;stroke-width:0.3;stroke-linecap:butt;stroke-linejoin:miter;stroke:rgb(0%,0%,0%);stroke-opacity:1;stroke-miterlimit:4;" d="M 406 242.398438 L 416 218.898438 L 390.398438 225.703125 " transform="matrix(0.5,0,0,0.5,0,0)"/>
<path style="fill-rule:evenodd;fill:rgb(0%,42.745098%,0%);fill-opacity:1;stroke-width:2;stroke-linecap:butt;stroke-linejoin:miter;stroke:rgb(100%,100%,100%);stroke-opacity:1;stroke-miterlimit:4;" d="M 563 66.203125 L 545.101562 78.203125 L 542.203125 65.296875 L 531.703125 83.101562 L 529.703125 74.601562 L 521.101562 92.796875 L 519.898438 84.398438 L 513.203125 103.101562 L 509.398438 94.101562 L 502.703125 116.796875 L 498.898438 107.796875 L 492.203125 130.5 L 488.296875 121.5 L 481.601562 144.203125 L 478.296875 155.601562 L 480.203125 160.101562 L 487.398438 157.703125 L 499.796875 148.5 L 524.796875 130.101562 L 510.398438 134.796875 L 535.296875 116.296875 L 520.898438 121.101562 L 545.796875 102.601562 L 531.398438 107.398438 L 556.398438 93 L 539.398438 97 L 566 83.296875 L 549.703125 87.5 L 569.398438 71.898438 L 552.398438 80 Z M 563 66.203125 " transform="matrix(0.5,0,0,0.5,0,0)"/>
<path style="fill:none;stroke-width:0.3;stroke-linecap:butt;stroke-linejoin:miter;stroke:rgb(0%,0%,0%);stroke-opacity:1;stroke-miterlimit:4;" d="M 556 72.703125 L 530.203125 94.898438 L 480.203125 160.101562 " transform="matrix(0.5,0,0,0.5,0,0)"/>
<path style="fill:none;stroke-width:0.3;stroke-linecap:butt;stroke-linejoin:miter;stroke:rgb(0%,0%,0%);stroke-opacity:1;stroke-miterlimit:4;" d="M 519.296875 132.796875 L 490.703125 146.296875 L 488.296875 125.5 " transform="matrix(0.5,0,0,0.5,0,0)"/>
<path style="fill:none;stroke-width:0.3;stroke-linecap:butt;stroke-linejoin:miter;stroke:rgb(0%,0%,0%);stroke-opacity:1;stroke-miterlimit:4;" d="M 530.203125 119.203125 L 501.203125 132.601562 L 498.898438 111.796875 " transform="matrix(0.5,0,0,0.5,0,0)"/>
<path style="fill:none;stroke-width:0.3;stroke-linecap:butt;stroke-linejoin:miter;stroke:rgb(0%,0%,0%);stroke-opacity:1;stroke-miterlimit:4;" d="M 540.5 105.5 L 511.796875 118.898438 L 509.601562 98.203125 " transform="matrix(0.5,0,0,0.5,0,0)"/>
<path style="fill:none;stroke-width:0.3;stroke-linecap:butt;stroke-linejoin:miter;stroke:rgb(0%,0%,0%);stroke-opacity:1;stroke-miterlimit:4;" d="M 549.101562 95.296875 L 522.296875 105.203125 L 519.296875 88.203125 " transform="matrix(0.5,0,0,0.5,0,0)"/>
<path style="fill:none;stroke-width:0.3;stroke-linecap:butt;stroke-linejoin:miter;stroke:rgb(0%,0%,0%);stroke-opacity:1;stroke-miterlimit:4;" d="M 559 85.5 L 530.203125 95 L 529.203125 78.601562 " transform="matrix(0.5,0,0,0.5,0,0)"/>
<path style="fill:none;stroke-width:0.3;stroke-linecap:butt;stroke-linejoin:miter;stroke:rgb(0%,0%,0%);stroke-opacity:1;stroke-miterlimit:4;" d="M 562.796875 76.203125 L 536.203125 89.796875 L 541.398438 69.203125 " transform="matrix(0.5,0,0,0.5,0,0)"/>
<path style="fill-rule:evenodd;fill:rgb(0%,42.745098%,0%);fill-opacity:1;stroke-width:2;stroke-linecap:butt;stroke-linejoin:miter;stroke:rgb(100%,100%,100%);stroke-opacity:1;stroke-miterlimit:4;" d="M 466.101562 43.796875 L 474.101562 62 L 484.398438 52.398438 L 482.703125 72.203125 L 489.5 65.796875 L 485.796875 85.203125 L 491.796875 78.601562 L 486.296875 97.601562 L 495 91.601562 L 487 113.898438 L 495.601562 107.898438 L 487.601562 130.398438 L 496.296875 124.398438 L 488.296875 146.796875 L 484.296875 158 L 479.898438 161 L 475.101562 155.703125 L 470.101562 142.296875 L 460.101562 115.398438 L 469.5 125.898438 L 459.398438 98.898438 L 468.796875 109.5 L 458.796875 82.5 L 468 93 L 455.5 69.601562 L 467.5 80.703125 L 453.101562 56.796875 L 464.398438 67.796875 L 457.101562 45.601562 L 466.703125 60.203125 Z M 466.101562 43.796875 " transform="matrix(0.5,0,0,0.5,0,0)"/>
<path style="fill:none;stroke-width:0.3;stroke-linecap:butt;stroke-linejoin:miter;stroke:rgb(0%,0%,0%);stroke-opacity:1;stroke-miterlimit:4;" d="M 468.203125 52.398438 L 476.703125 82.898438 L 479.898438 160.898438 " transform="matrix(0.5,0,0,0.5,0,0)"/>
<path style="fill:none;stroke-width:0.3;stroke-linecap:butt;stroke-linejoin:miter;stroke:rgb(0%,0%,0%);stroke-opacity:1;stroke-miterlimit:4;" d="M 463 120.203125 L 479.203125 144.5 L 493.898438 127.796875 " transform="matrix(0.5,0,0,0.5,0,0)"/>
<path style="fill:none;stroke-width:0.3;stroke-linecap:butt;stroke-linejoin:miter;stroke:rgb(0%,0%,0%);stroke-opacity:1;stroke-miterlimit:4;" d="M 462 103.703125 L 478.5 128.101562 L 493.203125 111.398438 " transform="matrix(0.5,0,0,0.5,0,0)"/>
<path style="fill:none;stroke-width:0.3;stroke-linecap:butt;stroke-linejoin:miter;stroke:rgb(0%,0%,0%);stroke-opacity:1;stroke-miterlimit:4;" d="M 461.5 87.296875 L 477.898438 111.703125 L 492.296875 95 " transform="matrix(0.5,0,0,0.5,0,0)"/>
<path style="fill:none;stroke-width:0.3;stroke-linecap:butt;stroke-linejoin:miter;stroke:rgb(0%,0%,0%);stroke-opacity:1;stroke-miterlimit:4;" d="M 460.398438 74.898438 L 477.203125 95.296875 L 490.203125 82.296875 " transform="matrix(0.5,0,0,0.5,0,0)"/>
<path style="fill:none;stroke-width:0.3;stroke-linecap:butt;stroke-linejoin:miter;stroke:rgb(0%,0%,0%);stroke-opacity:1;stroke-miterlimit:4;" d="M 458 62 L 476.703125 83 L 487.703125 69.398438 " transform="matrix(0.5,0,0,0.5,0,0)"/>
<path style="fill:none;stroke-width:0.3;stroke-linecap:butt;stroke-linejoin:miter;stroke:rgb(0%,0%,0%);stroke-opacity:1;stroke-miterlimit:4;" d="M 460.296875 52.398438 L 474.703125 75.898438 L 482.796875 56 " transform="matrix(0.5,0,0,0.5,0,0)"/>
<path style="fill-rule:evenodd;fill:rgb(0%,42.745098%,0%);fill-opacity:1;stroke-width:1.9;stroke-linecap:butt;stroke-linejoin:miter;stroke:rgb(100%,100%,100%);stroke-opacity:1;stroke-miterlimit:4;" d="M 359 178 L 382.296875 161.796875 L 370.601562 155.796875 L 391.101562 159.203125 L 384.101562 149.898438 L 403.898438 157.398438 L 396.898438 148.101562 L 416.796875 155.5 L 409.796875 146.296875 L 433.796875 154.398438 L 426.796875 145.101562 L 450.101562 157.203125 L 443.101562 147.898438 L 467.101562 156.101562 L 478.796875 162.101562 L 482.296875 166.703125 L 477.601562 170 L 464.703125 171.796875 L 444 180.398438 L 447.796875 173 L 422.101562 176.601562 L 431.398438 170.203125 L 405.101562 177.796875 L 414.5 171.296875 L 392.296875 179.601562 L 402.203125 169.203125 L 379.398438 181.398438 L 389.398438 171 L 370.601562 184 L 381.101562 169.601562 Z M 359 178 " transform="matrix(0.5,0,0,0.5,0,0)"/>
<path style="fill:none;stroke-width:0.3;stroke-linecap:butt;stroke-linejoin:miter;stroke:rgb(0%,0%,0%);stroke-opacity:1;stroke-miterlimit:4;" d="M 366.296875 173.601562 L 390.5 163.101562 L 403.398438 161.296875 L 414.101562 161.101562 L 432.601562 162.296875 L 449.296875 163 L 482.296875 166.703125 " transform="matrix(0.5,0,0,0.5,0,0)"/>
<path style="fill:none;stroke-width:0.3;stroke-linecap:butt;stroke-linejoin:miter;stroke:rgb(0%,0%,0%);stroke-opacity:1;stroke-miterlimit:4;" d="M 447.203125 176.898438 L 465.703125 165.5 L 446.898438 150.796875 " transform="matrix(0.5,0,0,0.5,0,0)"/>
<path style="fill:none;stroke-width:0.3;stroke-linecap:butt;stroke-linejoin:miter;stroke:rgb(0%,0%,0%);stroke-opacity:1;stroke-miterlimit:4;" d="M 426.5 175.203125 L 449.203125 163 L 430.5 148.203125 " transform="matrix(0.5,0,0,0.5,0,0)"/>
<path style="fill:none;stroke-width:0.3;stroke-linecap:butt;stroke-linejoin:miter;stroke:rgb(0%,0%,0%);stroke-opacity:1;stroke-miterlimit:4;" d="M 411.703125 174.796875 L 432.601562 162.296875 L 413.601562 148.601562 M 384.101562 178.203125 L 403.398438 161.296875 L 387.796875 152.796875 " transform="matrix(0.5,0,0,0.5,0,0)"/>
<path style="fill:none;stroke-width:0.3;stroke-linecap:butt;stroke-linejoin:miter;stroke:rgb(0%,0%,0%);stroke-opacity:1;stroke-miterlimit:4;" d="M 375.5 179.296875 L 390.5 163.203125 L 378.5 158.703125 M 396.898438 176.398438 L 415.898438 161.203125 L 400.703125 150.796875 " transform="matrix(0.5,0,0,0.5,0,0)"/>
<path style="fill-rule:evenodd;fill:rgb(80.000001%,0%,0%);fill-opacity:1;stroke-width:1.25;stroke-linecap:butt;stroke-linejoin:miter;stroke:rgb(0%,0%,0%);stroke-opacity:1;stroke-miterlimit:4;" d="M 541.511259 1173.318578 L 539.819981 944.179912 L 478.692329 837.222288 C 463.410416 784.596512 470.900366 759.202279 495.725924 757.430588 C 520.370273 755.790133 544.893817 771.01355 580.471077 772.719622 C 616.108739 774.425695 609.404026 713.269556 662.01488 714.975629 C 714.625735 716.681701 806.317212 747.325389 884.297249 752.377988 C 962.398092 757.430588 1003.109591 725.212064 1093.109789 721.799919 C 1183.109987 718.387774 1206.787892 764.18926 1211.922131 764.18926 C 1216.995968 764.18926 1242.485957 745.619316 1267.915543 742.207171 C 1293.405532 738.795026 1301.92233 752.377988 1301.92233 752.377988 C 1301.92233 752.377988 1300.170648 810.121982 1288.271293 843.98096 C 1276.371938 877.971174 1234.029563 934.009095 1232.277881 934.009095 C 1230.586602 934.009095 1216.995968 1183.489395 1216.995968 1185.195467 C 1216.995968 1186.90154 541.511259 1178.371177 541.511259 1173.318578 Z M 541.511259 1173.318578 " transform="matrix(0.06467,0,0,0.05953,183.75,107.75)"/>
<path style="fill-rule:evenodd;fill:rgb(100%,94.509804%,0%);fill-opacity:1;stroke-width:1.25;stroke-linecap:butt;stroke-linejoin:miter;stroke:rgb(0%,0%,0%);stroke-opacity:1;stroke-miterlimit:4;" d="M 531.472122 584.605389 C 531.472122 584.605389 463.518953 532.570176 461.706868 407.501936 C 460.68002 335.518798 496.076071 283.483586 584.687005 283.483586 C 708.693989 283.483586 885.79505 336.568689 885.79505 336.568689 L 885.79505 354.285596 C 885.79505 354.285596 744.09004 301.200493 584.626602 301.200493 C 513.774097 301.200493 478.317643 353.170087 478.317643 406.386427 C 478.317643 494.970962 549.290954 584.671007 549.290954 584.671007 L 549.290954 726.406264 L 531.472122 726.406264 Z M 531.472122 584.605389 " transform="matrix(-0.06467,0,0,0.05953,298.299988,128.800003)"/>
<path style="fill-rule:evenodd;fill:rgb(100%,100%,100%);fill-opacity:1;stroke-width:1.25;stroke-linecap:butt;stroke-linejoin:miter;stroke:rgb(0%,0%,0%);stroke-opacity:1;stroke-miterlimit:4;" d="M 478.390315 549.211048 C 478.873538 555.838483 475.611785 562.269065 469.933921 565.746828 C 464.256056 569.224591 457.06812 569.224591 451.390256 565.746828 C 445.651988 562.269065 442.390236 555.838483 442.873458 549.211048 C 443.598292 539.893267 451.329853 532.740886 460.631887 532.740886 C 469.933921 532.740886 477.725884 539.893267 478.390315 549.211048 Z M 478.390315 549.211048 " transform="matrix(-0.06467,0,0,0.05953,297.25,128.699997)"/>
<path style="fill-rule:evenodd;fill:rgb(100%,100%,100%);fill-opacity:1;stroke-width:1.25;stroke-linecap:butt;stroke-linejoin:miter;stroke:rgb(0%,0%,0%);stroke-opacity:1;stroke-miterlimit:4;" d="M 478.414382 549.171574 C 478.897604 555.864628 475.635852 562.229591 469.957987 565.707354 C 464.21972 569.185118 457.092187 569.185118 451.35392 565.707354 C 445.676055 562.229591 442.414303 555.864628 442.897525 549.171574 C 443.622359 539.919412 451.35392 532.701413 460.655953 532.701413 C 469.957987 532.701413 477.689548 539.919412 478.414382 549.171574 Z M 478.414382 549.171574 " transform="matrix(-0.06467,0,0,0.05953,298.399994,126.300003)"/>
<path style="fill-rule:evenodd;fill:rgb(100%,100%,100%);fill-opacity:1;stroke-width:1.25;stroke-linecap:butt;stroke-linejoin:miter;stroke:rgb(0%,0%,0%);stroke-opacity:1;stroke-miterlimit:4;" d="M 478.390315 549.171574 C 478.873538 555.864628 475.611785 562.229591 469.933921 565.707354 C 464.256056 569.185118 457.06812 569.185118 451.390256 565.707354 C 445.651988 562.229591 442.390236 555.864628 442.873458 549.171574 C 443.598292 539.919412 451.329853 532.701413 460.631887 532.701413 C 469.933921 532.701413 477.725884 539.919412 478.390315 549.171574 Z M 478.390315 549.171574 " transform="matrix(-0.06467,0,0,0.05953,299,123.800003)"/>
<path style="fill-rule:evenodd;fill:rgb(100%,100%,100%);fill-opacity:1;stroke-width:1.25;stroke-linecap:butt;stroke-linejoin:miter;stroke:rgb(0%,0%,0%);stroke-opacity:1;stroke-miterlimit:4;" d="M 478.402584 549.211048 C 478.885807 555.838483 475.624055 562.269065 469.94619 565.746828 C 464.207922 569.224591 457.08039 569.224591 451.342122 565.746828 C 445.664257 562.269065 442.402505 555.838483 442.885728 549.211048 C 443.610561 539.893267 451.342122 532.740886 460.644156 532.740886 C 469.94619 532.740886 477.677751 539.893267 478.402584 549.211048 Z M 478.402584 549.211048 " transform="matrix(-0.06467,0,0,0.05953,299.450012,121.199997)"/>
<path style="fill-rule:evenodd;fill:rgb(100%,100%,100%);fill-opacity:1;stroke-width:1.25;stroke-linecap:butt;stroke-linejoin:miter;stroke:rgb(0%,0%,0%);stroke-opacity:1;stroke-miterlimit:4;" d="M 478.426651 549.197847 C 478.909874 555.890901 475.648122 562.255864 469.909854 565.733627 C 464.231989 569.211391 457.044054 569.211391 451.366189 565.733627 C 445.688324 562.255864 442.426572 555.890901 442.909794 549.197847 C 443.574225 539.880067 451.366189 532.727686 460.668223 532.727686 C 469.970257 532.727686 477.701817 539.880067 478.426651 549.197847 Z M 478.426651 549.197847 " transform="matrix(-0.06467,0,0,0.05953,299.350006,118.400002)"/>
<path style="fill-rule:evenodd;fill:rgb(100%,100%,100%);fill-opacity:1;stroke-width:1.25;stroke-linecap:butt;stroke-linejoin:miter;stroke:rgb(0%,0%,0%);stroke-opacity:1;stroke-miterlimit:4;" d="M 478.426651 549.184647 C 478.909874 555.877701 475.648122 562.242664 469.909854 565.720427 C 464.231989 569.19819 457.044054 569.19819 451.366189 565.720427 C 445.688324 562.242664 442.426572 555.877701 442.909794 549.184647 C 443.574225 539.932484 451.366189 532.714485 460.668223 532.714485 C 469.970257 532.714485 477.701817 539.932484 478.426651 549.184647 Z M 478.426651 549.184647 " transform="matrix(-0.06467,0,0,0.05953,295.600006,130.850006)"/>
<path style="fill-rule:evenodd;fill:rgb(100%,100%,100%);fill-opacity:1;stroke-width:1.25;stroke-linecap:butt;stroke-linejoin:miter;stroke:rgb(0%,0%,0%);stroke-opacity:1;stroke-miterlimit:4;" d="M 478.426651 549.211048 C 478.909874 555.838483 475.648122 562.269065 469.909854 565.746828 C 464.231989 569.224591 457.044054 569.224591 451.366189 565.746828 C 445.688324 562.269065 442.426572 555.838483 442.909794 549.211048 C 443.574225 539.893267 451.366189 532.740886 460.668223 532.740886 C 469.970257 532.740886 477.701817 539.893267 478.426651 549.211048 Z M 478.426651 549.211048 " transform="matrix(-0.06467,0,0,0.05953,298.350006,115.699997)"/>
<path style="fill-rule:evenodd;fill:rgb(100%,100%,100%);fill-opacity:1;stroke-width:1.25;stroke-linecap:butt;stroke-linejoin:miter;stroke:rgb(0%,0%,0%);stroke-opacity:1;stroke-miterlimit:4;" d="M 478.390315 549.171574 C 478.873538 555.864628 475.611785 562.229591 469.933921 565.707354 C 464.256056 569.185118 457.06812 569.185118 451.390256 565.707354 C 445.651988 562.229591 442.390236 555.864628 442.873458 549.171574 C 443.598292 539.919412 451.329853 532.701413 460.631887 532.701413 C 469.933921 532.701413 477.725884 539.919412 478.390315 549.171574 Z M 478.390315 549.171574 " transform="matrix(-0.06467,0,0,0.05953,296.25,113.550003)"/>
<path style="fill-rule:evenodd;fill:rgb(100%,100%,100%);fill-opacity:1;stroke-width:1.25;stroke-linecap:butt;stroke-linejoin:miter;stroke:rgb(0%,0%,0%);stroke-opacity:1;stroke-miterlimit:4;" d="M 478.414382 549.197847 C 478.897604 555.890901 475.635852 562.255864 469.957987 565.733627 C 464.21972 569.211391 457.092187 569.211391 451.35392 565.733627 C 445.676055 562.255864 442.414303 555.890901 442.897525 549.197847 C 443.622359 539.880067 451.35392 532.727686 460.655953 532.727686 C 469.957987 532.727686 477.689548 539.880067 478.414382 549.197847 Z M 478.414382 549.197847 " transform="matrix(-0.06467,0,0,0.05953,293.399994,112.150002)"/>
<path style="fill-rule:evenodd;fill:rgb(100%,100%,100%);fill-opacity:1;stroke-width:1.25;stroke-linecap:butt;stroke-linejoin:miter;stroke:rgb(0%,0%,0%);stroke-opacity:1;stroke-miterlimit:4;" d="M 478.390315 549.211048 C 478.873538 555.838483 475.611785 562.269065 469.933921 565.746828 C 464.256056 569.224591 457.06812 569.224591 451.390256 565.746828 C 445.651988 562.269065 442.390236 555.838483 442.873458 549.211048 C 443.598292 539.893267 451.329853 532.740886 460.631887 532.740886 C 469.933921 532.740886 477.725884 539.893267 478.390315 549.211048 Z M 478.390315 549.211048 " transform="matrix(-0.06467,0,0,0.05953,290.5,111.949997)"/>
<path style="fill-rule:evenodd;fill:rgb(100%,100%,100%);fill-opacity:1;stroke-width:1.25;stroke-linecap:butt;stroke-linejoin:miter;stroke:rgb(0%,0%,0%);stroke-opacity:1;stroke-miterlimit:4;" d="M 478.390315 549.22412 C 478.873538 555.851556 475.611785 562.216519 469.933921 565.694282 C 464.256056 569.172045 457.06812 569.172045 451.390256 565.694282 C 445.651988 562.216519 442.390236 555.851556 442.873458 549.22412 C 443.598292 539.906339 451.329853 532.753958 460.631887 532.753958 C 469.933921 532.753958 477.725884 539.906339 478.390315 549.22412 Z M 478.390315 549.22412 " transform="matrix(-0.06467,0,0,0.05953,287.5,112)"/>
<path style="fill-rule:evenodd;fill:rgb(100%,100%,100%);fill-opacity:1;stroke-width:1.25;stroke-linecap:butt;stroke-linejoin:miter;stroke:rgb(0%,0%,0%);stroke-opacity:1;stroke-miterlimit:4;" d="M 478.414382 549.22412 C 478.897604 555.851556 475.635852 562.216519 469.957987 565.694282 C 464.21972 569.172045 457.092187 569.172045 451.35392 565.694282 C 445.676055 562.216519 442.414303 555.851556 442.897525 549.22412 C 443.622359 539.906339 451.35392 532.753958 460.655953 532.753958 C 469.957987 532.753958 477.689548 539.906339 478.414382 549.22412 Z M 478.414382 549.22412 " transform="matrix(-0.06467,0,0,0.05953,284.399994,112.5)"/>
<path style="fill-rule:evenodd;fill:rgb(100%,100%,100%);fill-opacity:1;stroke-width:1.25;stroke-linecap:butt;stroke-linejoin:miter;stroke:rgb(0%,0%,0%);stroke-opacity:1;stroke-miterlimit:4;" d="M 478.426651 549.184775 C 478.909874 555.877829 475.648122 562.242792 469.909854 565.720555 C 464.231989 569.198318 457.044054 569.198318 451.366189 565.720555 C 445.688324 562.242792 442.426572 555.877829 442.909794 549.184775 C 443.574225 539.932612 451.366189 532.714613 460.668223 532.714613 C 469.970257 532.714613 477.701817 539.932612 478.426651 549.184775 Z M 478.426651 549.184775 " transform="matrix(-0.06467,0,0,0.05953,281.350006,112.849998)"/>
<path style="fill-rule:evenodd;fill:rgb(100%,100%,100%);fill-opacity:1;stroke-width:1.25;stroke-linecap:butt;stroke-linejoin:miter;stroke:rgb(0%,0%,0%);stroke-opacity:1;stroke-miterlimit:4;" d="M 478.390315 549.171574 C 478.873538 555.864628 475.611785 562.229591 469.933921 565.707354 C 464.256056 569.185118 457.06812 569.185118 451.390256 565.707354 C 445.651988 562.229591 442.390236 555.864628 442.873458 549.171574 C 443.598292 539.919412 451.329853 532.701413 460.631887 532.701413 C 469.933921 532.701413 477.725884 539.919412 478.390315 549.171574 Z M 478.390315 549.171574 " transform="matrix(-0.06467,0,0,0.05953,278,113.300003)"/>
<path style="fill-rule:evenodd;fill:rgb(100%,100%,100%);fill-opacity:1;stroke-width:1.25;stroke-linecap:butt;stroke-linejoin:miter;stroke:rgb(0%,0%,0%);stroke-opacity:1;stroke-miterlimit:4;" d="M 478.402584 549.171574 C 478.885807 555.864628 475.624055 562.229591 469.94619 565.707354 C 464.207922 569.185118 457.08039 569.185118 451.342122 565.707354 C 445.664257 562.229591 442.402505 555.864628 442.885728 549.171574 C 443.610561 539.919412 451.342122 532.701413 460.644156 532.701413 C 469.94619 532.701413 477.677751 539.919412 478.402584 549.171574 Z M 478.402584 549.171574 " transform="matrix(-0.06467,0,0,0.05953,275.200012,114.050003)"/>
<path style="fill-rule:evenodd;fill:rgb(100%,100%,100%);fill-opacity:1;stroke-width:1.25;stroke-linecap:butt;stroke-linejoin:miter;stroke:rgb(0%,0%,0%);stroke-opacity:1;stroke-miterlimit:4;" d="M 478.390315 549.211048 C 478.873538 555.838483 475.611785 562.269065 469.933921 565.746828 C 464.256056 569.224591 457.06812 569.224591 451.390256 565.746828 C 445.651988 562.269065 442.390236 555.838483 442.873458 549.211048 C 443.598292 539.893267 451.329853 532.740886 460.631887 532.740886 C 469.933921 532.740886 477.725884 539.893267 478.390315 549.211048 Z M 478.390315 549.211048 " transform="matrix(0.06467,0,0,0.05953,184.75,128.699997)"/>
<path style="fill-rule:evenodd;fill:rgb(100%,100%,100%);fill-opacity:1;stroke-width:1.25;stroke-linecap:butt;stroke-linejoin:miter;stroke:rgb(0%,0%,0%);stroke-opacity:1;stroke-miterlimit:4;" d="M 478.414382 549.171574 C 478.897604 555.864628 475.635852 562.229591 469.957987 565.707354 C 464.21972 569.185118 457.092187 569.185118 451.35392 565.707354 C 445.676055 562.229591 442.414303 555.864628 442.897525 549.171574 C 443.622359 539.919412 451.35392 532.701413 460.655953 532.701413 C 469.957987 532.701413 477.689548 539.919412 478.414382 549.171574 Z M 478.414382 549.171574 " transform="matrix(0.06467,0,0,0.05953,183.600006,126.300003)"/>
<path style="fill-rule:evenodd;fill:rgb(100%,100%,100%);fill-opacity:1;stroke-width:1.25;stroke-linecap:butt;stroke-linejoin:miter;stroke:rgb(0%,0%,0%);stroke-opacity:1;stroke-miterlimit:4;" d="M 478.390315 549.171574 C 478.873538 555.864628 475.611785 562.229591 469.933921 565.707354 C 464.256056 569.185118 457.06812 569.185118 451.390256 565.707354 C 445.651988 562.229591 442.390236 555.864628 442.873458 549.171574 C 443.598292 539.919412 451.329853 532.701413 460.631887 532.701413 C 469.933921 532.701413 477.725884 539.919412 478.390315 549.171574 Z M 478.390315 549.171574 " transform="matrix(0.06467,0,0,0.05953,183,123.800003)"/>
<path style="fill-rule:evenodd;fill:rgb(100%,100%,100%);fill-opacity:1;stroke-width:1.25;stroke-linecap:butt;stroke-linejoin:miter;stroke:rgb(0%,0%,0%);stroke-opacity:1;stroke-miterlimit:4;" d="M 478.414382 549.211048 C 478.897604 555.838483 475.635852 562.269065 469.957987 565.746828 C 464.21972 569.224591 457.092187 569.224591 451.35392 565.746828 C 445.676055 562.269065 442.414303 555.838483 442.897525 549.211048 C 443.622359 539.893267 451.35392 532.740886 460.655953 532.740886 C 469.957987 532.740886 477.689548 539.893267 478.414382 549.211048 Z M 478.414382 549.211048 " transform="matrix(0.06467,0,0,0.05953,182.600006,121.199997)"/>
<path style="fill-rule:evenodd;fill:rgb(100%,100%,100%);fill-opacity:1;stroke-width:1.25;stroke-linecap:butt;stroke-linejoin:miter;stroke:rgb(0%,0%,0%);stroke-opacity:1;stroke-miterlimit:4;" d="M 478.378282 549.197847 C 478.921907 555.890901 475.660155 562.255864 469.921887 565.733627 C 464.244022 569.211391 457.056087 569.211391 451.378222 565.733627 C 445.639955 562.255864 442.378202 555.890901 442.921828 549.197847 C 443.586259 539.880067 451.317819 532.727686 460.619853 532.727686 C 469.98229 532.727686 477.713851 539.880067 478.378282 549.197847 Z M 478.378282 549.197847 " transform="matrix(0.06467,0,0,0.05953,182.699997,118.400002)"/>
<path style="fill-rule:evenodd;fill:rgb(100%,100%,100%);fill-opacity:1;stroke-width:1.25;stroke-linecap:butt;stroke-linejoin:miter;stroke:rgb(0%,0%,0%);stroke-opacity:1;stroke-miterlimit:4;" d="M 478.426651 549.211048 C 478.909874 555.838483 475.648122 562.269065 469.909854 565.746828 C 464.231989 569.224591 457.044054 569.224591 451.366189 565.746828 C 445.688324 562.269065 442.426572 555.838483 442.909794 549.211048 C 443.574225 539.893267 451.366189 532.740886 460.668223 532.740886 C 469.970257 532.740886 477.701817 539.893267 478.426651 549.211048 Z M 478.426651 549.211048 " transform="matrix(0.06467,0,0,0.05953,183.649994,115.699997)"/>
<path style="fill-rule:evenodd;fill:rgb(100%,100%,100%);fill-opacity:1;stroke-width:1.25;stroke-linecap:butt;stroke-linejoin:miter;stroke:rgb(0%,0%,0%);stroke-opacity:1;stroke-miterlimit:4;" d="M 478.378282 549.171574 C 478.921907 555.864628 475.660155 562.229591 469.921887 565.707354 C 464.244022 569.185118 457.056087 569.185118 451.378222 565.707354 C 445.639955 562.229591 442.378202 555.864628 442.921828 549.171574 C 443.586259 539.919412 451.317819 532.701413 460.619853 532.701413 C 469.98229 532.701413 477.713851 539.919412 478.378282 549.171574 Z M 478.378282 549.171574 " transform="matrix(0.06467,0,0,0.05953,185.699997,113.550003)"/>
<path style="fill-rule:evenodd;fill:rgb(100%,100%,100%);fill-opacity:1;stroke-width:1.25;stroke-linecap:butt;stroke-linejoin:miter;stroke:rgb(0%,0%,0%);stroke-opacity:1;stroke-miterlimit:4;" d="M 478.414382 549.197847 C 478.897604 555.890901 475.635852 562.255864 469.957987 565.733627 C 464.21972 569.211391 457.092187 569.211391 451.35392 565.733627 C 445.676055 562.255864 442.414303 555.890901 442.897525 549.197847 C 443.622359 539.880067 451.35392 532.727686 460.655953 532.727686 C 469.957987 532.727686 477.689548 539.880067 478.414382 549.197847 Z M 478.414382 549.197847 " transform="matrix(0.06467,0,0,0.05953,188.600006,112.150002)"/>
<path style="fill-rule:evenodd;fill:rgb(100%,100%,100%);fill-opacity:1;stroke-width:1.25;stroke-linecap:butt;stroke-linejoin:miter;stroke:rgb(0%,0%,0%);stroke-opacity:1;stroke-miterlimit:4;" d="M 478.378282 549.211048 C 478.921907 555.838483 475.660155 562.269065 469.921887 565.746828 C 464.244022 569.224591 457.056087 569.224591 451.378222 565.746828 C 445.639955 562.269065 442.378202 555.838483 442.921828 549.211048 C 443.586259 539.893267 451.317819 532.740886 460.619853 532.740886 C 469.98229 532.740886 477.713851 539.893267 478.378282 549.211048 Z M 478.378282 549.211048 " transform="matrix(0.06467,0,0,0.05953,191.449997,111.949997)"/>
<path style="fill-rule:evenodd;fill:rgb(100%,100%,100%);fill-opacity:1;stroke-width:1.25;stroke-linecap:butt;stroke-linejoin:miter;stroke:rgb(0%,0%,0%);stroke-opacity:1;stroke-miterlimit:4;" d="M 478.390315 549.22412 C 478.873538 555.851556 475.611785 562.216519 469.933921 565.694282 C 464.256056 569.172045 457.06812 569.172045 451.390256 565.694282 C 445.651988 562.216519 442.390236 555.851556 442.873458 549.22412 C 443.598292 539.906339 451.329853 532.753958 460.631887 532.753958 C 469.933921 532.753958 477.725884 539.906339 478.390315 549.22412 Z M 478.390315 549.22412 " transform="matrix(0.06467,0,0,0.05953,194.5,112)"/>
<path style="fill-rule:evenodd;fill:rgb(100%,100%,100%);fill-opacity:1;stroke-width:1.25;stroke-linecap:butt;stroke-linejoin:miter;stroke:rgb(0%,0%,0%);stroke-opacity:1;stroke-miterlimit:4;" d="M 478.414382 549.22412 C 478.897604 555.851556 475.635852 562.216519 469.957987 565.694282 C 464.21972 569.172045 457.092187 569.172045 451.35392 565.694282 C 445.676055 562.216519 442.414303 555.851556 442.897525 549.22412 C 443.622359 539.906339 451.35392 532.753958 460.655953 532.753958 C 469.957987 532.753958 477.689548 539.906339 478.414382 549.22412 Z M 478.414382 549.22412 " transform="matrix(0.06467,0,0,0.05953,197.600006,112.5)"/>
<path style="fill-rule:evenodd;fill:rgb(100%,100%,100%);fill-opacity:1;stroke-width:1.25;stroke-linecap:butt;stroke-linejoin:miter;stroke:rgb(0%,0%,0%);stroke-opacity:1;stroke-miterlimit:4;" d="M 478.378282 549.184775 C 478.921907 555.877829 475.660155 562.242792 469.921887 565.720555 C 464.244022 569.198318 457.056087 569.198318 451.378222 565.720555 C 445.639955 562.242792 442.378202 555.877829 442.921828 549.184775 C 443.586259 539.932612 451.317819 532.714613 460.619853 532.714613 C 469.98229 532.714613 477.713851 539.932612 478.378282 549.184775 Z M 478.378282 549.184775 " transform="matrix(0.06467,0,0,0.05953,200.699997,112.849998)"/>
<path style="fill-rule:evenodd;fill:rgb(100%,100%,100%);fill-opacity:1;stroke-width:1.25;stroke-linecap:butt;stroke-linejoin:miter;stroke:rgb(0%,0%,0%);stroke-opacity:1;stroke-miterlimit:4;" d="M 478.378282 549.171574 C 478.921907 555.864628 475.660155 562.229591 469.921887 565.707354 C 464.244022 569.185118 457.056087 569.185118 451.378222 565.707354 C 445.639955 562.229591 442.378202 555.864628 442.921828 549.171574 C 443.586259 539.919412 451.317819 532.701413 460.619853 532.701413 C 469.98229 532.701413 477.713851 539.919412 478.378282 549.171574 Z M 478.378282 549.171574 " transform="matrix(0.06467,0,0,0.05953,203.949997,113.300003)"/>
<path style="fill-rule:evenodd;fill:rgb(100%,100%,100%);fill-opacity:1;stroke-width:1.25;stroke-linecap:butt;stroke-linejoin:miter;stroke:rgb(0%,0%,0%);stroke-opacity:1;stroke-miterlimit:4;" d="M 478.402348 549.171574 C 478.885571 555.864628 475.623819 562.229591 469.945954 565.707354 C 464.207686 569.185118 457.080154 569.185118 451.341886 565.707354 C 445.664021 562.229591 442.402269 555.864628 442.885492 549.171574 C 443.610326 539.919412 451.341886 532.701413 460.64392 532.701413 C 469.945954 532.701413 477.677515 539.919412 478.402348 549.171574 Z M 478.402348 549.171574 " transform="matrix(0.06467,0,0,0.05953,206.800003,114.050003)"/>
<path style="fill-rule:evenodd;fill:rgb(100%,100%,100%);fill-opacity:1;stroke-width:1.25;stroke-linecap:butt;stroke-linejoin:miter;stroke:rgb(0%,0%,0%);stroke-opacity:1;stroke-miterlimit:4;" d="M 478.426651 549.184647 C 478.909874 555.877701 475.648122 562.242664 469.909854 565.720427 C 464.231989 569.19819 457.044054 569.19819 451.366189 565.720427 C 445.688324 562.242664 442.426572 555.877701 442.909794 549.184647 C 443.574225 539.932484 451.366189 532.714485 460.668223 532.714485 C 469.970257 532.714485 477.701817 539.932484 478.426651 549.184647 Z M 478.426651 549.184647 " transform="matrix(0.06467,0,0,0.05953,186.399994,130.850006)"/>
<path style="fill-rule:evenodd;fill:rgb(100%,94.509804%,0%);fill-opacity:1;stroke-width:1.25;stroke-linecap:butt;stroke-linejoin:miter;stroke:rgb(0%,0%,0%);stroke-opacity:1;stroke-miterlimit:4;" d="M 531.484392 584.605389 C 531.484392 584.605389 463.470819 532.570176 461.719137 407.501936 C 460.69229 335.518798 496.088341 283.483586 584.699274 283.483586 C 708.706258 283.483586 885.807319 336.568689 885.807319 336.568689 L 885.807319 354.285596 C 885.807319 354.285596 744.102309 301.200493 584.578468 301.200493 C 513.786366 301.200493 478.329912 353.170087 478.329912 406.386427 C 478.329912 494.970962 549.303223 584.671007 549.303223 584.671007 L 549.303223 726.406264 L 531.484392 726.406264 Z M 531.484392 584.605389 " transform="matrix(0.06467,0,0,0.05953,183.75,128.800003)"/>
<path style="fill-rule:evenodd;fill:rgb(100%,94.509804%,0%);fill-opacity:1;stroke-width:3;stroke-linecap:butt;stroke-linejoin:miter;stroke:rgb(0%,0%,0%);stroke-opacity:1;stroke-miterlimit:4;" d="M 1240.177407 531.477495 C 1240.177407 531.477495 1255.581315 496.169679 1311.035384 496.169679 C 1348.910875 496.169679 1381.89336 531.477495 1381.89336 566.957544 L 1381.89336 637.74541 L 1417.41296 637.74541 L 1417.41296 566.957544 C 1417.41296 531.477495 1452.751337 496.169679 1488.270936 496.169679 C 1541.369113 496.169679 1559.128913 531.477495 1559.128913 531.477495 C 1559.128913 531.477495 1559.128913 425.20958 1488.270936 425.20958 C 1435.17276 425.20958 1417.41296 460.517396 1417.41296 460.517396 C 1417.41296 460.517396 1435.17276 407.469555 1435.17276 354.249481 C 1435.17276 301.029407 1399.65316 265.721591 1399.65316 265.721591 C 1399.65316 272.438688 1364.133561 301.201641 1364.133561 354.249481 C 1364.133561 407.469555 1381.89336 460.517396 1381.89336 460.517396 C 1381.89336 460.517396 1364.133561 425.20958 1311.035384 425.20958 C 1240.177407 425.20958 1240.177407 531.477495 1240.177407 531.477495 Z M 1240.177407 531.477495 " transform="matrix(0.021555,0,0,0.02268,199.350006,155.449997)"/>
<path style="fill-rule:evenodd;fill:rgb(100%,94.509804%,0%);fill-opacity:1;stroke-width:3;stroke-linecap:butt;stroke-linejoin:miter;stroke:rgb(0%,0%,0%);stroke-opacity:1;stroke-miterlimit:4;" d="M 1240.286424 531.477495 C 1240.286424 531.477495 1255.509109 496.169679 1311.1444 496.169679 C 1348.838669 496.169679 1381.821154 531.477495 1381.821154 566.957544 L 1381.821154 637.74541 L 1417.340754 637.74541 L 1417.340754 566.957544 C 1417.340754 531.477495 1452.860353 496.169679 1488.198731 496.169679 C 1541.47813 496.169679 1559.056707 531.477495 1559.056707 531.477495 C 1559.056707 531.477495 1559.056707 425.20958 1488.198731 425.20958 C 1435.100554 425.20958 1417.340754 460.517396 1417.340754 460.517396 C 1417.340754 460.517396 1435.100554 407.469555 1435.100554 354.249481 C 1435.100554 301.029407 1399.762177 265.721591 1399.762177 265.721591 C 1399.762177 272.438688 1364.242577 301.201641 1364.242577 354.249481 C 1364.242577 407.469555 1381.821154 460.517396 1381.821154 460.517396 C 1381.821154 460.517396 1364.242577 425.20958 1311.1444 425.20958 C 1240.286424 425.20958 1240.286424 531.477495 1240.286424 531.477495 Z M 1240.286424 531.477495 " transform="matrix(0.021555,0,0,0.02268,222.25,155.449997)"/>
<path style="fill-rule:evenodd;fill:rgb(100%,94.509804%,0%);fill-opacity:1;stroke-width:1.25;stroke-linecap:butt;stroke-linejoin:miter;stroke:rgb(0%,0%,0%);stroke-opacity:1;stroke-miterlimit:4;" d="M 531.484392 832.707706 L 531.484392 673.189924 C 531.484392 673.189924 566.880443 726.406264 620.095325 726.406264 C 663.585354 726.406264 708.706258 655.473017 708.706258 655.473017 C 708.706258 655.473017 750.202994 708.689357 797.317192 708.689357 C 839.29715 708.689357 885.807319 640.118364 885.807319 640.118364 C 885.807319 640.118364 928.995334 708.689357 974.418253 708.689357 C 1019.901574 708.689357 1063.029186 655.473017 1063.029186 655.473017 C 1063.029186 655.473017 1109.297744 726.406264 1169.277742 726.406264 C 1222.371819 726.406264 1240.19065 673.189924 1240.19065 673.189924 L 1240.19065 832.707706 Z M 531.484392 832.707706 " transform="matrix(0.06467,0,0,0.05953,183.75,128.800003)"/>
<path style="fill-rule:evenodd;fill:rgb(100%,94.509804%,0%);fill-opacity:1;stroke-width:1.25;stroke-linecap:butt;stroke-linejoin:miter;stroke:rgb(0%,0%,0%);stroke-opacity:1;stroke-miterlimit:4;" d="M 708.706258 832.707706 L 708.706258 708.689357 C 708.706258 708.689357 815.015217 743.991934 815.015217 832.707706 Z M 708.706258 832.707706 " transform="matrix(0.06467,0,0,0.05953,172.25,128.800003)"/>
<path style="fill-rule:evenodd;fill:rgb(100%,94.509804%,0%);fill-opacity:1;stroke-width:1.25;stroke-linecap:butt;stroke-linejoin:miter;stroke:rgb(0%,0%,0%);stroke-opacity:1;stroke-miterlimit:4;" d="M 708.718528 832.707706 L 708.718528 708.689357 C 708.718528 708.689357 815.027487 743.991934 815.027487 832.707706 Z M 708.718528 832.707706 " transform="matrix(-0.06467,0,0,0.05953,309.700012,128.800003)"/>
<path style="fill-rule:evenodd;fill:rgb(100%,94.509804%,0%);fill-opacity:1;stroke-width:1.25;stroke-linecap:butt;stroke-linejoin:miter;stroke:rgb(0%,0%,0%);stroke-opacity:1;stroke-miterlimit:4;" d="M 602.397299 832.707706 C 602.397299 743.991934 708.706258 688.019632 708.706258 688.019632 C 708.706258 688.019632 815.015217 743.991934 815.015217 832.707706 Z M 602.397299 832.707706 " transform="matrix(0.06467,0,0,0.05953,183.75,128.800003)"/>
<path style="fill-rule:evenodd;fill:rgb(100%,94.509804%,0%);fill-opacity:1;stroke-width:1.25;stroke-linecap:butt;stroke-linejoin:miter;stroke:rgb(0%,0%,0%);stroke-opacity:1;stroke-miterlimit:4;" d="M 602.373233 832.707706 C 602.373233 743.991934 708.682192 688.019632 708.682192 688.019632 C 708.682192 688.019632 814.991151 743.991934 814.991151 832.707706 Z M 602.373233 832.707706 " transform="matrix(0.06467,0,0,0.05953,206.649994,128.800003)"/>
<path style="fill-rule:evenodd;fill:rgb(100%,94.509804%,0%);fill-opacity:1;stroke-width:1.25;stroke-linecap:butt;stroke-linejoin:miter;stroke:rgb(0%,0%,0%);stroke-opacity:1;stroke-miterlimit:4;" d="M 584.626838 847.511269 C 584.626838 758.926733 708.694225 688.124723 708.694225 688.124723 C 708.694225 688.124723 832.701209 758.926733 832.701209 847.511269 Z M 584.626838 847.511269 " transform="matrix(0.06467,0,0,0.05953,195.199997,127.949997)"/>
<path style="fill-rule:evenodd;fill:rgb(100%,100%,100%);fill-opacity:1;stroke-width:1.25;stroke-linecap:butt;stroke-linejoin:miter;stroke:rgb(0%,0%,0%);stroke-opacity:1;stroke-miterlimit:4;" d="M 1275.609877 655.486089 C 1240.176269 637.769182 1109.621752 620.117893 899.280526 620.117893 C 689.000392 620.117893 549.282012 637.769182 513.787311 655.486089 C 478.414796 673.202997 478.414796 708.702429 513.787311 726.419336 C 549.220919 744.070625 689.122577 761.787532 899.280526 761.787532 C 1109.499568 761.787532 1240.176269 744.070625 1275.609877 726.419336 C 1310.982392 708.702429 1310.982392 673.202997 1275.609877 655.486089 Z M 1275.609877 655.486089 " transform="matrix(0.06394,0,0,0.05953,183.5,139.350006)"/>
<path style=" stroke:none;fill-rule:evenodd;fill:rgb(50.196081%,50.196081%,50.196081%);fill-opacity:1;" d="M 263.949219 182.601562 C 263.949219 184.699219 244.851562 184.699219 241 184.699219 C 236.851562 184.699219 218.101562 185.300781 218.101562 182.601562 C 218.101562 180.5 237 180.5 241 180.5 C 245 180.5 263.949219 180.898438 263.949219 182.601562 "/>
<path style=" stroke:none;fill-rule:evenodd;fill:rgb(80.000001%,0%,0%);fill-opacity:1;" d="M 220.398438 175 C 220.398438 175.699219 219.898438 176.300781 219.25 176.300781 C 218.601562 176.300781 218.101562 175.699219 218.101562 175 C 218.101562 174.300781 218.601562 173.75 219.25 173.75 C 219.898438 173.75 220.398438 174.351562 220.398438 175 M 263.898438 175 C 263.898438 175.699219 263.398438 176.300781 262.75 176.300781 C 262.101562 176.300781 261.601562 175.699219 261.601562 175 C 261.601562 174.300781 262.101562 173.75 262.75 173.75 C 263.398438 173.75 263.898438 174.351562 263.898438 175 "/>
<path style=" stroke:none;fill-rule:evenodd;fill:rgb(0%,0%,0%);fill-opacity:1;" d="M 243.300781 174.398438 C 243.300781 175.050781 242.25 175.601562 241 175.601562 C 239.75 175.601562 238.699219 175.050781 238.699219 174.351562 C 238.699219 173.648438 239.699219 173.101562 241 173.101562 C 242.300781 173.101562 243.300781 173.699219 243.300781 174.351562 Z M 243.300781 174.398438 "/>
<path style=" stroke:none;fill-rule:evenodd;fill:rgb(0%,38.82353%,0%);fill-opacity:1;" d="M 254.300781 174.398438 C 254.300781 175.050781 253.5 175.601562 252.550781 175.601562 C 251.601562 175.601562 250.851562 175.050781 250.851562 174.351562 C 250.851562 173.648438 251.648438 173.101562 252.550781 173.101562 C 253.449219 173.101562 254.300781 173.699219 254.300781 174.351562 Z M 230.699219 174.398438 C 230.699219 175.050781 229.949219 175.601562 229 175.601562 C 228.050781 175.601562 227.25 175.050781 227.25 174.351562 C 227.25 173.648438 228 173.101562 229 173.101562 C 229.949219 173.101562 230.699219 173.699219 230.699219 174.351562 Z M 230.699219 174.398438 "/>
<path style="fill-rule:evenodd;fill:rgb(100%,94.509804%,0%);fill-opacity:1;stroke-width:2.2;stroke-linecap:butt;stroke-linejoin:miter;stroke:rgb(0%,0%,0%);stroke-opacity:1;stroke-miterlimit:4;" d="M 1257.907741 496.031758 C 1257.907741 496.031758 1293.322998 442.983917 1328.843973 442.983917 L 1364.153513 442.983917 L 1364.153513 478.349144 C 1364.153513 531.511807 1311.083485 549.309243 1311.083485 549.309243 L 1452.850232 549.309243 C 1452.850232 549.309243 1399.56877 531.511807 1399.56877 478.349144 L 1399.56877 442.983917 L 1435.089745 442.983917 C 1470.505003 442.983917 1505.92026 496.14658 1505.92026 496.14658 L 1505.92026 354.341205 C 1505.92026 354.341205 1470.505003 407.503868 1435.089745 407.503868 L 1399.56877 407.503868 L 1399.56877 372.023818 C 1399.56877 318.861155 1452.850232 301.178542 1452.850232 301.178542 L 1310.977768 301.178542 C 1310.977768 301.178542 1364.047796 318.861155 1364.047796 372.023818 L 1364.047796 407.503868 L 1328.738256 407.503868 C 1293.217281 407.503868 1257.802023 354.341205 1257.802023 354.341205 L 1257.802023 496.14658 Z M 1257.907741 496.031758 " transform="matrix(0.03695,0,0,0.03402,189.949997,150.25)"/>
<path style="fill-rule:evenodd;fill:rgb(100%,94.509804%,0%);fill-opacity:1;stroke-width:3.3;stroke-linecap:butt;stroke-linejoin:miter;stroke:rgb(0%,0%,0%);stroke-opacity:1;stroke-miterlimit:4;" d="M 1381.983965 549.171831 L 1452.795318 549.171831 C 1452.795318 549.171831 1399.52827 531.454924 1399.52827 478.304202 L 1399.52827 443.001624 L 1435.039635 443.001624 C 1470.551001 443.001624 1506.062366 496.152346 1506.062366 496.152346 L 1506.062366 354.285853 C 1506.062366 354.285853 1470.551001 407.436574 1435.039635 407.436574 L 1399.52827 407.436574 L 1399.52827 372.00276 C 1399.52827 318.852038 1452.795318 301.135131 1452.795318 301.135131 L 1381.983965 301.135131 Z M 1381.983965 549.171831 " transform="matrix(0.01848,0,0,0.029765,192.5,154.649994)"/>
<path style="fill-rule:evenodd;fill:rgb(100%,94.509804%,0%);fill-opacity:1;stroke-width:3.3;stroke-linecap:butt;stroke-linejoin:miter;stroke:rgb(0%,0%,0%);stroke-opacity:1;stroke-miterlimit:4;" d="M 1381.983965 549.171831 L 1452.795318 549.171831 C 1452.795318 549.171831 1399.52827 531.454924 1399.52827 478.304202 L 1399.52827 443.001624 L 1435.039635 443.001624 C 1470.551001 443.001624 1506.062366 496.152346 1506.062366 496.152346 L 1506.062366 354.285853 C 1506.062366 354.285853 1470.551001 407.436574 1435.039635 407.436574 L 1399.52827 407.436574 L 1399.52827 372.00276 C 1399.52827 318.852038 1452.795318 301.135131 1452.795318 301.135131 L 1381.983965 301.135131 Z M 1381.983965 549.171831 " transform="matrix(-0.01848,0,0,0.029765,289.5,154.649994)"/>
<path style="fill-rule:evenodd;fill:rgb(100%,100%,100%);fill-opacity:1;stroke-width:1.25;stroke-linecap:butt;stroke-linejoin:miter;stroke:rgb(0%,0%,0%);stroke-opacity:1;stroke-miterlimit:4;" d="M 903.505345 602.387914 C 903.505345 612.165022 895.592576 620.104821 885.807319 620.104821 C 876.022063 620.104821 868.109294 612.165022 868.109294 602.387914 C 868.109294 592.610806 876.022063 584.671007 885.807319 584.671007 C 895.592576 584.671007 903.505345 592.610806 903.505345 602.387914 Z M 903.505345 602.387914 " transform="matrix(0.06467,0,0,0.05953,183.75,128.800003)"/>
<path style="fill-rule:evenodd;fill:rgb(100%,94.509804%,0%);fill-opacity:1;stroke-width:2.2;stroke-linecap:butt;stroke-linejoin:miter;stroke:rgb(0%,0%,0%);stroke-opacity:1;stroke-miterlimit:4;" d="M 1257.907741 495.962685 C 1257.907741 495.962685 1293.322998 443.029666 1328.843973 443.029666 L 1364.153513 443.029666 L 1364.153513 478.280071 C 1364.153513 531.442734 1311.083485 549.354992 1311.083485 549.354992 L 1452.850232 549.354992 C 1452.850232 549.354992 1399.56877 531.442734 1399.56877 478.280071 L 1399.56877 443.029666 L 1435.089745 443.029666 C 1470.505003 443.029666 1505.92026 496.192329 1505.92026 496.192329 L 1505.92026 354.272132 C 1505.92026 354.272132 1470.505003 407.549617 1435.089745 407.549617 L 1399.56877 407.549617 L 1399.56877 371.954745 C 1399.56877 318.906905 1452.850232 301.224291 1452.850232 301.224291 L 1310.977768 301.224291 C 1310.977768 301.224291 1364.047796 318.906905 1364.047796 371.954745 L 1364.047796 407.549617 L 1328.738256 407.549617 C 1293.217281 407.549617 1257.802023 354.272132 1257.802023 354.272132 L 1257.802023 496.077507 Z M 1257.907741 495.962685 " transform="matrix(0.03695,0,0,0.03402,189.949997,128.100006)"/>
<path style="fill-rule:evenodd;fill:rgb(100%,100%,100%);fill-opacity:1;stroke-width:1.25;stroke-linecap:butt;stroke-linejoin:miter;stroke:rgb(0%,0%,0%);stroke-opacity:1;stroke-miterlimit:4;" d="M 903.529412 602.401114 C 903.529412 612.178222 895.55624 620.118022 885.770983 620.118022 C 876.04613 620.118022 868.072958 612.178222 868.072958 602.401114 C 868.072958 592.624006 876.04613 584.684207 885.770983 584.684207 C 895.55624 584.684207 903.529412 592.624006 903.529412 602.401114 Z M 903.529412 602.401114 " transform="matrix(0.06467,0,0,0.05953,183.850006,106.849998)"/>
<path style="fill-rule:evenodd;fill:rgb(100%,94.509804%,0%);fill-opacity:1;stroke-width:1.25;stroke-linecap:butt;stroke-linejoin:miter;stroke:rgb(0%,0%,0%);stroke-opacity:1;stroke-miterlimit:4;" d="M 850.411268 655.525563 L 921.324176 655.525563 L 921.324176 708.676284 L 850.290463 708.676284 Z M 850.411268 655.525563 " transform="matrix(0.06467,0,0,0.05953,183.75,107.75)"/>
<path style="fill-rule:evenodd;fill:rgb(100%,94.509804%,0%);fill-opacity:1;stroke-width:1.25;stroke-linecap:butt;stroke-linejoin:miter;stroke:rgb(0%,0%,0%);stroke-opacity:1;stroke-miterlimit:4;" d="M 850.411268 683.282051 L 921.324176 683.282051 L 921.324176 885.779737 L 850.290463 885.779737 Z M 850.411268 683.282051 " transform="matrix(0.06467,0,0,0.05953,183.75,107.75)"/>
<path style="fill-rule:evenodd;fill:rgb(100%,100%,100%);fill-opacity:1;stroke-width:1.25;stroke-linecap:butt;stroke-linejoin:miter;stroke:rgb(0%,0%,0%);stroke-opacity:1;stroke-miterlimit:4;" d="M 478.378282 549.184775 C 478.921907 555.877829 475.660155 562.242792 469.921887 565.720555 C 464.244022 569.198318 457.056087 569.198318 451.378222 565.720555 C 445.639955 562.242792 442.378202 555.877829 442.921828 549.184775 C 443.586259 539.932612 451.317819 532.714613 460.619853 532.714613 C 469.98229 532.714613 477.713851 539.932612 478.378282 549.184775 Z M 478.378282 549.184775 " transform="matrix(0.06467,0,0,0.05953,211.199997,125.599998)"/>
<path style="fill-rule:evenodd;fill:rgb(100%,100%,100%);fill-opacity:1;stroke-width:1.25;stroke-linecap:butt;stroke-linejoin:miter;stroke:rgb(0%,0%,0%);stroke-opacity:1;stroke-miterlimit:4;" d="M 478.378282 549.197847 C 478.921907 555.890901 475.660155 562.255864 469.921887 565.733627 C 464.244022 569.211391 457.056087 569.211391 451.378222 565.733627 C 445.639955 562.255864 442.378202 555.890901 442.921828 549.197847 C 443.586259 539.880067 451.317819 532.727686 460.619853 532.727686 C 469.98229 532.727686 477.713851 539.880067 478.378282 549.197847 Z M 478.378282 549.197847 " transform="matrix(0.06467,0,0,0.05953,211.199997,122.900002)"/>
<path style="fill-rule:evenodd;fill:rgb(100%,100%,100%);fill-opacity:1;stroke-width:1.25;stroke-linecap:butt;stroke-linejoin:miter;stroke:rgb(0%,0%,0%);stroke-opacity:1;stroke-miterlimit:4;" d="M 478.378282 549.197847 C 478.921907 555.890901 475.660155 562.255864 469.921887 565.733627 C 464.244022 569.211391 457.056087 569.211391 451.378222 565.733627 C 445.639955 562.255864 442.378202 555.890901 442.921828 549.197847 C 443.586259 539.880067 451.317819 532.727686 460.619853 532.727686 C 469.98229 532.727686 477.713851 539.880067 478.378282 549.197847 Z M 478.378282 549.197847 " transform="matrix(0.06467,0,0,0.05953,211.199997,120.400002)"/>
<path style="fill-rule:evenodd;fill:rgb(100%,100%,100%);fill-opacity:1;stroke-width:1.25;stroke-linecap:butt;stroke-linejoin:miter;stroke:rgb(0%,0%,0%);stroke-opacity:1;stroke-miterlimit:4;" d="M 478.378282 549.22412 C 478.921907 555.851556 475.660155 562.216519 469.921887 565.694282 C 464.244022 569.172045 457.056087 569.172045 451.378222 565.694282 C 445.639955 562.216519 442.378202 555.851556 442.921828 549.22412 C 443.586259 539.906339 451.317819 532.753958 460.619853 532.753958 C 469.98229 532.753958 477.713851 539.906339 478.378282 549.22412 Z M 478.378282 549.22412 " transform="matrix(0.06467,0,0,0.05953,211.199997,117.75)"/>
<path style=" stroke:none;fill-rule:evenodd;fill:rgb(0%,0%,0%);fill-opacity:1;" d="M 243.449219 178.398438 C 243.449219 178.898438 242.398438 179.25 241.050781 179.25 C 239.699219 179.25 238.800781 178.898438 238.800781 178.398438 C 238.800781 177.898438 239.800781 177.550781 241.101562 177.550781 C 242.398438 177.550781 243.449219 177.949219 243.449219 178.398438 M 264.5 180.5 C 264.351562 180.851562 263.199219 180.898438 261.949219 180.5 C 260.648438 180.25 259.75 179.800781 259.851562 179.5 C 260 179.101562 261.148438 179.101562 262.398438 179.398438 C 263.699219 179.699219 264.601562 180.148438 264.5 180.5 M 255.648438 179.101562 C 255.648438 179.5 254.5 179.75 253.148438 179.699219 C 251.898438 179.601562 250.851562 179.199219 250.898438 178.699219 C 250.949219 178.300781 252.101562 178.101562 253.398438 178.199219 C 254.699219 178.300781 255.75 178.648438 255.648438 179.101562 M 216.898438 180.5 C 217 180.851562 218.148438 180.898438 219.398438 180.5 C 220.699219 180.25 221.648438 179.800781 221.5 179.5 C 221.351562 179.101562 220.25 179.101562 219 179.398438 C 217.699219 179.699219 216.800781 180.148438 216.898438 180.5 M 226.148438 178.898438 C 226.199219 179.300781 227.351562 179.550781 228.648438 179.449219 C 229.949219 179.351562 231 178.949219 230.898438 178.5 C 230.898438 178.148438 229.75 177.851562 228.398438 177.949219 C 227.148438 178.050781 226.101562 178.449219 226.148438 178.898438 "/>
<path style=" stroke:none;fill-rule:nonzero;fill:rgb(0.392157%,12.941177%,41.176471%);fill-opacity:1;" d="M 0 0 L 160 0 L 160 120 L 0 120 Z M 0 0 "/>
<path style=" stroke:none;fill-rule:nonzero;fill:rgb(100%,100%,100%);fill-opacity:1;" d="M 18.75 0 L 79.75 45.25 L 140.5 0 L 160 0 L 160 15.5 L 100 60.25 L 160 104.75 L 160 120 L 140 120 L 80 75.25 L 20.25 120 L 0 120 L 0 105 L 59.75 60.5 L 0 16 L 0 0 Z M 18.75 0 "/>
<path style=" stroke:none;fill-rule:nonzero;fill:rgb(78.431374%,6.27451%,18.039216%);fill-opacity:1;" d="M 106 70.25 L 160 110 L 160 120 L 92.25 70.25 Z M 60 75.25 L 61.5 84 L 13.5 120 L 0 120 Z M 160 0 L 160 0.75 L 97.75 47.75 L 98.25 36.75 L 147.5 0 Z M 0 0 L 59.75 44 L 44.75 44 L 0 10.5 Z M 0 0 "/>
<path style=" stroke:none;fill-rule:nonzero;fill:rgb(100%,100%,100%);fill-opacity:1;" d="M 60.25 0 L 60.25 120 L 100.25 120 L 100.25 0 Z M 0 40 L 0 80 L 160 80 L 160 40 Z M 0 40 "/>
<path style=" stroke:none;fill-rule:nonzero;fill:rgb(78.431374%,6.27451%,18.039216%);fill-opacity:1;" d="M 0 48.25 L 0 72.25 L 160 72.25 L 160 48.25 Z M 68.25 0 L 68.25 120 L 92.25 120 L 92.25 0 Z M 68.25 0 "/>
</g>
</svg>
