<?xml version="1.0" encoding="UTF-8"?>
<svg xmlns="http://www.w3.org/2000/svg" xmlns:xlink="http://www.w3.org/1999/xlink" width="px" height="px" viewBox="0 0 320 240" version="1.1">
<g id="surface1">
<path style=" stroke:none;fill-rule:nonzero;fill:rgb(100%,100%,100%);fill-opacity:1;" d="M 0 80 L 320 80 L 320 160 L 0 160 Z M 0 80 "/>
<path style=" stroke:none;fill-rule:nonzero;fill:rgb(80.784315%,6.666667%,14.901961%);fill-opacity:1;" d="M 0 0 L 320 0 L 320 80 L 0 80 Z M 0 0 "/>
<path style=" stroke:none;fill-rule:nonzero;fill:rgb(0%,0%,0.392157%);fill-opacity:1;" d="M 0 160 L 320 160 L 320 240 L 0 240 Z M 0 160 "/>
<path style=" stroke:none;fill-rule:nonzero;fill:rgb(0%,47.843137%,23.921569%);fill-opacity:1;" d="M 195.457031 105.308594 L 194.234375 104.433594 C 193.882812 104.023438 194.234375 103.964844 195.285156 104.257812 C 197.210938 104.839844 198.757812 104.605469 199.925781 103.554688 L 201.066406 102.59375 L 202.378906 103.207031 C 203.253906 103.671875 203.839844 103.878906 204.128906 103.820312 C 204.742188 103.644531 205.96875 102.066406 205.882812 101.542969 C 205.882812 100.929688 206.40625 101.101562 206.757812 101.804688 C 207.285156 103.207031 206.496094 104.871094 205.007812 105.21875 C 204.421875 105.394531 203.664062 105.308594 202.730469 104.957031 C 201.503906 104.519531 201.238281 104.519531 200.625 104.957031 C 199.164062 106.1875 197.074219 106.332031 195.457031 105.308594 M 200.539062 100.664062 C 199.945312 99.59375 199.644531 98.386719 199.664062 97.160156 C 199.722656 96.636719 199.953125 96.460938 200.363281 96.636719 C 201.238281 96.898438 201.414062 97.511719 201.238281 99.265625 C 201.238281 100.839844 201.007812 101.308594 200.539062 100.664062 M 141.328125 99 C 141.238281 100.140625 143.429688 103.03125 144.394531 103.554688 C 143.691406 103.820312 142.902344 103.730469 142.289062 103.992188 C 138.789062 107.496094 126.175781 119.761719 123.898438 122.738281 C 130.730469 122.914062 138.261719 122.652344 144.65625 122.386719 C 144.65625 117.746094 149.035156 117.484375 152.011719 115.820312 C 153.503906 118.183594 157.269531 118.007812 157.792969 121.597656 L 157.792969 137.015625 L 99.546875 137.015625 C 99.101562 139.378906 97.675781 141.445312 95.621094 142.695312 C 93.566406 143.949219 91.078125 144.269531 88.773438 143.585938 C 90.523438 141.832031 93.503906 141.132812 94.554688 138.59375 C 95.429688 132.988281 92.800781 129.570312 91.050781 126.328125 C 93.253906 125.621094 95.324219 124.558594 97.179688 123.175781 C 95.167969 129.308594 102.613281 128.695312 108.042969 128.519531 C 108.21875 126.417969 108.128906 123.964844 106.554688 123.613281 C 108.570312 122.824219 108.917969 122.5625 112.335938 119.761719 L 112.335938 128.167969 L 152.714844 128.082031 C 152.714844 125.453125 153.414062 121.160156 151.3125 121.160156 C 149.386719 121.160156 151.3125 126.59375 149.734375 126.59375 L 118.464844 126.59375 L 118.464844 121.335938 C 119.78125 119.933594 119.605469 120.023438 128.625 111 C 129.503906 110.125 135.898438 104.34375 141.414062 99 Z M 219.371094 98.738281 C 221.5625 99.964844 223.3125 101.542969 225.941406 102.242188 C 225.675781 103.378906 224.625 103.820312 224.363281 104.957031 L 224.363281 128.605469 C 227.34375 129.21875 228.042969 127.46875 229.445312 126.59375 C 229.792969 130.359375 232.246094 134.039062 232.070312 137.101562 L 219.371094 137.101562 Z M 202.378906 111.4375 C 202.378906 111.4375 207.019531 107.496094 207.019531 107.320312 L 207.019531 127.90625 L 210.347656 127.90625 L 210.261719 104.871094 C 211.574219 103.46875 214.289062 101.542969 214.902344 100.140625 L 214.902344 136.929688 L 185.648438 136.929688 C 185.210938 129.308594 185.121094 121.425781 194.058594 123.089844 L 194.058594 120.023438 C 193.792969 119.496094 193.269531 120.109375 193.179688 119.410156 C 194.582031 118.007812 195.019531 117.65625 198.875 114.328125 L 198.960938 127.90625 L 202.378906 127.90625 Z M 191.34375 127.730469 C 191.953125 128.605469 194.144531 128.605469 193.96875 127.03125 C 193.707031 125.714844 190.902344 126.152344 191.34375 127.730469 "/>
<path style=" stroke:none;fill-rule:nonzero;fill:rgb(0%,47.843137%,23.921569%);fill-opacity:1;" d="M 108.304688 141.394531 C 108.304688 140.425781 107.519531 139.644531 106.554688 139.644531 C 105.585938 139.644531 104.800781 140.425781 104.800781 141.394531 C 104.800781 142.363281 105.585938 143.148438 106.554688 143.148438 C 107.519531 143.148438 108.304688 142.363281 108.304688 141.394531 Z M 108.304688 141.394531 "/>
<path style=" stroke:none;fill-rule:nonzero;fill:rgb(0%,47.843137%,23.921569%);fill-opacity:1;" d="M 161.734375 98.824219 C 163.925781 99.964844 165.679688 101.628906 168.394531 102.328125 C 168.042969 103.378906 167.078125 103.820312 166.816406 104.957031 L 166.816406 128.605469 C 169.792969 129.21875 170.40625 127.554688 171.808594 126.59375 C 172.246094 130.359375 174.613281 134.125 174.523438 137.101562 L 161.734375 137.101562 Z M 161.734375 98.824219 "/>
</g>
</svg>
