<?xml version="1.0" encoding="UTF-8"?>
<svg xmlns="http://www.w3.org/2000/svg" xmlns:xlink="http://www.w3.org/1999/xlink" width="px" height="px" viewBox="0 0 320 240" version="1.1">
<defs>
<clipPath id="clip1">
  <path d="M 0.03125 0 L 320 0 L 320 81 L 0.03125 81 Z M 0.03125 0 "/>
</clipPath>
<clipPath id="clip2">
  <path d="M 0.03125 80 L 320 80 L 320 160 L 0.03125 160 Z M 0.03125 80 "/>
</clipPath>
<clipPath id="clip3">
  <path d="M 0.03125 159 L 320 159 L 320 240 L 0.03125 240 Z M 0.03125 159 "/>
</clipPath>
<clipPath id="clip4">
  <path d="M 0.03125 0 L 241 0 L 241 240 L 0.03125 240 Z M 0.03125 0 "/>
</clipPath>
</defs>
<g id="surface1">
<g clip-path="url(#clip1)" clip-rule="nonzero">
<path style=" stroke:none;fill-rule:evenodd;fill:rgb(0%,0%,0.392157%);fill-opacity:1;" d="M 0.03125 0 L 480.03125 0 L 480.03125 80.015625 L 0.03125 80.015625 Z M 0.03125 0 "/>
</g>
<g clip-path="url(#clip2)" clip-rule="nonzero">
<path style=" stroke:none;fill-rule:evenodd;fill:rgb(100%,100%,100%);fill-opacity:1;" d="M 0.03125 80.015625 L 480.03125 80.015625 L 480.03125 159.984375 L 0.03125 159.984375 Z M 0.03125 80.015625 "/>
</g>
<g clip-path="url(#clip3)" clip-rule="nonzero">
<path style=" stroke:none;fill-rule:evenodd;fill:rgb(0%,60.000002%,0%);fill-opacity:1;" d="M 0.03125 159.984375 L 480.03125 159.984375 L 480.03125 240 L 0.03125 240 Z M 0.03125 159.984375 "/>
</g>
<g clip-path="url(#clip4)" clip-rule="nonzero">
<path style=" stroke:none;fill-rule:evenodd;fill:rgb(100%,0%,0%);fill-opacity:1;" d="M 0.03125 240 L 240.03125 120 L 0.03125 0 Z M 0.03125 240 "/>
</g>
<path style=" stroke:none;fill-rule:evenodd;fill:rgb(100%,100%,100%);fill-opacity:1;" d="M 66.734375 135.46875 L 69.40625 123.796875 L 57.453125 123.796875 L 68.234375 118.640625 L 60.78125 109.3125 L 71.5625 114.46875 L 74.1875 102.84375 L 76.859375 114.515625 L 87.59375 109.3125 L 80.09375 118.640625 L 90.875 123.796875 L 78.96875 123.796875 L 81.640625 135.46875 L 74.1875 126.09375 Z M 66.734375 135.46875 "/>
</g>
</svg>
