<?xml version="1.0" encoding="UTF-8"?>
<svg xmlns="http://www.w3.org/2000/svg" xmlns:xlink="http://www.w3.org/1999/xlink" width="px" height="px" viewBox="0 0 320 240" version="1.1">
<g id="surface1">
<rect x="0" y="0" width="320" height="240" style="fill:rgb(100%,0%,0%);fill-opacity:1;stroke:none;"/>
<path style=" stroke:none;fill-rule:evenodd;fill:rgb(100%,100%,0%);fill-opacity:1;" d="M 170.351562 73.300781 L 171.699219 47.300781 C 171.699219 47.167969 171.632812 47.082031 171.5 47.050781 C 171.398438 47.050781 171.316406 47.117188 171.25 47.25 L 164.601562 72.300781 L 164.550781 72.550781 C 164.253906 73.660156 164.628906 74.839844 165.507812 75.574219 C 166.386719 76.3125 167.617188 76.46875 168.65625 75.980469 C 169.691406 75.492188 170.355469 74.449219 170.351562 73.300781 M 177.550781 75.5 L 182.949219 50 C 183.015625 49.898438 182.964844 49.816406 182.800781 49.75 C 182.699219 49.75 182.617188 49.800781 182.550781 49.898438 L 172 73.601562 L 171.898438 73.851562 C 171.519531 74.882812 171.746094 76.046875 172.488281 76.859375 C 173.234375 77.671875 174.367188 78.003906 175.433594 77.71875 C 176.5 77.433594 177.316406 76.578125 177.550781 75.5 M 184.300781 78.800781 L 193.648438 54.5 C 193.648438 54.40625 193.597656 54.320312 193.511719 54.277344 C 193.425781 54.234375 193.324219 54.242188 193.25 54.300781 L 179.101562 76 L 179 76.199219 C 178.398438 77.164062 178.40625 78.386719 179.015625 79.347656 C 179.628906 80.304688 180.734375 80.824219 181.863281 80.6875 C 182.988281 80.550781 183.9375 79.777344 184.300781 78.699219 M 190.449219 83.050781 L 203.449219 60.550781 C 203.480469 60.453125 203.449219 60.347656 203.375 60.285156 C 203.296875 60.21875 203.191406 60.203125 203.101562 60.25 L 185.75 79.550781 L 185.601562 79.75 C 184.867188 80.609375 184.691406 81.8125 185.148438 82.847656 C 185.601562 83.882812 186.605469 84.566406 187.734375 84.609375 C 188.863281 84.652344 189.917969 84.046875 190.449219 83.050781 M 195.851562 88.25 L 212.25 68.050781 L 212.25 67.75 C 212.136719 67.707031 212.011719 67.707031 211.898438 67.75 L 191.75 84.050781 L 191.550781 84.25 C 190.710938 84.996094 190.367188 86.148438 190.660156 87.230469 C 190.957031 88.316406 191.839844 89.136719 192.941406 89.351562 C 194.039062 89.566406 195.167969 89.140625 195.851562 88.25 M 200.351562 94.25 L 219.699219 76.851562 C 219.800781 76.75 219.800781 76.632812 219.699219 76.5 L 219.398438 76.5 L 197 89.5 L 196.800781 89.601562 C 195.871094 90.207031 195.359375 91.285156 195.480469 92.390625 C 195.597656 93.496094 196.328125 94.4375 197.367188 94.832031 C 198.40625 95.222656 199.578125 95 200.398438 94.25 M 203.898438 100.898438 L 225.75 86.699219 C 225.808594 86.625 225.816406 86.523438 225.773438 86.4375 C 225.730469 86.351562 225.644531 86.300781 225.550781 86.300781 L 201.351562 95.601562 L 201.101562 95.75 C 200.046875 96.175781 199.335938 97.164062 199.261719 98.296875 C 199.191406 99.429688 199.773438 100.503906 200.761719 101.058594 C 201.75 101.613281 202.972656 101.550781 203.898438 100.898438 M 206.398438 108 L 230.148438 97.398438 C 230.203125 97.332031 230.21875 97.238281 230.1875 97.15625 C 230.15625 97.074219 230.085938 97.015625 230 97 L 204.648438 102.398438 L 204.398438 102.449219 C 203.285156 102.703125 202.414062 103.574219 202.167969 104.691406 C 201.921875 105.808594 202.34375 106.96875 203.25 107.664062 C 204.15625 108.363281 205.382812 108.472656 206.398438 107.949219 M 207.648438 115.398438 L 232.851562 108.699219 C 232.949219 108.667969 233 108.582031 233 108.449219 C 232.964844 108.316406 232.882812 108.25 232.75 108.25 L 206.851562 109.601562 L 206.601562 109.601562 C 205.523438 109.746094 204.617188 110.46875 204.234375 111.484375 C 203.855469 112.5 204.0625 113.644531 204.773438 114.460938 C 205.488281 115.28125 206.59375 115.640625 207.648438 115.398438 M 207.800781 122.898438 L 233.699219 120.199219 C 233.832031 120.167969 233.898438 120.082031 233.898438 119.949219 C 233.898438 119.851562 233.832031 119.765625 233.699219 119.699219 L 207.898438 117 L 207.648438 117 C 206.019531 117.042969 204.734375 118.394531 204.773438 120.023438 C 204.816406 121.652344 206.171875 122.941406 207.800781 122.898438 M 206.75 130.300781 L 232.75 131.648438 C 232.84375 131.617188 232.90625 131.539062 232.917969 131.441406 C 232.929688 131.34375 232.882812 131.25 232.800781 131.199219 L 207.75 124.550781 L 207.5 124.5 C 206.390625 124.203125 205.210938 124.578125 204.476562 125.457031 C 203.738281 126.339844 203.582031 127.566406 204.070312 128.605469 C 204.554688 129.644531 205.601562 130.304688 206.75 130.300781 M 204.550781 137.5 L 230.050781 142.898438 C 230.148438 142.964844 230.234375 142.917969 230.300781 142.75 C 230.300781 142.648438 230.25 142.566406 230.148438 142.5 L 206.398438 132 L 206.148438 131.898438 C 205.117188 131.519531 203.953125 131.746094 203.140625 132.488281 C 202.328125 133.234375 201.996094 134.367188 202.28125 135.433594 C 202.566406 136.5 203.421875 137.316406 204.5 137.550781 M 201.199219 144.300781 L 225.5 153.648438 C 225.59375 153.648438 225.679688 153.597656 225.722656 153.511719 C 225.765625 153.425781 225.757812 153.324219 225.699219 153.25 L 204 139.101562 L 203.800781 139 C 202.835938 138.398438 201.613281 138.40625 200.652344 139.015625 C 199.695312 139.628906 199.175781 140.734375 199.3125 141.863281 C 199.449219 142.988281 200.222656 143.9375 201.300781 144.300781 M 196.949219 150.449219 L 219.449219 163.449219 C 219.546875 163.480469 219.652344 163.449219 219.714844 163.375 C 219.78125 163.296875 219.796875 163.191406 219.75 163.101562 L 200.449219 145.75 L 200.25 145.601562 C 199.390625 144.867188 198.1875 144.691406 197.152344 145.148438 C 196.117188 145.601562 195.433594 146.605469 195.390625 147.734375 C 195.347656 148.863281 195.953125 149.917969 196.949219 150.449219 M 191.75 155.851562 L 211.949219 172.25 C 212.050781 172.324219 212.1875 172.316406 212.277344 172.226562 C 212.363281 172.140625 212.375 172 212.300781 171.898438 L 195.949219 151.75 L 195.75 151.550781 C 195.003906 150.710938 193.851562 150.367188 192.769531 150.660156 C 191.683594 150.957031 190.863281 151.839844 190.648438 152.941406 C 190.433594 154.039062 190.859375 155.167969 191.75 155.851562 M 185.75 160.351562 L 203.148438 179.699219 C 203.234375 179.808594 203.390625 179.832031 203.5 179.75 C 203.609375 179.667969 203.632812 179.511719 203.550781 179.398438 L 190.5 157 L 190.351562 156.800781 C 189.742188 155.871094 188.664062 155.359375 187.558594 155.480469 C 186.457031 155.597656 185.511719 156.328125 185.121094 157.367188 C 184.726562 158.40625 184.949219 159.578125 185.699219 160.398438 M 179.050781 163.898438 L 193.25 185.75 C 193.316406 185.851562 193.417969 185.882812 193.550781 185.851562 C 193.648438 185.785156 193.683594 185.683594 193.648438 185.550781 L 184.351562 161.351562 L 184.199219 161.101562 C 183.773438 160.046875 182.785156 159.335938 181.652344 159.261719 C 180.519531 159.191406 179.449219 159.773438 178.890625 160.761719 C 178.335938 161.75 178.398438 162.972656 179.050781 163.898438 M 171.949219 166.398438 L 182.550781 190.148438 C 182.582031 190.316406 182.667969 190.367188 182.800781 190.300781 C 182.933594 190.300781 182.984375 190.199219 182.949219 190 L 177.550781 164.648438 L 177.5 164.398438 C 177.25 163.285156 176.375 162.414062 175.257812 162.167969 C 174.140625 161.921875 172.980469 162.34375 172.285156 163.25 C 171.585938 164.15625 171.476562 165.382812 172 166.398438 M 164.550781 167.648438 L 171.25 192.851562 C 171.285156 192.949219 171.367188 193 171.5 193 C 171.632812 192.964844 171.699219 192.882812 171.699219 192.75 L 170.351562 166.851562 L 170.351562 166.601562 C 170.203125 165.523438 169.480469 164.617188 168.464844 164.234375 C 167.449219 163.855469 166.304688 164.0625 165.488281 164.773438 C 164.671875 165.488281 164.308594 166.59375 164.550781 167.648438 M 157.050781 167.800781 L 159.75 193.699219 C 159.75 193.839844 159.863281 193.949219 160 193.949219 C 160.136719 193.949219 160.25 193.839844 160.25 193.699219 L 162.949219 167.898438 C 163.003906 167.078125 162.71875 166.269531 162.164062 165.667969 C 161.605469 165.0625 160.824219 164.710938 160 164.699219 C 159.195312 164.714844 158.429688 165.046875 157.875 165.632812 C 157.320312 166.214844 157.023438 166.996094 157.050781 167.800781 M 149.648438 166.75 L 148.300781 192.75 C 148.332031 192.84375 148.414062 192.90625 148.507812 192.917969 C 148.605469 192.929688 148.699219 192.882812 148.75 192.800781 L 155.398438 167.75 L 155.449219 167.5 C 155.746094 166.390625 155.371094 165.210938 154.492188 164.476562 C 153.613281 163.738281 152.382812 163.582031 151.34375 164.070312 C 150.308594 164.554688 149.644531 165.601562 149.648438 166.75 M 142.449219 164.550781 L 137.050781 190.050781 C 137.078125 190.128906 137.144531 190.183594 137.222656 190.207031 C 137.304688 190.226562 137.386719 190.203125 137.449219 190.148438 L 148 166.449219 L 148.101562 166.199219 C 148.480469 165.164062 148.253906 164.003906 147.511719 163.191406 C 146.765625 162.375 145.632812 162.046875 144.566406 162.332031 C 143.5 162.617188 142.683594 163.472656 142.449219 164.550781 M 135.699219 161.25 L 126.351562 185.5 C 126.316406 185.632812 126.351562 185.734375 126.449219 185.800781 C 126.550781 185.867188 126.648438 185.832031 126.75 185.699219 L 140.898438 163.949219 C 141.308594 163.25 141.417969 162.414062 141.203125 161.632812 C 140.984375 160.851562 140.460938 160.1875 139.75 159.800781 C 138.257812 159.085938 136.46875 159.710938 135.75 161.199219 M 129.550781 156.898438 L 116.550781 179.398438 C 116.519531 179.496094 116.550781 179.601562 116.625 179.667969 C 116.703125 179.730469 116.808594 179.746094 116.898438 179.699219 L 134.25 160.398438 L 134.398438 160.199219 C 135.132812 159.339844 135.308594 158.136719 134.851562 157.101562 C 134.398438 156.070312 133.394531 155.382812 132.265625 155.339844 C 131.136719 155.296875 130.082031 155.902344 129.550781 156.898438 M 124.148438 151.699219 L 107.75 171.898438 L 107.75 172.199219 C 107.882812 172.300781 108 172.300781 108.101562 172.199219 L 128.25 155.898438 L 128.449219 155.699219 C 129.289062 154.957031 129.632812 153.800781 129.339844 152.71875 C 129.042969 151.636719 128.160156 150.8125 127.058594 150.597656 C 125.960938 150.382812 124.832031 150.808594 124.148438 151.699219 M 119.648438 145.699219 L 100.300781 163.101562 C 100.191406 163.183594 100.167969 163.339844 100.25 163.449219 C 100.332031 163.558594 100.488281 163.582031 100.601562 163.5 L 123.050781 150.5 L 123.25 150.351562 C 124.179688 149.742188 124.691406 148.664062 124.570312 147.558594 C 124.453125 146.457031 123.722656 145.511719 122.683594 145.121094 C 121.640625 144.726562 120.46875 144.949219 119.648438 145.699219 M 116.148438 139.050781 L 94.300781 153.25 C 94.242188 153.324219 94.234375 153.425781 94.277344 153.511719 C 94.320312 153.597656 94.40625 153.648438 94.5 153.648438 L 118.699219 144.351562 L 118.949219 144.199219 C 120 143.773438 120.714844 142.785156 120.789062 141.652344 C 120.859375 140.519531 120.277344 139.449219 119.289062 138.890625 C 118.296875 138.335938 117.078125 138.398438 116.148438 139.050781 M 113.648438 131.949219 L 89.898438 142.550781 C 89.734375 142.582031 89.683594 142.667969 89.75 142.800781 C 89.75 142.933594 89.851562 142.984375 90.050781 142.949219 L 115.398438 137.550781 L 115.648438 137.5 C 116.765625 137.25 117.636719 136.375 117.882812 135.257812 C 118.128906 134.140625 117.707031 132.980469 116.800781 132.285156 C 115.894531 131.585938 114.667969 131.476562 113.648438 132 M 112.398438 124.550781 L 87.199219 131.25 C 87.0625 131.277344 86.972656 131.410156 87 131.550781 C 87.027344 131.6875 87.160156 131.777344 87.300781 131.75 L 113.199219 130.351562 L 113.449219 130.351562 C 114.523438 130.203125 115.433594 129.480469 115.816406 128.464844 C 116.195312 127.449219 115.988281 126.304688 115.277344 125.488281 C 114.5625 124.671875 113.457031 124.308594 112.398438 124.550781 M 112.25 117.050781 L 86.351562 119.75 C 86.210938 119.75 86.101562 119.863281 86.101562 120 C 86.101562 120.136719 86.210938 120.25 86.351562 120.25 L 112.148438 122.949219 L 112.398438 122.949219 C 114.027344 122.910156 115.316406 121.554688 115.273438 119.925781 C 115.234375 118.296875 113.878906 117.007812 112.25 117.050781 M 113.300781 109.648438 L 87.300781 108.300781 C 87.207031 108.332031 87.144531 108.414062 87.132812 108.507812 C 87.121094 108.605469 87.167969 108.699219 87.25 108.75 L 112.300781 115.398438 L 112.550781 115.449219 C 113.660156 115.746094 114.839844 115.371094 115.574219 114.492188 C 116.3125 113.613281 116.46875 112.382812 115.980469 111.34375 C 115.492188 110.308594 114.449219 109.644531 113.300781 109.648438 M 115.5 102.449219 L 90 97.050781 C 89.898438 96.984375 89.816406 97.035156 89.75 97.199219 C 89.75 97.300781 89.800781 97.382812 89.898438 97.449219 L 113.601562 108 L 113.851562 108.101562 C 114.882812 108.480469 116.046875 108.253906 116.859375 107.511719 C 117.671875 106.765625 118.003906 105.632812 117.71875 104.566406 C 117.433594 103.5 116.578125 102.683594 115.5 102.449219 M 118.800781 95.699219 L 94.5 86.351562 C 94.40625 86.351562 94.320312 86.402344 94.277344 86.488281 C 94.234375 86.574219 94.242188 86.675781 94.300781 86.75 L 116.050781 100.898438 L 116.25 101 C 117.214844 101.601562 118.4375 101.59375 119.394531 100.984375 C 120.355469 100.371094 120.875 99.265625 120.738281 98.136719 C 120.601562 97.011719 119.828125 96.0625 118.75 95.699219 M 123.101562 89.550781 L 100.601562 76.550781 C 100.488281 76.507812 100.363281 76.507812 100.25 76.550781 C 100.214844 76.648438 100.234375 76.765625 100.300781 76.898438 L 119.601562 94.25 L 119.800781 94.398438 C 120.660156 95.132812 121.863281 95.308594 122.898438 94.851562 C 123.929688 94.398438 124.617188 93.394531 124.660156 92.265625 C 124.703125 91.136719 124.097656 90.082031 123.101562 89.550781 M 128.300781 84.148438 L 108.101562 67.75 L 107.800781 67.75 C 107.699219 67.851562 107.699219 67.964844 107.800781 68.101562 L 124.101562 88.25 L 124.300781 88.449219 C 125.042969 89.289062 126.199219 89.632812 127.28125 89.339844 C 128.363281 89.042969 129.1875 88.160156 129.402344 87.058594 C 129.617188 85.960938 129.191406 84.832031 128.300781 84.148438 M 134.300781 79.648438 L 116.898438 60.300781 C 116.808594 60.253906 116.703125 60.269531 116.625 60.332031 C 116.550781 60.398438 116.519531 60.503906 116.550781 60.601562 L 129.550781 83.050781 L 129.648438 83.25 C 130.257812 84.179688 131.335938 84.691406 132.441406 84.570312 C 133.542969 84.453125 134.488281 83.722656 134.878906 82.683594 C 135.273438 81.640625 135.050781 80.46875 134.300781 79.648438 M 140.949219 76.148438 L 126.75 54.300781 C 126.675781 54.242188 126.574219 54.234375 126.488281 54.277344 C 126.402344 54.320312 126.351562 54.40625 126.351562 54.5 L 135.648438 78.699219 L 135.800781 78.949219 C 136.226562 80 137.214844 80.714844 138.347656 80.789062 C 139.480469 80.859375 140.550781 80.277344 141.109375 79.289062 C 141.664062 78.296875 141.601562 77.078125 140.949219 76.148438 M 148.050781 73.648438 L 137.449219 49.898438 C 137.382812 49.847656 137.289062 49.832031 137.207031 49.863281 C 137.125 49.894531 137.066406 49.964844 137.050781 50.050781 L 142.449219 75.398438 L 142.5 75.648438 C 142.75 76.765625 143.625 77.636719 144.742188 77.882812 C 145.859375 78.128906 147.019531 77.707031 147.714844 76.800781 C 148.414062 75.894531 148.523438 74.667969 148 73.648438 M 155.449219 72.398438 L 148.75 47.199219 C 148.714844 47.101562 148.632812 47.050781 148.5 47.050781 C 148.367188 47.082031 148.300781 47.167969 148.300781 47.300781 L 149.648438 73.199219 L 149.648438 73.449219 C 149.796875 74.523438 150.519531 75.433594 151.535156 75.816406 C 152.550781 76.195312 153.695312 75.988281 154.511719 75.277344 C 155.328125 74.5625 155.691406 73.457031 155.449219 72.398438 M 162.949219 72.25 L 160.25 46.351562 C 160.25 46.210938 160.136719 46.101562 160 46.101562 C 159.863281 46.101562 159.75 46.210938 159.75 46.351562 L 157.050781 72.148438 L 157.050781 72.398438 C 157.089844 74.027344 158.445312 75.316406 160.074219 75.273438 C 161.703125 75.234375 162.992188 73.878906 162.949219 72.25 M 160 75.398438 C 184.632812 75.398438 204.601562 95.367188 204.601562 120 C 204.601562 144.632812 184.632812 164.601562 160 164.601562 C 135.367188 164.601562 115.398438 144.632812 115.398438 120 C 115.398438 95.367188 135.367188 75.398438 160 75.398438 M 160 80.75 C 181.675781 80.75 199.25 98.324219 199.25 120 C 199.25 141.675781 181.675781 159.25 160 159.25 C 138.324219 159.25 120.75 141.675781 120.75 120 C 120.75 98.324219 138.324219 80.75 160 80.75 M 127.199219 131.75 C 131.199219 123.398438 136.800781 115.949219 143.199219 109.75 L 146.199219 111.75 C 139.015625 118.644531 133.226562 126.863281 129.148438 135.949219 C 128.410156 134.609375 127.757812 133.222656 127.199219 131.800781 M 162.75 111.5 C 163.683594 112.265625 164.582031 113.066406 165.449219 113.898438 L 168.351562 111.648438 L 165.648438 109.300781 Z M 157.050781 107.148438 L 160 109.300781 L 162.949219 107.148438 L 160 105 Z M 157.351562 116.300781 L 160 118.800781 L 162.648438 116.300781 L 160 113.800781 Z M 151.648438 111.648438 C 152.648438 112.382812 153.617188 113.132812 154.550781 113.898438 L 157.25 111.5 L 154.351562 109.300781 C 153.449219 110.035156 152.550781 110.816406 151.648438 111.648438 M 169.25 103.199219 C 168.25 102.433594 167.25 101.714844 166.25 101.050781 L 162.898438 103.050781 L 165.898438 105.199219 Z M 174.449219 107.5 L 171.800781 105.199219 L 168.601562 107.199219 L 171.351562 109.5 C 172.351562 108.832031 173.382812 108.167969 174.449219 107.5 M 156.449219 99.199219 C 157.617188 98.433594 158.800781 97.714844 160 97.050781 L 163.5 99.199219 L 160 101.199219 Z M 150.699219 103.199219 C 151.699219 102.433594 152.699219 101.714844 153.699219 101.050781 L 157.050781 103.050781 L 154.050781 105.199219 Z M 145.5 107.5 L 148.148438 105.199219 L 151.351562 107.199219 L 148.601562 109.5 C 147.601562 108.832031 146.566406 108.167969 145.5 107.5 M 129.148438 102.398438 C 132.863281 103.890625 136.457031 105.660156 139.898438 107.699219 C 134.195312 113.15625 129.375 119.464844 125.601562 126.398438 C 123.914062 118.238281 125.152344 109.742188 129.101562 102.398438 M 132.101562 97.800781 C 136.433594 99.199219 140.699219 101.035156 144.898438 103.300781 L 142.25 105.601562 C 138.382812 103.464844 134.449219 101.667969 130.449219 100.199219 C 130.984375 99.332031 131.535156 98.535156 132.101562 97.800781 M 135.851562 93.648438 C 140.714844 94.984375 145.582031 96.867188 150.449219 99.300781 L 147.449219 101.398438 C 142.949219 99.167969 138.398438 97.300781 133.800781 95.800781 Z M 141.351562 89.449219 L 141.648438 89.550781 L 142.050781 89.648438 C 146.984375 90.984375 151.933594 92.898438 156.898438 95.398438 L 153.199219 97.550781 C 148.34375 95.183594 143.292969 93.242188 138.101562 91.75 C 139.101562 90.917969 140.167969 90.148438 141.300781 89.449219 M 175.601562 87.75 L 175.199219 87.898438 C 170.066406 89.398438 164.984375 91.367188 159.949219 93.800781 C 155.015625 91.398438 150.015625 89.449219 144.949219 87.949219 L 144.699219 87.898438 C 144.535156 87.898438 144.398438 87.851562 144.300781 87.75 C 154.152344 82.824219 165.746094 82.824219 175.601562 87.75 M 181.851562 91.75 L 181.5 91.851562 C 176.5 93.316406 171.566406 95.214844 166.699219 97.550781 C 165.5 96.785156 164.265625 96.066406 163 95.398438 C 167.96875 92.820312 173.222656 90.824219 178.648438 89.449219 C 179.785156 90.183594 180.851562 90.949219 181.851562 91.75 M 186.101562 95.75 C 181.5 97.25 176.964844 99.132812 172.5 101.398438 L 169.5 99.300781 C 174.332031 96.832031 179.167969 94.949219 184 93.648438 Z M 189.449219 100.148438 C 185.449219 101.617188 181.515625 103.417969 177.648438 105.550781 C 176.785156 104.785156 175.898438 104.035156 175 103.300781 C 179.199219 100.964844 183.464844 99.132812 187.800781 97.800781 C 188.398438 98.5 188.949219 99.285156 189.449219 100.148438 M 194.300781 126.351562 C 190.527344 119.417969 185.703125 113.109375 180 107.648438 C 183.441406 105.613281 187.035156 103.839844 190.75 102.351562 C 194.757812 109.671875 196.015625 118.183594 194.300781 126.351562 M 190.800781 135.898438 C 186.734375 126.835938 180.960938 118.636719 173.800781 111.75 C 174.800781 111.015625 175.800781 110.332031 176.800781 109.699219 C 183.199219 115.898438 188.699219 123.351562 192.75 131.699219 C 192.195312 133.140625 191.542969 134.542969 190.800781 135.898438 M 185.351562 143.398438 C 181.050781 132.398438 175.050781 123.449219 168 116.300781 L 170.800781 113.949219 C 178.101562 121.148438 184.300781 129.949219 188.300781 139.898438 C 187.394531 141.128906 186.40625 142.296875 185.351562 143.398438 M 178.699219 148.851562 L 178.25 147.601562 C 174.398438 137.101562 168.949219 128.5 162.550781 121.449219 L 165.199219 118.800781 C 172.785156 126.632812 178.585938 136.011719 182.199219 146.300781 C 181.085938 147.203125 179.917969 148.039062 178.699219 148.800781 M 144.75 150.800781 L 145.199219 149.398438 C 148.449219 139.898438 153.601562 131.398438 159.949219 124.25 C 166.300781 131.449219 171.449219 139.898438 174.699219 149.398438 L 175.199219 150.800781 C 165.582031 155.445312 154.367188 155.445312 144.75 150.800781 M 137.699219 146.300781 C 141.316406 136.011719 147.113281 126.632812 154.699219 118.800781 L 157.351562 121.449219 C 150.46875 129.0625 145.136719 137.945312 141.648438 147.601562 L 141.148438 148.851562 C 139.933594 148.089844 138.765625 147.253906 137.648438 146.351562 M 131.648438 139.851562 C 135.648438 129.898438 141.800781 121.148438 149.101562 113.949219 L 151.898438 116.300781 C 144.308594 124.039062 138.398438 133.265625 134.550781 143.398438 C 133.515625 142.265625 132.535156 141.101562 131.601562 139.898438 "/>
</g>
</svg>
