<?xml version="1.0" encoding="UTF-8"?>
<svg xmlns="http://www.w3.org/2000/svg" xmlns:xlink="http://www.w3.org/1999/xlink" width="px" height="px" viewBox="0 0 320 240" version="1.1">
<g id="surface1">
<rect x="0" y="0" width="320" height="240" style="fill:rgb(1.176471%,18.039216%,63.137257%);fill-opacity:1;stroke:none;"/>
<path style=" stroke:none;fill-rule:nonzero;fill:rgb(87.843138%,0%,14.509805%);fill-opacity:1;" d="M 0 60 L 320 60 L 320 180 L 0 180 Z M 0 60 "/>
<path style="fill-rule:nonzero;fill:rgb(100%,100%,100%);fill-opacity:1;stroke-width:1;stroke-linecap:butt;stroke-linejoin:bevel;stroke:rgb(0%,0%,0%);stroke-opacity:1;stroke-miterlimit:4;" d="M 138.998694 623.502579 L 252.800772 623.502579 L 252.800772 667.298151 L 138.998694 667.298151 Z M 138.998694 623.502579 " transform="matrix(0.6,0,0,0.6,42.799999,-261)"/>
<path style="fill-rule:nonzero;fill:rgb(100%,100%,100%);fill-opacity:1;stroke-width:1;stroke-linecap:butt;stroke-linejoin:bevel;stroke:rgb(0%,0%,0%);stroke-opacity:1;stroke-miterlimit:4;" d="M 246.999991 647.597631 L 250.502595 647.597631 L 250.502595 664.101536 L 246.999991 664.101536 Z M 138.998694 639.498673 L 252.800772 639.498673 L 252.800772 644.498672 L 138.998694 644.498672 Z M 138.998694 632.499975 L 252.800772 632.499975 L 252.800772 637.102839 L 138.998694 637.102839 Z M 138.998694 632.499975 " transform="matrix(0.6,0,0,0.6,42.799999,-261)"/>
<path style="fill-rule:nonzero;fill:rgb(100%,100%,100%);fill-opacity:1;stroke-width:0.9;stroke-linecap:butt;stroke-linejoin:bevel;stroke:rgb(0%,0%,0%);stroke-opacity:1;stroke-miterlimit:4;" d="M 138.998694 625.7031 L 252.800772 625.7031 L 252.800772 629.999975 L 138.998694 629.999975 Z M 138.998694 625.7031 " transform="matrix(0.6,0,0,0.6,42.799999,-261)"/>
<path style="fill-rule:nonzero;fill:rgb(100%,100%,100%);fill-opacity:1;stroke-width:1;stroke-linecap:butt;stroke-linejoin:bevel;stroke:rgb(0%,0%,0%);stroke-opacity:1;stroke-miterlimit:4;" d="M 168.998692 647.597631 L 172.598953 647.597631 L 172.598953 664.101536 L 168.998692 664.101536 Z M 218.002597 647.597631 L 221.602857 647.597631 L 221.602857 664.101536 L 218.002597 664.101536 Z M 140.001298 647.597631 L 143.497391 647.597631 L 143.497391 664.101536 L 140.001298 664.101536 Z M 146.999995 647.597631 L 150.502599 647.597631 L 150.502599 664.101536 L 146.999995 664.101536 Z M 154.499995 647.597631 L 158.002599 647.597631 L 158.002599 664.101536 L 154.499995 664.101536 Z M 161.999995 647.597631 L 165.502599 647.597631 L 165.502599 664.101536 L 161.999995 664.101536 Z M 224.799472 647.597631 L 228.399732 647.597631 L 228.399732 664.101536 L 224.799472 664.101536 Z M 232.299471 647.597631 L 235.899731 647.597631 L 235.899731 664.101536 L 232.299471 664.101536 Z M 239.799471 647.597631 L 243.399731 647.597631 L 243.399731 664.101536 L 239.799471 664.101536 Z M 239.799471 647.597631 " transform="matrix(0.6,0,0,0.6,42.799999,-261)"/>
<path style="fill-rule:nonzero;fill:rgb(100%,100%,100%);fill-opacity:1;stroke-width:1;stroke-linecap:butt;stroke-linejoin:miter;stroke:rgb(0%,0%,0%);stroke-opacity:1;stroke-miterlimit:4;" d="M 94.499998 669.498671 C 96.609372 668.38539 98.191404 666.477838 98.901039 664.199192 L 291.99999 664.199192 C 292.703115 666.477838 294.291656 668.38539 296.401031 669.498671 Z M 94.499998 669.498671 " transform="matrix(0.6,0,0,0.6,42.799999,-261)"/>
<path style="fill-rule:nonzero;fill:rgb(100%,100%,100%);fill-opacity:1;stroke-width:1;stroke-linecap:butt;stroke-linejoin:miter;stroke:rgb(0%,0%,0%);stroke-opacity:1;stroke-miterlimit:4;" d="M 193.002598 556.796853 C 193.002598 556.796853 192.898431 552.701801 195.300775 552.597634 C 197.598952 552.597634 197.501296 556.796853 197.501296 556.796853 Z M 180.502598 611.302059 L 180.502598 605.800757 C 180.502598 603.001278 177.703119 602.799455 177.703119 600.800757 C 177.703119 600.800757 177.299473 597.799455 178.100255 596.399716 C 179.200515 600.397112 181.101557 599.700497 181.101557 598.001278 C 181.101557 596.601539 180.098952 595.201799 177.800775 591.699195 C 176.999994 590.598935 177.501296 587.102841 178.49739 585.800758 C 178.764317 588.80206 179.499994 590.299456 180.697911 590.299456 C 181.563796 590.36456 182.032546 589.700497 182.09765 588.300758 C 182.09765 586.30206 180.802077 585.299456 180.098952 583.502581 C 179.395827 581.673154 179.825515 579.596331 181.199213 578.203102 C 181.700515 581.197894 181.602859 582.402321 182.898432 582.402321 C 185.600254 581.497373 182.898432 577.597633 182.299473 576.60154 C 181.700515 575.501279 183.302077 573.203102 183.302077 573.203102 C 184.102859 575.898415 184.298171 576.100238 185.300775 575.800758 C 186.498692 575.501279 186.296869 573.802061 184.897129 572.402321 C 184.031244 571.334613 184.102859 570.234352 185.098952 569.10154 C 186.101556 571.002581 187.299473 570.898415 187.397129 569.700498 L 186.602858 565.299457 L 203.998691 565.299457 L 203.100254 569.602842 C 202.898431 570.800759 204.499993 571.100238 205.502597 569.10154 C 206.498691 570.097634 206.602858 571.497373 205.69791 572.402321 C 204.29817 573.802061 204.102858 575.501279 205.300774 575.800758 C 206.296868 576.100238 206.498691 575.800758 207.299472 573.203102 C 207.299472 573.203102 208.796868 574.700498 208.302076 576.60154 C 207.703118 577.597633 205.001295 581.601539 207.703118 582.402321 C 208.998691 582.402321 208.901035 581.197894 209.402337 578.203102 C 210.736972 579.622373 211.127597 581.692685 210.39843 583.502581 C 209.799472 585.299456 208.399733 586.30206 208.399733 588.300758 C 208.536451 589.700497 209.031243 590.36456 209.897128 590.299456 C 211.101555 590.299456 211.830722 588.80206 212.097649 585.800758 C 213.100253 587.102841 213.601555 590.598935 212.800774 591.796851 C 210.502597 595.201799 209.402337 596.601539 209.402337 598.001278 C 209.402337 599.700497 211.401035 600.397112 212.397128 596.399716 C 213.302076 597.799455 212.89843 600.800757 212.89843 600.800757 C 212.89843 602.799455 210.203118 603.001278 210.098951 605.800757 L 210.098951 611.302059 Z M 187.703119 565.299457 L 187.299473 562.200498 L 203.19791 562.200498 L 202.800774 565.299457 Z M 188.699213 562.102842 L 188.49739 559.602842 L 201.999993 559.602842 L 201.700514 562.102842 Z M 190.99739 559.498676 L 190.69791 556.90102 L 199.701816 556.90102 L 199.59765 559.498676 Z M 223.99869 669.498671 C 221.999992 668.802057 218.99869 666.601536 218.99869 664.498672 L 218.99869 640.201797 L 221.602857 636.79685 L 168.998692 636.79685 L 171.498692 640.201797 L 171.498692 664.498672 C 171.498692 666.601536 169.499995 668.802057 167.501297 669.498671 Z M 223.99869 669.498671 " transform="matrix(0.6,0,0,0.6,42.799999,-261)"/>
<path style="fill-rule:nonzero;fill:rgb(100%,100%,100%);fill-opacity:1;stroke-width:1;stroke-linecap:butt;stroke-linejoin:bevel;stroke:rgb(0%,0%,0%);stroke-opacity:1;stroke-miterlimit:4;" d="M 178.197911 647.597631 L 181.798171 647.597631 L 181.798171 664.101536 L 178.197911 664.101536 Z M 208.601555 647.597631 L 212.201816 647.597631 L 212.201816 664.101536 L 208.601555 664.101536 Z M 208.601555 647.597631 " transform="matrix(0.6,0,0,0.6,42.799999,-261)"/>
<path style="fill-rule:nonzero;fill:rgb(100%,100%,100%);fill-opacity:1;stroke-width:1;stroke-linecap:butt;stroke-linejoin:miter;stroke:rgb(0%,0%,0%);stroke-opacity:1;stroke-miterlimit:4;" d="M 168.002599 609.199195 L 168.002599 636.79685 L 221.999992 636.79685 L 221.999992 609.199195 C 220.71744 609.635392 219.734368 610.683569 219.402336 611.998674 L 219.402336 623.802059 L 170.697911 623.802059 L 170.697911 611.998674 C 170.697911 611.998674 170.098953 609.999976 167.898432 609.199195 Z M 168.002599 609.199195 " transform="matrix(0.6,0,0,0.6,42.799999,-261)"/>
<path style="fill-rule:nonzero;fill:rgb(100%,100%,100%);fill-opacity:1;stroke-width:1;stroke-linecap:butt;stroke-linejoin:miter;stroke:rgb(0%,0%,0%);stroke-opacity:1;stroke-miterlimit:4;" d="M 214.597649 669.498671 C 212.800774 668.802057 208.998691 666.601536 208.998691 664.498672 L 208.998691 637.298152 C 209.402337 635.800756 211.401035 634.902319 212.703118 633.899714 L 176.999994 633.899714 C 178.699213 634.902319 180.600255 635.598933 181.296869 637.298152 L 181.296869 664.498672 C 181.296869 666.601536 178.302078 668.802057 176.498692 669.498671 Z M 214.597649 669.498671 " transform="matrix(0.6,0,0,0.6,42.799999,-261)"/>
<path style="fill-rule:nonzero;fill:rgb(100%,100%,100%);fill-opacity:1;stroke-width:1;stroke-linecap:butt;stroke-linejoin:miter;stroke:rgb(0%,0%,0%);stroke-opacity:1;stroke-miterlimit:4;" d="M 219.402336 634.199194 L 219.402336 614.60284 L 214.499993 614.60284 L 214.499993 612.701799 L 175.697911 612.701799 L 175.697911 614.700496 L 170.697911 614.700496 L 170.697911 634.199194 Z M 206.999993 669.498671 C 205.203118 668.802057 202.703118 666.601536 202.703118 664.498672 L 202.703118 641.302058 L 204.102858 639.199193 L 186.401036 639.199193 L 187.898431 641.197891 L 187.898431 664.498672 C 187.898431 666.601536 185.300775 668.802057 183.601556 669.498671 Z M 206.999993 669.498671 " transform="matrix(0.6,0,0,0.6,42.799999,-261)"/>
<path style="fill-rule:nonzero;fill:rgb(100%,100%,100%);fill-opacity:1;stroke-width:1;stroke-linecap:butt;stroke-linejoin:miter;stroke:rgb(0%,0%,0%);stroke-opacity:1;stroke-miterlimit:4;" d="M 190.69791 639.199193 L 199.701816 639.199193 L 199.701816 669.498671 L 190.69791 669.498671 Z M 190.69791 639.199193 " transform="matrix(0.6,0,0,0.6,42.799999,-261)"/>
<path style="fill-rule:nonzero;fill:rgb(100%,100%,100%);fill-opacity:1;stroke-width:1;stroke-linecap:butt;stroke-linejoin:bevel;stroke:rgb(0%,0%,0%);stroke-opacity:1;stroke-miterlimit:4;" d="M 204.402337 632.499975 C 204.402337 630.501277 210.203118 630.39711 213.197909 628.697892 L 177.201817 628.697892 C 180.203119 630.39711 185.899733 630.501277 185.899733 632.499975 L 187.09765 636.399714 L 202.097649 636.998673 Z M 204.402337 632.499975 " transform="matrix(0.6,0,0,0.6,42.799999,-261)"/>
<path style="fill-rule:nonzero;fill:rgb(100%,100%,100%);fill-opacity:1;stroke-width:1;stroke-linecap:butt;stroke-linejoin:miter;stroke:rgb(0%,0%,0%);stroke-opacity:1;stroke-miterlimit:4;" d="M 211.401035 611.302059 C 211.401035 606.399715 211.602857 604.602841 213.100253 604.602841 L 213.100253 619.999975 C 209.402337 621.399715 206.79817 626.002579 206.79817 626.002579 L 183.601556 626.002579 C 183.601556 626.002579 180.99739 621.399715 177.299473 619.999975 L 177.299473 604.498674 C 179.102859 604.498674 179.102859 606.497372 179.102859 611.197892 Z M 213.100253 609.296851 C 213.100253 603.697893 218.002597 603.098934 218.002597 603.098934 L 218.002597 608.098934 C 216.101555 608.001278 215.203118 609.700497 215.203118 612.10284 C 215.203118 614.60284 216.700513 614.60284 216.700513 614.60284 L 216.700513 628.802058 L 213.100253 628.802058 Z M 213.100253 609.296851 " transform="matrix(0.6,0,0,0.6,42.799999,-261)"/>
<path style="fill-rule:nonzero;fill:rgb(100%,100%,100%);fill-opacity:1;stroke-width:1;stroke-linecap:butt;stroke-linejoin:miter;stroke:rgb(0%,0%,0%);stroke-opacity:1;stroke-miterlimit:4;" d="M 177.299473 609.296851 C 177.299473 603.697893 172.39713 603.098934 172.39713 603.098934 L 172.39713 608.098934 C 174.298171 608.001278 175.203119 609.700497 175.203119 612.10284 C 175.203119 614.60284 173.699213 614.60284 173.699213 614.60284 L 173.699213 628.802058 L 177.299473 628.802058 Z M 177.299473 609.296851 " transform="matrix(0.6,0,0,0.6,42.799999,-261)"/>
<path style="fill:none;stroke-width:0.8;stroke-linecap:butt;stroke-linejoin:miter;stroke:rgb(0%,0%,0%);stroke-opacity:1;stroke-miterlimit:4;" d="M 186.798171 570.598936 L 203.998691 570.598936 M 184.799473 576.002581 L 205.802076 576.002581 M 182.800775 582.499977 L 207.703118 582.499977 M 180.697911 590.397112 L 210.203118 590.397112 M 180.001296 599.401018 L 210.39843 599.401018 " transform="matrix(0.6,0,0,0.6,42.799999,-261)"/>
<path style="fill:none;stroke-width:1;stroke-linecap:butt;stroke-linejoin:miter;stroke:rgb(0%,0%,0%);stroke-opacity:1;stroke-miterlimit:4;" d="M 170.802078 628.997371 L 219.402336 628.997371 M 186.199213 628.997371 L 204.200514 628.997371 L 204.200514 635.598933 L 186.199213 635.598933 Z M 186.199213 628.997371 " transform="matrix(0.6,0,0,0.6,42.799999,-261)"/>
<path style="fill-rule:nonzero;fill:rgb(100%,100%,100%);fill-opacity:1;stroke-width:1;stroke-linecap:butt;stroke-linejoin:miter;stroke:rgb(0%,0%,0%);stroke-opacity:1;stroke-miterlimit:4;" d="M 183.998692 614.199194 C 186.999994 617.799455 186.602858 623.899715 186.602858 627.499975 L 203.998691 627.499975 C 203.998691 623.899715 203.601556 617.799455 206.602858 614.199194 Z M 193.699212 573.203102 L 191.296869 571.901019 L 191.296869 568.398415 C 192.299473 568.697894 193.302077 568.802061 193.497389 570.397113 C 193.796869 568.098936 194.499994 568.300759 195.398431 567.402321 C 196.401035 568.300759 196.902337 568.098936 197.299473 570.397113 C 197.299473 568.802061 198.497389 568.697894 199.402337 568.398415 L 199.402337 571.901019 L 197.09765 573.098936 Z M 193.699212 573.203102 " transform="matrix(0.6,0,0,0.6,42.799999,-261)"/>
<path style="fill-rule:nonzero;fill:rgb(100%,100%,100%);fill-opacity:1;stroke-width:1;stroke-linecap:butt;stroke-linejoin:miter;stroke:rgb(0%,0%,0%);stroke-opacity:1;stroke-miterlimit:4;" d="M 193.497389 578.899717 L 189.499994 576.100238 L 189.499994 573.001279 C 190.99739 573.300758 192.501296 573.502581 192.703119 575.2018 C 193.100254 572.7018 193.998691 571.497373 195.398431 570.501279 C 196.700514 571.497373 197.598952 572.7018 198.100254 575.2018 C 198.19791 573.502581 199.799472 573.300758 201.101556 573.001279 L 201.101556 576.197894 L 197.201816 578.899717 Z M 193.497389 578.899717 " transform="matrix(0.6,0,0,0.6,42.799999,-261)"/>
<path style="fill-rule:nonzero;fill:rgb(100%,100%,100%);fill-opacity:1;stroke-width:1;stroke-linecap:butt;stroke-linejoin:miter;stroke:rgb(0%,0%,0%);stroke-opacity:1;stroke-miterlimit:4;" d="M 193.19791 587.799456 L 188.699213 583.80206 L 188.699213 579.101539 C 190.300775 579.498675 192.09765 579.700498 192.299473 582.200498 C 192.800775 578.697894 193.796869 576.796852 195.300775 575.397113 C 196.902337 576.796852 197.898431 578.697894 198.497389 582.200498 C 198.699212 579.700498 200.502597 579.498675 202.097649 579.101539 L 202.097649 583.80206 L 197.501296 587.799456 Z M 201.602858 593.098935 L 197.598952 598.80206 L 192.898431 598.80206 L 188.796869 593.098935 Z M 186.401036 602.597632 C 188.334629 603.600236 189.330723 606.132788 189.402337 610.201799 L 200.997389 610.201799 C 201.069004 606.132788 202.065097 603.600236 203.998691 602.597632 Z M 186.401036 602.597632 " transform="matrix(0.6,0,0,0.6,42.799999,-261)"/>
<path style="fill-rule:nonzero;fill:rgb(100%,100%,100%);fill-opacity:1;stroke-width:1;stroke-linecap:butt;stroke-linejoin:bevel;stroke:rgb(0%,0%,0%);stroke-opacity:1;stroke-miterlimit:4;" d="M 204.200514 593.001279 L 204.200514 587.40232 C 202.429681 587.734352 200.977858 588.997372 200.398431 590.703102 C 200.398431 588.697893 197.898431 584.401018 195.203119 582.200498 C 192.501296 584.602841 189.897129 588.600237 190.001296 590.598935 C 189.467442 588.997372 188.19791 587.936175 186.199213 587.40232 L 186.199213 593.098935 Z M 204.200514 593.001279 " transform="matrix(0.6,0,0,0.6,42.799999,-261)"/>
<path style="fill-rule:nonzero;fill:rgb(100%,100%,100%);fill-opacity:1;stroke-width:1;stroke-linecap:butt;stroke-linejoin:bevel;stroke:rgb(0%,0%,0%);stroke-opacity:1;stroke-miterlimit:4;" d="M 205.001295 602.597632 L 205.001295 596.998674 C 202.865879 597.597633 201.498691 598.697893 200.899733 600.299455 C 200.899733 598.300757 198.19791 593.997372 195.203119 591.796851 C 192.201817 594.296851 189.402337 598.203101 189.499994 600.299455 C 188.96614 598.769507 187.598952 597.669247 185.398431 596.998674 L 185.398431 602.701799 Z M 205.001295 602.597632 " transform="matrix(0.6,0,0,0.6,42.799999,-261)"/>
<path style="fill-rule:nonzero;fill:rgb(100%,100%,100%);fill-opacity:1;stroke-width:1;stroke-linecap:butt;stroke-linejoin:bevel;stroke:rgb(0%,0%,0%);stroke-opacity:1;stroke-miterlimit:4;" d="M 207.397128 614.296851 L 207.397128 607.701799 C 205.333326 608.378882 203.542962 609.713517 202.299472 611.497372 C 202.299472 608.001278 198.302077 602.499976 195.203119 600.800757 C 191.999994 602.597632 188.100254 608.203101 188.100254 611.497372 C 186.830723 609.693986 185.007806 608.359351 182.898432 607.701799 L 182.898432 614.296851 Z M 207.397128 614.296851 " transform="matrix(0.6,0,0,0.6,42.799999,-261)"/>
<path style="fill-rule:nonzero;fill:rgb(100%,100%,100%);fill-opacity:1;stroke-width:1;stroke-linecap:butt;stroke-linejoin:bevel;stroke:rgb(0%,0%,0%);stroke-opacity:1;stroke-miterlimit:4;" d="M 205.997389 628.997371 L 205.997389 622.200496 C 203.601556 623.098934 203.002597 625.299454 202.201816 626.901017 C 202.501295 619.999975 198.399733 612.701799 195.203119 610.800757 C 191.999994 612.701799 187.800775 620.201798 188.19791 626.79685 C 187.397129 625.397111 186.700515 623.098934 184.402338 622.200496 L 184.402338 628.899715 Z M 205.997389 628.997371 " transform="matrix(0.6,0,0,0.6,42.799999,-261)"/>
<path style="fill-rule:nonzero;fill:rgb(100%,100%,100%);fill-opacity:1;stroke-width:1;stroke-linecap:butt;stroke-linejoin:miter;stroke:rgb(0%,0%,0%);stroke-opacity:1;stroke-miterlimit:4;" d="M 204.402337 639.199193 L 204.402337 632.402319 C 201.902337 633.001277 201.79817 633.899714 200.997389 635.39711 C 201.296868 631.302058 198.399733 626.601538 195.203119 624.798152 C 191.999994 626.601538 189.200515 631.302058 189.402337 635.39711 C 188.601556 633.899714 188.49739 633.001277 185.99739 632.402319 L 185.99739 639.199193 Z M 204.402337 639.199193 " transform="matrix(0.6,0,0,0.6,42.799999,-261)"/>
<path style="fill-rule:nonzero;fill:rgb(100%,100%,100%);fill-opacity:1;stroke-width:1;stroke-linecap:butt;stroke-linejoin:miter;stroke:rgb(0%,0%,0%);stroke-opacity:1;stroke-miterlimit:4;" d="M 98.998695 664.199192 L 98.998695 643.802058 C 98.302081 641.197891 95.997393 638.802058 94.402341 638.398412 L 94.402341 620.397111 L 98.100258 622.402319 L 102.397133 641.302058 L 102.397133 664.296849 Z M 98.998695 664.199192 " transform="matrix(0.6,0,0,0.6,42.799999,-261)"/>
<path style="fill-rule:nonzero;fill:rgb(100%,100%,100%);fill-opacity:1;stroke-width:1;stroke-linecap:butt;stroke-linejoin:miter;stroke:rgb(0%,0%,0%);stroke-opacity:1;stroke-miterlimit:4;" d="M 98.998695 664.296849 L 98.998695 643.802058 C 98.302081 641.197891 95.997393 638.802058 94.402341 638.398412 L 94.402341 619.199194 C 96.902341 619.199194 98.100258 622.402319 98.100258 622.402319 L 102.397133 641.302058 L 102.397133 664.199192 Z M 98.998695 664.296849 " transform="matrix(0.6,0,0,0.6,42.799999,-261)"/>
<path style="fill-rule:nonzero;fill:rgb(100%,100%,100%);fill-opacity:1;stroke-width:1;stroke-linecap:butt;stroke-linejoin:miter;stroke:rgb(0%,0%,0%);stroke-opacity:1;stroke-miterlimit:4;" d="M 96.296872 669.498671 C 98.002602 668.802057 100.502601 666.601536 100.502601 664.498672 L 100.502601 638.899714 L 99.298174 636.901016 L 143.0026 636.901016 L 141.296871 638.899714 L 141.296871 664.498672 C 141.44661 666.66013 142.748694 668.567682 144.701818 669.498671 Z M 96.296872 669.498671 " transform="matrix(0.6,0,0,0.6,42.799999,-261)"/>
<path style="fill-rule:nonzero;fill:rgb(100%,100%,100%);fill-opacity:1;stroke-width:1;stroke-linecap:butt;stroke-linejoin:miter;stroke:rgb(0%,0%,0%);stroke-opacity:1;stroke-miterlimit:4;" d="M 135.802079 669.498671 C 134.102861 668.802057 131.602861 666.601536 131.602861 664.498672 L 131.602861 640.201797 L 135.203121 636.79685 L 105.600257 636.79685 L 109.200518 640.201797 L 109.200518 664.498672 C 109.200518 666.601536 106.700518 668.802057 105.001299 669.498671 Z M 135.802079 669.498671 " transform="matrix(0.6,0,0,0.6,42.799999,-261)"/>
<path style="fill-rule:nonzero;fill:rgb(100%,100%,100%);fill-opacity:1;stroke-width:1;stroke-linecap:butt;stroke-linejoin:miter;stroke:rgb(0%,0%,0%);stroke-opacity:1;stroke-miterlimit:4;" d="M 131.700517 669.498671 C 130.001298 668.802057 127.397132 666.601536 127.397132 664.498672 L 127.397132 642.499974 L 129.799475 639.199193 L 110.997393 639.199193 L 113.399736 642.499974 L 113.399736 664.498672 C 113.399736 666.601536 110.899736 668.802057 109.102862 669.498671 Z M 131.700517 669.498671 " transform="matrix(0.6,0,0,0.6,42.799999,-261)"/>
<path style="fill-rule:nonzero;fill:rgb(100%,100%,100%);fill-opacity:1;stroke-width:1;stroke-linecap:butt;stroke-linejoin:miter;stroke:rgb(0%,0%,0%);stroke-opacity:1;stroke-miterlimit:4;" d="M 115.997392 639.199193 L 124.897132 639.199193 L 124.897132 669.602838 L 115.899736 669.602838 Z M 115.997392 639.199193 " transform="matrix(0.6,0,0,0.6,42.799999,-261)"/>
<path style="fill-rule:nonzero;fill:rgb(100%,100%,100%);fill-opacity:1;stroke-width:1;stroke-linecap:butt;stroke-linejoin:bevel;stroke:rgb(0%,0%,0%);stroke-opacity:1;stroke-miterlimit:4;" d="M 103.699216 647.597631 L 107.299476 647.597631 L 107.299476 664.101536 L 103.699216 664.101536 Z M 134.499996 647.597631 L 138.0026 647.597631 L 138.0026 664.101536 L 134.40234 664.101536 Z M 100.600258 619.798152 L 105.001299 619.798152 L 105.001299 636.79685 L 100.600258 636.79685 Z M 100.600258 616.601538 L 104.897133 616.601538 L 104.897133 619.798152 L 100.600258 619.798152 Z M 136.199215 623.502579 L 142.299475 623.502579 L 142.299475 636.497371 L 136.199215 636.497371 Z M 136.199215 623.502579 " transform="matrix(0.6,0,0,0.6,42.799999,-261)"/>
<path style="fill-rule:nonzero;fill:rgb(100%,100%,100%);fill-opacity:1;stroke-width:1;stroke-linecap:butt;stroke-linejoin:miter;stroke:rgb(0%,0%,0%);stroke-opacity:1;stroke-miterlimit:4;" d="M 104.897133 636.601537 L 104.897133 607.597632 C 106.10156 607.597632 106.296872 611.901017 109.102862 611.901017 C 110.600257 611.901017 110.502601 610.097632 109.597653 608.697892 C 108.901039 607.40232 108.002601 605.703101 109.200518 602.40232 C 110.098955 604.90232 112.299476 605.703101 111.902341 604.199195 C 111.199216 601.497372 109.102862 601.00258 110.697914 596.901018 C 111.199216 600.299455 113.399736 600.201799 112.898434 598.203101 C 112.299476 595.898414 110.997393 594.90232 112.598955 591.699195 C 113.497393 595.397112 114.597653 595.201799 114.597653 592.897112 C 114.597653 589.498674 114.597653 585.898414 118.796872 584.602841 C 118.796872 584.602841 119.102861 581.601539 120.697913 581.601539 C 122.299476 581.601539 122.501298 584.602841 122.501298 584.602841 C 126.798173 585.898414 126.700517 589.602841 126.700517 592.897112 C 126.700517 595.201799 127.800777 595.397112 128.699215 591.699195 C 130.300777 594.90232 128.998694 595.898414 128.399736 598.203101 C 127.898434 600.201799 130.098954 600.299455 130.600256 596.901018 C 132.201819 601.00258 130.098954 601.497372 129.40234 604.199195 C 128.998694 605.703101 131.199215 604.90232 132.097652 602.40232 C 133.302079 605.703101 132.397131 607.40232 131.700517 608.697892 C 130.899736 610.097632 130.697913 611.901017 132.201819 611.901017 C 135.001298 611.901017 135.203121 607.701799 136.401038 607.701799 L 136.401038 636.601537 Z M 98.002602 614.700496 L 98.002602 636.79685 L 100.502601 636.79685 L 100.502601 614.700496 C 99.630206 614.231746 98.796872 614.231746 98.002602 614.700496 Z M 98.002602 614.700496 " transform="matrix(0.6,0,0,0.6,42.799999,-261)"/>
<path style="fill-rule:nonzero;fill:rgb(100%,100%,100%);fill-opacity:1;stroke-width:1;stroke-linecap:butt;stroke-linejoin:miter;stroke:rgb(0%,0%,0%);stroke-opacity:1;stroke-miterlimit:4;" d="M 98.197914 628.997371 C 101.296872 630.598933 104.402341 632.499975 105.203122 636.79685 L 98.197914 636.79685 Z M 141.401037 622.402319 L 141.401037 636.79685 L 143.399735 636.79685 L 143.399735 622.402319 C 142.735673 622.063777 142.0651 622.063777 141.401037 622.402319 Z M 141.401037 622.402319 " transform="matrix(0.6,0,0,0.6,42.799999,-261)"/>
<path style="fill-rule:nonzero;fill:rgb(100%,100%,100%);fill-opacity:1;stroke-width:1;stroke-linecap:butt;stroke-linejoin:miter;stroke:rgb(0%,0%,0%);stroke-opacity:1;stroke-miterlimit:4;" d="M 143.399735 628.997371 C 140.300777 630.501277 137.201819 632.298152 136.401038 636.699193 L 143.399735 636.699193 Z M 122.800778 595.299456 L 124.597653 593.80206 L 124.597653 591.796851 C 124.063798 591.796851 123.569007 592.135393 123.100257 592.799456 C 122.709632 591.503883 121.804684 590.416643 120.600257 589.798154 C 119.376299 590.377581 118.438799 591.419247 118.002601 592.701799 C 117.598955 592.102841 117.097653 591.764299 116.498695 591.699195 L 116.498695 593.697893 L 118.30208 595.299456 Z M 122.800778 595.299456 " transform="matrix(0.6,0,0,0.6,42.799999,-261)"/>
<path style="fill-rule:nonzero;fill:rgb(100%,100%,100%);fill-opacity:1;stroke-width:1;stroke-linecap:butt;stroke-linejoin:miter;stroke:rgb(0%,0%,0%);stroke-opacity:1;stroke-miterlimit:4;" d="M 123.796871 600.201799 L 124.597653 598.300757 L 124.597653 595.800758 C 124.063798 595.800758 123.569007 596.132789 123.100257 596.796851 C 122.709632 595.501278 121.804684 594.420549 120.600257 593.80206 C 119.376299 594.374976 118.438799 595.423153 118.002601 596.699195 C 117.598955 596.100237 117.097653 595.800758 116.498695 595.800758 L 116.498695 598.300757 L 117.299476 600.201799 Z M 123.796871 600.201799 " transform="matrix(0.6,0,0,0.6,42.799999,-261)"/>
<path style="fill-rule:nonzero;fill:rgb(100%,100%,100%);fill-opacity:1;stroke-width:1;stroke-linecap:butt;stroke-linejoin:miter;stroke:rgb(0%,0%,0%);stroke-opacity:1;stroke-miterlimit:4;" d="M 123.998694 606.796851 L 126.602861 603.50258 L 126.602861 600.299455 C 125.730465 600.299455 125.001298 600.833309 124.40234 601.901018 C 123.699215 599.602841 122.397132 599.199195 120.600257 598.098935 C 118.699215 599.101539 117.397132 599.602841 116.798174 601.796851 C 115.997392 600.703101 115.502601 600.397112 114.499997 600.299455 L 114.499997 603.50258 L 117.20182 606.796851 Z M 123.998694 606.796851 " transform="matrix(0.6,0,0,0.6,42.799999,-261)"/>
<path style="fill-rule:nonzero;fill:rgb(100%,100%,100%);fill-opacity:1;stroke-width:1;stroke-linecap:butt;stroke-linejoin:miter;stroke:rgb(0%,0%,0%);stroke-opacity:1;stroke-miterlimit:4;" d="M 124.701819 613.300757 C 124.701819 613.300757 127.898434 610.598934 128.0026 609.101538 L 128.0026 605.598934 C 126.798173 605.703101 125.697913 606.00258 124.799475 607.499976 C 123.998694 604.602841 122.800778 603.802059 120.600257 602.499976 C 118.30208 603.802059 117.097653 604.602841 116.401038 607.499976 C 115.398434 606.00258 114.40234 605.703101 113.100257 605.501278 L 113.100257 609.101538 C 113.940101 610.683569 115.059893 612.109351 116.401038 613.300757 Z M 124.701819 613.300757 " transform="matrix(0.6,0,0,0.6,42.799999,-261)"/>
<path style="fill-rule:nonzero;fill:rgb(100%,100%,100%);fill-opacity:1;stroke-width:1;stroke-linecap:butt;stroke-linejoin:miter;stroke:rgb(0%,0%,0%);stroke-opacity:1;stroke-miterlimit:4;" d="M 125.997392 625.299454 C 125.997392 625.299454 130.398434 620.598934 130.5026 618.697892 L 130.5026 613.300757 C 128.835934 613.430965 127.36458 614.635392 126.101559 616.901017 C 125.235673 612.499976 123.399736 609.231747 120.600257 607.10284 C 117.598955 609.296851 115.997392 612.402319 115.001299 616.901017 C 113.731768 614.635392 112.299476 613.430965 110.697914 613.300757 L 110.697914 618.697892 C 110.997393 620.598934 115.098955 625.299454 115.098955 625.299454 Z M 125.997392 625.299454 " transform="matrix(0.6,0,0,0.6,42.799999,-261)"/>
<path style="fill-rule:nonzero;fill:rgb(100%,100%,100%);fill-opacity:1;stroke-width:1;stroke-linecap:butt;stroke-linejoin:miter;stroke:rgb(0%,0%,0%);stroke-opacity:1;stroke-miterlimit:4;" d="M 125.997392 632.402319 C 125.997392 632.402319 129.701819 628.697892 130.5026 627.10284 L 130.5026 621.699194 C 128.835934 621.901017 127.36458 623.066381 126.101559 625.201798 C 125.561194 621.523413 123.582028 618.216121 120.600257 616.00258 C 117.598955 618.2031 115.997392 620.7031 115.001299 625.201798 C 113.731768 623.066381 112.299476 621.901017 110.697914 621.699194 L 110.697914 627.10284 C 111.700518 628.697892 115.098955 632.402319 115.098955 632.402319 Z M 125.997392 632.402319 " transform="matrix(0.6,0,0,0.6,42.799999,-261)"/>
<path style="fill-rule:nonzero;fill:rgb(100%,100%,100%);fill-opacity:1;stroke-width:1;stroke-linecap:butt;stroke-linejoin:miter;stroke:rgb(0%,0%,0%);stroke-opacity:1;stroke-miterlimit:4;" d="M 127.501298 636.601537 C 126.498694 631.901017 125.5026 628.398413 120.398434 624.902319 C 115.203122 628.398413 114.298174 631.901017 113.197913 636.601537 Z M 127.501298 636.601537 " transform="matrix(0.6,0,0,0.6,42.799999,-261)"/>
<path style="fill-rule:nonzero;fill:rgb(100%,100%,100%);fill-opacity:1;stroke-width:1;stroke-linecap:butt;stroke-linejoin:miter;stroke:rgb(0%,0%,0%);stroke-opacity:1;stroke-miterlimit:4;" d="M 130.203121 639.199193 L 130.203121 632.402319 C 127.800777 633.398412 125.697913 634.700496 124.897132 636.197891 C 124.102861 632.402319 122.397132 630.800756 120.300778 628.502579 C 118.197913 630.800756 116.798174 632.499975 115.899736 636.197891 C 115.098955 634.700496 113.002601 633.300756 110.697914 632.402319 L 110.697914 639.199193 Z M 130.203121 639.199193 " transform="matrix(0.6,0,0,0.6,42.799999,-261)"/>
<path style="fill-rule:nonzero;fill:rgb(100%,100%,100%);fill-opacity:1;stroke-width:1;stroke-linecap:butt;stroke-linejoin:miter;stroke:rgb(0%,0%,0%);stroke-opacity:1;stroke-miterlimit:4;" d="M 98.999502 664.199192 L 98.999502 643.802058 C 98.302887 641.197891 95.9982 638.802058 94.403148 638.398412 L 94.403148 620.397111 L 98.101064 622.402319 L 102.397939 641.302058 L 102.397939 664.296849 Z M 98.999502 664.199192 " transform="matrix(-0.6,0,0,0.6,277.220016,-261)"/>
<path style="fill-rule:nonzero;fill:rgb(100%,100%,100%);fill-opacity:1;stroke-width:1;stroke-linecap:butt;stroke-linejoin:miter;stroke:rgb(0%,0%,0%);stroke-opacity:1;stroke-miterlimit:4;" d="M 98.999502 664.296849 L 98.999502 643.802058 C 98.302887 641.197891 95.9982 638.802058 94.403148 638.398412 L 94.403148 619.199194 C 96.903148 619.199194 98.101064 622.402319 98.101064 622.402319 L 102.397939 641.302058 L 102.397939 664.199192 Z M 98.999502 664.296849 " transform="matrix(-0.6,0,0,0.6,277.220016,-261)"/>
<path style="fill-rule:nonzero;fill:rgb(100%,100%,100%);fill-opacity:1;stroke-width:1;stroke-linecap:butt;stroke-linejoin:miter;stroke:rgb(0%,0%,0%);stroke-opacity:1;stroke-miterlimit:4;" d="M 96.297679 669.498671 C 97.996898 668.802057 100.496897 666.601536 100.496897 664.498672 L 100.496897 638.899714 L 99.298981 636.901016 L 142.996896 636.901016 L 141.297677 638.899714 L 141.297677 664.498672 C 141.447417 666.66013 142.7495 668.567682 144.702625 669.498671 Z M 96.297679 669.498671 " transform="matrix(-0.6,0,0,0.6,277.220016,-261)"/>
<path style="fill-rule:nonzero;fill:rgb(100%,100%,100%);fill-opacity:1;stroke-width:1;stroke-linecap:butt;stroke-linejoin:miter;stroke:rgb(0%,0%,0%);stroke-opacity:1;stroke-miterlimit:4;" d="M 135.802886 669.498671 C 134.097157 668.802057 131.597157 666.601536 131.597157 664.498672 L 131.597157 640.201797 L 135.197417 636.79685 L 105.601064 636.79685 L 109.201324 640.201797 L 109.201324 664.498672 C 109.201324 666.601536 106.701324 668.802057 105.002106 669.498671 Z M 135.802886 669.498671 " transform="matrix(-0.6,0,0,0.6,277.220016,-261)"/>
<path style="fill-rule:nonzero;fill:rgb(100%,100%,100%);fill-opacity:1;stroke-width:1;stroke-linecap:butt;stroke-linejoin:miter;stroke:rgb(0%,0%,0%);stroke-opacity:1;stroke-miterlimit:4;" d="M 131.701323 669.498671 C 130.002105 668.802057 127.397938 666.601536 127.397938 664.498672 L 127.397938 642.499974 L 129.800282 639.199193 L 110.998199 639.199193 L 113.400543 642.499974 L 113.400543 664.498672 C 113.400543 666.601536 110.900543 668.802057 109.097158 669.498671 Z M 131.701323 669.498671 " transform="matrix(-0.6,0,0,0.6,277.220016,-261)"/>
<path style="fill-rule:nonzero;fill:rgb(100%,100%,100%);fill-opacity:1;stroke-width:1;stroke-linecap:butt;stroke-linejoin:miter;stroke:rgb(0%,0%,0%);stroke-opacity:1;stroke-miterlimit:4;" d="M 115.998199 639.199193 L 124.897938 639.199193 L 124.897938 669.602838 L 115.900543 669.602838 Z M 115.998199 639.199193 " transform="matrix(-0.6,0,0,0.6,277.220016,-261)"/>
<path style="fill-rule:nonzero;fill:rgb(100%,100%,100%);fill-opacity:1;stroke-width:1;stroke-linecap:butt;stroke-linejoin:bevel;stroke:rgb(0%,0%,0%);stroke-opacity:1;stroke-miterlimit:4;" d="M 103.700022 647.597631 L 107.300283 647.597631 L 107.300283 664.101536 L 103.700022 664.101536 Z M 134.500802 647.597631 L 137.996896 647.597631 L 137.996896 664.101536 L 134.403146 664.101536 Z M 100.601064 619.798152 L 105.002106 619.798152 L 105.002106 636.79685 L 100.601064 636.79685 Z M 100.601064 616.601538 L 104.897939 616.601538 L 104.897939 619.798152 L 100.601064 619.798152 Z M 136.200021 623.502579 L 142.300281 623.502579 L 142.300281 636.497371 L 136.200021 636.497371 Z M 136.200021 623.502579 " transform="matrix(-0.6,0,0,0.6,277.220016,-261)"/>
<path style="fill-rule:nonzero;fill:rgb(100%,100%,100%);fill-opacity:1;stroke-width:1;stroke-linecap:butt;stroke-linejoin:miter;stroke:rgb(0%,0%,0%);stroke-opacity:1;stroke-miterlimit:4;" d="M 104.897939 636.601537 L 104.897939 607.597632 C 106.102366 607.597632 106.297678 611.901017 109.097158 611.901017 C 110.601064 611.901017 110.496897 610.097632 109.59846 608.697892 C 108.901845 607.40232 107.996897 605.703101 109.201324 602.40232 C 110.099762 604.90232 112.300282 605.703101 111.903147 604.199195 C 111.200022 601.497372 109.097158 601.00258 110.69872 596.901018 C 111.200022 600.299455 113.400543 600.201799 112.899241 598.203101 C 112.300282 595.898414 110.998199 594.90232 112.599762 591.699195 C 113.498199 595.397112 114.598459 595.201799 114.598459 592.897112 C 114.598459 589.498674 114.598459 585.898414 118.797678 584.602841 C 118.797678 584.602841 119.097157 581.601539 120.69872 581.601539 C 122.300282 581.601539 122.502105 584.602841 122.502105 584.602841 C 126.79898 585.898414 126.701324 589.602841 126.701324 592.897112 C 126.701324 595.201799 127.801584 595.397112 128.700021 591.699195 C 130.301584 594.90232 128.999501 595.898414 128.400542 598.203101 C 127.89924 600.201799 130.099761 600.299455 130.601063 596.901018 C 132.202625 601.00258 130.099761 601.497372 129.403146 604.199195 C 128.999501 605.703101 131.200021 604.90232 132.098459 602.40232 C 133.302886 605.703101 132.397938 607.40232 131.701323 608.697892 C 130.900542 610.097632 130.698719 611.901017 132.202625 611.901017 C 135.002104 611.901017 135.197417 607.701799 136.401844 607.701799 L 136.401844 636.601537 Z M 97.996898 614.700496 L 97.996898 636.79685 L 100.496897 636.79685 L 100.496897 614.700496 C 99.631012 614.231746 98.797679 614.231746 97.996898 614.700496 Z M 97.996898 614.700496 " transform="matrix(-0.6,0,0,0.6,277.220016,-261)"/>
<path style="fill-rule:nonzero;fill:rgb(100%,100%,100%);fill-opacity:1;stroke-width:1;stroke-linecap:butt;stroke-linejoin:miter;stroke:rgb(0%,0%,0%);stroke-opacity:1;stroke-miterlimit:4;" d="M 98.19872 628.997371 C 101.297679 630.598933 104.403147 632.499975 105.197418 636.79685 L 98.19872 636.79685 Z M 141.401844 622.402319 L 141.401844 636.79685 L 143.400542 636.79685 L 143.400542 622.402319 C 142.736479 622.063777 142.065906 622.063777 141.401844 622.402319 Z M 141.401844 622.402319 " transform="matrix(-0.6,0,0,0.6,277.220016,-261)"/>
<path style="fill-rule:nonzero;fill:rgb(100%,100%,100%);fill-opacity:1;stroke-width:1;stroke-linecap:butt;stroke-linejoin:miter;stroke:rgb(0%,0%,0%);stroke-opacity:1;stroke-miterlimit:4;" d="M 143.400542 628.997371 C 140.301583 630.501277 137.202625 632.298152 136.401844 636.699193 L 143.400542 636.699193 Z M 122.801584 595.299456 L 124.598459 593.80206 L 124.598459 591.796851 C 124.064605 591.796851 123.569813 592.135393 123.101063 592.799456 C 122.710438 591.503883 121.80549 590.416643 120.601063 589.798154 C 119.377105 590.377581 118.439605 591.419247 117.996897 592.701799 C 117.599761 592.102841 117.098459 591.764299 116.499501 591.699195 L 116.499501 593.697893 L 118.302886 595.299456 Z M 122.801584 595.299456 " transform="matrix(-0.6,0,0,0.6,277.220016,-261)"/>
<path style="fill-rule:nonzero;fill:rgb(100%,100%,100%);fill-opacity:1;stroke-width:1;stroke-linecap:butt;stroke-linejoin:miter;stroke:rgb(0%,0%,0%);stroke-opacity:1;stroke-miterlimit:4;" d="M 123.797678 600.201799 L 124.598459 598.300757 L 124.598459 595.800758 C 124.064605 595.800758 123.569813 596.132789 123.101063 596.796851 C 122.710438 595.501278 121.80549 594.420549 120.601063 593.80206 C 119.377105 594.374976 118.439605 595.423153 117.996897 596.699195 C 117.599761 596.100237 117.098459 595.800758 116.499501 595.800758 L 116.499501 598.300757 L 117.300282 600.201799 Z M 123.797678 600.201799 " transform="matrix(-0.6,0,0,0.6,277.220016,-261)"/>
<path style="fill-rule:nonzero;fill:rgb(100%,100%,100%);fill-opacity:1;stroke-width:1;stroke-linecap:butt;stroke-linejoin:miter;stroke:rgb(0%,0%,0%);stroke-opacity:1;stroke-miterlimit:4;" d="M 123.999501 606.796851 L 126.597157 603.50258 L 126.597157 600.299455 C 125.731271 600.299455 125.002105 600.833309 124.403147 601.901018 C 123.700022 599.602841 122.397938 599.199195 120.601063 598.098935 C 118.700022 599.101539 117.397938 599.602841 116.79898 601.796851 C 115.998199 600.703101 115.496897 600.397112 114.500803 600.299455 L 114.500803 603.50258 L 117.202626 606.796851 Z M 123.999501 606.796851 " transform="matrix(-0.6,0,0,0.6,277.220016,-261)"/>
<path style="fill-rule:nonzero;fill:rgb(100%,100%,100%);fill-opacity:1;stroke-width:1;stroke-linecap:butt;stroke-linejoin:miter;stroke:rgb(0%,0%,0%);stroke-opacity:1;stroke-miterlimit:4;" d="M 124.702626 613.300757 C 124.702626 613.300757 127.89924 610.598934 127.996896 609.101538 L 127.996896 605.598934 C 126.79898 605.703101 125.698719 606.00258 124.800282 607.499976 C 123.999501 604.602841 122.801584 603.802059 120.601063 602.499976 C 118.302886 603.802059 117.098459 604.602841 116.401845 607.499976 C 115.399241 606.00258 114.403147 605.703101 113.101064 605.501278 L 113.101064 609.101538 C 113.940907 610.683569 115.060699 612.109351 116.401845 613.300757 Z M 124.702626 613.300757 " transform="matrix(-0.6,0,0,0.6,277.220016,-261)"/>
<path style="fill-rule:nonzero;fill:rgb(100%,100%,100%);fill-opacity:1;stroke-width:1;stroke-linecap:butt;stroke-linejoin:miter;stroke:rgb(0%,0%,0%);stroke-opacity:1;stroke-miterlimit:4;" d="M 125.998199 625.299454 C 125.998199 625.299454 130.39924 620.598934 130.496896 618.697892 L 130.496896 613.300757 C 128.83023 613.430965 127.365386 614.635392 126.102365 616.901017 C 125.23648 612.499976 123.400542 609.231747 120.601063 607.10284 C 117.599761 609.296851 115.998199 612.402319 115.002105 616.901017 C 113.732574 614.635392 112.300282 613.430965 110.69872 613.300757 L 110.69872 618.697892 C 110.998199 620.598934 115.099761 625.299454 115.099761 625.299454 Z M 125.998199 625.299454 " transform="matrix(-0.6,0,0,0.6,277.220016,-261)"/>
<path style="fill-rule:nonzero;fill:rgb(100%,100%,100%);fill-opacity:1;stroke-width:1;stroke-linecap:butt;stroke-linejoin:miter;stroke:rgb(0%,0%,0%);stroke-opacity:1;stroke-miterlimit:4;" d="M 125.998199 632.402319 C 125.998199 632.402319 129.702625 628.697892 130.496896 627.10284 L 130.496896 621.699194 C 128.83023 621.901017 127.365386 623.066381 126.102365 625.201798 C 125.562001 621.523413 123.582834 618.216121 120.601063 616.00258 C 117.599761 618.2031 115.998199 620.7031 115.002105 625.201798 C 113.732574 623.066381 112.300282 621.901017 110.69872 621.699194 L 110.69872 627.10284 C 111.701324 628.697892 115.099761 632.402319 115.099761 632.402319 Z M 125.998199 632.402319 " transform="matrix(-0.6,0,0,0.6,277.220016,-261)"/>
<path style="fill-rule:nonzero;fill:rgb(100%,100%,100%);fill-opacity:1;stroke-width:1;stroke-linecap:butt;stroke-linejoin:miter;stroke:rgb(0%,0%,0%);stroke-opacity:1;stroke-miterlimit:4;" d="M 127.502105 636.601537 C 126.499501 631.901017 125.496896 628.398413 120.39924 624.902319 C 115.197418 628.398413 114.29898 631.901017 113.19872 636.601537 Z M 127.502105 636.601537 " transform="matrix(-0.6,0,0,0.6,277.220016,-261)"/>
<path style="fill-rule:nonzero;fill:rgb(100%,100%,100%);fill-opacity:1;stroke-width:1;stroke-linecap:butt;stroke-linejoin:miter;stroke:rgb(0%,0%,0%);stroke-opacity:1;stroke-miterlimit:4;" d="M 130.197417 639.199193 L 130.197417 632.402319 C 127.801584 633.398412 125.698719 634.700496 124.897938 636.197891 C 124.097157 632.402319 122.397938 630.800756 120.301584 628.502579 C 118.19872 630.800756 116.79898 632.499975 115.900543 636.197891 C 115.099761 634.700496 112.996897 633.300756 110.69872 632.402319 L 110.69872 639.199193 Z M 130.197417 639.199193 " transform="matrix(-0.6,0,0,0.6,277.220016,-261)"/>
<path style="fill-rule:nonzero;fill:rgb(100%,100%,100%);fill-opacity:1;stroke-width:1;stroke-linecap:butt;stroke-linejoin:miter;stroke:rgb(0%,0%,0%);stroke-opacity:1;stroke-miterlimit:4;" d="M 72.703123 694.296847 L 318.002593 694.296847 L 318.002593 706.796847 L 72.703123 706.796847 Z M 66.199217 706.796847 L 324.499988 706.796847 L 324.499988 719.296846 L 66.199217 719.296846 Z M 85.600258 675.501275 L 305.001291 675.501275 L 305.001291 683.600233 L 85.600258 683.600233 Z M 85.600258 675.501275 " transform="matrix(0.6,0,0,0.6,42.799999,-261)"/>
<path style="fill-rule:nonzero;fill:rgb(100%,100%,100%);fill-opacity:1;stroke-width:1;stroke-linecap:butt;stroke-linejoin:miter;stroke:rgb(0%,0%,0%);stroke-opacity:1;stroke-miterlimit:4;" d="M 79.200519 683.600233 L 311.602853 683.600233 L 311.602853 694.199191 L 79.200519 694.199191 Z M 89.402341 669.296848 L 301.401031 669.296848 L 301.401031 675.501275 L 89.402341 675.501275 Z M 89.402341 669.296848 " transform="matrix(0.6,0,0,0.6,42.799999,-261)"/>
<path style="fill-rule:nonzero;fill:rgb(100%,100%,100%);fill-opacity:1;stroke-width:1;stroke-linecap:butt;stroke-linejoin:miter;stroke:rgb(0%,0%,0%);stroke-opacity:1;stroke-miterlimit:4;" d="M 112.397132 669.296848 L 128.399736 669.296848 L 128.399736 719.296846 L 112.397132 719.296846 Z M 112.397132 669.296848 " transform="matrix(0.6,0,0,0.6,42.799999,-261)"/>
<path style="fill-rule:nonzero;fill:rgb(100%,100%,100%);fill-opacity:1;stroke-width:1;stroke-linecap:butt;stroke-linejoin:miter;stroke:rgb(0%,0%,0%);stroke-opacity:1;stroke-miterlimit:4;" d="M 115.997392 669.296848 L 124.897132 669.296848 L 124.897132 719.296846 L 115.899736 719.296846 Z M 186.999994 669.296848 L 203.002597 669.296848 L 203.002597 719.296846 L 186.999994 719.296846 Z M 186.999994 669.296848 " transform="matrix(0.6,0,0,0.6,42.799999,-261)"/>
<path style="fill-rule:nonzero;fill:rgb(100%,100%,100%);fill-opacity:1;stroke-width:1;stroke-linecap:butt;stroke-linejoin:miter;stroke:rgb(0%,0%,0%);stroke-opacity:1;stroke-miterlimit:4;" d="M 190.69791 669.296848 L 199.701816 669.296848 L 199.701816 719.296846 L 190.69791 719.296846 Z M 262.201814 669.296848 L 278.197907 669.296848 L 278.197907 719.296846 L 262.201814 719.296846 Z M 262.201814 669.296848 " transform="matrix(0.6,0,0,0.6,42.799999,-261)"/>
<path style="fill-rule:nonzero;fill:rgb(100%,100%,100%);fill-opacity:1;stroke-width:1;stroke-linecap:butt;stroke-linejoin:miter;stroke:rgb(0%,0%,0%);stroke-opacity:1;stroke-miterlimit:4;" d="M 265.697907 669.296848 L 274.701813 669.296848 L 274.701813 719.296846 L 265.697907 719.296846 Z M 265.697907 669.296848 " transform="matrix(0.6,0,0,0.6,42.799999,-261)"/>
<path style="fill:none;stroke-width:1;stroke-linecap:butt;stroke-linejoin:miter;stroke:rgb(0%,0%,0%);stroke-opacity:1;stroke-miterlimit:4;" d="M 98.998695 664.199192 L 291.99999 664.199192 M 115.80208 713.001274 L 125.001298 713.001274 M 115.80208 706.699191 L 125.001298 706.699191 M 115.80208 700.501274 L 125.001298 700.501274 M 115.80208 694.199191 L 125.001298 694.199191 M 115.80208 688.001275 L 125.001298 688.001275 M 115.80208 681.699192 L 125.001298 681.699192 M 115.80208 675.501275 L 125.001298 675.501275 M 190.802077 713.001274 L 199.402337 713.001274 M 190.802077 706.699191 L 199.402337 706.699191 M 190.802077 700.501274 L 199.402337 700.501274 M 190.802077 694.199191 L 199.402337 694.199191 M 190.802077 688.001275 L 199.402337 688.001275 M 190.802077 681.699192 L 199.402337 681.699192 M 190.802077 675.501275 L 199.402337 675.501275 M 265.600251 713.001274 L 274.79947 713.001274 M 265.600251 706.699191 L 274.79947 706.699191 M 265.600251 700.501274 L 274.79947 700.501274 M 265.600251 694.199191 L 274.79947 694.199191 M 265.600251 688.001275 L 274.79947 688.001275 M 265.600251 681.699192 L 274.79947 681.699192 M 265.600251 675.501275 L 274.79947 675.501275 " transform="matrix(0.6,0,0,0.6,42.799999,-261)"/>
</g>
</svg>
