<?xml version="1.0" encoding="UTF-8"?>
<svg xmlns="http://www.w3.org/2000/svg" xmlns:xlink="http://www.w3.org/1999/xlink" width="px" height="px" viewBox="0 0 320 240" version="1.1">
<defs>
<clipPath id="clip1">
  <path d="M 0.015625 0 L 319.984375 0 L 319.984375 240 L 0.015625 240 Z M 0.015625 0 "/>
</clipPath>
<clipPath id="clip2">
  <path d="M 0.015625 60 L 319.984375 60 L 319.984375 180 L 0.015625 180 Z M 0.015625 60 "/>
</clipPath>
</defs>
<g id="surface1">
<g clip-path="url(#clip1)" clip-rule="nonzero">
<path style=" stroke:none;fill-rule:evenodd;fill:rgb(93.333334%,8.627451%,12.156863%);fill-opacity:1;" d="M -20 180 L 340 180 L 340 240 L -20 240 Z M -20 0 L 340 0 L 340 60 L -20 60 Z M -20 0 "/>
</g>
<g clip-path="url(#clip2)" clip-rule="nonzero">
<path style=" stroke:none;fill-rule:evenodd;fill:rgb(100%,100%,100%);fill-opacity:1;" d="M -20 60 L 340 60 L 340 180 L -20 180 Z M -20 60 "/>
</g>
<path style=" stroke:none;fill-rule:nonzero;fill:rgb(0%,65.882355%,31.37255%);fill-opacity:1;" d="M 158.171875 60.9375 C 154.515625 68.203125 152.078125 68.203125 145.984375 73.125 C 143.546875 75.515625 139.890625 76.734375 144.765625 79.21875 C 139.84375 81.609375 137.40625 82.828125 134.96875 87.703125 L 136.1875 88.921875 C 136.1875 88.921875 140.875 86.671875 141.0625 87.703125 C 141.90625 88.6875 134.96875 92.390625 134.078125 93 L 128.921875 96.28125 C 122.78125 101.109375 119.078125 99.890625 115.46875 107.203125 L 127.65625 105.984375 C 130.09375 114.515625 121.5625 115.734375 115.46875 119.390625 L 105.671875 125.484375 C 108.15625 134.015625 115.46875 129.140625 121.5625 126.703125 L 122.78125 127.921875 L 122.78125 130.359375 L 110.59375 136.453125 C 110.59375 136.453125 96.15625 144.703125 95.921875 144.984375 C 95.828125 145.453125 95.921875 147.421875 95.921875 147.421875 C 100.796875 148.640625 108.109375 149.859375 113.03125 147.421875 C 119.125 144.984375 120.34375 142.546875 127.65625 142.546875 C 120.613281 148.03125 112.164062 151.410156 103.28125 152.296875 L 103.28125 157.171875 C 110.59375 157.171875 115.46875 157.171875 121.5625 155.953125 L 137.40625 151.078125 C 141.0625 151.078125 144.765625 154.734375 143.5 158.390625 C 139.890625 171.796875 125.21875 169.359375 120.34375 180.328125 L 139.84375 172.96875 C 144.71875 170.53125 149.59375 168.140625 155.6875 169.359375 C 163 171.796875 163 176.671875 172.75 179.109375 L 170.3125 173.015625 C 172.75 174.234375 175.1875 174.234375 177.671875 175.453125 C 183.765625 177.890625 184.984375 180.328125 192.296875 179.109375 C 186.203125 171.796875 184.984375 173.015625 180.109375 168.140625 C 175.234375 160.828125 172.75 149.859375 180.109375 148.640625 L 188.640625 151.078125 C 197.171875 152.296875 197.171875 149.859375 209.359375 154.734375 C 216.71875 157.171875 219.15625 160.828125 227.640625 158.390625 C 224.03125 149.859375 210.625 143.765625 202.046875 141.328125 C 211.84375 135.234375 209.359375 143.765625 222.8125 140.109375 L 222.8125 137.671875 C 213.109375 130.3125 209.40625 124.21875 196 124.21875 L 216.765625 121.78125 L 216.765625 119.34375 C 216.765625 119.34375 196.28125 114 195.8125 113.765625 C 195.953125 113.15625 196.46875 112.21875 197.828125 111.65625 C 201.71875 114.1875 213.4375 113.90625 214.140625 113.859375 C 213.765625 110.859375 208.1875 108.375 203.359375 105.9375 C 203.359375 105.9375 182.40625 93.046875 182.3125 91.921875 C 182.734375 88.640625 190.890625 92.4375 199.65625 94.96875 C 197.21875 90.09375 192.34375 87.65625 187.46875 86.4375 L 194.78125 85.21875 C 189.90625 74.25 177.71875 75.46875 170.40625 70.59375 C 165.484375 66.9375 165.484375 64.5 158.171875 60.890625 Z M 158.171875 60.9375 "/>
<path style="fill-rule:evenodd;fill:rgb(100%,100%,100%);fill-opacity:1;stroke-width:3.2;stroke-linecap:round;stroke-linejoin:round;stroke:rgb(100%,100%,100%);stroke-opacity:1;stroke-miterlimit:4;" d="M 224 303 C 225.9 296.9 228.4 291.4 216.8 286.1 C 205.2 280.8 222.6 307.2 224 303.1 Z M 237.7 290.7 C 235.4 291 234.1 299.5 238.8 301.9 C 244 302.7 239.8 290.8 237.7 290.7 M 251.2 289.7 C 248.8 290.5 248.7 302.5 257.2 300.3 C 265.8 298.2 257.2 288.8 251.2 289.8 Z M 267 259 C 268.8 256 266.9 244 259.6 249 C 252.3 254 264.6 259.8 267 259 M 251 249 C 253.3 248.1 253.5 240.7 247 242.7 C 240.7 244.6 249.3 250.5 251 249 M 236.6 251.9 C 236.6 251.9 232.1 245.7 228.6 247 C 224.3 251.2 236.9 252 236.6 251.9 M 187 271.7 C 188.9 271.9 203 269.4 207.9 263.9 C 212.8 258.4 182.8 266.2 182.8 266.3 C 182.8 266.4 185.6 271.2 187 271.7 M 328.1 236.7 C 328.8 235.4 320.6 229.6 315.7 231.9 C 314.4 236.2 328.1 237.6 328.1 236.7 M 300.3 222.7 C 301.9 220.5 296.8 211.4 286.6 216.5 C 276.4 221.5 297.3 226.3 300.3 222.8 Z M 268.2 217.4 C 268.2 217.4 270.7 209.2 276.8 210.8 C 283.8 216.1 268.5 217.7 268.2 217.4 M 262.2 211.2 C 261.2 208.9 254.9 210.2 247.6 215.1 C 240.2 219.8 264.4 216.5 262.2 211.1 Z M 280.9 189.1 C 280.9 189.1 287.4 186.1 289.4 189.1 C 292.1 193.4 280.8 189.1 280.9 189.1 M 275.4 186.2 C 274.1 183.6 266.9 183.3 267.1 187.2 C 265.9 190.2 276.5 189.6 275.4 186.2 M 258.2 186.2 C 257.5 184.7 247.2 186.2 244.2 192.4 C 249.2 194.8 260.5 190.1 258.2 186.2 M 236.2 192.5 C 236.2 192.5 222.8 200.8 221.9 206.8 C 222.3 212 238.7 197.4 238.7 197.4 C 238.7 197.4 240.1 191.6 236.3 192.5 Z M 221.3 185 C 221.7 183.3 228 179.4 228.5 179.7 C 229 181.4 223.4 186 221.3 185 M 225.6 216.6 C 225.9 214.1 209.6 214.3 215.7 221.8 C 220.9 228.1 226.7 217.7 225.6 216.6 M 210.6 227.3 C 209.8 225.7 208.6 221.3 206.4 220.9 C 204.5 220.9 194.7 222.9 193.9 224.5 C 193.5 225.8 198 233.9 199.5 234.1 C 201.3 234.8 210.4 228.1 210.7 227.3 Z M 299 282.5 C 299.5 280.7 316.3 275 322 280.5 C 328.8 289.8 298.6 285.5 299 282.5 M 345 293.4 C 348.7 287.2 333.7 279.8 327.4 286.9 C 329.6 295.4 342 298.5 345 293.4 " transform="matrix(0.46875,0,0,0.46875,40,0)"/>
</g>
</svg>
