<?xml version="1.0" encoding="UTF-8"?>
<svg xmlns="http://www.w3.org/2000/svg" xmlns:xlink="http://www.w3.org/1999/xlink" width="px" height="px" viewBox="0 0 320 240" version="1.1">
<g id="surface1">
<path style=" stroke:none;fill-rule:nonzero;fill:rgb(0%,16.862746%,49.803922%);fill-opacity:1;" d="M 0 0 L 320 0 L 320 120 L 0 120 Z M 0 0 "/>
<path style=" stroke:none;fill-rule:nonzero;fill:rgb(80.784315%,6.666667%,14.901961%);fill-opacity:1;" d="M 0 120 L 320 120 L 320 240 L 0 240 Z M 0 120 "/>
<path style=" stroke:none;fill-rule:nonzero;fill:rgb(100%,84.705883%,23.921569%);fill-opacity:1;" d="M 86.558594 48.921875 L 85.800781 73.921875 L 60.441406 73.921875 C 57.320312 67.839844 54.761719 62.71875 54.761719 55.71875 C 54.761719 49.878906 59.359375 45.238281 65.960938 45.238281 C 72.960938 45.238281 80.679688 47.601562 86.558594 48.921875 "/>
<path style="fill-rule:nonzero;fill:rgb(100%,84.705883%,23.921569%);fill-opacity:1;stroke-width:1.5;stroke-linecap:round;stroke-linejoin:round;stroke:rgb(0%,0%,0%);stroke-opacity:1;stroke-miterlimit:4;" d="M 144.501951 125.195311 L 144.501951 161.201169 M 149.501951 121.503904 L 149.501951 169.501951 M 154.697263 119.003904 L 154.697263 176.201169 M 159.697263 117.802733 L 159.697263 162.69531 M 164.804685 117.597654 L 164.804685 162.900388 M 169.902341 115.898436 L 169.902341 162.900388 M 174.999997 115.898436 L 174.999997 162.900388 M 180.097654 116.396483 L 180.097654 163.398435 M 185.19531 116.904295 L 185.19531 163.798826 M 190.302732 119.804686 L 190.302732 166.796873 M 195.302731 120.302733 L 195.302731 173.203122 M 200.498044 120.302733 L 200.498044 167.304685 M 205.498044 120.302733 L 205.498044 167.304685 " transform="matrix(0.4,0,0,0.4,0,0)"/>
<path style="fill-rule:nonzero;fill:rgb(0%,0%,0.392157%);fill-opacity:1;stroke-width:1.5;stroke-linecap:round;stroke-linejoin:round;stroke:rgb(0%,0%,0%);stroke-opacity:1;stroke-miterlimit:4;" d="M 176.396482 117.998045 C 187.197263 119.697264 210.800778 130.800779 208.0957 145.703123 C 204.296872 166.904294 191.904294 158.398435 175.498044 155.400388 L 163.095701 159.501951 C 158.603513 164.003904 152.099607 168.203122 147.69531 162.69531 L 140.302732 162.69531 L 140.302732 191.503903 L 221.699215 191.503903 L 221.699215 122.001951 Z M 176.396482 117.998045 " transform="matrix(0.4,0,0,0.4,0,0)"/>
<path style="fill-rule:nonzero;fill:rgb(100%,84.705883%,23.921569%);fill-opacity:1;stroke-width:2;stroke-linecap:round;stroke-linejoin:round;stroke:rgb(0%,0%,0%);stroke-opacity:1;stroke-miterlimit:4;" d="M 217.695309 112.998045 C 217.695309 110.292967 215.507809 108.095702 212.802731 108.095702 C 210.097653 108.095702 207.900388 110.292967 207.900388 112.998045 C 207.900388 115.703123 210.097653 117.900389 212.802731 117.900389 C 215.507809 117.900389 217.695309 115.703123 217.695309 112.998045 Z M 217.695309 112.998045 " transform="matrix(0.4,0,0,0.4,0,0)"/>
<path style="fill-rule:nonzero;fill:rgb(100%,84.705883%,23.921569%);fill-opacity:1;stroke-width:2;stroke-linecap:round;stroke-linejoin:round;stroke:rgb(0%,0%,0%);stroke-opacity:1;stroke-miterlimit:4;" d="M 206.601559 110.302733 C 206.601559 107.597655 204.404294 105.400389 201.699216 105.400389 C 198.994138 105.400389 196.796872 107.597655 196.796872 110.302733 C 196.796872 113.007811 198.994138 115.195311 201.699216 115.195311 C 204.404294 115.195311 206.601559 113.007811 206.601559 110.302733 Z M 206.601559 110.302733 " transform="matrix(0.4,0,0,0.4,0,0)"/>
<path style="fill-rule:nonzero;fill:rgb(100%,84.705883%,23.921569%);fill-opacity:1;stroke-width:2;stroke-linecap:round;stroke-linejoin:round;stroke:rgb(0%,0%,0%);stroke-opacity:1;stroke-miterlimit:4;" d="M 195.302731 107.499998 C 195.302731 104.79492 193.105466 102.597655 190.400388 102.597655 C 187.69531 102.597655 185.498044 104.79492 185.498044 107.499998 C 185.498044 110.205076 187.69531 112.402342 190.400388 112.402342 C 193.105466 112.402342 195.302731 110.205076 195.302731 107.499998 Z M 195.302731 107.499998 " transform="matrix(0.4,0,0,0.4,0,0)"/>
<path style="fill-rule:nonzero;fill:rgb(100%,84.705883%,23.921569%);fill-opacity:1;stroke-width:2;stroke-linecap:round;stroke-linejoin:round;stroke:rgb(0%,0%,0%);stroke-opacity:1;stroke-miterlimit:4;" d="M 184.003904 105.595702 C 184.003904 102.890623 181.806638 100.703123 179.10156 100.703123 C 176.396482 100.703123 174.199216 102.890623 174.199216 105.595702 C 174.199216 108.310545 176.396482 110.498045 179.10156 110.498045 C 181.806638 110.498045 184.003904 108.310545 184.003904 105.595702 Z M 184.003904 105.595702 " transform="matrix(0.4,0,0,0.4,0,0)"/>
<path style="fill-rule:nonzero;fill:rgb(100%,84.705883%,23.921569%);fill-opacity:1;stroke-width:2;stroke-linecap:round;stroke-linejoin:round;stroke:rgb(0%,0%,0%);stroke-opacity:1;stroke-miterlimit:4;" d="M 172.69531 104.501952 C 172.69531 101.796873 170.50781 99.599608 167.802732 99.599608 C 165.097654 99.599608 162.900388 101.796873 162.900388 104.501952 C 162.900388 107.20703 165.097654 109.404295 167.802732 109.404295 C 170.50781 109.404295 172.69531 107.20703 172.69531 104.501952 Z M 172.69531 104.501952 " transform="matrix(0.4,0,0,0.4,0,0)"/>
<path style="fill-rule:nonzero;fill:rgb(100%,84.705883%,23.921569%);fill-opacity:1;stroke-width:2;stroke-linecap:round;stroke-linejoin:round;stroke:rgb(0%,0%,0%);stroke-opacity:1;stroke-miterlimit:4;" d="M 161.699216 105.097655 C 161.699216 102.392577 159.501951 100.195311 156.796873 100.195311 C 154.091795 100.195311 151.904295 102.392577 151.904295 105.097655 C 151.904295 107.802733 154.091795 109.999998 156.796873 109.999998 C 159.501951 109.999998 161.699216 107.802733 161.699216 105.097655 Z M 161.699216 105.097655 " transform="matrix(0.4,0,0,0.4,0,0)"/>
<path style="fill-rule:nonzero;fill:rgb(100%,84.705883%,23.921569%);fill-opacity:1;stroke-width:2;stroke-linecap:round;stroke-linejoin:round;stroke:rgb(0%,0%,0%);stroke-opacity:1;stroke-miterlimit:4;" d="M 151.103513 108.70117 C 151.103513 105.996092 148.906248 103.798827 146.20117 103.798827 C 143.496092 103.798827 141.298826 105.996092 141.298826 108.70117 C 141.298826 111.406248 143.496092 113.603514 146.20117 113.603514 C 148.906248 113.603514 151.103513 111.406248 151.103513 108.70117 Z M 151.103513 108.70117 " transform="matrix(0.4,0,0,0.4,0,0)"/>
<path style="fill-rule:nonzero;fill:rgb(100%,84.705883%,23.921569%);fill-opacity:1;stroke-width:2;stroke-linecap:round;stroke-linejoin:round;stroke:rgb(0%,0%,0%);stroke-opacity:1;stroke-miterlimit:4;" d="M 142.197264 115.302733 C 142.197264 112.597655 140.009764 110.400389 137.304685 110.400389 C 134.589842 110.400389 132.402342 112.597655 132.402342 115.302733 C 132.402342 118.007811 134.589842 120.195311 137.304685 120.195311 C 140.009764 120.195311 142.197264 118.007811 142.197264 115.302733 Z M 142.197264 115.302733 " transform="matrix(0.4,0,0,0.4,0,0)"/>
<path style="fill-rule:nonzero;fill:rgb(100%,84.705883%,23.921569%);fill-opacity:1;stroke-width:2;stroke-linecap:round;stroke-linejoin:round;stroke:rgb(0%,0%,0%);stroke-opacity:1;stroke-miterlimit:4;" d="M 135.898435 124.404295 C 135.898435 121.689451 133.710936 119.501951 130.996092 119.501951 C 128.291014 119.501951 126.103514 121.689451 126.103514 124.404295 C 126.103514 127.109373 128.291014 129.296873 130.996092 129.296873 C 133.710936 129.296873 135.898435 127.109373 135.898435 124.404295 Z M 135.898435 124.404295 " transform="matrix(0.4,0,0,0.4,0,0)"/>
<path style="fill-rule:nonzero;fill:rgb(100%,84.705883%,23.921569%);fill-opacity:1;stroke-width:2;stroke-linecap:round;stroke-linejoin:round;stroke:rgb(0%,0%,0%);stroke-opacity:1;stroke-miterlimit:4;" d="M 132.802732 135.19531 C 132.802732 132.490232 130.605467 130.302732 127.900389 130.302732 C 125.195311 130.302732 122.998045 132.490232 122.998045 135.19531 C 122.998045 137.910154 125.195311 140.097654 127.900389 140.097654 C 130.605467 140.097654 132.802732 137.910154 132.802732 135.19531 Z M 132.802732 135.19531 " transform="matrix(0.4,0,0,0.4,0,0)"/>
<path style="fill-rule:nonzero;fill:rgb(100%,84.705883%,23.921569%);fill-opacity:1;stroke-width:2;stroke-linecap:round;stroke-linejoin:round;stroke:rgb(0%,0%,0%);stroke-opacity:1;stroke-miterlimit:4;" d="M 132.900389 146.298826 C 132.900389 143.593748 130.703123 141.396482 127.998045 141.396482 C 125.292967 141.396482 123.095701 143.593748 123.095701 146.298826 C 123.095701 149.003904 125.292967 151.20117 127.998045 151.20117 C 130.703123 151.20117 132.900389 149.003904 132.900389 146.298826 Z M 132.900389 146.298826 " transform="matrix(0.4,0,0,0.4,0,0)"/>
<path style="fill-rule:nonzero;fill:rgb(100%,84.705883%,23.921569%);fill-opacity:1;stroke-width:2;stroke-linecap:round;stroke-linejoin:round;stroke:rgb(0%,0%,0%);stroke-opacity:1;stroke-miterlimit:4;" d="M 135.097654 157.197263 C 135.097654 154.492185 132.910154 152.304685 130.195311 152.304685 C 127.490232 152.304685 125.302733 154.492185 125.302733 157.197263 C 125.302733 159.902341 127.490232 162.099607 130.195311 162.099607 C 132.910154 162.099607 135.097654 159.902341 135.097654 157.197263 Z M 135.097654 157.197263 " transform="matrix(0.4,0,0,0.4,0,0)"/>
<path style="fill-rule:nonzero;fill:rgb(100%,84.705883%,23.921569%);fill-opacity:1;stroke-width:2;stroke-linecap:round;stroke-linejoin:round;stroke:rgb(0%,0%,0%);stroke-opacity:1;stroke-miterlimit:4;" d="M 214.999997 119.501951 L 214.50195 125.996092 C 202.197263 124.003904 184.804685 117.197264 168.496091 117.197264 C 153.496091 117.197264 141.904295 123.203123 141.904295 138.398435 C 141.904295 153.300779 148.203123 166.904294 156.60156 180.703122 L 147.900388 184.697263 C 140.097654 169.697263 133.603514 156.699216 133.603514 139.296873 C 133.603514 124.697264 145.097654 110.302733 164.902341 110.302733 C 182.402341 110.302733 200.302731 116.298826 214.999997 119.501951 " transform="matrix(0.4,0,0,0.4,0,0)"/>
<path style=" stroke:none;fill-rule:nonzero;fill:rgb(100%,84.705883%,23.921569%);fill-opacity:1;" d="M 91.039062 48.921875 L 91.800781 73.921875 L 117.160156 73.921875 C 120.28125 67.839844 122.839844 62.71875 122.839844 55.71875 C 122.839844 49.878906 118.238281 45.238281 111.640625 45.238281 C 104.640625 45.238281 96.921875 47.601562 91.039062 48.921875 "/>
<path style="fill-rule:nonzero;fill:rgb(100%,84.705883%,23.921569%);fill-opacity:1;stroke-width:1.5;stroke-linecap:round;stroke-linejoin:round;stroke:rgb(0%,0%,0%);stroke-opacity:1;stroke-miterlimit:4;" d="M 144.498051 125.195311 L 144.498051 161.201169 M 149.498051 121.503904 L 149.498051 169.501951 M 154.703129 119.003904 L 154.703129 176.201169 M 159.703129 117.802733 L 159.703129 162.69531 M 164.800785 117.597654 L 164.800785 162.900388 M 169.898442 115.898436 L 169.898442 162.900388 M 174.996098 115.898436 L 174.996098 162.900388 M 180.10352 116.396483 L 180.10352 163.398435 M 185.201176 116.904295 L 185.201176 163.798826 M 190.298832 119.804686 L 190.298832 166.796873 M 195.298832 120.302733 L 195.298832 173.203122 M 200.50391 120.302733 L 200.50391 167.304685 M 205.50391 120.302733 L 205.50391 167.304685 " transform="matrix(-0.4,0,0,0.4,177.600003,0)"/>
<path style="fill-rule:nonzero;fill:rgb(0%,0%,0.392157%);fill-opacity:1;stroke-width:1.5;stroke-linecap:round;stroke-linejoin:round;stroke:rgb(0%,0%,0%);stroke-opacity:1;stroke-miterlimit:4;" d="M 176.402348 117.998045 C 187.203129 119.697264 210.796878 130.800779 208.101566 145.703123 C 204.302738 166.904294 191.900394 158.398435 175.50391 155.400388 L 163.101567 159.501951 C 158.599614 164.003904 152.095707 168.203122 147.701176 162.69531 L 140.298833 162.69531 L 140.298833 191.503903 L 221.695316 191.503903 L 221.695316 122.001951 Z M 176.402348 117.998045 " transform="matrix(-0.4,0,0,0.4,177.600003,0)"/>
<path style="fill-rule:nonzero;fill:rgb(100%,84.705883%,23.921569%);fill-opacity:1;stroke-width:2;stroke-linecap:round;stroke-linejoin:round;stroke:rgb(0%,0%,0%);stroke-opacity:1;stroke-miterlimit:4;" d="M 217.701175 112.998045 C 217.701175 110.292967 215.50391 108.095702 212.798832 108.095702 C 210.093753 108.095702 207.896488 110.292967 207.896488 112.998045 C 207.896488 115.703123 210.093753 117.900389 212.798832 117.900389 C 215.50391 117.900389 217.701175 115.703123 217.701175 112.998045 Z M 217.701175 112.998045 " transform="matrix(-0.4,0,0,0.4,177.600003,0)"/>
<path style="fill-rule:nonzero;fill:rgb(100%,84.705883%,23.921569%);fill-opacity:1;stroke-width:2;stroke-linecap:round;stroke-linejoin:round;stroke:rgb(0%,0%,0%);stroke-opacity:1;stroke-miterlimit:4;" d="M 206.59766 110.302733 C 206.59766 107.597655 204.41016 105.400389 201.695316 105.400389 C 198.990238 105.400389 196.802738 107.597655 196.802738 110.302733 C 196.802738 113.007811 198.990238 115.195311 201.695316 115.195311 C 204.41016 115.195311 206.59766 113.007811 206.59766 110.302733 Z M 206.59766 110.302733 " transform="matrix(-0.4,0,0,0.4,177.600003,0)"/>
<path style="fill-rule:nonzero;fill:rgb(100%,84.705883%,23.921569%);fill-opacity:1;stroke-width:2;stroke-linecap:round;stroke-linejoin:round;stroke:rgb(0%,0%,0%);stroke-opacity:1;stroke-miterlimit:4;" d="M 195.298832 107.499998 C 195.298832 104.79492 193.101566 102.597655 190.396488 102.597655 C 187.69141 102.597655 185.50391 104.79492 185.50391 107.499998 C 185.50391 110.205076 187.69141 112.402342 190.396488 112.402342 C 193.101566 112.402342 195.298832 110.205076 195.298832 107.499998 Z M 195.298832 107.499998 " transform="matrix(-0.4,0,0,0.4,177.600003,0)"/>
<path style="fill-rule:nonzero;fill:rgb(100%,84.705883%,23.921569%);fill-opacity:1;stroke-width:2;stroke-linecap:round;stroke-linejoin:round;stroke:rgb(0%,0%,0%);stroke-opacity:1;stroke-miterlimit:4;" d="M 184.000004 105.595702 C 184.000004 102.890623 181.802738 100.703123 179.09766 100.703123 C 176.392582 100.703123 174.195317 102.890623 174.195317 105.595702 C 174.195317 108.310545 176.392582 110.498045 179.09766 110.498045 C 181.802738 110.498045 184.000004 108.310545 184.000004 105.595702 Z M 184.000004 105.595702 " transform="matrix(-0.4,0,0,0.4,177.600003,0)"/>
<path style="fill-rule:nonzero;fill:rgb(100%,84.705883%,23.921569%);fill-opacity:1;stroke-width:2;stroke-linecap:round;stroke-linejoin:round;stroke:rgb(0%,0%,0%);stroke-opacity:1;stroke-miterlimit:4;" d="M 172.701176 104.501952 C 172.701176 101.796873 170.50391 99.599608 167.798832 99.599608 C 165.093754 99.599608 162.896489 101.796873 162.896489 104.501952 C 162.896489 107.20703 165.093754 109.404295 167.798832 109.404295 C 170.50391 109.404295 172.701176 107.20703 172.701176 104.501952 Z M 172.701176 104.501952 " transform="matrix(-0.4,0,0,0.4,177.600003,0)"/>
<path style="fill-rule:nonzero;fill:rgb(100%,84.705883%,23.921569%);fill-opacity:1;stroke-width:2;stroke-linecap:round;stroke-linejoin:round;stroke:rgb(0%,0%,0%);stroke-opacity:1;stroke-miterlimit:4;" d="M 161.695317 105.097655 C 161.695317 102.392577 159.507817 100.195311 156.802739 100.195311 C 154.097661 100.195311 151.900395 102.392577 151.900395 105.097655 C 151.900395 107.802733 154.097661 109.999998 156.802739 109.999998 C 159.507817 109.999998 161.695317 107.802733 161.695317 105.097655 Z M 161.695317 105.097655 " transform="matrix(-0.4,0,0,0.4,177.600003,0)"/>
<path style="fill-rule:nonzero;fill:rgb(100%,84.705883%,23.921569%);fill-opacity:1;stroke-width:2;stroke-linecap:round;stroke-linejoin:round;stroke:rgb(0%,0%,0%);stroke-opacity:1;stroke-miterlimit:4;" d="M 151.099614 108.70117 C 151.099614 105.996092 148.902348 103.798827 146.19727 103.798827 C 143.492192 103.798827 141.304692 105.996092 141.304692 108.70117 C 141.304692 111.406248 143.492192 113.603514 146.19727 113.603514 C 148.902348 113.603514 151.099614 111.406248 151.099614 108.70117 Z M 151.099614 108.70117 " transform="matrix(-0.4,0,0,0.4,177.600003,0)"/>
<path style="fill-rule:nonzero;fill:rgb(100%,84.705883%,23.921569%);fill-opacity:1;stroke-width:2;stroke-linecap:round;stroke-linejoin:round;stroke:rgb(0%,0%,0%);stroke-opacity:1;stroke-miterlimit:4;" d="M 142.203129 115.302733 C 142.203129 112.597655 140.005864 110.400389 137.300786 110.400389 C 134.595708 110.400389 132.398442 112.597655 132.398442 115.302733 C 132.398442 118.007811 134.595708 120.195311 137.300786 120.195311 C 140.005864 120.195311 142.203129 118.007811 142.203129 115.302733 Z M 142.203129 115.302733 " transform="matrix(-0.4,0,0,0.4,177.600003,0)"/>
<path style="fill-rule:nonzero;fill:rgb(100%,84.705883%,23.921569%);fill-opacity:1;stroke-width:2;stroke-linecap:round;stroke-linejoin:round;stroke:rgb(0%,0%,0%);stroke-opacity:1;stroke-miterlimit:4;" d="M 135.904301 124.404295 C 135.904301 121.689451 133.707036 119.501951 131.001958 119.501951 C 128.29688 119.501951 126.099614 121.689451 126.099614 124.404295 C 126.099614 127.109373 128.29688 129.296873 131.001958 129.296873 C 133.707036 129.296873 135.904301 127.109373 135.904301 124.404295 Z M 135.904301 124.404295 " transform="matrix(-0.4,0,0,0.4,177.600003,0)"/>
<path style="fill-rule:nonzero;fill:rgb(100%,84.705883%,23.921569%);fill-opacity:1;stroke-width:2;stroke-linecap:round;stroke-linejoin:round;stroke:rgb(0%,0%,0%);stroke-opacity:1;stroke-miterlimit:4;" d="M 132.798833 135.19531 C 132.798833 132.490232 130.601567 130.302732 127.896489 130.302732 C 125.191411 130.302732 123.003911 132.490232 123.003911 135.19531 C 123.003911 137.910154 125.191411 140.097654 127.896489 140.097654 C 130.601567 140.097654 132.798833 137.910154 132.798833 135.19531 Z M 132.798833 135.19531 " transform="matrix(-0.4,0,0,0.4,177.600003,0)"/>
<path style="fill-rule:nonzero;fill:rgb(100%,84.705883%,23.921569%);fill-opacity:1;stroke-width:2;stroke-linecap:round;stroke-linejoin:round;stroke:rgb(0%,0%,0%);stroke-opacity:1;stroke-miterlimit:4;" d="M 132.896489 146.298826 C 132.896489 143.593748 130.708989 141.396482 128.003911 141.396482 C 125.289067 141.396482 123.101567 143.593748 123.101567 146.298826 C 123.101567 149.003904 125.289067 151.20117 128.003911 151.20117 C 130.708989 151.20117 132.896489 149.003904 132.896489 146.298826 Z M 132.896489 146.298826 " transform="matrix(-0.4,0,0,0.4,177.600003,0)"/>
<path style="fill-rule:nonzero;fill:rgb(100%,84.705883%,23.921569%);fill-opacity:1;stroke-width:2;stroke-linecap:round;stroke-linejoin:round;stroke:rgb(0%,0%,0%);stroke-opacity:1;stroke-miterlimit:4;" d="M 135.10352 157.197263 C 135.10352 154.492185 132.906255 152.304685 130.201177 152.304685 C 127.496098 152.304685 125.298833 154.492185 125.298833 157.197263 C 125.298833 159.902341 127.496098 162.099607 130.201177 162.099607 C 132.906255 162.099607 135.10352 159.902341 135.10352 157.197263 Z M 135.10352 157.197263 " transform="matrix(-0.4,0,0,0.4,177.600003,0)"/>
<path style="fill-rule:nonzero;fill:rgb(100%,84.705883%,23.921569%);fill-opacity:1;stroke-width:2;stroke-linecap:round;stroke-linejoin:round;stroke:rgb(0%,0%,0%);stroke-opacity:1;stroke-miterlimit:4;" d="M 214.996097 119.501951 L 214.49805 125.996092 C 202.203129 124.003904 184.800785 117.197264 168.501957 117.197264 C 153.501957 117.197264 141.900395 123.203123 141.900395 138.398435 C 141.900395 153.300779 148.199223 166.904294 156.597661 180.703122 L 147.896489 184.697263 C 140.10352 169.697263 133.599614 156.699216 133.599614 139.296873 C 133.599614 124.697264 145.10352 110.302733 164.898442 110.302733 C 182.398441 110.302733 200.298832 116.298826 214.996097 119.501951 " transform="matrix(-0.4,0,0,0.4,177.600003,0)"/>
<path style="fill-rule:nonzero;fill:rgb(100%,84.705883%,23.921569%);fill-opacity:1;stroke-width:2;stroke-linecap:round;stroke-linejoin:round;stroke:rgb(0%,0%,0%);stroke-opacity:1;stroke-miterlimit:4;" d="M 222.00195 53.095702 L 216.796872 62.802733 L 222.00195 72.402343 L 227.099606 62.802733 L 222.00195 52.998046 Z M 222.00195 77.499999 L 216.796872 87.099608 L 222.00195 96.796874 L 227.00195 87.001952 Z M 203.603513 74.999999 L 211.699216 80.097655 L 219.804684 74.999999 L 211.796872 69.804686 Z M 224.101559 74.999999 L 232.197262 80.097655 L 240.400387 74.999999 L 232.197262 69.804686 Z M 224.101559 74.999999 " transform="matrix(0.4,0,0,0.4,0,0)"/>
<path style="fill-rule:nonzero;fill:rgb(100%,84.705883%,23.921569%);fill-opacity:1;stroke-width:2;stroke-linecap:round;stroke-linejoin:round;stroke:rgb(0%,0%,0%);stroke-opacity:1;stroke-miterlimit:4;" d="M 225.898434 75.097655 C 225.898434 72.949218 224.150387 71.201171 222.00195 71.201171 C 219.843747 71.201171 218.0957 72.949218 218.0957 75.097655 C 218.0957 77.255858 219.843747 79.003905 222.00195 79.003905 C 224.150387 79.003905 225.898434 77.255858 225.898434 75.097655 Z M 225.898434 75.097655 " transform="matrix(0.4,0,0,0.4,0,0)"/>
<path style="fill-rule:nonzero;fill:rgb(100%,84.705883%,23.921569%);fill-opacity:1;stroke-width:2;stroke-linecap:round;stroke-linejoin:round;stroke:rgb(0%,0%,0%);stroke-opacity:1;stroke-miterlimit:4;" d="M 232.499997 99.999999 C 232.499997 94.199217 227.802731 89.501952 222.00195 89.501952 C 216.201169 89.501952 211.503903 94.199217 211.503903 99.999999 C 211.503903 105.80078 216.201169 110.498045 222.00195 110.498045 C 227.802731 110.498045 232.499997 105.80078 232.499997 99.999999 Z M 232.499997 99.999999 " transform="matrix(0.4,0,0,0.4,0,0)"/>
<path style="fill:none;stroke-width:1.5;stroke-linecap:round;stroke-linejoin:round;stroke:rgb(0%,0%,0%);stroke-opacity:1;stroke-miterlimit:4;" d="M 219.296872 89.902342 L 219.296872 96.503905 C 216.816403 96.621092 214.3457 96.884764 211.904294 97.304686 M 232.099606 97.304686 C 229.619137 96.884764 227.109372 96.611327 224.599606 96.503905 L 224.599606 89.902342 M 211.796872 102.597655 C 215.166012 102.011717 218.583981 101.708983 222.00195 101.699217 C 225.468747 101.699217 228.798825 102.001952 232.00195 102.597655 " transform="matrix(0.4,0,0,0.4,0,0)"/>
<path style="fill-rule:nonzero;fill:rgb(100%,84.705883%,23.921569%);fill-opacity:1;stroke-width:2;stroke-linecap:round;stroke-linejoin:round;stroke:rgb(0%,0%,0%);stroke-opacity:1;stroke-miterlimit:4;" d="M 211.796872 117.695311 C 210.800778 134.697264 208.798825 152.197263 202.099606 164.804685 L 212.900387 160.400388 C 216.699216 146.103513 217.499997 127.597654 218.603512 118.798826 Z M 232.197262 117.695311 L 225.302731 118.798826 C 226.503903 127.597654 227.304684 146.103513 230.99609 160.400388 L 241.796871 164.804685 C 235.195309 152.197263 233.203122 134.804685 232.197262 117.695311 " transform="matrix(0.4,0,0,0.4,0,0)"/>
<path style="fill-rule:nonzero;fill:rgb(100%,84.705883%,23.921569%);fill-opacity:1;stroke-width:2;stroke-linecap:round;stroke-linejoin:round;stroke:rgb(0%,0%,0%);stroke-opacity:1;stroke-miterlimit:4;" d="M 222.00195 154.697263 C 209.003903 154.697263 199.50195 160.703123 199.003903 176.298825 C 195.800778 170.703122 182.499997 153.300779 169.999997 155.595701 C 162.597654 157.001951 155.996091 167.304685 157.197263 179.003904 C 150.996091 161.396482 133.095701 158.496091 119.902342 169.003904 C 131.601561 178.496091 136.796873 206.796872 146.60156 219.003903 L 297.304683 219.003903 C 307.099605 206.796872 312.304683 178.496091 324.003901 169.003904 C 310.898433 158.496091 292.900386 161.396482 286.796871 179.003904 C 287.80273 167.304685 281.298824 157.001951 273.798824 155.595701 C 261.39648 153.300779 248.095699 170.703122 244.90234 176.298825 C 244.404293 160.800779 234.90234 154.697263 221.904294 154.697263 Z M 222.00195 154.697263 " transform="matrix(0.4,0,0,0.4,0,0)"/>
<path style="fill-rule:nonzero;fill:rgb(0%,0%,0.392157%);fill-opacity:1;stroke-width:1.5;stroke-linecap:round;stroke-linejoin:round;stroke:rgb(0%,0%,0%);stroke-opacity:1;stroke-miterlimit:4;" d="M 297.099605 219.003903 C 297.099605 224.599606 263.49609 230.703122 222.00195 230.703122 C 180.498044 230.703122 146.796873 224.697262 146.796873 219.003903 C 146.796873 213.496091 180.498044 210.498044 222.00195 210.498044 C 263.398434 210.498044 297.099605 213.496091 297.099605 219.003903 " transform="matrix(0.4,0,0,0.4,0,0)"/>
<path style="fill-rule:nonzero;fill:rgb(100%,84.705883%,23.921569%);fill-opacity:1;stroke-width:1.5;stroke-linecap:round;stroke-linejoin:round;stroke:rgb(0%,0%,0%);stroke-opacity:1;stroke-miterlimit:4;" d="M 225.498044 114.404295 C 225.498044 112.470701 223.935544 110.898436 222.00195 110.898436 C 220.068356 110.898436 218.49609 112.470701 218.49609 114.404295 C 218.49609 116.328123 220.068356 117.900389 222.00195 117.900389 C 223.935544 117.900389 225.498044 116.328123 225.498044 114.404295 Z M 225.498044 114.404295 " transform="matrix(0.4,0,0,0.4,0,0)"/>
<path style="fill-rule:nonzero;fill:rgb(100%,84.705883%,23.921569%);fill-opacity:1;stroke-width:1.5;stroke-linecap:round;stroke-linejoin:round;stroke:rgb(0%,0%,0%);stroke-opacity:1;stroke-miterlimit:4;" d="M 225.703122 122.001951 C 225.703122 119.960936 224.042965 118.300779 222.00195 118.300779 C 219.960934 118.300779 218.300778 119.960936 218.300778 122.001951 C 218.300778 124.042967 219.960934 125.703123 222.00195 125.703123 C 224.042965 125.703123 225.703122 124.042967 225.703122 122.001951 Z M 225.703122 122.001951 " transform="matrix(0.4,0,0,0.4,0,0)"/>
<path style="fill-rule:nonzero;fill:rgb(100%,84.705883%,23.921569%);fill-opacity:1;stroke-width:1.5;stroke-linecap:round;stroke-linejoin:round;stroke:rgb(0%,0%,0%);stroke-opacity:1;stroke-miterlimit:4;" d="M 226.103512 130.195311 C 226.103512 127.939451 224.267575 126.103514 222.00195 126.103514 C 219.736325 126.103514 217.900387 127.939451 217.900387 130.195311 C 217.900387 132.460936 219.736325 134.296873 222.00195 134.296873 C 224.267575 134.296873 226.103512 132.460936 226.103512 130.195311 Z M 226.103512 130.195311 " transform="matrix(0.4,0,0,0.4,0,0)"/>
<path style="fill-rule:nonzero;fill:rgb(100%,84.705883%,23.921569%);fill-opacity:1;stroke-width:1.5;stroke-linecap:round;stroke-linejoin:round;stroke:rgb(0%,0%,0%);stroke-opacity:1;stroke-miterlimit:4;" d="M 226.699215 139.296873 C 226.699215 136.708982 224.599606 134.599607 222.00195 134.599607 C 219.404294 134.599607 217.304684 136.708982 217.304684 139.296873 C 217.304684 141.894529 219.404294 144.003904 222.00195 144.003904 C 224.599606 144.003904 226.699215 141.894529 226.699215 139.296873 Z M 226.699215 139.296873 " transform="matrix(0.4,0,0,0.4,0,0)"/>
<path style="fill-rule:nonzero;fill:rgb(100%,84.705883%,23.921569%);fill-opacity:1;stroke-width:1.5;stroke-linecap:round;stroke-linejoin:round;stroke:rgb(0%,0%,0%);stroke-opacity:1;stroke-miterlimit:4;" d="M 227.099606 149.404295 C 227.099606 146.582029 224.81445 144.296873 222.00195 144.296873 C 219.179684 144.296873 216.904294 146.582029 216.904294 149.404295 C 216.904294 152.216795 219.179684 154.501951 222.00195 154.501951 C 224.81445 154.501951 227.099606 152.216795 227.099606 149.404295 Z M 227.099606 149.404295 " transform="matrix(0.4,0,0,0.4,0,0)"/>
<path style=" stroke:none;fill-rule:nonzero;fill:rgb(0%,0%,0.392157%);fill-opacity:1;" d="M 88 63.679688 C 87.734375 63.679688 87.601562 63.867188 87.601562 64.238281 L 87.839844 65.960938 C 87.921875 66.558594 88.238281 66.359375 88.359375 65.960938 C 88.441406 65.480469 88.398438 65.160156 88.441406 64.320312 C 88.386719 63.894531 88.226562 63.679688 87.960938 63.679688 Z M 89.601562 63.679688 C 89.332031 63.679688 89.1875 63.894531 89.160156 64.320312 C 89.160156 65.160156 89.160156 65.480469 89.238281 65.921875 C 89.320312 66.359375 89.640625 66.558594 89.761719 65.921875 L 89.960938 64.238281 C 90.039062 63.839844 89.800781 63.679688 89.601562 63.679688 M 86.519531 63.921875 C 86.300781 63.921875 86.121094 64.097656 86.121094 64.320312 C 86.148438 64.71875 86.199219 65.226562 86.28125 65.839844 C 86.359375 66.441406 86.800781 66.238281 86.839844 65.839844 C 86.894531 65.492188 86.894531 64.972656 86.839844 64.28125 C 86.839844 64.039062 86.761719 63.90625 86.601562 63.878906 L 86.519531 63.878906 Z M 90.960938 63.921875 C 90.828125 63.921875 90.734375 64.054688 90.679688 64.320312 L 90.761719 65.839844 C 90.761719 66.238281 91.238281 66.441406 91.28125 65.839844 C 91.28125 65.238281 91.441406 64.761719 91.441406 64.359375 C 91.414062 64.09375 91.28125 63.945312 91.039062 63.921875 Z M 84.800781 64.601562 C 84.535156 64.679688 84.425781 64.851562 84.480469 65.121094 C 84.613281 65.652344 84.691406 66.1875 84.71875 66.71875 C 84.71875 67.160156 85.078125 67 85.121094 66.71875 L 85.160156 65.121094 C 85.132812 64.71875 85 64.546875 84.761719 64.601562 Z M 92.640625 64.601562 C 92.507812 64.625 92.425781 64.800781 92.398438 65.121094 L 92.480469 66.71875 C 92.480469 67 92.878906 67.160156 92.878906 66.71875 C 92.878906 66.1875 92.945312 65.652344 93.078125 65.121094 C 93.105469 64.851562 93.011719 64.679688 92.800781 64.601562 Z M 69.039062 64.679688 C 68.773438 64.707031 68.691406 64.90625 68.800781 65.28125 C 69.039062 65.839844 69.320312 66.160156 69.558594 66.71875 C 69.800781 67.28125 70.121094 66.921875 70 66.558594 L 69.441406 65.078125 C 69.308594 64.8125 69.171875 64.679688 69.039062 64.679688 M 108.558594 64.679688 C 108.398438 64.679688 108.265625 64.8125 108.160156 65.078125 C 107.800781 65.839844 107.679688 66.199219 107.558594 66.558594 C 107.480469 66.960938 107.800781 67.238281 108.039062 66.71875 L 108.761719 65.28125 C 108.867188 64.90625 108.800781 64.707031 108.558594 64.679688 M 70.640625 64.679688 C 70.425781 64.761719 70.359375 64.933594 70.441406 65.199219 C 70.707031 65.679688 70.945312 66.1875 71.160156 66.71875 C 71.320312 67.160156 71.71875 67.039062 71.558594 66.640625 L 71.160156 65.160156 C 70.972656 64.785156 70.800781 64.625 70.640625 64.679688 M 106.839844 64.679688 C 106.679688 64.707031 106.546875 64.867188 106.441406 65.160156 C 106.160156 65.960938 106.121094 66.199219 106 66.640625 C 105.839844 67.039062 106.238281 67.160156 106.398438 66.71875 L 107.121094 65.199219 C 107.199219 64.933594 107.148438 64.761719 106.960938 64.679688 Z M 72.640625 65.078125 C 72.375 65.160156 72.292969 65.414062 72.398438 65.839844 C 72.585938 66.292969 72.800781 66.785156 73.039062 67.320312 C 73.28125 67.878906 73.640625 67.761719 73.558594 67.398438 C 73.480469 67.054688 73.320312 66.453125 73.078125 65.601562 C 72.945312 65.199219 72.800781 65.027344 72.640625 65.078125 M 104.960938 65.078125 C 104.773438 65.054688 104.613281 65.226562 104.480469 65.601562 C 104.214844 66.453125 104.066406 67.054688 104.039062 67.398438 C 103.921875 67.800781 104.320312 67.878906 104.519531 67.320312 C 104.785156 66.785156 105 66.292969 105.160156 65.839844 C 105.265625 65.414062 105.199219 65.160156 104.960938 65.078125 M 67.679688 65.359375 C 67.441406 65.359375 67.28125 65.761719 67.398438 66.039062 C 67.601562 66.441406 67.761719 66.601562 67.960938 67.078125 C 68.199219 67.558594 68.441406 67.199219 68.359375 66.878906 C 68.226562 66.558594 68.121094 66.1875 68.039062 65.761719 C 67.960938 65.464844 67.828125 65.332031 67.640625 65.359375 Z M 109.921875 65.359375 C 109.761719 65.332031 109.625 65.464844 109.519531 65.761719 L 109.238281 66.878906 C 109.160156 67.199219 109.398438 67.558594 109.640625 67.078125 C 109.878906 66.601562 109.960938 66.480469 110.199219 66.039062 C 110.320312 65.761719 110.121094 65.398438 109.921875 65.359375 M 83.121094 66.480469 C 82.839844 66.480469 82.601562 66.800781 82.71875 67.078125 C 82.851562 67.507812 83 68 83.160156 68.558594 C 83.320312 69.078125 83.679688 68.839844 83.640625 68.480469 L 83.441406 66.878906 C 83.359375 66.613281 83.238281 66.480469 83.078125 66.480469 Z M 94.480469 66.480469 C 94.320312 66.480469 94.214844 66.613281 94.160156 66.878906 L 93.921875 68.480469 C 93.921875 68.839844 94.28125 69.078125 94.398438 68.558594 L 94.878906 67.078125 C 94.960938 66.800781 94.71875 66.480469 94.480469 66.480469 M 88.800781 66.960938 C 88.480469 66.960938 88.441406 67.359375 88.441406 67.640625 C 88.421875 68.550781 88.144531 69.441406 87.640625 70.199219 C 87.238281 70.679688 86.71875 70.558594 86.238281 70.28125 L 84.921875 69.398438 C 84.359375 69 83.960938 69.238281 84.601562 70.160156 C 86.441406 72.800781 88.441406 75.039062 88.441406 79.359375 C 88.441406 79.839844 88.558594 80.066406 88.800781 80.039062 C 89.160156 80 89.121094 79.878906 89.121094 79.320312 C 89.121094 75.039062 91.121094 72.800781 92.960938 70.121094 C 93.601562 69.238281 93.199219 69 92.679688 69.398438 L 91.359375 70.28125 C 90.839844 70.558594 90.320312 70.679688 89.960938 70.199219 C 89.457031 69.441406 89.179688 68.550781 89.160156 67.640625 C 89.121094 67.359375 89.078125 66.960938 88.761719 66.960938 Z M 74.679688 66.320312 L 74.601562 66.320312 C 74.492188 66.347656 74.453125 66.480469 74.480469 66.71875 L 74.921875 68.28125 C 75.039062 68.679688 75.480469 68.558594 75.398438 68.078125 L 75.160156 66.839844 C 75.054688 66.519531 74.894531 66.347656 74.679688 66.320312 M 102.921875 66.320312 C 102.707031 66.320312 102.546875 66.492188 102.441406 66.839844 C 102.28125 67.398438 102.28125 67.558594 102.199219 68.039062 C 102.078125 68.558594 102.558594 68.640625 102.640625 68.28125 L 103.121094 66.679688 C 103.121094 66.464844 103.066406 66.347656 102.960938 66.320312 Z M 66.28125 66.480469 C 65.988281 66.535156 65.933594 66.773438 66.121094 67.199219 C 66.359375 67.679688 66.800781 68.238281 67 68.601562 C 67.199219 68.960938 67.558594 68.679688 67.320312 68.28125 C 67.078125 67.878906 67 67.359375 66.679688 66.761719 C 66.625 66.585938 66.460938 66.472656 66.28125 66.480469 M 111.28125 66.480469 C 111.148438 66.480469 111.011719 66.574219 110.878906 66.761719 C 110.640625 67.347656 110.441406 67.851562 110.28125 68.28125 C 110.039062 68.679688 110.359375 68.921875 110.558594 68.601562 C 110.761719 68.28125 111.199219 67.679688 111.441406 67.199219 C 111.679688 66.800781 111.519531 66.480469 111.28125 66.480469 M 53.601562 67.800781 C 53.359375 67.800781 53.28125 68.28125 53.519531 68.601562 L 54.558594 69.679688 C 54.878906 70 54.960938 69.601562 54.800781 69.28125 L 54.078125 68.199219 C 53.894531 67.933594 53.734375 67.800781 53.601562 67.800781 M 123.960938 67.800781 C 123.828125 67.800781 123.679688 67.933594 123.519531 68.199219 L 122.761719 69.28125 C 122.601562 69.601562 122.679688 70 123.039062 69.679688 L 124.078125 68.601562 C 124.320312 68.28125 124.238281 67.800781 123.960938 67.800781 M 55.640625 68.199219 C 55.375 68.199219 55.308594 68.375 55.441406 68.71875 L 56.199219 70.238281 C 56.398438 70.640625 57 70.761719 56.761719 70.160156 L 56.238281 68.640625 C 56.078125 68.375 55.878906 68.238281 55.640625 68.238281 Z M 121.960938 68.199219 C 121.691406 68.199219 121.480469 68.347656 121.320312 68.640625 L 120.839844 70.160156 C 120.601562 70.761719 121.199219 70.640625 121.398438 70.238281 C 121.640625 69.785156 121.878906 69.28125 122.121094 68.71875 C 122.28125 68.375 122.226562 68.199219 121.960938 68.199219 M 51.71875 68.359375 C 51.398438 68.359375 51.398438 68.640625 51.679688 68.839844 C 52.054688 69.105469 52.453125 69.414062 52.878906 69.761719 C 53.398438 70.160156 53.558594 69.761719 53.28125 69.441406 C 53 69.121094 52.800781 68.800781 52.121094 68.441406 C 51.960938 68.386719 51.828125 68.359375 51.71875 68.359375 M 125.839844 68.359375 C 125.734375 68.359375 125.601562 68.386719 125.441406 68.441406 C 124.800781 68.800781 124.519531 69.121094 124.238281 69.441406 C 124 69.800781 124.199219 70.160156 124.679688 69.761719 C 125.105469 69.414062 125.507812 69.105469 125.878906 68.839844 C 126.199219 68.640625 126.160156 68.359375 125.878906 68.359375 Z M 82 68.640625 C 81.785156 68.640625 81.691406 68.800781 81.71875 69.121094 L 82.121094 70.558594 C 82.199219 71 82.71875 71 82.640625 70.558594 C 82.585938 70.160156 82.492188 69.640625 82.359375 69 C 82.308594 68.761719 82.199219 68.625 82.039062 68.601562 L 82 68.601562 Z M 95.519531 68.640625 C 95.386719 68.640625 95.28125 68.773438 95.199219 69.039062 C 95.066406 69.652344 94.972656 70.171875 94.921875 70.601562 C 94.839844 71 95.359375 71 95.441406 70.558594 L 95.839844 69.121094 C 95.894531 68.828125 95.8125 68.667969 95.601562 68.640625 Z M 69.921875 67.839844 C 69.761719 67.867188 69.734375 68.09375 69.839844 68.519531 C 70.265625 69.671875 70.480469 70.890625 70.480469 72.121094 C 70.347656 72.546875 70.09375 72.679688 69.71875 72.519531 L 68.601562 71.839844 C 68.28125 71.640625 67.921875 71.878906 68.398438 72.28125 C 70.800781 74.28125 72.519531 76.558594 73.199219 79.320312 C 73.28125 79.878906 73.640625 79.960938 73.558594 79.320312 C 73 75.839844 72.878906 72.960938 73.71875 71.199219 C 74.039062 70.519531 73.71875 69.878906 73.238281 70.960938 C 72.878906 71.679688 72.359375 71.960938 71.921875 71.359375 C 71.292969 70.382812 70.757812 69.351562 70.320312 68.28125 C 70.238281 68.011719 70.132812 67.867188 70 67.839844 Z M 107.558594 67.839844 C 107.425781 67.839844 107.320312 67.972656 107.238281 68.238281 C 106.960938 69.039062 106.078125 70.71875 105.640625 71.359375 C 105.199219 72 104.679688 71.679688 104.359375 70.960938 C 103.839844 69.878906 103.558594 70.519531 103.839844 71.199219 C 104.679688 72.960938 104.558594 75.839844 104.039062 79.320312 C 103.921875 79.960938 104.28125 79.878906 104.441406 79.320312 C 105.167969 76.503906 106.832031 74.023438 109.160156 72.28125 C 109.640625 71.878906 109.28125 71.640625 108.960938 71.878906 L 107.839844 72.480469 C 107.441406 72.691406 107.1875 72.558594 107.078125 72.078125 C 107 71.601562 107.160156 70.519531 107.761719 68.480469 C 107.8125 68.132812 107.773438 67.921875 107.640625 67.839844 Z M 57.761719 68.800781 C 57.558594 68.800781 57.359375 68.960938 57.480469 69.28125 C 57.640625 69.839844 57.960938 70.398438 58.078125 70.71875 C 58.199219 71.039062 58.558594 70.921875 58.480469 70.441406 L 58.28125 69.199219 C 58.226562 68.933594 58.054688 68.800781 57.761719 68.800781 M 119.800781 68.800781 C 119.535156 68.800781 119.359375 68.933594 119.28125 69.199219 L 119.121094 70.441406 C 119.039062 70.921875 119.398438 71.078125 119.519531 70.71875 C 119.601562 70.398438 119.921875 69.839844 120.078125 69.28125 C 120.160156 68.960938 120.066406 68.800781 119.800781 68.800781 M 65.28125 68.121094 C 65.039062 68.078125 65 68.71875 65.199219 69 L 66.320312 70.238281 C 66.640625 70.640625 66.839844 70.28125 66.640625 69.960938 L 65.601562 68.441406 C 65.464844 68.226562 65.359375 68.121094 65.28125 68.121094 M 112.28125 68.121094 C 112.199219 68.121094 112.09375 68.226562 111.960938 68.441406 L 110.921875 69.960938 C 110.71875 70.28125 110.921875 70.640625 111.28125 70.238281 L 112.359375 69 C 112.558594 68.71875 112.558594 68.078125 112.28125 68.121094 M 59.480469 69.71875 C 59.292969 69.691406 59.226562 69.828125 59.28125 70.121094 C 59.359375 70.546875 59.464844 70.960938 59.601562 71.359375 C 59.71875 71.761719 60 71.71875 60 71.320312 L 59.878906 70.039062 C 59.859375 69.835938 59.6875 69.679688 59.480469 69.679688 Z M 118.078125 69.71875 C 117.886719 69.714844 117.71875 69.851562 117.679688 70.039062 L 117.558594 71.320312 C 117.558594 71.71875 117.878906 71.800781 117.960938 71.359375 L 118.320312 70.160156 C 118.347656 69.8125 118.265625 69.652344 118.078125 69.679688 Z M 64.71875 70.28125 C 64.480469 70.28125 64.28125 70.558594 64.558594 70.921875 C 65 71.519531 65.519531 71.921875 65.71875 72.121094 C 65.921875 72.320312 66.320312 72.28125 66.039062 71.839844 L 65.121094 70.441406 C 65.039062 70.28125 64.90625 70.226562 64.71875 70.28125 M 112.71875 70.28125 C 112.613281 70.28125 112.535156 70.332031 112.480469 70.441406 L 111.519531 71.839844 C 111.238281 72.28125 111.679688 72.359375 111.878906 72.160156 C 112.078125 71.960938 112.558594 71.519531 113.039062 70.921875 C 113.320312 70.519531 113.078125 70.28125 112.839844 70.28125 Z M 56.441406 71.921875 C 56.253906 71.921875 56.253906 72.09375 56.441406 72.441406 C 57.058594 73.1875 57.507812 74.0625 57.761719 75 C 57.800781 75.558594 57.558594 75.558594 57.320312 75.558594 C 56.558594 75.558594 56.199219 75 55.558594 74.839844 C 54.878906 74.71875 54.761719 75.039062 55.238281 75.398438 C 57.535156 76.847656 59.53125 78.71875 61.121094 80.921875 C 61.519531 81.679688 62.039062 81.921875 61.761719 81.238281 C 60.988281 79.679688 60.65625 77.9375 60.800781 76.199219 C 61 75.078125 61.28125 74.359375 61.238281 73.71875 C 61.238281 73.121094 60.839844 73.160156 60.71875 73.71875 L 60.320312 74.839844 C 60.160156 75.039062 59.601562 75.160156 59.121094 74.480469 C 58.441406 73.644531 57.691406 72.871094 56.878906 72.160156 C 56.746094 72.027344 56.613281 71.945312 56.480469 71.921875 Z M 121.121094 71.921875 C 120.988281 71.921875 120.839844 72 120.679688 72.160156 C 119.882812 72.871094 119.148438 73.648438 118.480469 74.480469 C 117.960938 75.160156 117.398438 75.039062 117.28125 74.878906 L 116.878906 73.71875 C 116.71875 73.160156 116.359375 73.121094 116.320312 73.71875 C 116.320312 74.359375 116.558594 75.078125 116.761719 76.199219 C 116.960938 77.320312 116.761719 79.078125 115.839844 81.238281 C 115.519531 81.921875 116.078125 81.640625 116.480469 80.921875 C 118.058594 78.722656 120.039062 76.851562 122.320312 75.398438 C 122.800781 75.039062 122.71875 74.71875 122.039062 74.839844 C 121.359375 74.960938 121 75.558594 120.28125 75.558594 C 120.039062 75.558594 119.761719 75.558594 119.800781 75 C 119.839844 74.441406 120.519531 73.238281 121.121094 72.441406 C 121.332031 72.066406 121.332031 71.894531 121.121094 71.921875 "/>
<path style="fill-rule:nonzero;fill:rgb(100%,84.705883%,23.921569%);fill-opacity:1;stroke-width:1.5;stroke-linecap:round;stroke-linejoin:round;stroke:rgb(0%,0%,0%);stroke-opacity:1;stroke-miterlimit:4;" d="M 150.097654 212.695309 L 152.099607 218.798825 M 154.10156 211.503903 L 155.898435 217.695309 M 158.496091 210.703122 L 159.697263 217.099606 M 162.499998 209.999997 L 163.798826 216.298825 M 167.597654 209.50195 L 168.603513 215.898434 M 173.095701 209.50195 L 174.199216 215.800778 M 178.496091 207.695309 L 179.296872 214.101559 M 183.496091 207.998044 L 184.296872 214.404294 M 188.398435 207.402341 L 189.199216 213.798825 M 193.203122 206.796872 L 193.701169 213.300778 M 198.496091 206.796872 L 198.896481 213.300778 M 203.300778 206.503903 L 203.603513 212.998044 M 208.496091 206.201169 L 208.798825 212.597653 M 214.50195 205.996091 L 214.804684 212.499997 M 293.798824 212.695309 L 291.796871 218.798825 M 289.804683 211.503903 L 288.095699 217.695309 M 285.498043 210.703122 L 284.296871 217.099606 M 281.503902 209.999997 L 280.195308 216.298825 M 276.201168 209.50195 L 275.195308 215.898434 M 270.800777 209.50195 L 269.697262 215.898434 M 265.498043 207.695309 L 264.697262 214.101559 M 260.400387 207.998044 L 259.599606 214.404294 M 255.595699 207.402341 L 254.697262 213.798825 M 250.703121 206.796872 L 250.195309 213.300778 M 245.400387 206.796872 L 244.999996 213.300778 M 240.703121 206.503903 L 240.400387 212.998044 M 235.400387 206.201169 L 235.195309 212.597653 M 229.404293 205.996091 L 229.199215 212.499997 M 222.00195 205.498044 L 222.00195 212.695309 " transform="matrix(0.4,0,0,0.4,0,0)"/>
</g>
</svg>
