<?xml version="1.0" encoding="UTF-8"?>
<svg xmlns="http://www.w3.org/2000/svg" xmlns:xlink="http://www.w3.org/1999/xlink" width="px" height="px" viewBox="0 0 320 240" version="1.1">
<g id="surface1">
<rect x="0" y="0" width="320" height="240" style="fill:rgb(100%,71.764708%,0%);fill-opacity:1;stroke:none;"/>
<path style=" stroke:none;fill-rule:nonzero;fill:rgb(100%,35.686275%,0%);fill-opacity:1;" d="M 13.351562 120 L 57.351562 13.351562 L 101.351562 13.351562 L 101.351562 226.648438 L 57.351562 226.648438 Z M 13.351562 120 "/>
<path style=" stroke:none;fill-rule:nonzero;fill:rgb(0%,33.725491%,25.490198%);fill-opacity:1;" d="M 13.351562 13.351562 L 57.351562 13.351562 L 57.351562 226.648438 L 13.351562 226.648438 Z M 13.351562 13.351562 "/>
<path style=" stroke:none;fill-rule:nonzero;fill:rgb(55.29412%,12.54902%,16.078432%);fill-opacity:1;" d="M 114.648438 13.351562 L 308 13.351562 L 308 226.648438 L 114.648438 226.648438 Z M 114.648438 13.351562 "/>
<path style="fill-rule:nonzero;fill:rgb(100%,71.764708%,0%);fill-opacity:1;stroke-width:1.1;stroke-linecap:butt;stroke-linejoin:miter;stroke:rgb(0%,0%,0%);stroke-opacity:1;stroke-miterlimit:4;" d="M 579.296875 408.601562 C 579.296875 408.601562 582.898438 415.898438 586.898438 419 C 592.898438 423.398438 604.898438 423 610.203125 428.296875 C 616.296875 434.398438 609.703125 442.5 609.703125 443.296875 L 610.101562 447.5 C 610.101562 447.5 605.898438 447.5 604.101562 447.796875 C 601.5 448.203125 600.5 450.398438 595.5 450.101562 C 583.203125 449.296875 583.703125 438.101562 583 428.601562 C 582.398438 425 581 420.203125 580.101562 416.601562 C 579.398438 413.601562 579.296875 408.601562 579.296875 408.601562 Z M 579.296875 408.601562 " transform="matrix(0.5,0,0,0.5,0,0)"/>
<path style="fill-rule:nonzero;fill:rgb(100%,71.764708%,0%);fill-opacity:1;stroke-width:1.1;stroke-linecap:butt;stroke-linejoin:miter;stroke:rgb(0%,0%,0%);stroke-opacity:1;stroke-miterlimit:4;" d="M 579.299988 408.601562 C 579.299988 408.601562 582.90155 415.898438 586.90155 419 C 592.90155 423.398438 604.90155 423 610.198425 428.296875 C 616.299988 434.398438 609.698425 442.5 609.698425 443.296875 L 610.096863 447.5 C 610.096863 447.5 605.90155 447.5 604.096863 447.796875 C 601.503113 448.203125 600.503113 450.398438 595.503113 450.101562 C 583.198425 449.296875 583.698425 438.101562 583.003113 428.601562 C 582.40155 425 581.003113 420.203125 580.096863 416.601562 C 579.40155 413.601562 579.299988 408.601562 579.299988 408.601562 Z M 579.299988 408.601562 " transform="matrix(-0.5,0,0,0.5,422.649994,0)"/>
<path style="fill-rule:nonzero;fill:rgb(100%,71.764708%,0%);fill-opacity:1;stroke-width:1.1;stroke-linecap:butt;stroke-linejoin:miter;stroke:rgb(0%,0%,0%);stroke-opacity:1;stroke-miterlimit:4;" d="M 579.296875 408.601562 C 579.296875 408.601562 582.898438 415.898438 586.898438 419 C 592.898438 423.398438 604.898438 423 610.203125 428.296875 C 616.296875 434.398438 609.703125 442.5 609.703125 443.296875 L 610.101562 447.5 C 610.101562 447.5 605.898438 447.5 604.101562 447.796875 C 601.5 448.203125 600.5 450.398438 595.5 450.101562 C 583.203125 449.296875 583.703125 438.101562 583 428.601562 C 582.398438 425 581 420.203125 580.101562 416.601562 C 579.398438 413.601562 579.296875 408.601562 579.296875 408.601562 Z M 579.296875 408.601562 " transform="matrix(0.5,0,0,-0.5,0,240)"/>
<path style="fill-rule:nonzero;fill:rgb(100%,71.764708%,0%);fill-opacity:1;stroke-width:1.1;stroke-linecap:butt;stroke-linejoin:miter;stroke:rgb(0%,0%,0%);stroke-opacity:1;stroke-miterlimit:4;" d="M 579.298462 408.601562 C 579.298462 408.601562 582.900024 415.898438 586.900024 419 C 592.900024 423.398438 604.900024 423 610.196899 428.296875 C 616.298462 434.398438 609.696899 442.5 609.696899 443.296875 L 610.103149 447.5 C 610.103149 447.5 605.900024 447.5 604.103149 447.796875 C 601.501587 448.203125 600.501587 450.398438 595.501587 450.101562 C 583.196899 449.296875 583.696899 438.101562 583.001587 428.601562 C 582.400024 425 581.001587 420.203125 580.103149 416.601562 C 579.400024 413.601562 579.298462 408.601562 579.298462 408.601562 Z M 579.298462 408.601562 " transform="matrix(-0.5,0.000000000000000061,-0.000000000000000061,-0.5,422.700012,240)"/>
<path style="fill-rule:nonzero;fill:rgb(100%,71.764708%,0%);fill-opacity:1;stroke-width:5.6;stroke-linecap:butt;stroke-linejoin:miter;stroke:rgb(0%,0%,0%);stroke-opacity:1;stroke-miterlimit:4;" d="M 363.5 415.796875 L 365.796875 414.398438 L 366.796875 415.796875 C 368.101562 417.601562 371.796875 417.5 374.203125 415.796875 L 376.101562 414.296875 L 377.703125 415.703125 C 379.703125 417.601562 383.5 417.601562 386 415.703125 C 387.703125 414.5 388 414.398438 389 415.398438 C 389.703125 416 391.703125 416.601562 393.398438 416.898438 C 396.601562 417.296875 396.601562 417.296875 398.398438 414.5 C 400 412.203125 400.203125 411.296875 399.898438 409 L 399.296875 403.703125 C 399.101562 401.101562 399.203125 401.101562 402.898438 399.703125 L 408.296875 397.703125 C 409.796875 396.796875 414 391.898438 414 390.898438 C 414 390.703125 412.398438 390.296875 410.398438 390.101562 C 402.398438 389.164062 401.03125 384.835938 406.296875 377.101562 C 414.601562 364.101562 419.703125 351.601562 419.703125 343.703125 C 419.703125 340.164062 419.929688 338.835938 420.398438 339.703125 C 422.296875 342.796875 418.898438 356.101562 413.898438 365.703125 L 411.898438 369.5 L 413.796875 369.101562 C 414.796875 368.796875 421.203125 366.101562 427.796875 363.101562 C 446 354.898438 452.203125 353.296875 464 353.796875 C 473.898438 354.203125 478 356.101562 485 363.398438 C 488.703125 367.398438 492.296875 370.101562 498.796875 374.203125 C 512.601562 382.796875 513.203125 383.601562 513.898438 393.796875 C 514.601562 404 514.203125 404.703125 506.398438 406.398438 C 499.601562 407.929688 495.601562 410.929688 494.398438 415.398438 C 493.734375 417.664062 495.070312 417.703125 498.398438 415.5 L 500.898438 413.898438 L 502 415.5 C 503.5 417.601562 506.5 417.601562 509 415.5 L 511 414 L 513 415.5 C 516 418 520 417.398438 521.203125 414.296875 C 521.398438 413.765625 522.070312 414 523.203125 415 C 525.5 417 531.203125 417.796875 531.796875 416.203125 C 532 415.601562 531.601562 414.203125 530.796875 413 C 527.5 408 526.398438 405.703125 526.398438 403 C 526.398438 399.203125 527.398438 397.296875 531.796875 394.296875 C 537 390.5 538.601562 385.703125 534.601562 385.703125 C 532.203125 385.703125 529.703125 383.5 528.101562 380 C 524.898438 372.796875 525.601562 364.796875 530.398438 351.398438 C 534.070312 343.507812 535.914062 334.898438 535.796875 326.203125 C 535.796875 318.796875 535.601562 317.601562 534 313.5 C 532.75 310.648438 531.210938 307.9375 529.398438 305.398438 L 526.601562 301.703125 L 530.101562 298.703125 C 540.898438 289.796875 538.703125 275.203125 525.703125 269.601562 C 521.703125 267.796875 520.703125 267.703125 513.703125 267.703125 C 509.703125 267.703125 503.203125 268.296875 499.703125 269 C 495 269.742188 490.257812 270.148438 485.5 270.203125 C 478.703125 270.203125 477.5 270 474.898438 268.601562 C 472.203125 267.203125 471.703125 266.5 471.203125 263.101562 C 471.101562 262.453125 470.6875 261.890625 470.101562 261.601562 C 469.101562 261.296875 464.898438 265 464.296875 266.601562 C 463.898438 267.5 463.703125 267.398438 462.796875 266.296875 C 461.945312 265.210938 461.273438 264 460.796875 262.703125 C 459.734375 259.429688 461.132812 256.898438 465 255.101562 L 468 253.703125 L 466.203125 252.601562 C 462.601562 250.296875 456.398438 251.898438 454.203125 255.601562 C 453.5 256.601562 452.796875 257.601562 452.601562 257.601562 C 452.398438 257.601562 451.203125 256.601562 450 255.296875 C 445.296875 250.703125 446.898438 243.898438 453.203125 241.898438 C 456.5 240.796875 459.5 241.601562 460.101562 243.898438 C 461.101562 247.203125 463.898438 242.796875 463.398438 238.703125 C 463.101562 236 463.101562 235.898438 465 235.898438 C 467.601562 235.898438 473 239.296875 474.796875 241.898438 C 476.796875 245 476.601562 249.898438 474.398438 253.5 L 472.703125 256.296875 L 475 255.898438 C 478.203125 255.203125 481.398438 253.203125 483 250.703125 C 484.710938 247.476562 484.851562 243.648438 483.398438 240.296875 C 481.898438 237.601562 482.101562 237.203125 484.296875 238.101562 C 487.898438 239.601562 489.898438 241.296875 491.296875 244.203125 C 492.703125 246.796875 492.796875 247.398438 492.101562 250.203125 C 491.625 251.90625 490.875 253.523438 489.898438 255 C 488.703125 256.601562 488.601562 256.898438 489.601562 256.898438 C 491.398438 256.898438 495 255.203125 496.296875 253.898438 C 497 253.101562 498 251.398438 498.5 249.898438 L 499.5 247.398438 L 500.5 249.398438 C 502 252.101562 505 254.601562 508.601562 256.203125 C 512.5 257.796875 514.101562 257.898438 512.101562 256.398438 C 510.703125 255.398438 508.101562 247.898438 509 247.203125 C 513.3125 249.617188 517.257812 252.648438 520.703125 256.203125 C 526.398438 261.296875 530 263 535.203125 263 C 541.898438 263 545.796875 257.203125 542.796875 251.703125 C 541.101562 248.5 537.203125 248 534.796875 250.703125 C 533.796875 251.898438 533.46875 253.132812 533.796875 254.398438 C 534.203125 256 534.101562 256.203125 532.601562 256.203125 C 530.601562 256.203125 526.796875 253.703125 520 248 C 510.53125 239.851562 499.65625 233.515625 487.898438 229.296875 C 479.9375 227.453125 471.710938 227.007812 463.601562 228 C 457.203125 229.203125 449.601562 232.898438 445.398438 236.796875 C 438.101562 243.796875 438 253.101562 445.101562 261.601562 L 447.101562 264 L 445.796875 266.203125 C 443.710938 269.398438 443.875 273.570312 446.203125 276.601562 C 447.203125 278 448.203125 279.101562 448.5 279.101562 C 448.703125 278.96875 448.867188 278.296875 449 277.101562 C 449.203125 274.367188 450.335938 272.632812 452.398438 271.898438 C 454.203125 271.203125 455.398438 271.601562 463.601562 274.898438 C 472.296875 278.296875 486.601562 278.5 501.796875 275.5 C 508.390625 273.992188 515.242188 274.0625 521.796875 275.703125 C 529 278.703125 530.601562 286.398438 525.398438 292.203125 C 523.101562 294.796875 521 295.796875 513.703125 297.796875 C 507.34375 299.484375 500.734375 299.992188 494.203125 299.296875 C 483.398438 299.203125 479.5 299.398438 475.203125 300.296875 C 470.296875 301.296875 467.398438 301.398438 453.398438 301.101562 L 437.101562 300.703125 L 438.898438 302.101562 L 442 304.398438 C 443.296875 305.101562 443.203125 305.203125 441.398438 305.898438 C 440.398438 306.296875 438 306.601562 436.101562 306.601562 L 432.796875 306.601562 L 432.398438 309.398438 C 432.132812 310.71875 432.132812 312.078125 432.398438 313.398438 C 432.796875 314.335938 432.53125 314.601562 431.601562 314.203125 C 430.898438 313.898438 429 313.398438 427.296875 313.101562 C 425.585938 312.726562 423.914062 312.195312 422.296875 311.5 C 420.398438 310.5 420.203125 310.5 419.5 311.796875 C 418.898438 312.796875 413.296875 317 412.5 317 C 412.132812 314.40625 411.390625 311.882812 410.296875 309.5 C 409.296875 307.398438 408.398438 305 408.101562 304.296875 C 407.835938 303.234375 407.5 303.132812 407.101562 304 C 406.796875 304.5 406.398438 306 406.101562 307.203125 C 405.742188 308.820312 405.132812 310.367188 404.296875 311.796875 L 402.796875 314 L 401.796875 312.101562 C 400.796875 310.101562 399.203125 307.898438 398.601562 307.898438 C 398.398438 307.898438 398.164062 308.398438 397.898438 309.398438 C 397.398438 311 393.5 315.703125 392.5 315.703125 C 392.203125 315.703125 391.898438 314.398438 391.898438 312.703125 C 391.898438 311.203125 391.601562 309.796875 391.203125 309.796875 C 390.796875 309.867188 390.570312 310.203125 390.5 310.796875 C 390.5 312 387.203125 315.796875 386 315.796875 C 385.46875 315.796875 384.898438 316.132812 384.296875 316.796875 C 383.101562 318.101562 382.101562 317.898438 382.601562 316.398438 C 382.742188 315.117188 382.601562 313.820312 382.203125 312.601562 L 381.203125 309.398438 C 381.070312 308.929688 379.734375 309.101562 377.203125 309.898438 C 373.203125 311.203125 371.796875 310.898438 373.898438 309.296875 C 374.703125 308.703125 375.898438 306.601562 376.5 304.703125 C 377.203125 302.703125 378.203125 301 378.703125 300.796875 C 379.429688 300.53125 379.367188 300.929688 378.5 302 C 377.929688 302.765625 377.554688 303.65625 377.398438 304.601562 C 377.398438 305.101562 376.898438 306.398438 376.398438 307.5 C 375.898438 308.601562 375.398438 309.5 375.5 309.601562 C 375.601562 309.703125 377.203125 309.101562 379 308.296875 L 382.203125 306.703125 L 382.203125 308.101562 C 382.203125 308.898438 382.601562 310.898438 383.101562 312.601562 L 384 315.601562 L 386.203125 314.601562 C 388.398438 313.601562 390.5 310 390.5 307.101562 C 390.5 305.703125 391.296875 305.898438 391.703125 307.398438 C 391.703125 307.796875 392.296875 309.5 392.703125 311.101562 L 393.703125 313.898438 L 395.203125 312.101562 C 396.101562 311.101562 397.101562 309.101562 397.5 307.796875 C 398.296875 305.398438 399.5 304.296875 399.5 306.101562 C 399.5 307.296875 402.898438 311.898438 403.5 311.5 C 403.898438 311.296875 404.5 309.601562 405 307.703125 C 406 303.703125 407.5 301.101562 408.5 301.703125 C 408.898438 301.96875 409 302.296875 408.796875 302.703125 C 408.601562 302.898438 409.398438 305.5 410.601562 308.296875 L 413.203125 314.601562 C 413.601562 315.601562 414 315.601562 416.5 313.296875 C 418 311.898438 419.5 310.398438 419.601562 309.898438 C 419.898438 309.101562 420.203125 309.203125 421.601562 310.101562 C 424.546875 311.65625 427.78125 312.609375 431.101562 312.898438 C 431.296875 312.703125 431.5 310.898438 431.5 308.898438 L 431.601562 305.203125 L 433.601562 305.601562 C 434.601562 305.898438 436.898438 305.898438 438.601562 305.601562 L 441.601562 305.203125 L 438.898438 303.203125 C 437.398438 302.203125 435.898438 300.898438 435.5 300.296875 C 435.101562 299.703125 433.796875 299.101562 432.296875 299 C 428.203125 298.601562 420.898438 294.601562 420.898438 292.601562 C 421.03125 292.335938 421.765625 292.796875 423.101562 294 C 425.898438 296.5 429.703125 298 433.101562 298 L 435.5 298 L 434 296 C 432.9375 294.445312 432.25 292.664062 432 290.796875 C 431.796875 287.796875 431.5 287.398438 428.398438 285.296875 C 426.601562 284.023438 424.929688 282.585938 423.398438 281 L 421.703125 279.101562 L 420.796875 281.398438 C 420.265625 282.796875 419.835938 283.570312 419.5 283.703125 C 419.296875 283.703125 418.296875 282.898438 417.5 282 C 416.9375 281.351562 416.257812 280.804688 415.5 280.398438 C 415.203125 280.398438 414.5 281.601562 413.703125 283.101562 L 412.296875 285.796875 L 411.296875 284.296875 C 410.40625 283.078125 409.40625 281.9375 408.296875 280.898438 C 407.03125 279.835938 406.601562 279.234375 407 279.101562 C 407.398438 279.101562 408.703125 280.101562 410 281.398438 L 412.203125 283.703125 L 413.203125 282 C 413.78125 280.820312 413.953125 279.484375 413.703125 278.203125 C 413.296875 276.46875 413.398438 276.234375 414 277.5 C 414.859375 278.625 415.875 279.640625 417 280.5 L 419.203125 282.296875 L 420.703125 279.601562 C 422.203125 276.796875 422.203125 276.796875 422.796875 278.5 C 423.796875 280.601562 430.296875 286 435.796875 289.101562 C 436.796875 289.632812 436.46875 287.96875 434.796875 284.101562 C 434.328125 282.820312 434.054688 281.46875 434 280.101562 C 434 278.296875 433.5 277.5 431.203125 275.703125 C 428.3125 273.835938 426.460938 270.726562 426.203125 267.296875 C 425.898438 265.601562 425.296875 263.796875 424.796875 263.203125 C 424.203125 262.070312 424 262.929688 424.203125 265.796875 C 424.398438 267.898438 424.101562 270.5 423.601562 271.601562 L 422.796875 273.601562 L 422.203125 271.898438 C 421.796875 271 420.203125 269.398438 418.703125 268.398438 C 417.203125 267.398438 416.101562 266.398438 416.296875 266.203125 C 416.5 266 418.101562 266.898438 419.796875 268.203125 C 422.5 270.296875 423 270.5 423.398438 269.601562 C 423.796875 268.601562 423.398438 264 422.601562 260.796875 C 422.203125 259.203125 422.203125 259.203125 424.203125 261.203125 C 425.53125 262.46875 426.5 264.53125 427.101562 267.398438 C 427.898438 271.203125 428.296875 271.898438 431.796875 275 C 433.898438 276.898438 435.796875 278.296875 435.898438 278.203125 C 436.101562 278 436.296875 273.203125 436.5 267.398438 C 436.898438 256.296875 436.5 253.601562 433.796875 250.203125 L 432.398438 248.398438 L 434.601562 246.101562 C 437.0625 243.742188 438.710938 240.65625 439.296875 237.296875 L 439.703125 234.601562 L 437.296875 236.898438 C 435.296875 238.796875 434.296875 239.203125 432 239.203125 C 429.703125 239.203125 428.796875 238.796875 427.296875 237.203125 C 424.960938 234.953125 422.117188 233.304688 419 232.398438 C 417.867188 232 417.335938 232.203125 417.398438 233 C 417.398438 233.601562 416.796875 235.203125 416 236.703125 L 414.601562 239.296875 L 411.601562 236.296875 C 409.703125 234.601562 407.601562 233.101562 405.898438 232.703125 C 401.796875 231.703125 401.601562 231.703125 401.601562 234.796875 C 401.53125 239.53125 399.664062 240.367188 396 237.296875 C 393.203125 234.898438 391 234.296875 385.703125 235 L 381.703125 235.398438 L 382.398438 237.203125 C 383 238.703125 382.898438 239.398438 381.601562 241.101562 C 379.5 243.898438 376.796875 245.101562 372.601562 245.101562 C 370.601562 245.101562 368.203125 245.5 367.203125 246 C 366.203125 246.5 363.601562 247 361.5 247.203125 C 359.5 247.398438 357.203125 247.796875 356.5 248 C 355.5 248.398438 355.5 248 355.796875 245.796875 C 356.296875 242.398438 353.796875 239.796875 350.101562 239.796875 C 345.203125 239.796875 343 244.203125 344.898438 250 L 345.898438 253.796875 C 347.210938 256.296875 348.976562 258.539062 351.101562 260.398438 C 353.703125 263 356.101562 265.703125 356.5 266.398438 C 357.304688 267.445312 358.328125 268.296875 359.5 268.898438 L 361.703125 270.101562 L 361.398438 267.703125 C 361.070312 265.03125 361.601562 264.664062 363 266.601562 C 363.5 267.203125 364.796875 268.296875 365.796875 268.898438 C 367.5 269.898438 367.796875 269.898438 367.796875 269.101562 C 367.796875 268.5 368.101562 267.203125 368.5 266.203125 L 369.203125 264.398438 L 370.5 266.898438 C 371.203125 268.296875 373.5 271.398438 375.601562 273.898438 C 379.703125 278.601562 382.296875 283.898438 381 285.101562 C 380.398438 285.601562 379 285.601562 376 285 C 373.796875 284.601562 371 284.296875 369.796875 284.5 C 367.5 284.796875 367.296875 284.5 368.796875 282.703125 C 370.296875 280.703125 370 280.398438 367 280.398438 C 363.5 280.398438 354.796875 278.703125 351.398438 277.398438 C 348.203125 276.101562 347.398438 276.398438 346.398438 279.5 L 344.703125 285.101562 L 343.703125 288.101562 L 347.296875 287.796875 C 349.15625 287.609375 350.992188 287.273438 352.796875 286.796875 C 353.507812 286.5625 354.257812 286.460938 355 286.5 C 355.203125 286.601562 354.703125 287.796875 354 289.203125 L 352.601562 291.601562 L 354.796875 291.203125 C 356 290.898438 357.796875 290.296875 358.796875 289.796875 C 360.601562 289 360.796875 289 362.203125 291.296875 C 364 293.96875 365.101562 293.867188 365.5 291 C 365.765625 287.929688 366.835938 288.398438 368.703125 292.398438 C 370.5 296.203125 372.296875 297.601562 372.703125 295.398438 C 372.898438 294.46875 373.601562 293.53125 374.796875 292.601562 C 377 291.132812 378.570312 291.570312 379.5 293.898438 C 380.5 296.398438 378.296875 298.898438 372.101562 302.703125 C 360.460938 309.125 352.453125 320.570312 350.398438 333.703125 C 348.5 345.5 354.398438 357.703125 366 366.601562 C 371.601562 370.796875 380.5 375.203125 379.898438 373.601562 C 377.5 366.296875 377.601562 352.601562 380 350.296875 C 380.398438 349.898438 380.296875 351.296875 379.703125 353.398438 C 377.703125 361.296875 378.703125 367.5 383.703125 382.101562 C 388.101562 395.296875 387.5 401 381.101562 404.703125 C 379.101562 405.898438 377.796875 406.101562 372.296875 406 C 366.296875 406 365.601562 406 363.703125 407.601562 C 361.421875 409.960938 359.914062 412.960938 359.398438 416.203125 C 359.398438 417.46875 360.734375 417.335938 363.398438 415.796875 Z M 363.5 415.796875 " transform="matrix(0.5,0,0,0.5,0,-38)"/>
<path style="fill-rule:nonzero;fill:rgb(100%,71.764708%,0%);fill-opacity:1;stroke-width:5.6;stroke-linecap:butt;stroke-linejoin:miter;stroke:rgb(0%,0%,0%);stroke-opacity:1;stroke-miterlimit:4;" d="M 460.5 415.5 L 463 413.898438 L 464.703125 415.5 C 466.898438 417.601562 469.601562 417.5 471.703125 415.398438 C 472.765625 414.335938 473.398438 413.835938 473.601562 413.898438 L 474.5 415.5 C 474.96875 416.367188 476.164062 416.867188 478.101562 417 C 480.398438 417.101562 481.101562 417 482.101562 415.601562 L 483.101562 413.898438 L 485.601562 415.5 C 492.398438 419.898438 496 415.296875 492.898438 406.203125 C 491.398438 401.601562 492.296875 399 497.203125 393.203125 C 499.296875 390.703125 501 388 501 387.203125 C 501 386.101562 500.601562 385.898438 497.796875 386 C 495.203125 386 494.398438 385.703125 493 384.203125 C 490.734375 381.664062 490.867188 378.796875 493.398438 375.601562 L 495.398438 373.101562 L 491.796875 370.703125 C 488.929688 368.578125 486.25 366.203125 483.796875 363.601562 C 479.375 358.421875 473.085938 355.1875 466.296875 354.601562 L 461.601562 354.101562 L 461.601562 357.703125 C 461.601562 362.203125 463.796875 366.601562 469.601562 374 C 476.203125 382.398438 476.601562 383.703125 476.898438 394.703125 L 477.203125 404 L 475.203125 405.796875 C 473.5 407.398438 472.796875 407.703125 467.203125 408 C 461.898438 408.296875 460.703125 408.601562 459.203125 410 C 457.46875 411.296875 456.257812 413.179688 455.796875 415.296875 C 455.5 416.796875 455.601562 417.101562 456.703125 417.101562 C 457.398438 417.101562 459.101562 416.398438 460.5 415.5 M 318.296875 391.5 C 318.898438 390.609375 319.242188 389.570312 319.296875 388.5 C 319.296875 387.5 319.898438 387.101562 322.5 386.703125 L 325.601562 386.296875 L 323.601562 384.601562 C 321.101562 382.601562 320.796875 381.101562 323 381.101562 C 325.203125 381.101562 328.796875 378.898438 329.398438 377.203125 C 329.601562 376.265625 329.46875 375.5 329 374.898438 C 327.796875 373.5 325.5 373.703125 325.101562 375.296875 C 324.601562 376.898438 323.898438 376.898438 322.101562 375.296875 C 319.601562 372.796875 319.5 367.703125 322.101562 364.703125 C 323.203125 363.296875 323.203125 363.296875 321.703125 361.796875 C 320.101562 360.203125 318.898438 357.203125 319.703125 356.398438 C 319.898438 356.203125 321.203125 356.398438 322.5 356.898438 C 324.5 357.5 325.203125 357.5 326 356.898438 C 328.296875 355 325.796875 352.601562 322 353.203125 C 320.53125 353.46875 319.734375 353.203125 319.601562 352.398438 C 319.398438 351.796875 318.101562 351 316.601562 350.601562 C 313.898438 349.898438 313.898438 349.898438 313.898438 351.796875 C 313.898438 353.796875 312.765625 354.164062 310.5 352.898438 C 308.703125 351.898438 307 352.703125 307 354.601562 C 307 356.398438 308.664062 357.203125 312 357 C 314.398438 356.898438 314.5 358.703125 312.203125 361.296875 L 310.5 363.296875 L 311.796875 365.203125 C 313.796875 368 313.601562 372.703125 311.5 375.101562 L 309.796875 376.898438 L 308.703125 375.398438 C 307.101562 373.398438 305 373.5 304.398438 375.703125 C 304.101562 377.101562 304.398438 377.703125 306.203125 379.296875 C 307.398438 380.296875 309.203125 381.101562 310.101562 381.101562 C 312.398438 381.101562 312.296875 383 309.898438 384.796875 L 307.898438 386.296875 L 310.898438 386.703125 C 312.5 387 313.898438 387.398438 313.898438 387.703125 C 313.898438 389 315.898438 392.898438 316.5 392.898438 C 317.03125 392.765625 317.632812 392.265625 318.296875 391.398438 Z M 318.296875 391.5 " transform="matrix(0.5,0,0,0.5,0,-38)"/>
<path style="fill-rule:nonzero;fill:rgb(100%,71.764708%,0%);fill-opacity:1;stroke-width:5.6;stroke-linecap:butt;stroke-linejoin:miter;stroke:rgb(0%,0%,0%);stroke-opacity:1;stroke-miterlimit:4;" d="M 356.5 374.898438 C 359.203125 373.898438 365 368.898438 365 367.796875 C 365 367.398438 363.398438 365.601562 361.398438 363.796875 C 357.398438 360.203125 352.898438 353.898438 351.703125 350.296875 C 351.101562 348.296875 348.203125 345.101562 340 337.101562 L 329.101562 326.601562 L 326 327.398438 C 324.203125 327.796875 322.101562 328.203125 321.296875 328.203125 C 319.796875 328.203125 319.796875 328.203125 321.796875 329.796875 L 323.796875 331.398438 L 326.796875 329.796875 C 329.5 328.203125 329.601562 328.203125 329.898438 329.5 C 330.101562 330.203125 329.703125 331.5 328.898438 332.398438 C 328.203125 333.296875 327.796875 334.398438 327.898438 334.703125 C 328.101562 335.101562 327.601562 335.632812 326.398438 336.296875 C 324.398438 337.296875 322.898438 340.601562 324.5 340.601562 C 326 340.601562 329.203125 336.601562 328.796875 335.296875 C 328.664062 334.5 328.734375 333.96875 329 333.703125 C 330.296875 333 330.203125 336.101562 329 337.703125 C 328.203125 338.5 327.796875 339.5 328 339.898438 C 328.132812 340.296875 327.601562 340.835938 326.398438 341.5 C 324.398438 342.5 322.898438 345.796875 324.5 345.796875 C 326.101562 345.796875 329.203125 342 328.898438 340.601562 C 328.703125 339.796875 328.734375 339.234375 329 338.898438 C 329.898438 338.5 330.296875 340.898438 329.601562 342.101562 C 329.164062 342.765625 329.164062 343.632812 329.601562 344.296875 C 330.296875 345.601562 329.601562 348 328.296875 348.796875 C 327.765625 349.132812 328.164062 349.796875 329.5 350.796875 C 331.5 352.203125 331.5 352.398438 331.5 358.796875 C 331.5 364.203125 331.703125 365.601562 332.703125 366.5 C 333.570312 367.5 333.96875 367.5 333.898438 366.5 C 333.796875 365 335.898438 364.101562 337.398438 364.101562 C 337.898438 364.101562 340.796875 366.601562 343.898438 369.601562 C 347 372.601562 350.296875 375.296875 351.203125 375.398438 L 353.398438 375.796875 C 353.703125 375.796875 355.101562 375.5 356.5 374.796875 Z M 323.203125 348.796875 C 323.203125 347.101562 319.601562 345.203125 315.296875 344.796875 C 311.796875 344.296875 311.796875 344.398438 311.796875 346.101562 C 311.796875 347.5 312.296875 348.101562 314.796875 349.101562 C 318.601562 350.796875 323.203125 350.601562 323.203125 348.796875 " transform="matrix(0.5,0,0,0.5,0,-38)"/>
<path style="fill-rule:nonzero;fill:rgb(100%,71.764708%,0%);fill-opacity:1;stroke-width:5.6;stroke-linecap:butt;stroke-linejoin:miter;stroke:rgb(0%,0%,0%);stroke-opacity:1;stroke-miterlimit:4;" d="M 327.101562 348.601562 C 328.898438 347 329.703125 345.203125 328.601562 345.203125 C 327.5 345.203125 324.203125 348 324.203125 349.203125 C 324.203125 350.796875 324.796875 350.703125 327.203125 348.601562 Z M 323.398438 343.5 C 323.601562 342.632812 322.835938 341.796875 321.101562 341 C 317.101562 339.296875 312.5 338.398438 311.398438 339.296875 C 309.296875 341 310.703125 343.203125 314 343.601562 C 315.398438 343.703125 317.203125 344.101562 318.101562 344.5 C 320.703125 345.5 323.101562 345 323.398438 343.5 M 323.398438 338.203125 C 323.601562 336.898438 322.703125 336.398438 315.398438 333.796875 C 309.898438 331.796875 307.5 332.796875 309.296875 336.101562 C 309.898438 337.203125 310.898438 337.703125 313.203125 338.101562 C 314.898438 338.296875 317.203125 338.796875 318.296875 339.203125 C 321.367188 340.203125 323.03125 339.867188 323.296875 338.203125 Z M 327 333.296875 C 328.101562 332.203125 329 330.898438 329 330.296875 C 329 328.796875 324.703125 331.601562 324.101562 333.601562 C 323.570312 335.929688 324.570312 335.835938 327.101562 333.296875 Z M 323.398438 333 C 323.601562 331.398438 321.070312 330.03125 315.796875 328.898438 C 311.929688 328.03125 310.164062 328.5 310.5 330.296875 C 310.703125 331.296875 312 332 315.5 333.101562 C 321.398438 334.898438 323.101562 334.898438 323.398438 333 M 328.398438 325.601562 C 335.203125 322.601562 335.703125 315.101562 329.398438 313.101562 C 326.867188 312.296875 325.132812 312.765625 324.203125 314.5 C 323.398438 315.898438 323.898438 318.296875 324.898438 318.296875 C 325.296875 318.367188 325.53125 318.703125 325.601562 319.296875 C 325.601562 322 315.398438 323.101562 311.203125 321 C 309.703125 320.296875 309.203125 318.296875 310.296875 318.296875 C 311.296875 318.296875 311.898438 316.296875 311.398438 315 C 310.734375 313 308.96875 312.398438 306.101562 313.203125 C 299.796875 314.796875 300 322.203125 306.398438 325.203125 C 313.484375 327.765625 321.226562 327.90625 328.398438 325.601562 " transform="matrix(0.5,0,0,0.5,0,-38)"/>
<path style="fill-rule:nonzero;fill:rgb(100%,71.764708%,0%);fill-opacity:1;stroke-width:5.6;stroke-linecap:butt;stroke-linejoin:miter;stroke:rgb(0%,0%,0%);stroke-opacity:1;stroke-miterlimit:4;" d="M 324.296875 319.796875 C 324.632812 319.335938 324.5 318.867188 323.898438 318.398438 C 322.570312 317.203125 322.632812 315.632812 324.101562 313.703125 C 325.296875 312.296875 325.398438 310.101562 325.796875 288.601562 C 326.5 251.5 329.296875 223.601562 332.898438 216.796875 C 334.398438 214.203125 334.203125 214.203125 330.398438 216.796875 C 325.414062 220.273438 321.390625 224.953125 318.703125 230.398438 C 312.5 241.898438 310.398438 257.398438 310.398438 290.601562 C 310.398438 309.398438 310.5 311.898438 311.601562 313.601562 C 312.601562 315.398438 312.601562 316 312 317.796875 C 311.5 318.898438 311.296875 320.101562 311.5 320.296875 C 312.898438 321.601562 322.898438 321.296875 324.296875 319.796875 M 380.398438 284.398438 C 380.703125 284.101562 380.203125 282.398438 379.398438 280.796875 C 378.203125 278.203125 377.703125 277.796875 376 277.796875 C 368.007812 277.101562 360.203125 274.9375 353 271.398438 C 347.898438 269.101562 346 268.601562 345.5 269.203125 C 343.898438 270.703125 346.5 274.203125 350.5 276.101562 C 356.382812 278.21875 362.554688 279.46875 368.796875 279.796875 C 371.5 279.796875 371.601562 279.796875 370 282.101562 L 369 283.703125 L 372 283.703125 L 377 284.296875 C 380 285 380 285 380.398438 284.398438 " transform="matrix(0.5,0,0,0.5,0,-38)"/>
<path style="fill-rule:nonzero;fill:rgb(0%,0%,0.392157%);fill-opacity:1;stroke-width:5.6;stroke-linecap:butt;stroke-linejoin:miter;stroke:rgb(0%,0%,0%);stroke-opacity:1;stroke-miterlimit:4;" d="M 412 301.101562 C 412 300.101562 409.101562 297.601562 406.296875 295.898438 C 404 294.601562 403.601562 294.5 403.601562 295.601562 C 403.601562 297.203125 402.203125 301.296875 401.601562 301.296875 C 401.203125 301.164062 400.867188 300.601562 400.601562 299.601562 C 400.296875 298.601562 399.203125 296.601562 398.101562 295.296875 L 396.101562 292.796875 L 394.703125 295.101562 C 393.296875 297.296875 390.796875 299.398438 389.703125 299.398438 C 389.5 299.398438 389.398438 298.203125 389.703125 296.898438 C 389.835938 295.164062 389.664062 294.164062 389.203125 293.898438 C 388.734375 293.632812 388.46875 293.703125 388.398438 294.101562 C 388.398438 294.898438 385 298.703125 384.398438 298.703125 C 384 298.632812 383.664062 297.835938 383.398438 296.296875 L 382.601562 291.5 C 382.46875 290.367188 382.796875 291.03125 383.601562 293.5 L 385.203125 297.601562 L 386.796875 295.101562 C 387.523438 294.070312 388.0625 292.914062 388.398438 291.703125 C 388.398438 291.164062 388.632812 291 389.101562 291.203125 C 389.5 291.398438 390 293.101562 390.203125 294.898438 L 390.703125 298.296875 L 392.5 296.296875 L 395.101562 293.101562 C 395.796875 291.898438 395.898438 291.898438 397.398438 293.101562 C 398.203125 293.898438 399.5 295.601562 400.296875 297 C 401.101562 298.398438 401.796875 299.398438 401.898438 299.296875 L 402.5 296.101562 L 402.898438 293.101562 C 403 292.601562 408.296875 296.101562 410.296875 297.796875 C 411.5 298.898438 412.703125 299.703125 412.898438 299.5 C 413.101562 299.296875 413.296875 297.703125 413.296875 295.796875 C 413.296875 293 413 292.203125 411.296875 290.703125 C 409.296875 288.898438 409.296875 288.898438 408.5 290.203125 C 407.5 291.898438 406.398438 291.898438 406.398438 290.203125 C 406.398438 289 402.601562 284.296875 401.703125 284.296875 C 401.296875 284.429688 400.703125 285.203125 399.898438 286.601562 C 398.703125 288.703125 398.398438 288.898438 398.203125 288.898438 C 397.203125 288.898438 391.898438 282.898438 391.898438 281.898438 C 391.898438 281.03125 392.335938 281.296875 393.203125 282.703125 C 394.09375 284.015625 395.132812 285.21875 396.296875 286.296875 C 398.296875 288.101562 399.101562 287.703125 399.898438 284.203125 C 400.234375 283.132812 400.570312 282.53125 400.898438 282.398438 C 401.703125 282.398438 406.296875 287.296875 406.898438 288.898438 L 407.601562 290.5 L 408.101562 288.703125 C 408.703125 286.570312 409.46875 286.5 410.398438 288.5 C 410.796875 289.296875 412.796875 291.101562 414.796875 292.296875 L 418.5 294.703125 L 419.203125 292.296875 C 419.734375 290.96875 420.132812 290.429688 420.398438 290.703125 C 420.796875 291.203125 419.796875 295.203125 419.101562 296 C 419.101562 296.101562 417.796875 295.398438 416.5 294.5 L 414 292.703125 L 414 295.898438 C 414 297.601562 413.796875 299.703125 413.601562 300.5 C 413.101562 302.101562 411.898438 302.5 411.898438 301.101562 Z M 393.5 275.703125 C 389.101562 272.101562 388.5 271.296875 388.5 269.5 L 388.601562 267.703125 L 388.898438 269.398438 C 389.101562 270.398438 390.296875 272 391.703125 273.203125 L 394.296875 275.203125 L 395.796875 273.398438 C 396.703125 272.398438 397.398438 271.203125 397.398438 270.796875 C 397.398438 269.601562 397.601562 269.703125 400.601562 272.296875 C 403.203125 274.601562 403.296875 274.601562 403.601562 273.101562 C 403.898438 272.296875 403.796875 270.703125 403.601562 269.601562 C 402.601562 266.664062 402.765625 266.132812 404.101562 268 L 406.5 270.796875 C 407.5 271.898438 407.601562 271.898438 408 270.5 C 408.296875 269.601562 408.5 268.101562 408.5 267.101562 L 408.5 265.203125 L 410.796875 267.898438 C 413.101562 270.5 413.296875 270.601562 413.898438 269.296875 C 414.398438 268.601562 414.703125 266.898438 414.703125 265.601562 C 414.703125 263.867188 414.898438 263.335938 415.296875 264 C 416.101562 265.203125 415.601562 268.203125 414.203125 270.796875 L 413.203125 272.796875 L 411.898438 270.703125 C 410.203125 268.101562 409.601562 268.101562 408.601562 270.898438 C 407.664062 273.570312 406.765625 273.835938 405.898438 271.703125 C 405.296875 270.398438 405.101562 270.601562 404.703125 273.398438 L 404.203125 276.398438 L 401.203125 274.101562 L 398.203125 271.796875 L 396.703125 273.296875 C 396 274.203125 395.398438 275.296875 395.398438 275.703125 C 395.335938 276.703125 394.703125 276.703125 393.5 275.703125 M 432.5 262.101562 C 431 260.703125 429.898438 259.296875 430.101562 259.101562 C 430.429688 258.765625 430.632812 258.703125 430.703125 258.898438 L 433.703125 261.898438 C 437.101562 265.5 436.398438 265.601562 432.601562 262.101562 Z M 380.5 256.703125 C 379.101562 254.703125 379.203125 253.5 381 251.296875 C 382.203125 249.796875 382.796875 249.601562 385 249.898438 C 386.5 250 389.601562 251.296875 391.898438 252.703125 C 395.21875 254.695312 399.023438 255.734375 402.898438 255.703125 L 401.203125 252.898438 C 398.929688 249.703125 399.070312 249.132812 401.601562 251.203125 C 404.203125 253.296875 407.296875 253.898438 414.296875 253.703125 L 417.703125 253.601562 L 415.703125 251.601562 C 413 248.898438 413.796875 248.601562 416.898438 251.296875 C 419.703125 253.796875 419.601562 254 413.5 254.601562 C 410.953125 254.859375 408.390625 254.6875 405.898438 254.101562 C 402.5 253.101562 402.296875 253.203125 403 254.296875 C 403.46875 255.03125 403.898438 255.429688 404.296875 255.5 C 404.703125 255.570312 404.929688 255.835938 405 256.296875 C 405 257.601562 397.601562 256.398438 394 254.703125 C 386 250.601562 385 250.203125 383 250.796875 C 381.90625 251.179688 381.03125 252.023438 380.601562 253.101562 C 379.296875 256.398438 384 259 385.898438 256.101562 C 386.5 255.203125 386.398438 254.703125 385.398438 253.601562 C 384 252.265625 384.203125 251.929688 386 252.601562 C 387.296875 253.101562 387.398438 256.203125 386.203125 257.398438 C 384.898438 258.703125 381.703125 258.398438 380.5 256.703125 " transform="matrix(0.5,0,0,0.5,0,-38)"/>
<path style="fill-rule:nonzero;fill:rgb(0%,0%,0.392157%);fill-opacity:1;stroke-width:5.6;stroke-linecap:butt;stroke-linejoin:miter;stroke:rgb(0%,0%,0%);stroke-opacity:1;stroke-miterlimit:4;" d="M 412.398438 248.601562 C 411.398438 247.601562 412.203125 247.398438 416.703125 247.296875 C 422.296875 247.203125 425.703125 246.296875 429.703125 243.703125 C 432.898438 241.703125 433.796875 242.101562 430.703125 244.203125 C 428 246.203125 423.703125 247.601562 419.398438 248 L 414.296875 248.703125 C 413.367188 248.898438 412.703125 248.867188 412.296875 248.601562 Z M 412.398438 248.601562 " transform="matrix(0.5,0,0,0.5,0,-38)"/>
<path style=" stroke:none;fill-rule:nonzero;fill:rgb(100%,71.764708%,0%);fill-opacity:1;" d="M 181.75 169.898438 L 182.898438 169.199219 L 183.398438 169.898438 C 184.050781 170.800781 185.898438 170.75 187.101562 169.898438 L 188.050781 169.148438 L 188.851562 169.851562 C 189.851562 170.800781 191.75 170.800781 193 169.851562 C 193.851562 169.25 194 169.199219 194.5 169.699219 C 194.851562 170 195.851562 170.300781 196.699219 170.449219 C 198.300781 170.648438 198.300781 170.648438 199.199219 169.25 C 200 168.101562 200.101562 167.648438 199.949219 166.5 L 199.648438 163.851562 C 199.550781 162.550781 199.601562 162.550781 201.449219 161.851562 L 204.148438 160.851562 C 204.898438 160.398438 207 157.949219 207 157.449219 C 207 157.351562 206.199219 157.148438 205.199219 157.050781 C 201.199219 156.582031 200.515625 154.417969 203.148438 150.550781 C 207.300781 144.050781 209.851562 137.800781 209.851562 133.851562 C 209.851562 132.082031 209.964844 131.417969 210.199219 131.851562 C 211.148438 133.398438 209.449219 140.050781 206.949219 144.851562 L 205.949219 146.75 L 206.898438 146.550781 C 207.398438 146.398438 210.601562 145.050781 213.898438 143.550781 C 223 139.449219 226.101562 138.648438 232 138.898438 C 236.949219 139.101562 239 140.050781 242.5 143.699219 C 244.351562 145.699219 246.148438 147.050781 249.398438 149.101562 C 256.300781 153.398438 256.601562 153.800781 256.949219 158.898438 C 257.300781 164 257.101562 164.351562 253.199219 165.199219 C 249.800781 165.964844 247.800781 167.464844 247.199219 169.699219 C 246.867188 170.832031 247.535156 170.851562 249.199219 169.75 L 250.449219 168.949219 L 251 169.75 C 251.75 170.800781 253.25 170.800781 254.5 169.75 L 255.5 169 L 256.5 169.75 C 258 171 260 170.699219 260.601562 169.148438 C 260.699219 168.882812 261.035156 169 261.601562 169.5 C 262.75 170.5 265.601562 170.898438 265.898438 170.101562 C 266 169.800781 265.800781 169.101562 265.398438 168.5 C 263.75 166 263.199219 164.851562 263.199219 163.5 C 263.199219 161.601562 263.699219 160.648438 265.898438 159.148438 C 268.5 157.25 269.300781 154.851562 267.300781 154.851562 C 266.101562 154.851562 264.851562 153.75 264.050781 152 C 262.449219 148.398438 262.800781 144.398438 265.199219 137.699219 C 267.035156 133.753906 267.957031 129.449219 267.898438 125.101562 C 267.898438 121.398438 267.800781 120.800781 267 118.75 C 266.375 117.324219 265.605469 115.96875 264.699219 114.699219 L 263.300781 112.851562 L 265.050781 111.351562 C 270.449219 106.898438 269.351562 99.601562 262.851562 96.800781 C 260.851562 95.898438 260.351562 95.851562 256.851562 95.851562 C 254.851562 95.851562 251.601562 96.148438 249.851562 96.5 C 247.5 96.871094 245.128906 97.074219 242.75 97.101562 C 239.351562 97.101562 238.75 97 237.449219 96.300781 C 236.101562 95.601562 235.851562 95.25 235.601562 93.550781 C 235.550781 93.226562 235.34375 92.945312 235.050781 92.800781 C 234.550781 92.648438 232.449219 94.5 232.148438 95.300781 C 231.949219 95.75 231.851562 95.699219 231.398438 95.148438 C 230.972656 94.605469 230.636719 94 230.398438 93.351562 C 229.867188 91.714844 230.566406 90.449219 232.5 89.550781 L 234 88.851562 L 233.101562 88.300781 C 231.300781 87.148438 228.199219 87.949219 227.101562 89.800781 C 226.75 90.300781 226.398438 90.800781 226.300781 90.800781 C 226.199219 90.800781 225.601562 90.300781 225 89.648438 C 222.648438 87.351562 223.449219 83.949219 226.601562 82.949219 C 228.25 82.398438 229.75 82.800781 230.050781 83.949219 C 230.550781 85.601562 231.949219 83.398438 231.699219 81.351562 C 231.550781 80 231.550781 79.949219 232.5 79.949219 C 233.800781 79.949219 236.5 81.648438 237.398438 82.949219 C 238.398438 84.5 238.300781 86.949219 237.199219 88.75 L 236.351562 90.148438 L 237.5 89.949219 C 239.101562 89.601562 240.699219 88.601562 241.5 87.351562 C 242.355469 85.738281 242.425781 83.824219 241.699219 82.148438 C 240.949219 80.800781 241.050781 80.601562 242.148438 81.050781 C 243.949219 81.800781 244.949219 82.648438 245.648438 84.101562 C 246.351562 85.398438 246.398438 85.699219 246.050781 87.101562 C 245.8125 87.953125 245.4375 88.761719 244.949219 89.5 C 244.351562 90.300781 244.300781 90.449219 244.800781 90.449219 C 245.699219 90.449219 247.5 89.601562 248.148438 88.949219 C 248.5 88.550781 249 87.699219 249.25 86.949219 L 249.75 85.699219 L 250.25 86.699219 C 251 88.050781 252.5 89.300781 254.300781 90.101562 C 256.25 90.898438 257.050781 90.949219 256.050781 90.199219 C 255.351562 89.699219 254.050781 85.949219 254.5 85.601562 C 256.65625 86.808594 258.628906 88.324219 260.351562 90.101562 C 263.199219 92.648438 265 93.5 267.601562 93.5 C 270.949219 93.5 272.898438 90.601562 271.398438 87.851562 C 270.550781 86.25 268.601562 86 267.398438 87.351562 C 266.898438 87.949219 266.734375 88.566406 266.898438 89.199219 C 267.101562 90 267.050781 90.101562 266.300781 90.101562 C 265.300781 90.101562 263.398438 88.851562 260 86 C 255.265625 81.925781 249.828125 78.757812 243.949219 76.648438 C 239.96875 75.726562 235.855469 75.503906 231.800781 76 C 228.601562 76.601562 224.800781 78.449219 222.699219 80.398438 C 219.050781 83.898438 219 88.550781 222.550781 92.800781 L 223.550781 94 L 222.898438 95.101562 C 221.855469 96.699219 221.9375 98.785156 223.101562 100.300781 C 223.601562 101 224.101562 101.550781 224.25 101.550781 C 224.351562 101.484375 224.433594 101.148438 224.5 100.550781 C 224.601562 99.183594 225.167969 98.316406 226.199219 97.949219 C 227.101562 97.601562 227.699219 97.800781 231.800781 99.449219 C 236.148438 101.148438 243.300781 101.25 250.898438 99.75 C 254.195312 98.996094 257.621094 99.03125 260.898438 99.851562 C 264.5 101.351562 265.300781 105.199219 262.699219 108.101562 C 261.550781 109.398438 260.5 109.898438 256.851562 110.898438 C 253.671875 111.742188 250.367188 111.996094 247.101562 111.648438 C 241.699219 111.601562 239.75 111.699219 237.601562 112.148438 C 235.148438 112.648438 233.699219 112.699219 226.699219 112.550781 L 218.550781 112.351562 L 219.449219 113.050781 L 221 114.199219 C 221.648438 114.550781 221.601562 114.601562 220.699219 114.949219 C 220.199219 115.148438 219 115.300781 218.050781 115.300781 L 216.398438 115.300781 L 216.199219 116.699219 C 216.066406 117.359375 216.066406 118.039062 216.199219 118.699219 C 216.398438 119.167969 216.265625 119.300781 215.800781 119.101562 C 215.449219 118.949219 214.5 118.699219 213.648438 118.550781 C 212.792969 118.363281 211.957031 118.097656 211.148438 117.75 C 210.199219 117.25 210.101562 117.25 209.75 117.898438 C 209.449219 118.398438 206.648438 120.5 206.25 120.5 C 206.066406 119.203125 205.695312 117.941406 205.148438 116.75 C 204.648438 115.699219 204.199219 114.5 204.050781 114.148438 C 203.917969 113.617188 203.75 113.566406 203.550781 114 C 203.398438 114.25 203.199219 115 203.050781 115.601562 C 202.871094 116.410156 202.566406 117.183594 202.148438 117.898438 L 201.398438 119 L 200.898438 118.050781 C 200.398438 117.050781 199.601562 115.949219 199.300781 115.949219 C 199.199219 115.949219 199.082031 116.199219 198.949219 116.699219 C 198.699219 117.5 196.75 119.851562 196.25 119.851562 C 196.101562 119.851562 195.949219 119.199219 195.949219 118.351562 C 195.949219 117.601562 195.800781 116.898438 195.601562 116.898438 C 195.398438 116.933594 195.285156 117.101562 195.25 117.398438 C 195.25 118 193.601562 119.898438 193 119.898438 C 192.734375 119.898438 192.449219 120.066406 192.148438 120.398438 C 191.550781 121.050781 191.050781 120.949219 191.300781 120.199219 C 191.371094 119.558594 191.300781 118.910156 191.101562 118.300781 L 190.601562 116.699219 C 190.535156 116.464844 189.867188 116.550781 188.601562 116.949219 C 186.601562 117.601562 185.898438 117.449219 186.949219 116.648438 C 187.351562 116.351562 187.949219 115.300781 188.25 114.351562 C 188.601562 113.351562 189.101562 112.5 189.351562 112.398438 C 189.714844 112.265625 189.683594 112.464844 189.25 113 C 188.964844 113.382812 188.777344 113.828125 188.699219 114.300781 C 188.699219 114.550781 188.449219 115.199219 188.199219 115.75 C 187.949219 116.300781 187.699219 116.75 187.75 116.800781 C 187.800781 116.851562 188.601562 116.550781 189.5 116.148438 L 191.101562 115.351562 L 191.101562 116.050781 C 191.101562 116.449219 191.300781 117.449219 191.550781 118.300781 L 192 119.800781 L 193.101562 119.300781 C 194.199219 118.800781 195.25 117 195.25 115.550781 C 195.25 114.851562 195.648438 114.949219 195.851562 115.699219 C 195.851562 115.898438 196.148438 116.75 196.351562 117.550781 L 196.851562 118.949219 L 197.601562 118.050781 C 198.050781 117.550781 198.550781 116.550781 198.75 115.898438 C 199.148438 114.699219 199.75 114.148438 199.75 115.050781 C 199.75 115.648438 201.449219 117.949219 201.75 117.75 C 201.949219 117.648438 202.25 116.800781 202.5 115.851562 C 203 113.851562 203.75 112.550781 204.25 112.851562 C 204.449219 112.984375 204.5 113.148438 204.398438 113.351562 C 204.300781 113.449219 204.699219 114.75 205.300781 116.148438 L 206.601562 119.300781 C 206.800781 119.800781 207 119.800781 208.25 118.648438 C 209 117.949219 209.75 117.199219 209.800781 116.949219 C 209.949219 116.550781 210.101562 116.601562 210.800781 117.050781 C 212.273438 117.828125 213.890625 118.304688 215.550781 118.449219 C 215.648438 118.351562 215.75 117.449219 215.75 116.449219 L 215.800781 114.601562 L 216.800781 114.800781 C 217.300781 114.949219 218.449219 114.949219 219.300781 114.800781 L 220.800781 114.601562 L 219.449219 113.601562 C 218.699219 113.101562 217.949219 112.449219 217.75 112.148438 C 217.550781 111.851562 216.898438 111.550781 216.148438 111.5 C 214.101562 111.300781 210.449219 109.300781 210.449219 108.300781 C 210.515625 108.167969 210.882812 108.398438 211.550781 109 C 212.949219 110.25 214.851562 111 216.550781 111 L 217.75 111 L 217 110 C 216.46875 109.222656 216.125 108.332031 216 107.398438 C 215.898438 105.898438 215.75 105.699219 214.199219 104.648438 C 213.300781 104.011719 212.464844 103.292969 211.699219 102.5 L 210.851562 101.550781 L 210.398438 102.699219 C 210.132812 103.398438 209.917969 103.785156 209.75 103.851562 C 209.648438 103.851562 209.148438 103.449219 208.75 103 C 208.46875 102.675781 208.128906 102.402344 207.75 102.199219 C 207.601562 102.199219 207.25 102.800781 206.851562 103.550781 L 206.148438 104.898438 L 205.648438 104.148438 C 205.203125 103.539062 204.703125 102.96875 204.148438 102.449219 C 203.515625 101.917969 203.300781 101.617188 203.5 101.550781 C 203.699219 101.550781 204.351562 102.050781 205 102.699219 L 206.101562 103.851562 L 206.601562 103 C 206.890625 102.410156 206.976562 101.742188 206.851562 101.101562 C 206.648438 100.234375 206.699219 100.117188 207 100.75 C 207.429688 101.3125 207.9375 101.820312 208.5 102.25 L 209.601562 103.148438 L 210.351562 101.800781 C 211.101562 100.398438 211.101562 100.398438 211.398438 101.25 C 211.898438 102.300781 215.148438 105 217.898438 106.550781 C 218.398438 106.816406 218.234375 105.984375 217.398438 104.050781 C 217.164062 103.410156 217.027344 102.734375 217 102.050781 C 217 101.148438 216.75 100.75 215.601562 99.851562 C 214.15625 98.917969 213.230469 97.363281 213.101562 95.648438 C 212.949219 94.800781 212.648438 93.898438 212.398438 93.601562 C 212.101562 93.035156 212 93.464844 212.101562 94.898438 C 212.199219 95.949219 212.050781 97.25 211.800781 97.800781 L 211.398438 98.800781 L 211.101562 97.949219 C 210.898438 97.5 210.101562 96.699219 209.351562 96.199219 C 208.601562 95.699219 208.050781 95.199219 208.148438 95.101562 C 208.25 95 209.050781 95.449219 209.898438 96.101562 C 211.25 97.148438 211.5 97.25 211.699219 96.800781 C 211.898438 96.300781 211.699219 94 211.300781 92.398438 C 211.101562 91.601562 211.101562 91.601562 212.101562 92.601562 C 212.765625 93.234375 213.25 94.265625 213.550781 95.699219 C 213.949219 97.601562 214.148438 97.949219 215.898438 99.5 C 216.949219 100.449219 217.898438 101.148438 217.949219 101.101562 C 218.050781 101 218.148438 98.601562 218.25 95.699219 C 218.449219 90.148438 218.25 88.800781 216.898438 87.101562 L 216.199219 86.199219 L 217.300781 85.050781 C 218.53125 83.871094 219.355469 82.328125 219.648438 80.648438 L 219.851562 79.300781 L 218.648438 80.449219 C 217.648438 81.398438 217.148438 81.601562 216 81.601562 C 214.851562 81.601562 214.398438 81.398438 213.648438 80.601562 C 212.480469 79.476562 211.058594 78.652344 209.5 78.199219 C 208.933594 78 208.667969 78.101562 208.699219 78.5 C 208.699219 78.800781 208.398438 79.601562 208 80.351562 L 207.300781 81.648438 L 205.800781 80.148438 C 204.851562 79.300781 203.800781 78.550781 202.949219 78.351562 C 200.898438 77.851562 200.800781 77.851562 200.800781 79.398438 C 200.765625 81.765625 199.832031 82.183594 198 80.648438 C 196.601562 79.449219 195.5 79.148438 192.851562 79.5 L 190.851562 79.699219 L 191.199219 80.601562 C 191.5 81.351562 191.449219 81.699219 190.800781 82.550781 C 189.75 83.949219 188.398438 84.550781 186.300781 84.550781 C 185.300781 84.550781 184.101562 84.75 183.601562 85 C 183.101562 85.25 181.800781 85.5 180.75 85.601562 C 179.75 85.699219 178.601562 85.898438 178.25 86 C 177.75 86.199219 177.75 86 177.898438 84.898438 C 178.148438 83.199219 176.898438 81.898438 175.050781 81.898438 C 172.601562 81.898438 171.5 84.101562 172.449219 87 L 172.949219 88.898438 C 173.605469 90.148438 174.488281 91.269531 175.550781 92.199219 C 176.851562 93.5 178.050781 94.851562 178.25 95.199219 C 178.652344 95.722656 179.164062 96.148438 179.75 96.449219 L 180.851562 97.050781 L 180.699219 95.851562 C 180.535156 94.515625 180.800781 94.332031 181.5 95.300781 C 181.75 95.601562 182.398438 96.148438 182.898438 96.449219 C 183.75 96.949219 183.898438 96.949219 183.898438 96.550781 C 183.898438 96.25 184.050781 95.601562 184.25 95.101562 L 184.601562 94.199219 L 185.25 95.449219 C 185.601562 96.148438 186.75 97.699219 187.800781 98.949219 C 189.851562 101.300781 191.148438 103.949219 190.5 104.550781 C 190.199219 104.800781 189.5 104.800781 188 104.5 C 186.898438 104.300781 185.5 104.148438 184.898438 104.25 C 183.75 104.398438 183.648438 104.25 184.398438 103.351562 C 185.148438 102.351562 185 102.199219 183.5 102.199219 C 181.75 102.199219 177.398438 101.351562 175.699219 100.699219 C 174.101562 100.050781 173.699219 100.199219 173.199219 101.75 L 172.351562 104.550781 L 171.851562 106.050781 L 173.648438 105.898438 C 174.578125 105.804688 175.496094 105.636719 176.398438 105.398438 C 176.753906 105.28125 177.128906 105.230469 177.5 105.25 C 177.601562 105.300781 177.351562 105.898438 177 106.601562 L 176.300781 107.800781 L 177.398438 107.601562 C 178 107.449219 178.898438 107.148438 179.398438 106.898438 C 180.300781 106.5 180.398438 106.5 181.101562 107.648438 C 182 108.984375 182.550781 108.933594 182.75 107.5 C 182.882812 105.964844 183.417969 106.199219 184.351562 108.199219 C 185.25 110.101562 186.148438 110.800781 186.351562 109.699219 C 186.449219 109.234375 186.800781 108.765625 187.398438 108.300781 C 188.5 107.566406 189.285156 107.785156 189.75 108.949219 C 190.25 110.199219 189.148438 111.449219 186.050781 113.351562 C 180.230469 116.5625 176.226562 122.285156 175.199219 128.851562 C 174.25 134.75 177.199219 140.851562 183 145.300781 C 185.800781 147.398438 190.25 149.601562 189.949219 148.800781 C 188.75 145.148438 188.800781 138.300781 190 137.148438 C 190.199219 136.949219 190.148438 137.648438 189.851562 138.699219 C 188.851562 142.648438 189.351562 145.75 191.851562 153.050781 C 194.050781 159.648438 193.75 162.5 190.550781 164.351562 C 189.550781 164.949219 188.898438 165.050781 186.148438 165 C 183.148438 165 182.800781 165 181.851562 165.800781 C 180.710938 166.980469 179.957031 168.480469 179.699219 170.101562 C 179.699219 170.734375 180.367188 170.667969 181.699219 169.898438 Z M 181.75 169.898438 "/>
<path style=" stroke:none;fill-rule:nonzero;fill:rgb(100%,71.764708%,0%);fill-opacity:1;" d="M 230.25 169.75 L 231.5 168.949219 L 232.351562 169.75 C 233.449219 170.800781 234.800781 170.75 235.851562 169.699219 C 236.382812 169.167969 236.699219 168.917969 236.800781 168.949219 L 237.25 169.75 C 237.484375 170.183594 238.082031 170.433594 239.050781 170.5 C 240.199219 170.550781 240.550781 170.5 241.050781 169.800781 L 241.550781 168.949219 L 242.800781 169.75 C 246.199219 171.949219 248 169.648438 246.449219 165.101562 C 245.699219 162.800781 246.148438 161.5 248.601562 158.601562 C 249.648438 157.351562 250.5 156 250.5 155.601562 C 250.5 155.050781 250.300781 154.949219 248.898438 155 C 247.601562 155 247.199219 154.851562 246.5 154.101562 C 245.367188 152.832031 245.433594 151.398438 246.699219 149.800781 L 247.699219 148.550781 L 245.898438 147.351562 C 244.464844 146.289062 243.125 145.101562 241.898438 143.800781 C 239.6875 141.210938 236.542969 139.59375 233.148438 139.300781 L 230.800781 139.050781 L 230.800781 140.851562 C 230.800781 143.101562 231.898438 145.300781 234.800781 149 C 238.101562 153.199219 238.300781 153.851562 238.449219 159.351562 L 238.601562 164 L 237.601562 164.898438 C 236.75 165.699219 236.398438 165.851562 233.601562 166 C 230.949219 166.148438 230.351562 166.300781 229.601562 167 C 228.734375 167.648438 228.128906 168.589844 227.898438 169.648438 C 227.75 170.398438 227.800781 170.550781 228.351562 170.550781 C 228.699219 170.550781 229.550781 170.199219 230.25 169.75 M 159.148438 157.75 C 159.449219 157.304688 159.621094 156.785156 159.648438 156.25 C 159.648438 155.75 159.949219 155.550781 161.25 155.351562 L 162.800781 155.148438 L 161.800781 154.300781 C 160.550781 153.300781 160.398438 152.550781 161.5 152.550781 C 162.601562 152.550781 164.398438 151.449219 164.699219 150.601562 C 164.800781 150.132812 164.734375 149.75 164.5 149.449219 C 163.898438 148.75 162.75 148.851562 162.550781 149.648438 C 162.300781 150.449219 161.949219 150.449219 161.050781 149.648438 C 159.800781 148.398438 159.75 145.851562 161.050781 144.351562 C 161.601562 143.648438 161.601562 143.648438 160.851562 142.898438 C 160.050781 142.101562 159.449219 140.601562 159.851562 140.199219 C 159.949219 140.101562 160.601562 140.199219 161.25 140.449219 C 162.25 140.75 162.601562 140.75 163 140.449219 C 164.148438 139.5 162.898438 138.300781 161 138.601562 C 160.265625 138.734375 159.867188 138.601562 159.800781 138.199219 C 159.699219 137.898438 159.050781 137.5 158.300781 137.300781 C 156.949219 136.949219 156.949219 136.949219 156.949219 137.898438 C 156.949219 138.898438 156.382812 139.082031 155.25 138.449219 C 154.351562 137.949219 153.5 138.351562 153.5 139.300781 C 153.5 140.199219 154.332031 140.601562 156 140.5 C 157.199219 140.449219 157.25 141.351562 156.101562 142.648438 L 155.25 143.648438 L 155.898438 144.601562 C 156.898438 146 156.800781 148.351562 155.75 149.550781 L 154.898438 150.449219 L 154.351562 149.699219 C 153.550781 148.699219 152.5 148.75 152.199219 149.851562 C 152.050781 150.550781 152.199219 150.851562 153.101562 151.648438 C 153.699219 152.148438 154.601562 152.550781 155.050781 152.550781 C 156.199219 152.550781 156.148438 153.5 154.949219 154.398438 L 153.949219 155.148438 L 155.449219 155.351562 C 156.25 155.5 156.949219 155.699219 156.949219 155.851562 C 156.949219 156.5 157.949219 158.449219 158.25 158.449219 C 158.515625 158.382812 158.816406 158.132812 159.148438 157.699219 Z M 159.148438 157.75 "/>
<path style=" stroke:none;fill-rule:nonzero;fill:rgb(100%,71.764708%,0%);fill-opacity:1;" d="M 178.25 149.449219 C 179.601562 148.949219 182.5 146.449219 182.5 145.898438 C 182.5 145.699219 181.699219 144.800781 180.699219 143.898438 C 178.699219 142.101562 176.449219 138.949219 175.851562 137.148438 C 175.550781 136.148438 174.101562 134.550781 170 130.550781 L 164.550781 125.300781 L 163 125.699219 C 162.101562 125.898438 161.050781 126.101562 160.648438 126.101562 C 159.898438 126.101562 159.898438 126.101562 160.898438 126.898438 L 161.898438 127.699219 L 163.398438 126.898438 C 164.75 126.101562 164.800781 126.101562 164.949219 126.75 C 165.050781 127.101562 164.851562 127.75 164.449219 128.199219 C 164.101562 128.648438 163.898438 129.199219 163.949219 129.351562 C 164.050781 129.550781 163.800781 129.816406 163.199219 130.148438 C 162.199219 130.648438 161.449219 132.300781 162.25 132.300781 C 163 132.300781 164.601562 130.300781 164.398438 129.648438 C 164.332031 129.25 164.367188 128.984375 164.5 128.851562 C 165.148438 128.5 165.101562 130.050781 164.5 130.851562 C 164.101562 131.25 163.898438 131.75 164 131.949219 C 164.066406 132.148438 163.800781 132.417969 163.199219 132.75 C 162.199219 133.25 161.449219 134.898438 162.25 134.898438 C 163.050781 134.898438 164.601562 133 164.449219 132.300781 C 164.351562 131.898438 164.367188 131.617188 164.5 131.449219 C 164.949219 131.25 165.148438 132.449219 164.800781 133.050781 C 164.582031 133.382812 164.582031 133.816406 164.800781 134.148438 C 165.148438 134.800781 164.800781 136 164.148438 136.398438 C 163.882812 136.566406 164.082031 136.898438 164.75 137.398438 C 165.75 138.101562 165.75 138.199219 165.75 141.398438 C 165.75 144.101562 165.851562 144.800781 166.351562 145.25 C 166.785156 145.75 166.984375 145.75 166.949219 145.25 C 166.898438 144.5 167.949219 144.050781 168.699219 144.050781 C 168.949219 144.050781 170.398438 145.300781 171.949219 146.800781 C 173.5 148.300781 175.148438 149.648438 175.601562 149.699219 L 176.699219 149.898438 C 176.851562 149.898438 177.550781 149.75 178.25 149.398438 Z M 161.601562 136.398438 C 161.601562 135.550781 159.800781 134.601562 157.648438 134.398438 C 155.898438 134.148438 155.898438 134.199219 155.898438 135.050781 C 155.898438 135.75 156.148438 136.050781 157.398438 136.550781 C 159.300781 137.398438 161.601562 137.300781 161.601562 136.398438 "/>
<path style=" stroke:none;fill-rule:nonzero;fill:rgb(100%,71.764708%,0%);fill-opacity:1;" d="M 163.550781 136.300781 C 164.449219 135.5 164.851562 134.601562 164.300781 134.601562 C 163.75 134.601562 162.101562 136 162.101562 136.601562 C 162.101562 137.398438 162.398438 137.351562 163.601562 136.300781 Z M 161.699219 133.75 C 161.800781 133.316406 161.417969 132.898438 160.550781 132.5 C 158.550781 131.648438 156.25 131.199219 155.699219 131.648438 C 154.648438 132.5 155.351562 133.601562 157 133.800781 C 157.699219 133.851562 158.601562 134.050781 159.050781 134.25 C 160.351562 134.75 161.550781 134.5 161.699219 133.75 M 161.699219 131.101562 C 161.800781 130.449219 161.351562 130.199219 157.699219 128.898438 C 154.949219 127.898438 153.75 128.398438 154.648438 130.050781 C 154.949219 130.601562 155.449219 130.851562 156.601562 131.050781 C 157.449219 131.148438 158.601562 131.398438 159.148438 131.601562 C 160.683594 132.101562 161.515625 131.933594 161.648438 131.101562 Z M 163.5 128.648438 C 164.050781 128.101562 164.5 127.449219 164.5 127.148438 C 164.5 126.398438 162.351562 127.800781 162.050781 128.800781 C 161.785156 129.964844 162.285156 129.917969 163.550781 128.648438 Z M 161.699219 128.5 C 161.800781 127.699219 160.535156 127.015625 157.898438 126.449219 C 155.964844 126.015625 155.082031 126.25 155.25 127.148438 C 155.351562 127.648438 156 128 157.75 128.550781 C 160.699219 129.449219 161.550781 129.449219 161.699219 128.5 M 164.199219 124.800781 C 167.601562 123.300781 167.851562 119.550781 164.699219 118.550781 C 163.433594 118.148438 162.566406 118.382812 162.101562 119.25 C 161.699219 119.949219 161.949219 121.148438 162.449219 121.148438 C 162.648438 121.183594 162.765625 121.351562 162.800781 121.648438 C 162.800781 123 157.699219 123.550781 155.601562 122.5 C 154.851562 122.148438 154.601562 121.148438 155.148438 121.148438 C 155.648438 121.148438 155.949219 120.148438 155.699219 119.5 C 155.367188 118.5 154.484375 118.199219 153.050781 118.601562 C 149.898438 119.398438 150 123.101562 153.199219 124.601562 C 156.742188 125.882812 160.613281 125.953125 164.199219 124.800781 "/>
<path style=" stroke:none;fill-rule:nonzero;fill:rgb(100%,71.764708%,0%);fill-opacity:1;" d="M 162.148438 121.898438 C 162.316406 121.667969 162.25 121.433594 161.949219 121.199219 C 161.285156 120.601562 161.316406 119.816406 162.050781 118.851562 C 162.648438 118.148438 162.699219 117.050781 162.898438 106.300781 C 163.25 87.75 164.648438 73.800781 166.449219 70.398438 C 167.199219 69.101562 167.101562 69.101562 165.199219 70.398438 C 162.707031 72.136719 160.695312 74.476562 159.351562 77.199219 C 156.25 82.949219 155.199219 90.699219 155.199219 107.300781 C 155.199219 116.699219 155.25 117.949219 155.800781 118.800781 C 156.300781 119.699219 156.300781 120 156 120.898438 C 155.75 121.449219 155.648438 122.050781 155.75 122.148438 C 156.449219 122.800781 161.449219 122.648438 162.148438 121.898438 M 190.199219 104.199219 C 190.351562 104.050781 190.101562 103.199219 189.699219 102.398438 C 189.101562 101.101562 188.851562 100.898438 188 100.898438 C 184.003906 100.550781 180.101562 99.46875 176.5 97.699219 C 173.949219 96.550781 173 96.300781 172.75 96.601562 C 171.949219 97.351562 173.25 99.101562 175.25 100.050781 C 178.191406 101.109375 181.277344 101.734375 184.398438 101.898438 C 185.75 101.898438 185.800781 101.898438 185 103.050781 L 184.5 103.851562 L 186 103.851562 L 188.5 104.148438 C 190 104.5 190 104.5 190.199219 104.199219 "/>
<path style=" stroke:none;fill-rule:nonzero;fill:rgb(0%,0%,0.392157%);fill-opacity:1;" d="M 206 112.550781 C 206 112.050781 204.550781 110.800781 203.148438 109.949219 C 202 109.300781 201.800781 109.25 201.800781 109.800781 C 201.800781 110.601562 201.101562 112.648438 200.800781 112.648438 C 200.601562 112.582031 200.433594 112.300781 200.300781 111.800781 C 200.148438 111.300781 199.601562 110.300781 199.050781 109.648438 L 198.050781 108.398438 L 197.351562 109.550781 C 196.648438 110.648438 195.398438 111.699219 194.851562 111.699219 C 194.75 111.699219 194.699219 111.101562 194.851562 110.449219 C 194.917969 109.582031 194.832031 109.082031 194.601562 108.949219 C 194.367188 108.816406 194.234375 108.851562 194.199219 109.050781 C 194.199219 109.449219 192.5 111.351562 192.199219 111.351562 C 192 111.316406 191.832031 110.917969 191.699219 110.148438 L 191.300781 107.75 C 191.234375 107.183594 191.398438 107.515625 191.800781 108.75 L 192.601562 110.800781 L 193.398438 109.550781 C 193.761719 109.035156 194.03125 108.457031 194.199219 107.851562 C 194.199219 107.582031 194.316406 107.5 194.550781 107.601562 C 194.75 107.699219 195 108.550781 195.101562 109.449219 L 195.351562 111.148438 L 196.25 110.148438 L 197.550781 108.550781 C 197.898438 107.949219 197.949219 107.949219 198.699219 108.550781 C 199.101562 108.949219 199.75 109.800781 200.148438 110.5 C 200.550781 111.199219 200.898438 111.699219 200.949219 111.648438 L 201.25 110.050781 L 201.449219 108.550781 C 201.5 108.300781 204.148438 110.050781 205.148438 110.898438 C 205.75 111.449219 206.351562 111.851562 206.449219 111.75 C 206.550781 111.648438 206.648438 110.851562 206.648438 109.898438 C 206.648438 108.5 206.5 108.101562 205.648438 107.351562 C 204.648438 106.449219 204.648438 106.449219 204.25 107.101562 C 203.75 107.949219 203.199219 107.949219 203.199219 107.101562 C 203.199219 106.5 201.300781 104.148438 200.851562 104.148438 C 200.648438 104.214844 200.351562 104.601562 199.949219 105.300781 C 199.351562 106.351562 199.199219 106.449219 199.101562 106.449219 C 198.601562 106.449219 195.949219 103.449219 195.949219 102.949219 C 195.949219 102.515625 196.167969 102.648438 196.601562 103.351562 C 197.046875 104.007812 197.566406 104.609375 198.148438 105.148438 C 199.148438 106.050781 199.550781 105.851562 199.949219 104.101562 C 200.117188 103.566406 200.285156 103.265625 200.449219 103.199219 C 200.851562 103.199219 203.148438 105.648438 203.449219 106.449219 L 203.800781 107.25 L 204.050781 106.351562 C 204.351562 105.285156 204.734375 105.25 205.199219 106.25 C 205.398438 106.648438 206.398438 107.550781 207.398438 108.148438 L 209.25 109.351562 L 209.601562 108.148438 C 209.867188 107.484375 210.066406 107.214844 210.199219 107.351562 C 210.398438 107.601562 209.898438 109.601562 209.550781 110 C 209.550781 110.050781 208.898438 109.699219 208.25 109.25 L 207 108.351562 L 207 109.949219 C 207 110.800781 206.898438 111.851562 206.800781 112.25 C 206.550781 113.050781 205.949219 113.25 205.949219 112.550781 Z M 196.75 99.851562 C 194.550781 98.050781 194.25 97.648438 194.25 96.75 L 194.300781 95.851562 L 194.449219 96.699219 C 194.550781 97.199219 195.148438 98 195.851562 98.601562 L 197.148438 99.601562 L 197.898438 98.699219 C 198.351562 98.199219 198.699219 97.601562 198.699219 97.398438 C 198.699219 96.800781 198.800781 96.851562 200.300781 98.148438 C 201.601562 99.300781 201.648438 99.300781 201.800781 98.550781 C 201.949219 98.148438 201.898438 97.351562 201.800781 96.800781 C 201.300781 95.332031 201.382812 95.066406 202.050781 96 L 203.25 97.398438 C 203.75 97.949219 203.800781 97.949219 204 97.25 C 204.148438 96.800781 204.25 96.050781 204.25 95.550781 L 204.25 94.601562 L 205.398438 95.949219 C 206.550781 97.25 206.648438 97.300781 206.949219 96.648438 C 207.199219 96.300781 207.351562 95.449219 207.351562 94.800781 C 207.351562 93.933594 207.449219 93.667969 207.648438 94 C 208.050781 94.601562 207.800781 96.101562 207.101562 97.398438 L 206.601562 98.398438 L 205.949219 97.351562 C 205.101562 96.050781 204.800781 96.050781 204.300781 97.449219 C 203.832031 98.785156 203.382812 98.917969 202.949219 97.851562 C 202.648438 97.199219 202.550781 97.300781 202.351562 98.699219 L 202.101562 100.199219 L 200.601562 99.050781 L 199.101562 97.898438 L 198.351562 98.648438 C 198 99.101562 197.699219 99.648438 197.699219 99.851562 C 197.667969 100.351562 197.351562 100.351562 196.75 99.851562 M 216.25 93.050781 C 215.5 92.351562 214.949219 91.648438 215.050781 91.550781 C 215.214844 91.382812 215.316406 91.351562 215.351562 91.449219 L 216.851562 92.949219 C 218.550781 94.75 218.199219 94.800781 216.300781 93.050781 Z M 190.25 90.351562 C 189.550781 89.351562 189.601562 88.75 190.5 87.648438 C 191.101562 86.898438 191.398438 86.800781 192.5 86.949219 C 193.25 87 194.800781 87.648438 195.949219 88.351562 C 197.609375 89.347656 199.511719 89.867188 201.449219 89.851562 L 200.601562 88.449219 C 199.464844 86.851562 199.535156 86.566406 200.800781 87.601562 C 202.101562 88.648438 203.648438 88.949219 207.148438 88.851562 L 208.851562 88.800781 L 207.851562 87.800781 C 206.5 86.449219 206.898438 86.300781 208.449219 87.648438 C 209.851562 88.898438 209.800781 89 206.75 89.300781 C 205.476562 89.429688 204.195312 89.34375 202.949219 89.050781 C 201.25 88.550781 201.148438 88.601562 201.5 89.148438 C 201.734375 89.515625 201.949219 89.714844 202.148438 89.75 C 202.351562 89.785156 202.464844 89.917969 202.5 90.148438 C 202.5 90.800781 198.800781 90.199219 197 89.351562 C 193 87.300781 192.5 87.101562 191.5 87.398438 C 190.953125 87.589844 190.515625 88.011719 190.300781 88.550781 C 189.648438 90.199219 192 91.5 192.949219 90.050781 C 193.25 89.601562 193.199219 89.351562 192.699219 88.800781 C 192 88.132812 192.101562 87.964844 193 88.300781 C 193.648438 88.550781 193.699219 90.101562 193.101562 90.699219 C 192.449219 91.351562 190.851562 91.199219 190.25 90.351562 "/>
<path style=" stroke:none;fill-rule:nonzero;fill:rgb(0%,0%,0.392157%);fill-opacity:1;" d="M 206.199219 86.300781 C 205.699219 85.800781 206.101562 85.699219 208.351562 85.648438 C 211.148438 85.601562 212.851562 85.148438 214.851562 83.851562 C 216.449219 82.851562 216.898438 83.050781 215.351562 84.101562 C 214 85.101562 211.851562 85.800781 209.699219 86 L 207.148438 86.351562 C 206.683594 86.449219 206.351562 86.433594 206.148438 86.300781 Z M 206.199219 86.300781 "/>
</g>
</svg>
