<?xml version="1.0" encoding="UTF-8"?>
<svg xmlns="http://www.w3.org/2000/svg" xmlns:xlink="http://www.w3.org/1999/xlink" width="px" height="px" viewBox="0 0 320 240" version="1.1">
<g id="surface1">
<rect x="0" y="0" width="320" height="240" style="fill:rgb(85.490197%,12.54902%,19.607843%);fill-opacity:1;stroke:none;"/>
<path style=" stroke:none;fill-rule:nonzero;fill:rgb(0%,40.000001%,70.19608%);fill-opacity:1;" d="M 106.648438 0 L 213.351562 0 L 213.351562 240 L 106.648438 240 Z M 106.648438 0 "/>
<path style=" stroke:none;fill-rule:nonzero;fill:rgb(100%,85.09804%,0%);fill-opacity:1;" d="M 73.351562 90.898438 C 73.351562 79.855469 64.394531 70.898438 53.351562 70.898438 C 42.304688 70.898438 33.351562 79.855469 33.351562 90.898438 C 33.351562 101.945312 42.304688 110.898438 53.351562 110.898438 C 64.394531 110.898438 73.351562 101.945312 73.351562 90.898438 Z M 73.351562 90.898438 "/>
<path style=" stroke:none;fill-rule:nonzero;fill:rgb(85.490197%,12.54902%,19.607843%);fill-opacity:1;" d="M 75.148438 81.800781 C 75.148438 69.761719 65.390625 60 53.351562 60 C 41.308594 60 31.550781 69.761719 31.550781 81.800781 C 31.550781 93.839844 41.308594 103.601562 53.351562 103.601562 C 65.390625 103.601562 75.148438 93.839844 75.148438 81.800781 Z M 75.148438 81.800781 "/>
<path style=" stroke:none;fill-rule:nonzero;fill:rgb(100%,85.09804%,0%);fill-opacity:1;" d="M 67.898438 85.449219 C 67.898438 77.414062 61.386719 70.898438 53.351562 70.898438 C 45.3125 70.898438 38.800781 77.414062 38.800781 85.449219 C 38.800781 93.484375 45.3125 100 53.351562 100 C 61.386719 100 67.898438 93.484375 67.898438 85.449219 Z M 67.898438 85.449219 "/>
<path style=" stroke:none;fill-rule:nonzero;fill:rgb(100%,85.09804%,0%);fill-opacity:1;" d="M 54.851562 38.199219 C 53.367188 38.886719 52.371094 40.320312 52.25 41.949219 C 52.148438 43.199219 52.699219 44.601562 52.75 45.800781 C 52.75 47.898438 50.601562 48.601562 50.601562 51.550781 C 50.601562 52.550781 51.550781 53.699219 51.550781 56.351562 C 51.351562 57.75 50.550781 58.101562 49.699219 58.199219 C 49.214844 58.199219 48.75 58.003906 48.410156 57.65625 C 48.070312 57.308594 47.886719 56.835938 47.898438 56.351562 C 47.917969 55.886719 48.09375 55.445312 48.398438 55.101562 L 48.601562 54.949219 C 49 54.5 49.601562 54.351562 49.601562 53.25 C 49.601562 52.699219 49.199219 52.148438 48.851562 51.148438 C 48.5 50.148438 48.75 48.550781 49.550781 47.601562 C 48.25 48.101562 47.5 49.300781 47.050781 50.398438 C 46.648438 51.75 47.050781 52.5 46.449219 53.648438 C 46.101562 54.351562 45.699219 54.648438 45.300781 55.25 C 44.800781 55.949219 44.300781 57.449219 44.300781 58.199219 C 44.652344 62.953125 48.609375 66.625 53.375 66.625 C 58.140625 66.625 62.097656 62.953125 62.449219 58.199219 C 62.449219 57.449219 61.898438 55.949219 61.449219 55.25 C 61 54.648438 60.601562 54.351562 60.25 53.648438 C 59.648438 52.5 60.050781 51.75 59.601562 50.398438 C 59.199219 49.300781 58.449219 48.101562 57.148438 47.601562 C 57.949219 48.601562 58.148438 50.199219 57.851562 51.148438 C 57.5 52.148438 57.148438 52.648438 57.148438 53.25 C 57.148438 54.351562 57.699219 54.5 58.148438 54.949219 L 58.300781 55.101562 C 58.605469 55.445312 58.78125 55.886719 58.800781 56.351562 C 58.8125 56.835938 58.628906 57.308594 58.289062 57.65625 C 57.953125 58.003906 57.484375 58.199219 57 58.199219 C 56 58.050781 55.25 57.601562 55.148438 56.351562 C 55.148438 52.851562 56.648438 52.648438 56.648438 50.050781 C 56.648438 46.351562 53.351562 44.601562 53.351562 41.898438 C 53.351562 41 53.550781 39.398438 54.851562 38.199219 M 13.351562 114.5 L 31.5 114.5 L 31.5 201.75 L 13.351562 201.75 Z M 75.148438 114.5 L 93.351562 114.5 L 93.351562 201.75 L 75.148438 201.75 Z M 35.148438 114.5 L 71.5 114.5 L 53.351562 125.398438 Z M 35.148438 129 L 71.5 129 L 71.5 136.300781 L 35.148438 136.300781 Z M 35.148438 179.949219 L 71.5 179.949219 L 71.5 187.25 L 35.148438 187.25 Z M 35.148438 190.851562 L 71.5 190.851562 L 53.351562 201.75 Z M 35.148438 190.851562 "/>
<path style=" stroke:none;fill-rule:nonzero;fill:rgb(100%,85.09804%,0%);fill-opacity:1;" d="M 71.550781 158.199219 C 71.550781 148.148438 63.402344 140 53.351562 140 C 43.296875 140 35.148438 148.148438 35.148438 158.199219 C 35.148438 168.25 43.296875 176.398438 53.351562 176.398438 C 63.402344 176.398438 71.550781 168.25 71.550781 158.199219 Z M 71.550781 158.199219 "/>
<path style=" stroke:none;fill-rule:nonzero;fill:rgb(85.490197%,12.54902%,19.607843%);fill-opacity:1;" d="M 56.964844 148.53125 C 56.964844 146.523438 55.335938 144.894531 53.328125 144.894531 C 51.320312 144.894531 49.691406 146.523438 49.691406 148.53125 C 49.691406 150.539062 51.320312 152.167969 53.328125 152.167969 C 55.335938 152.167969 56.964844 150.539062 56.964844 148.53125 Z M 56.964844 148.53125 "/>
<path style=" stroke:none;fill-rule:nonzero;fill:rgb(85.490197%,12.54902%,19.607843%);fill-opacity:1;" d="M 56.964844 167.804688 C 56.964844 165.796875 55.335938 164.167969 53.328125 164.167969 C 51.320312 164.167969 49.691406 165.796875 49.691406 167.804688 C 49.691406 169.8125 51.320312 171.441406 53.328125 171.441406 C 55.335938 171.441406 56.964844 169.8125 56.964844 167.804688 Z M 56.964844 167.804688 "/>
<path style=" stroke:none;fill-rule:nonzero;fill:rgb(85.490197%,12.54902%,19.607843%);fill-opacity:1;" d="M 53.328125 137.804688 C 59.25 137.804688 64.054688 142.605469 64.054688 148.53125 C 64.054688 154.457031 59.25 159.257812 53.328125 159.257812 C 48.609375 159.257812 44.78125 163.085938 44.78125 167.804688 C 44.78125 172.523438 48.609375 176.347656 53.328125 176.347656 L 53.328125 178.53125 C 47.402344 178.53125 42.601562 173.726562 42.601562 167.804688 C 42.601562 161.878906 47.402344 157.078125 53.328125 157.078125 C 58.046875 157.078125 61.871094 153.25 61.871094 148.53125 C 61.871094 143.8125 58.046875 139.984375 53.328125 139.984375 Z M 53.328125 137.804688 "/>
</g>
</svg>
