<?xml version="1.0" encoding="UTF-8"?>
<svg xmlns="http://www.w3.org/2000/svg" xmlns:xlink="http://www.w3.org/1999/xlink" width="px" height="px" viewBox="0 0 320 240" version="1.1">
<g id="surface1">
<rect x="0" y="0" width="320" height="240" style="fill:rgb(0%,44.313726%,73.725492%);fill-opacity:1;stroke:none;"/>
<path style="fill-rule:evenodd;fill:rgb(100%,100%,100%);fill-opacity:1;stroke-width:1.9;stroke-linecap:butt;stroke-linejoin:miter;stroke:rgb(0%,0%,0%);stroke-opacity:1;stroke-miterlimit:4;" d="M 370 365.703125 C 370 365.703125 385.203125 349.601562 399.796875 352.703125 C 404.203125 335.703125 420.796875 334.296875 420.796875 334.296875 C 420.796875 334.296875 419.101562 315.601562 440.296875 311.5 C 440.898438 298.796875 453.796875 288.203125 453.796875 288.203125 C 453.796875 288.203125 451.203125 268.5 464.601562 263.898438 C 456.398438 248.296875 467.398438 236.898438 467.296875 236.601562 C 467.101562 236.296875 453.296875 211.796875 465.703125 204.796875 C 452.703125 193.796875 456.898438 181.398438 456.898438 181.398438 C 456.898438 181.398438 442.703125 177.703125 447.796875 160.703125 C 436.101562 158.703125 433.796875 139.796875 433.796875 139.796875 C 433.796875 139.796875 415.796875 143.5 413.601562 127.796875 C 401.601562 129.703125 400.398438 118 400.203125 118 C 400.101562 118 376.703125 124.296875 372 106.601562 C 362.898438 111.296875 359 102.898438 359 102.898438 C 359 102.898438 346 109.398438 338.203125 96.898438 C 322.703125 106.601562 314 96.5 314 96.5 C 314 96.5 293.703125 109.898438 287 99.5 C 275 111.703125 264.203125 106.5 264.203125 106.5 C 264.203125 106.5 255.203125 122.5 240.5 118.5 C 237.203125 133.398438 220.296875 133.703125 220.296875 133.703125 C 220.296875 133.703125 222.101562 146.796875 201.898438 150.398438 C 199.296875 165.898438 188.703125 168.398438 188.703125 168.398438 C 188.703125 168.398438 189.703125 183.601562 180.203125 188.398438 C 183.601562 196.898438 174.796875 207.296875 174.796875 207.296875 C 174.796875 207.296875 184.203125 219 171.398438 232.203125 C 183.703125 235.398438 174.796875 256.601562 174.796875 256.601562 C 174.796875 256.601562 191.796875 264.203125 181.101562 278.296875 C 193.296875 282.296875 189.5 291.898438 189.601562 297.601562 C 197.398438 301.101562 204.203125 299.398438 200.898438 315 C 224.703125 317.703125 213.5 330.796875 213.5 330.796875 C 213.5 330.796875 224.5 331.296875 220.203125 340.101562 C 240.5 339.601562 243.5 355.296875 243.5 355.296875 C 243.5 355.296875 262.296875 350.296875 264.796875 357.601562 C 267.296875 364.898438 256.601562 414.296875 256.601562 414.296875 C 256.601562 414.296875 240.601562 414.296875 228.796875 401.5 C 201 400.796875 207.203125 382.5 206.796875 382.5 C 206.296875 382.5 197.5 385.898438 193 370.601562 C 174.398438 374.398438 175 358.796875 174.796875 358.601562 C 174.601562 358.398438 166.5 354.796875 169.5 347.101562 C 150.398438 348.796875 151.796875 330.101562 151.796875 330.101562 C 147.601562 328.398438 146.101562 324.5 146.703125 320.601562 C 144.203125 319.703125 127.203125 319.398438 136 297 C 119.796875 287.203125 129.898438 276 129.898438 276 C 129.898438 276 107.5 264.398438 124.796875 251 C 111.796875 232 125.796875 222.5 125.796875 222.5 C 125.796875 222.5 107.898438 204.398438 126.101562 191.5 C 123.101562 164 139.5 157.398438 139.5 157.398438 C 139.5 157.398438 130.898438 135 154.296875 125.601562 C 155.796875 102.898438 172.203125 102.296875 172.203125 102.296875 C 172.203125 102.296875 172.601562 84.296875 198.398438 86.101562 C 203.398438 70 220.898438 73.203125 220.898438 73.203125 C 220.898438 73.203125 226.296875 53.703125 250.203125 63.101562 C 262.296875 39.398438 280.398438 51.5 280.398438 51.5 C 280.398438 51.5 291.796875 44.101562 297.398438 46.5 C 304.703125 34 320.203125 45.898438 330.101562 48.398438 C 333.796875 46.898438 346.703125 37.203125 356.601562 49.398438 C 369.796875 40.898438 381.101562 56.398438 381.101562 56.398438 C 381.101562 56.398438 399.203125 47.203125 407.703125 68.203125 C 446.203125 64.703125 440.703125 89.898438 440.703125 89.898438 C 440.703125 89.898438 470.898438 83 464.296875 113.203125 C 491.898438 115.101562 489.101562 133.203125 489.101562 133.203125 C 489.101562 133.203125 506.5 146.398438 498.898438 158.203125 C 514.398438 159 508.703125 173.898438 508.703125 173.898438 C 508.703125 173.898438 520.601562 178.5 510.703125 196.898438 C 533.398438 215 515.101562 233.101562 515 232.898438 C 514.796875 232.796875 527.101562 247.5 516 264.5 C 519.398438 291.5 505.796875 298.296875 505.796875 298.296875 C 505.796875 298.296875 509.296875 315.796875 494.101562 320.703125 C 493.796875 341.203125 474.398438 343.703125 474.398438 343.703125 C 474.398438 343.703125 479.601562 352.703125 460.398438 362 C 459.601562 375.703125 439.601562 376.796875 439.601562 376.796875 C 439.601562 376.796875 437.703125 402 412.203125 395.203125 C 406.101562 415.398438 376.203125 409.398438 375.601562 409.203125 C 375.101562 408.898438 369.898438 365.796875 369.898438 365.703125 Z M 370 365.703125 " transform="matrix(0.5,0,0,0.5,0,0)"/>
<path style="fill-rule:evenodd;fill:rgb(12.941177%,47.450981%,0%);fill-opacity:1;stroke-width:1.9;stroke-linecap:butt;stroke-linejoin:round;stroke:rgb(0%,0%,0%);stroke-opacity:1;stroke-miterlimit:4;" d="M 185 124 C 185 124 191.398438 129.601562 190.203125 138 C 189 146.398438 184.203125 157.898438 185.203125 166.5 C 185.796875 170 185.5 176.203125 185.5 176.203125 C 185.5 176.203125 179.796875 168 179.703125 159.203125 C 179.601562 150.398438 185.898438 142.101562 185.898438 135.601562 C 185.898438 129.101562 184.796875 123.898438 184.898438 124.101562 Z M 181.796875 126.601562 C 181.796875 126.601562 173.398438 134.601562 172.296875 142.296875 C 171.5 146.296875 171.296875 165 171.101562 173.296875 C 170.898438 175.796875 169.898438 185.796875 169.703125 189.5 C 169.398438 193.101562 175.796875 183.296875 176.203125 175.203125 C 176 166.898438 176 149.398438 176.796875 146.703125 C 177.601562 143.296875 177.398438 139.601562 178.601562 136.203125 Z M 181.796875 126.601562 " transform="matrix(0.5,0,0,0.5,0,0)"/>
<path style="fill-rule:evenodd;fill:rgb(100%,82.352942%,0%);fill-opacity:1;stroke-width:1.9;stroke-linecap:butt;stroke-linejoin:miter;stroke:rgb(93.725491%,54.11765%,6.27451%);stroke-opacity:1;stroke-miterlimit:4;" d="M 366 100.5 C 366 100.5 376.796875 95.5 380 86.101562 C 383.203125 76.703125 370.5 76.703125 368.898438 79.703125 C 367.203125 82.703125 370.296875 90 369.5 92 C 368.703125 94 364.296875 98.601562 366 100.398438 Z M 366 100.5 " transform="matrix(0.5,0,0,0.5,0,0)"/>
<path style="fill-rule:evenodd;fill:rgb(100%,82.352942%,0%);fill-opacity:1;stroke-width:2.5;stroke-linecap:butt;stroke-linejoin:miter;stroke:rgb(93.725491%,54.11765%,6.27451%);stroke-opacity:1;stroke-miterlimit:4;" d="M 269.796875 103.898438 C 269.796875 103.898438 276.796875 94.203125 275 84.5 C 273.101562 74.898438 262.203125 80.898438 262.203125 84.296875 C 262.203125 87.703125 268.398438 92.601562 268.703125 94.703125 C 269 96.796875 267.398438 103.101562 269.703125 103.796875 Z M 250.703125 109.601562 C 250.703125 109.601562 257.703125 99.898438 255.898438 90.296875 C 254.101562 80.703125 243.101562 86.601562 243.101562 90 C 243.101562 93.398438 249.398438 98.398438 249.703125 100.5 C 250 102.601562 248.398438 108.796875 250.703125 109.601562 Z M 229.601562 116.101562 C 229.601562 116.101562 236.601562 106.5 234.796875 96.796875 C 232.898438 87.101562 222 93.101562 222 96.5 C 222 99.898438 228.203125 104.898438 228.5 107 C 228.796875 109.101562 227.203125 115.296875 229.5 116.101562 Z M 214.601562 131 C 214.601562 131 221.703125 121.296875 219.898438 111.703125 C 218.101562 102.101562 207.101562 108 207.101562 111.398438 C 207.101562 114.796875 213.398438 119.796875 213.601562 121.898438 C 213.796875 124 212.296875 130.203125 214.601562 131 Z M 199 145.398438 C 199 145.398438 206 135.703125 204.203125 126 C 202.398438 116.296875 191.398438 122.398438 191.398438 125.796875 C 191.398438 129.203125 197.703125 134.101562 198 136.203125 C 198.296875 138.296875 196.703125 144.601562 199 145.398438 Z M 199 145.398438 " transform="matrix(0.5,0,0,0.5,0,0)"/>
<path style="fill-rule:evenodd;fill:rgb(100%,82.352942%,0%);fill-opacity:1;stroke-width:1.9;stroke-linecap:butt;stroke-linejoin:miter;stroke:rgb(93.725491%,54.11765%,6.27451%);stroke-opacity:1;stroke-miterlimit:4;" d="M 235 61.703125 C 235 61.703125 225.601562 69.101562 224.796875 78.898438 C 224 88.703125 236.101562 85.898438 237 82.601562 C 238 79.296875 233.296875 72.898438 233.601562 70.796875 C 233.898438 68.796875 237.101562 63.101562 235 61.796875 Z M 266.296875 52.101562 C 266.296875 52.101562 257 59.5 256.101562 69.296875 C 255.203125 79.101562 267.398438 76.296875 268.398438 73 C 269.398438 69.703125 264.601562 63.203125 264.898438 61.101562 C 265.203125 59 268.398438 53.398438 266.296875 52.101562 Z M 149.601562 136.601562 C 149.601562 136.601562 151.601562 148.398438 159.796875 153.898438 C 168 159.398438 171.296875 147.296875 168.898438 144.898438 C 166.5 142.5 158.601562 143.5 156.898438 142.296875 C 155.203125 141.101562 151.898438 135.5 149.601562 136.601562 Z M 134 176.601562 C 134 176.601562 134 188.601562 141.296875 195.296875 C 148.601562 202 153.703125 190.601562 151.703125 187.898438 C 149.703125 185.203125 141.703125 184.898438 140.296875 183.398438 C 138.796875 181.796875 136.296875 175.898438 134 176.703125 Z M 170 221.398438 C 170 221.398438 165.796875 210.203125 156.703125 206.398438 C 147.601562 202.796875 146.703125 215.203125 149.5 217.101562 C 152.398438 218.898438 159.898438 216.398438 161.796875 217.296875 C 163.703125 218.203125 168.101562 222.898438 170.101562 221.296875 Z M 162.601562 202 C 162.601562 202 169.796875 192.5 168.203125 182.898438 C 166.601562 173.296875 155.5 178.898438 155.398438 182.296875 C 155.398438 185.703125 161.398438 190.796875 161.703125 192.898438 C 162 195 160.203125 201.203125 162.601562 202.101562 Z M 388.203125 110.101562 C 388.203125 110.101562 399 105.101562 402.203125 95.796875 C 405.398438 86.5 392.703125 86.398438 391.101562 89.296875 C 389.398438 92.296875 392.5 99.703125 391.703125 101.601562 C 390.898438 103.5 386.5 108.296875 388.203125 110.101562 Z M 421 126.5 C 421 126.5 427.398438 116.398438 424.898438 106.898438 C 422.398438 97.398438 411.898438 104.101562 412.101562 107.5 C 412.296875 110.796875 418.898438 115.398438 419.296875 117.5 C 419.703125 119.601562 418.601562 125.898438 421 126.5 Z M 510.601562 219.5 C 510.601562 219.5 506.296875 208.398438 497.203125 204.601562 C 488.101562 200.898438 487.203125 213.398438 490 215.203125 C 492.898438 217.101562 500.5 214.5 502.296875 215.398438 C 504.296875 216.398438 508.601562 221.101562 510.601562 219.5 Z M 466.796875 226.5 C 466.796875 226.5 467 214.5 474.296875 207.898438 C 481.601562 201.296875 486.703125 212.796875 484.703125 215.5 C 482.601562 218.203125 474.703125 218.296875 473.101562 219.796875 C 471.703125 221.296875 469.101562 227.203125 466.796875 226.398438 Z M 459.796875 99.703125 C 459.796875 99.703125 448.5 95.398438 439.796875 99.703125 C 430.796875 104.101562 439.601562 113.101562 442.796875 112.203125 C 446 111.296875 449.203125 103.898438 451.203125 103.101562 C 453.203125 102.296875 459.601562 102.101562 459.703125 99.703125 Z M 434 78.296875 C 434 78.296875 422.898438 74 414 78.296875 C 405.203125 82.703125 413.898438 91.703125 417.203125 90.796875 C 420.398438 89.796875 423.601562 82.5 425.5 81.703125 C 427.398438 80.898438 433.898438 80.703125 434 78.296875 Z M 396 57.898438 C 396 57.898438 386.5 65.203125 385.601562 74.898438 C 384.601562 84.703125 396.796875 82 397.796875 78.796875 C 398.796875 75.5 394.101562 69 394.398438 66.898438 C 394.703125 64.796875 398 59.296875 396 57.898438 Z M 371.203125 51.898438 C 371.203125 51.898438 366.796875 63 371.101562 71.898438 C 375.398438 80.796875 384.398438 72.101562 383.5 68.898438 C 382.601562 65.703125 375.296875 62.398438 374.5 60.5 C 373.703125 58.601562 373.601562 52 371.203125 51.898438 Z M 300.703125 94.898438 C 300.703125 94.898438 308.398438 85.703125 307.296875 75.898438 C 306.203125 66.203125 294.796875 71.398438 294.601562 74.796875 C 294.296875 78.203125 300.203125 83.601562 300.296875 85.703125 C 300.398438 87.796875 298.398438 93.898438 300.703125 94.796875 Z M 300.703125 94.898438 " transform="matrix(0.5,0,0,0.5,0,0)"/>
<path style="fill-rule:evenodd;fill:rgb(54.901963%,54.11765%,54.901963%);fill-opacity:1;stroke-width:1.9;stroke-linecap:butt;stroke-linejoin:miter;stroke:rgb(0%,0%,0%);stroke-opacity:1;stroke-miterlimit:4;" d="M 342.796875 114.398438 C 342.796875 114.398438 361.296875 115.601562 362.203125 126.203125 C 363.101562 136.796875 357.796875 143.296875 357.796875 143.296875 C 357.796875 143.296875 360.101562 166.296875 342 173 C 322.601562 175.296875 292.101562 173.5 292.101562 173.5 C 292.101562 173.5 283.101562 175.703125 279.5 157.203125 C 277.414062 146.757812 275.882812 136.203125 274.898438 125.601562 C 274.898438 125.601562 276.703125 115.203125 289.796875 114.601562 C 302.796875 113.898438 342.601562 114.601562 342.796875 114.398438 Z M 342.796875 114.398438 " transform="matrix(0.5,0,0,0.5,0,0)"/>
<path style="fill:none;stroke-width:1.9;stroke-linecap:round;stroke-linejoin:miter;stroke:rgb(0%,0%,0%);stroke-opacity:1;stroke-miterlimit:4;" d="M 357.703125 143.203125 C 357.703125 143.203125 347.703125 155.601562 348.703125 160.703125 " transform="matrix(0.5,0,0,0.5,0,0)"/>
<path style="fill-rule:evenodd;fill:rgb(54.901963%,54.11765%,54.901963%);fill-opacity:1;stroke-width:1.9;stroke-linecap:butt;stroke-linejoin:miter;stroke:rgb(0%,0%,0%);stroke-opacity:1;stroke-miterlimit:4;" d="M 344.296875 172.296875 C 346.796875 174.398438 349.101562 176.703125 349.601562 184.296875 L 350.601562 199.703125 L 363.601562 316.296875 L 375 400.601562 L 375.796875 413.601562 C 375.796875 413.601562 373.101562 423.296875 365.398438 424.101562 C 359.898438 435.703125 329.703125 439.101562 326.703125 439 C 324 438.796875 314.398438 434.796875 308.601562 435.296875 C 302.796875 435.796875 292.601562 439.703125 288.101562 439.101562 C 283.601562 438.5 273.296875 434.898438 271.5 427.5 C 258.796875 423.5 256.796875 413.796875 256.796875 413.796875 L 270.5 316.296875 L 283.796875 192.898438 C 283.796875 192.898438 285.398438 176.5 292 174 C 298.898438 173.398438 334.398438 174.703125 344.296875 172.296875 Z M 344.296875 172.296875 " transform="matrix(0.5,0,0,0.5,0,0)"/>
<path style="fill:none;stroke-width:1.9;stroke-linecap:butt;stroke-linejoin:miter;stroke:rgb(0%,0%,0%);stroke-opacity:1;stroke-miterlimit:4;" d="M 274.398438 341.101562 L 271.703125 427.398438 M 358.203125 352.5 L 365.796875 423.703125 " transform="matrix(0.5,0,0,0.5,0,0)"/>
<path style="fill:none;stroke-width:1;stroke-linecap:butt;stroke-linejoin:miter;stroke:rgb(0%,0%,0%);stroke-opacity:1;stroke-miterlimit:4;" d="M 136.601562 296.296875 L 136.296875 297.296875 M 495 293.203125 L 495.296875 294.203125 " transform="matrix(0.5,0,0,0.5,0,0)"/>
<path style="fill:none;stroke-width:1.9;stroke-linecap:butt;stroke-linejoin:round;stroke:rgb(41.960785%,9.411765%,70.980394%);stroke-opacity:1;stroke-miterlimit:4;" d="M 127 179.796875 C 127 179.796875 132.601562 187.703125 133.703125 192.203125 C 134.703125 196.703125 136.601562 205.601562 139 209.203125 C 141.5 212.898438 155.601562 233.101562 156.398438 241.5 C 156.5 247.101562 150.5 256.5 141.703125 256.703125 C 136.101562 256.5 121.898438 252.898438 121.296875 240.703125 C 120.703125 228.398438 125.601562 228.203125 126.296875 220.703125 C 126.796875 213.296875 127 180 127 179.796875 Z M 127 179.796875 " transform="matrix(0.5,0,0,0.5,0,0)"/>
<path style="fill:none;stroke-width:1;stroke-linecap:butt;stroke-linejoin:round;stroke:rgb(41.960785%,9.411765%,70.980394%);stroke-opacity:1;stroke-miterlimit:4;" d="M 224.5 72.796875 C 224.5 72.796875 218.5 73.203125 214.101562 75.703125 C 210.601562 77.796875 204.601562 81 200.5 86.703125 C 189.898438 94.898438 174 98.703125 169 105.703125 C 166 110.296875 166.203125 121.398438 173.703125 126.203125 C 178.5 128.898438 192.703125 133.203125 199.5 123.101562 C 206.296875 113 202.203125 110.101562 205.5 103.5 C 210.203125 92.34375 216.617188 81.992188 224.5 72.796875 Z M 367 58 C 367 58 362.601562 54 357.703125 52.5 C 353.703125 51.5 347.101562 51.898438 340.203125 51.203125 C 326.898438 49.398438 313.203125 39.796875 304.898438 41 C 299.5 42 291.601562 50 293.398438 58.601562 C 294.703125 64 300.703125 74.796875 312.796875 72.703125 C 324.898438 70.601562 324.796875 67.898438 331.796875 65.703125 C 349.203125 56 366.796875 58 367 58 Z M 508.398438 195.398438 C 509.398438 193.101562 507.5 188.796875 506.203125 183.898438 C 505 179.898438 503.101562 173.898438 498.5 168.398438 C 493.101562 156.203125 494 139.398438 488.5 133 C 484.796875 129 473.898438 126.398438 467.5 132.601562 C 463.601562 136.601562 456.101562 149.203125 464.296875 158.296875 C 472.5 167.398438 476.101562 164 481.703125 168.796875 C 495.203125 177.796875 501.703125 193.796875 508.398438 195.398438 Z M 503.5 302 C 505.398438 299.5 508.703125 294.601562 508.296875 290.5 C 508 287.296875 509.796875 277.5 510 273.203125 C 511.203125 259.898438 519.5 249 517.203125 237.5 C 515.898438 232.101562 508 224.5 499.398438 226.703125 C 494.203125 228.296875 482.398438 234.703125 485.101562 246.703125 C 487.796875 258.703125 491.703125 258.398438 494.203125 265.398438 C 501.5 279.898438 496.898438 297.101562 503.5 302 Z M 503.5 302 " transform="matrix(0.5,0,0,0.5,0,0)"/>
<path style="fill:none;stroke-width:1.9;stroke-linecap:butt;stroke-linejoin:miter;stroke:rgb(0%,0%,0%);stroke-opacity:1;stroke-miterlimit:4;" d="M 405.5 386.796875 C 405.5 386.796875 403.203125 391.203125 412.296875 395 M 423.601562 376.601562 C 423.601562 376.601562 433.601562 374.101562 440.398438 376.601562 M 453.601562 351.203125 C 453.601562 351.398438 452.203125 355.703125 460.203125 362 M 459.398438 340 C 459.398438 340 465.296875 344.296875 475.203125 344 M 399.796875 352.601562 C 399.796875 352.601562 400.101562 364.101562 394.203125 369.398438 M 419.601562 334.898438 C 419.601562 334.898438 429.296875 337.296875 437.296875 333.296875 M 481.898438 318 C 481.898438 318 484 321 494.796875 320.5 M 439.898438 311.203125 C 440.203125 311.398438 452.601562 315.398438 460.398438 311.796875 M 464.601562 264 C 464.601562 264 465.101562 263.296875 468.898438 276.703125 M 474.101562 226.296875 C 474.101562 226.296875 473.601562 233.398438 467.898438 236.5 M 510.796875 197.101562 C 510.796875 197.101562 502.398438 203.898438 504 206.601562 M 469.296875 192.203125 C 469.296875 192.203125 473.601562 199.5 466.5 204.5 M 448.203125 161 C 448.203125 161 455.703125 160.703125 459 167.101562 M 434.203125 139.796875 L 439.898438 139.796875 M 463.898438 113.796875 C 463.898438 113.898438 465.398438 115.296875 462.5 118.296875 M 410.5 114.5 C 410.5 114.5 414.5 120.703125 413.796875 128.398438 M 433.601562 93.296875 C 435.398438 93.101562 441.296875 90.5 441.296875 90.5 M 407.898438 68.5 C 407.796875 68.5 405.703125 76.203125 409.5 79 M 398.398438 104 C 398.398438 112.398438 405 110.296875 400.398438 118.296875 M 382.203125 97 C 378.359375 99.695312 374.867188 102.851562 371.796875 106.398438 M 355.398438 92.703125 C 355.398438 92.703125 359.796875 97 358.703125 102.898438 M 342.703125 89.203125 C 342.703125 89.203125 340.5 95.796875 337.601562 97.5 M 319.601562 87.5 C 319.5 87.796875 316 95.296875 313.601562 96.601562 M 288 87.601562 C 288.203125 87.601562 291.5 94.601562 287.203125 99.601562 M 280.703125 51.601562 C 280.898438 51.796875 281.398438 57 278.101562 61.601562 M 249.398438 63.5 C 249.398438 63.601562 250.796875 69.398438 241.601562 71.296875 M 231.703125 116.5 C 231.898438 116.796875 240.601562 118.203125 240.601562 118.203125 M 210 136.601562 C 210.203125 136.398438 220.601562 133.296875 220.601562 133.296875 M 193.203125 149.601562 C 193.5 149.601562 200.5 150.898438 202.203125 150 M 188.203125 156 C 188.203125 156 190.5 157.296875 188.601562 169 M 154.398438 125.5 L 158.601562 131.703125 M 140.101562 157.703125 C 140.101562 157.5 144.296875 163.898438 149.898438 165.101562 M 172.898438 190.296875 C 175.617188 189.859375 178.296875 189.1875 180.898438 188.296875 M 170 213.796875 C 170.203125 213.796875 169.898438 209.5 175.203125 206.5 M 163 224.703125 C 163 224.898438 168 231.101562 171.5 232 M 160 236.703125 C 160.601562 236.5 166 231.796875 172.203125 232.203125 M 158.296875 252.796875 C 158.296875 252.796875 158.5 258.203125 174.5 256.796875 M 159.898438 271.796875 C 159.898438 271.601562 164.601562 261 174.101562 257 M 172.703125 285.398438 C 172.703125 285.398438 174.101562 280.796875 182.101562 277.703125 M 181.601562 303.203125 C 181.601562 303.203125 187.296875 298.5 189.398438 297.898438 M 188.703125 317.203125 C 188.703125 317.203125 192.203125 320.796875 200.898438 314.5 M 146.898438 320.101562 C 147.898438 319.898438 160.601562 317 164.898438 323.601562 M 151.898438 330.601562 C 151.898438 330.601562 165.296875 328.796875 167 330.203125 M 199.703125 333.296875 C 199.703125 333.296875 197.898438 337 214.398438 330.898438 M 220.203125 339.898438 C 217.203125 344.898438 220.898438 348.898438 217 351.203125 M 170 346.898438 C 170.5 346.5 176 344.601562 175.203125 336.601562 M 175 358.898438 C 175.703125 358.703125 184.898438 354.703125 186.796875 356.796875 M 193.101562 370.5 C 193.101562 370.5 194.296875 362.296875 196.898438 361.5 M 206.898438 382.796875 C 206.898438 382.796875 214.601562 382.703125 217.898438 380.203125 M 221.703125 355.203125 C 221.898438 355.398438 228.796875 359 243.703125 355.398438 M 227.296875 388.398438 C 227.296875 388.398438 229.296875 399 229.296875 401.398438 " transform="matrix(0.5,0,0,0.5,0,0)"/>
<path style="fill-rule:evenodd;fill:rgb(87.058824%,12.54902%,6.27451%);fill-opacity:1;stroke-width:1.5;stroke-linecap:butt;stroke-linejoin:miter;stroke:rgb(0%,0%,0%);stroke-opacity:1;stroke-miterlimit:4;" d="M 232.802029 118.99832 C 232.802026 116.999972 232.001164 114.998728 230.799276 113.999848 C 229.334419 112.931362 227.935904 112.931367 226.598949 113.999284 C 224.600987 115.59971 224.498193 117.001163 224.498196 118.999511 C 224.564539 121.199143 225.233916 122.901651 226.502144 124.101815 C 228.035134 125.169142 229.434246 125.164496 230.69769 124.1018 C 232.598831 122.499054 232.900645 121.09818 232.798443 119.101573 Z M 232.802029 118.99832 " transform="matrix(0.804425,-0.10055,0.1036,0.82881,47.400002,37.5)"/>
<path style="fill-rule:evenodd;fill:rgb(87.058824%,12.54902%,6.27451%);fill-opacity:1;stroke-width:1.5;stroke-linecap:butt;stroke-linejoin:miter;stroke:rgb(0%,0%,0%);stroke-opacity:1;stroke-miterlimit:4;" d="M 232.797846 119.000641 C 232.798441 116.997653 232.001762 115.001629 230.800472 113.998109 C 229.335018 112.934262 227.931721 112.933688 226.599548 114.002185 C 224.602184 115.59797 224.499389 116.999424 224.499392 118.997771 C 224.565137 121.202044 225.235112 122.899912 226.498559 124.099496 C 228.031548 125.166822 229.434845 125.167397 230.698886 124.10006 C 232.599429 122.501955 232.901244 121.101081 232.799639 119.099833 Z M 232.797846 119.000641 " transform="matrix(0.804425,-0.10055,0.1036,0.82881,46.700001,28.65)"/>
<path style="fill-rule:evenodd;fill:rgb(87.058824%,12.54902%,6.27451%);fill-opacity:1;stroke-width:1.5;stroke-linecap:butt;stroke-linejoin:miter;stroke:rgb(0%,0%,0%);stroke-opacity:1;stroke-miterlimit:4;" d="M 232.799043 119.001028 C 232.799595 117.001373 232.001553 115.00206 230.799737 113.999474 C 229.331471 112.931566 227.930818 112.9351 226.599807 114.000933 C 224.598072 115.600984 224.499015 117.001146 224.498464 119.000801 C 224.566643 121.201419 225.234159 122.900724 226.501011 124.098716 C 228.033556 125.165722 229.433194 125.166759 230.699926 124.101828 C 232.598685 122.499367 232.9 121.098469 232.801269 119.10196 Z M 232.799043 119.001028 " transform="matrix(0.792485,-0.17085,0.17603,0.8165,39,37)"/>
<path style="fill-rule:evenodd;fill:rgb(87.058824%,12.54902%,6.27451%);fill-opacity:1;stroke-width:1.5;stroke-linecap:butt;stroke-linejoin:miter;stroke:rgb(0%,0%,0%);stroke-opacity:1;stroke-miterlimit:4;" d="M 232.801301 118.999146 C 232.799508 116.99963 231.998254 114.999285 230.80246 114.000401 C 229.333437 112.934967 227.934924 112.932473 226.598261 113.99914 C 224.598653 115.599174 224.49885 116.997783 224.49846 119.001468 C 224.567872 121.202195 225.235376 122.900521 226.498788 124.100616 C 228.032456 125.166456 229.433151 125.16478 230.698692 124.099759 C 232.601334 122.499117 232.901548 121.099673 232.802788 119.099549 Z M 232.801301 118.999146 " transform="matrix(0.72275,-0.36723,0.37835,0.74465,27.950001,81.5)"/>
<path style="fill-rule:evenodd;fill:rgb(87.058824%,12.54902%,6.27451%);fill-opacity:1;stroke-width:1.5;stroke-linecap:butt;stroke-linejoin:miter;stroke:rgb(0%,0%,0%);stroke-opacity:1;stroke-miterlimit:4;" d="M 232.800866 118.999977 C 232.799074 117.000461 231.997819 115.000116 230.802025 114.001232 C 229.335184 112.931628 227.934489 112.933304 226.597826 113.99997 C 224.598218 115.600004 224.498415 116.998613 224.500208 118.998129 C 224.56962 121.198856 225.234941 122.901352 226.498354 124.101447 C 228.032021 125.167286 229.432717 125.165611 230.698257 124.10059 C 232.600899 122.499948 232.901113 121.100504 232.802354 119.10038 Z M 232.800866 118.999977 " transform="matrix(0.72275,-0.36723,0.37835,0.74465,24.450001,73.550003)"/>
<path style="fill-rule:evenodd;fill:rgb(87.058824%,12.54902%,6.27451%);fill-opacity:1;stroke-width:1.5;stroke-linecap:butt;stroke-linejoin:miter;stroke:rgb(0%,0%,0%);stroke-opacity:1;stroke-miterlimit:4;" d="M 232.799881 119.00008 C 232.802446 116.998799 232.000059 114.997437 230.800057 114.000372 C 229.334187 112.93139 227.931664 112.934946 226.600105 113.999113 C 224.601005 115.602559 224.501646 117.000881 224.499081 119.002162 C 224.568776 121.200981 225.23517 122.900434 226.49826 124.100523 C 228.033585 125.167272 229.433569 125.167692 230.700751 124.097807 C 232.599764 122.500174 232.898314 121.10064 232.799236 119.098733 Z M 232.799881 119.00008 " transform="matrix(0.68905,-0.427115,0.440055,0.709935,20,83.699997)"/>
<path style="fill-rule:evenodd;fill:rgb(87.058824%,12.54902%,6.27451%);fill-opacity:1;stroke-width:1.5;stroke-linecap:butt;stroke-linejoin:miter;stroke:rgb(0%,0%,0%);stroke-opacity:1;stroke-miterlimit:4;" d="M 232.802084 118.999255 C 232.799779 116.99754 232.000448 114.999756 230.799474 113.998681 C 229.334998 112.931898 227.932771 112.934743 226.598636 113.999778 C 224.599803 115.602026 224.501222 116.999621 224.499697 118.998499 C 224.567753 121.201844 225.232775 122.900173 226.502423 124.099159 C 228.032418 125.1674 229.431723 125.168274 230.700338 124.101781 C 232.599883 122.502482 232.90087 121.101825 232.8022 119.099341 Z M 232.802084 118.999255 " transform="matrix(0.644535,-0.49173,0.506635,0.66406,16.9,96.5)"/>
<path style="fill-rule:evenodd;fill:rgb(87.058824%,12.54902%,6.27451%);fill-opacity:1;stroke-width:1.5;stroke-linecap:butt;stroke-linejoin:miter;stroke:rgb(0%,0%,0%);stroke-opacity:1;stroke-miterlimit:4;" d="M 232.797529 118.999293 C 232.801356 117.001813 232.001081 115.001744 230.800208 114.002465 C 229.334402 112.93401 227.933977 112.934516 226.602378 114.000715 C 224.599891 115.598301 224.50109 116.999405 224.500629 119.00023 C 224.565896 121.200238 225.233512 122.901145 226.500112 124.099605 C 228.034055 125.16884 229.434481 125.168334 230.701388 124.098088 C 232.60167 122.499332 232.89807 121.100489 232.79969 119.10184 Z M 232.797529 118.999293 " transform="matrix(0.56645,-0.57997,0.59754,0.58361,17.65,119.5)"/>
<path style="fill-rule:evenodd;fill:rgb(87.058824%,12.54902%,6.27451%);fill-opacity:1;stroke-width:1.5;stroke-linecap:butt;stroke-linejoin:miter;stroke:rgb(0%,0%,0%);stroke-opacity:1;stroke-miterlimit:4;" d="M 232.8012 119.000667 C 232.800107 117.002321 232.0013 114.999703 230.800088 114.000355 C 229.332014 112.934098 227.93455 112.93229 226.60021 114.000824 C 224.599055 115.600335 224.500394 116.996761 224.50078 119.001684 C 224.569484 121.199715 225.232987 122.899376 226.498068 124.101354 C 228.034624 125.167894 229.43583 125.166755 230.697945 124.100886 C 232.599766 122.501294 232.900838 121.102083 232.797375 119.100025 Z M 232.8012 119.000667 " transform="matrix(0.51069,-0.62961,0.648695,0.52617,17.15,131.350006)"/>
<path style="fill-rule:evenodd;fill:rgb(87.058824%,12.54902%,6.27451%);fill-opacity:1;stroke-width:1.5;stroke-linecap:butt;stroke-linejoin:miter;stroke:rgb(0%,0%,0%);stroke-opacity:1;stroke-miterlimit:4;" d="M 232.800617 119.000013 C 232.798999 117.002215 231.998923 115.002133 230.800429 113.999808 C 229.333274 112.935416 227.932966 112.935757 226.599506 114.000831 C 224.59722 115.599593 224.500562 117.001227 224.50218 118.999025 C 224.566225 121.198959 225.231992 122.902042 226.501301 124.101898 C 228.03539 125.167159 229.435697 125.166818 230.702224 124.100875 C 232.59873 122.501077 232.900382 121.099748 232.79955 119.102682 Z M 232.800617 119.000013 " transform="matrix(0.399085,-0.70566,0.72704,0.41118,25.950001,157.5)"/>
<path style="fill-rule:evenodd;fill:rgb(87.058824%,12.54902%,6.27451%);fill-opacity:1;stroke-width:1.5;stroke-linecap:butt;stroke-linejoin:miter;stroke:rgb(0%,0%,0%);stroke-opacity:1;stroke-miterlimit:4;" d="M 232.801485 118.997764 C 232.797827 116.998646 232.00061 114.997947 230.801853 113.998901 C 229.334134 112.932872 227.934424 112.934913 226.600742 114.000759 C 224.60022 115.599529 224.499301 116.998024 224.498566 118.999065 C 224.564988 121.20157 225.232361 122.899985 226.498274 124.100495 C 228.034979 125.167116 229.434689 125.165076 230.699385 124.098638 C 232.600604 122.502283 232.900129 121.098958 232.80156 119.100332 Z M 232.801485 118.997764 " transform="matrix(0.33321,-0.73905,0.761445,0.3433,28.4,168.699997)"/>
<path style="fill-rule:evenodd;fill:rgb(87.058824%,12.54902%,6.27451%);fill-opacity:1;stroke-width:1.5;stroke-linecap:butt;stroke-linejoin:miter;stroke:rgb(0%,0%,0%);stroke-opacity:1;stroke-miterlimit:4;" d="M 232.797787 118.998671 C 232.80252 117.000793 231.999112 115.000568 230.798561 114.002234 C 229.334809 112.934345 227.93508 112.931227 226.601057 113.997263 C 224.598606 115.599325 224.499409 117.002552 224.499191 118.998798 C 224.56729 121.199912 225.234933 122.899878 226.497604 124.100328 C 228.032981 125.167282 229.431028 125.166017 230.697942 124.099284 C 232.598313 122.499185 232.898837 121.098048 232.799808 119.097749 Z M 232.797787 118.998671 " transform="matrix(0.28291,-0.759725,0.78275,0.29148,28.950001,176.199997)"/>
<path style="fill-rule:evenodd;fill:rgb(87.058824%,12.54902%,6.27451%);fill-opacity:1;stroke-width:1.5;stroke-linecap:butt;stroke-linejoin:miter;stroke:rgb(0%,0%,0%);stroke-opacity:1;stroke-miterlimit:4;" d="M 232.801362 119.001798 C 232.80035 117.002032 232.001791 115.001074 230.797352 113.999095 C 229.333346 112.933324 227.934832 112.934454 226.600476 113.99799 C 224.597959 115.598436 224.501241 116.997733 224.497622 118.998792 C 224.567833 121.198222 225.232812 122.900698 226.500487 124.099141 C 228.03465 125.16479 229.434497 125.168155 230.701994 124.098952 C 232.599274 122.498689 232.901834 121.10032 232.800217 119.099444 Z M 232.801362 119.001798 " transform="matrix(0.2241,-0.7791,0.802715,0.23089,31.5,185.199997)"/>
<path style="fill-rule:evenodd;fill:rgb(87.058824%,12.54902%,6.27451%);fill-opacity:1;stroke-width:1.5;stroke-linecap:butt;stroke-linejoin:miter;stroke:rgb(0%,0%,0%);stroke-opacity:1;stroke-miterlimit:4;" d="M 232.800995 118.998413 C 232.798723 117.000055 231.999781 115.000228 230.801549 114.001459 C 229.331904 112.93221 227.933401 112.933706 226.600658 114.00189 C 224.598549 115.599819 224.498537 116.997908 224.501412 119.000906 C 224.568457 121.198741 225.231392 122.899395 226.49978 124.101696 C 228.032176 125.167976 229.435459 125.165896 230.700672 124.101264 C 232.600581 122.501705 232.899006 121.098182 232.799918 119.102248 Z M 232.800995 118.998413 " transform="matrix(0.10144,-0.80432,0.82869,0.104515,47.349998,204.449997)"/>
<path style="fill-rule:evenodd;fill:rgb(87.058824%,12.54902%,6.27451%);fill-opacity:1;stroke-width:1.5;stroke-linecap:butt;stroke-linejoin:miter;stroke:rgb(0%,0%,0%);stroke-opacity:1;stroke-miterlimit:4;" d="M 232.80196 118.999762 C 232.801251 117.001241 231.999977 115.001161 230.801182 113.999467 C 229.334495 112.933329 227.931147 112.931862 226.600961 113.999365 C 224.598363 115.598564 224.502107 117.001768 224.498001 119.000477 C 224.564991 121.202354 225.233142 122.898714 226.498024 124.09909 C 228.032308 125.167274 229.435656 125.168741 230.698246 124.099193 C 232.599545 122.499261 232.898591 121.102194 232.801205 119.098081 Z M 232.80196 118.999762 " transform="matrix(0.03253,-0.81004,0.83459,0.033515,53.150002,213.699997)"/>
<path style="fill-rule:evenodd;fill:rgb(87.058824%,12.54902%,6.27451%);fill-opacity:1;stroke-width:1.5;stroke-linecap:butt;stroke-linejoin:miter;stroke:rgb(0%,0%,0%);stroke-opacity:1;stroke-miterlimit:4;" d="M 232.801001 118.999799 C 232.800292 117.001278 231.999018 115.001198 230.800223 113.999505 C 229.333536 112.933366 227.935002 112.931712 226.600002 113.999402 C 224.602219 115.598414 224.501148 117.001806 224.501857 119.000327 C 224.568847 121.202204 225.232183 122.898751 226.50188 124.09894 C 228.031349 125.167312 229.434697 125.168779 230.702101 124.099042 C 232.598586 122.499299 232.902447 121.102044 232.800246 119.098118 Z M 232.801001 118.999799 " transform="matrix(0.03253,-0.81004,0.83459,0.033515,44.400002,214)"/>
<path style="fill-rule:evenodd;fill:rgb(87.058824%,12.54902%,6.27451%);fill-opacity:1;stroke-width:1.5;stroke-linecap:butt;stroke-linejoin:miter;stroke:rgb(0%,0%,0%);stroke-opacity:1;stroke-miterlimit:4;" d="M 232.801652 119.001042 C 232.798463 116.99986 231.999283 114.999571 230.801352 113.999799 C 229.332052 112.935021 227.933999 112.931862 226.60035 113.998399 C 224.602224 115.598724 224.499398 117.000708 224.497889 119.000848 C 224.568313 121.199245 225.235035 122.901496 226.500201 124.098483 C 228.032713 125.167691 229.43184 125.166291 230.701203 124.099883 C 232.600014 122.501509 232.900396 121.100181 232.797893 119.100951 Z M 232.801652 119.001042 " transform="matrix(-0.18066,-0.7903,0.81426,-0.18613,86.25,236.75)"/>
<path style="fill-rule:evenodd;fill:rgb(87.058824%,12.54902%,6.27451%);fill-opacity:1;stroke-width:1.5;stroke-linecap:butt;stroke-linejoin:miter;stroke:rgb(0%,0%,0%);stroke-opacity:1;stroke-miterlimit:4;" d="M 232.802505 118.999632 C 232.798657 117.001495 232.002336 114.99968 230.801899 114.001887 C 229.332169 112.930961 227.931727 112.931371 226.602032 113.998661 C 224.602169 115.60041 224.498067 117.001048 224.501914 118.999185 C 224.566652 121.197619 225.233549 122.899524 226.499469 124.099027 C 228.031599 125.164642 229.43204 125.164231 230.700793 124.097796 C 232.5986 122.498957 232.899307 121.1 232.799453 119.101729 Z M 232.802505 118.999632 " transform="matrix(-0.245225,-0.77271,0.796135,-0.252655,94.150002,242.899994)"/>
<path style="fill-rule:evenodd;fill:rgb(87.058824%,12.54902%,6.27451%);fill-opacity:1;stroke-width:1.5;stroke-linecap:butt;stroke-linejoin:miter;stroke:rgb(0%,0%,0%);stroke-opacity:1;stroke-miterlimit:4;" d="M 232.801831 118.999067 C 232.801189 117.00036 232.002595 114.998892 230.797968 113.999846 C 229.334141 112.932663 227.93244 112.930636 226.599644 114.001892 C 224.601247 115.601422 224.501443 117.000974 224.502085 118.999681 C 224.566515 121.201204 225.232739 122.897671 226.501155 124.099533 C 228.03397 125.166333 229.431285 125.166425 230.699479 124.097487 C 232.600973 122.501434 232.896974 121.101121 232.801424 119.101634 Z M 232.801831 118.999067 " transform="matrix(-0.335515,-0.738,0.760365,-0.34569,110.949997,249.550003)"/>
<path style="fill-rule:evenodd;fill:rgb(87.058824%,12.54902%,6.27451%);fill-opacity:1;stroke-width:1.5;stroke-linecap:butt;stroke-linejoin:miter;stroke:rgb(0%,0%,0%);stroke-opacity:1;stroke-miterlimit:4;" d="M 232.798911 118.998284 C 232.801751 116.998692 232.001934 115.001101 230.80055 114.002269 C 229.335093 112.934469 227.932936 112.931283 226.600117 114.001372 C 224.602331 115.599244 224.500102 116.997381 224.501463 118.999265 C 224.564038 121.200862 225.232006 122.901186 226.498805 124.102024 C 228.033555 125.16471 229.431512 125.165604 230.701599 124.098844 C 232.600168 122.50049 232.903192 121.099241 232.800253 119.100951 Z M 232.798911 118.998284 " transform="matrix(-0.39725,-0.706685,0.7281,-0.40929,120.699997,254.149994)"/>
<path style="fill-rule:evenodd;fill:rgb(87.058824%,12.54902%,6.27451%);fill-opacity:1;stroke-width:1.5;stroke-linecap:butt;stroke-linejoin:miter;stroke:rgb(0%,0%,0%);stroke-opacity:1;stroke-miterlimit:4;" d="M 232.799432 118.999956 C 232.799278 116.998752 231.998137 114.999145 230.79798 113.999035 C 229.331249 112.934582 227.932603 112.935202 226.60204 114.000897 C 224.599473 115.600522 224.499824 116.99765 224.499978 118.998854 C 224.565514 121.200714 225.232453 122.900126 226.497992 124.100892 C 228.034177 125.16757 229.432823 125.16695 230.700654 124.097947 C 232.600155 122.50151 232.899214 121.099089 232.802716 119.099991 Z M 232.799432 118.999956 " transform="matrix(-0.471695,-0.659335,0.679315,-0.485985,135.800003,257.700012)"/>
<path style="fill-rule:evenodd;fill:rgb(87.058824%,12.54902%,6.27451%);fill-opacity:1;stroke-width:1.5;stroke-linecap:butt;stroke-linejoin:miter;stroke:rgb(0%,0%,0%);stroke-opacity:1;stroke-miterlimit:4;" d="M 232.802052 119.00083 C 232.798124 117.000694 231.997694 114.999255 230.797851 114.000792 C 229.335959 112.933067 227.93111 112.932467 226.600556 114.000972 C 224.599495 115.602477 224.499174 117.000276 224.499434 118.997379 C 224.567728 121.198211 225.233979 122.898206 226.501855 124.100397 C 228.035341 125.165891 229.433398 125.167018 230.69915 124.100217 C 232.597778 122.500016 232.902965 121.099609 232.799729 119.097217 Z M 232.802052 119.00083 " transform="matrix(-0.525795,-0.61705,0.635755,-0.54172,146.199997,260.100006)"/>
<path style="fill-rule:evenodd;fill:rgb(87.058824%,12.54902%,6.27451%);fill-opacity:1;stroke-width:1.5;stroke-linecap:butt;stroke-linejoin:miter;stroke:rgb(0%,0%,0%);stroke-opacity:1;stroke-miterlimit:4;" d="M 232.79842 118.998471 C 232.799113 116.997711 231.999123 114.999799 230.801826 114.000358 C 229.334806 112.933543 227.93443 112.934387 226.597265 113.999609 C 224.600075 115.602337 224.499069 117.001988 224.501756 118.999415 C 224.567445 121.201394 225.232102 122.899406 226.502594 124.100013 C 228.030942 125.166357 229.431318 125.165513 230.700342 124.100815 C 232.602134 122.49882 232.900749 121.09765 232.79923 119.097676 Z M 232.79842 118.998471 " transform="matrix(-0.568685,-0.577765,0.59528,-0.585915,154.449997,263.049988)"/>
<path style="fill-rule:evenodd;fill:rgb(87.058824%,12.54902%,6.27451%);fill-opacity:1;stroke-width:1.5;stroke-linecap:butt;stroke-linejoin:miter;stroke:rgb(0%,0%,0%);stroke-opacity:1;stroke-miterlimit:4;" d="M 232.798847 118.998559 C 232.801711 116.998941 231.998155 114.999515 230.801976 113.999223 C 229.33397 112.93576 227.933313 112.931902 226.598972 114.00084 C 224.597718 115.60095 224.501796 117.000053 224.498931 118.999671 C 224.565762 121.200103 225.232114 122.900872 226.501643 124.098931 C 228.030801 125.166907 229.435114 125.167718 230.700992 124.100361 C 232.599808 122.499326 232.900604 121.102074 232.801032 119.10153 Z M 232.798847 118.998559 " transform="matrix(-0.61505,-0.52814,0.544145,-0.63369,165.699997,264.799988)"/>
<path style="fill-rule:evenodd;fill:rgb(87.058824%,12.54902%,6.27451%);fill-opacity:1;stroke-width:1.5;stroke-linecap:butt;stroke-linejoin:miter;stroke:rgb(0%,0%,0%);stroke-opacity:1;stroke-miterlimit:4;" d="M 232.801194 119.001502 C 232.797658 116.99993 232.000255 115.000586 230.800987 114.001938 C 229.334668 112.931855 227.931317 112.932385 226.598872 113.998226 C 224.599587 115.60024 224.49915 117.001379 224.499954 118.999097 C 224.569334 121.200801 225.233848 122.897191 226.501691 124.099823 C 228.034764 125.165064 229.434145 125.167185 230.701074 124.099682 C 232.602834 122.500355 232.901055 121.097696 232.799992 119.098811 Z M 232.801194 119.001502 " transform="matrix(-0.667865,-0.45954,0.473465,-0.6881,181.25,263.049988)"/>
<path style="fill-rule:evenodd;fill:rgb(87.058824%,12.54902%,6.27451%);fill-opacity:1;stroke-width:1.5;stroke-linecap:butt;stroke-linejoin:miter;stroke:rgb(0%,0%,0%);stroke-opacity:1;stroke-miterlimit:4;" d="M 232.801399 118.998114 C 232.801556 117.001712 231.999755 115.002165 230.799086 113.998272 C 229.331019 112.933339 227.931701 112.933724 226.60113 113.999428 C 224.600894 115.599934 224.498541 116.998683 224.500393 118.999336 C 224.564357 121.198726 225.236307 122.901062 226.501458 124.097492 C 228.034134 125.164533 229.433452 125.164148 230.701422 124.100587 C 232.600363 122.498869 232.898916 121.100243 232.802158 119.100679 Z M 232.801399 118.998114 " transform="matrix(-0.73687,-0.337985,0.348225,-0.759205,207.949997,252)"/>
<path style="fill-rule:evenodd;fill:rgb(87.058824%,12.54902%,6.27451%);fill-opacity:1;stroke-width:1.5;stroke-linecap:butt;stroke-linejoin:miter;stroke:rgb(0%,0%,0%);stroke-opacity:1;stroke-miterlimit:4;" d="M 232.801861 119.001398 C 232.799256 116.998704 232.001225 115.000657 230.799032 113.999017 C 229.333571 112.933812 227.933023 112.932476 226.598992 113.999418 C 224.601019 115.601259 224.501276 116.999251 224.497733 118.999091 C 224.567954 121.201797 225.231018 122.898918 226.500826 124.10057 C 228.033374 125.167592 229.433922 125.168928 230.700866 124.100168 C 232.602886 122.501438 232.900683 121.100079 232.802125 119.100495 Z M 232.801861 119.001398 " transform="matrix(-0.764475,-0.26979,0.277965,-0.78765,219.350006,248.75)"/>
<path style="fill-rule:evenodd;fill:rgb(87.058824%,12.54902%,6.27451%);fill-opacity:1;stroke-width:1.5;stroke-linecap:butt;stroke-linejoin:miter;stroke:rgb(0%,0%,0%);stroke-opacity:1;stroke-miterlimit:4;" d="M 232.80043 118.998467 C 232.79824 117.000777 232.001989 114.99841 230.798363 113.99944 C 229.332125 112.936229 227.933339 112.933266 226.598318 114.002601 C 224.602428 115.600147 224.498905 116.998028 224.50165 119.001527 C 224.566451 121.198642 225.232525 122.902206 226.498761 124.100601 C 228.033279 125.169383 229.43151 125.166537 230.698806 124.09744 C 232.598184 122.502724 232.899529 121.098751 232.800272 119.098082 Z M 232.80043 118.998467 " transform="matrix(-0.807225,-0.060025,0.077145,-0.66672,250.25,203)"/>
<path style="fill-rule:evenodd;fill:rgb(87.058824%,12.54902%,6.27451%);fill-opacity:1;stroke-width:1.5;stroke-linecap:butt;stroke-linejoin:miter;stroke:rgb(0%,0%,0%);stroke-opacity:1;stroke-miterlimit:4;" d="M 232.800525 118.998581 C 232.800289 116.998417 231.999362 114.997925 230.801629 114.001391 C 229.335387 112.934754 227.931563 112.93356 226.600624 114.000291 C 224.598981 115.599147 224.497591 116.998226 224.497827 118.99839 C 224.565043 121.199586 225.231007 122.898967 226.501489 124.100052 C 228.032017 125.166857 229.435841 125.168051 230.702495 124.101153 C 232.600127 122.501326 232.899072 121.101708 232.799523 119.099533 Z M 232.800525 118.998581 " transform="matrix(-0.79041,-0.180175,0.185625,-0.814365,234.199997,240.399994)"/>
<path style=" stroke:none;fill-rule:evenodd;fill:rgb(100%,89.019608%,0%);fill-opacity:1;" d="M 240 97.351562 C 241.035156 96.183594 242.148438 95.832031 243.351562 96.300781 C 242.851562 93.25 241.949219 92.199219 240.75 92.601562 C 239.601562 92.949219 239.050781 94.5 240 97.351562 M 241.648438 106.449219 C 242.800781 105.398438 243.800781 105.148438 245.050781 105.648438 C 244.851562 102.648438 243.949219 101.5 242.75 101.800781 C 241.550781 102.050781 240.949219 103.601562 241.648438 106.449219 M 237.75 88.949219 C 238.449219 87.617188 239.449219 87 240.75 87.101562 C 239.5 84.300781 238.351562 83.550781 237.25 84.199219 C 236.25 84.851562 236.148438 86.5 237.75 89 Z M 233.699219 80.648438 C 234.398438 79.285156 235.398438 78.667969 236.699219 78.800781 C 235.449219 75.949219 234.25 75.199219 233.199219 75.851562 C 232.148438 76.5 232.101562 78.148438 233.699219 80.648438 M 223.949219 65.398438 C 224.417969 63.933594 225.285156 63.167969 226.550781 63.101562 C 224.898438 60.5 223.601562 59.949219 222.699219 60.75 C 221.800781 61.550781 221.949219 63.25 223.949219 65.398438 M 217.5 58.75 C 218 57.25 218.699219 56.550781 220 56.351562 C 218.300781 53.851562 217 53.351562 216.101562 54.148438 C 215.199219 55 215.398438 56.648438 217.5 58.75 M 204.148438 47.5 C 204.148438 45.898438 204.648438 45 205.800781 44.398438 C 203.398438 42.550781 201.949219 42.5 201.398438 43.550781 C 200.851562 44.601562 201.5 46.101562 204.148438 47.5 M 211.148438 52.75 C 211.316406 51.25 212.035156 50.332031 213.300781 50 C 211.199219 47.75 209.851562 47.398438 209.101562 48.351562 C 208.351562 49.300781 208.75 50.898438 211.101562 52.75 Z M 196.148438 43.101562 C 196 41.550781 196.398438 40.601562 197.5 39.851562 C 194.898438 38.25 193.5 38.351562 193 39.449219 C 192.5 40.550781 193.398438 42 196.199219 43.101562 Z M 188.101562 39.5 C 187.699219 38 187.949219 37 188.949219 36.101562 C 186.148438 34.898438 184.75 35.148438 184.449219 36.351562 C 184.148438 37.550781 185.199219 38.800781 188.101562 39.5 M 179.351562 36.800781 C 178.800781 35.300781 178.949219 34.300781 179.898438 33.300781 C 177 32.351562 175.648438 32.75 175.398438 33.949219 C 175.25 35.148438 176.398438 36.351562 179.351562 36.800781 M 170.699219 35.101562 C 170.101562 33.734375 170.214844 32.566406 171.050781 31.601562 C 168.050781 30.851562 166.75 31.351562 166.648438 32.601562 C 166.5 33.800781 167.75 34.898438 170.699219 35.101562 M 161.601562 34.398438 C 160.800781 33.101562 160.800781 31.933594 161.601562 30.898438 C 158.550781 30.449219 157.25 31.101562 157.300781 32.300781 C 157.300781 33.550781 158.648438 34.5 161.601562 34.398438 M 143.75 35.75 C 142.683594 34.683594 142.382812 33.550781 142.851562 32.351562 C 139.851562 32.648438 138.75 33.550781 139.050781 34.75 C 139.351562 35.949219 140.898438 36.550781 143.75 35.75 M 152.550781 34.601562 C 151.617188 33.398438 151.464844 32.234375 152.101562 31.101562 C 149.050781 31 147.851562 31.75 148 33 C 148.148438 34.199219 149.601562 35 152.5 34.601562 Z M 135.101562 37.601562 C 133.898438 36.699219 133.449219 35.632812 133.75 34.398438 C 130.75 35.148438 129.851562 36.199219 130.300781 37.300781 C 130.800781 38.449219 132.398438 38.800781 135.101562 37.601562 M 118.601562 45.199219 C 117.234375 44.535156 116.582031 43.566406 116.648438 42.300781 C 113.851562 43.601562 113.148438 44.800781 113.851562 45.800781 C 114.5 46.800781 116.148438 46.898438 118.601562 45.199219 M 126.601562 41.148438 C 125.265625 40.351562 124.734375 39.316406 125 38.050781 C 122.050781 38.949219 121.199219 40.050781 121.75 41.148438 C 122.300781 42.25 123.949219 42.550781 126.550781 41.148438 Z M 103.800781 55.550781 C 102.332031 55.214844 101.5 54.382812 101.300781 53.050781 C 98.800781 54.949219 98.398438 56.25 99.25 57.101562 C 100.101562 57.949219 101.75 57.699219 103.75 55.550781 Z M 110.851562 49.75 C 109.382812 49.285156 108.617188 48.417969 108.550781 47.148438 C 105.949219 48.75 105.398438 50.050781 106.199219 51 C 107 51.898438 108.699219 51.75 110.851562 49.75 M 97.5 61.75 C 96.035156 61.515625 95.132812 60.765625 94.800781 59.5 C 92.5 61.550781 92.199219 62.949219 93.148438 63.699219 C 94.101562 64.5 95.648438 64.050781 97.5 61.699219 Z M 91.851562 69 C 90.285156 68.933594 89.316406 68.300781 88.949219 67.101562 C 86.851562 69.351562 86.648438 70.699219 87.648438 71.398438 C 88.648438 72.101562 90.199219 71.5 91.851562 69 M 87.148438 76.5 C 85.550781 76.601562 84.648438 76.148438 83.949219 75 C 82.25 77.550781 82.25 79 83.351562 79.5 C 84.449219 80 85.898438 79.199219 87.148438 76.5 M 83 84.5 C 81.566406 84.832031 80.449219 84.464844 79.648438 83.398438 C 78.300781 86.148438 78.5 87.550781 79.648438 87.898438 C 80.800781 88.300781 82.148438 87.300781 83 84.449219 Z M 79.699219 92.648438 C 78.199219 93.199219 77.199219 93.050781 76.199219 92.148438 C 75.300781 95.050781 75.699219 96.398438 76.949219 96.601562 C 78.148438 96.75 79.300781 95.601562 79.699219 92.601562 Z M 77.449219 101.75 C 76.117188 102.417969 74.949219 102.332031 73.949219 101.5 C 73.25 104.5 73.75 105.75 74.949219 105.851562 C 76.199219 106 77.300781 104.75 77.449219 101.75 M 76.550781 109.351562 C 75.316406 110.050781 74.148438 110.132812 73.050781 109.601562 C 72.699219 112.050781 73.351562 113 74.550781 112.898438 C 75.75 112.800781 76.699219 111.699219 76.550781 109.351562 M 230.050781 73.25 C 230.550781 71.785156 231.433594 71.015625 232.699219 70.949219 C 231.101562 68.351562 229.851562 67.800781 228.898438 68.550781 C 227.949219 69.351562 228.101562 71.050781 230.050781 73.25 M 242.648438 115.75 C 243.75 114.648438 244.882812 114.382812 246.050781 114.949219 C 245.851562 111.898438 244.949219 110.800781 243.75 111.050781 C 242.550781 111.300781 241.949219 112.851562 242.648438 115.75 "/>
<path style="fill-rule:evenodd;fill:rgb(12.941177%,47.450981%,0%);fill-opacity:1;stroke-width:1.9;stroke-linecap:butt;stroke-linejoin:round;stroke:rgb(0%,0%,0%);stroke-opacity:1;stroke-miterlimit:4;" d="M 461.296875 132 C 461.296875 132 454.296875 138.898438 455.601562 147.203125 C 456.898438 155.5 462.101562 165.796875 461.101562 174.5 C 460.101562 183.203125 458.601562 188.796875 458.601562 188.796875 C 458.601562 188.796875 466.601562 179.703125 466.601562 170.796875 C 466.796875 162.101562 461.203125 150.5 461.203125 144.101562 C 461.203125 137.703125 461.5 131.898438 461.296875 132.101562 Z M 474 160 C 474 160 468.703125 164 469.203125 173 C 469.703125 182 479.203125 198.796875 479.203125 198.796875 C 479.203125 198.796875 486 212.796875 485.703125 216.5 C 485.398438 220.203125 487 213 486.296875 205 C 485.601562 197 475.296875 179.203125 475.296875 179.203125 C 475.296875 179.203125 473.101562 175.601562 473.296875 169.5 C 473.5 163.398438 474.101562 160.101562 474.101562 160 Z M 474 160 " transform="matrix(0.5,0,0,0.5,0,0)"/>
<path style=" stroke:none;fill-rule:evenodd;fill:rgb(41.960785%,9.411765%,70.980394%);fill-opacity:1;" d="M 156.5 23.699219 C 156.5 22.800781 155.398438 22 154.101562 22 C 152.800781 22 151.75 22.800781 151.75 23.699219 C 151.75 24.601562 152.75 25.398438 154.101562 25.398438 C 155.449219 25.398438 156.449219 24.648438 156.449219 23.699219 Z M 157.5 27.699219 C 157.5 26.800781 156.398438 26.050781 155 26.050781 C 153.699219 26.050781 152.601562 26.75 152.601562 27.648438 C 152.601562 28.550781 153.699219 29.300781 155.050781 29.300781 C 156.398438 29.300781 157.449219 28.550781 157.449219 27.648438 Z M 160.5 23 C 160.5 23 157.699219 25.050781 158.851562 25.898438 C 160 26.75 163.148438 24.101562 163.148438 24.101562 Z M 242.148438 70.699219 C 242.148438 70.066406 241.917969 69.582031 241.449219 69.25 C 240.984375 68.980469 240.414062 68.980469 239.949219 69.25 C 239.484375 69.582031 239.25 70.066406 239.25 70.699219 C 239.25 71.648438 239.5 71.851562 239.949219 72.148438 C 240.414062 72.417969 240.984375 72.417969 241.449219 72.148438 C 241.917969 71.816406 242.148438 71.332031 242.148438 70.699219 M 241.101562 66.699219 C 241.101562 65.699219 240.398438 64.949219 239.601562 64.949219 C 238.800781 64.949219 238.050781 65.75 238.050781 66.75 C 238.050781 67.75 238.75 68.5 239.550781 68.5 C 240.351562 68.5 241.101562 67.699219 241.101562 66.75 Z M 241.851562 74.800781 C 241.785156 74.234375 241.582031 73.933594 241.25 73.898438 C 240.75 73.851562 240.648438 74.300781 240.648438 74.800781 C 240.648438 75.300781 240.898438 75.75 241.25 75.75 C 241.601562 75.75 241.851562 75.300781 241.851562 74.800781 M 244.300781 67.601562 C 244.234375 66.933594 244.035156 66.582031 243.699219 66.550781 C 243.332031 66.617188 243.132812 66.949219 243.101562 67.550781 C 243.050781 68.449219 243.351562 68.648438 243.699219 68.648438 C 244.050781 68.648438 244.300781 68.148438 244.300781 67.601562 M 237.601562 68.300781 C 237.535156 67.765625 237.332031 67.484375 237 67.449219 C 236.5 67.398438 236.398438 67.851562 236.398438 68.300781 C 236.398438 68.75 236.648438 69.199219 237 69.199219 C 237.351562 69.199219 237.601562 68.800781 237.601562 68.300781 M 238.648438 74 C 238.648438 73.25 238.101562 72.648438 237.398438 72.648438 C 236.699219 72.648438 236.148438 73.25 236.148438 74 C 236.148438 74.75 236.648438 75.398438 237.398438 75.398438 C 238.148438 75.398438 238.648438 74.800781 238.648438 74 M 235.351562 71.5 C 235.351562 70.851562 234.851562 70.300781 234.300781 70.300781 C 233.75 70.300781 233.199219 70.800781 233.199219 71.5 C 233.199219 72.199219 233.699219 72.699219 234.300781 72.699219 C 234.898438 72.667969 235.234375 72.265625 235.300781 71.5 Z M 234.851562 68.101562 C 234.84375 67.75 234.65625 67.425781 234.351562 67.25 C 234.054688 67.089844 233.695312 67.089844 233.398438 67.25 C 233.113281 67.4375 232.945312 67.757812 232.949219 68.101562 C 232.9375 68.46875 233.128906 68.816406 233.449219 69 C 233.734375 69.144531 234.066406 69.144531 234.351562 69 C 234.683594 68.800781 234.851562 68.5 234.851562 68.101562 M 249.898438 85.300781 C 248.550781 83.5 246.351562 82.75 245 83.601562 C 243.699219 84.449219 243.699219 86.601562 245.101562 88.449219 C 246.449219 90.25 248.601562 91 249.949219 90.148438 C 251.300781 89.25 251.300781 87.148438 249.949219 85.300781 Z M 253.800781 118.648438 C 254.050781 116.398438 253 114.449219 251.398438 114.25 C 249.800781 114.101562 248.300781 115.75 248 117.949219 C 247.699219 120.148438 248.851562 122.101562 250.449219 122.300781 C 252.050781 122.5 253.550781 120.800781 253.800781 118.648438 M 254.601562 138.050781 C 255.101562 135.851562 254.148438 133.800781 252.601562 133.449219 C 251 133.148438 249.351562 134.648438 248.898438 136.851562 C 248.449219 139 249.398438 141.050781 250.898438 141.351562 C 252.5 141.699219 254.148438 140.199219 254.601562 138 Z M 258.351562 119.851562 C 258.351562 119 257.75 118.300781 257.050781 118.300781 C 256.351562 118.300781 255.699219 119 255.699219 119.851562 C 255.699219 120.699219 256.300781 121.449219 257.050781 121.449219 C 257.800781 121.449219 258.351562 120.75 258.351562 119.851562 M 255.101562 123.5 L 252.398438 126.601562 C 252.398438 126.601562 249.851562 126.648438 250 127.5 C 250.148438 128.351562 253.5 130.800781 253.5 131.800781 C 253.449219 132.800781 255.699219 131.550781 255.699219 131.550781 L 257.550781 126 C 257.550781 126 257.449219 122.148438 256.449219 122.199219 C 255.449219 122.25 255.199219 123.449219 255.101562 123.5 M 76.398438 122.300781 C 76.503906 121.785156 76.285156 121.257812 75.847656 120.964844 C 75.410156 120.671875 74.839844 120.671875 74.402344 120.964844 C 73.964844 121.257812 73.746094 121.785156 73.851562 122.300781 C 73.972656 122.910156 74.503906 123.347656 75.125 123.347656 C 75.746094 123.347656 76.277344 122.910156 76.398438 122.300781 M 77.648438 118.300781 C 77.648438 117.601562 77.050781 117 76.351562 117 C 75.648438 117 75.050781 117.601562 75.050781 118.351562 C 75.050781 119.101562 75.648438 119.699219 76.351562 119.699219 C 77.046875 119.609375 77.585938 119.046875 77.648438 118.351562 Z M 67 99.601562 C 66.5 98.5 65.5 97.898438 64.75 98.25 C 64 98.601562 63.75 99.75 64.25 100.851562 C 64.75 101.949219 65.75 102.550781 66.5 102.199219 C 67.300781 101.851562 67.5 100.699219 67 99.601562 M 70.25 111.300781 C 69.550781 109.898438 68.199219 109.101562 67.148438 109.550781 C 66.101562 110 65.800781 111.5 66.449219 112.898438 C 67.101562 114.300781 68.449219 115.101562 69.550781 114.648438 C 70.648438 114.199219 70.898438 112.699219 70.25 111.300781 M 73.648438 119.898438 C 73.898438 118.148438 73.148438 116.5 72.050781 116.300781 C 70.949219 116.101562 69.851562 117.300781 69.601562 119.050781 C 69.351562 120.800781 70.101562 122.398438 71.25 122.648438 C 72.398438 122.898438 73.449219 121.648438 73.648438 119.898438 M 68.148438 121.148438 C 68.851562 119.5 68.601562 117.75 67.601562 117.25 C 66.601562 116.75 65.199219 117.601562 64.5 119.25 C 63.800781 120.898438 64.050781 122.601562 65.101562 123.148438 C 66.148438 123.699219 67.449219 122.800781 68.148438 121.148438 "/>
<path style=" stroke:none;fill-rule:evenodd;fill:rgb(41.960785%,9.411765%,70.980394%);fill-opacity:1;" d="M 65.648438 117.398438 C 65.648438 116.550781 65 115.898438 64.199219 115.898438 C 63.398438 115.898438 62.75 116.601562 62.75 117.398438 C 62.75 118.199219 63.398438 118.898438 64.25 118.898438 C 65.101562 118.898438 65.648438 118.25 65.648438 117.398438 M 64.5 113.648438 C 64.5 112.898438 63.898438 112.300781 63.199219 112.300781 C 62.84375 112.3125 62.503906 112.46875 62.261719 112.730469 C 62.015625 112.992188 61.886719 113.34375 61.898438 113.699219 C 61.898438 114.398438 62.5 115.050781 63.199219 115.050781 C 63.898438 115.050781 64.5 114.398438 64.5 113.648438 M 65.699219 106.5 C 65.699219 105.199219 65.148438 104.199219 64.449219 104.199219 C 63.75 104.199219 63.199219 105.199219 63.199219 106.5 C 63.199219 107.800781 63.75 108.800781 64.449219 108.800781 C 65.148438 108.800781 65.699219 107.800781 65.699219 106.5 M 69.601562 105.949219 C 69.75 104.699219 69.351562 103.601562 68.601562 103.449219 C 67.949219 103.398438 67.25 104.351562 67.101562 105.601562 C 66.898438 106.851562 67.351562 107.949219 68.050781 108.050781 C 68.75 108.148438 69.398438 107.199219 69.550781 105.949219 Z M 97.101562 50.949219 C 97.648438 49.148438 97.101562 47.351562 95.949219 46.949219 C 94.800781 46.5 93.449219 47.601562 92.949219 49.398438 C 92.449219 51.199219 92.949219 53 94.101562 53.398438 C 95.25 53.851562 96.601562 52.75 97.101562 50.949219 M 91.898438 58.898438 C 93.398438 57.550781 94.101562 55.75 93.398438 54.851562 C 92.648438 53.898438 90.800781 54.25 89.25 55.550781 C 87.699219 56.851562 87.101562 58.648438 87.800781 59.550781 C 88.550781 60.5 90.398438 60.199219 91.898438 58.898438 M 88.898438 54.5 C 90.398438 53.351562 91 51.800781 90.300781 51 C 89.601562 50.199219 87.800781 50.5 86.300781 51.601562 C 84.75 52.75 84.101562 54.300781 84.800781 55.101562 C 85.5 55.898438 87.300781 55.601562 88.851562 54.5 Z M 100.648438 46.75 C 101.648438 45.949219 102.101562 44.851562 101.648438 44.300781 C 101.148438 43.800781 99.898438 43.949219 98.851562 44.75 C 97.800781 45.550781 97.398438 46.601562 97.898438 47.148438 C 98.398438 47.699219 99.601562 47.5 100.648438 46.75 "/>
<path style=" stroke:none;fill-rule:evenodd;fill:rgb(41.960785%,9.411765%,70.980394%);fill-opacity:1;" d="M 94.5 54.25 C 95.199219 53.148438 95.25 52 94.601562 51.648438 C 93.949219 51.300781 92.851562 51.851562 92.148438 52.949219 C 91.449219 54.050781 91.398438 55.199219 92.050781 55.550781 C 92.699219 55.898438 93.800781 55.300781 94.5 54.25 M 103.351562 49.601562 C 104.449219 48.648438 104.851562 47.449219 104.351562 46.851562 C 103.75 46.25 102.351562 46.550781 101.25 47.449219 C 100.148438 48.351562 99.75 49.601562 100.300781 50.199219 C 100.851562 50.800781 102.25 50.5 103.351562 49.601562 M 87.351562 60.398438 C 88.351562 60.398438 89.148438 59.851562 89.050781 59.25 C 89.050781 58.699219 88.101562 58.25 87.050781 58.300781 C 86.050781 58.351562 85.25 58.898438 85.351562 59.449219 C 85.398438 60.050781 86.351562 60.449219 87.351562 60.449219 Z M 106.699219 43.851562 C 107.398438 42.75 107.449219 41.601562 106.800781 41.25 C 106.199219 40.898438 105.101562 41.449219 104.398438 42.550781 C 103.699219 43.648438 103.648438 44.800781 104.300781 45.148438 C 104.949219 45.5 106 44.949219 106.699219 43.851562 "/>
<path style="fill-rule:evenodd;fill:rgb(100%,82.352942%,0%);fill-opacity:1;stroke-width:1;stroke-linecap:butt;stroke-linejoin:miter;stroke:rgb(93.725491%,54.11765%,6.27451%);stroke-opacity:1;stroke-miterlimit:4;" d="M 446.796875 153.398438 C 446.796875 153.398438 453.203125 143.296875 450.796875 133.703125 C 448.398438 124.101562 437.796875 131 438 134.398438 C 438.203125 137.703125 444.796875 142.296875 445.203125 144.398438 C 445.601562 146.5 444.398438 152.703125 446.796875 153.398438 Z M 446.796875 153.398438 " transform="matrix(0.5,0,0,0.5,0,0)"/>
<path style="fill-rule:evenodd;fill:rgb(12.941177%,47.450981%,0%);fill-opacity:1;stroke-width:2.3;stroke-linecap:butt;stroke-linejoin:round;stroke:rgb(0%,0%,0%);stroke-opacity:1;stroke-miterlimit:4;" d="M 324.898438 69.296875 C 324.898438 69.296875 347.898438 70.203125 348 85.101562 C 348 87.398438 348 90.101562 347.203125 96.796875 C 351.796875 94.296875 354.796875 87.5 354.203125 83.101562 C 354.296875 68 333.703125 57.601562 324.898438 69.296875 Z M 324.898438 69.296875 " transform="matrix(0.5,0,0,0.5,0,0)"/>
<path style="fill-rule:evenodd;fill:rgb(12.941177%,47.450981%,0%);fill-opacity:1;stroke-width:2.3;stroke-linecap:butt;stroke-linejoin:round;stroke:rgb(0%,0%,0%);stroke-opacity:1;stroke-miterlimit:4;" d="M 310.296875 68.601562 C 310.296875 68.601562 328.796875 64.796875 329 79.601562 C 329.101562 94.601562 323 96.898438 323 96.898438 C 323 96.898438 337.296875 93.898438 337.398438 78.796875 C 337.5 63.703125 319.101562 56.898438 310.296875 68.601562 Z M 310.296875 68.601562 " transform="matrix(0.5,0,0,0.5,0,0)"/>
<path style="fill-rule:evenodd;fill:rgb(96.862745%,87.450981%,45.09804%);fill-opacity:1;stroke-width:2.5;stroke-linecap:butt;stroke-linejoin:round;stroke:rgb(0%,0%,0%);stroke-opacity:1;stroke-miterlimit:4;" d="M 373.296875 390 C 373.296875 390 460.101562 365.398438 486.296875 259 C 471 368.101562 376 403 376 403 L 373.203125 390 Z M 373.296875 390 " transform="matrix(0.5,0,0,0.5,0,0)"/>
<path style=" stroke:none;fill-rule:evenodd;fill:rgb(54.901963%,9.411765%,0%);fill-opacity:1;" d="M 191.101562 198.300781 C 192.449219 198.300781 195.75 194.601562 197.648438 194.199219 C 199.550781 193.800781 199.75 191.851562 197.601562 191.800781 C 195.398438 191.699219 193.5 194.300781 193.5 194.300781 C 193.5 194.300781 191.601562 195.898438 189.601562 196.101562 C 187.601562 196.300781 188.898438 198.800781 191.101562 198.300781 "/>
<path style="fill-rule:evenodd;fill:rgb(54.901963%,9.411765%,0%);fill-opacity:1;stroke-width:2.5;stroke-linecap:butt;stroke-linejoin:miter;stroke:rgb(54.901963%,9.411765%,0%);stroke-opacity:1;stroke-miterlimit:4;" d="M 432.203125 359.296875 C 432.203125 359.296875 423.203125 364.5 424.398438 365.796875 C 425.601562 367.101562 433.703125 360.796875 433.898438 360.796875 C 434 360.601562 437.296875 356.601562 432.203125 359.296875 Z M 432.203125 359.296875 " transform="matrix(0.5,0,0,0.5,0,0)"/>
<path style=" stroke:none;fill-rule:evenodd;fill:rgb(54.901963%,9.411765%,0%);fill-opacity:1;" d="M 200.351562 191.5 C 200.351562 191.5 199 191 202.449219 189.699219 C 205.949219 188.351562 205.699219 186.800781 206.851562 186.148438 C 207.949219 185.5 210.351562 183.800781 210.851562 184.800781 C 211.351562 185.800781 208.351562 187.800781 207.601562 188 C 206.898438 188.199219 203.449219 191.398438 202.449219 191.648438 C 201.449219 191.917969 200.75 191.867188 200.351562 191.5 "/>
<path style="fill:none;stroke-width:3;stroke-linecap:round;stroke-linejoin:miter;stroke:rgb(54.901963%,9.411765%,0%);stroke-opacity:1;stroke-miterlimit:4;" d="M 445.601562 346 C 439.601562 352.703125 439.601562 352.5 439.601562 352.5 " transform="matrix(0.5,0,0,0.5,0,0)"/>
<path style="fill:none;stroke-width:2.8;stroke-linecap:round;stroke-linejoin:miter;stroke:rgb(54.901963%,9.411765%,0%);stroke-opacity:1;stroke-miterlimit:4;" d="M 454.5 335.203125 L 448.796875 342.101562 " transform="matrix(0.5,0,0,0.5,0,0)"/>
<path style="fill:none;stroke-width:2.5;stroke-linecap:round;stroke-linejoin:miter;stroke:rgb(54.901963%,9.411765%,0%);stroke-opacity:1;stroke-miterlimit:4;" d="M 463.398438 321 L 457 331.203125 " transform="matrix(0.5,0,0,0.5,0,0)"/>
<path style="fill:none;stroke-width:2.3;stroke-linecap:round;stroke-linejoin:miter;stroke:rgb(54.901963%,9.411765%,0%);stroke-opacity:1;stroke-miterlimit:4;" d="M 470.898438 306.601562 L 465.601562 317.101562 M 474.203125 299.101562 L 472.601562 302.703125 " transform="matrix(0.5,0,0,0.5,0,0)"/>
<path style="fill:none;stroke-width:1.4;stroke-linecap:round;stroke-linejoin:miter;stroke:rgb(54.901963%,9.411765%,0%);stroke-opacity:1;stroke-miterlimit:4;" d="M 478 289 L 476.601562 293.398438 " transform="matrix(0.5,0,0,0.5,0,0)"/>
<path style="fill-rule:evenodd;fill:rgb(96.862745%,87.450981%,45.09804%);fill-opacity:1;stroke-width:1.5;stroke-linecap:butt;stroke-linejoin:round;stroke:rgb(0%,0%,0%);stroke-opacity:1;stroke-miterlimit:4;" d="M 160.298591 216.000261 C 160.298591 216.000261 212.300745 201.29974 227.899503 137.499481 C 218.799834 202.999488 161.898584 223.699658 161.898584 223.699658 Z M 160.298591 216.000261 " transform="matrix(-0.82764,0,0,0.85031,262.399994,10.2)"/>
<path style=" stroke:none;fill-rule:evenodd;fill:rgb(54.901963%,9.411765%,0%);fill-opacity:1;" d="M 125.351562 197.199219 C 124 197.199219 120.75 193.449219 118.851562 193.050781 C 116.949219 192.648438 116.75 190.648438 118.898438 190.550781 C 121.101562 190.550781 122.949219 193.101562 122.949219 193.101562 C 122.949219 193.101562 124.851562 194.75 126.800781 195 C 128.75 195.25 127.5 197.699219 125.351562 197.199219 "/>
<path style="fill-rule:evenodd;fill:rgb(54.901963%,9.411765%,0%);fill-opacity:1;stroke-width:1.5;stroke-linecap:butt;stroke-linejoin:miter;stroke:rgb(54.901963%,9.411765%,0%);stroke-opacity:1;stroke-miterlimit:4;" d="M 195.498451 197.601641 C 195.498451 197.601641 190.099063 200.799004 190.901419 201.598345 C 191.599942 202.301213 196.399923 198.59852 196.499037 198.502047 C 196.598152 198.400981 198.500209 195.998365 195.498451 197.601641 Z M 195.498451 197.601641 " transform="matrix(-0.82764,0,0,0.85031,262.399994,10.2)"/>
<path style=" stroke:none;fill-rule:evenodd;fill:rgb(54.901963%,9.411765%,0%);fill-opacity:1;" d="M 116.199219 190.300781 C 116.199219 190.300781 117.5 189.800781 114.101562 188.449219 C 110.699219 187.101562 110.851562 185.449219 109.75 184.851562 C 108.648438 184.25 106.25 182.5 105.75 183.5 C 105.25 184.5 108.25 186.5 109 186.699219 C 109.699219 186.949219 113.101562 190.199219 114.101562 190.449219 C 115.101562 190.714844 115.800781 190.667969 116.199219 190.300781 "/>
<path style="fill:none;stroke-width:1.8;stroke-linecap:round;stroke-linejoin:miter;stroke:rgb(54.901963%,9.411765%,0%);stroke-opacity:1;stroke-miterlimit:4;" d="M 203.49842 189.700111 L 200.001088 193.600343 " transform="matrix(-0.82764,0,0,0.85031,262.399994,10.2)"/>
<path style="fill:none;stroke-width:1.7;stroke-linecap:round;stroke-linejoin:miter;stroke:rgb(54.901963%,9.411765%,0%);stroke-opacity:1;stroke-miterlimit:4;" d="M 208.897808 183.199724 L 205.499592 187.302088 " transform="matrix(-0.82764,0,0,0.85031,262.399994,10.2)"/>
<path style="fill:none;stroke-width:1.5;stroke-linecap:round;stroke-linejoin:miter;stroke:rgb(54.901963%,9.411765%,0%);stroke-opacity:1;stroke-miterlimit:4;" d="M 214.198082 174.700986 L 210.398687 180.801702 " transform="matrix(-0.82764,0,0,0.85031,262.399994,10.2)"/>
<path style="fill:none;stroke-width:1.4;stroke-linecap:round;stroke-linejoin:miter;stroke:rgb(54.901963%,9.411765%,0%);stroke-opacity:1;stroke-miterlimit:4;" d="M 218.700719 166.101181 L 215.500732 172.399436 M 220.701891 161.498081 L 219.701305 163.698565 " transform="matrix(-0.82764,0,0,0.85031,262.399994,10.2)"/>
<path style="fill:none;stroke-width:0.8;stroke-linecap:round;stroke-linejoin:miter;stroke:rgb(54.901963%,9.411765%,0%);stroke-opacity:1;stroke-miterlimit:4;" d="M 223.000407 155.498431 L 222.098936 158.199652 " transform="matrix(-0.82764,0,0,0.85031,262.399994,10.2)"/>
<path style="fill-rule:evenodd;fill:rgb(12.941177%,47.450981%,0%);fill-opacity:1;stroke-width:2.3;stroke-linecap:butt;stroke-linejoin:round;stroke:rgb(0%,0%,0%);stroke-opacity:1;stroke-miterlimit:4;" d="M 490.398438 239.296875 C 490.898438 246 497.398438 252.296875 494.796875 264 C 491.601562 277.296875 480 308.703125 482 314.203125 C 478.601562 309.5 479.203125 305.203125 479 298.601562 C 478.601562 292.101562 488.398438 267.703125 489.296875 259.5 C 489.296875 252.101562 490 242 490.398438 239.296875 Z M 490.398438 239.296875 " transform="matrix(0.5,0,0,0.5,0,0)"/>
<path style="fill-rule:evenodd;fill:rgb(12.941177%,47.450981%,0%);fill-opacity:1;stroke-width:2.3;stroke-linecap:butt;stroke-linejoin:round;stroke:rgb(0%,0%,0%);stroke-opacity:1;stroke-miterlimit:4;" d="M 490.398438 239.398438 C 490.398438 239.398438 501.101562 252.898438 500.5 263.601562 C 499.898438 274.296875 494 286.796875 496 292.296875 C 492.859375 288.25 491.234375 283.226562 491.398438 278.101562 C 491.101562 271.601562 496.703125 264.296875 495.5 257.203125 C 494.398438 250.203125 490.296875 239.398438 490.5 239.398438 Z M 141.101562 242.398438 C 140.703125 249.101562 135.703125 255.101562 138.296875 266.703125 C 141.5 280 153.296875 296.703125 151.296875 315.898438 C 154.796875 311.203125 155.796875 305.898438 156.101562 299.398438 C 156.398438 292.898438 143.101562 270.898438 142.296875 262.601562 C 142.296875 255.203125 141.5 245.101562 141.101562 242.398438 Z M 141.101562 242.398438 " transform="matrix(0.5,0,0,0.5,0,0)"/>
<path style="fill-rule:evenodd;fill:rgb(12.941177%,47.450981%,0%);fill-opacity:1;stroke-width:2.3;stroke-linecap:butt;stroke-linejoin:round;stroke:rgb(0%,0%,0%);stroke-opacity:1;stroke-miterlimit:4;" d="M 141.101562 242.601562 C 141.101562 242.601562 130.703125 255.601562 131.296875 266.296875 C 131.398438 273.398438 144.5 303.101562 142.5 308.703125 C 146 304 146.898438 304.601562 146.796875 297.5 C 143 279.203125 136.101562 267.601562 137.296875 260.5 C 138.5 253.398438 141.296875 242.5 141.101562 242.5 Z M 141.101562 242.601562 " transform="matrix(0.5,0,0,0.5,0,0)"/>
<path style="fill-rule:nonzero;fill:rgb(100%,100%,100%);fill-opacity:1;stroke-width:1.7;stroke-linecap:square;stroke-linejoin:round;stroke:rgb(0%,0%,0%);stroke-opacity:1;stroke-miterlimit:4;" d="M 99.999683 125.800202 L 121.999077 194.000526 L 193.998313 194.000526 L 135.999301 236.202536 L 158.099271 304.40286 L 100.10026 262.301411 L 42.101248 304.40286 L 64.100642 236.202536 L 6.001054 194.000526 L 77.799137 194.000526 Z M 99.999683 125.800202 " transform="matrix(0.58258,0,0,0.58267,101,-11.8)"/>
</g>
</svg>
