<?xml version="1.0" encoding="UTF-8"?>
<svg xmlns="http://www.w3.org/2000/svg" xmlns:xlink="http://www.w3.org/1999/xlink" width="px" height="px" viewBox="0 0 320 240" version="1.1">
<g id="surface1">
<rect x="0" y="0" width="320" height="240" style="fill:rgb(100%,100%,100%);fill-opacity:1;stroke:none;"/>
<path style=" stroke:none;fill-rule:nonzero;fill:rgb(81.176472%,7.843138%,16.862746%);fill-opacity:1;" d="M 160 0 L 320 0 L 320 240 L 160 240 Z M 160 0 "/>
<path style="fill:none;stroke-width:512;stroke-linecap:butt;stroke-linejoin:miter;stroke:rgb(81.176472%,7.843138%,16.862746%);stroke-opacity:1;stroke-miterlimit:4;" d="M -2047.938108 -7168.261385 L 2048.043986 -7168.261385 L 2048.043986 -3277.423846 C 2363.201295 -3299.745274 2689.519318 -3171.13133 2930.271866 -2930.378782 C 3171.555877 -2689.094771 3299.638359 -2363.30821 3277.31693 -2048.150901 L 7168.154469 -2048.150901 L 7168.154469 2047.831193 L 3277.31693 2047.831193 C 3299.638359 2362.988502 3171.555877 2689.306526 2930.271866 2930.059074 C 2689.519318 3171.343085 2363.201295 3299.425566 2048.043986 3277.104138 L 2048.043986 7167.941677 L -2047.938108 7167.941677 L -2047.938108 3277.104138 C -2363.095418 3299.425566 -2689.413441 3171.343085 -2930.165989 2930.059074 C -3171.45 2689.306526 -3299.532481 2362.988502 -3277.211053 2047.831193 L -7168.048592 2047.831193 L -7168.048592 -2048.150901 L -3277.211053 -2048.150901 C -3299.532481 -2363.30821 -3171.45 -2689.094771 -2930.165989 -2930.378782 C -2689.413441 -3171.13133 -2363.095418 -3299.745274 -2047.938108 -3277.423846 Z M -2047.938108 -7168.261385 " transform="matrix(0.00735,0,0,0.00735,80.900002,80.300003)"/>
<path style=" stroke:none;fill-rule:nonzero;fill:rgb(100%,100%,100%);fill-opacity:1;" d="M 95.777344 56.226562 C 98.144531 56 100.617188 56.941406 102.4375 58.761719 C 104.257812 60.582031 105.199219 63.058594 104.972656 65.421875 L 104.972656 95.175781 C 105.199219 97.542969 104.257812 100.019531 102.4375 101.835938 C 100.617188 103.65625 98.144531 104.597656 95.777344 104.371094 L 66.023438 104.371094 C 63.65625 104.597656 61.179688 103.65625 59.363281 101.835938 C 57.542969 100.019531 56.601562 97.542969 56.828125 95.175781 L 56.828125 65.421875 C 56.601562 63.058594 57.542969 60.582031 59.363281 58.761719 C 61.179688 56.941406 63.65625 56 66.023438 56.226562 Z M 95.777344 56.226562 "/>
<path style="fill-rule:nonzero;fill:rgb(100%,100%,100%);fill-opacity:1;stroke-width:48;stroke-linecap:butt;stroke-linejoin:miter;stroke:rgb(0%,0%,0%);stroke-opacity:1;stroke-miterlimit:4;" d="M -2024.022292 -7143.814106 L 2024.12817 -7143.814106 L 2024.12817 7144.025861 L -2024.022292 7144.025861 Z M -7144.132776 -2024.235085 L 7144.238653 -2024.235085 L 7144.238653 2023.915377 L -7144.132776 2023.915377 Z M -7144.132776 -2024.235085 " transform="matrix(0.00735,0,0,0.00735,80.900002,80.300003)"/>
<path style="fill-rule:nonzero;fill:rgb(100%,100%,100%);fill-opacity:1;stroke-width:96;stroke-linecap:butt;stroke-linejoin:miter;stroke:rgb(0%,0%,0%);stroke-opacity:1;stroke-miterlimit:4;" d="M -1791.773146 -6912.096422 L 1791.879023 -6912.096422 L 1791.879023 6911.776714 L -1791.773146 6911.776714 Z M -6911.883629 -1791.985938 L 6911.989506 -1791.985938 L 6911.989506 1792.197693 L -6911.883629 1792.197693 Z M -6911.883629 -1791.985938 " transform="matrix(0.00735,0,0,0.00735,80.900002,80.300003)"/>
<path style="fill-rule:nonzero;fill:rgb(100%,100%,100%);fill-opacity:1;stroke-width:96;stroke-linecap:butt;stroke-linejoin:miter;stroke:rgb(0%,0%,0%);stroke-opacity:1;stroke-miterlimit:4;" d="M 3200.254856 0.105877 C 3200.254856 -1767.53866 1767.431744 -3199.830309 -0.212793 -3199.830309 C -1767.325867 -3199.830309 -3200.148979 -1767.53866 -3200.148979 0.105877 C -3200.148979 1767.218952 -1767.325867 3200.042064 -0.212793 3200.042064 C 1767.431744 3200.042064 3200.254856 1767.218952 3200.254856 0.105877 Z M 3200.254856 0.105877 " transform="matrix(0.00735,0,0,0.00735,80.900002,80.300003)"/>
<path style="fill-rule:nonzero;fill:rgb(100%,100%,100%);fill-opacity:1;stroke-width:96;stroke-linecap:butt;stroke-linejoin:miter;stroke:rgb(0%,0%,0%);stroke-opacity:1;stroke-miterlimit:4;" d="M 2367.984458 0.105877 C 2367.984458 -1307.823529 1307.716614 -2368.091374 -0.212793 -2368.091374 C -1307.610736 -2368.091374 -2367.878581 -1307.823529 -2367.878581 0.105877 C -2367.878581 1308.035284 -1307.610736 2367.771666 -0.212793 2367.771666 C 1307.716614 2367.771666 2367.984458 1308.035284 2367.984458 0.105877 Z M 2367.984458 0.105877 " transform="matrix(0.00735,0,0,0.00735,80.900002,80.300003)"/>
<path style="fill-rule:nonzero;fill:rgb(100%,100%,100%);fill-opacity:1;stroke-width:48;stroke-linecap:butt;stroke-linejoin:round;stroke:rgb(0%,0%,0%);stroke-opacity:1;stroke-miterlimit:4;" d="M 3083.864552 -2565.26399 C 2972.788873 -2480.229978 2761.798229 -2262.861783 2634.24721 -2103.954472 L 2515.199592 -2177.82777 C 2677.827142 -2319.196816 2904.2302 -2528.06161 3029.123906 -2676.871132 Z M 2982.886662 -2750.212968 C 2781.993807 -2691.220621 2397.746363 -2578.019092 2234.055888 -2473.852427 L 2197.916433 -2525.935759 C 2267.006568 -2624.787799 2345.131567 -3031.888134 2341.942792 -3147.746977 L 2466.836498 -3120.110922 C 2425.913879 -3020.195958 2386.054186 -2806.016538 2374.893472 -2666.773343 C 2504.038878 -2690.157696 2810.161324 -2790.072661 2896.789724 -2852.785245 Z M 2982.886662 -2750.212968 " transform="matrix(0.00735,0,0,0.00735,80.900002,80.300003)"/>
<path style="fill-rule:nonzero;fill:rgb(100%,100%,100%);fill-opacity:1;stroke-width:48;stroke-linecap:butt;stroke-linejoin:round;stroke:rgb(0%,0%,0%);stroke-opacity:1;stroke-miterlimit:4;" d="M 3240.646012 -2292.092225 L 3082.270164 -2292.092225 C 3111.500606 -2464.2861 2983.418124 -2713.010587 2773.490406 -2892.644939 C 2563.562687 -3072.27929 2326.530377 -3135.523337 2200.573746 -3045.706161 C 2075.148577 -2955.888986 2093.749768 -2736.394941 2246.279528 -2515.306508 C 2398.277825 -2294.749538 2644.344999 -2129.996138 2839.923228 -2118.835424 L 2952.061832 -2252.232531 L 3090.242103 -2114.052261 L 2935.586492 -1959.928113 C 2643.813537 -2002.976582 2369.578846 -2169.324369 2182.504018 -2415.391543 C 1995.960653 -2661.458717 1915.178341 -2963.329462 1961.415585 -3242.878778 C 2237.244664 -3288.58456 2534.863708 -3210.991023 2778.805032 -3029.230821 C 3023.277818 -2847.47062 3191.751455 -2579.082017 3240.646012 -2292.092225 Z M 3240.646012 -2292.092225 " transform="matrix(0.00735,0,0,0.00735,80.900002,80.300003)"/>
<path style="fill-rule:nonzero;fill:rgb(100%,100%,100%);fill-opacity:1;stroke-width:48;stroke-linecap:butt;stroke-linejoin:round;stroke:rgb(0%,0%,0%);stroke-opacity:1;stroke-miterlimit:4;" d="M 3084.183222 -2565.157075 C 2973.107543 -2480.123062 2762.116899 -2262.754868 2634.034418 -2103.847557 L 2514.9868 -2178.252318 C 2678.145812 -2319.089901 2904.017407 -2527.954694 3028.911113 -2676.764216 Z M 2983.205332 -2750.106052 C 2781.781014 -2691.113706 2398.065033 -2577.912177 2233.843096 -2473.745511 L 2198.235103 -2525.828844 C 2266.793776 -2625.212346 2344.918775 -3031.781219 2342.261462 -3148.171524 L 2467.155168 -3120.004007 C 2426.232549 -3020.089042 2385.841393 -2805.909623 2375.212142 -2667.19789 C 2503.826086 -2690.050781 2809.948531 -2789.965746 2897.108394 -2853.209793 Z M 2983.205332 -2750.106052 " transform="matrix(0,0.00735,-0.00735,0,80.900002,80.300003)"/>
<path style="fill-rule:nonzero;fill:rgb(100%,100%,100%);fill-opacity:1;stroke-width:48;stroke-linecap:butt;stroke-linejoin:round;stroke:rgb(0%,0%,0%);stroke-opacity:1;stroke-miterlimit:4;" d="M 3240.964682 -2291.985309 L 3082.057371 -2291.985309 C 3111.287813 -2464.179185 2983.736794 -2712.903672 2773.809076 -2892.538023 C 2563.881357 -3072.172375 2326.317584 -3135.947884 2200.892416 -3046.130709 C 2074.935785 -2955.78207 2094.068438 -2736.288025 2246.066735 -2515.199592 C 2398.596495 -2294.642622 2644.132206 -2130.420685 2839.710435 -2118.728509 L 2951.84904 -2252.125616 L 3090.02931 -2113.945346 L 2935.3737 -1959.821198 C 2644.132206 -2003.401129 2369.366053 -2169.217454 2182.291226 -2415.284628 C 1995.74786 -2661.351802 1914.965548 -2963.222546 1961.734255 -3242.771863 C 2237.031871 -3288.477645 2534.650915 -3210.884108 2779.123701 -3029.123906 C 3023.596488 -2847.363704 3191.538663 -2578.975102 3240.964682 -2291.985309 Z M 3240.964682 -2291.985309 " transform="matrix(0,0.00735,-0.00735,0,80.900002,80.300003)"/>
<path style="fill-rule:nonzero;fill:rgb(100%,100%,100%);fill-opacity:1;stroke-width:48;stroke-linecap:butt;stroke-linejoin:round;stroke:rgb(0%,0%,0%);stroke-opacity:1;stroke-miterlimit:4;" d="M 3083.758674 -2564.944282 C 2973.214458 -2479.91027 2762.223814 -2263.073538 2634.141333 -2104.166227 L 2515.093715 -2178.039525 C 2678.252727 -2318.877108 2904.124323 -2527.741902 3029.018029 -2677.082886 Z M 2982.780784 -2749.89326 C 2781.88793 -2690.900913 2398.171948 -2578.230847 2233.950011 -2474.064181 L 2197.810556 -2526.147514 C 2266.900691 -2624.999554 2345.02569 -3032.099889 2341.836915 -3147.958731 L 2467.262083 -3119.791214 C 2425.808002 -3019.87625 2385.948309 -2806.228293 2374.787594 -2666.985097 C 2503.933001 -2689.837988 2810.055446 -2789.752953 2897.215309 -2852.997 Z M 2982.780784 -2749.89326 " transform="matrix(-0.00735,0,0,-0.00735,80.900002,80.300003)"/>
<path style="fill-rule:nonzero;fill:rgb(100%,100%,100%);fill-opacity:1;stroke-width:48;stroke-linecap:butt;stroke-linejoin:round;stroke:rgb(0%,0%,0%);stroke-opacity:1;stroke-miterlimit:4;" d="M 3240.540135 -2291.772517 L 3082.164287 -2291.772517 C 3111.394729 -2464.497855 2983.84371 -2713.222342 2773.384528 -2892.856693 C 2563.45681 -3072.491045 2326.4245 -3135.735092 2200.999331 -3045.917916 C 2075.0427 -2956.10074 2094.175353 -2736.606695 2246.17365 -2515.518262 C 2398.70341 -2294.42983 2644.239122 -2130.207893 2839.817351 -2118.515716 L 2951.955955 -2252.444286 L 3090.136225 -2114.264016 L 2935.480615 -1959.608405 C 2644.239122 -2003.188337 2369.472969 -2169.536124 2182.398141 -2415.603298 C 1995.854776 -2661.670472 1915.072464 -2963.541216 1961.309708 -3242.55907 C 2237.138787 -3288.796314 2534.757831 -3210.671315 2779.230617 -3028.911113 C 3023.703403 -2847.682374 3191.645578 -2579.293772 3240.540135 -2291.772517 Z M 3240.540135 -2291.772517 " transform="matrix(-0.00735,0,0,-0.00735,80.900002,80.300003)"/>
<path style="fill-rule:nonzero;fill:rgb(100%,100%,100%);fill-opacity:1;stroke-width:48;stroke-linecap:butt;stroke-linejoin:round;stroke:rgb(0%,0%,0%);stroke-opacity:1;stroke-miterlimit:4;" d="M 3083.971467 -2565.051198 C 2972.895788 -2480.017185 2761.905144 -2263.180453 2633.822663 -2103.741679 L 2514.775045 -2178.14644 C 2677.934057 -2318.984024 2903.805653 -2527.848817 3029.230821 -2677.189802 Z M 2982.993577 -2750.000175 C 2782.100722 -2691.007829 2397.853278 -2577.806299 2234.162804 -2474.171097 L 2198.023348 -2526.254429 C 2267.113484 -2625.106469 2345.238483 -3032.206804 2342.049707 -3148.065646 L 2466.943413 -3119.89813 C 2426.020795 -3019.983165 2386.161101 -2805.803746 2375.000387 -2667.092013 C 2504.145794 -2689.944904 2809.736776 -2789.859868 2896.896639 -2853.103915 Z M 2982.993577 -2750.000175 " transform="matrix(0,-0.00735,0.00735,0,80.900002,80.300003)"/>
<path style="fill-rule:nonzero;fill:rgb(100%,100%,100%);fill-opacity:1;stroke-width:48;stroke-linecap:butt;stroke-linejoin:round;stroke:rgb(0%,0%,0%);stroke-opacity:1;stroke-miterlimit:4;" d="M 3240.752928 -2291.879432 L 3082.377079 -2291.879432 C 3111.607521 -2464.073308 2983.52504 -2712.797794 2773.597321 -2892.432146 C 2563.669602 -3072.59796 2326.637292 -3135.842007 2200.680661 -3046.024831 C 2075.255493 -2956.207656 2093.856683 -2736.182148 2246.386443 -2515.625178 C 2398.384741 -2294.536745 2644.451914 -2130.314808 2840.030143 -2118.622631 L 2952.168748 -2252.551201 L 3090.349018 -2114.370931 L 2935.693408 -1959.71532 C 2643.920452 -2003.295252 2369.154299 -2169.111576 2182.610934 -2415.17875 C 1995.536106 -2661.245924 1915.285256 -2963.116669 1961.522501 -3242.665985 C 2237.351579 -3288.371767 2534.439161 -3210.778231 2778.911947 -3029.018029 C 3023.384733 -2847.257827 3191.326908 -2579.400687 3240.752928 -2291.879432 Z M 3240.752928 -2291.879432 " transform="matrix(0,-0.00735,0.00735,0,80.900002,80.300003)"/>
<path style=" stroke:none;fill-rule:nonzero;fill:rgb(0%,0%,0%);fill-opacity:1;" d="M 62.222656 93.457031 C 61.695312 92.53125 60.996094 91.347656 60.613281 91.039062 C 60.847656 90.875 61.164062 90.640625 61.328125 90.597656 C 61.320312 91.183594 62.207031 92.40625 62.207031 92.40625 L 63.515625 91.546875 C 63.148438 90.980469 62.828125 90.546875 62.5625 90.375 C 62.886719 90.140625 63.230469 89.941406 63.324219 89.921875 C 63.332031 90.207031 63.503906 90.6875 64.003906 91.273438 C 64.003906 91.273438 65.222656 90.625 65.621094 90.128906 L 66.132812 90.964844 C 65.5625 91.074219 62.988281 92.675781 62.222656 93.457031 M 60.40625 82.304688 C 59.035156 82.554688 58.335938 83.726562 58.570312 85.039062 C 58.804688 86.371094 59.996094 87.28125 61.304688 87.0625 C 62.613281 86.835938 63.355469 85.628906 63.105469 84.230469 C 62.855469 82.835938 61.78125 82.058594 60.40625 82.304688 M 60.605469 83.101562 C 61.710938 82.902344 62.636719 83.4375 62.789062 84.292969 C 62.945312 85.144531 62.261719 85.988281 61.152344 86.1875 C 60.039062 86.386719 59.160156 85.679688 59.035156 84.96875 C 58.902344 84.238281 59.496094 83.296875 60.605469 83.101562 M 63.296875 75.015625 C 62.839844 75.734375 61.835938 76.398438 60.945312 77.007812 C 60.820312 76.375 60.347656 75.972656 59.804688 75.933594 C 59.226562 75.90625 58.628906 76.367188 58.527344 76.675781 C 58.378906 77.101562 58.195312 78.933594 58.195312 78.933594 C 59.34375 78.84375 61.847656 79.042969 62.707031 79.359375 L 62.8125 78.390625 C 62.246094 78.535156 60.96875 78.269531 60.96875 78.269531 L 60.996094 77.84375 L 62.320312 76.800781 C 62.488281 76.667969 63.480469 75.742188 63.511719 75.082031 C 63.515625 74.875 63.339844 74.925781 63.296875 75.015625 M 60.644531 78.257812 C 60.121094 78.269531 59.035156 78.210938 58.730469 78.082031 C 58.851562 77.027344 59.171875 76.65625 59.730469 76.707031 C 60.246094 76.757812 60.789062 77.050781 60.644531 78.257812 M 65.65625 65.234375 C 64.65625 65.3125 63.40625 66.253906 63.4375 67.0625 C 63.445312 67.488281 63.589844 68.078125 64.15625 68.503906 C 64.714844 68.929688 65.296875 69.054688 65.757812 68.964844 C 66.207031 68.886719 66.949219 68.261719 66.941406 67.914062 C 66.941406 67.578125 66.148438 66.636719 65.648438 66.636719 L 66.480469 65.746094 C 66.691406 66.261719 67.546875 67.011719 67.859375 67.105469 C 67.5 67.964844 67.050781 68.863281 66.113281 69.296875 C 65.171875 69.738281 64.195312 69.714844 63.304688 68.878906 C 62.464844 68.085938 62.789062 66.554688 63.320312 65.960938 C 63.898438 65.304688 64.980469 65.027344 65 64.519531 Z M 70.34375 60.285156 L 70.523438 63.621094 C 70.523438 63.621094 70.589844 64.804688 70.316406 65.542969 L 71.351562 64.8125 C 70.949219 64.488281 71.027344 63.496094 71.027344 63.496094 L 72.703125 62.601562 C 72.703125 62.601562 73.5 63.109375 73.417969 63.726562 L 74.84375 63.144531 C 74.011719 62.828125 72.984375 62.101562 72.984375 62.101562 Z M 70.882812 61.324219 L 72.410156 62.335938 L 70.917969 63.136719 Z M 78.363281 57.839844 C 78.171875 58.652344 78.378906 60.265625 78.679688 61.601562 C 79.714844 61.507812 80.511719 61.402344 80.863281 60.960938 L 80.957031 62.066406 C 79.9375 62.066406 78.8125 62.183594 77.785156 62.34375 C 77.796875 60.835938 77.644531 58.859375 77.21875 58.007812 Z M 86.148438 58.332031 C 85.671875 59.023438 85.273438 60.59375 85.066406 61.945312 C 86.066406 62.242188 86.847656 62.433594 87.339844 62.144531 L 87.023438 63.210938 C 86.074219 62.84375 84.980469 62.535156 83.964844 62.308594 C 84.523438 60.917969 85.105469 59.015625 85.023438 58.074219 Z M 94.019531 61.894531 L 91.109375 63.550781 C 91.109375 63.550781 90.082031 64.144531 89.300781 64.234375 L 90.410156 64.820312 C 90.519531 64.320312 91.445312 63.945312 91.445312 63.945312 L 93.003906 65.042969 C 93.003906 65.042969 92.902344 65.988281 92.316406 66.1875 L 93.46875 67.203125 C 93.386719 66.320312 93.570312 65.0625 93.570312 65.0625 Z M 93.328125 62.835938 L 93.101562 64.667969 L 91.710938 63.6875 Z M 95.5625 69.6875 L 95.109375 68.828125 C 95.855469 68.769531 98.113281 67.445312 99.148438 66.769531 L 99.3125 67.0625 L 98.339844 71.496094 C 99.207031 71.148438 100.582031 70.429688 100.957031 70.03125 L 101.472656 71.007812 C 100.511719 70.871094 98.722656 71.75 97.371094 72.574219 L 97.238281 72.339844 L 98.070312 68.027344 C 98.070312 68.027344 95.828125 69.039062 95.5625 69.6875 M 102.398438 76.097656 C 102.3125 75.441406 102.296875 74.992188 101.980469 74.847656 L 101.941406 74.574219 L 102.746094 74.441406 C 103.074219 75.300781 103.449219 77.699219 103.398438 78.316406 L 102.574219 78.449219 L 102.539062 78.21875 C 102.808594 77.910156 102.539062 76.78125 102.539062 76.78125 C 101.316406 76.90625 99.195312 77.25 98.894531 77.667969 L 98.703125 76.535156 C 99.136719 76.683594 101.273438 76.457031 102.398438 76.097656 M 98.453125 85.828125 C 98.90625 85.105469 99.929688 84.453125 100.820312 83.851562 C 100.945312 84.480469 101.40625 84.894531 101.957031 84.921875 C 102.539062 84.960938 103.132812 84.511719 103.238281 84.195312 C 103.390625 83.769531 103.582031 81.945312 103.582031 81.945312 C 102.433594 82.019531 99.9375 81.808594 99.078125 81.484375 L 98.964844 82.453125 C 99.53125 82.3125 100.8125 82.578125 100.8125 82.578125 L 100.78125 83.003906 L 99.453125 84.042969 C 99.273438 84.171875 98.277344 85.09375 98.238281 85.753906 C 98.230469 85.960938 98.40625 85.902344 98.453125 85.828125 M 101.132812 82.601562 C 101.65625 82.59375 102.746094 82.660156 103.046875 82.792969 C 102.921875 83.84375 102.589844 84.21875 102.03125 84.160156 C 101.515625 84.101562 100.980469 83.804688 101.132812 82.601562 M 96.972656 88.746094 L 96.289062 89.921875 C 96.820312 89.839844 97.554688 90.257812 98.152344 90.648438 C 98.347656 91.179688 99.128906 92.53125 99.070312 93.851562 L 99.953125 92.339844 C 99.5625 92.164062 99.105469 91.972656 98.8125 90.554688 C 99.972656 90.121094 100.839844 89.980469 101.207031 90.1875 L 101.988281 88.863281 C 101.082031 89.40625 98.957031 89.964844 98.605469 89.847656 C 98.238281 89.632812 97.195312 89.3125 96.972656 88.746094 "/>
<path style=" stroke:none;fill-rule:nonzero;fill:rgb(0%,0%,0%);fill-opacity:1;" d="M 92.660156 97.652344 C 92.660156 97.144531 92.25 96.734375 91.742188 96.734375 C 91.234375 96.734375 90.824219 97.144531 90.824219 97.652344 C 90.824219 98.160156 91.234375 98.570312 91.742188 98.570312 C 92.25 98.570312 92.660156 98.160156 92.660156 97.652344 Z M 92.660156 97.652344 "/>
<path style=" stroke:none;fill-rule:nonzero;fill:rgb(0%,0%,0%);fill-opacity:1;" d="M 70.976562 97.652344 C 70.976562 97.144531 70.566406 96.734375 70.058594 96.734375 C 69.550781 96.734375 69.140625 97.144531 69.140625 97.652344 C 69.140625 98.160156 69.550781 98.570312 70.058594 98.570312 C 70.566406 98.570312 70.976562 98.160156 70.976562 97.652344 Z M 70.976562 97.652344 "/>
<path style=" stroke:none;fill-rule:nonzero;fill:rgb(0%,0%,0%);fill-opacity:1;" d="M 82.332031 102.71875 C 82.238281 102.785156 81.980469 102.652344 81.921875 102.449219 C 81.921875 102.515625 81.90625 102.71875 81.78125 102.835938 C 81.480469 103.125 81.15625 102.984375 80.898438 102.984375 C 80.644531 102.984375 80.320312 103.125 80.019531 102.835938 C 79.894531 102.71875 79.878906 102.515625 79.878906 102.449219 C 79.820312 102.652344 79.5625 102.785156 79.464844 102.71875 C 79.378906 102.652344 79.421875 102.367188 79.597656 102.25 C 79.539062 102.265625 79.335938 102.316406 79.1875 102.234375 C 78.820312 102.035156 78.855469 101.683594 78.777344 101.441406 C 78.695312 101.199219 78.460938 100.933594 78.644531 100.558594 C 78.71875 100.40625 78.90625 100.324219 78.96875 100.300781 C 78.753906 100.308594 78.554688 100.101562 78.585938 100 C 78.621094 99.890625 78.90625 99.847656 79.078125 99.976562 C 79.03125 99.925781 78.929688 99.75 78.960938 99.582031 C 79.03125 99.167969 79.378906 99.097656 79.585938 98.941406 C 79.796875 98.789062 79.972656 98.484375 80.386719 98.546875 C 80.554688 98.566406 80.6875 98.722656 80.730469 98.773438 C 80.65625 98.574219 80.789062 98.316406 80.898438 98.316406 C 81.011719 98.316406 81.140625 98.574219 81.070312 98.773438 C 81.113281 98.722656 81.246094 98.566406 81.414062 98.546875 C 81.824219 98.484375 82.003906 98.789062 82.214844 98.941406 C 82.421875 99.097656 82.765625 99.167969 82.839844 99.582031 C 82.871094 99.75 82.765625 99.925781 82.722656 99.976562 C 82.890625 99.847656 83.179688 99.890625 83.214844 100 C 83.246094 100.101562 83.046875 100.308594 82.832031 100.300781 C 82.890625 100.324219 83.082031 100.40625 83.15625 100.558594 C 83.339844 100.933594 83.105469 101.199219 83.023438 101.441406 C 82.941406 101.683594 82.980469 102.035156 82.613281 102.234375 C 82.464844 102.316406 82.257812 102.265625 82.199219 102.25 C 82.378906 102.367188 82.421875 102.652344 82.332031 102.71875 M 80.214844 101.691406 C 80.335938 101.777344 80.019531 102.042969 80.144531 102.375 C 80.28125 102.765625 80.671875 102.644531 80.898438 102.644531 C 81.128906 102.644531 81.515625 102.765625 81.65625 102.375 C 81.78125 102.042969 81.464844 101.777344 81.582031 101.691406 C 81.699219 101.601562 81.863281 101.984375 82.207031 101.976562 C 82.628906 101.957031 82.632812 101.558594 82.699219 101.339844 C 82.773438 101.117188 83.007812 100.785156 82.679688 100.53125 C 82.40625 100.308594 82.046875 100.53125 82.003906 100.390625 C 81.957031 100.25 82.371094 100.222656 82.472656 99.882812 C 82.582031 99.476562 82.199219 99.351562 82.015625 99.214844 C 81.824219 99.082031 81.582031 98.757812 81.238281 98.984375 C 80.953125 99.183594 81.046875 99.589844 80.898438 99.589844 C 80.753906 99.589844 80.847656 99.183594 80.5625 98.984375 C 80.214844 98.757812 79.972656 99.082031 79.78125 99.214844 C 79.597656 99.351562 79.21875 99.476562 79.328125 99.882812 C 79.429688 100.222656 79.839844 100.25 79.796875 100.390625 C 79.753906 100.53125 79.394531 100.308594 79.121094 100.53125 C 78.789062 100.785156 79.027344 101.117188 79.097656 101.339844 C 79.164062 101.558594 79.171875 101.957031 79.589844 101.976562 C 79.9375 101.984375 80.097656 101.601562 80.214844 101.691406 "/>
<path style=" stroke:none;fill-rule:nonzero;fill:rgb(0%,0%,0%);fill-opacity:1;" d="M 80.898438 102.210938 C 80.832031 102.210938 80.753906 102.058594 80.796875 101.933594 C 80.773438 101.96875 80.695312 102.058594 80.589844 102.074219 C 80.339844 102.109375 80.238281 101.925781 80.113281 101.835938 C 79.988281 101.742188 79.78125 101.699219 79.738281 101.457031 C 79.714844 101.351562 79.78125 101.242188 79.804688 101.214844 C 79.703125 101.292969 79.53125 101.265625 79.511719 101.199219 C 79.488281 101.140625 79.613281 101.015625 79.738281 101.015625 C 79.703125 101.007812 79.589844 100.957031 79.546875 100.867188 C 79.4375 100.640625 79.578125 100.484375 79.628906 100.339844 C 79.671875 100.191406 79.652344 99.976562 79.871094 99.859375 C 79.960938 99.808594 80.085938 99.839844 80.121094 99.851562 C 80.011719 99.78125 79.988281 99.609375 80.039062 99.566406 C 80.097656 99.53125 80.253906 99.609375 80.289062 99.726562 C 80.289062 99.691406 80.296875 99.566406 80.371094 99.5 C 80.554688 99.324219 80.746094 99.414062 80.898438 99.414062 C 81.054688 99.414062 81.246094 99.324219 81.429688 99.5 C 81.503906 99.566406 81.511719 99.691406 81.511719 99.726562 C 81.546875 99.609375 81.699219 99.53125 81.761719 99.566406 C 81.8125 99.609375 81.789062 99.78125 81.679688 99.851562 C 81.714844 99.839844 81.839844 99.808594 81.929688 99.859375 C 82.148438 99.976562 82.128906 100.191406 82.171875 100.339844 C 82.222656 100.484375 82.363281 100.640625 82.253906 100.867188 C 82.207031 100.957031 82.097656 101.007812 82.0625 101.015625 C 82.1875 101.015625 82.3125 101.140625 82.289062 101.199219 C 82.265625 101.265625 82.097656 101.292969 81.996094 101.214844 C 82.015625 101.242188 82.082031 101.351562 82.0625 101.457031 C 82.015625 101.699219 81.8125 101.742188 81.6875 101.835938 C 81.5625 101.925781 81.457031 102.109375 81.207031 102.074219 C 81.105469 102.058594 81.023438 101.96875 81.003906 101.933594 C 81.046875 102.058594 80.964844 102.210938 80.898438 102.210938 M 80.898438 101.375 C 80.980469 101.375 80.929688 101.59375 81.082031 101.699219 C 81.265625 101.824219 81.398438 101.652344 81.503906 101.582031 C 81.605469 101.507812 81.8125 101.433594 81.746094 101.21875 C 81.695312 101.035156 81.472656 101.023438 81.496094 100.941406 C 81.515625 100.867188 81.707031 100.984375 81.863281 100.867188 C 82.039062 100.726562 81.914062 100.550781 81.878906 100.433594 C 81.832031 100.316406 81.832031 100.097656 81.605469 100.089844 C 81.414062 100.082031 81.332031 100.285156 81.265625 100.242188 C 81.203125 100.199219 81.378906 100.050781 81.3125 99.875 C 81.230469 99.664062 81.023438 99.726562 80.898438 99.726562 C 80.773438 99.726562 80.570312 99.664062 80.488281 99.875 C 80.421875 100.050781 80.597656 100.199219 80.53125 100.242188 C 80.464844 100.285156 80.386719 100.082031 80.195312 100.089844 C 79.964844 100.097656 79.964844 100.316406 79.921875 100.433594 C 79.886719 100.550781 79.761719 100.726562 79.9375 100.867188 C 80.089844 100.984375 80.28125 100.867188 80.304688 100.941406 C 80.328125 101.023438 80.105469 101.035156 80.054688 101.21875 C 79.988281 101.433594 80.195312 101.507812 80.296875 101.582031 C 80.398438 101.652344 80.53125 101.824219 80.714844 101.699219 C 80.871094 101.59375 80.820312 101.375 80.898438 101.375 "/>
<path style=" stroke:none;fill-rule:nonzero;fill:rgb(0%,0%,0%);fill-opacity:1;" d="M 81.253906 100.75 C 81.253906 100.554688 81.09375 100.398438 80.898438 100.398438 C 80.707031 100.398438 80.546875 100.554688 80.546875 100.75 C 80.546875 100.945312 80.707031 101.101562 80.898438 101.101562 C 81.09375 101.101562 81.253906 100.945312 81.253906 100.75 Z M 81.253906 100.75 "/>
<path style="fill:none;stroke-width:0.7;stroke-linecap:round;stroke-linejoin:round;stroke:rgb(0%,0%,0%);stroke-opacity:1;stroke-miterlimit:4;" d="M 137.898438 185.796875 C 153.890625 185.148438 169.90625 185.148438 185.898438 185.796875 " transform="matrix(0.5,0,0,0.5,0,0)"/>
<path style="fill:none;stroke-width:0.4;stroke-linecap:round;stroke-linejoin:round;stroke:rgb(0%,0%,0%);stroke-opacity:1;stroke-miterlimit:4;" d="M 160 143.296875 L 161.296875 144.796875 M 163.296875 164 C 163.234375 165.335938 163.296875 166.398438 163.5 167.203125 M 160.296875 164.203125 C 160.703125 164.703125 161.296875 166.5 161.296875 167.203125 " transform="matrix(0.5,0,0,0.5,0,0)"/>
<path style="fill-rule:nonzero;fill:rgb(100%,100%,100%);fill-opacity:1;stroke-width:0.5;stroke-linecap:round;stroke-linejoin:round;stroke:rgb(0%,0%,0%);stroke-opacity:1;stroke-miterlimit:4;" d="M 170.203125 185.601562 C 169.601562 185.796875 168.601562 186.398438 168.601562 186.898438 C 168.601562 187.398438 169.796875 187.5 170.203125 187.601562 C 169.5 187.796875 167.5 188.203125 166.601562 187.796875 C 166 188.101562 161.398438 187.101562 160.398438 187.101562 C 159.796875 187.101562 159 186.5 159.101562 185.398438 C 159.101562 185.203125 159.296875 184.601562 159.796875 184.398438 C 159.5 183.796875 160.898438 182.898438 162.296875 182 C 160.296875 182.296875 157.601562 181.5 156.898438 180.703125 C 155.296875 180.101562 154.601562 180.703125 153.898438 182.101562 C 153.898438 184.5 152.601562 185.703125 150.898438 185.5 C 149.898438 185.296875 149.601562 185.796875 149.296875 186 L 152.601562 187 C 154.796875 189 153.601562 190.601562 153.101562 191 C 152.601562 191.398438 151.398438 191.101562 150.703125 191.101562 C 149.898438 191.101562 149.898438 191.398438 149.703125 191.5 C 149.03125 191.835938 148.601562 191.898438 148.398438 191.703125 C 148.398438 191.398438 148.703125 190 149.601562 189.796875 C 150.101562 189.796875 151.101562 189.5 151.101562 189 C 151.101562 188.5 149.296875 188.601562 147.898438 188.101562 C 146.796875 187.703125 146.398438 187.101562 146.796875 185.203125 C 147.101562 183.203125 149.5 182.898438 150.703125 182.898438 C 150.5 182.101562 150.703125 180.601562 151.703125 179.601562 C 153.296875 178.101562 155.703125 178.601562 157.796875 178.796875 C 159 178.101562 161.203125 177.101562 163.398438 177 C 165.398438 177 174 174.703125 177.898438 175.203125 C 176.898438 173.898438 177.203125 170.796875 178.796875 169.898438 C 180.796875 168.703125 183 171.898438 183.601562 171.296875 C 184.203125 170.703125 182.898438 169.898438 181.398438 168.296875 C 181 167.703125 181.101562 167.703125 181.101562 167.5 C 181.101562 166.96875 181.203125 166.570312 181.398438 166.296875 C 181.601562 166.203125 182.796875 166.601562 183.101562 167.101562 C 183.570312 167.765625 184 167.929688 184.398438 167.601562 C 184.898438 167.203125 184.203125 167.398438 183.898438 166.601562 C 183.796875 166.101562 183.398438 165.703125 183.5 165.296875 C 184.148438 164.617188 184.929688 164.070312 185.796875 163.703125 C 186.132812 164.164062 186.429688 164.601562 186.703125 165 C 187.398438 166.101562 188.101562 165.796875 188.601562 166.601562 C 188.601562 167 188.765625 167.570312 189.101562 168.296875 C 189.945312 169.78125 191.148438 171.015625 192.601562 171.898438 C 192.929688 172.101562 193.132812 172.335938 193.203125 172.601562 C 193.203125 173.070312 193.070312 173.398438 192.796875 173.601562 C 192.601562 173.796875 191.796875 173.796875 191.203125 173.5 C 190.265625 172.96875 189.570312 172.734375 189.101562 172.796875 C 187.703125 173 186.796875 175.203125 184.796875 175.203125 C 183 175 181.796875 172.296875 180.703125 173.101562 C 179.601562 173.898438 183.203125 176.101562 182.703125 177.101562 C 183.101562 177.296875 183.601562 178.101562 183.398438 178.796875 C 185.015625 178.476562 186.429688 177.5 187.296875 176.101562 C 188.296875 174.765625 189.03125 174.03125 189.5 173.898438 C 190.101562 173.601562 190.796875 173.898438 190.796875 174.398438 L 191.703125 174.703125 C 192.101562 175.03125 192.164062 175.367188 191.898438 175.703125 L 191.296875 175.296875 C 190.96875 175.296875 190.570312 175.5 190.101562 175.898438 C 189.765625 176.429688 189.367188 177 188.898438 177.601562 L 186.898438 179.796875 C 187.101562 180.335938 187.164062 180.835938 187.101562 181.296875 C 187.296875 181.296875 187.53125 181.367188 187.796875 181.5 C 187.929688 181.570312 187.929688 181.796875 187.796875 182.203125 C 187.796875 182.703125 185.796875 184.898438 185.398438 184.796875 C 184.601562 184.796875 184 183.796875 184.101562 183.5 C 183.203125 183.898438 182.796875 182.898438 182.796875 182.5 C 182.171875 183.132812 181.421875 183.648438 180.601562 184 C 180.203125 184.203125 179.929688 184.070312 179.796875 183.601562 C 179.703125 184 178.5 184.398438 178.203125 184.5 C 176.703125 184.796875 175.101562 185.5 173.601562 185.5 L 169.796875 185.398438 Z M 170.203125 185.601562 " transform="matrix(0.5,0,0,0.5,0,0)"/>
<path style="fill-rule:nonzero;fill:rgb(100%,100%,100%);fill-opacity:1;stroke-width:0.3;stroke-linecap:round;stroke-linejoin:round;stroke:rgb(0%,0%,0%);stroke-opacity:1;stroke-miterlimit:4;" d="M 175.5 171.398438 C 175.5 172 174.601562 173.398438 175.898438 174.601562 C 176.703125 175.203125 178 175.703125 178.398438 176.601562 C 178.796875 177.296875 178.296875 177.898438 178.101562 177.898438 C 177.296875 177.703125 176.203125 179.101562 175.796875 180.101562 C 175.398438 178.703125 174.5 179.101562 173.296875 179.296875 C 173.5 177.765625 172.632812 176.898438 170.703125 176.703125 C 171 176.398438 170.5 176 170.101562 175.601562 C 169.703125 175.203125 168.296875 175.5 168.101562 175.203125 C 168.101562 174.898438 168.796875 174.203125 168.398438 173.703125 C 168 173 166.398438 173.398438 165.796875 173.203125 C 166 172.53125 165.929688 171.867188 165.601562 171.203125 C 165.101562 170.203125 163.398438 170.703125 162.5 170.5 C 163.234375 169.96875 163.429688 169.265625 163.101562 168.398438 C 162.703125 167.398438 160.703125 168.5 160.703125 167.398438 C 160.796875 166.898438 163.101562 166.601562 164 166.5 C 164.898438 166.398438 167.703125 167.203125 170.5 167.796875 C 171.101562 168.398438 175.5 169.703125 175.5 171.398438 " transform="matrix(0.5,0,0,0.5,0,0)"/>
<path style="fill:none;stroke-width:0.5;stroke-linecap:round;stroke-linejoin:round;stroke:rgb(0%,0%,0%);stroke-opacity:1;stroke-miterlimit:4;" d="M 182.796875 182.601562 C 184.28125 181.84375 185.65625 180.898438 186.898438 179.796875 M 161.296875 178.796875 C 162.5 178.796875 165.203125 179.203125 166 180.203125 C 166.703125 181.203125 167.203125 182.898438 161.898438 184.203125 C 163.5 184.203125 165.898438 183.898438 166.703125 184.101562 C 167.5 183.898438 169.203125 183.398438 169.898438 183.601562 C 169.601562 183.703125 168.703125 184 168.703125 184.601562 C 168.703125 184.929688 169.070312 185.203125 169.796875 185.398438 M 174.898438 181.796875 C 176.796875 182.203125 179.5 181.601562 179.898438 183.601562 " transform="matrix(0.5,0,0,0.5,0,0)"/>
<path style="fill:none;stroke-width:0.4;stroke-linecap:round;stroke-linejoin:round;stroke:rgb(0%,0%,0%);stroke-opacity:1;stroke-miterlimit:4;" d="M 181.203125 166.796875 C 181.703125 167.398438 183.203125 168.296875 183.898438 168.796875 C 184.898438 169.601562 185.296875 168.703125 184.601562 167.398438 " transform="matrix(0.5,0,0,0.5,0,0)"/>
<path style="fill:none;stroke-width:0.3;stroke-linecap:round;stroke-linejoin:round;stroke:rgb(0%,0%,0%);stroke-opacity:1;stroke-miterlimit:4;" d="M 168.101562 175.203125 C 170.101562 174.757812 172.148438 174.523438 174.203125 174.5 M 165.796875 173.203125 C 168.796875 172.398438 172 172.703125 174 172.703125 M 173.5 179.101562 L 176.101562 176.601562 M 170.703125 176.601562 C 171.703125 176.296875 173.296875 175.601562 174.703125 175.398438 M 170.5 167.796875 C 172.101562 166.296875 173.898438 166.5 175.703125 165.601562 C 176.703125 165 177.703125 163.601562 178.703125 162.5 C 179.101562 162.03125 179.765625 161.796875 180.703125 161.796875 C 182.164062 162 182.132812 162.234375 180.601562 162.5 C 179.398438 162.703125 179.296875 163.203125 178.898438 164.101562 C 178.5 164.898438 178.898438 165.796875 179.101562 166.398438 L 178.296875 168.601562 C 178.296875 168.867188 178.46875 169.234375 178.796875 169.703125 M 162.5 170.5 C 166.5 169.601562 172.5 171.203125 173.601562 171.203125 " transform="matrix(0.5,0,0,0.5,0,0)"/>
<path style="fill:none;stroke-width:0.2;stroke-linecap:round;stroke-linejoin:round;stroke:rgb(0%,0%,0%);stroke-opacity:1;stroke-miterlimit:4;" d="M 187.703125 177 C 189 176.296875 189 175 190.703125 174.398438 M 184.101562 183.5 C 185.796875 182.703125 186.101562 182 187.101562 181.296875 M 188 167.601562 C 187.734375 167.601562 187.46875 167.5 187.203125 167.296875 C 186.929688 166.898438 186.898438 166.632812 187.101562 166.5 C 187.164062 166.296875 187.398438 166.367188 187.796875 166.703125 C 188.398438 167.203125 188.101562 167.398438 188 167.601562 M 188.296875 170.601562 C 187.5 170.796875 187.296875 170.101562 186.601562 170 C 185.703125 169.796875 185.203125 170.398438 185.203125 170.898438 C 185.203125 171.398438 185.703125 171.898438 186.203125 171.898438 C 186.703125 171.898438 187.203125 171.601562 188.296875 171.703125 M 184.5 164.5 C 185.164062 164.632812 185.734375 164.570312 186.203125 164.296875 " transform="matrix(0.5,0,0,0.5,0,0)"/>
<path style="fill-rule:nonzero;fill:rgb(100%,100%,100%);fill-opacity:1;stroke-width:0.1;stroke-linecap:round;stroke-linejoin:round;stroke:rgb(0%,0%,0%);stroke-opacity:1;stroke-miterlimit:4;" d="M 162.703125 150.703125 C 162.617188 150.664062 162.53125 150.539062 162.492188 150.390625 C 162.445312 150.234375 162.453125 150.085938 162.5 150 C 162.414062 149.960938 162.335938 149.84375 162.289062 149.695312 C 162.25 149.539062 162.25 149.390625 162.296875 149.296875 C 162.21875 149.265625 162.132812 149.148438 162.09375 149 C 162.046875 148.851562 162.054688 148.695312 162.101562 148.601562 C 162.023438 148.53125 161.960938 148.398438 161.9375 148.25 C 161.921875 148.101562 161.945312 147.96875 162 147.898438 C 161.914062 147.882812 161.835938 147.773438 161.789062 147.617188 C 161.742188 147.46875 161.75 147.304688 161.796875 147.203125 C 161.726562 147.140625 161.664062 147.015625 161.648438 146.867188 C 161.625 146.71875 161.648438 146.578125 161.703125 146.5 C 161.585938 146.515625 161.476562 146.34375 161.453125 146.125 C 161.421875 145.90625 161.492188 145.710938 161.601562 145.703125 C 161.523438 145.65625 161.46875 145.53125 161.445312 145.382812 C 161.421875 145.234375 161.445312 145.085938 161.5 145 C 161.421875 144.960938 161.367188 144.84375 161.34375 144.695312 C 161.320312 144.546875 161.34375 144.390625 161.398438 144.296875 C 161.289062 144.296875 161.203125 144.109375 161.203125 143.890625 C 161.203125 143.671875 161.289062 143.492188 161.398438 143.5 C 161.320312 143.484375 161.257812 143.375 161.234375 143.21875 C 161.210938 143.070312 161.242188 142.90625 161.296875 142.796875 C 161.1875 142.820312 161.09375 142.664062 161.09375 142.445312 C 161.09375 142.21875 161.1875 142.023438 161.296875 142 C 161.1875 142.03125 161.09375 141.882812 161.09375 141.664062 C 161.09375 141.445312 161.1875 141.234375 161.296875 141.203125 C 161.242188 141.125 161.226562 140.984375 161.242188 140.835938 C 161.265625 140.695312 161.328125 140.5625 161.398438 140.5 C 161.289062 140.460938 161.25 140.25 161.304688 140.03125 C 161.359375 139.804688 161.492188 139.664062 161.601562 139.703125 C 161.539062 139.648438 161.507812 139.523438 161.53125 139.375 C 161.546875 139.226562 161.617188 139.078125 161.703125 139 C 161.578125 139 161.53125 138.820312 161.585938 138.601562 C 161.640625 138.382812 161.78125 138.203125 161.898438 138.203125 C 161.84375 138.117188 161.851562 137.953125 161.921875 137.796875 C 161.992188 137.632812 162.101562 137.515625 162.203125 137.5 C 162.132812 137.4375 162.140625 137.28125 162.203125 137.117188 C 162.273438 136.960938 162.398438 136.828125 162.5 136.796875 C 162.414062 136.757812 162.40625 136.609375 162.476562 136.445312 C 162.546875 136.273438 162.679688 136.132812 162.796875 136.101562 C 162.703125 136.03125 162.742188 135.8125 162.875 135.617188 C 163.015625 135.429688 163.203125 135.328125 163.296875 135.398438 C 163.1875 135.351562 163.203125 135.15625 163.34375 134.960938 C 163.484375 134.773438 163.6875 134.648438 163.796875 134.703125 C 163.726562 134.632812 163.765625 134.476562 163.890625 134.328125 C 164.015625 134.171875 164.1875 134.078125 164.296875 134.101562 C 164.164062 134.054688 164.179688 133.859375 164.351562 133.664062 C 164.515625 133.476562 164.757812 133.351562 164.898438 133.398438 " transform="matrix(0.5,0,0,0.5,0,0)"/>
<path style="fill:none;stroke-width:0.1;stroke-linecap:round;stroke-linejoin:round;stroke:rgb(0%,0%,0%);stroke-opacity:1;stroke-miterlimit:4;" d="M 163.601562 150.398438 L 162.703125 150.703125 M 163.398438 149.703125 L 162.5 150 M 163.296875 149 L 162.296875 149.296875 M 163.203125 148.296875 L 162.203125 148.601562 M 163.101562 147.703125 L 162 147.898438 M 163 146.898438 L 161.796875 147.203125 M 162.796875 146.203125 L 161.703125 146.5 M 162.796875 145.5 L 161.601562 145.703125 M 162.796875 144.898438 L 161.398438 144.898438 M 162.796875 144.203125 L 161.398438 144.203125 M 162.796875 143.5 L 161.296875 143.5 M 162.796875 142.796875 L 161.296875 142.796875 M 162.898438 142.101562 L 161.296875 142 M 163 141.398438 L 161.398438 141.203125 M 163.101562 140.796875 L 161.398438 140.5 M 163.296875 140.101562 L 161.601562 139.703125 M 163.5 139.5 L 161.703125 139 M 163.703125 138.796875 L 161.898438 138.203125 M 163.898438 138.203125 L 162.203125 137.5 M 164.203125 137.703125 L 162.5 136.703125 M 164.601562 137.101562 L 162.796875 136.101562 M 165 136.601562 L 163.296875 135.398438 M 165.398438 136.101562 L 163.796875 134.703125 M 165.898438 135.703125 L 164.296875 134.101562 M 166.398438 135.101562 L 164.898438 133.398438 " transform="matrix(0.5,0,0,0.5,0,0)"/>
<path style="fill-rule:nonzero;fill:rgb(100%,100%,100%);fill-opacity:1;stroke-width:0.5;stroke-linecap:round;stroke-linejoin:round;stroke:rgb(0%,0%,0%);stroke-opacity:1;stroke-miterlimit:4;" d="M 173 140.703125 L 170.5 141 C 170.296875 141.5 170.296875 142.898438 170.296875 143.398438 C 172.601562 145.703125 174.898438 148.601562 175.101562 151.296875 C 175.84375 151.898438 176.398438 152.695312 176.703125 153.601562 C 178.398438 152.703125 180.101562 151.296875 181.5 150.898438 C 182.5 150.703125 184.101562 150.601562 185 151.101562 L 190.601562 154.5 C 191.796875 155.296875 192.664062 156.164062 193.203125 157.101562 C 193.703125 157.898438 193.796875 159.398438 193.601562 159.796875 L 190.203125 158.796875 C 190.070312 158.265625 190.164062 157.703125 190.5 157.101562 C 190.703125 156.5 190.703125 156.5 190.203125 156.101562 C 189.796875 155.898438 189.46875 155.898438 189.203125 156.101562 C 188.734375 156.101562 188.335938 155.898438 188 155.5 C 186.59375 154.585938 185.085938 153.851562 183.5 153.296875 C 182.835938 153.164062 182.101562 153.367188 181.296875 153.898438 C 180.898438 154.5 179.703125 156.296875 178.796875 157.203125 C 178.601562 157.398438 178.570312 157.664062 178.703125 158 L 182.296875 158.101562 C 183.703125 158.296875 185.296875 159.703125 186.101562 160.601562 C 189.601562 163.796875 190.898438 165.601562 192 166.601562 C 192.601562 167.070312 192.929688 167.664062 193 168.398438 L 189.601562 168.398438 C 189.601562 167.203125 189.46875 166.265625 189.203125 165.601562 C 188.796875 165.101562 188.101562 165.296875 187.796875 165.296875 C 187.46875 165.234375 187.132812 164.898438 186.796875 164.296875 C 186.296875 163.296875 184.5 162 183.703125 161.5 C 182.898438 161 182.601562 161.203125 181.703125 161.101562 C 181.03125 160.898438 180.203125 160.898438 179.203125 161.101562 C 178.296875 161.398438 175.796875 162.203125 173.5 162.5 C 172.703125 162.898438 170.203125 163.296875 167.5 163.898438 C 165.5 164.296875 161 165.101562 160.101562 165.101562 C 159.796875 167.203125 157.5 170.296875 156.898438 170.601562 C 156.234375 171.601562 156.164062 172.265625 156.703125 172.601562 C 157.203125 173.101562 160.601562 173.101562 161.398438 173.101562 L 164.296875 173.203125 C 164.796875 173.296875 165.601562 174 166.5 174.5 C 167.101562 174.796875 167.203125 175.203125 167.601562 175.796875 C 167.929688 176.203125 168.203125 176.601562 168.398438 177 L 164.398438 177 C 164.335938 175.929688 164 175.367188 163.398438 175.296875 C 162.796875 175.703125 162.101562 176.203125 161.296875 175.898438 C 158.203125 175.703125 156.203125 175.898438 153.296875 175.601562 C 152.398438 175.601562 151.703125 174.398438 152 173.296875 C 152.265625 172.367188 152.265625 171.5 152 170.703125 C 151.703125 171 150.5 172.101562 149.898438 172.898438 C 148.898438 174 149.5 175.203125 149.898438 175.898438 C 150.398438 176.398438 153.796875 179.601562 154.203125 180.5 C 154.5 181.101562 155.898438 182.101562 157.203125 183.203125 C 157.664062 184.070312 158.265625 184.765625 159 185.296875 L 154 185.296875 L 154.203125 184 C 154.203125 183.703125 153.898438 183.101562 153.203125 183.203125 C 152.5 183.296875 152 182.5 151.796875 181.898438 C 151.601562 181.296875 149.296875 178.296875 148.601562 177.703125 L 145.601562 174.796875 C 145.203125 174.703125 145.101562 174 145.601562 173.5 C 146.476562 172.351562 147.148438 171.070312 147.601562 169.703125 C 147.898438 168.796875 147.601562 168.703125 147.398438 168.5 C 145.210938 166.890625 143.375 164.84375 142 162.5 C 140.664062 162.789062 139.273438 162.6875 138 162.203125 C 136.867188 161.53125 135.898438 161.664062 135.101562 162.601562 C 134.703125 163.296875 134.703125 164.398438 135.398438 164.898438 C 136.398438 165.765625 137.5 166.898438 138.703125 168.296875 C 139.703125 169.601562 138.796875 170.601562 137.398438 171.796875 C 137.601562 172.296875 137.398438 172.203125 137.601562 173.101562 C 138.101562 173.796875 138.101562 175.5 137.5 175.796875 C 136.835938 176.132812 136.164062 176.664062 135.5 177.398438 C 134.703125 178.296875 134.5 177.398438 134.703125 176 C 134.898438 175.101562 134.203125 174.398438 133.601562 173.703125 C 133 173 133.296875 171.101562 133.601562 170.5 C 134.101562 169.898438 134.398438 168.796875 133.601562 167.898438 C 132.703125 167.101562 131.101562 165.296875 131.296875 162.898438 C 131.375 161.679688 132.023438 160.578125 133.054688 159.921875 C 134.085938 159.265625 135.367188 159.148438 136.5 159.601562 C 139.5 160.898438 141.203125 160.601562 142.101562 160.398438 C 142.898438 158.929688 144.164062 157.664062 145.898438 156.601562 C 147.601562 155.601562 150.898438 154.296875 154.203125 153.796875 L 162.296875 150.796875 C 163.398438 150.601562 163.296875 149.601562 163.296875 149 C 162.296875 143.5 162.5 137.703125 167 134.796875 C 167.5 134.296875 167.296875 133.101562 168 132.203125 L 169.296875 134.398438 C 171.296875 135.101562 174.703125 136.296875 176.101562 137 C 176.765625 137.203125 177.335938 137.367188 177.796875 137.5 C 178.265625 137.632812 178.601562 137.96875 178.796875 138.5 C 179 139.164062 178.867188 139.664062 178.398438 140 C 178.101562 140.101562 176.5 139.601562 176.101562 140 C 176.101562 140.335938 176.570312 140.664062 177.5 141 C 177.796875 141.203125 177.203125 142 176.796875 142 C 176.46875 142 176.164062 141.898438 175.898438 141.703125 C 174.898438 141.5 173.898438 141.164062 172.898438 140.703125 " transform="matrix(0.5,0,0,0.5,0,0)"/>
<path style="fill:none;stroke-width:0.5;stroke-linecap:round;stroke-linejoin:round;stroke:rgb(0%,0%,0%);stroke-opacity:1;stroke-miterlimit:4;" d="M 167.296875 137.101562 C 167.296875 140.5 168.398438 142.203125 170.296875 143.398438 M 176.703125 153.601562 C 176.96875 154.921875 176.96875 156.28125 176.703125 157.601562 M 152 170.601562 C 154.5 169.5 156.796875 166.601562 156.703125 164.796875 C 156.703125 163.796875 155.796875 162.296875 153.601562 162.203125 M 156.601562 164.796875 C 157.398438 165.101562 158.898438 164.898438 160.101562 165.101562 M 172.703125 156.796875 C 174.703125 156.898438 177.296875 158.101562 178.703125 158 M 171.703125 160.796875 C 173.5 161.203125 173.5 162 177 161.796875 M 171 149.601562 C 172.898438 149.601562 174 150.601562 175 151.296875 " transform="matrix(0.5,0,0,0.5,0,0)"/>
<path style="fill:none;stroke-width:0.3;stroke-linecap:round;stroke-linejoin:round;stroke:rgb(0%,0%,0%);stroke-opacity:1;stroke-miterlimit:4;" d="M 156.296875 166.398438 C 157.703125 166.53125 158.703125 166.070312 159.296875 165 M 167.296875 137.101562 C 167.296875 139.898438 168.296875 140.601562 170.5 141 " transform="matrix(0.5,0,0,0.5,0,0)"/>
<path style="fill:none;stroke-width:0.2;stroke-linecap:round;stroke-linejoin:round;stroke:rgb(0%,0%,0%);stroke-opacity:1;stroke-miterlimit:4;" d="M 178 137.601562 C 177.898438 138.296875 177.796875 138.898438 179 138.796875 M 172.898438 135.703125 C 172 137.898438 176.5 138.203125 176.601562 139.703125 M 151.601562 154.398438 C 153.796875 155.398438 153.601562 159.703125 153.601562 162.203125 " transform="matrix(0.5,0,0,0.5,0,0)"/>
<path style="fill-rule:nonzero;fill:rgb(100%,100%,100%);fill-opacity:1;stroke-width:0.2;stroke-linecap:round;stroke-linejoin:round;stroke:rgb(0%,0%,0%);stroke-opacity:1;stroke-miterlimit:4;" d="M 175.601562 139.703125 C 174.898438 141.101562 173.296875 143.203125 171.796875 144.296875 C 169.46875 146.03125 166.765625 147.265625 163.703125 148 C 163.234375 148.203125 162.703125 148.234375 162.101562 148.101562 C 161.429688 148.101562 160.867188 147.632812 160.398438 146.703125 C 160.203125 146.296875 160.296875 144.101562 161.101562 143.796875 C 161.867188 143.507812 162.679688 143.367188 163.5 143.398438 C 164.101562 143.398438 164.429688 143.664062 164.5 144.203125 C 164.429688 144.734375 164.101562 144.96875 163.5 144.898438 C 162.898438 144.703125 162 144.296875 161.5 144.703125 C 161.101562 144.898438 160.796875 145.898438 161.101562 146.398438 C 161.429688 147.070312 161.796875 147.398438 162.203125 147.398438 L 163.5 147.296875 C 166.429688 146.5 169.03125 145.296875 171.296875 143.703125 C 172.796875 142.703125 174.296875 140.296875 174.898438 139.296875 Z M 163.601562 144 C 162.703125 143.796875 161.203125 144 161.101562 144.398438 C 161.765625 144.070312 162.601562 144.070312 163.601562 144.398438 C 163.929688 144.335938 163.929688 144.203125 163.601562 144 M 169.601562 136.5 L 169.898438 135.796875 C 170 135.703125 169.703125 134.101562 171.296875 134.898438 C 173 135.898438 171.703125 136.601562 171.601562 136.703125 L 171.203125 137.398438 " transform="matrix(0.5,0,0,0.5,0,0)"/>
<path style="fill:none;stroke-width:0.4;stroke-linecap:round;stroke-linejoin:round;stroke:rgb(0%,0%,0%);stroke-opacity:1;stroke-miterlimit:4;" d="M 166.703125 135 L 176.203125 140 " transform="matrix(0.5,0,0,0.5,0,0)"/>
<path style="fill-rule:nonzero;fill:rgb(100%,100%,100%);fill-opacity:1;stroke-width:0.3;stroke-linecap:round;stroke-linejoin:round;stroke:rgb(0%,0%,0%);stroke-opacity:1;stroke-miterlimit:4;" d="M 154.703125 135.398438 C 152.554688 135.476562 150.40625 135.3125 148.296875 134.898438 C 147.5 134.796875 145.203125 138.101562 144 138.296875 C 142.796875 138.601562 141.601562 135.898438 139.898438 136.5 C 139 137.203125 139.898438 140.5 139.398438 140.796875 C 138.898438 141.296875 137.398438 139.203125 136.398438 139.796875 C 135.398438 140.601562 137.203125 144.898438 136.703125 145.398438 C 136.203125 145.898438 134.101562 143.5 133.398438 144 C 132.703125 144.5 134.101562 151.203125 133.398438 151.5 C 132.796875 151.898438 129.703125 149.703125 129.398438 150.601562 C 128.898438 151.601562 133.703125 153.703125 135 153.796875 L 136.296875 153.296875 C 136.703125 153.5 140.5 153.796875 140.898438 153.796875 L 143 151.601562 C 146.296875 147.296875 150 143.296875 154.703125 143.601562 Z M 154.703125 135.398438 " transform="matrix(0.5,0,0,0.5,0,0)"/>
<path style="fill:none;stroke-width:0.3;stroke-linecap:round;stroke-linejoin:round;stroke:rgb(0%,0%,0%);stroke-opacity:1;stroke-miterlimit:4;" d="M 140.203125 136.5 L 146.5 136.203125 M 136.398438 139.796875 L 139.398438 138.796875 M 133.398438 143.796875 L 136.296875 142.601562 M 129.296875 150.601562 L 133.296875 147 M 136.296875 153.203125 C 138 150.203125 141.296875 147 144.203125 145.296875 M 133.5 151.5 C 135.898438 148.601562 142.601562 143.898438 144.796875 143.5 M 139.398438 140.796875 C 142.203125 139.601562 146.203125 139.398438 149.398438 139.101562 M 143.898438 138.296875 C 144.296875 138.296875 149.101562 137.703125 151.203125 137.796875 M 136.703125 145.5 C 140.296875 143.296875 144.132812 141.53125 148.203125 140.203125 " transform="matrix(0.5,0,0,0.5,0,0)"/>
<path style="fill-rule:nonzero;fill:rgb(100%,100%,100%);fill-opacity:1;stroke-width:0.4;stroke-linecap:round;stroke-linejoin:round;stroke:rgb(0%,0%,0%);stroke-opacity:1;stroke-miterlimit:4;" d="M 168.203125 191.203125 C 168.5 191.296875 168.796875 192 168.796875 192 C 168.796875 192 168.203125 192.296875 168 192.203125 L 138.5 183.398438 C 137.703125 183.203125 138 181.796875 138.898438 182.101562 Z M 140.203125 150.203125 C 139.929688 149.46875 139.53125 149.03125 139 148.898438 C 138.796875 148.898438 138.101562 149.601562 138.203125 149.796875 C 138.203125 150.203125 139.101562 150.796875 139.398438 150.796875 Z M 142.898438 151.203125 L 140.398438 153.703125 C 140.101562 154 140.703125 154.5 141 154.203125 L 143.5 151.796875 C 143.796875 151.5 143.203125 150.898438 142.898438 151.203125 M 141.703125 153.601562 L 149.398438 161.5 L 150.898438 161.703125 L 150.703125 160.101562 L 142.703125 152.5 Z M 141.703125 153.601562 " transform="matrix(0.5,0,0,0.5,0,0)"/>
<path style="fill:none;stroke-width:0.1;stroke-linecap:round;stroke-linejoin:round;stroke:rgb(0%,0%,0%);stroke-opacity:1;stroke-miterlimit:4;" d="M 149.796875 160.601562 L 142.203125 153 " transform="matrix(0.5,0,0,0.5,0,0)"/>
<path style="fill-rule:nonzero;fill:rgb(100%,100%,100%);fill-opacity:1;stroke-width:0.5;stroke-linecap:round;stroke-linejoin:round;stroke:rgb(0%,0%,0%);stroke-opacity:1;stroke-miterlimit:4;" d="M 160 138.601562 C 160 138.132812 160.164062 137.796875 160.5 137.601562 C 161 137.296875 160.796875 137.5 161.101562 137.601562 L 161.898438 138.101562 C 162.101562 138.234375 162.234375 138.234375 162.296875 138.101562 C 162.296875 137.835938 162.398438 137.570312 162.601562 137.296875 L 162.796875 137.101562 C 163 137.101562 163.070312 137 163 136.796875 C 162.929688 136.601562 163.03125 136.46875 163.296875 136.398438 C 163.5 136.398438 163.898438 136.703125 163.898438 136.398438 L 164.203125 134.796875 C 164.796875 134.898438 164.601562 134.203125 164.796875 134.203125 C 165.398438 134.398438 165.703125 133.398438 165.296875 133 C 165.367188 132.265625 165.929688 131.929688 167 132 C 166.898438 131.5 166.101562 131.296875 165.601562 130.601562 C 165.101562 129.898438 163.601562 129 161.796875 129 C 160 129 158.703125 130.601562 158 131.296875 C 157.296875 132 156 132.296875 155.703125 132.296875 C 155.367188 132.101562 155.03125 131.96875 154.703125 131.898438 L 153 131.898438 C 152.398438 131.898438 152.203125 132.296875 151.5 132.203125 C 151.101562 132.203125 149.5 132.203125 149 132.398438 C 148.5 132.601562 149 133.601562 149.5 133.703125 C 149.703125 133.703125 151 133.703125 151.5 134 C 152 134.296875 153.5 134.398438 154.101562 134.101562 C 155.398438 133.703125 156.203125 134.5 157.601562 134.898438 L 158.101562 135 C 158.164062 135.796875 158.03125 136.164062 157.703125 136.101562 L 156.5 136.101562 L 155.203125 135.5 C 154.601562 135.5 154.203125 135.570312 154 135.703125 C 152.296875 136.398438 146.296875 141.101562 145.703125 142.203125 C 145 143.398438 144 144.101562 143.101562 145.898438 C 142.601562 146.898438 141.601562 148.101562 141 149.703125 C 140 150.203125 138.898438 151.101562 138.703125 151.398438 C 138.703125 151.664062 138.835938 151.867188 139.101562 152 C 139.101562 152.203125 139.296875 152.367188 139.703125 152.5 C 139.632812 152.765625 139.765625 152.898438 140.101562 152.898438 C 140.101562 153.234375 140.265625 153.46875 140.601562 153.601562 L 143 151.101562 C 143.132812 149.96875 143.46875 149.03125 144 148.296875 C 145.25 146.75 146.390625 145.117188 147.398438 143.398438 C 147.703125 143 150.601562 141.898438 151.398438 141.203125 C 151.148438 142.726562 151.148438 144.273438 151.398438 145.796875 C 151.898438 147.796875 152.5 149.101562 152.898438 150.796875 C 153.296875 152.5 152.898438 153.5 152.898438 154.296875 C 152.898438 154.765625 153.234375 155.101562 153.898438 155.296875 C 154.398438 155.703125 156.796875 155.296875 157.5 155.601562 C 158.96875 155.929688 160 156.132812 160.601562 156.203125 C 161.804688 155.96875 163.046875 156.179688 164.101562 156.796875 C 164.703125 157.296875 165.796875 159.796875 166.203125 160.796875 C 166.601562 161.796875 168.796875 162.898438 169.203125 163.5 C 169.703125 164 170.101562 165.5 170 166.203125 C 169.867188 166.867188 170.101562 167.132812 170.703125 167 C 171.203125 167 173.203125 167.296875 173.5 167.5 C 173.898438 167.703125 174.703125 168.398438 175 168.398438 C 175.296875 168.398438 176.703125 168.601562 177.398438 168.5 C 178.101562 168.398438 178 167.398438 177.703125 167.296875 L 175.703125 166.898438 C 174.65625 166.40625 173.734375 165.6875 173 164.796875 C 172.46875 164 172.03125 163.164062 171.703125 162.296875 L 168.601562 157.796875 L 167 154 C 166.703125 153.296875 166.203125 153.296875 165.703125 153.101562 C 163.898438 152.601562 163.203125 152.398438 161.296875 152.101562 C 160 151.796875 159.703125 151.703125 159.5 150.703125 C 159.5 149.898438 158.898438 148.5 159.203125 147.5 L 159.601562 145.703125 C 159.601562 145.203125 160 144.398438 160 144 L 160.203125 141 Z M 161.398438 146.796875 C 161.203125 146.796875 160.398438 147 159.898438 146.796875 C 159.796875 146.796875 159.898438 146.398438 159.898438 146.398438 C 159.898438 146.398438 159.703125 146.101562 159.898438 146 C 159.835938 145.867188 159.835938 145.734375 159.898438 145.601562 C 159.703125 145.398438 159.703125 145.234375 159.898438 145.101562 L 161.296875 145 C 161.570312 145.601562 161.601562 146.203125 161.398438 146.796875 " transform="matrix(0.5,0,0,0.5,0,0)"/>
<path style="fill:none;stroke-width:0.5;stroke-linecap:round;stroke-linejoin:round;stroke:rgb(0%,0%,0%);stroke-opacity:1;stroke-miterlimit:4;" d="M 158.101562 135.101562 C 158.5 135.398438 158.5 135.101562 159.203125 134.898438 C 159.898438 134.703125 160.5 135.296875 160.203125 135.898438 C 159.929688 136.570312 160.132812 136.96875 160.796875 137.101562 C 161.796875 137.296875 161.796875 136.398438 162 136.101562 C 162.203125 135.898438 162.429688 135.664062 162.703125 135.398438 C 162.898438 134.601562 163.703125 134.796875 164.203125 134.898438 M 165.203125 133 C 164.898438 133.203125 164 132.5 163.796875 131.898438 C 163.601562 131.03125 163 130.570312 162 130.5 C 160.5 130.398438 159 131.101562 158.703125 132.203125 L 158.398438 133.898438 C 158 133.898438 157.765625 133.96875 157.703125 134.101562 L 157.601562 134.898438 M 151.296875 141.203125 L 153.296875 140.203125 " transform="matrix(0.5,0,0,0.5,0,0)"/>
<path style="fill:none;stroke-width:0.3;stroke-linecap:round;stroke-linejoin:round;stroke:rgb(0%,0%,0%);stroke-opacity:1;stroke-miterlimit:4;" d="M 153.398438 140.296875 C 153.898438 141.601562 154.398438 142.898438 155.101562 143.296875 M 156.203125 143.796875 C 157 144.203125 157.835938 144.265625 158.703125 144 M 153.601562 153.5 C 155.703125 153.5 156.601562 154.5 158.296875 155.101562 C 160.101562 155.601562 162.5 155.296875 164.796875 156.398438 M 152.898438 146.703125 C 153.570312 147.101562 154.234375 147.296875 154.898438 147.296875 M 155.796875 147.296875 C 157 147.570312 157.765625 148.03125 158.101562 148.703125 M 155.296875 149.796875 C 156.296875 150.796875 158.296875 151.601562 159.5 151.601562 " transform="matrix(0.5,0,0,0.5,0,0)"/>
<path style="fill:none;stroke-width:0.2;stroke-linecap:round;stroke-linejoin:round;stroke:rgb(0%,0%,0%);stroke-opacity:1;stroke-miterlimit:4;" d="M 157 136 C 157.898438 139.203125 158 140.398438 160.203125 141 M 156.101562 135.898438 C 157.101562 139 158.101562 140.703125 160.203125 140.898438 M 155.203125 135.5 C 156.203125 138.601562 157.601562 140.796875 160.203125 140.898438 M 171.796875 165.703125 C 171.398438 165.429688 171.070312 165 170.796875 164.398438 L 170.101562 162.796875 L 169.601562 163.101562 C 169.203125 163.101562 169.132812 162.96875 169.398438 162.703125 L 169.796875 162.5 L 169.203125 161.296875 C 169 161.296875 169.070312 161.203125 169.398438 161 C 169.734375 160.796875 169.867188 160.796875 169.796875 161 L 170.398438 162.203125 L 170.796875 162 C 171.101562 161.796875 171.296875 162.296875 171 162.398438 L 170.5 162.601562 L 171.296875 164.203125 C 171.703125 164.898438 171.796875 165.101562 171.796875 165.703125 M 171.703125 162.296875 L 169.296875 163.601562 M 167.101562 161.796875 L 170.296875 160.203125 M 166.601562 161.203125 L 169.898438 159.601562 " transform="matrix(0.5,0,0,0.5,0,0)"/>
<path style="fill:none;stroke-width:0.1;stroke-linecap:round;stroke-linejoin:round;stroke:rgb(0%,0%,0%);stroke-opacity:1;stroke-miterlimit:4;" d="M 140.101562 153 L 141.203125 152 M 139.703125 152.5 L 140.703125 151.5 M 139.101562 152 L 140.203125 151 M 160 146.398438 L 161 146.398438 M 159.898438 145.601562 L 160.898438 145.601562 M 159.898438 146 L 160.898438 146 M 162.203125 136.796875 L 162.796875 137.101562 " transform="matrix(0.5,0,0,0.5,0,0)"/>
</g>
</svg>
