<?xml version="1.0" encoding="UTF-8"?>
<svg xmlns="http://www.w3.org/2000/svg" xmlns:xlink="http://www.w3.org/1999/xlink" width="px" height="px" viewBox="0 0 320 240" version="1.1">
<g id="surface1">
<rect x="0" y="0" width="320" height="240" style="fill:rgb(95.686275%,7.843138%,3.137255%);fill-opacity:1;stroke:none;"/>
<path style=" stroke:none;fill-rule:evenodd;fill:rgb(12.941177%,52.941179%,23.137255%);fill-opacity:1;" d="M 0 160 L 320 160 L 320 240 L 0 240 Z M 0 160 "/>
<path style=" stroke:none;fill-rule:evenodd;fill:rgb(0%,0%,0.392157%);fill-opacity:1;" d="M 0 0 L 320 0 L 320 80 L 0 80 Z M 0 0 "/>
<path style=" stroke:none;fill-rule:evenodd;fill:rgb(95.294118%,8.235294%,3.529412%);fill-opacity:1;" d="M 110.25 70.5 C 121.398438 45.898438 152.5 34.101562 179.648438 44.25 C 192.542969 48.59375 203.046875 58.105469 208.648438 70.5 Z M 97.25 73.699219 C 88.425781 73.101562 79.664062 71.796875 71.050781 69.800781 C 69 69.148438 68.898438 68 69.148438 67.148438 C 69.398438 66.300781 70.699219 65.351562 72.25 65.648438 C 75.050781 66.351562 86.648438 69.148438 97.25 73.699219 M 159.550781 30.75 C 157.449219 20.25 156.949219 8.75 157.148438 6.75 C 157.351562 4.800781 158.5 4.5 159.5 4.5 C 160.5 4.5 161.851562 5.398438 161.851562 6.851562 C 161.851562 9.5 161.800781 20.351562 159.550781 30.851562 Z M 165.351562 31 C 164.519531 22.992188 164.46875 14.917969 165.199219 6.898438 C 165.601562 4.949219 166.800781 4.699219 167.75 4.800781 C 168.75 4.851562 170 5.851562 169.851562 7.300781 C 169.601562 9.949219 168.550781 20.75 165.351562 31 M 170.550781 31.648438 C 170.449219 21 172.050781 9.5 172.601562 7.648438 C 173.148438 5.699219 174.398438 5.550781 175.351562 5.699219 C 176.351562 5.851562 177.5 6.949219 177.25 8.351562 C 176.75 11 174.648438 21.648438 170.550781 31.648438 M 176.050781 32.75 C 176.949219 22.148438 179.699219 10.851562 180.449219 9 C 181.199219 7.148438 182.449219 7.101562 183.351562 7.300781 C 184.351562 7.550781 185.351562 8.699219 185 10.101562 C 184.199219 12.648438 181.148438 23.101562 176.101562 32.75 Z M 181.5 34.351562 C 183.449219 23.851562 187.25 12.800781 188.148438 11 C 189.101562 9.25 190.300781 9.25 191.25 9.550781 C 192.148438 9.851562 193.101562 11.148438 192.601562 12.449219 C 189.589844 20.078125 185.871094 27.410156 181.5 34.351562 M 186.550781 36.25 C 189.449219 25.898438 194.300781 15.25 195.398438 13.5 C 196.5 11.800781 197.699219 11.949219 198.601562 12.351562 C 199.5 12.699219 200.300781 14.050781 199.648438 15.351562 C 198.398438 17.75 193.398438 27.550781 186.550781 36.25 M 191.550781 38.601562 C 194.523438 30.957031 198.207031 23.609375 202.550781 16.648438 C 203.75 15.050781 205 15.300781 205.851562 15.75 C 206.359375 16.050781 206.722656 16.542969 206.863281 17.117188 C 207.007812 17.691406 206.910156 18.296875 206.601562 18.800781 C 205.101562 21.101562 199.148438 30.5 191.550781 38.601562 M 196.25 41.351562 C 201.101562 31.648438 207.898438 21.851562 209.300781 20.351562 C 210.699219 18.851562 211.898438 19.199219 212.699219 19.699219 C 213.183594 20.042969 213.507812 20.5625 213.601562 21.144531 C 213.695312 21.726562 213.550781 22.324219 213.199219 22.800781 C 211.449219 25 204.601562 33.851562 196.199219 41.300781 Z M 200.648438 44.449219 C 206.449219 35.148438 214.148438 25.949219 215.699219 24.601562 C 217.199219 23.199219 218.398438 23.601562 219.148438 24.199219 C 219.59375 24.585938 219.859375 25.132812 219.886719 25.71875 C 219.914062 26.304688 219.703125 26.875 219.300781 27.300781 C 217.398438 29.351562 209.75 37.648438 200.648438 44.449219 M 204.800781 47.898438 C 209.871094 41.210938 215.527344 34.988281 221.699219 29.300781 C 223.351562 28.050781 224.449219 28.550781 225.148438 29.148438 C 225.570312 29.578125 225.792969 30.160156 225.761719 30.757812 C 225.734375 31.355469 225.457031 31.914062 225 32.300781 C 222.949219 34.199219 214.5 41.851562 204.800781 47.898438 M 208.601562 51.648438 C 214.265625 45.378906 220.492188 39.640625 227.199219 34.5 C 229 33.351562 230.050781 33.949219 230.699219 34.648438 C 231.300781 35.300781 231.449219 36.851562 230.199219 37.75 C 223.402344 42.980469 216.175781 47.628906 208.601562 51.648438 M 211.851562 55.550781 C 218.101562 49.730469 224.84375 44.460938 232 39.800781 C 233.851562 38.800781 234.851562 39.5 235.398438 40.25 C 236 40.949219 235.949219 42.5 234.699219 43.300781 C 232.300781 44.800781 222.550781 51.101562 211.851562 55.550781 M 214.800781 59.699219 C 221.5625 54.425781 228.753906 49.722656 236.300781 45.648438 C 238.300781 44.800781 239.25 45.550781 239.75 46.300781 C 240.25 47.101562 240.050781 48.601562 238.75 49.300781 C 231.046875 53.414062 223.019531 56.890625 214.75 59.699219 Z M 217.5 64.5 C 224.78125 59.804688 232.441406 55.726562 240.398438 52.300781 C 242.449219 51.601562 243.300781 52.449219 243.699219 53.25 C 244.148438 54.050781 243.851562 55.550781 242.398438 56.148438 C 239.75 57.25 228.898438 61.851562 217.5 64.5 M 219.601562 69.101562 C 227.304688 64.984375 235.328125 61.503906 243.601562 58.699219 C 245.699219 58.199219 246.449219 59.101562 246.800781 59.949219 C 247.101562 60.75 246.648438 62.25 245.199219 62.699219 C 242.449219 63.648438 231.199219 67.351562 219.601562 69.101562 M 221.300781 74 C 229.359375 70.515625 237.683594 67.6875 246.199219 65.550781 C 248.300781 65.25 249 66.148438 249.25 67.050781 C 249.5 67.898438 248.898438 69.300781 247.398438 69.699219 C 244.550781 70.351562 233 73.199219 221.300781 74 M 153.898438 31 C 151.527344 23.273438 149.902344 15.335938 149.050781 7.300781 C 149.050781 5.351562 150.199219 4.898438 151.148438 4.800781 C 152.148438 4.75 153.648438 5.550781 153.75 6.949219 C 154 9.601562 155.050781 20.398438 153.949219 31 Z M 148.398438 31.648438 C 145.273438 24.164062 142.878906 16.394531 141.25 8.449219 C 141.050781 6.449219 142.148438 5.949219 143.101562 5.800781 C 144.050781 5.648438 145.601562 6.300781 145.898438 7.699219 C 147.464844 15.589844 148.300781 23.605469 148.398438 31.648438 M 142.898438 32.75 C 139.058594 25.53125 135.914062 17.964844 133.5 10.148438 C 133.101562 8.199219 134.148438 7.601562 135.101562 7.351562 C 136.050781 7.101562 137.601562 7.648438 138.050781 9.050781 C 138.800781 11.601562 141.898438 22.050781 142.851562 32.699219 Z M 137.648438 34.25 C 133.183594 27.371094 129.367188 20.089844 126.25 12.5 C 125.699219 10.601562 126.648438 9.898438 127.550781 9.601562 C 128.449219 9.300781 130.101562 9.699219 130.648438 11 C 131.648438 13.5 135.75 23.699219 137.648438 34.199219 Z M 132.601562 36 C 127.472656 29.511719 122.953125 22.566406 119.101562 15.25 C 118.398438 13.398438 119.300781 12.601562 120.199219 12.25 C 121.101562 11.898438 122.699219 12.148438 123.398438 13.449219 C 124.648438 15.851562 129.648438 25.699219 132.601562 36 M 127.449219 38.5 C 121.703125 32.449219 116.511719 25.886719 111.949219 18.898438 C 111.101562 17.148438 111.898438 16.300781 112.75 15.851562 C 113.601562 15.398438 115.25 15.550781 116.050781 16.800781 C 117.550781 19.101562 123.550781 28.449219 127.449219 38.5 M 122.75 41.199219 C 116.46875 35.605469 110.695312 29.464844 105.5 22.851562 C 104.449219 21.148438 105.148438 20.25 106 19.699219 C 106.75 19.199219 108.5 19.199219 109.351562 20.398438 C 111.050781 22.550781 117.898438 31.398438 122.75 41.148438 Z M 118.398438 44.199219 C 111.601562 39.113281 105.261719 33.441406 99.449219 27.25 C 98.25 25.648438 98.898438 24.75 99.648438 24.148438 C 100.738281 23.476562 102.148438 23.640625 103.050781 24.550781 C 104.949219 26.550781 112.648438 34.898438 118.398438 44.199219 M 114.148438 47.699219 C 106.890625 43.179688 100.03125 38.042969 93.648438 32.351562 C 92.25 30.851562 92.800781 29.851562 93.5 29.199219 C 94.542969 28.433594 95.980469 28.496094 96.949219 29.351562 C 99.050781 31.199219 107.449219 38.851562 114.148438 47.648438 Z M 110.449219 51.199219 C 102.796875 47.253906 95.484375 42.671875 88.601562 37.5 C 87.101562 36.101562 87.550781 35.101562 88.199219 34.398438 C 88.800781 33.699219 90.449219 33.351562 91.648438 34.25 C 98.398438 39.359375 104.6875 45.050781 110.449219 51.25 Z M 106.949219 55.300781 C 98.933594 51.980469 91.207031 48 83.851562 43.398438 C 82.199219 42.148438 82.550781 41.050781 83.101562 40.351562 C 83.648438 39.601562 85.25 39.101562 86.550781 39.898438 C 88.949219 41.449219 98.699219 47.648438 106.949219 55.300781 M 103.800781 59.699219 C 92.699219 56.199219 81.351562 50.898438 79.601562 49.75 C 77.800781 48.648438 78.101562 47.550781 78.550781 46.75 C 79 45.949219 80.550781 45.351562 81.949219 46.050781 C 84.449219 47.398438 94.851562 52.800781 103.800781 59.699219 M 101.148438 64.199219 C 89.75 61.550781 78 57.199219 76.101562 56.199219 C 74.25 55.199219 74.351562 54.101562 74.800781 53.300781 C 75.25 52.5 76.648438 51.75 78.101562 52.300781 C 80.75 53.449219 91.601562 58 101.148438 64.199219 M 99.050781 68.699219 C 90.332031 67.359375 81.738281 65.320312 73.351562 62.601562 C 71.351562 61.800781 71.449219 60.648438 71.75 59.851562 C 72.101562 59 73.5 58.148438 74.949219 58.601562 C 77.75 59.550781 88.949219 63.25 99.050781 68.699219 "/>
<path style=" stroke:none;fill-rule:evenodd;fill:rgb(95.294118%,8.235294%,3.529412%);fill-opacity:1;" d="M 97.25 73.699219 C 88.425781 73.101562 79.664062 71.796875 71.050781 69.800781 C 69 69.148438 68.898438 68 69.148438 67.148438 C 69.398438 66.300781 70.699219 65.351562 72.25 65.648438 C 75.050781 66.351562 86.648438 69.148438 97.25 73.699219 "/>
<path style=" stroke:none;fill-rule:evenodd;fill:rgb(0%,0%,0%);fill-opacity:1;" d="M 64.699219 70.75 L 255.300781 70.75 L 255.300781 77.050781 L 64.699219 77.050781 Z M 64.699219 70.75 "/>
</g>
</svg>
