<?xml version="1.0" encoding="UTF-8"?>
<svg xmlns="http://www.w3.org/2000/svg" xmlns:xlink="http://www.w3.org/1999/xlink" width="px" height="px" viewBox="0 0 320 240" version="1.1">
<g id="surface1">
<path style=" stroke:none;fill-rule:evenodd;fill:rgb(100%,100%,100%);fill-opacity:1;" d="M 97.398438 0 L 222.601562 0 L 222.601562 240 L 97.398438 240 Z M 97.398438 0 "/>
<path style=" stroke:none;fill-rule:evenodd;fill:rgb(9.803922%,50.980395%,0%);fill-opacity:1;" d="M 0 0 L 97.398438 0 L 97.398438 240 L 0 240 Z M 222.601562 0 L 320 0 L 320 240 L 222.601562 240 Z M 222.601562 0 "/>
<path style="fill-rule:evenodd;fill:rgb(9.803922%,50.980395%,0%);fill-opacity:1;stroke-width:0.7;stroke-linecap:round;stroke-linejoin:round;stroke:rgb(0%,0%,0%);stroke-opacity:1;stroke-miterlimit:4;" d="M 313.5 351.296875 L 313.5 403.898438 L 334.796875 404.101562 C 334.796875 404.101562 328 358.296875 331.703125 352.101562 C 335.398438 346.101562 338.898438 346.898438 338.898438 346.898438 C 338.898438 346.898438 352.796875 351.101562 354.296875 350.398438 C 355.796875 349.796875 354.101562 345.203125 361.5 345.796875 C 363.898438 344.898438 362.601562 340.796875 364.796875 340.601562 C 367 340.398438 409.296875 352.398438 418.5 341 C 416.101562 334.601562 407.796875 340.5 405.601562 340.796875 C 403.601562 340.796875 395.296875 336.796875 390.5 340.796875 C 386.101562 337.5 366.101562 335.296875 366.101562 335.296875 C 363.5 332.703125 413.703125 336.601562 416.601562 334.601562 C 422.5 328.703125 405.601562 329.398438 403 331.296875 C 398.664062 328.726562 393.335938 328.5 388.796875 330.703125 C 387.101562 326.601562 370.796875 328.296875 361.796875 327.203125 C 358.796875 325.5 359.296875 324.5 361.296875 323.398438 C 380.296875 324.203125 399.101562 326.703125 418.101562 325.898438 C 423.203125 319.203125 411.601562 316.601562 404.5 322.398438 C 400.296875 315.398438 391.796875 322.101562 386.101562 321.398438 C 380.398438 320.703125 383.101562 313.796875 390.296875 314.898438 C 397.5 316 410.398438 314.5 412.796875 311.203125 C 415.203125 307.898438 411.398438 304.5 399.5 307.703125 C 395.5 303.703125 386.5 307.703125 382.398438 309 C 376.796875 305.898438 363.898438 308.5 359.601562 309.601562 C 355.296875 307 382.101562 302.601562 382.101562 302.601562 C 392.5 302.398438 398.398438 300.601562 401.601562 299.796875 C 417.296875 291.398438 401.398438 290.5 393.203125 296.601562 C 388.101562 292.601562 383.203125 296.898438 378.601562 298.398438 C 374.289062 299.867188 369.75 300.539062 365.203125 300.398438 C 365.203125 299.796875 377.796875 292.101562 377.796875 292.101562 C 377.796875 292.101562 393.101562 291 396.203125 290.601562 C 399.203125 290.101562 415 282.101562 393.5 287.5 C 386.101562 288.101562 381.703125 287.703125 378.796875 287.898438 C 362.296875 286.203125 380.398438 284.601562 380.398438 284.601562 C 380.398438 284.601562 403.796875 282.5 404.101562 281.296875 C 404.5 272.296875 385 276.5 384.796875 276.5 C 384.796875 270 366.601562 276.703125 366.601562 276.5 C 363.101562 274.5 368.601562 272.398438 368.601562 272.398438 C 373.398438 271.203125 380.601562 270.796875 382.5 269.296875 C 382.5 269.296875 396.101562 269.203125 397.703125 265.601562 C 394.398438 256.296875 368.898438 267.203125 365.5 268.796875 C 360.898438 268.796875 368.5 261.398438 368.796875 261.203125 C 369 260.898438 389.796875 260.101562 399.703125 246.703125 C 400.398438 238.601562 388.101562 251.296875 388.101562 251.296875 C 387.101562 240.703125 374.703125 252 367.5 252.796875 C 360.203125 253.796875 360 249.5 365 248.796875 C 370 248.203125 375.796875 248.703125 378.601562 241 C 381.5 233.296875 390 241.398438 391.601562 238.601562 C 393.101562 235.703125 388.5 233.296875 388.5 233.296875 C 388.5 233.296875 394.898438 226.703125 384.5 227 C 374.296875 227.203125 360.898438 225.601562 360.898438 225.601562 C 360.898438 225.601562 371.601562 221.5 381.703125 221.601562 C 391.703125 221.898438 386.296875 214.5 376.703125 214.5 C 367.101562 214.5 362 211.203125 362 211.203125 L 378.398438 205 L 377.398438 200.398438 C 377.398438 200.398438 387 192.703125 373.398438 194.5 L 358.203125 196.5 L 330.796875 200.601562 C 330.601562 200.601562 323.398438 198.398438 330.398438 196.601562 C 337.398438 194.796875 362.203125 189.898438 365.898438 191.203125 C 369.601562 192.5 365.5 182 352.296875 180.703125 C 339.101562 179.398438 331 184 331 184 C 331 184 322.5 180.898438 330.398438 178.296875 C 338.296875 175.601562 350.796875 179.203125 350.796875 179.203125 C 350.796875 179.203125 364.796875 175 353.203125 173.203125 C 341.601562 171.398438 337.898438 174.796875 332.601562 175 C 330.5 172.296875 350.796875 171.703125 352.101562 169.5 C 349.898438 165.5 337.296875 169.5 329.898438 169.5 C 326.898438 168.203125 326.601562 166 330.203125 164.703125 C 337.703125 164.398438 344.796875 164.796875 352.296875 164.5 C 352.101562 160.5 352.296875 155.796875 352.101562 151.703125 C 342.5 150 331.296875 153 326 152.703125 C 327.398438 148.398438 348 147.203125 350.296875 146 C 355.101562 140 330.203125 146 329.898438 146 C 325.601562 145.398438 325.898438 142.601562 328.601562 141 C 335 140.296875 349.203125 142 348.203125 137.601562 C 347.398438 133.601562 338.203125 135.703125 334.601562 136.601562 C 330.796875 137.5 325.296875 136.796875 325.296875 136.796875 C 323 133.601562 346.796875 134.898438 346.601562 132.398438 C 346.296875 129.601562 331.5 131.601562 326.398438 131.796875 C 322.5 129.101562 345.398438 127.296875 345.703125 127 C 346.601562 119.703125 330.398438 127 327.296875 127 C 324.203125 127 325.796875 122.398438 325.796875 122.398438 C 325.796875 122.398438 332.101562 119.5 331.898438 119.101562 C 330.257812 118.21875 328.507812 117.546875 326.703125 117.101562 C 326.203125 117.101562 326.703125 112.101562 326.703125 112.101562 C 326.703125 112.101562 331.898438 108.101562 331.5 107 C 331.101562 105.898438 325.296875 107.898438 325.296875 107.898438 L 325.296875 103.5 C 325.296875 103.5 329.5 103.101562 329.898438 101.101562 C 330.398438 99.101562 324.898438 98.898438 324.898438 98.898438 L 322.703125 75.898438 L 320.703125 97.398438 L 313.5 98.398438 C 313.5 98.398438 318.5 101.296875 319.5 104.203125 C 320.296875 107 313.296875 106.203125 313.296875 106.203125 C 313.296875 106.203125 319 111 319.398438 112.703125 C 319.898438 114.5 311.5 114.898438 311.5 114.898438 C 311.5 114.898438 318.5 119.898438 319 122.796875 C 319.398438 125.601562 319 127.203125 319 127.203125 C 319 127.203125 307.398438 117.101562 300 119.898438 C 296 121.898438 308.796875 122.898438 317.203125 130.203125 C 317.203125 131.898438 296.703125 125.203125 296 129.398438 C 296.398438 130.5 317.898438 133.601562 319.398438 136.398438 C 311.601562 136.703125 295.398438 134.703125 296 137.296875 C 294.296875 140.296875 311.203125 138.601562 318.296875 141 C 320.398438 143.398438 320.203125 145.398438 316.601562 145.601562 C 309.703125 142.296875 294.5 139.898438 294.398438 144.101562 C 294.5 145.101562 310.203125 144.5 315.898438 148.203125 C 308.296875 150 282.5 144.703125 282.398438 147.203125 C 283.101562 148.5 287.203125 153.703125 294.203125 153.5 C 301.203125 153.296875 317.5 156.296875 318.601562 158.5 C 319.703125 160.703125 297.5 153.898438 289.203125 157.898438 C 280.796875 161.898438 313.101562 159.398438 318.296875 164.203125 C 323.601562 169.101562 307.796875 163.796875 307.796875 163.796875 C 307.796875 163.796875 285.796875 160.796875 282.601562 162.296875 C 279.296875 163.796875 275.601562 167.296875 275.601562 167.296875 C 275.601562 167.296875 277.796875 171.703125 280 170.796875 C 282.203125 169.898438 279.296875 173.5 279.296875 173.5 C 279.296875 173.5 310 180.898438 316.796875 187.5 C 323.601562 194.101562 277.796875 177.203125 277.796875 177.203125 C 277.796875 177.203125 259.296875 184 278.796875 184.398438 C 276.601562 187.703125 280 189.703125 280 189.703125 C 280 189.703125 312.398438 196.5 315.703125 201.703125 C 319 206.898438 293.601562 196.703125 287.796875 193.796875 C 282.101562 191 265.898438 195.601562 266.101562 196.703125 C 266.398438 197.703125 274.101562 199.296875 274.203125 201.296875 C 274.5 203.296875 264.796875 203.898438 264.796875 205.703125 C 264.796875 207.398438 305.796875 216 316.796875 225.203125 C 327.796875 234.398438 284.601562 214.203125 284.601562 214.203125 C 284.601562 214.203125 287 217.5 284.601562 218.398438 C 282.101562 219.296875 273.601562 206.101562 259.601562 214.203125 C 257 217.601562 271.796875 220.203125 275.601562 220.601562 C 274.296875 223.898438 273.203125 225 278.398438 228.296875 C 283.601562 231.601562 268.101562 223.5 268.101562 223.898438 L 269.203125 229.601562 C 264.398438 225.601562 258.5 224.5 253 228.5 C 253 228.5 252.796875 232.5 258.5 234.898438 C 255.398438 241.203125 262 239.203125 272.5 245.203125 C 256.898438 241.101562 255.601562 248.703125 266.796875 250.398438 C 278 252.101562 308.703125 253.296875 315.898438 262.703125 C 323.101562 272.101562 305.601562 259.101562 303.601562 258.703125 C 303.203125 259 302.796875 263.601562 302.796875 263.601562 C 298.101562 260.898438 293.796875 258.398438 288.203125 257.296875 C 287.703125 258.203125 287.898438 259.398438 287.398438 260.296875 C 282.398438 256.601562 277.898438 254.101562 270.5 253.703125 L 269.601562 257.203125 C 269.601562 257.203125 263.5 249.5 251.398438 257.203125 C 244.703125 262.101562 276.898438 259 282.101562 264.703125 C 287.398438 270.398438 283.203125 271.296875 283.203125 271.296875 L 270.101562 266.398438 C 270.101562 266.398438 254.5 263.601562 250.101562 267.101562 C 245.703125 270.601562 314.101562 279.101562 316.101562 288.601562 C 317.5 293.601562 300.101562 283.203125 285 278.703125 L 283.203125 283.703125 C 283.203125 283.703125 277.203125 277.703125 270.5 276.703125 C 270.296875 276.703125 271.796875 282.703125 271.796875 282.703125 C 271.796875 282.703125 255 274.703125 246.398438 278.898438 C 237.796875 283.101562 276.203125 285.296875 279.703125 289.203125 C 283.203125 293.101562 268.101562 286.601562 266.703125 289.203125 C 265.5 291.898438 246.796875 284.398438 247.101562 287.898438 C 247.398438 291.398438 249.703125 293.398438 249.703125 293.398438 C 249.703125 293.398438 288.5 297.101562 289.796875 301.703125 C 291.101562 306.296875 268.296875 299.101562 268.296875 299.101562 C 268.296875 299.101562 266.101562 302.398438 267.898438 303.898438 C 269.601562 305.5 254.703125 295.203125 256.101562 301.898438 C 251.203125 300 238.703125 294.101562 240.5 298.703125 C 242.296875 303.296875 275.796875 309.898438 275.796875 309.898438 C 275.796875 309.898438 261.101562 310.898438 261.796875 314.703125 C 242.796875 303.203125 243.296875 310.5 243.796875 310.703125 C 244.296875 310.898438 219.398438 304.601562 238.101562 314.703125 C 256.796875 324.796875 248.101562 323 248.398438 323.203125 C 248.601562 323.398438 250.398438 328.203125 249.898438 328.203125 C 249.398438 328.203125 237.203125 321.703125 233 321.203125 C 228.796875 320.703125 209.101562 326.703125 230.203125 336 C 251.296875 345.296875 264.203125 333.796875 275.796875 335 C 287.398438 336.398438 292.796875 338.398438 291.796875 342 C 290.703125 345.796875 279.898438 329.898438 268.601562 343.703125 C 255.601562 341.101562 246.898438 339.703125 253.601562 349.101562 C 232.601562 341.203125 219.601562 351.5 246.203125 355.703125 C 272.203125 356.5 288.203125 349.296875 288.203125 349.296875 C 288.203125 349.296875 292.703125 357.398438 299 351.703125 C 305.296875 346 305.601562 353.898438 305.796875 353.898438 L 312 351.296875 Z M 313.5 351.296875 " transform="matrix(0.5,0,0,0.5,0,0)"/>
<path style="fill-rule:evenodd;fill:rgb(100%,100%,100%);fill-opacity:1;stroke-width:0.8;stroke-linecap:round;stroke-linejoin:round;stroke:rgb(0%,0%,0%);stroke-opacity:1;stroke-miterlimit:4;" d="M 316 320.203125 L 316 316.5 C 316 316.5 307.796875 315 303.703125 315.796875 C 301.398438 314.5 299.101562 312.703125 296.203125 314.203125 C 295.703125 315.398438 301.5 318.5 303.398438 318.5 C 307.515625 319.726562 311.804688 320.304688 316.101562 320.203125 Z M 316 326.203125 C 316 326.203125 307.703125 323.101562 304.398438 326.601562 C 304.898438 330.296875 314.101562 332.101562 316.101562 331.101562 C 318 330.101562 316.101562 326.296875 316 326.101562 Z M 330 327.601562 L 330 330.203125 C 330 330.203125 339.796875 332.101562 341.601562 330 C 343.398438 327.898438 333.601562 326.5 329.898438 327.601562 Z M 329.5 317.398438 L 329.796875 320.296875 C 329.796875 320.296875 338.398438 322.203125 341.703125 317.5 C 345 312.796875 334.203125 317.5 329.5 317.398438 M 329.898438 307.398438 L 329.898438 309.398438 C 329.898438 309.398438 336.398438 310.398438 337.898438 307.601562 C 339.296875 304.796875 330.101562 307.601562 329.898438 307.398438 M 316.5 301.398438 C 315.5 300.101562 312 296.601562 302.703125 295.601562 C 296.203125 295.601562 314.398438 305.101562 316.5 301.5 Z M 329.703125 291.703125 L 329.5 294.398438 C 329.5 294.398438 351.5 287.796875 356.601562 288.296875 C 361.203125 287 362.203125 283.796875 362 283.796875 C 358 280.898438 339.101562 286.101562 329.703125 291.703125 M 330.203125 283.898438 L 329.898438 286.5 C 329.898438 286.5 345.398438 283.5 349.601562 280.5 C 353.796875 277.5 330.398438 284 330.203125 283.898438 M 329.601562 276.296875 L 329.601562 278.898438 C 329.601562 278.898438 339.898438 278.5 342.101562 276.5 C 343.398438 274.398438 332.898438 276.203125 329.601562 276.296875 M 351.203125 298 C 351.203125 298 356.601562 298.796875 357.601562 297.203125 C 357.398438 294.398438 351.203125 298.203125 351.203125 298 M 330 266.601562 L 330.101562 272.296875 C 330.101562 272.296875 355 264.398438 356.601562 263 C 358.101562 261.5 361.601562 257 330 266.601562 M 329.296875 258.703125 L 329.296875 262.898438 C 329.296875 262.898438 339.296875 262.101562 343.898438 258.398438 C 348.5 254.703125 329.296875 258.796875 329.296875 258.703125 M 317.296875 249.398438 L 317.898438 253.101562 L 285 242.5 C 285.101562 242.5 283.398438 237.101562 317.296875 249.398438 M 317.796875 236.101562 C 317.796875 236.5 317.796875 239.703125 317.601562 239.601562 C 317.601562 239.601562 294.796875 230.101562 293.898438 230.898438 C 290.898438 223.898438 317.898438 236.296875 317.898438 236.101562 Z M 328.898438 242.101562 L 329.296875 245.203125 C 329.296875 245.203125 343.296875 242.296875 344.101562 240.898438 C 344.898438 239.5 328.898438 242.101562 328.898438 242 Z M 329.203125 249.5 C 329.398438 250.203125 329.601562 252.796875 329.601562 252.796875 C 329.601562 252.796875 335.203125 252.296875 336.101562 251 C 336.898438 249.703125 329.203125 249.5 329.203125 249.5 M 328.398438 232.5 L 328.398438 235.5 C 328.398438 235.5 343.796875 232.5 345.398438 231.101562 C 347.101562 229.601562 328.101562 232.5 328.398438 232.5 M 328.398438 224 C 328.398438 224.203125 327.898438 227.101562 328.296875 227.101562 C 328.703125 227.101562 346.898438 224.101562 349.796875 221.398438 C 352.601562 218.898438 328.796875 224.296875 328.5 224 Z M 328.203125 209.101562 L 328.203125 212.398438 C 328.203125 212.398438 340 209.898438 342.203125 207.398438 C 344.398438 204.898438 328.203125 209.398438 328.203125 209.101562 M 326.203125 187.5 L 326.398438 192.296875 C 326.398438 192.296875 342.398438 190.101562 344.601562 187.5 C 346.898438 184.796875 326.101562 187.5 326.203125 187.5 M 318.796875 151 L 318.796875 154 C 318.796875 154 311.296875 153.703125 313.101562 152.398438 C 314.898438 151.101562 318.796875 151.296875 318.796875 151 M 325.796875 155 L 326 159.203125 C 326 159.203125 335.703125 158.203125 336.398438 156.703125 C 337.101562 155.203125 326 155.101562 325.796875 155.101562 Z M 325.203125 161 C 325.203125 161 325.398438 163.601562 325.601562 163.601562 C 325.796875 163.601562 329.5 163.296875 330.296875 162.296875 C 331.101562 161.296875 325.601562 161.296875 325.296875 161 Z M 317 172.796875 C 317 173.101562 317.296875 176.796875 317 176.601562 C 316.703125 176.398438 295.796875 170.5 293.796875 170.601562 C 291.898438 170.601562 291.398438 165.703125 317 172.796875 M 318.703125 179.703125 C 318.703125 180.398438 319.203125 184.296875 318.398438 184.101562 C 317.703125 183.898438 304.101562 179.601562 305.5 178.296875 C 306.898438 177 318.703125 180 318.703125 179.703125 M 317.5 208.703125 L 317.601562 212.203125 C 317.601562 212.203125 293.898438 205 293.101562 203.796875 C 292.296875 202.601562 290 197 317.5 208.703125 M 318.5 217.203125 L 318.5 220.5 L 286.296875 209.203125 C 286.296875 209.203125 283.703125 200.796875 318.398438 217.203125 Z M 318.5 217.203125 " transform="matrix(0.5,0,0,0.5,0,0)"/>
<path style="fill-rule:evenodd;fill:rgb(100%,100%,100%);fill-opacity:1;stroke-width:0.8;stroke-linecap:butt;stroke-linejoin:round;stroke:rgb(0%,0%,0%);stroke-opacity:1;stroke-miterlimit:4;" d="M 280.296875 328.703125 L 280.101562 332.203125 C 280.101562 332.203125 273.898438 330.398438 271.898438 326.898438 C 275.5 325.898438 280.398438 328.796875 280.296875 328.703125 Z M 280.296875 328.703125 " transform="matrix(0.5,0,0,0.5,0,0)"/>
</g>
</svg>
