<?xml version="1.0" encoding="UTF-8"?>
<svg xmlns="http://www.w3.org/2000/svg" xmlns:xlink="http://www.w3.org/1999/xlink" width="px" height="px" viewBox="0 0 320 240" version="1.1">
<g id="surface1">
<rect x="0" y="0" width="320" height="240" style="fill:rgb(0%,14.117648%,49.019608%);fill-opacity:1;stroke:none;"/>
<path style=" stroke:none;fill-rule:nonzero;fill:rgb(100%,100%,100%);fill-opacity:1;" d="M 245.210938 53.59375 L 245.210938 61.179688 L 260.382812 53.59375 Z M 245.210938 53.59375 "/>
<path style=" stroke:none;fill-rule:nonzero;fill:rgb(100%,100%,100%);fill-opacity:1;" d="M 248.246094 62.695312 L 245.210938 56.628906 L 260.382812 53.59375 Z M 248.246094 62.695312 "/>
<path style=" stroke:none;fill-rule:nonzero;fill:rgb(100%,100%,100%);fill-opacity:1;" d="M 245.210938 53.59375 L 245.210938 61.179688 L 230.042969 53.59375 Z M 245.210938 53.59375 "/>
<path style=" stroke:none;fill-rule:nonzero;fill:rgb(100%,100%,100%);fill-opacity:1;" d="M 242.179688 62.695312 L 245.210938 56.628906 L 230.042969 53.59375 Z M 242.179688 62.695312 "/>
<path style=" stroke:none;fill-rule:nonzero;fill:rgb(100%,100%,100%);fill-opacity:1;" d="M 249.539062 56.738281 L 242.328125 59.082031 L 254.226562 71.164062 Z M 249.539062 56.738281 "/>
<path style=" stroke:none;fill-rule:nonzero;fill:rgb(100%,100%,100%);fill-opacity:1;" d="M 241.820312 62.4375 L 246.65625 57.675781 L 254.226562 71.164062 Z M 241.820312 62.4375 "/>
<path style=" stroke:none;fill-rule:nonzero;fill:rgb(100%,100%,100%);fill-opacity:1;" d="M 240.882812 56.738281 L 248.097656 59.082031 L 245.570312 42.3125 Z M 240.882812 56.738281 "/>
<path style=" stroke:none;fill-rule:nonzero;fill:rgb(100%,100%,100%);fill-opacity:1;" d="M 250.476562 56.664062 L 243.769531 57.675781 L 245.570312 42.3125 Z M 250.476562 56.664062 "/>
<path style=" stroke:none;fill-rule:nonzero;fill:rgb(100%,100%,100%);fill-opacity:1;" d="M 240.882812 56.738281 L 248.097656 59.082031 L 236.195312 71.164062 Z M 240.882812 56.738281 "/>
<path style=" stroke:none;fill-rule:nonzero;fill:rgb(100%,100%,100%);fill-opacity:1;" d="M 248.601562 62.4375 L 243.769531 57.675781 L 236.195312 71.164062 Z M 248.601562 62.4375 "/>
<path style=" stroke:none;fill-rule:nonzero;fill:rgb(80.000001%,7.843138%,16.862746%);fill-opacity:1;" d="M 245.210938 55.136719 L 245.210938 60.148438 L 255.234375 55.136719 Z M 245.210938 55.136719 "/>
<path style=" stroke:none;fill-rule:nonzero;fill:rgb(80.000001%,7.843138%,16.862746%);fill-opacity:1;" d="M 247.21875 61.152344 L 245.210938 57.144531 L 255.234375 55.136719 Z M 247.21875 61.152344 "/>
<path style=" stroke:none;fill-rule:nonzero;fill:rgb(80.000001%,7.843138%,16.862746%);fill-opacity:1;" d="M 245.210938 55.136719 L 245.210938 60.148438 L 235.1875 55.136719 Z M 245.210938 55.136719 "/>
<path style=" stroke:none;fill-rule:nonzero;fill:rgb(80.000001%,7.843138%,16.862746%);fill-opacity:1;" d="M 243.207031 61.152344 L 245.210938 57.144531 L 235.1875 55.136719 Z M 243.207031 61.152344 "/>
<path style=" stroke:none;fill-rule:nonzero;fill:rgb(80.000001%,7.843138%,16.862746%);fill-opacity:1;" d="M 248.074219 57.214844 L 243.304688 58.765625 L 251.171875 66.75 Z M 248.074219 57.214844 "/>
<path style=" stroke:none;fill-rule:nonzero;fill:rgb(80.000001%,7.843138%,16.862746%);fill-opacity:1;" d="M 242.972656 60.980469 L 246.164062 57.835938 L 251.171875 66.75 Z M 242.972656 60.980469 "/>
<path style=" stroke:none;fill-rule:nonzero;fill:rgb(80.000001%,7.843138%,16.862746%);fill-opacity:1;" d="M 242.351562 57.214844 L 247.121094 58.765625 L 245.449219 47.683594 Z M 242.351562 57.214844 "/>
<path style=" stroke:none;fill-rule:nonzero;fill:rgb(80.000001%,7.843138%,16.862746%);fill-opacity:1;" d="M 248.691406 57.167969 L 244.257812 57.835938 L 245.449219 47.683594 Z M 248.691406 57.167969 "/>
<path style=" stroke:none;fill-rule:nonzero;fill:rgb(80.000001%,7.843138%,16.862746%);fill-opacity:1;" d="M 242.351562 57.214844 L 247.121094 58.765625 L 239.253906 66.75 Z M 242.351562 57.214844 "/>
<path style=" stroke:none;fill-rule:nonzero;fill:rgb(80.000001%,7.843138%,16.862746%);fill-opacity:1;" d="M 247.453125 60.980469 L 244.257812 57.835938 L 239.253906 66.75 Z M 247.453125 60.980469 "/>
<path style=" stroke:none;fill-rule:nonzero;fill:rgb(100%,100%,100%);fill-opacity:1;" d="M 284.960938 88.601562 L 284.960938 95.347656 L 298.457031 88.601562 Z M 284.960938 88.601562 "/>
<path style=" stroke:none;fill-rule:nonzero;fill:rgb(100%,100%,100%);fill-opacity:1;" d="M 287.660156 96.699219 L 284.960938 91.300781 L 298.457031 88.601562 Z M 287.660156 96.699219 "/>
<path style=" stroke:none;fill-rule:nonzero;fill:rgb(100%,100%,100%);fill-opacity:1;" d="M 284.960938 88.601562 L 284.960938 95.347656 L 271.460938 88.601562 Z M 284.960938 88.601562 "/>
<path style=" stroke:none;fill-rule:nonzero;fill:rgb(100%,100%,100%);fill-opacity:1;" d="M 282.257812 96.699219 L 284.960938 91.300781 L 271.460938 88.601562 Z M 282.257812 96.699219 "/>
<path style=" stroke:none;fill-rule:nonzero;fill:rgb(100%,100%,100%);fill-opacity:1;" d="M 288.8125 91.398438 L 282.390625 93.484375 L 292.980469 104.234375 Z M 288.8125 91.398438 "/>
<path style=" stroke:none;fill-rule:nonzero;fill:rgb(100%,100%,100%);fill-opacity:1;" d="M 281.941406 96.46875 L 286.242188 92.234375 L 292.980469 104.234375 Z M 281.941406 96.46875 "/>
<path style=" stroke:none;fill-rule:nonzero;fill:rgb(100%,100%,100%);fill-opacity:1;" d="M 281.109375 91.398438 L 287.527344 93.484375 L 285.28125 78.558594 Z M 281.109375 91.398438 "/>
<path style=" stroke:none;fill-rule:nonzero;fill:rgb(100%,100%,100%);fill-opacity:1;" d="M 289.644531 91.332031 L 283.675781 92.234375 L 285.28125 78.558594 Z M 289.644531 91.332031 "/>
<path style=" stroke:none;fill-rule:nonzero;fill:rgb(100%,100%,100%);fill-opacity:1;" d="M 281.109375 91.398438 L 287.527344 93.484375 L 276.9375 104.234375 Z M 281.109375 91.398438 "/>
<path style=" stroke:none;fill-rule:nonzero;fill:rgb(100%,100%,100%);fill-opacity:1;" d="M 287.976562 96.46875 L 283.675781 92.234375 L 276.9375 104.234375 Z M 287.976562 96.46875 "/>
<path style=" stroke:none;fill-rule:nonzero;fill:rgb(80.000001%,7.843138%,16.862746%);fill-opacity:1;" d="M 284.960938 90.144531 L 284.960938 94.320312 L 293.3125 90.144531 Z M 284.960938 90.144531 "/>
<path style=" stroke:none;fill-rule:nonzero;fill:rgb(80.000001%,7.843138%,16.862746%);fill-opacity:1;" d="M 286.628906 95.15625 L 284.960938 91.8125 L 293.3125 90.144531 Z M 286.628906 95.15625 "/>
<path style=" stroke:none;fill-rule:nonzero;fill:rgb(80.000001%,7.843138%,16.862746%);fill-opacity:1;" d="M 284.960938 90.144531 L 284.960938 94.320312 L 276.605469 90.144531 Z M 284.960938 90.144531 "/>
<path style=" stroke:none;fill-rule:nonzero;fill:rgb(80.000001%,7.843138%,16.862746%);fill-opacity:1;" d="M 283.289062 95.15625 L 284.960938 91.8125 L 276.605469 90.144531 Z M 283.289062 95.15625 "/>
<path style=" stroke:none;fill-rule:nonzero;fill:rgb(80.000001%,7.843138%,16.862746%);fill-opacity:1;" d="M 287.34375 91.875 L 283.371094 93.164062 L 289.925781 99.820312 Z M 287.34375 91.875 "/>
<path style=" stroke:none;fill-rule:nonzero;fill:rgb(80.000001%,7.843138%,16.862746%);fill-opacity:1;" d="M 283.09375 95.011719 L 285.753906 92.390625 L 289.925781 99.820312 Z M 283.09375 95.011719 "/>
<path style=" stroke:none;fill-rule:nonzero;fill:rgb(80.000001%,7.843138%,16.862746%);fill-opacity:1;" d="M 282.578125 91.875 L 286.546875 93.164062 L 285.15625 83.929688 Z M 282.578125 91.875 "/>
<path style=" stroke:none;fill-rule:nonzero;fill:rgb(80.000001%,7.843138%,16.862746%);fill-opacity:1;" d="M 287.859375 91.835938 L 284.164062 92.390625 L 285.15625 83.929688 Z M 287.859375 91.835938 "/>
<path style=" stroke:none;fill-rule:nonzero;fill:rgb(80.000001%,7.843138%,16.862746%);fill-opacity:1;" d="M 282.578125 91.875 L 286.546875 93.164062 L 279.996094 99.820312 Z M 282.578125 91.875 "/>
<path style=" stroke:none;fill-rule:nonzero;fill:rgb(80.000001%,7.843138%,16.862746%);fill-opacity:1;" d="M 286.828125 95.011719 L 284.164062 92.390625 L 279.996094 99.820312 Z M 286.828125 95.011719 "/>
<path style=" stroke:none;fill-rule:nonzero;fill:rgb(100%,100%,100%);fill-opacity:1;" d="M 198.917969 100.207031 L 198.917969 107.792969 L 214.085938 100.207031 Z M 198.917969 100.207031 "/>
<path style=" stroke:none;fill-rule:nonzero;fill:rgb(100%,100%,100%);fill-opacity:1;" d="M 201.953125 109.308594 L 198.917969 103.242188 L 214.085938 100.207031 Z M 201.953125 109.308594 "/>
<path style=" stroke:none;fill-rule:nonzero;fill:rgb(100%,100%,100%);fill-opacity:1;" d="M 198.917969 100.207031 L 198.917969 107.792969 L 183.75 100.207031 Z M 198.917969 100.207031 "/>
<path style=" stroke:none;fill-rule:nonzero;fill:rgb(100%,100%,100%);fill-opacity:1;" d="M 195.882812 109.308594 L 198.917969 103.242188 L 183.75 100.207031 Z M 195.882812 109.308594 "/>
<path style=" stroke:none;fill-rule:nonzero;fill:rgb(100%,100%,100%);fill-opacity:1;" d="M 203.246094 103.351562 L 196.03125 105.695312 L 207.933594 117.777344 Z M 203.246094 103.351562 "/>
<path style=" stroke:none;fill-rule:nonzero;fill:rgb(100%,100%,100%);fill-opacity:1;" d="M 195.527344 109.050781 L 200.359375 104.289062 L 207.933594 117.777344 Z M 195.527344 109.050781 "/>
<path style=" stroke:none;fill-rule:nonzero;fill:rgb(100%,100%,100%);fill-opacity:1;" d="M 194.589844 103.351562 L 201.804688 105.695312 L 199.277344 88.925781 Z M 194.589844 103.351562 "/>
<path style=" stroke:none;fill-rule:nonzero;fill:rgb(100%,100%,100%);fill-opacity:1;" d="M 204.183594 103.277344 L 197.476562 104.289062 L 199.277344 88.925781 Z M 204.183594 103.277344 "/>
<path style=" stroke:none;fill-rule:nonzero;fill:rgb(100%,100%,100%);fill-opacity:1;" d="M 194.589844 103.351562 L 201.804688 105.695312 L 189.902344 117.777344 Z M 194.589844 103.351562 "/>
<path style=" stroke:none;fill-rule:nonzero;fill:rgb(100%,100%,100%);fill-opacity:1;" d="M 202.308594 109.050781 L 197.476562 104.289062 L 189.902344 117.777344 Z M 202.308594 109.050781 "/>
<path style=" stroke:none;fill-rule:nonzero;fill:rgb(80.000001%,7.843138%,16.862746%);fill-opacity:1;" d="M 198.917969 101.75 L 198.917969 106.761719 L 208.941406 101.75 Z M 198.917969 101.75 "/>
<path style=" stroke:none;fill-rule:nonzero;fill:rgb(80.000001%,7.843138%,16.862746%);fill-opacity:1;" d="M 200.921875 107.765625 L 198.917969 103.753906 L 208.941406 101.75 Z M 200.921875 107.765625 "/>
<path style=" stroke:none;fill-rule:nonzero;fill:rgb(80.000001%,7.843138%,16.862746%);fill-opacity:1;" d="M 198.917969 101.75 L 198.917969 106.761719 L 188.894531 101.75 Z M 198.917969 101.75 "/>
<path style=" stroke:none;fill-rule:nonzero;fill:rgb(80.000001%,7.843138%,16.862746%);fill-opacity:1;" d="M 196.914062 107.765625 L 198.917969 103.753906 L 188.894531 101.75 Z M 196.914062 107.765625 "/>
<path style=" stroke:none;fill-rule:nonzero;fill:rgb(80.000001%,7.843138%,16.862746%);fill-opacity:1;" d="M 201.777344 103.828125 L 197.011719 105.375 L 204.875 113.359375 Z M 201.777344 103.828125 "/>
<path style=" stroke:none;fill-rule:nonzero;fill:rgb(80.000001%,7.843138%,16.862746%);fill-opacity:1;" d="M 196.675781 107.59375 L 199.871094 104.449219 L 204.875 113.359375 Z M 196.675781 107.59375 "/>
<path style=" stroke:none;fill-rule:nonzero;fill:rgb(80.000001%,7.843138%,16.862746%);fill-opacity:1;" d="M 196.058594 103.828125 L 200.824219 105.375 L 199.15625 94.292969 Z M 196.058594 103.828125 "/>
<path style=" stroke:none;fill-rule:nonzero;fill:rgb(80.000001%,7.843138%,16.862746%);fill-opacity:1;" d="M 202.398438 103.78125 L 197.964844 104.449219 L 199.15625 94.292969 Z M 202.398438 103.78125 "/>
<path style=" stroke:none;fill-rule:nonzero;fill:rgb(80.000001%,7.843138%,16.862746%);fill-opacity:1;" d="M 196.058594 103.828125 L 200.824219 105.375 L 192.960938 113.359375 Z M 196.058594 103.828125 "/>
<path style=" stroke:none;fill-rule:nonzero;fill:rgb(80.000001%,7.843138%,16.862746%);fill-opacity:1;" d="M 201.15625 107.59375 L 197.964844 104.449219 L 192.960938 113.359375 Z M 201.15625 107.59375 "/>
<path style=" stroke:none;fill-rule:nonzero;fill:rgb(100%,100%,100%);fill-opacity:1;" d="M 245.210938 173.378906 L 245.210938 181.796875 L 262.050781 173.378906 Z M 245.210938 173.378906 "/>
<path style=" stroke:none;fill-rule:nonzero;fill:rgb(100%,100%,100%);fill-opacity:1;" d="M 248.582031 183.480469 L 245.210938 176.746094 L 262.050781 173.378906 Z M 248.582031 183.480469 "/>
<path style=" stroke:none;fill-rule:nonzero;fill:rgb(100%,100%,100%);fill-opacity:1;" d="M 245.210938 173.378906 L 245.210938 181.796875 L 228.371094 173.378906 Z M 245.210938 173.378906 "/>
<path style=" stroke:none;fill-rule:nonzero;fill:rgb(100%,100%,100%);fill-opacity:1;" d="M 241.84375 183.480469 L 245.210938 176.746094 L 228.371094 173.378906 Z M 241.84375 183.480469 "/>
<path style=" stroke:none;fill-rule:nonzero;fill:rgb(100%,100%,100%);fill-opacity:1;" d="M 250.015625 176.867188 L 242.007812 179.472656 L 255.222656 192.882812 Z M 250.015625 176.867188 "/>
<path style=" stroke:none;fill-rule:nonzero;fill:rgb(100%,100%,100%);fill-opacity:1;" d="M 241.449219 183.195312 L 246.8125 177.910156 L 255.222656 192.882812 Z M 241.449219 183.195312 "/>
<path style=" stroke:none;fill-rule:nonzero;fill:rgb(100%,100%,100%);fill-opacity:1;" d="M 240.40625 176.867188 L 248.414062 179.472656 L 245.613281 160.851562 Z M 240.40625 176.867188 "/>
<path style=" stroke:none;fill-rule:nonzero;fill:rgb(100%,100%,100%);fill-opacity:1;" d="M 251.058594 176.789062 L 243.609375 177.910156 L 245.613281 160.851562 Z M 251.058594 176.789062 "/>
<path style=" stroke:none;fill-rule:nonzero;fill:rgb(100%,100%,100%);fill-opacity:1;" d="M 240.40625 176.867188 L 248.414062 179.472656 L 235.203125 192.882812 Z M 240.40625 176.867188 "/>
<path style=" stroke:none;fill-rule:nonzero;fill:rgb(100%,100%,100%);fill-opacity:1;" d="M 248.976562 183.195312 L 243.609375 177.910156 L 235.203125 192.882812 Z M 248.976562 183.195312 "/>
<path style=" stroke:none;fill-rule:nonzero;fill:rgb(80.000001%,7.843138%,16.862746%);fill-opacity:1;" d="M 245.210938 174.921875 L 245.210938 180.769531 L 256.90625 174.921875 Z M 245.210938 174.921875 "/>
<path style=" stroke:none;fill-rule:nonzero;fill:rgb(80.000001%,7.843138%,16.862746%);fill-opacity:1;" d="M 247.550781 181.9375 L 245.210938 177.261719 L 256.90625 174.921875 Z M 247.550781 181.9375 "/>
<path style=" stroke:none;fill-rule:nonzero;fill:rgb(80.000001%,7.843138%,16.862746%);fill-opacity:1;" d="M 245.210938 174.921875 L 245.210938 180.769531 L 233.519531 174.921875 Z M 245.210938 174.921875 "/>
<path style=" stroke:none;fill-rule:nonzero;fill:rgb(80.000001%,7.843138%,16.862746%);fill-opacity:1;" d="M 242.875 181.9375 L 245.210938 177.261719 L 233.519531 174.921875 Z M 242.875 181.9375 "/>
<path style=" stroke:none;fill-rule:nonzero;fill:rgb(80.000001%,7.843138%,16.862746%);fill-opacity:1;" d="M 248.550781 177.347656 L 242.988281 179.152344 L 252.164062 188.46875 Z M 248.550781 177.347656 "/>
<path style=" stroke:none;fill-rule:nonzero;fill:rgb(80.000001%,7.843138%,16.862746%);fill-opacity:1;" d="M 242.597656 181.738281 L 246.324219 178.070312 L 252.164062 188.46875 Z M 242.597656 181.738281 "/>
<path style=" stroke:none;fill-rule:nonzero;fill:rgb(80.000001%,7.843138%,16.862746%);fill-opacity:1;" d="M 241.875 177.347656 L 247.4375 179.152344 L 245.488281 166.222656 Z M 241.875 177.347656 "/>
<path style=" stroke:none;fill-rule:nonzero;fill:rgb(80.000001%,7.843138%,16.862746%);fill-opacity:1;" d="M 249.273438 177.289062 L 244.101562 178.070312 L 245.488281 166.222656 Z M 249.273438 177.289062 "/>
<path style=" stroke:none;fill-rule:nonzero;fill:rgb(80.000001%,7.843138%,16.862746%);fill-opacity:1;" d="M 241.875 177.347656 L 247.4375 179.152344 L 238.261719 188.46875 Z M 241.875 177.347656 "/>
<path style=" stroke:none;fill-rule:nonzero;fill:rgb(80.000001%,7.843138%,16.862746%);fill-opacity:1;" d="M 247.828125 181.738281 L 244.101562 178.070312 L 238.261719 188.46875 Z M 247.828125 181.738281 "/>
<path style=" stroke:none;fill-rule:nonzero;fill:rgb(0.392157%,12.941177%,41.176471%);fill-opacity:1;" d="M 0 0 L 160 0 L 160 120 L 0 120 Z M 0 0 "/>
<path style=" stroke:none;fill-rule:nonzero;fill:rgb(100%,100%,100%);fill-opacity:1;" d="M 18.75 0 L 79.75 45.25 L 140.5 0 L 160 0 L 160 15.5 L 100 60.25 L 160 104.75 L 160 120 L 140 120 L 80 75.25 L 20.25 120 L 0 120 L 0 105 L 59.75 60.5 L 0 16 L 0 0 Z M 18.75 0 "/>
<path style=" stroke:none;fill-rule:nonzero;fill:rgb(78.431374%,6.27451%,18.039216%);fill-opacity:1;" d="M 106 70.25 L 160 110 L 160 120 L 92.25 70.25 Z M 60 75.25 L 61.5 84 L 13.5 120 L 0 120 Z M 160 0 L 160 0.75 L 97.75 47.75 L 98.25 36.75 L 147.5 0 Z M 0 0 L 59.75 44 L 44.75 44 L 0 10.5 Z M 0 0 "/>
<path style=" stroke:none;fill-rule:nonzero;fill:rgb(100%,100%,100%);fill-opacity:1;" d="M 60.25 0 L 60.25 120 L 100.25 120 L 100.25 0 Z M 0 40 L 0 80 L 160 80 L 160 40 Z M 0 40 "/>
<path style=" stroke:none;fill-rule:nonzero;fill:rgb(78.431374%,6.27451%,18.039216%);fill-opacity:1;" d="M 0 48.25 L 0 72.25 L 160 72.25 L 160 48.25 Z M 68.25 0 L 68.25 120 L 92.25 120 L 92.25 0 Z M 68.25 0 "/>
</g>
</svg>
