<?xml version="1.0" encoding="UTF-8"?>
<svg xmlns="http://www.w3.org/2000/svg" xmlns:xlink="http://www.w3.org/1999/xlink" width="px" height="px" viewBox="0 0 320 240" version="1.1">
<g id="surface1">
<rect x="0" y="0" width="320" height="240" style="fill:rgb(0%,23.921569%,64.705884%);fill-opacity:1;stroke:none;"/>
<path style=" stroke:none;fill-rule:nonzero;fill:rgb(100%,100%,100%);fill-opacity:1;" d="M 75.273438 133.023438 L 79.113281 131.164062 L 78.492188 126.921875 L 81.480469 129.976562 L 85.308594 128.070312 L 83.355469 131.839844 L 86.296875 134.910156 L 82.101562 134.21875 L 80.148438 137.988281 L 79.480469 133.761719 Z M 75.273438 133.023438 "/>
<path style=" stroke:none;fill-rule:nonzero;fill:rgb(100%,100%,100%);fill-opacity:1;" d="M 236.449219 131.398438 L 232.25 132.148438 L 231.699219 136.398438 L 229.648438 132.648438 L 225.449219 133.449219 L 228.351562 130.351562 L 226.351562 126.601562 L 230.199219 128.398438 L 233.101562 125.300781 L 232.601562 129.550781 Z M 236.449219 131.398438 "/>
<path style=" stroke:none;fill-rule:nonzero;fill:rgb(100%,100%,100%);fill-opacity:1;" d="M 236.992188 116.804688 L 232.992188 118.292969 L 233.210938 122.574219 L 230.523438 119.25 L 226.535156 120.789062 L 228.832031 117.21875 L 226.195312 113.886719 L 230.304688 114.96875 L 232.605469 111.402344 L 232.871094 115.671875 Z M 236.992188 116.804688 "/>
<path style=" stroke:none;fill-rule:nonzero;fill:rgb(100%,100%,100%);fill-opacity:1;" d="M 230.285156 88.496094 L 227.066406 91.296875 L 228.777344 95.226562 L 225.09375 93.058594 L 221.898438 95.902344 L 222.796875 91.753906 L 219.152344 89.5625 L 223.382812 89.128906 L 224.277344 84.980469 L 226.03125 88.886719 Z M 230.285156 88.496094 "/>
<path style=" stroke:none;fill-rule:nonzero;fill:rgb(100%,100%,100%);fill-opacity:1;" d="M 234.914062 102.347656 L 231.246094 104.527344 L 232.226562 108.699219 L 228.988281 105.910156 L 225.339844 108.136719 L 226.960938 104.214844 L 223.769531 101.410156 L 228.007812 101.738281 L 229.632812 97.816406 L 230.660156 101.96875 Z M 234.914062 102.347656 "/>
<path style=" stroke:none;fill-rule:nonzero;fill:rgb(100%,100%,100%);fill-opacity:1;" d="M 214.046875 64.355469 L 212.019531 68.109375 L 215.003906 71.183594 L 210.792969 70.457031 L 208.804688 74.242188 L 208.183594 70.039062 L 204.003906 69.273438 L 207.808594 67.378906 L 207.1875 63.179688 L 210.203125 66.21875 Z M 214.046875 64.355469 "/>
<path style=" stroke:none;fill-rule:nonzero;fill:rgb(100%,100%,100%);fill-opacity:1;" d="M 190.355469 47.472656 L 189.777344 51.699219 L 193.652344 53.527344 L 189.453125 54.328125 L 188.925781 58.570312 L 186.867188 54.855469 L 182.683594 55.609375 L 185.578125 52.496094 L 183.519531 48.785156 L 187.410156 50.566406 Z M 190.355469 47.472656 "/>
<path style=" stroke:none;fill-rule:nonzero;fill:rgb(100%,100%,100%);fill-opacity:1;" d="M 202.960938 54.847656 L 201.636719 58.902344 L 205.125 61.394531 L 200.851562 61.429688 L 199.570312 65.507812 L 198.210938 61.488281 L 193.960938 61.480469 L 197.363281 58.9375 L 196.003906 54.914062 L 199.511719 57.363281 Z M 202.960938 54.847656 "/>
<path style=" stroke:none;fill-rule:nonzero;fill:rgb(100%,100%,100%);fill-opacity:1;" d="M 223.253906 75.695312 L 220.589844 79.023438 L 222.972656 82.585938 L 218.960938 81.113281 L 216.328125 84.480469 L 216.46875 80.238281 L 212.492188 78.734375 L 216.574219 77.554688 L 216.714844 73.308594 L 219.140625 76.835938 Z M 223.253906 75.695312 "/>
<path style=" stroke:none;fill-rule:nonzero;fill:rgb(100%,100%,100%);fill-opacity:1;" d="M 162.238281 40.003906 L 163.183594 44.164062 L 167.457031 44.511719 L 163.804688 46.738281 L 164.804688 50.894531 L 161.570312 48.144531 L 157.917969 50.320312 L 159.535156 46.390625 L 156.300781 43.636719 L 160.570312 43.9375 Z M 162.238281 40.003906 "/>
<path style=" stroke:none;fill-rule:nonzero;fill:rgb(100%,100%,100%);fill-opacity:1;" d="M 133.289062 42.90625 L 135.640625 46.46875 L 139.761719 45.292969 L 137.128906 48.660156 L 139.523438 52.199219 L 135.527344 50.761719 L 132.875 54.082031 L 133.007812 49.835938 L 129.011719 48.398438 L 133.113281 47.175781 Z M 133.289062 42.90625 "/>
<path style=" stroke:none;fill-rule:nonzero;fill:rgb(100%,100%,100%);fill-opacity:1;" d="M 147.632812 40.152344 L 149.308594 44.074219 L 153.574219 43.65625 L 150.378906 46.496094 L 152.105469 50.410156 L 148.429688 48.28125 L 145.226562 51.070312 L 146.117188 46.914062 L 142.441406 44.789062 L 146.695312 44.320312 Z M 147.632812 40.152344 "/>
<path style=" stroke:none;fill-rule:nonzero;fill:rgb(100%,100%,100%);fill-opacity:1;" d="M 107.214844 55.808594 L 110.667969 58.316406 L 114.109375 55.765625 L 112.828125 59.84375 L 116.320312 62.3125 L 112.074219 62.375 L 110.757812 66.414062 L 109.386719 62.394531 L 105.140625 62.453125 L 108.550781 59.867188 Z M 107.214844 55.808594 "/>
<path style=" stroke:none;fill-rule:nonzero;fill:rgb(100%,100%,100%);fill-opacity:1;" d="M 87.34375 77.0625 L 91.460938 78.191406 L 93.785156 74.59375 L 94.019531 78.859375 L 98.15625 79.945312 L 94.203125 81.496094 L 94.394531 85.742188 L 91.695312 82.460938 L 87.742188 84.007812 L 90.023438 80.386719 Z M 87.34375 77.0625 "/>
<path style=" stroke:none;fill-rule:nonzero;fill:rgb(100%,100%,100%);fill-opacity:1;" d="M 96.320312 65.539062 L 100.167969 67.386719 L 103.097656 64.261719 L 102.570312 68.503906 L 106.441406 70.3125 L 102.277344 71.128906 L 101.707031 75.339844 L 99.636719 71.628906 L 95.472656 72.445312 L 98.363281 69.292969 Z M 96.320312 65.539062 "/>
<path style=" stroke:none;fill-rule:nonzero;fill:rgb(100%,100%,100%);fill-opacity:1;" d="M 119.671875 48.183594 L 122.621094 51.265625 L 126.464844 49.371094 L 124.472656 53.15625 L 127.464844 56.210938 L 123.277344 55.511719 L 121.261719 59.253906 L 120.628906 55.050781 L 116.445312 54.347656 L 120.261719 52.414062 Z M 119.671875 48.183594 "/>
<path style=" stroke:none;fill-rule:nonzero;fill:rgb(100%,100%,100%);fill-opacity:1;" d="M 176.632812 42.472656 L 176.820312 46.734375 L 180.960938 47.839844 L 176.972656 49.375 L 177.210938 53.644531 L 174.519531 50.359375 L 170.539062 51.847656 L 172.832031 48.269531 L 170.144531 44.984375 L 174.289062 46.042969 Z M 176.632812 42.472656 "/>
<path style=" stroke:none;fill-rule:nonzero;fill:rgb(100%,100%,100%);fill-opacity:1;" d="M 76.226562 103.945312 L 80.472656 103.554688 L 81.382812 99.367188 L 83.105469 103.28125 L 87.359375 102.839844 L 84.207031 105.683594 L 85.878906 109.589844 L 82.195312 107.46875 L 79.042969 110.308594 L 79.902344 106.117188 Z M 76.226562 103.945312 "/>
<path style=" stroke:none;fill-rule:nonzero;fill:rgb(100%,100%,100%);fill-opacity:1;" d="M 74.4375 118.441406 L 78.550781 117.296875 L 78.695312 113.015625 L 81.089844 116.554688 L 85.195312 115.363281 L 82.601562 118.722656 L 84.945312 122.269531 L 80.945312 120.839844 L 78.347656 124.199219 L 78.445312 119.917969 Z M 74.4375 118.441406 "/>
<path style=" stroke:none;fill-rule:nonzero;fill:rgb(100%,100%,100%);fill-opacity:1;" d="M 84.613281 160.574219 L 87.554688 157.484375 L 85.480469 153.734375 L 89.355469 155.542969 L 92.265625 152.410156 L 91.761719 156.625 L 95.59375 158.464844 L 91.425781 159.292969 L 90.925781 163.507812 L 88.8125 159.785156 Z M 84.613281 160.574219 "/>
<path style=" stroke:none;fill-rule:nonzero;fill:rgb(100%,100%,100%);fill-opacity:1;" d="M 103.050781 183.078125 L 104.714844 179.152344 L 101.457031 176.371094 L 105.71875 176.699219 L 107.339844 172.746094 L 108.355469 176.867188 L 112.585938 177.238281 L 108.976562 179.480469 L 109.992188 183.605469 L 106.703125 180.863281 Z M 103.050781 183.078125 "/>
<path style=" stroke:none;fill-rule:nonzero;fill:rgb(100%,100%,100%);fill-opacity:1;" d="M 92.816406 172.65625 L 95.160156 169.089844 L 92.449219 165.769531 L 96.582031 166.859375 L 98.886719 163.257812 L 99.148438 167.492188 L 103.246094 168.617188 L 99.292969 170.179688 L 99.550781 174.414062 L 96.808594 171.132812 Z M 92.816406 172.65625 "/>
<path style=" stroke:none;fill-rule:nonzero;fill:rgb(100%,100%,100%);fill-opacity:1;" d="M 78.703125 147.21875 L 82.148438 144.703125 L 80.78125 140.644531 L 84.265625 143.113281 L 87.691406 140.554688 L 86.441406 144.613281 L 89.882812 147.105469 L 85.632812 147.175781 L 84.386719 151.234375 L 82.972656 147.195312 Z M 78.703125 147.21875 "/>
<path style=" stroke:none;fill-rule:nonzero;fill:rgb(100%,100%,100%);fill-opacity:1;" d="M 80.574219 90 L 84.824219 90.378906 L 86.46875 86.421875 L 87.464844 90.578125 L 91.726562 90.90625 L 88.113281 93.136719 L 89.0625 97.28125 L 85.820312 94.535156 L 82.207031 96.765625 L 83.804688 92.796875 Z M 80.574219 90 "/>
<path style=" stroke:none;fill-rule:nonzero;fill:rgb(100%,100%,100%);fill-opacity:1;" d="M 114.980469 191.503906 L 115.917969 187.339844 L 112.214844 185.1875 L 116.464844 184.75 L 117.355469 180.566406 L 119.089844 184.441406 L 123.320312 184.050781 L 120.167969 186.902344 L 121.902344 190.777344 L 118.179688 188.671875 Z M 114.980469 191.503906 "/>
<path style=" stroke:none;fill-rule:nonzero;fill:rgb(100%,100%,100%);fill-opacity:1;" d="M 128.226562 197.65625 L 128.40625 193.394531 L 124.375 191.9375 L 128.480469 190.75 L 128.605469 186.476562 L 131.003906 189.976562 L 135.101562 188.835938 L 132.507812 192.207031 L 134.90625 195.707031 L 130.867188 194.300781 Z M 128.226562 197.65625 "/>
<path style="fill:none;stroke-width:13.7;stroke-linecap:butt;stroke-linejoin:miter;stroke:rgb(0%,68.235296%,78.039217%);stroke-opacity:1;stroke-miterlimit:4;" d="M 444.898438 313 C 415.53125 368.265625 355.109375 399.6875 293 392 " transform="matrix(0.5,0,0,0.5,0,0)"/>
<path style=" stroke:none;fill-rule:nonzero;fill:rgb(100%,100%,100%);fill-opacity:1;" d="M 237.148438 144.25 C 237.148438 144.25 224.5 138.601562 199 138.5 C 173.5 138.398438 146.398438 145.449219 131.449219 145.25 C 116.449219 145.101562 112.050781 145.101562 103.101562 143.398438 C 103.101562 143.398438 116.601562 147.898438 131 149.199219 C 145.351562 150.550781 178.601562 144 195.199219 142.949219 C 212.199219 141.898438 225.398438 141.898438 237.101562 144.25 "/>
<path style=" stroke:none;fill-rule:nonzero;fill:rgb(0%,68.235296%,78.039217%);fill-opacity:1;" d="M 137.5 151.601562 C 137.5 151.601562 147.101562 152.101562 165.5 150.101562 C 184 148.101562 197 145.398438 211.550781 145 C 226.101562 144.601562 242.148438 147.199219 245.550781 148.050781 C 245.550781 148.050781 221.300781 147.398438 211.148438 148.851562 C 201 150.300781 174.648438 153.601562 160.800781 153.949219 C 146.949219 154.300781 142.148438 152.351562 137.5 151.601562 M 97.25 137.699219 C 97.25 137.699219 122.75 144.5 145.851562 140.050781 C 172 134.949219 187.351562 135.050781 199.050781 135.050781 C 210.75 134.949219 223 137.898438 223 137.898438 C 223 137.898438 175 87.800781 124.75 61.25 C 124.75 61.25 121 103.5 97.25 137.699219 "/>
<path style=" stroke:none;fill-rule:nonzero;fill:rgb(100%,100%,100%);fill-opacity:1;" d="M 137.101562 98.75 C 137.101562 98.75 136.398438 96.101562 132.949219 96.5 C 132.949219 96.5 135.148438 95.5 136.148438 96 C 137.148438 96.550781 137.351562 96.699219 137.148438 98.75 M 128.75 94.050781 C 128.75 94.050781 129.5 93.800781 129.851562 93.898438 C 129.851562 93.898438 130.351562 95.550781 131.449219 96.148438 C 131.449219 96.148438 129.550781 96 128.75 94.050781 M 139.851562 96.550781 C 138.773438 95.207031 137.210938 94.34375 135.5 94.148438 C 134.601562 94.148438 132.5 95.898438 132.5 95.898438 C 132 94.898438 132.25 94.199219 132.25 94.199219 C 133.25 94.300781 134.101562 94.699219 134.101562 94.699219 C 133.699219 93.398438 133.101562 92.800781 133.101562 92.800781 C 135.101562 92.300781 137.5 94.050781 137.5 94.050781 C 136.1875 92.238281 134.210938 91.015625 132 90.648438 C 131.398438 90.601562 130.648438 91.449219 130.648438 91.449219 C 126.75 91.449219 125.699219 93.601562 125.699219 93.601562 C 127.351562 96.148438 130.699219 96.75 130.699219 96.75 C 124.800781 96.101562 124.949219 100.75 124.949219 100.75 L 130.398438 97.898438 C 128.300781 109.949219 119.898438 115.398438 119.199219 116.050781 C 118.5 116.75 118.949219 117.550781 119.949219 117.648438 C 120.5 117.648438 121.199219 118.148438 123.050781 115.949219 C 127.53125 111.027344 130.394531 104.851562 131.25 98.25 L 131.351562 98.351562 C 131.949219 99.800781 131.550781 101.050781 131.648438 102 C 131.75 102.949219 133.851562 105 133.851562 105 C 133.851562 105 135 102.75 134.851562 101.449219 C 134.601562 100.101562 132.101562 97.648438 132.101562 97.648438 C 136 96.898438 136.199219 103.449219 136.199219 103.449219 C 137.699219 101.699219 137.398438 99.800781 137.398438 99.800781 C 137.398438 99.800781 140.550781 97.5 139.851562 96.601562 "/>
</g>
</svg>
