<?xml version="1.0" encoding="UTF-8"?>
<svg xmlns="http://www.w3.org/2000/svg" xmlns:xlink="http://www.w3.org/1999/xlink" width="px" height="px" viewBox="0 0 320 240" version="1.1">
<g id="surface1">
<rect x="0" y="0" width="320" height="240" style="fill:rgb(100%,100%,100%);fill-opacity:1;stroke:none;"/>
<path style=" stroke:none;fill-rule:nonzero;fill:rgb(100%,100%,100%);fill-opacity:1;" d="M 40 0 L 280 0 L 280 240 L 40 240 Z M 40 0 "/>
<path style="fill-rule:evenodd;fill:rgb(3.137255%,23.921569%,61.176473%);fill-opacity:1;stroke-width:2.5;stroke-linecap:butt;stroke-linejoin:miter;stroke:rgb(3.137255%,23.921569%,61.176473%);stroke-opacity:1;stroke-miterlimit:4;" d="M 277.296875 340.796875 C 277.296875 340.796875 288.101562 332 298.703125 332 C 309.296875 332 312.101562 339.296875 319.5 339.898438 C 326.796875 340.5 332.898438 332.601562 342 332.296875 C 351.101562 332 362.5 338.703125 362.5 338.703125 L 322.703125 350.703125 L 277.296875 340.703125 Z M 254.398438 327.796875 L 389.796875 328.5 C 389.796875 328.5 378.101562 315.796875 364.296875 315.5 C 350.5 315.296875 354.296875 321.5 343.796875 322.296875 C 333.203125 323.203125 330.601562 315.898438 320.898438 316.101562 C 311.203125 316.296875 305.703125 322.296875 298.398438 322.601562 C 291.101562 322.898438 281.703125 315.296875 276.101562 315.601562 C 270.5 315.898438 250.601562 324.296875 250.601562 324.296875 L 254.398438 327.898438 Z M 237.101562 311.796875 L 404.101562 312.296875 C 406.796875 308.5 395.898438 299.398438 386 298.601562 C 377.796875 298.898438 372 307.101562 365.203125 307.398438 C 358.398438 307.703125 350.796875 298.898438 343.203125 299.203125 C 335.601562 299.5 327.703125 307.398438 320.101562 307.398438 C 312.5 307.398438 306.898438 298.898438 297.203125 298.898438 C 287.5 298.898438 283.203125 308.203125 275.796875 307.703125 C 268.398438 307.203125 262 298.296875 255 298.296875 C 248 298.296875 236.296875 308.796875 234 308.296875 C 231.601562 307.601562 236.898438 312.601562 237.101562 311.703125 Z M 237.101562 311.796875 " transform="matrix(0.5,0,0,0.5,0,0)"/>
<path style="fill-rule:evenodd;fill:rgb(100%,0%,0%);fill-opacity:1;stroke-width:2.5;stroke-linecap:butt;stroke-linejoin:round;stroke:rgb(0%,0%,0%);stroke-opacity:1;stroke-miterlimit:4;" d="M 301.296875 218.898438 L 339.703125 229.101562 L 339.703125 174.296875 C 322.101562 175.296875 307.5 140.898438 338.5 138.601562 C 308 134.203125 304.5 142.101562 301 150.601562 Z M 301.296875 218.898438 " transform="matrix(0.5,0,0,0.5,0,0)"/>
<path style="fill-rule:evenodd;fill:rgb(3.137255%,23.921569%,61.176473%);fill-opacity:1;stroke-width:5;stroke-linecap:round;stroke-linejoin:miter;stroke:rgb(3.137255%,23.921569%,61.176473%);stroke-opacity:1;stroke-miterlimit:4;" d="M 277 258.703125 L 363.703125 259 " transform="matrix(0.5,0,0,0.5,0,0)"/>
<path style="fill:none;stroke-width:4;stroke-linecap:round;stroke-linejoin:miter;stroke:rgb(0%,0%,0%);stroke-opacity:1;stroke-miterlimit:4;" d="M 281.101562 238 L 291.398438 251.703125 M 281.101562 251.703125 L 292.203125 238.203125 M 287 237 L 286.703125 245.5 M 297.5 237.898438 L 307.796875 251.703125 M 297.5 251.703125 L 308.601562 238.203125 M 303.398438 237 L 303.101562 245.5 M 314.203125 237.898438 L 324.5 251.703125 M 314.203125 251.703125 L 325.296875 238.203125 M 320.101562 237 L 319.796875 245.5 M 331.5 237.898438 L 341.703125 251.703125 M 331.5 251.703125 L 342.601562 238.203125 M 337.296875 237 L 337.101562 245.5 M 348.101562 237.898438 L 358.398438 251.703125 M 348.203125 251.703125 L 359.296875 238.203125 M 354 237 L 353.703125 245.5 " transform="matrix(0.5,0,0,0.5,0,0)"/>
<path style=" stroke:none;fill-rule:evenodd;fill:rgb(93.725491%,49.019608%,3.137255%);fill-opacity:1;" d="M 109.351562 129.800781 L 127.800781 129.949219 L 127.800781 118.398438 L 106.699219 117.351562 Z M 108.449219 113.800781 L 128.101562 115.75 L 127.949219 107.550781 L 108.75 99.898438 L 108.449219 113.851562 Z M 112.449219 97.449219 L 127.5 104.75 L 129.648438 102.5 C 129.648438 102.5 128.25 101.550781 128.351562 100.648438 C 128.351562 99.800781 129.75 99.648438 129.75 98.648438 C 129.75 97.800781 128.25 97.648438 128.199219 96.800781 C 128.101562 95.800781 129.398438 94.800781 129.398438 94.800781 L 115.800781 82.949219 L 112.398438 97.449219 Z M 211.449219 129.949219 L 191.949219 129.949219 L 191.800781 118.648438 L 213.199219 117.050781 Z M 192.101562 116 L 215.25 113.199219 L 210.25 99.851562 L 191.949219 107.648438 Z M 208.949219 96.199219 L 192.25 105 C 192 104 191.800781 103.101562 190.648438 102.351562 C 190.648438 102.351562 191.648438 101.75 191.648438 100.75 C 191.648438 99.75 190.351562 99.550781 190.351562 99 C 190.351562 98.449219 191.550781 97.898438 191.648438 96.550781 C 191.5 95.648438 190.351562 94.351562 190.550781 94.101562 L 203.550781 84.199219 Z M 172.75 115.75 L 181.101562 115.398438 L 181.25 112.050781 Z M 147.25 115.5 L 138.5 115.25 L 138.5 111.75 L 147.300781 115.5 Z M 147.25 114.5 L 138.5 110 L 138.5 104.101562 C 138.5 104.101562 137.5 104.25 137.601562 103.101562 C 137.648438 100.648438 144.050781 107.550781 147.300781 109.800781 Z M 172.75 113.949219 L 172.75 110.101562 C 172.75 110.101562 180.648438 103 182.300781 101.648438 C 182.300781 103.148438 181.398438 104.25 181.398438 104.25 L 181.398438 109.851562 Z M 121.5 81.898438 L 130.398438 91.75 C 130.601562 90.851562 132.648438 90.699219 134.699219 90.851562 C 136.75 91 138.351562 90.699219 138.351562 92.148438 C 138.351562 93.601562 137.351562 93.398438 137.351562 94.449219 C 137.351562 95.5 138.851562 95.398438 138.851562 96.699219 C 138.851562 98 137.75 97.75 137.75 98.75 C 137.75 99.601562 138.949219 99.648438 138.949219 99.648438 L 147.25 107.699219 L 147.25 99.101562 L 130.148438 72.25 Z M 135.199219 71.699219 L 146.851562 95.449219 C 146.851562 95.449219 146.949219 73.550781 148.898438 72.398438 L 145.648438 66.398438 Z M 185.699219 72.648438 L 172.699219 95.75 L 172.699219 86 C 172.699219 86 173.800781 84.398438 172.101562 84.5 C 170.398438 84.601562 168.351562 84.398438 168.351562 84.398438 L 173.550781 66.101562 Z M 199 82.5 C 198.851562 82.75 190.25 91.5 190.25 91.5 C 189.851562 90.5 187.25 91 184.75 91 C 182.25 91 181.949219 91.800781 182.101562 92.449219 C 182.351562 94.101562 183.199219 92.851562 183.199219 94.449219 C 183.199219 96 182 95.449219 181.851562 96.550781 C 182 97.898438 183.75 97.550781 182.699219 98.550781 L 172.75 108.148438 L 172.75 99.050781 L 191.300781 70.25 Z M 199 82.5 "/>
<path style="fill-rule:evenodd;fill:rgb(100%,0%,0%);fill-opacity:1;stroke-width:2.5;stroke-linecap:butt;stroke-linejoin:round;stroke:rgb(0%,0%,0%);stroke-opacity:1;stroke-miterlimit:4;" d="M 309.796875 268.398438 C 301.5 282.203125 279.203125 278.101562 273.898438 268.398438 C 272.398438 268 273.296875 208.898438 273.296875 208.898438 C 273.296875 208.898438 270.796875 207.796875 270.703125 205.898438 C 270.601562 204 274.101562 203.898438 274.101562 201.601562 C 274.101562 199.296875 270.5 200.203125 270.398438 197.796875 C 270.398438 195.601562 274.296875 195.796875 274.101562 193.796875 C 273.898438 191.398438 269.796875 191.796875 269.601562 189.601562 C 269.601562 187.898438 272.601562 186.398438 273.398438 185.601562 L 270.601562 185.601562 L 264.203125 185.703125 C 259.601562 185.703125 264.203125 186.703125 264.203125 189.296875 C 264.203125 191 261.898438 192.203125 261.703125 193.601562 C 261.601562 195.203125 264.898438 196.203125 265 198.101562 C 265 199.703125 261.703125 199.796875 261.796875 201.398438 C 262 203.898438 264.796875 204.5 264.703125 206.101562 C 264.703125 207.601562 261.101562 208.203125 261 209.398438 C 261.203125 211.796875 261.601562 270.203125 261.601562 270.203125 C 267.296875 300 300.398438 307.5 309.796875 268.398438 Z M 331.703125 268.398438 C 340 282.203125 362.296875 278.101562 367.5 268.398438 C 369.101562 268 368.203125 208.898438 368.203125 208.898438 C 368.203125 208.898438 370.703125 207.796875 370.796875 205.898438 C 370.898438 204 367.601562 203.898438 367.601562 201.601562 C 367.601562 199.296875 371 200.203125 371 197.796875 C 371 195.601562 367.5 195.796875 367.703125 193.601562 C 367.898438 191.398438 370.703125 191.601562 370.796875 189.398438 C 370.898438 187.5 369.101562 186.398438 368.203125 185.601562 L 370.898438 185.601562 L 377.296875 185.703125 C 381.796875 185.703125 377.296875 186.703125 377.296875 189.296875 C 377.296875 191 379.601562 192.203125 379.796875 193.601562 C 379.796875 195.203125 376.601562 196.203125 376.5 198.101562 C 376.5 199.703125 379.796875 199.796875 379.703125 201.398438 C 379.5 203.898438 376.703125 204.5 376.703125 206.101562 C 376.796875 207.601562 380.398438 208.203125 380.398438 209.398438 L 379.898438 270.203125 C 374.203125 300 341 307.5 331.703125 268.398438 Z M 331.703125 268.398438 " transform="matrix(0.5,0,0,0.5,0,0)"/>
<path style="fill-rule:evenodd;fill:rgb(3.137255%,23.921569%,61.176473%);fill-opacity:1;stroke-width:2.5;stroke-linecap:butt;stroke-linejoin:miter;stroke:rgb(3.137255%,23.921569%,61.176473%);stroke-opacity:1;stroke-miterlimit:4;" d="M 301.703125 295.601562 L 339 295.601562 C 339.296875 295.296875 330.601562 282.601562 320.398438 283.601562 C 308.898438 283.898438 301.101562 295.601562 301.703125 295.601562 Z M 420.601562 294.601562 L 369.601562 294.601562 C 369.601562 294.601562 376.203125 290.796875 378 287.203125 C 381.296875 289 380.398438 290.796875 387 291.101562 C 393.601562 291.398438 399.898438 283.601562 406.203125 283.898438 C 412.5 284.203125 420.601562 294.898438 420.601562 294.703125 Z M 219.601562 294.601562 L 270.601562 294.601562 C 270.601562 294.601562 264 290.796875 262.203125 287.203125 C 258.898438 289 259.796875 290.796875 253.203125 291.101562 C 246.601562 291.398438 240.203125 283.601562 234 283.898438 C 227.703125 284.203125 219.601562 294.898438 219.601562 294.703125 Z M 223.398438 278.601562 L 259.703125 278.898438 C 259.703125 278.898438 257.398438 273.898438 257.101562 267.796875 C 247.703125 264.601562 240.101562 274.796875 233.296875 275.101562 C 226.601562 275.398438 219.601562 267.796875 219.601562 267.796875 Z M 417.398438 278.601562 L 381 278.898438 C 381 278.898438 383.296875 273.898438 383.601562 267.796875 C 393 264.601562 400.601562 274.796875 407.398438 275.101562 C 414.101562 275.398438 421.101562 267.796875 421.101562 267.796875 Z M 311 279 L 329.398438 278.5 C 329.398438 278.5 329.703125 272.898438 320.101562 272.898438 C 310.5 272.898438 311.296875 279.296875 311 279 Z M 299.796875 271.101562 C 303.3125 269.5625 306.203125 266.882812 308 263.5 L 295.398438 263.796875 C 295.398438 263.796875 289.601562 267.296875 286.703125 271.101562 Z M 340.601562 271.101562 C 337.085938 269.5625 334.195312 266.882812 332.398438 263.5 L 345 263.796875 C 345 263.796875 350.796875 267.296875 353.703125 271.101562 Z M 340.601562 271.101562 " transform="matrix(0.5,0,0,0.5,0,0)"/>
<path style=" stroke:none;fill-rule:evenodd;fill:rgb(87.058824%,12.54902%,6.27451%);fill-opacity:1;" d="M -20 180 L 340 180 L 340 240 L -20 240 Z M -20 0 L 340 0 L 340 60 L -20 60 Z M -20 0 "/>
</g>
</svg>
