<?xml version="1.0" encoding="UTF-8"?>
<svg xmlns="http://www.w3.org/2000/svg" xmlns:xlink="http://www.w3.org/1999/xlink" width="px" height="px" viewBox="0 0 320 240" version="1.1">
<defs>
<clipPath id="clip1">
  <path d="M 0 0 L 319.953125 0 L 319.953125 240 L 0 240 Z M 0 0 "/>
</clipPath>
</defs>
<g id="surface1">
<g clip-path="url(#clip1)" clip-rule="nonzero">
<rect x="0" y="0" width="320" height="240" style="fill:rgb(4.705882%,34.901962%,4.313726%);fill-opacity:1;stroke:none;"/>
</g>
<path style=" stroke:none;fill-rule:evenodd;fill:rgb(100%,100%,100%);fill-opacity:1;" d="M -20.03125 0 L 70.203125 0 L 70.203125 240 L -20.03125 240 Z M -20.03125 0 "/>
<path style=" stroke:none;fill-rule:evenodd;fill:rgb(100%,100%,100%);fill-opacity:1;" d="M 213.734375 105.65625 L 199.109375 102.5625 L 191.421875 115.359375 L 189.828125 100.546875 L 175.296875 97.171875 L 188.890625 91.078125 L 187.625 76.21875 L 197.65625 87.28125 L 211.390625 81.46875 L 203.9375 94.40625 L 213.78125 105.65625 Z M 213.734375 105.65625 "/>
<path style=" stroke:none;fill-rule:evenodd;fill:rgb(100%,100%,100%);fill-opacity:1;" d="M 219.21875 143.4375 C 212.9375 157.203125 201.417969 167.890625 187.21875 173.117188 C 173.019531 178.347656 157.320312 177.6875 143.609375 171.28125 C 129.824219 164.914062 119.140625 153.324219 113.910156 139.070312 C 108.675781 124.820312 109.328125 109.070312 115.71875 95.296875 C 122.144531 80.992188 134.289062 70.050781 149.1875 65.15625 C 147.257812 66.761719 145.410156 68.46875 143.65625 70.265625 C 124.648438 91.316406 125.734375 123.644531 146.117188 143.371094 C 166.5 163.097656 198.847656 163.125 219.265625 143.4375 Z M 219.21875 143.4375 "/>
</g>
</svg>
