<?xml version="1.0" encoding="UTF-8"?>
<svg xmlns="http://www.w3.org/2000/svg" xmlns:xlink="http://www.w3.org/1999/xlink" width="px" height="px" viewBox="0 0 320 240" version="1.1">
<g id="surface1">
<rect x="0" y="0" width="320" height="240" style="fill:rgb(0%,14.117648%,49.019608%);fill-opacity:1;stroke:none;"/>
<path style=" stroke:none;fill-rule:nonzero;fill:rgb(0.392157%,12.941177%,41.176471%);fill-opacity:1;" d="M 0 0 L 160 0 L 160 120 L 0 120 Z M 0 0 "/>
<path style=" stroke:none;fill-rule:nonzero;fill:rgb(100%,100%,100%);fill-opacity:1;" d="M 18.75 0 L 79.75 45.25 L 140.5 0 L 160 0 L 160 15.5 L 100 60.25 L 160 104.75 L 160 120 L 140 120 L 80 75.25 L 20.25 120 L 0 120 L 0 105 L 59.75 60.5 L 0 16 L 0 0 Z M 18.75 0 "/>
<path style=" stroke:none;fill-rule:nonzero;fill:rgb(78.431374%,6.27451%,18.039216%);fill-opacity:1;" d="M 106 70.25 L 160 110 L 160 120 L 92.25 70.25 Z M 60 75.25 L 61.5 84 L 13.5 120 L 0 120 Z M 160 0 L 160 0.75 L 97.75 47.75 L 98.25 36.75 L 147.5 0 Z M 0 0 L 59.75 44 L 44.75 44 L 0 10.5 Z M 0 0 "/>
<path style=" stroke:none;fill-rule:nonzero;fill:rgb(100%,100%,100%);fill-opacity:1;" d="M 60.25 0 L 60.25 120 L 100.25 120 L 100.25 0 Z M 0 40 L 0 80 L 160 80 L 160 40 Z M 0 40 "/>
<path style=" stroke:none;fill-rule:nonzero;fill:rgb(78.431374%,6.27451%,18.039216%);fill-opacity:1;" d="M 0 48.25 L 0 72.25 L 160 72.25 L 160 48.25 Z M 68.25 0 L 68.25 120 L 92.25 120 L 92.25 0 Z M 68.25 0 "/>
<path style="fill-rule:nonzero;fill:rgb(96.862745%,87.843138%,9.019608%);fill-opacity:1;stroke-width:0.4;stroke-linecap:butt;stroke-linejoin:miter;stroke:rgb(0%,0%,0%);stroke-opacity:1;stroke-miterlimit:4;" d="M 410.101562 252.296875 C 401.109375 259.445312 394.492188 269.132812 391.101562 280.101562 C 385.398438 307.398438 377.796875 313.5 366.101562 307.601562 C 366.101562 322.296875 379 323.398438 384.601562 314.898438 C 384.601562 328.601562 389.601562 340.5 400.796875 350.703125 C 405.601562 355 406.5 352.101562 404.203125 347.296875 C 402 342.601562 402 327.296875 397.5 318.5 C 404.703125 323.601562 415.296875 320.703125 414.5 306.5 C 405.203125 311.898438 396 311.703125 395 298.796875 C 393.898438 283.796875 399.703125 261.796875 410.101562 252.296875 Z M 399.101562 143.703125 C 399.796875 138.203125 398.601562 132.703125 394.601562 129.203125 C 387 122.5 379.5 124.703125 373.898438 130.203125 C 365.601562 125.601562 361.101562 141.601562 351.703125 138.898438 C 353.203125 144.101562 355.703125 146.296875 360.5 144.5 C 355.5 149 360.5 154.5 354.601562 159.898438 C 365.203125 163.296875 370.796875 157.398438 370.398438 147.203125 C 372.296875 148.953125 374.820312 149.859375 377.398438 149.726562 C 379.976562 149.601562 382.390625 148.4375 384.101562 146.5 C 378.5 144.703125 378.5 139.796875 380.703125 135.296875 C 384.101562 128.5 400 128.796875 399.101562 143.703125 Z M 399.101562 143.703125 " transform="matrix(0.5,0,0,0.5,0,0)"/>
<path style="fill-rule:nonzero;fill:rgb(20%,45.09804%,12.941177%);fill-opacity:1;stroke-width:0.4;stroke-linecap:butt;stroke-linejoin:miter;stroke:rgb(0%,0%,0%);stroke-opacity:1;stroke-miterlimit:4;" d="M 423.601562 222.101562 C 411.601562 228.5 389.796875 225.796875 387.703125 210.101562 C 385.703125 194.601562 400.796875 187.601562 404.898438 185.601562 C 411.203125 182.398438 416.203125 188.101562 414.101562 194.601562 C 421.101562 192.203125 422.703125 184 419.296875 179.296875 C 428.601562 180 437.101562 173 440.703125 163.101562 C 437.5 166.101562 428.703125 164.101562 421.398438 163.601562 C 423.601562 161.101562 423.601562 156.296875 422.898438 153.796875 C 415.296875 161.703125 404.203125 158.101562 389.601562 180.796875 C 393.03125 168.492188 396.234375 156.125 399.203125 143.703125 C 400 128.703125 384.203125 128.5 380.796875 135.296875 C 384.5 139.5 382.5 144.296875 381.203125 151.796875 C 379.601562 160.5 376.203125 180.796875 373.296875 187.601562 C 372.398438 177 365.398438 176.296875 364.101562 171.101562 C 362.101562 172.5 360.898438 176.101562 361.398438 178.601562 C 358.898438 175.898438 350.296875 179.296875 347.101562 175.203125 C 343.796875 181.898438 349.101562 188.703125 354.796875 191.703125 C 351.5 191.898438 350.796875 195.796875 347.101562 195.796875 C 352 201.5 357 203.796875 362.703125 204.203125 C 368.5 204.601562 372.703125 206.796875 376.203125 213.796875 C 381.898438 225.101562 403.398438 232.398438 423.601562 222.101562 Z M 423.601562 222.101562 " transform="matrix(0.5,0,0,0.5,0,0)"/>
<path style="fill-rule:nonzero;fill:rgb(96.862745%,87.843138%,9.019608%);fill-opacity:1;stroke-width:0.4;stroke-linecap:butt;stroke-linejoin:miter;stroke:rgb(0%,0%,0%);stroke-opacity:1;stroke-miterlimit:4;" d="M 453.398438 208.398438 C 446.601562 227.101562 428.101562 240.398438 419.796875 242.398438 C 405.601562 245.898438 376.601562 260 368.796875 267.203125 C 367.65625 266.976562 366.570312 266.539062 365.601562 265.898438 C 361.796875 263.203125 358.601562 254.398438 365.398438 246.898438 C 386.601562 227.101562 409.398438 235.703125 423.601562 222.101562 C 411.601562 228.398438 389.796875 225.703125 387.796875 210.101562 C 407.5625 215.234375 428.546875 209 442.296875 193.898438 C 446.40625 198.382812 450.09375 203.234375 453.296875 208.398438 Z M 453.398438 208.398438 " transform="matrix(0.5,0,0,0.5,0,0)"/>
<path style="fill-rule:nonzero;fill:rgb(20%,45.09804%,12.941177%);fill-opacity:1;stroke-width:0.4;stroke-linecap:butt;stroke-linejoin:miter;stroke:rgb(0%,0%,0%);stroke-opacity:1;stroke-miterlimit:4;" d="M 410.101562 252.296875 C 399.398438 261.296875 393.898438 283.703125 395 298.796875 C 395.335938 302.929688 396.429688 305.867188 398.296875 307.601562 C 399.101562 299 405 276.898438 420.296875 267 C 433.101562 258.703125 453.203125 240 460.601562 218.5 C 459.1875 214.570312 456.375 211.289062 452.703125 209.296875 C 445.296875 229.5 425.601562 239.203125 410.101562 252.296875 Z M 410.101562 252.296875 " transform="matrix(0.5,0,0,0.5,0,0)"/>
<path style="fill-rule:nonzero;fill:rgb(19.215687%,42.745098%,22.745098%);fill-opacity:1;stroke-width:0.4;stroke-linecap:butt;stroke-linejoin:miter;stroke:rgb(0%,0%,0%);stroke-opacity:1;stroke-miterlimit:4;" d="M 446.5 199.703125 C 441.195312 207.101562 433.96875 212.90625 425.601562 216.5 C 427.179688 214.578125 428.054688 212.1875 428.101562 209.703125 C 414.914062 213.460938 400.96875 213.632812 387.703125 210.203125 C 407.5 215.375 428.53125 209.132812 442.296875 194 C 444.015625 195.648438 445.429688 197.578125 446.5 199.703125 Z M 446.5 199.703125 " transform="matrix(0.5,0,0,0.5,0,0)"/>
<path style="fill-rule:nonzero;fill:rgb(20%,45.09804%,12.941177%);fill-opacity:1;stroke-width:0.4;stroke-linecap:butt;stroke-linejoin:miter;stroke:rgb(0%,0%,0%);stroke-opacity:1;stroke-miterlimit:4;" d="M 365.398438 247 C 348.203125 263 359.601562 277.203125 366.398438 280.296875 C 364.5 291.601562 375.101562 290.296875 374.898438 299.703125 C 379.203125 297.296875 380.296875 290.703125 379.601562 285.5 C 385.101562 291.398438 398.796875 284.796875 401.703125 295.703125 C 403.601562 283.703125 394.296875 271.703125 382.796875 272.898438 C 387.601562 268.601562 384.796875 261.601562 380.296875 259.796875 C 379.398438 268.601562 369.5 268.601562 365.703125 265.796875 C 361.796875 263.203125 358.703125 254.398438 365.398438 246.898438 Z M 365.398438 247 " transform="matrix(0.5,0,0,0.5,0,0)"/>
<path style="fill-rule:nonzero;fill:rgb(96.862745%,87.843138%,9.019608%);fill-opacity:1;stroke-width:0.4;stroke-linecap:butt;stroke-linejoin:miter;stroke:rgb(0%,0%,0%);stroke-opacity:1;stroke-miterlimit:4;" d="M 402.703125 349.601562 C 400.898438 350.601562 401 353.101562 402.203125 354.601562 C 404.5 357.796875 400.5 365 408.203125 366.5 C 410.398438 367 412.203125 365.5 413 363 C 415.398438 355.898438 407.796875 355.101562 407.101562 351.703125 C 406.5 348.296875 404.296875 348.703125 402.703125 349.601562 Z M 402.703125 349.601562 " transform="matrix(0.5,0,0,0.5,0,0)"/>
<path style="fill-rule:nonzero;fill:rgb(96.862745%,87.843138%,9.019608%);fill-opacity:1;stroke-width:0.4;stroke-linecap:butt;stroke-linejoin:miter;stroke:rgb(0%,0%,0%);stroke-opacity:1;stroke-miterlimit:4;" d="M 409.203125 362.898438 C 406.703125 364.101562 404.398438 365.703125 405.5 373.898438 C 405.898438 377.203125 405.703125 385.296875 402.703125 385.398438 C 404.5 386.398438 408.398438 387.398438 410 385.203125 C 411.5 387.796875 415 387 416.296875 383.898438 C 418.101562 385.296875 420.601562 382.898438 420.601562 380.703125 C 422.101562 381.703125 425.296875 380.296875 424.5 375.398438 C 426.5 376.101562 428.898438 374.703125 429.796875 373.5 C 427 372.898438 419.796875 369.101562 418.203125 366.101562 C 416.5 363 412.203125 361.5 409.203125 362.898438 Z M 409.203125 362.898438 " transform="matrix(0.5,0,0,0.5,0,0)"/>
<path style="fill:none;stroke-width:0.4;stroke-linecap:butt;stroke-linejoin:miter;stroke:rgb(0%,0%,0%);stroke-opacity:1;stroke-miterlimit:4;" d="M 370 134.703125 C 371.203125 133.101562 372.53125 131.570312 374 130.101562 M 413 164.601562 C 415.070312 163.53125 417.867188 163.203125 421.398438 163.601562 M 410 385.203125 C 409.203125 384.101562 408.898438 379.398438 409.398438 376.5 M 416.296875 383.898438 C 415 382.898438 412.703125 379.601562 412.296875 376.796875 M 420.601562 380.703125 C 417.671875 378.414062 415.484375 375.320312 414.296875 371.796875 M 424.5 375.398438 C 422.601562 375 416.898438 371.296875 414.5 367.398438 " transform="matrix(0.5,0,0,0.5,0,0)"/>
<path style="fill-rule:nonzero;fill:rgb(96.862745%,87.843138%,9.019608%);fill-opacity:1;stroke-width:0.4;stroke-linecap:butt;stroke-linejoin:miter;stroke:rgb(0%,0%,0%);stroke-opacity:1;stroke-miterlimit:4;" d="M 528.5 247.203125 C 556.203125 270.398438 558 288.898438 553.796875 299.703125 C 551.5 289.601562 540 273.796875 528 269.703125 Z M 528.5 247.203125 " transform="matrix(0.5,0,0,0.5,0,0)"/>
<path style="fill-rule:nonzero;fill:rgb(20%,45.09804%,12.941177%);fill-opacity:1;stroke-width:0.4;stroke-linecap:butt;stroke-linejoin:miter;stroke:rgb(0%,0%,0%);stroke-opacity:1;stroke-miterlimit:4;" d="M 478.898438 234 L 530.296875 234 L 530.296875 295 C 530.296875 346.898438 501.5 377.5 472.101562 393.796875 C 435.414062 374.710938 412.851562 336.34375 414 295 L 414 234 L 450 234 C 450 237.203125 450.398438 242 454 246.703125 C 462.601562 245.898438 472.203125 239.5 478.898438 234.101562 Z M 478.898438 234 " transform="matrix(0.5,0,0,0.5,0,0)"/>
<path style="fill-rule:nonzero;fill:rgb(0%,43.137255%,78.039217%);fill-opacity:1;stroke-width:0.4;stroke-linecap:butt;stroke-linejoin:miter;stroke:rgb(0%,0%,0%);stroke-opacity:1;stroke-miterlimit:4;" d="M 530.296875 234 L 530.296875 295 C 530.164062 310.601562 527.835938 324.367188 523.296875 336.296875 L 472 242.601562 L 421 336.296875 C 416.335938 324.296875 413.96875 310.53125 413.898438 295 L 413.898438 234 Z M 530.296875 234 " transform="matrix(0.5,0,0,0.5,0,0)"/>
<path style=" stroke:none;fill-rule:nonzero;fill:rgb(96.862745%,87.843138%,9.019608%);fill-opacity:1;" d="M 262.398438 165.949219 C 261.84375 167.644531 261.210938 169.3125 260.5 170.949219 L 236 125.5 L 211.648438 171 C 211 169.601562 210.199219 167.351562 209.75 166 L 236.101562 117.199219 Z M 262.398438 165.949219 "/>
<path style="fill-rule:nonzero;fill:rgb(96.862745%,87.843138%,9.019608%);fill-opacity:1;stroke-width:0.4;stroke-linecap:butt;stroke-linejoin:miter;stroke:rgb(0%,0%,0%);stroke-opacity:1;stroke-miterlimit:4;" d="M 495.296875 365.296875 L 500.296875 367.601562 C 502.882812 361.335938 503.640625 354.476562 502.5 347.796875 C 499.601562 355.203125 489.703125 355 487 359.5 C 488.664062 360.429688 490.164062 361.398438 491.5 362.398438 C 488.101562 365.796875 480.203125 371.398438 475.703125 372.796875 L 475.703125 324.398438 C 475.703125 321 474.5 318.203125 474.5 315.398438 L 474.5 305.398438 C 474.5 303.101562 474.101562 299.796875 472.101562 299.796875 C 470.101562 299.796875 469.601562 303.101562 469.601562 305.398438 L 469.601562 315.398438 C 469.601562 318.203125 468.5 321.398438 468.5 324.398438 L 468.5 372.796875 C 466 365.601562 456.296875 368 451.796875 360.796875 C 453.570312 360.382812 455.40625 360.3125 457.203125 360.601562 C 453.796875 349.101562 444.5 348.203125 442.796875 344.796875 C 442.796875 349.601562 440.796875 360.601562 443.898438 365.398438 C 444.632812 364.46875 445.632812 363.632812 446.898438 362.898438 C 450.796875 371.203125 468 371.203125 472.101562 385 C 475.398438 380 487.101562 374 495.296875 365.296875 Z M 495.296875 365.296875 " transform="matrix(0.5,0,0,0.5,0,0)"/>
<path style="fill-rule:nonzero;fill:rgb(96.862745%,87.843138%,9.019608%);fill-opacity:1;stroke-width:0.4;stroke-linecap:butt;stroke-linejoin:miter;stroke:rgb(0%,0%,0%);stroke-opacity:1;stroke-miterlimit:4;" d="M 472.101562 325 C 475.898438 325 488.101562 323.796875 492.5 323.796875 C 493.703125 323.796875 494.601562 322 494.601562 319.898438 C 494.601562 317.796875 493.703125 316.101562 492.601562 316.101562 C 488.101562 316.101562 476 314.898438 472.101562 314.898438 C 468.203125 314.898438 456.101562 316.101562 451.703125 316.101562 C 450.5 316.101562 449.601562 317.796875 449.601562 319.898438 C 449.601562 322 450.601562 323.796875 451.601562 323.796875 C 456.101562 323.796875 468.296875 325 472.101562 325 Z M 469.601562 305.203125 C 468.796875 304.53125 467.796875 304.203125 466.601562 304.203125 C 464 304.203125 461.898438 306 461.898438 308.296875 C 461.898438 310.703125 464 312.601562 466.601562 312.601562 C 469.101562 312.601562 471.203125 310.601562 471.203125 308.296875 C 471.203125 306.5 473.796875 306.5 473.796875 308.296875 C 473.796875 312 470.601562 315 466.601562 315 C 462.601562 315 459.296875 312 459.296875 308.296875 C 459.296875 304.703125 462.601562 301.703125 466.601562 301.703125 C 467.742188 301.726562 468.867188 302 469.898438 302.5 C 469.765625 303.164062 469.664062 304.070312 469.601562 305.203125 Z M 469.601562 305.203125 " transform="matrix(0.5,0,0,0.5,0,0)"/>
<path style="fill-rule:nonzero;fill:rgb(96.862745%,87.843138%,9.019608%);fill-opacity:1;stroke-width:0.4;stroke-linecap:butt;stroke-linejoin:miter;stroke:rgb(0%,0%,0%);stroke-opacity:1;stroke-miterlimit:4;" d="M 451.703125 323.796875 C 452.796875 323.796875 453.703125 322 453.703125 319.898438 C 453.703125 317.796875 452.796875 316.101562 451.703125 316.101562 " transform="matrix(0.5,0,0,0.5,0,0)"/>
<path style="fill-rule:nonzero;fill:rgb(96.862745%,87.843138%,9.019608%);fill-opacity:1;stroke-width:0.4;stroke-linecap:butt;stroke-linejoin:miter;stroke:rgb(0%,0%,0%);stroke-opacity:1;stroke-miterlimit:4;" d="M 453.398438 323.796875 C 454.5 323.796875 455.398438 322 455.398438 319.898438 C 455.398438 317.796875 454.5 316.101562 453.398438 316.101562 M 464.5 324.5 C 465.898438 324.5 467 322.5 467 319.898438 C 467 317.296875 466 315.296875 464.5 315.296875 M 467.101562 324.703125 C 468.601562 324.703125 469.703125 322.601562 469.703125 319.898438 C 469.703125 317.203125 468.601562 315.101562 467.101562 315.101562 M 475.796875 324.796875 C 477.296875 324.796875 478.398438 322.601562 478.398438 319.898438 C 478.398438 317.203125 477.203125 315 475.796875 315 M 478.5 324.601562 C 479.898438 324.601562 481.101562 322.601562 481.101562 319.898438 C 481.101562 317.296875 479.898438 315.203125 478.5 315.203125 M 490.601562 323.796875 C 491.796875 323.796875 492.703125 322.101562 492.703125 319.898438 C 492.703125 317.703125 491.796875 315.898438 490.703125 315.898438 M 447 362.898438 C 448.335938 361.96875 449.929688 361.296875 451.796875 360.898438 M 492.898438 363.296875 L 491.5 362.296875 M 495.296875 365.296875 C 498.632812 361.898438 501.070312 358 502.601562 353.601562 " transform="matrix(0.5,0,0,0.5,0,0)"/>
<path style="fill-rule:nonzero;fill:rgb(100%,100%,100%);fill-opacity:1;stroke-width:0.4;stroke-linecap:butt;stroke-linejoin:miter;stroke:rgb(0%,0%,0%);stroke-opacity:1;stroke-miterlimit:4;" d="M 461.796875 277.203125 C 461.796875 276 462.703125 275.601562 463.796875 274.796875 C 465 273.796875 465.5 273.398438 466.703125 273.398438 L 481.5 273.398438 C 482.429688 273.335938 482.867188 273.765625 482.796875 274.703125 L 482.796875 294.703125 C 482.929688 295.632812 482.5 296.101562 481.5 296.101562 L 461.796875 296.101562 L 461.796875 276.898438 " transform="matrix(0.5,0,0,0.5,0,0)"/>
<path style="fill-rule:nonzero;fill:rgb(89.803922%,89.803922%,89.803922%);fill-opacity:1;stroke-width:0.4;stroke-linecap:butt;stroke-linejoin:miter;stroke:rgb(0%,0%,0%);stroke-opacity:1;stroke-miterlimit:4;" d="M 477.796875 297.796875 C 479.796875 297.796875 479.398438 297.796875 480.796875 296.398438 C 482.203125 295 482.101562 295.101562 482.101562 293.796875 L 482.101562 275.398438 C 482.164062 274.46875 481.734375 274.070312 480.796875 274.203125 L 467.101562 274.203125 C 466.101562 274.203125 465.601562 274.601562 464.398438 275.5 C 463.398438 276.296875 462.601562 276.703125 462.601562 277.703125 L 462.601562 297.796875 Z M 477.796875 297.796875 " transform="matrix(0.5,0,0,0.5,0,0)"/>
<path style="fill-rule:nonzero;fill:rgb(100%,100%,100%);fill-opacity:1;stroke-width:0.4;stroke-linecap:butt;stroke-linejoin:miter;stroke:rgb(0%,0%,0%);stroke-opacity:1;stroke-miterlimit:4;" d="M 479.296875 297.398438 C 479.367188 298.335938 478.898438 298.765625 477.898438 298.703125 L 463.101562 298.703125 C 462.101562 298.765625 461.664062 298.335938 461.796875 297.398438 L 461.796875 277.296875 C 461.664062 276.367188 462.101562 275.929688 463.101562 276 L 477.898438 276 C 478.898438 275.929688 479.367188 276.367188 479.296875 277.296875 Z M 479.296875 297.398438 " transform="matrix(0.5,0,0,0.5,0,0)"/>
<path style="fill-rule:nonzero;fill:rgb(58.823532%,52.941179%,49.019608%);fill-opacity:1;stroke-width:0.4;stroke-linecap:butt;stroke-linejoin:miter;stroke:rgb(0%,0%,0%);stroke-opacity:1;stroke-miterlimit:4;" d="M 508 222.296875 C 510.796875 225.5 511.796875 229.796875 510.203125 234.101562 L 506 234.101562 C 507.796875 228.601562 506.703125 223.5 499 222.796875 C 487.601562 221.796875 474.203125 244 454.101562 246.703125 C 448.296875 239.703125 448.601562 226.398438 456.101562 220.101562 C 452.242188 209.445312 446.210938 199.710938 438.398438 191.5 C 434.867188 190.921875 431.28125 190.6875 427.703125 190.796875 C 430.703125 184.398438 439 177.796875 445.796875 175.101562 L 449.203125 170.601562 C 449.898438 161.898438 491.203125 165.898438 499.898438 171.296875 C 499.898438 181.101562 503.796875 213.5 508.101562 222.296875 Z M 508 222.296875 " transform="matrix(0.5,0,0,0.5,0,0)"/>
<path style=" stroke:none;fill-rule:nonzero;fill:rgb(0%,0%,0%);fill-opacity:1;" d="M 229 114.101562 C 228.5 106.601562 225.449219 100.398438 221.148438 96.199219 C 224.230469 96.90625 227.464844 96.367188 230.148438 94.699219 C 233.898438 92.199219 243.648438 87.898438 247.148438 89.75 C 247.449219 90.398438 247.648438 91.75 247.398438 92.699219 C 246.550781 90.449219 237.199219 93.898438 234.550781 95 C 232.050781 96.148438 230.898438 97.75 231.800781 101.300781 C 230.300781 100.050781 230.800781 98.898438 229.300781 98 C 229.898438 99.449219 230.398438 102.101562 230.601562 104.25 C 230 102.75 229 99.449219 226.800781 97.5 C 229.121094 102.988281 230.082031 108.960938 229.601562 114.898438 C 231.101562 114.898438 234.5 113.398438 235.800781 112.398438 C 234.648438 114.050781 231.199219 115.25 229.050781 115.699219 C 227.953125 117.472656 227.378906 119.515625 227.398438 121.601562 C 227.25 119.5 227.898438 114.449219 228.949219 114.101562 Z M 254 111.148438 C 252.101562 109.050781 248.648438 107.949219 244.199219 109.148438 C 245.28125 108.621094 246.421875 108.234375 247.601562 108 C 247.449219 106.851562 246.398438 101.75 246.199219 100.5 L 247.449219 100 C 248.101562 103.050781 248.851562 106.550781 249.351562 108 C 249.75 108.050781 250.648438 108.25 251.449219 108.648438 C 251.101562 107.449219 249.199219 98.949219 249.25 98.050781 L 250.949219 97.148438 C 251.460938 101.90625 252.46875 106.601562 253.949219 111.148438 Z M 254 111.148438 "/>
<path style="fill-rule:nonzero;fill:rgb(58.823532%,52.941179%,49.019608%);fill-opacity:1;stroke-width:0.4;stroke-linecap:butt;stroke-linejoin:miter;stroke:rgb(0%,0%,0%);stroke-opacity:1;stroke-miterlimit:4;" d="M 506 234 C 507.703125 228.703125 506.601562 223.5 499 222.796875 C 493 222.296875 486.601562 228.101562 479 234.101562 Z M 456.101562 185.5 C 451.117188 185.828125 446.117188 185.320312 441.296875 184 C 441.5 183.070312 441.867188 182 442.398438 180.796875 C 439.3125 182.726562 436.460938 185.015625 433.898438 187.601562 C 439.296875 188.796875 450.5 189.296875 456.101562 185.5 Z M 456.101562 185.5 " transform="matrix(0.5,0,0,0.5,0,0)"/>
<path style="fill:none;stroke-width:0.4;stroke-linecap:butt;stroke-linejoin:miter;stroke:rgb(0%,0%,0%);stroke-opacity:1;stroke-miterlimit:4;" d="M 456 220 C 457.265625 223.734375 457.96875 227.164062 458.101562 230.296875 M 445.703125 175.101562 C 443.703125 178.101562 441.898438 181.296875 441.296875 184.101562 C 446.132812 185.335938 451.125 185.804688 456.101562 185.5 " transform="matrix(0.5,0,0,0.5,0,0)"/>
<path style="fill:none;stroke-width:0.4;stroke-linecap:butt;stroke-linejoin:miter;stroke:rgb(0%,0%,0%);stroke-opacity:1;stroke-miterlimit:4;" d="M 438.398438 191.5 C 439.796875 191.765625 441.132812 192.070312 442.398438 192.398438 C 446.398438 193.5 454.703125 193.5 460.398438 189.398438 C 466.101562 185.296875 481.398438 172.703125 498.703125 171.398438 " transform="matrix(0.5,0,0,0.5,0,0)"/>
<path style="fill:none;stroke-width:0.4;stroke-linecap:butt;stroke-linejoin:miter;stroke:rgb(0%,0%,0%);stroke-opacity:1;stroke-miterlimit:4;" d="M 433.898438 187.601562 C 439.296875 188.796875 450.5 189.296875 456.101562 185.5 C 467.296875 177.132812 480.585938 172.007812 494.5 170.703125 " transform="matrix(0.5,0,0,0.5,0,0)"/>
<path style="fill-rule:nonzero;fill:rgb(20%,45.09804%,12.941177%);fill-opacity:1;stroke-width:0.4;stroke-linecap:butt;stroke-linejoin:miter;stroke:rgb(0%,0%,0%);stroke-opacity:1;stroke-miterlimit:4;" d="M 528.5 247.203125 C 547.5 260.203125 561.5 272.898438 565.5 293.203125 C 569.5 313.5 577.203125 318.898438 586.703125 313.5 C 584.5 325.203125 572.703125 326.5 562.796875 317.5 C 563.796875 331.101562 558.296875 347.296875 544.296875 353.203125 C 543.398438 345.101562 548.796875 338.601562 547.296875 332 C 546.601562 329 546.296875 322.296875 550.203125 319.101562 C 542.703125 321.601562 531 316.898438 529.898438 305.796875 C 538.5 309.796875 549.5 310.5 553.796875 299.703125 C 558.101562 288.898438 556.203125 270.398438 528.5 247.203125 Z M 552.398438 141.601562 C 558.296875 126.296875 573.601562 127.898438 578.796875 134.398438 C 593.898438 125.796875 596 145.203125 608.796875 141.398438 C 608.601562 145 604.296875 148.398438 599.601562 148.101562 C 604.601562 152.601562 597.601562 159.398438 608.101562 163.5 C 599.101562 168 586.5 163.296875 583.101562 150.796875 C 580.101562 156.703125 569.601562 156.703125 565.296875 152 C 574.5 149.5 573.898438 141 568.703125 137.5 C 563.398438 134.101562 554.203125 135.5 552.398438 141.601562 Z M 506.703125 175.398438 C 511.039062 188.710938 518.71875 200.695312 529 210.203125 C 539.796875 220.203125 556.101562 217.601562 565.296875 208.203125 C 565.5 227 545.898438 228.5 535.101562 222.601562 C 530.296875 220 526.398438 221.296875 531 225.601562 C 538 231.796875 553.296875 236.601562 571.398438 240.398438 C 602.898438 247.203125 591.703125 272.203125 582.398438 272 C 585.101562 272 587.296875 269.101562 583.398438 265.703125 C 556 241 500.398438 250.703125 501.203125 195.703125 C 495.398438 210.203125 471.203125 204.5 482.5 187.398438 C 486.101562 190.296875 492.5 190.5 494.203125 186 C 495.601562 182.5 494.703125 176.398438 488.398438 171.101562 C 489.398438 171.101562 491.703125 171.101562 491.398438 168.5 C 491.703125 170.101562 493.101562 172.296875 496.703125 171.5 C 497.703125 173.203125 498.703125 174.203125 500.203125 173.601562 C 500.5 173.601562 501.296875 173.101562 501 171.5 C 501.203125 174.5 504.796875 175.601562 506.703125 175.398438 Z M 506.703125 175.398438 " transform="matrix(0.5,0,0,0.5,0,0)"/>
<path style="fill-rule:nonzero;fill:rgb(96.862745%,87.843138%,9.019608%);fill-opacity:1;stroke-width:0.4;stroke-linecap:butt;stroke-linejoin:miter;stroke:rgb(0%,0%,0%);stroke-opacity:1;stroke-miterlimit:4;" d="M 535 222.601562 C 548.101562 231.101562 563 231.101562 576.5 215.398438 C 580.796875 210.398438 587.5 206.101562 592.296875 205.703125 C 597.101562 205.203125 596.796875 200.703125 600.398438 199.703125 C 598.203125 199.101562 597.296875 196.398438 593.898438 196.703125 C 602.398438 193.796875 599.898438 187 604 183.703125 C 600.601562 185 595.398438 180 590.5 186.398438 C 591.796875 183.398438 590 180 588.796875 178.601562 C 589.296875 182 582.203125 182.601562 580.796875 191.203125 C 580.101562 196 577.398438 195.796875 577 188.296875 C 576.703125 182.898438 574 167.796875 571 160.101562 C 567.796875 152.5 567 141.898438 571.296875 140.398438 C 570.671875 139.273438 569.78125 138.3125 568.703125 137.601562 C 563.398438 134.203125 554.203125 135.601562 552.398438 141.601562 C 546.601562 157 563 165.796875 561.703125 182.5 C 559.203125 170.101562 539.101562 166.898438 539.296875 154.703125 C 532.796875 157.703125 533.703125 163.101562 536.203125 167.398438 C 532.203125 161.101562 522.898438 171.398438 515 162.898438 C 514 174.203125 524 178.398438 532.101562 178.898438 C 528.101562 186.101562 533.5 192.203125 538.898438 194.203125 C 539.101562 181.601562 565 186.703125 565.296875 208.398438 C 565.5 226.898438 545.601562 228.398438 535 222.601562 Z M 571.398438 240.398438 C 602.898438 247.203125 591.703125 272.203125 582.398438 272 C 576.5 271.796875 570.898438 266.898438 570.601562 262.601562 C 563.796875 266.203125 565.601562 273.296875 570.796875 276.101562 C 556.601562 274.5 550.601562 283.796875 550.296875 294.101562 C 552.898438 289.296875 560.703125 289.101562 563.703125 290.101562 C 566.703125 291.101562 574.203125 291.601562 577.203125 288.101562 C 574.703125 290.296875 578.796875 295.296875 575.203125 299.101562 C 587.203125 298.703125 592.296875 287.601562 590.203125 282.796875 C 605.601562 268.796875 602.703125 246 571.398438 240.398438 Z M 547.296875 347.601562 C 549.296875 348.796875 549.101562 351.601562 547.703125 353.296875 C 544.898438 356.703125 549.101562 364.796875 540.5 366.296875 C 537.898438 366.5 536.164062 365.101562 535.296875 362.101562 C 532.898438 354.101562 541.398438 353.5 542.296875 349.796875 C 543.203125 346.101562 545.601562 346.5 547.296875 347.601562 Z M 547.296875 347.601562 " transform="matrix(0.5,0,0,0.5,0,0)"/>
<path style="fill-rule:nonzero;fill:rgb(96.862745%,87.843138%,9.019608%);fill-opacity:1;stroke-width:0.4;stroke-linecap:butt;stroke-linejoin:miter;stroke:rgb(0%,0%,0%);stroke-opacity:1;stroke-miterlimit:4;" d="M 539.601562 362.101562 C 542.296875 363.5 544.703125 365.5 543.296875 374.5 C 542.601562 378.203125 542.5 387.296875 545.796875 387.5 C 543.796875 388.5 539.398438 389.398438 537.796875 387 C 535.898438 389.796875 532.101562 388.796875 530.796875 385.203125 C 528.601562 386.796875 526 383.898438 526.101562 381.5 C 524.296875 382.5 520.796875 380.796875 521.898438 375.5 C 519.703125 376.101562 517 374.5 516.101562 373.101562 C 519.203125 372.5 527.296875 368.601562 529.398438 365.296875 C 531.398438 361.898438 536.398438 360.5 539.601562 362.101562 Z M 539.601562 362.101562 " transform="matrix(0.5,0,0,0.5,0,0)"/>
<path style="fill:none;stroke-width:0.4;stroke-linecap:butt;stroke-linejoin:miter;stroke:rgb(0%,0%,0%);stroke-opacity:1;stroke-miterlimit:4;" d="M 537.703125 387 C 538.703125 385.796875 539.203125 380.5 538.703125 377.296875 M 530.703125 385.203125 C 532.203125 384.203125 534.898438 380.703125 535.5 377.5 M 526 381.5 C 529.328125 379.03125 531.898438 375.664062 533.398438 371.796875 M 521.898438 375.5 C 523.898438 375.101562 530.5 371.203125 533.296875 366.898438 " transform="matrix(0.5,0,0,0.5,0,0)"/>
<path style="fill-rule:nonzero;fill:rgb(96.862745%,87.843138%,9.019608%);fill-opacity:1;stroke-width:0.4;stroke-linecap:butt;stroke-linejoin:miter;stroke:rgb(0%,0%,0%);stroke-opacity:1;stroke-miterlimit:4;" d="M 501.203125 195.796875 C 500.796875 218.796875 510.398438 230.601562 523.796875 238.203125 C 518.796875 235.203125 521 225.101562 514.296875 221.796875 C 515.898438 221.703125 518.296875 223.898438 522.296875 223 C 520.296875 218.796875 517.296875 212.203125 509.898438 211.296875 C 511.898438 211.101562 515.898438 211.796875 518.703125 210.796875 C 514.898438 204.796875 504.703125 207.703125 501.203125 195.796875 Z M 498.796875 173.796875 C 498 173.46875 497.296875 172.734375 496.703125 171.601562 C 493.101562 172.398438 491.703125 170.101562 491.398438 168.601562 C 491.703125 171.203125 489.398438 171.101562 488.398438 171.203125 C 494.703125 176.398438 495.601562 182.5 494.203125 186 C 492.398438 190.5 486.203125 190.296875 482.5 187.398438 C 482 197 494.5 200.101562 499 188.101562 C 499 190.101562 501.601562 189.898438 502.203125 192.601562 C 505.398438 187.398438 503 179.898438 498.796875 173.796875 Z M 498.796875 173.796875 " transform="matrix(0.5,0,0,0.5,0,0)"/>
<path style="fill-rule:nonzero;fill:rgb(20%,45.09804%,12.941177%);fill-opacity:1;stroke-width:0.4;stroke-linecap:butt;stroke-linejoin:miter;stroke:rgb(0%,0%,0%);stroke-opacity:1;stroke-miterlimit:4;" d="M 479 128 C 473.953125 123 471.078125 116.210938 471 109.101562 C 471.203125 104.101562 473.203125 98.796875 480.5 101.101562 C 478.203125 101.101562 479.796875 105.5 477.5 106 C 479.296875 106.703125 481.898438 105.101562 482.296875 104 C 482.703125 105.601562 485.703125 105.203125 485.898438 107 C 487 106.101562 485.796875 101.703125 484.101562 100.796875 C 485.296875 100.101562 486.101562 96.601562 485.5 94.898438 C 484.296875 95.101562 482.601562 96.703125 482.296875 99 C 482.898438 97.203125 482.203125 92.703125 479 92 C 478.101562 93.203125 477.898438 96.296875 479.101562 98 C 476.203125 97.296875 471.898438 99.203125 470.898438 101.703125 C 471.101562 98.703125 471.5 94.398438 473.398438 91.703125 C 474 90.898438 472.398438 89.296875 471.296875 91.398438 C 469.101562 87.101562 463.296875 84.898438 460.601562 87 C 458 89.203125 454.601562 86 452.398438 89.398438 C 450.203125 92.796875 443 93.101562 443.398438 96.703125 C 443.601562 98.898438 443.101562 102.203125 442 103.398438 C 439.398438 106.296875 443.296875 108.398438 444 111 C 443.5 102.5 457.101562 85.796875 470.796875 92.296875 C 469.132812 95.945312 468.21875 99.890625 468.101562 103.898438 C 467.5 111.601562 468.703125 122.398438 476.101562 128.796875 Z M 479 128 " transform="matrix(0.5,0,0,0.5,0,0)"/>
<path style="fill-rule:nonzero;fill:rgb(78.431374%,6.27451%,18.039216%);fill-opacity:1;stroke-width:0.4;stroke-linecap:butt;stroke-linejoin:miter;stroke:rgb(0%,0%,0%);stroke-opacity:1;stroke-miterlimit:4;" d="M 483 101.101562 C 483 99.101562 486.5 96.398438 491.203125 96.5 C 496.898438 96.5 501.203125 101.703125 505.796875 101.203125 C 510.398438 100.703125 508.203125 103.203125 507.203125 104 C 506.132812 104.664062 505.734375 105.632812 506 106.898438 C 506.296875 108.101562 505.796875 108.898438 504 107.796875 C 499.898438 105.203125 495.796875 108.796875 490.398438 106.796875 C 485.898438 105.101562 483.203125 104.101562 483 101.101562 Z M 483 101.101562 " transform="matrix(0.5,0,0,0.5,0,0)"/>
<path style="fill-rule:nonzero;fill:rgb(58.823532%,52.941179%,49.019608%);fill-opacity:1;stroke-width:0.4;stroke-linecap:butt;stroke-linejoin:miter;stroke:rgb(0%,0%,0%);stroke-opacity:1;stroke-miterlimit:4;" d="M 459.796875 154.398438 C 456.835938 147.296875 451.546875 141.40625 444.796875 137.703125 L 444.601562 133.898438 C 448.273438 131.804688 451.671875 129.25 454.703125 126.296875 C 471.703125 134.296875 494.703125 122.898438 505.296875 111 L 509.296875 113.398438 L 507.296875 116.101562 L 505.203125 115 C 500.523438 120.132812 495.4375 124.882812 490 129.203125 C 493.898438 130.203125 499.296875 130.898438 500.796875 130.796875 C 510.203125 124 517.703125 117.898438 521.296875 117.5 L 524.296875 121.5 L 521.601562 123.5 L 519.5 122.203125 C 508.0625 133.085938 499.117188 146.320312 493.296875 161 C 487 159.601562 464.398438 160.5 459.796875 154.398438 Z M 459.796875 154.398438 " transform="matrix(0.5,0,0,0.5,0,0)"/>
<path style="fill:none;stroke-width:0.4;stroke-linecap:butt;stroke-linejoin:miter;stroke:rgb(0%,0%,0%);stroke-opacity:1;stroke-miterlimit:4;" d="M 490 129.203125 C 488.398438 128.796875 487.234375 128.398438 486.5 128 C 482.859375 130.234375 478.671875 131.414062 474.398438 131.398438 " transform="matrix(0.5,0,0,0.5,0,0)"/>
<path style="fill:none;stroke-width:0.4;stroke-linecap:butt;stroke-linejoin:miter;stroke:rgb(0%,0%,0%);stroke-opacity:1;stroke-miterlimit:4;" d="M 460.703125 151.898438 C 459.203125 143.5 461.703125 134.101562 465.898438 131.296875 C 476.710938 137.53125 490.070312 137.34375 500.703125 130.796875 " transform="matrix(0.5,0,0,0.5,0,0)"/>
<path style="fill:none;stroke-width:0.4;stroke-linecap:butt;stroke-linejoin:miter;stroke:rgb(0%,0%,0%);stroke-opacity:1;stroke-miterlimit:4;" d="M 460.703125 147.5 C 467.898438 147.296875 483.703125 148.5 487.398438 149 C 491.296875 149.601562 497.703125 151.203125 496.796875 153.101562 M 464 146.296875 L 466.101562 144.296875 L 464.101562 142.203125 L 462 144.203125 Z M 464 146.296875 " transform="matrix(0.5,0,0,0.5,0,0)"/>
<path style="fill-rule:nonzero;fill:rgb(20%,45.09804%,12.941177%);fill-opacity:1;stroke-width:0.4;stroke-linecap:butt;stroke-linejoin:miter;stroke:rgb(0%,0%,0%);stroke-opacity:1;stroke-miterlimit:4;" d="M 469 104.296875 C 466.398438 100.703125 459.203125 99.5 457.703125 104.296875 C 457 106.5 456 108.796875 454.296875 109.796875 C 452.601562 110.796875 453 113.898438 453.703125 115.203125 C 455.5 118.5 453.898438 121.703125 457.398438 123.796875 C 457.398438 121.203125 461.296875 118.5 464.5 117.796875 C 467.796875 117.203125 472.796875 114.203125 473.5 111 C 474.101562 107.601562 475.296875 105 469 104.296875 Z M 469 104.296875 " transform="matrix(0.5,0,0,0.5,0,0)"/>
<path style="fill-rule:nonzero;fill:rgb(58.823532%,52.941179%,49.019608%);fill-opacity:1;stroke-width:0.4;stroke-linecap:butt;stroke-linejoin:miter;stroke:rgb(0%,0%,0%);stroke-opacity:1;stroke-miterlimit:4;" d="M 452.703125 136.796875 L 453.703125 136.796875 L 453.703125 142.898438 L 454.203125 143.203125 L 459.5 140.203125 L 460 140.898438 L 454.601562 144 L 454.601562 144.601562 L 460 147.601562 L 459.5 148.398438 L 454.101562 145.398438 C 453.96875 145.53125 453.796875 145.632812 453.601562 145.703125 L 453.601562 151.898438 L 452.703125 151.898438 L 452.703125 145.703125 L 452.203125 145.398438 L 446.898438 148.5 L 446.398438 147.703125 L 451.703125 144.703125 L 451.703125 144 L 446.398438 141 L 446.898438 140.203125 L 452.203125 143.203125 L 452.703125 142.898438 Z M 452.703125 136.796875 " transform="matrix(0.5,0,0,0.5,0,0)"/>
<path style="fill-rule:nonzero;fill:rgb(58.823532%,52.941179%,49.019608%);fill-opacity:1;stroke-width:0.4;stroke-linecap:butt;stroke-linejoin:miter;stroke:rgb(0%,0%,0%);stroke-opacity:1;stroke-miterlimit:4;" d="M 460.703125 151.796875 C 457.5625 154.976562 452.78125 155.875 448.710938 154.046875 C 444.632812 152.21875 442.125 148.054688 442.40625 143.59375 C 442.695312 139.140625 445.71875 135.328125 449.992188 134.039062 C 454.265625 132.75 458.898438 134.25 461.601562 137.796875 C 460.96875 139.640625 460.570312 141.554688 460.398438 143.5 C 460.023438 139.578125 456.609375 136.671875 452.679688 136.914062 C 448.75 137.164062 445.726562 140.476562 445.835938 144.414062 C 445.953125 148.34375 449.164062 151.484375 453.101562 151.5 C 456.5 151.5 459.398438 149.203125 460.296875 146.101562 C 460.296875 147.5 460.296875 150.703125 460.703125 151.796875 Z M 460.703125 151.796875 " transform="matrix(0.5,0,0,0.5,0,0)"/>
<path style="fill-rule:nonzero;fill:rgb(20%,45.09804%,12.941177%);fill-opacity:1;stroke-width:0.4;stroke-linecap:butt;stroke-linejoin:miter;stroke:rgb(0%,0%,0%);stroke-opacity:1;stroke-miterlimit:4;" d="M 448.601562 162 C 448 161.203125 446.703125 159 446.898438 157.5 C 448.304688 157.539062 449.648438 158.070312 450.703125 159 C 450.601562 157.796875 450.101562 155.398438 450.398438 154.203125 C 451.601562 154.703125 454.203125 156.203125 455.101562 157.796875 C 454.898438 156.703125 454.398438 153.796875 454.898438 152 C 456.203125 152.796875 458.5 154.898438 458.898438 156.398438 C 459.101562 154.101562 459.898438 150.398438 460.5 149.398438 C 461.5 150.398438 463.101562 151.398438 464.101562 152.796875 C 464.296875 150.898438 465.296875 148.796875 466.601562 148.296875 C 467.601562 149.296875 469.203125 152 469.601562 154.898438 C 470.601562 154.601562 471.898438 152.898438 472.5 151.898438 C 473 152.898438 473.601562 154.398438 473.203125 156.398438 C 474.5 155.203125 476 153.703125 476.203125 152.296875 C 477.203125 153 478.898438 154.703125 479.296875 156.5 C 479.101562 155 479.296875 152.398438 478.796875 150.898438 C 480.398438 151.898438 481.796875 153.398438 482.101562 155.101562 C 482.601562 153.5 483.601562 150.703125 484.5 150.101562 C 485.398438 151.898438 486.296875 154.101562 486.203125 155.796875 C 486.796875 154.703125 487.601562 152.601562 488.5 152.203125 C 489.296875 153.398438 489.203125 156.203125 489 157.601562 C 489.796875 156.5 491.296875 155.101562 492.203125 154.601562 C 492.203125 155.398438 492.398438 156.703125 492.203125 157.703125 C 493.632812 156.226562 494.726562 154.445312 495.398438 152.5 C 497 153.296875 498.601562 156 498.703125 157.398438 C 499.898438 156.898438 502.101562 154.898438 502.703125 153.796875 C 502.703125 154.601562 503.101562 156.796875 502.703125 158.398438 C 503.398438 157.703125 504 156.398438 504.398438 155.796875 C 504.796875 156.898438 504.398438 159.601562 504 161.101562 C 504.945312 160.25 506.132812 159.726562 507.398438 159.601562 C 507.117188 162.34375 506.265625 165 504.898438 167.398438 C 494.101562 164.398438 471.398438 163.296875 448.601562 162 Z M 448.601562 162 " transform="matrix(0.5,0,0,0.5,0,0)"/>
<path style=" stroke:none;fill-rule:nonzero;fill:rgb(96.862745%,87.843138%,9.019608%);fill-opacity:1;" d="M 243.199219 51.148438 C 243.199219 50.699219 244.101562 49.800781 245.75 49.800781 C 247.75 49.800781 249.601562 51.300781 251.199219 51.148438 C 252.800781 51 252 51.601562 251.699219 51.699219 C 251.300781 51.867188 251.132812 52.066406 251.199219 52.300781 C 251.398438 52.632812 251.167969 52.699219 250.5 52.5 C 249.101562 52 247.648438 52.699219 245.800781 52.300781 C 244.199219 51.949219 243.25 51.800781 243.199219 51.148438 "/>
<path style="fill-rule:nonzero;fill:rgb(96.862745%,87.843138%,9.019608%);fill-opacity:1;stroke-width:0.4;stroke-linecap:butt;stroke-linejoin:miter;stroke:rgb(0%,0%,0%);stroke-opacity:1;stroke-miterlimit:4;" d="M 452.101562 168.796875 C 448.796875 172.796875 445.398438 172.203125 444.703125 169.601562 C 444 167 446.5 165.796875 445.601562 163.5 C 444.703125 161.203125 447.101562 160.203125 448.203125 161.203125 C 449.296875 162.203125 453 159 454.5 162.398438 C 456.101562 165.796875 457.296875 168.101562 456.5 169.398438 C 455.5 170.796875 452.796875 170.101562 452.101562 168.796875 Z M 466.703125 162.703125 C 466.101562 161.203125 469.601562 158.296875 471.398438 160.398438 C 473.203125 162.398438 476 158.203125 477.601562 161.398438 C 479.203125 164.601562 479.601562 166.296875 480.5 168.101562 C 481.203125 169.898438 476.203125 170.796875 474.601562 169.296875 C 474.796875 170.296875 470.203125 171.203125 469 168.101562 Z M 490.101562 164.601562 C 489.296875 163 493.398438 160.703125 495.601562 163.601562 C 496.101562 162.398438 500.203125 162.203125 500.5 165.601562 L 501 172.5 C 501.101562 173.796875 498.5 175.101562 496.703125 171.601562 C 493.296875 172.296875 491.796875 170.398438 491.398438 168.5 C 491 166.601562 490.601562 165.5 490.101562 164.5 Z M 490.101562 164.601562 " transform="matrix(0.5,0,0,0.5,0,0)"/>
<path style="fill-rule:nonzero;fill:rgb(20%,45.09804%,12.941177%);fill-opacity:1;stroke-width:0.4;stroke-linecap:butt;stroke-linejoin:miter;stroke:rgb(0%,0%,0%);stroke-opacity:1;stroke-miterlimit:4;" d="M 454.296875 162.296875 C 453.796875 161.203125 457.296875 158.898438 459.5 160.601562 C 461.703125 162.296875 465 159.203125 466.5 162.203125 C 469.203125 168.398438 469.296875 168.796875 468.5 170 C 467.703125 171.203125 464 170.703125 463.101562 169 C 463 170.203125 459.796875 170 458.203125 169.101562 C 456.398438 168.101562 455.101562 164.296875 454.296875 162.296875 Z M 478 162.601562 C 477.296875 160.796875 482.601562 159.296875 485 162.398438 C 486.101562 161.296875 488.703125 161.203125 490.101562 164.601562 C 491.570312 167.796875 491.796875 169.796875 490.796875 170.601562 C 490 171.203125 487.296875 171.601562 486.398438 170.101562 C 485.101562 170.898438 481.296875 170.203125 480.398438 168.101562 C 479.601562 165.96875 478.835938 164.132812 478.101562 162.601562 Z M 500.5 166 C 500.5 164.296875 503.296875 163.601562 504.398438 166 C 505.398438 168.203125 508.898438 166.101562 509.203125 170 C 509.203125 170.703125 508.796875 173.5 507.703125 174.898438 C 506.703125 176.203125 501.398438 174.898438 501 172 Z M 500.5 166 " transform="matrix(0.5,0,0,0.5,0,0)"/>
<path style="fill:none;stroke-width:0.4;stroke-linecap:butt;stroke-linejoin:miter;stroke:rgb(0%,0%,0%);stroke-opacity:1;stroke-miterlimit:4;" d="M 452.101562 168.796875 C 450.898438 167.101562 449.203125 164.398438 447.101562 167.296875 M 463.203125 169 C 462.398438 168.101562 461.5 166.5 461.203125 165.296875 M 474.601562 169.296875 C 473.796875 168.703125 472.601562 167.601562 472 166.398438 M 473.601562 163.398438 C 475.601562 163.601562 476.898438 165.398438 477.5 166.296875 C 478.101562 167.203125 479.5 168.703125 480.5 168.796875 M 486.398438 170.101562 C 485.601562 169.03125 485.101562 168.101562 484.898438 167.296875 M 485 162.398438 C 485.601562 163.335938 486.101562 164.203125 486.5 165 M 496.601562 171.601562 C 495.84375 169.984375 494.625 168.625 493.101562 167.703125 M 496.203125 165.398438 C 496.296875 168.703125 500.703125 169 500.898438 171.398438 M 504.398438 166 C 504.796875 166.664062 505 167.664062 505 169 " transform="matrix(0.5,0,0,0.5,0,0)"/>
</g>
</svg>
