<?xml version="1.0" encoding="UTF-8"?>
<svg xmlns="http://www.w3.org/2000/svg" xmlns:xlink="http://www.w3.org/1999/xlink" width="px" height="px" viewBox="0 0 320 240" version="1.1">
<g id="surface1">
<path style=" stroke:none;fill-rule:nonzero;fill:rgb(100%,0%,0%);fill-opacity:1;" d="M 128 0 L 320 0 L 320 240 L 128 240 Z M 128 0 "/>
<path style=" stroke:none;fill-rule:nonzero;fill:rgb(0%,40.000001%,0%);fill-opacity:1;" d="M 0 0 L 128 0 L 128 240 L 0 240 Z M 0 0 "/>
<path style="fill-rule:evenodd;fill:rgb(100%,100%,0%);fill-opacity:1;stroke-width:0.6;stroke-linecap:round;stroke-linejoin:round;stroke:rgb(0%,0%,0%);stroke-opacity:1;stroke-miterlimit:4;" d="M 339.5 306.203125 C 307.203125 305.203125 159.5 213 158.5 198.203125 L 166.601562 184.703125 C 181.296875 206 332.296875 295.703125 347.203125 292.5 Z M 339.5 306.203125 " transform="matrix(0.5,0,0,0.5,0,0)"/>
<path style="fill-rule:evenodd;fill:rgb(100%,100%,0%);fill-opacity:1;stroke-width:0.6;stroke-linecap:round;stroke-linejoin:round;stroke:rgb(0%,0%,0%);stroke-opacity:1;stroke-miterlimit:4;" d="M 164.898438 182.796875 C 162 190.601562 203.5 216.203125 253.296875 246.601562 C 303.101562 277 346.203125 295.601562 349.296875 293 L 350.796875 290.203125 C 350.203125 291.265625 348.765625 291.46875 346.5 290.796875 C 333 286.898438 297.898438 270.796875 254.398438 244.398438 C 210.796875 218 173 193.703125 167.101562 183.398438 C 166.625 182.4375 166.421875 181.367188 166.5 180.296875 L 166.296875 180.296875 L 165.101562 182.5 Z M 340.203125 306.601562 C 339.734375 307.46875 338.570312 307.734375 336.703125 307.398438 C 324.703125 306.101562 288.101562 288.296875 244.796875 262.398438 C 194.398438 232.203125 152.796875 204.796875 157.398438 197.601562 L 158.601562 195.398438 L 158.796875 195.5 C 154.796875 207.703125 240.898438 256.898438 246 260.101562 C 295.796875 290.898438 337.796875 309 341.5 304.296875 Z M 340.203125 306.601562 " transform="matrix(0.5,0,0,0.5,0,0)"/>
<path style="fill-rule:evenodd;fill:rgb(100%,100%,0%);fill-opacity:1;stroke-width:0.6;stroke-linecap:round;stroke-linejoin:round;stroke:rgb(0%,0%,0%);stroke-opacity:1;stroke-miterlimit:4;" d="M 256.203125 207.203125 C 288.398438 206.898438 328.203125 202.796875 351.203125 193.601562 L 346.203125 185.601562 C 332.703125 193.101562 292.703125 198.101562 255.898438 198.796875 C 212.5 198.398438 181.796875 194.296875 166.398438 184 L 161.796875 192.601562 C 190 204.601562 219 207.101562 256.203125 207.203125 " transform="matrix(0.5,0,0,0.5,0,0)"/>
<path style="fill-rule:evenodd;fill:rgb(100%,100%,0%);fill-opacity:1;stroke-width:0.6;stroke-linecap:round;stroke-linejoin:round;stroke:rgb(0%,0%,0%);stroke-opacity:1;stroke-miterlimit:4;" d="M 352.5 193.796875 C 351.703125 195.101562 336.703125 200.203125 314.703125 204 C 295.304688 206.9375 275.71875 208.375 256.101562 208.296875 C 237.304688 208.367188 218.53125 207.171875 199.898438 204.703125 C 176.796875 201.101562 164.898438 196.101562 160.398438 194.296875 L 161.5 192.101562 C 174.203125 197.101562 186.203125 200.101562 200.203125 202.296875 C 218.695312 204.796875 237.335938 206.03125 256 206 C 275.515625 206.023438 295 204.585938 314.296875 201.703125 C 336.796875 198 349.101562 193.296875 350.898438 191.203125 Z M 348.101562 185.703125 C 345.703125 187.703125 333.5 192 312.101562 195.398438 C 293.617188 198.078125 274.96875 199.414062 256.296875 199.398438 C 234.296875 199.398438 216.203125 197.796875 202.5 195.796875 C 180.703125 193 169.101562 187.796875 164.898438 186.398438 L 166.203125 184.203125 C 169.5 185.898438 180.601562 190.398438 202.703125 193.5 C 220.46875 195.882812 238.375 197.015625 256.296875 196.898438 C 274.835938 196.90625 293.351562 195.570312 311.703125 192.898438 C 333.203125 189.898438 344.796875 184.5 346.601562 183.101562 Z M 150.296875 246 C 170.101562 256.703125 214.203125 262 255.898438 262.398438 C 293.898438 262.5 343.296875 256.601562 361.796875 246.796875 L 361.296875 236.101562 C 355.5 245.101562 302.5 253.796875 255.5 253.5 C 208.5 253.203125 164.796875 245.898438 150.203125 236.5 L 150.203125 246 " transform="matrix(0.5,0,0,0.5,0,0)"/>
<path style="fill-rule:evenodd;fill:rgb(100%,100%,0%);fill-opacity:1;stroke-width:0.6;stroke-linecap:round;stroke-linejoin:round;stroke:rgb(0%,0%,0%);stroke-opacity:1;stroke-miterlimit:4;" d="M 362.796875 244.5 L 362.796875 247 C 360 250.398438 342.601562 255.398438 320.796875 259 C 299.140625 262.109375 277.28125 263.585938 255.398438 263.398438 C 234.65625 263.578125 213.921875 262.140625 193.398438 259.101562 C 178.085938 257.328125 163.117188 253.289062 149 247.101562 L 149 244.203125 C 158.703125 250.601562 184.898438 255.398438 193.703125 256.796875 C 209.5 259.203125 229.796875 261 255.398438 261 C 282.296875 261 303.796875 259.101562 320.398438 256.601562 C 336.101562 254.296875 358.398438 248.398438 362.796875 244.5 M 362.796875 235.5 L 362.796875 238 C 360 241.296875 342.601562 246.296875 320.796875 249.898438 C 299.148438 253.046875 277.28125 254.554688 255.398438 254.398438 C 234.65625 254.523438 213.929688 253.085938 193.398438 250.101562 C 178.085938 248.328125 163.117188 244.289062 149 238.101562 L 149 235.101562 C 158.703125 241.601562 185 246.296875 193.703125 247.703125 C 214.125 250.695312 234.757812 252.132812 255.398438 252 C 282.296875 252 303.898438 250 320.398438 247.5 C 336.101562 245.296875 358.398438 239.398438 362.796875 235.5 M 255.796875 304.296875 C 210.203125 304.101562 171.101562 291.898438 162.796875 289.898438 L 168.796875 299.296875 C 196.851562 309.226562 226.445312 314.070312 256.203125 313.601562 C 290.898438 312.601562 321.203125 309.898438 342.5 299.5 L 348.703125 289.703125 C 334.203125 296.601562 284.703125 304.296875 255.703125 304.296875 " transform="matrix(0.5,0,0,0.5,0,0)"/>
<path style="fill-rule:evenodd;fill:rgb(100%,100%,0%);fill-opacity:1;stroke-width:0.6;stroke-linecap:round;stroke-linejoin:round;stroke:rgb(0%,0%,0%);stroke-opacity:1;stroke-miterlimit:4;" d="M 344.898438 297.296875 L 342.101562 301.296875 C 332.101562 304.898438 316.101562 308.703125 309.5 309.703125 C 291.789062 313 273.8125 314.671875 255.796875 314.703125 C 215.398438 314.101562 182.296875 306.203125 166.796875 299.398438 L 165.5 297.296875 L 165.703125 296.898438 L 167.796875 297.796875 C 196.265625 307.210938 226.023438 312.101562 256 312.296875 C 274.796875 312.296875 293.5 310.203125 308.601562 307.5 C 331.796875 302.796875 341.203125 299.296875 344.101562 297.703125 L 344.796875 297.296875 Z M 350.203125 288.5 L 348.203125 292 C 342.796875 294 328.203125 298.203125 306.898438 301.203125 C 292.898438 303.101562 284.203125 305 256.296875 305.5 C 224.40625 305.1875 192.710938 300.476562 162.101562 291.5 L 161 289 C 192.101562 297.59375 224.140625 302.296875 256.398438 303 C 281.898438 302.5 292.796875 300.601562 306.703125 298.703125 C 331.5 294.898438 344 290.703125 347.703125 289.601562 L 347.703125 289.398438 L 350.296875 288.398438 Z M 350.203125 288.5 " transform="matrix(0.5,0,0,0.5,0,0)"/>
<path style="fill-rule:evenodd;fill:rgb(100%,100%,0%);fill-opacity:1;stroke-width:0.6;stroke-linecap:round;stroke-linejoin:round;stroke:rgb(0%,0%,0%);stroke-opacity:1;stroke-miterlimit:4;" d="M 350.796875 237.601562 C 350.898438 267.601562 335.5 294.601562 323.203125 306.398438 C 305.046875 324.140625 280.78125 334.242188 255.398438 334.601562 C 225.101562 335.101562 196.601562 315.398438 188.898438 306.703125 C 171.671875 288.429688 161.867188 264.40625 161.398438 239.296875 C 163.203125 206.5 176.101562 183.703125 194.703125 168 C 212.789062 153.15625 235.5 145.125 258.898438 145.296875 C 286.53125 146.617188 312.320312 159.546875 329.898438 180.898438 C 342.398438 196.101562 347.898438 212.601562 350.796875 237.601562 M 255.601562 135 C 313.828125 135 361.164062 181.96875 361.601562 240.203125 C 361.601562 298.578125 314.273438 345.898438 255.898438 345.898438 C 197.523438 345.898438 150.203125 298.578125 150.203125 240.203125 C 150.101562 182.203125 197.5 135 255.601562 135 " transform="matrix(0.5,0,0,0.5,0,0)"/>
<path style="fill-rule:evenodd;fill:rgb(100%,100%,0%);fill-opacity:1;stroke-width:0.6;stroke-linecap:round;stroke-linejoin:round;stroke:rgb(0%,0%,0%);stroke-opacity:1;stroke-miterlimit:4;" d="M 255.898438 134.5 C 314.101562 134.5 361.5 181.898438 361.5 240.101562 C 361.5 298.296875 314.101562 345.703125 256 345.703125 C 197.898438 345.703125 150.398438 298.296875 150.398438 240.101562 C 150.398438 181.898438 197.796875 134.5 256 134.5 Z M 152.601562 240 C 152.601562 296.796875 199.296875 343.296875 255.898438 343.296875 C 312.5 343.296875 359.203125 296.796875 359.203125 240 C 359.203125 183.203125 312.5 136.703125 255.898438 136.703125 C 199.296875 136.703125 152.601562 183.203125 152.601562 240 " transform="matrix(0.5,0,0,0.5,0,0)"/>
<path style="fill-rule:evenodd;fill:rgb(100%,100%,0%);fill-opacity:1;stroke-width:0.6;stroke-linecap:round;stroke-linejoin:round;stroke:rgb(0%,0%,0%);stroke-opacity:1;stroke-miterlimit:4;" d="M 256 143.296875 C 309.335938 143.460938 352.539062 186.664062 352.703125 240 C 352.59375 293.375 309.375 336.632812 256 336.796875 C 203 336.796875 159.296875 293.203125 159.296875 240 C 159.460938 186.664062 202.664062 143.460938 256 143.296875 M 161.601562 240 C 161.601562 292 204.203125 334.398438 256 334.398438 C 307.796875 334.398438 350.398438 291.898438 350.398438 240 C 350.398438 188.101562 307.796875 145.601562 256 145.601562 C 204 145.929688 161.929688 188 161.601562 240 " transform="matrix(0.5,0,0,0.5,0,0)"/>
<path style="fill-rule:evenodd;fill:rgb(100%,100%,0%);fill-opacity:1;stroke-width:0.6;stroke-linecap:round;stroke-linejoin:round;stroke:rgb(0%,0%,0%);stroke-opacity:1;stroke-miterlimit:4;" d="M 260.296875 134 L 251.203125 134 L 251.203125 346.296875 L 260.203125 346.296875 Z M 260.296875 134 " transform="matrix(0.5,0,0,0.5,0,0)"/>
<path style="fill-rule:evenodd;fill:rgb(100%,100%,0%);fill-opacity:1;stroke-width:0.6;stroke-linecap:round;stroke-linejoin:round;stroke:rgb(0%,0%,0%);stroke-opacity:1;stroke-miterlimit:4;" d="M 259.296875 132.796875 L 261.601562 132.796875 L 261.601562 347.5 L 259.398438 347.5 L 259.398438 132.796875 Z M 250.296875 132.796875 L 252.703125 132.796875 L 252.703125 347.5 L 250.398438 347.5 Z M 250.296875 132.796875 " transform="matrix(0.5,0,0,0.5,0,0)"/>
<path style="fill-rule:evenodd;fill:rgb(100%,100%,0%);fill-opacity:1;stroke-width:0.6;stroke-linecap:round;stroke-linejoin:round;stroke:rgb(0%,0%,0%);stroke-opacity:1;stroke-miterlimit:4;" d="M 361.601562 244.203125 L 361.601562 236.398438 L 355.203125 230.398438 L 318.898438 220.796875 L 266.703125 215.5 L 203.703125 218.703125 L 158.898438 229.296875 L 149.898438 236 L 149.898438 243.898438 L 172.796875 233.601562 L 227.203125 225.101562 L 279.5 225.101562 L 317.898438 229.296875 L 344.5 235.703125 Z M 361.601562 244.203125 " transform="matrix(0.5,0,0,0.5,0,0)"/>
<path style="fill-rule:evenodd;fill:rgb(100%,100%,0%);fill-opacity:1;stroke-width:0.6;stroke-linecap:round;stroke-linejoin:round;stroke:rgb(0%,0%,0%);stroke-opacity:1;stroke-miterlimit:4;" d="M 256 223.796875 C 280.898438 223.796875 305 226.101562 324.296875 229.796875 C 344.101562 233.796875 358 238.796875 362.796875 244.296875 L 362.796875 247.101562 C 357 240.101562 338.296875 235.101562 323.796875 232.101562 C 304.796875 228.5 280.796875 226.101562 255.898438 226.101562 C 229.796875 226.101562 205.398438 228.703125 186.601562 232.296875 C 171.601562 235.296875 151.5 241.296875 149 247.101562 L 149 244.203125 C 150.296875 240.203125 165.296875 234.203125 186.296875 229.898438 C 205.203125 226.203125 229.601562 223.796875 255.898438 223.796875 Z M 256 214.703125 C 278.898438 214.65625 301.757812 216.664062 324.296875 220.703125 C 344.101562 224.703125 358 229.703125 362.796875 235.296875 L 362.796875 238 C 357 231.101562 338.296875 226 323.796875 223.101562 C 304.796875 219.398438 280.796875 217.101562 255.898438 217.101562 C 232.695312 217.023438 209.523438 219.101562 186.703125 223.296875 C 172.203125 226 151.296875 232.203125 149 238 L 149 235.203125 C 150.398438 231.203125 165.601562 224.898438 186.296875 220.898438 C 205.296875 217.203125 229.601562 214.703125 256 214.703125 M 255.398438 168.5 C 294.703125 168.296875 329 174 344.703125 182 L 350.398438 192 C 336.796875 184.601562 299.796875 177 255.5 178 C 219.398438 178.296875 180.796875 182 161.5 192.398438 L 168.296875 181 C 184.203125 172.703125 221.601562 168.5 255.398438 168.5 " transform="matrix(0.5,0,0,0.5,0,0)"/>
<path style="fill-rule:evenodd;fill:rgb(100%,100%,0%);fill-opacity:1;stroke-width:0.6;stroke-linecap:round;stroke-linejoin:round;stroke:rgb(0%,0%,0%);stroke-opacity:1;stroke-miterlimit:4;" d="M 256 176.703125 C 276.515625 176.351562 297.03125 177.789062 317.296875 181 C 333.296875 184 348.601562 188.398438 350.796875 190.796875 L 352.5 193.796875 C 347.203125 190.398438 333.898438 186.5 316.898438 183.296875 C 299.898438 180.101562 278.203125 179 255.898438 179.101562 C 230.601562 179 210.898438 180.296875 194.101562 183.296875 C 182.515625 184.921875 171.273438 188.40625 160.796875 193.601562 L 162.5 190.5 C 168.5 187.5 177.796875 183.796875 193.601562 180.898438 C 211.101562 177.703125 231 176.796875 256 176.703125 M 256 167.703125 C 277.398438 167.5 298.601562 168.703125 315.101562 171.703125 C 325.789062 173.289062 336.132812 176.671875 345.703125 181.703125 L 348.203125 185.703125 C 344 181 328.203125 176.5 314.101562 174.101562 C 297.703125 171.203125 277.398438 170.101562 256 169.898438 C 236.078125 169.71875 216.179688 171.195312 196.5 174.296875 C 186.210938 175.726562 176.21875 178.804688 166.898438 183.398438 L 169.101562 180.101562 C 174.898438 177.101562 184.296875 174.296875 196.101562 172 C 215.90625 168.851562 235.945312 167.382812 256 167.601562 Z M 308.398438 284 C 291.070312 281 273.484375 279.65625 255.898438 280 C 190.398438 280.796875 169.296875 293.5 166.703125 297.296875 L 161.703125 289.296875 C 178.5 277.296875 214.101562 270.5 256.296875 271.101562 C 278.234375 271.429688 297.101562 273.101562 312.898438 276.101562 L 308.398438 284.101562 " transform="matrix(0.5,0,0,0.5,0,0)"/>
<path style="fill-rule:evenodd;fill:rgb(100%,100%,0%);fill-opacity:1;stroke-width:0.6;stroke-linecap:round;stroke-linejoin:round;stroke:rgb(0%,0%,0%);stroke-opacity:1;stroke-miterlimit:4;" d="M 255.601562 278.898438 C 273.796875 279.203125 291.601562 279.898438 308.898438 283.101562 L 307.703125 285.296875 C 291.703125 282.296875 274.5 281.296875 255.703125 281.296875 C 231.398438 281.101562 207 283.398438 185.703125 289.5 C 179 291.398438 167.898438 295.703125 166.703125 299.296875 L 165.5 297.296875 C 165.898438 295.101562 172.5 290.703125 185.101562 287.296875 C 209.5 280.296875 232.296875 279 255.601562 278.898438 M 256.398438 269.703125 C 275.609375 269.679688 294.78125 271.351562 313.703125 274.703125 L 312.398438 277 C 293.929688 273.609375 275.179688 271.96875 256.398438 272.101562 C 232.203125 272.101562 206.5 273.898438 183.101562 280.703125 C 175.601562 282.898438 162.5 287.703125 162.101562 291.398438 L 160.898438 289.203125 C 161.101562 285.796875 172.398438 281.296875 182.601562 278.398438 C 206.101562 271.5 231.898438 269.796875 256.398438 269.703125 " transform="matrix(0.5,0,0,0.5,0,0)"/>
<path style="fill-rule:evenodd;fill:rgb(100%,100%,0%);fill-opacity:1;stroke-width:0.6;stroke-linecap:round;stroke-linejoin:round;stroke:rgb(0%,0%,0%);stroke-opacity:1;stroke-miterlimit:4;" d="M 349.398438 290.5 L 341.601562 302.796875 L 318.898438 282.703125 L 260.296875 243.203125 L 194.101562 206.898438 L 159.796875 195.203125 L 167.101562 181.601562 L 169.601562 180.296875 L 190.898438 185.601562 L 261.296875 221.898438 L 301.898438 247.5 L 336 272 L 349.898438 288 Z M 349.398438 290.5 " transform="matrix(0.5,0,0,0.5,0,0)"/>
<path style="fill-rule:evenodd;fill:rgb(100%,100%,0%);fill-opacity:1;stroke-width:0.6;stroke-linecap:round;stroke-linejoin:round;stroke:rgb(0%,0%,0%);stroke-opacity:1;stroke-miterlimit:4;" d="M 158.601562 195.5 C 164.601562 191.5 208.796875 211.101562 255.203125 239.101562 C 301.296875 267.101562 345.5 298.703125 341.5 304.601562 L 340.203125 306.703125 L 339.601562 307.203125 C 339.703125 307.101562 340.398438 306.203125 339.601562 304.101562 C 337.601562 297.601562 306.203125 272.601562 254.296875 241.203125 C 203.601562 211.101562 161.398438 192.898438 157.296875 198.101562 Z M 351 290.398438 C 354.796875 282.796875 313.796875 251.898438 262.898438 221.796875 C 210.898438 192.296875 173.296875 174.898438 166.398438 180.101562 L 165 183 C 164.929688 183 165.070312 182.835938 165.398438 182.5 C 166.601562 181.5 168.703125 181.5 169.601562 181.5 C 181.398438 181.703125 215.101562 197.203125 262.398438 224.296875 C 283.203125 236.296875 350 279.296875 349.703125 291.296875 C 349.703125 292.296875 349.796875 292.5 349.398438 293.101562 L 351.101562 290.5 Z M 351 290.398438 " transform="matrix(0.5,0,0,0.5,0,0)"/>
<path style="fill-rule:nonzero;fill:rgb(100%,100%,100%);fill-opacity:1;stroke-width:0.7;stroke-linecap:butt;stroke-linejoin:miter;stroke:rgb(0%,0%,0%);stroke-opacity:1;stroke-miterlimit:4;" d="M 180.600032 210.998375 C 180.665949 226.672155 186.957434 241.679433 198.097536 252.702349 C 209.1351 263.901045 224.178999 270.236474 239.896725 270.302392 C 255.665719 270.346337 270.78286 264.076825 281.90099 252.900102 C 293.026444 241.833241 299.288632 226.789342 299.30328 211.100914 L 299.30328 131.897055 L 180.600032 131.699302 Z M 180.600032 210.998375 " transform="matrix(0.533335,0,0,0.533335,0,13.35)"/>
<path style="fill-rule:nonzero;fill:rgb(100%,0%,0%);fill-opacity:1;stroke-width:0.5;stroke-linecap:butt;stroke-linejoin:miter;stroke:rgb(0%,0%,0%);stroke-opacity:1;stroke-miterlimit:4;" d="M 183.002368 211.100914 C 182.995044 226.152137 189.052154 240.566155 199.79675 251.09835 C 210.446131 261.799 224.904095 267.841462 239.999263 267.900056 C 255.065135 267.900056 269.523098 261.930836 280.201777 251.303427 C 290.909752 240.74926 296.930241 226.335242 296.900944 211.298667 L 296.900944 134.299392 L 183.002368 134.299392 L 183.002368 211.100914 M 273.998182 157.399907 L 273.998182 206.303565 L 273.902968 211.401206 C 273.990858 220.43194 270.380029 229.103788 263.898116 235.402597 C 257.540713 241.781972 248.905486 245.378152 239.896725 245.400125 C 230.499781 245.400125 222.201466 241.401114 215.997872 235.19752 C 209.618497 228.840117 206.022317 220.212214 206.000344 211.203453 L 206.000344 157.202153 Z M 273.998182 157.399907 " transform="matrix(0.533335,0,0,0.533335,0,13.35)"/>
<path style=" stroke:none;fill-rule:nonzero;fill:rgb(100%,100%,0%);fill-opacity:1;" d="M 101.441406 95.695312 C 101.492188 92.761719 103.574219 92.070312 103.574219 92.070312 C 103.628906 92.070312 105.867188 92.816406 105.867188 95.75 Z M 101.441406 95.695312 "/>
<path style="fill-rule:nonzero;fill:rgb(100%,100%,0%);fill-opacity:1;stroke-width:0.5;stroke-linecap:butt;stroke-linejoin:miter;stroke:rgb(0%,0%,0%);stroke-opacity:1;stroke-miterlimit:4;" d="M 186.803626 147.702671 L 186.100503 154.00148 L 190.297267 154.00148 C 190.297267 148.8013 194.303603 148.002963 194.303603 148.002963 C 194.398817 148.002963 198.302614 149.101592 198.397828 154.00148 L 202.601917 154.00148 L 201.80358 147.600132 Z M 185.800211 154.096694 L 202.79967 154.096694 C 203.136583 154.096694 203.334337 154.331069 203.400255 154.799817 C 203.400255 155.334483 203.202501 155.598154 202.79967 155.598154 L 185.800211 155.598154 C 185.463298 155.598154 185.265545 155.334483 185.199627 154.799817 C 185.199627 154.331069 185.434001 154.096694 185.90275 154.096694 Z M 185.800211 154.096694 " transform="matrix(0.533335,0,0,0.533335,0,13.35)"/>
<path style="fill-rule:nonzero;fill:rgb(100%,100%,0%);fill-opacity:1;stroke-width:0.5;stroke-linecap:butt;stroke-linejoin:miter;stroke:rgb(0%,0%,0%);stroke-opacity:1;stroke-miterlimit:4;" d="M 191.996481 154.00148 C 191.996481 150.698267 194.303603 149.797391 194.303603 149.797391 C 194.303603 149.797391 196.6034 150.800806 196.6034 154.00148 L 191.996481 154.00148 M 186.203042 145.000042 L 202.499378 145.000042 C 202.836291 145.06596 203.034045 145.336955 203.099962 145.79838 C 203.099962 146.135293 202.902209 146.333046 202.499378 146.398964 L 186.203042 146.398964 C 185.866129 146.398964 185.668375 146.16459 185.602458 145.703165 C 185.602458 145.366252 185.800211 145.168499 186.203042 145.102581 Z M 186.598548 146.501503 L 202.001333 146.501503 C 202.330922 146.501503 202.535999 146.735877 202.601917 147.197301 C 202.667835 147.66605 202.470082 147.900424 202.001333 147.900424 L 186.503334 147.900424 C 186.100503 147.900424 185.90275 147.66605 185.90275 147.197301 C 185.90275 146.735877 186.100503 146.501503 186.503334 146.501503 Z M 191.600974 135.903391 L 192.802143 135.903391 L 192.802143 136.701728 L 193.703019 136.701728 L 193.703019 135.903391 L 194.999401 135.903391 L 194.999401 136.796943 L 195.900278 136.796943 L 195.900278 135.800852 L 197.101446 135.800852 L 197.101446 137.800358 C 197.101446 138.203188 196.932989 138.400942 196.6034 138.400942 L 192.201558 138.400942 C 191.864645 138.400942 191.666892 138.232485 191.600974 137.902896 Z M 196.20057 138.598695 L 196.500862 145.000042 L 192.201558 145.000042 L 192.50185 138.50348 L 196.20057 138.50348 " transform="matrix(0.533335,0,0,0.533335,0,13.35)"/>
<path style="fill-rule:nonzero;fill:rgb(100%,100%,0%);fill-opacity:1;stroke-width:0.5;stroke-linecap:butt;stroke-linejoin:miter;stroke:rgb(0%,0%,0%);stroke-opacity:1;stroke-miterlimit:4;" d="M 191.00039 141.601615 L 191.00039 145.000042 L 187.001379 145.000042 L 187.001379 141.601615 Z M 191.00039 141.601615 " transform="matrix(0.533335,0,0,0.533335,0,13.35)"/>
<path style="fill-rule:nonzero;fill:rgb(100%,100%,0%);fill-opacity:1;stroke-width:0.5;stroke-linecap:butt;stroke-linejoin:miter;stroke:rgb(0%,0%,0%);stroke-opacity:1;stroke-miterlimit:4;" d="M 190.998502 141.601615 L 190.998502 145.000042 L 186.999491 145.000042 L 186.999491 141.601615 Z M 190.998502 141.601615 " transform="matrix(0.533335,0,0,0.533335,5.653351,13.35)"/>
<path style="fill-rule:nonzero;fill:rgb(100%,100%,0%);fill-opacity:1;stroke-width:0.5;stroke-linecap:butt;stroke-linejoin:miter;stroke:rgb(0%,0%,0%);stroke-opacity:1;stroke-miterlimit:4;" d="M 186.298256 139.001526 L 187.499424 139.001526 L 187.499424 139.997616 L 188.400301 139.997616 L 188.400301 139.001526 L 189.601469 139.001526 L 189.601469 139.997616 L 190.502345 139.997616 L 190.502345 139.001526 L 191.703513 139.001526 L 191.703513 141.001031 C 191.703513 141.396538 191.535057 141.601615 191.198144 141.601615 L 186.89884 141.601615 C 186.620521 141.499077 186.400795 141.279351 186.298256 141.001031 Z M 186.298256 139.001526 " transform="matrix(0.533335,0,0,0.533335,0,13.35)"/>
<path style="fill-rule:nonzero;fill:rgb(100%,100%,0%);fill-opacity:1;stroke-width:0.5;stroke-linecap:butt;stroke-linejoin:miter;stroke:rgb(0%,0%,0%);stroke-opacity:1;stroke-miterlimit:4;" d="M 186.296368 139.001526 L 187.497536 139.001526 L 187.497536 139.997616 L 188.398412 139.997616 L 188.398412 139.001526 L 189.59958 139.001526 L 189.59958 139.997616 L 190.500457 139.997616 L 190.500457 139.001526 L 191.701625 139.001526 L 191.701625 141.001031 C 191.701625 141.396538 191.533168 141.601615 191.203579 141.601615 L 186.896952 141.601615 C 186.618633 141.499077 186.398907 141.279351 186.296368 141.001031 Z M 186.296368 139.001526 " transform="matrix(0.533335,0,0,0.533335,5.653351,13.35)"/>
<path style=" stroke:none;fill-rule:nonzero;fill:rgb(0%,0%,0.392157%);fill-opacity:1;" d="M 103.414062 88.335938 C 103.414062 88.015625 103.894531 88.015625 103.894531 88.335938 L 103.894531 89.191406 L 103.414062 89.191406 Z M 103.414062 88.335938 "/>
<path style=" stroke:none;fill-rule:nonzero;fill:rgb(0%,0%,0.392157%);fill-opacity:1;" d="M 100.585938 89.511719 C 100.585938 89.191406 101.011719 89.191406 101.011719 89.511719 L 101.011719 90.148438 L 100.585938 90.148438 Z M 100.585938 89.511719 "/>
<path style=" stroke:none;fill-rule:nonzero;fill:rgb(0%,0%,0.392157%);fill-opacity:1;" d="M 106.242188 89.511719 C 106.242188 89.191406 106.667969 89.191406 106.667969 89.511719 L 106.667969 90.148438 L 106.242188 90.148438 Z M 106.242188 89.511719 "/>
<path style=" stroke:none;fill-rule:nonzero;fill:rgb(100%,100%,0%);fill-opacity:1;" d="M 101.441406 120.390625 C 101.492188 117.457031 103.574219 116.761719 103.574219 116.761719 C 103.628906 116.761719 105.867188 117.511719 105.867188 120.445312 Z M 101.441406 120.390625 "/>
<path style="fill-rule:nonzero;fill:rgb(100%,100%,0%);fill-opacity:1;stroke-width:0.5;stroke-linecap:butt;stroke-linejoin:miter;stroke:rgb(0%,0%,0%);stroke-opacity:1;stroke-miterlimit:4;" d="M 186.803626 147.698916 L 186.100503 153.997725 L 190.297267 153.997725 C 190.297267 148.797546 194.303603 147.999208 194.303603 147.999208 C 194.398817 147.999208 198.302614 149.097838 198.397828 153.997725 L 202.601917 153.997725 L 201.80358 147.596378 Z M 185.800211 154.100264 L 202.79967 154.100264 C 203.136583 154.100264 203.334337 154.334638 203.400255 154.803387 C 203.400255 155.330729 203.202501 155.601724 202.79967 155.601724 L 185.800211 155.601724 C 185.463298 155.601724 185.265545 155.330729 185.199627 154.803387 C 185.199627 154.334638 185.434001 154.100264 185.90275 154.100264 Z M 185.800211 154.100264 " transform="matrix(0.533335,0,0,0.533335,0,38.043409)"/>
<path style="fill-rule:nonzero;fill:rgb(100%,100%,0%);fill-opacity:1;stroke-width:0.5;stroke-linecap:butt;stroke-linejoin:miter;stroke:rgb(0%,0%,0%);stroke-opacity:1;stroke-miterlimit:4;" d="M 191.996481 153.997725 C 191.996481 150.701837 194.303603 149.800961 194.303603 149.800961 C 194.303603 149.800961 196.6034 150.797051 196.6034 153.997725 L 191.996481 153.997725 M 186.203042 145.003612 L 202.499378 145.003612 C 202.836291 145.06953 203.034045 145.333201 203.099962 145.801949 C 203.099962 146.131538 202.902209 146.336616 202.499378 146.402534 L 186.203042 146.402534 C 185.866129 146.402534 185.668375 146.168159 185.602458 145.699411 C 185.602458 145.369822 185.800211 145.164744 186.203042 145.098827 Z M 186.598548 146.497748 L 202.001333 146.497748 C 202.330922 146.497748 202.535999 146.732122 202.601917 147.200871 C 202.667835 147.669619 202.470082 147.89667 202.001333 147.89667 L 186.503334 147.89667 C 186.100503 147.89667 185.90275 147.669619 185.90275 147.200871 C 185.90275 146.732122 186.100503 146.497748 186.503334 146.497748 Z M 191.600974 135.899636 L 192.802143 135.899636 L 192.802143 136.697973 L 193.703019 136.697973 L 193.703019 135.899636 L 194.999401 135.899636 L 194.999401 136.800512 L 195.900278 136.800512 L 195.900278 135.797097 L 197.101446 135.797097 L 197.101446 137.796603 C 197.101446 138.199434 196.932989 138.397187 196.6034 138.397187 L 192.201558 138.397187 C 191.864645 138.397187 191.666892 138.236055 191.600974 137.899142 Z M 196.20057 138.602264 L 196.500862 145.003612 L 192.201558 145.003612 L 192.50185 138.499726 L 196.20057 138.499726 " transform="matrix(0.533335,0,0,0.533335,0,38.043409)"/>
<path style="fill-rule:nonzero;fill:rgb(100%,100%,0%);fill-opacity:1;stroke-width:0.5;stroke-linecap:butt;stroke-linejoin:miter;stroke:rgb(0%,0%,0%);stroke-opacity:1;stroke-miterlimit:4;" d="M 191.00039 141.597861 L 191.00039 145.003612 L 187.001379 145.003612 L 187.001379 141.597861 Z M 191.00039 141.597861 " transform="matrix(0.533335,0,0,0.533335,0,38.043409)"/>
<path style="fill-rule:nonzero;fill:rgb(100%,100%,0%);fill-opacity:1;stroke-width:0.5;stroke-linecap:butt;stroke-linejoin:miter;stroke:rgb(0%,0%,0%);stroke-opacity:1;stroke-miterlimit:4;" d="M 190.998502 141.597861 L 190.998502 145.003612 L 186.999491 145.003612 L 186.999491 141.597861 Z M 190.998502 141.597861 " transform="matrix(0.533335,0,0,0.533335,5.653351,38.043409)"/>
<path style="fill-rule:nonzero;fill:rgb(100%,100%,0%);fill-opacity:1;stroke-width:0.5;stroke-linecap:butt;stroke-linejoin:miter;stroke:rgb(0%,0%,0%);stroke-opacity:1;stroke-miterlimit:4;" d="M 186.298256 138.997771 L 187.499424 138.997771 L 187.499424 140.001186 L 188.400301 140.001186 L 188.400301 138.997771 L 189.601469 138.997771 L 189.601469 140.001186 L 190.502345 140.001186 L 190.502345 138.997771 L 191.703513 138.997771 L 191.703513 140.997277 C 191.703513 141.400107 191.535057 141.597861 191.198144 141.597861 L 186.89884 141.597861 C 186.620521 141.495322 186.400795 141.275596 186.298256 140.997277 Z M 186.298256 138.997771 " transform="matrix(0.533335,0,0,0.533335,0,38.043409)"/>
<path style="fill-rule:nonzero;fill:rgb(100%,100%,0%);fill-opacity:1;stroke-width:0.5;stroke-linecap:butt;stroke-linejoin:miter;stroke:rgb(0%,0%,0%);stroke-opacity:1;stroke-miterlimit:4;" d="M 186.296368 138.997771 L 187.497536 138.997771 L 187.497536 140.001186 L 188.398412 140.001186 L 188.398412 138.997771 L 189.59958 138.997771 L 189.59958 140.001186 L 190.500457 140.001186 L 190.500457 138.997771 L 191.701625 138.997771 L 191.701625 140.997277 C 191.701625 141.400107 191.533168 141.597861 191.203579 141.597861 L 186.896952 141.597861 C 186.618633 141.495322 186.398907 141.275596 186.296368 140.997277 Z M 186.296368 138.997771 " transform="matrix(0.533335,0,0,0.533335,5.653351,38.043409)"/>
<path style=" stroke:none;fill-rule:nonzero;fill:rgb(0%,0%,0.392157%);fill-opacity:1;" d="M 103.414062 113.03125 C 103.414062 112.710938 103.894531 112.710938 103.894531 113.03125 L 103.894531 113.882812 L 103.414062 113.882812 Z M 103.414062 113.03125 "/>
<path style=" stroke:none;fill-rule:nonzero;fill:rgb(0%,0%,0.392157%);fill-opacity:1;" d="M 100.585938 114.203125 C 100.585938 113.882812 101.011719 113.882812 101.011719 114.203125 L 101.011719 114.84375 L 100.585938 114.84375 Z M 100.585938 114.203125 "/>
<path style=" stroke:none;fill-rule:nonzero;fill:rgb(0%,0%,0.392157%);fill-opacity:1;" d="M 106.242188 114.203125 C 106.242188 113.882812 106.667969 113.882812 106.667969 114.203125 L 106.667969 114.84375 L 106.242188 114.84375 Z M 106.242188 114.203125 "/>
<path style=" stroke:none;fill-rule:nonzero;fill:rgb(100%,100%,0%);fill-opacity:1;" d="M 111.066406 146.125 C 109.023438 144.023438 109.996094 142.058594 109.996094 142.058594 C 110.03125 142.019531 112.140625 140.957031 114.222656 143.023438 Z M 111.066406 146.125 "/>
<path style="fill-rule:nonzero;fill:rgb(100%,100%,0%);fill-opacity:1;stroke-width:0.5;stroke-linecap:butt;stroke-linejoin:miter;stroke:rgb(0%,0%,0%);stroke-opacity:1;stroke-miterlimit:4;" d="M 186.803167 147.701795 L 186.102722 154.002218 L 190.302911 154.001342 C 190.300345 148.801597 194.301357 147.997278 194.301357 147.997278 C 194.399739 148.0028 198.300876 149.104012 198.402909 153.998542 L 202.5979 154.002828 L 201.801969 147.59878 Z M 185.79682 154.099551 L 202.799536 154.101933 C 203.136186 154.097929 203.332155 154.336848 203.397873 154.79801 C 203.401189 155.331461 203.203449 155.60008 202.79949 155.59867 L 185.801936 155.601485 C 185.470482 155.600328 185.269425 155.335496 185.1988 154.796631 C 185.200427 154.330525 185.434293 154.098286 185.900399 154.099913 Z M 185.79682 154.099551 " transform="matrix(0.375806,-0.378439,0.378439,0.375806,-18.84396,160.080885)"/>
<path style="fill-rule:nonzero;fill:rgb(100%,100%,0%);fill-opacity:1;stroke-width:0.5;stroke-linecap:butt;stroke-linejoin:miter;stroke:rgb(0%,0%,0%);stroke-opacity:1;stroke-miterlimit:4;" d="M 192.001645 153.996914 C 191.997624 150.697864 194.300227 149.804752 194.300227 149.804752 C 194.300227 149.804752 196.60141 150.801977 196.600595 154.002609 L 192.001645 153.996914 M 186.19629 145.001407 L 202.499864 144.996169 C 202.836261 145.064671 203.032122 145.334663 203.103 145.801023 C 203.101843 146.132476 202.899159 146.33375 202.500144 146.399685 L 186.201766 146.399761 C 185.870313 146.398604 185.669147 146.164846 185.598269 145.698487 C 185.599426 145.367034 185.80211 145.165759 186.201125 145.099825 Z M 186.600203 146.499554 L 202.002602 146.501528 C 202.334056 146.502685 202.535221 146.736443 202.600939 147.197606 C 202.66662 147.669126 202.463827 147.901474 201.997721 147.899847 L 186.5021 147.897547 C 186.103302 147.901334 185.902137 147.667575 185.898603 147.196272 C 185.90023 146.730166 186.097826 146.502979 186.496623 146.499192 Z M 191.598704 135.90001 L 192.800222 135.904204 L 192.797438 136.701763 L 193.703773 136.699748 L 193.701397 135.896992 L 195.001333 135.89635 L 194.998187 136.797489 L 195.899326 136.800635 L 195.897636 135.801078 L 197.104351 135.800111 L 197.097373 137.799188 C 197.10116 138.197986 196.929549 138.399369 196.598096 138.398212 L 192.201107 138.398401 C 191.864457 138.402404 191.668235 138.235991 191.602084 137.899124 Z M 196.198611 138.598799 L 196.497362 145.001111 L 192.198791 144.996464 L 192.501125 138.503028 L 196.204134 138.500417 " transform="matrix(0.375806,-0.378439,0.378439,0.375806,-18.84396,160.080885)"/>
<path style="fill-rule:nonzero;fill:rgb(100%,100%,0%);fill-opacity:1;stroke-width:0.5;stroke-linecap:butt;stroke-linejoin:miter;stroke:rgb(0%,0%,0%);stroke-opacity:1;stroke-miterlimit:4;" d="M 191.003936 141.600035 L 191.002434 144.997467 L 186.999046 144.99903 L 187.000547 141.601598 Z M 191.003936 141.600035 " transform="matrix(0.375806,-0.378439,0.378439,0.375806,-18.84396,160.080885)"/>
<path style="fill-rule:nonzero;fill:rgb(100%,100%,0%);fill-opacity:1;stroke-width:0.5;stroke-linecap:butt;stroke-linejoin:miter;stroke:rgb(0%,0%,0%);stroke-opacity:1;stroke-miterlimit:4;" d="M 191.000226 141.595591 L 190.998689 145.003381 L 187.000498 144.999783 L 187.001999 141.602351 Z M 191.000226 141.595591 " transform="matrix(0.375806,-0.378439,0.378439,0.375806,-14.860415,156.069433)"/>
<path style="fill-rule:nonzero;fill:rgb(100%,100%,0%);fill-opacity:1;stroke-width:0.5;stroke-linecap:butt;stroke-linejoin:miter;stroke:rgb(0%,0%,0%);stroke-opacity:1;stroke-miterlimit:4;" d="M 186.300087 139.004463 L 187.501642 138.9983 L 187.498134 140.003017 L 188.399309 139.995805 L 188.40278 139.001445 L 189.599137 139.000442 L 189.600827 139.999999 L 190.501966 140.003145 L 190.500276 139.003588 L 191.70183 138.997424 L 191.700013 141.001699 C 191.7038 141.400496 191.532189 141.601879 191.200736 141.600722 L 186.896968 141.601236 C 186.622827 141.501878 186.400909 141.278405 186.298306 140.99838 Z M 186.300087 139.004463 " transform="matrix(0.375806,-0.378439,0.378439,0.375806,-18.84396,160.080885)"/>
<path style="fill-rule:nonzero;fill:rgb(100%,100%,0%);fill-opacity:1;stroke-width:0.5;stroke-linecap:butt;stroke-linejoin:miter;stroke:rgb(0%,0%,0%);stroke-opacity:1;stroke-miterlimit:4;" d="M 186.296378 139.00002 L 187.503093 138.999053 L 187.499586 140.003771 L 188.400761 139.996558 L 188.399071 138.997001 L 189.600589 139.001195 L 189.602279 140.000752 L 190.498257 139.998701 L 190.496567 138.999144 L 191.703282 138.998177 L 191.701465 141.002452 C 191.700091 141.396053 191.533641 141.602632 191.202188 141.601475 L 186.89842 141.601989 C 186.619118 141.497434 186.402361 141.279158 186.299758 140.999133 Z M 186.296378 139.00002 " transform="matrix(0.375806,-0.378439,0.378439,0.375806,-14.860415,156.069433)"/>
<path style=" stroke:none;fill-rule:nonzero;fill:rgb(0%,0%,0.392157%);fill-opacity:1;" d="M 107.234375 139.539062 C 107.007812 139.3125 107.34375 138.972656 107.570312 139.199219 L 108.175781 139.800781 L 107.839844 140.140625 Z M 107.234375 139.539062 "/>
<path style=" stroke:none;fill-rule:nonzero;fill:rgb(0%,0%,0.392157%);fill-opacity:1;" d="M 106.074219 142.371094 C 105.847656 142.148438 106.148438 141.84375 106.375 142.070312 L 106.828125 142.519531 L 106.527344 142.824219 Z M 106.074219 142.371094 "/>
<path style=" stroke:none;fill-rule:nonzero;fill:rgb(0%,0%,0.392157%);fill-opacity:1;" d="M 110.058594 138.359375 C 109.832031 138.136719 110.132812 137.832031 110.359375 138.058594 L 110.8125 138.507812 L 110.511719 138.8125 Z M 110.058594 138.359375 "/>
<path style=" stroke:none;fill-rule:nonzero;fill:rgb(100%,100%,0%);fill-opacity:1;" d="M 125.8125 95.695312 C 125.867188 92.761719 127.945312 92.070312 127.945312 92.070312 C 128 92.070312 130.242188 92.816406 130.242188 95.75 Z M 125.8125 95.695312 "/>
<path style="fill-rule:nonzero;fill:rgb(100%,100%,0%);fill-opacity:1;stroke-width:0.5;stroke-linecap:butt;stroke-linejoin:miter;stroke:rgb(0%,0%,0%);stroke-opacity:1;stroke-miterlimit:4;" d="M 186.799286 147.702671 L 186.103487 154.00148 L 190.300251 154.00148 C 190.300251 148.8013 194.299263 148.002963 194.299263 148.002963 C 194.401801 148.002963 198.298274 149.101592 198.400812 154.00148 L 202.597577 154.00148 L 201.79924 147.600132 Z M 185.803195 154.096694 L 202.802654 154.096694 C 203.132243 154.096694 203.329997 154.331069 203.403238 154.799817 C 203.403238 155.334483 203.198161 155.598154 202.802654 155.598154 L 185.803195 155.598154 C 185.466282 155.598154 185.268529 155.334483 185.202611 154.799817 C 185.202611 154.331069 185.436985 154.096694 185.898409 154.096694 Z M 185.803195 154.096694 " transform="matrix(0.533335,0,0,0.533335,24.373409,13.35)"/>
<path style="fill-rule:nonzero;fill:rgb(100%,100%,0%);fill-opacity:1;stroke-width:0.5;stroke-linecap:butt;stroke-linejoin:miter;stroke:rgb(0%,0%,0%);stroke-opacity:1;stroke-miterlimit:4;" d="M 191.999465 154.00148 C 191.999465 150.698267 194.299263 149.797391 194.299263 149.797391 C 194.299263 149.797391 196.59906 150.800806 196.59906 154.00148 L 191.999465 154.00148 M 186.198701 145.000042 L 202.502362 145.000042 C 202.831951 145.06596 203.029704 145.336955 203.102946 145.79838 C 203.102946 146.135293 202.897869 146.333046 202.502362 146.398964 L 186.198701 146.398964 C 185.869113 146.398964 185.664035 146.16459 185.598117 145.703165 C 185.598117 145.366252 185.803195 145.168499 186.198701 145.102581 Z M 186.601532 146.501503 L 201.996993 146.501503 C 202.333906 146.501503 202.531659 146.735877 202.597577 147.197301 C 202.663495 147.66605 202.465741 147.900424 201.996993 147.900424 L 186.498994 147.900424 C 186.103487 147.900424 185.898409 147.66605 185.898409 147.197301 C 185.898409 146.735877 186.103487 146.501503 186.498994 146.501503 Z M 191.596634 135.903391 L 192.797802 135.903391 L 192.797802 136.701728 L 193.698678 136.701728 L 193.698678 135.903391 L 195.002385 135.903391 L 195.002385 136.796943 L 195.903262 136.796943 L 195.903262 135.800852 L 197.097106 135.800852 L 197.097106 137.800358 C 197.097106 138.203188 196.935973 138.400942 196.59906 138.400942 L 192.197218 138.400942 C 191.867629 138.400942 191.669876 138.232485 191.596634 137.902896 Z M 196.203554 138.598695 L 196.496521 145.000042 L 192.197218 145.000042 L 192.49751 138.50348 L 196.203554 138.50348 " transform="matrix(0.533335,0,0,0.533335,24.373409,13.35)"/>
<path style="fill-rule:nonzero;fill:rgb(100%,100%,0%);fill-opacity:1;stroke-width:0.5;stroke-linecap:butt;stroke-linejoin:miter;stroke:rgb(0%,0%,0%);stroke-opacity:1;stroke-miterlimit:4;" d="M 191.003374 141.601615 L 191.003374 145.000042 L 186.997039 145.000042 L 186.997039 141.601615 Z M 191.003374 141.601615 " transform="matrix(0.533335,0,0,0.533335,24.373409,13.35)"/>
<path style="fill-rule:nonzero;fill:rgb(100%,100%,0%);fill-opacity:1;stroke-width:0.5;stroke-linecap:butt;stroke-linejoin:miter;stroke:rgb(0%,0%,0%);stroke-opacity:1;stroke-miterlimit:4;" d="M 191.001486 141.601615 L 191.001486 145.000042 L 187.002475 145.000042 L 187.002475 141.601615 Z M 191.001486 141.601615 " transform="matrix(0.533335,0,0,0.533335,30.026759,13.35)"/>
<path style="fill-rule:nonzero;fill:rgb(100%,100%,0%);fill-opacity:1;stroke-width:0.5;stroke-linecap:butt;stroke-linejoin:miter;stroke:rgb(0%,0%,0%);stroke-opacity:1;stroke-miterlimit:4;" d="M 186.30124 139.001526 L 187.502408 139.001526 L 187.502408 139.997616 L 188.403285 139.997616 L 188.403285 139.001526 L 189.597129 139.001526 L 189.597129 139.997616 L 190.498005 139.997616 L 190.498005 139.001526 L 191.699173 139.001526 L 191.699173 141.001031 C 191.699173 141.396538 191.530716 141.601615 191.201128 141.601615 L 186.901824 141.601615 C 186.623505 141.499077 186.403779 141.279351 186.30124 141.001031 Z M 186.30124 139.001526 " transform="matrix(0.533335,0,0,0.533335,24.373409,13.35)"/>
<path style="fill-rule:nonzero;fill:rgb(100%,100%,0%);fill-opacity:1;stroke-width:0.5;stroke-linecap:butt;stroke-linejoin:miter;stroke:rgb(0%,0%,0%);stroke-opacity:1;stroke-miterlimit:4;" d="M 186.299352 139.001526 L 187.50052 139.001526 L 187.50052 139.997616 L 188.401396 139.997616 L 188.401396 139.001526 L 189.602564 139.001526 L 189.602564 139.997616 L 190.50344 139.997616 L 190.50344 139.001526 L 191.697284 139.001526 L 191.697284 141.001031 C 191.697284 141.396538 191.536152 141.601615 191.199239 141.601615 L 186.899936 141.601615 C 186.621616 141.499077 186.401891 141.279351 186.299352 141.001031 Z M 186.299352 139.001526 " transform="matrix(0.533335,0,0,0.533335,30.026759,13.35)"/>
<path style=" stroke:none;fill-rule:nonzero;fill:rgb(0%,0%,0.392157%);fill-opacity:1;" d="M 127.785156 88.335938 C 127.785156 88.015625 128.265625 88.015625 128.265625 88.335938 L 128.265625 89.191406 L 127.785156 89.191406 Z M 127.785156 88.335938 "/>
<path style=" stroke:none;fill-rule:nonzero;fill:rgb(0%,0%,0.392157%);fill-opacity:1;" d="M 124.960938 89.511719 C 124.960938 89.191406 125.386719 89.191406 125.386719 89.511719 L 125.386719 90.148438 L 124.960938 90.148438 Z M 124.960938 89.511719 "/>
<path style=" stroke:none;fill-rule:nonzero;fill:rgb(0%,0%,0.392157%);fill-opacity:1;" d="M 130.613281 89.511719 C 130.613281 89.191406 131.039062 89.191406 131.039062 89.511719 L 131.039062 90.148438 L 130.613281 90.148438 Z M 130.613281 89.511719 "/>
<path style=" stroke:none;fill-rule:nonzero;fill:rgb(100%,100%,0%);fill-opacity:1;" d="M 154.453125 95.695312 C 154.402344 92.761719 152.320312 92.070312 152.320312 92.070312 C 152.265625 92.070312 150.027344 92.816406 150.027344 95.75 Z M 154.453125 95.695312 "/>
<path style="fill-rule:nonzero;fill:rgb(100%,100%,0%);fill-opacity:1;stroke-width:0.5;stroke-linecap:butt;stroke-linejoin:miter;stroke:rgb(0%,0%,0%);stroke-opacity:1;stroke-miterlimit:4;" d="M 186.80284 147.702671 L 186.099717 154.00148 L 190.296482 154.00148 C 190.296482 148.8013 194.302817 148.002963 194.302817 148.002963 C 194.398032 148.002963 198.301828 149.101592 198.397043 154.00148 L 202.601132 154.00148 L 201.802794 147.600132 Z M 185.799425 154.096694 L 202.798885 154.096694 C 203.135798 154.096694 203.333551 154.331069 203.399469 154.799817 C 203.399469 155.334483 203.201716 155.598154 202.798885 155.598154 L 185.799425 155.598154 C 185.469837 155.598154 185.264759 155.334483 185.198841 154.799817 C 185.198841 154.331069 185.433216 154.096694 185.901964 154.096694 Z M 185.799425 154.096694 " transform="matrix(-0.533335,0,0,0.533335,255.894112,13.35)"/>
<path style="fill-rule:nonzero;fill:rgb(100%,100%,0%);fill-opacity:1;stroke-width:0.5;stroke-linecap:butt;stroke-linejoin:miter;stroke:rgb(0%,0%,0%);stroke-opacity:1;stroke-miterlimit:4;" d="M 192.00302 154.00148 C 192.00302 150.698267 194.302817 149.797391 194.302817 149.797391 C 194.302817 149.797391 196.602615 150.800806 196.602615 154.00148 L 192.00302 154.00148 M 186.202256 145.000042 L 202.498593 145.000042 C 202.835506 145.06596 203.033259 145.336955 203.099177 145.79838 C 203.099177 146.135293 202.901424 146.333046 202.498593 146.398964 L 186.202256 146.398964 C 185.865343 146.398964 185.66759 146.16459 185.601672 145.703165 C 185.601672 145.366252 185.799425 145.168499 186.202256 145.102581 Z M 186.597763 146.501503 L 202.000548 146.501503 C 202.330136 146.501503 202.535214 146.735877 202.601132 147.197301 C 202.667049 147.66605 202.469296 147.900424 202.000548 147.900424 L 186.502548 147.900424 C 186.099717 147.900424 185.901964 147.66605 185.901964 147.197301 C 185.901964 146.735877 186.099717 146.501503 186.502548 146.501503 Z M 191.600189 135.903391 L 192.801357 135.903391 L 192.801357 136.701728 L 193.702233 136.701728 L 193.702233 135.903391 L 194.998616 135.903391 L 194.998616 136.796943 L 195.899492 136.796943 L 195.899492 135.800852 L 197.10066 135.800852 L 197.10066 137.800358 C 197.10066 138.203188 196.932204 138.400942 196.602615 138.400942 L 192.200773 138.400942 C 191.86386 138.400942 191.666107 138.232485 191.600189 137.902896 Z M 196.199784 138.598695 L 196.500076 145.000042 L 192.200773 145.000042 L 192.501065 138.50348 L 196.199784 138.50348 " transform="matrix(-0.533335,0,0,0.533335,255.894112,13.35)"/>
<path style="fill-rule:nonzero;fill:rgb(100%,100%,0%);fill-opacity:1;stroke-width:0.5;stroke-linecap:butt;stroke-linejoin:miter;stroke:rgb(0%,0%,0%);stroke-opacity:1;stroke-miterlimit:4;" d="M 190.999605 141.601615 L 190.999605 145.000042 L 187.000594 145.000042 L 187.000594 141.601615 Z M 190.999605 141.601615 " transform="matrix(-0.533335,0,0,0.533335,255.894112,13.35)"/>
<path style="fill-rule:nonzero;fill:rgb(100%,100%,0%);fill-opacity:1;stroke-width:0.5;stroke-linecap:butt;stroke-linejoin:miter;stroke:rgb(0%,0%,0%);stroke-opacity:1;stroke-miterlimit:4;" d="M 190.997716 141.601615 L 190.997716 145.000042 L 186.998705 145.000042 L 186.998705 141.601615 Z M 190.997716 141.601615 " transform="matrix(-0.533335,0,0,0.533335,250.240761,13.35)"/>
<path style="fill-rule:nonzero;fill:rgb(100%,100%,0%);fill-opacity:1;stroke-width:0.5;stroke-linecap:butt;stroke-linejoin:miter;stroke:rgb(0%,0%,0%);stroke-opacity:1;stroke-miterlimit:4;" d="M 186.297471 139.001526 L 187.498639 139.001526 L 187.498639 139.997616 L 188.399515 139.997616 L 188.399515 139.001526 L 189.600683 139.001526 L 189.600683 139.997616 L 190.501559 139.997616 L 190.501559 139.001526 L 191.702728 139.001526 L 191.702728 141.001031 C 191.702728 141.396538 191.534271 141.601615 191.197358 141.601615 L 186.898055 141.601615 C 186.619735 141.499077 186.40001 141.279351 186.297471 141.001031 Z M 186.297471 139.001526 " transform="matrix(-0.533335,0,0,0.533335,255.894112,13.35)"/>
<path style="fill-rule:nonzero;fill:rgb(100%,100%,0%);fill-opacity:1;stroke-width:0.5;stroke-linecap:butt;stroke-linejoin:miter;stroke:rgb(0%,0%,0%);stroke-opacity:1;stroke-miterlimit:4;" d="M 186.302907 139.001526 L 187.496751 139.001526 L 187.496751 139.997616 L 188.397627 139.997616 L 188.397627 139.001526 L 189.598795 139.001526 L 189.598795 139.997616 L 190.499671 139.997616 L 190.499671 139.001526 L 191.700839 139.001526 L 191.700839 141.001031 C 191.700839 141.396538 191.532383 141.601615 191.202794 141.601615 L 186.903491 141.601615 C 186.617847 141.499077 186.398121 141.279351 186.302907 141.001031 Z M 186.302907 139.001526 " transform="matrix(-0.533335,0,0,0.533335,250.240761,13.35)"/>
<path style=" stroke:none;fill-rule:nonzero;fill:rgb(0%,0%,0.392157%);fill-opacity:1;" d="M 152.480469 88.335938 C 152.480469 88.015625 152 88.015625 152 88.335938 L 152 89.191406 L 152.480469 89.191406 Z M 152.480469 88.335938 "/>
<path style=" stroke:none;fill-rule:nonzero;fill:rgb(0%,0%,0.392157%);fill-opacity:1;" d="M 155.308594 89.511719 C 155.308594 89.191406 154.878906 89.191406 154.878906 89.511719 L 154.878906 90.148438 L 155.308594 90.148438 Z M 155.308594 89.511719 "/>
<path style=" stroke:none;fill-rule:nonzero;fill:rgb(0%,0%,0.392157%);fill-opacity:1;" d="M 149.652344 89.511719 C 149.652344 89.191406 149.226562 89.191406 149.226562 89.511719 L 149.226562 90.148438 L 149.652344 90.148438 Z M 149.652344 89.511719 "/>
<path style=" stroke:none;fill-rule:nonzero;fill:rgb(100%,100%,0%);fill-opacity:1;" d="M 154.453125 120.390625 C 154.402344 117.457031 152.320312 116.761719 152.320312 116.761719 C 152.265625 116.761719 150.027344 117.511719 150.027344 120.445312 Z M 154.453125 120.390625 "/>
<path style="fill-rule:nonzero;fill:rgb(100%,100%,0%);fill-opacity:1;stroke-width:0.5;stroke-linecap:butt;stroke-linejoin:miter;stroke:rgb(0%,0%,0%);stroke-opacity:1;stroke-miterlimit:4;" d="M 186.80284 147.698916 L 186.099717 153.997725 L 190.296482 153.997725 C 190.296482 148.797546 194.302817 147.999208 194.302817 147.999208 C 194.398032 147.999208 198.301828 149.097838 198.397043 153.997725 L 202.601132 153.997725 L 201.802794 147.596378 Z M 185.799425 154.100264 L 202.798885 154.100264 C 203.135798 154.100264 203.333551 154.334638 203.399469 154.803387 C 203.399469 155.330729 203.201716 155.601724 202.798885 155.601724 L 185.799425 155.601724 C 185.469837 155.601724 185.264759 155.330729 185.198841 154.803387 C 185.198841 154.334638 185.433216 154.100264 185.901964 154.100264 Z M 185.799425 154.100264 " transform="matrix(-0.533335,0,0,0.533335,255.894112,38.043409)"/>
<path style="fill-rule:nonzero;fill:rgb(100%,100%,0%);fill-opacity:1;stroke-width:0.5;stroke-linecap:butt;stroke-linejoin:miter;stroke:rgb(0%,0%,0%);stroke-opacity:1;stroke-miterlimit:4;" d="M 192.00302 153.997725 C 192.00302 150.701837 194.302817 149.800961 194.302817 149.800961 C 194.302817 149.800961 196.602615 150.797051 196.602615 153.997725 L 192.00302 153.997725 M 186.202256 145.003612 L 202.498593 145.003612 C 202.835506 145.06953 203.033259 145.333201 203.099177 145.801949 C 203.099177 146.131538 202.901424 146.336616 202.498593 146.402534 L 186.202256 146.402534 C 185.865343 146.402534 185.66759 146.168159 185.601672 145.699411 C 185.601672 145.369822 185.799425 145.164744 186.202256 145.098827 Z M 186.597763 146.497748 L 202.000548 146.497748 C 202.330136 146.497748 202.535214 146.732122 202.601132 147.200871 C 202.667049 147.669619 202.469296 147.89667 202.000548 147.89667 L 186.502548 147.89667 C 186.099717 147.89667 185.901964 147.669619 185.901964 147.200871 C 185.901964 146.732122 186.099717 146.497748 186.502548 146.497748 Z M 191.600189 135.899636 L 192.801357 135.899636 L 192.801357 136.697973 L 193.702233 136.697973 L 193.702233 135.899636 L 194.998616 135.899636 L 194.998616 136.800512 L 195.899492 136.800512 L 195.899492 135.797097 L 197.10066 135.797097 L 197.10066 137.796603 C 197.10066 138.199434 196.932204 138.397187 196.602615 138.397187 L 192.200773 138.397187 C 191.86386 138.397187 191.666107 138.236055 191.600189 137.899142 Z M 196.199784 138.602264 L 196.500076 145.003612 L 192.200773 145.003612 L 192.501065 138.499726 L 196.199784 138.499726 " transform="matrix(-0.533335,0,0,0.533335,255.894112,38.043409)"/>
<path style="fill-rule:nonzero;fill:rgb(100%,100%,0%);fill-opacity:1;stroke-width:0.5;stroke-linecap:butt;stroke-linejoin:miter;stroke:rgb(0%,0%,0%);stroke-opacity:1;stroke-miterlimit:4;" d="M 190.999605 141.597861 L 190.999605 145.003612 L 187.000594 145.003612 L 187.000594 141.597861 Z M 190.999605 141.597861 " transform="matrix(-0.533335,0,0,0.533335,255.894112,38.043409)"/>
<path style="fill-rule:nonzero;fill:rgb(100%,100%,0%);fill-opacity:1;stroke-width:0.5;stroke-linecap:butt;stroke-linejoin:miter;stroke:rgb(0%,0%,0%);stroke-opacity:1;stroke-miterlimit:4;" d="M 190.997716 141.597861 L 190.997716 145.003612 L 186.998705 145.003612 L 186.998705 141.597861 Z M 190.997716 141.597861 " transform="matrix(-0.533335,0,0,0.533335,250.240761,38.043409)"/>
<path style="fill-rule:nonzero;fill:rgb(100%,100%,0%);fill-opacity:1;stroke-width:0.5;stroke-linecap:butt;stroke-linejoin:miter;stroke:rgb(0%,0%,0%);stroke-opacity:1;stroke-miterlimit:4;" d="M 186.297471 138.997771 L 187.498639 138.997771 L 187.498639 140.001186 L 188.399515 140.001186 L 188.399515 138.997771 L 189.600683 138.997771 L 189.600683 140.001186 L 190.501559 140.001186 L 190.501559 138.997771 L 191.702728 138.997771 L 191.702728 140.997277 C 191.702728 141.400107 191.534271 141.597861 191.197358 141.597861 L 186.898055 141.597861 C 186.619735 141.495322 186.40001 141.275596 186.297471 140.997277 Z M 186.297471 138.997771 " transform="matrix(-0.533335,0,0,0.533335,255.894112,38.043409)"/>
<path style="fill-rule:nonzero;fill:rgb(100%,100%,0%);fill-opacity:1;stroke-width:0.5;stroke-linecap:butt;stroke-linejoin:miter;stroke:rgb(0%,0%,0%);stroke-opacity:1;stroke-miterlimit:4;" d="M 186.302907 138.997771 L 187.496751 138.997771 L 187.496751 140.001186 L 188.397627 140.001186 L 188.397627 138.997771 L 189.598795 138.997771 L 189.598795 140.001186 L 190.499671 140.001186 L 190.499671 138.997771 L 191.700839 138.997771 L 191.700839 140.997277 C 191.700839 141.400107 191.532383 141.597861 191.202794 141.597861 L 186.903491 141.597861 C 186.617847 141.495322 186.398121 141.275596 186.302907 140.997277 Z M 186.302907 138.997771 " transform="matrix(-0.533335,0,0,0.533335,250.240761,38.043409)"/>
<path style=" stroke:none;fill-rule:nonzero;fill:rgb(0%,0%,0.392157%);fill-opacity:1;" d="M 152.480469 113.03125 C 152.480469 112.710938 152 112.710938 152 113.03125 L 152 113.882812 L 152.480469 113.882812 Z M 152.480469 113.03125 "/>
<path style=" stroke:none;fill-rule:nonzero;fill:rgb(0%,0%,0.392157%);fill-opacity:1;" d="M 155.308594 114.203125 C 155.308594 113.882812 154.878906 113.882812 154.878906 114.203125 L 154.878906 114.84375 L 155.308594 114.84375 Z M 155.308594 114.203125 "/>
<path style=" stroke:none;fill-rule:nonzero;fill:rgb(0%,0%,0.392157%);fill-opacity:1;" d="M 149.652344 114.203125 C 149.652344 113.882812 149.226562 113.882812 149.226562 114.203125 L 149.226562 114.84375 L 149.652344 114.84375 Z M 149.652344 114.203125 "/>
<path style=" stroke:none;fill-rule:nonzero;fill:rgb(100%,100%,0%);fill-opacity:1;" d="M 144.828125 146.125 C 146.871094 144.023438 145.898438 142.058594 145.898438 142.058594 C 145.863281 142.019531 143.753906 140.957031 141.671875 143.023438 Z M 144.828125 146.125 "/>
<path style="fill-rule:nonzero;fill:rgb(100%,100%,0%);fill-opacity:1;stroke-width:0.5;stroke-linecap:butt;stroke-linejoin:miter;stroke:rgb(0%,0%,0%);stroke-opacity:1;stroke-miterlimit:4;" d="M 186.802613 147.701237 L 186.102169 154.00166 L 190.302357 154.000785 C 190.299792 148.801039 194.300803 147.99672 194.300803 147.99672 C 194.399185 148.002243 198.300323 149.103455 198.402355 153.997985 L 202.597347 154.00227 L 201.801416 147.598223 Z M 185.796267 154.098994 L 202.798982 154.101376 C 203.135633 154.097372 203.331602 154.336291 203.40248 154.80265 C 203.400636 155.330904 203.202896 155.599523 202.798937 155.598112 L 185.801382 155.600928 C 185.469929 155.599771 185.268871 155.334939 185.203407 154.801271 C 185.199873 154.329968 185.43374 154.097728 185.899846 154.099355 Z M 185.796267 154.098994 " transform="matrix(-0.375806,-0.378439,-0.378439,0.375806,274.738072,160.080885)"/>
<path style="fill-rule:nonzero;fill:rgb(100%,100%,0%);fill-opacity:1;stroke-width:0.5;stroke-linecap:butt;stroke-linejoin:miter;stroke:rgb(0%,0%,0%);stroke-opacity:1;stroke-miterlimit:4;" d="M 192.001092 153.996356 C 192.002231 150.702503 194.299673 149.804194 194.299673 149.804194 C 194.299673 149.804194 196.600856 150.80142 196.600042 154.002052 L 192.001092 153.996356 M 186.195736 145.000849 L 202.499311 144.995612 C 202.835708 145.064113 203.031568 145.334106 203.102446 145.800465 C 203.101289 146.131919 202.898605 146.333193 202.49959 146.399127 L 186.201213 146.399204 C 185.86976 146.398047 185.668594 146.164289 185.597715 145.69793 C 185.598872 145.366476 185.801557 145.165202 186.200571 145.099268 Z M 186.599649 146.498996 L 202.002049 146.500971 C 202.333502 146.502128 202.534668 146.735886 202.600385 147.197048 C 202.666067 147.668568 202.463274 147.900916 201.997168 147.899289 L 186.501547 147.896989 C 186.102749 147.900776 185.901583 147.667018 185.90321 147.200912 C 185.899676 146.729609 186.097272 146.502422 186.501231 146.503832 Z M 191.59815 135.899453 L 192.799668 135.903647 L 192.796884 136.701206 L 193.70322 136.699191 L 193.700843 135.896434 L 195.000779 135.895793 L 195.002795 136.802129 L 195.898772 136.800077 L 195.897083 135.80052 L 197.103798 135.799554 L 197.09682 137.798631 C 197.100606 138.197429 196.934157 138.404009 196.597543 138.397655 L 192.200554 138.397843 C 191.863903 138.401847 191.667681 138.235433 191.60153 137.898566 Z M 196.198058 138.598242 L 196.496809 145.000554 L 192.203399 145.001104 L 192.500572 138.502471 L 196.20358 138.49986 " transform="matrix(-0.375806,-0.378439,-0.378439,0.375806,274.738072,160.080885)"/>
<path style="fill-rule:nonzero;fill:rgb(100%,100%,0%);fill-opacity:1;stroke-width:0.5;stroke-linecap:butt;stroke-linejoin:miter;stroke:rgb(0%,0%,0%);stroke-opacity:1;stroke-miterlimit:4;" d="M 191.003382 141.599478 L 191.001881 144.99691 L 186.998492 144.998472 L 186.999994 141.60104 Z M 191.003382 141.599478 " transform="matrix(-0.375806,-0.378439,-0.378439,0.375806,274.738072,160.080885)"/>
<path style="fill-rule:nonzero;fill:rgb(100%,100%,0%);fill-opacity:1;stroke-width:0.5;stroke-linecap:butt;stroke-linejoin:miter;stroke:rgb(0%,0%,0%);stroke-opacity:1;stroke-miterlimit:4;" d="M 191.004834 141.600231 L 190.998135 145.002824 L 186.999944 144.999226 L 187.001446 141.601794 Z M 191.004834 141.600231 " transform="matrix(-0.375806,-0.378439,-0.378439,0.375806,270.754528,156.069433)"/>
<path style="fill-rule:nonzero;fill:rgb(100%,100%,0%);fill-opacity:1;stroke-width:0.5;stroke-linecap:butt;stroke-linejoin:miter;stroke:rgb(0%,0%,0%);stroke-opacity:1;stroke-miterlimit:4;" d="M 186.299534 139.003906 L 187.501088 138.997742 L 187.497581 140.00246 L 188.403916 140.000445 L 188.402227 139.000888 L 189.598584 138.999885 L 189.600274 139.999442 L 190.501412 140.002587 L 190.499722 139.003031 L 191.701277 138.996867 L 191.699459 141.001141 C 191.703246 141.399939 191.531636 141.601322 191.200182 141.600165 L 186.896415 141.600679 C 186.622273 141.50132 186.400356 141.277848 186.297753 140.997823 Z M 186.299534 139.003906 " transform="matrix(-0.375806,-0.378439,-0.378439,0.375806,274.738072,160.080885)"/>
<path style="fill-rule:nonzero;fill:rgb(100%,100%,0%);fill-opacity:1;stroke-width:0.5;stroke-linecap:butt;stroke-linejoin:miter;stroke:rgb(0%,0%,0%);stroke-opacity:1;stroke-miterlimit:4;" d="M 186.295825 138.999462 L 187.50254 138.998495 L 187.499033 140.003213 L 188.400207 139.996001 L 188.398517 138.996444 L 189.600036 139.000638 L 189.601725 140.000195 L 190.497703 139.998144 L 190.501174 139.003784 L 191.702728 138.99762 L 191.700911 141.001894 C 191.699537 141.395495 191.533087 141.602075 191.201634 141.600918 L 186.897866 141.601432 C 186.618564 141.496877 186.401807 141.278601 186.299204 140.998576 Z M 186.295825 138.999462 " transform="matrix(-0.375806,-0.378439,-0.378439,0.375806,270.754528,156.069433)"/>
<path style=" stroke:none;fill-rule:nonzero;fill:rgb(0%,0%,0.392157%);fill-opacity:1;" d="M 148.660156 139.539062 C 148.886719 139.3125 148.550781 138.972656 148.324219 139.199219 L 147.71875 139.800781 L 148.054688 140.140625 Z M 148.660156 139.539062 "/>
<path style=" stroke:none;fill-rule:nonzero;fill:rgb(0%,0%,0.392157%);fill-opacity:1;" d="M 149.820312 142.371094 C 150.046875 142.148438 149.746094 141.84375 149.519531 142.070312 L 149.066406 142.519531 L 149.367188 142.824219 Z M 149.820312 142.371094 "/>
<path style=" stroke:none;fill-rule:nonzero;fill:rgb(0%,0%,0.392157%);fill-opacity:1;" d="M 145.835938 138.359375 C 146.0625 138.136719 145.761719 137.832031 145.535156 138.058594 L 145.082031 138.507812 L 145.382812 138.8125 Z M 145.835938 138.359375 "/>
<path style=" stroke:none;fill-rule:nonzero;fill:rgb(0%,20%,60.000002%);fill-opacity:1;" d="M 124.054688 121.296875 C 124.027344 122.425781 124.449219 123.519531 125.226562 124.335938 C 125.9375 125.152344 126.96875 125.621094 128.054688 125.617188 C 129.191406 125.546875 130.132812 125.121094 130.878906 124.335938 C 131.660156 123.519531 132.082031 122.425781 132.054688 121.296875 L 132.054688 115.535156 L 124.054688 115.535156 Z M 124.054688 121.296875 "/>
<path style=" stroke:none;fill-rule:nonzero;fill:rgb(100%,100%,100%);fill-opacity:1;" d="M 126.71875 117.722656 C 126.71875 117.28125 126.363281 116.921875 125.921875 116.921875 C 125.480469 116.921875 125.121094 117.28125 125.121094 117.722656 C 125.121094 118.164062 125.480469 118.523438 125.921875 118.523438 C 126.363281 118.523438 126.71875 118.164062 126.71875 117.722656 Z M 126.71875 117.722656 "/>
<path style=" stroke:none;fill-rule:nonzero;fill:rgb(100%,100%,100%);fill-opacity:1;" d="M 131.148438 117.722656 C 131.148438 117.28125 130.789062 116.921875 130.347656 116.921875 C 129.90625 116.921875 129.546875 117.28125 129.546875 117.722656 C 129.546875 118.164062 129.90625 118.523438 130.347656 118.523438 C 130.789062 118.523438 131.148438 118.164062 131.148438 117.722656 Z M 131.148438 117.722656 "/>
<path style=" stroke:none;fill-rule:nonzero;fill:rgb(100%,100%,100%);fill-opacity:1;" d="M 128.90625 119.855469 C 128.90625 119.414062 128.550781 119.058594 128.105469 119.058594 C 127.664062 119.058594 127.308594 119.414062 127.308594 119.855469 C 127.308594 120.296875 127.664062 120.65625 128.105469 120.65625 C 128.550781 120.65625 128.90625 120.296875 128.90625 119.855469 Z M 128.90625 119.855469 "/>
<path style=" stroke:none;fill-rule:nonzero;fill:rgb(100%,100%,100%);fill-opacity:1;" d="M 126.71875 122.097656 C 126.71875 121.65625 126.363281 121.296875 125.921875 121.296875 C 125.480469 121.296875 125.121094 121.65625 125.121094 122.097656 C 125.121094 122.539062 125.480469 122.898438 125.921875 122.898438 C 126.363281 122.898438 126.71875 122.539062 126.71875 122.097656 Z M 126.71875 122.097656 "/>
<path style=" stroke:none;fill-rule:nonzero;fill:rgb(100%,100%,100%);fill-opacity:1;" d="M 131.148438 122.097656 C 131.148438 121.65625 130.789062 121.296875 130.347656 121.296875 C 129.90625 121.296875 129.546875 121.65625 129.546875 122.097656 C 129.546875 122.539062 129.90625 122.898438 130.347656 122.898438 C 130.789062 122.898438 131.148438 122.539062 131.148438 122.097656 Z M 131.148438 122.097656 "/>
<path style=" stroke:none;fill-rule:nonzero;fill:rgb(0%,20%,60.000002%);fill-opacity:1;" d="M 124.054688 107.429688 C 124.027344 108.558594 124.449219 109.652344 125.226562 110.46875 C 125.9375 111.285156 126.96875 111.753906 128.054688 111.75 C 129.191406 111.679688 130.132812 111.253906 130.878906 110.46875 C 131.660156 109.652344 132.082031 108.558594 132.054688 107.429688 L 132.054688 101.671875 L 124.054688 101.671875 Z M 124.054688 107.429688 "/>
<path style=" stroke:none;fill-rule:nonzero;fill:rgb(100%,100%,100%);fill-opacity:1;" d="M 126.71875 103.855469 C 126.71875 103.414062 126.363281 103.058594 125.921875 103.058594 C 125.480469 103.058594 125.121094 103.414062 125.121094 103.855469 C 125.121094 104.296875 125.480469 104.65625 125.921875 104.65625 C 126.363281 104.65625 126.71875 104.296875 126.71875 103.855469 Z M 126.71875 103.855469 "/>
<path style=" stroke:none;fill-rule:nonzero;fill:rgb(100%,100%,100%);fill-opacity:1;" d="M 131.148438 103.855469 C 131.148438 103.414062 130.789062 103.058594 130.347656 103.058594 C 129.90625 103.058594 129.546875 103.414062 129.546875 103.855469 C 129.546875 104.296875 129.90625 104.65625 130.347656 104.65625 C 130.789062 104.65625 131.148438 104.296875 131.148438 103.855469 Z M 131.148438 103.855469 "/>
<path style=" stroke:none;fill-rule:nonzero;fill:rgb(100%,100%,100%);fill-opacity:1;" d="M 128.90625 105.992188 C 128.90625 105.546875 128.550781 105.191406 128.105469 105.191406 C 127.664062 105.191406 127.308594 105.546875 127.308594 105.992188 C 127.308594 106.433594 127.664062 106.789062 128.105469 106.789062 C 128.550781 106.789062 128.90625 106.433594 128.90625 105.992188 Z M 128.90625 105.992188 "/>
<path style=" stroke:none;fill-rule:nonzero;fill:rgb(100%,100%,100%);fill-opacity:1;" d="M 126.71875 108.230469 C 126.71875 107.789062 126.363281 107.429688 125.921875 107.429688 C 125.480469 107.429688 125.121094 107.789062 125.121094 108.230469 C 125.121094 108.671875 125.480469 109.03125 125.921875 109.03125 C 126.363281 109.03125 126.71875 108.671875 126.71875 108.230469 Z M 126.71875 108.230469 "/>
<path style=" stroke:none;fill-rule:nonzero;fill:rgb(100%,100%,100%);fill-opacity:1;" d="M 131.148438 108.230469 C 131.148438 107.789062 130.789062 107.429688 130.347656 107.429688 C 129.90625 107.429688 129.546875 107.789062 129.546875 108.230469 C 129.546875 108.671875 129.90625 109.03125 130.347656 109.03125 C 130.789062 109.03125 131.148438 108.671875 131.148438 108.230469 Z M 131.148438 108.230469 "/>
<path style=" stroke:none;fill-rule:nonzero;fill:rgb(0%,20%,60.000002%);fill-opacity:1;" d="M 112.960938 121.296875 C 112.933594 122.425781 113.355469 123.519531 114.132812 124.335938 C 114.84375 125.152344 115.878906 125.621094 116.960938 125.617188 C 118.097656 125.546875 119.039062 125.121094 119.785156 124.335938 C 120.566406 123.519531 120.988281 122.425781 120.960938 121.296875 L 120.960938 115.535156 L 112.960938 115.535156 Z M 112.960938 121.296875 "/>
<path style=" stroke:none;fill-rule:nonzero;fill:rgb(100%,100%,100%);fill-opacity:1;" d="M 115.628906 117.722656 C 115.628906 117.28125 115.269531 116.921875 114.828125 116.921875 C 114.386719 116.921875 114.027344 117.28125 114.027344 117.722656 C 114.027344 118.164062 114.386719 118.523438 114.828125 118.523438 C 115.269531 118.523438 115.628906 118.164062 115.628906 117.722656 Z M 115.628906 117.722656 "/>
<path style=" stroke:none;fill-rule:nonzero;fill:rgb(100%,100%,100%);fill-opacity:1;" d="M 120.054688 117.722656 C 120.054688 117.28125 119.695312 116.921875 119.253906 116.921875 C 118.8125 116.921875 118.453125 117.28125 118.453125 117.722656 C 118.453125 118.164062 118.8125 118.523438 119.253906 118.523438 C 119.695312 118.523438 120.054688 118.164062 120.054688 117.722656 Z M 120.054688 117.722656 "/>
<path style=" stroke:none;fill-rule:nonzero;fill:rgb(100%,100%,100%);fill-opacity:1;" d="M 117.8125 119.855469 C 117.8125 119.414062 117.457031 119.058594 117.015625 119.058594 C 116.570312 119.058594 116.214844 119.414062 116.214844 119.855469 C 116.214844 120.296875 116.570312 120.65625 117.015625 120.65625 C 117.457031 120.65625 117.8125 120.296875 117.8125 119.855469 Z M 117.8125 119.855469 "/>
<path style=" stroke:none;fill-rule:nonzero;fill:rgb(100%,100%,100%);fill-opacity:1;" d="M 115.628906 122.097656 C 115.628906 121.65625 115.269531 121.296875 114.828125 121.296875 C 114.386719 121.296875 114.027344 121.65625 114.027344 122.097656 C 114.027344 122.539062 114.386719 122.898438 114.828125 122.898438 C 115.269531 122.898438 115.628906 122.539062 115.628906 122.097656 Z M 115.628906 122.097656 "/>
<path style=" stroke:none;fill-rule:nonzero;fill:rgb(100%,100%,100%);fill-opacity:1;" d="M 120.054688 122.097656 C 120.054688 121.65625 119.695312 121.296875 119.253906 121.296875 C 118.8125 121.296875 118.453125 121.65625 118.453125 122.097656 C 118.453125 122.539062 118.8125 122.898438 119.253906 122.898438 C 119.695312 122.898438 120.054688 122.539062 120.054688 122.097656 Z M 120.054688 122.097656 "/>
<path style=" stroke:none;fill-rule:nonzero;fill:rgb(0%,20%,60.000002%);fill-opacity:1;" d="M 135.148438 121.296875 C 135.121094 122.425781 135.542969 123.519531 136.320312 124.335938 C 137.03125 125.152344 138.0625 125.621094 139.148438 125.617188 C 140.285156 125.546875 141.226562 125.121094 141.972656 124.335938 C 142.75 123.519531 143.171875 122.425781 143.148438 121.296875 L 143.148438 115.535156 L 135.148438 115.535156 Z M 135.148438 121.296875 "/>
<path style=" stroke:none;fill-rule:nonzero;fill:rgb(100%,100%,100%);fill-opacity:1;" d="M 137.8125 117.722656 C 137.8125 117.28125 137.457031 116.921875 137.015625 116.921875 C 136.570312 116.921875 136.214844 117.28125 136.214844 117.722656 C 136.214844 118.164062 136.570312 118.523438 137.015625 118.523438 C 137.457031 118.523438 137.8125 118.164062 137.8125 117.722656 Z M 137.8125 117.722656 "/>
<path style=" stroke:none;fill-rule:nonzero;fill:rgb(100%,100%,100%);fill-opacity:1;" d="M 142.242188 117.722656 C 142.242188 117.28125 141.882812 116.921875 141.441406 116.921875 C 141 116.921875 140.640625 117.28125 140.640625 117.722656 C 140.640625 118.164062 141 118.523438 141.441406 118.523438 C 141.882812 118.523438 142.242188 118.164062 142.242188 117.722656 Z M 142.242188 117.722656 "/>
<path style=" stroke:none;fill-rule:nonzero;fill:rgb(100%,100%,100%);fill-opacity:1;" d="M 140 119.855469 C 140 119.414062 139.640625 119.058594 139.199219 119.058594 C 138.757812 119.058594 138.402344 119.414062 138.402344 119.855469 C 138.402344 120.296875 138.757812 120.65625 139.199219 120.65625 C 139.640625 120.65625 140 120.296875 140 119.855469 Z M 140 119.855469 "/>
<path style=" stroke:none;fill-rule:nonzero;fill:rgb(100%,100%,100%);fill-opacity:1;" d="M 137.8125 122.097656 C 137.8125 121.65625 137.457031 121.296875 137.015625 121.296875 C 136.570312 121.296875 136.214844 121.65625 136.214844 122.097656 C 136.214844 122.539062 136.570312 122.898438 137.015625 122.898438 C 137.457031 122.898438 137.8125 122.539062 137.8125 122.097656 Z M 137.8125 122.097656 "/>
<path style=" stroke:none;fill-rule:nonzero;fill:rgb(100%,100%,100%);fill-opacity:1;" d="M 142.242188 122.097656 C 142.242188 121.65625 141.882812 121.296875 141.441406 121.296875 C 141 121.296875 140.640625 121.65625 140.640625 122.097656 C 140.640625 122.539062 141 122.898438 141.441406 122.898438 C 141.882812 122.898438 142.242188 122.539062 142.242188 122.097656 Z M 142.242188 122.097656 "/>
<path style=" stroke:none;fill-rule:nonzero;fill:rgb(0%,20%,60.000002%);fill-opacity:1;" d="M 124.054688 135.058594 C 124.027344 136.1875 124.449219 137.277344 125.226562 138.097656 C 125.9375 138.914062 126.96875 139.378906 128.054688 139.378906 C 129.191406 139.304688 130.132812 138.878906 130.878906 138.097656 C 131.660156 137.277344 132.082031 136.1875 132.054688 135.058594 L 132.054688 129.296875 L 124.054688 129.296875 Z M 124.054688 135.058594 "/>
<path style=" stroke:none;fill-rule:nonzero;fill:rgb(100%,100%,100%);fill-opacity:1;" d="M 126.71875 131.484375 C 126.71875 131.042969 126.363281 130.683594 125.921875 130.683594 C 125.480469 130.683594 125.121094 131.042969 125.121094 131.484375 C 125.121094 131.925781 125.480469 132.285156 125.921875 132.285156 C 126.363281 132.285156 126.71875 131.925781 126.71875 131.484375 Z M 126.71875 131.484375 "/>
<path style=" stroke:none;fill-rule:nonzero;fill:rgb(100%,100%,100%);fill-opacity:1;" d="M 131.148438 131.484375 C 131.148438 131.042969 130.789062 130.683594 130.347656 130.683594 C 129.90625 130.683594 129.546875 131.042969 129.546875 131.484375 C 129.546875 131.925781 129.90625 132.285156 130.347656 132.285156 C 130.789062 132.285156 131.148438 131.925781 131.148438 131.484375 Z M 131.148438 131.484375 "/>
<path style=" stroke:none;fill-rule:nonzero;fill:rgb(100%,100%,100%);fill-opacity:1;" d="M 128.90625 133.617188 C 128.90625 133.175781 128.550781 132.816406 128.105469 132.816406 C 127.664062 132.816406 127.308594 133.175781 127.308594 133.617188 C 127.308594 134.058594 127.664062 134.417969 128.105469 134.417969 C 128.550781 134.417969 128.90625 134.058594 128.90625 133.617188 Z M 128.90625 133.617188 "/>
<path style=" stroke:none;fill-rule:nonzero;fill:rgb(100%,100%,100%);fill-opacity:1;" d="M 126.71875 135.855469 C 126.71875 135.414062 126.363281 135.058594 125.921875 135.058594 C 125.480469 135.058594 125.121094 135.414062 125.121094 135.855469 C 125.121094 136.300781 125.480469 136.65625 125.921875 136.65625 C 126.363281 136.65625 126.71875 136.300781 126.71875 135.855469 Z M 126.71875 135.855469 "/>
<path style=" stroke:none;fill-rule:nonzero;fill:rgb(100%,100%,100%);fill-opacity:1;" d="M 131.148438 135.855469 C 131.148438 135.414062 130.789062 135.058594 130.347656 135.058594 C 129.90625 135.058594 129.546875 135.414062 129.546875 135.855469 C 129.546875 136.300781 129.90625 136.65625 130.347656 136.65625 C 130.789062 136.65625 131.148438 136.300781 131.148438 135.855469 Z M 131.148438 135.855469 "/>
</g>
</svg>
