<?xml version="1.0" encoding="UTF-8"?>
<svg xmlns="http://www.w3.org/2000/svg" xmlns:xlink="http://www.w3.org/1999/xlink" width="px" height="px" viewBox="0 0 320 240" version="1.1">
<defs>
<clipPath id="clip1">
  <path d="M 0.015625 0 L 319.984375 0 L 319.984375 240 L 0.015625 240 Z M 0.015625 0 "/>
</clipPath>
</defs>
<g id="surface1">
<g clip-path="url(#clip1)" clip-rule="nonzero">
<rect x="0" y="0" width="320" height="240" style="fill:rgb(8.627451%,36.470589%,19.215687%);fill-opacity:1;stroke:none;"/>
</g>
<path style=" stroke:none;fill-rule:evenodd;fill:rgb(100%,100%,100%);fill-opacity:1;" d="M 70.703125 68.015625 C 70.328125 73.640625 69.765625 83.484375 74.59375 84.515625 C 80.359375 85.078125 77.171875 74.765625 79.28125 72.890625 C 79.65625 71.953125 80.359375 71.953125 80.40625 73.125 L 80.40625 81.890625 C 80.40625 84.703125 82.28125 85.546875 83.6875 86.109375 C 85.1875 86.015625 86.21875 86.109375 86.78125 87.515625 L 87.53125 102.65625 C 87.53125 102.65625 91 103.6875 91.1875 94.171875 C 91.328125 88.546875 90.0625 83.90625 90.8125 82.828125 C 90.8125 81.75 92.21875 81.703125 93.15625 82.21875 C 94.65625 83.25 95.3125 84.5625 97.65625 84.09375 C 101.21875 83.0625 103.375 81.328125 103.421875 78.609375 C 103.351562 75.9375 102.796875 73.300781 101.78125 70.828125 C 101.96875 70.359375 101.125 69.09375 101.3125 68.625 C 101.921875 69.65625 102.90625 69.5625 103.09375 68.625 C 102.484375 66.65625 101.546875 64.734375 100.046875 63.9375 C 98.78125 62.8125 96.90625 63 96.296875 65.34375 C 95.921875 68.015625 97.234375 71.15625 99.15625 73.78125 C 99.578125 74.765625 100.140625 76.453125 99.90625 77.953125 C 98.84375 78.515625 97.859375 78.328125 96.953125 77.390625 C 96.953125 77.390625 94.140625 75.28125 94.140625 74.765625 C 94.890625 69.984375 94.28125 69.421875 93.859375 68.0625 C 93.578125 66.234375 92.6875 65.625 91.984375 64.40625 C 91.28125 63.65625 90.34375 63.65625 89.875 64.40625 C 88.609375 66.5625 89.21875 71.203125 90.109375 73.3125 C 90.765625 75.234375 91.75 76.453125 91.28125 76.453125 C 90.90625 77.53125 90.109375 77.25 89.5 75.984375 C 88.816406 73.320312 88.484375 70.578125 88.515625 67.828125 C 88.28125 65.671875 88 61.078125 86.546875 59.859375 C 85.703125 58.734375 84.4375 59.296875 83.96875 60.328125 C 83.84375 62.421875 83.890625 64.523438 84.109375 66.609375 C 85.046875 70.078125 85.375 73.171875 85.84375 76.6875 C 85.984375 81.421875 83.125 78.75 83.265625 76.359375 C 83.878906 73.355469 83.832031 70.25 83.125 67.265625 C 82.65625 66.046875 82.140625 65.765625 80.96875 65.953125 C 80.078125 65.953125 77.78125 68.4375 77.125 72.65625 C 77.125 72.65625 76.5625 74.8125 76.328125 76.734375 C 76 78.890625 74.59375 80.484375 73.5625 76.453125 C 72.71875 73.5 72.15625 66.328125 70.75 68.015625 Z M 70.703125 68.015625 "/>
<path style=" stroke:none;fill-rule:evenodd;fill:rgb(100%,100%,100%);fill-opacity:1;" d="M 86.40625 91.03125 L 71.40625 98.25 C 71.546875 94.828125 78.484375 88.6875 83.265625 88.640625 C 86.3125 88.6875 85.5625 89.8125 86.359375 91.03125 Z M 86.40625 91.03125 "/>
<path style=" stroke:none;fill-rule:evenodd;fill:rgb(100%,100%,100%);fill-opacity:1;" d="M 83.734375 95.71875 C 75.859375 116.109375 102.25 118.96875 105.203125 96.5625 C 105.484375 95.625 106.609375 94.734375 106.796875 96.234375 C 106.1875 116.53125 86.359375 117.890625 82.984375 111.515625 C 82.191406 109.320312 81.792969 107.003906 81.8125 104.671875 C 81.34375 100.6875 79.234375 102.234375 78.90625 106.171875 C 78.578125 108.375 78.671875 108.984375 78.671875 111.09375 C 79.703125 127.125 105.25 120.234375 109.421875 107.015625 C 111.625 99.703125 109.046875 94.3125 110.21875 94.3125 C 112.75 97.03125 116.3125 94.6875 117.109375 93.75 C 117.4375 93.28125 118.28125 92.953125 118.84375 93.5625 C 120.8125 94.96875 124.28125 94.3125 125.03125 91.828125 C 125.46875 89.328125 125.75 86.796875 125.875 84.234375 C 124.234375 84.703125 123.0625 85.03125 122.921875 85.734375 L 122.59375 87.890625 C 122.453125 88.59375 121.09375 88.59375 121 87.703125 C 120.390625 84.890625 117.859375 84.5625 116.3125 88.875 C 115.328125 89.71875 113.453125 89.90625 113.265625 88.640625 C 113.5 85.734375 112.328125 85.359375 109.984375 86.71875 L 107.734375 69.75 C 108.671875 69.75 109.609375 70.453125 110.5 69.328125 C 109.5625 66.28125 107.453125 60.09375 106.28125 59.625 C 105.765625 58.96875 105.296875 59.390625 104.546875 59.578125 C 103.328125 59.953125 102.203125 60.984375 102.578125 63.046875 C 103.984375 71.859375 104.921875 78.5625 106.375 87.421875 C 106.609375 88.40625 105.765625 89.765625 104.640625 89.625 C 102.765625 88.359375 102.296875 85.78125 99.015625 85.875 C 96.671875 85.875 94.046875 88.453125 93.71875 90.890625 C 93.296875 92.859375 93.15625 94.96875 93.71875 96.65625 C 95.359375 98.625 97.328125 98.4375 99.0625 98.015625 C 100.46875 97.40625 101.640625 96 102.15625 96.328125 C 102.484375 96.75 102.203125 101.4375 95.453125 105 C 91.375 106.875 88.09375 107.25 86.359375 103.921875 C 85.28125 101.8125 86.453125 93.890625 83.734375 95.71875 "/>
<path style=" stroke:none;fill-rule:evenodd;fill:rgb(100%,100%,100%);fill-opacity:1;" d="M 117.34375 75 C 118.890625 74.4375 126.390625 65.8125 126.390625 65.8125 L 125.265625 64.875 C 124.859375 64.53125 124.859375 64.1875 125.265625 63.84375 C 127.140625 62.71875 126.53125 60.375 125.59375 59.25 C 124.296875 58.640625 122.796875 58.660156 121.515625 59.296875 C 120.203125 60.5625 119.921875 62.578125 120.953125 63.796875 C 121.9375 64.265625 122.921875 65.296875 122.265625 65.859375 C 119.171875 69.140625 110.78125 74.8125 111.765625 75 C 111.953125 75.28125 117.15625 75.28125 117.296875 75 Z M 71.875 105.46875 C 69.0625 109.96875 68.828125 116.671875 70.375 118.6875 C 71.21875 119.625 72.578125 120.046875 73.5625 119.71875 C 75.34375 118.96875 76.140625 115.359375 75.71875 114.09375 C 75.15625 113.15625 74.59375 113.046875 74.03125 113.765625 C 72.8125 116.296875 72.296875 114.5625 72.15625 113.15625 C 72.023438 110.773438 72.148438 108.386719 72.53125 106.03125 C 72.859375 104.0625 72.53125 104.625 71.875 105.46875 M 192.390625 98.296875 C 189.671875 92.390625 185.875 86.578125 184.703125 84.375 C 181.050781 78.601562 177.171875 72.972656 173.078125 67.5 C 170.171875 64.03125 177.859375 68.953125 172.140625 62.015625 L 167.96875 58.5 C 167.03125 57.84375 164.78125 56.625 164.40625 58.59375 C 164.21875 60.375 164.3125 61.3125 164.59375 62.765625 C 164.828125 63.703125 166.234375 65.34375 166.9375 66.28125 C 176.546875 79.011719 184.988281 92.582031 192.15625 106.828125 C 193.375 106.21875 193.09375 99.28125 192.390625 98.296875 "/>
<path style=" stroke:none;fill-rule:evenodd;fill:rgb(100%,100%,100%);fill-opacity:1;" d="M 180.4375 117.890625 C 179.875 118.5 181.75 121.078125 184.1875 121.078125 C 188.21875 120.609375 191.78125 118.359375 195.0625 112.359375 C 196.394531 110.363281 197.246094 108.085938 197.546875 105.703125 C 197.945312 94.324219 197.03125 82.9375 194.828125 71.765625 C 194.6875 70.828125 194.828125 69.703125 194.921875 69.421875 C 195.203125 69.09375 196.09375 69.421875 196.5625 68.625 C 197.265625 67.921875 194.6875 62.0625 193.28125 59.859375 C 192.8125 58.828125 192.578125 58.171875 191.734375 59.953125 C 190.714844 61.917969 190.230469 64.117188 190.328125 66.328125 C 192.25 79.6875 192.859375 91.359375 194.078125 104.71875 C 194.21875 106.03125 194.03125 107.90625 193.140625 108.65625 C 189.605469 112.597656 185.277344 115.742188 180.4375 117.890625 M 235.046875 117.84375 C 232.140625 119.53125 232.140625 121.453125 234.484375 121.5 C 238.515625 121.03125 243.296875 120.703125 246.578125 115.734375 C 247.738281 113.394531 248.40625 110.84375 248.546875 108.234375 C 249.136719 97.03125 248.398438 85.796875 246.34375 74.765625 C 246.25 73.828125 245.828125 71.625 245.96875 71.34375 C 246.25 70.6875 247.5625 71.390625 248.03125 70.640625 C 248.6875 69.9375 244.609375 64.6875 243.15625 62.4375 C 242.6875 61.40625 242.5 60.75 241.609375 62.53125 C 240.65625 64.511719 240.359375 66.746094 240.765625 68.90625 C 242.921875 83.4375 244.515625 94.3125 244.84375 107.15625 C 244.65625 108.375 244.609375 109.03125 244.046875 110.578125 C 242.78125 112.171875 241.375 114.234375 240.0625 115.21875 C 238.75 116.15625 235.9375 117.09375 235.046875 117.84375 "/>
<path style=" stroke:none;fill-rule:evenodd;fill:rgb(100%,100%,100%);fill-opacity:1;" d="M 237.203125 104.859375 C 237.234375 101.453125 237.21875 98.484375 237.15625 95.953125 C 237.125 93.769531 236.648438 91.617188 235.75 89.625 C 234.90625 87.703125 235.421875 86.15625 235 84.09375 C 234.625 82.03125 234.71875 78.9375 234.15625 76.546875 C 233.96875 75.609375 233.5 72.5625 233.640625 72.234375 C 233.875 71.578125 234.765625 72.234375 235.234375 71.484375 C 235.890625 70.78125 232.890625 63.046875 231.390625 60.84375 C 230.875 59.859375 229.84375 60.1875 228.671875 61.78125 C 227.5 62.859375 227.921875 65.25 228.390625 67.546875 C 231.25 82.6875 233.453125 96.421875 232.984375 110.8125 C 232.796875 112.03125 237.203125 107.15625 237.203125 104.859375 M 215.78125 86.109375 C 213.953125 86.015625 210.15625 82.5 209.03125 80.484375 C 208.660156 79.488281 208.726562 78.378906 209.21875 77.4375 C 209.921875 76.96875 210.953125 76.5 211.75 76.96875 C 211.75 76.96875 212.546875 78.09375 212.40625 78.234375 C 213.34375 78.703125 213.8125 78.46875 213.90625 78.046875 C 213.953125 77.34375 213.625 76.921875 213.625 76.171875 C 214.046875 74.015625 216.4375 73.6875 217.375 75.046875 C 218.03125 75.890625 218.3125 77.625 218.359375 78.796875 C 218.359375 79.40625 217.421875 78.703125 216.8125 78.796875 C 216.296875 78.984375 216.15625 79.640625 216.109375 80.203125 C 216.015625 81.75 215.828125 84.234375 215.78125 86.0625 Z M 182.125 108.609375 C 182.59375 104.015625 181.9375 95.8125 181.890625 93.09375 C 181.640625 86.101562 181.0625 79.125 180.15625 72.1875 C 179.59375 68.25 181.75 72.609375 181.46875 70.3125 C 180.765625 66.421875 178.609375 63.75 176.03125 60.234375 C 175.234375 59.0625 175.234375 58.828125 173.96875 60.515625 C 172.5625 63.65625 173.78125 65.859375 174.15625 68.34375 C 175.984375 76.40625 177.0625 83.8125 177.578125 91.171875 C 178.117188 98.816406 178.179688 106.488281 177.765625 114.140625 C 179.171875 114.1875 181.328125 111.9375 182.125 108.609375 "/>
<path style=" stroke:none;fill-rule:evenodd;fill:rgb(100%,100%,100%);fill-opacity:1;" d="M 243.4375 101.25 C 240.203125 95.8125 235.375 90 234.0625 87.796875 C 229.714844 81.726562 225.152344 75.816406 220.375 70.078125 C 216.390625 65.859375 222.25 69.375 219.625 66.09375 C 217.421875 63.703125 216.8125 62.90625 214.890625 61.453125 C 213.953125 60.84375 213.390625 59.671875 213.015625 61.6875 C 212.867188 63.433594 212.835938 65.1875 212.921875 66.9375 C 212.921875 67.734375 213.765625 69.28125 214.515625 70.21875 C 224.21875 82.171875 234.859375 94.359375 243.390625 109.6875 C 244.609375 109.078125 244.1875 102.1875 243.390625 101.25 Z M 243.4375 101.25 "/>
<path style=" stroke:none;fill-rule:evenodd;fill:rgb(8.627451%,36.470589%,19.215687%);fill-opacity:1;" d="M 97.46875 91.265625 C 97.234375 91.6875 96.71875 92.203125 96.90625 92.71875 C 97.21875 93.15625 97.625 93.359375 98.125 93.328125 C 98.640625 93.328125 99.390625 93.46875 99.53125 93.1875 C 99.84375 92.8125 99.9375 92.296875 99.8125 91.640625 C 99.25 90.234375 97.75 90.796875 97.46875 91.265625 "/>
<path style=" stroke:none;fill-rule:evenodd;fill:rgb(100%,100%,100%);fill-opacity:1;" d="M 206.03125 169.921875 C 210.34375 170.109375 213.15625 170.15625 216.953125 170.578125 L 221.453125 170.109375 C 226.421875 169.640625 226.609375 177.1875 226.609375 177.1875 C 226.609375 181.640625 224.875 181.875 222.671875 182.34375 C 221.40625 182.53125 220.796875 181.59375 220.09375 180.65625 C 219.035156 180.996094 217.90625 181.0625 216.8125 180.84375 C 215 180.78125 213.203125 180.703125 211.421875 180.609375 C 209.546875 180.46875 208.515625 180.84375 206.59375 180.65625 C 206.21875 181.265625 205.65625 182.109375 204.53125 181.875 C 203.59375 181.734375 202.421875 179.0625 202.75 176.953125 C 203.453125 175.453125 203.21875 175.96875 203.21875 175.3125 C 185.59375 174.84375 167.828125 174.046875 150.578125 174.28125 C 137.078125 174.328125 123.765625 174.890625 110.40625 175.453125 C 103.28125 175.359375 97.84375 174.234375 94.09375 168.75 C 94.46875 168.75 112.28125 169.734375 117.484375 169.40625 C 127.09375 169.3125 135.90625 168.515625 145.703125 168.234375 C 165.015625 168.5625 184.1875 168.5625 203.5 169.921875 C 201.625 168.65625 201.625 165.703125 204.4375 164.953125 C 204.671875 164.765625 204.8125 166.40625 205.234375 166.359375 C 207.53125 166.21875 206.5 169.3125 206.03125 169.921875 M 128.40625 63.421875 C 125.5 71.765625 130.09375 80.953125 133.28125 80.0625 C 135.625 81 137.03125 76.59375 137.96875 71.8125 C 138.671875 70.453125 139.140625 70.3125 139.46875 71.015625 C 139.375 77.390625 139.9375 78.84375 141.578125 80.765625 C 145.234375 83.578125 148.28125 81.140625 148.515625 80.90625 L 151.328125 78.046875 C 152.015625 77.359375 152.8125 77.3125 153.71875 77.90625 C 154.609375 78.703125 154.46875 80.0625 156.34375 81 C 157.9375 81.65625 161.265625 81.1875 162.0625 79.828125 C 163.09375 78 163.375 77.390625 163.84375 76.734375 C 164.59375 75.75 165.859375 76.171875 165.859375 76.5 C 165.71875 77.0625 164.96875 77.578125 165.484375 78.609375 C 166.421875 79.265625 166.609375 78.84375 167.125 78.703125 C 169 77.765625 170.40625 73.734375 170.40625 73.734375 C 170.453125 72.234375 169.609375 72.328125 169.046875 72.703125 L 167.59375 73.6875 C 166.65625 73.828125 164.921875 74.4375 164.03125 73.078125 C 163.140625 71.484375 163.140625 69.1875 162.484375 67.546875 C 162.484375 67.453125 161.265625 64.96875 162.390625 64.828125 C 162.953125 64.921875 164.125 65.25 164.3125 64.265625 C 164.875 63.28125 163.09375 60.515625 161.828125 59.109375 C 160.75 57.9375 159.25 57.796875 157.796875 59.015625 C 156.765625 59.953125 156.90625 60.984375 156.71875 61.96875 C 156.375 63.398438 156.71875 64.910156 157.65625 66.046875 C 158.6875 68.015625 160.515625 70.59375 159.90625 74.25 C 159.90625 74.25 158.828125 75.9375 156.953125 75.703125 C 156.15625 75.5625 154.890625 75.234375 154.234375 70.171875 C 153.71875 66.421875 154.328125 61.078125 152.734375 58.59375 C 152.125 57.046875 151.703125 55.59375 150.296875 58.171875 C 149.921875 59.203125 148.28125 60.75 149.453125 63.890625 C 150.5625 66.722656 150.886719 69.796875 150.390625 72.796875 C 149.6875 73.828125 149.546875 74.15625 148.65625 75.140625 C 147.4375 76.546875 146.078125 76.171875 145.046875 75.65625 C 144.109375 75.046875 143.359375 74.71875 142.890625 72.609375 C 142.984375 69.328125 143.171875 63.9375 142.5625 62.8125 C 141.671875 61.03125 140.21875 61.6875 139.609375 62.25 C 136.828125 65.351562 134.960938 69.164062 134.21875 73.265625 C 133.375 75.984375 132.484375 75.1875 131.875 74.109375 C 130.375 72.703125 130.234375 61.59375 128.40625 63.421875 "/>
<path style=" stroke:none;fill-rule:evenodd;fill:rgb(100%,100%,100%);fill-opacity:1;" d="M 137.21875 81.609375 C 138.578125 80.671875 137.96875 80.015625 139.9375 81.984375 C 142.480469 86.480469 143.953125 91.5 144.25 96.65625 C 144.15625 97.875 145 98.625 145.421875 98.34375 C 145.609375 95.53125 152.5 91.59375 158.828125 91.03125 C 159.765625 90.796875 159.296875 88.96875 159.4375 88.03125 C 159.0625 84.515625 161.40625 81.328125 164.6875 81.09375 C 169.1875 81.75 170.6875 84.140625 170.78125 87.75 C 170.265625 94.78125 162.953125 95.953125 158.875 96.515625 C 158.265625 96.75 157.984375 97.03125 158.875 97.359375 L 176.03125 97.453125 L 176.921875 97.921875 C 177.015625 98.390625 176.640625 98.015625 175.984375 99.140625 C 175.046875 100.800781 174.457031 102.636719 174.25 104.53125 C 169.140625 106.21875 163.84375 106.875 158.5 107.578125 C 156.625 108.515625 155.6875 109.78125 156.0625 111.1875 C 156.71875 112.734375 160.84375 114.328125 160.84375 114.375 C 161.640625 114.84375 162.53125 116.015625 160.609375 118.40625 C 152.265625 118.03125 145.75 114.46875 143.5 109.453125 C 142.84375 108.9375 142.09375 109.453125 141.625 110.109375 C 138.34375 114.328125 135.15625 118.078125 129.578125 120.140625 C 126.296875 120.984375 122.875 119.625 121.28125 117.46875 C 120.203125 116.203125 120.25 114.84375 119.875 114.5625 C 118.046875 115.359375 102.578125 121.921875 104.546875 118.828125 C 108.296875 114.84375 114.859375 111.84375 120.578125 107.90625 C 121 106.546875 121.75 102.046875 124 100.59375 C 124.140625 100.59375 123.671875 103.21875 123.71875 104.34375 C 123.71875 105.28125 123.625 105.609375 123.8125 105.375 C 124.234375 105.140625 131.171875 99.65625 131.78125 97.96875 C 132.4375 97.03125 131.921875 94.59375 131.921875 94.5 C 130.609375 91.125 128.78125 90.84375 128.125 89.15625 C 127.515625 86.953125 127.796875 84.421875 129.0625 83.671875 C 130.21875 82.703125 131.453125 82.78125 132.765625 83.90625 C 134.171875 85.171875 135.390625 87.65625 135.765625 89.484375 C 135.53125 90.1875 133.890625 89.015625 133.421875 89.34375 C 134.324219 90.378906 134.925781 91.644531 135.15625 93 C 136.09375 96.84375 135.8125 98.34375 134.875 100.828125 C 131.78125 107.34375 127.84375 109.265625 124.375 111.703125 C 124.28125 111.703125 124.234375 113.34375 125.5 114.234375 C 125.96875 114.703125 127.796875 114.9375 129.90625 114.234375 C 134.402344 111.71875 138.042969 107.914062 140.359375 103.3125 C 140.757812 99.804688 140.375 96.25 139.234375 92.90625 C 137.875 89.765625 136.28125 85.3125 136.28125 85.21875 C 136.234375 83.25 136.375 82.59375 137.21875 81.609375 M 92.3125 63.515625 C 94.28125 64.453125 98.03125 64.03125 97.84375 60.84375 L 97.75 59.390625 C 97.375 58.453125 96.25 58.6875 96.015625 59.625 C 95.921875 59.953125 96.15625 60.46875 95.875 60.609375 C 95.6875 60.796875 95.078125 60.703125 95.078125 59.8125 C 95.046875 59.5 94.9375 59.25 94.75 59.0625 C 94.6875 59 94.546875 58.96875 94.328125 58.96875 C 94.046875 58.96875 94.046875 59.015625 93.90625 59.25 C 93.84375 59.46875 93.796875 59.71875 93.765625 60 C 93.734375 60.28125 93.609375 60.4375 93.390625 60.46875 C 93.109375 60.46875 93.15625 60.46875 92.921875 60.375 C 92.796875 60.28125 92.71875 60.125 92.6875 59.90625 L 92.546875 59.15625 C 92.453125 59.03125 92.296875 58.9375 92.078125 58.875 C 91 58.875 90.90625 60.140625 91 60.609375 C 90.90625 60.703125 90.859375 62.90625 92.3125 63.515625 "/>
<path style=" stroke:none;fill-rule:evenodd;fill:rgb(100%,100%,100%);fill-opacity:1;" d="M 150.203125 87.984375 C 152.171875 88.921875 156.90625 88.40625 155.734375 85.359375 L 155.640625 83.859375 C 155.21875 82.921875 154.140625 83.15625 153.90625 84.140625 C 153.8125 84.421875 154.046875 84.9375 153.71875 85.078125 C 153.578125 85.265625 152.921875 85.171875 152.96875 84.328125 C 152.9375 84.015625 152.828125 83.75 152.640625 83.53125 C 152.546875 83.46875 152.390625 83.4375 152.171875 83.4375 C 151.9375 83.4375 151.9375 83.53125 151.796875 83.765625 C 151.703125 83.984375 151.65625 84.234375 151.65625 84.515625 C 151.59375 84.765625 151.453125 84.921875 151.234375 84.984375 C 151 84.984375 151.046875 84.984375 150.859375 84.84375 C 150.703125 84.75 150.609375 84.609375 150.578125 84.421875 L 150.4375 83.671875 C 150.34375 83.515625 150.1875 83.421875 149.96875 83.390625 C 148.890625 83.390625 148.796875 84.609375 148.84375 85.078125 C 148.796875 85.171875 148.75 87.421875 150.25 87.984375 Z M 183.953125 77.859375 C 185.921875 78.796875 189.625 78.375 189.484375 75.234375 L 189.390625 73.734375 C 188.96875 72.796875 187.890625 73.03125 187.65625 73.96875 C 187.5625 74.296875 187.796875 74.8125 187.46875 75 C 187.328125 75.140625 186.671875 75.046875 186.71875 74.15625 C 186.6875 73.84375 186.578125 73.59375 186.390625 73.40625 C 186.296875 73.34375 186.140625 73.3125 185.921875 73.3125 C 185.703125 73.3125 185.578125 73.421875 185.546875 73.640625 L 185.40625 74.34375 C 185.375 74.65625 185.234375 74.8125 184.984375 74.8125 C 184.609375 74.8125 184.796875 74.8125 184.609375 74.71875 C 184.453125 74.625 184.359375 74.484375 184.328125 74.296875 C 184.328125 73.984375 184.28125 73.71875 184.1875 73.5 C 184.0625 73.375 183.90625 73.296875 183.71875 73.265625 C 182.640625 73.265625 182.546875 74.484375 182.59375 74.953125 C 182.546875 75.046875 182.5 77.25 184 77.859375 Z M 201.4375 103.3125 C 198.015625 107.203125 199.515625 113.625 200.3125 115.03125 C 201.4375 117.28125 202.328125 118.734375 204.53125 119.859375 C 206.546875 121.3125 208.140625 120.421875 208.984375 119.390625 C 211 117.28125 211.046875 111.890625 211.984375 110.859375 C 212.640625 108.890625 214.328125 109.21875 215.125 110.109375 C 215.878906 111.160156 216.875 112.015625 218.03125 112.59375 C 219.90625 114.234375 222.15625 114.5625 224.40625 113.0625 C 225.90625 112.171875 226.890625 111.09375 227.78125 108.890625 C 228.71875 106.265625 228.25 94.078125 228.015625 86.859375 L 226.046875 76.78125 C 226.046875 76.6875 225.8125 72 225.578125 70.921875 C 225.578125 70.453125 225.4375 70.3125 225.90625 70.359375 C 226.421875 70.828125 226.46875 70.828125 226.84375 70.96875 C 227.3125 71.0625 227.78125 70.171875 227.453125 69.421875 L 222.765625 60.703125 C 222.390625 60.328125 221.875 59.953125 221.265625 60.796875 C 220.523438 61.445312 220.109375 62.390625 220.140625 63.375 C 220.328125 65.46875 220.53125 67.546875 220.75 69.609375 L 222.625 80.203125 C 223.234375 87.703125 223.375 93.890625 223.984375 101.4375 C 223.890625 104.625 222.90625 107.390625 221.96875 107.8125 C 221.96875 107.8125 220.5625 108.609375 219.625 107.71875 C 218.921875 107.4375 216.15625 103.078125 216.15625 103.078125 C 214.75 101.8125 213.8125 102.140625 212.828125 103.078125 C 210.015625 105.796875 208.796875 110.765625 206.875 114.234375 C 206.40625 115.03125 205 115.640625 203.5 114.1875 C 199.65625 108.890625 201.90625 101.390625 201.4375 103.3125 M 184.84375 59.390625 C 186.625 60.09375 187.84375 63.703125 187.46875 65.484375 C 187.09375 67.59375 186.15625 69.9375 185.5 69.65625 C 184.75 69.375 185.96875 67.5 185.265625 65.53125 C 184.890625 64.21875 182.453125 61.875 182.734375 61.21875 C 182.265625 59.765625 183.765625 59.109375 184.84375 59.34375 Z M 184.84375 59.390625 "/>
<path style=" stroke:none;fill-rule:evenodd;fill:rgb(100%,100%,100%);fill-opacity:1;" d="M 207.15625 105.46875 C 207.484375 101.15625 206.875 98.53125 206.78125 96 C 206.6875 93.46875 203.921875 74.15625 203.359375 72.28125 C 202.65625 68.625 206.03125 71.8125 205.65625 69.65625 C 204.484375 67.03125 201.625 63.140625 200.734375 60.84375 C 200.171875 59.90625 200.40625 58.96875 199.1875 60.609375 C 198.132812 63.484375 197.765625 66.566406 198.109375 69.609375 C 201.015625 84.75 203.96875 97.3125 203.5 111.703125 C 204.90625 111.703125 206.453125 108.5625 207.15625 105.46875 M 237.34375 65.484375 C 238.984375 66.28125 239.921875 70.78125 239.734375 72.046875 C 239.40625 74.390625 238.5625 76.921875 237.953125 76.59375 C 237.25 76.3125 238.09375 73.125 237.765625 72.140625 C 237.390625 70.734375 235.1875 68.203125 235.421875 67.453125 C 234.953125 65.859375 236.359375 65.203125 237.34375 65.484375 M 117.484375 97.3125 C 119.03125 97.921875 119.96875 101.203125 119.828125 102.140625 C 119.453125 103.875 118.65625 105.75 118.046875 105.46875 C 117.4375 105.28125 118.1875 102.9375 117.90625 102.1875 C 117.765625 100.453125 115.609375 99.515625 115.65625 98.765625 C 115.28125 97.359375 116.59375 97.125 117.53125 97.3125 Z M 117.484375 97.3125 "/>
<path style=" stroke:none;fill-rule:evenodd;fill:rgb(8.627451%,36.470589%,19.215687%);fill-opacity:1;" d="M 154.796875 102.28125 C 156.765625 102.375 157.75 103.96875 155.921875 104.625 C 154.046875 105.234375 152.3125 105.75 152.265625 108.375 C 152.96875 112.125 151.328125 110.8125 150.390625 110.34375 C 149.265625 109.5 146.078125 107.53125 145.609375 103.3125 C 145.5625 102.328125 146.359375 101.4375 147.625 101.4375 C 149.5 101.953125 152.3125 102 154.796875 102.28125 "/>
<path style=" stroke:none;fill-rule:evenodd;fill:rgb(100%,100%,100%);fill-opacity:1;" d="M 76.28125 58.3125 C 78.53125 58.96875 78.671875 62.34375 78.53125 63.328125 C 78.203125 65.109375 77.40625 67.03125 76.84375 66.796875 C 76.1875 66.5625 76.84375 64.125 76.515625 63.375 C 76.1875 62.34375 74.265625 60.375 74.453125 59.8125 C 74.03125 58.640625 75.390625 58.078125 76.28125 58.3125 M 121.234375 74.0625 C 119.453125 75 118.796875 77.8125 119.875 79.5 C 120.90625 80.90625 122.5 80.390625 122.6875 80.390625 C 124.421875 80.578125 125.453125 77.15625 125.453125 77.15625 C 125.453125 77.15625 125.5 76.21875 123.484375 78.046875 C 122.59375 78.1875 122.546875 77.859375 122.3125 77.390625 C 122.097656 76.5 122.179688 75.558594 122.546875 74.71875 C 122.875 73.875 122.21875 73.5 121.234375 74.0625 M 134.359375 57 C 133.421875 57.609375 131.6875 59.4375 131.640625 61.5 C 131.59375 62.671875 131.359375 62.671875 132.109375 63.375 C 132.71875 64.21875 133.234375 64.171875 134.359375 63.5625 C 134.929688 63.210938 135.324219 62.628906 135.4375 61.96875 C 135.71875 60.65625 134.03125 62.625 133.84375 61.125 C 133.46875 59.71875 134.546875 59.15625 135.578125 57.84375 C 135.578125 56.90625 135.578125 56.296875 134.3125 57 Z M 144.859375 58.875 C 144.449219 60.582031 144.195312 62.324219 144.109375 64.078125 C 143.828125 65.390625 145.515625 65.953125 146.21875 64.265625 C 147.34375 61.21875 147.34375 59.90625 147.4375 58.640625 C 147.109375 56.625 145.75 56.671875 144.859375 58.875 M 211.421875 92.765625 C 211.609375 92.53125 220.796875 86.015625 220.796875 86.015625 C 221.734375 85.6875 221.5 89.390625 221.078125 89.34375 C 218.226562 92.089844 214.949219 94.351562 211.375 96.046875 C 210.90625 96.375 210.484375 93.5625 211.375 92.765625 Z M 219.71875 92.671875 C 221.359375 93.46875 222.015625 98.203125 221.828125 99.46875 C 221.828125 102 220.28125 103.96875 219.625 103.6875 C 218.96875 103.359375 219.71875 100.546875 219.390625 99.5625 C 219.015625 98.15625 217.65625 95.578125 217.890625 94.828125 C 217.421875 93.234375 218.734375 92.390625 219.765625 92.671875 Z M 165.34375 113.015625 C 166.105469 112.128906 166.988281 111.355469 167.96875 110.71875 C 168.90625 110.25 169.75 111.09375 169.703125 111.046875 C 169.84375 111.984375 169.140625 112.78125 169.375 114 C 169.5625 114.46875 169.703125 115.03125 170.59375 114.84375 C 172.046875 113.671875 173.40625 113.578125 174.8125 113.53125 C 175.984375 113.578125 176.03125 115.5 175.28125 115.5 C 172.609375 116.0625 171.4375 116.8125 169.515625 117.515625 C 168.578125 118.078125 167.828125 117.375 167.828125 117.328125 C 167.828125 117.28125 167.3125 116.8125 167.640625 115.59375 C 167.734375 114.59375 167.359375 114.125 166.515625 114.1875 C 165.953125 114.5625 165.390625 114.75 165.109375 114.046875 C 164.921875 113.609375 165 113.265625 165.34375 113.015625 M 229.375 115.546875 C 229.75 116.015625 230.03125 116.484375 229.328125 117.328125 L 227.59375 118.828125 C 227.3125 119.296875 227.125 120.140625 228.0625 120.375 C 229.75 120.84375 233.6875 118.265625 233.6875 118.21875 C 234.34375 117.75 234.15625 116.8125 234.0625 116.8125 C 233.6875 116.390625 232.84375 116.671875 232.28125 116.578125 C 232 116.578125 231.109375 116.484375 231.53125 115.640625 C 231.847656 115.226562 232.101562 114.769531 232.28125 114.28125 C 232.5625 113.75 232.25 113.328125 231.34375 113.015625 C 230.359375 112.828125 229.9375 112.921875 228.859375 113.015625 C 228.359375 113.078125 228.0625 113.4375 227.96875 114.09375 C 228.015625 115.171875 228.671875 115.125 229.375 115.5 Z M 229.375 115.546875 "/>
<path style=" stroke:none;fill-rule:evenodd;fill:rgb(8.627451%,36.470589%,19.215687%);fill-opacity:1;" d="M 165.671875 88.921875 C 165.4375 89.390625 164.59375 89.390625 163.796875 88.921875 C 163 88.453125 162.53125 87.703125 162.8125 87.28125 C 163.09375 86.859375 163.890625 86.859375 164.6875 87.28125 C 165.484375 87.703125 165.90625 88.5 165.671875 88.921875 M 123.953125 63.796875 C 123.484375 63.9375 122.828125 63.515625 122.546875 62.859375 C 122.265625 62.203125 122.40625 61.640625 122.875 61.5 C 123.34375 61.359375 123.953125 61.828125 124.28125 62.4375 C 124.609375 63.046875 124.421875 63.703125 123.90625 63.84375 Z M 206.5 175.78125 C 210.90625 175.96875 215.03125 175.78125 219.390625 176.015625 C 220.1875 176.71875 219.625 178.359375 219.109375 178.265625 L 215.453125 178.125 C 215.40625 176.71875 211.84375 176.953125 211.9375 178.171875 C 210.015625 178.40625 208.28125 178.125 206.3125 178.03125 C 205.75 177.328125 205.84375 176.0625 206.5 175.78125 "/>
</g>
</svg>
