<?xml version="1.0" encoding="UTF-8"?>
<svg xmlns="http://www.w3.org/2000/svg" xmlns:xlink="http://www.w3.org/1999/xlink" width="px" height="px" viewBox="0 0 320 240" version="1.1">
<g id="surface1">
<rect x="0" y="0" width="320" height="240" style="fill:rgb(100%,100%,100%);fill-opacity:1;stroke:none;"/>
<path style=" stroke:none;fill-rule:evenodd;fill:rgb(87.450981%,0%,0%);fill-opacity:1;" d="M -10 0 L 350 0 L 350 120 L -10 120 Z M -10 0 "/>
<path style=" stroke:none;fill-rule:evenodd;fill:rgb(100%,100%,100%);fill-opacity:1;" d="M 73 20.101562 C 53.480469 24.296875 39.570312 41.597656 39.667969 61.5625 C 39.765625 81.527344 53.839844 98.695312 73.398438 102.699219 C 62.417969 105.878906 50.625 104.550781 40.625 99.015625 C 30.625 93.480469 23.238281 84.191406 20.101562 73.199219 C 13.675781 50.425781 26.859375 26.738281 49.601562 20.199219 C 57.601562 17.898438 65 17.851562 73.050781 20.101562 Z M 73 20.101562 "/>
<path style=" stroke:none;fill-rule:evenodd;fill:rgb(100%,100%,100%);fill-opacity:1;" d="M 66.5 55 L 68.949219 62.5 L 62.449219 57.898438 L 56.050781 62.601562 L 58.398438 55 L 52 50.351562 L 59.949219 50.25 L 62.449219 42.75 L 64.949219 50.25 L 72.851562 50.25 Z M 75.25 81 L 77.75 88.550781 L 71.25 83.949219 L 64.800781 88.601562 L 67.199219 81.050781 L 60.800781 76.351562 L 68.75 76.300781 L 71.199219 68.75 L 73.699219 76.25 L 81.699219 76.25 Z M 104.5 80.800781 L 106.949219 88.398438 L 100.449219 83.75 L 94.050781 88.398438 L 96.398438 80.851562 L 90 76.199219 L 97.949219 76.101562 L 100.449219 68.601562 L 102.949219 76.101562 L 110.851562 76.101562 Z M 113.199219 55 L 115.648438 62.550781 L 109.148438 57.949219 L 102.75 62.601562 L 105.148438 55.050781 L 98.699219 50.351562 L 106.699219 50.300781 L 109.101562 42.75 L 111.601562 50.25 L 119.601562 50.25 Z M 90.050781 37.851562 L 92.550781 45.449219 L 86.050781 40.800781 L 79.601562 45.5 L 82 37.898438 L 75.601562 33.199219 L 83.5 33.148438 L 86 25.601562 L 88.5 33.101562 L 96.5 33.101562 Z M 90.050781 37.851562 "/>
</g>
</svg>
