<?xml version="1.0" encoding="UTF-8"?>
<svg xmlns="http://www.w3.org/2000/svg" xmlns:xlink="http://www.w3.org/1999/xlink" width="px" height="px" viewBox="0 0 320 240" version="1.1">
<defs>
<clipPath id="clip1">
  <path d="M 0.0195312 0 L 319.988281 0 L 319.988281 240 L -0.0273438 240 Z M 0.0195312 0 "/>
</clipPath>
<clipPath id="clip2">
  <path d="M 0 159 L 320 159 L 320 240 L 0 240 Z M 0 159 "/>
</clipPath>
<clipPath id="clip3">
  <path d="M 0.0195312 0 L 319.988281 0 L 319.988281 240 L -0.0273438 240 Z M 0.0195312 0 "/>
</clipPath>
<clipPath id="clip4">
  <path d="M 0 80 L 320 80 L 320 160 L 0 160 Z M 0 80 "/>
</clipPath>
<clipPath id="clip5">
  <path d="M 0.0195312 0 L 319.988281 0 L 319.988281 240 L -0.0273438 240 Z M 0.0195312 0 "/>
</clipPath>
<clipPath id="clip6">
  <path d="M 43 36 L 115 36 L 115 117 L 43 117 Z M 43 36 "/>
</clipPath>
<clipPath id="clip7">
  <path d="M 0.0195312 0 L 319.988281 0 L 319.988281 240 L -0.0273438 240 Z M 0.0195312 0 "/>
</clipPath>
<clipPath id="clip8">
  <path d="M 46 36 L 112 36 L 112 114 L 46 114 Z M 46 36 "/>
</clipPath>
<clipPath id="clip9">
  <path d="M 0.0195312 0 L 319.988281 0 L 319.988281 240 L -0.0273438 240 Z M 0.0195312 0 "/>
</clipPath>
<clipPath id="clip10">
  <path d="M 74 51 L 83 51 L 83 59 L 74 59 Z M 74 51 "/>
</clipPath>
<clipPath id="clip11">
  <path d="M 0.0195312 0 L 319.988281 0 L 319.988281 240 L -0.0273438 240 Z M 0.0195312 0 "/>
</clipPath>
<clipPath id="clip12">
  <path d="M 52 63 L 105 63 L 105 111 L 52 111 Z M 52 63 "/>
</clipPath>
<clipPath id="clip13">
  <path d="M 0.0195312 0 L 319.988281 0 L 319.988281 240 L -0.0273438 240 Z M 0.0195312 0 "/>
</clipPath>
<clipPath id="clip14">
  <path d="M 67 39 L 91 39 L 91 47 L 67 47 Z M 67 39 "/>
</clipPath>
<clipPath id="clip15">
  <path d="M 0.0195312 0 L 319.988281 0 L 319.988281 240 L -0.0273438 240 Z M 0.0195312 0 "/>
</clipPath>
<clipPath id="clip16">
  <path d="M 55 90 L 103 90 L 103 100 L 55 100 Z M 55 90 "/>
</clipPath>
<clipPath id="clip17">
  <path d="M 0.0195312 0 L 319.988281 0 L 319.988281 240 L -0.0273438 240 Z M 0.0195312 0 "/>
</clipPath>
</defs>
<g id="surface1">
<g clip-path="url(#clip1)" clip-rule="nonzero">
<rect x="0" y="0" width="320" height="240" style="fill:rgb(100%,100%,100%);fill-opacity:1;stroke:none;"/>
</g>
<g clip-path="url(#clip2)" clip-rule="nonzero">
<g clip-path="url(#clip3)" clip-rule="nonzero">
<path style=" stroke:none;fill-rule:evenodd;fill:rgb(83.529413%,0%,0%);fill-opacity:1;" d="M -22.011719 159.984375 L 457.988281 159.984375 L 457.988281 240 L -22.011719 240 Z M -22.011719 159.984375 "/>
</g>
</g>
<g clip-path="url(#clip4)" clip-rule="nonzero">
<g clip-path="url(#clip5)" clip-rule="nonzero">
<path style=" stroke:none;fill-rule:evenodd;fill:rgb(0%,0%,74.901962%);fill-opacity:1;" d="M -22.011719 80.015625 L 457.988281 80.015625 L 457.988281 159.984375 L -22.011719 159.984375 Z M -22.011719 80.015625 "/>
</g>
</g>
<g clip-path="url(#clip6)" clip-rule="nonzero">
<g clip-path="url(#clip7)" clip-rule="nonzero">
<path style=" stroke:none;fill-rule:evenodd;fill:rgb(83.529413%,0%,0%);fill-opacity:1;" d="M 114.113281 43.59375 C 112.238281 72.46875 111.113281 88.3125 106.753906 95.625 C 101.972656 103.5 97.378906 109.265625 78.769531 116.25 C 60.207031 109.265625 55.613281 103.5 50.832031 95.625 C 46.425781 88.3125 45.347656 72.46875 43.472656 43.59375 L 46.191406 42.65625 C 51.722656 40.96875 55.847656 39.609375 58.894531 39 C 63.253906 38.0625 67.003906 37.03125 78.722656 36.796875 C 90.441406 36.984375 94.191406 38.109375 98.550781 39.046875 C 101.582031 39.703125 105.847656 40.90625 111.347656 42.65625 Z M 114.113281 43.59375 "/>
</g>
</g>
<g clip-path="url(#clip8)" clip-rule="nonzero">
<g clip-path="url(#clip9)" clip-rule="nonzero">
<path style=" stroke:none;fill-rule:evenodd;fill:rgb(0%,0%,74.901962%);fill-opacity:1;" d="M 111.394531 42.65625 C 109.613281 71.484375 108.113281 84.703125 105.769531 91.03125 C 101.269531 101.90625 94.144531 107.859375 78.769531 113.53125 C 63.394531 107.859375 56.269531 101.90625 51.722656 91.03125 C 49.378906 84.65625 47.972656 71.484375 46.191406 42.609375 C 51.628906 40.859375 55.863281 39.65625 58.894531 39 C 63.253906 38.0625 67.003906 36.984375 78.722656 36.796875 C 90.441406 36.984375 94.191406 38.0625 98.550781 39 C 102.890625 39.988281 107.175781 41.191406 111.394531 42.609375 Z M 111.394531 42.65625 "/>
</g>
</g>
<g clip-path="url(#clip10)" clip-rule="nonzero">
<g clip-path="url(#clip11)" clip-rule="nonzero">
<path style=" stroke:none;fill-rule:evenodd;fill:rgb(100%,87.450981%,0%);fill-opacity:1;" d="M 78.769531 51.46875 L 79.472656 53.203125 L 82.753906 53.671875 L 80.644531 54.9375 L 82.660156 56.296875 L 79.707031 56.765625 L 78.769531 58.359375 L 77.832031 56.71875 L 75.019531 56.34375 L 76.894531 54.9375 L 74.925781 53.671875 L 78.066406 53.203125 Z M 78.769531 51.46875 "/>
</g>
</g>
<g clip-path="url(#clip12)" clip-rule="nonzero">
<g clip-path="url(#clip13)" clip-rule="nonzero">
<path style=" stroke:none;fill-rule:evenodd;fill:rgb(100%,100%,100%);fill-opacity:1;" d="M 104.691406 84.1875 L 102.863281 82.78125 L 101.597656 80.625 L 99.066406 78.421875 L 97.707031 76.21875 L 95.175781 73.921875 L 93.957031 71.71875 L 92.550781 70.640625 L 91.707031 69.75 L 89.363281 71.765625 L 88.144531 73.96875 L 86.597656 75.375 L 84.863281 74.015625 L 83.597656 71.765625 L 78.769531 63.1875 L 73.941406 71.765625 L 72.675781 74.015625 L 70.941406 75.375 L 69.394531 73.96875 L 68.128906 71.765625 L 65.832031 69.75 L 64.941406 70.59375 L 63.582031 71.71875 L 62.363281 73.921875 L 59.832031 76.21875 L 58.472656 78.421875 L 55.941406 80.625 L 54.675781 82.78125 L 52.847656 84.1875 C 53.882812 90.636719 56.9375 96.59375 61.566406 101.203125 C 66.59375 105.507812 72.425781 108.773438 78.722656 110.8125 C 85.066406 108.820312 90.9375 105.550781 95.972656 101.203125 C 98.691406 98.390625 103.753906 92.15625 104.691406 84.1875 "/>
</g>
</g>
<g clip-path="url(#clip14)" clip-rule="nonzero">
<g clip-path="url(#clip15)" clip-rule="nonzero">
<path style=" stroke:none;fill-rule:evenodd;fill:rgb(100%,87.450981%,0%);fill-opacity:1;" d="M 86.457031 39.328125 L 87.207031 41.0625 L 90.488281 41.53125 L 88.332031 42.796875 L 90.394531 44.15625 L 87.441406 44.625 L 86.503906 46.21875 L 85.566406 44.578125 L 82.753906 44.203125 L 84.628906 42.796875 L 82.660156 41.53125 L 85.753906 41.0625 Z M 70.988281 39.328125 L 71.738281 41.0625 L 75.019531 41.484375 L 72.910156 42.75 L 74.925781 44.109375 L 71.972656 44.578125 L 71.035156 46.171875 L 70.097656 44.578125 L 67.285156 44.15625 L 69.160156 42.75 L 67.191406 41.484375 L 70.332031 41.015625 Z M 70.988281 39.328125 "/>
</g>
</g>
<g clip-path="url(#clip16)" clip-rule="nonzero">
<g clip-path="url(#clip17)" clip-rule="nonzero">
<path style=" stroke:none;fill-rule:evenodd;fill:rgb(0%,0%,74.901962%);fill-opacity:1;" d="M 100.660156 95.15625 L 97.191406 95.15625 L 93.910156 94.921875 L 90.019531 93.046875 L 85.613281 93.046875 L 81.816406 94.921875 L 78.769531 95.203125 L 75.769531 94.921875 L 71.972656 93.046875 L 67.519531 93.046875 L 63.582031 94.921875 L 60.347656 95.203125 L 56.785156 95.15625 L 55.097656 92.25 L 55.144531 92.15625 L 60.394531 93.046875 L 63.628906 92.8125 L 67.519531 90.890625 L 71.925781 90.890625 L 75.769531 92.765625 L 78.769531 93.046875 L 81.816406 92.765625 L 85.613281 90.890625 L 90.019531 90.890625 L 93.957031 92.765625 L 97.191406 93.046875 L 102.253906 92.109375 L 102.347656 92.296875 Z M 60.160156 99.609375 L 63.628906 99.375 L 67.519531 97.5 L 71.925781 97.5 L 75.769531 99.375 L 78.769531 99.609375 L 81.769531 99.375 L 85.613281 97.5 L 90.019531 97.5 L 93.910156 99.375 L 97.425781 99.609375 L 99.675781 96.796875 L 99.628906 96.796875 L 97.191406 97.453125 L 93.957031 97.21875 L 90.066406 95.34375 L 85.660156 95.34375 L 81.816406 97.21875 L 78.816406 97.5 L 75.769531 97.21875 L 71.972656 95.34375 L 67.519531 95.34375 L 63.582031 97.21875 L 60.347656 97.5 L 58.003906 96.890625 L 58.003906 96.984375 L 60.113281 99.609375 Z M 60.160156 99.609375 "/>
</g>
</g>
</g>
</svg>
