<?xml version="1.0" encoding="UTF-8"?>
<svg xmlns="http://www.w3.org/2000/svg" xmlns:xlink="http://www.w3.org/1999/xlink" width="px" height="px" viewBox="0 0 320 240" version="1.1">
<g id="surface1">
<rect x="0" y="0" width="320" height="240" style="fill:rgb(7.058824%,67.843139%,16.862746%);fill-opacity:1;stroke:none;"/>
<path style=" stroke:none;fill-rule:nonzero;fill:rgb(100%,80.784315%,0%);fill-opacity:1;" d="M 0 68.550781 L 320 68.550781 L 320 171.5 L 0 171.5 Z M 0 68.550781 "/>
<path style=" stroke:none;fill-rule:nonzero;fill:rgb(82.352942%,6.27451%,20.392157%);fill-opacity:1;" d="M 0 0 L 0 240 L 120 120 "/>
<path style=" stroke:none;fill-rule:nonzero;fill:rgb(0%,0%,0.392157%);fill-opacity:1;" d="M 175.800781 85.714844 L 165.203125 118.320312 L 181.507812 123.621094 "/>
<path style=" stroke:none;fill-rule:nonzero;fill:rgb(0%,0%,0.392157%);fill-opacity:1;" d="M 175.800781 85.714844 L 186.394531 118.320312 L 170.089844 123.621094 "/>
<path style=" stroke:none;fill-rule:nonzero;fill:rgb(0%,0%,0.392157%);fill-opacity:1;" d="M 208.40625 109.40625 L 174.121094 109.40625 L 174.121094 126.546875 "/>
<path style=" stroke:none;fill-rule:nonzero;fill:rgb(0%,0%,0.392157%);fill-opacity:1;" d="M 208.40625 109.40625 L 180.671875 129.558594 L 170.59375 115.6875 "/>
<path style=" stroke:none;fill-rule:nonzero;fill:rgb(0%,0%,0.392157%);fill-opacity:1;" d="M 195.953125 147.738281 L 185.359375 115.128906 L 169.054688 120.425781 "/>
<path style=" stroke:none;fill-rule:nonzero;fill:rgb(0%,0%,0.392157%);fill-opacity:1;" d="M 195.953125 147.738281 L 168.214844 127.585938 L 178.292969 113.714844 "/>
<path style=" stroke:none;fill-rule:nonzero;fill:rgb(0%,0%,0.392157%);fill-opacity:1;" d="M 155.648438 147.738281 L 183.386719 127.585938 L 173.308594 113.714844 "/>
<path style=" stroke:none;fill-rule:nonzero;fill:rgb(0%,0%,0.392157%);fill-opacity:1;" d="M 155.648438 147.738281 L 166.242188 115.128906 L 182.546875 120.425781 "/>
<path style=" stroke:none;fill-rule:nonzero;fill:rgb(0%,0%,0.392157%);fill-opacity:1;" d="M 143.191406 109.40625 L 170.929688 129.558594 L 181.007812 115.6875 "/>
<path style=" stroke:none;fill-rule:nonzero;fill:rgb(0%,0%,0.392157%);fill-opacity:1;" d="M 143.191406 109.40625 L 177.476562 109.40625 L 177.476562 126.546875 "/>
<path style=" stroke:none;fill-rule:nonzero;fill:rgb(0%,0%,0.392157%);fill-opacity:1;" d="M 264.199219 85.714844 L 253.605469 118.320312 L 269.910156 123.621094 "/>
<path style=" stroke:none;fill-rule:nonzero;fill:rgb(0%,0%,0.392157%);fill-opacity:1;" d="M 264.199219 85.714844 L 274.796875 118.320312 L 258.492188 123.621094 "/>
<path style=" stroke:none;fill-rule:nonzero;fill:rgb(0%,0%,0.392157%);fill-opacity:1;" d="M 296.808594 109.40625 L 262.523438 109.40625 L 262.523438 126.546875 "/>
<path style=" stroke:none;fill-rule:nonzero;fill:rgb(0%,0%,0.392157%);fill-opacity:1;" d="M 296.808594 109.40625 L 269.070312 129.558594 L 258.992188 115.6875 "/>
<path style=" stroke:none;fill-rule:nonzero;fill:rgb(0%,0%,0.392157%);fill-opacity:1;" d="M 284.351562 147.738281 L 273.757812 115.128906 L 257.453125 120.425781 "/>
<path style=" stroke:none;fill-rule:nonzero;fill:rgb(0%,0%,0.392157%);fill-opacity:1;" d="M 284.351562 147.738281 L 256.613281 127.585938 L 266.691406 113.714844 "/>
<path style=" stroke:none;fill-rule:nonzero;fill:rgb(0%,0%,0.392157%);fill-opacity:1;" d="M 244.046875 147.738281 L 271.785156 127.585938 L 261.707031 113.714844 "/>
<path style=" stroke:none;fill-rule:nonzero;fill:rgb(0%,0%,0.392157%);fill-opacity:1;" d="M 244.046875 147.738281 L 254.640625 115.128906 L 270.945312 120.425781 "/>
<path style=" stroke:none;fill-rule:nonzero;fill:rgb(0%,0%,0.392157%);fill-opacity:1;" d="M 231.59375 109.40625 L 259.328125 129.558594 L 269.40625 115.6875 "/>
<path style=" stroke:none;fill-rule:nonzero;fill:rgb(0%,0%,0.392157%);fill-opacity:1;" d="M 231.59375 109.40625 L 265.878906 109.40625 L 265.878906 126.546875 "/>
</g>
</svg>
