<?xml version="1.0" encoding="UTF-8"?>
<svg xmlns="http://www.w3.org/2000/svg" xmlns:xlink="http://www.w3.org/1999/xlink" width="px" height="px" viewBox="0 0 320 240" version="1.1">
<g id="surface1">
<rect x="0" y="0" width="320" height="240" style="fill:rgb(24.313726%,36.862746%,72.549021%);fill-opacity:1;stroke:none;"/>
<path style=" stroke:none;fill-rule:nonzero;fill:rgb(100%,85.09804%,0%);fill-opacity:1;" d="M 0 45 L 320 45 L 320 195 L 0 195 Z M 0 45 "/>
<path style=" stroke:none;fill-rule:nonzero;fill:rgb(69.411767%,4.705882%,4.705882%);fill-opacity:1;" d="M 0 60 L 320 60 L 320 180 L 0 180 Z M 0 60 "/>
<path style="fill-rule:nonzero;fill:rgb(100%,100%,100%);fill-opacity:1;stroke-width:1;stroke-linecap:butt;stroke-linejoin:miter;stroke:rgb(0%,0%,0%);stroke-opacity:1;stroke-miterlimit:4;" d="M 492.901023 154.296869 L 468.597638 162.897129 L 492.796856 171.399733 L 517.100241 162.897129 Z M 492.901023 154.296869 " transform="matrix(0.6,0,0,0.6,-21.6,0)"/>
<path style="fill-rule:nonzero;fill:rgb(100%,85.09804%,0%);fill-opacity:1;stroke-width:1;stroke-linecap:butt;stroke-linejoin:miter;stroke:rgb(0%,0%,0%);stroke-opacity:1;stroke-miterlimit:4;" d="M 125.902339 159.999994 L 476.800763 159.999994 C 478.513002 159.999994 479.899721 161.276035 479.899721 162.851556 C 479.899721 164.427077 478.513002 165.703118 476.800763 165.703118 L 125.902339 165.703118 C 124.1901 165.703118 122.796871 164.427077 122.796871 162.851556 C 122.796871 161.276035 124.1901 159.999994 125.902339 159.999994 Z M 125.902339 159.999994 " transform="matrix(0.6,0,0,0.6,-21.6,0)"/>
<path style="fill-rule:nonzero;fill:rgb(100%,85.09804%,0%);fill-opacity:1;stroke-width:1;stroke-linecap:butt;stroke-linejoin:miter;stroke:rgb(0%,0%,0%);stroke-opacity:1;stroke-miterlimit:4;" d="M 471.397117 165.703118 C 472.940086 165.651035 474.196596 164.440098 474.300763 162.897129 C 474.24868 161.321608 472.979149 160.052077 471.397117 159.999994 M 468.597638 165.703118 C 470.101544 165.605462 471.299461 164.401035 471.397117 162.897129 C 471.351544 161.35416 470.140607 160.10416 468.597638 159.999994 M 465.700503 165.703118 C 467.243472 165.651035 468.499982 164.440098 468.597638 162.897129 C 468.545555 161.321608 467.282534 160.052077 465.700503 159.999994 " transform="matrix(0.6,0,0,0.6,-21.6,0)"/>
<path style="fill-rule:nonzero;fill:rgb(100%,100%,100%);fill-opacity:1;stroke-width:1;stroke-linecap:butt;stroke-linejoin:miter;stroke:rgb(0%,0%,0%);stroke-opacity:1;stroke-miterlimit:4;" d="M 492.900242 154.299732 L 468.596857 162.899992 L 492.802585 171.402596 L 517.099459 162.899992 Z M 492.900242 154.299732 " transform="matrix(0.6,0,0,0.6,-35.58,10.260001)"/>
<path style="fill-rule:nonzero;fill:rgb(100%,85.09804%,0%);fill-opacity:1;stroke-width:1;stroke-linecap:butt;stroke-linejoin:miter;stroke:rgb(0%,0%,0%);stroke-opacity:1;stroke-miterlimit:4;" d="M 125.901558 160.002857 L 476.799982 160.002857 C 478.512221 160.002857 479.89894 161.278899 479.89894 162.847909 C 479.89894 164.42343 478.512221 165.699472 476.799982 165.699472 L 125.901558 165.699472 C 124.189319 165.699472 122.8026 164.42343 122.8026 162.847909 C 122.8026 161.278899 124.189319 160.002857 125.901558 160.002857 Z M 125.901558 160.002857 " transform="matrix(0.6,0,0,0.6,-35.58,10.260001)"/>
<path style="fill-rule:nonzero;fill:rgb(100%,85.09804%,0%);fill-opacity:1;stroke-width:1;stroke-linecap:butt;stroke-linejoin:miter;stroke:rgb(0%,0%,0%);stroke-opacity:1;stroke-miterlimit:4;" d="M 471.402847 165.699472 C 472.945815 165.653899 474.195815 164.442961 474.299982 162.899992 C 474.247899 161.317961 472.978367 160.05494 471.402847 160.002857 M 468.596857 165.699472 C 470.107274 165.601815 471.30519 164.403899 471.402847 162.899992 C 471.350763 161.357024 470.139826 160.100513 468.596857 160.002857 M 465.699722 165.699472 C 467.242691 165.653899 468.499201 164.442961 468.596857 162.899992 C 468.551284 161.317961 467.281753 160.05494 465.699722 160.002857 " transform="matrix(0.6,0,0,0.6,-35.58,10.260001)"/>
<path style="fill-rule:nonzero;fill:rgb(100%,85.09804%,0%);fill-opacity:1;stroke-width:1.1;stroke-linecap:butt;stroke-linejoin:miter;stroke:rgb(0%,0%,0%);stroke-opacity:1;stroke-miterlimit:4;" d="M 64.0013 195.703117 L 541.299458 195.703117 C 543.617167 195.703117 545.498677 197.62369 545.498677 199.999992 C 545.498677 202.376294 543.617167 204.296867 541.299458 204.296867 L 64.0013 204.296867 C 61.683592 204.296867 59.802082 202.376294 59.802082 199.999992 C 59.802082 197.62369 61.683592 195.703117 64.0013 195.703117 Z M 64.0013 195.703117 " transform="matrix(0.6,0,0,0.6,-21.6,0)"/>
<path style="fill-rule:nonzero;fill:rgb(100%,100%,100%);fill-opacity:1;stroke-width:1.2;stroke-linecap:butt;stroke-linejoin:miter;stroke:rgb(0%,0%,0%);stroke-opacity:1;stroke-miterlimit:4;" d="M 488.203125 240 C 453.898438 274.296875 408.203125 342.898438 316.796875 342.898438 C 236.796875 342.898438 179.703125 274.296875 145.398438 240 C 179.601562 205.703125 236.796875 137.101562 316.796875 137.101562 C 408.203125 137.101562 453.898438 205.703125 488.203125 240 Z M 488.203125 240 " transform="matrix(0.5,0,0,0.5,0,0)"/>
<path style=" stroke:none;fill-rule:nonzero;fill:rgb(0%,0%,0%);fill-opacity:1;" d="M 152.398438 86.5 C 157 91.601562 153.148438 93.648438 158 94 C 163.101562 94.351562 160.199219 99.398438 164.5 99.601562 C 167.5 99.699219 164.199219 111.699219 167.050781 115.601562 C 170 119.75 172.449219 116.851562 172.550781 119.800781 C 172.550781 122.898438 164.550781 122.550781 164.398438 132.050781 C 164.148438 137.5 157.601562 137.851562 157.300781 141.351562 C 156.898438 144.648438 170.199219 146.5 170 149.449219 C 169.851562 152.449219 155.648438 151.949219 155 155.300781 C 154.699219 158.300781 174.5 160.800781 176.101562 169.550781 C 173.101562 170.550781 164.75 171.398438 158.398438 171.449219 C 118.398438 171.449219 89.851562 137.148438 72.699219 119.949219 C 89.851562 102.851562 118.398438 68.550781 158.398438 68.550781 C 158.398438 68.550781 146.550781 79.398438 152.398438 86.449219 Z M 152.398438 86.5 "/>
<path style="fill-rule:nonzero;fill:rgb(0%,0%,0%);fill-opacity:1;stroke-width:6.9;stroke-linecap:butt;stroke-linejoin:miter;stroke:rgb(100%,100%,100%);stroke-opacity:1;stroke-miterlimit:4;" d="M 214.001294 192.402336 L 214.001294 169.498691 M 227.796867 169.498691 L 227.796867 192.402336 M 241.598949 169.498691 L 241.598949 192.402336 " transform="matrix(0.6,0,0,0.6,-21.6,0)"/>
<path style="fill-rule:nonzero;fill:rgb(0%,0%,0%);fill-opacity:1;stroke-width:6.9;stroke-linecap:butt;stroke-linejoin:miter;stroke:rgb(100%,100%,100%);stroke-opacity:1;stroke-miterlimit:4;" d="M 214.001294 192.401294 L 214.001294 169.49765 M 227.796867 169.49765 L 227.796867 192.401294 M 241.598949 169.49765 L 241.598949 192.401294 " transform="matrix(0.6,0,0,0.6,-21.6,22.86)"/>
<path style="fill-rule:nonzero;fill:rgb(0%,0%,0%);fill-opacity:1;stroke-width:6.9;stroke-linecap:butt;stroke-linejoin:miter;stroke:rgb(100%,100%,100%);stroke-opacity:1;stroke-miterlimit:4;" d="M 214.002857 192.402336 L 214.002857 169.498691 M 227.798429 169.498691 L 227.798429 192.402336 M 241.600512 169.498691 L 241.600512 192.402336 " transform="matrix(0.6,0,0,0.6,3.36,0)"/>
<path style="fill-rule:nonzero;fill:rgb(0%,0%,0%);fill-opacity:1;stroke-width:6.9;stroke-linecap:butt;stroke-linejoin:miter;stroke:rgb(100%,100%,100%);stroke-opacity:1;stroke-miterlimit:4;" d="M 214.002857 192.401294 L 214.002857 169.49765 M 227.798429 169.49765 L 227.798429 192.401294 M 241.600512 169.49765 L 241.600512 192.401294 " transform="matrix(0.6,0,0,0.6,3.36,22.86)"/>
<path style="fill-rule:nonzero;fill:rgb(0%,0%,0%);fill-opacity:1;stroke-width:6.9;stroke-linecap:butt;stroke-linejoin:miter;stroke:rgb(0%,0%,0%);stroke-opacity:1;stroke-miterlimit:4;" d="M 213.999464 192.402336 L 213.999464 169.498691 M 227.801547 169.498691 L 227.801547 192.402336 M 241.597119 169.498691 L 241.597119 192.402336 " transform="matrix(0.6,0,0,0.6,41.280004,0)"/>
<path style="fill-rule:nonzero;fill:rgb(0%,0%,0%);fill-opacity:1;stroke-width:6.9;stroke-linecap:butt;stroke-linejoin:miter;stroke:rgb(0%,0%,0%);stroke-opacity:1;stroke-miterlimit:4;" d="M 213.999464 192.401294 L 213.999464 169.49765 M 227.801547 169.49765 L 227.801547 192.401294 M 241.597119 169.49765 L 241.597119 192.401294 " transform="matrix(0.6,0,0,0.6,41.280004,22.86)"/>
<path style="fill-rule:nonzero;fill:rgb(0%,0%,0%);fill-opacity:1;stroke-width:6.9;stroke-linecap:butt;stroke-linejoin:miter;stroke:rgb(0%,0%,0%);stroke-opacity:1;stroke-miterlimit:4;" d="M 214.001026 192.402336 L 214.001026 169.498691 M 227.803109 169.498691 L 227.803109 192.402336 M 241.598682 169.498691 L 241.598682 192.402336 " transform="matrix(0.6,0,0,0.6,66.240004,0)"/>
<path style="fill-rule:nonzero;fill:rgb(0%,0%,0%);fill-opacity:1;stroke-width:6.9;stroke-linecap:butt;stroke-linejoin:miter;stroke:rgb(0%,0%,0%);stroke-opacity:1;stroke-miterlimit:4;" d="M 214.001026 192.401294 L 214.001026 169.49765 M 227.803109 169.49765 L 227.803109 192.401294 M 241.598682 169.49765 L 241.598682 192.401294 " transform="matrix(0.6,0,0,0.6,66.240004,22.86)"/>
<path style="fill-rule:nonzero;fill:rgb(20%,20%,20%);fill-opacity:1;stroke-width:1;stroke-linecap:butt;stroke-linejoin:miter;stroke:rgb(0%,0%,0%);stroke-opacity:1;stroke-miterlimit:4;" d="M 570.398438 236 C 565.203125 244.898438 574.398438 233 596.796875 248 C 601.367188 251.835938 604.179688 257.351562 604.601562 263.296875 C 603.601562 262.601562 602.703125 261 601.601562 260.101562 C 600 261.703125 603.203125 269.101562 603.601562 272.601562 C 600.101562 270.601562 600.398438 269.796875 599.296875 267.398438 C 599.5 270.203125 598.601562 278.203125 600.101562 281.398438 C 597.296875 280.601562 597.5 278.398438 596.101562 277.898438 C 597.101562 281.398438 595.203125 285.101562 595.703125 289.101562 C 594.101562 287.5 592.296875 286.203125 591.601562 285.601562 C 591.398438 287.601562 588.5 292.398438 588.398438 294.203125 C 587.382812 293.484375 586.671875 292.414062 586.398438 291.203125 C 583.226562 294.984375 580.539062 299.148438 578.398438 303.601562 C 573.703125 299.601562 561.796875 289.601562 560.203125 284.203125 C 558.796875 287.203125 556.796875 288.203125 553 290.398438 C 551.398438 282 545.5 272.601562 548.601562 265.296875 L 542.5 269.5 C 546.179688 254.59375 556.5 242.210938 570.5 235.898438 Z M 570.398438 236 " transform="matrix(0.5,0,0,0.5,0,0)"/>
<path style=" stroke:none;fill-rule:nonzero;fill:rgb(70.19608%,70.19608%,70.19608%);fill-opacity:1;" d="M 275.5 140.25 C 276.601562 138.101562 277.601562 137.398438 278.300781 136 C 279.5 133.601562 279.699219 131.601562 280.800781 131.898438 C 281.800781 132.199219 281.800781 133.199219 280.449219 135.601562 C 279.101562 138 278.449219 138.5 275.5 140.25 M 282.800781 145.351562 C 282.699219 143.75 283.148438 143.050781 283.101562 142 C 282.898438 140.101562 282.148438 138.851562 283.148438 138.75 C 284.148438 138.699219 284.601562 139.300781 284.601562 141.148438 C 284.601562 143.050781 284.300781 143.550781 282.800781 145.351562 M 288.351562 148.550781 C 287.898438 146.300781 288.25 145.300781 287.949219 143.800781 C 287.449219 141.199219 286.5 139.5 287.449219 139.25 C 288.398438 139 288.949219 139.851562 289.300781 142.5 C 289.601562 145.101562 289.449219 145.851562 288.351562 148.601562 Z M 294.101562 132.550781 C 292.75 131.550781 291.949219 131.449219 291.101562 130.800781 C 289.601562 129.601562 288.800781 128.398438 288.300781 129 C 287.800781 129.601562 288.148438 130.300781 289.800781 131.351562 C 291.449219 132.398438 291.898438 132.5 294.101562 132.550781 M 293.148438 140.148438 C 292.449219 138.648438 291.648438 138.300781 291.25 137.351562 C 290.449219 135.648438 290.449219 134.199219 289.5 134.550781 C 288.648438 134.949219 288.550781 135.699219 289.5 137.351562 C 290.5 138.949219 291 139.25 293.101562 140.148438 Z M 293.148438 140.148438 "/>
<path style="fill-rule:nonzero;fill:rgb(20%,20%,20%);fill-opacity:1;stroke-width:1.3;stroke-linecap:butt;stroke-linejoin:miter;stroke:rgb(0%,0%,0%);stroke-opacity:1;stroke-miterlimit:4;" d="M 53.796875 244.601562 C 53.398438 242 54 241.601562 52.398438 239.601562 C 54.796875 240.601562 54.796875 243.296875 57.703125 241.398438 C 58.703125 240.898438 59.203125 240.898438 57.898438 237.898438 C 60.898438 238.101562 70.601562 241.398438 72.203125 241.5 C 76.296875 241.703125 83.796875 237.203125 89 242.703125 C 94 247.703125 92.203125 253 92.203125 259.898438 C 90.203125 258.898438 91.203125 258.601562 89 256 C 90.601562 262.203125 89 273.101562 89 279.601562 C 88.203125 278 88.296875 278.703125 87.5 277.101562 C 85.5 283 82.898438 284.101562 82.898438 291.203125 C 82.101562 288.398438 82.898438 289 82 287.601562 C 80 292.101562 66 295.898438 71.398438 300.398438 C 66.601562 297.601562 64.398438 297.796875 62.398438 295.398438 C 61.398438 296 60.53125 297.070312 59.796875 298.601562 C 51.296875 294.796875 54.296875 286.398438 47.703125 280.703125 C 46.5 283.101562 47 282.796875 45.703125 286.601562 C 44.5 281.296875 44.101562 277.898438 42.601562 274 C 41.296875 276.203125 41.398438 275.296875 39 278.601562 C 38 272.203125 36.5 270.601562 37 266.296875 C 34.601562 268.101562 36.203125 267.296875 33.703125 269.5 C 36.101562 253 46.296875 240.703125 53.703125 244.5 Z M 53.796875 244.601562 " transform="matrix(0.5,0,0,0.5,0,0)"/>
<path style=" stroke:none;fill-rule:nonzero;fill:rgb(70.19608%,70.19608%,70.19608%);fill-opacity:1;" d="M 21.699219 135.851562 C 22.75 133.148438 23.699219 132.351562 24.449219 130.648438 C 25.699219 127.601562 25.898438 125.148438 26.949219 125.5 C 27.949219 125.898438 27.949219 127.101562 26.550781 130.101562 C 25.148438 133.101562 24.550781 133.699219 21.699219 135.851562 M 25.800781 142.5 C 26.199219 140.101562 26.898438 139.300781 27.199219 137.699219 C 27.699219 135 27.449219 133 28.398438 133.101562 C 29.398438 133.199219 29.601562 134.25 28.949219 136.898438 C 28.300781 139.648438 27.851562 140.300781 25.75 142.5 Z M 30.699219 147.199219 C 30.851562 144.898438 31.398438 143.949219 31.5 142.449219 C 31.648438 139.851562 31.101562 137.949219 32 137.949219 C 33 137.949219 33.300781 138.898438 33 141.5 C 32.699219 144.101562 32.398438 144.800781 30.699219 147.199219 M 41.300781 132 C 39.300781 130 38.101562 129.601562 36.800781 128.300781 C 34.5 126 33.351562 123.898438 32.5 124.648438 C 31.648438 125.398438 32.199219 126.5 34.648438 128.648438 C 37.050781 130.898438 37.898438 131.199219 41.351562 132 Z M 40.101562 139.800781 C 38.800781 137.800781 37.800781 137.25 36.949219 135.898438 C 35.449219 133.648438 34.949219 131.699219 34.101562 132.148438 C 33.25 132.601562 33.449219 133.648438 35.050781 135.898438 C 36.648438 138.148438 37.300781 138.5 40.101562 139.800781 "/>
<path style="fill-rule:nonzero;fill:rgb(20%,20%,20%);fill-opacity:1;stroke-width:1;stroke-linecap:butt;stroke-linejoin:miter;stroke:rgb(0%,0%,0%);stroke-opacity:1;stroke-miterlimit:4;" d="M 261.398438 155.398438 C 256.601562 164.601562 269.703125 152.398438 290.203125 167.796875 C 295.203125 173.117188 298.421875 179.867188 299.398438 187.101562 C 295.226562 185.765625 291.203125 183.984375 287.398438 181.796875 C 287.398438 181.796875 296.398438 191 296.398438 201.398438 C 293.203125 199.398438 291.601562 199.703125 290.398438 197.296875 C 290.398438 200.601562 293.398438 202.796875 293.398438 208 C 291.429688 206.414062 289.320312 205.007812 287.101562 203.796875 C 290.101562 209.101562 281.601562 219.296875 285.898438 222.601562 C 278.617188 221.554688 272.085938 217.578125 267.796875 211.601562 C 266.203125 212.601562 266 214.296875 265.898438 216.203125 C 266.203125 216.296875 254.601562 207.5 255.703125 204.203125 C 254.367188 205.851562 253.601562 207.882812 253.5 210 C 249.125 206.335938 245.8125 201.570312 243.898438 196.203125 C 242.101562 198.601562 241.898438 198.601562 240 201.203125 C 238.601562 192.5 238.601562 192.796875 241.398438 185.398438 L 235.796875 189.703125 C 238.757812 175.007812 248.15625 162.421875 261.398438 155.398438 Z M 261.398438 155.398438 " transform="matrix(0.5,0,0,0.5,0,0)"/>
<path style=" stroke:none;fill-rule:nonzero;fill:rgb(70.19608%,70.19608%,70.19608%);fill-opacity:1;" d="M 124.800781 100.101562 C 125.199219 96.949219 126 95.800781 126.300781 93.699219 C 126.699219 90.199219 126.199219 87.5 127.5 87.601562 C 128.699219 87.699219 129.101562 89 128.5 92.601562 C 127.851562 96.148438 127.300781 97 124.851562 100.148438 Z M 131.449219 105.898438 C 131.199219 103.300781 131.699219 102.101562 131.5 100.398438 C 131.25 97.398438 130.300781 95.300781 131.398438 95.148438 C 132.5 95 133.101562 95.949219 133.199219 99.050781 C 133.300781 102.050781 133.050781 102.898438 131.449219 105.898438 M 141.851562 110.699219 C 140.699219 108.351562 139.699219 107.699219 139 106.199219 C 137.699219 103.550781 137.398438 101.449219 136.449219 101.800781 C 135.449219 102.199219 135.5 103.300781 136.949219 105.898438 C 138.351562 108.398438 139 108.949219 141.800781 110.699219 Z M 145.398438 89.949219 C 142.5 88.449219 141.050781 88.449219 139.199219 87.449219 C 135.949219 85.75 134.050781 83.898438 133.398438 84.949219 C 132.699219 85.949219 133.601562 87 136.949219 88.550781 C 140.300781 90.101562 141.351562 90.148438 145.351562 89.949219 Z M 146.398438 98.601562 C 144.398438 96.898438 143.101562 96.601562 141.75 95.5 C 139.351562 93.5 138.199219 91.648438 137.449219 92.398438 C 136.648438 93.199219 137.148438 94.199219 139.648438 96.050781 C 142.148438 97.898438 143 98.101562 146.449219 98.601562 Z M 146.398438 98.601562 "/>
</g>
</svg>
