<?xml version="1.0" encoding="UTF-8"?>
<svg xmlns="http://www.w3.org/2000/svg" xmlns:xlink="http://www.w3.org/1999/xlink" width="px" height="px" viewBox="0 0 320 240" version="1.1">
<g id="surface1">
<rect x="0" y="0" width="320" height="240" style="fill:rgb(0%,13.725491%,58.431375%);fill-opacity:1;stroke:none;"/>
<path style=" stroke:none;fill-rule:nonzero;fill:rgb(100%,100%,100%);fill-opacity:1;" d="M 0 0 L 146.398438 0 L 146.398438 98.398438 L 0 98.398438 Z M 0 0 "/>
<path style=" stroke:none;fill-rule:nonzero;fill:rgb(0%,13.725491%,58.431375%);fill-opacity:1;" d="M 0 0 L 48 0 L 48 96 L 0 96 Z M 0 0 "/>
<path style=" stroke:none;fill-rule:nonzero;fill:rgb(92.941177%,16.078432%,22.352941%);fill-opacity:1;" d="M 96 0 L 144 0 L 144 96 L 96 96 Z M 96 0 "/>
<path style=" stroke:none;fill-rule:nonzero;fill:rgb(100%,100%,100%);fill-opacity:1;" d="M 213 109.800781 L 220.699219 122.101562 L 242.699219 122.101562 L 242.699219 165 L 226.199219 139.199219 L 204 174.601562 L 214.800781 174.601562 L 226.199219 154.199219 L 249.601562 196.199219 L 273 154.199219 L 284.398438 174.601562 L 295.199219 174.601562 L 273 139.199219 L 256.5 165 L 256.5 141.300781 L 266.398438 141.300781 L 273.75 129.601562 L 256.5 129.601562 L 256.5 122.101562 L 278.5 122.101562 L 286.199219 109.800781 Z M 238.800781 162.300781 L 214.800781 162.300781 L 214.800781 170.699219 L 238.800781 170.699219 Z M 284.398438 162.300781 L 260.398438 162.300781 L 260.398438 170.699219 L 284.398438 170.699219 Z M 284.398438 162.300781 "/>
<path style=" stroke:none;fill-rule:nonzero;fill:rgb(100%,100%,100%);fill-opacity:1;" d="M 249.601562 204.601562 L 256.980469 227.398438 L 237.601562 213.300781 L 261.601562 213.300781 L 242.21875 227.398438 Z M 249.601562 204.601562 "/>
<path style=" stroke:none;fill-rule:nonzero;fill:rgb(100%,100%,100%);fill-opacity:1;" d="M 222.601562 184.199219 L 229.980469 207 L 210.601562 192.898438 L 234.601562 192.898438 L 215.21875 207 Z M 222.601562 184.199219 "/>
<path style=" stroke:none;fill-rule:nonzero;fill:rgb(100%,100%,100%);fill-opacity:1;" d="M 276.601562 184.199219 L 283.980469 207 L 264.601562 192.898438 L 288.601562 192.898438 L 269.21875 207 Z M 276.601562 184.199219 "/>
<path style=" stroke:none;fill-rule:nonzero;fill:rgb(100%,100%,100%);fill-opacity:1;" d="M 199.800781 123.601562 L 207.179688 146.398438 L 187.800781 132.300781 L 211.800781 132.300781 L 192.421875 146.398438 Z M 199.800781 123.601562 "/>
<path style=" stroke:none;fill-rule:nonzero;fill:rgb(100%,100%,100%);fill-opacity:1;" d="M 299.398438 123.601562 L 306.78125 146.398438 L 287.398438 132.300781 L 311.398438 132.300781 L 292.019531 146.398438 Z M 299.398438 123.601562 "/>
</g>
</svg>
