<?xml version="1.0" encoding="UTF-8"?>
<svg xmlns="http://www.w3.org/2000/svg" xmlns:xlink="http://www.w3.org/1999/xlink" width="px" height="px" viewBox="0 0 320 240" version="1.1">
<g id="surface1">
<rect x="0" y="0" width="320" height="240" style="fill:rgb(0%,14.117648%,49.019608%);fill-opacity:1;stroke:none;"/>
<path style=" stroke:none;fill-rule:nonzero;fill:rgb(99.607843%,81.960785%,0%);fill-opacity:1;" d="M 54.050781 177.300781 C 50.699219 177.25 85.449219 158.800781 114.5 135.101562 C 152.601562 104.050781 234.648438 54.398438 258.800781 46.300781 C 261.300781 45.449219 253.648438 50.601562 252.648438 52.25 C 226.898438 82.75 247.449219 140.25 279.648438 169.199219 C 289.351562 176.601562 288.851562 177 306.800781 177.699219 L 306.800781 179.398438 Z M 51.949219 180.648438 C 51.949219 180.648438 49.5 182.398438 49.5 183.699219 C 49.5 185.148438 52.25 187.050781 52.25 187.050781 L 301.5 189.800781 L 306.101562 186.75 L 299.699219 182.800781 Z M 51.949219 180.648438 "/>
<path style=" stroke:none;fill-rule:nonzero;fill:rgb(100%,100%,100%);fill-opacity:1;" d="M 53.398438 54.550781 L 51.398438 60.648438 L 56.601562 56.898438 L 61.75 60.648438 L 59.800781 54.550781 L 64.949219 50.800781 L 58.550781 50.800781 L 56.601562 44.699219 L 54.601562 50.800781 L 48.199219 50.800781 Z M 92.449219 83.25 L 96.75 80.101562 L 91.398438 80.101562 L 89.75 75.050781 L 88.101562 80.101562 L 82.800781 80.101562 L 87.101562 83.25 L 85.449219 88.300781 L 89.75 85.148438 L 94.101562 88.300781 Z M 19.851562 89.75 L 17.851562 83.648438 L 15.898438 89.75 L 9.5 89.75 L 14.648438 93.5 L 12.699219 99.601562 L 17.851562 95.851562 L 23.050781 99.601562 L 21.050781 93.5 L 26.25 89.75 Z M 58.898438 150.898438 L 56.601562 143.800781 L 54.300781 150.898438 L 46.800781 150.898438 L 52.851562 155.25 L 50.550781 162.398438 L 56.601562 158 L 62.648438 162.398438 L 60.300781 155.25 L 66.351562 150.898438 Z M 58.898438 150.898438 "/>
</g>
</svg>
