<?xml version="1.0" encoding="UTF-8"?>
<svg xmlns="http://www.w3.org/2000/svg" xmlns:xlink="http://www.w3.org/1999/xlink" width="px" height="px" viewBox="0 0 320 240" version="1.1">
<g id="surface1">
<rect x="0" y="0" width="320" height="240" style="fill:rgb(89.019608%,3.921569%,9.019608%);fill-opacity:1;stroke:none;"/>
<path style=" stroke:none;fill-rule:evenodd;fill:rgb(100%,100%,100%);fill-opacity:1;" d="M 203.5 123.75 C 203.5 156.851562 176.199219 183.699219 142.5 183.699219 C 108.800781 183.699219 81.5 156.851562 81.5 123.699219 C 81.5 90.550781 108.800781 63.800781 142.5 63.800781 C 176.199219 63.800781 203.5 90.648438 203.5 123.75 "/>
<path style=" stroke:none;fill-rule:evenodd;fill:rgb(89.019608%,3.921569%,9.019608%);fill-opacity:1;" d="M 206.5 123.75 C 206.5 150.25 184.699219 171.699219 157.75 171.699219 C 130.800781 171.699219 108.949219 150.199219 108.949219 123.699219 C 108.949219 97.199219 130.800781 75.800781 157.75 75.800781 C 184.699219 75.800781 206.550781 97.25 206.550781 123.75 Z M 206.5 123.75 "/>
<path style=" stroke:none;fill-rule:evenodd;fill:rgb(100%,100%,100%);fill-opacity:1;" d="M 215.351562 95.75 L 214.851562 117.898438 L 194.199219 123.5 L 214.601562 130.75 L 214.101562 151.101562 L 227.351562 135.199219 L 247.449219 142.199219 L 235.851562 125.148438 L 250 108.199219 L 228.25 114.199219 L 215.351562 95.699219 Z M 215.351562 95.75 "/>
</g>
</svg>
