<?xml version="1.0" encoding="UTF-8"?>
<svg xmlns="http://www.w3.org/2000/svg" xmlns:xlink="http://www.w3.org/1999/xlink" width="px" height="px" viewBox="0 0 320 240" version="1.1">
<g id="surface1">
<rect x="0" y="0" width="320" height="240" style="fill:rgb(100%,100%,100%);fill-opacity:1;stroke:none;"/>
<path style=" stroke:none;fill-rule:nonzero;fill:rgb(0%,21.960784%,65.882355%);fill-opacity:1;" d="M 133 26.648438 L 320 26.648438 L 320 53.351562 L 133 53.351562 Z M 133 80 L 320 80 L 320 106.648438 L 133 106.648438 Z M 0 133.351562 L 320 133.351562 L 320 160 L 0 160 Z M 0 186.648438 L 320 186.648438 L 320 213.351562 L 0 213.351562 Z M 0 186.648438 "/>
<path style="fill-rule:nonzero;fill:rgb(98.823529%,81.960785%,8.627451%);fill-opacity:1;stroke-width:0.6;stroke-linecap:square;stroke-linejoin:miter;stroke:rgb(0%,0%,0%);stroke-opacity:1;stroke-miterlimit:20;" d="M -2.001246 8.899867 L 1.000355 13.400937 C -11.400227 22.400415 -3.900218 27.599284 -12.598737 30.401134 C -7.200116 25.199601 -13.498951 24.69889 -8.899336 13.600689 " transform="matrix(1.466665,0,0,1.466665,66.650002,66.650002)"/>
<path style="fill:none;stroke-width:0.6;stroke-linecap:butt;stroke-linejoin:miter;stroke:rgb(0%,0%,0%);stroke-opacity:1;stroke-miterlimit:20;" d="M -4.201178 10.199584 C -11.000724 21.398993 -6.600861 27.599284 -12.598737 30.499678 " transform="matrix(1.466665,0,0,1.466665,66.650002,66.650002)"/>
<path style="fill-rule:nonzero;fill:rgb(98.823529%,81.960785%,8.627451%);fill-opacity:1;stroke-width:0.6;stroke-linecap:butt;stroke-linejoin:miter;stroke:rgb(0%,0%,0%);stroke-opacity:1;stroke-miterlimit:20;" d="M -0.00106638 -0.00106638 L 5.999473 -0.00106638 L -0.00106638 33.000568 L -5.998942 -0.00106638 L -0.00106638 -0.00106638 L -0.00106638 33.000568 " transform="matrix(1.466665,0,0,1.466665,66.650002,66.650002)"/>
<path style="fill-rule:nonzero;fill:rgb(98.823529%,81.960785%,8.627451%);fill-opacity:1;stroke-width:0.6;stroke-linecap:square;stroke-linejoin:miter;stroke:rgb(0%,0%,0%);stroke-opacity:1;stroke-miterlimit:20;" d="M -1.999665 8.898482 L 1.000395 13.401396 C -11.399098 22.399691 -3.899891 27.601301 -12.600628 30.39985 C -7.201274 25.200124 -13.498951 24.699172 -8.89999 13.59914 " transform="matrix(1.037089,1.037089,-1.037089,1.037089,66.650002,66.650002)"/>
<path style="fill:none;stroke-width:0.6;stroke-linecap:butt;stroke-linejoin:miter;stroke:rgb(0%,0%,0%);stroke-opacity:1;stroke-miterlimit:20;" d="M -4.201215 10.199826 C -10.999843 21.401555 -6.600509 27.601301 -12.598745 30.499664 " transform="matrix(1.037089,1.037089,-1.037089,1.037089,66.650002,66.650002)"/>
<path style="fill-rule:nonzero;fill:rgb(98.823529%,81.960785%,8.627451%);fill-opacity:1;stroke-width:0.6;stroke-linecap:butt;stroke-linejoin:miter;stroke:rgb(0%,0%,0%);stroke-opacity:1;stroke-miterlimit:20;" d="M -0.00150809 0.000000000000000499 L 5.998611 0.000000000000000499 L 0.000375184 33.000655 L -6.001627 0.000000000000000499 L -0.00150809 0.000000000000000499 L 0.000375184 33.000655 " transform="matrix(1.037089,1.037089,-1.037089,1.037089,66.650002,66.650002)"/>
<path style="fill-rule:nonzero;fill:rgb(98.823529%,81.960785%,8.627451%);fill-opacity:1;stroke-width:0.6;stroke-linecap:square;stroke-linejoin:miter;stroke:rgb(0%,0%,0%);stroke-opacity:1;stroke-miterlimit:20;" d="M -2.001246 8.899336 L 1.000355 13.400407 C -11.400227 22.399884 -3.900218 27.598753 -12.598737 30.400603 C -7.200116 25.19907 -13.498951 24.701023 -8.899336 13.600158 " transform="matrix(0.00000000000000009,1.466665,-1.466665,0.00000000000000009,66.650002,66.650002)"/>
<path style="fill:none;stroke-width:0.6;stroke-linecap:butt;stroke-linejoin:miter;stroke:rgb(0%,0%,0%);stroke-opacity:1;stroke-miterlimit:20;" d="M -4.201178 10.199054 C -11.000724 21.401126 -6.600861 27.598753 -12.598737 30.499147 " transform="matrix(0.00000000000000009,1.466665,-1.466665,0.00000000000000009,66.650002,66.650002)"/>
<path style="fill-rule:nonzero;fill:rgb(98.823529%,81.960785%,8.627451%);fill-opacity:1;stroke-width:0.6;stroke-linecap:butt;stroke-linejoin:miter;stroke:rgb(0%,0%,0%);stroke-opacity:1;stroke-miterlimit:20;" d="M -0.00106638 0.00106638 L 5.999473 0.00106638 L -0.00106638 33.000038 L -5.998942 0.00106638 L -0.00106638 0.00106638 L -0.00106638 33.000038 " transform="matrix(0.00000000000000009,1.466665,-1.466665,0.00000000000000009,66.650002,66.650002)"/>
<path style="fill-rule:nonzero;fill:rgb(98.823529%,81.960785%,8.627451%);fill-opacity:1;stroke-width:0.6;stroke-linecap:square;stroke-linejoin:miter;stroke:rgb(0%,0%,0%);stroke-opacity:1;stroke-miterlimit:20;" d="M -1.998156 8.89999 L 1.00002 13.401021 C -11.399473 22.399316 -3.900266 27.600926 -12.601003 30.399475 C -7.199766 25.201632 -13.499326 24.698797 -8.900365 13.598765 " transform="matrix(-1.037089,1.037089,-1.037089,-1.037089,66.650002,66.650002)"/>
<path style="fill:none;stroke-width:0.6;stroke-linecap:butt;stroke-linejoin:miter;stroke:rgb(0%,0%,0%);stroke-opacity:1;stroke-miterlimit:20;" d="M -4.199707 10.201334 C -11.000218 21.40118 -6.600884 27.600926 -12.59912 30.499289 " transform="matrix(-1.037089,1.037089,-1.037089,-1.037089,66.650002,66.650002)"/>
<path style="fill-rule:nonzero;fill:rgb(98.823529%,81.960785%,8.627451%);fill-opacity:1;stroke-width:0.6;stroke-linecap:butt;stroke-linejoin:miter;stroke:rgb(0%,0%,0%);stroke-opacity:1;stroke-miterlimit:20;" d="M 0.000000000000000499 0.00150809 L 6.000119 0.00150809 L -0.000000000000003054 33.00028 L -6.000119 0.00150809 L 0.000000000000000499 0.00150809 L -0.000000000000003054 33.00028 " transform="matrix(-1.037089,1.037089,-1.037089,-1.037089,66.650002,66.650002)"/>
<path style="fill-rule:nonzero;fill:rgb(98.823529%,81.960785%,8.627451%);fill-opacity:1;stroke-width:0.6;stroke-linecap:square;stroke-linejoin:miter;stroke:rgb(0%,0%,0%);stroke-opacity:1;stroke-miterlimit:20;" d="M -1.999113 8.899336 L 0.999825 13.400407 C -11.400757 22.399884 -3.900749 27.598753 -12.599267 30.400603 C -7.200646 25.19907 -13.499481 24.701023 -8.899867 13.600158 " transform="matrix(-1.466665,0,0,-1.466665,66.650002,66.650002)"/>
<path style="fill:none;stroke-width:0.6;stroke-linecap:butt;stroke-linejoin:miter;stroke:rgb(0%,0%,0%);stroke-opacity:1;stroke-miterlimit:20;" d="M -4.199045 10.199054 C -11.001254 21.401126 -6.598728 27.598753 -12.599267 30.499147 " transform="matrix(-1.466665,0,0,-1.466665,66.650002,66.650002)"/>
<path style="fill-rule:nonzero;fill:rgb(98.823529%,81.960785%,8.627451%);fill-opacity:1;stroke-width:0.6;stroke-linecap:butt;stroke-linejoin:miter;stroke:rgb(0%,0%,0%);stroke-opacity:1;stroke-miterlimit:20;" d="M 0.00106638 0.00106638 L 5.998942 0.00106638 L 0.00106638 33.000038 L -5.999473 0.00106638 L 0.00106638 0.00106638 L 0.00106638 33.000038 " transform="matrix(-1.466665,0,0,-1.466665,66.650002,66.650002)"/>
<path style="fill-rule:nonzero;fill:rgb(98.823529%,81.960785%,8.627451%);fill-opacity:1;stroke-width:0.6;stroke-linecap:square;stroke-linejoin:miter;stroke:rgb(0%,0%,0%);stroke-opacity:1;stroke-miterlimit:20;" d="M -1.998532 8.900365 L 0.999645 13.401396 C -11.399848 22.399691 -3.898758 27.599418 -12.601379 30.39985 C -7.198258 25.200124 -13.499702 24.699172 -8.90074 13.59914 " transform="matrix(-1.037089,-1.037089,1.037089,-1.037089,66.650002,66.650002)"/>
<path style="fill:none;stroke-width:0.6;stroke-linecap:butt;stroke-linejoin:miter;stroke:rgb(0%,0%,0%);stroke-opacity:1;stroke-miterlimit:20;" d="M -4.200082 10.201709 C -10.99871 21.399671 -6.599376 27.599418 -12.599495 30.499664 " transform="matrix(-1.037089,-1.037089,1.037089,-1.037089,66.650002,66.650002)"/>
<path style="fill-rule:nonzero;fill:rgb(98.823529%,81.960785%,8.627451%);fill-opacity:1;stroke-width:0.6;stroke-linecap:butt;stroke-linejoin:miter;stroke:rgb(0%,0%,0%);stroke-opacity:1;stroke-miterlimit:20;" d="M 0.00150809 -0.000000000000000499 L 6.001627 -0.000000000000000499 L -0.000375184 33.000655 L -5.998611 -0.000000000000000499 L 0.00150809 -0.000000000000000499 L -0.000375184 33.000655 " transform="matrix(-1.037089,-1.037089,1.037089,-1.037089,66.650002,66.650002)"/>
<path style="fill-rule:nonzero;fill:rgb(98.823529%,81.960785%,8.627451%);fill-opacity:1;stroke-width:0.6;stroke-linecap:square;stroke-linejoin:miter;stroke:rgb(0%,0%,0%);stroke-opacity:1;stroke-miterlimit:20;" d="M -1.999113 8.899867 L 0.999825 13.400937 C -11.400757 22.400415 -3.900749 27.599284 -12.599267 30.401134 C -7.200646 25.199601 -13.499481 24.69889 -8.899867 13.600689 " transform="matrix(-0.00000000000000009,-1.466665,1.466665,-0.00000000000000009,66.650002,66.650002)"/>
<path style="fill:none;stroke-width:0.6;stroke-linecap:butt;stroke-linejoin:miter;stroke:rgb(0%,0%,0%);stroke-opacity:1;stroke-miterlimit:20;" d="M -4.199045 10.199584 C -11.001254 21.398993 -6.598728 27.599284 -12.599267 30.499678 " transform="matrix(-0.00000000000000009,-1.466665,1.466665,-0.00000000000000009,66.650002,66.650002)"/>
<path style="fill-rule:nonzero;fill:rgb(98.823529%,81.960785%,8.627451%);fill-opacity:1;stroke-width:0.6;stroke-linecap:butt;stroke-linejoin:miter;stroke:rgb(0%,0%,0%);stroke-opacity:1;stroke-miterlimit:20;" d="M 0.00106638 -0.00106638 L 5.998942 -0.00106638 L 0.00106638 33.000568 L -5.999473 -0.00106638 L 0.00106638 -0.00106638 L 0.00106638 33.000568 " transform="matrix(-0.00000000000000009,-1.466665,1.466665,-0.00000000000000009,66.650002,66.650002)"/>
<path style="fill-rule:nonzero;fill:rgb(98.823529%,81.960785%,8.627451%);fill-opacity:1;stroke-width:0.6;stroke-linecap:square;stroke-linejoin:miter;stroke:rgb(0%,0%,0%);stroke-opacity:1;stroke-miterlimit:20;" d="M -2.00004 8.898857 L 1.00002 13.401771 C -11.399473 22.400067 -3.898382 27.599793 -12.601003 30.400225 C -7.199766 25.198615 -13.499326 24.699547 -8.900365 13.599515 " transform="matrix(1.037089,-1.037089,1.037089,1.037089,66.650002,66.650002)"/>
<path style="fill:none;stroke-width:0.6;stroke-linecap:butt;stroke-linejoin:miter;stroke:rgb(0%,0%,0%);stroke-opacity:1;stroke-miterlimit:20;" d="M -4.20159 10.200201 C -10.998335 21.400047 -6.599001 27.599793 -12.59912 30.500039 " transform="matrix(1.037089,-1.037089,1.037089,1.037089,66.650002,66.650002)"/>
<path style="fill-rule:nonzero;fill:rgb(98.823529%,81.960785%,8.627451%);fill-opacity:1;stroke-width:0.6;stroke-linecap:butt;stroke-linejoin:miter;stroke:rgb(0%,0%,0%);stroke-opacity:1;stroke-miterlimit:20;" d="M -0.000000000000000499 -0.00150809 L 6.000119 -0.00150809 L -0.000000000000007605 33.00103 L -6.000119 -0.00150809 L -0.000000000000000499 -0.00150809 L -0.000000000000007605 33.00103 " transform="matrix(1.037089,-1.037089,1.037089,1.037089,66.650002,66.650002)"/>
<path style="fill-rule:nonzero;fill:rgb(98.823529%,81.960785%,8.627451%);fill-opacity:1;stroke-width:0.6;stroke-linecap:butt;stroke-linejoin:miter;stroke:rgb(0%,0%,0%);stroke-opacity:1;stroke-miterlimit:20;" d="M 11.001254 -0.00106638 C 11.001254 -6.07618 6.074047 -11.000724 -0.00106638 -11.000724 C -6.07618 -11.000724 -11.000724 -6.07618 -11.000724 -0.00106638 C -11.000724 6.074047 -6.07618 11.001254 -0.00106638 11.001254 C 6.074047 11.001254 11.001254 6.074047 11.001254 -0.00106638 Z M 11.001254 -0.00106638 " transform="matrix(1.466665,0,0,1.466665,66.650002,66.650002)"/>
<path style=" stroke:none;fill-rule:nonzero;fill:rgb(0%,0%,0%);fill-opacity:1;" d="M 78.53125 60.195312 C 77.503906 61.371094 76.917969 59.316406 73.25 59.316406 C 69.582031 59.316406 68.996094 61.515625 68.410156 61.078125 C 67.824219 60.636719 71.488281 57.996094 72.664062 57.851562 C 73.835938 57.703125 77.210938 58.875 78.53125 60.195312 M 74.277344 61.515625 C 75.304688 62.398438 74.421875 64.304688 73.398438 64.304688 C 72.371094 64.304688 70.464844 62.542969 71.34375 61.371094 "/>
<path style=" stroke:none;fill-rule:nonzero;fill:rgb(0%,0%,0%);fill-opacity:1;" d="M 69.4375 62.835938 C 69.582031 61.078125 71.050781 60.785156 73.398438 60.785156 C 75.742188 60.785156 76.769531 62.542969 77.648438 62.984375 C 76.625 62.984375 75.742188 61.515625 73.398438 61.515625 C 71.050781 61.515625 71.050781 61.515625 69.4375 62.984375 M 69.875 63.277344 C 70.464844 62.398438 71.195312 64.15625 72.808594 64.15625 C 74.421875 64.15625 75.304688 63.714844 76.328125 62.984375 C 77.355469 62.25 74.863281 64.742188 73.25 64.742188 C 71.636719 64.742188 69.4375 63.863281 69.875 63.277344 "/>
<path style=" stroke:none;fill-rule:nonzero;fill:rgb(0%,0%,0%);fill-opacity:1;" d="M 74.863281 64.15625 C 76.769531 63.128906 75.597656 61.664062 74.863281 61.371094 C 75.15625 61.664062 76.328125 63.128906 74.863281 64.15625 M 66.648438 72.957031 C 67.53125 72.957031 67.824219 72.664062 68.996094 72.664062 C 70.171875 72.664062 72.957031 74.277344 74.570312 73.691406 C 71.195312 75.011719 72.515625 74.128906 66.648438 74.128906 L 65.917969 74.128906 M 75.15625 75.011719 C 74.570312 73.984375 74.714844 74.277344 73.542969 72.664062 C 74.714844 73.542969 75.011719 73.984375 75.15625 75.011719 M 66.648438 76.476562 C 70.316406 76.476562 69.730469 75.742188 74.570312 73.691406 C 71.050781 74.128906 70.316406 75.304688 66.648438 75.304688 L 65.917969 75.304688 M 66.648438 71.050781 C 67.675781 71.050781 67.96875 70.316406 69.144531 70.316406 C 70.316406 70.316406 71.929688 70.757812 72.664062 71.34375 C 72.808594 71.488281 72.222656 70.171875 71.050781 70.023438 C 69.875 69.875 70.316406 67.96875 68.996094 67.675781 C 68.996094 68.261719 69.4375 68.117188 69.582031 68.996094 C 69.582031 69.730469 68.261719 69.730469 67.96875 68.996094 C 68.261719 70.171875 67.382812 70.171875 66.648438 70.171875 "/>
<path style=" stroke:none;fill-rule:nonzero;fill:rgb(0%,0%,0%);fill-opacity:1;" d="M 54.769531 60.195312 C 55.796875 61.371094 56.382812 59.316406 60.050781 59.316406 C 63.714844 59.316406 64.304688 61.515625 64.890625 61.078125 C 65.476562 60.636719 61.808594 57.996094 60.636719 57.851562 C 59.464844 57.703125 56.089844 58.875 54.769531 60.195312 M 59.023438 61.515625 C 57.996094 62.398438 58.875 64.304688 59.902344 64.304688 C 60.929688 64.304688 62.835938 62.542969 61.957031 61.371094 "/>
<path style=" stroke:none;fill-rule:nonzero;fill:rgb(0%,0%,0%);fill-opacity:1;" d="M 63.863281 62.835938 C 63.714844 61.078125 62.25 60.785156 59.902344 60.785156 C 57.558594 60.785156 56.53125 62.542969 55.648438 62.984375 C 56.675781 62.984375 57.558594 61.515625 59.902344 61.515625 C 62.25 61.515625 62.25 61.515625 63.863281 62.984375 M 63.421875 63.277344 C 62.835938 62.398438 62.101562 64.15625 60.488281 64.15625 C 58.875 64.15625 57.996094 63.714844 56.96875 62.984375 C 55.945312 62.25 58.4375 64.742188 60.050781 64.742188 C 61.664062 64.742188 63.863281 63.863281 63.421875 63.277344 "/>
<path style=" stroke:none;fill-rule:nonzero;fill:rgb(0%,0%,0%);fill-opacity:1;" d="M 58.4375 64.15625 C 56.53125 63.128906 57.703125 61.664062 58.4375 61.371094 C 58.144531 61.664062 56.96875 63.128906 58.4375 64.15625 M 66.648438 72.957031 C 65.769531 72.957031 65.476562 72.664062 64.304688 72.664062 C 63.128906 72.664062 60.34375 74.277344 58.730469 73.691406 C 62.101562 75.011719 60.785156 74.128906 66.648438 74.128906 L 67.382812 74.128906 M 58.144531 75.011719 C 58.730469 73.984375 58.582031 74.277344 59.757812 72.664062 C 58.582031 73.542969 58.289062 73.984375 58.144531 75.011719 M 66.648438 76.476562 C 62.984375 76.476562 63.570312 75.742188 58.730469 73.691406 C 62.25 74.128906 62.984375 75.304688 66.648438 75.304688 L 67.382812 75.304688 M 66.648438 71.050781 C 65.625 71.050781 65.328125 70.316406 64.15625 70.316406 C 62.984375 70.316406 61.371094 70.757812 60.636719 71.34375 C 60.488281 71.488281 61.078125 70.171875 62.25 70.023438 C 63.421875 69.875 62.984375 67.96875 64.304688 67.675781 C 64.304688 68.261719 63.863281 68.117188 63.714844 68.996094 C 63.714844 69.730469 65.035156 69.730469 65.328125 68.996094 C 65.035156 70.171875 65.917969 70.171875 66.648438 70.171875 "/>
<path style=" stroke:none;fill-rule:nonzero;fill:rgb(0%,0%,0%);fill-opacity:1;" d="M 66.648438 77.796875 C 65.917969 77.796875 64.011719 78.238281 66.648438 78.238281 C 69.289062 78.238281 67.382812 77.796875 66.648438 77.796875 "/>
</g>
</svg>
