<?xml version="1.0" encoding="UTF-8"?>
<svg xmlns="http://www.w3.org/2000/svg" xmlns:xlink="http://www.w3.org/1999/xlink" width="px" height="px" viewBox="0 0 320 240" version="1.1">
<g id="surface1">
<path style=" stroke:none;fill-rule:nonzero;fill:rgb(11.764706%,70.980394%,22.745098%);fill-opacity:1;" d="M 0 160 L 320 160 L 320 240 L 0 240 Z M 0 160 "/>
<path style=" stroke:none;fill-rule:nonzero;fill:rgb(0%,60.000002%,70.980394%);fill-opacity:1;" d="M 0 0 L 320 0 L 320 80 L 0 80 Z M 0 0 "/>
<path style=" stroke:none;fill-rule:nonzero;fill:rgb(80.784315%,6.666667%,14.901961%);fill-opacity:1;" d="M 0 76.800781 L 320 76.800781 L 320 163.199219 L 0 163.199219 Z M 0 76.800781 "/>
<path style=" stroke:none;fill-rule:nonzero;fill:rgb(100%,100%,100%);fill-opacity:1;" d="M 0 81.601562 L 320 81.601562 L 320 158.398438 L 0 158.398438 Z M 0 81.601562 "/>
<path style=" stroke:none;fill-rule:nonzero;fill:rgb(100%,100%,100%);fill-opacity:1;" d="M 96 38.398438 C 96 22.496094 83.105469 9.601562 67.199219 9.601562 C 51.292969 9.601562 38.398438 22.496094 38.398438 38.398438 C 38.398438 54.304688 51.292969 67.199219 67.199219 67.199219 C 83.105469 67.199219 96 54.304688 96 38.398438 Z M 96 38.398438 "/>
<path style=" stroke:none;fill-rule:nonzero;fill:rgb(0%,60.000002%,70.980394%);fill-opacity:1;" d="M 105.601562 38.398438 C 105.601562 22.496094 92.707031 9.601562 76.800781 9.601562 C 60.894531 9.601562 48 22.496094 48 38.398438 C 48 54.304688 60.894531 67.199219 76.800781 67.199219 C 92.707031 67.199219 105.601562 54.304688 105.601562 38.398438 Z M 105.601562 38.398438 "/>
<path style=" stroke:none;fill-rule:nonzero;fill:rgb(100%,100%,100%);fill-opacity:1;" d="M 130.550781 55.691406 L 128.726562 61.160156 L 131.511719 62.121094 "/>
<path style=" stroke:none;fill-rule:nonzero;fill:rgb(100%,100%,100%);fill-opacity:1;" d="M 130.550781 55.691406 L 132.375 61.160156 L 129.589844 62.121094 "/>
<path style=" stroke:none;fill-rule:nonzero;fill:rgb(100%,100%,100%);fill-opacity:1;" d="M 136.027344 59.671875 L 130.261719 59.625 L 130.207031 62.570312 "/>
<path style=" stroke:none;fill-rule:nonzero;fill:rgb(100%,100%,100%);fill-opacity:1;" d="M 136.027344 59.671875 L 131.386719 63.097656 L 129.613281 60.746094 "/>
<path style=" stroke:none;fill-rule:nonzero;fill:rgb(100%,100%,100%);fill-opacity:1;" d="M 125.070312 59.671875 L 129.710938 63.097656 L 131.484375 60.746094 "/>
<path style=" stroke:none;fill-rule:nonzero;fill:rgb(100%,100%,100%);fill-opacity:1;" d="M 125.070312 59.671875 L 130.839844 59.625 L 130.890625 62.570312 "/>
<path style=" stroke:none;fill-rule:nonzero;fill:rgb(100%,100%,100%);fill-opacity:1;" d="M 133.9375 66.109375 L 132.195312 60.609375 L 129.378906 61.46875 "/>
<path style=" stroke:none;fill-rule:nonzero;fill:rgb(100%,100%,100%);fill-opacity:1;" d="M 133.9375 66.109375 L 129.242188 62.753906 L 130.933594 60.34375 "/>
<path style=" stroke:none;fill-rule:nonzero;fill:rgb(100%,100%,100%);fill-opacity:1;" d="M 127.164062 66.109375 L 131.855469 62.753906 L 130.167969 60.34375 "/>
<path style=" stroke:none;fill-rule:nonzero;fill:rgb(100%,100%,100%);fill-opacity:1;" d="M 127.164062 66.109375 L 128.90625 60.609375 L 131.722656 61.46875 "/>
<path style=" stroke:none;fill-rule:nonzero;fill:rgb(100%,100%,100%);fill-opacity:1;" d="M 130.550781 32.648438 L 128.726562 38.121094 L 131.511719 39.082031 "/>
<path style=" stroke:none;fill-rule:nonzero;fill:rgb(100%,100%,100%);fill-opacity:1;" d="M 130.550781 32.648438 L 132.375 38.121094 L 129.589844 39.082031 "/>
<path style=" stroke:none;fill-rule:nonzero;fill:rgb(100%,100%,100%);fill-opacity:1;" d="M 136.027344 36.628906 L 130.261719 36.585938 L 130.207031 39.53125 "/>
<path style=" stroke:none;fill-rule:nonzero;fill:rgb(100%,100%,100%);fill-opacity:1;" d="M 136.027344 36.628906 L 131.386719 40.054688 L 129.613281 37.703125 "/>
<path style=" stroke:none;fill-rule:nonzero;fill:rgb(100%,100%,100%);fill-opacity:1;" d="M 125.070312 36.628906 L 129.710938 40.054688 L 131.484375 37.703125 "/>
<path style=" stroke:none;fill-rule:nonzero;fill:rgb(100%,100%,100%);fill-opacity:1;" d="M 125.070312 36.628906 L 130.839844 36.585938 L 130.890625 39.53125 "/>
<path style=" stroke:none;fill-rule:nonzero;fill:rgb(100%,100%,100%);fill-opacity:1;" d="M 133.9375 43.070312 L 132.195312 37.570312 L 129.378906 38.429688 "/>
<path style=" stroke:none;fill-rule:nonzero;fill:rgb(100%,100%,100%);fill-opacity:1;" d="M 133.9375 43.070312 L 129.242188 39.714844 L 130.933594 37.300781 "/>
<path style=" stroke:none;fill-rule:nonzero;fill:rgb(100%,100%,100%);fill-opacity:1;" d="M 127.164062 43.070312 L 131.855469 39.714844 L 130.167969 37.300781 "/>
<path style=" stroke:none;fill-rule:nonzero;fill:rgb(100%,100%,100%);fill-opacity:1;" d="M 127.164062 43.070312 L 128.90625 37.570312 L 131.722656 38.429688 "/>
<path style=" stroke:none;fill-rule:nonzero;fill:rgb(100%,100%,100%);fill-opacity:1;" d="M 130.550781 9.609375 L 128.726562 15.082031 L 131.511719 16.042969 "/>
<path style=" stroke:none;fill-rule:nonzero;fill:rgb(100%,100%,100%);fill-opacity:1;" d="M 130.550781 9.609375 L 132.375 15.082031 L 129.589844 16.042969 "/>
<path style=" stroke:none;fill-rule:nonzero;fill:rgb(100%,100%,100%);fill-opacity:1;" d="M 136.027344 13.589844 L 130.261719 13.546875 L 130.207031 16.492188 "/>
<path style=" stroke:none;fill-rule:nonzero;fill:rgb(100%,100%,100%);fill-opacity:1;" d="M 136.027344 13.589844 L 131.386719 17.015625 L 129.613281 14.664062 "/>
<path style=" stroke:none;fill-rule:nonzero;fill:rgb(100%,100%,100%);fill-opacity:1;" d="M 125.070312 13.589844 L 129.710938 17.015625 L 131.484375 14.664062 "/>
<path style=" stroke:none;fill-rule:nonzero;fill:rgb(100%,100%,100%);fill-opacity:1;" d="M 125.070312 13.589844 L 130.839844 13.546875 L 130.890625 16.492188 "/>
<path style=" stroke:none;fill-rule:nonzero;fill:rgb(100%,100%,100%);fill-opacity:1;" d="M 133.9375 20.03125 L 132.195312 14.53125 L 129.378906 15.390625 "/>
<path style=" stroke:none;fill-rule:nonzero;fill:rgb(100%,100%,100%);fill-opacity:1;" d="M 133.9375 20.03125 L 129.242188 16.675781 L 130.933594 14.261719 "/>
<path style=" stroke:none;fill-rule:nonzero;fill:rgb(100%,100%,100%);fill-opacity:1;" d="M 127.164062 20.03125 L 131.855469 16.675781 L 130.167969 14.261719 "/>
<path style=" stroke:none;fill-rule:nonzero;fill:rgb(100%,100%,100%);fill-opacity:1;" d="M 127.164062 20.03125 L 128.90625 14.53125 L 131.722656 15.390625 "/>
<path style=" stroke:none;fill-rule:nonzero;fill:rgb(100%,100%,100%);fill-opacity:1;" d="M 153.589844 55.691406 L 151.765625 61.160156 L 154.550781 62.121094 "/>
<path style=" stroke:none;fill-rule:nonzero;fill:rgb(100%,100%,100%);fill-opacity:1;" d="M 153.589844 55.691406 L 155.414062 61.160156 L 152.628906 62.121094 "/>
<path style=" stroke:none;fill-rule:nonzero;fill:rgb(100%,100%,100%);fill-opacity:1;" d="M 159.066406 59.671875 L 153.300781 59.625 L 153.246094 62.570312 "/>
<path style=" stroke:none;fill-rule:nonzero;fill:rgb(100%,100%,100%);fill-opacity:1;" d="M 159.066406 59.671875 L 154.425781 63.097656 L 152.652344 60.746094 "/>
<path style=" stroke:none;fill-rule:nonzero;fill:rgb(100%,100%,100%);fill-opacity:1;" d="M 148.113281 59.671875 L 152.753906 63.097656 L 154.527344 60.746094 "/>
<path style=" stroke:none;fill-rule:nonzero;fill:rgb(100%,100%,100%);fill-opacity:1;" d="M 148.113281 59.671875 L 153.878906 59.625 L 153.933594 62.570312 "/>
<path style=" stroke:none;fill-rule:nonzero;fill:rgb(100%,100%,100%);fill-opacity:1;" d="M 156.976562 66.109375 L 155.234375 60.609375 L 152.417969 61.46875 "/>
<path style=" stroke:none;fill-rule:nonzero;fill:rgb(100%,100%,100%);fill-opacity:1;" d="M 156.976562 66.109375 L 152.285156 62.753906 L 153.972656 60.34375 "/>
<path style=" stroke:none;fill-rule:nonzero;fill:rgb(100%,100%,100%);fill-opacity:1;" d="M 150.203125 66.109375 L 154.894531 62.753906 L 153.207031 60.34375 "/>
<path style=" stroke:none;fill-rule:nonzero;fill:rgb(100%,100%,100%);fill-opacity:1;" d="M 150.203125 66.109375 L 151.945312 60.609375 L 154.761719 61.46875 "/>
<path style=" stroke:none;fill-rule:nonzero;fill:rgb(100%,100%,100%);fill-opacity:1;" d="M 153.589844 32.648438 L 151.765625 38.121094 L 154.550781 39.082031 "/>
<path style=" stroke:none;fill-rule:nonzero;fill:rgb(100%,100%,100%);fill-opacity:1;" d="M 153.589844 32.648438 L 155.414062 38.121094 L 152.628906 39.082031 "/>
<path style=" stroke:none;fill-rule:nonzero;fill:rgb(100%,100%,100%);fill-opacity:1;" d="M 159.066406 36.628906 L 153.300781 36.585938 L 153.246094 39.53125 "/>
<path style=" stroke:none;fill-rule:nonzero;fill:rgb(100%,100%,100%);fill-opacity:1;" d="M 159.066406 36.628906 L 154.425781 40.054688 L 152.652344 37.703125 "/>
<path style=" stroke:none;fill-rule:nonzero;fill:rgb(100%,100%,100%);fill-opacity:1;" d="M 148.113281 36.628906 L 152.753906 40.054688 L 154.527344 37.703125 "/>
<path style=" stroke:none;fill-rule:nonzero;fill:rgb(100%,100%,100%);fill-opacity:1;" d="M 148.113281 36.628906 L 153.878906 36.585938 L 153.933594 39.53125 "/>
<path style=" stroke:none;fill-rule:nonzero;fill:rgb(100%,100%,100%);fill-opacity:1;" d="M 156.976562 43.070312 L 155.234375 37.570312 L 152.417969 38.429688 "/>
<path style=" stroke:none;fill-rule:nonzero;fill:rgb(100%,100%,100%);fill-opacity:1;" d="M 156.976562 43.070312 L 152.285156 39.714844 L 153.972656 37.300781 "/>
<path style=" stroke:none;fill-rule:nonzero;fill:rgb(100%,100%,100%);fill-opacity:1;" d="M 150.203125 43.070312 L 154.894531 39.714844 L 153.207031 37.300781 "/>
<path style=" stroke:none;fill-rule:nonzero;fill:rgb(100%,100%,100%);fill-opacity:1;" d="M 150.203125 43.070312 L 151.945312 37.570312 L 154.761719 38.429688 "/>
<path style=" stroke:none;fill-rule:nonzero;fill:rgb(100%,100%,100%);fill-opacity:1;" d="M 153.589844 9.609375 L 151.765625 15.082031 L 154.550781 16.042969 "/>
<path style=" stroke:none;fill-rule:nonzero;fill:rgb(100%,100%,100%);fill-opacity:1;" d="M 153.589844 9.609375 L 155.414062 15.082031 L 152.628906 16.042969 "/>
<path style=" stroke:none;fill-rule:nonzero;fill:rgb(100%,100%,100%);fill-opacity:1;" d="M 159.066406 13.589844 L 153.300781 13.546875 L 153.246094 16.492188 "/>
<path style=" stroke:none;fill-rule:nonzero;fill:rgb(100%,100%,100%);fill-opacity:1;" d="M 159.066406 13.589844 L 154.425781 17.015625 L 152.652344 14.664062 "/>
<path style=" stroke:none;fill-rule:nonzero;fill:rgb(100%,100%,100%);fill-opacity:1;" d="M 148.113281 13.589844 L 152.753906 17.015625 L 154.527344 14.664062 "/>
<path style=" stroke:none;fill-rule:nonzero;fill:rgb(100%,100%,100%);fill-opacity:1;" d="M 148.113281 13.589844 L 153.878906 13.546875 L 153.933594 16.492188 "/>
<path style=" stroke:none;fill-rule:nonzero;fill:rgb(100%,100%,100%);fill-opacity:1;" d="M 156.976562 20.03125 L 155.234375 14.53125 L 152.417969 15.390625 "/>
<path style=" stroke:none;fill-rule:nonzero;fill:rgb(100%,100%,100%);fill-opacity:1;" d="M 156.976562 20.03125 L 152.285156 16.675781 L 153.972656 14.261719 "/>
<path style=" stroke:none;fill-rule:nonzero;fill:rgb(100%,100%,100%);fill-opacity:1;" d="M 150.203125 20.03125 L 154.894531 16.675781 L 153.207031 14.261719 "/>
<path style=" stroke:none;fill-rule:nonzero;fill:rgb(100%,100%,100%);fill-opacity:1;" d="M 150.203125 20.03125 L 151.945312 14.53125 L 154.761719 15.390625 "/>
<path style=" stroke:none;fill-rule:nonzero;fill:rgb(100%,100%,100%);fill-opacity:1;" d="M 176.628906 55.691406 L 174.804688 61.160156 L 177.589844 62.121094 "/>
<path style=" stroke:none;fill-rule:nonzero;fill:rgb(100%,100%,100%);fill-opacity:1;" d="M 176.628906 55.691406 L 178.453125 61.160156 L 175.671875 62.121094 "/>
<path style=" stroke:none;fill-rule:nonzero;fill:rgb(100%,100%,100%);fill-opacity:1;" d="M 182.109375 59.671875 L 176.339844 59.625 L 176.289062 62.570312 "/>
<path style=" stroke:none;fill-rule:nonzero;fill:rgb(100%,100%,100%);fill-opacity:1;" d="M 182.109375 59.671875 L 177.46875 63.097656 L 175.695312 60.746094 "/>
<path style=" stroke:none;fill-rule:nonzero;fill:rgb(100%,100%,100%);fill-opacity:1;" d="M 171.152344 59.671875 L 175.792969 63.097656 L 177.566406 60.746094 "/>
<path style=" stroke:none;fill-rule:nonzero;fill:rgb(100%,100%,100%);fill-opacity:1;" d="M 171.152344 59.671875 L 176.917969 59.625 L 176.972656 62.570312 "/>
<path style=" stroke:none;fill-rule:nonzero;fill:rgb(100%,100%,100%);fill-opacity:1;" d="M 180.015625 66.109375 L 178.273438 60.609375 L 175.457031 61.46875 "/>
<path style=" stroke:none;fill-rule:nonzero;fill:rgb(100%,100%,100%);fill-opacity:1;" d="M 180.015625 66.109375 L 175.324219 62.753906 L 177.011719 60.34375 "/>
<path style=" stroke:none;fill-rule:nonzero;fill:rgb(100%,100%,100%);fill-opacity:1;" d="M 173.246094 66.109375 L 177.9375 62.753906 L 176.25 60.34375 "/>
<path style=" stroke:none;fill-rule:nonzero;fill:rgb(100%,100%,100%);fill-opacity:1;" d="M 173.246094 66.109375 L 174.984375 60.609375 L 177.800781 61.46875 "/>
<path style=" stroke:none;fill-rule:nonzero;fill:rgb(100%,100%,100%);fill-opacity:1;" d="M 176.628906 32.648438 L 174.804688 38.121094 L 177.589844 39.082031 "/>
<path style=" stroke:none;fill-rule:nonzero;fill:rgb(100%,100%,100%);fill-opacity:1;" d="M 176.628906 32.648438 L 178.453125 38.121094 L 175.671875 39.082031 "/>
<path style=" stroke:none;fill-rule:nonzero;fill:rgb(100%,100%,100%);fill-opacity:1;" d="M 182.109375 36.628906 L 176.339844 36.585938 L 176.289062 39.53125 "/>
<path style=" stroke:none;fill-rule:nonzero;fill:rgb(100%,100%,100%);fill-opacity:1;" d="M 182.109375 36.628906 L 177.46875 40.054688 L 175.695312 37.703125 "/>
<path style=" stroke:none;fill-rule:nonzero;fill:rgb(100%,100%,100%);fill-opacity:1;" d="M 171.152344 36.628906 L 175.792969 40.054688 L 177.566406 37.703125 "/>
<path style=" stroke:none;fill-rule:nonzero;fill:rgb(100%,100%,100%);fill-opacity:1;" d="M 171.152344 36.628906 L 176.917969 36.585938 L 176.972656 39.53125 "/>
<path style=" stroke:none;fill-rule:nonzero;fill:rgb(100%,100%,100%);fill-opacity:1;" d="M 180.015625 43.070312 L 178.273438 37.570312 L 175.457031 38.429688 "/>
<path style=" stroke:none;fill-rule:nonzero;fill:rgb(100%,100%,100%);fill-opacity:1;" d="M 180.015625 43.070312 L 175.324219 39.714844 L 177.011719 37.300781 "/>
<path style=" stroke:none;fill-rule:nonzero;fill:rgb(100%,100%,100%);fill-opacity:1;" d="M 173.246094 43.070312 L 177.9375 39.714844 L 176.25 37.300781 "/>
<path style=" stroke:none;fill-rule:nonzero;fill:rgb(100%,100%,100%);fill-opacity:1;" d="M 173.246094 43.070312 L 174.984375 37.570312 L 177.800781 38.429688 "/>
<path style=" stroke:none;fill-rule:nonzero;fill:rgb(100%,100%,100%);fill-opacity:1;" d="M 176.628906 9.609375 L 174.804688 15.082031 L 177.589844 16.042969 "/>
<path style=" stroke:none;fill-rule:nonzero;fill:rgb(100%,100%,100%);fill-opacity:1;" d="M 176.628906 9.609375 L 178.453125 15.082031 L 175.671875 16.042969 "/>
<path style=" stroke:none;fill-rule:nonzero;fill:rgb(100%,100%,100%);fill-opacity:1;" d="M 182.109375 13.589844 L 176.339844 13.546875 L 176.289062 16.492188 "/>
<path style=" stroke:none;fill-rule:nonzero;fill:rgb(100%,100%,100%);fill-opacity:1;" d="M 182.109375 13.589844 L 177.46875 17.015625 L 175.695312 14.664062 "/>
<path style=" stroke:none;fill-rule:nonzero;fill:rgb(100%,100%,100%);fill-opacity:1;" d="M 171.152344 13.589844 L 175.792969 17.015625 L 177.566406 14.664062 "/>
<path style=" stroke:none;fill-rule:nonzero;fill:rgb(100%,100%,100%);fill-opacity:1;" d="M 171.152344 13.589844 L 176.917969 13.546875 L 176.972656 16.492188 "/>
<path style=" stroke:none;fill-rule:nonzero;fill:rgb(100%,100%,100%);fill-opacity:1;" d="M 180.015625 20.03125 L 178.273438 14.53125 L 175.457031 15.390625 "/>
<path style=" stroke:none;fill-rule:nonzero;fill:rgb(100%,100%,100%);fill-opacity:1;" d="M 180.015625 20.03125 L 175.324219 16.675781 L 177.011719 14.261719 "/>
<path style=" stroke:none;fill-rule:nonzero;fill:rgb(100%,100%,100%);fill-opacity:1;" d="M 173.246094 20.03125 L 177.9375 16.675781 L 176.25 14.261719 "/>
<path style=" stroke:none;fill-rule:nonzero;fill:rgb(100%,100%,100%);fill-opacity:1;" d="M 173.246094 20.03125 L 174.984375 14.53125 L 177.800781 15.390625 "/>
<path style=" stroke:none;fill-rule:nonzero;fill:rgb(100%,100%,100%);fill-opacity:1;" d="M 84.46875 55.691406 L 82.644531 61.160156 L 85.429688 62.121094 "/>
<path style=" stroke:none;fill-rule:nonzero;fill:rgb(100%,100%,100%);fill-opacity:1;" d="M 84.46875 55.691406 L 86.292969 61.160156 L 83.511719 62.121094 "/>
<path style=" stroke:none;fill-rule:nonzero;fill:rgb(100%,100%,100%);fill-opacity:1;" d="M 89.949219 59.671875 L 84.179688 59.625 L 84.128906 62.570312 "/>
<path style=" stroke:none;fill-rule:nonzero;fill:rgb(100%,100%,100%);fill-opacity:1;" d="M 89.949219 59.671875 L 85.308594 63.097656 L 83.535156 60.746094 "/>
<path style=" stroke:none;fill-rule:nonzero;fill:rgb(100%,100%,100%);fill-opacity:1;" d="M 78.992188 59.671875 L 83.632812 63.097656 L 85.40625 60.746094 "/>
<path style=" stroke:none;fill-rule:nonzero;fill:rgb(100%,100%,100%);fill-opacity:1;" d="M 78.992188 59.671875 L 84.757812 59.625 L 84.8125 62.570312 "/>
<path style=" stroke:none;fill-rule:nonzero;fill:rgb(100%,100%,100%);fill-opacity:1;" d="M 87.855469 66.109375 L 86.113281 60.609375 L 83.296875 61.46875 "/>
<path style=" stroke:none;fill-rule:nonzero;fill:rgb(100%,100%,100%);fill-opacity:1;" d="M 87.855469 66.109375 L 83.164062 62.753906 L 84.851562 60.34375 "/>
<path style=" stroke:none;fill-rule:nonzero;fill:rgb(100%,100%,100%);fill-opacity:1;" d="M 81.085938 66.109375 L 85.777344 62.753906 L 84.089844 60.34375 "/>
<path style=" stroke:none;fill-rule:nonzero;fill:rgb(100%,100%,100%);fill-opacity:1;" d="M 81.085938 66.109375 L 82.824219 60.609375 L 85.640625 61.46875 "/>
<path style=" stroke:none;fill-rule:nonzero;fill:rgb(100%,100%,100%);fill-opacity:1;" d="M 107.511719 55.691406 L 105.6875 61.160156 L 108.46875 62.121094 "/>
<path style=" stroke:none;fill-rule:nonzero;fill:rgb(100%,100%,100%);fill-opacity:1;" d="M 107.511719 55.691406 L 109.335938 61.160156 L 106.550781 62.121094 "/>
<path style=" stroke:none;fill-rule:nonzero;fill:rgb(100%,100%,100%);fill-opacity:1;" d="M 112.988281 59.671875 L 107.21875 59.625 L 107.167969 62.570312 "/>
<path style=" stroke:none;fill-rule:nonzero;fill:rgb(100%,100%,100%);fill-opacity:1;" d="M 112.988281 59.671875 L 108.347656 63.097656 L 106.574219 60.746094 "/>
<path style=" stroke:none;fill-rule:nonzero;fill:rgb(100%,100%,100%);fill-opacity:1;" d="M 102.03125 59.671875 L 106.671875 63.097656 L 108.445312 60.746094 "/>
<path style=" stroke:none;fill-rule:nonzero;fill:rgb(100%,100%,100%);fill-opacity:1;" d="M 102.03125 59.671875 L 107.800781 59.625 L 107.851562 62.570312 "/>
<path style=" stroke:none;fill-rule:nonzero;fill:rgb(100%,100%,100%);fill-opacity:1;" d="M 110.894531 66.109375 L 109.15625 60.609375 L 106.339844 61.46875 "/>
<path style=" stroke:none;fill-rule:nonzero;fill:rgb(100%,100%,100%);fill-opacity:1;" d="M 110.894531 66.109375 L 106.203125 62.753906 L 107.890625 60.34375 "/>
<path style=" stroke:none;fill-rule:nonzero;fill:rgb(100%,100%,100%);fill-opacity:1;" d="M 104.125 66.109375 L 108.816406 62.753906 L 107.128906 60.34375 "/>
<path style=" stroke:none;fill-rule:nonzero;fill:rgb(100%,100%,100%);fill-opacity:1;" d="M 104.125 66.109375 L 105.863281 60.609375 L 108.683594 61.46875 "/>
<path style=" stroke:none;fill-rule:nonzero;fill:rgb(100%,100%,100%);fill-opacity:1;" d="M 107.511719 32.648438 L 105.6875 38.121094 L 108.46875 39.082031 "/>
<path style=" stroke:none;fill-rule:nonzero;fill:rgb(100%,100%,100%);fill-opacity:1;" d="M 107.511719 32.648438 L 109.335938 38.121094 L 106.550781 39.082031 "/>
<path style=" stroke:none;fill-rule:nonzero;fill:rgb(100%,100%,100%);fill-opacity:1;" d="M 112.988281 36.628906 L 107.21875 36.585938 L 107.167969 39.53125 "/>
<path style=" stroke:none;fill-rule:nonzero;fill:rgb(100%,100%,100%);fill-opacity:1;" d="M 112.988281 36.628906 L 108.347656 40.054688 L 106.574219 37.703125 "/>
<path style=" stroke:none;fill-rule:nonzero;fill:rgb(100%,100%,100%);fill-opacity:1;" d="M 102.03125 36.628906 L 106.671875 40.054688 L 108.445312 37.703125 "/>
<path style=" stroke:none;fill-rule:nonzero;fill:rgb(100%,100%,100%);fill-opacity:1;" d="M 102.03125 36.628906 L 107.800781 36.585938 L 107.851562 39.53125 "/>
<path style=" stroke:none;fill-rule:nonzero;fill:rgb(100%,100%,100%);fill-opacity:1;" d="M 110.894531 43.070312 L 109.15625 37.570312 L 106.339844 38.429688 "/>
<path style=" stroke:none;fill-rule:nonzero;fill:rgb(100%,100%,100%);fill-opacity:1;" d="M 110.894531 43.070312 L 106.203125 39.714844 L 107.890625 37.300781 "/>
<path style=" stroke:none;fill-rule:nonzero;fill:rgb(100%,100%,100%);fill-opacity:1;" d="M 104.125 43.070312 L 108.816406 39.714844 L 107.128906 37.300781 "/>
<path style=" stroke:none;fill-rule:nonzero;fill:rgb(100%,100%,100%);fill-opacity:1;" d="M 104.125 43.070312 L 105.863281 37.570312 L 108.683594 38.429688 "/>
</g>
</svg>
