<?xml version="1.0" encoding="UTF-8"?>
<svg xmlns="http://www.w3.org/2000/svg" xmlns:xlink="http://www.w3.org/1999/xlink" width="px" height="px" viewBox="0 0 320 240" version="1.1">
<g id="surface1">
<rect x="0" y="0" width="320" height="240" style="fill:rgb(81.176472%,7.843138%,16.862746%);fill-opacity:1;stroke:none;"/>
<path style=" stroke:none;fill-rule:nonzero;fill:rgb(0%,14.117648%,49.019608%);fill-opacity:1;" d="M 0 0 L 320 0 L 320 160 L 0 160 Z M 0 0 "/>
<path style=" stroke:none;fill-rule:nonzero;fill:rgb(100%,80.000001%,0%);fill-opacity:1;" d="M 0 0 L 320 0 L 320 80 L 0 80 Z M 0 0 "/>
<path style=" stroke:none;fill-rule:nonzero;fill:rgb(100%,100%,100%);fill-opacity:1;" d="M 174.238281 87.246094 L 169.617188 96.179688 L 174.820312 98.925781 Z M 174.238281 87.246094 "/>
<path style=" stroke:none;fill-rule:nonzero;fill:rgb(100%,100%,100%);fill-opacity:1;" d="M 174.238281 87.246094 L 175.527344 97.222656 L 169.699219 98.019531 Z M 174.238281 87.246094 "/>
<path style=" stroke:none;fill-rule:nonzero;fill:rgb(100%,100%,100%);fill-opacity:1;" d="M 182.40625 95.703125 L 172.480469 94.066406 L 171.476562 99.863281 Z M 182.40625 95.703125 "/>
<path style=" stroke:none;fill-rule:nonzero;fill:rgb(100%,100%,100%);fill-opacity:1;" d="M 182.40625 95.703125 L 173.316406 100.007812 L 170.753906 94.714844 Z M 182.40625 95.703125 "/>
<path style=" stroke:none;fill-rule:nonzero;fill:rgb(100%,100%,100%);fill-opacity:1;" d="M 163.671875 92.398438 L 170.742188 99.554688 L 174.960938 95.457031 Z M 163.671875 92.398438 "/>
<path style=" stroke:none;fill-rule:nonzero;fill:rgb(100%,100%,100%);fill-opacity:1;" d="M 163.671875 92.398438 L 173.558594 94.257812 L 172.519531 100.046875 Z M 163.671875 92.398438 "/>
<path style=" stroke:none;fill-rule:nonzero;fill:rgb(100%,100%,100%);fill-opacity:1;" d="M 176.886719 106.082031 L 175.375 96.136719 L 169.550781 96.976562 Z M 176.886719 106.082031 "/>
<path style=" stroke:none;fill-rule:nonzero;fill:rgb(100%,100%,100%);fill-opacity:1;" d="M 176.886719 106.082031 L 169.980469 98.769531 L 174.226562 94.695312 Z M 176.886719 106.082031 "/>
<path style=" stroke:none;fill-rule:nonzero;fill:rgb(100%,100%,100%);fill-opacity:1;" d="M 165.308594 104.039062 L 174.300781 99.53125 L 171.703125 94.25 Z M 165.308594 104.039062 "/>
<path style=" stroke:none;fill-rule:nonzero;fill:rgb(100%,100%,100%);fill-opacity:1;" d="M 165.308594 104.039062 L 170.132812 95.214844 L 175.316406 97.992188 Z M 165.308594 104.039062 "/>
<path style=" stroke:none;fill-rule:nonzero;fill:rgb(100%,100%,100%);fill-opacity:1;" d="M 201 96.984375 L 193.601562 103.800781 L 197.550781 108.160156 Z M 201 96.984375 "/>
<path style=" stroke:none;fill-rule:nonzero;fill:rgb(100%,100%,100%);fill-opacity:1;" d="M 201 96.984375 L 198.796875 106.800781 L 193.046875 105.558594 Z M 201 96.984375 "/>
<path style=" stroke:none;fill-rule:nonzero;fill:rgb(100%,100%,100%);fill-opacity:1;" d="M 205.78125 107.726562 L 197.015625 102.792969 L 194.089844 107.898438 Z M 205.78125 107.726562 "/>
<path style=" stroke:none;fill-rule:nonzero;fill:rgb(100%,100%,100%);fill-opacity:1;" d="M 205.78125 107.726562 L 195.765625 108.664062 L 195.171875 102.8125 Z M 205.78125 107.726562 "/>
<path style=" stroke:none;fill-rule:nonzero;fill:rgb(100%,100%,100%);fill-opacity:1;" d="M 189.308594 98.214844 L 193.503906 107.355469 L 198.867188 104.945312 Z M 189.308594 98.214844 "/>
<path style=" stroke:none;fill-rule:nonzero;fill:rgb(100%,100%,100%);fill-opacity:1;" d="M 189.308594 98.214844 L 197.960938 103.339844 L 195.003906 108.425781 Z M 189.308594 98.214844 "/>
<path style=" stroke:none;fill-rule:nonzero;fill:rgb(100%,100%,100%);fill-opacity:1;" d="M 197.046875 115.589844 L 199.023438 105.730469 L 193.269531 104.527344 Z M 197.046875 115.589844 "/>
<path style=" stroke:none;fill-rule:nonzero;fill:rgb(100%,100%,100%);fill-opacity:1;" d="M 197.046875 115.589844 L 193.058594 106.359375 L 198.4375 103.980469 Z M 197.046875 115.589844 "/>
<path style=" stroke:none;fill-rule:nonzero;fill:rgb(100%,100%,100%);fill-opacity:1;" d="M 186.863281 109.714844 L 196.855469 108.550781 L 196.222656 102.703125 Z M 186.863281 109.714844 "/>
<path style=" stroke:none;fill-rule:nonzero;fill:rgb(100%,100%,100%);fill-opacity:1;" d="M 186.863281 109.714844 L 194.414062 103.066406 L 198.335938 107.453125 Z M 186.863281 109.714844 "/>
<path style=" stroke:none;fill-rule:nonzero;fill:rgb(100%,100%,100%);fill-opacity:1;" d="M 222.816406 115.292969 L 213.535156 119.164062 L 215.753906 124.609375 Z M 222.816406 115.292969 "/>
<path style=" stroke:none;fill-rule:nonzero;fill:rgb(100%,100%,100%);fill-opacity:1;" d="M 222.816406 115.292969 L 217.390625 123.761719 L 212.410156 120.628906 Z M 222.816406 115.292969 "/>
<path style=" stroke:none;fill-rule:nonzero;fill:rgb(100%,100%,100%);fill-opacity:1;" d="M 223.636719 127.019531 L 217.085938 119.386719 L 212.589844 123.183594 Z M 223.636719 127.019531 "/>
<path style=" stroke:none;fill-rule:nonzero;fill:rgb(100%,100%,100%);fill-opacity:1;" d="M 223.636719 127.019531 L 213.90625 124.476562 L 215.347656 118.773438 Z M 223.636719 127.019531 "/>
<path style=" stroke:none;fill-rule:nonzero;fill:rgb(100%,100%,100%);fill-opacity:1;" d="M 211.410156 112.449219 L 212.222656 122.472656 L 218.089844 122.042969 Z M 211.410156 112.449219 "/>
<path style=" stroke:none;fill-rule:nonzero;fill:rgb(100%,100%,100%);fill-opacity:1;" d="M 211.410156 112.449219 L 217.785156 120.222656 L 213.269531 123.992188 Z M 211.410156 112.449219 "/>
<path style=" stroke:none;fill-rule:nonzero;fill:rgb(100%,100%,100%);fill-opacity:1;" d="M 212.734375 131.421875 L 217.96875 122.832031 L 212.972656 119.730469 Z M 212.734375 131.421875 "/>
<path style=" stroke:none;fill-rule:nonzero;fill:rgb(100%,100%,100%);fill-opacity:1;" d="M 212.734375 131.421875 L 212.148438 121.382812 L 218.015625 120.988281 Z M 212.734375 131.421875 "/>
<path style=" stroke:none;fill-rule:nonzero;fill:rgb(100%,100%,100%);fill-opacity:1;" d="M 205.179688 122.417969 L 214.964844 124.738281 L 216.371094 119.027344 Z M 205.179688 122.417969 "/>
<path style=" stroke:none;fill-rule:nonzero;fill:rgb(100%,100%,100%);fill-opacity:1;" d="M 205.179688 122.417969 L 214.546875 118.753906 L 216.734375 124.214844 Z M 205.179688 122.417969 "/>
<path style=" stroke:none;fill-rule:nonzero;fill:rgb(100%,100%,100%);fill-opacity:1;" d="M 237.054688 139.953125 L 227.007812 140.417969 L 227.230469 146.296875 Z M 237.054688 139.953125 "/>
<path style=" stroke:none;fill-rule:nonzero;fill:rgb(100%,100%,100%);fill-opacity:1;" d="M 237.054688 139.953125 L 229.058594 146.058594 L 225.453125 141.410156 Z M 237.054688 139.953125 "/>
<path style=" stroke:none;fill-rule:nonzero;fill:rgb(100%,100%,100%);fill-opacity:1;" d="M 233.816406 151.253906 L 230.269531 141.84375 L 224.746094 143.871094 Z M 233.816406 151.253906 "/>
<path style=" stroke:none;fill-rule:nonzero;fill:rgb(100%,100%,100%);fill-opacity:1;" d="M 233.816406 151.253906 L 225.539062 145.535156 L 228.84375 140.671875 Z M 233.816406 151.253906 "/>
<path style=" stroke:none;fill-rule:nonzero;fill:rgb(100%,100%,100%);fill-opacity:1;" d="M 227.308594 133.378906 L 224.644531 143.078125 L 230.304688 144.683594 Z M 227.308594 133.378906 "/>
<path style=" stroke:none;fill-rule:nonzero;fill:rgb(100%,100%,100%);fill-opacity:1;" d="M 227.308594 133.378906 L 230.640625 142.871094 L 225.109375 144.863281 Z M 227.308594 133.378906 "/>
<path style=" stroke:none;fill-rule:nonzero;fill:rgb(100%,100%,100%);fill-opacity:1;" d="M 222.066406 151.664062 L 229.921875 145.382812 L 226.285156 140.761719 Z M 222.066406 151.664062 "/>
<path style=" stroke:none;fill-rule:nonzero;fill:rgb(100%,100%,100%);fill-opacity:1;" d="M 222.066406 151.664062 L 224.945312 142.027344 L 230.597656 143.667969 Z M 222.066406 151.664062 "/>
<path style=" stroke:none;fill-rule:nonzero;fill:rgb(100%,100%,100%);fill-opacity:1;" d="M 218.046875 140.617188 L 226.445312 146.148438 L 229.71875 141.261719 Z M 218.046875 140.617188 "/>
<path style=" stroke:none;fill-rule:nonzero;fill:rgb(100%,100%,100%);fill-opacity:1;" d="M 218.046875 140.617188 L 228.101562 140.378906 L 228.285156 146.257812 Z M 218.046875 140.617188 "/>
<path style=" stroke:none;fill-rule:nonzero;fill:rgb(100%,100%,100%);fill-opacity:1;" d="M 82.945312 139.953125 L 90.941406 146.058594 L 94.546875 141.410156 Z M 82.945312 139.953125 "/>
<path style=" stroke:none;fill-rule:nonzero;fill:rgb(100%,100%,100%);fill-opacity:1;" d="M 82.945312 139.953125 L 92.992188 140.417969 L 92.769531 146.296875 Z M 82.945312 139.953125 "/>
<path style=" stroke:none;fill-rule:nonzero;fill:rgb(100%,100%,100%);fill-opacity:1;" d="M 92.691406 133.378906 L 89.359375 142.871094 L 94.890625 144.863281 Z M 92.691406 133.378906 "/>
<path style=" stroke:none;fill-rule:nonzero;fill:rgb(100%,100%,100%);fill-opacity:1;" d="M 92.691406 133.378906 L 95.355469 143.078125 L 89.695312 144.683594 Z M 92.691406 133.378906 "/>
<path style=" stroke:none;fill-rule:nonzero;fill:rgb(100%,100%,100%);fill-opacity:1;" d="M 86.183594 151.253906 L 94.460938 145.535156 L 91.15625 140.671875 Z M 86.183594 151.253906 "/>
<path style=" stroke:none;fill-rule:nonzero;fill:rgb(100%,100%,100%);fill-opacity:1;" d="M 86.183594 151.253906 L 89.730469 141.84375 L 95.253906 143.871094 Z M 86.183594 151.253906 "/>
<path style=" stroke:none;fill-rule:nonzero;fill:rgb(100%,100%,100%);fill-opacity:1;" d="M 101.953125 140.617188 L 91.898438 140.378906 L 91.714844 146.257812 Z M 101.953125 140.617188 "/>
<path style=" stroke:none;fill-rule:nonzero;fill:rgb(100%,100%,100%);fill-opacity:1;" d="M 101.953125 140.617188 L 93.554688 146.148438 L 90.28125 141.261719 Z M 101.953125 140.617188 "/>
<path style=" stroke:none;fill-rule:nonzero;fill:rgb(100%,100%,100%);fill-opacity:1;" d="M 97.933594 151.664062 L 95.054688 142.027344 L 89.402344 143.667969 Z M 97.933594 151.664062 "/>
<path style=" stroke:none;fill-rule:nonzero;fill:rgb(100%,100%,100%);fill-opacity:1;" d="M 97.933594 151.664062 L 90.078125 145.382812 L 93.714844 140.761719 Z M 97.933594 151.664062 "/>
<path style=" stroke:none;fill-rule:nonzero;fill:rgb(100%,100%,100%);fill-opacity:1;" d="M 97.183594 115.292969 L 102.609375 123.761719 L 107.589844 120.628906 Z M 97.183594 115.292969 "/>
<path style=" stroke:none;fill-rule:nonzero;fill:rgb(100%,100%,100%);fill-opacity:1;" d="M 97.183594 115.292969 L 106.464844 119.164062 L 104.246094 124.609375 Z M 97.183594 115.292969 "/>
<path style=" stroke:none;fill-rule:nonzero;fill:rgb(100%,100%,100%);fill-opacity:1;" d="M 108.589844 112.449219 L 102.214844 120.222656 L 106.730469 123.992188 Z M 108.589844 112.449219 "/>
<path style=" stroke:none;fill-rule:nonzero;fill:rgb(100%,100%,100%);fill-opacity:1;" d="M 108.589844 112.449219 L 107.777344 122.472656 L 101.910156 122.042969 Z M 108.589844 112.449219 "/>
<path style=" stroke:none;fill-rule:nonzero;fill:rgb(100%,100%,100%);fill-opacity:1;" d="M 96.363281 127.019531 L 106.09375 124.476562 L 104.652344 118.773438 Z M 96.363281 127.019531 "/>
<path style=" stroke:none;fill-rule:nonzero;fill:rgb(100%,100%,100%);fill-opacity:1;" d="M 96.363281 127.019531 L 102.914062 119.386719 L 107.410156 123.183594 Z M 96.363281 127.019531 "/>
<path style=" stroke:none;fill-rule:nonzero;fill:rgb(100%,100%,100%);fill-opacity:1;" d="M 114.820312 122.417969 L 105.453125 118.753906 L 103.265625 124.214844 Z M 114.820312 122.417969 "/>
<path style=" stroke:none;fill-rule:nonzero;fill:rgb(100%,100%,100%);fill-opacity:1;" d="M 114.820312 122.417969 L 105.035156 124.738281 L 103.628906 119.027344 Z M 114.820312 122.417969 "/>
<path style=" stroke:none;fill-rule:nonzero;fill:rgb(100%,100%,100%);fill-opacity:1;" d="M 107.265625 131.421875 L 107.851562 121.382812 L 101.984375 120.988281 Z M 107.265625 131.421875 "/>
<path style=" stroke:none;fill-rule:nonzero;fill:rgb(100%,100%,100%);fill-opacity:1;" d="M 107.265625 131.421875 L 102.03125 122.832031 L 107.027344 119.730469 Z M 107.265625 131.421875 "/>
<path style=" stroke:none;fill-rule:nonzero;fill:rgb(100%,100%,100%);fill-opacity:1;" d="M 119 96.984375 L 121.203125 106.800781 L 126.953125 105.558594 Z M 119 96.984375 "/>
<path style=" stroke:none;fill-rule:nonzero;fill:rgb(100%,100%,100%);fill-opacity:1;" d="M 119 96.984375 L 126.398438 103.800781 L 122.449219 108.160156 Z M 119 96.984375 "/>
<path style=" stroke:none;fill-rule:nonzero;fill:rgb(100%,100%,100%);fill-opacity:1;" d="M 130.691406 98.214844 L 122.039062 103.339844 L 124.996094 108.425781 Z M 130.691406 98.214844 "/>
<path style=" stroke:none;fill-rule:nonzero;fill:rgb(100%,100%,100%);fill-opacity:1;" d="M 130.691406 98.214844 L 126.496094 107.355469 L 121.132812 104.945312 Z M 130.691406 98.214844 "/>
<path style=" stroke:none;fill-rule:nonzero;fill:rgb(100%,100%,100%);fill-opacity:1;" d="M 114.21875 107.726562 L 124.234375 108.664062 L 124.828125 102.8125 Z M 114.21875 107.726562 "/>
<path style=" stroke:none;fill-rule:nonzero;fill:rgb(100%,100%,100%);fill-opacity:1;" d="M 114.21875 107.726562 L 122.984375 102.792969 L 125.910156 107.898438 Z M 114.21875 107.726562 "/>
<path style=" stroke:none;fill-rule:nonzero;fill:rgb(100%,100%,100%);fill-opacity:1;" d="M 133.136719 109.714844 L 125.585938 103.066406 L 121.664062 107.453125 Z M 133.136719 109.714844 "/>
<path style=" stroke:none;fill-rule:nonzero;fill:rgb(100%,100%,100%);fill-opacity:1;" d="M 133.136719 109.714844 L 123.144531 108.550781 L 123.777344 102.703125 Z M 133.136719 109.714844 "/>
<path style=" stroke:none;fill-rule:nonzero;fill:rgb(100%,100%,100%);fill-opacity:1;" d="M 122.953125 115.589844 L 126.941406 106.359375 L 121.5625 103.980469 Z M 122.953125 115.589844 "/>
<path style=" stroke:none;fill-rule:nonzero;fill:rgb(100%,100%,100%);fill-opacity:1;" d="M 122.953125 115.589844 L 120.976562 105.730469 L 126.730469 104.527344 Z M 122.953125 115.589844 "/>
<path style=" stroke:none;fill-rule:nonzero;fill:rgb(100%,100%,100%);fill-opacity:1;" d="M 145.761719 87.246094 L 144.472656 97.222656 L 150.300781 98.019531 Z M 145.761719 87.246094 "/>
<path style=" stroke:none;fill-rule:nonzero;fill:rgb(100%,100%,100%);fill-opacity:1;" d="M 145.761719 87.246094 L 150.382812 96.179688 L 145.179688 98.925781 Z M 145.761719 87.246094 "/>
<path style=" stroke:none;fill-rule:nonzero;fill:rgb(100%,100%,100%);fill-opacity:1;" d="M 156.328125 92.398438 L 146.441406 94.257812 L 147.480469 100.046875 Z M 156.328125 92.398438 "/>
<path style=" stroke:none;fill-rule:nonzero;fill:rgb(100%,100%,100%);fill-opacity:1;" d="M 156.328125 92.398438 L 149.257812 99.554688 L 145.039062 95.457031 Z M 156.328125 92.398438 "/>
<path style=" stroke:none;fill-rule:nonzero;fill:rgb(100%,100%,100%);fill-opacity:1;" d="M 137.59375 95.703125 L 146.683594 100.007812 L 149.246094 94.714844 Z M 137.59375 95.703125 "/>
<path style=" stroke:none;fill-rule:nonzero;fill:rgb(100%,100%,100%);fill-opacity:1;" d="M 137.59375 95.703125 L 147.519531 94.066406 L 148.523438 99.863281 Z M 137.59375 95.703125 "/>
<path style=" stroke:none;fill-rule:nonzero;fill:rgb(100%,100%,100%);fill-opacity:1;" d="M 154.691406 104.039062 L 149.867188 95.214844 L 144.683594 97.992188 Z M 154.691406 104.039062 "/>
<path style=" stroke:none;fill-rule:nonzero;fill:rgb(100%,100%,100%);fill-opacity:1;" d="M 154.691406 104.039062 L 145.699219 99.53125 L 148.296875 94.25 Z M 154.691406 104.039062 "/>
<path style=" stroke:none;fill-rule:nonzero;fill:rgb(100%,100%,100%);fill-opacity:1;" d="M 143.113281 106.082031 L 150.019531 98.769531 L 145.773438 94.695312 Z M 143.113281 106.082031 "/>
<path style=" stroke:none;fill-rule:nonzero;fill:rgb(100%,100%,100%);fill-opacity:1;" d="M 143.113281 106.082031 L 144.625 96.136719 L 150.449219 96.976562 Z M 143.113281 106.082031 "/>
</g>
</svg>
