<?xml version="1.0" encoding="UTF-8"?>
<svg xmlns="http://www.w3.org/2000/svg" xmlns:xlink="http://www.w3.org/1999/xlink" width="px" height="px" viewBox="0 0 320 240" version="1.1">
<defs>
<clipPath id="clip1">
  <path d="M 0 0 L 0 240 L 149.332031 141.472656 L 320 141.472656 L 320 98.527344 L 149.332031 98.527344 Z M 0 0 "/>
</clipPath>
</defs>
<g id="surface1">
<rect x="0" y="0" width="320" height="240" style="fill:rgb(0%,58.431375%,26.274511%);fill-opacity:1;stroke:none;"/>
<path style=" stroke:none;fill-rule:nonzero;fill:rgb(82.352942%,6.27451%,20.392157%);fill-opacity:1;" d="M 0 0 L 320 0 L 320 120 L 0 120 Z M 0 0 "/>
<g clip-path="url(#clip1)" clip-rule="nonzero">
<path style="fill-rule:nonzero;fill:rgb(0%,0%,0%);fill-opacity:1;stroke-width:110;stroke-linecap:butt;stroke-linejoin:miter;stroke:rgb(99.215686%,80.784315%,7.058824%);stroke-opacity:1;stroke-miterlimit:4;" d="M 0 0 L 419.996997 195.001325 L 900.001412 195.001325 L 900.001412 279.996946 L 419.996997 279.996946 L 0 474.998271 " transform="matrix(0.355555,0,0,0.505265,0,0)"/>
<path style="fill:none;stroke-width:60;stroke-linecap:butt;stroke-linejoin:miter;stroke:rgb(0%,0%,0%);stroke-opacity:1;stroke-miterlimit:4;" d="M 0 0 L 419.996997 195.001325 L 900.001412 195.001325 M 900.001412 279.996946 L 419.996997 279.996946 L 0 474.998271 " transform="matrix(0.355555,0,0,0.505265,0,0)"/>
</g>
<path style=" stroke:none;fill-rule:nonzero;fill:rgb(99.215686%,80.784315%,7.058824%);fill-opacity:1;" d="M 43.011719 142.988281 L 43.011719 156.632812 C 54.886719 156.632812 78.230469 147.539062 78.230469 118.179688 C 78.230469 88.824219 53.320312 83.367188 45.894531 83.367188 C 38.464844 83.367188 15.425781 88.722656 15.425781 112.675781 C 15.425781 136.726562 38.011719 138.949219 42.457031 138.949219 C 46.902344 138.949219 63.578125 134.90625 61.65625 116.917969 C 60.625 126.007812 52.917969 132.867188 43.769531 132.835938 C 31.644531 132.835938 24.066406 123.839844 24.066406 114.949219 C 24.066406 106.054688 31.441406 94.132812 44.226562 94.132812 C 57.007812 94.132812 66.355469 105.5 66.355469 116.917969 C 66.355469 128.335938 57.363281 142.941406 43.011719 142.941406 Z M 43.011719 142.988281 "/>
<path style="fill-rule:nonzero;fill:rgb(99.215686%,80.784315%,7.058824%);fill-opacity:1;stroke-width:0.8;stroke-linecap:butt;stroke-linejoin:miter;stroke:rgb(99.215686%,80.784315%,7.058824%);stroke-opacity:1;stroke-miterlimit:4;" d="M 86.201672 247.696445 L 87.600999 248.701487 C 87.600999 248.701487 98.803351 223.196616 128.699483 205.09813 C 124.903517 207.100483 104.903183 217.096784 86.201672 247.696445 Z M 86.201672 247.696445 " transform="matrix(0.505265,0,0,0.505265,-11,0)"/>
<path style=" stroke:none;fill-rule:nonzero;fill:rgb(99.215686%,80.784315%,7.058824%);fill-opacity:1;" d="M 34.019531 122.929688 C 34.019531 122.929688 32.300781 119.394531 33.816406 117.777344 C 35.332031 116.160156 34.675781 121.972656 34.675781 121.972656 L 35.332031 121.011719 C 35.332031 121.011719 34.324219 116.664062 35.433594 115.757812 C 36.546875 114.847656 36.039062 119.949219 36.039062 119.949219 L 36.746094 119.039062 C 36.746094 119.039062 35.988281 114.796875 37.101562 113.988281 C 38.210938 113.179688 37.554688 118.03125 37.554688 118.03125 L 38.363281 117.019531 C 38.363281 117.019531 37.757812 112.976562 39.121094 112.015625 C 40.488281 111.058594 39.273438 115.855469 39.273438 115.855469 L 40.183594 114.847656 C 40.183594 114.847656 39.777344 111.160156 40.941406 110.300781 C 42.101562 109.492188 41.144531 113.835938 41.144531 113.835938 L 41.953125 112.925781 C 41.953125 112.925781 41.699219 109.492188 42.8125 108.683594 C 43.921875 107.875 42.910156 111.964844 42.910156 111.964844 L 43.769531 111.160156 C 43.769531 111.160156 43.570312 107.671875 44.984375 107.015625 C 46.398438 106.359375 44.730469 110.25 44.730469 110.25 L 45.742188 109.441406 C 45.742188 109.441406 45.992188 105.398438 47.207031 105.042969 C 48.417969 104.640625 46.703125 108.582031 46.703125 108.582031 L 47.558594 107.875 C 47.558594 107.875 48.015625 104.4375 49.328125 104.035156 C 50.691406 103.578125 48.519531 107.167969 48.519531 107.167969 L 49.378906 106.511719 C 49.378906 106.511719 50.339844 103.074219 51.601562 102.667969 C 52.816406 102.316406 50.289062 105.953125 50.289062 105.953125 L 51.148438 105.347656 C 51.148438 105.347656 52.511719 102.214844 53.675781 102.011719 C 54.734375 101.8125 52.359375 104.589844 52.359375 104.589844 L 53.421875 103.984375 C 53.421875 103.984375 55.191406 100.75 55.847656 101.710938 C 56.503906 102.667969 53.320312 104.1875 53.320312 104.1875 L 52.308594 104.792969 C 52.308594 104.792969 56.097656 102.972656 56.554688 103.882812 C 57.007812 104.792969 51.351562 105.398438 51.351562 105.398438 L 50.441406 106.003906 C 50.441406 106.003906 54.230469 104.992188 53.773438 105.953125 C 53.320312 106.914062 49.53125 106.710938 49.53125 106.710938 L 48.671875 107.316406 C 48.671875 107.316406 52.460938 106.410156 51.957031 107.316406 C 51.449219 108.125 47.761719 108.078125 47.761719 108.078125 L 46.851562 108.835938 C 46.851562 108.835938 50.542969 107.824219 49.984375 108.984375 C 49.429688 110.148438 45.234375 110.046875 45.234375 110.046875 L 44.226562 111.058594 C 44.226562 111.058594 48.117188 109.691406 47.761719 110.753906 C 47.460938 111.765625 43.011719 112.269531 43.011719 112.269531 L 42.003906 113.28125 C 42.003906 113.28125 46.195312 111.917969 44.933594 113.179688 C 43.71875 114.492188 40.636719 114.796875 40.636719 114.796875 L 39.476562 116.3125 C 39.476562 116.3125 43.621094 113.785156 43.011719 115.199219 C 42.40625 116.613281 38.363281 117.574219 38.363281 117.574219 L 37.554688 118.585938 C 37.554688 118.585938 41.296875 116.414062 40.890625 117.574219 C 40.535156 118.839844 36.546875 120.101562 36.546875 120.101562 L 35.886719 121.011719 C 35.886719 121.011719 40.285156 118.382812 39.929688 119.746094 C 39.527344 121.0625 35.332031 122.023438 35.332031 122.023438 L 34.828125 122.878906 C 34.828125 122.878906 38.871094 120.503906 38.871094 121.667969 C 38.972656 122.78125 34.121094 123.890625 34.121094 123.890625 Z M 34.019531 122.929688 "/>
<path style="fill-rule:nonzero;fill:rgb(99.215686%,80.784315%,7.058824%);fill-opacity:1;stroke-width:0.8;stroke-linecap:butt;stroke-linejoin:miter;stroke:rgb(99.215686%,80.784315%,7.058824%);stroke-opacity:1;stroke-miterlimit:4;" d="M 86.197997 247.696445 L 87.597325 248.701487 C 87.597325 248.701487 98.799676 223.196616 128.703539 205.09813 C 124.899842 207.100483 104.899508 217.096784 86.197997 247.696445 Z M 86.197997 247.696445 " transform="matrix(-0.505265,0,0,0.505265,100.158299,0)"/>
<path style=" stroke:none;fill-rule:nonzero;fill:rgb(99.215686%,80.784315%,7.058824%);fill-opacity:1;" d="M 55.140625 122.929688 C 55.140625 122.929688 56.855469 119.394531 55.339844 117.777344 C 53.824219 116.160156 54.480469 121.972656 54.480469 121.972656 L 53.824219 121.011719 C 53.824219 121.011719 54.835938 116.664062 53.722656 115.757812 C 52.613281 114.847656 53.117188 119.949219 53.117188 119.949219 L 52.410156 119.039062 C 52.410156 119.039062 53.167969 114.796875 52.058594 113.988281 C 50.945312 113.179688 51.601562 118.03125 51.601562 118.03125 L 50.792969 117.019531 C 50.792969 117.019531 51.398438 112.976562 50.035156 112.015625 C 48.671875 111.058594 49.882812 115.855469 49.882812 115.855469 L 48.976562 114.847656 C 48.976562 114.847656 49.378906 111.160156 48.21875 110.300781 C 47.054688 109.492188 48.015625 113.835938 48.015625 113.835938 L 47.207031 112.925781 C 47.207031 112.925781 47.460938 109.492188 46.347656 108.683594 C 45.234375 107.875 46.246094 111.964844 46.246094 111.964844 L 45.386719 111.160156 C 45.386719 111.160156 45.589844 107.671875 44.175781 107.015625 C 42.761719 106.359375 44.425781 110.25 44.425781 110.25 L 43.417969 109.441406 C 43.417969 109.441406 43.164062 105.398438 41.953125 105.042969 C 40.738281 104.640625 42.457031 108.582031 42.457031 108.582031 L 41.597656 107.875 C 41.597656 107.875 41.144531 104.4375 39.828125 104.035156 C 38.464844 103.578125 40.636719 107.167969 40.636719 107.167969 L 39.777344 106.511719 C 39.777344 106.511719 38.820312 103.074219 37.554688 102.667969 C 36.34375 102.316406 38.871094 105.953125 38.871094 105.953125 L 38.011719 105.347656 C 38.011719 105.347656 36.648438 102.214844 35.484375 102.011719 C 34.421875 101.8125 36.796875 104.589844 36.796875 104.589844 L 35.738281 103.984375 C 35.738281 103.984375 33.96875 100.75 33.3125 101.710938 C 32.65625 102.667969 35.839844 104.1875 35.839844 104.1875 L 36.847656 104.792969 C 36.847656 104.792969 33.058594 102.972656 32.605469 103.882812 C 32.148438 104.792969 37.808594 105.398438 37.808594 105.398438 L 38.71875 106.003906 C 38.71875 106.003906 34.929688 104.992188 35.382812 105.953125 C 35.839844 106.914062 39.628906 106.710938 39.628906 106.710938 L 40.488281 107.316406 C 40.488281 107.316406 36.695312 106.410156 37.203125 107.316406 C 37.707031 108.125 41.394531 108.078125 41.394531 108.078125 L 42.304688 108.835938 C 42.304688 108.835938 38.617188 107.824219 39.171875 108.984375 C 39.730469 110.148438 43.921875 110.046875 43.921875 110.046875 L 44.933594 111.058594 C 44.933594 111.058594 41.042969 109.691406 41.394531 110.753906 C 41.699219 111.765625 46.144531 112.269531 46.144531 112.269531 L 47.15625 113.28125 C 47.15625 113.28125 42.960938 111.917969 44.226562 113.179688 C 45.4375 114.492188 48.519531 114.796875 48.519531 114.796875 L 49.683594 116.3125 C 49.683594 116.3125 45.539062 113.785156 46.144531 115.199219 C 46.75 116.613281 50.792969 117.574219 50.792969 117.574219 L 51.601562 118.585938 C 51.601562 118.585938 47.863281 116.414062 48.269531 117.574219 C 48.621094 118.839844 52.613281 120.101562 52.613281 120.101562 L 53.269531 121.011719 C 53.269531 121.011719 48.875 118.382812 49.226562 119.746094 C 49.632812 121.0625 53.824219 122.023438 53.824219 122.023438 L 54.332031 122.878906 C 54.332031 122.878906 50.289062 120.503906 50.289062 121.667969 C 50.1875 122.78125 55.039062 123.890625 55.039062 123.890625 Z M 55.140625 122.929688 "/>
</g>
</svg>
