<?xml version="1.0" encoding="UTF-8"?>
<svg xmlns="http://www.w3.org/2000/svg" xmlns:xlink="http://www.w3.org/1999/xlink" width="px" height="px" viewBox="0 0 320 240" version="1.1">
<g id="surface1">
<rect x="0" y="0" width="320" height="240" style="fill:rgb(80.784315%,6.666667%,14.901961%);fill-opacity:1;stroke:none;"/>
<path style=" stroke:none;fill-rule:evenodd;fill:rgb(0%,16.862746%,49.803922%);fill-opacity:1;" d="M 0 0 L 160 0 L 160 120 L 0 120 Z M 0 0 "/>
<path style=" stroke:none;fill-rule:evenodd;fill:rgb(100%,100%,100%);fill-opacity:1;" d="M 90 114.648438 L 79.648438 107.648438 L 69.699219 114.699219 L 72.949219 102.25 L 63.449219 94.648438 L 75.699219 93.898438 L 79.75 82.101562 L 84.148438 94.101562 L 96.148438 94.449219 L 86.648438 102.601562 Z M 88.199219 31.851562 L 79.898438 26.5 L 71.898438 31.699219 L 74.101562 21.699219 L 66.800781 15.351562 L 76.5 14.550781 L 80.101562 5.25 L 83.800781 14.601562 L 93.351562 15.449219 L 86 22.148438 Z M 51.699219 61.601562 L 43.699219 56.101562 L 35.351562 61.601562 L 37.949219 51.898438 L 30.398438 45.5 L 40 45 L 43.5 35.5 L 46.898438 44.949219 L 56.699219 45.5 L 49.199219 51.75 Z M 125 55 L 117.300781 50 L 109.800781 55 L 112 45.851562 L 105 39.949219 L 114.148438 39.199219 L 117.300781 30.601562 L 120.800781 39.300781 L 129.648438 39.800781 L 122.800781 45.949219 Z M 103.449219 76.699219 L 98.300781 73.5 L 93.148438 76.800781 L 94.5 70.648438 L 89.898438 66.5 L 95.898438 66 L 98.199219 60.199219 L 100.648438 66 L 106.601562 66.5 L 102.050781 70.648438 Z M 103.449219 76.699219 "/>
</g>
</svg>
