<?xml version="1.0" encoding="UTF-8"?>
<svg xmlns="http://www.w3.org/2000/svg" xmlns:xlink="http://www.w3.org/1999/xlink" width="px" height="px" viewBox="0 0 320 240" version="1.1">
<g id="surface1">
<rect x="0" y="0" width="320" height="240" style="fill:rgb(14.117648%,29.019609%,64.705884%);fill-opacity:1;stroke:none;"/>
<path style=" stroke:none;fill-rule:nonzero;fill:rgb(81.568629%,65.098041%,31.37255%);fill-opacity:1;" d="M 126.5 112.398438 C 126.5 112.398438 127.101562 112 127.300781 111.949219 C 127.5 111.898438 128.300781 111.648438 128.300781 111.648438 C 128.300781 111.648438 128.800781 111.398438 129.050781 111.398438 C 129.300781 111.398438 129.851562 111.699219 130.050781 111.949219 C 130.25 112.199219 131.050781 112.648438 131.050781 112.648438 C 131.050781 112.648438 131.648438 112.851562 131.800781 112.648438 C 131.933594 112.449219 132.148438 112.332031 132.449219 112.300781 C 132.683594 112.234375 132.785156 112.082031 132.75 111.851562 C 132.699219 111.5 132.851562 111.398438 133.050781 111.148438 C 133.300781 110.898438 133.699219 110.75 133.699219 110.75 C 133.699219 110.75 134.300781 110.5 134.351562 110.148438 C 134.398438 109.800781 135 109.550781 135.351562 109.5 C 135.699219 109.5 135.351562 109.300781 136.25 109.398438 C 137.101562 109.5 137.25 109.199219 137.25 108.949219 C 137.300781 108.699219 137.25 108.449219 137.800781 108.449219 C 138.332031 108.582031 138.601562 108.515625 138.601562 108.25 C 138.601562 107.949219 139.101562 107.75 138.25 107.550781 C 137.351562 107.300781 137.449219 107.5 137.351562 107.050781 C 137.351562 106.699219 137.351562 106.75 136.800781 106.699219 C 136.25 106.648438 136.5 106.351562 136.449219 106.050781 C 136.382812 105.75 136.285156 105.535156 136.148438 105.398438 C 136 105.199219 135.699219 105.199219 135.699219 104.898438 C 135.699219 104.601562 135.648438 104.398438 135.351562 104.398438 C 135.015625 104.433594 134.851562 104.351562 134.851562 104.148438 C 134.851562 103.816406 134.984375 103.648438 135.25 103.648438 C 135.582031 103.582031 135.75 103.382812 135.75 103.050781 C 135.648438 102.75 135.648438 102.101562 135.648438 102.101562 L 136.101562 101.601562 C 136.101562 101.601562 137.398438 100.550781 137.5 100.351562 C 137.601562 100.148438 138.050781 100 138.25 100.398438 C 138.449219 100.800781 138.550781 100.898438 138.75 101.101562 C 138.898438 101.300781 139.398438 101.148438 139.5 100.949219 C 139.601562 100.75 139.648438 100 139.949219 99.601562 C 140.285156 99.300781 140.464844 99 140.5 98.699219 C 140.566406 98.265625 140.765625 98.066406 141.101562 98.101562 C 141.398438 98.101562 141.601562 97.648438 141.601562 97.398438 C 141.601562 97.132812 141.800781 96.933594 142.199219 96.800781 C 142.601562 96.75 142.851562 96.5 143 96.898438 C 143.148438 97.300781 143.300781 97.25 143.550781 97.398438 C 143.882812 97.601562 144.183594 97.648438 144.449219 97.550781 C 144.699219 97.351562 144.800781 97.050781 145.101562 97.199219 C 145.398438 97.367188 145.601562 97.25 145.699219 96.851562 L 145.851562 95.898438 C 145.851562 95.898438 145.898438 95.648438 146.398438 95.648438 C 146.898438 95.648438 146.550781 95.351562 146.800781 95.148438 C 147.050781 94.949219 147.101562 94.75 147.449219 94.851562 C 147.800781 94.949219 148.351562 94.699219 148.101562 94.351562 C 147.851562 94 147.199219 93.550781 147.550781 93.148438 C 147.898438 92.75 148.050781 92.148438 147.699219 92.050781 C 147.351562 92 146.800781 92.101562 146.75 91.75 C 146.699219 91.351562 146.550781 91.050781 147 91 C 147.449219 90.949219 148.101562 90.949219 148.351562 90.75 C 148.601562 90.550781 149.25 90.398438 149.25 89.851562 C 149.25 89.300781 149.449219 89.199219 149.550781 88.851562 C 149.648438 88.5 149.601562 87.851562 149.300781 87.550781 C 149 87.25 148.601562 86.75 148.550781 86.550781 C 148.449219 86.316406 148.183594 86.101562 147.75 85.898438 C 147.351562 85.800781 146.949219 85.699219 146.949219 85.398438 C 146.949219 85.101562 147.25 85.449219 147.25 84.601562 C 147.25 83.75 146.699219 83.601562 146.699219 83.601562 L 145.851562 83.101562 C 145.851562 83.101562 144.351562 82.699219 143.949219 82.699219 C 143.550781 82.699219 143.050781 82.300781 143.5 82 C 143.949219 81.699219 144.101562 81.25 143.949219 80.898438 C 143.75 80.550781 143.648438 80.25 143 80.101562 C 142.332031 80 142.167969 79.765625 142.5 79.398438 C 142.75 79.050781 142.851562 78.75 143.199219 79.050781 C 143.5 79.300781 144.101562 79.398438 144.550781 79.199219 C 145 79 145.199219 78.800781 145.449219 79.050781 C 145.699219 79.300781 145.949219 79.449219 146.300781 79.148438 C 146.648438 78.851562 147.300781 78.75 147.601562 78.898438 C 147.851562 79.101562 148.601562 79.050781 148.800781 78.898438 C 149 78.75 149.5 78.398438 149.5 78.25 C 149.5 78.101562 149.800781 77.648438 150.050781 77.5 C 150.300781 77.351562 150.699219 76.800781 151 76.800781 C 151.300781 76.800781 151.398438 76.449219 151.398438 76.300781 C 151.398438 76.050781 151.648438 75.601562 151.699219 75.449219 C 151.75 75.300781 152.300781 75.050781 152.699219 75.449219 C 153.148438 75.699219 153.699219 75.851562 153.699219 75.851562 C 153.699219 75.851562 154.199219 75.949219 154.550781 75.851562 C 154.871094 75.652344 155.277344 75.652344 155.601562 75.851562 C 156.050781 76.148438 156.601562 76.148438 156.601562 76.148438 L 156.75 75.5 C 156.75 75.300781 156.851562 74.898438 156.601562 74.75 C 156.351562 74.601562 156.101562 74.398438 156.550781 74.050781 C 157 73.699219 157.050781 73.800781 157.5 73.800781 L 158.601562 73.851562 C 158.949219 73.851562 159.5 74.199219 159.5 74.5 C 159.535156 74.765625 159.699219 75 160 75.199219 C 160.300781 75.351562 160.648438 75.5 160.5 75.800781 C 160.398438 76.132812 160.5 76.265625 160.800781 76.199219 C 161.132812 76.199219 161.285156 76.351562 161.25 76.648438 C 161.214844 76.882812 161.382812 77.050781 161.75 77.148438 C 162.082031 77.285156 162.25 77.484375 162.25 77.75 C 162.25 78.148438 162.148438 78.199219 162.25 78.449219 L 162.75 79.148438 C 162.75 79.148438 163.398438 79.898438 162.550781 79.5 C 161.75 79.148438 161.550781 79 161.300781 79 L 160.800781 79.25 L 160.148438 79.351562 C 159.851562 79.351562 159.550781 79.949219 160.050781 80.050781 C 160.484375 80.117188 160.683594 80.316406 160.648438 80.648438 C 160.601562 81.148438 160.5 80.898438 160.25 81.148438 C 160 81.398438 159.851562 81.25 159.449219 81.25 C 159.050781 81.25 158.949219 81.601562 158.949219 81.898438 C 158.949219 82.199219 159.101562 82.199219 159.25 82.398438 C 159.449219 82.734375 159.714844 82.765625 160.050781 82.5 C 160.300781 82.25 160.550781 82.050781 160.699219 82.550781 C 160.851562 83.050781 161.148438 83.050781 161.449219 83.050781 C 161.75 83.082031 162.015625 83.015625 162.25 82.851562 C 162.582031 82.683594 162.800781 82.832031 162.898438 83.300781 C 163.035156 83.632812 163.25 83.851562 163.550781 83.949219 C 163.851562 84.050781 164.015625 84.214844 164.050781 84.449219 C 164.148438 84.785156 164.332031 84.867188 164.601562 84.699219 C 164.964844 84.464844 165.285156 84.449219 165.550781 84.648438 L 166 85.25 L 166 85.800781 L 167.148438 86.199219 L 167.25 86.699219 C 167.25 86.898438 167.417969 86.964844 167.75 86.898438 L 168.550781 86.898438 C 168.550781 86.898438 168.949219 86.75 168.949219 86.398438 C 168.949219 86.101562 169.117188 85.964844 169.449219 86 C 169.699219 86 170.351562 86.25 170.5 85.898438 C 170.648438 85.550781 171.199219 85.5 171.601562 85.648438 L 173.101562 86.25 C 173.101562 86.25 172.949219 86.25 173.300781 86.800781 C 173.648438 87.351562 174.300781 87.351562 174.300781 87.351562 C 174.300781 87.351562 174.300781 87.851562 174.449219 88.050781 C 174.601562 88.25 175.101562 88.351562 175.351562 88.148438 C 175.683594 87.882812 176.035156 87.714844 176.398438 87.648438 C 176.949219 87.550781 177 87.648438 177 87.449219 C 177 87.25 176.648438 87.101562 176.648438 86.75 C 176.648438 86.398438 177 86.449219 177.050781 86.101562 C 177.101562 85.800781 177.449219 86.101562 177.699219 86.300781 C 177.949219 86.5 178.199219 86.699219 178.199219 86.898438 C 178.199219 87.148438 178.699219 87.898438 178.949219 88 C 179.199219 88.101562 180 88.148438 180.25 87.898438 C 180.5 87.648438 181.050781 87.5 181 88.148438 C 180.949219 88.800781 180.800781 88.851562 181.199219 89.050781 C 181.601562 89.25 181.699219 90.050781 181.351562 90.25 C 181 90.449219 180.851562 90.5 180.851562 90.851562 C 180.851562 91.199219 180.75 91.648438 181.050781 91.851562 C 181.382812 92.082031 181.550781 92.285156 181.550781 92.449219 C 181.550781 92.699219 181.851562 93.648438 181.851562 93.648438 C 181.851562 93.648438 182.050781 94.601562 181.949219 94.800781 C 181.949219 95.050781 181.800781 95.398438 182.300781 95.351562 C 182.765625 95.25 182.984375 95.367188 182.949219 95.699219 C 182.898438 96.199219 183.148438 96.300781 182.851562 96.449219 C 182.550781 96.601562 182.351562 97.148438 182.648438 97.25 C 182.949219 97.351562 183.148438 97.515625 183.25 97.75 C 183.300781 97.949219 183.75 98.351562 184.050781 98.101562 C 184.351562 97.851562 184.398438 97.800781 184.648438 97.75 C 184.898438 97.699219 185.050781 97.550781 184.800781 97.25 C 184.566406 96.984375 184.550781 96.75 184.75 96.550781 C 185 96.398438 185.101562 95.898438 185.101562 95.898438 C 185.101562 95.898438 185.449219 95.398438 185.851562 95.898438 C 186.25 96.398438 186.351562 96.199219 186.601562 96.199219 C 186.851562 96.199219 187 96.449219 187 96.699219 C 187 96.949219 187.601562 96.949219 187.601562 97.351562 L 187.699219 98.851562 C 187.699219 98.851562 187.699219 99.398438 188.050781 99.601562 C 188.382812 99.800781 188.417969 99.964844 188.148438 100.101562 C 188.050781 100.433594 188.015625 100.765625 188.050781 101.101562 C 188.101562 101.601562 188.148438 101.351562 187.898438 101.601562 C 187.566406 101.832031 187.484375 102.101562 187.648438 102.398438 C 187.800781 102.699219 187.75 102.898438 188.199219 103.300781 C 188.699219 103.648438 188.648438 103.800781 188.648438 104.101562 C 188.648438 104.351562 189.101562 104.75 189.101562 105 C 189.101562 105.25 189.449219 105.601562 189.75 105.648438 C 190.050781 105.699219 190.351562 106.148438 190.351562 106.449219 L 190.398438 107.398438 C 190.398438 107.398438 190.398438 107.550781 190.699219 107.550781 C 191 107.550781 191.300781 107.949219 191.398438 107.550781 C 191.5 107.050781 191.898438 107.050781 192.101562 106.898438 C 192.300781 106.75 192.800781 106.601562 193.050781 106.75 C 193.300781 106.898438 193.550781 106.898438 193.800781 106.898438 L 195.101562 106.949219 C 195.101562 106.949219 195.398438 106.949219 195.601562 107.351562 C 195.75 107.75 196.25 108.25 196 108.449219 C 195.75 108.648438 195.699219 109.101562 196 109.101562 C 196.300781 109.101562 196.75 109.101562 196.75 109.351562 C 196.683594 109.683594 196.800781 109.800781 197.101562 109.699219 C 197.367188 109.535156 197.550781 109.535156 197.648438 109.699219 C 197.75 109.867188 197.964844 109.984375 198.300781 110.050781 C 198.566406 110.183594 198.765625 110.132812 198.898438 109.898438 C 199.050781 109.699219 199.75 109.5 199.75 109.5 C 199.75 109.5 200.648438 109.25 201 109.351562 L 201.851562 109.699219 C 201.851562 109.699219 202.050781 110.199219 201.949219 110.550781 C 201.851562 110.898438 201.699219 110.800781 201.851562 111.300781 C 202 111.800781 201.699219 111.800781 201.5 111.800781 C 201.199219 111.632812 201.035156 111.75 201 112.148438 C 201 112.550781 200.800781 112.648438 200.800781 113.050781 C 200.800781 113.449219 200.800781 113.351562 200.550781 113.550781 C 200.285156 113.75 200.300781 113.917969 200.601562 114.050781 C 200.949219 114.050781 200.851562 114.449219 200.851562 114.648438 L 200.800781 115.351562 C 200.800781 115.351562 200.800781 115.601562 200.449219 115.601562 C 200.101562 115.601562 199.699219 115.601562 199.648438 115.851562 C 199.601562 116.101562 199.148438 116.5 199.5 116.800781 C 199.832031 117.035156 199.851562 117.199219 199.550781 117.300781 C 199.351562 117.449219 199.148438 117.949219 199.648438 118.101562 C 200.050781 118.265625 200.082031 118.449219 199.75 118.648438 C 199.449219 118.851562 198.898438 119.050781 198.898438 119.351562 C 198.898438 119.648438 198.75 119.648438 198.398438 119.699219 C 198 119.800781 197.964844 120.132812 198.300781 120.699219 C 198.699219 121.25 198.800781 121.199219 199.101562 121.199219 C 199.398438 121.199219 199.398438 120.699219 199.398438 120.699219 L 200.648438 120.800781 C 200.984375 120.800781 201.300781 120.75 201.601562 120.648438 C 201.851562 120.449219 202.449219 120.199219 202.449219 120.648438 C 202.449219 121.101562 202.601562 121.148438 202.851562 121.300781 C 203.148438 121.550781 203.199219 121.351562 203.449219 121.699219 C 203.699219 122 203.75 121.699219 203.949219 121.351562 C 204.101562 121 204.449219 120.648438 204.75 121.050781 C 205 121.5 205 121.351562 205.351562 121.351562 C 205.699219 121.351562 205.851562 121.550781 205.851562 121.800781 C 205.851562 122.050781 206.148438 122.050781 206.601562 122 C 207.050781 121.949219 207.050781 122.25 207.199219 122.5 C 207.351562 122.75 207.449219 122.699219 207.699219 122.699219 C 207.933594 122.734375 208.132812 122.667969 208.300781 122.5 C 208.5 122.300781 208.699219 122 208.949219 122.351562 C 209.199219 122.699219 209.648438 122.601562 209.75 122.25 C 209.898438 121.851562 210.398438 121.550781 210.699219 121.949219 C 211 122.398438 211.199219 122.398438 211.5 122.449219 C 211.832031 122.382812 212.117188 122.484375 212.351562 122.75 C 212.550781 123.050781 213.101562 123.449219 212.699219 123.75 C 212.300781 124.050781 211.851562 124.5 212.199219 124.648438 C 212.511719 124.726562 212.792969 124.902344 213 125.148438 C 213.25 125.351562 214 125.5 214.351562 125.550781 C 214.699219 125.550781 214.949219 125.648438 215.351562 125.300781 C 215.75 124.949219 216.199219 125 216.148438 125.449219 C 216.101562 125.898438 216.300781 126.351562 216.300781 126.351562 C 216.300781 126.351562 216.601562 127.050781 216.601562 127.300781 C 216.601562 127.550781 216.550781 127.601562 217.101562 127.949219 C 217.601562 128.25 217.5 128.449219 217.949219 128.148438 C 218.316406 127.882812 218.484375 127.632812 218.449219 127.398438 L 218.449219 126.550781 C 218.449219 126.550781 219.050781 126.449219 219.25 126.300781 C 219.5 126.101562 220.398438 125.648438 220.648438 125.851562 C 220.898438 126.050781 221.148438 126 221.398438 125.898438 C 221.734375 125.832031 222.050781 125.800781 222.351562 125.800781 C 222.550781 125.800781 222.949219 125.851562 223.449219 125.5 C 223.898438 125.101562 223.898438 125.199219 224.199219 125.5 C 224.433594 125.765625 224.464844 126.035156 224.300781 126.300781 C 224.101562 126.5 224.300781 126.949219 224.699219 126.949219 C 225.101562 126.949219 225.199219 127.199219 225.199219 127.449219 L 225.351562 128.300781 C 225.351562 128.5 225.351562 128.648438 226.050781 128.800781 C 226.648438 128.949219 226.550781 129.300781 226.648438 129.601562 C 226.851562 129.898438 226.785156 130.066406 226.449219 130.101562 C 225.949219 130.148438 225.949219 130.25 225.949219 130.5 C 225.851562 130.75 225.351562 130.851562 225.351562 130.851562 L 224.851562 130.75 C 224.851562 130.75 224.449219 130.75 224.300781 130.949219 C 224.148438 131.148438 223.800781 131.601562 224 131.949219 C 224.234375 132.316406 224.234375 132.582031 224 132.75 C 223.800781 132.898438 223.648438 133.699219 223.449219 133.550781 C 223.199219 133.351562 222.949219 133.550781 222.699219 133.699219 C 222.449219 133.851562 222.5 134.550781 222.949219 134.800781 C 223.417969 135.167969 223.617188 135.382812 223.550781 135.449219 L 224.050781 136.25 C 224.050781 136.25 223.898438 136.398438 223.800781 136.699219 C 223.648438 136.949219 223.300781 137.5 223.648438 137.601562 C 224 137.699219 223.851562 138.300781 223.5 138.300781 C 223.148438 138.300781 222.75 138.101562 222.699219 138.550781 C 222.648438 139 222.449219 138.851562 222.101562 138.800781 C 221.75 138.75 220.898438 138.550781 220.648438 138.949219 C 220.398438 139.351562 220.351562 139.550781 219.949219 139.5 C 219.550781 139.449219 219.699219 140.148438 219.851562 140.398438 L 220.351562 141.050781 C 220.351562 141.050781 220.699219 141.300781 220.699219 141.851562 C 220.667969 142.316406 220.5 142.351562 220.199219 141.949219 C 220 141.601562 219.550781 141.648438 219.5 142.050781 C 219.449219 142.449219 219.351562 143.148438 219 143.148438 C 218.601562 143.148438 218.332031 143.25 218.199219 143.449219 C 218.050781 143.648438 217.75 144.050781 217.75 144.25 C 217.75 144.449219 217.699219 144.699219 217.398438 144.75 C 217.101562 144.800781 217.050781 145.351562 217.050781 145.351562 C 217.050781 145.351562 216.351562 145.5 216.300781 145.75 C 216.25 146 216.351562 146.449219 215.800781 146.5 C 215.347656 146.554688 214.941406 146.8125 214.699219 147.199219 C 214.464844 147.433594 214.464844 147.683594 214.699219 147.949219 C 215.050781 148.351562 215.101562 149.050781 215.398438 149.199219 C 215.699219 149.300781 215.851562 149.515625 215.851562 149.851562 C 215.800781 150.300781 215.449219 150.601562 215.898438 150.601562 C 216.433594 150.566406 216.632812 150.734375 216.5 151.101562 C 216.300781 151.449219 216.300781 151.5 216 151.648438 C 215.601562 151.851562 215.449219 151.851562 215.449219 152.25 C 215.449219 152.648438 215.550781 152.699219 215.25 152.851562 C 214.949219 153 214.949219 153.199219 214.949219 153.550781 C 214.949219 153.898438 214.851562 153.75 214.5 154.101562 C 214.101562 154.433594 213.734375 154.535156 213.398438 154.398438 C 212.898438 154.199219 213.050781 154.300781 213 153.949219 C 212.949219 153.601562 212.449219 153.648438 212.148438 153.699219 C 211.851562 153.75 211.449219 154.050781 211.449219 154.050781 C 211.449219 154.050781 210.949219 154.398438 211.148438 154.648438 C 211.351562 154.898438 211.25 155.351562 210.851562 155.300781 C 210.449219 155.25 209.550781 155.699219 209.25 155.25 C 208.949219 154.800781 208.148438 154.449219 208 155.101562 C 207.898438 155.699219 208.351562 155.648438 208.300781 156.300781 C 208.25 156.949219 208.148438 156.949219 207.898438 157.148438 C 207.734375 157.351562 207.632812 157.566406 207.601562 157.800781 C 207.601562 158.050781 207.5 158.648438 207.898438 158.851562 C 208.300781 159.050781 208.5 159.648438 208.5 160 C 208.433594 160.367188 208.566406 160.582031 208.898438 160.648438 C 209.398438 160.714844 209.667969 160.566406 209.699219 160.199219 C 209.75 159.851562 210.550781 159.601562 210.648438 160.351562 C 210.582031 161.050781 210.699219 161.535156 211 161.800781 C 211.25 162.101562 211.5 162.550781 211.75 162.699219 C 212 162.851562 212.351562 164.199219 212.351562 164.199219 C 211.800781 164.351562 211.648438 165.101562 211.300781 165.199219 C 211.101562 165.300781 210.851562 165.199219 210.648438 165.351562 C 210.617188 165.550781 210.515625 165.683594 210.351562 165.75 C 209.898438 165.949219 210 165.300781 209.449219 165.550781 C 209 165.75 208.949219 166.300781 208.300781 166.050781 C 207.949219 165.949219 207.75 164.550781 207.648438 164.25 L 207.101562 163.351562 C 206.699219 162.75 205.949219 163.351562 205.699219 163.148438 C 205.300781 162.898438 205.449219 162.449219 204.851562 162.398438 C 203.648438 162.300781 204.5 163.148438 204 163.300781 C 203 163.648438 203 162.398438 202.300781 163 C 202.050781 163.199219 202.800781 163.351562 202.601562 163.699219 C 202.449219 164 201.75 164.5 201.75 164.851562 C 201.851562 165.351562 202.351562 165.5 202.5 165.851562 C 203 167 202.25 167.75 201.148438 166.851562 C 200.550781 166.398438 200.398438 165.5 199.5 165.601562 C 199.300781 165.667969 199.132812 165.75 199 165.851562 C 198.75 165.851562 198.601562 165.648438 198.351562 165.699219 C 198 165.851562 198.351562 166.101562 198.25 166.300781 C 198.25 166.300781 197.75 166.648438 197.75 166.800781 C 197.449219 167.101562 197.550781 167.398438 197.148438 167.699219 C 196.851562 167.949219 196.601562 167.800781 196.25 168.199219 C 195.898438 168.550781 195.851562 169.148438 195.398438 169.5 C 195.148438 169.699219 195 168.949219 194.699219 169.449219 L 194.601562 169.648438 C 194.5 169.785156 194.5 169.898438 194.601562 170 C 195.199219 171.199219 193.898438 171.601562 193.5 172.449219 C 193.351562 172.800781 193.800781 173.101562 193.648438 173.398438 L 192.898438 174.25 C 192.898438 174.351562 192.800781 174.648438 192.699219 174.75 C 192.601562 174.851562 192.199219 174.75 192.199219 174.949219 C 192.199219 175.148438 192.601562 175.300781 192.699219 175.398438 C 192.800781 175.5 192.601562 175.75 192.699219 175.800781 C 193.300781 176.449219 192.949219 176.25 193.25 176.800781 C 193.300781 176.898438 193.5 176.75 193.601562 176.949219 C 193.699219 177.148438 193.398438 177.148438 193.5 177.351562 C 193.5 177.449219 194 178.050781 194 178.050781 C 194 178.25 193.101562 178.648438 192.898438 178.648438 C 192.351562 178.648438 193.398438 177.550781 192.5 177.550781 C 192.101562 177.550781 192.050781 178.398438 192 178.550781 L 191.5 178.550781 C 190.898438 178.550781 190.5 179.25 190.300781 179.300781 C 190.101562 179.351562 189.800781 179.199219 189.550781 179.300781 C 189.351562 179.300781 189.050781 179.550781 188.851562 179.550781 C 188.714844 179.550781 188.601562 179.484375 188.5 179.351562 C 188.25 179.199219 187.75 179.148438 187.5 179.050781 C 187.300781 179.050781 187 179.25 186.898438 179.199219 C 186.75 179.101562 187.050781 178.699219 186.601562 178.5 L 186.25 177.648438 C 186.449219 177.148438 186.535156 176.632812 186.5 176.101562 C 186.398438 175.550781 185.5 175.101562 185.300781 174.601562 C 185.148438 174.300781 185 173.398438 184.648438 173.199219 C 184.265625 172.910156 183.957031 172.535156 183.75 172.101562 C 183.75 172 183.898438 171.800781 183.75 171.601562 C 183.550781 171.464844 183.382812 171.300781 183.25 171.101562 C 183.199219 170.898438 183.25 170.199219 183 170.050781 C 182.75 169.898438 181 169.648438 180.5 169.601562 C 180.300781 169.601562 180.132812 169.550781 180 169.449219 L 179.699219 169.101562 L 179.199219 169.199219 C 179 169.167969 178.832031 169.167969 178.699219 169.199219 C 178.148438 169.550781 178 170.050781 177.449219 170.5 C 176.898438 170.898438 176.300781 170.898438 175.75 171.351562 C 175.398438 171.648438 175.148438 172.398438 174.800781 172.75 C 174.648438 172.898438 174.449219 172.75 174.398438 172.800781 C 174.066406 173.132812 173.734375 173.433594 173.398438 173.699219 C 173.398438 173.800781 173.367188 173.882812 173.300781 173.949219 L 172.648438 174.148438 L 172.050781 174.148438 C 171.800781 174.25 171.800781 174.550781 170.800781 174.75 L 170.550781 174.898438 L 170.25 175.148438 L 169.800781 175.148438 C 169.550781 175.148438 169.398438 175.398438 169.199219 175.398438 C 168.699219 175.5 167.800781 175.148438 167.398438 175.351562 C 167.148438 175.398438 166.5 176.199219 166.25 176.25 C 166.117188 176.285156 165.949219 176.265625 165.75 176.199219 L 165.449219 177.300781 L 164.25 178.351562 C 164.148438 178.515625 164.015625 178.683594 163.851562 178.851562 C 163.683594 179.015625 163.515625 179.101562 163.351562 179.101562 C 163.050781 179.035156 162.785156 178.964844 162.550781 178.898438 C 162.148438 178.800781 160.898438 178.75 160.550781 178.851562 C 160.101562 178.898438 160.25 180.050781 159.25 180.148438 L 157.601562 180.351562 C 157.550781 180.351562 157.199219 180.148438 156.851562 180.199219 C 156.699219 180.25 156.300781 180.699219 156.300781 180.800781 L 156.300781 181.050781 L 156.398438 181.25 C 156.199219 181.5 155.699219 181.898438 155.550781 182.25 L 155.351562 182.449219 C 155.25 182.550781 154.550781 182.800781 154.5 182.898438 C 154.351562 183.300781 155 183.699219 154.898438 183.851562 C 154.75 184.351562 154.050781 184.851562 153.800781 185.351562 C 153.75 185.550781 154.050781 186.199219 154.050781 186.398438 C 153.882812 187.101562 153.800781 187.785156 153.800781 188.449219 L 153.898438 189.300781 L 154.25 189.550781 L 155.148438 191.351562 C 155.300781 192.449219 153.648438 192.050781 154.648438 193.148438 C 154.714844 193.351562 154.851562 193.515625 155.050781 193.648438 L 156.449219 194.800781 C 156.449219 195 155.449219 195.148438 155.300781 195.300781 C 154.800781 195.800781 154.449219 196.601562 154 197.101562 C 153.699219 197.351562 153.5 197.050781 153.101562 197.75 C 153 198 153.101562 198.550781 152.949219 198.75 C 152.699219 198.949219 152.550781 198.648438 152.300781 198.75 C 152.199219 198.75 152.148438 199.101562 152.050781 199.148438 C 151.800781 199.398438 149.449219 200.648438 149.25 200.5 C 149.148438 200.449219 149 200.050781 149 199.949219 C 148.964844 199.75 148.867188 199.582031 148.699219 199.449219 C 148.101562 198.949219 147.199219 198.800781 146.601562 199.449219 C 146.5 199.648438 146.382812 199.816406 146.25 199.949219 L 145.25 200.75 L 145 201 C 144.75 201 144.199219 200.351562 144 200.148438 C 143.800781 199.851562 143 199.148438 142.949219 198.800781 C 142.949219 197.601562 142 196.351562 141.648438 195.199219 L 142.199219 195.199219 C 142.851562 194.75 142.699219 193.699219 143.851562 194.101562 C 144 193.898438 144 193.699219 144.25 193.601562 C 144.382812 193.535156 144.5 193.449219 144.601562 193.351562 C 145 192.75 145.449219 190.449219 145.050781 189.851562 C 144.699219 189.351562 144.300781 189.351562 144.050781 188.5 C 144.015625 188.265625 144.015625 188 144.050781 187.699219 L 143.550781 186.148438 C 143.382812 186.015625 143.265625 185.898438 143.199219 185.800781 L 143.101562 184.25 C 142.75 183.148438 141.398438 182.5 141.351562 182.351562 L 140.851562 181.5 C 140.714844 181.199219 140.617188 180.933594 140.550781 180.699219 C 140.5 180.550781 140.25 180.398438 140.25 180.25 C 140.25 179.949219 141.050781 179.398438 141 178.898438 C 141 178.75 140.5 178.25 140.601562 178 C 140.699219 177.75 141.199219 177.101562 141.199219 176.75 C 141.199219 176.351562 140.398438 175.449219 140.300781 175.050781 C 140.25 174.800781 140.601562 174.648438 140.5 174.5 C 140.398438 174.351562 139.601562 173.550781 139.5 173.351562 C 139.351562 173.199219 139.75 173 139.5 172.699219 C 139.199219 172.449219 139.449219 172.5 139.351562 172.300781 C 139.214844 172.066406 139.050781 171.816406 138.851562 171.550781 C 138.75 171.300781 138.050781 168.800781 138.101562 168.648438 C 137.933594 168.515625 137.785156 168.351562 137.648438 168.148438 L 137.449219 167.550781 C 137.449219 167.550781 136.648438 167.300781 136.5 167.050781 C 136.398438 166.898438 136.351562 166.25 136.148438 165.949219 C 136.015625 165.851562 135.898438 165.785156 135.800781 165.75 C 135.734375 165.648438 135.683594 165.535156 135.648438 165.398438 C 135.398438 165.101562 134.949219 165.398438 134.648438 164.199219 C 134.183594 163.933594 133.785156 163.632812 133.449219 163.300781 L 133.25 163.101562 C 132.917969 163.035156 132.582031 162.917969 132.25 162.75 C 132.101562 162.75 131.351562 162.75 131.25 162.648438 L 131.050781 162.25 C 130.648438 162.199219 129.949219 162.25 129.601562 161.949219 C 129.351562 161.699219 129.300781 160.550781 128.800781 160.699219 L 128.601562 160.699219 C 128.25 160.199219 127.148438 160.199219 126.699219 159.898438 C 126.601562 159.851562 126.199219 159.898438 126.199219 159.800781 L 126.25 159.148438 L 125.699219 158.449219 C 125.25 158.351562 125.398438 158.300781 125.199219 158.148438 C 124.449219 158.148438 124.351562 158.25 123.898438 158.648438 C 123.765625 158.75 123.601562 158.816406 123.398438 158.851562 C 123.148438 159 123.101562 159.449219 122.75 159.25 L 122.449219 159 C 122.25 158.800781 122.148438 158.898438 122.050781 158.601562 C 121.449219 158.25 119.800781 159.351562 119.449219 158.601562 C 119.148438 158.449219 118.949219 158.601562 118.699219 158.398438 C 118.601562 158.300781 119.050781 156.898438 117.851562 156.398438 L 118.648438 155.851562 C 118.714844 155.648438 118.714844 155.484375 118.648438 155.351562 C 118.648438 155.101562 118.800781 154.648438 118.75 154.5 C 118.683594 154.367188 118.601562 154.199219 118.5 154 C 118.464844 153.832031 118.433594 153.632812 118.398438 153.398438 L 118 153.199219 C 117.667969 153 117.382812 152.765625 117.148438 152.5 L 116.949219 152.25 C 116.75 152.101562 116.050781 151.851562 116.050781 151.550781 C 116.117188 151.484375 116.183594 151.398438 116.25 151.300781 C 116.25 151.132812 116.300781 151 116.398438 150.898438 C 116.699219 150.398438 117.449219 150.648438 117.351562 149.800781 C 117.300781 149.398438 117 149.101562 116.949219 148.699219 C 116.851562 148.601562 116.765625 148.484375 116.699219 148.351562 C 115.949219 148.300781 116.050781 147.550781 115.800781 147.351562 C 115.050781 146.851562 114.449219 147.148438 115.300781 146.148438 C 115.398438 145.800781 114.550781 145.25 114.398438 145.101562 C 114.101562 144.800781 114.25 144.148438 114.101562 143.851562 C 114.101562 143.699219 113.550781 143.398438 113.398438 143.199219 L 113.148438 142.699219 L 113.148438 142.648438 C 113.285156 142.449219 113.285156 142.285156 113.148438 142.148438 C 113.101562 142 112.851562 142.050781 112.800781 141.949219 C 112.132812 141.417969 111.316406 141 110.351562 140.699219 C 110.101562 140.601562 110.199219 140.398438 109.949219 140.300781 L 108.449219 139.699219 C 108.351562 139.699219 108.25 139.148438 108.148438 138.949219 L 107.699219 138.449219 C 107.699219 137.949219 107.398438 137.949219 107 137.648438 L 107 137.351562 L 107.300781 136.300781 C 107.351562 136.101562 107.601562 135.898438 107.550781 135.699219 L 107.351562 134.550781 C 106.949219 133.550781 106.5 133.648438 106.75 132.300781 C 106.683594 132.035156 106.734375 131.800781 106.898438 131.601562 L 107 131.449219 L 107.601562 131 C 107.800781 130.699219 107.949219 130.050781 108.199219 129.851562 L 109.101562 129.25 C 109.199219 129.148438 109.300781 128.800781 109.25 128.648438 C 109.050781 128.582031 108.851562 128.550781 108.648438 128.550781 C 108.515625 128.484375 108.332031 128.417969 108.101562 128.351562 C 108.035156 128.285156 107.984375 128.199219 107.949219 128.101562 L 107.851562 128 C 107.582031 127.964844 107.351562 127.882812 107.148438 127.75 C 106.882812 127.683594 106.601562 127.601562 106.300781 127.5 C 105.800781 127.25 105.300781 126.5 104.851562 126.398438 C 104.25 126.25 103.851562 126.449219 103.25 126.5 C 102.898438 126.5 102.898438 126.300781 102.601562 126.199219 C 102.199219 126.050781 102.5 126.398438 101.601562 126.101562 C 101.449219 126 101.601562 125.699219 101.601562 125.601562 L 101.101562 125.601562 C 100.398438 125.398438 100.648438 124.699219 100.449219 124.25 C 100.398438 124.148438 100.050781 124.148438 99.949219 124.148438 C 99.882812 124.117188 99.851562 124.082031 99.851562 124.050781 L 99.949219 124 C 100.050781 123.800781 99.601562 123.300781 99.601562 123.199219 C 99.648438 123.050781 100.601562 122.898438 100.699219 122.898438 C 100.699219 122.765625 100.667969 122.648438 100.601562 122.550781 C 100.632812 122.285156 100.714844 122 100.851562 121.699219 L 100.851562 121.601562 C 100.550781 121.449219 100.5 121.25 100.25 121.101562 C 100.285156 120.964844 100.351562 120.851562 100.449219 120.75 C 100.898438 119.5 101.601562 120.5 102.199219 119.351562 C 102.300781 119.214844 102.398438 119.035156 102.5 118.800781 L 102.601562 118.800781 C 102.734375 118.832031 102.867188 118.832031 103 118.800781 C 103.101562 118.734375 103.234375 118.683594 103.398438 118.648438 L 103.648438 118.648438 C 104.75 118.449219 104.5 118.050781 105.148438 117.601562 C 105.351562 117.449219 105.851562 117.398438 106.050781 117.300781 C 106.285156 117.5 106.632812 117.734375 107.101562 118 C 107.449219 118.101562 108.601562 118.351562 108.800781 118.5 C 109.050781 118.601562 109.101562 118.898438 109.300781 119 C 109.949219 119.398438 109.550781 118.800781 110.199219 118.898438 C 110.851562 119 111.351562 119.601562 111.949219 119.851562 L 112.449219 119.800781 C 112.601562 119.75 113.601562 119.550781 113.699219 119.601562 L 114.101562 119.75 C 114.25 119.800781 114.351562 119.5 114.5 119.5 C 114.898438 119.601562 114.898438 119.75 115.5 119.699219 C 115.5 119.699219 115.800781 118.050781 116.101562 118 C 116.25 117.949219 116.699219 118.351562 116.800781 118.398438 C 117 118.449219 116.800781 118.050781 116.800781 118.050781 C 116.699219 117.898438 116.398438 116.898438 116.449219 116.800781 C 116.515625 116.832031 116.648438 116.851562 116.851562 116.851562 C 117.183594 116.785156 117.515625 116.632812 117.851562 116.398438 L 118.351562 115.648438 C 118.398438 115.550781 118.25 115.25 118.351562 115.148438 L 118.800781 114.851562 C 119 114.648438 119 114.351562 119.300781 114.199219 C 120.300781 114.101562 120.648438 113.300781 121.601562 113.199219 L 121.898438 113.199219 L 122.101562 113.5 C 122.101562 113.550781 122.75 113.949219 122.851562 113.898438 C 122.949219 113.867188 123.035156 113.800781 123.101562 113.699219 C 123.25 113.75 123.800781 113.449219 123.851562 113.25 C 123.816406 113.25 123.800781 113.148438 123.800781 112.949219 L 124.601562 112.351562 L 125.300781 112.351562 C 125.367188 112.484375 125.449219 112.582031 125.550781 112.648438 L 126.148438 112.648438 C 126.25 112.648438 126.300781 112.398438 126.5 112.398438 "/>
<path style=" stroke:none;fill-rule:nonzero;fill:rgb(100%,100%,100%);fill-opacity:1;" d="M 175.949219 36.699219 L 184 61.5 L 162.898438 46.148438 L 189 46.148438 L 167.898438 61.5 Z M 207.351562 42.25 L 215.351562 67.050781 L 194.300781 51.699219 L 220.351562 51.699219 L 199.25 67.050781 Z M 237.300781 53.148438 L 245.300781 77.949219 L 224.25 62.601562 L 250.300781 62.601562 L 229.199219 78 L 237.300781 53.199219 Z M 144.050781 36.699219 L 136 61.5 L 157.101562 46.148438 L 131 46.148438 L 152.101562 61.5 Z M 112.648438 42.25 L 104.648438 67.050781 L 125.699219 51.699219 L 99.648438 51.699219 L 120.75 67.050781 Z M 82.851562 53.148438 L 90.949219 77.949219 L 69.851562 62.601562 L 95.898438 62.601562 L 74.800781 77.949219 Z M 82.851562 53.148438 "/>
</g>
</svg>
