<?xml version="1.0" encoding="UTF-8"?>
<svg xmlns="http://www.w3.org/2000/svg" xmlns:xlink="http://www.w3.org/1999/xlink" width="px" height="px" viewBox="0 0 320 240" version="1.1">
<g id="surface1">
<rect x="0" y="0" width="320" height="240" style="fill:rgb(9.803922%,54.11765%,0%);fill-opacity:1;stroke:none;"/>
<path style=" stroke:none;fill-rule:evenodd;fill:rgb(93.725491%,49.019608%,0%);fill-opacity:1;" d="M 277.765625 86.25 L 320 86.25 L 320 240 L 277.765625 240 Z M 277.765625 86.25 "/>
<path style=" stroke:none;fill-rule:evenodd;fill:rgb(0%,0%,0.392157%);fill-opacity:1;" d="M 235.578125 86.15625 L 277.765625 86.15625 L 277.765625 239.90625 L 235.578125 239.90625 Z M 235.578125 86.15625 "/>
<path style=" stroke:none;fill-rule:evenodd;fill:rgb(87.058824%,12.54902%,6.27451%);fill-opacity:1;" d="M 192.5 86.25 L 235.578125 86.25 L 235.578125 240 L 192.453125 240 Z M 192.5 86.25 "/>
<path style="fill-rule:evenodd;fill:rgb(93.725491%,49.019608%,0%);fill-opacity:1;stroke-width:1;stroke-linecap:butt;stroke-linejoin:round;stroke:rgb(0%,0%,0%);stroke-opacity:1;stroke-miterlimit:4;" d="M 451.6 65.6 C 451.6 65.6 485.6 51.1 488.8 48.1 C 490.3 49.9 475.2 68.1 445.9 74.8 C 472.5 68.6 495.2 48.8 499.9 49.4 C 501.2 49.7 500.9 68.7 439.9 85.2 C 482.1 74.2 506.6 53.8 506.3 56 C 506.6 56.5 502.1 72 465.2 84.1 C 475.5 81.7 503.5 64.7 503.2 68 C 504.1 69.3 476.2 105.2 425.6 93.5 C 466 104 492.1 78.7 495.8 79.2 C 496.6 79.3 488.4 101.2 437.6 102.6 C 461.9 100.1 454.9 102.5 454.9 102.5 C 454.9 102.5 440.6 113.7 423.2 106.1 C 436.8 109.8 438.3 110 438.6 111.1 C 437.7 112.7 426.6 114.9 415.7 109.1 C 424.4 112.7 432.2 113.3 432.3 114.6 C 432.2 115 426.7 118.2 421.7 115.9 C 416.7 113.6 371.4 85.8 371.4 85.8 L 448.8 64.5 L 451.6 65.5 Z M 360.6 141.2 C 353.8 141.2 353.6 147.2 353.6 147.2 C 353.6 147.2 353.1 147.7 353.4 150.6 L 355.1 148 C 355.9 148.1 359 149 363.9 145.2 C 359.4 149.9 362.1 151.6 362.1 151.6 C 362.1 151.6 361.1 155.3 364.5 156 C 363.5 154.5 364.1 153.2 364.1 153.2 C 364.1 153.2 368.9 152.7 368.6 146.9 C 368.7 152.2 371.6 153.5 371.6 153.5 C 371.6 153.5 371.6 156.4 374.7 156.7 C 373.1 155.2 373.4 152.9 373.4 152.9 C 373.4 152.9 377.4 149.9 374.1 144.9 C 376.1 143.7 377.8 140.4 377.8 140.4 C 377.8 140.4 375 139.2 373.7 138.2 C 373.1 136.9 373.7 129.7 373.7 129.7 L 371.9 120.4 L 367.1 134.9 C 367.3 132.9 367.4 141.2 360.6 141.2 Z M 360.6 141.2 " transform="matrix(0.46875,0,0,0.46875,80,0)"/>
<path style="fill-rule:evenodd;fill:rgb(93.725491%,49.019608%,0%);fill-opacity:1;stroke-width:1;stroke-linecap:butt;stroke-linejoin:round;stroke:rgb(0%,0%,0%);stroke-opacity:1;stroke-miterlimit:4;" d="M 394.2 120.3 C 394.4 120.4 399.3 125.9 404.1 125.6 C 405.9 124.1 400.4 120.9 400.4 120.1 C 402.4 121.9 410.5 128.9 415.8 126.4 C 417.8 123.4 412 123.9 405.6 115.8 C 410.1 118.8 421.3 125.3 426.6 122.8 C 428.7 120.4 414.9 112.9 410.2 107.1 L 398.2 101 L 382 114.3 L 394.3 120.3 Z M 394.2 120.3 " transform="matrix(0.46875,0,0,0.46875,80,0)"/>
<path style="fill-rule:evenodd;fill:rgb(93.725491%,49.019608%,0%);fill-opacity:1;stroke-width:1;stroke-linecap:round;stroke-linejoin:round;stroke:rgb(0%,0%,0%);stroke-opacity:1;stroke-miterlimit:4;" d="M 375.9 74.8 C 375.9 74.8 381.4 71.6 403.5 73.2 C 405.9 73.5 418.5 68.9 422.6 67.5 C 429 66.3 449.6 61.9 455 57.7 C 459 57.2 454 64.8 449 66.7 C 443.8 69 424.9 75.6 418.1 74.7 C 426.2 74.8 421.7 81.4 408.3 78.3 C 414.7 81.9 412.3 82.5 412.3 82.5 C 412.3 82.5 401 83.1 398 80.5 C 405.6 83.4 402.4 84.5 402.4 84.5 C 402.4 84.5 394.7 85.2 391.1 83.5 C 396.6 85.2 393.8 86.2 393.8 86.2 C 393.8 86.2 389.3 87 385.6 85.6 C 381.8 84.3 376.2 74.9 375.9 74.9 Z M 375.9 74.8 " transform="matrix(0.46875,0,0,0.46875,80,0)"/>
<path style="fill-rule:evenodd;fill:rgb(93.725491%,49.019608%,0%);fill-opacity:1;stroke-width:1;stroke-linecap:butt;stroke-linejoin:round;stroke:rgb(0%,0%,0%);stroke-opacity:1;stroke-miterlimit:4;" d="M 384.7 123.4 L 385.5 138 L 384.7 139.2 C 384.4 139.6 374.4 137.6 375.7 145.2 C 375.7 148.4 375.7 149.2 377.9 150.9 C 377.4 148.9 377.5 147.4 377.5 147.4 C 377.5 147.4 380.4 149.1 383.1 144.4 C 381.2 149 382.5 150.7 383 150.8 C 383.4 151.6 382.2 155.3 386 155.2 C 384.5 153.8 385.2 151.8 385.2 151.8 C 385.2 151.8 389.2 151.2 387.8 144.1 C 389.2 142.7 389.8 144.1 389.8 144.1 C 389.8 144.1 390.2 148.3 393.7 147.4 C 395.2 148.3 393.4 150.6 393.4 150.6 C 393.4 150.6 395.9 150.6 396.7 148.6 C 397.4 146.4 398.3 142.6 394.2 141 C 393.7 139.5 395.8 139.4 395.8 139.4 C 395.8 139.4 398.4 140.3 399.2 141.6 C 400 142.9 399.7 138.2 396.4 137.6 C 392.4 137.6 392.2 136.7 392.2 136.6 L 391.2 122.9 Z M 384.7 123.4 " transform="matrix(0.46875,0,0,0.46875,80,0)"/>
<path style="fill-rule:evenodd;fill:rgb(93.725491%,49.019608%,0%);fill-opacity:1;stroke-width:1.1;stroke-linecap:round;stroke-linejoin:round;stroke:rgb(0%,0%,0%);stroke-opacity:1;stroke-miterlimit:4;" d="M 398.6 135.8 C 398.6 135.1 391.8 125.9 393.6 124.8 C 395.3 125.1 398.1 129.3 400.5 127.9 C 399.8 126.3 397.7 127.2 395.4 123 C 393 118.2 392.7 111.1 384.4 103.4 C 389.8 111.6 401.8 116.4 402.4 114 C 403 111.6 391.7 102.6 392.3 100.4 C 394.5 104.8 405.7 114.8 413.9 114 C 414.5 112 407.2 108.2 405.3 104.6 C 400 101 385.9 88.9 385.7 86.1 C 383.225 81.875 379.841667 78.258333 375.8 75.5 L 375 73.8 C 371.8 66.3 376 63.8 378.5 63.5 C 380.5 63.2 381.1 63.5 382.5 62.8 L 377.4 60.8 C 379.7 62.5 385.4 61 384.2 65.8 C 386.7 64.8 392.1 58.4 378.1 57 C 373.5 51.8 354.8 48.8 350.1 71.6 C 350.5 71.9 350.7 72.2 351.9 73 C 345.9 70.2 330 68 324.3 67 C 308.7 62.6 292.6 51.8 291.1 53.1 C 289.1 54.1 300.5 64.7 299.9 64.9 C 291.008333 59.833333 281.825 55.291667 272.4 51.3 C 266.4 49.1 260.5 43.9 259.9 44.9 C 257.7 49.4 269.4 60.8 271.6 62.1 C 273.8 63.4 290.9 71.4 290.6 71.5 C 264.8 59.8 260.6 57.6 259.2 56.3 C 256.9 55.8 251.4 48.3 249.9 48.8 C 249 49.6 250.7 61.4 263 66.8 C 265 68.2 289.4 76.9 289.2 77.6 C 289.2 77.8 261.2 66.1 260.2 65.6 C 254.8 63.6 248.2 56.2 247 57 C 245.8 57.8 250 65.8 255.4 68.3 C 258.3 69.5 269.2 74.9 279 78.3 C 279.6 78.6 261.3 71.4 252.5 67.8 C 248.5 65.6 246.7 62.8 246.1 63.4 C 245.1 64 247.5 75.8 275.8 82.4 C 276.5 82.8 285.8 80.3 285.3 80.6 C 280.108333 81.908333 274.825 82.841667 269.5 83.4 C 269.2 84.2 271.3 88.4 285.9 87.6 C 287.7 87.5 297.9 83.9 297 84.6 C 292.141667 86.45 287.2 88.091667 282.2 89.5 C 281.3 89.5 276.6 90.1 276.4 90.5 C 276.2 91.3 279.9 94.3 287.7 94.7 C 294.7 95.1 307.9 90.5 307.7 90.8 C 307.3 91.1 294.9 95.4 294.6 95.6 C 294.1 95.9 289.6 96.1 289.4 96.5 C 289 97.4 296 103.9 316.5 96.9 C 314.5 99.7 304.5 101.6 304.5 102.1 C 304.5 102.6 306.7 104.6 310.2 105.4 C 311.9 105.8 314.3 105.7 316.5 105.4 C 320.5 104.6 324.5 103.1 329.8 98.2 C 330.4 99.7 316.7 106.7 317.3 107.3 C 320.3 110.1 330.2 107 330.8 106.6 C 331.5 106.3 349.8 95.9 349.8 94.6 C 350.1 96.2 326.1 109.3 326.4 109.8 C 327.9 112.2 336.1 109.7 336.4 109.4 L 347.2 103.6 C 347.5 103.5 335.4 110.6 336.4 111.8 C 335.9 116.5 355.4 108.6 356.9 107.6 C 357.6 107.1 347.5 112 347.5 114.3 C 350.8 119.8 361.2 118.1 362.8 116.9 C 363.6 116.3 361.8 120.9 362.4 120.5 C 363.633333 119.241667 364.641667 117.791667 365.4 116.2 C 365.2 117.8 364 120.2 363.4 123 C 362.8 125.8 362.5 128.9 361.6 132.2 C 361.4 133.6 368 129.3 367 119 C 367.6 124.4 365 134.4 365.7 135 C 367 136 370.9 130 371.3 125.9 C 372.4 127.9 374.8 132.2 376.9 133.2 C 376.7 130.1 376.9 130.2 375.9 127.2 C 376.433333 123 376.7 117.633333 376.7 111.1 C 382.3 121.8 384.6 126.4 383 134.6 C 384.7 135.3 387.3 128.8 387.1 125.6 C 388.3 131.141667 392.95 135.275 398.6 135.8 " transform="matrix(0.46875,0,0,0.46875,80,0)"/>
<path style="fill-rule:evenodd;fill:rgb(93.725491%,49.019608%,0%);fill-opacity:1;stroke-width:1.1;stroke-linecap:round;stroke-linejoin:round;stroke:rgb(0%,0%,0%);stroke-opacity:1;stroke-miterlimit:4;" d="M 305.4 67.7 C 305.4 67.7 301.5 70.6 296.8 70.4 C 298 75.2 307.8 71.5 307.8 71.5 C 307.8 71.5 303.1 76.8 299.7 77.6 C 301.7 79.3 310.3 78.7 311.7 77.9 C 313.1 77.1 315.7 73.7 315.7 73.7 C 315.7 73.7 306.9 83.9 305.7 83.8 C 305.4 85 314.8 84.6 316.7 82.8 C 318.6 81 323.7 78.4 323.7 78.4 C 323.7 78.4 310.7 87.4 310.2 87.4 C 315 88.6 324.7 85.8 330.9 82 C 321.7 88.1 320.9 89.2 316.2 91.3 C 320.4 92.2 322.5 95 336.5 88.9 C 344.5 85.1 349.1 78.1 349.1 78.1 C 342.991667 85.3 335.683333 91.391667 327.5 96.1 C 327 97.1 336.9 101.3 349.4 88.2 " transform="matrix(0.46875,0,0,0.46875,80,0)"/>
<path style="fill-rule:evenodd;fill:rgb(93.725491%,49.019608%,0%);fill-opacity:1;stroke-width:1.1;stroke-linecap:round;stroke-linejoin:miter;stroke:rgb(0%,0%,0%);stroke-opacity:1;stroke-miterlimit:4;" d="M 373.4 96 C 373.4 96 374.3 100 377.7 103 C 381.1 106 381.3 109 381.3 109 M 371.8 70 C 371.8 70 372.9 73.7 376.4 76 C 380 78.2 385.4 85.4 385.7 86.7 C 386.1 88.2 388.2 99.3 388 100.5 M 350.2 75.5 C 350.4 77 345.2 83.8 352.4 91.9 C 345.8 99.9 345.8 100.9 345.8 100.9 C 345.8 100.9 349.5 102.9 356 97.3 C 366.8 110.5 363.2 116.5 363.2 116.5 " transform="matrix(0.46875,0,0,0.46875,80,0)"/>
<path style="fill-rule:evenodd;fill:rgb(93.725491%,49.019608%,0%);fill-opacity:1;stroke-width:1.1;stroke-linecap:round;stroke-linejoin:round;stroke:rgb(0%,0%,0%);stroke-opacity:1;stroke-miterlimit:4;" d="M 362.3 107.2 C 362.3 107.2 361.3 105.8 363.1 100.5 C 364.7 102.5 366.5 102.8 367.2 103.5 C 368 104.4 376.2 105.5 376.6 111 " transform="matrix(0.46875,0,0,0.46875,80,0)"/>
<path style="fill-rule:evenodd;fill:rgb(93.725491%,49.019608%,0%);fill-opacity:1;stroke-width:1.1;stroke-linecap:butt;stroke-linejoin:miter;stroke:rgb(0%,0%,0%);stroke-opacity:1;stroke-miterlimit:4;" d="M 371.9 57.5 C 371.9 57.1 370.2 53.5 364.1 57.9 C 367.4 58.1 370.6 60 371.9 57.5 Z M 371.9 57.5 " transform="matrix(0.46875,0,0,0.46875,80,0)"/>
<path style="fill-rule:evenodd;fill:rgb(93.725491%,49.019608%,0%);fill-opacity:1;stroke-width:1.1;stroke-linecap:butt;stroke-linejoin:round;stroke:rgb(0%,0%,0%);stroke-opacity:1;stroke-miterlimit:4;" d="M 430.1 73.5 C 430.4 73.7 448.3 77.5 454.3 75.6 C 446.7 85.8 431.4 78.9 431.4 78.9 C 438.9 81.1 439.2 80.9 441.6 83.1 C 442.4 85.1 427.8 84.1 423.1 81.4 C 436.4 85.6 436.7 85.4 437.1 86.9 C 437.7 89.2 415.3 86.3 413.4 83.4 C 419.4 88 422.6 88.9 425.9 91 C 421.9 92.8 414.4 94.6 400.7 84.9 C 418.7 101.3 435 100.3 437.6 103.2 C 431.3 112.5 406.9 97.7 395.7 90.2 C 384.5 82.7 420.2 108.3 423.5 107.9 C 421.9 110.4 410.1 108.2 409.3 106.9 " transform="matrix(0.46875,0,0,0.46875,80,0)"/>
<path style="fill-rule:evenodd;fill:rgb(93.725491%,49.019608%,0%);fill-opacity:1;stroke-width:1.1;stroke-linecap:round;stroke-linejoin:miter;stroke:rgb(0%,0%,0%);stroke-opacity:1;stroke-miterlimit:4;" d="M 434.7 90.7 C 432.7 91 426.4 91 425.5 90.8 " transform="matrix(0.46875,0,0,0.46875,80,0)"/>
<path style="fill-rule:evenodd;fill:rgb(93.725491%,49.019608%,0%);fill-opacity:1;stroke-width:1.1;stroke-linecap:round;stroke-linejoin:round;stroke:rgb(0%,0%,0%);stroke-opacity:1;stroke-miterlimit:4;" d="M 300.1 65 C 300.1 65 313.7 72.2 319.5 71.7 C 318.391667 72.633333 317.1 73.316667 315.7 73.7 C 317.1 74.3 321.1 76.4 327.1 75.1 L 323.8 78.1 C 323.8 78.1 329 80.1 334.8 77.1 L 332 80.8 L 336.1 81.1 " transform="matrix(0.46875,0,0,0.46875,80,0)"/>
</g>
</svg>
