<?xml version="1.0" encoding="UTF-8"?>
<svg xmlns="http://www.w3.org/2000/svg" xmlns:xlink="http://www.w3.org/1999/xlink" width="px" height="px" viewBox="0 0 320 240" version="1.1">
<defs>
<clipPath id="clip1">
  <path d="M 0 0.0078125 L 319.972656 0.0078125 L 319.972656 240 L 0 240 Z M 0 0.0078125 "/>
</clipPath>
<clipPath id="clip2">
  <path d="M 0 34 L 319.972656 34 L 319.972656 206 L 0 206 Z M 0 34 "/>
</clipPath>
<clipPath id="clip3">
  <path d="M 0 68 L 319.972656 68 L 319.972656 172 L 0 172 Z M 0 68 "/>
</clipPath>
<clipPath id="clip4">
  <path d="M 0 102 L 319.972656 102 L 319.972656 138 L 0 138 Z M 0 102 "/>
</clipPath>
<clipPath id="clip5">
  <path d="M 0 0.0078125 L 163 0.0078125 L 163 240 L 0 240 Z M 0 0.0078125 "/>
</clipPath>
<clipPath id="clip6">
  <path d="M 0 0.0078125 L 230 0.0078125 L 230 240 L 0 240 Z M 0 0.0078125 "/>
</clipPath>
<clipPath id="clip7">
  <path d="M 0 0.0078125 L 163 0.0078125 L 163 240 L 0 240 Z M 0 0.0078125 "/>
</clipPath>
</defs>
<g id="surface1">
<g clip-path="url(#clip1)" clip-rule="nonzero">
<path style=" stroke:none;fill-rule:nonzero;fill:rgb(0%,39.215687%,0%);fill-opacity:1;" d="M -1.148438 -0.0507812 L 491.175781 -0.0507812 L 491.175781 239.894531 L -1.148438 239.894531 Z M -1.148438 -0.0507812 "/>
</g>
<g clip-path="url(#clip2)" clip-rule="nonzero">
<path style=" stroke:none;fill-rule:nonzero;fill:rgb(100%,82.352942%,0%);fill-opacity:1;" d="M -1.148438 34.226562 L 491.175781 34.226562 L 491.175781 205.617188 L -1.148438 205.617188 Z M -1.148438 34.226562 "/>
</g>
<g clip-path="url(#clip3)" clip-rule="nonzero">
<path style=" stroke:none;fill-rule:nonzero;fill:rgb(83.137256%,0%,0%);fill-opacity:1;" d="M -1.148438 68.507812 L 491.175781 68.507812 L 491.175781 171.339844 L -1.148438 171.339844 Z M -1.148438 68.507812 "/>
</g>
<g clip-path="url(#clip4)" clip-rule="nonzero">
<path style=" stroke:none;fill-rule:nonzero;fill:rgb(0%,0%,0.392157%);fill-opacity:1;" d="M -1.148438 102.785156 L 491.175781 102.785156 L 491.175781 137.0625 L -1.148438 137.0625 Z M -1.148438 102.785156 "/>
</g>
<g clip-path="url(#clip5)" clip-rule="nonzero">
<path style=" stroke:none;fill-rule:nonzero;fill:rgb(0%,0%,0%);fill-opacity:1;" d="M -1.148438 -0.0507812 L -1.148438 239.894531 L 162.957031 119.921875 Z M -1.148438 -0.0507812 "/>
</g>
<g clip-path="url(#clip6)" clip-rule="nonzero">
<path style="fill:none;stroke-width:20;stroke-linecap:butt;stroke-linejoin:miter;stroke:rgb(0%,0%,0%);stroke-opacity:1;stroke-miterlimit:4;" d="M 0.00266589 -0.00136749 L 0.00266589 419.997407 L 279.998356 209.99802 Z M 0.00266589 -0.00136749 " transform="matrix(0.5861,0,0,0.5713,-1.15,-0.05)"/>
</g>
<g clip-path="url(#clip7)" clip-rule="nonzero">
<path style=" stroke:none;fill-rule:nonzero;fill:rgb(100%,100%,100%);fill-opacity:1;" d="M -1.148438 -0.0507812 L -1.148438 239.894531 L 162.957031 119.921875 Z M -1.148438 -0.0507812 "/>
</g>
<path style=" stroke:none;fill-rule:nonzero;fill:rgb(83.137256%,0%,0%);fill-opacity:1;" d="M 61.269531 59.59375 L 93.796875 157.113281 L 8.695312 96.84375 L 113.902344 96.84375 L 28.742188 157.113281 Z M 61.269531 59.59375 "/>
<path style=" stroke:none;fill-rule:nonzero;fill:rgb(100%,80.000001%,0%);fill-opacity:1;" d="M 47.378906 144.890625 L 53.121094 143.859375 L 63.730469 143.460938 L 67.65625 143.804688 L 76.449219 145.230469 L 77.09375 144.375 L 77.09375 138.203125 L 78.148438 132.890625 L 79.90625 127.519531 L 81.839844 123.238281 L 84.304688 118.78125 L 88.289062 119.75 L 89.34375 119.75 L 89.460938 119.007812 L 81.019531 111.980469 L 72.230469 105.410156 L 59.511719 96.15625 L 58.339844 95.871094 L 56.992188 86.160156 L 55.996094 83.246094 L 54.648438 82.101562 L 52.125 81.304688 L 49.3125 81.417969 L 48.023438 82.101562 L 45.328125 82.675781 L 43.921875 82.902344 L 42.984375 83.988281 L 42.867188 85.359375 L 46.792969 85.472656 L 47.789062 85.875 L 47.671875 86.273438 L 45.445312 86.558594 L 44.390625 86.902344 L 45.621094 87.816406 L 46.910156 88.273438 L 48.550781 88.84375 L 48.902344 89.988281 L 49.019531 104.726562 L 48.140625 107.011719 L 47.847656 111.296875 L 49.136719 116.4375 L 45.855469 120.09375 L 43.980469 123.351562 L 43.628906 125.351562 L 42.632812 127.351562 L 42.515625 128.605469 L 43.160156 129.976562 L 45.679688 138.089844 L 46.96875 144.773438 Z M 47.378906 144.890625 "/>
<path style=" stroke:none;fill-rule:nonzero;fill:rgb(0%,0%,0%);fill-opacity:1;" d="M 50.425781 81.074219 C 49.371094 81.074219 48.902344 81.1875 47.90625 81.703125 C 47.078125 82.160156 46.160156 82.433594 45.210938 82.503906 C 43.746094 82.503906 42.574219 83.53125 42.574219 84.84375 L 42.574219 85.703125 L 44.683594 85.644531 C 50.894531 85.816406 45.269531 86.386719 44.800781 86.445312 C 43.277344 86.730469 45.152344 87.929688 46.96875 88.558594 C 48.902344 89.128906 48.785156 88.789062 48.785156 97.128906 C 48.785156 103.925781 48.785156 104.898438 48.199219 106.441406 C 47.4375 108.726562 47.4375 112.152344 48.199219 114.4375 C 48.550781 115.351562 48.785156 116.152344 48.785156 116.324219 C 48.785156 116.496094 47.847656 117.523438 46.734375 118.78125 C 44.683594 121.066406 43.453125 123.40625 43.453125 125.066406 C 43.378906 125.597656 43.179688 126.105469 42.867188 126.550781 C 42.105469 127.519531 42.105469 129.179688 42.808594 129.804688 C 43.570312 130.492188 46.675781 142.261719 46.734375 144.488281 C 46.734375 145.289062 46.851562 145.289062 51.597656 144.375 C 55.46875 143.632812 64.550781 143.460938 69.183594 144.03125 C 71.292969 144.316406 73.753906 144.773438 74.632812 144.945312 C 77.445312 145.6875 77.328125 145.804688 77.328125 142.488281 C 77.351562 137.269531 78.363281 132.097656 80.316406 127.234375 C 81.4375 124.464844 82.792969 121.789062 84.363281 119.238281 C 84.363281 119.238281 85.417969 119.351562 86.707031 119.695312 C 89.109375 120.265625 89.8125 120.207031 89.8125 119.125 C 89.8125 118.550781 87.292969 116.496094 74.925781 107.125 C 69.9375 103.144531 64.796875 99.355469 59.511719 95.757812 C 59.121094 95.757812 58.867188 95.625 58.75 95.355469 L 57.871094 89.929688 C 57.460938 87.128906 56.875 84.386719 56.640625 83.816406 C 55.859375 82.140625 54.179688 81.226562 51.597656 81.074219 Z M 50.484375 81.644531 L 51.65625 81.644531 C 55.527344 81.875 56.230469 82.902344 57.285156 89.644531 L 57.988281 95.015625 C 58.027344 95.433594 57.402344 96.0625 56.113281 96.898438 C 53.894531 98.417969 51.921875 100.246094 50.25 102.328125 L 49.488281 103.355469 L 49.3125 100.957031 L 49.3125 94.214844 C 49.488281 89.246094 49.3125 88.789062 47.671875 88.214844 C 46.324219 87.757812 44.566406 87.300781 45.035156 87.015625 C 45.621094 86.671875 46.207031 86.902344 47.613281 86.503906 C 48.199219 86.386719 48.140625 86.445312 48.023438 85.988281 C 47.90625 85.246094 47.085938 84.84375 44.917969 84.960938 C 43.160156 85.074219 42.984375 85.015625 43.101562 84.558594 C 43.375 83.644531 44.253906 83.09375 45.738281 82.902344 C 46.636719 82.804688 47.507812 82.554688 48.316406 82.160156 C 48.972656 81.777344 49.722656 81.578125 50.484375 81.589844 Z M 59.21875 96.386719 L 59.453125 96.386719 C 60.449219 96.558594 89.226562 118.496094 89.226562 119.125 C 89.226562 119.390625 89.03125 119.523438 88.640625 119.523438 C 88.40625 119.523438 81.078125 117.523438 72.40625 115.066406 C 58.574219 111.066406 56.582031 110.496094 55.996094 109.753906 C 55.136719 108.730469 55.113281 107.261719 55.9375 106.210938 C 56.21875 105.878906 56.417969 105.488281 56.523438 105.070312 C 56.523438 104.382812 55.058594 106.097656 54.765625 107.070312 C 54.472656 108.210938 55.058594 110.152344 55.9375 110.78125 C 56.289062 111.066406 58.925781 111.925781 61.796875 112.78125 C 66.71875 114.152344 67.070312 114.324219 67.304688 115.125 C 67.890625 117.007812 65.839844 119.238281 62.910156 119.867188 C 61.8125 120.128906 60.777344 120.59375 59.863281 121.238281 C 56.824219 123.691406 53.425781 125.695312 49.78125 127.179688 C 49.546875 127.351562 49.253906 128.265625 49.078125 129.121094 C 48.726562 131.007812 48.609375 131.292969 48.023438 131.292969 C 47.710938 131.328125 47.671875 131.0625 47.90625 130.492188 C 48.316406 129.347656 48.257812 127.976562 47.847656 127.976562 C 47.574219 127.976562 47.4375 128.320312 47.4375 129.007812 C 47.4375 129.578125 47.261719 130.261719 47.027344 130.433594 C 46.734375 130.777344 46.675781 130.550781 46.792969 129.121094 C 46.910156 128.148438 46.851562 127.40625 46.734375 127.40625 C 46.441406 127.40625 45.914062 128.835938 45.738281 130.09375 C 45.660156 130.855469 45.542969 130.796875 45.386719 129.921875 C 45.210938 129.234375 45.269531 128.777344 45.796875 127.921875 C 46.128906 127.300781 46.328125 126.621094 46.382812 125.921875 C 46.382812 125.179688 46.96875 124.4375 49.722656 121.75 C 51.480469 119.980469 53.648438 117.753906 54.414062 116.78125 C 55.761719 115.179688 55.820312 115.066406 55.761719 113.410156 C 55.761719 112.496094 55.644531 111.640625 55.527344 111.523438 C 55.175781 111.183594 54.707031 113.011719 54.941406 113.980469 C 55.058594 114.894531 54.941406 115.179688 53.003906 117.410156 C 51.613281 118.960938 50.148438 120.449219 48.609375 121.867188 C 46.324219 123.921875 45.503906 125.066406 45.503906 126.09375 C 45.503906 126.4375 45.269531 127.234375 44.917969 127.976562 C 44.566406 128.722656 44.449219 129.464844 44.566406 129.636719 C 44.644531 129.824219 44.585938 129.824219 44.390625 129.636719 C 44.117188 129.40625 44.097656 128.835938 44.332031 127.921875 C 44.464844 127.4375 44.503906 126.933594 44.449219 126.4375 C 44.15625 125.863281 43.746094 126.550781 43.570312 127.976562 C 43.453125 128.777344 43.277344 129.40625 43.101562 129.292969 C 42.691406 129.0625 42.808594 127.578125 43.335938 126.777344 C 43.628906 126.378906 43.921875 125.464844 44.097656 124.722656 C 44.507812 122.609375 45.445312 120.894531 47.496094 118.609375 L 49.371094 116.4375 L 48.785156 114.554688 C 48 112.003906 47.960938 109.292969 48.667969 106.726562 C 49.410156 104.59375 50.972656 102.363281 53.355469 100.042969 C 55.703125 97.8125 57.988281 96.441406 59.21875 96.386719 M 68.011719 114.78125 C 68.160156 114.769531 68.308594 114.800781 68.421875 114.867188 C 68.535156 114.933594 68.597656 115.027344 68.597656 115.125 C 68.523438 115.261719 68.320312 115.355469 68.097656 115.355469 C 67.875 115.355469 67.671875 115.261719 67.597656 115.125 C 67.59375 114.960938 67.765625 114.816406 68.011719 114.78125 M 69.476562 114.953125 C 69.625 114.941406 69.773438 114.972656 69.886719 115.039062 C 70 115.105469 70.0625 115.199219 70.0625 115.296875 C 69.988281 115.433594 69.789062 115.527344 69.5625 115.527344 C 69.339844 115.527344 69.136719 115.433594 69.066406 115.296875 C 69.058594 115.132812 69.230469 114.988281 69.476562 114.953125 M 71 115.238281 C 71.148438 115.226562 71.296875 115.257812 71.410156 115.324219 C 71.523438 115.390625 71.585938 115.484375 71.585938 115.582031 C 71.511719 115.71875 71.3125 115.8125 71.085938 115.8125 C 70.863281 115.8125 70.664062 115.71875 70.589844 115.582031 C 70.582031 115.417969 70.753906 115.273438 71 115.238281 M 72.40625 115.523438 C 72.554688 115.511719 72.703125 115.542969 72.816406 115.609375 C 72.929688 115.675781 72.992188 115.769531 72.992188 115.867188 C 72.917969 116.003906 72.71875 116.097656 72.492188 116.097656 C 72.269531 116.097656 72.070312 116.003906 71.996094 115.867188 C 71.988281 115.703125 72.160156 115.558594 72.40625 115.523438 M 68.714844 115.867188 C 68.863281 115.855469 69.011719 115.886719 69.125 115.953125 C 69.238281 116.019531 69.300781 116.113281 69.300781 116.210938 C 69.226562 116.347656 69.027344 116.441406 68.800781 116.441406 C 68.578125 116.441406 68.375 116.347656 68.304688 116.210938 C 68.296875 116.046875 68.46875 115.902344 68.714844 115.867188 M 70.121094 116.09375 C 70.269531 116.085938 70.417969 116.117188 70.53125 116.179688 C 70.644531 116.246094 70.707031 116.339844 70.707031 116.4375 C 70.632812 116.574219 70.433594 116.667969 70.207031 116.667969 C 69.984375 116.667969 69.785156 116.574219 69.710938 116.4375 C 69.703125 116.273438 69.875 116.132812 70.121094 116.09375 M 73.167969 116.210938 C 73.316406 116.199219 73.46875 116.230469 73.578125 116.296875 C 73.691406 116.359375 73.753906 116.453125 73.753906 116.550781 C 73.679688 116.691406 73.480469 116.78125 73.253906 116.78125 C 73.03125 116.78125 72.832031 116.691406 72.757812 116.550781 C 72.75 116.390625 72.921875 116.246094 73.167969 116.210938 M 71.585938 116.210938 C 71.734375 116.199219 71.882812 116.230469 71.996094 116.296875 C 72.109375 116.359375 72.171875 116.453125 72.171875 116.550781 C 72.097656 116.691406 71.898438 116.78125 71.671875 116.78125 C 71.449219 116.78125 71.25 116.691406 71.175781 116.550781 C 71.167969 116.390625 71.339844 116.246094 71.585938 116.210938 M 74.515625 116.550781 C 74.574219 116.550781 76.683594 117.007812 79.203125 117.695312 L 83.835938 119.007812 L 82.957031 120.550781 L 81.546875 123.066406 C 80.960938 124.207031 80.84375 124.207031 78.03125 123.578125 C 74.984375 122.894531 70.179688 122.265625 65.253906 121.867188 L 60.566406 121.464844 L 62.324219 120.835938 L 65.429688 119.464844 C 66.601562 118.835938 67.070312 118.722656 68.890625 118.894531 C 71.546875 119.046875 73.246094 118.589844 73.988281 117.523438 L 74.574219 116.550781 Z M 69.359375 116.894531 C 69.507812 116.882812 69.65625 116.914062 69.769531 116.980469 C 69.882812 117.046875 69.945312 117.140625 69.945312 117.238281 C 69.871094 117.375 69.671875 117.46875 69.445312 117.46875 C 69.222656 117.46875 69.019531 117.375 68.949219 117.238281 C 68.941406 117.074219 69.113281 116.929688 69.359375 116.894531 M 72.640625 116.894531 C 72.789062 116.882812 72.941406 116.914062 73.050781 116.980469 C 73.164062 117.046875 73.226562 117.140625 73.226562 117.238281 C 73.136719 117.351562 72.953125 117.421875 72.757812 117.421875 C 72.558594 117.421875 72.378906 117.351562 72.289062 117.238281 C 72.28125 117.074219 72.453125 116.929688 72.699219 116.894531 Z M 67.953125 116.894531 C 68.101562 116.882812 68.25 116.914062 68.363281 116.980469 C 68.476562 117.046875 68.539062 117.140625 68.539062 117.238281 C 68.464844 117.375 68.261719 117.46875 68.039062 117.46875 C 67.816406 117.46875 67.613281 117.375 67.539062 117.238281 C 67.574219 117.097656 67.734375 116.984375 67.953125 116.953125 Z M 71.058594 117.007812 C 71.339844 116.988281 71.597656 117.113281 71.644531 117.296875 C 71.570312 117.433594 71.371094 117.523438 71.144531 117.523438 C 70.921875 117.523438 70.722656 117.433594 70.648438 117.296875 C 70.679688 117.152344 70.84375 117.039062 71.058594 117.007812 M 67.1875 117.636719 C 67.339844 117.625 67.488281 117.65625 67.601562 117.722656 C 67.710938 117.789062 67.777344 117.882812 67.773438 117.980469 C 67.703125 118.117188 67.5 118.210938 67.277344 118.210938 C 67.050781 118.210938 66.851562 118.117188 66.777344 117.980469 C 66.773438 117.816406 66.945312 117.675781 67.1875 117.636719 M 68.65625 117.636719 C 68.820312 117.625 68.988281 117.664062 69.101562 117.742188 C 69.21875 117.820312 69.269531 117.929688 69.242188 118.039062 C 69.167969 118.175781 68.96875 118.269531 68.742188 118.269531 C 68.519531 118.269531 68.316406 118.175781 68.246094 118.039062 C 68.238281 117.875 68.410156 117.730469 68.65625 117.695312 Z M 70.179688 117.753906 C 70.460938 117.730469 70.71875 117.855469 70.765625 118.039062 C 70.691406 118.175781 70.492188 118.269531 70.265625 118.269531 C 70.042969 118.269531 69.84375 118.175781 69.769531 118.039062 C 69.800781 117.894531 69.964844 117.78125 70.179688 117.753906 M 71.820312 117.753906 C 71.96875 117.742188 72.117188 117.773438 72.230469 117.839844 C 72.34375 117.902344 72.40625 117.996094 72.40625 118.09375 C 72.332031 118.234375 72.132812 118.324219 71.90625 118.324219 C 71.683594 118.324219 71.484375 118.234375 71.410156 118.09375 C 71.402344 117.933594 71.574219 117.789062 71.820312 117.753906 M 59.921875 122.378906 C 66.839844 122.558594 73.726562 123.359375 80.492188 124.777344 C 80.550781 124.835938 80.140625 126.207031 79.496094 127.863281 L 78.324219 131.292969 C 78.324219 131.558594 77.835938 131.617188 76.859375 131.464844 C 71.996094 130.71875 57.929688 130.777344 52.535156 131.578125 C 49.429688 132.035156 49.019531 131.976562 49.253906 131.347656 L 49.839844 129.347656 L 50.191406 127.808594 L 53.355469 126.207031 C 55.46875 125.160156 57.46875 123.914062 59.335938 122.492188 L 59.863281 122.492188 Z M 44.097656 130.492188 C 44.292969 130.492188 44.605469 130.644531 45.035156 130.949219 C 45.621094 131.292969 46.324219 131.578125 46.617188 131.578125 C 48.140625 131.578125 48.960938 133.691406 50.25 140.71875 L 50.71875 143.230469 C 50.835938 143.804688 50.71875 143.917969 49.371094 144.203125 C 47.730469 144.546875 47.320312 144.601562 47.320312 144.375 C 47.320312 143.804688 45.679688 136.546875 44.976562 133.976562 L 44.039062 130.550781 L 44.097656 130.550781 Z M 60.859375 131.632812 L 62.558594 131.632812 L 61.972656 132.207031 C 60.976562 133.347656 60.507812 133.40625 59.804688 132.664062 L 59.21875 131.804688 C 59.21875 131.691406 59.980469 131.578125 60.859375 131.578125 Z M 64.433594 131.632812 L 67.597656 131.632812 L 66.894531 132.320312 C 66.074219 133.234375 66.015625 133.234375 65.136719 132.320312 L 64.433594 131.578125 Z M 69.242188 131.632812 L 70.003906 131.632812 C 70.414062 131.632812 71.175781 131.632812 71.644531 131.75 L 72.523438 131.921875 L 71.703125 132.664062 C 71.195312 133.121094 70.882812 133.347656 70.765625 133.347656 L 69.945312 132.433594 Z M 74.222656 131.804688 L 74.925781 131.976562 C 75.335938 132.089844 76.214844 132.148438 76.859375 132.207031 L 78.03125 132.207031 L 77.152344 132.949219 L 76.097656 133.691406 C 76.039062 133.691406 75.511719 133.234375 75.101562 132.71875 Z M 56.523438 131.863281 L 56.640625 131.863281 C 56.679688 132.054688 56.484375 132.378906 56.054688 132.835938 L 55.46875 133.632812 L 54.589844 132.949219 L 53.707031 132.207031 L 55.117188 132.035156 Z M 57.871094 131.976562 L 58.808594 132.777344 L 59.746094 133.632812 L 57.988281 133.75 L 56.230469 133.804688 L 57.050781 132.949219 Z M 68.421875 131.976562 C 68.578125 131.976562 68.734375 132.035156 68.890625 132.148438 L 69.652344 133.121094 C 69.964844 133.539062 69.769531 133.730469 69.066406 133.691406 L 67.597656 133.40625 L 66.894531 133.234375 L 67.65625 132.492188 C 67.972656 132.109375 68.246094 131.921875 68.480469 131.921875 Z M 63.554688 131.976562 C 63.828125 131.9375 64.140625 132.1875 64.492188 132.71875 C 64.902344 133.347656 64.902344 133.347656 63.320312 133.347656 L 61.738281 133.347656 L 62.558594 132.605469 C 62.949219 132.226562 63.28125 132.035156 63.554688 132.035156 Z M 73.519531 132.089844 L 74.222656 132.777344 C 75.042969 133.539062 75.160156 133.917969 74.574219 133.917969 L 72.933594 133.75 L 71.644531 133.632812 L 72.582031 132.890625 Z M 52.886719 132.492188 C 53.003906 132.492188 53.472656 132.777344 53.828125 133.175781 L 54.53125 133.917969 L 53.0625 134.148438 L 51.011719 134.433594 C 50.582031 134.546875 50.777344 134.242188 51.597656 133.519531 C 52.261719 132.871094 52.691406 132.53125 52.886719 132.492188 M 50.71875 132.492188 L 50.953125 132.492188 C 51.421875 132.605469 51.421875 132.71875 50.601562 133.519531 L 49.722656 134.375 L 49.429688 133.632812 C 49.195312 133.0625 49.253906 132.890625 49.78125 132.664062 Z M 77.679688 133.519531 C 77.796875 133.519531 77.796875 133.632812 77.679688 133.863281 C 77.5625 134.320312 77.035156 134.433594 77.035156 133.976562 C 77.035156 133.863281 77.171875 133.730469 77.445312 133.578125 Z M 65.136719 134.433594 C 69.652344 134.433594 74.222656 134.546875 75.335938 134.664062 C 77.152344 134.890625 77.328125 134.949219 77.328125 135.632812 C 77.328125 136.433594 77.09375 136.492188 74.632812 136.089844 C 73.929688 135.917969 70.941406 135.691406 68.070312 135.460938 C 62.496094 135.136719 56.902344 135.328125 51.363281 136.035156 C 50.25 136.148438 49.957031 136.035156 49.957031 135.691406 C 49.957031 134.949219 55.9375 134.433594 65.136719 134.433594 M 59.101562 136.089844 L 62.265625 136.089844 L 61.5625 136.832031 C 60.683594 137.746094 60.625 137.746094 59.804688 136.832031 Z M 63.203125 136.089844 L 64.023438 136.890625 L 64.84375 137.804688 L 63.144531 137.863281 L 61.445312 137.863281 L 62.324219 136.949219 Z M 64.433594 136.089844 L 67.597656 136.089844 L 66.894531 136.832031 C 66.074219 137.746094 66.015625 137.746094 65.136719 136.832031 Z M 56.933594 136.089844 C 57.050781 136.089844 56.914062 136.375 56.523438 136.949219 C 56.054688 137.519531 55.761719 137.824219 55.644531 137.863281 C 55.449219 137.824219 55.15625 137.578125 54.765625 137.117188 L 54.0625 136.375 L 55.117188 136.375 C 55.652344 136.378906 56.1875 136.300781 56.699219 136.148438 Z M 58.105469 136.375 L 58.867188 137.0625 L 59.746094 137.804688 L 58.222656 137.917969 L 56.523438 138.035156 L 57.34375 137.175781 Z M 68.304688 136.375 L 69.125 137.289062 C 70.0625 138.261719 70.003906 138.320312 67.890625 137.917969 L 66.894531 137.746094 L 67.597656 137.0625 Z M 69.476562 136.375 L 70.882812 136.375 C 72.367188 136.339844 72.640625 136.679688 71.703125 137.40625 C 71 137.976562 71 137.976562 70.179688 137.117188 Z M 51.539062 136.660156 C 52.242188 136.660156 52.183594 136.71875 51.304688 137.578125 C 50.660156 138.203125 50.601562 138.203125 50.367188 137.746094 C 50.25 137.136719 50.640625 136.777344 51.539062 136.660156 M 74.28125 136.777344 C 74.554688 136.777344 74.945312 136.8125 75.453125 136.890625 L 76.800781 137.117188 L 76.039062 137.804688 L 75.335938 138.492188 L 74.691406 137.691406 L 74.105469 136.777344 Z M 53.179688 137.0625 C 53.335938 137.0625 53.550781 137.195312 53.828125 137.460938 C 54.414062 138.035156 54.414062 138.035156 53.945312 138.261719 L 52.535156 138.492188 L 51.597656 138.492188 L 52.359375 137.691406 C 52.75 137.308594 53.003906 137.101562 53.121094 137.0625 Z M 73.167969 137.234375 C 73.363281 137.195312 73.597656 137.386719 73.871094 137.804688 L 74.398438 138.492188 L 73.167969 138.492188 C 72.386719 138.492188 71.996094 138.375 71.996094 138.148438 C 72.113281 137.882812 72.367188 137.632812 72.757812 137.40625 Z M 76.917969 137.976562 C 77.035156 137.976562 77.074219 138.070312 77.035156 138.261719 C 77.035156 138.832031 76.507812 139.234375 76.273438 138.832031 C 76.234375 138.644531 76.332031 138.433594 76.566406 138.203125 Z M 61.738281 138.660156 C 66.835938 138.660156 72.464844 139.003906 75.804688 139.574219 L 76.742188 139.746094 L 76.742188 142.261719 C 76.742188 144.144531 76.625 144.773438 76.332031 144.773438 L 73.402344 144.203125 C 66.625 143.082031 59.71875 142.890625 52.886719 143.632812 L 51.539062 143.804688 L 51.1875 141.691406 L 50.953125 139.519531 C 50.953125 139.519531 52.300781 139.234375 53.886719 139.0625 C 55.820312 138.777344 58.691406 138.660156 61.738281 138.660156 "/>
<path style=" stroke:none;fill-rule:nonzero;fill:rgb(0%,0%,0%);fill-opacity:1;" d="M 71.996094 124.378906 C 70.238281 124.378906 69.007812 125.578125 69.007812 127.351562 C 69.007812 130.09375 72.171875 131.464844 74.046875 129.519531 C 75.921875 127.578125 74.632812 124.378906 71.996094 124.378906 M 71.996094 125.066406 C 73.289062 125.066406 74.339844 126.085938 74.339844 127.351562 C 74.339844 129.0625 72.40625 130.207031 70.824219 129.464844 C 69.242188 128.605469 69.359375 125.980469 71.058594 125.292969 Z M 71.996094 125.066406 "/>
<path style=" stroke:none;fill-rule:nonzero;fill:rgb(0%,0%,0%);fill-opacity:1;" d="M 60.214844 124.035156 C 58.457031 124.035156 57.226562 125.234375 57.226562 127.007812 C 57.226562 129.75 60.390625 131.121094 62.265625 129.179688 C 64.140625 127.234375 62.851562 124.035156 60.214844 124.035156 M 60.214844 124.722656 C 61.507812 124.722656 62.558594 125.746094 62.558594 127.007812 C 62.558594 128.722656 60.625 129.863281 59.042969 129.121094 C 57.460938 128.265625 57.578125 125.636719 59.277344 124.949219 Z M 60.214844 124.722656 "/>
<path style=" stroke:none;fill-rule:nonzero;fill:rgb(0%,0%,0%);fill-opacity:1;" d="M 50.425781 82.960938 C 49.921875 82.988281 49.515625 83.40625 49.488281 83.929688 C 49.488281 84.515625 49.949219 84.988281 50.515625 84.988281 C 51.082031 84.988281 51.539062 84.515625 51.539062 83.929688 C 51.527344 83.644531 51.398438 83.378906 51.1875 83.195312 C 50.976562 83.011719 50.703125 82.925781 50.425781 82.960938 M 50.484375 83.300781 C 50.851562 83.300781 51.15625 83.574219 51.1875 83.929688 C 51.1875 84.277344 50.875 84.558594 50.484375 84.558594 C 50.097656 84.558594 49.78125 84.277344 49.78125 83.929688 C 49.8125 83.574219 50.117188 83.300781 50.484375 83.300781 "/>
</g>
</svg>
