<?xml version="1.0" encoding="UTF-8"?>
<svg xmlns="http://www.w3.org/2000/svg" xmlns:xlink="http://www.w3.org/1999/xlink" width="px" height="px" viewBox="0 0 320 240" version="1.1">
<defs>
<clipPath id="clip1">
  <path d="M 0 0 L 160 0 L 160 120 L 0 120 Z M 0 0 "/>
</clipPath>
<clipPath id="clip2">
  <path d="M 0 0 L 0 60 L 186.648438 60 L 186.648438 120 L 160 120 Z M 160 0 L 80 0 L 80 140 L 0 140 L 0 120 Z M 160 0 "/>
</clipPath>
<clipPath id="clip3">
  <path d="M 0 0 L 187 0 L 187 140 L 0 140 Z M 0 0 "/>
</clipPath>
<clipPath id="clip4">
  <path d="M 0 0 L 0 60 L 186.648438 60 L 186.648438 120 L 160 120 Z M 160 0 L 80 0 L 80 140 L 0 140 L 0 120 Z M 160 0 "/>
</clipPath>
</defs>
<g id="surface1">
<rect x="0" y="0" width="320" height="240" style="fill:rgb(0.392157%,12.941177%,41.176471%);fill-opacity:1;stroke:none;"/>
<path style="fill-rule:nonzero;fill:rgb(0%,0%,0%);fill-opacity:1;stroke-width:50;stroke-linecap:butt;stroke-linejoin:miter;stroke:rgb(100%,100%,100%);stroke-opacity:1;stroke-miterlimit:4;" d="M 0 0 L 320 240 M 320 0 L 0 240 " transform="matrix(0.5,0,0,0.5,0,0)"/>
<g clip-path="url(#clip1)" clip-rule="nonzero">
<g clip-path="url(#clip2)" clip-rule="nonzero">
<path style=" stroke:none;fill-rule:nonzero;fill:rgb(0%,0%,0%);fill-opacity:1;" d="M 0 0 L 160 120 M 160 0 L 0 120 "/>
</g>
</g>
<g clip-path="url(#clip3)" clip-rule="nonzero">
<g clip-path="url(#clip4)" clip-rule="nonzero">
<path style="fill:none;stroke-width:30;stroke-linecap:butt;stroke-linejoin:miter;stroke:rgb(78.431374%,6.27451%,18.039216%);stroke-opacity:1;stroke-miterlimit:4;" d="M 0 0 L 320 240 M 320 0 L 0 240 " transform="matrix(0.5,0,0,0.5,0,0)"/>
</g>
</g>
<path style="fill-rule:nonzero;fill:rgb(0%,0%,0%);fill-opacity:1;stroke-width:75;stroke-linecap:butt;stroke-linejoin:miter;stroke:rgb(100%,100%,100%);stroke-opacity:1;stroke-miterlimit:4;" d="M 160 0 L 160 280 M 0 120 L 373.296875 120 " transform="matrix(0.5,0,0,0.5,0,0)"/>
<path style="fill-rule:nonzero;fill:rgb(0%,0%,0%);fill-opacity:1;stroke-width:50;stroke-linecap:butt;stroke-linejoin:miter;stroke:rgb(78.431374%,6.27451%,18.039216%);stroke-opacity:1;stroke-miterlimit:4;" d="M 160 0 L 160 280 M 0 120 L 373.296875 120 " transform="matrix(0.5,0,0,0.5,0,0)"/>
<path style=" stroke:none;fill-rule:nonzero;fill:rgb(0.392157%,12.941177%,41.176471%);fill-opacity:1;" d="M 0 120 L 160 120 L 160 0 L 213.351562 0 L 213.351562 160 L 0 160 Z M 0 120 "/>
<path style=" stroke:none;fill-rule:nonzero;fill:rgb(100%,100%,100%);fill-opacity:1;" d="M 212 95.898438 C 212 141.101562 216.851562 156.648438 226.648438 167.148438 C 231.8125 172.882812 237.695312 177.925781 244.148438 182.148438 C 250.601562 177.921875 256.484375 172.878906 261.648438 167.148438 C 271.398438 156.648438 276.300781 141.101562 276.300781 95.898438 C 269.199219 99.148438 265.148438 100.75 259.300781 100.648438 C 253.976562 100.121094 248.820312 98.503906 244.148438 95.898438 C 239.480469 98.503906 234.324219 100.121094 229 100.648438 C 223.148438 100.75 219.101562 99.148438 212 95.898438 "/>
<path style=" stroke:none;fill-rule:nonzero;fill:rgb(100%,60.000002%,0%);fill-opacity:1;" d="M 245.179688 118.535156 C 246.648438 122.140625 251.550781 126.144531 252.824219 128.148438 C 251.15625 130.148438 250.863281 129.949219 251.058594 133.550781 C 254 130.449219 254 130.046875 255.960938 130.550781 C 260.074219 134.753906 256.742188 143.863281 253.214844 145.863281 C 249.882812 147.964844 250.472656 145.863281 245.375 148.46875 C 247.628906 150.46875 250.375 148.167969 252.628906 148.765625 C 253.804688 150.269531 252.039062 152.871094 253.019531 155.472656 C 254.980469 155.273438 254.785156 151.167969 255.175781 149.667969 C 256.644531 144.261719 265.367188 140.558594 265.761719 135.554688 C 267.621094 134.652344 269.386719 135.253906 271.640625 136.554688 C 270.5625 131.949219 266.839844 131.949219 265.859375 130.550781 C 263.507812 126.84375 261.449219 122.742188 256.449219 121.539062 C 252.726562 120.839844 253.019531 121.839844 250.570312 120.136719 C 249.003906 118.9375 244.394531 116.734375 245.179688 118.535156 "/>
<path style=" stroke:none;fill-rule:evenodd;fill:rgb(100%,100%,100%);fill-opacity:1;" d="M 256.058594 122.640625 C 256.058594 122.199219 255.707031 121.839844 255.273438 121.839844 C 254.839844 121.839844 254.488281 122.199219 254.488281 122.640625 C 254.488281 123.082031 254.839844 123.441406 255.273438 123.441406 C 255.707031 123.441406 256.058594 123.082031 256.058594 122.640625 Z M 256.058594 122.640625 "/>
<path style=" stroke:none;fill-rule:nonzero;fill:rgb(100%,60.000002%,0%);fill-opacity:1;" d="M 232.96875 133.992188 C 235.398438 130.980469 236.574219 124.6875 237.714844 122.601562 C 240.226562 123.171875 240.1875 123.53125 243.21875 121.671875 C 239.15625 120.464844 238.808594 120.652344 238.328125 118.648438 C 240.042969 112.96875 249.484375 111.722656 252.867188 113.972656 C 256.246094 116 254.148438 116.449219 258.785156 119.835938 C 259.464844 116.867188 256.1875 115.464844 255.65625 113.148438 C 256.40625 111.382812 259.484375 111.761719 261.277344 109.660156 C 260.1875 107.984375 256.726562 110.078125 255.242188 110.425781 C 249.878906 111.625 242.597656 105.476562 238.078125 107.460938 C 236.429688 106.199219 236.125 104.324219 236.199219 101.683594 C 232.714844 104.804688 234.457031 108.167969 233.703125 109.710938 C 231.59375 113.5625 229.003906 117.339844 230.300781 122.414062 C 231.433594 126.101562 232.164062 125.371094 231.835938 128.378906 C 231.527344 130.355469 231.773438 135.542969 232.96875 133.992188 "/>
<path style=" stroke:none;fill-rule:evenodd;fill:rgb(100%,100%,100%);fill-opacity:1;" d="M 231.4375 122.253906 C 231.054688 122.457031 230.90625 122.941406 231.109375 123.335938 C 231.3125 123.726562 231.785156 123.875 232.167969 123.667969 C 232.550781 123.460938 232.699219 122.976562 232.496094 122.585938 C 232.292969 122.195312 231.820312 122.046875 231.4375 122.253906 Z M 231.4375 122.253906 "/>
<path style=" stroke:none;fill-rule:nonzero;fill:rgb(100%,60.000002%,0%);fill-opacity:1;" d="M 252.765625 136.070312 C 248.984375 135.5 243.097656 137.730469 240.761719 137.8125 C 239.941406 135.324219 240.261719 135.167969 237.136719 133.484375 C 238.222656 137.65625 238.558594 137.863281 237.128906 139.320312 C 231.480469 140.761719 225.554688 133.152344 225.691406 129.03125 C 225.644531 125.03125 227.105469 126.628906 227.546875 120.828125 C 224.707031 121.769531 225.222656 125.359375 223.558594 127.023438 C 221.691406 127.277344 220.417969 124.394531 217.730469 123.910156 C 216.886719 125.730469 220.433594 127.671875 221.488281 128.789062 C 225.269531 132.859375 223.882812 142.402344 227.878906 145.324219 C 227.675781 147.417969 226.261719 148.652344 224.011719 149.957031 C 228.429688 151.382812 230.347656 148.125 232.03125 147.988281 C 236.347656 147.835938 240.855469 148.148438 244.4375 144.390625 C 246.945312 141.492188 245.953125 141.230469 248.644531 139.964844 C 250.460938 139.210938 254.679688 136.3125 252.765625 136.070312 "/>
<path style=" stroke:none;fill-rule:evenodd;fill:rgb(100%,100%,100%);fill-opacity:1;" d="M 243.714844 143.480469 C 244.085938 143.707031 244.570312 143.585938 244.792969 143.207031 C 245.015625 142.828125 244.894531 142.335938 244.523438 142.105469 C 244.152344 141.878906 243.671875 142 243.449219 142.382812 C 243.222656 142.761719 243.34375 143.253906 243.714844 143.480469 Z M 243.714844 143.480469 "/>
<path style=" stroke:none;fill-rule:nonzero;fill:rgb(60.000002%,80.000001%,100%);fill-opacity:1;" d="M 220 157.550781 C 221.722656 161.066406 223.964844 164.300781 226.648438 167.148438 C 231.8125 172.882812 237.695312 177.925781 244.148438 182.148438 C 250.601562 177.921875 256.484375 172.878906 261.648438 167.148438 C 264.316406 164.296875 266.542969 161.0625 268.25 157.550781 Z M 220 157.550781 "/>
<path style=" stroke:none;fill-rule:nonzero;fill:rgb(99.215686%,76.47059%,0.392157%);fill-opacity:1;" d="M 210.601562 94.101562 C 210.601562 141.199219 215.699219 157.398438 225.898438 168.351562 C 231.289062 174.296875 237.425781 179.519531 244.148438 183.898438 C 250.859375 179.523438 256.980469 174.296875 262.351562 168.351562 C 272.550781 157.398438 277.648438 141.199219 277.648438 94.101562 C 270.25 97.5 266 99.148438 259.898438 99.101562 C 254.398438 98.949219 248.601562 96.25 244.148438 94.101562 C 239.648438 96.25 233.851562 98.949219 228.398438 99.101562 C 222.25 99.148438 218.050781 97.5 210.601562 94.101562 M 212.601562 96.601562 C 219.601562 99.851562 223.601562 101.398438 229.351562 101.300781 C 234.554688 100.769531 239.59375 99.167969 244.148438 96.601562 C 248.351562 98.601562 253.800781 101.199219 258.949219 101.300781 C 264.699219 101.398438 268.648438 99.800781 275.648438 96.601562 C 275.648438 141.101562 270.851562 156.398438 261.25 166.699219 C 256.203125 172.3125 250.457031 177.253906 244.148438 181.398438 C 237.824219 177.257812 232.0625 172.316406 227 166.699219 C 217.398438 156.398438 212.648438 141.050781 212.648438 96.601562 Z M 212.601562 96.601562 "/>
</g>
</svg>
