<?xml version="1.0" encoding="UTF-8"?>
<svg xmlns="http://www.w3.org/2000/svg" xmlns:xlink="http://www.w3.org/1999/xlink" width="px" height="px" viewBox="0 0 320 240" version="1.1">
<g id="surface1">
<path style=" stroke:none;fill-rule:evenodd;fill:rgb(100%,0%,0%);fill-opacity:1;" d="M 0 0 L 320 0 L 320 121.800781 L 0 121.800781 Z M 0 0 "/>
<path style=" stroke:none;fill-rule:evenodd;fill:rgb(0%,0%,0.392157%);fill-opacity:1;" d="M 0 118.199219 L 320 118.199219 L 320 240 L 0 240 Z M 0 118.199219 "/>
<path style=" stroke:none;fill-rule:evenodd;fill:rgb(100%,92.54902%,0%);fill-opacity:1;" d="M 114.351562 74.101562 C 196.949219 95.75 143.851562 201.898438 78.699219 157.699219 L 74.300781 164.5 C 112.648438 191.800781 150.601562 169.800781 161.300781 141.300781 C 172.398438 111.898438 157.5 70.550781 115 66.300781 Z M 114.351562 74.101562 "/>
<path style=" stroke:none;fill-rule:evenodd;fill:rgb(100%,92.54902%,0%);fill-opacity:1;" d="M 85 165.398438 L 95.851562 170.449219 L 90.75 181.351562 L 79.898438 176.25 Z M 159.5 115.648438 L 171.5 115.648438 L 171.5 127.648438 L 159.5 127.648438 Z M 153.648438 96.199219 L 164.800781 91.898438 L 169.148438 103.050781 L 158 107.398438 Z M 140.648438 81.648438 L 149.199219 73.199219 L 157.648438 81.699219 L 149.148438 90.148438 Z M 127.550781 61.75 L 138.75 65.949219 L 134.5 77.148438 L 123.300781 72.949219 Z M 158 135 L 169.148438 139.449219 L 164.648438 150.550781 L 153.550781 146.101562 Z M 123.050781 170 L 134.050781 165.351562 L 138.800781 176.351562 L 127.800781 181.050781 Z M 103.300781 171.398438 L 115.300781 171.398438 L 115.300781 183.398438 L 103.300781 183.398438 Z M 123.949219 113.398438 L 113.800781 105.898438 L 103.648438 113.199219 L 107.648438 101.699219 L 97.5 94.199219 L 109.75 94.199219 L 114 82.898438 L 117.898438 94.25 L 130.25 94.101562 L 120.449219 101.75 Z M 123.949219 113.398438 "/>
<path style=" stroke:none;fill-rule:evenodd;fill:rgb(100%,93.333334%,0%);fill-opacity:1;" d="M 168 173.199219 C 167.398438 173.398438 164.898438 179.398438 163.148438 182.300781 L 165 182.800781 C 171.800781 185.199219 175.199219 187.398438 178.101562 191.550781 C 179.492188 192.878906 181.636719 193.027344 183.199219 191.898438 C 183.199219 191.898438 184.601562 191.398438 186.398438 189.398438 C 187.898438 187.148438 187.5 185.398438 185.699219 183.851562 C 180.199219 179.851562 174.25 176.851562 168 173.199219 "/>
<path style=" stroke:none;fill-rule:evenodd;fill:rgb(0%,0%,0.392157%);fill-opacity:1;" d="M 182.648438 186.398438 C 182.648438 187.601562 181.675781 188.574219 180.476562 188.574219 C 179.273438 188.574219 178.300781 187.601562 178.300781 186.398438 C 178.300781 185.210938 179.261719 184.25 180.449219 184.25 C 181.636719 184.25 182.601562 185.210938 182.601562 186.398438 Z M 171.949219 179.601562 C 171.949219 180.800781 170.976562 181.773438 169.773438 181.773438 C 168.574219 181.773438 167.601562 180.800781 167.601562 179.601562 C 167.601562 178.398438 168.574219 177.425781 169.773438 177.425781 C 170.976562 177.425781 171.949219 178.398438 171.949219 179.601562 M 177.398438 183.101562 C 177.398438 184.300781 176.425781 185.273438 175.226562 185.273438 C 174.023438 185.273438 173.050781 184.300781 173.050781 183.101562 C 173.050781 181.898438 174.023438 180.925781 175.226562 180.925781 C 176.425781 180.925781 177.398438 181.898438 177.398438 183.101562 "/>
<path style=" stroke:none;fill-rule:evenodd;fill:rgb(100%,93.333334%,0%);fill-opacity:1;" d="M 162.25 181.851562 C 140.949219 169.699219 118.601562 156.601562 97.25 144.449219 C 87.898438 138.601562 87.449219 127.75 93.75 119.5 C 94.351562 118.351562 95.148438 118.601562 95.449219 119.25 C 96.199219 123.25 98.449219 127.398438 101.148438 130 C 123.3125 143.941406 145.261719 158.207031 167 172.800781 C 165.300781 175.699219 164 178.949219 162.25 181.800781 Z M 162.25 181.851562 "/>
<path style=" stroke:none;fill-rule:evenodd;fill:rgb(100%,92.54902%,0%);fill-opacity:1;" d="M 148.601562 152.75 L 157.5 160.75 L 149.5 169.648438 L 140.601562 161.648438 Z M 148.601562 152.75 "/>
<path style="fill:none;stroke-width:3;stroke-linecap:butt;stroke-linejoin:miter;stroke:rgb(0%,0%,0%);stroke-opacity:1;stroke-miterlimit:4;" d="M 331.5 348.796875 L 206.5 273.296875 M 316.101562 331.398438 L 274 304.101562 M 292.203125 346.796875 L 249.296875 322 " transform="matrix(0.5,0,0,0.5,0,0)"/>
</g>
</svg>
