<?xml version="1.0" encoding="UTF-8"?>
<svg xmlns="http://www.w3.org/2000/svg" xmlns:xlink="http://www.w3.org/1999/xlink" width="px" height="px" viewBox="0 0 320 240" version="1.1">
<g id="surface1">
<rect x="0" y="0" width="320" height="240" style="fill:rgb(45.490196%,67.450982%,87.450981%);fill-opacity:1;stroke:none;"/>
<path style=" stroke:none;fill-rule:nonzero;fill:rgb(100%,100%,100%);fill-opacity:1;" d="M 0 80 L 320 80 L 320 160 L 0 160 Z M 0 80 "/>
<path style="fill-rule:nonzero;fill:rgb(96.470588%,70.588237%,5.490196%);fill-opacity:1;stroke-width:1.1;stroke-linecap:butt;stroke-linejoin:miter;stroke:rgb(52.156866%,20.392157%,3.921569%);stroke-opacity:1;stroke-miterlimit:4;" d="M 396.801767 251.302089 L 425.301116 313.297533 C 425.301116 313.297533 425.797536 314.50196 426.6032 314.200853 C 427.400726 313.80209 426.896168 312.597663 426.896168 312.597663 L 403.198251 248.600266 M 402.498381 272.80274 C 402.099618 282.202155 407.902027 287.40235 407.202158 295.800788 C 406.502288 304.199226 411.002613 309.000658 412.198902 312.296556 C 413.199879 315.600593 411.002613 317.496752 411.897796 318.001309 C 412.898772 318.497728 414.900725 315.9017 414.298512 311.197924 C 413.696298 306.502285 410.099293 305.200202 410.896819 294.897468 C 411.702483 284.602871 406.6976 282.202155 407.902027 272.900397 " transform="matrix(0.48,0,0,0.48,-32,0)"/>
<path style="fill-rule:nonzero;fill:rgb(96.470588%,70.588237%,5.490196%);fill-opacity:1;stroke-width:1.1;stroke-linecap:butt;stroke-linejoin:miter;stroke:rgb(52.156866%,20.392157%,3.921569%);stroke-opacity:1;stroke-miterlimit:4;" d="M 396.802802 251.297903 L 425.303339 313.299271 C 425.303339 313.299271 425.801625 314.502239 426.600416 314.197795 C 427.395023 313.798189 426.899852 312.60274 426.899852 312.60274 L 403.200555 248.603825 M 402.50265 272.799258 C 402.097368 282.198471 407.897677 287.397666 407.202141 295.798423 C 406.499087 304.202295 410.996274 308.998748 412.195678 312.298415 C 413.201646 315.598929 411.001658 317.49675 411.896419 317.998172 C 412.896974 318.499815 414.902496 315.898587 414.302605 311.196675 C 413.695196 306.497878 410.102145 305.202673 410.89994 294.900959 C 411.697736 284.599245 406.697852 282.204339 407.899214 272.898188 " transform="matrix(0.443462,0.183688,-0.183688,0.443462,28.53714,-64.340761)"/>
<path style="fill-rule:nonzero;fill:rgb(96.470588%,70.588237%,5.490196%);fill-opacity:1;stroke-width:1.1;stroke-linecap:butt;stroke-linejoin:miter;stroke:rgb(52.156866%,20.392157%,3.921569%);stroke-opacity:1;stroke-miterlimit:4;" d="M 396.800536 251.300503 L 425.296572 313.298946 C 425.296572 313.298946 425.797209 314.501626 426.602832 314.202395 C 427.396946 313.799583 426.902063 312.602657 426.902063 312.602657 L 403.199484 248.595912 M 402.497442 272.799128 C 402.100384 282.196145 407.90087 287.398167 407.198827 295.799664 C 406.496784 304.201161 410.996764 309.000372 412.199444 312.297672 C 413.200718 315.600726 411.002518 317.499694 411.900213 317.994577 C 412.901487 318.500969 414.904035 315.899957 414.299818 311.198572 C 413.701355 306.502941 410.09907 305.202435 410.898938 294.896215 C 411.698807 284.601505 406.69819 282.201899 407.90087 272.896954 " transform="matrix(0.339411,0.339411,-0.339411,0.339411,109.088309,-100.617313)"/>
<path style="fill-rule:nonzero;fill:rgb(96.470588%,70.588237%,5.490196%);fill-opacity:1;stroke-width:1.1;stroke-linecap:butt;stroke-linejoin:miter;stroke:rgb(52.156866%,20.392157%,3.921569%);stroke-opacity:1;stroke-miterlimit:4;" d="M 396.801349 251.300008 L 425.299642 313.304202 C 425.299642 313.304202 425.800438 314.498194 426.600481 314.204177 C 427.400302 313.804366 426.90262 312.602855 426.90262 312.602855 L 403.195333 248.601704 M 402.499764 272.801305 C 402.102514 282.202823 407.904537 287.398404 407.19908 295.800214 C 406.504257 304.197619 410.997739 309.00093 412.202813 312.3012 C 413.196299 315.601914 410.999873 317.502046 411.903611 317.999706 C 412.90251 318.501548 414.895896 315.900718 414.298863 311.196302 C 413.698716 306.499405 410.096483 305.201099 410.900636 294.902294 C 411.697269 284.600374 406.702998 282.196955 407.903 272.898926 " transform="matrix(0.183688,0.443462,-0.443462,0.183688,197.39032,-103.30688)"/>
<path style=" stroke:none;fill-rule:nonzero;fill:rgb(52.156866%,20.392157%,3.921569%);fill-opacity:1;" d="M 162.0625 131.710938 C 162.304688 136.03125 164.753906 137.953125 164.273438 141.9375 C 165.328125 138.816406 162.785156 136.367188 162.929688 131.761719 M 159.230469 120.335938 L 168.59375 140.785156 L 160.769531 119.710938 "/>
<path style=" stroke:none;fill-rule:nonzero;fill:rgb(52.156866%,20.392157%,3.921569%);fill-opacity:1;" d="M 157.425781 131.609375 C 155.992188 135.691406 157.519531 138.402344 155.550781 141.902344 C 157.722656 139.421875 156.308594 136.1875 158.203125 131.984375 M 159.160156 120.015625 L 159.984375 142.488281 L 160.820312 120.027344 "/>
<path style=" stroke:none;fill-rule:nonzero;fill:rgb(52.156866%,20.392157%,3.921569%);fill-opacity:1;" d="M 153.179688 129.742188 C 150.292969 132.964844 150.667969 136.054688 147.507812 138.53125 C 150.460938 137.074219 150.394531 133.542969 153.753906 130.386719 M 159.21875 119.695312 L 151.378906 140.773438 L 160.746094 120.339844 "/>
<path style=" stroke:none;fill-rule:nonzero;fill:rgb(52.156866%,20.392157%,3.921569%);fill-opacity:1;" d="M 149.96875 126.390625 C 146.070312 128.265625 145.234375 131.261719 141.367188 132.339844 C 144.65625 132.121094 145.941406 128.835938 150.253906 127.207031 M 159.394531 119.417969 L 144.085938 135.890625 L 160.558594 120.597656 "/>
<path style="fill-rule:nonzero;fill:rgb(96.470588%,70.588237%,5.490196%);fill-opacity:1;stroke-width:1.1;stroke-linecap:butt;stroke-linejoin:miter;stroke:rgb(52.156866%,20.392157%,3.921569%);stroke-opacity:1;stroke-miterlimit:4;" d="M 396.801767 251.302089 L 425.301116 313.297533 C 425.301116 313.297533 425.797536 314.50196 426.6032 314.200853 C 427.400726 313.80209 426.896168 312.597663 426.896168 312.597663 L 403.198251 248.600266 M 402.498381 272.80274 C 402.099618 282.202155 407.902027 287.40235 407.202158 295.800788 C 406.502288 304.199226 411.002613 309.000658 412.198902 312.296556 C 413.199879 315.600593 411.002613 317.496752 411.897796 318.001309 C 412.898772 318.497728 414.900725 315.9017 414.298512 311.197924 C 413.696298 306.502285 410.099293 305.200202 410.896819 294.897468 C 411.702483 284.602871 406.6976 282.202155 407.902027 272.900397 " transform="matrix(0.000000000000000029,0.48,-0.48,0.000000000000000029,280,-72)"/>
<path style="fill-rule:nonzero;fill:rgb(96.470588%,70.588237%,5.490196%);fill-opacity:1;stroke-width:1.1;stroke-linecap:butt;stroke-linejoin:miter;stroke:rgb(52.156866%,20.392157%,3.921569%);stroke-opacity:1;stroke-miterlimit:4;" d="M 396.802802 251.297903 L 425.303339 313.299271 C 425.303339 313.299271 425.801625 314.502239 426.600416 314.197795 C 427.395023 313.798189 426.899852 312.60274 426.899852 312.60274 L 403.200555 248.603825 M 402.50265 272.799258 C 402.097368 282.198471 407.897677 287.397666 407.202141 295.798423 C 406.499087 304.202295 410.996274 308.998748 412.195678 312.298415 C 413.201646 315.598929 411.001658 317.49675 411.896419 317.998172 C 412.896974 318.499815 414.902496 315.898587 414.302605 311.196675 C 413.695196 306.497878 410.102145 305.202673 410.89994 294.900959 C 411.697736 284.599245 406.697852 282.204339 407.899214 272.898188 " transform="matrix(-0.183688,0.443462,-0.443462,-0.183688,344.340761,-11.46286)"/>
<path style="fill-rule:nonzero;fill:rgb(96.470588%,70.588237%,5.490196%);fill-opacity:1;stroke-width:1.1;stroke-linecap:butt;stroke-linejoin:miter;stroke:rgb(52.156866%,20.392157%,3.921569%);stroke-opacity:1;stroke-miterlimit:4;" d="M 396.800536 251.300503 L 425.296572 313.298946 C 425.296572 313.298946 425.797209 314.501626 426.602832 314.202395 C 427.396946 313.799583 426.902063 312.602657 426.902063 312.602657 L 403.199484 248.595912 M 402.497442 272.799128 C 402.100384 282.196145 407.90087 287.398167 407.198827 295.799664 C 406.496784 304.201161 410.996764 309.000372 412.199444 312.297672 C 413.200718 315.600726 411.002518 317.499694 411.900213 317.994577 C 412.901487 318.500969 414.904035 315.899957 414.299818 311.198572 C 413.701355 306.502941 410.09907 305.202435 410.898938 294.896215 C 411.698807 284.601505 406.69819 282.201899 407.90087 272.896954 " transform="matrix(-0.339411,0.339411,-0.339411,-0.339411,380.617313,69.088309)"/>
<path style="fill-rule:nonzero;fill:rgb(96.470588%,70.588237%,5.490196%);fill-opacity:1;stroke-width:1.1;stroke-linecap:butt;stroke-linejoin:miter;stroke:rgb(52.156866%,20.392157%,3.921569%);stroke-opacity:1;stroke-miterlimit:4;" d="M 396.801349 251.300008 L 425.299642 313.304202 C 425.299642 313.304202 425.800438 314.498194 426.600481 314.204177 C 427.400302 313.804366 426.90262 312.602855 426.90262 312.602855 L 403.195333 248.601704 M 402.499764 272.801305 C 402.102514 282.202823 407.904537 287.398404 407.19908 295.800214 C 406.504257 304.197619 410.997739 309.00093 412.202813 312.3012 C 413.196299 315.601914 410.999873 317.502046 411.903611 317.999706 C 412.90251 318.501548 414.895896 315.900718 414.298863 311.196302 C 413.698716 306.499405 410.096483 305.201099 410.900636 294.902294 C 411.697269 284.600374 406.702998 282.196955 407.903 272.898926 " transform="matrix(-0.443462,0.183688,-0.183688,-0.443462,383.30688,157.39032)"/>
<path style=" stroke:none;fill-rule:nonzero;fill:rgb(52.156866%,20.392157%,3.921569%);fill-opacity:1;" d="M 148.289062 122.0625 C 143.96875 122.304688 142.046875 124.753906 138.0625 124.273438 C 141.183594 125.328125 143.632812 122.785156 148.238281 122.929688 M 159.664062 119.230469 L 139.214844 128.59375 L 160.289062 120.769531 "/>
<path style=" stroke:none;fill-rule:nonzero;fill:rgb(52.156866%,20.392157%,3.921569%);fill-opacity:1;" d="M 148.390625 117.425781 C 144.308594 115.992188 141.597656 117.519531 138.097656 115.550781 C 140.578125 117.722656 143.8125 116.308594 148.015625 118.203125 M 159.984375 119.160156 L 137.511719 119.984375 L 159.972656 120.820312 "/>
<path style=" stroke:none;fill-rule:nonzero;fill:rgb(52.156866%,20.392157%,3.921569%);fill-opacity:1;" d="M 150.257812 113.179688 C 147.035156 110.292969 143.945312 110.667969 141.46875 107.507812 C 142.925781 110.460938 146.457031 110.394531 149.613281 113.753906 M 160.304688 119.21875 L 139.226562 111.378906 L 159.660156 120.746094 "/>
<path style=" stroke:none;fill-rule:nonzero;fill:rgb(52.156866%,20.392157%,3.921569%);fill-opacity:1;" d="M 153.609375 109.96875 C 151.734375 106.070312 148.738281 105.234375 147.660156 101.367188 C 147.878906 104.65625 151.164062 105.941406 152.792969 110.253906 M 160.582031 119.394531 L 144.109375 104.085938 L 159.402344 120.558594 "/>
<path style="fill-rule:nonzero;fill:rgb(96.470588%,70.588237%,5.490196%);fill-opacity:1;stroke-width:1.1;stroke-linecap:butt;stroke-linejoin:miter;stroke:rgb(52.156866%,20.392157%,3.921569%);stroke-opacity:1;stroke-miterlimit:4;" d="M 396.801767 251.302089 L 425.301116 313.297533 C 425.301116 313.297533 425.797536 314.50196 426.6032 314.200853 C 427.400726 313.80209 426.896168 312.597663 426.896168 312.597663 L 403.198251 248.600266 M 402.498381 272.80274 C 402.099618 282.202155 407.902027 287.40235 407.202158 295.800788 C 406.502288 304.199226 411.002613 309.000658 412.198902 312.296556 C 413.199879 315.600593 411.002613 317.496752 411.897796 318.001309 C 412.898772 318.497728 414.900725 315.9017 414.298512 311.197924 C 413.696298 306.502285 410.099293 305.200202 410.896819 294.897468 C 411.702483 284.602871 406.6976 282.202155 407.902027 272.900397 " transform="matrix(-0.48,0.000000000000000059,-0.000000000000000059,-0.48,352,240)"/>
<path style="fill-rule:nonzero;fill:rgb(96.470588%,70.588237%,5.490196%);fill-opacity:1;stroke-width:1.1;stroke-linecap:butt;stroke-linejoin:miter;stroke:rgb(52.156866%,20.392157%,3.921569%);stroke-opacity:1;stroke-miterlimit:4;" d="M 396.802802 251.297903 L 425.303339 313.299271 C 425.303339 313.299271 425.801625 314.502239 426.600416 314.197795 C 427.395023 313.798189 426.899852 312.60274 426.899852 312.60274 L 403.200555 248.603825 M 402.50265 272.799258 C 402.097368 282.198471 407.897677 287.397666 407.202141 295.798423 C 406.499087 304.202295 410.996274 308.998748 412.195678 312.298415 C 413.201646 315.598929 411.001658 317.49675 411.896419 317.998172 C 412.896974 318.499815 414.902496 315.898587 414.302605 311.196675 C 413.695196 306.497878 410.102145 305.202673 410.89994 294.900959 C 411.697736 284.599245 406.697852 282.204339 407.899214 272.898188 " transform="matrix(-0.443462,-0.183688,0.183688,-0.443462,291.46286,304.340761)"/>
<path style="fill-rule:nonzero;fill:rgb(96.470588%,70.588237%,5.490196%);fill-opacity:1;stroke-width:1.1;stroke-linecap:butt;stroke-linejoin:miter;stroke:rgb(52.156866%,20.392157%,3.921569%);stroke-opacity:1;stroke-miterlimit:4;" d="M 396.800536 251.300503 L 425.296572 313.298946 C 425.296572 313.298946 425.797209 314.501626 426.602832 314.202395 C 427.396946 313.799583 426.902063 312.602657 426.902063 312.602657 L 403.199484 248.595912 M 402.497442 272.799128 C 402.100384 282.196145 407.90087 287.398167 407.198827 295.799664 C 406.496784 304.201161 410.996764 309.000372 412.199444 312.297672 C 413.200718 315.600726 411.002518 317.499694 411.900213 317.994577 C 412.901487 318.500969 414.904035 315.899957 414.299818 311.198572 C 413.701355 306.502941 410.09907 305.202435 410.898938 294.896215 C 411.698807 284.601505 406.69819 282.201899 407.90087 272.896954 " transform="matrix(-0.339411,-0.339411,0.339411,-0.339411,210.911691,340.617313)"/>
<path style="fill-rule:nonzero;fill:rgb(96.470588%,70.588237%,5.490196%);fill-opacity:1;stroke-width:1.1;stroke-linecap:butt;stroke-linejoin:miter;stroke:rgb(52.156866%,20.392157%,3.921569%);stroke-opacity:1;stroke-miterlimit:4;" d="M 396.801349 251.300008 L 425.299642 313.304202 C 425.299642 313.304202 425.800438 314.498194 426.600481 314.204177 C 427.400302 313.804366 426.90262 312.602855 426.90262 312.602855 L 403.195333 248.601704 M 402.499764 272.801305 C 402.102514 282.202823 407.904537 287.398404 407.19908 295.800214 C 406.504257 304.197619 410.997739 309.00093 412.202813 312.3012 C 413.196299 315.601914 410.999873 317.502046 411.903611 317.999706 C 412.90251 318.501548 414.895896 315.900718 414.298863 311.196302 C 413.698716 306.499405 410.096483 305.201099 410.900636 294.902294 C 411.697269 284.600374 406.702998 282.196955 407.903 272.898926 " transform="matrix(-0.183688,-0.443462,0.443462,-0.183688,122.60968,343.30688)"/>
<path style=" stroke:none;fill-rule:nonzero;fill:rgb(52.156866%,20.392157%,3.921569%);fill-opacity:1;" d="M 157.9375 108.289062 C 157.695312 103.96875 155.246094 102.046875 155.726562 98.0625 C 154.671875 101.183594 157.214844 103.632812 157.070312 108.238281 M 160.769531 119.664062 L 151.40625 99.214844 L 159.230469 120.289062 "/>
<path style=" stroke:none;fill-rule:nonzero;fill:rgb(52.156866%,20.392157%,3.921569%);fill-opacity:1;" d="M 162.574219 108.390625 C 164.007812 104.308594 162.480469 101.597656 164.449219 98.097656 C 162.277344 100.578125 163.691406 103.8125 161.796875 108.015625 M 160.839844 119.984375 L 160.015625 97.511719 L 159.179688 119.972656 "/>
<path style=" stroke:none;fill-rule:nonzero;fill:rgb(52.156866%,20.392157%,3.921569%);fill-opacity:1;" d="M 166.820312 110.257812 C 169.707031 107.035156 169.332031 103.945312 172.492188 101.46875 C 169.539062 102.925781 169.605469 106.457031 166.246094 109.613281 M 160.78125 120.304688 L 168.621094 99.226562 L 159.253906 119.660156 "/>
<path style=" stroke:none;fill-rule:nonzero;fill:rgb(52.156866%,20.392157%,3.921569%);fill-opacity:1;" d="M 170.03125 113.609375 C 173.929688 111.734375 174.765625 108.738281 178.632812 107.660156 C 175.34375 107.878906 174.058594 111.164062 169.746094 112.792969 M 160.605469 120.582031 L 175.914062 104.109375 L 159.441406 119.402344 "/>
<path style="fill-rule:nonzero;fill:rgb(96.470588%,70.588237%,5.490196%);fill-opacity:1;stroke-width:1.1;stroke-linecap:butt;stroke-linejoin:miter;stroke:rgb(52.156866%,20.392157%,3.921569%);stroke-opacity:1;stroke-miterlimit:4;" d="M 396.801767 251.302089 L 425.301116 313.297533 C 425.301116 313.297533 425.797536 314.50196 426.6032 314.200853 C 427.400726 313.80209 426.896168 312.597663 426.896168 312.597663 L 403.198251 248.600266 M 402.498381 272.80274 C 402.099618 282.202155 407.902027 287.40235 407.202158 295.800788 C 406.502288 304.199226 411.002613 309.000658 412.198902 312.296556 C 413.199879 315.600593 411.002613 317.496752 411.897796 318.001309 C 412.898772 318.497728 414.900725 315.9017 414.298512 311.197924 C 413.696298 306.502285 410.099293 305.200202 410.896819 294.897468 C 411.702483 284.602871 406.6976 282.202155 407.902027 272.900397 " transform="matrix(0.000000000000000029,-0.48,0.48,0.000000000000000029,40,312)"/>
<path style="fill-rule:nonzero;fill:rgb(96.470588%,70.588237%,5.490196%);fill-opacity:1;stroke-width:1.1;stroke-linecap:butt;stroke-linejoin:miter;stroke:rgb(52.156866%,20.392157%,3.921569%);stroke-opacity:1;stroke-miterlimit:4;" d="M 396.802802 251.297903 L 425.303339 313.299271 C 425.303339 313.299271 425.801625 314.502239 426.600416 314.197795 C 427.395023 313.798189 426.899852 312.60274 426.899852 312.60274 L 403.200555 248.603825 M 402.50265 272.799258 C 402.097368 282.198471 407.897677 287.397666 407.202141 295.798423 C 406.499087 304.202295 410.996274 308.998748 412.195678 312.298415 C 413.201646 315.598929 411.001658 317.49675 411.896419 317.998172 C 412.896974 318.499815 414.902496 315.898587 414.302605 311.196675 C 413.695196 306.497878 410.102145 305.202673 410.89994 294.900959 C 411.697736 284.599245 406.697852 282.204339 407.899214 272.898188 " transform="matrix(0.183688,-0.443462,0.443462,0.183688,-24.340761,251.46286)"/>
<path style="fill-rule:nonzero;fill:rgb(96.470588%,70.588237%,5.490196%);fill-opacity:1;stroke-width:1.1;stroke-linecap:butt;stroke-linejoin:miter;stroke:rgb(52.156866%,20.392157%,3.921569%);stroke-opacity:1;stroke-miterlimit:4;" d="M 396.800536 251.300503 L 425.296572 313.298946 C 425.296572 313.298946 425.797209 314.501626 426.602832 314.202395 C 427.396946 313.799583 426.902063 312.602657 426.902063 312.602657 L 403.199484 248.595912 M 402.497442 272.799128 C 402.100384 282.196145 407.90087 287.398167 407.198827 295.799664 C 406.496784 304.201161 410.996764 309.000372 412.199444 312.297672 C 413.200718 315.600726 411.002518 317.499694 411.900213 317.994577 C 412.901487 318.500969 414.904035 315.899957 414.299818 311.198572 C 413.701355 306.502941 410.09907 305.202435 410.898938 294.896215 C 411.698807 284.601505 406.69819 282.201899 407.90087 272.896954 " transform="matrix(0.339411,-0.339411,0.339411,0.339411,-60.617313,170.911691)"/>
<path style="fill-rule:nonzero;fill:rgb(96.470588%,70.588237%,5.490196%);fill-opacity:1;stroke-width:1.1;stroke-linecap:butt;stroke-linejoin:miter;stroke:rgb(52.156866%,20.392157%,3.921569%);stroke-opacity:1;stroke-miterlimit:4;" d="M 396.801349 251.300008 L 425.299642 313.304202 C 425.299642 313.304202 425.800438 314.498194 426.600481 314.204177 C 427.400302 313.804366 426.90262 312.602855 426.90262 312.602855 L 403.195333 248.601704 M 402.499764 272.801305 C 402.102514 282.202823 407.904537 287.398404 407.19908 295.800214 C 406.504257 304.197619 410.997739 309.00093 412.202813 312.3012 C 413.196299 315.601914 410.999873 317.502046 411.903611 317.999706 C 412.90251 318.501548 414.895896 315.900718 414.298863 311.196302 C 413.698716 306.499405 410.096483 305.201099 410.900636 294.902294 C 411.697269 284.600374 406.702998 282.196955 407.903 272.898926 " transform="matrix(0.443462,-0.183688,0.183688,0.443462,-63.30688,82.60968)"/>
<path style=" stroke:none;fill-rule:nonzero;fill:rgb(52.156866%,20.392157%,3.921569%);fill-opacity:1;" d="M 171.710938 117.9375 C 176.03125 117.695312 177.953125 115.246094 181.9375 115.726562 C 178.816406 114.671875 176.367188 117.214844 171.761719 117.070312 M 160.335938 120.769531 L 180.785156 111.40625 L 159.710938 119.230469 "/>
<path style=" stroke:none;fill-rule:nonzero;fill:rgb(52.156866%,20.392157%,3.921569%);fill-opacity:1;" d="M 171.609375 122.574219 C 175.691406 124.007812 178.402344 122.480469 181.902344 124.449219 C 179.421875 122.277344 176.1875 123.691406 171.984375 121.796875 M 160.015625 120.839844 L 182.488281 120.015625 L 160.027344 119.179688 "/>
<path style=" stroke:none;fill-rule:nonzero;fill:rgb(52.156866%,20.392157%,3.921569%);fill-opacity:1;" d="M 169.742188 126.820312 C 172.964844 129.707031 176.054688 129.332031 178.53125 132.492188 C 177.074219 129.539062 173.542969 129.605469 170.386719 126.246094 M 159.695312 120.78125 L 180.773438 128.621094 L 160.339844 119.253906 "/>
<path style=" stroke:none;fill-rule:nonzero;fill:rgb(52.156866%,20.392157%,3.921569%);fill-opacity:1;" d="M 166.390625 130.03125 C 168.265625 133.929688 171.261719 134.765625 172.339844 138.632812 C 172.121094 135.34375 168.835938 134.058594 167.207031 129.746094 M 159.417969 120.605469 L 175.890625 135.914062 L 160.597656 119.441406 "/>
<path style="fill-rule:nonzero;fill:rgb(96.470588%,70.588237%,5.490196%);fill-opacity:1;stroke-width:1.4;stroke-linecap:butt;stroke-linejoin:miter;stroke:rgb(52.156866%,20.392157%,3.921569%);stroke-opacity:1;stroke-miterlimit:4;" d="M 346.703125 240 C 346.703125 225.257812 334.742188 213.296875 320 213.296875 C 305.257812 213.296875 293.296875 225.257812 293.296875 240 C 293.296875 254.742188 305.257812 266.703125 320 266.703125 C 334.742188 266.703125 346.703125 254.742188 346.703125 240 Z M 346.703125 240 " transform="matrix(0.5,0,0,0.5,0,0)"/>
<path style=" stroke:none;fill-rule:nonzero;fill:rgb(51.764709%,20.784314%,6.666667%);fill-opacity:1;" d="M 164.5 117.148438 C 163.648438 117.148438 162.75 117.550781 162.25 118.351562 C 163.25 119.300781 165.550781 119.351562 167.101562 118.25 C 166.4375 117.546875 165.515625 117.148438 164.550781 117.148438 Z M 164.5 117.351562 C 165.398438 117.351562 166.25 117.75 166.351562 118.148438 C 165.351562 119.300781 163.699219 119.148438 162.648438 118.351562 C 163.183594 117.683594 163.816406 117.351562 164.550781 117.351562 Z M 164.5 117.351562 "/>
<path style=" stroke:none;fill-rule:nonzero;fill:rgb(52.156866%,20.392157%,3.921569%);fill-opacity:1;" d="M 164.699219 116.5 C 163.351562 116.5 163.050781 116.800781 162.449219 117.351562 C 161.851562 117.851562 161.5 117.75 161.449219 117.851562 C 161.300781 117.949219 161.449219 118.25 161.601562 118.148438 C 161.832031 118.082031 162.25 117.816406 162.851562 117.351562 C 163.75 116.648438 164.101562 116.851562 164.699219 116.851562 C 166.550781 116.851562 167.550781 118.351562 167.75 118.25 C 168 118.148438 166.75 116.5 164.699219 116.5 "/>
<path style=" stroke:none;fill-rule:nonzero;fill:rgb(52.156866%,20.392157%,3.921569%);fill-opacity:1;" d="M 168.398438 117.148438 C 166.050781 115.101562 163.050781 114.75 161.398438 116.300781 C 161.019531 116.800781 160.761719 117.382812 160.648438 118 C 160.449219 119.199219 160.800781 120.449219 161.699219 121.75 L 161.300781 121.949219 C 160.5 120.382812 160.234375 118.816406 160.5 117.25 L 160.800781 116.101562 C 163.050781 114.25 166.148438 114.101562 168.398438 117.101562 Z M 168.398438 117.148438 "/>
<path style=" stroke:none;fill-rule:nonzero;fill:rgb(52.156866%,20.392157%,3.921569%);fill-opacity:1;" d="M 165.398438 118.148438 C 165.398438 117.652344 164.996094 117.25 164.5 117.25 C 164.003906 117.25 163.601562 117.652344 163.601562 118.148438 C 163.601562 118.648438 164.003906 119.050781 164.5 119.050781 C 164.996094 119.050781 165.398438 118.648438 165.398438 118.148438 Z M 165.398438 118.148438 "/>
<path style=" stroke:none;fill-rule:nonzero;fill:rgb(52.156866%,20.392157%,3.921569%);fill-opacity:1;" d="M 167.148438 118.75 C 165.398438 120.101562 163.648438 120 162.648438 119.398438 C 161.648438 118.75 161.648438 118.550781 161.851562 118.550781 C 162.050781 118.550781 162.25 118.75 163.050781 119.199219 C 163.898438 119.601562 165.101562 119.601562 167.148438 118.75 "/>
<path style=" stroke:none;fill-rule:nonzero;fill:rgb(52.156866%,20.392157%,3.921569%);fill-opacity:1;" d="M 158 121.851562 C 157.617188 121.941406 157.339844 122.265625 157.308594 122.65625 C 157.28125 123.046875 157.507812 123.414062 157.871094 123.558594 C 158.234375 123.707031 158.648438 123.601562 158.898438 123.300781 C 159.230469 123.503906 159.613281 123.609375 160 123.601562 L 160.101562 123.601562 C 160.433594 123.601562 160.816406 123.5 161.25 123.300781 C 161.417969 123.535156 161.667969 123.648438 162 123.648438 C 162.496094 123.691406 162.933594 123.320312 162.976562 122.824219 C 163.015625 122.328125 162.648438 121.890625 162.148438 121.851562 C 162.417969 121.949219 162.550781 122.148438 162.550781 122.449219 C 162.550781 122.78125 162.28125 123.050781 161.949219 123.050781 C 161.617188 123.050781 161.351562 122.78125 161.351562 122.449219 C 161.109375 122.953125 160.609375 123.28125 160.050781 123.300781 C 159.511719 123.261719 159.03125 122.9375 158.800781 122.449219 C 158.765625 122.816406 158.550781 123.015625 158.148438 123.050781 C 157.816406 123.015625 157.617188 122.816406 157.550781 122.449219 C 157.449219 121.898438 157.699219 121.949219 157.949219 121.851562 Z M 159 124.550781 C 157.949219 124.550781 157.5 125.550781 156.601562 126.101562 C 157.101562 125.898438 157.5 125.5 158.25 125.101562 C 159 124.699219 159.550781 125.199219 160 125.199219 C 160.449219 125.199219 161 124.699219 161.75 125.101562 C 162.417969 125.535156 162.964844 125.867188 163.398438 126.101562 C 162.449219 125.5 162.050781 124.601562 161 124.601562 C 160.765625 124.601562 160.433594 124.699219 160 124.898438 Z M 159 124.550781 "/>
<path style=" stroke:none;fill-rule:nonzero;fill:rgb(52.156866%,20.392157%,3.921569%);fill-opacity:1;" d="M 158.601562 125.800781 C 158.234375 125.800781 157.667969 125.898438 156.898438 126.101562 C 158.75 125.699219 159.148438 126.351562 160 126.351562 C 160.800781 126.351562 161.25 125.699219 163.050781 126.101562 C 161.050781 125.5 160.601562 125.898438 160 125.898438 C 159.601562 125.898438 159.300781 125.75 158.601562 125.800781 "/>
<path style=" stroke:none;fill-rule:nonzero;fill:rgb(52.156866%,20.392157%,3.921569%);fill-opacity:1;" d="M 157 126.101562 L 156.601562 126.101562 C 158.75 126.351562 157.75 127.601562 160 127.601562 C 162.25 127.601562 161.25 126.351562 163.398438 126.101562 C 161.148438 125.898438 161.851562 127.25 160 127.25 C 158.25 127.25 158.800781 126.101562 157 126.101562 "/>
<path style=" stroke:none;fill-rule:nonzero;fill:rgb(52.156866%,20.392157%,3.921569%);fill-opacity:1;" d="M 161.851562 129.449219 C 161.851562 128.429688 161.023438 127.601562 160 127.601562 C 158.976562 127.601562 158.148438 128.429688 158.148438 129.449219 C 158.351562 128.589844 159.117188 127.984375 160 127.984375 C 160.882812 127.984375 161.648438 128.589844 161.851562 129.449219 "/>
<path style=" stroke:none;fill-rule:nonzero;fill:rgb(52.156866%,20.392157%,3.921569%);fill-opacity:1;" d="M 151.699219 117.148438 C 154.050781 115.101562 157.050781 114.75 158.699219 116.300781 C 159.078125 116.800781 159.335938 117.382812 159.449219 118 C 159.648438 119.199219 159.300781 120.449219 158.398438 121.75 L 158.800781 121.949219 C 159.601562 120.382812 159.867188 118.816406 159.601562 117.25 L 159.300781 116.101562 C 157.050781 114.25 153.949219 114.101562 151.699219 117.101562 Z M 151.699219 117.148438 "/>
<path style=" stroke:none;fill-rule:nonzero;fill:rgb(52.156866%,20.392157%,3.921569%);fill-opacity:1;" d="M 155.398438 116.5 C 156.75 116.5 157.050781 116.800781 157.648438 117.351562 C 158.25 117.851562 158.601562 117.75 158.648438 117.851562 C 158.800781 117.949219 158.648438 118.25 158.5 118.148438 C 158.265625 118.082031 157.851562 117.816406 157.25 117.351562 C 156.351562 116.648438 156 116.851562 155.398438 116.851562 C 153.550781 116.851562 152.550781 118.351562 152.351562 118.25 C 152.101562 118.148438 153.351562 116.5 155.398438 116.5 "/>
<path style=" stroke:none;fill-rule:nonzero;fill:rgb(51.764709%,20.784314%,6.666667%);fill-opacity:1;" d="M 155.300781 117.148438 C 154.449219 117.148438 153.550781 117.550781 153.050781 118.351562 C 154.050781 119.300781 156.351562 119.351562 157.898438 118.25 C 157.238281 117.546875 156.316406 117.148438 155.351562 117.148438 Z M 155.300781 117.351562 C 156.199219 117.351562 157.050781 117.75 157.148438 118.148438 C 156.148438 119.300781 154.5 119.148438 153.449219 118.351562 C 153.984375 117.683594 154.617188 117.351562 155.351562 117.351562 Z M 155.300781 117.351562 "/>
<path style=" stroke:none;fill-rule:nonzero;fill:rgb(52.156866%,20.392157%,3.921569%);fill-opacity:1;" d="M 156.351562 118.148438 C 156.351562 117.652344 155.945312 117.25 155.449219 117.25 C 154.953125 117.25 154.550781 117.652344 154.550781 118.148438 C 154.550781 118.648438 154.953125 119.050781 155.449219 119.050781 C 155.945312 119.050781 156.351562 118.648438 156.351562 118.148438 Z M 156.351562 118.148438 "/>
<path style=" stroke:none;fill-rule:nonzero;fill:rgb(52.156866%,20.392157%,3.921569%);fill-opacity:1;" d="M 152.949219 118.75 C 154.699219 120.101562 156.449219 120 157.449219 119.398438 C 158.449219 118.75 158.449219 118.550781 158.25 118.550781 C 158.050781 118.550781 157.851562 118.75 157.050781 119.199219 C 156.199219 119.601562 155 119.601562 152.949219 118.75 "/>
</g>
</svg>
