<?xml version="1.0" encoding="UTF-8"?>
<svg xmlns="http://www.w3.org/2000/svg" xmlns:xlink="http://www.w3.org/1999/xlink" width="px" height="px" viewBox="0 0 320 240" version="1.1">
<g id="surface1">
<rect x="0" y="0" width="320" height="240" style="fill:rgb(0%,22.352941%,65.098041%);fill-opacity:1;stroke:none;"/>
<path style=" stroke:none;fill-rule:nonzero;fill:rgb(100%,100%,100%);fill-opacity:1;" d="M 232 120 C 232 80.234375 199.765625 48 160 48 C 120.234375 48 88 80.234375 88 120 C 88 159.765625 120.234375 192 160 192 C 199.765625 192 232 159.765625 232 120 Z M 232 120 "/>
<path style=" stroke:none;fill-rule:nonzero;fill:rgb(92.941177%,16.078432%,22.352941%);fill-opacity:1;" d="M 228.648438 120 C 228.648438 82.085938 197.914062 51.351562 160 51.351562 C 122.085938 51.351562 91.351562 82.085938 91.351562 120 C 91.351562 157.914062 122.085938 188.648438 160 188.648438 C 197.914062 188.648438 228.648438 157.914062 228.648438 120 Z M 228.648438 120 "/>
<path style=" stroke:none;fill-rule:nonzero;fill:rgb(97.647059%,89.019608%,0%);fill-opacity:1;" d="M 141.519531 120 C 129.519531 112.800781 124 98.398438 124 84 L 129.519531 84 L 129.519531 84.480469 C 129.519531 89.28125 130.238281 106.800781 143.441406 120 C 134.535156 129.691406 129.570312 142.359375 129.519531 155.519531 L 129.519531 156 L 124 156 C 124 141.601562 129.761719 127.199219 141.519531 120 "/>
<path style=" stroke:none;fill-rule:nonzero;fill:rgb(97.647059%,89.019608%,0%);fill-opacity:1;" d="M 131.199219 84.480469 L 131.199219 84 L 136.960938 84 L 136.960938 84.71875 C 136.960938 89.519531 137.921875 106.320312 147.28125 120 C 137.679688 133.679688 136.960938 150.480469 136.960938 155.28125 L 136.960938 156 L 131.199219 156 L 131.199219 155.519531 C 131.199219 150.71875 132.398438 133.199219 145.121094 120 C 136.214844 110.308594 131.25 97.640625 131.199219 84.480469 "/>
<path style=" stroke:none;fill-rule:nonzero;fill:rgb(97.647059%,89.019608%,0%);fill-opacity:1;" d="M 149.441406 120 L 148.960938 119.519531 C 142.359375 109.113281 138.863281 97.042969 138.878906 84.71875 L 138.878906 84 L 144.160156 84 L 144.160156 84.960938 C 144.160156 90 144.878906 106.078125 151.359375 120 C 146.671875 131.089844 144.222656 143 144.160156 155.039062 L 144.160156 156 L 138.878906 156 L 138.878906 155.28125 C 138.878906 150.480469 139.359375 135.359375 148.960938 120.480469 "/>
<path style=" stroke:none;fill-rule:nonzero;fill:rgb(97.647059%,89.019608%,0%);fill-opacity:1;" d="M 153.28125 120 C 148.398438 108.632812 145.945312 96.371094 146.078125 84 L 151.601562 84 L 151.601562 85.679688 C 151.601562 91.679688 152.078125 106.320312 155.199219 120 C 152.824219 131.285156 151.617188 142.785156 151.601562 154.320312 L 151.601562 156 L 146.320312 156 L 146.320312 155.039062 C 146.320312 150 146.800781 133.441406 153.039062 120.238281 "/>
<path style=" stroke:none;fill-rule:nonzero;fill:rgb(97.647059%,89.019608%,0%);fill-opacity:1;" d="M 157.121094 120 C 154.808594 108.707031 153.683594 97.207031 153.761719 85.679688 L 153.761719 84 L 159.039062 84 L 159.039062 156 L 153.761719 156 L 153.761719 154.320312 C 153.761719 148.558594 153.761719 133.679688 157.121094 120.238281 "/>
<path style=" stroke:none;fill-rule:nonzero;fill:rgb(97.647059%,89.019608%,0%);fill-opacity:1;" d="M 178.480469 120 C 190.480469 112.800781 196 98.398438 196 84 L 190.480469 84 L 190.480469 84.480469 C 190.480469 89.28125 189.761719 106.800781 176.558594 120 C 185.464844 129.691406 190.429688 142.359375 190.480469 155.519531 L 190.480469 156 L 196 156 C 196 141.601562 190.238281 127.199219 178.480469 120 "/>
<path style=" stroke:none;fill-rule:nonzero;fill:rgb(97.647059%,89.019608%,0%);fill-opacity:1;" d="M 188.800781 84.480469 L 188.800781 84 L 183.039062 84 L 183.039062 84.71875 C 183.039062 89.519531 182.078125 106.320312 172.71875 120 C 182.320312 133.679688 183.039062 150.480469 183.039062 155.28125 L 183.039062 156 L 188.800781 156 L 188.800781 155.519531 C 188.800781 150.71875 187.601562 133.199219 174.878906 120 C 183.785156 110.308594 188.75 97.640625 188.800781 84.480469 "/>
<path style=" stroke:none;fill-rule:nonzero;fill:rgb(97.647059%,89.019608%,0%);fill-opacity:1;" d="M 170.558594 120 L 171.039062 119.519531 C 177.640625 109.113281 181.136719 97.042969 181.121094 84.71875 L 181.121094 84 L 175.839844 84 L 175.839844 84.960938 C 175.839844 90 175.121094 106.078125 168.640625 120 C 173.328125 131.089844 175.777344 143 175.839844 155.039062 L 175.839844 156 L 181.121094 156 L 181.121094 155.28125 C 181.121094 150.480469 180.640625 135.359375 171.039062 120.480469 "/>
<path style=" stroke:none;fill-rule:nonzero;fill:rgb(97.647059%,89.019608%,0%);fill-opacity:1;" d="M 166.71875 120 C 171.601562 108.632812 174.054688 96.371094 173.921875 84 L 168.398438 84 L 168.398438 85.679688 C 168.398438 91.679688 167.921875 106.320312 164.800781 120 C 167.175781 131.285156 168.382812 142.785156 168.398438 154.320312 L 168.398438 156 L 173.679688 156 L 173.679688 155.039062 C 173.679688 150 173.199219 133.441406 166.960938 120.238281 "/>
<path style=" stroke:none;fill-rule:nonzero;fill:rgb(97.647059%,89.019608%,0%);fill-opacity:1;" d="M 162.878906 120 C 165.191406 108.707031 166.316406 97.207031 166.238281 85.679688 L 166.238281 84 L 160.960938 84 L 160.960938 156 L 166.238281 156 L 166.238281 154.320312 C 166.238281 148.558594 166.238281 133.679688 162.878906 120.238281 "/>
</g>
</svg>
