<?xml version="1.0" encoding="UTF-8"?>
<svg xmlns="http://www.w3.org/2000/svg" xmlns:xlink="http://www.w3.org/1999/xlink" width="px" height="px" viewBox="0 0 320 240" version="1.1">
<g id="surface1">
<rect x="0" y="0" width="320" height="240" style="fill:rgb(0%,14.901961%,49.803922%);fill-opacity:1;stroke:none;"/>
<path style=" stroke:none;fill-rule:nonzero;fill:rgb(100%,78.039217%,14.901961%);fill-opacity:1;" d="M 106.648438 0 L 213.351562 0 L 213.351562 240 L 106.648438 240 Z M 106.648438 0 "/>
<path style=" stroke:none;fill-rule:nonzero;fill:rgb(0%,0%,0.392157%);fill-opacity:1;" d="M 159.898438 67.75 C 156.398438 77.25 152.898438 87.050781 145.300781 94.601562 C 147.648438 93.800781 151.800781 93.101562 154.398438 93.199219 L 154.398438 132.949219 L 143.199219 134.601562 C 142.800781 134.601562 142.699219 133.949219 142.699219 133.101562 C 141.601562 120.75 138.699219 110.351562 135.300781 99.601562 C 135.050781 98.148438 130.800781 92.601562 134.101562 93.601562 C 134.5 93.601562 138.851562 95.398438 138.199219 94.550781 C 131.917969 88.214844 123.800781 84.015625 115 82.550781 C 114.25 82.398438 113.800781 82.800781 114.5 83.648438 C 125.699219 100.949219 135.148438 121.398438 135.050781 145.648438 C 139.449219 145.648438 150.050781 143.050781 154.398438 143.050781 L 154.398438 171.101562 L 160 171.101562 L 161.25 92.75 Z M 159.898438 67.75 "/>
<path style=" stroke:none;fill-rule:nonzero;fill:rgb(0%,0%,0.392157%);fill-opacity:1;" d="M 159.851562 67.75 C 163.351562 77.25 166.851562 87.050781 174.449219 94.601562 C 172.101562 93.800781 167.949219 93.101562 165.351562 93.199219 L 165.351562 132.949219 L 176.550781 134.601562 C 176.949219 134.601562 177.050781 133.949219 177.050781 133.101562 C 178.148438 120.75 181.050781 110.351562 184.449219 99.601562 C 184.699219 98.148438 188.949219 92.601562 185.648438 93.601562 C 185.25 93.601562 180.898438 95.398438 181.550781 94.550781 C 187.832031 88.214844 195.949219 84.015625 204.75 82.550781 C 205.5 82.398438 205.949219 82.800781 205.25 83.648438 C 194.050781 100.949219 184.601562 121.398438 184.699219 145.648438 C 180.300781 145.648438 169.699219 143.050781 165.351562 143.050781 L 165.351562 171.101562 L 159.75 171.101562 L 158.5 92.75 Z M 159.851562 67.75 "/>
</g>
</svg>
