<?xml version="1.0" encoding="UTF-8"?>
<svg xmlns="http://www.w3.org/2000/svg" xmlns:xlink="http://www.w3.org/1999/xlink" width="px" height="px" viewBox="0 0 320 240" version="1.1">
<g id="surface1">
<rect x="0" y="0" width="320" height="240" style="fill:rgb(96.862745%,87.843138%,9.019608%);fill-opacity:1;stroke:none;"/>
<path style=" stroke:none;fill-rule:nonzero;fill:rgb(100%,100%,100%);fill-opacity:1;" d="M 0 16.648438 L 0 123.351562 L 320 173.351562 L 320 116.648438 Z M 0 16.648438 "/>
<path style=" stroke:none;fill-rule:nonzero;fill:rgb(0%,0%,0.392157%);fill-opacity:1;" d="M 0 73.351562 L 0 123.351562 L 320 223.351562 L 320 173.351562 Z M 0 73.351562 "/>
<path style=" stroke:none;fill-rule:nonzero;fill:rgb(81.176472%,6.666667%,14.901961%);fill-opacity:1;" d="M 151.902344 189.902344 C 146.050781 189.257812 140.421875 187.296875 135.433594 184.167969 C 134.632812 183.632812 133.902344 183.167969 133.769531 183.167969 C 133.632812 183.167969 133.566406 183.800781 133.566406 184.535156 C 133.566406 186.667969 132.699219 187.734375 130.566406 188.300781 C 128.5 188.835938 125.367188 187.769531 122.835938 185.632812 C 120.433594 183.578125 117.628906 182.042969 114.601562 181.132812 C 111.449219 180.386719 108.128906 180.8125 105.269531 182.335938 C 104.984375 182.53125 104.667969 182.679688 104.335938 182.769531 C 103.96875 182.769531 104 180.46875 104.402344 179.765625 C 104.902344 178.765625 106.101562 177.835938 107.535156 177.335938 C 108.269531 177.066406 108.867188 176.734375 108.867188 176.566406 C 108.867188 176.402344 108.601562 175.902344 108.300781 175.367188 C 107.34375 173.613281 107.722656 172.066406 109.433594 170.734375 C 111.167969 169.402344 114.101562 169.199219 116.667969 170.167969 L 118 170.632812 C 118.335938 170.632812 118.132812 170.132812 117.199219 168.765625 C 116.132812 167.199219 115.902344 166.433594 116.035156 164.535156 C 116.261719 162.148438 118.148438 160.261719 120.535156 160.035156 C 122.46875 159.902344 123.667969 160.566406 126.535156 163.265625 C 134.234375 171.015625 144.347656 175.910156 155.203125 177.132812 C 157.96875 177.46875 163.46875 177.300781 166.703125 176.800781 C 176.945312 175.09375 186.441406 170.355469 193.96875 163.199219 C 196.101562 161.199219 197.101562 160.667969 198.867188 160.667969 C 200.367188 160.667969 201.433594 161.132812 202.535156 162.335938 C 203.535156 163.433594 203.867188 164.46875 203.734375 166.167969 C 203.667969 167.234375 203.5 167.734375 202.867188 168.800781 C 201.933594 170.300781 202.101562 170.46875 203.933594 169.734375 C 206.46875 168.734375 209.566406 169.199219 211.234375 170.800781 C 212.703125 172.199219 212.835938 173.601562 211.703125 175.46875 C 211.269531 176.167969 210.933594 176.800781 210.933594 176.933594 C 210.933594 177.132812 211.269531 177.199219 212.769531 177.46875 C 214.769531 177.800781 215.933594 179.265625 215.933594 181.535156 C 215.933594 182.199219 215.835938 182.769531 215.734375 182.769531 C 215.636719 182.769531 214.867188 182.46875 214.066406 182.132812 C 211.734375 181.167969 210.402344 180.933594 207.667969 180.96875 C 205.601562 180.96875 204.902344 181.066406 203.46875 181.535156 C 201.070312 182.371094 198.863281 183.675781 196.96875 185.367188 C 194.835938 187.269531 193.5 187.867188 191.433594 187.835938 C 189.5 187.835938 188.191406 187.277344 187.5 186.167969 C 187.132812 185.566406 187.066406 185.234375 187.167969 183.902344 C 187.234375 183.035156 187.203125 182.335938 187.167969 182.335938 C 187.066406 182.335938 186.335938 182.800781 185.5 183.367188 C 183.597656 184.730469 181.523438 185.839844 179.335938 186.667969 C 170.558594 189.839844 161.171875 190.945312 151.902344 189.902344 "/>
<path style=" stroke:none;fill-rule:nonzero;fill:rgb(81.176472%,6.666667%,14.901961%);fill-opacity:1;" d="M 155.433594 175.066406 C 142.382812 173.886719 130.484375 167.113281 122.800781 156.5 C 114.667969 145.433594 112.132812 130.800781 114.601562 117.433594 C 115.933594 111.332031 118.601562 105.234375 123.101562 100.902344 C 119.402344 108.601562 118.378906 117.320312 120.199219 125.667969 C 123.199219 142.265625 137.199219 156.300781 153.96875 158.734375 C 160.632812 160.632812 167.46875 158.601562 173.800781 156.566406 C 187.800781 151.632812 198.46875 138.367188 199.734375 123.535156 C 200.835938 115.535156 199.632812 107.167969 196 99.867188 C 198.066406 100.96875 200.667969 105.265625 202.203125 108.132812 C 207.535156 118.46875 207.769531 130.835938 204.636719 141.867188 C 200.367188 155.902344 189.632812 168.199219 175.46875 172.667969 C 169.003906 174.683594 162.226562 175.496094 155.46875 175.066406 Z M 155.433594 175.066406 "/>
<path style=" stroke:none;fill-rule:nonzero;fill:rgb(81.176472%,6.666667%,14.901961%);fill-opacity:1;" d="M 90.667969 156.632812 C 89.835938 156.5 88.902344 157.335938 89.234375 158.199219 C 89.835938 159.066406 90.902344 159.535156 91.835938 159.933594 C 94.292969 160.894531 96.933594 161.304688 99.566406 161.132812 C 101.5 161.132812 103.417969 160.792969 105.234375 160.132812 C 106.234375 159.800781 107.5 159.46875 107.902344 158.335938 C 108.335938 157.632812 107.566406 156.902344 106.867188 157.035156 C 105.867188 157.265625 104.867188 157.699219 103.867188 158 C 101.667969 158.621094 99.378906 158.847656 97.101562 158.667969 C 95.445312 158.425781 93.828125 157.957031 92.300781 157.265625 C 91.765625 157.035156 91.265625 156.699219 90.667969 156.632812 "/>
<path style=" stroke:none;fill-rule:nonzero;fill:rgb(81.176472%,6.666667%,14.901961%);fill-opacity:1;" d="M 91.601562 153.167969 C 90.765625 153.035156 90.035156 154.035156 90.367188 154.835938 C 91.035156 155.765625 92.132812 156.265625 93.167969 156.699219 C 94.96875 157.410156 96.898438 157.742188 98.835938 157.667969 L 99.335938 157.667969 C 100.980469 157.671875 102.609375 157.355469 104.132812 156.734375 C 105.035156 156.367188 106.167969 156 106.566406 155 C 106.867188 154.433594 106.632812 153.632812 105.902344 153.566406 C 105.300781 153.566406 104.734375 153.96875 104.132812 154.132812 C 101.964844 155.035156 99.609375 155.402344 97.265625 155.199219 C 95.800781 155.035156 94.433594 154.5 93.101562 153.867188 C 92.601562 153.632812 92.167969 153.265625 91.601562 153.199219 Z M 91.601562 153.167969 "/>
<path style=" stroke:none;fill-rule:nonzero;fill:rgb(81.176472%,6.666667%,14.901961%);fill-opacity:1;" d="M 92.765625 149.867188 C 92.035156 149.765625 91.535156 150.601562 91.667969 151.234375 C 91.765625 151.835938 92.265625 152.234375 92.699219 152.566406 C 94.515625 153.824219 96.695312 154.445312 98.902344 154.335938 L 99.433594 154.335938 C 100.820312 154.324219 102.1875 154.003906 103.433594 153.402344 C 104.269531 153.066406 105.234375 152.632812 105.535156 151.667969 C 105.667969 151.234375 105.734375 150.601562 105.234375 150.335938 C 104.699219 150.066406 104.199219 150.5 103.734375 150.667969 C 102.140625 151.503906 100.367188 151.949219 98.566406 151.96875 C 97.023438 151.90625 95.519531 151.445312 94.199219 150.632812 C 93.699219 150.402344 93.300781 149.96875 92.765625 149.867188 "/>
<path style=" stroke:none;fill-rule:nonzero;fill:rgb(81.176472%,6.666667%,14.901961%);fill-opacity:1;" d="M 80.5 100.902344 C 79.433594 102 80.265625 104 80.167969 105.402344 C 80.765625 109.800781 81.46875 114.234375 83.101562 118.402344 C 85.101562 122.402344 89.367188 124.566406 91.933594 128.132812 C 92.867188 129.835938 92.535156 131.902344 92.734375 133.800781 C 92.84375 138.910156 92.84375 144.023438 92.734375 149.132812 C 95.066406 150.335938 97.566406 151.46875 100.234375 151.035156 C 101.800781 150.667969 104.734375 150.433594 105.066406 148.867188 L 104.734375 122.367188 C 103.835938 119.667969 101.066406 118.265625 99.035156 116.535156 C 97.335938 114.855469 95.753906 113.0625 94.300781 111.167969 C 93.433594 109.667969 90 109.167969 91.234375 111.699219 C 91.96875 113.933594 93.800781 115.566406 94.265625 117.902344 C 94.367188 119.199219 95.933594 121.566406 94.601562 122.300781 C 93.769531 120.859375 92.527344 119.699219 91.035156 118.96875 C 89.566406 117.867188 87.132812 117.402344 86.601562 115.46875 C 86.117188 112.71875 84.84375 110.167969 82.933594 108.132812 C 83.433594 105.667969 82.933594 102.566406 80.800781 100.96875 Z M 80.5 100.902344 "/>
<path style=" stroke:none;fill-rule:nonzero;fill:rgb(81.176472%,6.666667%,14.901961%);fill-opacity:1;" d="M 83.800781 101.402344 C 82.800781 101.566406 82.867188 102.800781 83.300781 103.46875 C 83.796875 104.902344 83.925781 106.4375 83.667969 107.933594 C 85.496094 109.96875 86.722656 112.472656 87.199219 115.167969 C 87.199219 116.167969 88.265625 116.5 88.96875 117 C 90.601562 118.035156 92.402344 118.800781 93.867188 120.101562 C 94.167969 120.433594 94.402344 120.765625 94.199219 120.101562 C 93.96875 119.234375 93.867188 118.300781 93.199219 117.667969 C 92.265625 116.667969 91.132812 115.800781 89.800781 115.535156 C 89.699219 114.132812 89.035156 112.867188 88.433594 111.667969 C 87.765625 110.5 87.066406 109.265625 85.933594 108.535156 C 85.933594 106.5 85.933594 104.367188 85.066406 102.46875 C 84.800781 102 84.402344 101.433594 83.800781 101.402344 "/>
<path style=" stroke:none;fill-rule:nonzero;fill:rgb(81.176472%,6.666667%,14.901961%);fill-opacity:1;" d="M 86.566406 102.199219 C 85.902344 102.402344 86.035156 103.265625 86.234375 103.765625 C 86.523438 105.214844 86.636719 106.691406 86.566406 108.167969 C 87.867188 109.167969 88.632812 110.632812 89.367188 112.035156 C 89.855469 112.96875 90.199219 113.957031 90.402344 115 C 91.433594 115.332031 92.335938 116 93.132812 116.667969 C 92.800781 115.734375 92.132812 115 91.632812 114.101562 C 91.132812 113.199219 90.632812 112.234375 90.402344 111.199219 C 89.402344 110.167969 88.867188 108.667969 89.066406 107.199219 C 89.132812 105.632812 88.632812 104 87.566406 102.800781 C 87.300781 102.535156 86.96875 102.234375 86.566406 102.199219 "/>
<path style=" stroke:none;fill-rule:nonzero;fill:rgb(81.176472%,6.666667%,14.901961%);fill-opacity:1;" d="M 89.734375 102.667969 C 89.335938 102.734375 89.132812 103.066406 88.933594 103.367188 C 88.835938 103.667969 89.199219 103.96875 89.265625 104.300781 C 89.699219 105.402344 89.859375 106.589844 89.734375 107.765625 C 89.734375 108.632812 89.957031 109.410156 90.402344 110.101562 C 90.5625 109.582031 91.023438 109.210938 91.566406 109.167969 C 91.734375 109.167969 92.035156 109.234375 91.902344 108.933594 C 91.8125 107.3125 91.5 105.757812 90.96875 104.265625 C 90.796875 103.691406 90.472656 103.175781 90.035156 102.765625 C 89.945312 102.679688 89.835938 102.644531 89.699219 102.667969 Z M 89.734375 102.667969 "/>
<path style=" stroke:none;fill-rule:nonzero;fill:rgb(81.176472%,6.666667%,14.901961%);fill-opacity:1;" d="M 229.335938 156.632812 C 230.167969 156.5 231.101562 157.335938 230.769531 158.199219 C 230.167969 159.066406 229.101562 159.535156 228.167969 159.933594 C 225.710938 160.894531 223.070312 161.304688 220.433594 161.132812 C 218.503906 161.132812 216.585938 160.792969 214.769531 160.132812 C 213.769531 159.800781 212.5 159.46875 212.101562 158.335938 C 211.667969 157.632812 212.433594 156.902344 213.136719 157.035156 C 214.136719 157.265625 215.136719 157.699219 216.136719 158 C 218.332031 158.621094 220.625 158.847656 222.902344 158.667969 C 224.558594 158.425781 226.175781 157.957031 227.703125 157.265625 C 228.234375 157.035156 228.734375 156.699219 229.335938 156.632812 "/>
<path style=" stroke:none;fill-rule:nonzero;fill:rgb(81.176472%,6.666667%,14.901961%);fill-opacity:1;" d="M 228.402344 153.167969 C 229.234375 153.035156 229.96875 154.035156 229.636719 154.835938 C 228.96875 155.765625 227.867188 156.265625 226.835938 156.699219 C 225.03125 157.410156 223.105469 157.742188 221.167969 157.667969 L 220.667969 157.667969 C 219.023438 157.671875 217.390625 157.355469 215.867188 156.734375 C 214.96875 156.367188 213.835938 156 213.433594 155 C 213.136719 154.433594 213.367188 153.632812 214.101562 153.566406 C 214.703125 153.566406 215.269531 153.96875 215.867188 154.132812 C 218.039062 155.035156 220.394531 155.402344 222.734375 155.199219 C 224.203125 155.035156 225.566406 154.5 226.902344 153.867188 C 227.402344 153.632812 227.835938 153.265625 228.402344 153.199219 Z M 228.402344 153.167969 "/>
<path style=" stroke:none;fill-rule:nonzero;fill:rgb(81.176472%,6.666667%,14.901961%);fill-opacity:1;" d="M 227.234375 149.867188 C 227.96875 149.765625 228.46875 150.601562 228.335938 151.234375 C 228.234375 151.835938 227.734375 152.234375 227.300781 152.566406 C 225.488281 153.824219 223.304688 154.445312 221.101562 154.335938 L 220.566406 154.335938 C 219.183594 154.324219 217.816406 154.003906 216.566406 153.402344 C 215.734375 153.066406 214.769531 152.632812 214.46875 151.667969 C 214.335938 151.234375 214.269531 150.601562 214.769531 150.335938 C 215.300781 150.066406 215.800781 150.5 216.269531 150.667969 C 217.863281 151.503906 219.632812 151.949219 221.433594 151.96875 C 222.980469 151.90625 224.484375 151.445312 225.800781 150.632812 C 226.300781 150.402344 226.703125 149.96875 227.234375 149.867188 "/>
<path style=" stroke:none;fill-rule:nonzero;fill:rgb(81.176472%,6.666667%,14.901961%);fill-opacity:1;" d="M 239.5 100.902344 C 240.566406 102 239.734375 104 239.835938 105.402344 C 239.234375 109.800781 238.535156 114.234375 236.902344 118.402344 C 234.902344 122.402344 230.636719 124.566406 228.066406 128.132812 C 227.136719 129.835938 227.46875 131.902344 227.269531 133.800781 C 227.15625 138.910156 227.15625 144.023438 227.269531 149.132812 C 224.933594 150.335938 222.433594 151.46875 219.769531 151.035156 C 218.203125 150.667969 215.269531 150.433594 214.933594 148.867188 L 215.269531 122.367188 C 216.167969 119.667969 218.933594 118.265625 220.96875 116.535156 C 222.667969 114.855469 224.25 113.0625 225.703125 111.167969 C 226.566406 109.667969 230 109.167969 228.769531 111.699219 C 228.035156 113.933594 226.203125 115.566406 225.734375 117.902344 C 225.636719 119.199219 224.066406 121.566406 225.402344 122.300781 C 226.230469 120.859375 227.472656 119.699219 228.96875 118.96875 C 230.433594 117.867188 232.867188 117.402344 233.402344 115.46875 C 233.882812 112.71875 235.15625 110.167969 237.066406 108.132812 C 236.566406 105.667969 237.066406 102.566406 239.203125 100.96875 Z M 239.5 100.902344 "/>
<path style=" stroke:none;fill-rule:nonzero;fill:rgb(81.176472%,6.666667%,14.901961%);fill-opacity:1;" d="M 236.203125 101.402344 C 237.203125 101.566406 237.136719 102.800781 236.703125 103.46875 C 236.203125 104.902344 236.078125 106.4375 236.335938 107.933594 C 234.503906 109.96875 233.28125 112.472656 232.800781 115.167969 C 232.800781 116.167969 231.734375 116.5 231.035156 117 C 229.402344 118.035156 227.601562 118.800781 226.136719 120.101562 C 225.835938 120.433594 225.601562 120.765625 225.800781 120.101562 C 226.035156 119.234375 226.136719 118.300781 226.800781 117.667969 C 227.734375 116.667969 228.867188 115.800781 230.203125 115.535156 C 230.300781 114.132812 230.96875 112.867188 231.566406 111.667969 C 232.234375 110.5 232.933594 109.265625 234.066406 108.535156 C 234.066406 106.5 234.066406 104.367188 234.933594 102.46875 C 235.203125 102 235.601562 101.433594 236.203125 101.402344 "/>
<path style=" stroke:none;fill-rule:nonzero;fill:rgb(81.176472%,6.666667%,14.901961%);fill-opacity:1;" d="M 233.433594 102.199219 C 234.101562 102.402344 233.96875 103.265625 233.769531 103.765625 C 233.476562 105.214844 233.363281 106.691406 233.433594 108.167969 C 232.136719 109.167969 231.367188 110.632812 230.636719 112.035156 C 230.144531 112.96875 229.800781 113.957031 229.601562 115 C 228.566406 115.332031 227.667969 116 226.867188 116.667969 C 227.203125 115.734375 227.867188 115 228.367188 114.101562 C 228.867188 113.199219 229.367188 112.234375 229.601562 111.199219 C 230.601562 110.167969 231.136719 108.667969 230.933594 107.199219 C 230.867188 105.632812 231.367188 104 232.433594 102.800781 C 232.703125 102.535156 233.035156 102.234375 233.433594 102.199219 "/>
<path style=" stroke:none;fill-rule:nonzero;fill:rgb(81.176472%,6.666667%,14.901961%);fill-opacity:1;" d="M 230.269531 102.667969 C 230.667969 102.734375 230.867188 103.066406 231.066406 103.367188 C 231.167969 103.667969 230.800781 103.96875 230.734375 104.300781 C 230.300781 105.402344 230.140625 106.589844 230.269531 107.765625 C 230.269531 108.632812 230.046875 109.410156 229.601562 110.101562 C 229.441406 109.582031 228.976562 109.210938 228.433594 109.167969 C 228.269531 109.167969 227.96875 109.234375 228.101562 108.933594 C 228.191406 107.3125 228.5 105.757812 229.035156 104.265625 C 229.207031 103.691406 229.527344 103.175781 229.96875 102.765625 C 230.058594 102.679688 230.167969 102.644531 230.300781 102.667969 Z M 230.269531 102.667969 "/>
<path style=" stroke:none;fill-rule:nonzero;fill:rgb(81.176472%,6.666667%,14.901961%);fill-opacity:1;" d="M 158.566406 158.667969 C 153.984375 158.140625 150.109375 155.027344 148.601562 150.667969 C 148.699219 149.933594 149.601562 151.066406 150.035156 151.167969 C 150.847656 151.652344 151.757812 151.949219 152.703125 152.035156 C 153.867188 152.535156 154.601562 153.699219 155.734375 154.335938 C 156.269531 154.734375 158.132812 155.535156 157.769531 154.234375 C 157.335938 153.566406 157.035156 152.699219 157.433594 151.902344 C 158.035156 150.535156 159 149.335938 160 148.167969 C 160.703125 147.933594 161.203125 149.367188 161.703125 149.835938 C 162.402344 150.933594 163.269531 152.265625 162.835938 153.601562 C 162.433594 154.101562 162.167969 155.601562 163.269531 155.132812 C 164.601562 154.535156 165.703125 153.535156 166.800781 152.601562 C 167.800781 151.933594 169.035156 151.902344 170.035156 151.265625 C 170.535156 151.167969 171.5 150.234375 171.703125 150.734375 C 171.105469 152.222656 170.269531 153.609375 169.234375 154.835938 C 167.632812 156.738281 165.417969 158.023438 162.96875 158.46875 C 161.5 158.734375 160.035156 158.800781 158.566406 158.667969 "/>
<path style=" stroke:none;fill-rule:nonzero;fill:rgb(81.176472%,6.666667%,14.901961%);fill-opacity:1;" d="M 163.835938 153.402344 C 163.921875 152.511719 163.734375 151.621094 163.269531 150.734375 C 162.535156 149.355469 161.644531 148.035156 160.601562 146.765625 C 159.667969 146.234375 159.167969 148 158.566406 148.5 C 157.601562 149.933594 156.402344 151.402344 156.335938 153.167969 C 155.800781 154 154.800781 152.5 154.367188 152 C 153.480469 150.859375 153.007812 149.445312 153.035156 148 C 152.957031 145.652344 153.363281 143.316406 154.234375 141.132812 C 154.902344 139.265625 155.933594 137.46875 155.835938 135.46875 C 155.902344 133.902344 155.601562 132.234375 154.367188 131.199219 C 153.167969 130.265625 155.132812 130.066406 155.734375 130.535156 C 156.800781 130.632812 157.367188 132.367188 158.335938 131.933594 C 158.703125 131.035156 158.800781 129.933594 159.601562 129.234375 C 160.367188 128.167969 161.167969 129.667969 161.433594 130.402344 C 162 131 161.433594 132.566406 162.300781 132.601562 C 163.367188 131.835938 164.132812 130.601562 165.5 130.300781 C 166.066406 129.96875 167 130.300781 166.269531 130.902344 C 165.269531 131.867188 164.402344 133.035156 164.203125 134.46875 C 163.902344 136.234375 164.335938 138.035156 165.101562 139.601562 C 166.601562 142.734375 167.769531 146.265625 167 149.765625 C 166.667969 151.300781 165.601562 152.632812 164.335938 153.535156 C 164.167969 153.632812 163.902344 153.632812 163.835938 153.402344 "/>
<path style=" stroke:none;fill-rule:nonzero;fill:rgb(81.176472%,6.666667%,14.901961%);fill-opacity:1;" d="M 162.234375 129.867188 C 161.789062 128.964844 161.152344 128.167969 160.367188 127.535156 C 159.566406 127.535156 159.066406 128.535156 158.535156 129.066406 C 158.167969 129.765625 157.703125 130.933594 156.769531 130.035156 C 155.269531 129.167969 155.035156 127.265625 155.035156 125.699219 C 154.933594 123.167969 155.96875 120.800781 156.867188 118.5 C 157.433594 117.066406 157.300781 115.433594 156.933594 113.96875 C 156.5 112.300781 155.132812 111.101562 154.101562 109.765625 C 154.167969 109.265625 155.5 109.535156 156 109.632812 C 157.132812 109.933594 157.800781 110.902344 158.632812 111.632812 C 159.234375 111.433594 158.96875 110.234375 159.269531 109.667969 C 159.269531 108.867188 160.335938 107.832031 160.769531 108.96875 C 161.433594 109.699219 160.769531 111.132812 161.601562 111.566406 C 162.402344 111.265625 162.800781 110.402344 163.535156 110 C 164.3125 109.496094 165.296875 109.433594 166.132812 109.832031 C 166.433594 110.566406 165.269531 111.167969 164.933594 111.832031 C 163.5625 113.507812 163.089844 115.746094 163.667969 117.832031 C 164.132812 119.5 164.933594 121 165.234375 122.667969 C 165.59375 124.566406 165.539062 126.523438 165.066406 128.402344 C 164.769531 129.535156 163.800781 130.265625 162.800781 130.734375 C 162.578125 130.488281 162.390625 130.199219 162.234375 129.867188 "/>
<path style=" stroke:none;fill-rule:nonzero;fill:rgb(81.176472%,6.666667%,14.901961%);fill-opacity:1;" d="M 157.203125 108.96875 C 156.066406 108.132812 155.703125 107.367188 155.703125 105.800781 C 155.703125 105.035156 155.867188 104.601562 156.367188 103.867188 C 157.167969 102.824219 157.023438 102.457031 155.933594 102.765625 C 154.203125 103.277344 153.3125 102.800781 153.269531 101.332031 C 153.269531 100.601562 153.402344 100.300781 154.367188 99.101562 C 155.167969 98.1875 155.480469 97.65625 155.300781 97.5 C 155.167969 97.34375 154.167969 98.210938 152.300781 100.101562 C 151.109375 101.355469 149.839844 102.535156 148.5 103.632812 C 145.234375 105.832031 142.101562 106.167969 140.667969 104.46875 C 139.933594 103.601562 139.96875 103.132812 140.800781 102.601562 C 141.332031 102.242188 141.824219 101.828125 142.269531 101.367188 C 143.902344 99.875 145.703125 98.578125 147.632812 97.5 C 148.855469 96.855469 149.089844 96.523438 148.335938 96.5 C 147.335938 96.5 144.167969 98.566406 141.734375 100.765625 C 141.035156 101.433594 140 102.167969 139.46875 102.433594 C 137.984375 102.980469 136.378906 103.097656 134.835938 102.765625 C 134.101562 102.535156 132.734375 101.265625 132.734375 100.800781 C 132.734375 100.699219 133.066406 100.433594 133.402344 100.199219 C 133.945312 99.894531 134.457031 99.535156 134.933594 99.132812 C 136.867188 97.46875 140.535156 95.699219 143.433594 95.066406 C 144.367188 94.902344 144 94.402344 142.96875 94.46875 C 139.90625 95.050781 137.042969 96.390625 134.632812 98.367188 C 131.867188 100.667969 127.699219 100.433594 126.367188 97.933594 C 126.132812 97.5 125.96875 97.101562 126.035156 97.035156 C 128.394531 96.4375 130.675781 95.566406 132.835938 94.433594 C 134.691406 93.34375 136.738281 92.609375 138.867188 92.265625 C 139.800781 92.101562 139.867188 91.632812 138.96875 91.535156 C 137.769531 91.402344 135.96875 92 132.800781 93.535156 C 128.699219 95.566406 127.535156 95.933594 125.402344 95.800781 C 123.402344 95.667969 122.300781 95.167969 120.734375 93.667969 C 119.667969 92.667969 118.199219 90.167969 118.46875 89.867188 C 120.199219 90.230469 121.96875 90.375 123.734375 90.300781 C 126.5 90.300781 127.269531 90.234375 128.734375 89.800781 C 131.601562 88.894531 134.300781 87.53125 136.734375 85.765625 C 140.171875 82.875 144.511719 81.273438 149 81.234375 C 153.132812 81.234375 155.734375 82.167969 158.066406 84.535156 C 158.867188 85.332031 159.535156 85.832031 159.632812 85.734375 C 159.734375 85.632812 159.835938 84.234375 159.867188 82.632812 C 159.867188 82.632812 161.101562 82.5 161.367188 82.867188 C 161.367188 85.433594 161.367188 85.667969 161.769531 85.667969 C 162.035156 85.644531 162.257812 85.421875 162.433594 85 C 162.769531 84.167969 164.101562 83 165.5 82.265625 C 168.5 80.765625 173.734375 80.699219 177.933594 82.167969 C 179.945312 82.925781 181.820312 83.996094 183.5 85.332031 C 185.953125 87.058594 188.648438 88.40625 191.5 89.332031 C 193.769531 90 197.835938 90.167969 199.867188 89.667969 L 201.667969 89.332031 C 202.433594 89.332031 201.132812 91.867188 199.601562 93.367188 C 196.800781 96.101562 193.167969 96.066406 188.066406 93.332031 C 184.867188 91.601562 181.066406 90.667969 181.066406 91.601562 C 181.066406 91.824219 181.234375 91.933594 181.566406 91.933594 C 182.679688 91.933594 184.757812 92.65625 187.800781 94.101562 C 189.6875 95.183594 191.753906 95.917969 193.902344 96.265625 C 194.679688 96.265625 194.703125 96.789062 193.96875 97.832031 C 193.191406 98.945312 191.890625 99.5 190.066406 99.5 C 188.300781 99.5 187.300781 99.132812 185.734375 97.832031 C 183.066406 95.632812 176.535156 93.167969 176.769531 94.5 C 176.8125 94.722656 177.167969 94.890625 177.835938 95 C 180.648438 95.613281 183.285156 96.867188 185.535156 98.667969 L 187.5 100.101562 C 187.867188 100.300781 187.867188 100.367188 187.566406 100.933594 C 187.101562 101.867188 185.835938 102.566406 184.5 102.699219 C 182.8125 102.921875 181.203125 102.367188 179.667969 101.035156 C 176.335938 98.265625 173.234375 96.265625 172.234375 96.265625 C 171.414062 96.289062 171.746094 96.699219 173.234375 97.5 C 175.132812 98.507812 176.898438 99.738281 178.5 101.167969 C 179.167969 101.800781 179.933594 102.402344 180.167969 102.535156 C 180.800781 102.867188 180.769531 103.332031 180.101562 104.199219 C 179.433594 105.066406 178.300781 105.46875 176.867188 105.300781 C 174 105 171.734375 103.632812 168.203125 99.96875 C 167.359375 99.027344 166.445312 98.160156 165.46875 97.367188 C 165.023438 97.410156 165.269531 97.96875 166.203125 99.035156 C 167.335938 100.265625 167.535156 100.96875 167.101562 102.035156 C 166.734375 102.902344 166.101562 103.132812 164.835938 102.765625 C 163.5 102.433594 163.277344 102.777344 164.167969 103.800781 C 165.433594 105.433594 165.269531 107.367188 163.667969 108.734375 C 163.335938 109.050781 162.953125 109.3125 162.535156 109.5 C 162.355469 109.476562 162.101562 109.210938 161.769531 108.699219 C 160.8125 107.167969 159.84375 107.167969 158.867188 108.699219 L 158.203125 109.699219 Z M 157.203125 108.96875 "/>
<path style=" stroke:none;fill-rule:nonzero;fill:rgb(81.176472%,6.666667%,14.901961%);fill-opacity:1;" d="M 162.234375 77.667969 L 160.5 79 L 158.96875 77.867188 L 158.96875 87.132812 L 162.234375 87.132812 Z M 162.234375 77.667969 "/>
<path style=" stroke:none;fill-rule:nonzero;fill:rgb(81.176472%,6.666667%,14.901961%);fill-opacity:1;" d="M 151.632812 68.101562 C 151.332031 71.847656 150.316406 75.503906 148.632812 78.867188 L 152.335938 75.433594 L 154.902344 78.5 L 157.703125 75.367188 L 160.535156 78.035156 L 163.269531 75.265625 L 166.101562 78.601562 L 168.566406 75.867188 L 172.769531 78.867188 C 171.234375 75.535156 169.203125 72.667969 169.433594 67.933594 C 165.402344 70.933594 155.769531 71.46875 151.632812 68.066406 Z M 151.632812 68.101562 "/>
<path style=" stroke:none;fill-rule:nonzero;fill:rgb(81.176472%,6.666667%,14.901961%);fill-opacity:1;" d="M 159 65.867188 C 157.445312 65.824219 155.957031 65.933594 154.535156 66.199219 C 153.605469 66.347656 152.722656 66.6875 151.933594 67.199219 C 152.035156 70.066406 165.601562 71.234375 169.234375 67.265625 C 168.417969 66.699219 167.484375 66.324219 166.5 66.167969 C 165.167969 65.898438 163.632812 65.898438 162.203125 65.832031 L 162.203125 68.199219 L 159 68.199219 Z M 159 65.867188 "/>
<path style=" stroke:none;fill-rule:nonzero;fill:rgb(81.176472%,6.666667%,14.901961%);fill-opacity:1;" d="M 161.632812 51.332031 L 159.535156 51.332031 L 159.535156 67.800781 L 161.667969 67.800781 Z M 161.632812 51.332031 "/>
<path style=" stroke:none;fill-rule:nonzero;fill:rgb(81.176472%,6.666667%,14.901961%);fill-opacity:1;" d="M 161.632812 51.734375 L 160.835938 59.632812 L 168.933594 63.601562 L 164.835938 58.101562 L 170.433594 56.265625 Z M 160.734375 49.699219 C 159.5 49.699219 158.601562 50.167969 158.601562 50.699219 C 158.601562 51.234375 159.5 51.699219 160.734375 51.699219 C 161.96875 51.699219 162.867188 51.234375 162.867188 50.699219 C 162.867188 50.167969 161.96875 49.699219 160.734375 49.699219 "/>
<path style=" stroke:none;fill-rule:nonzero;fill:rgb(96.862745%,87.843138%,9.019608%);fill-opacity:1;" d="M 157 187.949219 C 158.265625 187.582031 159.148438 186.648438 159.648438 185.148438 C 159.898438 184.351562 160.101562 183.550781 160.050781 183.351562 C 159.949219 182.851562 159.351562 182.851562 158.75 183.398438 C 158.300781 183.75 158.25 183.949219 158.351562 184.699219 C 158.699219 186.550781 158 187.050781 154.5 187.398438 C 154.148438 187.398438 153.101562 187.398438 152.25 187.25 C 150.550781 187.050781 149.984375 187.214844 150.550781 187.75 L 151.601562 188.199219 C 152.550781 188.449219 156 188.300781 157 187.949219 M 164.351562 187.648438 C 164.550781 187.449219 165.199219 187.148438 165.851562 186.898438 C 166.648438 186.699219 167.199219 186.332031 167.5 185.800781 C 168.550781 184.300781 168.351562 182.949219 166.851562 181.148438 C 166 180.148438 165.648438 180.199219 165 181.300781 C 164.398438 182.199219 164.449219 182.300781 165.25 182.5 C 165.714844 182.632812 166.066406 182.898438 166.300781 183.300781 C 167.199219 184.898438 166.964844 185.734375 165.601562 185.800781 C 164.398438 185.800781 164.101562 186 163.75 186.800781 L 163.449219 187.75 C 163.449219 188.050781 163.949219 188 164.351562 187.648438 M 161.949219 185.898438 C 162.148438 185.25 162.25 184.148438 162.199219 181.898438 C 162.253906 180.832031 162.203125 179.757812 162.050781 178.699219 C 161.851562 178.5 160.898438 179.101562 160.75 179.550781 C 160.699219 179.917969 160.789062 180.292969 161 180.601562 C 161.300781 181.199219 161.351562 181.800781 161.25 184.101562 C 161.082031 187.066406 161.316406 187.667969 161.949219 185.898438 "/>
<path style=" stroke:none;fill-rule:nonzero;fill:rgb(96.862745%,87.843138%,9.019608%);fill-opacity:1;" d="M 156.300781 184.5 L 156.648438 182 C 156.699219 181.148438 156.898438 180.101562 157 179.648438 C 157.332031 178.484375 157.035156 178.214844 156.101562 178.851562 L 155.449219 179.351562 L 155.550781 181 C 155.699219 182.5 155.449219 185.25 155.101562 186.351562 C 155 186.648438 155.148438 186.566406 155.550781 186.101562 C 155.851562 185.75 156.199219 185 156.300781 184.449219 Z M 151.300781 185.300781 C 152.5 184.300781 152.351562 182.5 152.648438 181.101562 C 152.648438 180.148438 153.25 179.050781 152.851562 178.199219 C 151.699219 178.398438 151 179.5 151.601562 180.550781 C 151.601562 181.800781 151.601562 183.148438 150.949219 184.25 C 150.449219 185 148.75 184.800781 148.851562 183.75 C 149.25 182.25 147.398438 183 146.699219 183.398438 C 146.148438 183.800781 144.949219 183.851562 145.398438 182.898438 C 145.101562 181.550781 143.449219 182.398438 142.550781 182.398438 C 141.699219 182.398438 142.5 180.648438 141.25 180.898438 C 139 180.75 136.5 180.949219 134.5 179.601562 C 133.351562 179.050781 133.5 177.648438 134.148438 176.75 C 134.851562 175.550781 135.050781 174 136.148438 173.050781 C 137.300781 172 135.148438 172.449219 134.648438 172.800781 C 133.550781 173.398438 134.550781 174.949219 133.648438 175.800781 C 133.148438 176.699219 132.449219 177.898438 131.25 177.75 C 129.5 177.398438 128.5 175.75 127.25 174.75 C 126.148438 174.5 126.75 176.449219 127.351562 176.851562 C 128.460938 177.675781 129.714844 178.289062 131.050781 178.648438 C 132.351562 178.398438 132.398438 180.148438 133.550781 180.398438 C 135.550781 181.398438 137.851562 181.648438 140.101562 181.800781 C 141 181.851562 140.5 183.449219 141.648438 183.101562 C 142.300781 183.300781 143.800781 182.851562 143.851562 183.601562 C 142.851562 184.800781 144.800781 184.75 145.5 184.601562 C 146.449219 184.398438 147.601562 184.101562 147.851562 185.300781 C 148.601562 186.148438 150 186 150.949219 185.550781 Z M 151.300781 185.300781 "/>
<path style=" stroke:none;fill-rule:nonzero;fill:rgb(96.862745%,87.843138%,9.019608%);fill-opacity:1;" d="M 131.398438 175.199219 C 131.871094 174.542969 132.273438 173.839844 132.601562 173.101562 C 132.855469 172.460938 133.191406 171.855469 133.601562 171.300781 C 134.132812 170.632812 133.898438 170.367188 132.898438 170.5 C 132.433594 170.566406 132.183594 170.816406 132.148438 171.25 C 131.925781 172.476562 131.503906 173.660156 130.898438 174.75 C 130.050781 176 130.050781 176.050781 130.398438 176.050781 C 130.601562 175.984375 130.933594 175.699219 131.398438 175.199219 M 118.898438 167.351562 C 117.949219 167.351562 117.898438 167.949219 118.800781 168.25 C 119.265625 168.382812 119.648438 168.765625 119.949219 169.398438 C 120.800781 171.148438 121.351562 171.5 123.699219 171.699219 L 125.199219 171.800781 L 125.300781 172.75 C 125.332031 173.316406 125.417969 173.617188 125.550781 173.648438 L 126.851562 173.148438 C 127.949219 172.550781 129 171.25 129 170.398438 C 129 169.898438 128.101562 169.300781 127.300781 169.300781 C 126.949219 169.300781 126.300781 169.601562 125.75 170 C 124.050781 171.199219 122.25 171 121.25 169.398438 C 120.484375 168.066406 119.699219 167.398438 118.898438 167.398438 Z M 127.050781 170.601562 C 127.484375 170.601562 127.582031 170.933594 127.351562 171.601562 C 127.285156 171.78125 127.117188 171.902344 126.925781 171.902344 C 126.734375 171.902344 126.5625 171.78125 126.5 171.601562 C 126.300781 171.101562 126.550781 170.601562 127 170.601562 Z M 190.300781 168.601562 C 189.648438 168.601562 189.5 168.699219 189.101562 169.300781 C 188.449219 170.25 188.398438 172.300781 189 173 C 189.351562 173.449219 189.398438 173.449219 190.148438 173.101562 C 191.25 172.648438 191.449219 172.699219 191.398438 173.25 C 191.398438 174.75 189.300781 177.601562 187.101562 179.101562 C 186.648438 179.367188 186.246094 179.707031 185.898438 180.101562 C 185.75 180.5 186.550781 180.449219 187.550781 179.898438 C 189.207031 178.949219 190.570312 177.566406 191.5 175.898438 C 192.050781 174.75 192.148438 174.398438 192.25 172.398438 C 192.25 170.5 192.25 169.898438 191.949219 169.300781 C 191.550781 168.601562 191.449219 168.550781 190.550781 168.550781 L 190.300781 168.550781 Z M 190.351562 169.851562 C 190.851562 169.851562 190.851562 169.949219 190.949219 170.648438 C 190.984375 171.117188 190.867188 171.5 190.601562 171.800781 C 190.199219 172.148438 190.101562 172.148438 189.800781 171.601562 C 189.300781 170.800781 189.601562 169.851562 190.351562 169.851562 M 180.25 184.101562 C 182.199219 183.101562 183.351562 182.050781 184.050781 180.5 L 184.699219 178.949219 C 184.699219 178.648438 183.75 178.199219 183.199219 178.199219 C 182.648438 178.199219 182.5 177.800781 182.699219 176.699219 C 182.949219 175.648438 182.699219 174.300781 182.199219 174.300781 C 181.964844 174.332031 181.75 174.515625 181.550781 174.851562 C 181.25 175.351562 181.199219 175.550781 181.449219 176.199219 C 181.785156 177.199219 181.5 178.015625 180.601562 178.648438 C 180.167969 178.984375 179.949219 179.316406 179.949219 179.648438 L 180 180.148438 L 181.050781 179.648438 L 182.050781 179.050781 L 182.601562 179.550781 C 182.964844 179.816406 183.167969 180.101562 183.199219 180.398438 C 183.199219 181.601562 179.800781 183.601562 177.5 183.800781 C 176.25 183.898438 176 183.800781 175.601562 183.398438 C 175.265625 183.066406 175.148438 182.734375 175.25 182.398438 L 175.5 181.101562 C 175.667969 180.101562 175.332031 180.199219 174.5 181.398438 C 173.898438 182.398438 173.699219 183.449219 174.050781 184 C 174.351562 184.5 176.25 184.898438 177.648438 184.800781 C 178.484375 184.800781 179.351562 184.566406 180.25 184.101562 M 193.25 176.851562 C 194.449219 175.601562 195 174.101562 195 171.851562 L 195 170.101562 L 196 169.601562 C 197.351562 169 198.601562 167.75 198.601562 167.050781 C 198.601562 166.351562 198.300781 166.382812 197.699219 167.148438 C 197.25 167.699219 196.699219 168.050781 194.699219 169 C 194.199219 169.199219 194.148438 169.351562 194 171.5 C 193.898438 174 193.5 174.898438 192.148438 176.601562 C 191.300781 177.601562 191.25 177.800781 191.851562 177.800781 C 192.101562 177.800781 192.75 177.351562 193.25 176.800781 Z M 179.898438 175.449219 C 180 175.101562 179.300781 174.851562 179.050781 175.148438 C 178.882812 175.285156 178.851562 175.433594 178.949219 175.601562 C 179.148438 175.898438 179.75 175.800781 179.898438 175.449219 M 198.300781 170.699219 C 198.449219 170.300781 197.75 170.050781 197.449219 170.351562 C 197.316406 170.515625 197.300781 170.683594 197.398438 170.851562 C 197.601562 171.148438 198.199219 171.050781 198.300781 170.699219 M 176.148438 157.75 C 175.683594 158.082031 175.332031 158.464844 175.101562 158.898438 C 174.851562 159.050781 175.050781 159.199219 175.148438 159.398438 C 176 160.25 176.351562 161.5 176.75 162.648438 C 177.148438 164 177.648438 165.449219 177.25 166.851562 C 177.101562 167.351562 176.648438 167.898438 176.050781 167.75 C 175.050781 167.699219 174.050781 167.398438 173.050781 167.398438 C 172.101562 167.449219 171.398438 168.300781 170.5 168.199219 C 169.898438 168.199219 169.898438 167 169.398438 167.351562 C 169.101562 168 169.25 168.699219 169.199219 169.351562 C 169.367188 169.449219 169.550781 169.484375 169.75 169.449219 L 171.601562 169.449219 C 171.699219 170.050781 171.699219 170.800781 172.101562 171.300781 C 172.765625 171.433594 173.433594 171.351562 174.101562 171.050781 C 174.699219 170.75 174.800781 170 175 169.398438 C 175.199219 168.75 176 168.898438 176.5 168.648438 C 177.707031 168.222656 178.507812 167.078125 178.5 165.800781 C 178.398438 163.851562 177.699219 162.101562 177.101562 160.300781 C 176.867188 159.464844 176.617188 158.648438 176.351562 157.851562 Z M 173.148438 168.648438 C 173.800781 168.648438 174.101562 169.449219 173.949219 170 C 173.699219 170.75 172.75 170.300781 172.601562 169.75 C 172.25 169.25 172.449219 168.601562 173.101562 168.648438 Z M 173.148438 168.648438 "/>
<path style=" stroke:none;fill-rule:nonzero;fill:rgb(96.862745%,87.843138%,9.019608%);fill-opacity:1;" d="M 148 162.398438 C 147.667969 162.398438 147.332031 162.515625 147 162.75 C 145.25 164 144.75 165.449219 146 166.050781 C 146.867188 166.417969 146.617188 166.949219 145.25 167.648438 C 143.25 168.648438 141.5 168.5 138.148438 167.148438 C 137.382812 166.816406 137.101562 166.984375 137.300781 167.648438 C 137.5 168.398438 138.199219 168.800781 139.851562 169.148438 C 141.648438 169.648438 143.851562 169.5 145.25 168.898438 C 146.070312 168.480469 146.800781 167.902344 147.398438 167.199219 L 148.5 166.050781 L 149.75 166.199219 C 151.300781 166.398438 151.351562 166.398438 151.351562 167.148438 C 151.351562 167.75 151.351562 167.75 152.800781 167.898438 L 155.148438 168 C 155.785156 168 156.183594 168.148438 156.351562 168.449219 C 156.648438 168.800781 156.800781 168.851562 159.148438 168.648438 C 161.351562 168.449219 161.75 168.449219 162.75 168.800781 C 163.515625 169 164.199219 169.082031 164.800781 169.050781 C 166.5 168.851562 168.800781 167.5 169.148438 166.5 C 169.148438 166.351562 169.800781 166.148438 170.5 166 C 172.167969 165.632812 172.234375 165.332031 170.699219 165.101562 C 169.917969 164.996094 169.144531 164.8125 168.398438 164.550781 C 167.84375 164.3125 167.253906 164.160156 166.648438 164.101562 C 165.800781 164.101562 165 164.601562 165 165.199219 C 165 165.550781 165.101562 165.601562 166.148438 165.5 C 167.050781 165.398438 167.351562 165.449219 167.851562 165.851562 C 168.214844 166.148438 168.382812 166.367188 168.351562 166.5 C 168.101562 166.898438 166.101562 167.800781 165.25 167.949219 C 164.734375 168.023438 164.210938 167.9375 163.75 167.699219 C 162.949219 167.300781 161.851562 167.25 161.601562 167.601562 C 161.5 167.734375 161.285156 167.648438 160.949219 167.351562 L 160.449219 166.851562 L 159.25 167.351562 C 158.117188 167.882812 157.566406 167.851562 157.601562 167.25 C 157.601562 167 157.25 166.949219 155.5 167.101562 C 153.550781 167.199219 153.351562 167.148438 153 166.75 C 152.667969 166.449219 152.632812 166.167969 152.898438 165.898438 C 153.101562 165.5 153.101562 165.398438 152.898438 165.148438 C 152.765625 164.949219 152.351562 164.949219 151.648438 165.148438 C 149.699219 165.648438 149.148438 165.398438 149.148438 163.898438 C 149.082031 162.898438 148.699219 162.398438 148 162.398438 M 147.5 163.800781 C 147.601562 163.800781 147.714844 163.867188 147.851562 164 C 148.015625 164.199219 148.066406 164.417969 148 164.648438 C 147.851562 165.101562 147 165.101562 146.851562 164.648438 C 146.75 164.382812 146.832031 164.167969 147.101562 164 Z M 147.5 163.800781 "/>
<path style=" stroke:none;fill-rule:nonzero;fill:rgb(96.862745%,87.843138%,9.019608%);fill-opacity:1;" d="M 144 165.199219 C 145.199219 164.449219 145.199219 164.5 145.351562 162.449219 C 145.449219 160.949219 145.449219 160.851562 145.050781 160.851562 C 144.449219 160.851562 144.148438 161.464844 144.148438 162.699219 C 144.148438 163.5 144.050781 163.851562 143.648438 164.199219 C 142.648438 165.199219 140.25 164.75 139.898438 163.550781 C 139.800781 163.214844 139.984375 162.714844 140.449219 162.050781 C 141.5 160.550781 141.300781 160.148438 139.949219 161.300781 C 139.101562 162.101562 138.949219 162.101562 139.101562 161.449219 C 139.234375 160.785156 138.933594 160.550781 138.199219 160.75 C 137.832031 160.816406 137.617188 161.082031 137.550781 161.550781 C 137.449219 161.949219 137.234375 162.199219 136.898438 162.300781 C 136.300781 162.449219 135.300781 161.898438 135.300781 161.398438 C 135.300781 161.050781 136.800781 159.199219 138.75 157.199219 C 139.449219 156.449219 140.050781 155.699219 140.050781 155.648438 C 139.984375 155.515625 139.699219 155.449219 139.199219 155.449219 C 138.535156 155.449219 138.234375 155.582031 138.300781 155.851562 C 138.300781 156.050781 137.351562 157.351562 136.148438 158.699219 C 133.648438 161.5 133.449219 162.050781 134.648438 162.800781 C 135.671875 163.429688 136.96875 163.390625 137.949219 162.699219 L 138.75 162.148438 L 138.75 163.148438 C 138.75 164.398438 139 164.898438 140 165.398438 C 141.273438 166.054688 142.796875 165.976562 144 165.199219 M 196.199219 147.898438 C 195.300781 148.449219 196 149.601562 196.199219 150.398438 C 195.800781 151.398438 194.449219 151.699219 193.449219 151.898438 C 192.050781 152.148438 191.050781 153.300781 190.550781 154.550781 C 190.25 155.351562 189.550781 156.550781 188.800781 155.351562 C 188.148438 154.699219 186.949219 154.148438 186.199219 154.949219 C 185.601562 155.5 185.449219 156.300781 185.199219 157.050781 C 184.851562 156.5 184.699219 155.648438 184 155.449219 C 182.800781 155.601562 183.25 157.101562 183.800781 157.699219 C 184.300781 158.449219 184.800781 159.351562 184.300781 160.199219 C 183.800781 161.199219 182.300781 161.898438 181.449219 161.050781 C 180.648438 160.601562 181.199219 159.050781 180.351562 158.949219 C 179.949219 159.25 179.949219 160.898438 179.300781 160 C 178.800781 159.25 179.101562 158.199219 178.5 157.550781 C 177.851562 157.648438 177.300781 158.800781 177.5 159.398438 C 178.398438 160.601562 178.800781 162.101562 179.148438 163.550781 C 179.351562 164.148438 179.101562 165.300781 179.648438 165.550781 C 180 164.601562 179.648438 163.550781 179.949219 162.601562 C 180.851562 162.5 181.800781 162.898438 182.699219 162.699219 C 184.050781 162.550781 185.050781 161.398438 185.5 160.25 C 185.601562 159.351562 185.582031 158.449219 185.449219 157.550781 C 186.449219 157.75 187.550781 157.75 188.550781 158.050781 C 189.050781 158.800781 188.398438 159.898438 188.25 160.699219 C 187.75 162.398438 186.398438 163.601562 185.148438 164.699219 C 184.601562 165.050781 184.550781 165.898438 185.300781 165.449219 C 187.011719 164.636719 188.351562 163.207031 189.050781 161.449219 C 189.601562 160.148438 189.148438 158.699219 189.550781 157.398438 C 190.050781 156.398438 191.300781 156.601562 192.25 156.601562 C 193.199219 156.601562 194 155.449219 193.699219 154.5 C 193.398438 153.398438 194.550781 152.898438 195.300781 152.5 C 196.351562 152 197.148438 150.949219 197.050781 149.75 C 197.050781 149.101562 197.050781 147.949219 196.199219 147.898438 M 192.550781 154.148438 C 193.648438 154.449219 192.351562 156.550781 191.75 155.199219 C 191.550781 154.699219 192 154.148438 192.550781 154.148438 M 187.398438 155.648438 C 188.851562 155.601562 188.300781 157.648438 187.101562 156.75 C 186.449219 156.398438 186.648438 155.648438 187.398438 155.648438 M 135 163.800781 C 135 163.601562 134.898438 163.484375 134.699219 163.449219 C 134.351562 163.449219 134.101562 163.800781 134.25 164.101562 C 134.449219 164.449219 134.898438 164.25 135 163.800781 M 152 162 C 152 161.667969 151.867188 161.535156 151.601562 161.601562 C 151.050781 161.699219 150.949219 162.449219 151.550781 162.449219 C 151.851562 162.449219 152 162.285156 152 161.949219 Z M 131 151.800781 C 130.351562 151.648438 129.898438 152.25 129.648438 152.800781 C 129.183594 153.734375 128.515625 154.449219 127.648438 154.949219 C 126.984375 155.082031 126.332031 154.949219 125.699219 154.550781 C 125.050781 154.199219 125.199219 153.398438 124.898438 152.851562 C 124.398438 152.449219 123.550781 153 123.601562 153.601562 C 123.550781 154.398438 124.25 154.851562 124.898438 155.148438 C 125.398438 155.5 126.199219 155.648438 126.398438 156.300781 C 126.398438 156.851562 126.601562 157.5 127.25 157.300781 C 128 157.300781 128.25 158.199219 127.898438 158.75 C 127.554688 159.355469 127.429688 160.0625 127.550781 160.75 C 127.898438 161.101562 128.25 160.25 128.550781 160.050781 L 129.050781 159.351562 C 130.382812 159.484375 131.714844 159.550781 133.050781 159.550781 C 134.050781 159.550781 134.800781 158.949219 135.398438 158.25 C 136.300781 157.351562 137 156.300781 137.949219 155.550781 C 138.648438 155.351562 138.300781 154.050781 137.550781 154.449219 C 136.898438 154.699219 136.699219 155.449219 136.25 155.898438 C 135.519531 156.859375 134.683594 157.734375 133.75 158.5 C 133 158.800781 132.199219 158.648438 131.449219 158.5 C 131.148438 158.25 132.050781 158 132.199219 157.699219 C 132.667969 157.332031 133.050781 156.882812 133.351562 156.351562 C 133.101562 155.851562 132.398438 155.851562 131.898438 155.851562 C 130.699219 155.949219 129.75 157 128.5 157.101562 C 127.550781 157.101562 128.050781 156.101562 128.5 155.75 C 129.332031 154.75 130.183594 153.800781 131.050781 152.898438 C 131.300781 152.601562 132.199219 152.300781 131.648438 151.898438 C 131.449219 151.832031 131.234375 151.800781 131 151.800781 M 131.601562 156.800781 C 132.25 157.148438 131.199219 157.699219 130.800781 157.648438 C 130.25 157.800781 130.199219 157.25 130.699219 157.148438 C 131 156.949219 131.300781 156.832031 131.601562 156.800781 M 129.699219 158.101562 C 130.050781 158.101562 130.800781 158.449219 130.101562 158.648438 C 129.601562 159.050781 129.101562 158.25 129.699219 158.101562 "/>
<path style=" stroke:none;fill-rule:nonzero;fill:rgb(96.862745%,87.843138%,9.019608%);fill-opacity:1;" d="M 144.699219 158.898438 C 144.699219 158.398438 143.898438 158.5 143.800781 159 C 143.699219 159.265625 143.832031 159.367188 144.199219 159.300781 C 144.535156 159.265625 144.699219 159.132812 144.699219 158.898438 M 182.050781 155.601562 C 182.148438 155.148438 181.550781 154.851562 181.199219 155.199219 C 180.851562 155.550781 181.199219 156.148438 181.601562 156.050781 C 181.800781 156.015625 181.964844 155.867188 182.101562 155.601562 Z M 124 151.050781 C 124.550781 150.550781 124.601562 150.5 124.351562 149.398438 C 123.949219 147.851562 124 147.648438 124.601562 147.5 C 125.351562 147.351562 127.25 148.351562 127.601562 149.148438 C 128 149.800781 127.949219 149.851562 127.398438 150.351562 C 126.800781 150.898438 126.800781 151.550781 127.398438 151.550781 C 127.898438 151.550781 129.25 150.25 129.25 149.800781 C 129.25 149.148438 127.75 147.601562 126.550781 147.050781 C 125.828125 146.71875 125.042969 146.546875 124.25 146.550781 C 122.699219 146.550781 122.5 146.898438 122.898438 148.648438 C 123.367188 150.785156 122.75 151.050781 121.050781 149.449219 C 119.796875 148.390625 119.140625 146.785156 119.300781 145.148438 C 119.300781 143.148438 120.148438 142.050781 121.851562 141.851562 C 123.015625 141.648438 123.015625 141.449219 121.851562 141.25 C 120.050781 140.949219 118.550781 142.148438 118 144.25 C 117.351562 146.601562 118.800781 149.449219 121.351562 150.898438 C 122.699219 151.648438 123.199219 151.699219 124 151.050781 M 193.601562 148.449219 C 193.765625 148.285156 193.851562 148.050781 193.851562 147.75 C 193.882812 147.316406 194.066406 146.917969 194.398438 146.550781 C 194.734375 146.082031 194.898438 145.785156 194.898438 145.648438 C 194.898438 145.25 194.25 145.25 193.75 145.648438 C 193.148438 146.117188 192.816406 146.117188 192.75 145.648438 L 193.351562 145.199219 C 194.148438 144.832031 194.214844 144.484375 193.550781 144.148438 C 192.699219 143.75 191.800781 144.449219 191.75 145.648438 C 191.699219 146.449219 191.75 146.550781 192.351562 146.898438 C 192.949219 147.25 193 147.398438 192.898438 147.898438 C 192.800781 148.765625 193.035156 148.949219 193.601562 148.449219 M 200.101562 147.75 C 200.632812 147.214844 200.933594 146.851562 201 146.648438 C 201.066406 146.449219 201.382812 146.117188 201.949219 145.648438 C 203.351562 144.648438 203.699219 143.648438 203.050781 142 C 202.800781 141.351562 202.050781 140.5 200.300781 139 C 199.503906 138.148438 198.59375 137.410156 197.601562 136.800781 C 197.148438 136.800781 197.25 138.5 197.699219 138.648438 C 198.550781 138.949219 199.101562 139.300781 200.398438 140.5 C 202 141.898438 202.699219 143.25 202.300781 144 C 201.949219 144.699219 201.449219 144.5 200.050781 143 C 199.59375 142.4375 199.054688 141.949219 198.449219 141.550781 C 198.285156 141.582031 198.199219 141.816406 198.199219 142.25 C 198.167969 142.714844 198.5 143.300781 199.199219 144 C 200.351562 145.300781 200.449219 146.050781 199.550781 146.75 L 198.851562 147.25 C 197.710938 145.292969 196.175781 143.589844 194.351562 142.25 C 194.183594 142.25 194.101562 142.484375 194.101562 142.949219 C 194.101562 143.601562 194.199219 143.800781 194.699219 144.050781 C 196.015625 145.058594 197.191406 146.234375 198.199219 147.550781 L 199.101562 148.550781 Z M 203.101562 139.351562 C 202.851562 138.75 198.898438 134.648438 198.449219 134.648438 C 198.25 134.648438 198.183594 134.949219 198.25 135.550781 C 198.25 136.351562 198.398438 136.449219 198.949219 136.601562 C 199.804688 137.097656 200.578125 137.722656 201.25 138.449219 C 201.792969 139.035156 202.414062 139.539062 203.101562 139.949219 Z M 179.199219 185.648438 C 179.273438 185.855469 179.183594 186.074219 178.972656 186.199219 C 178.765625 186.324219 178.484375 186.324219 178.277344 186.199219 C 178.066406 186.074219 177.976562 185.855469 178.050781 185.648438 C 177.976562 185.445312 178.066406 185.222656 178.277344 185.101562 C 178.484375 184.976562 178.765625 184.976562 178.972656 185.101562 C 179.183594 185.222656 179.273438 185.445312 179.199219 185.648438 M 181.300781 184.949219 C 181.300781 185.226562 181.03125 185.449219 180.699219 185.449219 C 180.367188 185.449219 180.101562 185.226562 180.101562 184.949219 C 180.101562 184.675781 180.367188 184.449219 180.699219 184.449219 C 181.03125 184.449219 181.300781 184.675781 181.300781 184.949219 "/>
</g>
</svg>
