<?xml version="1.0" encoding="UTF-8"?>
<svg xmlns="http://www.w3.org/2000/svg" xmlns:xlink="http://www.w3.org/1999/xlink" width="px" height="px" viewBox="0 0 320 240" version="1.1">
<g id="surface1">
<path style=" stroke:none;fill-rule:nonzero;fill:rgb(100%,83.529413%,12.54902%);fill-opacity:1;" d="M 0.0507812 0 L 320.101562 0 L 320.101562 240 L 0.0507812 240 Z M 0.0507812 0 "/>
<path style=" stroke:none;fill-rule:nonzero;fill:rgb(100%,30.588236%,7.058824%);fill-opacity:1;" d="M 0.0507812 240 L 320.101562 240 L 320.101562 0 Z M 0.0507812 240 "/>
<path style="fill-rule:nonzero;fill:rgb(100%,100%,100%);fill-opacity:1;stroke-width:0.4;stroke-linecap:butt;stroke-linejoin:miter;stroke:rgb(0%,0%,0%);stroke-opacity:1;stroke-miterlimit:4;" d="M 345.398438 150 C 341.398438 148.703125 338.796875 150.703125 339 155.898438 C 339 161 341.796875 163.898438 345.796875 162 Z M 345.398438 150 " transform="matrix(0.5,0,0,0.5,0,0)"/>
<path style="fill-rule:nonzero;fill:rgb(100%,100%,100%);fill-opacity:1;stroke-width:0.4;stroke-linecap:butt;stroke-linejoin:miter;stroke:rgb(0%,0%,0%);stroke-opacity:1;stroke-miterlimit:4;" d="M 348.898438 140.398438 C 345.601562 137.796875 342.5 138.898438 340.898438 143.796875 C 339.296875 148.703125 341 152.398438 345.398438 151.796875 Z M 348.898438 140.398438 " transform="matrix(0.5,0,0,0.5,0,0)"/>
<path style="fill-rule:nonzero;fill:rgb(100%,100%,100%);fill-opacity:1;stroke-width:0.4;stroke-linecap:butt;stroke-linejoin:miter;stroke:rgb(0%,0%,0%);stroke-opacity:1;stroke-miterlimit:4;" d="M 354.398438 131 C 351.601562 128 348.398438 128.601562 346 133.203125 C 343.703125 137.796875 344.703125 141.703125 349.203125 141.898438 Z M 350.796875 176.5 C 345.898438 178.296875 345.398438 185 348.5 189.101562 C 351.5 193.203125 357.203125 194 360.296875 189.101562 Z M 350.796875 176.5 " transform="matrix(0.5,0,0,0.5,0,0)"/>
<path style="fill-rule:nonzero;fill:rgb(100%,100%,100%);fill-opacity:1;stroke-width:0.4;stroke-linecap:butt;stroke-linejoin:miter;stroke:rgb(0%,0%,0%);stroke-opacity:1;stroke-miterlimit:4;" d="M 345.101562 162.296875 C 340.5 160.796875 336.296875 167 335.601562 172.601562 C 334.703125 179.601562 324.601562 182 330.203125 192.703125 C 331.398438 185.898438 335.898438 182.101562 339.5 181.898438 C 343.101562 181.703125 348.5 180.898438 350.796875 176.5 Z M 359.796875 189.898438 C 354.398438 191.203125 353.601562 198.398438 357.5 203.5 C 360.796875 207.898438 371.203125 206.898438 370.898438 202.5 Z M 375.101562 233.296875 C 375.398438 228.601562 367.898438 226.796875 364.296875 227.703125 C 360.703125 228.601562 353.796875 227.601562 352.296875 223.703125 C 350.898438 226.796875 352.796875 230.203125 358 231.898438 C 362 233.101562 361.898438 235.898438 360.703125 237.296875 C 363.703125 237.796875 372.398438 237.796875 375.101562 233.296875 Z M 375.101562 233.296875 " transform="matrix(0.5,0,0,0.5,0,0)"/>
<path style="fill-rule:nonzero;fill:rgb(100%,100%,100%);fill-opacity:1;stroke-width:0.4;stroke-linecap:butt;stroke-linejoin:miter;stroke:rgb(0%,0%,0%);stroke-opacity:1;stroke-miterlimit:4;" d="M 370.898438 203.703125 C 365.601562 201.296875 362.5 204.898438 360.5 208.296875 C 357.5 213.296875 348.398438 206.898438 345.296875 213.601562 C 349.5 211.796875 353.703125 215.601562 355.703125 216.898438 C 361.398438 220.601562 372.296875 219.5 373.898438 210.703125 Z M 370.898438 203.703125 " transform="matrix(0.5,0,0,0.5,0,0)"/>
<path style="fill-rule:nonzero;fill:rgb(100%,100%,100%);fill-opacity:1;stroke-width:0.4;stroke-linecap:butt;stroke-linejoin:miter;stroke:rgb(0%,0%,0%);stroke-opacity:1;stroke-miterlimit:4;" d="M 374 209.796875 C 368.703125 213.796875 366.601562 218.601562 366.796875 221.796875 C 366.898438 225 371.398438 232.101562 376.296875 232.5 C 379.101562 226.703125 380.601562 214.5 374 209.796875 Z M 352 234.703125 C 352 232.703125 354.796875 232 356.796875 232.703125 C 358.703125 233.296875 361.703125 235.203125 360.601562 237.296875 Z M 323 224 C 322.5 221.703125 326.203125 217.703125 331.203125 219.898438 C 336.203125 222.101562 336.898438 226.296875 334.796875 228 Z M 323 224 " transform="matrix(0.5,0,0,0.5,0,0)"/>
<path style="fill-rule:nonzero;fill:rgb(100%,100%,100%);fill-opacity:1;stroke-width:0.4;stroke-linecap:butt;stroke-linejoin:miter;stroke:rgb(0%,0%,0%);stroke-opacity:1;stroke-miterlimit:4;" d="M 335.203125 228.398438 C 334.796875 227.101562 338.5 224.5 344.601562 226 C 350.796875 227.601562 352.296875 231.601562 352.101562 234.703125 Z M 322.296875 224.101562 C 325.601562 221.703125 324.296875 217.101562 321.398438 215.601562 C 316.203125 213 318.101562 206.398438 314.703125 205.101562 C 311.398438 203.796875 308.203125 201.5 308 199.101562 C 306.398438 202.398438 307.398438 205.296875 309.703125 207.398438 C 312 209.398438 307.898438 217.796875 310.898438 220 Z M 253.296875 222.296875 C 250.601562 218.101562 244.203125 218.796875 241.5 221.796875 C 238.796875 224.796875 239.203125 229.101562 241.703125 231.101562 Z M 268.796875 216 C 267.796875 210.296875 260.898438 209.703125 257.203125 211.101562 C 253.398438 212.5 250.898438 218.203125 253.296875 222.296875 Z M 268.796875 216 " transform="matrix(0.5,0,0,0.5,0,0)"/>
<path style="fill-rule:nonzero;fill:rgb(100%,100%,100%);fill-opacity:1;stroke-width:0.4;stroke-linecap:butt;stroke-linejoin:miter;stroke:rgb(0%,0%,0%);stroke-opacity:1;stroke-miterlimit:4;" d="M 279 215.203125 C 281.5 210.5 276.703125 203.398438 271.296875 202.398438 C 266.796875 201.398438 261.5 201.5 259.703125 197.101562 C 258.703125 200.898438 261.5 203.398438 264.898438 205.601562 C 268.203125 207.796875 264.296875 213.398438 269.703125 216.601562 Z M 279 215.203125 " transform="matrix(0.5,0,0,0.5,0,0)"/>
<path style="fill-rule:nonzero;fill:rgb(100%,100%,100%);fill-opacity:1;stroke-width:0.4;stroke-linecap:butt;stroke-linejoin:miter;stroke:rgb(0%,0%,0%);stroke-opacity:1;stroke-miterlimit:4;" d="M 278.601562 215.398438 C 277.398438 212 279.703125 207.398438 284.296875 207.796875 C 289 208.101562 291.601562 211.398438 289.601562 215.703125 Z M 278.601562 215.398438 " transform="matrix(0.5,0,0,0.5,0,0)"/>
<path style="fill-rule:nonzero;fill:rgb(100%,100%,100%);fill-opacity:1;stroke-width:0.4;stroke-linecap:butt;stroke-linejoin:miter;stroke:rgb(0%,0%,0%);stroke-opacity:1;stroke-miterlimit:4;" d="M 288.898438 215.703125 C 288.203125 212.101562 291.101562 207.898438 295.703125 208.898438 C 300.296875 209.898438 302.296875 213.601562 299.703125 217.398438 L 288.898438 215.601562 Z M 288.898438 215.703125 " transform="matrix(0.5,0,0,0.5,0,0)"/>
<path style="fill-rule:nonzero;fill:rgb(100%,100%,100%);fill-opacity:1;stroke-width:0.4;stroke-linecap:butt;stroke-linejoin:miter;stroke:rgb(0%,0%,0%);stroke-opacity:1;stroke-miterlimit:4;" d="M 299 217.296875 C 298.601562 213.703125 301.703125 209.703125 306.203125 210.898438 C 310.703125 212.101562 312.601562 215.898438 309.796875 219.601562 L 299.101562 217.296875 Z M 221.398438 276.296875 C 212.703125 276.296875 210.601562 278.296875 209.398438 287.296875 C 207.796875 298.296875 222.898438 299.601562 221.398438 276.296875 Z M 221.398438 276.296875 " transform="matrix(0.5,0,0,0.5,0,0)"/>
<path style="fill-rule:nonzero;fill:rgb(100%,100%,100%);fill-opacity:1;stroke-width:0.4;stroke-linecap:butt;stroke-linejoin:miter;stroke:rgb(0%,0%,0%);stroke-opacity:1;stroke-miterlimit:4;" d="M 225.203125 264.703125 C 212 259.703125 204.796875 280.703125 191.601562 276.898438 C 196.296875 284.398438 207.703125 276.898438 212 277.703125 C 219.203125 279 234.796875 276.296875 225.203125 264.703125 Z M 216.601562 293.398438 C 210 290.398438 203 300.398438 204.203125 304.898438 C 205.898438 310.398438 220.898438 305.898438 216.601562 293.398438 Z M 186 336.703125 C 189.601562 337.703125 194 339.703125 193.203125 346.703125 C 192.398438 353.703125 179.203125 367.796875 167.398438 368.703125 C 155.601562 369.398438 151.398438 383.703125 141.101562 379.703125 C 150.703125 377.898438 150.703125 367.101562 158.101562 363.703125 C 152.703125 361.703125 149.898438 374 142.898438 374 C 135.898438 374 132.601562 385.101562 124.101562 384.296875 C 115.601562 383.5 114.796875 397.796875 97.703125 398 C 84.703125 398.101562 68.703125 413.296875 62.796875 406.703125 C 75.5 404.898438 80.601562 397.898438 88.101562 390.203125 C 100.101562 377.898438 113.796875 383.398438 118.5 372.5 C 113.09375 376.117188 106.710938 378 100.203125 377.898438 C 92.203125 377.703125 83.601562 390.5 74.703125 384.898438 C 79.796875 384.203125 83.203125 382 88.601562 376.296875 C 94.101562 370.5 102.296875 374.296875 108.703125 368.296875 C 118.703125 359.101562 127.398438 366.796875 137 355.296875 C 134.296875 353.898438 128.5 354.796875 123.101562 357.703125 C 117.703125 360.5 110.796875 355.703125 104.601562 359.101562 C 105.296875 351.5 119.796875 355.796875 128.796875 350.601562 C 139 344.601562 147.398438 346.398438 155.398438 347.101562 C 144.203125 347.101562 139.898438 336.398438 124.398438 339.5 C 117.703125 340.898438 112.296875 330.203125 105.601562 335.601562 C 105.796875 331.601562 112.796875 328.398438 120 332.296875 C 127.203125 336.203125 130.101562 328.898438 144.5 338 C 150.5 341.703125 160.601562 335.601562 167 339.601562 C 166.203125 337.203125 162.5 335.601562 158.203125 336 C 160.898438 330.398438 178.398438 331.101562 186 336.703125 Z M 186 336.703125 " transform="matrix(0.5,0,0,0.5,0,0)"/>
<path style="fill-rule:nonzero;fill:rgb(100%,100%,100%);fill-opacity:1;stroke-width:0.4;stroke-linecap:butt;stroke-linejoin:miter;stroke:rgb(0%,0%,0%);stroke-opacity:1;stroke-miterlimit:4;" d="M 197.398438 328.296875 C 191.796875 323.898438 183.898438 329.203125 178.398438 327.101562 C 178.398438 330.703125 180.296875 336.101562 186.203125 338.203125 C 188 336.898438 196.203125 329.796875 197.398438 328.296875 Z M 197.398438 328.296875 " transform="matrix(0.5,0,0,0.5,0,0)"/>
<path style="fill-rule:nonzero;fill:rgb(100%,100%,100%);fill-opacity:1;stroke-width:0.4;stroke-linecap:butt;stroke-linejoin:miter;stroke:rgb(0%,0%,0%);stroke-opacity:1;stroke-miterlimit:4;" d="M 206.296875 315.796875 C 197.398438 311.296875 195.898438 322.5 188.898438 320.203125 C 189.203125 323.398438 191.796875 327.398438 197.398438 328.296875 Z M 206.296875 315.796875 " transform="matrix(0.5,0,0,0.5,0,0)"/>
<path style="fill-rule:nonzero;fill:rgb(100%,100%,100%);fill-opacity:1;stroke-width:0.4;stroke-linecap:butt;stroke-linejoin:miter;stroke:rgb(0%,0%,0%);stroke-opacity:1;stroke-miterlimit:4;" d="M 211.601562 305.601562 C 198.5 300.5 196.796875 313.101562 189.101562 310.601562 C 190.898438 315 201.898438 317.398438 207.601562 315.796875 Z M 229.601562 250.398438 C 226.101562 245.398438 218.796875 249.398438 217.601562 255.296875 C 216.5 261.101562 219.296875 269.203125 224.203125 267.296875 Z M 229.601562 250.398438 " transform="matrix(0.5,0,0,0.5,0,0)"/>
<path style="fill-rule:nonzero;fill:rgb(100%,100%,100%);fill-opacity:1;stroke-width:0.4;stroke-linecap:butt;stroke-linejoin:miter;stroke:rgb(0%,0%,0%);stroke-opacity:1;stroke-miterlimit:4;" d="M 238.5 235 C 232.5 233.5 225.5 234.203125 226.296875 240 C 223.898438 241.101562 223.296875 248.703125 229.601562 250.398438 Z M 238.5 235 " transform="matrix(0.5,0,0,0.5,0,0)"/>
<path style="fill-rule:nonzero;fill:rgb(100%,100%,100%);fill-opacity:1;stroke-width:0.4;stroke-linecap:butt;stroke-linejoin:miter;stroke:rgb(0%,0%,0%);stroke-opacity:1;stroke-miterlimit:4;" d="M 242.5 231 C 236.5 224 230 224.101562 226.296875 227 C 219.398438 232.5 212.796875 229.398438 212.601562 234.796875 C 216.703125 231.601562 220.398438 235.398438 223.601562 234.296875 C 227 233.101562 229.5 239.601562 238.796875 236.898438 Z M 228.203125 334.898438 C 229.101562 336.601562 234.601562 337.296875 237.296875 334.5 C 240.898438 330.703125 237 320.296875 231.296875 319.5 C 225.601562 318.796875 225.101562 331.296875 228.203125 334.898438 Z M 228.203125 334.898438 " transform="matrix(0.5,0,0,0.5,0,0)"/>
<path style="fill-rule:nonzero;fill:rgb(100%,100%,100%);fill-opacity:1;stroke-width:0.4;stroke-linecap:butt;stroke-linejoin:miter;stroke:rgb(0%,0%,0%);stroke-opacity:1;stroke-miterlimit:4;" d="M 221.796875 335.101562 C 229.796875 338.101562 233.296875 331.398438 229 327.101562 C 226.78125 329.921875 224.375 332.601562 221.796875 335.101562 Z M 221.796875 335.101562 " transform="matrix(0.5,0,0,0.5,0,0)"/>
<path style="fill-rule:nonzero;fill:rgb(100%,100%,100%);fill-opacity:1;stroke-width:0.4;stroke-linecap:butt;stroke-linejoin:miter;stroke:rgb(0%,0%,0%);stroke-opacity:1;stroke-miterlimit:4;" d="M 191.398438 346.203125 C 189.796875 350.898438 181.796875 351.601562 172.796875 366 C 163.796875 380.398438 155.203125 374.398438 153 384.296875 C 163.796875 375.601562 172.296875 381.296875 178.796875 372.703125 C 188.5 359.601562 196.601562 361.5 200.398438 352.703125 C 205.796875 340 229.398438 340.296875 230.796875 320.398438 C 222.796875 318.898438 197.5 340.296875 191.398438 346.203125 Z M 394.601562 151.5 C 404.898438 154.898438 405.101562 168.203125 417 172.601562 C 428.898438 177 430 187.601562 439.703125 185 C 430.703125 182.5 431.296875 172.101562 421.898438 169.5 C 410.898438 166.5 406.703125 149.703125 397.898438 147.101562 M 441.898438 221.398438 C 443.703125 225.601562 443.398438 232.898438 436.898438 234.796875 C 440.398438 237 445.601562 235 448.398438 230.203125 C 444.203125 239.601562 447 248.101562 453.703125 249.796875 C 450.5 243.203125 457.703125 240.101562 455.398438 235.796875 C 459.601562 237.703125 463.398438 243.5 463.203125 247.101562 C 468.796875 240.898438 459.203125 232.601562 460.898438 226.796875 Z M 375 287.601562 C 368.703125 282.101562 366 289.101562 363 286.601562 C 360 284.398438 356.203125 284.101562 354.703125 286.296875 C 360.101562 286.5 357.5 290.703125 368 291.703125 C 357.5 292.398438 359.398438 304.203125 352.398438 303.601562 C 359.796875 310.601562 363.703125 297.296875 369.796875 299.5 C 368 300 372.601562 304.203125 369.398438 309.898438 C 374.601562 309.796875 376.703125 302.601562 377.398438 298.898438 Z M 236 347.796875 C 233.796875 345.796875 227 344.898438 224.5 346.5 C 221.898438 348 222.796875 348.5 225.898438 348.703125 C 229 348.898438 232.898438 353.898438 226.296875 354.203125 C 223.203125 354.296875 224.296875 361.796875 217.796875 362.296875 C 220.398438 365.5 228 363.398438 230.703125 359.898438 C 230.203125 362.796875 234 365.398438 232.5 368.898438 C 237.203125 369.398438 234.5 359.203125 242 359.703125 C 239 360.101562 240.203125 367.101562 245.601562 365.296875 C 242.398438 366.796875 244.101562 370.601562 247.601562 369.703125 C 245.398438 370.398438 244.601562 373.398438 247.796875 375.101562 C 250.898438 370.796875 247.398438 355.601562 236.101562 347.796875 Z M 516.601562 205.703125 C 523.296875 206.203125 529.710938 202.914062 533.210938 197.179688 C 536.710938 191.453125 536.710938 184.25 533.210938 178.515625 C 529.710938 172.789062 523.296875 169.5 516.601562 170 C 507.257812 170.703125 500.039062 178.484375 500.039062 187.851562 C 500.039062 197.21875 507.257812 205 516.601562 205.703125 Z M 516.601562 205.703125 " transform="matrix(0.5,0,0,0.5,0,0)"/>
<path style="fill-rule:nonzero;fill:rgb(100%,100%,100%);fill-opacity:1;stroke-width:0.4;stroke-linecap:butt;stroke-linejoin:miter;stroke:rgb(0%,0%,0%);stroke-opacity:1;stroke-miterlimit:4;" d="M 423.398438 227.203125 C 428.898438 222.101562 437.101562 219.5 442.796875 223.398438 C 448.398438 227.203125 467.203125 231.796875 476.5 225.398438 C 485.796875 219 490.203125 215.601562 494.296875 216.398438 C 497.296875 220.929688 501.101562 223.335938 505.703125 223.601562 C 507.101562 225.203125 512.203125 226.398438 515 226.101562 C 519.101562 227.101562 524.101562 225.796875 528.101562 221.398438 C 534.296875 222.398438 540.101562 217.703125 542.296875 210.703125 C 548.898438 210 549.296875 202.703125 545.101562 197.703125 C 541.296875 197 544.203125 183.898438 530.203125 186.5 C 536.203125 190.101562 531.601562 197.296875 536.5 200.703125 C 533.203125 200.703125 528.796875 202.101562 527.796875 207.101562 C 529.101562 203.703125 527.601562 201.296875 526.796875 200.601562 C 526.796875 197.601562 520.296875 190.296875 514.101562 193 C 518.5 194 516.101562 201 519.296875 203.796875 C 516.835938 203.882812 514.546875 205.101562 513.101562 207.101562 C 511.398438 204.101562 505.5 201.101562 501.898438 200.796875 C 501.898438 199.796875 501.703125 197.796875 501.203125 196.703125 C 499.601562 193.601562 498.203125 189.898438 498.898438 185.203125 C 495.976562 188.640625 493.554688 192.476562 491.703125 196.601562 C 486.796875 193.203125 474.703125 198.101562 469 199.398438 C 463.296875 200.703125 444.296875 197.601562 440 193 C 433.882812 188.101562 426.679688 184.742188 419 183.203125 C 408 180 408 168 395.898438 159.703125 C 395.601562 174.703125 418.296875 222.101562 423.398438 227.203125 Z M 297.203125 341.101562 C 306.757812 341.101562 314.5 333.351562 314.5 323.796875 C 314.5 314.242188 306.757812 306.5 297.203125 306.5 C 287.648438 306.5 279.898438 314.242188 279.898438 323.796875 C 279.898438 333.351562 287.648438 341.101562 297.203125 341.101562 Z M 297.203125 341.101562 " transform="matrix(0.5,0,0,0.5,0,0)"/>
<path style="fill-rule:nonzero;fill:rgb(100%,100%,100%);fill-opacity:1;stroke-width:0.4;stroke-linecap:butt;stroke-linejoin:miter;stroke:rgb(0%,0%,0%);stroke-opacity:1;stroke-miterlimit:4;" d="M 256 327.796875 C 259.5 332.296875 265.398438 332 267.898438 331.703125 C 269.898438 337.101562 276.5 336.898438 279.296875 339.898438 C 282.101562 342.898438 291.796875 342.601562 294.601562 340.898438 C 292.101562 340.703125 288.703125 339.101562 285.601562 336.398438 C 281.601562 333.203125 283.398438 326.601562 280.398438 324.398438 C 282.3125 321.96875 283.109375 318.851562 282.601562 315.796875 C 285 314.398438 286.796875 312.101562 287 310.898438 C 290.585938 310.726562 293.992188 309.273438 296.601562 306.796875 C 298.796875 308.796875 304.296875 306.203125 307.296875 309.601562 C 307.898438 301.101562 299.796875 296.601562 294.296875 299.5 C 292.203125 298.296875 286.398438 299.101562 285.296875 300.601562 C 283.601562 299.796875 278.5 302.398438 276.296875 304.101562 C 278.796875 302.703125 279.203125 298.398438 278.203125 296.898438 C 280.398438 295.898438 282.796875 293 283.101562 290.898438 C 286.101562 291.398438 290.796875 289.296875 292.796875 289.796875 C 289.5 285.398438 284 283.796875 278.296875 284.296875 C 272.398438 284.601562 269.898438 288.703125 269.101562 293.101562 C 265.703125 295.203125 264.5 302.101562 265.796875 304.601562 C 263.796875 304.601562 261.898438 306.5 261.203125 307.601562 C 258.210938 306.375 255.03125 305.695312 251.796875 305.601562 M 253.101562 298.601562 C 251.898438 295.203125 253.398438 292.203125 254.203125 289.601562 C 256.203125 282.796875 255 281 248.898438 281.898438 C 249.257812 287.679688 250.679688 293.335938 253.101562 298.601562 Z M 253.101562 298.601562 " transform="matrix(0.5,0,0,0.5,0,0)"/>
<path style="fill-rule:nonzero;fill:rgb(100%,100%,100%);fill-opacity:1;stroke-width:0.4;stroke-linecap:butt;stroke-linejoin:miter;stroke:rgb(0%,0%,0%);stroke-opacity:1;stroke-miterlimit:4;" d="M 248.601562 282.296875 C 250.203125 283.898438 255.601562 284.601562 256.203125 279.703125 C 256.898438 274.101562 254.601562 271.898438 249.703125 274.101562 C 249.296875 275.398438 248.898438 280.601562 248.703125 282.296875 Z M 248.601562 282.296875 " transform="matrix(0.5,0,0,0.5,0,0)"/>
<path style="fill-rule:nonzero;fill:rgb(100%,100%,100%);fill-opacity:1;stroke-width:0.4;stroke-linecap:butt;stroke-linejoin:miter;stroke:rgb(0%,0%,0%);stroke-opacity:1;stroke-miterlimit:4;" d="M 249.796875 273.898438 C 251.796875 274.703125 256.296875 276.398438 258.796875 271.601562 C 260.796875 267.601562 258.101562 264.601562 253.796875 264.796875 C 252.796875 266 250.796875 270.101562 249.796875 273.898438 Z M 249.796875 273.898438 " transform="matrix(0.5,0,0,0.5,0,0)"/>
<path style="fill-rule:nonzero;fill:rgb(100%,100%,100%);fill-opacity:1;stroke-width:0.4;stroke-linecap:butt;stroke-linejoin:miter;stroke:rgb(0%,0%,0%);stroke-opacity:1;stroke-miterlimit:4;" d="M 253.601562 264.398438 C 254.101562 266 259.398438 271.101562 263.203125 267.398438 C 267.101562 263.703125 267.101562 258.101562 261.296875 256.101562 C 259.796875 256.296875 255.101562 261.703125 253.601562 264.398438 Z M 253.601562 264.398438 " transform="matrix(0.5,0,0,0.5,0,0)"/>
<path style="fill-rule:nonzero;fill:rgb(100%,100%,100%);fill-opacity:1;stroke-width:0.4;stroke-linecap:butt;stroke-linejoin:miter;stroke:rgb(0%,0%,0%);stroke-opacity:1;stroke-miterlimit:4;" d="M 261.296875 256 C 262.398438 259.296875 266.101562 264.796875 272.796875 262.296875 C 279.5 259.796875 276.601562 251.296875 273.5 249.601562 C 269.023438 250.882812 264.859375 253.09375 261.296875 256.101562 Z M 261.296875 256 " transform="matrix(0.5,0,0,0.5,0,0)"/>
<path style="fill-rule:nonzero;fill:rgb(100%,100%,100%);fill-opacity:1;stroke-width:0.4;stroke-linecap:butt;stroke-linejoin:miter;stroke:rgb(0%,0%,0%);stroke-opacity:1;stroke-miterlimit:4;" d="M 273.5 249.601562 C 273 252.5 273.5 260.203125 282.703125 260.101562 C 291.796875 259.898438 289.296875 249.203125 286.898438 247.703125 C 283.203125 247.703125 276.898438 247.796875 273.5 249.703125 Z M 273.5 249.601562 " transform="matrix(0.5,0,0,0.5,0,0)"/>
<path style="fill-rule:nonzero;fill:rgb(100%,100%,100%);fill-opacity:1;stroke-width:0.4;stroke-linecap:butt;stroke-linejoin:miter;stroke:rgb(0%,0%,0%);stroke-opacity:1;stroke-miterlimit:4;" d="M 287.296875 248 C 286.296875 250.296875 284 264.703125 301.898438 260.703125 C 304.203125 260.203125 310.203125 246.898438 287.296875 248.101562 Z M 287.296875 248 " transform="matrix(0.5,0,0,0.5,0,0)"/>
<path style="fill-rule:nonzero;fill:rgb(100%,100%,100%);fill-opacity:1;stroke-width:0.4;stroke-linecap:butt;stroke-linejoin:miter;stroke:rgb(0%,0%,0%);stroke-opacity:1;stroke-miterlimit:4;" d="M 297.101562 249.398438 C 295.296875 251.203125 299.898438 265.703125 312.101562 263.296875 C 324.101562 260.796875 314 247 297.101562 249.296875 Z M 297.101562 249.398438 " transform="matrix(0.5,0,0,0.5,0,0)"/>
<path style="fill-rule:nonzero;fill:rgb(100%,100%,100%);fill-opacity:1;stroke-width:0.4;stroke-linecap:butt;stroke-linejoin:miter;stroke:rgb(0%,0%,0%);stroke-opacity:1;stroke-miterlimit:4;" d="M 307.398438 251.601562 C 305.398438 255.601562 308.398438 267.398438 323.296875 267.398438 C 336.796875 267.398438 322.601562 251.796875 307.398438 251.601562 Z M 307.398438 251.601562 " transform="matrix(0.5,0,0,0.5,0,0)"/>
<path style="fill-rule:nonzero;fill:rgb(100%,100%,100%);fill-opacity:1;stroke-width:0.4;stroke-linecap:butt;stroke-linejoin:miter;stroke:rgb(0%,0%,0%);stroke-opacity:1;stroke-miterlimit:4;" d="M 319.101562 255 C 318.101562 257.296875 317 269.796875 334.601562 270.898438 C 347.296875 271.703125 344.203125 253.601562 319.101562 255 Z M 319.101562 255 " transform="matrix(0.5,0,0,0.5,0,0)"/>
<path style="fill-rule:nonzero;fill:rgb(100%,100%,100%);fill-opacity:1;stroke-width:0.4;stroke-linecap:butt;stroke-linejoin:miter;stroke:rgb(0%,0%,0%);stroke-opacity:1;stroke-miterlimit:4;" d="M 338 260.296875 C 335.898438 264.203125 333.601562 273.796875 352.898438 274.601562 C 365.203125 275.101562 357.601562 260.601562 338.101562 260.296875 Z M 338 260.296875 " transform="matrix(0.5,0,0,0.5,0,0)"/>
<path style="fill-rule:nonzero;fill:rgb(100%,100%,100%);fill-opacity:1;stroke-width:0.4;stroke-linecap:butt;stroke-linejoin:miter;stroke:rgb(0%,0%,0%);stroke-opacity:1;stroke-miterlimit:4;" d="M 354.101562 263.296875 C 351.296875 267.101562 353.398438 274.703125 360.601562 276.101562 C 369.601562 277.898438 370.898438 269.398438 364.703125 265.296875 C 358.5 261.296875 354.101562 263.296875 354.101562 263.296875 Z M 354.101562 263.296875 " transform="matrix(0.5,0,0,0.5,0,0)"/>
<path style="fill-rule:nonzero;fill:rgb(100%,100%,100%);fill-opacity:1;stroke-width:0.4;stroke-linecap:butt;stroke-linejoin:miter;stroke:rgb(0%,0%,0%);stroke-opacity:1;stroke-miterlimit:4;" d="M 363 265 C 360.898438 268.703125 362.101562 277.398438 375.796875 277.398438 C 378.601562 277.398438 389.398438 266.398438 362.898438 265.101562 Z M 257.101562 433 C 268.148438 433 277.101562 424.046875 277.101562 413 C 277.101562 401.953125 268.148438 393 257.101562 393 C 246.054688 393 237.101562 401.953125 237.101562 413 C 237.101562 424.046875 246.054688 433 257.101562 433 Z M 257.101562 433 " transform="matrix(0.5,0,0,0.5,0,0)"/>
<path style="fill-rule:nonzero;fill:rgb(100%,100%,100%);fill-opacity:1;stroke-width:0.4;stroke-linecap:butt;stroke-linejoin:miter;stroke:rgb(0%,0%,0%);stroke-opacity:1;stroke-miterlimit:4;" d="M 404.101562 141.703125 C 401.9375 144.101562 400.125 146.796875 398.703125 149.703125 C 392 169.703125 409.898438 184.703125 420.296875 206.398438 C 429 226.25 426.882812 249.179688 414.703125 267.101562 C 410.296875 272.898438 411.601562 274.601562 405.898438 280.5 C 403.703125 282.796875 401.296875 285.703125 402.101562 293.898438 C 405.703125 292.601562 410.796875 295.898438 411.796875 298.898438 C 414.398438 297.5 418 298 419.296875 299.601562 C 423.703125 297.601562 427.296875 298.601562 431.203125 302.601562 C 434.5 302.203125 438.203125 302.601562 441.5 306.296875 C 443.296875 302.703125 446.898438 301.296875 449.5 302.203125 C 449.203125 297.5 453.796875 294.203125 457.898438 296 C 457.25 293.3125 458.109375 290.476562 460.148438 288.609375 C 462.179688 286.734375 465.078125 286.117188 467.703125 287 C 472.398438 283.398438 481.703125 283.101562 486.296875 288.5 C 478 286.203125 478.296875 295 471.296875 294.203125 C 473.101562 299.296875 468.5 302.296875 463.898438 304 C 466.898438 302.601562 470.101562 300.898438 471.101562 302.703125 C 473.703125 300.398438 478.796875 301.296875 480.101562 302.398438 C 483.5 301.398438 486.796875 302.203125 488.296875 306.296875 C 493 309.101562 496.101562 316.296875 492.703125 321.703125 C 491.703125 316.101562 487.796875 316.296875 486.296875 314 C 482.703125 315.296875 479.101562 315.296875 478 313 C 476 315 469 316.898438 466 313.796875 C 464.796875 318.398438 460.796875 322.296875 456.101562 322.296875 C 457.398438 325.898438 453.796875 332 451 335.101562 C 455.398438 337.398438 454 342.601562 453 345.703125 C 459.796875 346.703125 454 352.703125 465.703125 356.5 C 460 358.296875 448.898438 356.5 447.398438 349.5 C 441.703125 349.296875 437.898438 343.601562 438.101562 337.703125 C 433.703125 333.601562 433.101562 327.703125 439.101562 323.5 C 434 325.101562 431.101562 316.796875 423.703125 320.203125 C 420 321.898438 410.203125 319 410.296875 315.601562 C 408.796875 318.101562 399.296875 317.101562 398.101562 312.703125 C 395 314.398438 387.796875 311.601562 387.898438 307.296875 C 383.898438 309.101562 378.5 305.898438 378.796875 301.796875 C 375 301.296875 374.601562 297.898438 374.796875 295.101562 C 371.5 293.5 372.398438 290.296875 373.796875 286.5 C 371.398438 283.898438 372.398438 280.296875 374.203125 276.898438 C 371.703125 274.296875 372.203125 271.296875 372.898438 267.601562 C 360.601562 266.601562 345.101562 263.601562 309.601562 252.703125 C 256 236.203125 241.601562 274.898438 253.398438 299.101562 C 267.101562 327.101562 251.898438 333.101562 256.5 353.898438 C 261.5 354.898438 264 359.101562 263.703125 363.5 C 266.703125 363.601562 268.703125 366.296875 267.703125 371.5 C 270.453125 371.046875 273.257812 371.898438 275.296875 373.796875 C 277.101562 370.398438 283.101562 369.601562 286.101562 373.5 C 292.796875 373 296.203125 378.5 295.898438 385.101562 C 299.195312 391.28125 298.609375 398.804688 294.398438 404.398438 C 294.796875 401.703125 294.398438 397.898438 294.296875 395.5 C 294 391.296875 288.101562 390.398438 288.703125 386.898438 C 285.703125 387.203125 282.703125 385.5 281.703125 383.203125 C 279.867188 384.734375 277.375 385.21875 275.101562 384.5 C 278.5 386 281.296875 392.203125 280.203125 396.296875 C 282 399.398438 281.601562 405.101562 279.5 407.5 C 278.5 412.5 274.5 414.296875 269.5 412.101562 C 272.398438 410.296875 273.398438 407.101562 273.296875 404.398438 C 271.609375 402.710938 270.585938 400.476562 270.398438 398.101562 C 265.398438 398.898438 258.398438 394.601562 257.203125 392.898438 C 251.875 392.898438 246.773438 395.023438 243.023438 398.796875 C 239.265625 402.5625 237.171875 407.679688 237.203125 413 C 236.601562 408.898438 231.398438 404.796875 232.101562 401.296875 C 229 391.796875 233.398438 382.898438 246 381.101562 C 244.398438 377.5 249.796875 373.796875 247.796875 369.703125 C 243.78125 362.398438 238.84375 355.640625 233.101562 349.601562 C 237.5 342.101562 236.101562 332.101562 233.601562 325.898438 C 229.898438 317 226.398438 319.203125 213.296875 333.601562 C 191.898438 357.101562 163.296875 350.601562 138.101562 366.101562 C 131.398438 370.101562 124.703125 371.703125 131.898438 364.5 C 139.101562 357.296875 158.101562 350.101562 170.5 343.898438 C 193.703125 332.296875 213.296875 313 221 275.398438 C 239.101562 187 306 216.203125 348.203125 232.601562 C 387.898438 248.101562 380.703125 213.101562 360.601562 191.898438 C 336.398438 166.601562 341.296875 146.601562 352.601562 130.601562 C 372.898438 127.796875 412 134.898438 404.101562 141.703125 Z M 404.101562 141.703125 " transform="matrix(0.5,0,0,0.5,0,0)"/>
<path style="fill-rule:nonzero;fill:rgb(100%,100%,100%);fill-opacity:1;stroke-width:0.4;stroke-linecap:butt;stroke-linejoin:miter;stroke:rgb(0%,0%,0%);stroke-opacity:1;stroke-miterlimit:4;" d="M 475.898438 358.796875 C 488.078125 358.796875 497.953125 348.929688 497.953125 336.75 C 497.953125 324.570312 488.078125 314.703125 475.898438 314.703125 C 463.75 314.703125 453.898438 324.546875 453.898438 336.703125 C 453.898438 348.851562 463.75 358.703125 475.898438 358.703125 Z M 475.898438 358.796875 " transform="matrix(0.5,0,0,0.5,0,0)"/>
<path style="fill:none;stroke-width:0.4;stroke-linecap:butt;stroke-linejoin:miter;stroke:rgb(0%,0%,0%);stroke-opacity:1;stroke-miterlimit:4;" d="M 391.796875 142.703125 C 386.796875 164.398438 391 174.203125 398.203125 183.703125 C 413.101562 203.398438 425 248.296875 408 277.703125 " transform="matrix(0.5,0,0,0.5,0,0)"/>
<path style="fill:none;stroke-width:0.4;stroke-linecap:round;stroke-linejoin:miter;stroke:rgb(0%,0%,0%);stroke-opacity:1;stroke-miterlimit:4;" d="M 417.5 252.296875 C 419.5 251.601562 423.5 249.101562 424.296875 244.898438 M 419.101562 242.898438 C 419.703125 239.203125 425.5 237.601562 425.601562 233.601562 M 419.203125 228.398438 C 418.796875 224.5 425 221 424.101562 217.203125 M 415.796875 214.5 C 415.296875 212.296875 421 208.203125 419.398438 204.703125 M 411.601562 200.898438 C 410.398438 198.5 414.296875 195.703125 412.601562 193.101562 M 405.398438 190.101562 C 405 188.5 407.398438 184.796875 406.101562 182.601562 M 399.203125 177.398438 C 399.703125 176.703125 401.796875 175.203125 401 173.296875 M 395 168 C 395.796875 167.601562 398.296875 166.796875 398 165 " transform="matrix(0.5,0,0,0.5,0,0)"/>
<path style="fill:none;stroke-width:0.4;stroke-linecap:round;stroke-linejoin:round;stroke:rgb(0%,0%,0%);stroke-opacity:1;stroke-miterlimit:4;" d="M 266 410.898438 C 261 409.101562 254.5 411.601562 253.203125 416 M 257.101562 420 C 257.703125 415.601562 264.398438 413.703125 266.398438 415.703125 C 262.203125 413.398438 260.101562 421.703125 263.898438 421.898438 M 298.5 318.101562 C 295.5 319.703125 294.5 325.296875 298.5 329.601562 M 303.101562 319.398438 C 301 321.203125 301.101562 326.601562 304.296875 327.898438 C 301.601562 325.898438 304.296875 322.601562 306.296875 322.5 C 308.203125 322.398438 309.5 324.703125 307.101562 327 M 484.101562 332.203125 C 476.898438 330.203125 471.101562 338.601562 477.703125 346.101562 C 477.5 338.898438 482.703125 334.101562 489 335.398438 M 486 340.398438 C 484.507812 340.398438 483.296875 341.609375 483.296875 343.101562 C 483.296875 344.5 484.5 345.898438 486.5 345.898438 C 487.796875 345.898438 488.898438 344.398438 488.898438 343.203125 M 511.5 182.203125 C 512.703125 186.601562 518.703125 188.5 523.5 187.398438 M 523.5 184.601562 C 519.796875 184.703125 516.703125 181.203125 516.898438 178.296875 C 516.898438 180.5 521.898438 181.5 523.5 180.101562 " transform="matrix(0.5,0,0,0.5,0,0)"/>
<path style="fill:none;stroke-width:0.4;stroke-linecap:round;stroke-linejoin:miter;stroke:rgb(0%,0%,0%);stroke-opacity:1;stroke-miterlimit:4;" d="M 267.898438 331.703125 C 266.898438 329.101562 270.898438 326.5 271.101562 324.101562 C 271.203125 321.601562 275.703125 319.703125 280.398438 324.296875 M 278.203125 296.898438 L 275.703125 298.101562 M 287.101562 310.898438 C 286 310.898438 283.703125 310.898438 282.5 310 M 282.5 315.796875 C 281.703125 316.296875 279.703125 317 278.5 317.296875 M 238.398438 393.601562 C 238.203125 395.898438 240.601562 399.296875 241.796875 400.296875 M 248.398438 388.101562 C 246.96875 390.359375 246.5 393.09375 247.101562 395.703125 M 267.601562 395.703125 C 265.296875 394.203125 266.796875 390.296875 266.601562 387.703125 C 266.296875 385.101562 269.296875 381 275.101562 384.5 M 246 381 C 248.296875 380.601562 250.703125 380.703125 252.296875 381.398438 M 275.296875 373.703125 C 274.484375 374.882812 274 376.265625 273.898438 377.703125 M 286.203125 373.398438 C 284.398438 373.398438 282.796875 374.703125 282 376 M 261.203125 307.5 C 263.203125 308.203125 268.601562 311.5 268.796875 314.898438 M 283.101562 290.703125 C 276.796875 290.601562 274.296875 284.203125 279.101562 284.203125 M 294.398438 299.398438 C 292 300.398438 293.101562 304.601562 296.601562 306.703125 M 279.296875 339.796875 C 278.101562 338.203125 279.703125 333.796875 283.703125 335.101562 M 288.703125 386.796875 C 289 382.796875 293.898438 380.601562 295.898438 385 M 270.398438 398 C 270.101562 393.703125 272.398438 392.296875 274.203125 392 C 276.203125 391.796875 278.898438 393.398438 280.203125 396.203125 M 232.101562 401.203125 C 232.296875 398.601562 234.5 395.898438 236.796875 396.296875 M 467.796875 286.898438 C 466.101562 288.101562 465 293.601562 471.296875 294.101562 M 458 296 C 458 296.601562 458.796875 297.5 459.296875 298 M 488.296875 306.296875 C 486.703125 305 482.296875 310.296875 486.296875 314 M 447.296875 349.601562 C 446.398438 345.898438 449.796875 344.898438 453.101562 345.703125 M 439.101562 323.5 C 441.101562 322.296875 443.101562 320.796875 445.5 320.203125 M 438.101562 337.703125 C 438.101562 334.703125 439.703125 332 441.101562 331.296875 M 449.5 302.203125 C 449.351562 305.4375 450.1875 308.648438 451.898438 311.398438 M 480.101562 302.398438 C 478.101562 302.867188 476.703125 303.835938 475.898438 305.296875 M 478 313 C 479.070312 312.132812 479.867188 311.367188 480.398438 310.703125 M 526.703125 200.5 C 526.703125 204.101562 522.203125 206.101562 519.203125 203.796875 M 536.5 200.703125 C 538.5 202.203125 545.398438 200.703125 543.796875 196.703125 M 528 221.398438 C 526.132812 220.851562 524.4375 219.820312 523.101562 218.398438 M 542.203125 210.703125 C 539.898438 211.203125 538.296875 210.703125 537.203125 210.203125 M 505.601562 223.601562 C 507.851562 223.5 510.0625 222.960938 512.101562 222 M 502 200.796875 C 500.335938 200.601562 499.03125 200.867188 498.101562 201.601562 M 527.898438 207.101562 C 527.398438 209.078125 526.359375 210.875 524.898438 212.296875 " transform="matrix(0.5,0,0,0.5,0,0)"/>
<path style="fill:none;stroke-width:0.4;stroke-linecap:round;stroke-linejoin:round;stroke:rgb(0%,0%,0%);stroke-opacity:1;stroke-miterlimit:4;" d="M 497.5 212.796875 C 500.703125 211.398438 504.703125 222.296875 512.5 218.5 M 513.101562 207.101562 C 512 208.765625 511.382812 210.703125 511.296875 212.703125 " transform="matrix(0.5,0,0,0.5,0,0)"/>
<path style="fill:none;stroke-width:0.4;stroke-linecap:butt;stroke-linejoin:miter;stroke:rgb(0%,0%,0%);stroke-opacity:1;stroke-miterlimit:4;" d="M 359 190.398438 C 360 190.203125 361.898438 189.898438 362.296875 188.601562 M 226.5 310.296875 C 230.398438 312.5 233.101562 316.203125 231.5 321.703125 M 403.601562 178.5 C 404.796875 179.296875 409.101562 179.296875 411.601562 178.5 M 414.601562 181.101562 C 414.601562 182.898438 415.101562 189.703125 411.601562 191.101562 M 412.898438 190.296875 C 416.101562 191.296875 422.5 190.898438 424.601562 185 M 420.101562 190 C 421.796875 192.601562 422.296875 197.601562 417.296875 200.296875 M 421.296875 194.296875 C 425.101562 195.5 433.703125 195.703125 432.796875 188.296875 M 429.796875 194.296875 C 432.5 197.796875 443.796875 202.101562 442 194.601562 M 419.5 204.601562 C 423.796875 205.703125 430 202.703125 427.5 195 M 439.796875 198.898438 C 440.398438 201.898438 454.796875 204.898438 452.898438 198.203125 M 450.203125 202.101562 C 452.898438 208.296875 467.203125 207.796875 462.703125 199.5 M 460.398438 206 C 463.203125 209.398438 475.898438 207.398438 470.796875 199 M 470.703125 205.796875 C 478.601562 211.796875 487.703125 203.296875 477.703125 197.101562 M 482.296875 203.898438 C 489.296875 209.398438 497.796875 199.398438 491.703125 196.601562 M 427.296875 201.601562 C 429.5 202.203125 434.101562 202 435.203125 198 M 433.398438 200.703125 C 433.203125 206.5 443 208.703125 445.5 202 M 442.203125 205.703125 C 444 209.601562 452.703125 211.101562 454.101562 205.601562 M 452.703125 208.203125 C 454.101562 212 461.601562 211.601562 463.703125 207.601562 M 460.898438 210.203125 C 463.203125 215.203125 472.796875 215.203125 474.898438 207.898438 M 473.296875 211.101562 C 477 213.398438 485 212.5 484.296875 205.296875 M 482.796875 210.5 C 488.398438 215 496.203125 210.601562 492.296875 203 M 492 216.398438 C 495 215.898438 496.5 210 493.398438 208.398438 M 423.398438 217.398438 C 429.398438 214.101562 430.703125 208.398438 426.398438 202.898438 M 428.601562 211.796875 C 432.5 214.101562 439.796875 211.601562 441.101562 206 M 433.898438 212.398438 C 436.101562 215.203125 436.5 218.703125 433.601562 221.898438 M 435.601562 216 C 442.5 211.796875 451 219.601562 444.601562 224.398438 M 443.601562 215.601562 C 445.101562 215.203125 447.796875 212.398438 448 209.203125 M 446.601562 218.601562 C 449.5 215.601562 468.796875 221.601562 456.601562 227.898438 M 455.601562 210.5 C 459.398438 211.898438 461.296875 217.203125 455.601562 219 M 460.601562 223.398438 C 464.601562 219.101562 477.601562 221.796875 472.898438 227.203125 M 469.796875 221.703125 C 472.101562 213.796875 485.898438 218.703125 481.398438 221.898438 M 467 213.898438 C 467.398438 215.398438 467.5 219.203125 465 221.296875 M 478.601562 212.296875 C 479.179688 214.09375 478.882812 216.054688 477.796875 217.601562 M 487.296875 212.398438 C 488.101562 213.796875 489.296875 216.5 486.5 218.703125 M 377.101562 153.203125 C 377.203125 160.5 379.796875 165.398438 389.703125 160.796875 M 380.203125 161.898438 C 375.203125 168.5 380.796875 175.601562 390.5 168.5 M 365 165 C 371.703125 172.203125 383.703125 167 376 156 M 384 171.203125 C 382.796875 178.296875 388.601562 179.703125 393.296875 176.5 M 359.101562 166.203125 C 360.296875 173.296875 367.601562 178.898438 374.703125 174.601562 M 367.796875 176 C 367.796875 186.203125 381.796875 187.296875 385.101562 176.796875 M 380.101562 183.203125 C 384.601562 192.5 394.398438 188.703125 397.601562 183.101562 M 370.203125 168.398438 C 372 172.898438 375.601562 177.898438 383.898438 174.203125 M 344.398438 166.203125 C 345.601562 169.898438 352.296875 174.398438 360 169.203125 M 349.203125 171 C 345 177 353.203125 182.703125 363.203125 173.703125 M 354.101562 178.398438 C 355.703125 186.898438 359.101562 193.796875 371.101562 182.796875 M 365.101562 187.203125 C 369.5 192.601562 376.203125 195.898438 382.5 186.796875 " transform="matrix(0.5,0,0,0.5,0,0)"/>
<path style="fill:none;stroke-width:0.4;stroke-linecap:butt;stroke-linejoin:miter;stroke:rgb(0%,0%,0%);stroke-opacity:1;stroke-miterlimit:4;" d="M 387.296875 188.796875 C 386.898438 195.296875 388.101562 198.5 393.203125 198.203125 C 397.203125 198 400.898438 194.898438 403.101562 191.5 M 392.296875 198.203125 C 392.101562 205.601562 397.898438 211.398438 408.796875 203.898438 M 396.796875 206.898438 C 394.796875 212.398438 400.898438 221.398438 413 216.796875 M 371.101562 192.203125 C 370.398438 199.203125 376.898438 204 387.5 194.898438 M 376.296875 200 C 376.703125 205.796875 383.296875 212.796875 392.898438 202.703125 M 380.898438 207.398438 C 380.203125 217.296875 389.296875 220.101562 397 212.5 M 367.203125 200 C 369.203125 200.203125 370.898438 198.398438 371.898438 197 M 371.5 207.203125 C 373.296875 207.601562 376.5 206 377.5 203.898438 M 376.101562 218.898438 C 378.101562 221.203125 385.101562 219.601562 386 216.601562 M 383.796875 218.796875 C 387.601562 227.796875 397.898438 227.5 402.203125 217.296875 M 400.203125 220.898438 C 402.203125 226.203125 407.101562 229.5 415.101562 227.703125 M 404.101562 226.296875 C 399.601562 233.601562 405.5 242.296875 415.601562 233.796875 M 406.601562 237.296875 C 406.101562 241.898438 410.296875 247.203125 416.101562 247.796875 M 387.5 223.796875 C 386 234.203125 393.5 239.203125 402.796875 233.601562 M 376.601562 228.796875 C 379 230.703125 383.398438 230.898438 387.601562 229.398438 M 392.601562 235.398438 C 390.203125 244.203125 399.203125 250.5 406.898438 240.703125 M 380 230.203125 C 380.203125 234.703125 384.5 239.601562 392.101562 238.203125 M 413.398438 247.203125 C 408.203125 250.601562 407.203125 256.796875 414.398438 260.796875 M 400.796875 245.398438 C 401 250.601562 403.5 253.601562 409.296875 254.101562 M 393.203125 242.703125 C 385.398438 249.703125 393 258 402.203125 251 M 398.601562 253.203125 C 396 261.296875 405.601562 266.203125 410.796875 258 M 382.601562 236 C 379.796875 244 383.398438 249.203125 390 248.703125 M 372.398438 234.398438 C 372.796875 239.203125 376.898438 240.898438 381.601562 239.796875 M 375.398438 239.398438 C 371.898438 246.101562 377.203125 249.703125 384.203125 247.203125 M 405.203125 262.203125 C 404.203125 266.398438 404.796875 269.398438 411.101562 270.898438 M 405.703125 268.203125 C 398.101562 271.601562 397.398438 279 403.296875 283.703125 M 399.5 260 C 397.65625 261.617188 396.703125 264.015625 396.9375 266.460938 C 397.179688 268.898438 398.578125 271.070312 400.703125 272.296875 M 365.703125 236.5 C 361.398438 240.796875 365.5 252.703125 375.203125 246.203125 M 390.898438 251.5 C 384.898438 256.5 387.601562 265.296875 397.398438 262.898438 M 381.101562 247.898438 C 378 256.601562 380.898438 259.703125 387.898438 259.796875 " transform="matrix(0.5,0,0,0.5,0,0)"/>
<path style="fill:none;stroke-width:0.4;stroke-linecap:butt;stroke-linejoin:miter;stroke:rgb(0%,0%,0%);stroke-opacity:1;stroke-miterlimit:4;" d="M 359.296875 236.101562 C 357.359375 237.429688 356.085938 239.53125 355.796875 241.859375 C 355.515625 244.195312 356.242188 246.539062 357.796875 248.296875 C 360.101562 250.898438 364.5 249.703125 365.796875 246.398438 M 348.203125 232.601562 C 342.296875 240.203125 348.203125 249.203125 356.601562 246.601562 M 379.898438 255.203125 C 373.898438 257.296875 369.203125 262.796875 372.898438 267.703125 C 375.203125 270.5 384.703125 270.898438 387.398438 259.898438 M 369 248.101562 C 365.5 253.101562 366.601562 257.898438 373 260.296875 M 368.601562 257.5 C 364.796875 259.5 362.398438 262 363.296875 266.5 M 360.203125 249.601562 C 358.796875 255.601562 360.5 259.398438 364.203125 261.203125 M 360.101562 256.796875 C 354.296875 256.398438 351.296875 258.796875 353.296875 264.601562 M 353.796875 258.203125 C 348.101562 256.203125 347.203125 251.203125 349.703125 246.203125 M 348.898438 253.796875 C 342.703125 254 339.898438 257.101562 339.898438 261.296875 " transform="matrix(0.5,0,0,0.5,0,0)"/>
<path style="fill:none;stroke-width:0.4;stroke-linecap:butt;stroke-linejoin:miter;stroke:rgb(0%,0%,0%);stroke-opacity:1;stroke-miterlimit:4;" d="M 340.5 229.703125 C 336 231.601562 334.5 237.703125 336.203125 241 C 337.898438 244.296875 343.203125 244.601562 346.398438 242.398438 M 328 224.898438 C 323.898438 229.5 328.601562 238.601562 336 236.398438 M 317.398438 221.296875 C 313.601562 226.703125 317.796875 235.703125 327.703125 233.101562 M 328.203125 258.203125 C 327.203125 251.796875 333.898438 247.601562 342.203125 255.898438 M 338.203125 242.898438 C 335.796875 245.039062 334.570312 248.203125 334.898438 251.398438 M 306.898438 218.203125 C 302.601562 225.398438 307.796875 232 316.898438 229.398438 M 330.703125 236.101562 C 324.703125 242.101562 326.703125 248.203125 331.203125 251.703125 M 326.796875 243.203125 C 317.703125 243.296875 317.203125 253.898438 324.601562 257.203125 M 319.898438 232.601562 C 316.101562 235.203125 314.898438 242.296875 321.398438 245.101562 M 319.601562 248.5 C 315.703125 246.703125 311.101562 248.898438 311.5 253.398438 M 313.796875 248.601562 C 310.296875 240.398438 300.203125 241.796875 301.101562 250.296875 M 316.601562 238.398438 C 314.5 238.796875 310.101562 240.101562 308.398438 243.398438 M 309 229.101562 C 307.367188 230.789062 306.6875 233.179688 307.1875 235.46875 C 307.695312 237.765625 309.3125 239.65625 311.5 240.5 M 296.703125 216 C 295.898438 221.601562 298.101562 224.296875 305.101562 223.796875 M 299.101562 223.101562 C 296.5 229.796875 300.101562 232.796875 307.101562 232.398438 M 300.703125 231.398438 C 296.601562 236.296875 299.398438 241.5 303.398438 243.703125 M 298.796875 237.601562 C 291.398438 236.601562 290.296875 245.203125 292.796875 249.101562 " transform="matrix(0.5,0,0,0.5,0,0)"/>
<path style="fill:none;stroke-width:0.4;stroke-linecap:butt;stroke-linejoin:miter;stroke:rgb(0%,0%,0%);stroke-opacity:1;stroke-miterlimit:4;" d="M 292.898438 215.5 C 288.398438 217.5 285.796875 223.101562 288.203125 226.5 C 290.703125 230 295.601562 228.898438 298.203125 227.101562 M 289.796875 228.101562 C 286 233.796875 289.398438 238.101562 293.398438 239.703125 " transform="matrix(0.5,0,0,0.5,0,0)"/>
<path style="fill:none;stroke-width:0.4;stroke-linecap:butt;stroke-linejoin:miter;stroke:rgb(0%,0%,0%);stroke-opacity:1;stroke-miterlimit:4;" d="M 275.296875 214.796875 C 272.296875 217.898438 274.203125 224.203125 281.296875 224.398438 C 287.203125 224.398438 290.101562 219 288.296875 215.101562 M 280.296875 224.398438 C 278 229.5 279.5 235.101562 288.296875 234.203125 M 291.898438 242.203125 C 286.601562 239.796875 279.296875 242.203125 282.398438 248.703125 M 281.703125 233.101562 C 279.5 236.203125 280.203125 240.601562 282.703125 243.296875 M 281.296875 241.296875 C 277.703125 242 274.203125 243.898438 276.296875 249.601562 M 275.796875 245 C 271.203125 243.601562 265.296875 247 268.796875 251.703125 M 268.101562 247.203125 C 264.101562 246.5 259.398438 250.796875 263.203125 255 M 261.703125 251.5 C 258.101562 252.5 253.796875 256.5 257.601562 259.796875 M 279.898438 231.296875 C 274.703125 233.601562 274.203125 239.398438 276.601562 243.703125 M 274.398438 220.703125 C 266.703125 223.703125 266.796875 233.898438 275.398438 237.101562 M 271.703125 234.796875 C 267.101562 237.5 266.203125 242.703125 269.296875 246 M 263.601562 216.796875 C 260.601562 217.796875 260.796875 227.296875 269 227.101562 M 255.101562 220 C 248.898438 224.101562 256.398438 234.5 266.398438 227 M 260.898438 229.703125 C 260 233.898438 261.203125 238.5 268 239.101562 M 261.296875 235.296875 C 256.398438 237.101562 255.5 247.203125 264.296875 248 M 245.703125 226.203125 C 239.398438 232 250.898438 237 255.101562 228.601562 M 237 235.796875 C 233.898438 239.601562 244.703125 249.398438 249.5 233 M 250.601562 232.703125 C 250.867188 236.703125 253.296875 238.867188 257.898438 239.203125 M 257.898438 242.898438 C 250.203125 244.101562 247.796875 253.601562 256.296875 255.703125 M 243.796875 241.703125 C 243.5 245.203125 247.296875 248.203125 251.5 247.601562 M 255.398438 255.398438 C 248.398438 257 247.5 266 253.703125 265.398438 M 250.5 273.796875 C 244.703125 272.101562 244.5 265.203125 249.703125 262.601562 " transform="matrix(0.5,0,0,0.5,0,0)"/>
<path style="fill:none;stroke-width:0.4;stroke-linecap:butt;stroke-linejoin:miter;stroke:rgb(0%,0%,0%);stroke-opacity:1;stroke-miterlimit:4;" d="M 245.703125 267.796875 C 240.796875 270.796875 242.703125 277.796875 245.296875 278.796875 C 247.898438 279.796875 250 278.601562 250.296875 276.398438 M 249.796875 286.398438 C 250.398438 289.703125 237.898438 288.398438 244.296875 278 M 244.296875 286.898438 C 240.101562 293.5 246.898438 298.898438 251.203125 293.203125 M 244.796875 294.796875 C 243.101562 300.101562 249.5 303.898438 253.601562 299.796875 M 231 245.398438 C 228.703125 250.101562 240.296875 251.898438 241 242.101562 M 227.796875 252.398438 C 225.5 261.703125 243 259.796875 238.5 247.796875 M 238.898438 254 C 241.257812 255.101562 244 255.023438 246.289062 253.78125 C 248.578125 252.539062 250.140625 250.28125 250.5 247.703125 M 245.203125 254.296875 C 245.84375 256.953125 247.539062 259.226562 249.898438 260.601562 M 236.796875 256.703125 C 236 261.703125 241.101562 265.898438 246.796875 265.5 M 237.703125 261.601562 C 234.898438 265.5 234 272.898438 242.898438 273.398438 M 224 263 C 222.601562 267 231 271.101562 235.796875 264.5 M 221.398438 273.203125 C 220.703125 276.203125 228.203125 280.203125 232.398438 267.398438 M 229.101562 273.898438 C 230.898438 277.101562 237 279.703125 240.703125 273.398438 M 234.703125 277.296875 C 233.101562 281.796875 237.398438 286 242.5 284.796875 M 225 276.296875 C 224 282.703125 231.5 286.398438 236 283.101562 M 220.101562 279.101562 C 217.898438 287.296875 228.5 290.398438 232.5 284.203125 M 229.796875 286.703125 C 230.203125 291.296875 237.398438 295.296875 243 291.5 M 216.898438 290.5 C 216.398438 292.601562 225 294.703125 226.296875 287.5 M 221.898438 292.398438 C 223.898438 297.601562 230.898438 298.898438 234.898438 292.398438 M 232.601562 295 C 233.601562 300 239.796875 302.703125 245.398438 299.296875 M 247.703125 301.296875 C 246.296875 307.796875 253.101562 313.101562 257.296875 309.5 M 236.703125 300.101562 C 234.703125 307.296875 243.703125 311.398438 248.703125 307.398438 M 225.898438 296.398438 C 225.398438 303.203125 230.703125 307.203125 236.703125 304.203125 M 214.398438 297.203125 C 212.601562 301.5 222.203125 305.101562 226.703125 301.398438 M 208.5 309.101562 C 211 311.898438 219.5 309.101562 220.203125 302.796875 M 217.898438 307.398438 C 221 311 228.398438 313 231.296875 305.203125 M 228.703125 309.203125 C 228.703125 314.796875 238.5 318.796875 241.703125 308.601562 M 253.398438 310.601562 C 252.398438 313.296875 254.601562 317.601562 259.101562 318.101562 M 245.203125 308.898438 C 244.601562 311.898438 249.101562 316.296875 253.898438 314.601562 M 254.796875 315.898438 C 253.5 319.203125 254.601562 324 259.101562 323.898438 M 255.203125 322.101562 C 251.796875 324.898438 253.203125 330 258.101562 330.101562 M 253.5 326.898438 C 248.703125 330.101562 250.398438 337.203125 256.703125 336.796875 M 239 313 C 239 320 247.703125 321 249.296875 314.601562 M 246 318.601562 C 244.703125 322.796875 248 326.796875 253.296875 325.601562 M 247 368.398438 C 248.203125 370.101562 253 367.203125 251.703125 364.398438 C 250.398438 361.601562 245.296875 363.101562 245.898438 366.101562 M 250.5 363.203125 C 251.101562 357.601562 244.5 356.703125 242.796875 361.601562 M 245.203125 358.703125 C 246.898438 355.898438 241.203125 352 238.898438 356.203125 M 240.898438 354.5 C 242.5 350.398438 236.101562 348.5 235.601562 352.296875 M 234.101562 346.898438 C 234.898438 344.898438 242.101562 346.101562 239.101562 350.398438 M 244.601562 355.5 C 247.398438 352.898438 242.601562 347.703125 239.601562 349.5 M 263.601562 363.398438 C 261.398438 363.601562 259.101562 365.101562 260.703125 369.898438 C 261.898438 373.203125 266.796875 373.296875 267.601562 371.398438 " transform="matrix(0.5,0,0,0.5,0,0)"/>
<path style="fill:none;stroke-width:0.4;stroke-linecap:butt;stroke-linejoin:miter;stroke:rgb(0%,0%,0%);stroke-opacity:1;stroke-miterlimit:4;" d="M 260.5 365.898438 C 258.296875 364.398438 253.5 366.898438 255.703125 371.5 C 257.296875 375 261.5 373.5 262.101562 371.703125 M 248.101562 372.5 C 249.296875 374.5 254.703125 373.5 255.703125 371.5 M 251.898438 366.101562 C 253.101562 365.296875 255.203125 366.296875 255.601562 367.296875 M 251.601562 334.296875 C 247.796875 336.796875 250.101562 344.296875 255.898438 342.296875 M 250.296875 340.398438 C 247.296875 342.703125 250.101562 350 255.601562 347.203125 M 251.296875 347.203125 C 249.203125 349.296875 251.203125 355 256.5 353.898438 M 250.5 350.101562 C 249.296875 349.601562 246.296875 349.898438 245 351.898438 M 247.101562 323.898438 C 244.296875 326.703125 245.703125 332.203125 250.898438 332.703125 M 246.101562 329.703125 C 242.101562 331.703125 242.101562 339.703125 250.101562 340 M 245.796875 338.703125 C 243.5 340.5 244.601562 347.5 250.398438 346.601562 M 247.601562 346.296875 C 246.796875 347.203125 246.601562 349.296875 247.398438 350.203125 M 245.101562 343.703125 C 243.101562 343.703125 240.296875 345.203125 239.601562 347.398438 M 235.898438 339.898438 C 236.601562 337.898438 243 337.898438 243.5 344 M 244.101562 336.796875 C 243.203125 337 241.5 337.796875 241.101562 339.601562 M 241.296875 317.898438 C 238.601562 320.5 237.296875 328.398438 245.601562 329.898438 M 235.703125 334.296875 C 235.703125 332.203125 241.5 330.296875 243.5 333.5 M 232 322.796875 C 232.796875 324.398438 236.796875 326.601562 239.203125 324.796875 M 211.203125 310.203125 C 211.117188 312.070312 211.882812 313.882812 213.273438 315.140625 C 214.664062 316.398438 216.546875 316.96875 218.398438 316.703125 C 222.703125 316.203125 223.601562 312.5 222.296875 310 M 219.101562 316.898438 C 216.203125 320.296875 219.703125 325.203125 222.898438 323.796875 M 222.296875 314.398438 C 224 313.796875 229.5 313 231.203125 315.601562 M 204.398438 315.398438 C 203.101562 317.398438 211.101562 319.296875 213.796875 315.601562 M 211.101562 317.5 C 210.796875 320.101562 212.101562 324.5 218.703125 322.601562 " transform="matrix(0.5,0,0,0.5,0,0)"/>
<path style="fill:none;stroke-width:0.4;stroke-linecap:butt;stroke-linejoin:miter;stroke:rgb(0%,0%,0%);stroke-opacity:1;stroke-miterlimit:4;" d="M 219.796875 326.601562 C 220.796875 324.398438 216 320.796875 212.203125 324.796875 C 208.398438 328.796875 212.796875 333.296875 215.101562 331.796875 M 202.703125 318 C 200.703125 321.398438 208.203125 327.5 212.5 321.796875 " transform="matrix(0.5,0,0,0.5,0,0)"/>
<path style="fill:none;stroke-width:0.4;stroke-linecap:butt;stroke-linejoin:miter;stroke:rgb(0%,0%,0%);stroke-opacity:1;stroke-miterlimit:4;" d="M 197.703125 323.796875 C 195 326.601562 198.398438 331.703125 202.398438 330.101562 C 206.5 328.601562 206.101562 324.296875 205.101562 323.203125 " transform="matrix(0.5,0,0,0.5,0,0)"/>
<path style="fill:none;stroke-width:0.4;stroke-linecap:butt;stroke-linejoin:miter;stroke:rgb(0%,0%,0%);stroke-opacity:1;stroke-miterlimit:4;" d="M 192.5 329 C 190.296875 331 192.5 335.601562 195.5 335.601562 C 198.5 335.601562 200.398438 333.296875 199.796875 330.203125 M 204.796875 328.601562 C 204.398438 331.601562 208.796875 333.601562 211.703125 330.796875 M 211.703125 325.398438 C 212.203125 324.796875 211.898438 323.703125 211.203125 323.101562 M 187.796875 332.898438 C 185.296875 334.898438 190.796875 340.5 194.101562 335.398438 M 207.203125 331.898438 C 205.601562 333.398438 208.203125 337.398438 210.796875 336.203125 M 198.398438 334.703125 C 198.796875 337.398438 204.203125 339.5 207.601562 335.296875 M 201.296875 337.398438 C 200.5 339.203125 202.203125 341.898438 204.296875 341.601562 M 252.601562 353.398438 C 250.601562 357.296875 257 361.898438 261.601562 357.101562 M 257.203125 359.203125 C 256.203125 361.296875 257.398438 364.296875 259.203125 365.398438 M 251.203125 363.703125 C 251.601562 361.703125 254.398438 359.898438 256.898438 360.796875 M 247.898438 358.601562 C 248.203125 356.796875 250.5 355.101562 252.296875 355.601562 M 399.5 278.203125 C 390.296875 278.296875 394.203125 293 402.101562 290.101562 M 396.5 289.101562 C 394.703125 292 398.203125 296.703125 402.101562 293.898438 M 401.101562 294.5 C 398.296875 299 408 305.898438 411.898438 298.796875 M 408.796875 301.5 C 408.796875 305.796875 421.296875 308.5 419.5 300 M 418.296875 304.601562 C 421.296875 309.601562 432.296875 310.101562 431.203125 302.601562 M 428.703125 307.796875 C 431 311.203125 441.898438 313.203125 441.5 306.296875 M 384.796875 265.5 C 386.296875 269.5 391.601562 270.898438 397.398438 268.5 M 381.398438 268.296875 C 385.101562 270.601562 379.796875 281.203125 374.296875 276.898438 M 381.5 274.898438 C 385.5 276.796875 390.398438 275.398438 391.796875 269.703125 M 389.296875 274.101562 C 389.703125 277.101562 394 279.398438 399.5 278.203125 M 379.398438 277.203125 C 384.601562 281.601562 377.101562 290.601562 373.703125 286.5 M 381.296875 280.5 C 383.796875 282.296875 390.101562 281.296875 390.703125 276.5 M 387.898438 280.5 C 388.398438 283.601562 390.898438 284.796875 394.296875 284.898438 M 379.898438 284.796875 C 382.5 288.398438 388.898438 289.398438 391.796875 284.703125 M 388.898438 287.398438 C 388.703125 290.796875 392.5 293.703125 396.5 292.898438 M 375 295 C 378.296875 296.703125 382 290.296875 379.101562 286 M 378.898438 301.703125 C 382.898438 301.898438 383.398438 295.898438 379.601562 292.5 M 388 307.203125 C 391.398438 306.398438 390.296875 299.101562 382.203125 298.5 M 398.203125 312.601562 C 401.398438 311.703125 398.796875 303.601562 389.898438 304.101562 M 410.398438 315.5 C 412.601562 312.101562 405.398438 306.5 399.398438 309.5 M 416.398438 320.101562 C 420.398438 321.296875 423.203125 310.703125 410.5 312.398438 M 423.796875 320.101562 C 427.296875 319.101562 429.796875 312.898438 419.601562 314.898438 M 431.601562 320.601562 C 434.601562 322.203125 436 313.101562 426.601562 315.601562 M 379.601562 292.601562 C 383.5 294.703125 389.601562 292.203125 389 287.296875 M 387.5 291.5 C 388.796875 293.796875 388.296875 298.296875 385.796875 299.5 M 387.796875 296.898438 C 390.398438 297.898438 393.898438 297 396 292.898438 M 392.398438 296.898438 C 393.101562 298.703125 393.398438 302.296875 391.703125 304.101562 M 393 300 C 395.898438 301.601562 399.203125 299.5 400.601562 296.5 M 398.796875 299.101562 C 400.796875 300.398438 402.703125 306.398438 399.203125 308.898438 M 401.203125 306.101562 C 403.601562 306.101562 407.203125 306.101562 409.5 303.101562 M 407.796875 304.796875 C 410 305.398438 412.601562 309 411.703125 312.203125 M 411.796875 311.101562 C 414.296875 310.796875 418.5 309.101562 419.703125 306.101562 M 418.5 308.101562 C 420.695312 309.5 421.921875 312.007812 421.703125 314.601562 M 421.703125 312.5 C 424.203125 312.398438 426.398438 311.101562 427 308.398438 M 426.398438 310.203125 C 428.203125 310.796875 430.398438 312.898438 430.5 315.296875 M 430.203125 313.796875 C 431.929688 313.46875 433.367188 312.398438 434.5 310.601562 M 439.398438 310.296875 C 441.703125 312.601562 438.601562 320.296875 433.796875 318.898438 M 389.898438 154.203125 C 385.203125 157.101562 371.601562 156.203125 378.296875 145 M 391.296875 146.601562 C 381.796875 150.398438 370.296875 143.101562 382.296875 135.296875 M 379.101562 132.703125 C 371.296875 132.703125 366 145.296875 376.5 149.703125 M 348.601562 138 C 346.601562 142 353.898438 146.398438 358.898438 142.398438 C 362.796875 139.296875 362.5 130.898438 360.203125 127.703125 M 344.601562 147.5 C 342 156 361 156.5 358 143 M 343.601562 160.203125 C 344.203125 166.601562 361.703125 164.5 356.101562 151.5 M 358.101562 147.898438 C 359.5 149.898438 363.398438 153.203125 370 152.5 M 361 139 C 361.601562 141.296875 365.5 143 370.5 141.296875 M 185.398438 334.796875 C 180.898438 337.898438 187.796875 342.898438 190.296875 337.398438 M 181.898438 337.203125 C 177.5 340.398438 184.296875 345.398438 186.796875 339.898438 M 178.203125 339.601562 C 173.796875 342.796875 180.601562 347.703125 183.203125 342.296875 M 174.398438 341.796875 C 170.101562 344.101562 175.101562 349.601562 179.398438 344.796875 M 170.203125 343.898438 C 165.898438 346.203125 170.898438 351.703125 175.203125 346.898438 M 191.796875 337.296875 C 191.703125 340.601562 197.898438 341.898438 200.203125 337 M 195.703125 340.296875 C 193.703125 342.796875 197.296875 345.796875 199.203125 344.703125 M 187.398438 339.898438 C 187.203125 342.703125 192.601562 344.296875 195.203125 341.203125 M 190.296875 342.796875 C 188.601562 345 192 348.101562 194.296875 347.203125 M 183.796875 342.398438 C 184 344.601562 187.101562 347.101562 190.398438 345.703125 M 185.796875 345.398438 C 184.5 346.5 185.101562 349.203125 186.898438 350.101562 M 179.101562 345.101562 C 178.601562 347.101562 182 350.703125 185.5 348.398438 M 179.796875 347.398438 C 177.796875 349.101562 178 351.5 180.601562 351.898438 M 174.796875 347.203125 C 174.601562 348.601562 176.296875 350.796875 178.5 350.5 M 163.796875 347.101562 C 161.796875 348.203125 167 353.796875 170.296875 348.601562 M 158.703125 349.398438 C 156.101562 350.601562 162.5 356.796875 165.398438 350.5 M 175.398438 349.203125 C 173.398438 349.601562 172.101562 352.5 173.796875 353.703125 M 168.796875 350.203125 C 168.601562 351.398438 171.101562 353.203125 173.101562 352.601562 M 167.203125 350.703125 C 165.203125 351.898438 166.296875 355.296875 168.601562 354.796875 M 160.296875 353 C 158.5 354.296875 159.796875 357 162.296875 356.398438 M 163.601562 352.796875 C 163.601562 353.5 165.296875 354.601562 166.601562 354.101562 M 154.101562 351.601562 C 151.796875 352.601562 152 358.203125 159.601562 355.203125 M 149 353.898438 C 145.796875 355.398438 146.898438 359.703125 153.796875 355.601562 M 154.296875 355.898438 C 153.5 356.601562 152.601562 359.398438 155.796875 358.296875 M 148.601562 357.296875 C 147.296875 358.398438 148.101562 360.796875 150.898438 359.898438 M 141.898438 357.703125 C 139.601562 359 144.703125 360.796875 148.101562 357.203125 M 143.5 359.296875 C 142.5 360.296875 142.5 363.398438 145.101562 362.296875 M 136.898438 360.601562 C 135.398438 361.703125 137.898438 363.296875 142.898438 361.101562 M 138.898438 362.203125 C 137 363.703125 137.203125 365.601562 139.898438 365 M 133.5 363 C 131.5 364.898438 134.398438 366.101562 137.898438 364.601562 M 133.5 365.101562 C 130.101562 366.601562 131.601562 369.5 133.703125 368.398438 M 247.5 374.898438 C 246.703125 376.601562 249.296875 378 251.796875 377.601562 C 254.101562 377.296875 256.398438 375.296875 254.601562 372.601562 M 254.703125 376 C 257.101562 377.796875 261.203125 375.703125 261.203125 373 " transform="matrix(0.5,0,0,0.5,0,0)"/>
<path style="fill-rule:nonzero;fill:rgb(100%,100%,100%);fill-opacity:1;stroke-width:0.4;stroke-linecap:butt;stroke-linejoin:miter;stroke:rgb(0%,0%,0%);stroke-opacity:1;stroke-miterlimit:4;" d="M 396.796875 103 C 386.5 98 365.101562 88.398438 359 96.101562 C 364.601562 93.796875 380.796875 96.203125 394.203125 108.601562 Z M 396.796875 103 " transform="matrix(0.5,0,0,0.5,0,0)"/>
<path style="fill-rule:nonzero;fill:rgb(100%,100%,100%);fill-opacity:1;stroke-width:0.4;stroke-linecap:butt;stroke-linejoin:miter;stroke:rgb(0%,0%,0%);stroke-opacity:1;stroke-miterlimit:4;" d="M 403 102.5 C 391.101562 88.601562 384 91.703125 375.5 87 C 367.5 82.5 354.703125 81.601562 352.203125 88.703125 C 363.898438 83 374.703125 91.703125 381.398438 92.898438 C 390.398438 94.296875 395.601562 101.398438 398.296875 104.601562 L 403 102.601562 Z M 447.898438 100.703125 C 441.703125 86.601562 428.5 90.296875 422.703125 84.296875 C 414.203125 75.5 392.703125 67.296875 383.703125 73.398438 C 403.296875 72.398438 411.703125 86.898438 422.101562 92 C 429.601562 95.601562 437.601562 103.296875 447.898438 100.703125 Z M 447.898438 100.703125 " transform="matrix(0.5,0,0,0.5,0,0)"/>
<path style="fill-rule:nonzero;fill:rgb(100%,100%,100%);fill-opacity:1;stroke-width:0.4;stroke-linecap:butt;stroke-linejoin:miter;stroke:rgb(0%,0%,0%);stroke-opacity:1;stroke-miterlimit:4;" d="M 424.703125 99.203125 C 414.203125 86.101562 397.898438 74.5 390.5 78.796875 C 400.296875 79.398438 403.398438 86.203125 410.296875 90.601562 C 417.296875 94.898438 414.203125 101.296875 424.703125 99.203125 Z M 374.5 122.398438 C 363.5 118.296875 341.796875 116.203125 331.703125 128.796875 C 348.5 131.703125 373.703125 130.101562 374.5 122.398438 Z M 374.5 122.398438 " transform="matrix(0.5,0,0,0.5,0,0)"/>
<path style="fill-rule:nonzero;fill:rgb(100%,100%,100%);fill-opacity:1;stroke-width:0.4;stroke-linecap:butt;stroke-linejoin:miter;stroke:rgb(0%,0%,0%);stroke-opacity:1;stroke-miterlimit:4;" d="M 372.398438 127.296875 C 361.398438 122.101562 352.703125 129.296875 342.296875 128.296875 C 322.5 126.296875 308.296875 127.5 306.5 137.101562 C 317.796875 126.898438 336.898438 135.296875 344.601562 133.203125 C 352.296875 131.101562 380.898438 132.898438 389.898438 136.796875 C 385.296875 131.101562 378.101562 129.601562 372.398438 127.296875 Z M 407.203125 97.796875 C 404.601562 89.296875 404.796875 80.296875 417.5 80.898438 C 414.296875 76.898438 402.5 74.898438 400.5 89.796875 C 386.5 79.5 371.101562 77.703125 368.296875 86.601562 C 375.5 80.398438 386.703125 84.898438 400.101562 100.101562 C 402.335938 98.96875 404.726562 98.195312 407.203125 97.796875 Z M 407.203125 97.796875 " transform="matrix(0.5,0,0,0.5,0,0)"/>
<path style="fill-rule:nonzero;fill:rgb(100%,100%,100%);fill-opacity:1;stroke-width:0.4;stroke-linecap:butt;stroke-linejoin:miter;stroke:rgb(0%,0%,0%);stroke-opacity:1;stroke-miterlimit:4;" d="M 387.898438 109.5 C 379.898438 104.296875 369.101562 96 388 92.601562 C 380 88.296875 368 90.203125 369.296875 105.101562 C 347.703125 96.398438 332.203125 99.296875 328.898438 108 C 325.296875 117.5 338.703125 122.796875 341 116.703125 C 338.601562 117.703125 330.203125 114.898438 334.601562 109.5 C 339 104.101562 361.398438 108.203125 382.703125 119.296875 C 388.703125 122.296875 409 121.898438 387.898438 109.5 Z M 387.898438 109.5 " transform="matrix(0.5,0,0,0.5,0,0)"/>
<path style="fill-rule:nonzero;fill:rgb(100%,100%,100%);fill-opacity:1;stroke-width:0.4;stroke-linecap:butt;stroke-linejoin:miter;stroke:rgb(0%,0%,0%);stroke-opacity:1;stroke-miterlimit:4;" d="M 382.203125 123.703125 C 376.101562 111.101562 356.101562 122.5 352.101562 110.296875 C 346.5 128.203125 380.5 118.296875 382.203125 123.703125 Z M 509.296875 137.296875 C 513.5 139.398438 517.101562 136.101562 510.703125 133.601562 C 514.898438 135.601562 518.601562 132.5 512.203125 129.898438 C 516.398438 131.898438 520 128.796875 513.601562 126.203125 C 511.898438 127.898438 509.5 134.203125 509.296875 137.296875 Z M 511.5 113.101562 C 520.796875 103.296875 510.796875 100 522.101562 89.898438 C 531.398438 81.703125 523.898438 76.203125 532.601562 69.898438 C 535.5 67.796875 541.601562 63.703125 542.203125 59.5 C 545.898438 68.796875 530.601562 70.101562 531.601562 85 C 532.296875 94.5 525.796875 93.703125 523.398438 109.796875 C 522.898438 113.101562 520.5 120.601562 511.5 113.101562 Z M 511.5 113.101562 " transform="matrix(0.5,0,0,0.5,0,0)"/>
<path style="fill-rule:nonzero;fill:rgb(100%,100%,100%);fill-opacity:1;stroke-width:0.4;stroke-linecap:butt;stroke-linejoin:miter;stroke:rgb(0%,0%,0%);stroke-opacity:1;stroke-miterlimit:4;" d="M 515.601562 117.5 C 520.796875 106.5 526.703125 106.601562 529.601562 102.296875 C 535 94 546.398438 103.703125 556.101562 96.296875 C 554.398438 106.796875 541.398438 103.101562 535.703125 109.796875 C 530 116.5 525.398438 119.5 515.703125 117.5 Z M 515.601562 117.5 " transform="matrix(0.5,0,0,0.5,0,0)"/>
<path style="fill-rule:nonzero;fill:rgb(100%,100%,100%);fill-opacity:1;stroke-width:0.4;stroke-linecap:butt;stroke-linejoin:miter;stroke:rgb(0%,0%,0%);stroke-opacity:1;stroke-miterlimit:4;" d="M 517 121.101562 C 526 113.898438 532.601562 118.703125 538.796875 114.898438 C 554.5 105.398438 560.796875 116.898438 574.796875 112.296875 C 571.203125 121.296875 550.398438 113.601562 541.398438 120.296875 C 532.398438 127 500.703125 133.5 516.898438 121.101562 Z M 490.703125 172.5 C 490.5 168.398438 486.703125 163.101562 481.296875 162.5 C 475.898438 161.796875 473.5 156.101562 469.398438 155.898438 C 465.296875 155.601562 462.601562 147.398438 456.898438 147.5 C 451.296875 147.601562 448.898438 155 462.203125 161.703125 C 475.5 168.398438 490.203125 176.101562 490.703125 172.5 Z M 473.898438 176 C 468.296875 176.203125 467.5 184.5 462.101562 184.703125 C 469.5 188.703125 475 182.898438 478.796875 177.703125 L 474 176 Z M 473.898438 176 " transform="matrix(0.5,0,0,0.5,0,0)"/>
<path style="fill-rule:nonzero;fill:rgb(100%,100%,100%);fill-opacity:1;stroke-width:0.4;stroke-linecap:butt;stroke-linejoin:miter;stroke:rgb(0%,0%,0%);stroke-opacity:1;stroke-miterlimit:4;" d="M 478.601562 177 C 473.601562 181.101562 472.203125 189.703125 479.296875 192.203125 C 475.101562 186.296875 486.796875 183.703125 483.203125 178.203125 Z M 478.601562 177 " transform="matrix(0.5,0,0,0.5,0,0)"/>
<path style="fill-rule:nonzero;fill:rgb(100%,100%,100%);fill-opacity:1;stroke-width:0.4;stroke-linecap:butt;stroke-linejoin:miter;stroke:rgb(0%,0%,0%);stroke-opacity:1;stroke-miterlimit:4;" d="M 483.398438 177.296875 C 479.601562 184.703125 489.5 185.601562 486.898438 191.296875 C 492.601562 190 493.5 179.296875 488.296875 176.5 L 483.398438 177.203125 Z M 483.398438 177.296875 " transform="matrix(0.5,0,0,0.5,0,0)"/>
<path style="fill-rule:nonzero;fill:rgb(100%,100%,100%);fill-opacity:1;stroke-width:0.4;stroke-linecap:butt;stroke-linejoin:miter;stroke:rgb(0%,0%,0%);stroke-opacity:1;stroke-miterlimit:4;" d="M 445.601562 161.296875 C 454.898438 160.796875 463.296875 165.796875 469 173.898438 C 472.601562 179 484.703125 181.101562 488.898438 176.898438 C 492.898438 172.898438 490.703125 164.101562 480.398438 166.898438 C 477.796875 162.601562 470.398438 164.101562 466.703125 160.5 C 463 156.898438 449.203125 146.601562 445.601562 161.296875 Z M 445.601562 161.296875 " transform="matrix(0.5,0,0,0.5,0,0)"/>
<path style="fill-rule:nonzero;fill:rgb(100%,100%,100%);fill-opacity:1;stroke-width:0.4;stroke-linecap:round;stroke-linejoin:miter;stroke:rgb(0%,0%,0%);stroke-opacity:1;stroke-miterlimit:4;" d="M 480.398438 167 C 477.898438 167.5 477.101562 171.703125 478.703125 173.898438 M 485.703125 169.5 C 486.398438 170.796875 485.898438 172.601562 485.5 173.5 M 460.296875 161.703125 C 465 161.898438 465.898438 165.398438 471.101562 166.703125 " transform="matrix(0.5,0,0,0.5,0,0)"/>
<path style="fill-rule:nonzero;fill:rgb(100%,100%,100%);fill-opacity:1;stroke-width:0.4;stroke-linecap:butt;stroke-linejoin:miter;stroke:rgb(0%,0%,0%);stroke-opacity:1;stroke-miterlimit:4;" d="M 457.101562 150 C 470.09375 152.539062 482.71875 156.671875 494.703125 162.296875 C 502.796875 166.898438 515.398438 168.296875 526.296875 165.101562 C 537.296875 162.101562 558.5 159.203125 557.398438 172.898438 C 563.203125 166 555.898438 158.703125 541.203125 157.398438 C 541.5 150.703125 534.296875 144.703125 529.203125 148.703125 C 533.898438 148 538 156.898438 528.601562 160.5 C 529.460938 157.335938 528.40625 153.960938 525.890625 151.851562 C 523.375 149.742188 519.867188 149.296875 516.898438 150.703125 C 521.296875 152 525.898438 159.5 515.898438 162.296875 C 509.601562 164.101562 500.5 161.796875 493.703125 157.703125 C 486.898438 153.601562 448.703125 138.703125 457.101562 149.898438 Z M 457.101562 150 " transform="matrix(0.5,0,0,0.5,0,0)"/>
<path style="fill-rule:nonzero;fill:rgb(100%,100%,100%);fill-opacity:1;stroke-width:0.4;stroke-linecap:butt;stroke-linejoin:miter;stroke:rgb(0%,0%,0%);stroke-opacity:1;stroke-miterlimit:4;" d="M 498.601562 143.296875 C 493.5 145.601562 496.796875 151 488.898438 154.101562 C 480.898438 157.101562 475.296875 164.203125 477.101562 170.296875 C 482.5 158.398438 492.101562 159 495.398438 154.296875 C 498.703125 149.601562 503.703125 142.898438 498.601562 143.296875 Z M 498.601562 143.296875 " transform="matrix(0.5,0,0,0.5,0,0)"/>
<path style="fill-rule:nonzero;fill:rgb(100%,100%,100%);fill-opacity:1;stroke-width:0.4;stroke-linecap:butt;stroke-linejoin:miter;stroke:rgb(0%,0%,0%);stroke-opacity:1;stroke-miterlimit:4;" d="M 500 144 C 499.796875 153.398438 492.398438 150 495.296875 163.203125 C 496.203125 167.296875 497.898438 174 495 180.703125 C 503.296875 174.703125 498 162 501.703125 157.203125 C 503.5 154.796875 505.898438 151.203125 506.703125 148.203125 C 504.796875 153.5 505 163.601562 510.203125 166.203125 C 506 156.203125 521.703125 147.898438 510.898438 136.203125 C 509.296875 139.203125 504.398438 144.203125 500.101562 144 Z M 473.796875 134.601562 C 475.101562 136.601562 476.398438 141.398438 475.203125 144.203125 C 477.796875 142.601562 481.5 138.601562 482.703125 135.898438 C 488 136.703125 490 143.203125 485 146.101562 C 488 146.101562 493.398438 146.101562 496.296875 142.601562 C 492.703125 138.601562 481.5 132.398438 473.796875 134.601562 Z M 473.796875 134.601562 " transform="matrix(0.5,0,0,0.5,0,0)"/>
<path style="fill-rule:nonzero;fill:rgb(100%,100%,100%);fill-opacity:1;stroke-width:0.4;stroke-linecap:butt;stroke-linejoin:miter;stroke:rgb(0%,0%,0%);stroke-opacity:1;stroke-miterlimit:4;" d="M 393.703125 116.101562 C 392.304688 115.023438 390.648438 114.328125 388.898438 114.101562 C 381.101562 112.5 385.203125 105.5 391.796875 105.601562 C 406 90.101562 413.898438 102 431.203125 97.203125 C 437.203125 95.398438 441.398438 95.898438 444.601562 97.398438 C 452.398438 92.203125 461.398438 93.601562 468 99.703125 C 468.640625 98.53125 469.71875 97.671875 471 97.296875 C 477.101562 95.601562 482 100.703125 483.703125 107.398438 C 488.398438 106.601562 493.796875 108.898438 497.398438 112.101562 C 502.335938 109.570312 505.5 109.570312 506.898438 112.101562 C 511.296875 110.101562 516.898438 108.703125 519.796875 115.703125 C 522.703125 122.703125 513.101562 120.601562 511.5 135.296875 C 510.5 144.296875 500.5 147.898438 492.5 142.5 C 479.703125 133.796875 467.203125 132.5 461 145.5 C 454.898438 158.703125 450 166.296875 435 162 C 428.625 160.554688 422.015625 163.125 418.296875 168.5 C 413.898438 174.5 407.296875 168.898438 399.296875 169.5 C 409.296875 168 405.398438 165.5 414.203125 164.898438 C 422.203125 164.398438 420.101562 156.898438 425.203125 155.898438 C 405.203125 161 405.898438 153.5 389.398438 158.703125 C 396.601562 149.398438 408 154.601562 413.601562 149.203125 C 398.703125 148.898438 392 139.203125 385.296875 143.203125 C 374.796875 149.703125 379.296875 168 351.796875 166.398438 C 338.398438 165.703125 329.898438 167.398438 322 175.398438 C 335.898438 146.601562 354.796875 162.398438 364 153.296875 C 368.773438 149.007812 372.914062 144.054688 376.296875 138.601562 C 377.085938 136.992188 378.554688 135.8125 380.296875 135.398438 C 357.398438 128.203125 371.296875 116.898438 393.703125 116.101562 Z M 393.703125 116.101562 " transform="matrix(0.5,0,0,0.5,0,0)"/>
<path style="fill-rule:nonzero;fill:rgb(100%,100%,100%);fill-opacity:1;stroke-width:0.4;stroke-linecap:round;stroke-linejoin:miter;stroke:rgb(0%,0%,0%);stroke-opacity:1;stroke-miterlimit:4;" d="M 506.898438 112 C 507.234375 112.796875 507.398438 113.796875 507.398438 115 C 507.398438 120.601562 498.898438 120.796875 498.398438 129.203125 C 498.101562 133.601562 497.601562 136 494.703125 135.5 C 491.796875 135 489.101562 130.398438 491.898438 125 " transform="matrix(0.5,0,0,0.5,0,0)"/>
<path style="fill-rule:nonzero;fill:rgb(100%,100%,100%);fill-opacity:1;stroke-width:0.4;stroke-linecap:butt;stroke-linejoin:miter;stroke:rgb(0%,0%,0%);stroke-opacity:1;stroke-miterlimit:4;" d="M 398 107.703125 C 396.195312 106.390625 394.03125 105.65625 391.796875 105.601562 M 444.601562 97.296875 C 451.398438 100.296875 454.703125 107.296875 464.601562 107.703125 C 474.203125 108 480.101562 121.898438 496.101562 112.796875 L 497.296875 112.203125 M 468 99.703125 C 466.648438 102.203125 466.15625 105.085938 466.601562 107.898438 M 436.796875 128.898438 C 424.796875 128.898438 421.601562 135 421.601562 140.898438 C 421.601562 146.796875 427.296875 154.601562 437.296875 154.601562 C 447.296875 154.601562 452.796875 148.398438 452.796875 141.703125 C 452.796875 135 446.601562 128.796875 436.796875 128.796875 Z M 436.796875 128.898438 " transform="matrix(0.5,0,0,0.5,0,0)"/>
<path style="fill-rule:nonzero;fill:rgb(100%,100%,100%);fill-opacity:1;stroke-width:0.4;stroke-linecap:butt;stroke-linejoin:miter;stroke:rgb(0%,0%,0%);stroke-opacity:1;stroke-miterlimit:4;" d="M 439 154.296875 C 438.796875 151 432.703125 151.5 433 148.898438 C 433.296875 146.296875 436.296875 145.296875 436.296875 141.703125 C 436.296875 138.101562 441.703125 137.796875 443.5 140.703125 C 445.296875 143.5 450.703125 149 451.898438 146.203125 M 443.5 140.703125 C 440.125 144.359375 439.953125 149.945312 443.101562 153.796875 M 447.398438 145 C 446.398438 147 446.203125 150 447.296875 151.796875 " transform="matrix(0.5,0,0,0.5,0,0)"/>
<path style="fill:none;stroke-width:0.4;stroke-linecap:butt;stroke-linejoin:miter;stroke:rgb(0%,0%,0%);stroke-opacity:1;stroke-miterlimit:4;" d="M 495.5 135.601562 C 505 136.398438 506.5 125.898438 499.5 125.296875 M 483.796875 107.5 C 480.601562 103.296875 473 101.898438 472.796875 110.703125 " transform="matrix(0.5,0,0,0.5,0,0)"/>
<path style="fill-rule:nonzero;fill:rgb(100%,100%,100%);fill-opacity:1;stroke-width:0.4;stroke-linecap:butt;stroke-linejoin:miter;stroke:rgb(0%,0%,0%);stroke-opacity:1;stroke-miterlimit:4;" d="M 472 120.796875 C 468.796875 112.796875 460.5 111.703125 456.203125 115.703125 C 452.5 119 452.398438 127.703125 460.203125 129.5 C 463 126.203125 468.203125 122 472 120.796875 Z M 468.5 115.796875 C 463.796875 111.703125 457 119.5 463.203125 126.601562 M 380.203125 135.296875 C 383.398438 134.601562 387.898438 136.101562 394.898438 139.296875 C 399.203125 141.398438 412.398438 145.796875 420.601562 141.398438 C 412.101562 144.5 405.601562 131.703125 399.203125 133.203125 C 392.796875 134.796875 381 137.203125 376.101562 132.398438 C 388.101562 133.203125 394.601562 123.601562 408.5 131.898438 C 412.429688 134.335938 416.976562 135.585938 421.601562 135.5 C 410.296875 121.898438 395.398438 130.601562 393.796875 119.5 C 400.601562 126.898438 417.296875 117.898438 425.796875 131.601562 M 396.296875 121.601562 C 394.703125 119.601562 395.296875 117.601562 393.703125 116.101562 " transform="matrix(0.5,0,0,0.5,0,0)"/>
<path style=" stroke:none;fill-rule:nonzero;fill:rgb(0%,0%,0%);fill-opacity:1;" d="M 241.898438 53.75 C 240.5 52.25 237.398438 53.398438 238.300781 56.449219 C 238.992188 55.011719 240.328125 53.988281 241.898438 53.699219 Z M 233.148438 62 C 234.011719 61.320312 234.972656 60.78125 236 60.398438 C 235.617188 59.375 234.957031 58.476562 234.101562 57.800781 C 233.351562 57.300781 231.25 60.148438 233.148438 61.949219 Z M 233.148438 62 "/>
<path style="fill:none;stroke-width:0.4;stroke-linecap:round;stroke-linejoin:miter;stroke:rgb(0%,0%,0%);stroke-opacity:1;stroke-miterlimit:4;" d="M 458.703125 113.5 C 454.101562 110.398438 449.796875 110.703125 448.398438 113.203125 C 445.101562 113.203125 442.296875 115.601562 442.203125 120.398438 M 449.296875 122.5 C 443.796875 118.703125 436.203125 120.101562 436.703125 128.601562 M 433.296875 133.5 C 436 131.296875 439.898438 129.703125 442.898438 133.5 M 474.703125 125.101562 C 473.703125 126.5 472.898438 128.703125 474.601562 132.101562 C 472.601562 129.296875 467.398438 129.296875 461.796875 136.5 M 486.898438 124.703125 C 480.203125 125.5 480.398438 129.898438 485.796875 131.703125 M 439.296875 108.296875 C 433.601562 107.203125 429.5 110.5 437.296875 113.296875 M 450.101562 104.5 C 442.101562 102.5 438.898438 104.601562 442.5 106.5 M 427 136.5 C 426.796875 139.398438 428.296875 143.101562 433 138.898438 M 428.601562 145 C 428.664062 145.867188 428.429688 146.664062 427.898438 147.398438 M 410 107.398438 C 405.101562 105.898438 404.203125 101.398438 410 101.796875 M 408.398438 117.796875 C 403 115.898438 403 110.703125 407.398438 111.203125 M 418.398438 115 C 412.101562 113.5 411.898438 109.101562 416.601562 109.796875 M 419.203125 101.601562 C 415.796875 101.398438 410.703125 105.101562 419.296875 107.296875 M 428.601562 109.101562 C 420.703125 108 420.898438 111.101562 425.5 113.203125 M 434.5 101.601562 C 428.5 100.5 426.398438 104.101562 430.5 105.601562 M 415.5 123.898438 C 414 122.703125 412.796875 116.898438 419.796875 118.601562 M 430.101562 122.101562 C 425.398438 120.796875 420.898438 125.5 425.203125 128.101562 M 436.398438 116.601562 C 431.398438 115.601562 427.203125 117.101562 429.898438 118.898438 " transform="matrix(0.5,0,0,0.5,0,0)"/>
<path style="fill-rule:nonzero;fill:rgb(100%,100%,100%);fill-opacity:1;stroke-width:0.4;stroke-linecap:butt;stroke-linejoin:miter;stroke:rgb(0%,0%,0%);stroke-opacity:1;stroke-miterlimit:4;" d="M 483.601562 107.5 C 480.554688 108.117188 477.96875 110.109375 476.601562 112.898438 " transform="matrix(0.5,0,0,0.5,0,0)"/>
</g>
</svg>
