<?xml version="1.0" encoding="UTF-8"?>
<svg xmlns="http://www.w3.org/2000/svg" xmlns:xlink="http://www.w3.org/1999/xlink" width="px" height="px" viewBox="0 0 320 240" version="1.1">
<g id="surface1">
<rect x="0" y="0" width="320" height="240" style="fill:rgb(0%,50.196081%,0%);fill-opacity:1;stroke:none;"/>
<path style=" stroke:none;fill-rule:nonzero;fill:rgb(100%,87.843138%,0%);fill-opacity:1;" d="M 193.351562 120 C 193.351562 101.582031 178.417969 86.648438 160 86.648438 C 141.582031 86.648438 126.648438 101.582031 126.648438 120 C 126.648438 138.417969 141.582031 153.351562 160 153.351562 C 178.417969 153.351562 193.351562 138.417969 193.351562 120 Z M 193.351562 120 "/>
<path style=" stroke:none;fill-rule:nonzero;fill:rgb(0%,50.196081%,0%);fill-opacity:1;" d="M 197.851562 120 C 197.851562 104.839844 185.558594 92.550781 170.398438 92.550781 C 155.238281 92.550781 142.949219 104.839844 142.949219 120 C 142.949219 135.160156 155.238281 147.449219 170.398438 147.449219 C 185.558594 147.449219 197.851562 135.160156 197.851562 120 Z M 197.851562 120 "/>
<path style=" stroke:none;fill-rule:nonzero;fill:rgb(100%,87.843138%,0%);fill-opacity:1;" d="M 89.800781 86.648438 C 89.800781 67.375 74.175781 51.75 54.898438 51.75 C 35.625 51.75 20 67.375 20 86.648438 C 20 105.925781 35.625 121.550781 54.898438 121.550781 C 74.175781 121.550781 89.800781 105.925781 89.800781 86.648438 Z M 89.800781 86.648438 "/>
<path style="fill-rule:nonzero;fill:rgb(50.196081%,12.54902%,0%);fill-opacity:1;stroke-width:1.5;stroke-linecap:butt;stroke-linejoin:miter;stroke:rgb(48.235294%,19.215687%,0%);stroke-opacity:1;stroke-miterlimit:4;" d="M 105 226 L 122.5 226 C 122.5 226 123.203125 224.398438 122.296875 223.601562 C 121.296875 222.796875 117.601562 222.601562 118.601562 219.796875 C 120.601562 214 121 215.796875 122.296875 202 C 123.25 190.1875 123.921875 178.351562 124.296875 166.5 L 121.703125 166.5 C 121.703125 166.5 122.203125 173.203125 120.703125 182 C 119.296875 190.796875 118.796875 191.5 117.203125 198.296875 C 116.445312 202.125 115.335938 205.875 113.898438 209.5 C 112.5 213.5 112.296875 213.601562 110.101562 217.296875 C 107.796875 220.898438 108.601562 219.5 107.398438 221.703125 C 106.703125 222.796875 106 222.5 105.5 223.296875 C 105 224.101562 105 226 105 226 Z M 105 226 " transform="matrix(0.5,0,0,0.5,0,0)"/>
<path style=" stroke:none;fill-rule:nonzero;fill:rgb(0%,50.196081%,0%);fill-opacity:1;" d="M 59.148438 61.25 C 59.265625 62.808594 59.058594 64.375 58.550781 65.851562 C 57.863281 67.398438 57.472656 69.058594 57.398438 70.75 C 56.5 71.050781 55.550781 68.800781 54.648438 70.148438 C 55.300781 72 56.851562 73.449219 57.851562 75.101562 C 58.050781 75.601562 59.550781 76.949219 58.648438 77.25 C 56.5 76.5 55.949219 73.75 54.648438 72.101562 C 53.101562 69.207031 50.171875 67.316406 46.898438 67.101562 C 45.648438 67.148438 41.699219 66.851562 42.699219 68.949219 C 44.199219 69.949219 46.101562 70.648438 47.601562 71.800781 C 48.75 71.898438 50.75 73.800781 50.648438 74.5 C 48.648438 73.699219 47.75 72.75 45.648438 71.898438 C 42.75 70.800781 38.800781 71.449219 37.148438 74.300781 C 36.898438 75.050781 36.449219 77.199219 37.398438 77.449219 C 38.5 75.75 40.050781 73.800781 42.351562 74.351562 C 44.148438 74.5 40.351562 77.699219 41.800781 77.050781 C 42.300781 76.851562 43.300781 76.148438 44.101562 76.050781 C 44.851562 76.050781 45.25 76.550781 45.800781 76.648438 C 46.949219 76.800781 47.300781 77.25 47.148438 77.550781 C 47 77.851562 46.648438 77.550781 45.5 77.949219 C 44.949219 78.148438 44.648438 78.648438 44 78.898438 C 43.351562 79.148438 41.898438 79.148438 41.398438 78.898438 C 39.550781 78.148438 36.550781 78.25 36 80.550781 C 36 81.550781 35.101562 80.449219 34.699219 80.898438 C 34.351562 82 34.300781 83.101562 32.699219 83 C 31.699219 84 30.699219 85.101562 29.398438 85.851562 C 30.148438 87.550781 33.050781 84.148438 32.898438 85.601562 C 31.648438 87.351562 33.601562 87.699219 34.398438 86.351562 C 35.851562 84.851562 37.648438 83 39.75 84.550781 C 40.75 85.5 41.351562 84.050781 42.101562 84.050781 C 42.601562 85.300781 43.148438 84.148438 43.699219 83.800781 C 44.550781 83.699219 44.300781 84.898438 45.300781 84.148438 C 47.351562 82.800781 49.851562 83.949219 51.851562 82.648438 C 54 81.648438 52.148438 83.398438 51.601562 84.101562 C 50.648438 85.898438 51.449219 88.300781 49.449219 89.398438 C 48.601562 91.550781 50.398438 94.398438 48.601562 96 C 48.351562 97 50.898438 96.898438 51.601562 97.300781 C 52.898438 97.300781 51.601562 94.398438 52.851562 94 C 54.550781 95 54.449219 92.101562 54.101562 91.199219 C 54.300781 89.199219 54.398438 86.898438 55.398438 85.050781 C 56.5 82.800781 57.5 86 56.300781 86.898438 C 55.601562 88.949219 54.601562 91.601562 56.148438 93.550781 C 56.648438 93.648438 57 94.75 57.550781 95.050781 C 58.148438 95.398438 58.949219 95 59.050781 94 C 59.851562 91 59.449219 87.800781 60.550781 84.851562 C 61.300781 83.949219 62.351562 84.699219 62.800781 85.550781 C 64.300781 87.300781 65.351562 89.449219 67.148438 90.898438 C 68.855469 91.597656 70.242188 92.894531 71.050781 94.550781 C 71.050781 95.851562 74.75 96.050781 73.648438 94.550781 C 72.601562 93.199219 73.300781 91.75 74.351562 90.800781 C 74.949219 90.949219 74.800781 89.898438 74.351562 90.300781 C 73.601562 90.148438 73.550781 88.800781 74.550781 89.449219 C 76.300781 90 74.449219 88.199219 73.800781 88.148438 C 72.351562 87.25 70.699219 86.25 70 84.648438 C 71.898438 84.648438 73.851562 85.699219 75.75 85.101562 C 77.300781 84.300781 78.851562 85.101562 79.398438 86.5 C 80.601562 86.300781 80.101562 85.101562 79.398438 84.699219 C 80.25 84.351562 80.898438 83.601562 79.800781 82.949219 C 79.300781 82.25 80.550781 80.949219 78.949219 81.050781 C 79 79.800781 78.550781 78.699219 77.199219 78.25 C 75.851562 77.148438 71.898438 79.949219 72.050781 77.398438 C 71.648438 76 73.648438 77.199219 74.199219 76.5 C 74.75 75 71.449219 75.199219 72.550781 74 C 73.25 73.601562 76.601562 72.949219 74 72.449219 C 72.8125 72.820312 71.515625 72.617188 70.5 71.898438 C 69.550781 73.449219 66.898438 71 67.351562 73.800781 C 67 74.851562 64.601562 77.601562 63.949219 75.5 C 64.449219 73.851562 67.351562 73.351562 66.449219 71.101562 C 66.300781 69.75 65.148438 71.351562 64.648438 71.25 C 64.351562 70.398438 65.449219 69.351562 66.25 69.148438 C 67.75 70.351562 67.75 67.648438 69.25 67.898438 C 70.300781 67.648438 68.898438 67.199219 68.601562 67 C 68.898438 66.25 70.550781 65.851562 68.949219 65.148438 C 67.5 64.148438 66.449219 66.199219 65.300781 66.300781 C 64.199219 65.050781 66.300781 64.449219 66.898438 63.800781 C 66.949219 63.300781 65.699219 63.648438 66.050781 63.199219 C 66.398438 62.648438 68.648438 62.601562 67.550781 61.699219 C 65.867188 61.199219 64.0625 61.304688 62.449219 62 C 61.449219 62.300781 61.199219 64.5 60.351562 64.398438 C 60 63.398438 60.5 61.5 59.148438 61.25 M 66.648438 82.398438 C 67.851562 82.199219 66.648438 84.25 66.148438 84.199219 C 66.148438 83.5 64.351562 83.550781 65.5 82.898438 C 65.851562 82.664062 66.238281 82.496094 66.648438 82.398438 "/>
<path style=" stroke:none;fill-rule:nonzero;fill:rgb(100%,87.843138%,0%);fill-opacity:1;" d="M 240.03125 161.921875 L 242.234375 168.773438 L 248.964844 166.222656 L 244.984375 172.21875 L 251.175781 175.894531 L 244 176.519531 L 244.984375 183.648438 L 240.03125 178.429688 L 235.070312 183.648438 L 236.058594 176.519531 L 228.886719 175.890625 L 235.078125 172.214844 L 231.09375 166.21875 L 237.824219 168.769531 Z M 240.03125 161.921875 "/>
<path style=" stroke:none;fill-rule:nonzero;fill:rgb(100%,87.843138%,0%);fill-opacity:1;" d="M 200.023438 98.578125 L 202.226562 105.429688 L 208.960938 102.882812 L 204.976562 108.878906 L 211.167969 112.550781 L 203.992188 113.175781 L 204.980469 120.308594 L 200.023438 115.089844 L 195.066406 120.304688 L 196.054688 113.175781 L 188.878906 112.546875 L 195.070312 108.875 L 191.085938 102.878906 L 197.820312 105.425781 Z M 200.023438 98.578125 "/>
<path style=" stroke:none;fill-rule:nonzero;fill:rgb(100%,87.843138%,0%);fill-opacity:1;" d="M 240.03125 55.238281 L 242.234375 62.089844 L 248.964844 59.542969 L 244.984375 65.539062 L 251.175781 69.214844 L 244 69.839844 L 244.984375 76.96875 L 240.03125 71.75 L 235.070312 76.964844 L 236.058594 69.839844 L 228.886719 69.210938 L 235.078125 65.535156 L 231.09375 59.539062 L 237.824219 62.089844 Z M 240.03125 55.238281 "/>
<path style=" stroke:none;fill-rule:nonzero;fill:rgb(100%,87.843138%,0%);fill-opacity:1;" d="M 275.589844 87.910156 L 277.792969 94.761719 L 284.523438 92.210938 L 280.542969 98.210938 L 286.734375 101.882812 L 279.558594 102.507812 L 280.546875 109.640625 L 275.589844 104.421875 L 270.628906 109.636719 L 271.617188 102.507812 L 264.445312 101.878906 L 270.636719 98.207031 L 266.652344 92.210938 L 273.382812 94.757812 Z M 275.589844 87.910156 "/>
<path style=" stroke:none;fill-rule:nonzero;fill:rgb(100%,87.843138%,0%);fill-opacity:1;" d="M 256.03125 120.011719 L 257.773438 124.28125 L 262.371094 124.617188 L 258.847656 127.59375 L 259.949219 132.070312 L 256.03125 129.640625 L 252.113281 132.074219 L 253.210938 127.597656 L 249.6875 124.621094 L 254.292969 124.285156 Z M 256.03125 120.011719 "/>
</g>
</svg>
