<?xml version="1.0" encoding="UTF-8"?>
<svg xmlns="http://www.w3.org/2000/svg" xmlns:xlink="http://www.w3.org/1999/xlink" width="px" height="px" viewBox="0 0 320 240" version="1.1">
<g id="surface1">
<rect x="0" y="0" width="320" height="240" style="fill:rgb(0%,0%,40.000001%);fill-opacity:1;stroke:none;"/>
<path style=" stroke:none;fill-rule:evenodd;fill:rgb(100%,100%,100%);fill-opacity:1;" d="M 235.800781 106.5 L 238.398438 98.148438 L 231.398438 92.851562 L 240.199219 92.75 L 243.199219 84.5 L 246 92.75 L 254.851562 93 L 247.800781 98.25 L 250.300781 106.601562 L 243.050781 101.601562 M 256.601562 108.101562 L 261.800781 101.148438 L 256.949219 93.75 L 265.300781 96.648438 L 270.800781 89.898438 L 270.800781 98.699219 L 279 101.898438 L 270.601562 104.398438 L 270.199219 113.148438 L 265.101562 105.949219 M 215.898438 113.449219 L 215.550781 104.699219 L 207.148438 102.101562 L 215.5 99 L 215.5 90.300781 L 220.949219 97.050781 L 229.351562 94.25 L 224.449219 101.601562 L 229.601562 108.601562 L 221.101562 106.351562 M 201.300781 126.800781 L 197.601562 118.898438 L 188.898438 119.800781 L 195.300781 113.648438 L 192 105.5 L 199.601562 109.601562 L 206.25 103.699219 L 204.550781 112.398438 L 212 116.851562 L 203.351562 118.101562 M 194.5 145.898438 L 187.851562 140.351562 L 180.351562 144.949219 L 183.550781 136.601562 L 177.101562 130.800781 L 185.75 131.148438 L 189.25 122.949219 L 191.398438 131.550781 L 200 132.300781 L 192.699219 137.199219 M 194.300781 167.398438 L 186.050781 165 L 181 172.25 L 180.648438 163.300781 L 172.449219 160.550781 L 180.5 157.449219 L 180.5 148.449219 L 185.851562 155.5 L 194.050781 152.699219 L 189.25 160.199219 M 204 185.601562 L 195.5 186.800781 L 193.75 195.5 L 189.851562 187.5 L 181.300781 188.300781 L 187.398438 182.148438 L 183.851562 173.949219 L 191.5 178.199219 L 197.898438 172.300781 L 196.5 181 M 219 200 L 211.449219 204.101562 L 212.75 212.898438 L 206.398438 206.699219 L 198.601562 210.5 L 202.25 202.550781 L 196.101562 196.101562 L 204.75 197.398438 L 208.75 189.648438 L 210.449219 198.351562 M 237.351562 202.851562 L 233.199219 210.5 L 239.050781 217.101562 L 230.351562 215.449219 L 225.898438 222.949219 L 224.699219 214.300781 L 216.101562 212.300781 L 224 208.601562 L 223.148438 199.851562 L 229.25 206.25 M 257.949219 199.699219 L 257.699219 208.398438 L 265.851562 211.601562 L 257.351562 214.101562 L 256.75 222.851562 L 251.75 215.699219 L 243.25 217.898438 L 248.648438 210.949219 L 243.949219 203.601562 L 252.25 206.449219 M 279.5 104.898438 L 285.5 111.199219 L 293.449219 107.5 L 289.300781 115.398438 L 295.050781 121.949219 L 286.550781 120.550781 L 282.050781 128.300781 L 281 119.5 L 272.5 117.75 L 280.351562 113.75 M 297.449219 124.25 L 300.199219 132.550781 L 308.949219 132.699219 L 301.851562 138.050781 L 304.199219 146.449219 L 297.148438 141.449219 L 289.851562 146.5 L 292.550781 138.101562 L 285.648438 132.800781 L 294.449219 132.601562 M 304.199219 149.199219 L 303.199219 157.898438 L 311.050781 161.75 L 302.398438 163.550781 L 301.050781 172.199219 L 296.699219 164.648438 L 288 166.101562 L 294 159.601562 L 289.949219 151.851562 L 297.949219 155.449219 M 299.449219 175.351562 L 295.550781 183.148438 L 301.5 189.5 L 292.800781 188.148438 L 288.601562 195.800781 L 287.101562 187.148438 L 278.398438 185.5 L 286.199219 181.5 L 285.050781 172.800781 L 291.351562 178.949219 M 286.449219 198.5 L 279.101562 203.101562 L 281 211.75 L 274.25 206 L 266.75 210.300781 L 269.898438 202.148438 L 263.351562 196.101562 L 272.050781 196.851562 L 275.550781 188.851562 L 277.75 197.449219 "/>
<path style=" stroke:none;fill-rule:nonzero;fill:rgb(0%,0%,40.000001%);fill-opacity:1;" d="M 0 0 L 160 0 L 160 120 L 0 120 Z M 0 0 "/>
<path style=" stroke:none;fill-rule:nonzero;fill:rgb(100%,100%,100%);fill-opacity:1;" d="M 18.75 0 L 79.75 45.25 L 140.5 0 L 160 0 L 160 15.5 L 100 60.25 L 160 104.75 L 160 120 L 140 120 L 80 75.25 L 20.25 120 L 0 120 L 0 105 L 59.75 60.5 L 0 16 L 0 0 Z M 18.75 0 "/>
<path style=" stroke:none;fill-rule:nonzero;fill:rgb(78.431374%,6.27451%,18.039216%);fill-opacity:1;" d="M 106 70.25 L 160 110 L 160 120 L 92.25 70.25 Z M 60 75.25 L 61.5 84 L 13.5 120 L 0 120 Z M 160 0 L 160 0.75 L 97.75 47.75 L 98.25 36.75 L 147.5 0 Z M 0 0 L 59.75 44 L 44.75 44 L 0 10.5 Z M 0 0 "/>
<path style=" stroke:none;fill-rule:nonzero;fill:rgb(100%,100%,100%);fill-opacity:1;" d="M 60.25 0 L 60.25 120 L 100.25 120 L 100.25 0 Z M 0 40 L 0 80 L 160 80 L 160 40 Z M 0 40 "/>
<path style=" stroke:none;fill-rule:nonzero;fill:rgb(78.431374%,6.27451%,18.039216%);fill-opacity:1;" d="M 0 48.25 L 0 72.25 L 160 72.25 L 160 48.25 Z M 68.25 0 L 68.25 120 L 92.25 120 L 92.25 0 Z M 68.25 0 "/>
</g>
</svg>
