<?xml version="1.0" encoding="UTF-8"?>
<svg xmlns="http://www.w3.org/2000/svg" xmlns:xlink="http://www.w3.org/1999/xlink" width="px" height="px" viewBox="0 0 320 240" version="1.1">
<g id="surface1">
<path style=" stroke:none;fill-rule:nonzero;fill:rgb(0%,47.843137%,36.862746%);fill-opacity:1;" d="M 0 0 L 106.648438 0 L 106.648438 240 L 0 240 Z M 0 0 "/>
<path style=" stroke:none;fill-rule:nonzero;fill:rgb(80.784315%,6.666667%,14.901961%);fill-opacity:1;" d="M 106.648438 0 L 213.351562 0 L 213.351562 240 L 106.648438 240 Z M 106.648438 0 "/>
<path style=" stroke:none;fill-rule:nonzero;fill:rgb(98.823529%,81.960785%,8.627451%);fill-opacity:1;" d="M 213.351562 0 L 320 0 L 320 240 L 213.351562 240 Z M 213.351562 0 "/>
<path style=" stroke:none;fill-rule:nonzero;fill:rgb(98.823529%,81.960785%,8.627451%);fill-opacity:1;" d="M 160 91.554688 L 151.109375 118.578125 L 164.621094 123.199219 Z M 160 91.554688 "/>
<path style=" stroke:none;fill-rule:nonzero;fill:rgb(98.823529%,81.960785%,8.627451%);fill-opacity:1;" d="M 160 91.554688 L 168.890625 118.578125 L 155.378906 123.199219 Z M 160 91.554688 "/>
<path style=" stroke:none;fill-rule:nonzero;fill:rgb(98.823529%,81.960785%,8.627451%);fill-opacity:1;" d="M 187.050781 111.210938 L 158.605469 111.105469 L 158.386719 125.386719 Z M 187.050781 111.210938 "/>
<path style=" stroke:none;fill-rule:nonzero;fill:rgb(98.823529%,81.960785%,8.627451%);fill-opacity:1;" d="M 187.050781 111.210938 L 164.097656 128.015625 L 155.527344 116.59375 Z M 187.050781 111.210938 "/>
<path style=" stroke:none;fill-rule:nonzero;fill:rgb(98.823529%,81.960785%,8.627451%);fill-opacity:1;" d="M 176.71875 143.011719 L 168.027344 115.925781 L 154.378906 120.128906 Z M 176.71875 143.011719 "/>
<path style=" stroke:none;fill-rule:nonzero;fill:rgb(98.823529%,81.960785%,8.627451%);fill-opacity:1;" d="M 176.71875 143.011719 L 153.644531 126.375 L 161.859375 114.695312 Z M 176.71875 143.011719 "/>
<path style=" stroke:none;fill-rule:nonzero;fill:rgb(98.823529%,81.960785%,8.627451%);fill-opacity:1;" d="M 143.28125 143.011719 L 166.355469 126.375 L 158.140625 114.695312 Z M 143.28125 143.011719 "/>
<path style=" stroke:none;fill-rule:nonzero;fill:rgb(98.823529%,81.960785%,8.627451%);fill-opacity:1;" d="M 143.28125 143.011719 L 151.972656 115.925781 L 165.621094 120.128906 Z M 143.28125 143.011719 "/>
<path style=" stroke:none;fill-rule:nonzero;fill:rgb(98.823529%,81.960785%,8.627451%);fill-opacity:1;" d="M 132.949219 111.210938 L 155.902344 128.015625 L 164.472656 116.59375 Z M 132.949219 111.210938 "/>
<path style=" stroke:none;fill-rule:nonzero;fill:rgb(98.823529%,81.960785%,8.627451%);fill-opacity:1;" d="M 132.949219 111.210938 L 161.394531 111.105469 L 161.613281 125.386719 Z M 132.949219 111.210938 "/>
</g>
</svg>
