<?xml version="1.0" encoding="UTF-8"?>
<svg xmlns="http://www.w3.org/2000/svg" xmlns:xlink="http://www.w3.org/1999/xlink" width="px" height="px" viewBox="0 0 320 240" version="1.1">
<g id="surface1">
<path style=" stroke:none;fill-rule:evenodd;fill:rgb(100%,100%,100%);fill-opacity:1;" d="M -0.148438 109.511719 L 397.660156 109.511719 L 397.660156 206.328125 L -0.195312 206.328125 Z M -0.148438 109.511719 "/>
<path style=" stroke:none;fill-rule:evenodd;fill:rgb(3.137255%,9.411765%,45.09804%);fill-opacity:1;" d="M 0.132812 0 L 397.753906 0 L 397.753906 120.601562 L 0.132812 120.601562 Z M 0.273438 181.371094 L 400.761719 181.371094 L 400.761719 240.640625 L 0.273438 240.640625 Z M 0.273438 181.371094 "/>
<path style=" stroke:none;fill-rule:evenodd;fill:rgb(87.058824%,22.352941%,16.078432%);fill-opacity:1;" d="M 0.273438 142.222656 L 397.894531 142.222656 L 397.894531 160.835938 L 0.273438 160.835938 Z M 0.273438 142.222656 "/>
<path style=" stroke:none;fill-rule:evenodd;fill:rgb(100%,80.784315%,3.137255%);fill-opacity:1;" d="M 119.421875 187.625 L 122.523438 197.210938 L 132.578125 197.210938 L 124.402344 203.179688 L 127.503906 212.816406 L 119.421875 206.800781 L 111.242188 212.769531 L 114.390625 203.132812 L 106.214844 197.164062 L 116.316406 197.164062 M 206.839844 117.6875 L 209.988281 127.324219 L 220 127.324219 L 211.820312 133.246094 L 214.925781 142.878906 L 206.746094 136.910156 L 198.566406 142.878906 L 201.671875 133.246094 L 193.492188 127.324219 L 203.644531 127.324219 M 99.304688 157.589844 L 102.40625 167.226562 L 112.511719 167.226562 L 104.378906 173.242188 L 107.527344 182.828125 L 99.351562 176.90625 L 91.171875 182.828125 L 94.273438 173.242188 L 86.097656 167.273438 L 96.203125 167.273438 M 206.839844 154.863281 L 209.988281 164.453125 L 220 164.453125 L 211.820312 170.421875 L 214.925781 180.011719 L 206.746094 174.089844 L 198.566406 180.058594 L 201.671875 170.421875 L 193.492188 164.453125 L 203.644531 164.453125 M 184.609375 88.453125 L 187.757812 98.042969 L 197.910156 98.042969 L 189.730469 104.011719 L 192.835938 113.644531 L 184.65625 107.675781 L 176.476562 113.644531 L 179.628906 104.011719 L 171.402344 98.042969 L 181.554688 98.042969 M 151.238281 76.796875 L 154.386719 86.433594 L 164.492188 86.433594 L 156.316406 92.355469 L 159.417969 101.988281 L 151.238281 96.066406 L 143.0625 101.988281 L 146.210938 92.355469 L 138.03125 86.433594 L 148.089844 86.433594 M 117.773438 87.796875 L 120.925781 97.429688 L 131.027344 97.429688 L 122.851562 103.351562 L 126 112.988281 L 117.773438 107.019531 L 109.597656 112.988281 L 112.746094 103.351562 L 104.566406 97.429688 L 114.71875 97.429688 M 98.363281 117.734375 L 101.464844 127.371094 L 111.617188 127.371094 L 103.394531 133.292969 L 106.542969 142.925781 L 98.363281 136.957031 L 90.1875 142.925781 L 93.289062 133.292969 L 85.109375 127.371094 L 95.214844 127.371094 M 151.238281 197.589844 L 154.386719 207.222656 L 164.492188 207.222656 L 156.316406 213.144531 L 159.464844 222.78125 L 151.238281 216.8125 L 143.0625 222.78125 L 146.210938 213.144531 L 138.03125 207.222656 L 148.089844 207.222656 M 186.722656 187.625 L 189.824219 197.210938 L 199.929688 197.210938 L 191.800781 203.179688 L 194.949219 212.816406 L 186.769531 206.847656 L 178.546875 212.816406 L 181.695312 203.179688 L 173.515625 197.210938 L 183.621094 197.210938 "/>
</g>
</svg>
