<?xml version="1.0" encoding="UTF-8"?>
<svg xmlns="http://www.w3.org/2000/svg" xmlns:xlink="http://www.w3.org/1999/xlink" width="px" height="px" viewBox="0 0 320 240" version="1.1">
<g id="surface1">
<rect x="0" y="0" width="320" height="240" style="fill:rgb(100%,100%,100%);fill-opacity:1;stroke:none;"/>
<path style=" stroke:none;fill-rule:nonzero;fill:rgb(26.274511%,31.764707%,14.509805%);fill-opacity:1;" d="M 153.898438 199.300781 L 153.800781 199.199219 L 153.75 199.199219 L 153.101562 198.5 L 151.199219 196.25 L 148.75 193.101562 L 148.449219 192.648438 L 145.351562 191.699219 L 143.050781 190.648438 L 144.25 189.300781 L 148.449219 191.050781 L 151.550781 191.699219 L 157.300781 195.949219 L 155.648438 197.398438 L 154 199.148438 L 154.351562 198.898438 L 154.75 199.199219 Z M 132.601562 192.898438 C 129.78125 192.867188 127.023438 192.089844 124.601562 190.648438 C 124.601562 190.648438 124.949219 190 125.75 189.449219 C 126.550781 188.851562 127.949219 188.199219 130.25 188.148438 C 132.984375 188.148438 136.234375 189.050781 140 190.851562 C 137.757812 192.167969 135.203125 192.859375 132.601562 192.851562 Z M 120.851562 190.300781 C 120.316406 190.300781 119.882812 190.132812 119.550781 189.800781 C 119.261719 189.457031 119.074219 189.042969 119 188.601562 C 118.871094 188.042969 118.820312 187.472656 118.851562 186.898438 L 119.5 186.800781 C 120.5 186.800781 121.300781 187.648438 121.648438 188.5 C 121.851562 189 121.882812 189.417969 121.75 189.75 C 121.617188 190.082031 121.316406 190.25 120.851562 190.25 Z M 141.5 187.898438 C 134.550781 186.898438 131.601562 184.398438 130.351562 182.449219 C 129.050781 180.398438 129.351562 178.449219 129.351562 178.449219 C 129.351562 178.449219 129.75 178.351562 130.351562 178.351562 C 132.25 178.351562 136.949219 179.300781 141.5 187.851562 Z M 127.25 186.5 C 124.285156 186.5 122.050781 186 120.550781 185 C 119.902344 184.601562 119.382812 184.03125 119.050781 183.351562 L 118.851562 182.550781 C 119.988281 182.070312 121.214844 181.832031 122.449219 181.851562 C 126.054688 181.980469 129.457031 183.546875 131.898438 186.199219 C 130.199219 186.398438 128.648438 186.5 127.25 186.5 M 112.898438 186 C 109.800781 186 105.5 185 102.800781 182.351562 C 102.800781 182.351562 105.75 181.601562 109 181.5 L 109.601562 181.5 C 112.566406 181.5 114.800781 182.066406 116.300781 183.199219 C 116.800781 183.601562 117.082031 183.964844 117.148438 184.300781 C 117.214844 184.632812 117.082031 184.917969 116.75 185.148438 C 116.050781 185.648438 114.851562 185.917969 113.148438 185.949219 L 112.898438 185.949219 Z M 102.75 180.75 C 102.363281 180.71875 102.007812 180.539062 101.75 180.25 C 101.546875 179.949219 101.410156 179.609375 101.351562 179.25 C 101.199219 178.550781 101.25 177.851562 101.25 177.800781 L 101.75 177.699219 C 102.214844 177.734375 102.550781 177.898438 102.75 178.199219 C 103.050781 178.480469 103.289062 178.820312 103.449219 179.199219 C 103.582031 179.632812 103.582031 180 103.449219 180.300781 C 103.449219 180.5 103.148438 180.800781 102.800781 180.800781 Z M 126.199219 180.25 C 125.667969 180.25 125.234375 180.082031 124.898438 179.75 C 124.613281 179.40625 124.421875 178.992188 124.351562 178.550781 C 124.21875 177.992188 124.167969 177.421875 124.199219 176.851562 L 124.851562 176.75 C 125.851562 176.75 126.699219 177.601562 127 178.449219 C 127.199219 178.949219 127.25 179.367188 127.148438 179.699219 C 126.984375 180.035156 126.648438 180.199219 126.148438 180.199219 Z M 114.800781 179.75 C 108.5 179.550781 105.199219 177.75 103.601562 176.25 C 102.90625 175.644531 102.328125 174.914062 101.898438 174.101562 C 101.667969 173.566406 101.550781 173.234375 101.550781 173.101562 C 101.617188 172.933594 102.117188 172.867188 103.050781 172.898438 L 103.25 172.898438 C 105.351562 172.898438 109.699219 173.800781 114.75 179.75 Z M 121.601562 179.148438 C 118.003906 178.75 114.660156 177.105469 112.148438 174.5 C 111.222656 173.496094 110.523438 172.300781 110.101562 171 C 110.101562 171 110.699219 170.851562 111.601562 170.800781 L 112.101562 170.800781 C 114.601562 170.851562 119.25 172 121.601562 179.148438 M 95.601562 176.648438 C 94.003906 176.664062 92.410156 176.496094 90.851562 176.148438 C 88.199219 175.449219 87.050781 174.449219 86.550781 173.699219 C 86.34375 173.398438 86.210938 173.058594 86.148438 172.699219 L 86.148438 172.300781 C 86.148438 172.300781 87.898438 171.800781 90.351562 171.75 C 91.589844 171.71875 92.832031 171.820312 94.050781 172.050781 C 96.59375 172.601562 98.863281 174.035156 100.449219 176.101562 C 100.449219 176.101562 98.449219 176.699219 95.601562 176.699219 Z M 107.351562 172.449219 C 106.878906 172.488281 106.414062 172.304688 106.101562 171.949219 C 105.8125 171.605469 105.621094 171.191406 105.550781 170.75 C 105.351562 169.949219 105.398438 169.148438 105.398438 169.050781 L 106 168.898438 L 106.050781 168.898438 C 107.050781 168.898438 107.851562 169.800781 108.199219 170.648438 C 108.398438 171.148438 108.433594 171.550781 108.300781 171.851562 C 108.132812 172.183594 107.816406 172.367188 107.351562 172.398438 Z M 98.550781 171.199219 C 96.863281 170.71875 95.25 170.011719 93.75 169.101562 C 91.550781 167.75 88.800781 165.351562 88.5 161.601562 L 89 161.550781 L 89.148438 161.550781 C 89.800781 161.550781 91.148438 161.699219 92.800781 162.949219 C 94.898438 164.582031 96.816406 167.332031 98.550781 171.199219 M 104.300781 171 C 102.921875 170.375 101.640625 169.546875 100.5 168.550781 C 97.582031 166.019531 95.300781 162.832031 93.851562 159.25 C 93.851562 159.25 94.300781 159 95 158.949219 L 95.300781 158.949219 C 96.300781 158.949219 97.75 159.398438 99.351562 161.148438 C 101.25 163.148438 102.917969 166.433594 104.351562 171 Z M 89.351562 170.550781 C 87.398438 170.550781 86.75 169.550781 86.550781 169.050781 C 86.355469 168.574219 86.289062 168.058594 86.351562 167.550781 L 87.351562 167.449219 C 88.609375 167.410156 89.8125 167.964844 90.601562 168.949219 C 90.699219 169.148438 91 169.648438 90.75 170.101562 C 90.550781 170.433594 90.082031 170.601562 89.351562 170.601562 Z M 85.101562 165.148438 C 83.59375 165.167969 82.085938 165.050781 80.601562 164.800781 C 78.898438 164.5 77.949219 163.050781 77.398438 161.851562 C 76.898438 160.601562 76.699219 159.351562 76.699219 159.351562 C 82 159.5 84.550781 161.050781 85.699219 162.351562 C 86.4375 163.089844 86.898438 164.058594 87 165.101562 C 87 165.101562 86.199219 165.199219 85.101562 165.199219 Z M 90.601562 159.648438 L 89.398438 157.949219 C 88.75 156.949219 88.199219 155.949219 88.199219 155.148438 C 88.199219 154.300781 88 152.648438 87.898438 151.648438 L 87.601562 149.398438 C 87.75 149.398438 90.898438 150.601562 90.898438 153.601562 C 90.898438 156.601562 90.601562 159.601562 90.601562 159.601562 Z M 86.5 159.351562 L 86.398438 159.351562 C 82.972656 158.316406 79.847656 156.464844 77.300781 153.949219 C 76.433594 152.949219 75.917969 151.382812 75.75 149.25 C 75.648438 147.75 75.75 146.5 75.75 146.351562 L 76.300781 146.300781 C 76.964844 146.300781 77.800781 146.632812 78.800781 147.300781 C 79.726562 147.957031 80.597656 148.695312 81.398438 149.5 C 83 151.101562 84.25 152.699219 84.25 152.699219 C 84.398438 152.898438 85.25 154.550781 86 156.148438 C 86.351562 156.882812 86.621094 157.65625 86.800781 158.449219 C 86.867188 158.75 86.867188 158.984375 86.800781 159.148438 L 86.648438 159.351562 L 86.449219 159.351562 Z M 86.5 159.351562 "/>
<path style=" stroke:none;fill-rule:nonzero;fill:rgb(26.274511%,31.764707%,14.509805%);fill-opacity:1;" d="M 142.949219 199.300781 L 143.050781 199.199219 L 143.101562 199.199219 L 143.75 198.5 L 145.648438 196.25 L 148.101562 193.101562 L 148.398438 192.648438 L 151.5 191.699219 L 153.800781 190.648438 L 152.601562 189.300781 L 148.398438 191.050781 L 145.300781 191.699219 L 139.550781 195.949219 L 141.199219 197.398438 L 142.851562 199.148438 L 142.5 198.898438 L 142.101562 199.199219 Z M 164.25 192.898438 C 167.066406 192.867188 169.828125 192.089844 172.25 190.648438 C 172.25 190.648438 171.898438 190 171.101562 189.449219 C 170.300781 188.851562 168.898438 188.199219 166.601562 188.148438 C 163.867188 188.148438 160.617188 189.050781 156.851562 190.851562 C 159.09375 192.167969 161.648438 192.859375 164.25 192.851562 Z M 176 190.300781 C 176.535156 190.300781 176.964844 190.132812 177.300781 189.800781 C 177.585938 189.457031 177.777344 189.042969 177.851562 188.601562 C 177.980469 188.042969 178.03125 187.472656 178 186.898438 L 177.351562 186.800781 C 176.351562 186.800781 175.550781 187.648438 175.199219 188.5 C 175 189 174.964844 189.417969 175.101562 189.75 C 175.234375 190.082031 175.535156 190.25 176 190.25 Z M 155.351562 187.898438 C 162.300781 186.898438 165.25 184.398438 166.5 182.449219 C 167.800781 180.398438 167.5 178.449219 167.5 178.449219 C 167.5 178.449219 167.101562 178.351562 166.5 178.351562 C 164.601562 178.351562 159.898438 179.300781 155.351562 187.851562 Z M 169.601562 186.5 C 172.566406 186.5 174.800781 186 176.300781 185 C 176.945312 184.601562 177.464844 184.03125 177.800781 183.351562 L 178 182.550781 C 176.859375 182.070312 175.636719 181.832031 174.398438 181.851562 C 170.796875 181.980469 167.390625 183.546875 164.949219 186.199219 C 166.648438 186.398438 168.199219 186.5 169.601562 186.5 M 183.949219 186 C 187.050781 186 191.351562 185 194.050781 182.351562 C 194.050781 182.351562 191.101562 181.601562 187.851562 181.5 L 187.25 181.5 C 184.285156 181.5 182.050781 182.066406 180.550781 183.199219 C 180.050781 183.601562 179.765625 183.964844 179.699219 184.300781 C 179.632812 184.632812 179.765625 184.917969 180.101562 185.148438 C 180.800781 185.648438 182 185.917969 183.699219 185.949219 L 183.949219 185.949219 Z M 194.101562 180.75 C 194.484375 180.71875 194.84375 180.539062 195.101562 180.25 C 195.304688 179.949219 195.441406 179.609375 195.5 179.25 C 195.648438 178.550781 195.601562 177.851562 195.601562 177.800781 L 195.101562 177.699219 C 194.632812 177.734375 194.300781 177.898438 194.101562 178.199219 C 193.800781 178.480469 193.5625 178.820312 193.398438 179.199219 C 193.265625 179.632812 193.265625 180 193.398438 180.300781 C 193.398438 180.5 193.699219 180.800781 194.050781 180.800781 Z M 170.648438 180.25 C 171.183594 180.25 171.617188 180.082031 171.949219 179.75 C 172.238281 179.40625 172.425781 178.992188 172.5 178.550781 C 172.628906 177.992188 172.679688 177.421875 172.648438 176.851562 L 172 176.75 C 171 176.75 170.148438 177.601562 169.851562 178.449219 C 169.648438 178.949219 169.601562 179.367188 169.699219 179.699219 C 169.867188 180.035156 170.199219 180.199219 170.699219 180.199219 Z M 182.050781 179.75 C 188.351562 179.550781 191.648438 177.75 193.25 176.25 C 193.945312 175.644531 194.519531 174.914062 194.949219 174.101562 C 195.183594 173.566406 195.300781 173.234375 195.300781 173.101562 C 195.234375 172.933594 194.734375 172.867188 193.800781 172.898438 L 193.601562 172.898438 C 191.5 172.898438 187.148438 173.800781 182.101562 179.75 Z M 175.25 179.148438 C 178.847656 178.75 182.1875 177.105469 184.699219 174.5 C 185.628906 173.496094 186.328125 172.300781 186.75 171 C 186.75 171 186.148438 170.851562 185.25 170.800781 L 184.75 170.800781 C 182.25 170.851562 177.601562 172 175.25 179.148438 M 201.25 176.648438 C 202.847656 176.664062 204.441406 176.496094 206 176.148438 C 208.648438 175.449219 209.800781 174.449219 210.300781 173.699219 C 210.503906 173.398438 210.640625 173.058594 210.699219 172.699219 L 210.699219 172.300781 C 210.699219 172.300781 208.949219 171.800781 206.5 171.75 C 205.257812 171.71875 204.019531 171.820312 202.800781 172.050781 C 200.253906 172.601562 197.988281 174.035156 196.398438 176.101562 C 196.398438 176.101562 198.398438 176.699219 201.25 176.699219 Z M 189.5 172.449219 C 189.972656 172.488281 190.4375 172.304688 190.75 171.949219 C 191.039062 171.605469 191.226562 171.191406 191.300781 170.75 C 191.5 169.949219 191.449219 169.148438 191.449219 169.050781 L 190.851562 168.898438 L 190.800781 168.898438 C 189.800781 168.898438 189 169.800781 188.648438 170.648438 C 188.449219 171.148438 188.417969 171.550781 188.550781 171.851562 C 188.714844 172.183594 189.035156 172.367188 189.5 172.398438 Z M 198.300781 171.199219 C 199.988281 170.71875 201.601562 170.011719 203.101562 169.101562 C 205.300781 167.75 208.050781 165.351562 208.351562 161.601562 L 207.851562 161.550781 L 207.699219 161.550781 C 207.050781 161.550781 205.699219 161.699219 204.050781 162.949219 C 201.949219 164.582031 200.035156 167.332031 198.300781 171.199219 M 192.550781 171 C 193.929688 170.375 195.210938 169.546875 196.351562 168.550781 C 199.269531 166.019531 201.546875 162.832031 203 159.25 C 203 159.25 202.550781 159 201.851562 158.949219 L 201.550781 158.949219 C 200.550781 158.949219 199.101562 159.398438 197.5 161.148438 C 195.601562 163.148438 193.933594 166.433594 192.5 171 Z M 207.5 170.550781 C 209.449219 170.550781 210.101562 169.550781 210.300781 169.050781 C 210.492188 168.574219 210.5625 168.058594 210.5 167.550781 L 209.5 167.449219 C 208.242188 167.410156 207.035156 167.964844 206.25 168.949219 C 206.148438 169.148438 205.851562 169.648438 206.101562 170.101562 C 206.300781 170.433594 206.765625 170.601562 207.5 170.601562 Z M 211.75 165.148438 C 213.257812 165.167969 214.761719 165.050781 216.25 164.800781 C 217.949219 164.5 218.898438 163.050781 219.449219 161.851562 C 219.949219 160.601562 220.148438 159.351562 220.148438 159.351562 C 214.851562 159.5 212.300781 161.050781 211.148438 162.351562 C 210.410156 163.089844 209.949219 164.058594 209.851562 165.101562 C 209.851562 165.101562 210.648438 165.199219 211.75 165.199219 Z M 206.25 159.648438 L 207.449219 157.949219 C 208.101562 156.949219 208.648438 155.949219 208.648438 155.148438 C 208.648438 154.300781 208.851562 152.648438 208.949219 151.648438 L 209.25 149.398438 C 209.101562 149.398438 205.949219 150.601562 205.949219 153.601562 C 205.949219 156.601562 206.25 159.601562 206.25 159.601562 Z M 210.351562 159.351562 L 210.449219 159.351562 C 213.878906 158.316406 217 156.464844 219.550781 153.949219 C 220.417969 152.949219 220.933594 151.382812 221.101562 149.25 C 221.199219 147.75 221.101562 146.5 221.101562 146.351562 L 220.550781 146.300781 C 219.882812 146.300781 219.050781 146.632812 218.050781 147.300781 C 217.121094 147.957031 216.253906 148.695312 215.449219 149.5 C 213.851562 151.101562 212.601562 152.699219 212.601562 152.699219 C 212.449219 152.898438 211.601562 154.550781 210.851562 156.148438 C 210.5 156.882812 210.230469 157.65625 210.050781 158.449219 C 209.984375 158.75 209.984375 158.984375 210.050781 159.148438 L 210.199219 159.351562 L 210.398438 159.351562 Z M 210.351562 159.351562 "/>
<path style=" stroke:none;fill-rule:nonzero;fill:rgb(83.137256%,46.27451%,0%);fill-opacity:1;" d="M 259.5 38.199219 L 258.601562 38.550781 L 258.199219 38.699219 L 257.101562 38.648438 L 256 39.148438 L 254.101562 40.449219 L 254.050781 40.5 L 253.300781 40.699219 L 252.648438 40.398438 L 252.300781 40.601562 L 252.148438 41.351562 L 251.800781 41.898438 L 251.351562 42.199219 L 249.851562 42.351562 L 248.601562 43.050781 L 246.898438 42.550781 L 246.148438 42.898438 L 244.5 44.398438 L 243.648438 44.75 L 243.398438 44.75 L 242.25 44.699219 L 241.800781 44.851562 L 241.101562 45.5 L 239.800781 45.601562 L 239.351562 45.898438 L 238.699219 47.199219 L 238 48 L 237.601562 48.050781 L 237.199219 47.898438 L 236.851562 47.949219 L 236.699219 48.800781 L 236.398438 49.148438 L 235.5 49.449219 L 234.800781 50.050781 L 234.148438 50.351562 L 233.148438 50.351562 L 232.300781 50.851562 L 230.75 50.949219 L 230.101562 51.550781 L 229.949219 51.699219 L 229.648438 51.851562 L 229.148438 52.148438 L 229.050781 52.25 L 228.449219 52.148438 L 227.75 52.398438 L 227.449219 52 L 226.949219 52.25 L 226.351562 52.300781 L 225.550781 51.949219 L 224.898438 51.648438 L 224.449219 51.75 L 224.300781 52.5 L 224.300781 52.601562 L 223.800781 53.199219 L 222.949219 53.75 L 222.851562 53.898438 L 221.851562 55.199219 L 219.949219 57.199219 L 218.351562 58 L 216.699219 58.5 L 215.550781 59.449219 L 212.550781 60.949219 L 207.699219 63.351562 L 206.699219 63.648438 L 205.300781 63.851562 L 202.800781 64.800781 L 200.601562 65.449219 L 200.449219 65.5 L 200.050781 65.648438 L 196.898438 66.601562 L 195.449219 66.398438 L 194.601562 66.75 L 192.351562 66.5 L 190.800781 66.5 L 189.800781 66.699219 L 187.949219 67.601562 L 184.800781 69.101562 L 183.800781 70.101562 L 182.199219 70.898438 L 180.300781 71.5 L 180.300781 70.699219 L 179.648438 70.898438 L 179.148438 71.050781 L 177.648438 71.25 L 176.800781 71.25 L 176.25 71.101562 L 176.148438 71.101562 L 173.050781 72.148438 L 169.550781 72.5 L 167.800781 73.050781 L 166.5 73.050781 L 165.699219 73.300781 L 164.101562 73.5 L 163.5 73.351562 L 163.398438 73.300781 L 158.699219 73.5 L 156.550781 73.25 L 155.550781 73.5 L 153.800781 72.898438 L 151.300781 72.601562 L 150.699219 72.449219 L 149.398438 72.050781 L 148.800781 72.398438 L 148.300781 72.449219 L 147.300781 72.050781 L 146.898438 72.050781 L 146 72.351562 L 145.5 72.25 L 145 71.851562 L 143.949219 71.699219 L 143.25 71.148438 L 139.5 71.648438 L 138.5 71.351562 L 135.050781 70.351562 L 134.550781 70.351562 L 133.851562 70.851562 L 132.851562 71.25 L 131.898438 71.449219 L 130.699219 71.5 L 129.300781 71.148438 L 127.898438 70.449219 L 127.351562 70.300781 L 126.148438 70.449219 L 125.800781 70.449219 L 123.601562 69.300781 L 120.800781 67.550781 L 118.898438 66.601562 L 118.148438 66.5 L 118.050781 66.851562 L 118.398438 67.949219 L 118.550781 69.101562 L 118.550781 70.101562 L 118.5 70.75 L 118.648438 71.300781 L 119.351562 72.101562 L 119.648438 72.851562 L 119.851562 74.949219 L 119.851562 77.101562 L 119.5 80.5 L 119.398438 81 L 119 82.800781 L 118.648438 84.449219 L 117.199219 88.800781 L 116.851562 89.300781 L 115.851562 89.949219 L 113.699219 91.449219 L 112.101562 92.351562 L 111.601562 92.550781 L 110.300781 92.648438 L 109.5 92.648438 L 108.5 92.101562 L 107.5 91.851562 L 106.199219 90.898438 L 104.800781 90.601562 L 103.199219 89.699219 L 102.800781 89.199219 L 101.949219 89.101562 L 100.75 88.75 L 100.300781 88.601562 L 100 88.550781 L 98.5 88.5 L 97.050781 87.851562 L 96.300781 87.648438 L 95.300781 87.648438 L 94.25 88.148438 L 93.699219 88.351562 L 93 88.101562 L 92.5 88.101562 L 92 88.949219 L 91.898438 89.101562 L 91.5 89.300781 L 90.648438 89.300781 L 90.25 89.449219 L 89.699219 89.699219 L 89.199219 89.898438 L 88.949219 90 L 88.800781 90 L 88.550781 90.101562 L 88.25 90.101562 L 87.648438 89.800781 L 87.351562 89.648438 L 86.851562 89.550781 L 86.601562 89.699219 L 86.550781 90.648438 L 86.300781 91.199219 L 85.5 91.898438 L 84.699219 92.601562 L 84.199219 93.398438 L 82.699219 96.75 L 81.75 98.101562 L 81.5 98.449219 L 80.5 99.5 L 79.648438 100.148438 L 77.699219 101.648438 L 75.851562 102.398438 L 74.25 102.699219 L 73.449219 102.699219 L 71.949219 102.5 L 70.648438 102.101562 L 69.148438 101.199219 L 67.601562 99.898438 L 65.25 97.648438 L 64.949219 97.449219 L 64.851562 97.398438 L 64.148438 96.898438 L 63.601562 96.898438 L 63.398438 97.300781 L 63.25 97.800781 L 63.148438 98.25 L 62.898438 100.75 L 62.898438 100.898438 L 63.050781 101.949219 L 64.851562 104.449219 L 65.351562 105.75 L 65.449219 105.898438 L 65.800781 106.5 L 66.101562 107 L 66.75 108.800781 L 66.300781 109.800781 L 66.5 110.5 L 66 110.898438 L 65.898438 111.5 L 67.449219 113.5 L 67.800781 114.351562 L 67.449219 115.550781 L 66.800781 116.25 L 66.648438 116.398438 L 66.75 116.898438 L 67.449219 117.601562 L 68.699219 118.699219 L 69.351562 120.300781 L 69.851562 120.800781 L 70.449219 120.648438 L 70.75 120.898438 L 71.25 120.898438 L 71.75 121.398438 L 72.050781 121.5 L 72.550781 121.75 L 72.949219 122.25 L 73 123.851562 L 73.75 125.75 L 73.75 127 L 74.25 127.75 L 74.351562 128.351562 L 74.101562 130 L 74.699219 130.5 L 75.300781 130.398438 L 75.699219 130.449219 L 76.351562 131 L 77.148438 132.199219 L 77.949219 132.101562 L 78.449219 132.300781 L 80.800781 134.449219 L 81.300781 134.75 L 81.75 134.949219 L 82.25 135.449219 L 82.949219 134.949219 L 83.050781 134.949219 L 83.851562 134.851562 L 84.199219 135.101562 L 84.898438 135.550781 L 85.75 135.550781 L 87.75 136.148438 L 88.550781 136.351562 L 90.25 137.398438 L 91 137.851562 L 91.398438 138.199219 L 92 138.699219 L 93.101562 139.199219 L 94.101562 139.398438 L 94.601562 139.5 L 95.050781 139.648438 L 97.148438 140.5 L 98.300781 140.75 L 99.300781 141.148438 L 100.101562 141.398438 L 100.699219 141.398438 L 101.5 140.75 L 102.25 140.75 L 102.898438 140.851562 L 103.550781 140.75 L 104.550781 140.148438 L 104.699219 139.851562 L 105.398438 139.550781 L 107.800781 139.25 L 108.5 139.449219 L 110.300781 138.699219 L 111.5 139 L 112.5 138.648438 L 114.851562 139.148438 L 115.449219 139.601562 L 116.148438 140.351562 L 117 140.351562 L 116.648438 140.898438 L 117.648438 142 L 118.601562 143.351562 L 118.648438 143.550781 L 119.300781 145.5 L 119.800781 146.199219 L 120.148438 147.148438 L 120.148438 147.75 L 119.648438 148.199219 L 119.550781 148.398438 L 119.550781 148.5 L 119.648438 148.75 L 119.851562 148.648438 L 120.199219 148.449219 L 120.699219 148.351562 L 121.5 148.449219 L 122.050781 148.5 L 122.898438 148.101562 L 123.5 147.800781 L 124.398438 148.199219 L 125.398438 148.199219 L 125.851562 148.351562 L 127.050781 148.898438 L 127.648438 148.949219 L 127.851562 148.800781 L 128 148.5 L 127.949219 148.101562 L 127.449219 147.550781 L 126.449219 146.351562 L 126.050781 145.75 L 125.75 144.898438 L 125.648438 143.800781 L 125.550781 143.050781 L 125.699219 142.050781 L 125.949219 141.699219 L 126.148438 140.898438 L 126.199219 140.699219 L 126.800781 139.949219 L 128.300781 138.949219 L 129.898438 137.550781 L 131.148438 136.699219 L 132.449219 136.148438 L 132.449219 136 L 132.648438 136.050781 L 135.949219 134.898438 L 137.449219 134.648438 L 147.449219 135.351562 L 147.800781 135.25 L 148.148438 134.300781 L 148.300781 134.148438 L 148.449219 134.050781 L 149.550781 133.550781 L 150.050781 133.449219 L 151.449219 133.800781 L 152.050781 133.949219 L 153 133.449219 L 153.648438 133.449219 L 155 132.699219 L 155.851562 132.699219 L 156.199219 132.601562 L 157.851562 131.398438 L 159.398438 130.949219 L 159.800781 130.75 L 159.949219 130.648438 L 161.601562 129.800781 L 162.601562 129 L 163.5 128.5 L 164.5 128.300781 L 167 128.101562 L 167.550781 127.25 L 168.648438 127.101562 L 169.300781 126.351562 L 170.050781 126.050781 L 170.601562 125.25 L 171.101562 124.601562 L 171.699219 124.25 L 173.75 124.101562 L 176.148438 124.398438 L 176.5 124.199219 L 177 122.25 L 177.601562 121.898438 L 179.101562 119.648438 L 179.101562 118.851562 L 179.148438 118.148438 L 179.398438 117.148438 L 179.25 115.449219 L 179.449219 113.648438 L 180.398438 111.398438 L 181.25 110.5 L 182.601562 109.550781 L 183.300781 109.25 L 184.300781 109.101562 L 184.398438 109.101562 L 184.648438 109 L 189.25 109 L 190.398438 108.949219 L 193.25 109.449219 L 193.449219 109.449219 L 194.398438 109.800781 L 195.5 110.648438 L 196.699219 111.800781 L 196.898438 112 L 197.648438 112.351562 L 197.898438 112.449219 L 198.5 112.351562 L 199.398438 111.851562 L 200.101562 111.351562 L 201 110.851562 L 201 110.75 L 201.550781 110 L 201.75 109.648438 L 203.550781 108.949219 L 205.648438 108.851562 L 205.898438 108.699219 L 206 108.699219 L 206.550781 108 L 207.050781 108 L 208.351562 108.5 L 209.199219 108.300781 L 209.898438 108.550781 L 210.449219 108.5 L 211.449219 108.351562 L 212.601562 109.148438 L 213.25 109.25 L 215.5 110.550781 L 215.699219 110.550781 L 215.800781 110.601562 L 216.050781 110.5 L 216.449219 110.398438 L 216.5 110.398438 L 216.550781 110.449219 L 216.851562 110.800781 L 217.199219 110.851562 L 217.601562 110.351562 L 217.449219 110.050781 L 217.398438 109.949219 L 216.550781 109.800781 L 215.851562 108.550781 L 216.550781 107.800781 L 215.449219 106.5 L 215.25 106.25 L 215.25 106.199219 L 214.851562 105.601562 L 212.949219 102.699219 L 210.449219 100.699219 L 209.601562 100.050781 L 209.300781 99.800781 L 207.949219 98.449219 L 207 97.199219 L 206.898438 96.949219 L 206.699219 96.5 L 206.148438 95.300781 L 205.148438 94.550781 L 204.351562 93.648438 L 202.648438 91.351562 L 202.398438 91 L 202 90.75 L 201.148438 90.75 L 201.101562 90.648438 L 201.050781 90.648438 L 201.050781 90.601562 L 201.449219 90.199219 L 201.949219 90.101562 L 202.101562 89.648438 L 201.25 87.199219 L 201.25 87.101562 L 201.199219 86.351562 L 201.851562 82.800781 L 201.949219 82.351562 L 203.148438 80 L 203.851562 79.398438 L 204.648438 77.851562 L 205.351562 76.851562 L 206 76.199219 L 206.101562 76.148438 L 207.25 75.449219 L 208.25 75.300781 L 209.199219 75.148438 L 210.851562 75.648438 L 212.351562 75.648438 L 212.699219 75.601562 L 213.398438 75.5 L 214.550781 75.148438 L 215.101562 74.800781 L 215.398438 74.398438 L 216 72.398438 L 216.199219 71.75 L 216.550781 71.050781 L 218.699219 68.601562 L 220.300781 67.101562 L 223.898438 64.5 L 225.648438 63.449219 L 226.550781 62.898438 L 234.601562 59.300781 L 236.699219 57.199219 L 237.800781 56.101562 L 239.699219 54.800781 L 241.949219 53.851562 L 243.949219 52.351562 L 244.351562 51.800781 L 244.851562 50.050781 L 245.351562 49.949219 L 245.699219 49.101562 L 245.851562 48.851562 L 247.398438 47.75 L 247.601562 47.648438 L 253.75 44.550781 L 254.648438 44.699219 L 255.148438 43.949219 L 256.898438 43.648438 L 257.25 43.648438 L 257.699219 43.398438 L 258.050781 42.75 L 258.050781 42.601562 L 258.101562 40.898438 L 258.5 40.449219 L 258.699219 39.351562 L 258.898438 39.050781 L 259.101562 38.800781 L 259.601562 38.449219 Z M 259.5 38.199219 "/>
</g>
</svg>
