<?xml version="1.0" encoding="UTF-8"?>
<svg xmlns="http://www.w3.org/2000/svg" xmlns:xlink="http://www.w3.org/1999/xlink" width="px" height="px" viewBox="0 0 320 240" version="1.1">
<g id="surface1">
<path style=" stroke:none;fill-rule:nonzero;fill:rgb(100%,100%,100%);fill-opacity:1;" d="M 160 0 L 320 0 L 320 240 L 160 240 Z M 160 0 "/>
<path style=" stroke:none;fill-rule:nonzero;fill:rgb(0%,38.431373%,20%);fill-opacity:1;" d="M 0 0 L 160 0 L 160 240 L 0 240 Z M 0 0 "/>
<path style=" stroke:none;fill-rule:nonzero;fill:rgb(82.352942%,6.27451%,20.392157%);fill-opacity:1;" d="M 212 90 C 198.421875 66.480469 170.742188 55.015625 144.507812 62.042969 C 118.277344 69.074219 100.039062 92.84375 100.039062 120 C 100.039062 147.15625 118.277344 170.925781 144.507812 177.957031 C 170.742188 184.984375 198.421875 173.519531 212 150 C 199.261719 165.910156 177.863281 172.042969 158.632812 165.292969 C 139.402344 158.539062 126.53125 140.382812 126.53125 120 C 126.53125 99.617188 139.402344 81.460938 158.632812 74.707031 C 177.863281 67.957031 199.261719 74.089844 212 90 M 214 120 L 160 102.398438 L 193.601562 148.398438 L 193.601562 91.601562 L 160 137.601562 Z M 214 120 "/>
</g>
</svg>
