<?xml version="1.0" encoding="UTF-8"?>
<svg xmlns="http://www.w3.org/2000/svg" xmlns:xlink="http://www.w3.org/1999/xlink" width="px" height="px" viewBox="0 0 320 240" version="1.1">
<g id="surface1">
<path style=" stroke:none;fill-rule:nonzero;fill:rgb(100%,100%,100%);fill-opacity:1;" d="M 0 163.199219 L 320 163.199219 L 320 174 L 0 174 Z M 0 163.199219 "/>
<path style=" stroke:none;fill-rule:nonzero;fill:rgb(100%,100%,100%);fill-opacity:1;" d="M 0 66 L 320 66 L 320 76.800781 L 0 76.800781 Z M 0 66 "/>
<path style=" stroke:none;fill-rule:nonzero;fill:rgb(0%,52.941179%,100%);fill-opacity:1;" d="M 0 174 L 320 174 L 320 240 L 0 240 Z M 0 174 "/>
<path style=" stroke:none;fill-rule:nonzero;fill:rgb(0%,52.941179%,100%);fill-opacity:1;" d="M 0 0 L 320 0 L 320 66 L 0 66 Z M 0 0 "/>
<path style=" stroke:none;fill-rule:nonzero;fill:rgb(100%,0%,0%);fill-opacity:1;" d="M 0 145.199219 L 320 145.199219 L 320 163.199219 L 0 163.199219 Z M 0 145.199219 "/>
<path style=" stroke:none;fill-rule:nonzero;fill:rgb(0%,0%,0.392157%);fill-opacity:1;" d="M 0 76.800781 L 320 76.800781 L 320 94.800781 L 0 94.800781 Z M 0 76.800781 "/>
<path style=" stroke:none;fill-rule:nonzero;fill:rgb(100%,100%,0%);fill-opacity:1;" d="M 0 103.199219 L 320 103.199219 L 320 136.800781 L 0 136.800781 Z M 0 103.199219 "/>
<path style=" stroke:none;fill-rule:nonzero;fill:rgb(0%,51.372552%,0%);fill-opacity:1;" d="M 0 136.800781 L 320 136.800781 L 320 145.199219 L 0 145.199219 Z M 0 136.800781 "/>
<path style=" stroke:none;fill-rule:nonzero;fill:rgb(0%,51.372552%,0%);fill-opacity:1;" d="M 0 94.800781 L 320 94.800781 L 320 103.199219 L 0 103.199219 Z M 0 94.800781 "/>
<path style="fill-rule:nonzero;fill:rgb(100%,100%,100%);fill-opacity:1;stroke-width:2;stroke-linecap:butt;stroke-linejoin:miter;stroke:rgb(0%,0%,0%);stroke-opacity:1;stroke-miterlimit:4;" d="M 319.598769 -589.500723 C 287.336501 -589.447012 258.261071 -570.012666 245.871787 -540.230044 C 233.482503 -510.438471 240.196349 -476.11729 262.898101 -453.200696 L 228.702245 -442.19894 L 231.799566 -434.401927 L 220.79781 -432.002846 L 228.800715 -406.400712 L 410.396823 -406.400712 L 418.301258 -432.002846 L 407.299502 -434.401927 L 410.396823 -442.29741 L 376.200967 -453.200696 C 398.893767 -476.108338 405.616565 -510.402664 393.245185 -540.185285 C 380.882756 -569.958955 351.843134 -589.402253 319.598769 -589.500723 Z M 319.598769 -589.500723 " transform="matrix(0.436365,0,0,0.436365,20.549999,337.299988)"/>
<path style=" stroke:none;fill-rule:nonzero;fill:rgb(0%,51.372552%,0%);fill-opacity:1;" d="M 121.132812 148.964844 L 124.1875 158.828125 L 195.835938 158.828125 L 198.847656 148.964844 Z M 121.132812 148.964844 "/>
<path style=" stroke:none;fill-rule:nonzero;fill:rgb(100%,100%,100%);fill-opacity:1;" d="M 123.050781 150.230469 L 125.277344 157.5625 L 194.703125 157.5625 L 196.929688 150.230469 Z M 123.050781 150.230469 "/>
<path style=" stroke:none;fill-rule:nonzero;fill:rgb(0%,0%,0%);fill-opacity:1;" d="M 127.945312 154.546875 C 127.945312 154.707031 127.929688 154.863281 127.894531 155.011719 C 127.863281 155.152344 127.804688 155.273438 127.722656 155.378906 C 127.640625 155.484375 127.53125 155.570312 127.390625 155.636719 C 127.253906 155.707031 127.078125 155.738281 126.863281 155.730469 C 126.671875 155.730469 126.507812 155.707031 126.371094 155.65625 C 126.226562 155.601562 126.109375 155.539062 126.015625 155.472656 L 126.238281 154.890625 C 126.320312 154.945312 126.410156 154.992188 126.511719 155.027344 C 126.609375 155.066406 126.710938 155.085938 126.816406 155.09375 C 126.980469 155.09375 127.097656 155.046875 127.167969 154.953125 C 127.242188 154.867188 127.277344 154.71875 127.277344 154.503906 L 127.277344 152.332031 L 127.945312 152.332031 Z M 129.757812 155.730469 C 129.546875 155.730469 129.363281 155.699219 129.214844 155.636719 C 129.0625 155.570312 128.933594 155.476562 128.835938 155.359375 C 128.738281 155.242188 128.664062 155.105469 128.613281 154.945312 C 128.570312 154.777344 128.546875 154.601562 128.546875 154.410156 L 128.546875 152.332031 L 129.214844 152.332031 L 129.214844 154.335938 C 129.214844 154.472656 129.230469 154.585938 129.257812 154.675781 C 129.285156 154.769531 129.324219 154.847656 129.371094 154.910156 C 129.421875 154.96875 129.476562 155.011719 129.535156 155.039062 C 129.609375 155.0625 129.683594 155.074219 129.769531 155.074219 C 129.933594 155.074219 130.066406 155.019531 130.164062 154.910156 C 130.261719 154.796875 130.3125 154.605469 130.3125 154.335938 L 130.3125 152.324219 L 130.988281 152.324219 L 130.988281 154.402344 C 130.988281 154.589844 130.960938 154.769531 130.90625 154.9375 C 130.863281 155.097656 130.789062 155.238281 130.691406 155.359375 C 130.59375 155.484375 130.464844 155.574219 130.304688 155.628906 C 130.148438 155.691406 129.96875 155.722656 129.757812 155.722656 Z M 132.414062 152.332031 C 132.46875 152.4375 132.53125 152.570312 132.597656 152.730469 L 132.8125 153.226562 L 133.027344 153.78125 L 133.230469 154.316406 L 133.429688 153.78125 L 133.644531 153.226562 L 133.859375 152.730469 C 133.925781 152.570312 133.984375 152.4375 134.039062 152.332031 L 134.648438 152.332031 L 134.734375 153.070312 L 134.789062 153.929688 C 134.8125 154.226562 134.828125 154.523438 134.839844 154.824219 L 134.882812 155.664062 L 134.230469 155.664062 L 134.195312 154.605469 L 134.128906 153.449219 L 133.964844 153.902344 L 133.769531 154.390625 C 133.710938 154.558594 133.65625 154.714844 133.59375 154.863281 L 133.445312 155.242188 L 132.976562 155.242188 L 132.835938 154.863281 L 132.65625 154.390625 L 132.464844 153.902344 L 132.300781 153.449219 C 132.265625 153.835938 132.246094 154.222656 132.234375 154.605469 L 132.199219 155.664062 L 131.539062 155.664062 L 131.582031 154.824219 L 131.632812 153.929688 L 131.699219 153.078125 L 131.78125 152.332031 Z M 136.65625 155.730469 C 136.445312 155.730469 136.265625 155.699219 136.109375 155.636719 C 135.957031 155.570312 135.828125 155.476562 135.730469 155.359375 C 135.632812 155.242188 135.558594 155.105469 135.507812 154.945312 C 135.464844 154.777344 135.441406 154.601562 135.441406 154.410156 L 135.441406 152.332031 L 136.109375 152.332031 L 136.109375 154.335938 C 136.109375 154.472656 136.125 154.585938 136.152344 154.675781 C 136.179688 154.769531 136.21875 154.847656 136.265625 154.910156 C 136.316406 154.96875 136.371094 155.011719 136.433594 155.039062 C 136.503906 155.0625 136.582031 155.074219 136.664062 155.074219 C 136.828125 155.074219 136.960938 155.019531 137.058594 154.910156 C 137.15625 154.796875 137.207031 154.605469 137.207031 154.335938 L 137.207031 152.324219 L 137.882812 152.324219 L 137.882812 154.402344 C 137.882812 154.589844 137.855469 154.769531 137.800781 154.9375 C 137.757812 155.097656 137.683594 155.238281 137.585938 155.359375 C 137.488281 155.484375 137.359375 155.574219 137.199219 155.628906 C 137.046875 155.691406 136.863281 155.722656 136.65625 155.722656 Z M 138.519531 152.332031 L 139.195312 152.332031 L 139.195312 155.664062 L 138.527344 155.664062 Z M 140.976562 153.699219 L 141.324219 153.015625 C 141.433594 152.789062 141.53125 152.558594 141.621094 152.332031 L 142.363281 152.332031 C 142.195312 152.6875 142.027344 153.035156 141.851562 153.375 C 141.675781 153.714844 141.492188 154.050781 141.296875 154.390625 L 141.296875 155.664062 L 140.628906 155.664062 L 140.628906 154.402344 C 140.433594 154.0625 140.246094 153.722656 140.070312 153.382812 C 139.894531 153.046875 139.722656 152.695312 139.558594 152.332031 L 140.339844 152.332031 C 140.429688 152.558594 140.527344 152.789062 140.636719 153.015625 Z M 144.292969 155.664062 L 144.183594 155.316406 L 144.070312 154.945312 L 142.914062 154.945312 L 142.789062 155.316406 L 142.691406 155.664062 L 141.984375 155.664062 L 142.304688 154.667969 L 142.59375 153.808594 L 142.882812 153.042969 C 142.976562 152.796875 143.070312 152.558594 143.171875 152.332031 L 143.8125 152.332031 C 143.914062 152.558594 144.007812 152.796875 144.101562 153.042969 L 144.382812 153.808594 L 144.679688 154.667969 L 145 155.664062 Z M 143.484375 153.078125 C 143.472656 153.136719 143.449219 153.203125 143.417969 153.28125 L 143.320312 153.570312 L 143.195312 153.9375 L 143.0625 154.34375 L 143.914062 154.34375 L 143.78125 153.929688 L 143.65625 153.570312 L 143.558594 153.292969 Z M 147.515625 153.699219 L 147.863281 153.015625 C 147.972656 152.789062 148.070312 152.558594 148.160156 152.332031 L 148.902344 152.332031 C 148.738281 152.6875 148.570312 153.035156 148.398438 153.375 C 148.222656 153.714844 148.035156 154.050781 147.839844 154.390625 L 147.839844 155.664062 L 147.179688 155.664062 L 147.179688 154.402344 L 146.617188 153.382812 C 146.441406 153.039062 146.273438 152.6875 146.113281 152.332031 L 146.890625 152.332031 L 147.1875 153.015625 Z M 150.832031 155.664062 L 150.726562 155.316406 L 150.609375 154.945312 L 149.453125 154.945312 L 149.339844 155.316406 L 149.230469 155.664062 L 148.539062 155.664062 L 148.851562 154.667969 L 149.148438 153.808594 L 149.429688 153.042969 C 149.523438 152.796875 149.621094 152.558594 149.726562 152.332031 L 150.363281 152.332031 C 150.460938 152.558594 150.558594 152.796875 150.652344 153.042969 L 150.941406 153.808594 L 151.238281 154.667969 L 151.550781 155.664062 Z M 150.03125 153.078125 L 149.964844 153.28125 L 149.867188 153.570312 L 149.742188 153.9375 L 149.613281 154.34375 L 150.453125 154.34375 L 150.320312 153.929688 L 150.199219 153.570312 L 150.097656 153.292969 Z M 154.964844 155.664062 L 154.855469 155.316406 L 154.742188 154.945312 L 153.585938 154.945312 L 153.472656 155.316406 L 153.363281 155.664062 L 152.671875 155.664062 L 152.984375 154.667969 C 153.085938 154.359375 153.183594 154.074219 153.28125 153.808594 L 153.5625 153.042969 C 153.65625 152.796875 153.753906 152.558594 153.851562 152.332031 L 154.496094 152.332031 C 154.59375 152.558594 154.691406 152.796875 154.78125 153.042969 L 155.0625 153.808594 L 155.359375 154.667969 L 155.683594 155.664062 Z M 154.15625 153.078125 L 154.097656 153.28125 L 154 153.570312 L 153.875 153.9375 L 153.734375 154.34375 L 154.585938 154.34375 L 154.453125 153.929688 L 154.328125 153.570312 L 154.230469 153.292969 Z M 156.070312 155.664062 L 156.070312 152.332031 L 158.066406 152.332031 L 158.066406 152.960938 L 156.746094 152.960938 L 156.746094 153.660156 L 157.917969 153.660156 L 157.917969 154.289062 L 156.738281 154.289062 L 156.738281 155.675781 Z M 159.410156 152.296875 C 159.855469 152.296875 160.195312 152.382812 160.433594 152.5625 C 160.667969 152.742188 160.789062 153.019531 160.796875 153.394531 C 160.796875 153.628906 160.746094 153.820312 160.648438 153.964844 C 160.554688 154.109375 160.417969 154.222656 160.234375 154.308594 L 160.425781 154.585938 L 160.613281 154.925781 L 160.804688 155.296875 L 160.96875 155.664062 L 160.226562 155.664062 L 160.054688 155.332031 L 159.886719 155.011719 L 159.707031 154.707031 L 159.542969 154.445312 L 159.210938 154.445312 L 159.210938 155.664062 L 158.535156 155.664062 L 158.535156 152.378906 C 158.683594 152.347656 158.835938 152.324219 158.988281 152.3125 L 159.402344 152.296875 Z M 159.453125 152.933594 L 159.304688 152.933594 L 159.195312 152.949219 L 159.195312 153.855469 L 159.386719 153.855469 C 159.636719 153.855469 159.820312 153.820312 159.929688 153.746094 C 160.039062 153.671875 160.09375 153.550781 160.09375 153.382812 C 160.09375 153.21875 160.039062 153.105469 159.929688 153.042969 C 159.820312 152.96875 159.65625 152.933594 159.433594 152.933594 Z M 161.40625 152.332031 L 162.074219 152.332031 L 162.074219 155.664062 L 161.40625 155.664062 Z M 164.523438 155.664062 C 164.464844 155.554688 164.390625 155.4375 164.308594 155.316406 L 164.035156 154.9375 C 163.945312 154.808594 163.84375 154.683594 163.738281 154.566406 C 163.636719 154.449219 163.535156 154.34375 163.433594 154.253906 L 163.433594 155.664062 L 162.757812 155.664062 L 162.757812 152.332031 L 163.433594 152.332031 L 163.433594 153.589844 C 163.609375 153.382812 163.785156 153.171875 163.953125 152.949219 L 164.449219 152.332031 L 165.25 152.332031 C 165.046875 152.601562 164.839844 152.863281 164.628906 153.109375 C 164.421875 153.355469 164.207031 153.605469 163.988281 153.863281 C 164.222656 154.085938 164.453125 154.351562 164.671875 154.660156 C 164.890625 154.96875 165.105469 155.304688 165.316406 155.675781 Z M 167.796875 155.664062 L 167.699219 155.316406 L 167.582031 154.945312 L 166.429688 154.945312 L 166.304688 155.316406 L 166.207031 155.664062 L 165.503906 155.664062 L 165.828125 154.667969 L 166.117188 153.808594 L 166.402344 153.042969 C 166.496094 152.796875 166.59375 152.558594 166.691406 152.332031 L 167.335938 152.332031 C 167.433594 152.558594 167.53125 152.796875 167.625 153.042969 L 167.90625 153.808594 L 168.203125 154.667969 L 168.523438 155.664062 Z M 166.996094 153.078125 L 166.941406 153.28125 L 166.839844 153.570312 L 166.710938 153.9375 L 166.578125 154.34375 L 167.425781 154.34375 L 167.292969 153.929688 L 167.171875 153.570312 L 167.070312 153.292969 Z M 170.734375 152.332031 C 170.789062 152.4375 170.847656 152.570312 170.90625 152.730469 L 171.121094 153.226562 L 171.335938 153.78125 L 171.542969 154.316406 L 171.742188 153.78125 L 171.953125 153.226562 L 172.167969 152.730469 C 172.234375 152.570312 172.296875 152.4375 172.351562 152.332031 L 172.960938 152.332031 L 173.042969 153.070312 L 173.101562 153.929688 C 173.125 154.226562 173.140625 154.523438 173.152344 154.824219 L 173.191406 155.664062 L 172.539062 155.664062 L 172.507812 154.605469 L 172.441406 153.449219 L 172.277344 153.902344 L 172.078125 154.390625 C 172.023438 154.558594 171.964844 154.714844 171.90625 154.863281 L 171.757812 155.242188 L 171.285156 155.242188 L 171.148438 154.863281 L 170.964844 154.390625 L 170.777344 153.902344 L 170.609375 153.449219 C 170.578125 153.835938 170.554688 154.222656 170.542969 154.605469 L 170.511719 155.664062 L 169.851562 155.664062 L 169.894531 154.824219 L 169.941406 153.929688 L 170.007812 153.078125 L 170.089844 152.332031 Z M 175.796875 155.664062 L 175.683594 155.316406 L 175.574219 154.945312 L 174.414062 154.945312 L 174.296875 155.316406 L 174.191406 155.664062 L 173.496094 155.664062 L 173.8125 154.667969 L 174.109375 153.808594 L 174.386719 153.042969 C 174.480469 152.796875 174.582031 152.558594 174.683594 152.332031 L 175.320312 152.332031 C 175.417969 152.558594 175.515625 152.796875 175.609375 153.042969 C 175.707031 153.289062 175.804688 153.542969 175.898438 153.808594 L 176.195312 154.667969 L 176.507812 155.664062 Z M 174.988281 153.078125 L 174.925781 153.28125 L 174.824219 153.570312 L 174.703125 153.9375 L 174.570312 154.34375 L 175.410156 154.34375 L 175.277344 153.929688 L 175.15625 153.570312 L 175.054688 153.292969 Z M 177.792969 155.09375 C 177.886719 155.09375 177.964844 155.082031 178.023438 155.066406 C 178.085938 155.046875 178.136719 155.027344 178.171875 155 C 178.210938 154.964844 178.238281 154.925781 178.257812 154.890625 C 178.265625 154.847656 178.273438 154.800781 178.273438 154.75 C 178.273438 154.640625 178.226562 154.546875 178.132812 154.472656 C 178.039062 154.402344 177.882812 154.324219 177.664062 154.242188 L 177.367188 154.113281 C 177.273438 154.058594 177.1875 153.996094 177.109375 153.929688 C 177.03125 153.847656 176.96875 153.757812 176.921875 153.652344 C 176.863281 153.542969 176.835938 153.410156 176.835938 153.253906 C 176.835938 153.101562 176.863281 152.964844 176.921875 152.839844 C 176.976562 152.714844 177.050781 152.613281 177.144531 152.527344 C 177.234375 152.441406 177.351562 152.371094 177.488281 152.324219 C 177.621094 152.28125 177.773438 152.257812 177.941406 152.257812 C 178.140625 152.257812 178.3125 152.28125 178.460938 152.324219 C 178.605469 152.371094 178.726562 152.425781 178.824219 152.488281 L 178.628906 153.078125 C 178.542969 153.03125 178.453125 152.988281 178.347656 152.949219 C 178.242188 152.914062 178.121094 152.894531 177.984375 152.894531 C 177.820312 152.894531 177.703125 152.921875 177.636719 152.96875 C 177.570312 153.019531 177.535156 153.09375 177.53125 153.199219 C 177.53125 153.261719 177.542969 153.3125 177.570312 153.347656 C 177.597656 153.382812 177.636719 153.425781 177.679688 153.46875 L 177.84375 153.558594 L 178.050781 153.644531 C 178.203125 153.703125 178.339844 153.765625 178.453125 153.828125 C 178.5625 153.890625 178.65625 153.964844 178.734375 154.050781 C 178.8125 154.136719 178.871094 154.234375 178.90625 154.34375 C 178.945312 154.457031 178.964844 154.589844 178.964844 154.75 C 178.964844 155.058594 178.867188 155.300781 178.667969 155.480469 C 178.476562 155.648438 178.183594 155.730469 177.792969 155.730469 C 177.664062 155.730469 177.542969 155.722656 177.429688 155.703125 C 177.328125 155.691406 177.234375 155.667969 177.152344 155.636719 L 176.9375 155.5625 L 176.796875 155.472656 L 176.984375 154.878906 C 177.074219 154.9375 177.183594 154.984375 177.316406 155.027344 C 177.441406 155.070312 177.601562 155.09375 177.792969 155.09375 M 181.273438 152.332031 L 181.949219 152.332031 L 181.949219 155.664062 L 181.273438 155.664062 L 181.273438 154.253906 L 180.152344 154.253906 L 180.152344 155.664062 L 179.476562 155.664062 L 179.476562 152.332031 L 180.152344 152.332031 L 180.152344 153.597656 L 181.273438 153.597656 Z M 184.625 155.664062 L 184.523438 155.316406 L 184.410156 154.945312 L 183.253906 154.945312 L 183.128906 155.316406 L 183.03125 155.664062 L 182.332031 155.664062 C 182.441406 155.308594 182.550781 154.976562 182.660156 154.667969 C 182.753906 154.359375 182.851562 154.074219 182.949219 153.808594 L 183.230469 153.042969 C 183.324219 152.796875 183.417969 152.558594 183.519531 152.332031 L 184.160156 152.332031 C 184.261719 152.558594 184.355469 152.796875 184.449219 153.042969 L 184.730469 153.808594 L 185.027344 154.667969 L 185.347656 155.664062 Z M 183.824219 153.078125 L 183.765625 153.28125 L 183.667969 153.570312 L 183.535156 153.9375 L 183.402344 154.34375 L 184.253906 154.34375 L 184.121094 153.929688 L 183.996094 153.570312 L 183.898438 153.292969 Z M 186.601562 152.296875 C 187.054688 152.296875 187.398438 152.382812 187.632812 152.5625 C 187.871094 152.742188 187.988281 153.019531 187.988281 153.394531 C 187.988281 153.628906 187.941406 153.820312 187.847656 153.964844 C 187.75 154.109375 187.613281 154.222656 187.4375 154.308594 L 187.625 154.585938 L 187.816406 154.925781 L 188.003906 155.296875 L 188.167969 155.664062 L 187.425781 155.664062 L 187.253906 155.332031 L 187.082031 155.011719 L 186.917969 154.707031 L 186.734375 154.445312 L 186.40625 154.445312 L 186.40625 155.664062 L 185.738281 155.664062 L 185.738281 152.378906 C 185.878906 152.347656 186.027344 152.324219 186.183594 152.3125 Z M 186.644531 152.933594 L 186.519531 152.933594 L 186.414062 152.949219 L 186.414062 153.855469 L 186.601562 153.855469 C 186.855469 153.855469 187.039062 153.820312 187.148438 153.746094 C 187.257812 153.671875 187.3125 153.550781 187.3125 153.382812 C 187.3125 153.21875 187.257812 153.105469 187.148438 153.042969 C 187.039062 152.96875 186.871094 152.933594 186.652344 152.933594 Z M 188.597656 152.332031 L 189.273438 152.332031 L 189.273438 155.664062 L 188.597656 155.664062 Z M 191.714844 155.664062 C 191.660156 155.554688 191.589844 155.4375 191.503906 155.316406 C 191.425781 155.191406 191.335938 155.066406 191.238281 154.9375 C 191.144531 154.808594 191.046875 154.683594 190.941406 154.566406 C 190.835938 154.449219 190.730469 154.34375 190.628906 154.253906 L 190.628906 155.664062 L 189.96875 155.664062 L 189.96875 152.332031 L 190.628906 152.332031 L 190.628906 153.589844 C 190.804688 153.382812 190.980469 153.171875 191.15625 152.949219 L 191.652344 152.332031 L 192.441406 152.332031 C 192.238281 152.601562 192.035156 152.863281 191.832031 153.109375 C 191.628906 153.355469 191.414062 153.605469 191.1875 153.863281 C 191.425781 154.085938 191.652344 154.351562 191.875 154.660156 C 192.09375 154.96875 192.308594 155.304688 192.515625 155.675781 Z M 192.902344 152.332031 L 193.5625 152.332031 L 193.5625 155.664062 L 192.902344 155.664062 Z M 192.902344 152.332031 "/>
<path style=" stroke:none;fill-rule:evenodd;fill:rgb(0%,51.372552%,0%);fill-opacity:1;" d="M 121.132812 148.964844 L 125.671875 147.742188 L 124.273438 145.253906 L 132.085938 142.332031 L 132.085938 144.992188 L 134.484375 144.992188 L 134.484375 149.050781 L 121.394531 149.050781 Z M 121.132812 148.964844 "/>
<path style=" stroke:none;fill-rule:evenodd;fill:rgb(100%,100%,100%);fill-opacity:1;" d="M 133.351562 149.050781 L 123.835938 149.050781 L 133.351562 146.476562 Z M 131.253906 145.039062 L 127.023438 145.039062 L 131.386719 143.378906 Z M 125.714844 145.734375 L 126.675781 147.480469 L 133 145.734375 Z M 125.714844 145.734375 "/>
<path style=" stroke:none;fill-rule:evenodd;fill:rgb(0%,51.372552%,0%);fill-opacity:1;" d="M 198.847656 148.964844 L 194.308594 147.742188 L 195.707031 145.253906 L 187.894531 142.332031 L 187.894531 144.992188 L 185.496094 144.992188 L 185.496094 149.050781 L 198.585938 149.050781 Z M 198.847656 148.964844 "/>
<path style=" stroke:none;fill-rule:evenodd;fill:rgb(100%,100%,100%);fill-opacity:1;" d="M 186.628906 149.050781 L 196.144531 149.050781 L 186.628906 146.476562 Z M 188.726562 145.039062 L 192.957031 145.039062 L 188.59375 143.378906 Z M 194.265625 145.734375 L 193.308594 147.480469 L 186.980469 145.734375 Z M 194.265625 145.734375 "/>
<path style="fill-rule:nonzero;fill:rgb(100%,100%,0%);fill-opacity:1;stroke-width:1.2;stroke-linecap:butt;stroke-linejoin:miter;stroke:rgb(0%,0%,0%);stroke-opacity:1;stroke-miterlimit:4;" d="M 317.700989 -580.002868 C 284.167565 -578.892846 256.014171 -554.400735 250.27607 -521.341757 C 244.546922 -488.282779 262.799631 -455.743005 293.996636 -443.39848 L 293.996636 -451.204445 C 266.604144 -463.280416 251.368189 -492.866098 257.446458 -522.183226 C 263.515775 -551.509306 289.252185 -572.599734 319.195938 -572.796674 L 319.697239 -572.796674 C 349.721558 -572.787722 375.628052 -551.759956 381.813743 -522.380166 C 387.999433 -493.009327 372.763478 -463.316224 345.299372 -451.204445 L 345.299372 -443.39848 C 377.033484 -455.725102 395.46523 -488.918357 389.172118 -522.371214 C 382.879006 -555.824071 353.642445 -580.047627 319.598769 -580.002868 Z M 317.700989 -580.002868 " transform="matrix(0.436365,0,0,0.436365,20.549999,337.299988)"/>
<path style="fill-rule:evenodd;fill:rgb(100%,100%,100%);fill-opacity:1;stroke-width:0.9;stroke-linecap:butt;stroke-linejoin:miter;stroke:rgb(0%,0%,0%);stroke-opacity:1;stroke-miterlimit:4;" d="M 338.997308 -458.303219 L 339.095778 -447.704294 C 332.704197 -446.701693 325.596472 -440.10422 323.698691 -438.895727 C 321.800911 -437.696187 318.70359 -435.100167 317.002749 -435.297106 C 314.102367 -435.699937 316.197087 -438.000548 316.197087 -438.000548 C 316.197087 -438.000548 314.200837 -435.601467 312.804357 -436.702538 C 311.398925 -437.597717 313.601067 -439.397028 313.601067 -439.397028 C 313.601067 -439.397028 312.902827 -438.403379 311.398925 -438.895727 C 310.002445 -439.298558 310.996094 -440.90093 310.996094 -440.90093 C 310.996094 -440.90093 307.200533 -438.895727 306.502293 -439.602919 C 305.499692 -440.90093 306.896172 -442.10047 306.896172 -442.10047 L 315.803208 -449.602074 C 315.803208 -449.602074 310.002445 -447.498402 315.803208 -449.602074 C 320.69984 -451.598324 322.09632 -448.796413 324.298461 -449.002304 C 328.013456 -449.978049 331.486752 -451.714698 334.503507 -454.095875 C 336.204348 -455.796716 335.703048 -457.596027 337.001058 -458.097327 C 338.299068 -458.598628 338.997308 -458.303219 338.997308 -458.303219 Z M 338.997308 -458.303219 " transform="matrix(0.436365,0,0,0.436365,20.549999,337.299988)"/>
<path style="fill-rule:evenodd;fill:rgb(100%,100%,100%);fill-opacity:1;stroke-width:0.8;stroke-linecap:butt;stroke-linejoin:miter;stroke:rgb(0%,0%,0%);stroke-opacity:1;stroke-miterlimit:4;" d="M 300.00329 -457.497557 L 299.895869 -447.704294 C 305.902523 -446.898632 312.598466 -440.498099 314.397776 -439.298558 C 316.098617 -438.197487 319.097469 -436.299707 320.69984 -436.496646 C 323.29586 -436.801008 322.69609 -437.803609 322.69609 -437.803609 C 322.69609 -437.803609 323.895631 -437.203838 325.498002 -437.803609 C 327.100373 -438.403379 326.303663 -439.50445 326.303663 -439.50445 C 326.303663 -439.50445 328.702744 -438.797258 329.696394 -440.10422 C 330.698995 -441.196339 328.702744 -442.395879 328.702744 -442.395879 C 328.702744 -442.395879 329.696394 -443.103071 328.102974 -442.19894 C 326.500603 -441.30376 323.29586 -445.000852 320.10007 -445.197791 C 316.796857 -445.197791 316.501448 -442.002 314.496246 -443.49695 C 312.401526 -445.099321 316.098617 -447.704294 317.396628 -448.098173 C 322.499151 -449.799014 327.297313 -447.704294 321.102671 -450.103375 C 317.897928 -451.302915 315.400377 -449.002304 313.296706 -449.100774 C 311.103516 -449.199243 305.696632 -452.099625 304.300152 -453.701996 C 302.69778 -455.304367 303.100611 -456.897787 301.901071 -457.399087 C 300.70153 -457.667641 300.030146 -457.703448 299.895869 -457.497557 Z M 300.00329 -457.497557 " transform="matrix(0.436365,0,0,0.436365,20.549999,337.299988)"/>
<path style="fill:none;stroke-width:0.8;stroke-linecap:butt;stroke-linejoin:miter;stroke:rgb(0%,0%,0%);stroke-opacity:1;stroke-miterlimit:4;" d="M 326.402133 -439.50445 L 322.09632 -441.30376 M 323.197391 -437.597717 L 318.202289 -440.596568 " transform="matrix(0.436365,0,0,0.436365,20.549999,337.299988)"/>
<path style="fill-rule:evenodd;fill:rgb(0%,51.372552%,0%);fill-opacity:1;stroke-width:0.4;stroke-linecap:butt;stroke-linejoin:miter;stroke:rgb(0%,0%,0%);stroke-opacity:1;stroke-miterlimit:4;" d="M 291.803446 -462.60008 C 279.396259 -456.602378 278.796488 -472.402295 273.201617 -472.196404 C 283.702072 -479.196708 282.001231 -466.198702 291.803446 -462.60008 Z M 286.996332 -480.002369 C 280.80169 -468.696252 295.303598 -467.201303 294.802298 -461.695949 C 301.901071 -471.301225 289.798244 -470.495563 286.996332 -480.002369 Z M 286.996332 -480.002369 " transform="matrix(0.436365,0,0,0.436365,20.549999,337.299988)"/>
<path style="fill-rule:evenodd;fill:rgb(0%,51.372552%,0%);fill-opacity:1;stroke-width:0.4;stroke-linecap:butt;stroke-linejoin:miter;stroke:rgb(0%,0%,0%);stroke-opacity:1;stroke-miterlimit:4;" d="M 280.99863 -475.598086 C 265.700013 -473.002066 269.898404 -486.197011 263.497871 -487.298082 C 276.997178 -491.299534 271.196415 -481.10344 280.99863 -475.598086 Z M 280.99863 -475.598086 " transform="matrix(0.436365,0,0,0.436365,20.549999,337.299988)"/>
<path style="fill-rule:evenodd;fill:rgb(0%,51.372552%,0%);fill-opacity:1;stroke-width:0.4;stroke-linecap:butt;stroke-linejoin:miter;stroke:rgb(0%,0%,0%);stroke-opacity:1;stroke-miterlimit:4;" d="M 279.396259 -491.201064 C 270.999475 -481.300379 283.102302 -480.799079 281.69687 -475.598086 C 290.398014 -483.600991 281.401461 -483.29663 279.396259 -491.201064 Z M 270.596644 -489.401754 C 255.396497 -491.603895 265.001773 -507.099452 260.40055 -510.402664 C 272.897256 -509.498533 264.795881 -495.900757 270.596644 -489.401754 Z M 270.596644 -489.401754 " transform="matrix(0.436365,0,0,0.436365,20.549999,337.299988)"/>
<path style="fill-rule:evenodd;fill:rgb(0%,51.372552%,0%);fill-opacity:1;stroke-width:0.4;stroke-linecap:butt;stroke-linejoin:miter;stroke:rgb(0%,0%,0%);stroke-opacity:1;stroke-miterlimit:4;" d="M 276.397407 -508.997232 C 262.3968 -502.30129 276.495877 -495.104047 270.999475 -488.998923 C 284.803143 -489.697163 272.601846 -498.702668 276.397407 -508.800293 Z M 268.600394 -508.495932 C 252.299176 -515.899066 269.298634 -529.899673 266.398253 -535.002196 C 277.498478 -523.696079 260.59749 -519.497688 268.600394 -508.495932 Z M 268.600394 -508.495932 " transform="matrix(0.436365,0,0,0.436365,20.549999,337.299988)"/>
<path style="fill-rule:evenodd;fill:rgb(0%,51.372552%,0%);fill-opacity:1;stroke-width:0.4;stroke-linecap:butt;stroke-linejoin:miter;stroke:rgb(0%,0%,0%);stroke-opacity:1;stroke-miterlimit:4;" d="M 279.00238 -527.303653 C 265.001773 -525.504342 272.002076 -512.595854 269.101695 -508.003583 C 280.10345 -510.501134 271.303836 -517.000137 279.100849 -527.303653 Z M 272.199016 -531.197683 C 264.303533 -543.20204 277.498478 -545.89653 278.402609 -552.001654 C 282.19817 -536.201737 273.201617 -541.30426 272.199016 -531.197683 Z M 272.199016 -531.197683 " transform="matrix(0.436365,0,0,0.436365,20.549999,337.299988)"/>
<path style="fill-rule:evenodd;fill:rgb(0%,51.372552%,0%);fill-opacity:1;stroke-width:0.4;stroke-linecap:butt;stroke-linejoin:miter;stroke:rgb(0%,0%,0%);stroke-opacity:1;stroke-miterlimit:4;" d="M 287.998933 -541.196838 C 275.000927 -544.902881 277.400008 -531.797454 272.995725 -528.700133 C 283.997481 -526.900822 281.69687 -537.401277 287.998933 -541.196838 Z M 282.001231 -546.800662 C 279.396259 -557.202647 284.597251 -555.501806 290.496484 -560.103029 C 293.701227 -551.697293 285.796792 -552.699894 282.001231 -546.800662 Z M 298.597858 -548.403033 C 288.598704 -555.797215 287.497633 -545.798061 282.29664 -544.401581 C 291.901916 -538.699287 292.295795 -547.203492 298.597858 -548.295611 Z M 292.600156 -553.398134 C 292.895565 -557.900887 298.90222 -563.80012 305.096861 -561.80387 C 304.801452 -554.302266 297.604209 -552.395533 292.600156 -553.299665 Z M 292.600156 -553.398134 " transform="matrix(0.436365,0,0,0.436365,20.549999,337.299988)"/>
<path style="fill-rule:evenodd;fill:rgb(0%,51.372552%,0%);fill-opacity:1;stroke-width:0.4;stroke-linecap:butt;stroke-linejoin:miter;stroke:rgb(0%,0%,0%);stroke-opacity:1;stroke-miterlimit:4;" d="M 291.804354 -462.60008 C 279.397166 -456.602378 278.797396 -472.402295 273.202524 -472.196404 C 283.702979 -479.196708 282.002138 -466.198702 291.804354 -462.60008 Z M 286.99724 -480.002369 C 280.802598 -468.696252 295.295554 -467.201303 294.803205 -461.695949 C 301.901978 -471.301225 289.799152 -470.495563 286.99724 -480.002369 Z M 286.99724 -480.002369 " transform="matrix(-0.436365,0,0,0.436365,299.430865,337.299988)"/>
<path style="fill-rule:evenodd;fill:rgb(0%,51.372552%,0%);fill-opacity:1;stroke-width:0.4;stroke-linecap:butt;stroke-linejoin:miter;stroke:rgb(0%,0%,0%);stroke-opacity:1;stroke-miterlimit:4;" d="M 280.999537 -475.598086 C 265.70092 -473.002066 269.899312 -486.197011 263.498778 -487.298082 C 276.998085 -491.299534 271.197322 -481.10344 280.999537 -475.598086 Z M 280.999537 -475.598086 " transform="matrix(-0.436365,0,0,0.436365,299.430865,337.299988)"/>
<path style="fill-rule:evenodd;fill:rgb(0%,51.372552%,0%);fill-opacity:1;stroke-width:0.4;stroke-linecap:butt;stroke-linejoin:miter;stroke:rgb(0%,0%,0%);stroke-opacity:1;stroke-miterlimit:4;" d="M 279.397166 -491.201064 C 271.000382 -481.300379 283.103209 -480.799079 281.697777 -475.598086 C 290.398922 -483.600991 281.402368 -483.29663 279.397166 -491.201064 Z M 270.597552 -489.401754 C 255.397404 -491.603895 265.00268 -507.099452 260.401457 -510.402664 C 272.898163 -509.498533 264.796789 -495.900757 270.597552 -489.401754 Z M 270.597552 -489.401754 " transform="matrix(-0.436365,0,0,0.436365,299.430865,337.299988)"/>
<path style="fill-rule:evenodd;fill:rgb(0%,51.372552%,0%);fill-opacity:1;stroke-width:0.4;stroke-linecap:butt;stroke-linejoin:miter;stroke:rgb(0%,0%,0%);stroke-opacity:1;stroke-miterlimit:4;" d="M 276.398315 -508.997232 C 262.397708 -502.30129 276.496784 -495.104047 271.000382 -488.998923 C 284.80405 -489.697163 272.602754 -498.702668 276.398315 -508.800293 Z M 268.601301 -508.495932 C 252.300083 -515.899066 269.299541 -529.899673 266.39916 -535.002196 C 277.499386 -523.696079 260.598397 -519.497688 268.601301 -508.495932 Z M 268.601301 -508.495932 " transform="matrix(-0.436365,0,0,0.436365,299.430865,337.299988)"/>
<path style="fill-rule:evenodd;fill:rgb(0%,51.372552%,0%);fill-opacity:1;stroke-width:0.4;stroke-linecap:butt;stroke-linejoin:miter;stroke:rgb(0%,0%,0%);stroke-opacity:1;stroke-miterlimit:4;" d="M 279.003287 -527.303653 C 265.00268 -525.504342 272.002984 -512.595854 269.102602 -508.003583 C 280.104358 -510.501134 271.295792 -517.000137 279.101757 -527.303653 Z M 272.199923 -531.197683 C 264.30444 -543.20204 277.499386 -545.89653 278.403517 -552.001654 C 282.199078 -536.201737 273.202524 -541.30426 272.199923 -531.197683 Z M 272.199923 -531.197683 " transform="matrix(-0.436365,0,0,0.436365,299.430865,337.299988)"/>
<path style="fill-rule:evenodd;fill:rgb(0%,51.372552%,0%);fill-opacity:1;stroke-width:0.4;stroke-linecap:butt;stroke-linejoin:miter;stroke:rgb(0%,0%,0%);stroke-opacity:1;stroke-miterlimit:4;" d="M 287.999841 -541.196838 C 275.001835 -544.902881 277.400916 -531.797454 272.996633 -528.700133 C 283.998389 -526.900822 281.697777 -537.401277 287.999841 -541.196838 Z M 282.002138 -546.800662 C 279.397166 -557.202647 284.598159 -555.501806 290.497392 -560.103029 C 293.702134 -551.697293 285.797699 -552.699894 282.002138 -546.800662 Z M 298.598766 -548.403033 C 288.599611 -555.797215 287.49854 -545.798061 282.297547 -544.401581 C 291.902823 -538.699287 292.296702 -547.203492 298.598766 -548.295611 Z M 292.601063 -553.398134 C 292.896473 -557.900887 298.903127 -563.80012 305.097769 -561.80387 C 304.80236 -554.302266 297.596165 -552.395533 292.601063 -553.299665 Z M 292.601063 -553.398134 " transform="matrix(-0.436365,0,0,0.436365,299.430865,337.299988)"/>
<path style=" stroke:none;fill-rule:nonzero;fill:rgb(0%,0%,0%);fill-opacity:1;" d="M 154.652344 90.140625 L 154.910156 91.667969 L 155.726562 91.507812 C 155.941406 91.484375 156.082031 91.429688 156.148438 91.34375 C 156.210938 91.257812 156.246094 91.09375 156.246094 90.855469 L 156.34375 90.855469 L 156.570312 92.15625 L 156.472656 92.15625 L 156.34375 91.832031 L 156.148438 91.703125 L 155.789062 91.703125 L 154.945312 91.863281 L 155.140625 93.132812 L 155.238281 93.457031 L 155.335938 93.492188 L 155.53125 93.492188 L 156.179688 93.394531 L 156.636719 93.265625 L 156.894531 93.035156 C 157.003906 92.90625 157.089844 92.710938 157.15625 92.449219 L 157.285156 92.449219 L 157.125 93.425781 L 154.195312 93.945312 L 154.164062 93.847656 L 154.292969 93.847656 L 154.519531 93.71875 C 154.585938 93.675781 154.617188 93.621094 154.617188 93.554688 L 154.617188 93.167969 L 154.164062 90.695312 C 154.164062 90.453125 154.121094 90.3125 154.03125 90.269531 C 153.945312 90.207031 153.828125 90.183594 153.675781 90.207031 L 153.546875 90.207031 L 153.546875 90.140625 L 156.472656 89.621094 L 156.636719 90.464844 L 156.539062 90.464844 L 156.34375 90.074219 L 156.082031 89.945312 L 155.691406 89.945312 Z M 160.246094 91.996094 L 158.75 91.996094 L 158.488281 92.613281 L 158.394531 92.9375 C 158.394531 93.003906 158.425781 93.058594 158.488281 93.101562 C 158.554688 93.144531 158.675781 93.175781 158.847656 93.199219 L 158.847656 93.296875 L 157.644531 93.296875 L 157.644531 93.199219 C 157.796875 93.199219 157.90625 93.167969 157.96875 93.101562 L 158.296875 92.515625 L 159.597656 89.328125 L 159.726562 89.328125 L 161.09375 92.546875 C 161.203125 92.808594 161.300781 92.972656 161.386719 93.035156 C 161.472656 93.101562 161.589844 93.144531 161.742188 93.167969 L 161.742188 93.296875 L 160.214844 93.296875 L 160.214844 93.199219 C 160.367188 93.199219 160.476562 93.167969 160.539062 93.101562 C 160.582031 93.058594 160.605469 93.003906 160.605469 92.9375 C 160.605469 92.851562 160.574219 92.722656 160.507812 92.546875 Z M 160.183594 91.765625 L 159.53125 90.207031 L 158.847656 91.800781 Z M 165.972656 89.976562 L 165.84375 91.277344 L 165.746094 91.277344 C 165.730469 90.949219 165.617188 90.632812 165.417969 90.367188 C 165.222656 90.160156 164.957031 90.019531 164.671875 89.976562 C 164.433594 89.933594 164.183594 89.953125 163.957031 90.042969 C 163.699219 90.144531 163.484375 90.328125 163.335938 90.5625 C 163.1875 90.824219 163.078125 91.171875 163.011719 91.605469 C 162.949219 91.90625 162.949219 92.214844 163.011719 92.515625 C 163.078125 92.820312 163.207031 93.035156 163.402344 93.167969 C 163.621094 93.382812 163.867188 93.503906 164.152344 93.523438 C 164.367188 93.566406 164.585938 93.554688 164.800781 93.492188 C 165.019531 93.425781 165.269531 93.253906 165.550781 92.972656 L 165.648438 93.035156 C 165.386719 93.339844 165.117188 93.554688 164.835938 93.6875 C 164.550781 93.796875 164.226562 93.816406 163.859375 93.75 C 163.230469 93.644531 162.796875 93.316406 162.558594 92.777344 C 162.34375 92.378906 162.273438 91.917969 162.363281 91.472656 C 162.425781 91.105469 162.566406 90.78125 162.785156 90.5 C 163 90.214844 163.285156 90 163.628906 89.847656 C 164.242188 89.625 164.925781 89.722656 165.453125 90.109375 L 165.582031 90.207031 L 165.746094 90.171875 L 165.875 89.976562 Z M 165.972656 89.976562 "/>
<path style=" stroke:none;fill-rule:nonzero;fill:rgb(100%,0%,0%);fill-opacity:1;" d="M 158.964844 97.167969 C 158.527344 97.167969 158.105469 97.226562 157.699219 97.34375 C 157.019531 98.527344 155.933594 99.425781 154.644531 99.875 L 154.382812 99.960938 C 153.042969 100.550781 151.523438 100.597656 150.152344 100.09375 C 148.9375 100.902344 147.824219 101.855469 146.835938 102.929688 C 147.089844 104.371094 146.777344 105.855469 145.960938 107.074219 C 145.308594 108.371094 144.1875 109.371094 142.820312 109.867188 C 142.382812 111.292969 142.136719 112.746094 142.078125 114.230469 C 142.949219 114.882812 143.691406 116.148438 143.996094 117.675781 L 144.085938 117.984375 C 144.390625 119.640625 144.085938 121.210938 143.472656 122.128906 C 144.054688 123.496094 144.78125 124.761719 145.65625 125.925781 C 146.703125 125.835938 148.097656 126.359375 149.320312 127.277344 L 149.539062 127.496094 C 150.847656 128.585938 151.632812 129.9375 151.722656 131.074219 C 153.058594 131.773438 154.46875 132.28125 155.953125 132.601562 C 156.738281 131.859375 158.136719 131.292969 159.707031 131.292969 L 160.011719 131.292969 C 161.714844 131.292969 163.199219 131.816406 164.027344 132.601562 C 165.511719 132.28125 166.90625 131.773438 168.214844 131.074219 C 168.449219 129.628906 169.230469 128.332031 170.398438 127.453125 C 171.484375 126.492188 172.875 125.953125 174.324219 125.925781 C 175.199219 124.761719 175.925781 123.523438 176.507812 122.214844 C 175.832031 121.039062 175.601562 119.664062 175.851562 118.332031 L 175.851562 118.070312 C 176.257812 116.324219 176.941406 115.074219 177.902344 114.316406 C 177.835938 112.835938 177.589844 111.371094 177.160156 109.953125 C 175.898438 109.476562 174.84375 108.5625 174.195312 107.378906 L 174.019531 107.117188 C 173.148438 105.632812 172.886719 104.0625 173.148438 102.972656 C 172.132812 101.847656 170.972656 100.867188 169.699219 100.046875 C 168.433594 100.515625 167.039062 100.515625 165.773438 100.046875 L 165.46875 99.917969 C 164.085938 99.46875 162.910156 98.539062 162.152344 97.300781 C 161.453125 97.210938 160.726562 97.167969 159.96875 97.167969 L 158.921875 97.167969 Z M 162.457031 132.90625 "/>
<path style="fill-rule:nonzero;fill:rgb(98.431373%,94.117647%,7.843138%);fill-opacity:1;stroke-width:0.4;stroke-linecap:butt;stroke-linejoin:miter;stroke:rgb(0%,0%,0%);stroke-opacity:1;stroke-miterlimit:4;" d="M 354.698756 -509.400063 C 354.698756 -489.98362 338.961501 -474.246365 319.55401 -474.246365 C 300.137567 -474.246365 284.400312 -489.98362 284.400312 -509.400063 C 284.400312 -528.816506 300.137567 -544.553761 319.55401 -544.553761 C 338.961501 -544.553761 354.698756 -528.816506 354.698756 -509.400063 Z M 354.698756 -509.400063 " transform="matrix(0.436365,0,0,0.436365,20.549999,337.299988)"/>
<path style="fill-rule:nonzero;fill:rgb(98.431373%,94.117647%,7.843138%);fill-opacity:1;stroke-width:0.4;stroke-linecap:butt;stroke-linejoin:miter;stroke:rgb(0%,0%,0%);stroke-opacity:1;stroke-miterlimit:4;" d="M 351.699905 -509.400063 C 351.699905 -491.612847 337.287515 -477.200457 319.500299 -477.200457 C 301.713083 -477.200457 287.300693 -491.612847 287.300693 -509.400063 C 287.300693 -527.187279 301.713083 -541.599669 319.500299 -541.599669 C 337.287515 -541.599669 351.699905 -527.187279 351.699905 -509.400063 Z M 351.699905 -509.400063 " transform="matrix(0.436365,0,0,0.436365,20.549999,337.299988)"/>
<path style="fill-rule:evenodd;fill:rgb(0%,52.941179%,100%);fill-opacity:1;stroke-width:0.4;stroke-linecap:butt;stroke-linejoin:miter;stroke:rgb(0%,0%,0%);stroke-opacity:1;stroke-miterlimit:4;" d="M 310.002445 -525.199981 L 320.60137 -523.3022 L 319.195938 -512.703275 L 310.199385 -506.499682 L 305.204283 -511.996084 L 305.499692 -520.697228 Z M 310.002445 -525.199981 " transform="matrix(0.436365,0,0,0.436365,20.549999,337.299988)"/>
<path style="fill-rule:evenodd;fill:rgb(100%,100%,100%);fill-opacity:1;stroke-width:0.4;stroke-linecap:butt;stroke-linejoin:miter;stroke:rgb(0%,0%,0%);stroke-opacity:1;stroke-miterlimit:4;" d="M 307.003594 -517.402968 L 302.79625 -517.197076 L 302.402371 -517.197076 L 302.402371 -517.000137 L 302.303902 -517.000137 L 302.19648 -516.695776 L 301.802601 -516.498836 L 301.802601 -516.301897 L 301.49824 -516.096006 L 301.104361 -515.899066 L 300.996939 -515.899066 L 300.89847 -516.301897 L 300.298699 -516.301897 L 300.00329 -516.203427 L 300.00329 -516.695776 L 299.895869 -516.803197 L 299.895869 -517.796847 L 300.10176 -517.796847 L 300.10176 -518.700978 L 300.20023 -518.897917 L 300.20023 -519.103809 L 300.495639 -519.399218 L 300.8 -519.497688 L 300.8 -519.802049 L 300.89847 -520.097458 L 300.996939 -520.195928 L 300.89847 -520.401819 L 300.603061 -520.195928 L 300.298699 -520.401819 L 300.298699 -521.001589 L 300.603061 -521.198529 L 300.70153 -521.100059 L 300.89847 -521.896769 L 301.202831 -522.20113 L 300.996939 -522.70243 L 301.202831 -522.997839 L 301.104361 -523.40067 L 301.99954 -523.696079 L 301.99954 -524.00044 L 302.09801 -524.403271 L 302.500841 -524.501741 L 302.79625 -524.69868 L 303.002142 -524.19738 L 303.002142 -523.901971 L 303.199081 -523.901971 L 303.39602 -524.29585 L 303.601912 -524.403271 L 303.601912 -524.69868 L 304.201682 -525.39692 L 304.398621 -525.602812 L 304.801452 -525.799751 L 305.204283 -525.799751 L 305.499692 -526.202582 L 305.499692 -526.596461 L 305.696632 -526.596461 L 305.902523 -526.802352 L 305.804053 -527.097761 L 305.804053 -527.796001 L 305.598162 -527.796001 L 305.598162 -528.001893 L 305.401223 -527.697532 L 305.204283 -527.796001 L 305.204283 -528.100362 L 304.595561 -528.100362 L 304.398621 -528.503193 L 304.201682 -528.395772 L 304.201682 -528.100362 L 303.995791 -528.198832 L 303.995791 -528.601663 L 303.601912 -528.601663 L 303.700382 -528.995542 L 304.103212 -529.702734 L 304.103212 -530.096613 L 303.700382 -530.499443 L 303.995791 -531.296153 L 304.398621 -531.698984 L 304.398621 -532.200284 L 304.103212 -532.101815 L 304.497091 -532.603115 L 305.204283 -532.898524 L 305.598162 -532.898524 L 306.197932 -532.495694 L 306.403824 -532.603115 L 306.699233 -532.603115 L 307.200533 -532.996994 L 307.701834 -532.603115 L 307.701834 -532.298754 L 308.095713 -532.298754 L 308.203134 -532.101815 L 308.498544 -532.101815 L 308.498544 -532.397224 L 309.196783 -532.701585 L 310.199385 -532.800055 L 311.103516 -533.301355 L 311.595864 -532.898524 L 312.696935 -532.898524 L 314.397776 -534.402426 L 319.598769 -533.202885 L 319.30336 -524.19738 L 313.896476 -521.198529 L 313.601067 -521.40442 L 313.502597 -521.296998 L 313.404127 -521.296998 L 313.404127 -521.798299 L 313.099766 -521.798299 L 313.099766 -521.198529 L 312.696935 -521.198529 L 312.303056 -521.40442 L 312.303056 -521.601359 L 312.696935 -521.601359 L 312.696935 -521.699829 L 312.401526 -521.798299 L 312.097165 -521.798299 L 312.097165 -522.00419 L 312.401526 -522.20113 L 312.401526 -522.299599 L 312.097165 -522.10266 L 311.900226 -522.20113 L 311.703286 -522.10266 L 311.900226 -521.798299 L 311.595864 -521.601359 L 311.595864 -521.40442 L 311.201986 -521.50289 L 311.201986 -521.296998 L 311.398925 -521.296998 L 310.799155 -520.903119 L 310.602215 -521.100059 L 310.602215 -521.198529 L 310.297854 -521.001589 L 309.903975 -521.001589 L 309.903975 -521.100059 L 310.297854 -521.198529 L 310.199385 -521.296998 L 309.903975 -521.296998 L 309.903975 -521.601359 L 309.796554 -521.296998 L 309.599614 -521.296998 L 309.599614 -520.795698 L 309.196783 -520.795698 L 309.098314 -521.001589 C 309.098314 -521.001589 308.802905 -521.001589 308.901374 -520.795698 L 308.901374 -520.500289 L 308.597013 -520.697228 L 308.400074 -520.697228 L 308.400074 -520.401819 L 308.203134 -520.401819 L 307.800304 -520.598758 L 307.997243 -520.303349 L 307.603364 -520.303349 L 307.397473 -520.195928 L 307.603364 -519.998988 L 307.701834 -519.802049 L 307.898773 -519.596157 L 307.800304 -519.497688 L 307.701834 -519.497688 L 307.397473 -519.202278 L 307.200533 -519.202278 L 307.102064 -518.897917 L 306.896172 -518.799448 L 307.003594 -518.602508 L 307.102064 -518.602508 L 307.102064 -518.396617 L 307.003594 -518.396617 L 306.600763 -518.002738 L 306.600763 -517.904268 L 306.896172 -517.904268 Z M 307.003594 -517.402968 " transform="matrix(0.436365,0,0,0.436365,20.549999,337.299988)"/>
<path style="fill-rule:evenodd;fill:rgb(100%,100%,100%);fill-opacity:1;stroke-width:0.4;stroke-linecap:butt;stroke-linejoin:miter;stroke:rgb(0%,0%,0%);stroke-opacity:1;stroke-miterlimit:4;" d="M 314.200837 -517.295546 L 325.703893 -511.002434 L 325.802363 -510.098303 L 325.399532 -509.901364 L 325.498002 -509.498533 L 325.900833 -509.400063 L 325.999302 -508.997232 L 330.502055 -505.801442 L 330.797464 -505.998381 L 331.200295 -505.801442 L 331.298765 -506.204272 L 331.603126 -506.499682 L 332.104426 -507.600752 L 331.800065 -507.699222 L 331.997005 -508.102053 L 332.202896 -508.102053 L 332.596775 -508.603353 L 332.596775 -508.997232 L 332.399836 -509.301593 L 332.704197 -509.203124 L 333.098076 -510.098303 L 333.500906 -510.196773 L 333.599376 -510.903965 L 333.796316 -511.100904 C 333.796316 -511.100904 333.599376 -511.897614 333.796316 -512.201975 C 334.002207 -512.497384 335.103278 -512.497384 335.103278 -512.497384 L 335.703048 -513.195624 L 335.703048 -513.401515 L 336.096927 -513.696925 L 335.703048 -514.404116 L 336.499758 -514.198225 L 337.099528 -514.404116 L 337.502359 -514.404116 L 338.102129 -515.200826 L 338.102129 -515.496235 L 336.204348 -517.904268 L 336.204348 -529.604264 L 337.296467 -530.597913 L 339.095778 -533.104416 L 338.603429 -533.301355 L 336.804119 -533.104416 L 336.302818 -533.704186 L 336.096927 -533.704186 L 335.998457 -534.098065 L 335.595626 -534.303956 L 332.596775 -532.898524 L 332.498305 -532.397224 L 331.800065 -531.797454 L 331.800065 -531.403575 L 331.603126 -531.403575 L 331.397235 -531.502044 L 328.299914 -532.200284 L 328.102974 -532.003345 L 327.100373 -532.003345 L 323.403282 -534.697835 L 320.69984 -534.697835 L 320.10007 -534.903726 L 320.10007 -535.199136 L 315.096016 -535.199136 L 314.102367 -534.196535 L 314.299307 -532.898524 L 314.800607 -532.898524 L 314.997547 -532.298754 L 315.498847 -532.298754 L 315.400377 -531.698984 L 315.301908 -531.698984 L 315.301908 -531.000744 L 315.498847 -530.696383 L 315.803208 -530.499443 L 315.803208 -529.998143 L 316.402978 -529.702734 L 316.501448 -528.995542 L 316.904279 -528.798602 L 316.904279 -528.503193 L 316.698388 -528.100362 L 317.101218 -527.500592 L 317.002749 -527.097761 L 317.199688 -526.596461 L 317.199688 -526.399521 L 317.101218 -525.799751 L 316.796857 -525.602812 L 316.698388 -525.199981 L 316.501448 -525.199981 L 316.501448 -524.403271 L 316.000148 -524.403271 L 315.803208 -524.09891 L 315.498847 -524.19738 L 315.498847 -523.49914 L 315.203438 -523.096309 L 314.899077 -523.096309 L 314.899077 -522.8009 L 314.496246 -522.60396 L 314.397776 -522.10266 L 314.397776 -521.601359 L 313.896476 -521.40442 L 313.896476 -520.500289 L 314.200837 -520.401819 L 314.397776 -520.401819 L 314.299307 -520.097458 L 314.603668 -519.998988 L 314.800607 -519.497688 L 315.203438 -519.802049 L 315.203438 -520.097458 L 315.695786 -520.097458 L 316.295557 -520.401819 L 316.501448 -519.998988 L 316.698388 -519.703579 L 316.295557 -519.703579 L 316.197087 -519.497688 L 315.901678 -519.497688 L 315.400377 -519.596157 L 315.400377 -519.399218 L 315.597317 -519.202278 L 315.301908 -518.996387 L 315.203438 -519.202278 L 314.899077 -519.103809 L 314.702137 -519.103809 L 314.397776 -519.300748 L 314.397776 -518.897917 L 314.200837 -518.897917 L 314.003897 -518.396617 L 314.299307 -518.101208 L 314.603668 -517.904268 L 314.299307 -517.501437 Z M 331.800065 -495.497926 L 332.202896 -495.802287 L 332.202896 -495.999226 L 332.596775 -495.999226 L 332.802666 -496.500527 L 332.802666 -495.999226 L 332.596775 -495.802287 L 332.596775 -495.497926 L 332.399836 -495.497926 L 332.399836 -495.202517 L 332.301366 -495.399456 Z M 330.600525 -501.101749 L 330.600525 -501.799989 L 330.502055 -501.898459 L 330.895934 -502.20282 L 330.895934 -502.596699 L 331.397235 -502.80259 L 331.397235 -502.39976 L 331.101825 -502.39976 L 331.101825 -501.799989 L 331.298765 -501.495628 L 331.298765 -501.200219 L 331.603126 -501.00328 L 331.898535 -500.600449 L 331.898535 -500.296088 L 331.603126 -500.197618 L 331.200295 -500.698919 L 330.797464 -500.600449 Z M 332.104426 -503.69777 L 332.104426 -504.100601 L 332.301366 -504.503431 L 331.997005 -505.300141 L 332.399836 -505.300141 L 332.498305 -504.89731 L 332.704197 -504.89731 L 332.704197 -505.201671 C 332.704197 -505.201671 332.901136 -505.300141 332.901136 -505.201671 L 332.802666 -504.29754 L 332.901136 -503.903661 L 332.704197 -503.5993 L 332.399836 -503.303891 Z M 332.104426 -503.69777 " transform="matrix(0.436365,0,0,0.436365,20.549999,337.299988)"/>
<path style="fill-rule:evenodd;fill:rgb(100%,100%,100%);fill-opacity:1;stroke-width:0.4;stroke-linecap:butt;stroke-linejoin:miter;stroke:rgb(0%,0%,0%);stroke-opacity:1;stroke-miterlimit:4;" d="M 334.396086 -487.503973 L 333.098076 -486.501372 L 331.298765 -485.695711 L 330.797464 -485.400301 L 329.902285 -485.400301 L 329.204045 -485.203362 L 328.801214 -484.997471 L 328.299914 -484.49617 L 327.503204 -484.997471 L 326.500603 -484.997471 L 326.196242 -484.702061 L 326.196242 -484.200761 L 325.498002 -483.8964 L 325.202593 -483.8964 L 324.898232 -483.69946 L 323.895631 -483.79793 L 323.501752 -484.200761 L 323.000451 -484.102291 L 322.203741 -483.502521 L 321.800911 -483.600991 L 321.800911 -483.79793 L 321.49655 -483.79793 L 321.29961 -483.600991 L 320.79831 -483.69946 L 320.79831 -484.102291 L 320.5029 -484.102291 L 320.10007 -484.702061 L 319.598769 -484.702061 L 319.500299 -484.3977 L 319.097469 -484.102291 L 318.70359 -484.200761 L 317.199688 -484.200761 L 316.796857 -484.899001 L 316.402978 -484.899001 L 316.000148 -485.901602 L 316.000148 -486.402902 L 316.197087 -486.599842 L 316.197087 -487.199612 L 315.803208 -487.503973 L 315.901678 -488.497622 L 315.803208 -488.703514 L 315.695786 -489.097393 L 314.997547 -489.795633 L 314.997547 -490.099994 L 314.200837 -490.699764 L 313.896476 -490.699764 L 313.896476 -490.099994 L 313.502597 -490.198463 L 313.296706 -490.502824 L 312.303056 -490.296933 L 311.900226 -490.798234 L 311.398925 -490.699764 L 310.996094 -491.004125 L 310.503746 -491.004125 L 310.100915 -491.398004 L 309.196783 -491.398004 L 308.999844 -491.997774 L 308.400074 -491.997774 L 308.203134 -492.096244 L 307.495942 -492.096244 L 307.495942 -492.400605 L 306.699233 -492.499075 L 306.296402 -492.803436 L 306.296402 -493.295784 L 305.696632 -493.600145 L 305.204283 -493.501676 L 304.998392 -494.101446 L 304.497091 -494.504277 L 304.398621 -495.104047 L 303.700382 -496.097696 L 303.700382 -496.500527 L 303.297551 -496.903358 L 303.297551 -497.700067 L 303.002142 -498.102898 L 303.002142 -498.496777 L 303.199081 -498.496777 L 303.199081 -498.801138 L 302.69778 -499.203969 L 302.500841 -499.597848 L 301.704131 -500.197618 L 301.104361 -500.197618 L 300.397169 -501.00328 L 300.397169 -501.397159 L 300.70153 -501.799989 L 301.104361 -501.799989 L 301.202831 -502.10435 L 301.202831 -502.39976 L 300.495639 -503.402361 L 300.495639 -503.903661 L 300.8 -504.100601 L 300.70153 -504.700371 L 300.10176 -505.300141 L 300.10176 -505.899911 L 300.20023 -506.401212 L 300.20023 -506.598151 L 300.8 -506.804043 L 301.104361 -507.000982 L 301.39977 -507.296391 L 301.39977 -507.600752 L 301.99954 -507.797692 L 301.99954 -508.102053 L 302.500841 -508.701823 L 302.500841 -508.997232 L 302.79625 -509.498533 L 303.503442 -509.802894 L 303.503442 -509.999833 L 303.995791 -510.304194 L 303.995791 -511.297844 L 303.798851 -511.396313 L 303.503442 -511.396313 L 303.199081 -511.503735 L 302.69778 -511.503735 L 302.69778 -511.799144 L 303.002142 -512.201975 L 302.79625 -512.398914 L 303.100611 -512.998685 L 304.103212 -513.097154 L 304.103212 -513.804346 L 304.201682 -514.099755 L 303.798851 -514.601056 L 303.798851 -515.603657 L 303.601912 -515.899066 L 303.601912 -516.203427 L 303.100611 -516.498836 L 302.69778 -517.197076 L 303.297551 -517.197076 L 303.601912 -517.501437 L 307.102064 -517.501437 L 307.200533 -517.197076 L 307.200533 -516.803197 L 307.003594 -516.301897 L 306.896172 -515.997536 L 306.896172 -515.800596 L 306.797702 -515.397766 L 306.797702 -515.003887 L 306.600763 -514.797995 L 306.600763 -514.502586 L 306.403824 -514.296695 L 306.699233 -514.296695 L 306.699233 -513.804346 L 306.502293 -513.401515 L 307.299003 -513.401515 L 307.003594 -512.801745 L 306.896172 -512.398914 L 307.003594 -511.799144 L 307.397473 -512.201975 L 307.701834 -511.897614 L 307.701834 -512.398914 L 307.800304 -512.801745 L 308.203134 -512.595854 L 308.301604 -512.801745 L 308.095713 -513.195624 L 308.498544 -513.598455 L 308.901374 -513.097154 L 309.196783 -512.998685 L 309.402675 -512.497384 L 309.698084 -513.097154 L 309.796554 -512.703275 L 310.199385 -512.703275 L 310.199385 -512.300445 L 310.503746 -511.897614 L 310.100915 -511.700674 L 310.100915 -511.199374 L 310.396324 -511.199374 L 310.396324 -511.700674 L 310.799155 -511.700674 L 310.602215 -512.201975 L 310.503746 -512.595854 L 310.897625 -513.195624 L 311.300455 -513.195624 L 311.497395 -512.703275 L 312.195635 -512.703275 L 312.804357 -513.303046 L 313.601067 -513.598455 L 313.404127 -514.099755 L 313.198236 -514.099755 L 312.902827 -513.804346 L 311.998695 -513.902816 L 311.703286 -514.099755 L 311.497395 -513.902816 L 311.201986 -513.902816 L 310.396324 -514.198225 L 310.396324 -514.502586 L 310.199385 -514.601056 L 310.602215 -514.797995 L 310.799155 -514.502586 L 310.996094 -514.502586 L 311.300455 -514.601056 L 311.703286 -514.296695 L 312.303056 -514.404116 L 312.303056 -514.699526 L 311.900226 -514.797995 L 311.900226 -515.102356 L 312.598466 -515.102356 L 312.696935 -515.299296 L 313.198236 -515.496235 L 312.902827 -515.899066 L 312.902827 -516.096006 L 313.896476 -515.899066 L 313.404127 -516.301897 L 313.502597 -516.695776 L 314.102367 -516.301897 L 314.102367 -516.498836 L 313.699536 -516.803197 L 314.299307 -517.402968 L 325.900833 -511.100904 L 325.999302 -510.196773 L 325.596472 -509.901364 L 325.596472 -509.498533 L 326.097772 -509.498533 L 326.097772 -509.095702 L 330.600525 -506.096851 L 330.895934 -505.59555 L 330.600525 -505.300141 L 330.403585 -504.89731 L 330.296164 -504.19907 L 330.099224 -503.79624 L 330.099224 -503.196469 L 329.696394 -502.80259 L 329.400984 -502.10435 L 329.400984 -501.60305 L 329.696394 -501.200219 L 329.499454 -500.600449 L 330.000755 -500.197618 L 330.296164 -500.197618 L 331.200295 -499.203969 L 331.603126 -498.801138 L 331.800065 -498.299838 L 331.603126 -497.798537 L 331.298765 -497.700067 L 331.003356 -496.697466 L 331.003356 -496.097696 L 331.397235 -495.703817 L 331.298765 -495.300986 L 331.101825 -494.701216 L 330.895934 -494.101446 L 331.101825 -493.501676 L 331.298765 -493.000375 L 331.495704 -492.803436 L 331.495704 -492.400605 L 331.298765 -492.400605 L 331.603126 -491.899304 L 331.997005 -491.702365 L 331.997005 -490.896703 L 331.898535 -490.896703 L 331.898535 -490.699764 L 332.301366 -490.404355 L 332.498305 -489.401754 L 332.301366 -489.097393 L 332.301366 -488.900453 L 332.901136 -488.900453 L 333.098076 -488.399153 L 333.500906 -488.497622 L 334.199146 -488.202213 L 334.503507 -487.700913 Z M 334.396086 -487.503973 " transform="matrix(0.436365,0,0,0.436365,20.549999,337.299988)"/>
<path style="fill-rule:evenodd;fill:rgb(100%,100%,100%);fill-opacity:1;stroke-width:0.5;stroke-linecap:butt;stroke-linejoin:miter;stroke:rgb(0%,0%,0%);stroke-opacity:1;stroke-miterlimit:4;" d="M 298.096558 -512.900215 C 297.801149 -513.195624 299.099159 -513.902816 298.90222 -514.404116 C 298.90222 -515.263489 299.430375 -515.836404 300.495639 -516.096006 L 301.104361 -516.498836 C 301.39977 -516.301897 301.39977 -515.800596 301.704131 -516.096006 C 301.99954 -516.400367 302.69778 -517.402968 303.199081 -517.197076 C 302.903672 -516.803197 303.503442 -515.997536 303.897321 -515.702127 L 304.497091 -513.804346 C 304.362814 -513.195624 303.897321 -512.998685 303.100611 -513.195624 C 302.303902 -513.499985 302.09801 -512.900215 301.49824 -513.401515 C 301.39977 -512.703275 301.49824 -512.103505 300.603061 -511.799144 C 300.00329 -511.799144 299.663122 -511.897614 299.60046 -512.103505 C 299.134966 -512.631661 298.732135 -512.631661 298.400919 -512.103505 C 298.266642 -512.237782 298.168172 -512.497384 298.096558 -512.900215 " transform="matrix(0.436365,0,0,0.436365,20.549999,337.299988)"/>
<path style="fill-rule:evenodd;fill:rgb(100%,100%,100%);fill-opacity:1;stroke-width:0.5;stroke-linecap:butt;stroke-linejoin:miter;stroke:rgb(0%,0%,0%);stroke-opacity:1;stroke-miterlimit:4;" d="M 298.400919 -512.103505 C 298.90222 -513.195624 299.50199 -511.996084 299.698929 -511.996084 C 301.202831 -511.799144 301.202831 -512.103505 301.49824 -513.499985 C 302.303902 -512.900215 301.99954 -513.499985 303.700382 -513.097154 C 303.39602 -513.097154 302.69778 -512.300445 303.199081 -512.300445 C 302.79625 -511.199374 303.700382 -511.199374 304.300152 -511.297844 C 303.995791 -510.903965 304.801452 -510.698073 303.995791 -510.304194 C 303.503442 -509.999833 303.503442 -510.304194 303.503442 -509.597003 L 302.903672 -509.498533 C 302.79625 -509.301593 303.199081 -508.898763 303.100611 -508.898763 C 303.100611 -508.764486 302.903672 -508.495932 302.500841 -508.102053 C 302.09801 -507.699222 301.668324 -507.368006 301.202831 -507.099452 L 300.495639 -506.902512 L 299.50199 -508.701823 C 299.50199 -509.229979 299.40352 -509.767087 299.197629 -510.304194 L 299.197629 -511.199374 C 298.866412 -511.467928 298.597858 -511.799144 298.400919 -512.201975 " transform="matrix(0.436365,0,0,0.436365,20.549999,337.299988)"/>
</g>
</svg>
