<?xml version="1.0" encoding="UTF-8"?>
<svg xmlns="http://www.w3.org/2000/svg" xmlns:xlink="http://www.w3.org/1999/xlink" width="px" height="px" viewBox="0 0 320 240" version="1.1">
<g id="surface1">
<path style=" stroke:none;fill-rule:nonzero;fill:rgb(0%,0%,0.392157%);fill-opacity:1;" d="M 0 160 L 320 160 L 320 240 L 0 240 Z M 0 160 "/>
<path style=" stroke:none;fill-rule:nonzero;fill:rgb(100%,100%,100%);fill-opacity:1;" d="M 0 80 L 320 80 L 320 160 L 0 160 Z M 0 80 "/>
<path style=" stroke:none;fill-rule:nonzero;fill:rgb(80.784315%,6.666667%,14.901961%);fill-opacity:1;" d="M 0 0 L 320 0 L 320 80 L 0 80 Z M 0 0 "/>
<path style="fill-rule:nonzero;fill:rgb(100%,100%,100%);fill-opacity:1;stroke-width:1.3;stroke-linecap:butt;stroke-linejoin:round;stroke:rgb(75.294119%,57.647061%,0%);stroke-opacity:1;stroke-miterlimit:4;" d="M 450.800775 302.402339 L 519.296867 365.996088 L 514.404289 250.498043 C 513.701164 232.998043 498.496086 237.00195 487.402336 243.300778 C 476.298821 250.498043 463.398431 250.498043 449.999993 245.800778 C 436.5039 250.498043 423.701166 250.498043 412.59765 243.300778 C 401.601557 237.00195 386.298822 232.998043 385.595697 250.498043 L 380.703119 365.996088 Z M 450.800775 302.402339 " transform="matrix(0.4,0,0,0.4,-20,0)"/>
<path style=" stroke:none;fill-rule:nonzero;fill:rgb(75.294119%,57.647061%,0%);fill-opacity:1;" d="M 137.398438 98.601562 L 135.480469 143.519531 L 132.28125 146.398438 L 134.238281 100.199219 C 135.183594 99.476562 136.257812 98.933594 137.398438 98.601562 M 141.238281 101.800781 L 139.640625 139.398438 L 136.441406 142.679688 L 138.359375 99.28125 C 139 99.921875 140.878906 101.480469 141.238281 101.800781 M 144.71875 104.679688 L 143.480469 136.039062 L 140.878906 138.558594 L 142.480469 102.800781 C 143.121094 103.398438 144.398438 104.320312 144.71875 104.679688 M 148.519531 106.28125 L 147.28125 133 L 144.761719 135.039062 L 146 105.320312 C 146.640625 105.601562 147.878906 106.28125 148.519531 106.28125 M 152.039062 106.28125 L 151.121094 128.558594 L 148.519531 131.078125 L 149.519531 106.558594 C 150.121094 106.558594 151.761719 106.558594 152.039062 106.28125 "/>
<path style=" stroke:none;fill-rule:nonzero;fill:rgb(75.294119%,57.647061%,0%);fill-opacity:1;" d="M 182.601562 98.601562 L 184.519531 143.519531 L 187.71875 146.398438 L 185.761719 100.199219 C 184.816406 99.476562 183.742188 98.933594 182.601562 98.601562 M 178.761719 101.800781 L 180.359375 139.398438 L 183.558594 142.679688 L 181.640625 99.28125 C 181 99.921875 179.121094 101.480469 178.761719 101.800781 M 175.28125 104.679688 L 176.519531 136.039062 L 179.121094 138.558594 L 177.519531 102.800781 C 176.878906 103.398438 175.601562 104.320312 175.28125 104.679688 M 171.480469 106.28125 L 172.71875 133 L 175.238281 135.039062 L 174 105.320312 C 173.359375 105.601562 172.121094 106.28125 171.480469 106.28125 M 167.960938 106.28125 L 168.878906 128.558594 L 171.480469 131.078125 L 170.480469 106.558594 C 169.878906 106.558594 168.238281 106.558594 167.960938 106.28125 "/>
<path style="fill-rule:nonzero;fill:rgb(75.294119%,57.647061%,0%);fill-opacity:1;stroke-width:1.1;stroke-linecap:butt;stroke-linejoin:miter;stroke:rgb(75.294119%,57.647061%,0%);stroke-opacity:1;stroke-miterlimit:4;" d="M 453.203118 314.999995 L 462.802727 358.798823 L 459.599603 362.001948 L 456.298821 359.501948 L 450.898431 320.498042 L 453.203118 359.501948 L 449.999993 363.496088 L 446.90429 359.501948 L 449.199212 320.498042 L 443.701165 359.501948 L 440.400384 362.001948 L 437.197259 358.798823 L 446.796868 315.097652 L 453.203118 315.097652 Z M 453.203118 314.999995 " transform="matrix(0.4,0,0,0.4,-20,0)"/>
<path style="fill-rule:nonzero;fill:rgb(100%,100%,100%);fill-opacity:1;stroke-width:1.2;stroke-linecap:butt;stroke-linejoin:round;stroke:rgb(75.294119%,57.647061%,0%);stroke-opacity:1;stroke-miterlimit:4;" d="M 428.496087 295.800777 L 409.404291 363.496088 L 435.703119 367.499995 L 446.796868 316.601558 Z M 428.496087 295.800777 " transform="matrix(0.4,0,0,0.4,-20,0)"/>
<path style="fill:none;stroke-width:1.3;stroke-linecap:butt;stroke-linejoin:round;stroke:rgb(75.294119%,57.647061%,0%);stroke-opacity:1;stroke-miterlimit:4;" d="M 422.197259 319.003901 L 424.501947 324.501948 L 436.90429 312.695308 " transform="matrix(0.4,0,0,0.4,-20,0)"/>
<path style="fill:none;stroke-width:1.3;stroke-linecap:butt;stroke-linejoin:round;stroke:rgb(75.294119%,57.647061%,0%);stroke-opacity:1;stroke-miterlimit:4;" d="M 430.800775 304.999995 L 433.398431 329.29687 L 441.298822 318.89648 M 438.095697 322.900386 L 442.402337 337.900386 M 444.101556 332.402339 L 435.400384 345.595698 M 438.095697 358.798823 L 435.302728 345.595698 L 432.900384 332.197261 L 427.001947 340.097651 L 424.501947 330.996089 L 416.298822 339.404292 L 420.400384 354.599604 L 426.201166 345.195307 L 429.296869 354.804682 L 435.302728 345.595698 " transform="matrix(0.4,0,0,0.4,-20,0)"/>
<path style="fill:none;stroke-width:1.3;stroke-linecap:butt;stroke-linejoin:round;stroke:rgb(75.294119%,57.647061%,0%);stroke-opacity:1;stroke-miterlimit:4;" d="M 414.999994 362.001948 L 420.302728 354.501948 L 423.701166 365.996088 L 428.496087 357.998042 L 431.601556 367.597651 " transform="matrix(0.4,0,0,0.4,-20,0)"/>
<path style="fill-rule:nonzero;fill:rgb(100%,100%,100%);fill-opacity:1;stroke-width:1.2;stroke-linecap:butt;stroke-linejoin:round;stroke:rgb(75.294119%,57.647061%,0%);stroke-opacity:1;stroke-miterlimit:4;" d="M 428.496101 295.800777 L 409.404304 363.496088 L 435.703132 367.499995 L 446.796882 316.601558 Z M 428.496101 295.800777 " transform="matrix(-0.4,0,0,0.4,340.000005,0)"/>
<path style="fill:none;stroke-width:1.3;stroke-linecap:butt;stroke-linejoin:round;stroke:rgb(75.294119%,57.647061%,0%);stroke-opacity:1;stroke-miterlimit:4;" d="M 422.197273 319.003901 L 424.50196 324.501948 L 436.904304 312.695308 " transform="matrix(-0.4,0,0,0.4,340.000005,0)"/>
<path style="fill:none;stroke-width:1.3;stroke-linecap:butt;stroke-linejoin:round;stroke:rgb(75.294119%,57.647061%,0%);stroke-opacity:1;stroke-miterlimit:4;" d="M 430.800788 304.999995 L 433.398444 329.29687 L 441.298835 318.89648 M 438.09571 322.900386 L 442.402351 337.900386 M 444.101569 332.402339 L 435.400398 345.595698 M 438.09571 358.798823 L 435.302741 345.595698 L 432.900398 332.197261 L 427.00196 340.097651 L 424.50196 330.996089 L 416.298835 339.404292 L 420.400398 354.599604 L 426.201179 345.195307 L 429.296882 354.804682 L 435.302741 345.595698 " transform="matrix(-0.4,0,0,0.4,340.000005,0)"/>
<path style="fill:none;stroke-width:1.3;stroke-linecap:butt;stroke-linejoin:round;stroke:rgb(75.294119%,57.647061%,0%);stroke-opacity:1;stroke-miterlimit:4;" d="M 415.000007 362.001948 L 420.302742 354.501948 L 423.701179 365.996088 L 428.496101 357.998042 L 431.601569 367.597651 " transform="matrix(-0.4,0,0,0.4,340.000005,0)"/>
<path style="fill-rule:nonzero;fill:rgb(100%,100%,100%);fill-opacity:1;stroke-width:2.4;stroke-linecap:round;stroke-linejoin:round;stroke:rgb(75.294119%,57.647061%,0%);stroke-opacity:1;stroke-miterlimit:4;" d="M 449.999993 393.798822 C 469.999993 393.798822 489.003899 392.19726 500.195305 389.101557 C 504.902336 388.203119 504.902336 385.800776 504.902336 382.597651 C 509.697258 380.996088 507.30468 375.400385 510.595696 375.400385 C 507.197258 376.396479 506.601555 369.902338 502.597649 370.703119 C 502.597649 365.097651 496.904289 364.404291 492.197258 365.996088 C 482.695305 369.101557 465.898431 369.902338 449.999993 369.902338 C 434.0039 369.101557 417.402338 369.101557 407.802728 365.898432 C 403.095697 364.404291 397.499994 365.097651 397.499994 370.703119 C 393.496088 369.902338 392.802729 376.298823 389.501947 375.400385 C 392.802729 375.400385 390.302729 381.10351 395.09765 382.597651 C 395.09765 385.800776 395.09765 388.203119 399.902338 389.101557 C 410.898431 392.19726 430.09765 393.798822 449.999993 393.798822 " transform="matrix(0.4,0,0,0.4,-20,0)"/>
<path style="fill-rule:nonzero;fill:rgb(100%,100%,100%);fill-opacity:1;stroke-width:1.3;stroke-linecap:round;stroke-linejoin:round;stroke:rgb(75.294119%,57.647061%,0%);stroke-opacity:1;stroke-miterlimit:4;" d="M 422.900384 363.496088 C 429.296869 364.404291 436.5039 365.097651 442.099603 364.404291 C 445.302728 364.404291 447.59765 369.902338 441.201165 370.703119 C 435.703119 371.396479 426.904291 370.703119 422.197259 369.902338 C 416.015619 368.818354 409.873041 367.480463 403.798822 365.898432 C 398.203119 363.496088 402.19726 358.896479 405.400385 359.501948 C 411.113275 361.32812 416.962884 362.66601 422.900384 363.496088 M 477.099602 363.496088 C 470.703118 364.404291 463.496087 365.097651 458.095696 364.404291 C 454.697259 364.404291 452.402337 369.902338 458.798821 370.703119 C 464.40429 371.396479 473.095696 370.703119 477.802727 369.902338 C 481.796868 369.101557 490.595696 367.597651 496.201164 365.898432 C 501.796868 363.496088 497.802727 358.896479 494.599602 359.501948 C 488.886711 361.32812 483.037102 362.66601 477.099602 363.496088 " transform="matrix(0.4,0,0,0.4,-20,0)"/>
<path style="fill-rule:nonzero;fill:rgb(100%,100%,100%);fill-opacity:1;stroke-width:1.3;stroke-linecap:round;stroke-linejoin:round;stroke:rgb(75.294119%,57.647061%,0%);stroke-opacity:1;stroke-miterlimit:4;" d="M 402.998041 360.400385 C 398.203119 359.501948 395.996088 365.097651 397.499994 368.300776 C 398.203119 366.699213 401.5039 366.699213 402.19726 365.097651 C 403.095697 362.695307 401.5039 362.695307 403.095697 360.400385 Z M 422.197259 375.097651 C 422.197259 371.904291 425.302728 372.304682 425.302728 369.101557 C 425.302728 367.597651 424.501947 365.097651 422.900384 365.097651 C 421.171869 365.195307 419.794916 366.57226 419.697259 368.300776 C 419.0039 371.396479 422.197259 371.904291 422.197259 375.097651 M 444.902337 365.996088 C 449.599603 365.996088 449.101556 372.304682 446.90429 375.498041 C 446.90429 373.203119 442.900384 372.304682 442.900384 370.703119 C 442.900384 368.300776 446.5039 368.300776 444.902337 365.996088 M 496.904289 360.400385 C 501.796868 359.501948 504.101555 365.097651 502.499993 368.300776 C 501.796868 366.699213 498.496086 366.699213 497.802727 365.097651 C 496.904289 362.695307 498.496086 362.695307 496.904289 360.400385 M 477.99804 374.999994 C 477.99804 371.796869 474.80468 372.19726 474.80468 369.003901 C 474.80468 367.499995 475.595696 364.999995 477.197259 364.999995 C 478.925774 365.097651 480.302727 366.474604 480.400383 368.20312 C 481.103508 371.298823 477.900384 371.796869 477.900384 374.999994 Z M 454.999993 365.996088 C 450.302728 365.996088 450.800775 372.304682 452.99804 375.498041 C 452.99804 373.203119 457.001946 372.304682 457.001946 370.703119 C 457.001946 368.300776 453.398431 368.300776 454.999993 365.996088 " transform="matrix(0.4,0,0,0.4,-20,0)"/>
<path style="fill-rule:nonzero;fill:rgb(100%,100%,100%);fill-opacity:1;stroke-width:0.9;stroke-linecap:round;stroke-linejoin:round;stroke:rgb(75.294119%,57.647061%,0%);stroke-opacity:1;stroke-miterlimit:4;" d="M 404.69726 362.001948 C 406.298822 362.001948 408.701166 362.695307 409.404291 363.60351 Z M 412.59765 364.404291 C 413.398431 364.404291 416.601556 365.097651 418.095697 365.996088 Z M 441.201165 367.597651 C 439.697259 367.597651 436.5039 367.597651 435.703119 368.300776 L 441.201165 367.499995 Z M 432.499994 367.597651 C 431.601556 366.699213 428.496087 366.699213 426.904291 367.597651 Z M 495.302727 362.001948 C 493.603508 362.021479 491.953118 362.57812 490.595696 363.60351 Z M 487.499993 364.404291 C 486.503899 364.404291 483.496087 365.097651 481.90429 365.996088 Z M 458.798821 367.597651 C 460.302728 367.597651 463.496087 367.597651 464.40429 368.300776 L 458.798821 367.499995 Z M 467.499993 367.597651 C 468.398431 366.699213 471.503899 366.699213 473.095696 367.597651 Z M 467.499993 367.597651 " transform="matrix(0.4,0,0,0.4,-20,0)"/>
<path style=" stroke:none;fill-rule:nonzero;fill:rgb(75.294119%,57.647061%,0%);fill-opacity:1;" d="M 141.320312 149.839844 C 141.105469 149.761719 141.027344 149.625 141.078125 149.441406 C 141.160156 149.171875 141.292969 149.066406 141.480469 149.121094 C 141.640625 149.121094 141.839844 149.359375 141.839844 149.441406 L 141.679688 149.71875 L 141.601562 149.761719 C 141.574219 149.839844 141.480469 149.867188 141.320312 149.839844 M 163.320312 151.398438 C 163.214844 151.347656 163.132812 151.253906 163.078125 151.121094 C 163.078125 150.960938 163.320312 150.71875 163.480469 150.71875 L 163.800781 150.878906 C 163.933594 151.039062 163.921875 151.199219 163.761719 151.359375 C 163.625 151.441406 163.480469 151.441406 163.320312 151.359375 Z M 163.441406 152.398438 C 163.308594 152.347656 163.226562 152.238281 163.199219 152.078125 C 163.171875 151.921875 163.238281 151.800781 163.398438 151.71875 L 163.558594 151.640625 L 163.71875 151.71875 C 163.878906 151.773438 163.972656 151.878906 164 152.039062 C 164 152.171875 163.90625 152.28125 163.71875 152.359375 C 163.613281 152.441406 163.519531 152.441406 163.441406 152.359375 Z M 163.441406 152.398438 "/>
<path style=" stroke:none;fill-rule:nonzero;fill:rgb(75.294119%,57.647061%,0%);fill-opacity:1;" d="M 143.121094 148 C 142.933594 148.027344 142.773438 148.105469 142.640625 148.238281 C 142.398438 148.28125 142.078125 148.441406 141.839844 148.238281 C 141.601562 148.199219 141.28125 148.238281 141.238281 148.558594 C 141.28125 148.839844 141.640625 148.960938 141.878906 148.800781 C 142.039062 148.601562 142.480469 148.441406 142.558594 148.800781 C 142.359375 149.121094 142.398438 149.480469 142.238281 149.761719 C 142.214844 149.945312 142.148438 150.121094 142.039062 150.28125 C 141.828125 150.28125 141.640625 150.320312 141.480469 150.398438 C 141.226562 150.398438 140.992188 150.519531 140.839844 150.71875 C 140.652344 150.960938 140.535156 151.226562 140.480469 151.519531 C 140.519531 151.761719 140.878906 151.839844 141.121094 151.878906 L 141.921875 152.121094 L 143.199219 152.480469 C 143.839844 152.640625 144.480469 152.785156 145.121094 152.921875 L 145.320312 152.960938 C 145.601562 153.039062 145.71875 152.761719 145.71875 152.558594 L 146.121094 151.121094 C 146.199219 150.921875 146.320312 150.519531 145.960938 150.601562 C 145.773438 150.761719 145.558594 150.867188 145.320312 150.921875 C 144.960938 150.921875 145.160156 151.320312 145.320312 151.441406 C 145.320312 151.707031 145.253906 151.945312 145.121094 152.160156 C 144.878906 152.238281 144.640625 152.214844 144.398438 152.078125 C 144.199219 152.078125 143.71875 151.960938 143.921875 151.679688 L 144.121094 150.960938 C 144.199219 150.691406 144.265625 150.425781 144.320312 150.160156 C 144.160156 149.878906 143.921875 150.28125 143.71875 150.320312 C 143.519531 150.359375 143.078125 150.441406 143.320312 150.71875 C 143.558594 150.878906 143.398438 151.160156 143.320312 151.398438 C 143.320312 151.679688 143 151.800781 142.761719 151.679688 C 142.519531 151.679688 142.160156 151.480469 142.359375 151.238281 L 142.558594 150.519531 L 142.839844 149.71875 C 142.839844 149.453125 142.921875 149.214844 143.078125 149 C 143.078125 148.71875 143.28125 148.480469 143.28125 148.199219 C 143.28125 148.09375 143.226562 148.039062 143.121094 148.039062 Z M 141.640625 150.921875 L 141.761719 150.921875 C 141.839844 151 141.839844 151.078125 141.761719 151.160156 L 141.640625 151.238281 C 141.453125 151.238281 141.375 151.199219 141.398438 151.121094 C 141.398438 151.09375 141.441406 151.054688 141.519531 151 Z M 141.238281 152.921875 C 141.054688 152.785156 141.09375 152.613281 141.359375 152.398438 C 141.464844 152.320312 141.585938 152.332031 141.71875 152.441406 C 141.960938 152.601562 141.960938 152.773438 141.71875 152.960938 C 141.667969 153.039062 141.601562 153.066406 141.519531 153.039062 C 141.441406 153.011719 141.347656 152.988281 141.238281 152.960938 Z M 142.441406 153.320312 C 142.265625 153.246094 142.167969 153.066406 142.199219 152.878906 C 142.226562 152.71875 142.347656 152.652344 142.558594 152.679688 C 142.800781 152.652344 142.921875 152.746094 142.921875 152.960938 C 142.921875 153.09375 142.878906 153.1875 142.800781 153.238281 Z M 178.121094 153.320312 C 178.039062 153.292969 178 153.226562 178 153.121094 C 178 152.960938 178.105469 152.839844 178.320312 152.761719 C 178.558594 152.625 178.71875 152.652344 178.800781 152.839844 C 178.933594 153.054688 178.921875 153.214844 178.761719 153.320312 C 178.707031 153.425781 178.601562 153.464844 178.441406 153.441406 C 178.253906 153.441406 178.148438 153.414062 178.121094 153.359375 Z M 144.121094 153.800781 C 143.960938 153.773438 143.878906 153.667969 143.878906 153.480469 C 143.878906 153.375 143.90625 153.292969 143.960938 153.238281 L 144.199219 153.160156 L 144.441406 153.199219 C 144.652344 153.359375 144.691406 153.519531 144.558594 153.679688 C 144.425781 153.839844 144.265625 153.878906 144.078125 153.800781 Z M 152.839844 154.199219 L 152.761719 154.078125 C 152.761719 153.839844 152.785156 153.613281 152.839844 153.398438 C 152.839844 153.214844 152.867188 153.011719 152.921875 152.800781 L 153.078125 151.679688 C 153.078125 151.464844 153.105469 151.28125 153.160156 151.121094 C 153.160156 150.800781 153.1875 150.507812 153.238281 150.238281 C 153.238281 150.121094 153.359375 149.839844 153.480469 150 C 153.640625 150.214844 153.828125 150.414062 154.039062 150.601562 C 154.199219 150.71875 154.039062 150.878906 153.921875 150.921875 C 153.761719 151 153.691406 151.132812 153.71875 151.320312 L 153.640625 151.800781 C 153.640625 152.066406 153.613281 152.332031 153.558594 152.601562 L 153.519531 153.320312 L 153.441406 153.800781 C 153.464844 153.988281 153.414062 154.132812 153.28125 154.238281 C 153.121094 154.320312 152.988281 154.308594 152.878906 154.199219 Z M 164.71875 150.28125 L 164.199219 150.761719 C 163.960938 150.960938 164.398438 151.039062 164.441406 151.199219 C 164.519531 151.441406 164.546875 151.679688 164.519531 151.921875 C 164.601562 152.160156 164.625 152.386719 164.601562 152.601562 C 164.601562 152.878906 164.28125 152.800781 164.121094 152.960938 C 163.960938 153.066406 163.828125 153.199219 163.71875 153.359375 L 163.558594 154 C 163.558594 154.199219 163.441406 154.398438 163.558594 154.558594 L 163.601562 154.640625 L 163.800781 154.640625 L 164.398438 154.601562 C 164.90625 154.546875 165.398438 154.507812 165.878906 154.480469 L 166.761719 154.398438 C 167 154.441406 167.121094 154.199219 167.121094 154 C 166.960938 153.71875 167.078125 153.441406 166.960938 153.199219 C 166.90625 152.878906 166.878906 152.585938 166.878906 152.320312 C 166.878906 152.078125 166.601562 152 166.480469 152.160156 C 166.292969 152.265625 166.132812 152.386719 166 152.519531 C 165.878906 152.761719 166.238281 152.761719 166.320312 152.921875 L 166.359375 153.519531 C 166.398438 153.761719 166.160156 153.761719 165.960938 153.800781 C 165.71875 153.90625 165.519531 153.867188 165.359375 153.679688 C 165.308594 153.492188 165.28125 153.292969 165.28125 153.078125 C 165.253906 152.707031 165.214844 152.347656 165.160156 152 C 165.105469 151.601562 165.066406 151.171875 165.039062 150.71875 C 165.039062 150.519531 165 150.238281 164.71875 150.28125 M 164.480469 153.558594 L 164.601562 153.558594 L 164.601562 153.878906 L 164.480469 153.921875 L 164.320312 153.960938 L 164.238281 153.960938 C 164.160156 153.878906 164.171875 153.773438 164.28125 153.640625 Z M 152.480469 149.878906 C 152.359375 149.878906 152.160156 150.160156 152 150.121094 C 151.640625 150.160156 151.679688 150.519531 151.960938 150.640625 L 151.960938 150.960938 C 152 151.28125 151.800781 151.558594 151.839844 151.878906 C 151.8125 152.199219 151.773438 152.546875 151.71875 152.921875 C 151.613281 153.292969 151.558594 153.652344 151.558594 154 C 151.519531 154.320312 151.28125 154.199219 151.078125 154.121094 L 151.078125 153.71875 C 151.078125 153.398438 150.921875 153.238281 150.601562 153.238281 C 150.332031 153.214844 150.226562 153.066406 150.28125 152.800781 C 150.441406 152.691406 150.640625 152.652344 150.878906 152.679688 C 151.28125 152.761719 151.238281 152.238281 151.039062 152.039062 C 150.839844 151.839844 150.558594 151.640625 150.480469 151.398438 C 150.480469 151.054688 150.320312 150.773438 150 150.558594 C 149.558594 150.519531 149.199219 150.878906 149.078125 151.28125 C 148.867188 151.28125 148.679688 151.332031 148.519531 151.441406 C 148.238281 151.519531 147.839844 152 148.238281 152.199219 C 148.441406 152.238281 149.121094 152.398438 148.800781 152.679688 C 148.613281 152.945312 148.359375 153.027344 148.039062 152.921875 C 147.761719 152.921875 147.441406 152.761719 147.441406 152.441406 C 147.441406 152.121094 147.386719 151.8125 147.28125 151.519531 C 147.199219 151.199219 146.839844 151.28125 146.800781 151.601562 C 146.535156 151.867188 146.519531 152.132812 146.761719 152.398438 C 146.839844 152.71875 146.800781 153.011719 146.640625 153.28125 C 146.558594 153.679688 146.160156 153.679688 145.878906 153.761719 C 145.761719 153.839844 145.238281 153.761719 145.441406 154.039062 C 145.738281 154.179688 146.074219 154.21875 146.398438 154.160156 C 146.71875 154.105469 146.988281 153.921875 147.199219 153.601562 C 147.398438 153.398438 147.761719 153.519531 148.078125 153.519531 C 148.359375 153.519531 148.679688 153.71875 149 153.558594 C 149.078125 153.359375 149.480469 152.960938 149.601562 153.359375 C 149.652344 153.734375 149.851562 153.894531 150.199219 153.839844 C 150.558594 153.839844 150.398438 154.078125 150.398438 154.320312 C 150.453125 154.667969 150.652344 154.90625 151 155.039062 L 151.320312 155.039062 C 151.640625 154.960938 151.878906 154.773438 152.039062 154.480469 C 152.121094 154.1875 152.1875 153.894531 152.238281 153.601562 C 152.320312 153.148438 152.375 152.691406 152.398438 152.238281 C 152.480469 151.839844 152.535156 151.414062 152.558594 150.960938 L 152.679688 150.039062 C 152.679688 149.878906 152.613281 149.828125 152.480469 149.878906 M 149.800781 151.519531 C 149.851562 151.519531 149.878906 151.585938 149.878906 151.71875 C 149.878906 151.851562 149.945312 151.960938 150.078125 152.039062 L 150.078125 152.160156 L 149.761719 152.238281 C 149.574219 152.238281 149.414062 152.171875 149.28125 152.039062 L 149.199219 151.960938 L 149.320312 151.878906 L 149.519531 151.679688 C 149.625 151.574219 149.71875 151.519531 149.800781 151.519531 M 176.199219 148.359375 L 175.519531 148.480469 C 175.121094 148.480469 174.921875 148.878906 175.320312 149.121094 C 175.558594 149.71875 175.921875 148.960938 176.320312 149.039062 C 176.878906 149.121094 176.921875 149.761719 177.039062 150.238281 C 177.066406 150.667969 177.160156 151.105469 177.320312 151.558594 C 177.71875 152 177.039062 152.28125 176.761719 151.960938 C 176.519531 151.679688 175.960938 151.359375 175.679688 151.71875 C 175.320312 151.878906 175.28125 152.359375 175 152.519531 C 174.519531 152.640625 174.480469 152.039062 174.199219 151.800781 C 173.960938 151.441406 173.519531 151.398438 173.160156 151.320312 C 173 150.960938 173.078125 150.359375 172.761719 150.121094 C 172.441406 150.238281 171.878906 150.800781 172.359375 151.078125 C 172.761719 151.480469 172.160156 151.640625 171.960938 151.878906 C 171.667969 152.253906 171.535156 152.652344 171.558594 153.078125 C 171.039062 153.359375 170.960938 152.761719 170.878906 152.398438 C 170.878906 151.960938 170.480469 152.078125 170.199219 152.238281 C 169.851562 152.453125 169.585938 152.71875 169.398438 153.039062 L 169.398438 153.839844 C 169.480469 154.199219 169.878906 154.039062 170.121094 154 C 170.519531 153.839844 170.679688 154.28125 170.359375 154.519531 C 170.121094 154.761719 169.480469 154.640625 169.558594 155.078125 L 170.199219 155.078125 C 170.601562 154.960938 171.078125 154.640625 171.121094 154.160156 C 171.199219 153.761719 171.800781 153.800781 172.121094 153.71875 C 172.519531 153.601562 173.039062 153.558594 173.160156 154.121094 C 173.441406 154.398438 174.039062 154.71875 174.359375 154.320312 C 174.707031 154.160156 174.894531 153.773438 174.800781 153.398438 C 174.761719 153.078125 175.320312 153.078125 175.480469 153.28125 C 175.679688 153.601562 176.320312 153.519531 176.640625 153.28125 C 176.960938 153.039062 177.039062 152.640625 177.519531 152.640625 L 179.679688 152.039062 C 180.238281 151.921875 179.601562 151.558594 179.441406 151.320312 C 179.039062 151.121094 178.640625 152 178.160156 151.558594 C 177.761719 151.28125 177.800781 150.761719 177.679688 150.320312 C 177.558594 149.761719 177.601562 149.121094 177.199219 148.71875 C 176.933594 148.453125 176.601562 148.332031 176.199219 148.359375 M 173.480469 152.160156 C 173.535156 152.160156 173.601562 152.1875 173.679688 152.238281 C 173.839844 152.347656 173.933594 152.480469 173.960938 152.640625 C 173.960938 152.691406 173.921875 152.734375 173.839844 152.761719 L 173.640625 152.839844 C 173.507812 152.8125 173.414062 152.746094 173.359375 152.640625 L 173.359375 152.480469 C 173.28125 152.347656 173.28125 152.265625 173.359375 152.238281 Z M 176.078125 152.320312 C 176.214844 152.320312 176.320312 152.359375 176.398438 152.441406 C 176.453125 152.574219 176.398438 152.679688 176.238281 152.761719 L 176.039062 152.839844 L 175.878906 152.71875 C 175.800781 152.691406 175.761719 152.640625 175.761719 152.558594 C 175.785156 152.425781 175.894531 152.332031 176.078125 152.28125 Z M 172.480469 152.320312 C 172.558594 152.320312 172.613281 152.347656 172.640625 152.398438 C 172.71875 152.453125 172.761719 152.535156 172.761719 152.640625 L 172.761719 152.878906 C 172.8125 152.960938 172.734375 152.988281 172.519531 152.960938 C 172.199219 152.921875 172.238281 152.960938 172.238281 152.71875 C 172.238281 152.585938 172.28125 152.492188 172.359375 152.441406 C 172.441406 152.386719 172.492188 152.359375 172.519531 152.359375 Z M 170.320312 152.921875 L 170.480469 153.078125 C 170.480469 153.1875 170.453125 153.265625 170.398438 153.320312 C 170.238281 153.375 170.105469 153.375 170 153.320312 L 170 153.28125 C 169.921875 153.226562 169.921875 153.1875 170 153.160156 L 170 153.121094 L 170.078125 153 C 170.148438 152.949219 170.234375 152.921875 170.320312 152.921875 M 174 153.398438 L 174.199219 153.441406 L 174.199219 153.679688 L 173.71875 153.679688 L 173.679688 153.601562 C 173.679688 153.519531 173.707031 153.464844 173.761719 153.441406 Z M 167.160156 155.320312 C 167.078125 155.320312 167.066406 155.292969 167.121094 155.238281 C 167.199219 155.132812 167.308594 155.054688 167.441406 155 C 167.660156 154.925781 167.855469 154.785156 168 154.601562 C 168.054688 154.464844 168.105469 154.332031 168.160156 154.199219 L 168.121094 153.640625 C 168.058594 153.476562 167.949219 153.335938 167.800781 153.238281 C 167.640625 153.238281 167.535156 153.160156 167.480469 153 C 167.507812 152.894531 167.558594 152.773438 167.640625 152.640625 L 167.878906 152.160156 C 168.039062 152.078125 168.148438 152.105469 168.199219 152.238281 L 168.398438 152.640625 C 168.507812 152.746094 168.585938 152.878906 168.640625 153.039062 C 168.71875 153.199219 168.773438 153.332031 168.800781 153.441406 L 168.878906 153.960938 C 168.878906 154.171875 168.851562 154.386719 168.800781 154.601562 L 168.558594 154.921875 C 168.453125 155.054688 168.320312 155.148438 168.160156 155.199219 C 168.054688 155.28125 167.933594 155.332031 167.800781 155.359375 L 167.199219 155.359375 Z M 164.398438 155.480469 C 164.320312 155.425781 164.28125 155.347656 164.28125 155.238281 C 164.28125 155.078125 164.28125 155.121094 164.398438 155 C 164.507812 154.839844 164.691406 154.839844 164.960938 155 C 165.226562 155.160156 165.359375 155.171875 165.359375 155.039062 C 165.414062 154.933594 165.546875 154.867188 165.761719 154.839844 L 165.960938 154.921875 C 166.039062 154.972656 166.078125 155.066406 166.078125 155.199219 C 166.078125 155.398438 166.078125 155.398438 165.960938 155.519531 C 165.878906 155.574219 165.785156 155.601562 165.679688 155.601562 C 165.539062 155.582031 165.417969 155.492188 165.359375 155.359375 C 165.359375 155.253906 165.332031 155.238281 165.28125 155.320312 L 165.199219 155.359375 C 165.09375 155.386719 164.988281 155.453125 164.878906 155.558594 L 164.679688 155.601562 C 164.574219 155.601562 164.480469 155.558594 164.398438 155.480469 M 156.480469 151.921875 C 156.160156 151.945312 155.960938 152.121094 155.878906 152.441406 C 155.960938 152.71875 156.199219 153.039062 156.039062 153.320312 C 156.160156 153.71875 155.71875 153.878906 155.441406 153.679688 C 155.332031 153.28125 155.160156 152.878906 154.921875 152.480469 C 154.601562 152.398438 154.480469 152.921875 154.238281 153.121094 C 154.359375 153.398438 154.679688 153.679688 154.71875 154.039062 C 154.746094 154.464844 154.601562 154.785156 154.28125 155 C 154 155.28125 153.601562 155.199219 153.28125 155.238281 C 152.878906 155.480469 153.558594 155.558594 153.761719 155.558594 C 154.1875 155.640625 154.585938 155.535156 154.960938 155.238281 C 155.238281 155.121094 155.199219 154.558594 155.558594 154.519531 L 157.480469 154.640625 C 157.800781 154.71875 158.320312 154.601562 158.558594 154.839844 C 158.558594 155.238281 158.960938 155.558594 159.320312 155.71875 C 159.519531 155.800781 159.71875 155.519531 159.921875 155.480469 C 160.320312 155.359375 160.199219 154.878906 160.441406 154.679688 L 162.441406 154.679688 C 162.519531 154.679688 162.558594 154.480469 162.679688 154.398438 L 162.601562 153.640625 C 162.480469 153.320312 162.601562 152.921875 162.398438 152.640625 C 162.039062 152.558594 161.761719 152.839844 161.441406 152.878906 C 161.011719 153.066406 160.773438 153.375 160.71875 153.800781 C 160.519531 154.160156 160.160156 153.71875 160.320312 153.398438 L 160.28125 153 C 160.078125 152.800781 159.71875 152.878906 159.441406 152.839844 L 158.238281 152.761719 C 157.839844 152.785156 157.480469 152.773438 157.160156 152.71875 C 156.761719 152.71875 156.761719 152.320312 156.761719 152 Z M 157.28125 153.398438 L 157.679688 153.441406 L 158.199219 153.441406 C 158.601562 153.519531 159 153.546875 159.398438 153.519531 C 159.480469 153.519531 159.558594 153.574219 159.640625 153.679688 L 159.640625 154.480469 C 159.640625 154.613281 159.613281 154.71875 159.558594 154.800781 L 159.480469 154.878906 L 159.199219 154.679688 L 159.199219 154.121094 L 158.921875 154 L 157.878906 153.960938 L 157.078125 153.921875 C 156.945312 153.921875 156.828125 153.867188 156.71875 153.761719 C 156.667969 153.652344 156.71875 153.558594 156.878906 153.480469 Z M 161.800781 153.519531 C 161.851562 153.519531 161.878906 153.558594 161.878906 153.640625 L 161.960938 153.839844 C 161.960938 153.894531 161.933594 153.921875 161.878906 153.921875 C 161.667969 154 161.507812 154 161.398438 153.921875 C 161.398438 153.839844 161.425781 153.761719 161.480469 153.679688 Z M 161.800781 153.519531 "/>
<path style="fill-rule:nonzero;fill:rgb(100%,100%,100%);fill-opacity:1;stroke-width:1.1;stroke-linecap:butt;stroke-linejoin:miter;stroke:rgb(75.294119%,57.647061%,0%);stroke-opacity:1;stroke-miterlimit:4;" d="M 449.999993 327.197261 C 482.597649 302.197261 479.80468 265.400387 479.80468 265.400387 L 477.30468 265.595699 C 470.400384 265.595699 454.101556 261.601559 450.302728 256.699215 C 446.298821 261.201168 429.501947 265.703121 422.695306 265.703121 L 420.195306 265.400387 C 420.195306 265.400387 417.304681 302.099605 449.999993 327.197261 Z M 449.999993 327.197261 " transform="matrix(0.4,0,0,0.4,-20,0)"/>
<path style="fill-rule:nonzero;fill:rgb(100%,100%,100%);fill-opacity:1;stroke-width:0.9;stroke-linecap:butt;stroke-linejoin:miter;stroke:rgb(75.294119%,57.647061%,0%);stroke-opacity:1;stroke-miterlimit:4;" d="M 477.197259 267.998043 L 476.396477 267.998043 C 470.195305 267.998043 455.800774 264.90234 450.195306 260.097652 C 444.40429 264.501949 429.697259 268.095699 423.603509 268.095699 L 422.802728 267.998043 C 422.851556 274.316402 423.730462 280.605465 425.400384 286.699214 C 429.414056 301.386714 438.037103 314.394527 449.999993 323.798823 C 461.982415 314.36523 470.605462 301.318355 474.599602 286.601558 C 476.259759 280.537105 477.138665 274.287105 477.197259 267.998043 Z M 477.197259 267.998043 " transform="matrix(0.4,0,0,0.4,-20,0)"/>
<path style=" stroke:none;fill-rule:nonzero;fill:rgb(75.294119%,57.647061%,0%);fill-opacity:1;" d="M 155.761719 106 C 153.613281 106.699219 151.378906 107.105469 149.121094 107.199219 L 149.160156 108.839844 C 149.296875 110.800781 149.632812 112.746094 150.160156 114.640625 C 151.234375 118.574219 153.144531 122.230469 155.761719 125.359375 Z M 164 106 L 164 125.679688 C 166.742188 122.480469 168.738281 118.707031 169.839844 114.640625 C 170.367188 112.746094 170.703125 110.800781 170.839844 108.839844 L 170.878906 107.238281 L 170.558594 107.238281 C 169.039062 107.238281 166.398438 106.761719 164 105.960938 Z M 164 106 "/>
<path style="fill-rule:nonzero;fill:rgb(100%,100%,100%);fill-opacity:1;stroke-width:1.2;stroke-linecap:butt;stroke-linejoin:miter;stroke:rgb(75.294119%,57.647061%,0%);stroke-opacity:1;stroke-miterlimit:4;" d="M 462.304681 252.998043 C 462.99804 253.095699 461.396477 249.501949 461.396477 249.501949 C 463.203118 251.298824 469.80468 251.796871 469.80468 251.796871 C 465.800774 249.999996 461.796868 236.699215 462.304681 225.99609 C 462.695306 215.400387 460.800774 211.201169 459.296868 209.599606 C 457.304681 207.597653 450.800775 205.800778 446.601556 205.5957 C 444.101556 205.498044 444.599603 207.402341 444.599603 207.402341 C 440.09765 206.298825 435.595697 205.800778 433.603509 207.197263 C 431.796869 208.398434 431.396478 214.697262 432.802728 213.603512 C 436.103509 210.898434 439.0039 213.398434 440.996087 216.298825 C 442.802728 218.798825 442.695306 225.99609 440.09765 234.50195 C 437.792962 240.927731 434.414056 246.914059 430.09765 252.197262 C 434.101556 252.197262 439.697259 248.701168 439.697259 248.701168 L 438.398431 254.199215 C 442.59765 252.197262 445.898431 249.101559 445.898431 249.101559 L 449.902337 253.300777 C 451.201165 251.503903 453.896478 249.101559 453.896478 249.101559 C 453.896478 249.101559 457.197259 252.597652 462.304681 253.095699 Z M 462.304681 252.998043 " transform="matrix(0.4,0,0,0.4,-20,0)"/>
<path style="fill:none;stroke-width:1.3;stroke-linecap:butt;stroke-linejoin:miter;stroke:rgb(75.294119%,57.647061%,0%);stroke-opacity:1;stroke-miterlimit:4;" d="M 446.103509 227.597653 C 446.103509 227.597653 443.896478 244.003903 439.697259 248.603512 M 449.697259 227.099606 C 449.697259 227.099606 448.701165 243.798824 445.898431 249.101559 M 452.802728 227.802731 C 452.802728 227.802731 452.802728 245.99609 453.798821 249.101559 M 456.796868 228.701168 C 456.796868 228.701168 457.597649 244.003903 461.396477 249.501949 " transform="matrix(0.4,0,0,0.4,-20,0)"/>
<path style="fill-rule:nonzero;fill:rgb(75.294119%,57.647061%,0%);fill-opacity:1;stroke-width:0.3;stroke-linecap:butt;stroke-linejoin:miter;stroke:rgb(75.294119%,57.647061%,0%);stroke-opacity:1;stroke-miterlimit:4;" d="M 442.001947 219.599606 C 441.914056 218.437497 441.572259 217.31445 440.996087 216.298825 C 439.0039 213.300778 436.103509 210.898434 432.802728 213.603512 C 432.802728 213.603512 433.896478 210.097653 436.396478 209.999997 C 438.203118 209.902341 442.499993 211.396481 446.298821 217.802731 C 446.298821 217.802731 443.496087 217.197262 442.802728 217.802731 C 441.601556 218.798825 442.099603 219.599606 442.099603 219.599606 Z M 442.001947 219.599606 " transform="matrix(0.4,0,0,0.4,-20,0)"/>
<path style="fill-rule:nonzero;fill:rgb(75.294119%,57.647061%,0%);fill-opacity:1;stroke-width:0.3;stroke-linecap:butt;stroke-linejoin:miter;stroke:rgb(75.294119%,57.647061%,0%);stroke-opacity:1;stroke-miterlimit:4;" d="M 432.402337 209.296872 C 432.666009 208.232419 433.095697 207.529294 433.701165 207.197263 C 435.703119 205.800778 440.09765 206.201169 444.599603 207.402341 C 444.599603 207.402341 444.199212 205.498044 446.601556 205.5957 C 450.800775 205.800778 457.197259 207.597653 459.199212 209.599606 C 459.833978 210.302731 460.34179 211.113278 460.703118 212.00195 C 459.697259 210.5957 456.90429 210.703122 456.201165 210.800778 C 455.195306 210.898434 454.501946 210.800778 453.095696 211.201169 C 452.304681 211.396481 451.533196 211.669919 450.800775 212.00195 C 450.400384 212.402341 449.999993 213.603512 449.40429 213.603512 C 448.398431 213.603512 448.398431 213.398434 448.095696 213.0957 C 447.832025 212.431637 447.52929 212.099606 447.197259 212.099606 C 446.132806 212.236325 444.462884 211.396481 442.197259 209.599606 C 439.902337 207.802731 439.0039 207.402341 436.201165 207.597653 C 433.203119 207.802731 432.402337 209.50195 432.402337 209.50195 Z M 432.402337 209.296872 " transform="matrix(0.4,0,0,0.4,-20,0)"/>
<path style=" stroke:none;fill-rule:nonzero;fill:rgb(100%,100%,100%);fill-opacity:1;" d="M 160 84.28125 C 160 84.015625 159.785156 83.800781 159.519531 83.800781 C 159.253906 83.800781 159.039062 84.015625 159.039062 84.28125 C 159.039062 84.546875 159.253906 84.761719 159.519531 84.761719 C 159.785156 84.761719 160 84.546875 160 84.28125 Z M 160 84.28125 "/>
</g>
</svg>
