<?xml version="1.0" encoding="UTF-8"?>
<svg xmlns="http://www.w3.org/2000/svg" xmlns:xlink="http://www.w3.org/1999/xlink" width="px" height="px" viewBox="0 0 320 240" version="1.1">
<g id="surface1">
<path style=" stroke:none;fill-rule:evenodd;fill:rgb(0%,0%,0.392157%);fill-opacity:1;" d="M 0 0 L 320.023438 0 L 320.023438 119.992188 L 0 119.992188 Z M 0 0 "/>
<path style=" stroke:none;fill-rule:evenodd;fill:rgb(0%,47.843137%,23.921569%);fill-opacity:1;" d="M 0 119.992188 L 320.023438 119.992188 L 320.023438 239.980469 L 0 239.980469 Z M 0 119.992188 "/>
<path style=" stroke:none;fill-rule:evenodd;fill:rgb(100%,100%,100%);fill-opacity:1;" d="M 0 69.984375 L 320.023438 69.984375 L 320.023438 170 L 0 170 Z M 0 69.984375 "/>
<path style=" stroke:none;fill-rule:evenodd;fill:rgb(76.862746%,6.666667%,10.588235%);fill-opacity:1;" d="M 0 0 L 159.988281 119.992188 L 0 239.980469 Z M 0 0 "/>
<path style=" stroke:none;fill-rule:evenodd;fill:rgb(76.862746%,6.666667%,10.588235%);fill-opacity:1;" d="M 271.988281 119.992188 C 271.988281 102.3125 257.65625 87.984375 239.980469 87.984375 C 222.304688 87.984375 207.972656 102.3125 207.972656 119.992188 C 207.972656 137.667969 222.304688 151.996094 239.980469 151.996094 C 257.65625 151.996094 271.988281 137.667969 271.988281 119.992188 Z M 271.988281 119.992188 "/>
<path style=" stroke:none;fill-rule:evenodd;fill:rgb(100%,100%,100%);fill-opacity:1;" d="M 284.019531 119.992188 C 284.019531 102.3125 269.691406 87.984375 252.011719 87.984375 C 234.335938 87.984375 220.007812 102.3125 220.007812 119.992188 C 220.007812 137.667969 234.335938 151.996094 252.011719 151.996094 C 269.691406 151.996094 284.019531 137.667969 284.019531 119.992188 Z M 284.019531 119.992188 "/>
<path style=" stroke:none;fill-rule:evenodd;fill:rgb(76.862746%,6.666667%,10.588235%);fill-opacity:1;" d="M 231.378906 139.355469 L 245.058594 129.625 L 258.59375 139.496094 L 253.515625 123.515625 L 267.148438 113.691406 L 250.367188 113.597656 L 245.199219 97.617188 L 239.933594 113.550781 L 223.15625 113.457031 L 236.644531 123.421875 L 231.425781 139.402344 Z M 231.378906 139.355469 "/>
</g>
</svg>
