<?xml version="1.0" encoding="UTF-8"?>
<svg xmlns="http://www.w3.org/2000/svg" xmlns:xlink="http://www.w3.org/1999/xlink" width="px" height="px" viewBox="0 0 320 240" version="1.1">
<g id="surface1">
<rect x="0" y="0" width="320" height="240" style="fill:rgb(74.509805%,0%,15.294118%);fill-opacity:1;stroke:none;"/>
<path style=" stroke:none;fill-rule:evenodd;fill:rgb(70.588237%,84.313726%,95.686275%);fill-opacity:1;" d="M 0 240 L 320 239.851562 L 320 120 Z M 0 240 "/>
<path style=" stroke:none;fill-rule:evenodd;fill:rgb(13.725491%,61.960787%,27.450982%);fill-opacity:1;" d="M 0 0 L 320 0.148438 L 320 120 Z M 0 0 "/>
<path style=" stroke:none;fill-rule:evenodd;fill:rgb(95.294118%,88.627452%,58.431375%);fill-opacity:1;" d="M 93.101562 180.199219 C 87.75 181.699219 84.699219 185.851562 84.75 189.75 L 111.148438 189.648438 C 111.351562 185.449219 107.898438 181.550781 102.648438 180 C 128.449219 179.5 150.851562 169.800781 154.949219 163.601562 C 150.949219 161.851562 146.25 164.648438 142.949219 164 C 150.800781 160.351562 174.449219 145.050781 170.601562 128.648438 C 167.601562 137.75 158.601562 145.300781 154.699219 147.351562 C 163.550781 133.949219 175.601562 119.949219 165.148438 109.148438 C 165.648438 115.398438 161.148438 122.300781 159.148438 122.851562 C 164.300781 108.648438 169.148438 90.851562 158.101562 79.148438 C 159.550781 83.398438 158.949219 95.351562 156.949219 95.898438 C 156.351562 86.25 154.699219 66 144.550781 66.25 C 147.75 69.148438 149.148438 76.949219 149.25 84.851562 C 147.171875 79.390625 143.496094 74.683594 138.699219 71.351562 C 133.6875 62.667969 126.546875 55.40625 117.949219 50.25 C 118.851562 56.601562 119.601562 61.601562 128.449219 68.199219 C 123.851562 67.898438 119.25 59.148438 114.300781 58.898438 C 110.351562 58.699219 107.300781 62.449219 100.851562 60.300781 C 101.550781 62.398438 104.550781 63.351562 105.199219 64.898438 C 103.800781 65.898438 100.550781 64.75 97.851562 63.398438 C 101.601562 68.398438 107.351562 71.398438 112.25 70.398438 C 118.101562 69.300781 124.351562 69.898438 130.351562 73.300781 C 126.648438 74.074219 122.835938 74.175781 119.101562 73.601562 C 122.550781 77.101562 124.851562 79.449219 130.898438 79.398438 C 136.25 79.398438 139.101562 76.5 140.449219 78.300781 C 143.851562 82.300781 146.101562 86.300781 148.949219 91 C 142.699219 91.648438 144.601562 83.949219 137.648438 80 C 133.699219 88 142.148438 97.601562 147.800781 101.601562 C 147.640625 107.066406 148.859375 112.480469 151.351562 117.351562 C 153.101562 120.601562 155.351562 123.949219 154.5 131.300781 C 151.050781 128.800781 147.75 120.398438 149 113.75 C 144.699219 114.898438 143 122.449219 145 126.25 C 146.5 129.101562 147.5 134.648438 145.800781 137.101562 C 144.101562 139.398438 143.949219 139.101562 143.949219 144.101562 C 144 147 142.351562 150.5 139.699219 152.949219 C 140.46875 150.390625 140.65625 147.691406 140.25 145.050781 C 138.148438 148.648438 132.800781 152.351562 131.148438 156.25 C 129.5 160.148438 129.101562 166.851562 121.148438 168.398438 C 110.851562 170.398438 107.300781 172.199219 100.75 174.898438 C 100 169.898438 102.199219 159.398438 106.398438 160.050781 C 110.449219 160.75 122.898438 155.75 118.398438 145.300781 C 117.550781 148.601562 114.648438 151.800781 111.449219 151.949219 C 114.898438 147.550781 120.949219 142.949219 118 135.550781 C 116.203125 139.269531 113.375 142.394531 109.851562 144.550781 C 114.050781 136.550781 110.351562 134.050781 105.351562 140.75 C 103.449219 143.300781 102.300781 148.449219 101.101562 155 C 99.101562 149.699219 99.25 142.699219 96.898438 137 C 94.5 130.851562 100.148438 129.25 102.800781 129.75 C 109.300781 131.5 120.25 131.5 119.449219 120.699219 C 116.601562 124.351562 111.699219 125.449219 106.351562 124.199219 C 112.351562 119.800781 117.050781 111.550781 110.351562 107.199219 C 109.742188 112.382812 106.566406 116.910156 101.898438 119.25 C 100.832031 115.191406 100.777344 110.933594 101.75 106.851562 C 99.148438 109.648438 97.25 115.351562 95.699219 121.949219 C 95.550781 115.449219 96.800781 110.800781 97.699219 107.300781 C 99.101562 102.25 102.5 105.550781 107.699219 105.898438 C 112.800781 106.199219 119.699219 103.398438 118.398438 96.550781 C 116.699219 99.300781 113.148438 100.351562 109.550781 100.050781 C 113.898438 97.398438 121.449219 92.75 117.300781 85.550781 C 115.550781 88.25 115 90.550781 109.949219 91.398438 C 111.25 88.398438 111.449219 84.050781 115.449219 82.398438 C 108.449219 80.949219 104.449219 85.550781 102.351562 92.75 C 101.550781 87.75 100.550781 85.949219 100.351562 82.25 C 104.148438 78.101562 104.550781 69.851562 96.351562 68.050781 C 95.8125 70.953125 96.019531 73.945312 96.949219 76.75 C 93.101562 74.449219 87.699219 73.199219 84.050781 76.398438 C 86.550781 79.050781 90.300781 81.398438 96.148438 78.5 C 94.75 83 91.148438 82.25 86.25 80.5 C 89.25 86.148438 93.050781 87.148438 97.25 86.5 C 99.449219 92.300781 99.550781 96.699219 93.101562 105.101562 C 93.398438 99.898438 93.050781 96 88.898438 91.75 C 85.300781 88.25 82.398438 91.898438 88 99.648438 C 84.601562 97.148438 80.800781 92.148438 79.648438 87.101562 C 78.550781 93.300781 79.550781 100.648438 83 104.800781 C 81.351562 106.550781 79.5 104.601562 76.75 100.300781 C 77.75 114 83.601562 116.648438 91.449219 113.601562 C 91.648438 121.101562 91.648438 128.050781 92.101562 137.101562 C 87.550781 130.5 81.75 125.601562 78.550781 124.398438 C 77.550781 128.050781 81.300781 132.898438 83.449219 135.550781 C 80.199219 134.851562 73.199219 129.550781 73.199219 129.550781 C 72.5 135.601562 80.351562 141.25 85.449219 143.75 C 79.449219 143.5 76.800781 141.25 72.949219 137.550781 C 73.050781 154.449219 91.25 151.5 94.699219 148.898438 L 96.199219 175.148438 C 91.050781 174.25 91.449219 172.648438 87.050781 172.300781 C 74.800781 171.800781 65.101562 157.601562 61.898438 147.148438 C 60.949219 148.851562 61.699219 150.648438 60.851562 152.800781 C 58.851562 147.648438 56.351562 141 52.898438 137.898438 C 53.800781 140.898438 53.898438 143.949219 53.601562 149.550781 C 52.398438 145.949219 51.351562 144.800781 51.25 140.550781 C 51.300781 137.300781 54.398438 134.898438 54.25 130.300781 C 54.101562 126.949219 51.050781 119.648438 50.601562 114.050781 C 49.101562 119.851562 48.199219 125.949219 45.898438 129.550781 C 47.050781 123.351562 46.699219 119.050781 48.601562 114.898438 C 50.800781 110.550781 52.648438 106.601562 51.199219 102.199219 C 49.800781 103.898438 50.25 105.449219 46.699219 109.601562 C 45.949219 105.101562 51.300781 97.851562 56.5 94.949219 C 60.148438 93.050781 64.75 86.148438 61.75 81.449219 C 58.300781 83.949219 56.75 87.25 51.898438 92.949219 C 55.398438 79.449219 64.398438 75.851562 75.148438 75.800781 C 77.5 75.800781 82.300781 74.949219 83.648438 71.800781 C 80.648438 72.949219 77.050781 73.101562 73.851562 72.5 C 76.199219 69.050781 81.050781 69.5 85.648438 69.5 C 89.199219 69.5 94.800781 69 97.050781 63.898438 C 92.109375 65.820312 86.691406 66.152344 81.550781 64.851562 C 88.398438 61.351562 99.050781 60.949219 104.550781 56.300781 C 98.300781 51.648438 82.699219 57.398438 72.851562 64.148438 C 75.601562 61.648438 79.949219 57.148438 82.351562 53.550781 C 76.949219 50.949219 63.351562 66.050781 58.648438 75.050781 C 54.148438 77.550781 52.398438 81.550781 50.648438 84.300781 C 53 76.25 53.25 70.398438 55.25 63.800781 C 40 69 46.300781 97.300781 43 104.101562 C 43.398438 96.601562 43.050781 87.050781 40 82.101562 C 35.300781 85.699219 34.898438 106.851562 39.300781 124.449219 C 37.699219 119.75 34.699219 115.351562 33.75 109.601562 C 26.75 122.300781 37.851562 137.351562 47.101562 149.199219 C 40.101562 145.550781 33.25 137.75 28.699219 131.199219 C 29.949219 154 53.699219 158.699219 57.398438 164.300781 C 52.398438 161.949219 42.851562 157.351562 38.75 162.199219 C 44.445312 163.257812 49.914062 165.304688 54.898438 168.25 C 61.101562 175.949219 72.75 179.351562 93.101562 180.199219 "/>
</g>
</svg>
