<?xml version="1.0" encoding="UTF-8"?>
<svg xmlns="http://www.w3.org/2000/svg" xmlns:xlink="http://www.w3.org/1999/xlink" width="px" height="px" viewBox="0 0 320 240" version="1.1">
<g id="surface1">
<path style=" stroke:none;fill-rule:evenodd;fill:rgb(100%,77.64706%,12.941177%);fill-opacity:1;" d="M -83.109375 1.644531 L 404.75 1.644531 L 404.75 235.703125 L -83.109375 235.703125 Z M -83.109375 1.644531 "/>
<path style=" stroke:none;fill-rule:evenodd;fill:rgb(93.725491%,12.941177%,9.411765%);fill-opacity:1;" d="M -84.050781 160.976562 L 404.421875 160.976562 L 404.421875 240.640625 L -84.050781 240.640625 Z M -84.050781 160.976562 "/>
<path style=" stroke:none;fill-rule:evenodd;fill:rgb(16.078432%,54.901963%,3.137255%);fill-opacity:1;" d="M -83.109375 0 L 404.75 0 L 404.75 84.601562 L -83.109375 84.601562 Z M -83.109375 0 "/>
<path style=" stroke:none;fill-rule:evenodd;fill:rgb(0%,41.960785%,77.64706%);fill-opacity:1;" d="M 202.886719 124.371094 C 202.886719 96.378906 180.195312 73.6875 152.203125 73.6875 C 124.210938 73.6875 101.519531 96.378906 101.519531 124.371094 C 101.519531 152.363281 124.210938 175.054688 152.203125 175.054688 C 180.195312 175.054688 202.886719 152.363281 202.886719 124.371094 Z M 202.886719 124.371094 "/>
<path style=" stroke:none;fill-rule:evenodd;fill:rgb(100%,77.64706%,12.941177%);fill-opacity:1;" d="M 129.472656 88.453125 L 126.414062 90.570312 L 137.460938 106.078125 L 140.421875 104.199219 Z M 143.289062 125.113281 L 138.730469 121.917969 L 140.609375 115.949219 L 118.003906 116.277344 L 111.421875 111.25 L 142.300781 110.921875 L 148.035156 93.578125 L 151.136719 100.628906 Z M 179.242188 91.886719 L 176.28125 89.628906 L 164.863281 104.855469 L 167.492188 107.066406 Z M 148.507812 116.089844 L 150.152344 110.824219 L 156.402344 110.824219 L 149.257812 89.300781 L 152.078125 81.546875 L 161.714844 110.871094 L 179.949219 111.109375 L 174.214844 116.136719 Z M 191.089844 140.152344 L 192.355469 136.675781 L 174.355469 130.425781 L 173.039062 133.714844 Z M 158.609375 118.347656 L 164.109375 118.300781 L 166.035156 124.222656 L 184.273438 110.824219 L 192.546875 111.109375 L 167.589844 129.296875 L 172.992188 146.78125 L 166.414062 142.832031 Z M 149.304688 166.285156 L 153.019531 166.378906 L 153.160156 147.34375 L 149.679688 147.109375 Z M 159.644531 128.546875 L 161.429688 133.761719 L 156.402344 137.523438 L 174.921875 150.539062 L 177.269531 158.4375 L 152.078125 140.578125 L 137.273438 151.246094 L 138.917969 143.726562 L 159.597656 128.546875 Z M 111.09375 134.65625 L 112.175781 138.179688 L 130.363281 132.445312 L 129.425781 129.0625 Z M 150.199219 132.773438 L 145.78125 136.113281 L 140.703125 132.492188 L 134.03125 154.113281 L 127.261719 158.8125 L 136.425781 129.34375 L 121.667969 118.535156 L 129.328125 117.78125 Z M 150.199219 132.773438 "/>
</g>
</svg>
