<?xml version="1.0" encoding="UTF-8"?>
<svg xmlns="http://www.w3.org/2000/svg" xmlns:xlink="http://www.w3.org/1999/xlink" width="px" height="px" viewBox="0 0 320 240" version="1.1">
<g id="surface1">
<rect x="0" y="0" width="320" height="240" style="fill:rgb(0%,20%,60.000002%);fill-opacity:1;stroke:none;"/>
<path style=" stroke:none;fill-rule:nonzero;fill:rgb(100%,80.000001%,0%);fill-opacity:1;" d="M 160 38.1875 L 156.445312 50.039062 L 162.371094 51.222656 Z M 160 38.1875 "/>
<path style=" stroke:none;fill-rule:nonzero;fill:rgb(100%,80.000001%,0%);fill-opacity:1;" d="M 160 38.1875 L 163.554688 50.039062 L 157.628906 51.222656 Z M 160 38.1875 "/>
<path style=" stroke:none;fill-rule:nonzero;fill:rgb(100%,80.000001%,0%);fill-opacity:1;" d="M 171.273438 46.375 L 158.902344 46.65625 L 159.605469 52.660156 Z M 171.273438 46.375 "/>
<path style=" stroke:none;fill-rule:nonzero;fill:rgb(100%,80.000001%,0%);fill-opacity:1;" d="M 171.273438 46.375 L 161.097656 53.421875 L 158.140625 48.152344 Z M 171.273438 46.375 "/>
<path style=" stroke:none;fill-rule:nonzero;fill:rgb(100%,80.000001%,0%);fill-opacity:1;" d="M 166.964844 59.628906 L 162.875 47.949219 L 157.386719 50.472656 Z M 166.964844 59.628906 "/>
<path style=" stroke:none;fill-rule:nonzero;fill:rgb(100%,80.000001%,0%);fill-opacity:1;" d="M 166.964844 59.628906 L 157.125 52.128906 L 161.222656 47.6875 Z M 166.964844 59.628906 "/>
<path style=" stroke:none;fill-rule:nonzero;fill:rgb(100%,80.000001%,0%);fill-opacity:1;" d="M 148.726562 46.375 L 161.097656 46.65625 L 160.394531 52.660156 Z M 148.726562 46.375 "/>
<path style=" stroke:none;fill-rule:nonzero;fill:rgb(100%,80.000001%,0%);fill-opacity:1;" d="M 148.726562 46.375 L 158.902344 53.421875 L 161.859375 48.152344 Z M 148.726562 46.375 "/>
<path style=" stroke:none;fill-rule:nonzero;fill:rgb(100%,80.000001%,0%);fill-opacity:1;" d="M 153.035156 59.628906 L 157.125 47.949219 L 162.613281 50.472656 Z M 153.035156 59.628906 "/>
<path style=" stroke:none;fill-rule:nonzero;fill:rgb(100%,80.000001%,0%);fill-opacity:1;" d="M 153.035156 59.628906 L 162.875 52.128906 L 158.777344 47.6875 Z M 153.035156 59.628906 "/>
<path style=" stroke:none;fill-rule:nonzero;fill:rgb(100%,80.000001%,0%);fill-opacity:1;" d="M 160 180.410156 L 156.445312 192.261719 L 162.371094 193.445312 Z M 160 180.410156 "/>
<path style=" stroke:none;fill-rule:nonzero;fill:rgb(100%,80.000001%,0%);fill-opacity:1;" d="M 160 180.410156 L 163.554688 192.261719 L 157.628906 193.445312 Z M 160 180.410156 "/>
<path style=" stroke:none;fill-rule:nonzero;fill:rgb(100%,80.000001%,0%);fill-opacity:1;" d="M 171.273438 188.597656 L 158.902344 188.878906 L 159.605469 194.882812 Z M 171.273438 188.597656 "/>
<path style=" stroke:none;fill-rule:nonzero;fill:rgb(100%,80.000001%,0%);fill-opacity:1;" d="M 171.273438 188.597656 L 161.097656 195.644531 L 158.140625 190.371094 Z M 171.273438 188.597656 "/>
<path style=" stroke:none;fill-rule:nonzero;fill:rgb(100%,80.000001%,0%);fill-opacity:1;" d="M 166.964844 201.847656 L 162.875 190.171875 L 157.386719 192.695312 Z M 166.964844 201.847656 "/>
<path style=" stroke:none;fill-rule:nonzero;fill:rgb(100%,80.000001%,0%);fill-opacity:1;" d="M 166.964844 201.847656 L 157.125 194.351562 L 161.222656 189.910156 Z M 166.964844 201.847656 "/>
<path style=" stroke:none;fill-rule:nonzero;fill:rgb(100%,80.000001%,0%);fill-opacity:1;" d="M 148.726562 188.597656 L 161.097656 188.878906 L 160.394531 194.882812 Z M 148.726562 188.597656 "/>
<path style=" stroke:none;fill-rule:nonzero;fill:rgb(100%,80.000001%,0%);fill-opacity:1;" d="M 148.726562 188.597656 L 158.902344 195.644531 L 161.859375 190.371094 Z M 148.726562 188.597656 "/>
<path style=" stroke:none;fill-rule:nonzero;fill:rgb(100%,80.000001%,0%);fill-opacity:1;" d="M 153.035156 201.847656 L 157.125 190.171875 L 162.613281 192.695312 Z M 153.035156 201.847656 "/>
<path style=" stroke:none;fill-rule:nonzero;fill:rgb(100%,80.000001%,0%);fill-opacity:1;" d="M 153.035156 201.847656 L 162.875 194.351562 L 158.777344 189.910156 Z M 153.035156 201.847656 "/>
<path style=" stroke:none;fill-rule:nonzero;fill:rgb(100%,80.000001%,0%);fill-opacity:1;" d="M 88.890625 109.296875 L 85.332031 121.148438 L 91.257812 122.335938 Z M 88.890625 109.296875 "/>
<path style=" stroke:none;fill-rule:nonzero;fill:rgb(100%,80.000001%,0%);fill-opacity:1;" d="M 88.890625 109.296875 L 92.445312 121.148438 L 86.519531 122.335938 Z M 88.890625 109.296875 "/>
<path style=" stroke:none;fill-rule:nonzero;fill:rgb(100%,80.000001%,0%);fill-opacity:1;" d="M 100.160156 117.488281 L 87.789062 117.769531 L 88.496094 123.769531 Z M 100.160156 117.488281 "/>
<path style=" stroke:none;fill-rule:nonzero;fill:rgb(100%,80.000001%,0%);fill-opacity:1;" d="M 100.160156 117.488281 L 89.988281 124.53125 L 87.027344 119.261719 Z M 100.160156 117.488281 "/>
<path style=" stroke:none;fill-rule:nonzero;fill:rgb(100%,80.000001%,0%);fill-opacity:1;" d="M 95.855469 130.738281 L 91.765625 119.058594 L 86.273438 121.585938 Z M 95.855469 130.738281 "/>
<path style=" stroke:none;fill-rule:nonzero;fill:rgb(100%,80.000001%,0%);fill-opacity:1;" d="M 95.855469 130.738281 L 86.011719 123.238281 L 90.109375 118.796875 Z M 95.855469 130.738281 "/>
<path style=" stroke:none;fill-rule:nonzero;fill:rgb(100%,80.000001%,0%);fill-opacity:1;" d="M 77.617188 117.488281 L 89.988281 117.769531 L 89.285156 123.769531 Z M 77.617188 117.488281 "/>
<path style=" stroke:none;fill-rule:nonzero;fill:rgb(100%,80.000001%,0%);fill-opacity:1;" d="M 77.617188 117.488281 L 87.789062 124.53125 L 90.75 119.261719 Z M 77.617188 117.488281 "/>
<path style=" stroke:none;fill-rule:nonzero;fill:rgb(100%,80.000001%,0%);fill-opacity:1;" d="M 81.921875 130.738281 L 86.011719 119.058594 L 91.503906 121.585938 Z M 81.921875 130.738281 "/>
<path style=" stroke:none;fill-rule:nonzero;fill:rgb(100%,80.000001%,0%);fill-opacity:1;" d="M 81.921875 130.738281 L 91.765625 123.238281 L 87.667969 118.796875 Z M 81.921875 130.738281 "/>
<path style=" stroke:none;fill-rule:nonzero;fill:rgb(100%,80.000001%,0%);fill-opacity:1;" d="M 118.351562 69.691406 L 128.195312 62.191406 L 124.097656 57.75 Z M 118.351562 69.691406 "/>
<path style=" stroke:none;fill-rule:nonzero;fill:rgb(100%,80.000001%,0%);fill-opacity:1;" d="M 118.351562 69.691406 L 122.441406 58.011719 L 127.929688 60.539062 Z M 118.351562 69.691406 "/>
<path style=" stroke:none;fill-rule:nonzero;fill:rgb(100%,80.000001%,0%);fill-opacity:1;" d="M 114.046875 56.441406 L 124.21875 63.484375 L 127.175781 58.214844 Z M 114.046875 56.441406 "/>
<path style=" stroke:none;fill-rule:nonzero;fill:rgb(100%,80.000001%,0%);fill-opacity:1;" d="M 114.046875 56.441406 L 126.414062 56.722656 L 125.710938 62.722656 Z M 114.046875 56.441406 "/>
<path style=" stroke:none;fill-rule:nonzero;fill:rgb(100%,80.000001%,0%);fill-opacity:1;" d="M 125.316406 48.25 L 121.761719 60.101562 L 127.6875 61.289062 Z M 125.316406 48.25 "/>
<path style=" stroke:none;fill-rule:nonzero;fill:rgb(100%,80.000001%,0%);fill-opacity:1;" d="M 125.316406 48.25 L 128.871094 60.101562 L 122.945312 61.289062 Z M 125.316406 48.25 "/>
<path style=" stroke:none;fill-rule:nonzero;fill:rgb(100%,80.000001%,0%);fill-opacity:1;" d="M 132.285156 69.691406 L 122.441406 62.191406 L 126.539062 57.75 Z M 132.285156 69.691406 "/>
<path style=" stroke:none;fill-rule:nonzero;fill:rgb(100%,80.000001%,0%);fill-opacity:1;" d="M 132.285156 69.691406 L 128.195312 58.011719 L 122.703125 60.539062 Z M 132.285156 69.691406 "/>
<path style=" stroke:none;fill-rule:nonzero;fill:rgb(100%,80.000001%,0%);fill-opacity:1;" d="M 136.589844 56.441406 L 126.414062 63.484375 L 123.457031 58.214844 Z M 136.589844 56.441406 "/>
<path style=" stroke:none;fill-rule:nonzero;fill:rgb(100%,80.000001%,0%);fill-opacity:1;" d="M 136.589844 56.441406 L 124.21875 56.722656 L 124.921875 62.722656 Z M 136.589844 56.441406 "/>
<path style=" stroke:none;fill-rule:nonzero;fill:rgb(100%,80.000001%,0%);fill-opacity:1;" d="M 105.917969 96.054688 L 101.828125 84.378906 L 96.339844 86.902344 Z M 105.917969 96.054688 "/>
<path style=" stroke:none;fill-rule:nonzero;fill:rgb(100%,80.000001%,0%);fill-opacity:1;" d="M 105.917969 96.054688 L 96.078125 88.558594 L 100.175781 84.113281 Z M 105.917969 96.054688 "/>
<path style=" stroke:none;fill-rule:nonzero;fill:rgb(100%,80.000001%,0%);fill-opacity:1;" d="M 91.988281 96.054688 L 101.828125 88.558594 L 97.730469 84.113281 Z M 91.988281 96.054688 "/>
<path style=" stroke:none;fill-rule:nonzero;fill:rgb(100%,80.000001%,0%);fill-opacity:1;" d="M 91.988281 96.054688 L 96.078125 84.378906 L 101.566406 86.902344 Z M 91.988281 96.054688 "/>
<path style=" stroke:none;fill-rule:nonzero;fill:rgb(100%,80.000001%,0%);fill-opacity:1;" d="M 87.679688 82.804688 L 97.855469 89.847656 L 100.8125 84.578125 Z M 87.679688 82.804688 "/>
<path style=" stroke:none;fill-rule:nonzero;fill:rgb(100%,80.000001%,0%);fill-opacity:1;" d="M 87.679688 82.804688 L 100.050781 83.085938 L 99.347656 89.085938 Z M 87.679688 82.804688 "/>
<path style=" stroke:none;fill-rule:nonzero;fill:rgb(100%,80.000001%,0%);fill-opacity:1;" d="M 110.226562 82.804688 L 100.050781 89.847656 L 97.09375 84.578125 Z M 110.226562 82.804688 "/>
<path style=" stroke:none;fill-rule:nonzero;fill:rgb(100%,80.000001%,0%);fill-opacity:1;" d="M 110.226562 82.804688 L 97.855469 83.085938 L 98.558594 89.085938 Z M 110.226562 82.804688 "/>
<path style=" stroke:none;fill-rule:nonzero;fill:rgb(100%,80.000001%,0%);fill-opacity:1;" d="M 98.953125 74.613281 L 102.507812 86.46875 L 96.582031 87.652344 Z M 98.953125 74.613281 "/>
<path style=" stroke:none;fill-rule:nonzero;fill:rgb(100%,80.000001%,0%);fill-opacity:1;" d="M 98.953125 74.613281 L 95.398438 86.46875 L 101.324219 87.652344 Z M 98.953125 74.613281 "/>
<path style=" stroke:none;fill-rule:nonzero;fill:rgb(100%,80.000001%,0%);fill-opacity:1;" d="M 110.238281 154.085938 L 97.867188 154.367188 L 98.570312 160.367188 Z M 110.238281 154.085938 "/>
<path style=" stroke:none;fill-rule:nonzero;fill:rgb(100%,80.000001%,0%);fill-opacity:1;" d="M 110.238281 154.085938 L 100.066406 161.128906 L 97.105469 155.859375 Z M 110.238281 154.085938 "/>
<path style=" stroke:none;fill-rule:nonzero;fill:rgb(100%,80.000001%,0%);fill-opacity:1;" d="M 105.933594 167.335938 L 101.84375 155.660156 L 96.351562 158.183594 Z M 105.933594 167.335938 "/>
<path style=" stroke:none;fill-rule:nonzero;fill:rgb(100%,80.000001%,0%);fill-opacity:1;" d="M 105.933594 167.335938 L 96.089844 159.839844 L 100.1875 155.394531 Z M 105.933594 167.335938 "/>
<path style=" stroke:none;fill-rule:nonzero;fill:rgb(100%,80.000001%,0%);fill-opacity:1;" d="M 92 167.335938 L 101.84375 159.839844 L 97.746094 155.394531 Z M 92 167.335938 "/>
<path style=" stroke:none;fill-rule:nonzero;fill:rgb(100%,80.000001%,0%);fill-opacity:1;" d="M 92 167.335938 L 96.089844 155.660156 L 101.582031 158.183594 Z M 92 167.335938 "/>
<path style=" stroke:none;fill-rule:nonzero;fill:rgb(100%,80.000001%,0%);fill-opacity:1;" d="M 98.964844 145.898438 L 102.523438 157.75 L 96.597656 158.933594 Z M 98.964844 145.898438 "/>
<path style=" stroke:none;fill-rule:nonzero;fill:rgb(100%,80.000001%,0%);fill-opacity:1;" d="M 98.964844 145.898438 L 95.410156 157.75 L 101.335938 158.933594 Z M 98.964844 145.898438 "/>
<path style=" stroke:none;fill-rule:nonzero;fill:rgb(100%,80.000001%,0%);fill-opacity:1;" d="M 87.695312 154.085938 L 100.066406 154.367188 L 99.359375 160.367188 Z M 87.695312 154.085938 "/>
<path style=" stroke:none;fill-rule:nonzero;fill:rgb(100%,80.000001%,0%);fill-opacity:1;" d="M 87.695312 154.085938 L 97.867188 161.128906 L 100.824219 155.859375 Z M 87.695312 154.085938 "/>
<path style=" stroke:none;fill-rule:nonzero;fill:rgb(100%,80.000001%,0%);fill-opacity:1;" d="M 135.960938 177.941406 L 123.589844 178.222656 L 124.292969 184.222656 Z M 135.960938 177.941406 "/>
<path style=" stroke:none;fill-rule:nonzero;fill:rgb(100%,80.000001%,0%);fill-opacity:1;" d="M 135.960938 177.941406 L 125.789062 184.984375 L 122.828125 179.714844 Z M 135.960938 177.941406 "/>
<path style=" stroke:none;fill-rule:nonzero;fill:rgb(100%,80.000001%,0%);fill-opacity:1;" d="M 131.65625 191.191406 L 127.566406 179.515625 L 122.074219 182.039062 Z M 131.65625 191.191406 "/>
<path style=" stroke:none;fill-rule:nonzero;fill:rgb(100%,80.000001%,0%);fill-opacity:1;" d="M 131.65625 191.191406 L 121.8125 183.695312 L 125.910156 179.25 Z M 131.65625 191.191406 "/>
<path style=" stroke:none;fill-rule:nonzero;fill:rgb(100%,80.000001%,0%);fill-opacity:1;" d="M 117.722656 191.191406 L 127.566406 183.695312 L 123.46875 179.25 Z M 117.722656 191.191406 "/>
<path style=" stroke:none;fill-rule:nonzero;fill:rgb(100%,80.000001%,0%);fill-opacity:1;" d="M 117.722656 191.191406 L 121.8125 179.515625 L 127.304688 182.039062 Z M 117.722656 191.191406 "/>
<path style=" stroke:none;fill-rule:nonzero;fill:rgb(100%,80.000001%,0%);fill-opacity:1;" d="M 124.6875 169.75 L 128.246094 181.605469 L 122.320312 182.789062 Z M 124.6875 169.75 "/>
<path style=" stroke:none;fill-rule:nonzero;fill:rgb(100%,80.000001%,0%);fill-opacity:1;" d="M 124.6875 169.75 L 121.132812 181.605469 L 127.058594 182.789062 Z M 124.6875 169.75 "/>
<path style=" stroke:none;fill-rule:nonzero;fill:rgb(100%,80.000001%,0%);fill-opacity:1;" d="M 113.417969 177.941406 L 125.789062 178.222656 L 125.082031 184.222656 Z M 113.417969 177.941406 "/>
<path style=" stroke:none;fill-rule:nonzero;fill:rgb(100%,80.000001%,0%);fill-opacity:1;" d="M 113.417969 177.941406 L 123.589844 184.984375 L 126.546875 179.714844 Z M 113.417969 177.941406 "/>
<path style=" stroke:none;fill-rule:nonzero;fill:rgb(100%,80.000001%,0%);fill-opacity:1;" d="M 231.109375 109.296875 L 234.667969 121.148438 L 228.742188 122.335938 Z M 231.109375 109.296875 "/>
<path style=" stroke:none;fill-rule:nonzero;fill:rgb(100%,80.000001%,0%);fill-opacity:1;" d="M 231.109375 109.296875 L 227.554688 121.148438 L 233.480469 122.335938 Z M 231.109375 109.296875 "/>
<path style=" stroke:none;fill-rule:nonzero;fill:rgb(100%,80.000001%,0%);fill-opacity:1;" d="M 219.839844 117.488281 L 232.210938 117.769531 L 231.503906 123.769531 Z M 219.839844 117.488281 "/>
<path style=" stroke:none;fill-rule:nonzero;fill:rgb(100%,80.000001%,0%);fill-opacity:1;" d="M 219.839844 117.488281 L 230.011719 124.53125 L 232.972656 119.261719 Z M 219.839844 117.488281 "/>
<path style=" stroke:none;fill-rule:nonzero;fill:rgb(100%,80.000001%,0%);fill-opacity:1;" d="M 224.144531 130.738281 L 228.234375 119.058594 L 233.726562 121.585938 Z M 224.144531 130.738281 "/>
<path style=" stroke:none;fill-rule:nonzero;fill:rgb(100%,80.000001%,0%);fill-opacity:1;" d="M 224.144531 130.738281 L 233.988281 123.238281 L 229.890625 118.796875 Z M 224.144531 130.738281 "/>
<path style=" stroke:none;fill-rule:nonzero;fill:rgb(100%,80.000001%,0%);fill-opacity:1;" d="M 242.382812 117.488281 L 230.011719 117.769531 L 230.714844 123.769531 Z M 242.382812 117.488281 "/>
<path style=" stroke:none;fill-rule:nonzero;fill:rgb(100%,80.000001%,0%);fill-opacity:1;" d="M 242.382812 117.488281 L 232.210938 124.53125 L 229.25 119.261719 Z M 242.382812 117.488281 "/>
<path style=" stroke:none;fill-rule:nonzero;fill:rgb(100%,80.000001%,0%);fill-opacity:1;" d="M 238.078125 130.738281 L 233.988281 119.058594 L 228.496094 121.585938 Z M 238.078125 130.738281 "/>
<path style=" stroke:none;fill-rule:nonzero;fill:rgb(100%,80.000001%,0%);fill-opacity:1;" d="M 238.078125 130.738281 L 228.234375 123.238281 L 232.332031 118.796875 Z M 238.078125 130.738281 "/>
<path style=" stroke:none;fill-rule:nonzero;fill:rgb(100%,80.000001%,0%);fill-opacity:1;" d="M 201.648438 69.691406 L 191.804688 62.191406 L 195.902344 57.75 Z M 201.648438 69.691406 "/>
<path style=" stroke:none;fill-rule:nonzero;fill:rgb(100%,80.000001%,0%);fill-opacity:1;" d="M 201.648438 69.691406 L 197.558594 58.011719 L 192.070312 60.539062 Z M 201.648438 69.691406 "/>
<path style=" stroke:none;fill-rule:nonzero;fill:rgb(100%,80.000001%,0%);fill-opacity:1;" d="M 205.953125 56.441406 L 195.78125 63.484375 L 192.824219 58.214844 Z M 205.953125 56.441406 "/>
<path style=" stroke:none;fill-rule:nonzero;fill:rgb(100%,80.000001%,0%);fill-opacity:1;" d="M 205.953125 56.441406 L 193.585938 56.722656 L 194.289062 62.722656 Z M 205.953125 56.441406 "/>
<path style=" stroke:none;fill-rule:nonzero;fill:rgb(100%,80.000001%,0%);fill-opacity:1;" d="M 194.683594 48.25 L 198.238281 60.101562 L 192.3125 61.289062 Z M 194.683594 48.25 "/>
<path style=" stroke:none;fill-rule:nonzero;fill:rgb(100%,80.000001%,0%);fill-opacity:1;" d="M 194.683594 48.25 L 191.128906 60.101562 L 197.054688 61.289062 Z M 194.683594 48.25 "/>
<path style=" stroke:none;fill-rule:nonzero;fill:rgb(100%,80.000001%,0%);fill-opacity:1;" d="M 187.714844 69.691406 L 197.558594 62.191406 L 193.460938 57.75 Z M 187.714844 69.691406 "/>
<path style=" stroke:none;fill-rule:nonzero;fill:rgb(100%,80.000001%,0%);fill-opacity:1;" d="M 187.714844 69.691406 L 191.804688 58.011719 L 197.296875 60.539062 Z M 187.714844 69.691406 "/>
<path style=" stroke:none;fill-rule:nonzero;fill:rgb(100%,80.000001%,0%);fill-opacity:1;" d="M 183.410156 56.441406 L 193.585938 63.484375 L 196.542969 58.214844 Z M 183.410156 56.441406 "/>
<path style=" stroke:none;fill-rule:nonzero;fill:rgb(100%,80.000001%,0%);fill-opacity:1;" d="M 183.410156 56.441406 L 195.78125 56.722656 L 195.078125 62.722656 Z M 183.410156 56.441406 "/>
<path style=" stroke:none;fill-rule:nonzero;fill:rgb(100%,80.000001%,0%);fill-opacity:1;" d="M 214.082031 96.054688 L 218.171875 84.378906 L 223.660156 86.902344 Z M 214.082031 96.054688 "/>
<path style=" stroke:none;fill-rule:nonzero;fill:rgb(100%,80.000001%,0%);fill-opacity:1;" d="M 214.082031 96.054688 L 223.921875 88.558594 L 219.824219 84.113281 Z M 214.082031 96.054688 "/>
<path style=" stroke:none;fill-rule:nonzero;fill:rgb(100%,80.000001%,0%);fill-opacity:1;" d="M 228.011719 96.054688 L 218.171875 88.558594 L 222.269531 84.113281 Z M 228.011719 96.054688 "/>
<path style=" stroke:none;fill-rule:nonzero;fill:rgb(100%,80.000001%,0%);fill-opacity:1;" d="M 228.011719 96.054688 L 223.921875 84.378906 L 218.433594 86.902344 Z M 228.011719 96.054688 "/>
<path style=" stroke:none;fill-rule:nonzero;fill:rgb(100%,80.000001%,0%);fill-opacity:1;" d="M 232.320312 82.804688 L 222.144531 89.847656 L 219.1875 84.578125 Z M 232.320312 82.804688 "/>
<path style=" stroke:none;fill-rule:nonzero;fill:rgb(100%,80.000001%,0%);fill-opacity:1;" d="M 232.320312 82.804688 L 219.949219 83.085938 L 220.652344 89.085938 Z M 232.320312 82.804688 "/>
<path style=" stroke:none;fill-rule:nonzero;fill:rgb(100%,80.000001%,0%);fill-opacity:1;" d="M 209.773438 82.804688 L 219.949219 89.847656 L 222.90625 84.578125 Z M 209.773438 82.804688 "/>
<path style=" stroke:none;fill-rule:nonzero;fill:rgb(100%,80.000001%,0%);fill-opacity:1;" d="M 209.773438 82.804688 L 222.144531 83.085938 L 221.441406 89.085938 Z M 209.773438 82.804688 "/>
<path style=" stroke:none;fill-rule:nonzero;fill:rgb(100%,80.000001%,0%);fill-opacity:1;" d="M 221.046875 74.613281 L 217.492188 86.46875 L 223.417969 87.652344 Z M 221.046875 74.613281 "/>
<path style=" stroke:none;fill-rule:nonzero;fill:rgb(100%,80.000001%,0%);fill-opacity:1;" d="M 221.046875 74.613281 L 224.601562 86.46875 L 218.675781 87.652344 Z M 221.046875 74.613281 "/>
<path style=" stroke:none;fill-rule:nonzero;fill:rgb(100%,80.000001%,0%);fill-opacity:1;" d="M 209.761719 154.085938 L 222.132812 154.367188 L 221.429688 160.367188 Z M 209.761719 154.085938 "/>
<path style=" stroke:none;fill-rule:nonzero;fill:rgb(100%,80.000001%,0%);fill-opacity:1;" d="M 209.761719 154.085938 L 219.933594 161.128906 L 222.894531 155.859375 Z M 209.761719 154.085938 "/>
<path style=" stroke:none;fill-rule:nonzero;fill:rgb(100%,80.000001%,0%);fill-opacity:1;" d="M 214.066406 167.335938 L 218.15625 155.660156 L 223.648438 158.183594 Z M 214.066406 167.335938 "/>
<path style=" stroke:none;fill-rule:nonzero;fill:rgb(100%,80.000001%,0%);fill-opacity:1;" d="M 214.066406 167.335938 L 223.910156 159.839844 L 219.8125 155.394531 Z M 214.066406 167.335938 "/>
<path style=" stroke:none;fill-rule:nonzero;fill:rgb(100%,80.000001%,0%);fill-opacity:1;" d="M 228 167.335938 L 218.15625 159.839844 L 222.253906 155.394531 Z M 228 167.335938 "/>
<path style=" stroke:none;fill-rule:nonzero;fill:rgb(100%,80.000001%,0%);fill-opacity:1;" d="M 228 167.335938 L 223.910156 155.660156 L 218.417969 158.183594 Z M 228 167.335938 "/>
<path style=" stroke:none;fill-rule:nonzero;fill:rgb(100%,80.000001%,0%);fill-opacity:1;" d="M 221.035156 145.898438 L 217.476562 157.75 L 223.402344 158.933594 Z M 221.035156 145.898438 "/>
<path style=" stroke:none;fill-rule:nonzero;fill:rgb(100%,80.000001%,0%);fill-opacity:1;" d="M 221.035156 145.898438 L 224.589844 157.75 L 218.664062 158.933594 Z M 221.035156 145.898438 "/>
<path style=" stroke:none;fill-rule:nonzero;fill:rgb(100%,80.000001%,0%);fill-opacity:1;" d="M 232.304688 154.085938 L 219.933594 154.367188 L 220.640625 160.367188 Z M 232.304688 154.085938 "/>
<path style=" stroke:none;fill-rule:nonzero;fill:rgb(100%,80.000001%,0%);fill-opacity:1;" d="M 232.304688 154.085938 L 222.132812 161.128906 L 219.175781 155.859375 Z M 232.304688 154.085938 "/>
<path style=" stroke:none;fill-rule:nonzero;fill:rgb(100%,80.000001%,0%);fill-opacity:1;" d="M 184.039062 177.941406 L 196.410156 178.222656 L 195.707031 184.222656 Z M 184.039062 177.941406 "/>
<path style=" stroke:none;fill-rule:nonzero;fill:rgb(100%,80.000001%,0%);fill-opacity:1;" d="M 184.039062 177.941406 L 194.210938 184.984375 L 197.171875 179.714844 Z M 184.039062 177.941406 "/>
<path style=" stroke:none;fill-rule:nonzero;fill:rgb(100%,80.000001%,0%);fill-opacity:1;" d="M 188.34375 191.191406 L 192.433594 179.515625 L 197.925781 182.039062 Z M 188.34375 191.191406 "/>
<path style=" stroke:none;fill-rule:nonzero;fill:rgb(100%,80.000001%,0%);fill-opacity:1;" d="M 188.34375 191.191406 L 198.1875 183.695312 L 194.089844 179.25 Z M 188.34375 191.191406 "/>
<path style=" stroke:none;fill-rule:nonzero;fill:rgb(100%,80.000001%,0%);fill-opacity:1;" d="M 202.277344 191.191406 L 192.433594 183.695312 L 196.53125 179.25 Z M 202.277344 191.191406 "/>
<path style=" stroke:none;fill-rule:nonzero;fill:rgb(100%,80.000001%,0%);fill-opacity:1;" d="M 202.277344 191.191406 L 198.1875 179.515625 L 192.695312 182.039062 Z M 202.277344 191.191406 "/>
<path style=" stroke:none;fill-rule:nonzero;fill:rgb(100%,80.000001%,0%);fill-opacity:1;" d="M 195.3125 169.75 L 191.753906 181.605469 L 197.679688 182.789062 Z M 195.3125 169.75 "/>
<path style=" stroke:none;fill-rule:nonzero;fill:rgb(100%,80.000001%,0%);fill-opacity:1;" d="M 195.3125 169.75 L 198.867188 181.605469 L 192.941406 182.789062 Z M 195.3125 169.75 "/>
<path style=" stroke:none;fill-rule:nonzero;fill:rgb(100%,80.000001%,0%);fill-opacity:1;" d="M 206.582031 177.941406 L 194.210938 178.222656 L 194.917969 184.222656 Z M 206.582031 177.941406 "/>
<path style=" stroke:none;fill-rule:nonzero;fill:rgb(100%,80.000001%,0%);fill-opacity:1;" d="M 206.582031 177.941406 L 196.410156 184.984375 L 193.453125 179.714844 Z M 206.582031 177.941406 "/>
</g>
</svg>
