<?xml version="1.0" encoding="UTF-8"?>
<svg xmlns="http://www.w3.org/2000/svg" xmlns:xlink="http://www.w3.org/1999/xlink" width="px" height="px" viewBox="0 0 320 240" version="1.1">
<defs>
<linearGradient id="linear0" gradientUnits="userSpaceOnUse" x1="444.399994" y1="592.200012" x2="470.899994" y2="577.099976" gradientTransform="matrix(0.85733,0,0,0.9624,-162.399994,-0.6)">
<stop offset="0" style="stop-color:rgb(64.313725%,22.352941%,2.745098%);stop-opacity:1;"/>
<stop offset="1" style="stop-color:rgb(100%,100%,100%);stop-opacity:1;"/>
</linearGradient>
<linearGradient id="linear1" gradientUnits="userSpaceOnUse" x1="444.399994" y1="592.200012" x2="470.899994" y2="577.099976" gradientTransform="matrix(-1.08448,0,0,1.26674,909.5,-414.700012)">
<stop offset="0" style="stop-color:rgb(64.313725%,22.352941%,2.745098%);stop-opacity:1;"/>
<stop offset="1" style="stop-color:rgb(100%,100%,100%);stop-opacity:1;"/>
</linearGradient>
<linearGradient id="linear2" gradientUnits="userSpaceOnUse" x1="458.200012" y1="562.5" x2="520.5" y2="552.799988" gradientTransform="matrix(-1.01941,0,0,1.3554,909.5,-414.700012)">
<stop offset="0" style="stop-color:rgb(64.313725%,22.352941%,2.745098%);stop-opacity:1;"/>
<stop offset="1" style="stop-color:rgb(100%,100%,100%);stop-opacity:1;"/>
</linearGradient>
<linearGradient id="linear3" gradientUnits="userSpaceOnUse" x1="472.399994" y1="578.700012" x2="445.299988" y2="580.200012" gradientTransform="matrix(1.08448,0,0,1.26674,49.700001,-414.700012)">
<stop offset="0" style="stop-color:rgb(64.313725%,22.352941%,2.745098%);stop-opacity:1;"/>
<stop offset="1" style="stop-color:rgb(100%,100%,100%);stop-opacity:1;"/>
</linearGradient>
<linearGradient id="linear4" gradientUnits="userSpaceOnUse" x1="518" y1="553.700012" x2="456.399994" y2="558.099976" gradientTransform="matrix(1.01941,0,0,1.3554,49.700001,-414.700012)">
<stop offset="0" style="stop-color:rgb(64.313725%,22.352941%,2.745098%);stop-opacity:1;"/>
<stop offset="1" style="stop-color:rgb(100%,100%,100%);stop-opacity:1;"/>
</linearGradient>
<linearGradient id="linear5" gradientUnits="userSpaceOnUse" x1="851.799988" y1="369.899994" x2="646.200012" y2="369.899994" gradientTransform="matrix(0.85733,0,0,0.9624,-161.5,0.3)">
<stop offset="0" style="stop-color:rgb(64.313725%,22.352941%,2.745098%);stop-opacity:1;"/>
<stop offset="1" style="stop-color:rgb(100%,100%,100%);stop-opacity:1;"/>
</linearGradient>
<linearGradient id="linear6" gradientUnits="userSpaceOnUse" x1="388.5" y1="507.200012" x2="677.400024" y2="508.799988" gradientTransform="matrix(0.88927,0,0,1.54542,50.400002,-413.600006)">
<stop offset="0" style="stop-color:rgb(64.313725%,22.352941%,2.745098%);stop-opacity:1;"/>
<stop offset="1" style="stop-color:rgb(100%,100%,100%);stop-opacity:1;"/>
</linearGradient>
<linearGradient id="linear7" gradientUnits="userSpaceOnUse" x1="579.799988" y1="504.899994" x2="556.799988" y2="505.899994" gradientTransform="matrix(0.91096,0,0,1.52008,49.700001,-414.700012)">
<stop offset="0" style="stop-color:rgb(64.313725%,22.352941%,2.745098%);stop-opacity:1;"/>
<stop offset="1" style="stop-color:rgb(100%,100%,100%);stop-opacity:1;"/>
</linearGradient>
<linearGradient id="linear8" gradientUnits="userSpaceOnUse" x1="581.400024" y1="512" x2="558.900024" y2="514.299988" gradientTransform="matrix(-0.88927,0,0,1.54542,908.799988,-413.600006)">
<stop offset="0" style="stop-color:rgb(64.313725%,22.352941%,2.745098%);stop-opacity:1;"/>
<stop offset="1" style="stop-color:rgb(100%,100%,100%);stop-opacity:1;"/>
</linearGradient>
<linearGradient id="linear9" gradientUnits="userSpaceOnUse" x1="552" y1="517.900024" x2="589.799988" y2="503.899994" gradientTransform="matrix(-0.91096,0,0,1.52008,909.5,-414.700012)">
<stop offset="0" style="stop-color:rgb(64.313725%,22.352941%,2.745098%);stop-opacity:1;"/>
<stop offset="1" style="stop-color:rgb(100%,100%,100%);stop-opacity:1;"/>
</linearGradient>
</defs>
<g id="surface1">
<rect x="0" y="0" width="320" height="240" style="fill:rgb(0.392157%,12.941177%,41.176471%);fill-opacity:1;stroke:none;"/>
<path style=" stroke:none;fill-rule:evenodd;fill:rgb(0.392157%,12.941177%,41.176471%);fill-opacity:1;" d="M 0 0 L 200 0 L 200 100 L 0 100 Z M 0 0 "/>
<path style="fill-rule:evenodd;fill:url(#linear0);stroke-width:10;stroke-linecap:butt;stroke-linejoin:miter;stroke:rgb(100%,100%,100%);stroke-opacity:1;stroke-miterlimit:4;" d="M 412.898438 308.898438 C 412.335938 308.851562 411.765625 308.851562 411.203125 308.898438 C 408.203125 309.5 403.601562 320.203125 401.203125 326.5 C 397.101562 331.898438 395 336.101562 393.398438 339.203125 C 392.703125 340.398438 391.703125 341.796875 392 343.398438 C 386 345 385.703125 350.796875 385.703125 353 C 385.703125 355.5 386.398438 356.703125 386.398438 356.703125 L 390 364.203125 L 390 364.296875 C 393.796875 373.296875 399.398438 385.203125 402.703125 386.101562 C 407.101562 387.601562 418.703125 382.796875 427.5 374.398438 C 444.367188 382.273438 462.4375 386.382812 480.703125 386.5 C 501.101562 386.5 519.398438 381 533.703125 374.398438 C 542.5 382.796875 554.101562 387.601562 558.703125 386.101562 C 561.703125 385.101562 567.398438 373.101562 571.296875 364.296875 L 574.796875 356.703125 C 574.796875 356.703125 575.5 355.5 575.5 353.101562 C 575.5 350.898438 575.203125 345.101562 569.203125 343.5 C 569.5 341.898438 568.601562 340.5 567.898438 339.203125 C 566.203125 336 564.101562 331.796875 560.203125 326.203125 C 557.601562 320 553 309.5 550.203125 309 C 546 308.203125 537.203125 310.5 537.203125 311.398438 L 537.203125 311.796875 L 519.5 330.398438 C 519.5 330.898438 520.398438 344.398438 523.796875 356.398438 C 509.90625 361.960938 495.25 364.734375 480.5 364.601562 C 463.5 364.601562 449 361.203125 437.296875 356.296875 C 439.507812 347.820312 440.953125 339.109375 441.601562 330.296875 L 424 311.796875 L 424 311.398438 C 424 310.703125 417.203125 308.898438 412.898438 308.898438 Z M 417.296875 331.898438 C 419.601562 331.898438 421.898438 334.101562 423.796875 336.296875 L 423.703125 337.601562 C 422.984375 341.070312 422.046875 344.476562 420.898438 347.796875 C 416.539062 344.976562 412.453125 341.65625 408.703125 337.898438 C 410.601562 335.601562 413.703125 332.5 416.898438 332.101562 L 417.296875 332.101562 Z M 543.898438 331.898438 L 544.296875 331.898438 C 547.601562 332.5 550.601562 335.601562 552.601562 337.898438 C 548.820312 341.703125 544.695312 345.054688 540.296875 347.898438 C 539.148438 344.546875 538.210938 341.101562 537.5 337.601562 C 537.414062 337.171875 537.351562 336.734375 537.296875 336.296875 C 539.296875 334 541.601562 332 543.898438 332 Z M 401.5 358.296875 C 403.898438 360.367188 406.929688 362.632812 410.601562 365.101562 C 409.617188 365.828125 408.539062 366.375 407.398438 366.703125 C 405.796875 367.03125 404.234375 367.03125 402.703125 366.703125 C 402.085938 364.914062 401.742188 363.015625 401.703125 361.101562 C 401.617188 360.171875 401.546875 359.234375 401.5 358.296875 Z M 559.703125 358.296875 L 559.601562 361.101562 C 559.539062 362.984375 559.203125 364.84375 558.601562 366.601562 C 555.859375 367.34375 552.96875 366.796875 550.601562 365.101562 C 554.335938 362.632812 557.367188 360.367188 559.703125 358.296875 Z M 559.703125 358.296875 " transform="matrix(0.5,0,0,0.5,0,0)"/>
<path style="fill-rule:evenodd;fill:url(#linear1);stroke-width:1.2;stroke-linecap:butt;stroke-linejoin:miter;stroke:rgb(0%,0%,0%);stroke-opacity:1;stroke-miterlimit:4;" d="M 426.203125 339.601562 C 426.203125 339.601562 420.101562 328.5 415.101562 329.398438 C 410 330.101562 405.101562 337.203125 404.898438 337.601562 C 402.070312 334.8125 399.554688 331.617188 397.398438 328.101562 C 397.703125 327.703125 405.203125 307.203125 409.398438 306.296875 C 413.398438 305.398438 422.101562 307.796875 422.101562 308.601562 Z M 426.203125 339.601562 " transform="matrix(0.5,0,0,0.5,0,0)"/>
<path style="fill-rule:evenodd;fill:url(#linear2);stroke-width:1.2;stroke-linecap:butt;stroke-linejoin:miter;stroke:rgb(0%,0%,0%);stroke-opacity:1;stroke-miterlimit:4;" d="M 439.796875 327.703125 C 439.796875 328.5 437.601562 357.898438 428.898438 368.101562 C 420.296875 378.398438 405.898438 384.703125 400.703125 383.203125 C 395.703125 381.601562 384.203125 351.898438 384.203125 351.898438 C 384.203125 351.898438 396.398438 366.101562 405.5 363.703125 C 414.601562 361.296875 420.101562 343.601562 421.796875 334.796875 C 423.5 326.203125 422.101562 309.101562 422.101562 309.101562 L 439.898438 327.703125 Z M 439.796875 327.703125 " transform="matrix(0.5,0,0,0.5,0,0)"/>
<path style="fill-rule:evenodd;fill:url(#linear3);stroke-width:1.2;stroke-linecap:butt;stroke-linejoin:miter;stroke:rgb(0%,0%,0%);stroke-opacity:1;stroke-miterlimit:4;" d="M 532.898438 339.601562 C 532.898438 339.601562 539.101562 328.5 544.101562 329.398438 C 549.101562 330.101562 553.898438 337.203125 554.296875 337.601562 C 557.125 334.8125 559.648438 331.617188 561.796875 328.101562 C 561.398438 327.703125 553.898438 307.203125 549.796875 306.296875 C 545.703125 305.398438 537 307.796875 537 308.601562 Z M 532.898438 339.601562 " transform="matrix(0.5,0,0,0.5,0,0)"/>
<path style="fill-rule:evenodd;fill:url(#linear4);stroke-width:1.2;stroke-linecap:butt;stroke-linejoin:miter;stroke:rgb(0%,0%,0%);stroke-opacity:1;stroke-miterlimit:4;" d="M 519.296875 327.703125 C 519.296875 328.5 521.5 357.898438 530.203125 368.101562 C 538.898438 378.398438 553.203125 384.703125 558.398438 383.203125 C 563.398438 381.601562 575 351.898438 575 351.898438 C 575 351.898438 562.703125 366.101562 553.601562 363.703125 C 544.5 361.296875 539.101562 343.601562 537.398438 334.796875 C 535.601562 326.203125 537 309.101562 537 309.101562 Z M 519.296875 327.703125 " transform="matrix(0.5,0,0,0.5,0,0)"/>
<path style="fill-rule:evenodd;fill:url(#linear5);stroke-width:1.5;stroke-linecap:butt;stroke-linejoin:miter;stroke:rgb(0%,0%,0%);stroke-opacity:1;stroke-miterlimit:4;" d="M 401.203125 326.203125 C 397.203125 331.703125 395.101562 336 393.296875 339.203125 C 391.632812 342.335938 392.703125 347 396.5 353.203125 C 400.796875 359.898438 435.5 386.601562 480.601562 386.601562 C 525.796875 386.601562 560.398438 360 564.601562 353.203125 C 568.601562 346.929688 569.703125 342.265625 567.898438 339.203125 C 566.203125 336 564 331.703125 560 326.203125 C 560 334.5 531.296875 364.703125 480.601562 364.703125 C 429.898438 364.703125 401.203125 334.5 401.203125 326.203125 Z M 401.203125 326.203125 " transform="matrix(0.5,0,0,0.5,0,0)"/>
<path style="fill-rule:evenodd;fill:url(#linear6);stroke-width:1.2;stroke-linecap:butt;stroke-linejoin:miter;stroke:rgb(0%,0%,0%);stroke-opacity:1;stroke-miterlimit:4;" d="M 557.703125 378.796875 L 565.5 363.703125 L 561.601562 360.5 C 560.601562 364.296875 556.101562 365.601562 555.296875 370.5 C 554.601562 375.203125 558.296875 379.898438 557.703125 378.796875 Z M 557.703125 378.796875 " transform="matrix(0.5,0,0,0.5,0,0)"/>
<path style="fill-rule:evenodd;fill:url(#linear7);stroke-width:1.2;stroke-linecap:butt;stroke-linejoin:miter;stroke:rgb(0%,0%,0%);stroke-opacity:1;stroke-miterlimit:4;" d="M 564.796875 374.5 C 564.796875 374.5 566.203125 367.703125 561.796875 366.898438 C 557.398438 366.101562 555 370.703125 555.703125 368.898438 C 556.296875 366.898438 558.898438 364.898438 559.398438 358.203125 C 559.703125 351.5 559 347.898438 559 347.898438 C 559 347.898438 560.796875 339.203125 567.796875 340.398438 C 575 341.703125 575.296875 348 575.296875 350.296875 C 575.335938 351.492188 575.132812 352.6875 574.703125 353.796875 Z M 564.796875 374.5 " transform="matrix(0.5,0,0,0.5,0,0)"/>
<path style=" stroke:none;fill-rule:nonzero;fill:rgb(0%,0%,0%);fill-opacity:1;" d="M 269.601562 175.851562 L 270.351562 177.25 L 270.851562 176.949219 L 270.5 175.949219 L 270.550781 175.800781 L 271.398438 175.199219 L 273.601562 179.550781 L 273.601562 179.800781 L 273.101562 180.148438 L 273.351562 180.550781 L 275.449219 179.050781 L 275.25 178.648438 L 274.75 178.949219 L 274.601562 178.949219 L 272.398438 174.550781 L 273.199219 173.949219 L 273.398438 173.949219 L 273.898438 174.75 L 274.398438 174.398438 L 273.648438 173 L 269.648438 175.851562 Z M 264.351562 179.199219 L 264.550781 179.601562 L 265 179.398438 L 265.148438 179.449219 L 267.101562 183.898438 L 267.050781 184.101562 L 266.648438 184.398438 L 266.800781 184.800781 L 268.851562 183.550781 L 268.699219 183.148438 L 268.25 183.351562 L 268.050781 183.351562 L 267.148438 181.199219 L 269.300781 180 L 270.199219 182 L 270.199219 182.25 L 269.699219 182.550781 L 269.898438 183 L 272 181.75 L 271.800781 181.351562 L 271.351562 181.550781 L 271.199219 181.449219 L 269.300781 177.050781 L 269.300781 176.851562 L 269.699219 176.550781 L 269.550781 176.148438 L 267.5 177.398438 L 267.648438 177.800781 L 268.148438 177.550781 L 268.300781 177.648438 L 269.050781 179.449219 L 266.949219 180.699219 L 266.148438 178.851562 L 266.25 178.648438 L 266.648438 178.398438 L 266.449219 177.949219 Z M 263.148438 183 L 263.25 183.398438 L 263.851562 183.25 L 264.050781 183.300781 L 264.5 185.148438 L 264.101562 185.351562 C 262.800781 185.714844 261.917969 185.101562 261.449219 183.5 C 261.050781 181.898438 261.550781 180.699219 262.699219 180.300781 C 262.929688 180.230469 263.167969 180.210938 263.398438 180.25 L 263.550781 180.351562 L 263.949219 181.199219 L 264.550781 181 L 264.199219 179.5 C 263.535156 179.5 262.949219 179.601562 262.449219 179.800781 C 260.648438 180.449219 259.851562 182.050781 260.300781 183.898438 C 260.75 185.75 262.25 186.601562 263.898438 186.050781 C 264.511719 185.828125 265.089844 185.488281 265.601562 185.050781 L 265 183 L 265.101562 182.800781 L 265.550781 182.601562 L 265.398438 182.148438 Z M 258.300781 188.148438 L 260.648438 187.300781 L 260.5 186.851562 L 260 186.949219 L 259.851562 186.898438 L 258.550781 182.101562 L 258.601562 181.949219 L 259.101562 181.699219 L 259 181.300781 L 256.648438 182.101562 L 256.800781 182.550781 L 257.300781 182.398438 L 257.5 182.5 L 258.75 187.25 L 258.648438 187.449219 L 258.148438 187.648438 L 258.300781 188.101562 Z M 245.550781 190.449219 L 249.699219 190.050781 L 249.550781 188.351562 L 249.050781 188.398438 L 248.949219 189.398438 L 248.851562 189.550781 L 247.101562 189.75 L 246.898438 187.300781 L 247.898438 187.199219 L 248.050781 187.351562 L 248.148438 188 L 248.648438 188 L 248.449219 185.800781 L 247.949219 185.800781 L 247.949219 186.5 L 247.851562 186.699219 L 246.851562 186.75 L 246.648438 184.550781 L 248.199219 184.398438 L 248.300781 184.5 L 248.5 185.351562 L 249.050781 185.300781 L 248.949219 183.800781 L 245.050781 184.199219 L 245.050781 184.648438 L 245.550781 184.648438 L 245.699219 184.800781 L 246.050781 189.75 L 246 189.898438 L 245.5 190 L 245.5 190.5 Z M 239.351562 184.300781 L 239.351562 184.800781 L 239.851562 184.800781 L 239.949219 184.949219 L 240 189.898438 L 239.898438 190.050781 L 239.449219 190.148438 L 239.449219 190.550781 L 241.648438 190.550781 L 241.648438 190.101562 L 241.148438 190.101562 L 241.050781 189.898438 L 241.050781 187.5 L 243.25 187.5 L 243.25 189.800781 L 243.148438 189.949219 L 242.699219 190 L 242.699219 190.5 L 244.898438 190.5 L 244.898438 190 L 244.398438 190 L 244.351562 189.800781 L 244.25 184.800781 L 244.351562 184.648438 L 244.851562 184.648438 L 244.851562 184.148438 L 242.601562 184.148438 L 242.601562 184.648438 L 243.101562 184.699219 L 243.199219 184.851562 L 243.199219 186.851562 L 241.050781 186.898438 L 240.949219 184.898438 L 241.101562 184.75 L 241.550781 184.75 L 241.550781 184.25 Z M 234.648438 184.148438 L 234.648438 185.800781 L 235.148438 185.800781 L 235.300781 184.800781 L 235.398438 184.648438 L 236.351562 184.648438 L 236.351562 189.75 L 236.199219 189.949219 L 235.699219 189.949219 L 235.699219 190.449219 L 238 190.449219 L 238 190 L 237.5 189.949219 L 237.351562 189.75 L 237.398438 184.75 L 238.300781 184.75 L 238.449219 184.851562 L 238.601562 185.851562 L 239.101562 185.851562 L 239.101562 184.199219 Z M 227.5 189.449219 L 231.5 189.648438 L 231.601562 188 L 231.101562 188 L 230.949219 188.949219 L 230.851562 189.050781 L 229.101562 189 L 229.199219 186.5 L 230.148438 186.601562 L 230.25 186.75 L 230.351562 187.449219 L 230.75 187.449219 L 230.851562 185.300781 L 230.398438 185.300781 L 230.300781 185.898438 L 230.199219 186.050781 L 229.199219 186.050781 L 229.300781 183.75 L 230.800781 183.851562 L 230.898438 183.949219 L 230.949219 184.800781 L 231.5 184.800781 L 231.5 183.351562 L 227.75 183.148438 L 227.75 183.601562 L 228.25 183.699219 L 228.300781 183.851562 L 228.101562 188.800781 L 228 188.949219 L 227.5 188.949219 Z M 218.199219 186.75 L 220.398438 187.550781 L 220.5 187.148438 L 220 186.898438 L 220 186.699219 L 221.25 181.949219 L 221.398438 181.851562 L 221.898438 182 L 222 181.601562 L 219.851562 180.75 L 219.75 181.199219 L 220.199219 181.398438 L 220.300781 181.601562 L 218.949219 186.300781 L 218.851562 186.449219 L 218.351562 186.300781 Z M 214.398438 185.101562 C 214.789062 185.449219 215.226562 185.722656 215.699219 185.898438 C 216.898438 186.300781 217.851562 185.800781 218.101562 184.800781 C 218.246094 184.25 218.152344 183.652344 217.851562 183.199219 L 216.949219 182.199219 C 216.648438 181.800781 216.550781 181.382812 216.648438 180.949219 C 216.816406 180.449219 217.183594 180.285156 217.75 180.449219 C 217.949219 180.550781 218.117188 180.667969 218.25 180.800781 L 218.25 180.949219 L 218.148438 181.949219 L 218.648438 182.101562 L 219.050781 180.699219 C 218.683594 180.332031 218.257812 180.042969 217.800781 179.851562 C 216.800781 179.449219 215.898438 180 215.601562 180.949219 C 215.484375 181.425781 215.554688 181.933594 215.800781 182.351562 C 216.035156 182.816406 216.285156 183.148438 216.550781 183.351562 C 216.984375 183.851562 217.148438 184.332031 217.050781 184.800781 C 216.882812 185.332031 216.484375 185.5 215.851562 185.300781 C 215.628906 185.207031 215.425781 185.070312 215.25 184.898438 L 215.199219 184.75 L 215.398438 183.648438 L 214.851562 183.449219 Z M 209.5 182.800781 L 213.199219 184.800781 L 213.800781 183.300781 L 213.300781 183.050781 L 212.851562 183.898438 L 212.699219 183.949219 L 211.148438 183.050781 L 212.050781 180.898438 L 212.949219 181.398438 L 212.949219 181.550781 L 212.800781 182.199219 L 213.199219 182.449219 L 214 180.449219 L 213.601562 180.25 L 213.25 180.800781 L 213.101562 180.898438 L 212.25 180.398438 L 213.050781 178.398438 L 214.398438 179.148438 L 214.449219 179.300781 L 214.25 180.101562 L 214.75 180.351562 L 215.25 179.050781 L 211.851562 177.101562 L 211.648438 177.5 L 212.050781 177.800781 L 212.101562 178 L 210.300781 182.5 L 210.148438 182.5 L 209.699219 182.351562 Z M 208.949219 175.300781 L 207.101562 173.851562 L 206.851562 174.25 L 207.199219 174.601562 L 207.25 174.800781 L 204.949219 178.898438 L 204.75 178.949219 L 204.398438 178.699219 L 204.148438 179.101562 L 205.949219 180.5 C 206.617188 181 207.214844 181.234375 207.75 181.199219 C 208.582031 181.101562 209.25 180.601562 209.75 179.699219 C 210.648438 178 210.398438 176.398438 208.949219 175.300781 M 208.148438 175.300781 L 208.550781 175.601562 C 209.550781 176.332031 209.632812 177.433594 208.800781 178.898438 C 207.933594 180.398438 207.035156 180.734375 206.101562 179.898438 L 205.699219 179.699219 L 208.199219 175.351562 Z M 222.800781 181.800781 L 222.75 182.199219 L 223.199219 182.351562 L 223.25 182.550781 L 222.398438 187.398438 L 222.25 187.5 L 221.75 187.5 L 221.75 187.898438 L 223.800781 188.398438 L 223.898438 188 L 223.398438 187.800781 L 223.351562 187.648438 L 223.699219 185.601562 L 223.851562 185.601562 C 224.601562 185.800781 224.75 186.25 224.75 187.199219 C 224.75 187.632812 224.882812 188.082031 225.148438 188.550781 C 225.285156 188.785156 225.515625 188.933594 225.851562 189 C 226.097656 189.054688 226.347656 189.085938 226.601562 189.101562 L 226.648438 188.699219 L 226.601562 188.699219 C 226.101562 188.601562 225.851562 188.300781 225.851562 187.800781 C 225.75 187.300781 225.851562 186.800781 225.648438 186.300781 C 225.515625 185.988281 225.285156 185.738281 225 185.601562 C 225.867188 185.601562 226.367188 185.183594 226.5 184.351562 C 226.699219 183.316406 226.214844 182.648438 225.050781 182.351562 Z M 224.300781 182.648438 L 224.601562 182.75 C 225.300781 182.949219 225.582031 183.433594 225.449219 184.199219 C 225.316406 185.066406 224.851562 185.367188 224.050781 185.101562 L 223.800781 185.050781 L 224.25 182.648438 Z M 251.398438 183.148438 L 251.449219 183.648438 L 251.949219 183.648438 L 252.101562 183.75 L 252.800781 188.648438 L 252.699219 188.800781 L 252.199219 188.949219 L 252.300781 189.351562 L 254.550781 188.949219 L 254.550781 188.449219 L 254 188.550781 L 253.851562 188.398438 L 253.550781 186.398438 L 253.699219 186.398438 C 254.5 186.148438 254.800781 186.5 255.199219 187.351562 C 255.351562 187.75 255.449219 188.148438 255.949219 188.449219 C 256.148438 188.582031 256.449219 188.632812 256.851562 188.601562 C 257.121094 188.539062 257.390625 188.453125 257.648438 188.351562 L 257.601562 187.898438 L 257.5 187.898438 C 257 188.066406 256.632812 187.917969 256.398438 187.449219 C 256.234375 187.015625 256.015625 186.601562 255.75 186.199219 C 255.550781 185.933594 255.25 185.800781 254.851562 185.800781 C 255.714844 185.398438 256.101562 184.785156 256 183.949219 C 255.867188 182.917969 255.167969 182.5 253.898438 182.699219 Z M 253.148438 183.398438 L 253.5 183.398438 C 254.300781 183.199219 254.765625 183.5 254.898438 184.300781 C 255.035156 185.101562 254.667969 185.601562 253.800781 185.800781 L 253.5 185.800781 L 253.101562 183.398438 Z M 253.148438 183.398438 "/>
<path style="fill-rule:evenodd;fill:url(#linear8);stroke-width:1.2;stroke-linecap:butt;stroke-linejoin:miter;stroke:rgb(0%,0%,0%);stroke-opacity:1;stroke-miterlimit:4;" d="M 401.5 378.796875 L 393.703125 363.703125 L 397.601562 360.5 C 398.601562 364.296875 403.101562 365.601562 403.898438 370.5 C 404.601562 375.203125 400.898438 379.898438 401.5 378.796875 Z M 401.5 378.796875 " transform="matrix(0.5,0,0,0.5,0,0)"/>
<path style="fill-rule:evenodd;fill:url(#linear9);stroke-width:1.2;stroke-linecap:butt;stroke-linejoin:miter;stroke:rgb(0%,0%,0%);stroke-opacity:1;stroke-miterlimit:4;" d="M 394.296875 374.5 C 394.296875 374.5 392.898438 367.703125 397.296875 366.898438 C 401.703125 366.101562 404.101562 370.703125 403.5 368.898438 C 402.796875 366.898438 400.203125 364.898438 399.796875 358.203125 C 399.398438 351.5 400.101562 347.898438 400.101562 347.898438 C 400.101562 347.898438 398.398438 339.203125 391.296875 340.398438 C 384.203125 341.703125 383.796875 348 383.796875 350.296875 C 383.796875 352.5 384.5 353.796875 384.5 353.796875 Z M 394.296875 374.5 " transform="matrix(0.5,0,0,0.5,0,0)"/>
<path style="fill-rule:evenodd;fill:rgb(0%,44.705883%,76.862746%);fill-opacity:1;stroke-width:3.9;stroke-linecap:butt;stroke-linejoin:miter;stroke:rgb(100%,100%,100%);stroke-opacity:1;stroke-miterlimit:4;" d="M 480.5 356.101562 C 480.5 356.101562 398.5 329.101562 399.101562 226.703125 L 399.703125 91.101562 L 561 91.101562 L 561.601562 225.898438 C 562.101562 328.296875 480.203125 356 480.203125 356 Z M 480.5 356.101562 " transform="matrix(0.5,0,0,0.5,0,0)"/>
<path style=" stroke:none;fill-rule:evenodd;fill:rgb(73.725492%,73.725492%,73.725492%);fill-opacity:1;" d="M 205.148438 61.800781 L 206.148438 60.800781 C 206.785156 60.367188 207.398438 59.964844 208 59.601562 C 208.5 59.300781 209.5 59.050781 209.851562 58.800781 C 210.433594 58.457031 210.945312 57.980469 211.351562 57.398438 C 211.449219 56.550781 211.601562 55.898438 211.601562 54.898438 C 212.136719 54.464844 212.746094 54.128906 213.398438 53.898438 C 214.25 53.601562 214.398438 53.199219 215.300781 53.050781 C 215.800781 52.851562 216.699219 52.851562 217.5 52.851562 C 218.300781 52.851562 218.851562 53.550781 219.601562 53.648438 C 220.5 54.050781 220.898438 54.351562 221.648438 55.050781 C 221.949219 55.652344 222.398438 56.167969 222.949219 56.550781 C 223.5 56.851562 224.050781 57.351562 224.648438 57.550781 C 225.398438 58 226 58.25 226.550781 58.949219 C 227.050781 59.351562 227.25 59.949219 227.699219 60.300781 C 228.234375 60.816406 228.800781 61.285156 229.398438 61.699219 C 230.148438 62.25 230.898438 62.699219 232 62.550781 C 232.648438 62.550781 233.300781 62.398438 234 62.550781 C 234.898438 62.515625 235.699219 62.601562 236.398438 62.800781 C 237.265625 62.800781 238.066406 62.867188 238.800781 63 C 239.535156 63.101562 240.316406 63.148438 241.148438 63.148438 C 241.882812 63.351562 242.683594 63.417969 243.550781 63.351562 L 248.300781 63.351562 C 249.167969 63.351562 249.949219 63.417969 250.648438 63.550781 C 251.4375 63.539062 252.222656 63.472656 253 63.351562 C 253.867188 63.316406 254.699219 63.25 255.5 63.148438 L 258.398438 63.148438 C 259.148438 63.398438 260.101562 63.550781 260.601562 64 C 261.300781 64.199219 261.601562 64.550781 262.300781 64.75 C 262.957031 65.097656 263.535156 65.574219 264 66.148438 C 264.535156 66.8125 264.988281 67.554688 265.351562 68.351562 C 265.851562 69.101562 266 70 266.351562 70.949219 C 266.550781 71.816406 266.667969 72.734375 266.699219 73.699219 C 266.867188 74.566406 266.917969 75.5 266.851562 76.5 C 266.75 77.433594 266.582031 78.351562 266.351562 79.25 C 266.316406 80.25 266.199219 81.117188 266 81.851562 C 265.898438 82.648438 265.699219 83.199219 265.648438 84.199219 L 265.648438 87 C 265.648438 87.898438 265.449219 88.601562 265.351562 89.550781 C 264.898438 90.523438 264.5 91.527344 264.148438 92.550781 C 263.617188 92.988281 263.15625 93.527344 262.800781 94.148438 C 262.449219 94.398438 262.25 94.800781 262.300781 94.949219 C 263 95.199219 262.800781 95.75 262.800781 96.699219 L 263.148438 99.300781 C 263.199219 100.300781 263.398438 100.800781 263.648438 101.5 C 263.949219 101.898438 264 101.699219 263.300781 101.699219 C 262.734375 102.101562 262.351562 101.898438 262.148438 101.101562 C 261.765625 100.441406 261.523438 99.6875 261.449219 98.898438 C 261.351562 97.933594 261.183594 97.132812 260.949219 96.5 C 260.851562 95.398438 260.601562 95.398438 259.601562 95.300781 C 259.132812 94.898438 258.464844 94.714844 257.601562 94.75 C 256.601562 94.75 256.601562 94.648438 256.601562 95.75 L 256.601562 98.550781 C 256.367188 99.285156 256.117188 100 255.851562 100.699219 C 255.351562 101.101562 255.148438 101.800781 254.5 102.300781 C 254.25 103.199219 253.800781 103.300781 253 103.5 L 252 102.101562 C 252.5 101.199219 252.851562 101.101562 253.148438 100.101562 C 253.550781 99.300781 253.75 98.800781 254 98.101562 C 253.648438 97.5 253.351562 97.199219 253 96.351562 C 252.644531 95.652344 252.359375 94.917969 252.148438 94.148438 C 251.601562 93.949219 250.699219 93.898438 250.300781 93.550781 C 249.449219 93.351562 249.25 94.398438 248.300781 94.398438 L 245.898438 94.398438 C 244.851562 94.398438 244.601562 95 243.699219 94.949219 C 243.433594 95.015625 242.816406 95.015625 241.851562 94.949219 C 241.101562 95.25 240.25 95.148438 239.449219 95.148438 C 238.648438 95.082031 237.917969 94.949219 237.25 94.75 C 236.515625 94.484375 235.734375 94.285156 234.898438 94.148438 C 233.898438 94.148438 233.550781 94.25 232.898438 94.75 C 232.398438 95.101562 231.601562 95.898438 231.050781 96.351562 C 230.800781 97 230.648438 98.101562 230.300781 98.898438 C 230.148438 99.75 229.851562 100.199219 229.699219 100.898438 C 229.417969 101.664062 229.246094 102.476562 229.199219 103.300781 C 229.101562 104.601562 228.851562 104.449219 228.148438 104.101562 C 227.816406 103.535156 227.484375 102.933594 227.148438 102.300781 C 227.25 101.300781 227.5 100.800781 227.5 99.75 C 227.300781 98.898438 226.949219 99 226.5 99.5 C 226.5 100.550781 226.5 101.351562 226.101562 101.898438 C 225.960938 102.546875 225.601562 103.105469 225.101562 103.449219 C 224.855469 104.078125 224.371094 104.585938 223.75 104.851562 C 223.683594 104.851562 223.683594 104.582031 223.75 104.050781 C 223.351562 103.199219 223.75 102.398438 223.75 101.300781 C 223.75 100.300781 223.648438 99.648438 223.949219 98.75 C 223.949219 97.75 223.550781 96.851562 223.449219 96.148438 C 223.101562 95.398438 222.898438 95.050781 222.050781 94.75 C 221.449219 94.449219 220.550781 94.148438 220.199219 93.5 C 219.808594 92.894531 219.269531 92.425781 218.648438 92.148438 C 217.898438 91.851562 217.5 91.550781 216.949219 91.148438 C 216.449219 90.5 216 90.25 215.800781 89.398438 C 215.449219 88.800781 215.398438 87.648438 215.148438 86.800781 C 215.078125 85.996094 214.910156 85.203125 214.648438 84.449219 C 214.570312 83.628906 214.402344 82.824219 214.148438 82.050781 L 213.601562 79.449219 C 213.632812 78.484375 213.566406 77.566406 213.398438 76.699219 L 213.398438 73.898438 C 213.300781 73.050781 213.25 71.898438 213.101562 71.300781 C 213.101562 70.25 212.949219 69.648438 212.699219 68.898438 C 212.351562 68.199219 212.351562 67.898438 211.699219 67.75 C 211.265625 68.351562 210.601562 68.683594 209.699219 68.75 C 209.101562 68.601562 208.199219 68.449219 207.5 68.148438 C 206.800781 67.949219 206.398438 67.648438 205.851562 67.300781 C 205.523438 66.78125 205.171875 66.277344 204.800781 65.800781 C 204.699219 64.75 204.5 64.199219 204.449219 63.148438 C 204.449219 62.398438 204.449219 62.851562 205.148438 61.800781 "/>
<path style=" stroke:none;fill-rule:evenodd;fill:rgb(99.607843%,99.607843%,99.607843%);fill-opacity:1;" d="M 215.148438 69 L 215.300781 68.800781 C 215 69.148438 215.101562 68.949219 215.800781 68.648438 C 216.101562 68.449219 216.800781 67.949219 217.050781 67.648438 C 217.351562 67.5 217.898438 67.300781 218.148438 67 C 218.449219 66.601562 218.816406 66.234375 219.25 65.898438 C 219.699219 65.398438 220.101562 65.25 220.648438 64.898438 C 221.300781 64.800781 221.601562 64.5 222.199219 64.75 C 222.800781 64.898438 223.050781 64.898438 223.5 64.300781 C 224.066406 64 224.484375 63.601562 224.75 63.101562 L 224.75 62.199219 C 224.75 63.101562 224.550781 63.449219 224 63.699219 C 223.648438 64.25 223.101562 64.800781 222.898438 65.300781 C 222.550781 65.898438 222.449219 66.25 222.101562 66.550781 C 221.75 67 221.25 67.25 221.101562 67.949219 C 221.300781 68.300781 221.101562 68.449219 221.5 68.5 C 221.851562 68.851562 222.199219 68.699219 222.699219 68.5 C 223.097656 68.015625 223.417969 67.457031 223.648438 66.851562 L 224.5 65.398438 C 224.898438 65.167969 225.167969 64.800781 225.300781 64.300781 C 225.800781 63.964844 226.214844 63.632812 226.550781 63.300781 C 226.898438 63.101562 227.050781 62.851562 227.550781 62.75 C 227.585938 63.296875 227.464844 63.839844 227.199219 64.300781 C 227.101562 65.101562 227.148438 65.449219 227.351562 65.949219 C 227.699219 66.25 227.648438 66.449219 227.851562 66.949219 C 228.050781 66.449219 228.148438 65.601562 228.199219 65 L 228.199219 64.898438 C 228.199219 65.449219 228.199219 66.300781 228.050781 66.699219 C 228.050781 67.5 228.25 67.898438 228.449219 68.5 C 228.617188 68.832031 228.800781 69.066406 229 69.199219 C 229 68.398438 229.25 67.898438 229.300781 67.148438 L 229.5 69.101562 C 229.535156 69.734375 229.699219 70.285156 230 70.75 C 230.25 70.949219 230.351562 71.5 230.449219 71.050781 C 230.75 70.050781 230.75 69.050781 230.949219 67.949219 C 230.949219 67.449219 230.949219 66.648438 231.199219 66.300781 L 230.898438 67.949219 C 230.949219 67.449219 231 66.699219 231.199219 66.300781 L 231.199219 66.101562 C 231.332031 66.859375 231.417969 67.628906 231.449219 68.398438 C 231.417969 69 231.449219 69.601562 231.550781 70.199219 C 231.882812 69.964844 232.167969 69.550781 232.398438 68.949219 C 232.65625 68.390625 232.976562 67.871094 233.351562 67.398438 L 232.351562 68.898438 C 232.625 68.355469 232.960938 67.851562 233.351562 67.398438 L 233.351562 67.300781 C 233.285156 67.929688 233.25 68.566406 233.25 69.199219 C 233.25 69.933594 233.285156 70.550781 233.351562 71.050781 C 233.5 71.800781 233.648438 71.898438 233.699219 72.699219 C 233.667969 73.167969 233.699219 73.5 233.800781 73.699219 C 234.300781 73.851562 234.300781 73.550781 234.398438 72.699219 C 234.464844 71.933594 234.550781 71.148438 234.648438 70.351562 C 234.648438 69.300781 234.75 70.5 234.898438 70.851562 C 235.117188 71.453125 235.238281 72.097656 235.25 72.75 C 235.25 73.183594 235.285156 73.515625 235.351562 73.75 C 235.851562 73.5 236 72.898438 236.351562 72.601562 C 236.550781 71.898438 236.851562 71.601562 237.050781 71.199219 C 237.648438 71.050781 237.648438 70.75 237.648438 69.949219 C 237.582031 69.214844 237.632812 68.550781 237.800781 67.949219 C 237.980469 67.34375 238.132812 66.726562 238.25 66.101562 C 238.449219 66 238.699219 66.351562 238.851562 66.699219 C 239.050781 67.167969 239.117188 67.765625 239.050781 68.5 C 239.191406 69.09375 239.410156 69.664062 239.699219 70.199219 C 239.910156 70.703125 240.179688 71.175781 240.5 71.601562 C 240.648438 72.050781 240.648438 72.851562 240.648438 73.449219 C 241.148438 72.851562 241.148438 71.949219 241.199219 71.050781 C 241.148438 70.449219 241.148438 69.648438 241 69.050781 C 240.964844 68.417969 240.882812 67.867188 240.75 67.398438 C 240.351562 67.265625 240.316406 66.933594 240.648438 66.398438 C 241 66.050781 241.449219 66.199219 242.050781 66.300781 C 242.398438 66.648438 242.5 66.851562 242.550781 67.699219 C 242.515625 68.433594 242.601562 69.035156 242.800781 69.5 C 243 69.898438 243.25 70.199219 243.398438 70.898438 C 243.550781 71.101562 243.699219 71.398438 243.949219 71.050781 C 244.101562 70.648438 244.199219 69.851562 244.351562 69.351562 C 244.449219 68.851562 244.632812 68.515625 244.898438 68.351562 C 244.898438 69.148438 244.898438 69.601562 245.199219 70.199219 L 245.75 71.75 C 246 71.949219 246.050781 72.398438 246.398438 72.601562 L 246.5 70.351562 L 246.5 68.351562 C 246.535156 67.816406 246.648438 67.316406 246.851562 66.851562 C 247.25 67.398438 247.25 67.601562 247.25 68.351562 C 247.601562 68.199219 247.648438 67.851562 247.800781 67.398438 C 248.050781 67.101562 248.199219 67 248.300781 67.699219 C 248.367188 68.433594 248.484375 69.132812 248.648438 69.800781 C 248.898438 70.101562 249.148438 70.898438 249.449219 71.199219 C 249.664062 71.613281 249.914062 71.996094 250.199219 72.351562 C 250.398438 72.75 250.398438 73.050781 250.949219 73.148438 C 250.949219 72.183594 250.898438 71.25 250.800781 70.351562 C 250.800781 69.550781 250.648438 69.25 250.550781 68.5 C 250.351562 68.050781 250.25 67.300781 250.300781 67.101562 C 250.78125 67.5625 251.15625 68.144531 251.398438 68.800781 L 252.148438 70.648438 C 252.492188 71.078125 252.792969 71.550781 253.050781 72.050781 C 253.5 72.449219 253.699219 72.898438 254.148438 73.300781 C 254.351562 73.550781 254.898438 73.699219 255 73.550781 C 255 72.785156 254.882812 72.050781 254.648438 71.351562 C 254.640625 70.753906 254.503906 70.171875 254.25 69.648438 C 253.75 69.199219 253.398438 68.898438 253.148438 68.25 C 253 68.050781 253 67.949219 252.949219 67.550781 C 253.589844 68.117188 254.160156 68.773438 254.648438 69.5 C 254.886719 69.921875 255.214844 70.265625 255.601562 70.5 C 255.800781 70.800781 256.5 71.199219 257 71.300781 C 257.296875 71.734375 257.722656 72.035156 258.199219 72.148438 L 257 71.351562 C 257.304688 71.765625 257.730469 72.050781 258.199219 72.148438 L 258.199219 72.351562 C 258.125 71.53125 257.886719 70.746094 257.5 70.050781 C 257.261719 69.445312 256.882812 68.925781 256.398438 68.550781 C 256.097656 68.03125 255.683594 67.601562 255.199219 67.300781 C 254.898438 66.851562 254.398438 66.101562 254.101562 65.898438 C 254.648438 65.449219 255.25 66.101562 255.800781 66.398438 C 256.300781 67 256.699219 67.75 257 68.101562 C 257.28125 68.773438 257.652344 69.398438 258.101562 69.949219 C 258.566406 70.285156 259 70.648438 259.398438 71.050781 C 260.101562 71.25 259.851562 71 259.648438 70.351562 C 259.449219 69.617188 259.617188 69.515625 260.148438 70.050781 C 260.449219 70.382812 260.851562 70.714844 261.351562 71.050781 C 261.550781 71.382812 261.816406 71.484375 262.148438 71.351562 C 262.300781 71.148438 262.300781 71.148438 262.300781 70.949219 C 262.101562 70.015625 261.734375 69.398438 261.199219 69.101562 C 260.867188 68.667969 260.5 68.25 260.101562 67.851562 C 259.851562 67.449219 259.601562 67.199219 259.398438 66.699219 L 260.101562 67.800781 C 259.851562 67.398438 259.601562 67.199219 259.398438 66.699219 L 259.300781 66.699219 C 260 66.699219 260.300781 66.949219 260.800781 67.300781 C 261.246094 67.507812 261.628906 67.855469 261.898438 68.300781 C 262.199219 68.601562 262.484375 68.949219 262.75 69.351562 L 263.949219 70.351562 C 264.351562 70.949219 264.449219 71.351562 264.449219 72.148438 C 264.648438 72.601562 264.699219 73.398438 264.800781 73.851562 C 264.699219 74.648438 264.449219 74 264.398438 73.550781 C 264.351562 72.949219 264.101562 73 263.699219 73.148438 C 263.699219 74 263.800781 74.25 264.050781 74.851562 C 263.996094 75.347656 263.84375 75.828125 263.601562 76.25 C 263.300781 76.449219 263.25 75.851562 263 75.550781 C 263 74.699219 262.75 74.550781 262.25 74.148438 L 262.25 74.699219 C 262.582031 75.265625 262.785156 75.917969 262.851562 76.648438 C 263.054688 77.238281 263.15625 77.867188 263.148438 78.5 C 263.148438 79.167969 263.101562 79.832031 263 80.5 C 263 81.199219 262.851562 81.5 262.851562 82.300781 L 262.851562 86.25 C 262.765625 86.84375 262.734375 87.449219 262.75 88.050781 L 262.851562 86.25 C 262.785156 86.75 262.75 87.351562 262.75 88.050781 L 262.75 88.148438 C 262.515625 87.484375 262.316406 86.816406 262.148438 86.148438 C 261.792969 85.71875 261.523438 85.207031 261.351562 84.648438 C 261.25 83.984375 261.167969 83.382812 261.101562 82.851562 C 260.898438 82.351562 260.699219 81.851562 260.351562 82.148438 C 260.199219 83.148438 260.351562 83.800781 260.699219 84.800781 C 260.898438 85.449219 260.898438 86.050781 261.101562 86.648438 C 261.351562 87.398438 261.601562 87.449219 261.101562 88.300781 C 260.800781 88.800781 260.699219 88.898438 260.601562 89.449219 C 260.148438 89.699219 260.050781 89.851562 260 90.449219 C 259.800781 89.882812 259.566406 89.265625 259.300781 88.601562 C 259.035156 87.867188 258.832031 87.199219 258.699219 86.601562 C 258.398438 86.148438 258.050781 85.398438 257.699219 85.101562 L 256.800781 83.449219 C 256.300781 82.800781 256.199219 82.449219 255.800781 82.148438 C 255.75 81.898438 255.601562 81.5 255.300781 81.75 C 255.300781 82.417969 255.351562 83.066406 255.449219 83.699219 C 255.601562 84.5 255.800781 84.949219 255.851562 85.800781 L 255.851562 87.300781 C 255.515625 86.535156 255.234375 85.800781 255 85.101562 C 254.699219 84.648438 254.449219 83.851562 254.148438 83.601562 C 253.984375 83.035156 253.785156 82.550781 253.550781 82.148438 C 253.5 81.75 253.300781 81.75 253.148438 81.449219 C 253.148438 82.25 253.398438 82.550781 253.550781 83.101562 C 253.800781 83.699219 253.851562 84.550781 253.800781 84.851562 C 253.535156 83.851562 253.199219 82.851562 252.800781 81.851562 L 251.898438 80 C 251.5 79.550781 251.148438 79.5 250.800781 79.199219 C 250.46875 79.050781 250.179688 78.808594 249.949219 78.5 C 250.082031 79.199219 250.25 79.800781 250.449219 80.300781 C 250.617188 80.964844 250.765625 81.582031 250.898438 82.148438 C 250.800781 83.148438 250.601562 81.898438 250.398438 81.449219 C 250.300781 80.648438 250.050781 80.25 249.851562 79.800781 C 249.515625 79.464844 249.183594 79.132812 248.851562 78.800781 C 248.5 78.648438 248.648438 78.800781 248.648438 79.300781 C 248.617188 80.167969 248.699219 80.832031 248.898438 81.300781 C 249.101562 81.699219 249.183594 82.265625 249.148438 83 C 249.101562 83.699219 249 84.199219 249 85 L 249 86.050781 C 248.75 85.5 248.5 85.101562 248.25 84.398438 C 247.949219 83.800781 247.683594 83.183594 247.449219 82.550781 C 247.199219 82.449219 246.699219 82.351562 246.449219 82.550781 C 246.550781 83.25 246.800781 83.550781 246.851562 84.398438 C 246.351562 84.898438 246.449219 85.101562 246.148438 84.25 C 245.851562 83.601562 245.550781 83.648438 245.148438 83.25 C 244.550781 83.199219 244.75 82.75 244.601562 82.101562 C 244.601562 81.601562 244.550781 81.101562 244.449219 80.601562 C 243.800781 80.601562 243.449219 80.601562 243 81 C 242.851562 81.398438 242.898438 82.25 243 82.851562 L 243 84.800781 C 242.851562 85.300781 242.648438 85.300781 242.5 85.949219 C 242.300781 86.5 242.25 87.199219 242.050781 87.601562 C 241.601562 88.050781 241.800781 88.101562 241.550781 87.351562 L 241.550781 82.851562 C 241.550781 82.101562 241.699219 81.699219 241.699219 81 C 241.449219 80.449219 241.398438 80.300781 240.601562 80.300781 C 240.488281 80.761719 240.488281 81.238281 240.601562 81.699219 C 240.601562 82.433594 240.648438 83.050781 240.75 83.550781 L 240.851562 85.351562 C 240.851562 86.117188 240.683594 86.667969 240.351562 87 C 239.949219 87.199219 240.351562 87.5 239.898438 87.648438 C 239.425781 87.386719 238.988281 87.050781 238.601562 86.648438 C 238.167969 86.484375 237.648438 86.382812 237.050781 86.351562 C 236.25 86.351562 236.25 86.25 235.949219 85.550781 C 235.722656 84.800781 235.554688 84.03125 235.449219 83.25 C 235.199219 82.601562 235.148438 82.148438 234.949219 81.398438 C 234.796875 81.003906 234.554688 80.660156 234.25 80.398438 C 234.101562 81.199219 233.949219 81.75 233.949219 82.550781 C 233.800781 82.898438 233.75 83.75 233.648438 84.050781 C 233.449219 83.699219 233.351562 82.851562 233.148438 82.300781 C 233 81.449219 232.800781 80.898438 232 81.199219 C 231.199219 81.199219 231.199219 81.199219 231.199219 82.199219 L 232.148438 83.800781 L 232.148438 85.800781 C 232.148438 86.601562 232.148438 86.851562 231.648438 87 C 231.449219 86.167969 231.082031 85.382812 230.550781 84.648438 C 230.550781 84.101562 230.351562 84.25 229.851562 84.25 C 229.515625 84.214844 229.234375 84.265625 229 84.398438 L 229 85.601562 C 228.800781 85.699219 228.617188 85.617188 228.449219 85.351562 C 228.199219 85.800781 228.351562 86.351562 228.449219 86.851562 C 228.34375 87.414062 228.140625 87.953125 227.851562 88.449219 C 227.75 88.25 227.648438 88.351562 227.851562 88.351562 C 227.050781 88.015625 226.316406 87.734375 225.648438 87.5 C 225.300781 87.5 224.949219 88 224.75 88.351562 C 224.101562 88.550781 223.851562 88.75 223.148438 88.75 L 221.648438 88.851562 C 221.183594 88.984375 220.648438 89.050781 220.050781 89.050781 C 219.75 88.898438 219.148438 88.898438 219 88.75 C 219.25 88.351562 219.5 88.148438 219.699219 87.5 C 220.058594 87.203125 220.394531 86.867188 220.699219 86.5 L 221.601562 85.351562 C 221.800781 84.648438 222.101562 84.550781 222.449219 84.25 C 223.199219 84.25 223.300781 84.550781 224 84.648438 C 224.699219 84.949219 225.101562 85.101562 225.5 84.5 C 226 84.25 226.5 83.800781 227.101562 83.699219 L 228.300781 82.851562 C 228.800781 82.5 229.050781 82.101562 229.5 81.699219 C 229.648438 81.148438 230 80.699219 229.851562 80.050781 C 229.25 79.816406 228.75 79.898438 228.351562 80.300781 C 227.898438 80.800781 227.851562 81 227.199219 81.398438 C 226.699219 81.601562 226.5 81.851562 225.898438 82 C 225.398438 82.199219 224.800781 82.101562 224.25 82.101562 C 223.699219 82.101562 223 82.101562 222.699219 82.300781 C 223.234375 81.832031 223.785156 81.5 224.351562 81.300781 C 224.851562 80.949219 225.050781 80.800781 225.699219 80.699219 C 226 80.300781 226.25 80.300781 226.398438 79.601562 C 226.601562 78.800781 225.898438 79.050781 225.398438 79.351562 C 224.949219 79.449219 224.398438 79.851562 224 80 C 223.515625 80.179688 223.011719 80.28125 222.5 80.300781 C 222.300781 80.050781 222.550781 79.851562 222.699219 79.5 C 223.199219 79.25 223.351562 79.148438 223.398438 78.5 C 222.75 78.601562 222.550781 78.851562 221.949219 78.898438 C 221.328125 79.066406 220.691406 79.167969 220.050781 79.199219 L 218.398438 79.199219 C 217.800781 79.199219 217.5 79.050781 216.800781 79.050781 C 216.300781 78.75 216.300781 78.648438 216.300781 77.800781 C 216.699219 77.300781 217.050781 77.398438 217.800781 77.398438 L 219.101562 76.648438 C 219.566406 76.550781 219.765625 76.382812 219.699219 76.148438 L 218.050781 76.148438 C 217.351562 75.800781 218.050781 75.648438 218.398438 75.398438 C 218.898438 75.398438 219.550781 75.398438 219.898438 75.648438 C 220.648438 75.648438 220.898438 75.398438 221.449219 74.851562 C 221.949219 74.449219 222.199219 74.148438 222.699219 73.851562 C 223.066406 73.449219 223.382812 73.082031 223.648438 72.75 C 224.148438 72.285156 224.515625 71.851562 224.75 71.449219 C 225.082031 71.285156 225.199219 71.050781 225.101562 70.75 C 224.351562 70.851562 224 71.199219 223.5 71.601562 C 223.222656 71.921875 222.902344 72.195312 222.550781 72.398438 C 222.097656 72.773438 221.5625 73 221 73.050781 C 220.433594 73.015625 219.882812 72.949219 219.351562 72.851562 C 218.699219 72.800781 219.25 72.601562 219.449219 72.300781 C 219.785156 72.101562 219.867188 71.765625 219.699219 71.300781 C 219.167969 71.199219 218.617188 71.167969 218.050781 71.199219 L 216.351562 71.199219 C 215.699219 71.199219 215.449219 71 215 70.75 C 214.898438 70.351562 215 70.5 215.5 70.5 C 216.027344 70.46875 216.546875 70.367188 217.050781 70.199219 C 217.601562 70.050781 217.699219 69.800781 217.800781 69.101562 C 217.132812 69.101562 216.617188 69.050781 216.25 68.949219 Z M 204.800781 65.75 C 204.699219 64.75 204.449219 64.199219 204.449219 63.148438 C 204.449219 62.398438 204.449219 62.851562 205.148438 61.800781 L 206.148438 60.800781 C 206.785156 60.367188 207.398438 59.964844 208 59.601562 C 208.5 59.300781 209.5 59.050781 209.851562 58.800781 C 210.433594 58.457031 210.945312 57.980469 211.351562 57.398438 C 211.449219 56.550781 211.550781 55.898438 211.550781 54.898438 C 212.214844 54.398438 212.832031 54.066406 213.398438 53.898438 C 214.25 53.601562 214.398438 53.199219 215.300781 53.050781 C 215.800781 52.851562 216.699219 52.851562 217.5 52.851562 C 218.300781 52.851562 218.851562 53.550781 219.601562 53.648438 C 220.5 54.050781 220.898438 54.351562 221.601562 55.050781 C 222 55.648438 222.300781 56.148438 222.949219 56.550781 C 223.5 56.851562 224.050781 57.351562 224.648438 57.550781 C 224.648438 58.25 224.800781 58.148438 224.351562 58.148438 C 224.300781 58.898438 224.148438 58.800781 223.5 58.851562 C 223.050781 58.578125 222.671875 58.183594 222.398438 57.699219 C 222.699219 57 222.550781 58.300781 222.398438 58.550781 C 222.148438 58.851562 221.949219 59.148438 221.601562 58.851562 C 221.398438 58.148438 221.25 57.699219 221.25 56.851562 C 221.148438 56 220.898438 56.601562 220.75 57 C 220.601562 57.75 220.648438 58 220.898438 58.550781 C 220.265625 58.550781 219.75 58.5 219.351562 58.398438 C 218.882812 58.265625 218.382812 58.367188 217.851562 58.699219 C 217.25 59.148438 217.5 59.148438 217.75 59.699219 C 218.285156 59.898438 218.785156 60.167969 219.25 60.5 L 220.898438 60.101562 C 221.449219 59.851562 222 60 222.550781 60.101562 C 222.882812 60.234375 223.167969 60.367188 223.398438 60.5 C 223.398438 61 223.351562 61.382812 223.25 61.648438 C 223.050781 61.851562 222.75 62.351562 222.398438 62.449219 C 221.902344 62.785156 221.363281 63.039062 220.800781 63.199219 C 220.050781 63.199219 219.75 63.398438 219.199219 63.699219 C 219.148438 64.5 218.949219 64.648438 218.351562 64.898438 C 217.832031 65.171875 217.269531 65.308594 216.699219 65.300781 C 216.332031 65.300781 216.050781 65.25 215.851562 65.148438 C 216.273438 64.675781 216.613281 64.117188 216.851562 63.5 C 216.949219 63.148438 217.148438 63 216.949219 62.75 C 216.25 62.75 216.050781 62.75 215.949219 63.550781 C 215.851562 64.351562 215.648438 64.5 215.148438 64.75 C 215.25 64.082031 215.367188 63.464844 215.5 62.898438 C 215.003906 62.996094 214.503906 63.046875 214 63.050781 C 213.601562 63.300781 213.449219 63.398438 213.601562 63.851562 C 213.066406 64.015625 212.5 64.015625 211.898438 63.851562 C 211.398438 63.851562 211.699219 63.601562 211.300781 63.351562 C 211.101562 62.851562 210.734375 62.617188 210.199219 62.648438 C 209.949219 63.050781 209.5 63.148438 209.199219 63.449219 C 208.699219 63.582031 208.25 63.5 207.851562 63.199219 C 207.25 63.199219 207.351562 63.398438 207.5 63.898438 C 207.75 64.050781 207.5 64.25 207.851562 64.300781 C 208.199219 64.648438 208.5 64.75 209.148438 64.75 C 209.648438 64.617188 210.214844 64.566406 210.851562 64.601562 C 211.449219 64.601562 211.351562 64.75 211.351562 65.398438 C 210.949219 65.75 210.351562 65.699219 209.75 65.699219 C 209.253906 65.632812 208.765625 65.5 208.300781 65.300781 C 207.800781 65.300781 207.300781 65.148438 206.898438 65.300781 C 206.699219 65.550781 206.148438 65.648438 206.800781 65.699219 C 207.050781 66 208.449219 65.851562 208.5 66.351562 C 208.851562 66.75 208.75 67.300781 208.199219 67.300781 C 207.941406 67.117188 207.609375 67.117188 207.351562 67.300781 L 205.800781 67.351562 C 206.699219 67.449219 205.148438 66.25 204.800781 65.75 "/>
<path style=" stroke:none;fill-rule:evenodd;fill:rgb(73.725492%,73.725492%,73.725492%);fill-opacity:1;" d="M 208.550781 61.101562 L 207.851562 61.601562 L 206.398438 62.75 C 206.148438 63 206.148438 63.148438 205.851562 63.148438 C 206.351562 63.101562 206.648438 62.898438 207.148438 62.648438 C 207.816406 62.582031 208.316406 62.382812 208.648438 62.050781 C 209 61.949219 208.648438 61.398438 208.550781 61.050781 Z M 214.050781 54.5 C 214.148438 54.5 214.300781 54.898438 214.550781 55.199219 C 214.75 55.667969 214.867188 56.167969 214.898438 56.699219 C 215.101562 56.101562 215.265625 55.449219 215.398438 54.75 C 215.199219 54.351562 215.199219 54.25 214.648438 54.199219 C 214.648438 54.601562 214.75 54.300781 214.050781 54.5 "/>
<path style="fill-rule:evenodd;fill:rgb(76.862746%,76.862746%,76.078433%);fill-opacity:1;stroke-width:0.9;stroke-linecap:butt;stroke-linejoin:miter;stroke:rgb(0%,0%,0%);stroke-opacity:1;stroke-miterlimit:4;" d="M 349.398431 417.697467 C 348.901361 417.697467 350.198065 417.197907 350.702339 417.099229 C 350.968884 416.365307 351.401118 415.767069 351.999043 415.298346 C 353.065222 415.298346 353.800022 415.66839 354.203441 416.402312 C 355.197581 416.698347 355.500145 417.099229 356.602344 417.302753 C 357.099414 417.697467 357.596484 417.697467 356.602344 417.99967 C 355.93238 418.264869 355.06791 418.400551 354.001731 418.400551 C 353.094038 418.462226 352.215161 418.702754 351.401118 419.097468 C 349.902705 419.097468 350.09721 419.097468 349.398431 417.697467 Z M 349.398431 417.697467 " transform="matrix(0.54224,0,0,0.63337,21.299999,-205.100006)"/>
<path style=" stroke:none;fill-rule:evenodd;fill:rgb(73.725492%,73.725492%,73.725492%);fill-opacity:1;" d="M 216.25 54.601562 L 216.25 54.75 C 216.25 54.351562 216.285156 54.550781 216.351562 55.351562 C 216.542969 55.871094 216.628906 56.4375 216.601562 57 C 216.949219 56.667969 217.210938 56.234375 217.351562 55.75 C 217.351562 54.648438 217.148438 54.699219 216.25 54.601562 M 220.648438 70.75 L 220.800781 70.75 C 220.398438 70.75 220.648438 70.75 221.25 70.351562 C 221.648438 70.050781 222 69.550781 222.550781 69.351562 C 223.007812 68.910156 223.53125 68.570312 224.101562 68.351562 C 224.398438 68.199219 224.648438 67.949219 224.949219 68.25 C 224.949219 68.882812 224.699219 69.300781 224.199219 69.5 C 223.898438 69.898438 223.566406 70.167969 223.199219 70.300781 C 222.800781 70.550781 222.351562 70.550781 222.199219 71.050781 C 221.550781 71.398438 221.449219 71.300781 220.699219 70.75 Z M 222.949219 74.851562 C 223.101562 74.648438 223.898438 73.75 224.25 73.449219 C 224.582031 72.914062 224.984375 72.441406 225.449219 72.050781 C 225.851562 71.515625 226.214844 71 226.550781 70.5 L 227.5 69.101562 C 227.5 69.699219 227.398438 70.5 227.601562 70.898438 C 227.625 71.5 227.484375 72.09375 227.199219 72.601562 C 227 73.066406 226.632812 73.449219 226.101562 73.75 C 225.601562 74.050781 225.300781 74.148438 224.851562 74.550781 C 224.496094 74.8125 224.128906 75.042969 223.75 75.25 C 223.398438 75.398438 223.550781 75.398438 222.949219 74.851562 M 219.199219 78.050781 L 219.351562 78.050781 C 219 78.050781 219.148438 78.050781 219.851562 77.648438 C 220.285156 77.117188 220.785156 76.75 221.351562 76.550781 C 221.871094 76.519531 222.382812 76.367188 222.851562 76.101562 C 223.101562 76.050781 223.351562 75.851562 223.5 76.101562 C 223.898438 76.699219 224 76.851562 223.398438 77.25 C 223.046875 77.570312 222.636719 77.808594 222.199219 77.949219 C 221.898438 78.199219 221.300781 78.199219 220.699219 78.351562 C 220.300781 78.351562 220 78.398438 219.800781 78.050781 L 220.800781 78.351562 C 220.300781 78.351562 220.050781 78.398438 219.199219 78.050781 M 224.351562 78.050781 L 224.351562 77.949219 C 224.316406 78.351562 224.398438 78.148438 224.601562 77.351562 C 225.101562 76.550781 225.199219 76.101562 225.800781 75.949219 C 226.050781 75.550781 226.550781 75.449219 227.101562 75.25 C 227.351562 75.648438 227.148438 76.148438 227.101562 76.648438 C 226.898438 77.148438 226.617188 77.582031 226.25 77.949219 C 225.898438 78.199219 225.75 78.5 225.148438 78.648438 C 224.75 78.648438 225 78.648438 224.351562 78.050781 "/>
<path style=" stroke:none;fill-rule:evenodd;fill:rgb(0%,0%,0%);fill-opacity:1;" d="M 212.648438 59.851562 C 212.648438 60.25 212.449219 60.484375 212.050781 60.550781 C 211.449219 60.648438 211.449219 60.199219 211.449219 59.851562 C 211.515625 59.417969 211.714844 59.183594 212.050781 59.148438 C 212.417969 59.148438 212.617188 59.382812 212.648438 59.851562 "/>
<path style="fill-rule:evenodd;fill:rgb(0%,31.764707%,12.54902%);fill-opacity:1;stroke-width:1.25;stroke-linecap:butt;stroke-linejoin:miter;stroke:rgb(0%,16.862746%,5.098039%);stroke-opacity:1;stroke-miterlimit:4;" d="M 351.800215 479.597242 L 352.700704 479.597242 C 349.898381 479.597242 351.598505 479.399885 356.201805 483.100329 C 358.197289 481.502971 358.197289 481.299447 359.702907 484.099449 C 360.697047 485.598129 360.898757 483.902092 362.397171 482.298566 C 363.103154 485.49945 363.499369 488.799013 365.898272 485.801653 C 368.700595 485.801653 371.502917 485.598129 373.001331 486.702094 C 374.802309 490.001657 374.19718 486.097689 375.601943 487.602536 C 379.600115 487.99725 379.49926 484.198128 383.699142 483.199008 C 386.299754 486.49857 387.502808 484.000771 390.701345 482.397245 C 393.201103 483.001651 395.499151 486.702094 396.003425 483.100329 C 397.998909 479.899445 398.099764 480.10297 399.497323 483.100329 C 401.500011 484.901212 402.299645 482.298566 403.898914 481.398125 C 406.766071 483.069492 410.303193 483.365528 414.503074 482.298566 C 415.302708 485.197247 417.096483 483.902092 418.998316 483.100329 C 422.902837 484.802533 424.199541 485.302093 428.701987 483.100329 C 430.89918 480.497684 429.703331 483.199008 431.302599 484.901212 C 434.601991 483.902092 433.701502 483.698568 437.497965 484.000771 C 441.402485 484.000771 441.697846 484.000771 442.800045 481.398125 C 444.802732 483.297686 445.400657 484.697687 448.102125 482.298566 C 452.302006 482.298566 450.998098 482.798126 453.397001 481.299447 C 455.298834 485.302093 455.702253 482.502091 457.899446 484.000771 C 456.631558 486.936456 454.46318 489.384916 451.696877 491.000777 C 449.996754 493.998136 448.901759 497.001663 445.501512 498.19814 C 443.001754 500.702107 440.300287 502.200786 437.497965 504.40255 C 433.701502 505.40167 429.501621 505.198146 425.200885 505.198146 L 387.999878 505.198146 C 385.399265 506.598147 380.997674 507.202553 377.402922 507.89947 C 373.397546 507.89947 368.700595 507.89947 365.898272 506.999029 C 363.996439 505.099467 360.697047 503.002549 358.903273 500.800785 C 356.900585 499.302106 356.900585 496.397257 355.301316 494.602542 C 353.896553 492.098575 353.298628 488.102096 351.800215 485.801653 Z M 351.800215 479.597242 " transform="matrix(0.54224,0,0,0.63337,23.65,-205.699997)"/>
<path style="fill-rule:evenodd;fill:rgb(0%,31.764707%,12.54902%);fill-opacity:1;stroke-width:1.25;stroke-linecap:butt;stroke-linejoin:miter;stroke:rgb(0%,16.862746%,5.098039%);stroke-opacity:1;stroke-miterlimit:4;" d="M 437.497965 487.602536 L 437.497965 488.398131 C 437.497965 485.99901 437.598819 487.300333 435.696986 491.999896 C 435.401626 493.097695 434.501137 493.399898 433.103578 493.800779 M 429.602476 491.099455 L 430.502965 491.099455 C 427.203573 494.102982 424.999175 495.601662 424.300396 499.098581 L 430.502965 491.099455 C 427.203573 494.102982 424.999175 495.601662 424.300396 499.098581 M 417.197337 486.702094 C 417.197337 486.702094 417.096483 489.798132 416.296848 491.099455 M 413.70344 492.900338 L 413.70344 493.702101 Z M 406.600381 487.602536 L 407.50087 487.602536 L 406.499527 487.602536 C 406.902946 487.602536 407.198306 487.602536 406.499527 487.602536 Z M 357.102295 487.602536 C 357.49851 487.602536 359.299488 490.402538 361.496682 491.999896 C 360.999612 494.602542 360.099122 497.599901 361.496682 499.999022 M 364.198149 492.900338 C 364.601568 492.900338 366.301692 495.70034 368.59974 497.297698 L 364.198149 492.900338 C 364.601568 492.900338 366.301692 495.70034 368.59974 497.297698 L 368.59974 498.19814 C 368.59974 495.398137 368.39803 492.598135 369.500229 491.099455 C 370.501573 492.801659 371.697422 495.398137 372.100842 492.900338 C 377.100357 492.702981 379.49926 491.30298 382.697798 490.199014 C 382.697798 491.500337 382.503292 490.902098 383.699142 491.999896 M 443.700534 488.398131 L 444.601023 488.398131 C 442.900899 489.798132 441.596991 492.702981 440.199432 494.602542 M 407.50087 485.801653 L 414.503074 485.801653 " transform="matrix(0.54224,0,0,0.63337,23.65,-205.699997)"/>
<path style=" stroke:none;fill-rule:evenodd;fill:rgb(100%,100%,100%);fill-opacity:1;" d="M 212.949219 107.148438 C 207.199219 107.148438 205.25 113.898438 199.5 113.898438 L 199.199219 113.898438 L 199.199219 114.300781 C 199.199219 118.964844 199.5 123.332031 200.101562 127.398438 C 205.398438 127 207.351562 120.699219 212.949219 120.699219 C 218.699219 120.699219 220.601562 127.398438 226.351562 127.398438 C 232.101562 127.398438 234.050781 120.699219 239.800781 120.699219 C 245.550781 120.699219 247.5 127.398438 253.25 127.398438 C 259 127.398438 260.898438 120.699219 266.648438 120.699219 C 272.148438 120.699219 274.148438 126.949219 279.449219 127.398438 C 280.113281 122.9375 280.433594 118.421875 280.398438 113.898438 L 280.050781 113.898438 C 274.300781 113.898438 272.398438 107.199219 266.648438 107.199219 C 260.898438 107.199219 258.949219 113.949219 253.25 113.949219 C 247.550781 113.949219 245.550781 107.199219 239.75 107.199219 C 234.050781 107.199219 232.101562 113.949219 226.351562 113.949219 C 220.601562 113.949219 218.699219 107.199219 212.949219 107.199219 Z M 212.949219 133.5 C 208.449219 133.5 206.351562 137.601562 202.851562 139.398438 C 204.003906 142.957031 205.441406 146.386719 207.148438 149.648438 C 208.800781 148.25 210.5 147.050781 212.949219 147.050781 C 218.699219 147.050781 220.601562 153.800781 226.351562 153.800781 C 232.101562 153.800781 234.050781 147.050781 239.800781 147.050781 C 245.550781 147.050781 247.5 153.800781 253.199219 153.800781 C 258.898438 153.800781 260.898438 147.050781 266.648438 147.050781 C 268.730469 147.136719 270.722656 148.015625 272.300781 149.550781 C 274.003906 146.300781 275.441406 142.886719 276.601562 139.351562 C 273.25 137.5 271.101562 133.5 266.601562 133.5 C 260.898438 133.5 258.949219 140.25 253.199219 140.25 C 247.449219 140.25 245.5 133.5 239.800781 133.5 C 234.101562 133.5 232.101562 140.25 226.351562 140.25 C 220.601562 140.25 218.699219 133.5 212.949219 133.5 M 239.800781 159.851562 C 234.050781 159.851562 232.101562 166.601562 226.351562 166.601562 C 220.898438 166.601562 218.898438 160.601562 213.851562 159.898438 C 219.257812 166.632812 225.933594 172.238281 233.5 176.398438 C 235.300781 174.800781 237.148438 178.199219 239.75 178.199219 C 242.351562 178.199219 244.25 174.75 246 176.300781 C 253.363281 172.289062 259.980469 166.738281 265.5 159.949219 C 260.601562 160.800781 258.5 166.601562 253.199219 166.601562 C 247.449219 166.601562 245.550781 159.851562 239.800781 159.851562 "/>
<path style="fill:none;stroke-width:0.5;stroke-linecap:butt;stroke-linejoin:miter;stroke:rgb(31.764707%,12.54902%,2.745098%);stroke-opacity:1;stroke-miterlimit:4;" d="M 332.49763 541.398653 C 335.945556 540.228455 339.45131 539.225429 343.000434 538.401956 L 359.300382 554.097466 L 345.899006 556.79697 Z M 332.49763 541.398653 " transform="matrix(0.540406,0,0,0.630903,24.445107,-207.433295)"/>
<path style="fill:none;stroke-width:0.6;stroke-linecap:butt;stroke-linejoin:miter;stroke:rgb(31.764707%,12.54902%,2.745098%);stroke-opacity:1;stroke-miterlimit:4;" d="M 413.59598 471.002875 C 413.902844 466.40011 422.40128 440.002583 422.40128 440.002583 M 416.502666 471.299828 L 423.202536 440.197946 M 418.804148 471.401417 L 424.395897 440.197946 M 413.902844 467.197193 C 415.403069 466.40011 419.699169 465.19667 419.699169 465.19667 M 415.99975 462.602242 C 417.397687 462.602242 420.29585 461.398802 420.29585 461.398802 M 416.801006 459.101326 C 418.224516 458.562123 419.699169 458.155767 421.199394 457.897887 M 417.397687 454.701738 L 422.102939 453.896841 M 419.503117 450.903871 C 419.503117 451.200823 422.69962 451.200823 422.69962 451.200823 M 420.29585 447.49673 L 423.500877 447.99686 " transform="matrix(0.458264,0,0,0.499869,31.967559,-85.135178)"/>
<path style="fill:none;stroke-width:0.4;stroke-linecap:butt;stroke-linejoin:miter;stroke:rgb(31.764707%,12.54902%,2.745098%);stroke-opacity:1;stroke-miterlimit:4;" d="M 413.600031 470.99863 C 413.896393 466.397906 422.396943 440.000913 422.396943 440.000913 M 416.498602 470.102266 L 423.19929 440.101525 M 419.498371 467.801905 C 419.700765 466.100643 424.399198 440.202138 424.399198 440.202138 M 413.896393 467.198231 C 415.399892 466.397906 419.700765 465.199706 419.700765 465.199706 M 415.999846 462.602081 C 417.402147 462.602081 420.300719 461.399307 420.300719 461.399307 M 416.802193 459.098946 C 418.22618 458.559298 419.700765 458.161423 421.197035 457.900745 M 417.402147 454.699447 L 422.10058 453.899122 M 419.498371 450.899048 C 419.498371 451.200885 422.700534 451.200885 422.700534 451.200885 M 420.300719 447.501098 L 423.502882 447.999586 " transform="matrix(-0.540406,0,0,0.854146,470.172201,-242.375614)"/>
<path style="fill:none;stroke-width:0.5;stroke-linecap:butt;stroke-linejoin:miter;stroke:rgb(31.764707%,12.54902%,2.745098%);stroke-opacity:1;stroke-miterlimit:4;" d="M 413.599065 470.997092 C 413.902656 466.402982 422.403206 440.002329 422.403206 440.002329 M 416.497637 470.099321 L 423.198325 440.101394 M 419.497406 467.802266 C 419.6998 466.099597 424.398232 440.200458 424.398232 440.200458 M 413.902656 467.201689 C 415.398926 466.402982 419.6998 465.201827 419.6998 465.201827 M 415.99888 462.601387 C 417.401182 462.601387 420.299753 461.400232 420.299753 461.400232 M 416.801228 459.096985 C 418.225215 458.558323 419.6998 458.162065 421.203298 457.902021 M 417.401182 454.701004 L 422.099615 453.902298 M 419.497406 450.899409 C 419.497406 451.202794 422.699568 451.202794 422.699568 451.202794 M 420.299753 447.500263 L 423.501916 448.001777 " transform="matrix(-0.540406,0,0,0.630903,483.531054,-145.313616)"/>
<path style="fill-rule:evenodd;fill:rgb(86.666667%,54.509807%,34.901962%);fill-opacity:1;stroke-width:0.5;stroke-linecap:butt;stroke-linejoin:miter;stroke:rgb(31.764707%,12.54902%,2.745098%);stroke-opacity:1;stroke-miterlimit:4;" d="M 395.297606 572.201479 L 396.20115 499.197235 C 396.20115 499.197235 398.803359 498.900041 398.803359 499.197235 C 398.803359 499.500619 398.499768 571.898094 398.203406 572.201479 C 397.899815 572.498672 395.001243 572.702992 395.297606 572.201479 Z M 423.799022 502.398252 L 423.199068 563.700518 L 421.196813 566.102829 L 421.796767 502.398252 Z M 423.799022 502.398252 " transform="matrix(0.540406,0,0,0.630903,24.445107,-207.433295)"/>
<path style="fill-rule:evenodd;fill:rgb(86.666667%,54.509807%,34.901962%);fill-opacity:1;stroke-width:0.5;stroke-linecap:butt;stroke-linejoin:miter;stroke:rgb(31.764707%,12.54902%,2.745098%);stroke-opacity:1;stroke-miterlimit:4;" d="M 363.001301 560.202308 C 363.001301 560.202308 366.00107 590.200235 399.403313 589.302464 C 432.798328 588.398502 442.101225 559.100217 442.101225 559.100217 L 427.601138 558.499639 C 427.297547 558.499639 415.999623 572.498672 401.39834 572.201479 C 386.797056 571.898094 382.199821 568.399884 378.997658 565.502251 C 375.802724 562.598427 372.998121 558.202446 372.998121 558.202446 L 355.997022 551.497027 L 357.001764 557.899061 Z M 453.297952 557.199419 L 452.300438 553.199695 L 452.300438 549.800549 L 453.897906 546.197083 C 453.897906 546.197083 428.598652 549.899614 428.598652 550.202998 L 428.497455 557.00129 L 453.297952 557.100355 Z M 453.297952 557.199419 " transform="matrix(0.540406,0,0,0.630903,24.445107,-207.433295)"/>
<path style="fill:none;stroke-width:0.5;stroke-linecap:butt;stroke-linejoin:miter;stroke:rgb(31.764707%,12.54902%,2.745098%);stroke-opacity:1;stroke-miterlimit:4;" d="M 448.498322 549.800549 L 447.898368 555.800135 L 451.996847 555.800135 L 451.700485 549.800549 Z M 444.197449 550.097743 L 443.901086 556.499777 L 446.503295 556.202584 L 446.799658 550.097743 Z M 439.802607 556.499777 L 439.802607 551.497027 L 442.397588 550.599256 L 442.701179 555.602006 Z M 434.800583 556.202584 L 435.400537 551.800411 L 438.400306 552.097604 L 438.6027 556.79697 Z M 429.299803 556.202584 L 429.603394 552.400989 L 432.603162 552.097604 L 432.603162 556.499777 Z M 361.902591 559.898923 C 362.798907 559.898923 369.499595 561.397271 369.499595 561.397271 L 376.496646 570.696939 " transform="matrix(0.540406,0,0,0.630903,24.445107,-207.433295)"/>
<path style="fill:none;stroke-width:0.5;stroke-linecap:butt;stroke-linejoin:miter;stroke:rgb(31.764707%,12.54902%,2.745098%);stroke-opacity:1;stroke-miterlimit:4;" d="M 366.803418 561.100078 C 367.09978 561.397271 372.896924 580.900568 400.798386 580.900568 C 428.699849 580.900568 435.400537 558.803023 435.400537 558.803023 " transform="matrix(0.540406,0,0,0.630903,24.445107,-207.433295)"/>
<path style="fill:none;stroke-width:0.5;stroke-linecap:butt;stroke-linejoin:miter;stroke:rgb(31.764707%,12.54902%,2.745098%);stroke-opacity:1;stroke-miterlimit:4;" d="M 439.802607 559.39741 C 439.802607 559.39741 426.401231 588.398502 400.798386 586.39864 C 375.296738 584.398778 371.198259 574.801918 369.203232 569.799168 C 367.200977 564.802609 366.00107 560.802885 366.00107 560.802885 " transform="matrix(0.540406,0,0,0.630903,24.445107,-207.433295)"/>
<path style="fill-rule:evenodd;fill:rgb(86.666667%,54.509807%,34.901962%);fill-opacity:1;stroke-width:0.5;stroke-linecap:butt;stroke-linejoin:miter;stroke:rgb(31.764707%,12.54902%,2.745098%);stroke-opacity:1;stroke-miterlimit:4;" d="M 373.200515 558.202446 C 373.496877 556.499777 373.496877 503.797536 373.496877 503.797536 L 371.798213 503.599407 L 371.50185 557.298483 L 373.200515 558.30151 Z M 331.70251 541.10146 L 353.698404 551.800411 L 353.199647 553.29876 C 353.199647 553.29876 331.998873 543.299451 331.998873 543.002258 C 331.998873 542.698873 332.201267 541.497718 331.70251 541.002396 Z M 331.70251 541.10146 " transform="matrix(0.540406,0,0,0.630903,24.445107,-207.433295)"/>
<path style="fill-rule:evenodd;fill:rgb(86.666667%,54.509807%,34.901962%);fill-opacity:1;stroke-width:0.5;stroke-linecap:butt;stroke-linejoin:miter;stroke:rgb(31.764707%,12.54902%,2.745098%);stroke-opacity:1;stroke-miterlimit:4;" d="M 341.800527 537.900443 C 341.800527 538.699149 345.002689 556.499777 345.002689 556.499777 C 345.002689 556.499777 346.997716 556.79697 346.997716 556.499777 L 343.600388 538.197636 Z M 362.198953 538.401956 C 363.297664 538.401956 383.197334 535.200939 383.197334 535.200939 L 382.799774 538.401956 L 363.297664 540.401818 Z M 362.198953 538.401956 " transform="matrix(0.540406,0,0,0.630903,24.445107,-207.433295)"/>
<path style="fill-rule:evenodd;fill:rgb(99.607843%,81.176472%,24.313726%);fill-opacity:1;stroke-width:0.5;stroke-linecap:butt;stroke-linejoin:miter;stroke:rgb(31.764707%,12.54902%,2.745098%);stroke-opacity:1;stroke-miterlimit:4;" d="M 365.003556 514.298358 C 365.697479 514.298358 372.000607 517.499376 374.696785 516.700669 C 377.400191 515.901963 375.600329 513.697781 376.099086 513.697781 C 376.69904 513.697781 378.701295 515.202321 379.901203 514.001165 C 381.10111 512.80001 381.903458 509.400864 381.397473 509.698057 C 380.898716 510.001442 365.401116 515.499514 365.097525 514.298358 Z M 365.003556 514.298358 " transform="matrix(0.540406,0,0,0.630903,24.445107,-207.433295)"/>
<path style="fill-rule:evenodd;fill:rgb(86.666667%,54.509807%,34.901962%);fill-opacity:1;stroke-width:0.5;stroke-linecap:butt;stroke-linejoin:miter;stroke:rgb(31.764707%,12.54902%,2.745098%);stroke-opacity:1;stroke-miterlimit:4;" d="M 362.502544 521.598164 C 363.601255 521.901548 386.2983 515.499514 386.2983 515.499514 C 386.2983 515.499514 386.2983 517.499376 386.001937 517.499376 L 362.502544 523.598025 Z M 362.502544 521.598164 " transform="matrix(0.540406,0,0,0.630903,24.445107,-207.433295)"/>
<path style="fill-rule:evenodd;fill:rgb(99.607843%,81.176472%,24.313726%);fill-opacity:1;stroke-width:0.5;stroke-linecap:butt;stroke-linejoin:miter;stroke:rgb(31.764707%,12.54902%,2.745098%);stroke-opacity:1;stroke-miterlimit:4;" d="M 415.00211 512.601881 C 415.00211 512.601881 416.49838 516.100091 418.001879 515.499514 C 419.498149 514.898936 420.90045 513.697781 420.90045 513.697781 C 420.90045 513.697781 422.100358 516.700669 424.102613 516.100091 C 426.09764 515.499514 427.297547 512.298497 427.297547 512.298497 C 427.297547 512.298497 429.299803 512.899074 430.203347 512.601881 C 431.099664 512.298497 432.198374 507.599131 432.198374 507.599131 Z M 413.303446 540.798075 C 412.999855 541.398653 414.799716 542.797937 416.303215 542.797937 C 417.799485 542.797937 418.298241 540.798075 418.601832 541.398653 C 418.898195 541.900167 418.898195 544.59967 422.599115 543.7019 C 426.300034 542.797937 426.401231 540.197498 426.401231 540.197498 C 426.401231 540.197498 425.30252 541.10146 427.897501 541.398653 C 430.49971 541.702038 433.101919 537.597058 432.899525 537.597058 C 432.501965 537.597058 413.9034 541.10146 413.303446 540.798075 Z M 413.303446 540.798075 " transform="matrix(0.540406,0,0,0.630903,24.445107,-207.433295)"/>
<path style="fill-rule:evenodd;fill:rgb(86.666667%,54.509807%,34.901962%);fill-opacity:1;stroke-width:0.5;stroke-linecap:butt;stroke-linejoin:miter;stroke:rgb(31.764707%,12.54902%,2.745098%);stroke-opacity:1;stroke-miterlimit:4;" d="M 363.398861 513.097203 C 363.218152 514.001165 363.283207 514.936085 363.601255 515.802898 L 382.59738 509.400864 C 382.59738 509.400864 383.399728 507.902515 382.59738 507.902515 C 381.802261 507.902515 363.102498 513.697781 363.297664 513.202459 Z M 388.401752 509.097479 C 388.900509 509.097479 407.802665 502.998829 407.802665 502.998829 C 407.802665 502.998829 408.099028 505.599269 407.802665 505.599269 L 390.100416 510.800148 L 388.300555 509.097479 Z M 388.401752 509.097479 " transform="matrix(0.540406,0,0,0.630903,24.445107,-207.433295)"/>
<path style="fill-rule:evenodd;fill:rgb(99.607843%,81.176472%,24.313726%);fill-opacity:1;stroke-width:0.5;stroke-linecap:butt;stroke-linejoin:miter;stroke:rgb(31.764707%,12.54902%,2.745098%);stroke-opacity:1;stroke-miterlimit:4;" d="M 413.303446 521.901548 C 413.303446 521.901548 410.397646 525.102565 411.301191 529.399482 C 412.197507 533.801655 413.303446 537.597058 413.599809 537.597058 C 413.9034 537.597058 417.098334 531.801793 420.596859 531.498408 C 424.102613 531.201215 430.49971 534.699426 430.49971 534.699426 C 430.49971 534.699426 429.603394 527.703005 429.899756 524.501988 C 430.203347 521.300971 435.096946 515.802898 435.096946 515.802898 L 413.303446 521.802484 Z M 413.303446 521.901548 " transform="matrix(0.540406,0,0,0.630903,24.445107,-207.433295)"/>
<path style="fill-rule:evenodd;fill:rgb(86.666667%,54.509807%,34.901962%);fill-opacity:1;stroke-width:0.5;stroke-linecap:butt;stroke-linejoin:miter;stroke:rgb(31.764707%,12.54902%,2.745098%);stroke-opacity:1;stroke-miterlimit:4;" d="M 386.898253 516.601605 C 386.898253 516.601605 386.2983 519.301109 386.601891 519.301109 L 411.301191 512.899074 L 411.301191 510.998277 L 386.898253 516.50254 Z M 386.898253 516.601605 " transform="matrix(0.540406,0,0,0.630903,24.445107,-207.433295)"/>
<path style="fill-rule:evenodd;fill:rgb(71.372551%,71.372551%,70.588237%);fill-opacity:1;stroke-width:0.5;stroke-linecap:butt;stroke-linejoin:miter;stroke:rgb(31.764707%,12.54902%,2.745098%);stroke-opacity:1;stroke-miterlimit:4;" d="M 355.498265 551.800411 C 355.498265 551.800411 349.701122 551.001705 349.997485 552.400989 C 350.301076 553.899337 352.903285 555.298622 353.199647 556.202584 C 353.503238 557.100355 352.303331 560.202308 354.103192 559.997987 C 355.801856 559.700794 357.500521 558.499639 357.500521 557.601868 L 357.196929 552.599118 Z M 355.498265 551.800411 " transform="matrix(0.540406,0,0,0.630903,24.445107,-207.433295)"/>
<path style="fill-rule:evenodd;fill:rgb(86.666667%,54.509807%,34.901962%);fill-opacity:1;stroke-width:0.5;stroke-linecap:butt;stroke-linejoin:miter;stroke:rgb(31.764707%,12.54902%,2.745098%);stroke-opacity:1;stroke-miterlimit:4;" d="M 387.801798 537.299865 L 387.801798 539.299727 L 408.698982 536.402094 L 408.099028 534.897554 Z M 387.801798 537.299865 " transform="matrix(0.540406,0,0,0.630903,24.445107,-207.433295)"/>
<path style="fill-rule:evenodd;fill:rgb(99.607843%,81.176472%,24.313726%);fill-opacity:1;stroke-width:0.5;stroke-linecap:butt;stroke-linejoin:miter;stroke:rgb(31.764707%,12.54902%,2.745098%);stroke-opacity:1;stroke-miterlimit:4;" d="M 363.001301 540.798075 C 363.398861 540.798075 363.001301 543.398515 365.401116 542.797937 C 367.699734 542.19736 368.299688 540.798075 368.299688 540.798075 C 368.299688 540.798075 368.899641 543.999093 372.101804 543.7019 C 375.296738 543.398515 377.0966 539.900305 377.0966 539.900305 C 377.0966 539.900305 377.298994 542.500744 379.301249 541.602973 C 381.303504 540.699011 381.903458 538.699149 381.903458 538.699149 L 363.601255 541.299589 Z M 363.001301 523.598025 C 363.001301 523.598025 360.399092 524.501988 361.302637 529.702867 C 362.198953 534.897554 364.302406 537.900443 364.497571 537.900443 C 364.699965 537.900443 367.09978 532.897693 370.598306 532.098986 C 374.096831 531.102151 380.197565 534.699426 380.197565 534.699426 C 380.197565 534.699426 379.597612 530.00006 380.501156 525.696952 C 381.14448 522.898383 382.445585 520.291752 384.303273 518.099953 C 384.303273 518.099953 363.897618 523.598025 363.102498 523.598025 Z M 363.001301 523.598025 " transform="matrix(0.540406,0,0,0.630903,24.445107,-207.433295)"/>
<path style="fill-rule:evenodd;fill:rgb(86.666667%,54.509807%,34.901962%);fill-opacity:1;stroke-width:0.5;stroke-linecap:butt;stroke-linejoin:miter;stroke:rgb(31.764707%,12.54902%,2.745098%);stroke-opacity:1;stroke-miterlimit:4;" d="M 411.901144 538.699149 L 412.197507 540.500882 C 412.197507 540.500882 433.203116 537.900443 433.203116 537.497994 C 433.203116 537.299865 433.203116 535.498132 432.798328 535.498132 C 432.501965 535.498132 412.197507 539.002534 411.799947 538.699149 Z M 411.597553 520.099815 L 411.901144 522.099677 L 436.600444 515.499514 C 436.600444 515.499514 437.200398 513.697781 436.896807 513.697781 C 436.600444 513.697781 412.197507 520.997586 411.597553 520.099815 Z M 411.597553 520.099815 " transform="matrix(0.540406,0,0,0.630903,24.445107,-207.433295)"/>
<path style="fill:none;stroke-width:0.5;stroke-linecap:butt;stroke-linejoin:miter;stroke:rgb(31.764707%,12.54902%,2.745098%);stroke-opacity:1;stroke-miterlimit:4;" d="M 414.199762 510.800148 C 414.199762 510.800148 413.9034 512.601881 414.199762 512.601881 C 414.503353 512.601881 432.501965 508.199709 432.501965 507.902515 C 432.501965 507.599131 434.301826 505.902654 432.798328 506.199847 C 431.403255 506.49704 414.799716 511.697919 414.199762 510.800148 Z M 452.900392 544.500606 L 434.90178 516.100091 M 432.501965 535.801517 C 432.798328 535.00281 433.701873 517.499376 433.701873 517.499376 " transform="matrix(0.540406,0,0,0.630903,24.445107,-207.433295)"/>
<path style="fill-rule:evenodd;fill:rgb(99.607843%,81.176472%,24.313726%);fill-opacity:1;stroke-width:0.5;stroke-linecap:butt;stroke-linejoin:miter;stroke:rgb(31.764707%,12.54902%,2.745098%);stroke-opacity:1;stroke-miterlimit:4;" d="M 389.001706 510.001442 C 389.999219 510.19957 392.102671 513.202459 393.302579 512.601881 C 394.502486 512.001303 396.20115 510.19957 396.20115 510.19957 C 396.20115 510.19957 395.897559 513.697781 398.203406 513.202459 C 400.603221 512.601881 400.899583 510.19957 400.899583 510.19957 C 400.899583 510.19957 402.598247 511.202597 404.101746 510.19957 C 405.496819 509.400864 406.899121 504.998691 406.400364 504.998691 C 405.901607 504.998691 389.500462 510.19957 388.900509 510.001442 Z M 388.401752 518.397146 C 388.401752 518.997724 385.401983 523.598025 386.399497 528.000198 C 387.39701 532.402371 388.900509 536.402094 389.196871 536.402094 C 389.500462 536.402094 393.902532 531.801793 397.697421 530.897831 C 401.499537 530.00006 407.000318 533.801655 406.696726 533.801655 C 406.400364 533.801655 405.200456 529.399482 405.200456 526.198465 C 405.200456 522.997448 409.602526 513.202459 409.602526 513.202459 Z M 388.401752 539.398791 C 388.401752 539.59692 389.196871 541.602973 391.300324 541.602973 C 393.396547 541.602973 393.598941 539.59692 393.598941 539.59692 C 393.598941 539.59692 393.302579 543.101322 396.497513 542.797937 C 399.699676 542.500744 400.798386 539.299727 400.798386 539.299727 C 400.798386 539.299727 401.101977 541.10146 403.798155 540.197498 C 406.400364 539.299727 409.797692 536.402094 409.602526 536.402094 C 409.400132 536.402094 388.596918 540.197498 388.300555 539.398791 Z M 388.401752 539.398791 " transform="matrix(0.540406,0,0,0.630903,24.445107,-207.433295)"/>
<path style="fill-rule:evenodd;fill:rgb(74.509805%,5.882353%,9.019608%);fill-opacity:1;stroke-width:0.6;stroke-linecap:butt;stroke-linejoin:miter;stroke:rgb(31.764707%,12.54902%,2.745098%);stroke-opacity:1;stroke-miterlimit:4;" d="M 409.003468 477.001781 C 408.997419 478.047296 408.149337 478.904374 407.103599 478.901092 C 406.05035 478.898105 405.198541 478.045681 405.197079 477.000461 C 405.203129 475.954946 406.051211 475.097868 407.096949 475.10115 C 408.150198 475.104137 409.001676 475.947716 409.003468 477.001781 Z M 409.003468 477.001781 " transform="matrix(0.017293,-0.519282,0.440971,0.0194124,18.219632,328.979835)"/>
<path style="fill-rule:evenodd;fill:rgb(74.509805%,5.882353%,9.019608%);fill-opacity:1;stroke-width:0.6;stroke-linecap:butt;stroke-linejoin:miter;stroke:rgb(31.764707%,12.54902%,2.745098%);stroke-opacity:1;stroke-miterlimit:4;" d="M 408.997204 477.002801 C 408.998666 478.048021 408.150254 478.896254 407.097335 478.902112 C 406.051597 478.89883 405.199788 478.046406 405.198327 477.001186 C 405.196535 475.94712 406.052458 475.098593 407.098196 475.101875 C 408.151114 475.096017 409.002923 475.948441 408.997204 477.002801 Z M 408.997204 477.002801 " transform="matrix(0.017293,-0.519282,0.440971,0.0194124,23.926322,327.28125)"/>
<path style="fill-rule:evenodd;fill:rgb(74.509805%,5.882353%,9.019608%);fill-opacity:1;stroke-width:0.6;stroke-linecap:butt;stroke-linejoin:miter;stroke:rgb(31.764707%,12.54902%,2.745098%);stroke-opacity:1;stroke-miterlimit:4;" d="M 409.000956 476.997838 C 409.002748 478.051903 408.146824 478.900431 407.101087 478.897148 C 406.048168 478.903006 405.196359 478.050582 405.202078 476.996222 C 405.200617 475.951002 406.049029 475.102769 407.101948 475.096912 C 408.147685 475.100194 408.999494 475.952618 409.000956 476.997838 Z M 409.000956 476.997838 " transform="matrix(0.017293,-0.519282,0.440971,0.0194124,21.072977,330.775482)"/>
<path style="fill-rule:evenodd;fill:rgb(74.509805%,5.882353%,9.019608%);fill-opacity:1;stroke-width:0.6;stroke-linecap:butt;stroke-linejoin:miter;stroke:rgb(31.764707%,12.54902%,2.745098%);stroke-opacity:1;stroke-miterlimit:4;" d="M 408.996202 476.998024 C 408.997994 478.052089 408.149582 478.900322 407.096332 478.897335 C 406.050925 478.902898 405.199116 478.050474 405.197324 476.996409 C 405.203374 475.950894 406.051786 475.102661 407.097193 475.097098 C 408.150442 475.100086 409.002251 475.952509 408.996202 476.998024 Z M 408.996202 476.998024 " transform="matrix(0.017293,-0.519282,0.440971,0.0194124,21.072977,325.437072)"/>
<path style="fill:none;stroke-width:0.5;stroke-linecap:butt;stroke-linejoin:miter;stroke:rgb(31.764707%,12.54902%,2.745098%);stroke-opacity:1;stroke-miterlimit:4;" d="M 398.203406 500.002133 C 398.203406 499.797812 407.202712 503.797536 407.202712 504.100921 C 407.202712 504.398114 439.202653 546.902917 439.499016 546.902917 M 423.502659 504.100921 L 431.699617 507.599131 L 434.301826 514.001165 M 372.896924 503.599407 C 372.600561 503.599407 381.903458 510.602019 381.903458 510.602019 L 383.103365 516.29822 M 341.30177 545.998955 C 345.299052 544.302477 373.496877 519.598302 373.496877 519.598302 M 333.697537 541.299589 L 365.401116 514.601743 M 386.601891 518.601467 L 416.599577 568.399884 M 412.999855 539.200663 C 412.999855 539.200663 416.49838 550.902641 419.996906 552.698182 C 422.613571 554.103658 425.150725 555.639155 427.601138 557.298483 " transform="matrix(0.540406,0,0,0.630903,24.445107,-207.433295)"/>
<path style="fill:none;stroke-width:0.5;stroke-linecap:butt;stroke-linejoin:miter;stroke:rgb(31.764707%,12.54902%,2.745098%);stroke-opacity:1;stroke-miterlimit:4;" d="M 412.602295 539.497856 C 412.602295 539.497856 415.103307 553.29876 418.601832 555.899199 C 422.100358 558.499639 425.598883 561.397271 425.598883 561.397271 " transform="matrix(0.540406,0,0,0.630903,24.445107,-207.433295)"/>
<path style="fill:none;stroke-width:0.5;stroke-linecap:butt;stroke-linejoin:miter;stroke:rgb(31.764707%,12.54902%,2.745098%);stroke-opacity:1;stroke-miterlimit:4;" d="M 390.99741 439.001789 C 390.99741 439.001789 394.401967 458.201701 401.399018 462.597682 L 414.20044 470.702385 " transform="matrix(0.540406,0,0,0.630903,23.104897,-144.100341)"/>
<path style="fill:none;stroke-width:0.5;stroke-linecap:butt;stroke-linejoin:miter;stroke:rgb(31.764707%,12.54902%,2.745098%);stroke-opacity:1;stroke-miterlimit:4;" d="M 390.701048 438.698405 C 390.701048 438.698405 398.196855 453.898593 404.702378 458.498894 C 410.998278 463.19826 419.701221 467.501368 419.701221 467.501368 M 366.29811 439.998624 C 368.300366 443.503026 367.996775 450.202254 370.302621 452.499309 C 372.413302 454.889236 374.350502 457.427761 376.099764 460.102499 M 366.796867 440.202945 C 367.996775 441.899422 371.198937 450.598511 373.201193 453.198951 C 374.697463 455.601262 389.50114 470.399001 389.50114 470.399001 " transform="matrix(0.540406,0,0,0.630903,23.104897,-144.100341)"/>
<path style="fill-rule:evenodd;fill:rgb(0%,0%,0%);fill-opacity:1;stroke-width:0.5;stroke-linecap:butt;stroke-linejoin:miter;stroke:rgb(31.764707%,12.54902%,2.745098%);stroke-opacity:1;stroke-miterlimit:4;" d="M 384.600313 471.098643 C 384.600313 472.312181 383.617257 473.302825 382.402893 473.302825 C 381.188528 473.302825 380.198243 472.312181 380.198243 471.098643 C 380.198243 469.885104 381.188528 468.900652 382.402893 468.900652 C 383.617257 468.900652 384.600313 469.885104 384.600313 471.098643 Z M 395.298284 475.798009 C 395.298284 476.850567 394.452566 477.698806 393.397225 477.698806 C 392.349113 477.698806 391.503396 476.850567 391.503396 475.798009 C 391.503396 474.751641 392.349113 473.897211 393.397225 473.897211 C 394.452566 473.897211 395.298284 474.751641 395.298284 475.798009 Z M 409.003251 476.999164 C 409.003251 478.051723 408.150304 478.899961 407.102193 478.899961 C 406.054081 478.899961 405.201134 478.051723 405.201134 476.999164 C 405.201134 475.952797 406.054081 475.098367 407.102193 475.098367 C 408.150304 475.098367 409.003251 475.952797 409.003251 476.999164 Z M 420.901128 472.497927 C 420.836073 473.56906 420.301175 474.132489 419.296433 474.200596 C 418.298919 474.064382 417.764021 473.500954 417.698966 472.497927 C 417.698966 471.600156 418.400116 470.702385 419.296433 470.702385 C 420.301175 470.764301 420.836073 471.364878 420.901128 472.497927 Z M 430.500388 466.801726 C 430.370278 467.798561 429.734182 468.331032 428.59933 468.399139 C 427.601816 468.399139 426.698272 467.699497 426.698272 466.801726 C 426.698272 465.897764 427.601816 465.198122 428.59933 465.198122 C 429.734182 465.266228 430.370278 465.798699 430.500388 466.801726 Z M 430.500388 466.801726 " transform="matrix(0.540406,0,0,0.630903,23.104897,-144.100341)"/>
<path style="fill-rule:evenodd;fill:rgb(100%,0%,0%);fill-opacity:1;stroke-width:0.5;stroke-linecap:butt;stroke-linejoin:miter;stroke:rgb(31.764707%,12.54902%,2.745098%);stroke-opacity:1;stroke-miterlimit:4;" d="M 374.097509 404.397369 C 373.201193 404.997947 358.701106 408.502348 360.703361 408.198964 C 362.698388 407.901771 374.4011 411.201852 374.097509 410.198826 C 373.801146 409.201991 374.097509 404.997947 374.097509 404.397369 Z M 398.796809 400.100452 C 398.196855 400.100452 389.797503 403.301469 390.101094 403.301469 C 390.397457 403.301469 399.700354 405.901909 399.396763 405.301331 C 399.1004 404.700754 399.1004 400.899159 398.796809 400.100452 Z M 424.103291 402.998085 C 423.503337 403.301469 413.600487 405.598524 415.400348 405.901909 C 417.200209 406.199102 423.7997 408.502348 423.7997 407.901771 C 423.7997 407.400257 423.7997 403.301469 424.103291 402.89902 Z M 424.103291 402.998085 " transform="matrix(0.540406,0,0,0.630903,23.104897,-144.100341)"/>
<path style="fill:none;stroke-width:0.5;stroke-linecap:butt;stroke-linejoin:miter;stroke:rgb(31.764707%,12.54902%,2.745098%);stroke-opacity:1;stroke-miterlimit:4;" d="M 413.600487 470.999578 C 413.896849 466.399277 422.397399 439.998624 422.397399 439.998624 M 416.499058 470.101808 L 423.199746 440.097689 M 419.498827 467.798561 C 419.701221 466.102084 424.399654 440.202945 424.399654 440.202945 M 413.896849 467.197984 C 415.400348 466.399277 419.701221 465.198122 419.701221 465.198122 M 416.000301 462.597682 C 417.402603 462.597682 420.301175 461.402718 420.301175 461.402718 M 416.802649 459.099472 C 418.226636 458.560809 419.701221 458.15836 421.197491 457.898316 M 417.402603 454.697299 L 422.101036 453.898593 M 419.498827 450.901896 C 419.498827 451.199089 422.70099 451.199089 422.70099 451.199089 M 420.301175 447.50275 L 423.503337 447.998072 " transform="matrix(0.540406,0,0,0.630903,23.104897,-144.100341)"/>
<path style="fill:none;stroke-width:0.5;stroke-linecap:butt;stroke-linejoin:miter;stroke:rgb(31.764707%,12.54902%,2.745098%);stroke-opacity:1;stroke-miterlimit:4;" d="M 413.599977 471.001444 C 413.903568 466.402873 422.396889 440.001037 422.396889 440.001037 M 416.498549 471.297362 L 423.199237 440.202262 M 418.797167 471.397974 L 424.399145 440.202262 M 413.903568 467.201852 C 415.399839 466.402873 419.700712 465.201444 419.700712 465.201444 M 415.999792 462.597363 C 417.402094 462.597363 420.300665 461.401852 420.300665 461.401852 M 416.80214 459.099608 C 418.226127 458.561036 419.700712 458.158587 421.196982 457.898179 M 417.402094 454.702261 L 422.100527 453.897363 M 419.498318 450.902669 C 419.498318 451.198588 422.70048 451.198588 422.70048 451.198588 M 420.300665 447.499608 L 423.502828 448.00267 " transform="matrix(0.540406,0,0,0.660022,9.702828,-155.699247)"/>
<path style="fill:none;stroke-width:0.5;stroke-linecap:butt;stroke-linejoin:miter;stroke:rgb(31.764707%,12.54902%,2.745098%);stroke-opacity:1;stroke-miterlimit:4;" d="M 413.599493 470.997907 C 413.903084 466.400233 422.396405 439.997143 422.396405 439.997143 M 416.498065 470.101544 L 423.198753 440.100804 M 419.497833 467.802706 C 419.700227 466.101445 424.39866 440.198368 424.39866 440.198368 M 413.903084 467.199033 C 415.399354 466.400233 419.700227 465.198984 419.700227 465.198984 M 415.999308 462.601359 C 417.401609 462.601359 420.300181 461.40011 420.300181 461.40011 M 416.801656 459.101273 C 418.225642 458.558576 419.700227 458.162225 421.196498 457.900023 M 417.401609 454.698725 L 422.100042 453.899925 M 419.497833 450.899851 C 419.497833 451.198639 422.699996 451.198639 422.699996 451.198639 M 420.300181 447.497328 L 423.502344 447.99734 " transform="matrix(-0.540406,0,0,0.640609,456.683629,-147.885753)"/>
<path style="fill-rule:evenodd;fill:rgb(86.666667%,54.509807%,34.901962%);fill-opacity:1;stroke-width:0.5;stroke-linecap:butt;stroke-linejoin:miter;stroke:rgb(31.764707%,12.54902%,2.745098%);stroke-opacity:1;stroke-miterlimit:4;" d="M 426.401231 558.499639 L 453.999103 559.100217 L 454.302694 557.100355 L 425.801277 556.79697 Z M 427.601138 551.199834 C 430.803301 551.199834 454.902647 546.599532 454.902647 546.599532 C 454.902647 546.599532 455.798964 543.602835 454.902647 543.602835 C 453.999103 543.602835 427.601138 549.199972 427.601138 549.199972 Z M 427.601138 551.199834 " transform="matrix(0.540406,0,0,0.630903,24.445107,-207.433295)"/>
<path style="fill-rule:evenodd;fill:rgb(74.509805%,5.882353%,9.019608%);fill-opacity:1;stroke-width:0.6;stroke-linecap:butt;stroke-linejoin:miter;stroke:rgb(31.764707%,12.54902%,2.745098%);stroke-opacity:1;stroke-miterlimit:4;" d="M 408.998579 476.997931 C 409.000371 478.051996 408.151959 478.900229 407.09871 478.897242 C 406.053303 478.902805 405.201494 478.050381 405.199701 476.996316 C 405.19824 475.951096 406.054163 475.102568 407.09957 475.097005 C 408.15282 475.099992 408.997117 475.952711 408.998579 476.997931 Z M 408.998579 476.997931 " transform="matrix(0.017293,-0.519282,0.440971,0.0194124,21.072977,328.106277)"/>
<path style=" stroke:none;fill-rule:nonzero;fill:rgb(0.392157%,12.941177%,41.176471%);fill-opacity:1;" d="M 0 0 L 160 0 L 160 120 L 0 120 Z M 0 0 "/>
<path style=" stroke:none;fill-rule:nonzero;fill:rgb(100%,100%,100%);fill-opacity:1;" d="M 18.75 0 L 79.75 45.25 L 140.5 0 L 160 0 L 160 15.5 L 100 60.25 L 160 104.75 L 160 120 L 140 120 L 80 75.25 L 20.25 120 L 0 120 L 0 105 L 59.75 60.5 L 0 16 L 0 0 Z M 18.75 0 "/>
<path style=" stroke:none;fill-rule:nonzero;fill:rgb(78.431374%,6.27451%,18.039216%);fill-opacity:1;" d="M 106 70.25 L 160 110 L 160 120 L 92.25 70.25 Z M 60 75.25 L 61.5 84 L 13.5 120 L 0 120 Z M 160 0 L 160 0.75 L 97.75 47.75 L 98.25 36.75 L 147.5 0 Z M 0 0 L 59.75 44 L 44.75 44 L 0 10.5 Z M 0 0 "/>
<path style=" stroke:none;fill-rule:nonzero;fill:rgb(100%,100%,100%);fill-opacity:1;" d="M 60.25 0 L 60.25 120 L 100.25 120 L 100.25 0 Z M 0 40 L 0 80 L 160 80 L 160 40 Z M 0 40 "/>
<path style=" stroke:none;fill-rule:nonzero;fill:rgb(78.431374%,6.27451%,18.039216%);fill-opacity:1;" d="M 0 48.25 L 0 72.25 L 160 72.25 L 160 48.25 Z M 68.25 0 L 68.25 120 L 92.25 120 L 92.25 0 Z M 68.25 0 "/>
</g>
</svg>
