<?xml version="1.0" encoding="UTF-8"?>
<svg xmlns="http://www.w3.org/2000/svg" xmlns:xlink="http://www.w3.org/1999/xlink" width="px" height="px" viewBox="0 0 320 240" version="1.1">
<g id="surface1">
<rect x="0" y="0" width="320" height="240" style="fill:rgb(40.392157%,59.215689%,83.92157%);fill-opacity:1;stroke:none;"/>
<path style=" stroke:none;fill-rule:evenodd;fill:rgb(100%,100%,100%);fill-opacity:1;" d="M 160.257812 57.808594 L 145.027344 68.242188 L 150.855469 51.371094 L 135.582031 40.9375 L 154.429688 40.9375 L 160.257812 24.0625 L 166.085938 40.984375 L 184.882812 40.984375 L 169.65625 51.371094 L 175.484375 68.242188 M 160.257812 183.300781 L 145.027344 172.867188 L 150.855469 189.785156 L 135.582031 200.171875 L 154.429688 200.171875 L 160.257812 217.046875 L 166.085938 200.125 L 184.882812 200.171875 L 169.65625 189.738281 L 175.484375 172.867188 M 86.9375 129.4375 L 75.421875 143.820312 L 76.078125 125.960938 L 58.453125 120.460938 L 76.503906 114.960938 L 77.113281 97.101562 L 87.59375 111.578125 L 105.640625 106.03125 L 94.078125 120.460938 L 104.609375 134.890625 M 233.480469 129.390625 L 245.042969 143.820312 L 244.386719 125.960938 L 262.011719 120.460938 L 243.964844 114.960938 L 243.351562 97.101562 L 232.871094 111.578125 L 214.824219 106.03125 L 226.386719 120.460938 L 215.855469 134.890625 "/>
</g>
</svg>
