<?xml version="1.0" encoding="UTF-8"?>
<svg xmlns="http://www.w3.org/2000/svg" xmlns:xlink="http://www.w3.org/1999/xlink" width="px" height="px" viewBox="0 0 320 240" version="1.1">
<g id="surface1">
<rect x="0" y="0" width="320" height="240" style="fill:rgb(100%,100%,100%);fill-opacity:1;stroke:none;"/>
<path style=" stroke:none;fill-rule:evenodd;fill:rgb(80.000001%,0%,0%);fill-opacity:1;" d="M 0 96 L 320 96 L 320 144 L 0 144 Z M 0 96 "/>
<path style=" stroke:none;fill-rule:evenodd;fill:rgb(80.000001%,0%,0%);fill-opacity:1;" d="M 184 0 L 184 240 L 136 240 L 136 0 Z M 184 0 "/>
<path style="fill-rule:evenodd;fill:rgb(92.156863%,91.764706%,89.019608%);fill-opacity:1;stroke-width:0.5;stroke-linecap:butt;stroke-linejoin:miter;stroke:rgb(0%,0%,0%);stroke-opacity:1;stroke-miterlimit:4;" d="M 355.203125 146.601562 C 358.203125 141.796875 356.398438 138.601562 351.796875 137.703125 C 351.796875 137.703125 336.898438 142.5 320.796875 143 C 304.796875 143.5 285.796875 139 285.796875 139 C 282.296875 141.101562 283.101562 146.203125 284.796875 149.398438 C 284.796875 149.398438 301.601562 155 320.796875 154.398438 C 331.039062 153.96875 341.171875 152.117188 350.898438 148.898438 C 354.601562 147.703125 355.203125 146.703125 355.203125 146.601562 Z M 355.203125 146.601562 " transform="matrix(0.5,0,0,0.5,0,0)"/>
<path style="fill-rule:nonzero;fill:rgb(100%,100%,100%);fill-opacity:1;stroke-width:1.6;stroke-linecap:butt;stroke-linejoin:miter;stroke:rgb(8.627451%,6.666667%,6.666667%);stroke-opacity:1;stroke-miterlimit:4;" d="M 320 357.601562 L 289.101562 293.398438 L 218.203125 298.796875 L 258.203125 240 L 218.203125 181.203125 L 289.203125 186.601562 L 320 122.5 L 350.898438 186.5 L 421.796875 181.203125 L 381.796875 240 L 421.796875 298.796875 L 350.796875 293.398438 Z M 320 357.601562 " transform="matrix(0.5,0,0,0.5,0,0)"/>
<path style="fill-rule:evenodd;fill:rgb(69.01961%,13.725491%,12.54902%);fill-opacity:1;stroke-width:1.3;stroke-linecap:butt;stroke-linejoin:miter;stroke:rgb(0%,0%,0%);stroke-opacity:1;stroke-miterlimit:4;" d="M 319.5 122.203125 C 358.296875 128.601562 356.898438 130.398438 356.898438 130.398438 L 367 100.203125 C 367 100.203125 368.101562 94.203125 365.296875 90.601562 C 362.5 87 354.796875 89 354.796875 89 C 354.796875 89 353.796875 84.101562 350.296875 83 C 346.898438 81.796875 334.296875 87.5 330.296875 88.796875 C 326.296875 90.101562 324.296875 91.296875 318.796875 91.203125 C 313.296875 91.203125 303.398438 86.203125 301.5 85.203125 C 299.796875 84.296875 297.101562 83.398438 294.601562 83.5 C 292.203125 83.5 289.601562 84.203125 288.296875 85.898438 C 287 87.601562 287.101562 89.796875 287.101562 89.796875 C 287.101562 89.796875 285.101562 88.5 281.898438 88.5 C 278.703125 88.5 276.898438 88.898438 275.398438 90.601562 C 273.898438 92.296875 272 97.101562 272 97.101562 L 275.601562 105.296875 L 275.796875 116.601562 L 283.296875 128.601562 Z M 319.5 122.203125 " transform="matrix(0.5,0,0,0.5,0,0)"/>
<path style="fill-rule:evenodd;fill:rgb(92.156863%,91.764706%,89.019608%);fill-opacity:1;stroke-width:0.5;stroke-linecap:butt;stroke-linejoin:miter;stroke:rgb(0%,0%,0%);stroke-opacity:1;stroke-miterlimit:4;" d="M 355.703125 139.296875 C 355.703125 139.296875 357.703125 141.601562 357.601562 142.5 C 357.5 143.296875 356.601562 144 356.601562 144 C 356.601562 144 357.296875 144.601562 357.101562 145.5 C 356.898438 146.398438 355.703125 146.5 355.703125 146.5 C 355.703125 146.5 356 147.296875 355.203125 147.703125 C 354.5 148.101562 351.398438 148.703125 351.398438 148.703125 C 351.398438 148.703125 336.398438 144.5 320.398438 144.5 C 304.398438 144.5 285.398438 149.703125 285.398438 149.703125 C 285.398438 149.703125 283.398438 149 283.398438 147.703125 C 283.203125 146.5 283.5 145.601562 283.5 145.601562 C 283.5 145.601562 282.5 145.601562 282.203125 144.703125 C 281.796875 143.398438 282.296875 142.398438 282.296875 142.398438 C 282.296875 142.398438 281.601562 142.601562 282.398438 140.898438 C 283 139.601562 283.898438 139.203125 283.898438 139.203125 C 283.898438 139.203125 300.703125 133.203125 319.898438 133.101562 C 339.101562 133 355.703125 139.101562 355.703125 139.296875 Z M 355.703125 139.296875 " transform="matrix(0.5,0,0,0.5,0,0)"/>
<path style="fill:none;stroke-width:1.1;stroke-linecap:butt;stroke-linejoin:miter;stroke:rgb(0%,0%,0%);stroke-opacity:1;stroke-miterlimit:4;" d="M 276.203125 101.5 C 276.203125 101.5 275.601562 99.296875 277 97.398438 C 278.0625 95.914062 280 95.335938 281.703125 96 C 282.5 96.398438 282.398438 97.296875 283.398438 97.5 C 284.398438 97.796875 285.203125 97 285.203125 97 " transform="matrix(0.5,0,0,0.5,0,0)"/>
<path style="fill-rule:evenodd;fill:rgb(100%,80.000001%,0%);fill-opacity:0.898039;stroke-width:1.2;stroke-linecap:butt;stroke-linejoin:miter;stroke:rgb(0%,0%,0%);stroke-opacity:1;stroke-miterlimit:4;" d="M 369.796875 106.601562 L 364 118.601562 L 361.703125 119 C 361.703125 119 360.296875 118.203125 356.296875 118.5 C 353.5 118.703125 352.601562 119.5 352.601562 119.5 L 357.796875 107.5 C 357.796875 107.5 358.203125 110 358.796875 111.5 C 359.601562 113.5 362.5 115.203125 362.5 115.203125 C 362.5 115.203125 362.898438 112.898438 362.101562 110.203125 C 361.335938 107.703125 360.398438 105.265625 359.296875 102.898438 Z M 369.796875 106.601562 " transform="matrix(0.5,0,0,0.5,0,0)"/>
<path style="fill-rule:nonzero;fill:rgb(7.058824%,6.666667%,8.627451%);fill-opacity:1;stroke-width:1.2;stroke-linecap:butt;stroke-linejoin:round;stroke:rgb(7.058824%,6.666667%,8.627451%);stroke-opacity:1;stroke-miterlimit:4;" d="M 316.5 69.203125 L 323 69.203125 L 323 96.898438 L 316.5 96.898438 Z M 316.5 69.203125 " transform="matrix(0.5,0,0,0.5,0,0)"/>
<path style="fill-rule:evenodd;fill:rgb(96.470588%,79.215688%,12.156863%);fill-opacity:1;stroke-width:1;stroke-linecap:butt;stroke-linejoin:miter;stroke:rgb(0%,0%,0%);stroke-opacity:1;stroke-miterlimit:4;" d="M 276.601562 120.203125 L 280.703125 129.203125 C 280.703125 129.203125 298.601562 122.203125 319.601562 122.398438 C 351.101562 122.601562 360.101562 128.898438 360.101562 128.898438 L 364.703125 117.796875 L 361.203125 119.796875 L 357.601562 122.101562 L 353.601562 123.601562 L 348.601562 123.296875 L 344.203125 120.101562 L 342 115.398438 L 338.296875 118.796875 L 331.703125 120.203125 L 325.296875 118.601562 L 319.703125 111.5 C 319.703125 111.5 315.5 119.398438 310.101562 119.898438 C 302.398438 120.5 298 116.203125 298 116.203125 C 298 116.203125 295.101562 122.601562 290.398438 123.703125 C 282.898438 125.601562 276.703125 120.203125 276.601562 120.203125 Z M 276.601562 120.203125 " transform="matrix(0.5,0,0,0.5,0,0)"/>
<path style="fill-rule:nonzero;fill:rgb(93.333334%,93.333334%,93.333334%);fill-opacity:1;stroke-width:1.2;stroke-linecap:butt;stroke-linejoin:round;stroke:rgb(11.764706%,11.764706%,11.764706%);stroke-opacity:1;stroke-miterlimit:4;" d="M 348.398438 65.703125 C 348.398438 67.5 347 69.101562 345.101562 69.101562 C 343.21875 69.101562 341.703125 67.578125 341.703125 65.703125 C 341.671875 64.78125 342.015625 63.890625 342.65625 63.234375 C 343.296875 62.570312 344.179688 62.203125 345.101562 62.203125 C 346.9375 62.257812 348.398438 63.757812 348.398438 65.601562 " transform="matrix(0.5,0,0,0.5,0,0)"/>
<path style=" stroke:none;fill-rule:evenodd;fill:rgb(63.921571%,68.627453%,72.156864%);fill-opacity:1;" d="M 171.75 33.699219 C 171.75 33.699219 173.101562 33.699219 173.25 33.148438 C 173.398438 32.601562 173.148438 31.851562 173.148438 31.851562 C 173.148438 31.851562 173.800781 32.550781 173.648438 33.101562 C 173.484375 33.566406 173.199219 33.851562 172.800781 33.949219 C 172.449219 33.988281 172.09375 33.898438 171.800781 33.699219 Z M 171.75 33.699219 "/>
<path style="fill-rule:nonzero;fill:rgb(93.333334%,93.333334%,93.333334%);fill-opacity:1;stroke-width:1.2;stroke-linecap:butt;stroke-linejoin:round;stroke:rgb(11.764706%,11.764706%,11.764706%);stroke-opacity:1;stroke-miterlimit:4;" d="M 340.296875 69.5 C 340.296875 71.296875 338.796875 72.898438 336.898438 72.898438 C 335.023438 72.898438 333.5 71.375 333.5 69.5 C 333.46875 68.5625 333.828125 67.65625 334.492188 66.992188 C 335.15625 66.328125 336.0625 65.96875 337 66 C 338.835938 66 340.34375 67.460938 340.398438 69.296875 " transform="matrix(0.5,0,0,0.5,0,0)"/>
<path style=" stroke:none;fill-rule:evenodd;fill:rgb(63.921571%,68.627453%,72.156864%);fill-opacity:1;" d="M 167.648438 35.601562 C 167.648438 35.601562 169.050781 35.601562 169.148438 35.050781 C 169.25 34.5 169.050781 33.75 169.050781 33.75 C 169.050781 33.75 169.699219 34.5 169.550781 35.050781 C 169.382812 35.515625 169.101562 35.785156 168.699219 35.851562 C 168.347656 35.886719 167.992188 35.800781 167.699219 35.601562 Z M 167.648438 35.601562 "/>
<path style="fill-rule:nonzero;fill:rgb(93.333334%,93.333334%,93.333334%);fill-opacity:1;stroke-width:1.2;stroke-linecap:butt;stroke-linejoin:round;stroke:rgb(11.764706%,11.764706%,11.764706%);stroke-opacity:1;stroke-miterlimit:4;" d="M 358 63.398438 C 358 65.296875 356.398438 66.796875 354.601562 66.796875 C 352.71875 66.796875 351.203125 65.28125 351.203125 63.398438 C 351.195312 61.5625 352.664062 60.054688 354.5 60 C 356.375 60 357.898438 61.523438 357.898438 63.398438 " transform="matrix(0.5,0,0,0.5,0,0)"/>
<path style=" stroke:none;fill-rule:evenodd;fill:rgb(63.921571%,68.627453%,72.156864%);fill-opacity:1;" d="M 176.5 32.601562 C 176.5 32.601562 177.851562 32.601562 178 32 C 178.148438 31.398438 177.898438 30.75 177.898438 30.75 C 177.898438 30.75 178.550781 31.449219 178.398438 32 C 178.234375 32.5 177.949219 32.765625 177.550781 32.800781 C 177.203125 32.851562 176.851562 32.78125 176.550781 32.601562 Z M 176.5 32.601562 "/>
<path style="fill-rule:nonzero;fill:rgb(93.333334%,93.333334%,93.333334%);fill-opacity:1;stroke-width:1.2;stroke-linecap:butt;stroke-linejoin:round;stroke:rgb(11.764706%,11.764706%,11.764706%);stroke-opacity:1;stroke-miterlimit:4;" d="M 368.601562 65.601562 C 368.601562 67.398438 367.101562 69 365.296875 69 C 363.421875 69 361.898438 67.476562 361.898438 65.601562 C 361.898438 63.71875 363.421875 62.203125 365.296875 62.203125 C 367.101562 62.25 368.546875 63.703125 368.601562 65.5 " transform="matrix(0.5,0,0,0.5,0,0)"/>
<path style=" stroke:none;fill-rule:evenodd;fill:rgb(63.921571%,68.627453%,72.156864%);fill-opacity:1;" d="M 181.851562 33.648438 C 181.851562 33.648438 183.199219 33.648438 183.351562 33.101562 C 183.5 32.550781 183.25 31.800781 183.25 31.800781 C 183.25 31.800781 183.898438 32.5 183.75 33.101562 C 183.582031 33.535156 183.300781 33.800781 182.898438 33.898438 C 182.53125 33.949219 182.15625 33.859375 181.851562 33.648438 "/>
<path style="fill-rule:nonzero;fill:rgb(93.333334%,93.333334%,93.333334%);fill-opacity:1;stroke-width:1.2;stroke-linecap:butt;stroke-linejoin:round;stroke:rgb(11.764706%,11.764706%,11.764706%);stroke-opacity:1;stroke-miterlimit:4;" d="M 376.796875 72.296875 C 376.796875 74.101562 375.296875 75.703125 373.398438 75.703125 C 371.523438 75.703125 370 74.179688 370 72.296875 C 370 70.421875 371.523438 68.898438 373.398438 68.898438 C 375.242188 68.898438 376.742188 70.359375 376.796875 72.203125 " transform="matrix(0.5,0,0,0.5,0,0)"/>
<path style=" stroke:none;fill-rule:evenodd;fill:rgb(63.921571%,68.627453%,72.156864%);fill-opacity:1;" d="M 185.949219 37 C 185.949219 37 187.300781 37 187.449219 36.449219 C 187.601562 35.898438 187.351562 35.148438 187.351562 35.148438 C 187.351562 35.148438 188 35.898438 187.800781 36.449219 C 187.667969 36.917969 187.382812 37.183594 186.949219 37.25 C 186.617188 37.285156 186.285156 37.199219 185.949219 37 "/>
<path style="fill-rule:nonzero;fill:rgb(93.333334%,93.333334%,93.333334%);fill-opacity:1;stroke-width:1.2;stroke-linecap:butt;stroke-linejoin:round;stroke:rgb(11.764706%,11.764706%,11.764706%);stroke-opacity:1;stroke-miterlimit:4;" d="M 380.296875 83.296875 C 380.296875 85.203125 378.796875 86.703125 376.898438 86.703125 C 375.0625 86.648438 373.601562 85.140625 373.601562 83.296875 C 373.601562 81.460938 375.0625 79.953125 376.898438 79.898438 C 378.78125 79.898438 380.296875 81.421875 380.296875 83.296875 " transform="matrix(0.5,0,0,0.5,0,0)"/>
<path style=" stroke:none;fill-rule:evenodd;fill:rgb(63.921571%,68.627453%,72.156864%);fill-opacity:1;" d="M 187.699219 42.5 C 187.699219 42.5 189.050781 42.5 189.199219 41.949219 C 189.351562 41.398438 189.101562 40.648438 189.101562 40.648438 C 189.101562 40.648438 189.75 41.398438 189.550781 41.949219 C 189.417969 42.417969 189.132812 42.683594 188.699219 42.75 C 188.347656 42.789062 187.992188 42.699219 187.699219 42.5 "/>
<path style="fill-rule:nonzero;fill:rgb(93.333334%,93.333334%,93.333334%);fill-opacity:1;stroke-width:1.2;stroke-linecap:butt;stroke-linejoin:round;stroke:rgb(11.764706%,11.764706%,11.764706%);stroke-opacity:1;stroke-miterlimit:4;" d="M 379 94.398438 C 379 96.398438 377.5 97.796875 375.601562 97.796875 C 373.796875 97.75 372.351562 96.296875 372.296875 94.5 C 372.242188 92.625 373.71875 91.054688 375.601562 91 C 377.476562 91 379 92.523438 379 94.398438 " transform="matrix(0.5,0,0,0.5,0,0)"/>
<path style=" stroke:none;fill-rule:evenodd;fill:rgb(63.921571%,68.627453%,72.156864%);fill-opacity:1;" d="M 187 48.101562 C 187 48.101562 188.398438 48.101562 188.5 47.5 C 188.648438 47 188.449219 46.25 188.449219 46.25 C 188.449219 46.25 189.101562 46.949219 188.898438 47.5 C 188.699219 48.050781 188.550781 48.199219 188.050781 48.300781 C 187.703125 48.351562 187.351562 48.28125 187.050781 48.101562 Z M 187 48.101562 "/>
<path style="fill-rule:nonzero;fill:rgb(93.333334%,93.333334%,93.333334%);fill-opacity:1;stroke-width:1.2;stroke-linecap:butt;stroke-linejoin:round;stroke:rgb(11.764706%,11.764706%,11.764706%);stroke-opacity:1;stroke-miterlimit:4;" d="M 374 104.203125 C 374 106.101562 372.5 107.601562 370.703125 107.601562 C 368.820312 107.601562 367.296875 106.078125 367.296875 104.203125 C 367.296875 102.320312 368.820312 100.796875 370.703125 100.796875 C 372.539062 100.851562 374 102.359375 374 104.203125 " transform="matrix(0.5,0,0,0.5,0,0)"/>
<path style=" stroke:none;fill-rule:evenodd;fill:rgb(63.921571%,68.627453%,72.156864%);fill-opacity:1;" d="M 184.550781 53 C 184.550781 53 185.898438 53 186.050781 52.398438 C 186.199219 51.898438 185.949219 51.148438 185.949219 51.148438 C 185.949219 51.148438 186.601562 51.851562 186.449219 52.398438 C 186.285156 52.898438 186 53.167969 185.601562 53.199219 C 185.253906 53.253906 184.898438 53.179688 184.601562 53 Z M 184.550781 53 "/>
<path style="fill-rule:nonzero;fill:rgb(93.333334%,93.333334%,93.333334%);fill-opacity:1;stroke-width:1.2;stroke-linecap:butt;stroke-linejoin:round;stroke:rgb(11.764706%,11.764706%,11.764706%);stroke-opacity:1;stroke-miterlimit:4;" d="M 332.296875 72.398438 C 332.296875 74.296875 330.796875 75.796875 329 75.796875 C 327.125 75.796875 325.601562 74.28125 325.601562 72.398438 C 325.601562 70.5625 327.0625 69.054688 328.898438 69 C 330.78125 69 332.296875 70.523438 332.296875 72.398438 " transform="matrix(0.5,0,0,0.5,0,0)"/>
<path style=" stroke:none;fill-rule:evenodd;fill:rgb(63.921571%,68.627453%,72.156864%);fill-opacity:1;" d="M 163.699219 37.101562 C 163.699219 37.101562 165.050781 37.101562 165.199219 36.5 C 165.351562 35.898438 165.101562 35.25 165.101562 35.25 C 165.101562 35.25 165.75 35.949219 165.601562 36.5 C 165.433594 37 165.148438 37.265625 164.75 37.300781 C 164.351562 37.398438 164 37.332031 163.699219 37.101562 "/>
<path style="fill-rule:nonzero;fill:rgb(93.333334%,93.333334%,93.333334%);fill-opacity:1;stroke-width:1.2;stroke-linecap:butt;stroke-linejoin:round;stroke:rgb(11.764706%,11.764706%,11.764706%);stroke-opacity:1;stroke-miterlimit:4;" d="M 322.101562 71.5 C 322.054688 73.046875 320.84375 74.296875 319.296875 74.398438 C 317.757812 74.296875 316.546875 73.046875 316.5 71.5 C 316.59375 69.992188 317.796875 68.796875 319.296875 68.703125 C 320.804688 68.796875 322 69.992188 322.101562 71.5 " transform="matrix(0.5,0,0,0.5,0,0)"/>
<path style=" stroke:none;fill-rule:evenodd;fill:rgb(63.921571%,68.627453%,72.156864%);fill-opacity:1;" d="M 159 36.5 C 159 36.5 160.148438 36.5 160.25 36 C 160.351562 35.5 160.199219 35 160.199219 35 C 160.199219 35 160.699219 35.550781 160.601562 36 C 160.433594 36.433594 160.199219 36.667969 159.898438 36.699219 C 159.585938 36.730469 159.273438 36.660156 159 36.5 "/>
<path style="fill-rule:nonzero;fill:rgb(93.333334%,93.333334%,93.333334%);fill-opacity:1;stroke-width:1.2;stroke-linecap:butt;stroke-linejoin:round;stroke:rgb(11.764706%,11.764706%,11.764706%);stroke-opacity:1;stroke-miterlimit:4;" d="M 322.203125 75 C 322.203125 76.578125 320.976562 77.898438 319.398438 78 C 317.820312 77.898438 316.59375 76.578125 316.601562 75 C 316.695312 73.492188 317.898438 72.296875 319.398438 72.203125 C 320.90625 72.296875 322.101562 73.492188 322.203125 75 " transform="matrix(0.5,0,0,0.5,0,0)"/>
<path style=" stroke:none;fill-rule:evenodd;fill:rgb(63.921571%,68.627453%,72.156864%);fill-opacity:1;" d="M 159 38.25 C 159 38.25 160.148438 38.25 160.300781 37.75 C 160.398438 37.351562 160.199219 36.75 160.199219 36.75 C 160.199219 36.75 160.699219 37.351562 160.601562 37.75 C 160.5 38.183594 160.265625 38.417969 159.898438 38.449219 C 159.601562 38.46875 159.308594 38.398438 159.050781 38.25 Z M 159 38.25 "/>
<path style="fill-rule:nonzero;fill:rgb(93.333334%,93.333334%,93.333334%);fill-opacity:1;stroke-width:1.2;stroke-linecap:butt;stroke-linejoin:round;stroke:rgb(11.764706%,11.764706%,11.764706%);stroke-opacity:1;stroke-miterlimit:4;" d="M 322.398438 80.296875 C 322.304688 81.804688 321.101562 83 319.601562 83.101562 C 318.054688 83.054688 316.804688 81.84375 316.703125 80.296875 C 316.75 78.71875 318.023438 77.453125 319.601562 77.398438 C 321.140625 77.5 322.351562 78.757812 322.398438 80.296875 " transform="matrix(0.5,0,0,0.5,0,0)"/>
<path style=" stroke:none;fill-rule:evenodd;fill:rgb(63.921571%,68.627453%,72.156864%);fill-opacity:1;" d="M 159.148438 40.898438 C 159.148438 40.898438 160.25 40.898438 160.398438 40.398438 C 160.550781 39.898438 160.300781 39.351562 160.300781 39.351562 C 160.300781 39.351562 160.800781 39.949219 160.699219 40.351562 C 160.601562 40.816406 160.367188 41.050781 160 41.050781 C 159.707031 41.085938 159.414062 41.03125 159.148438 40.898438 "/>
<path style="fill-rule:nonzero;fill:rgb(93.333334%,93.333334%,93.333334%);fill-opacity:1;stroke-width:1.2;stroke-linecap:butt;stroke-linejoin:round;stroke:rgb(11.764706%,11.764706%,11.764706%);stroke-opacity:1;stroke-miterlimit:4;" d="M 322.703125 85.796875 C 322.726562 86.609375 322.421875 87.398438 321.859375 87.984375 C 321.289062 88.570312 320.515625 88.898438 319.703125 88.898438 C 318.890625 88.929688 318.101562 88.625 317.515625 88.054688 C 316.929688 87.492188 316.601562 86.710938 316.601562 85.898438 C 316.546875 85.070312 316.835938 84.257812 317.40625 83.648438 C 317.976562 83.039062 318.765625 82.695312 319.601562 82.703125 C 320.414062 82.703125 321.195312 83.03125 321.757812 83.617188 C 322.320312 84.195312 322.625 84.984375 322.601562 85.796875 " transform="matrix(0.5,0,0,0.5,0,0)"/>
<path style=" stroke:none;fill-rule:evenodd;fill:rgb(63.921571%,68.627453%,72.156864%);fill-opacity:1;" d="M 159.101562 43.699219 C 159.101562 43.699219 160.351562 43.699219 160.449219 43.199219 C 160.550781 42.699219 160.351562 42.050781 160.351562 42.050781 C 160.351562 42.050781 160.949219 42.699219 160.800781 43.199219 C 160.601562 43.699219 160.449219 43.800781 160.050781 43.898438 C 159.71875 43.941406 159.386719 43.871094 159.101562 43.699219 "/>
<path style="fill-rule:nonzero;fill:rgb(93.333334%,93.333334%,93.333334%);fill-opacity:1;stroke-width:1.2;stroke-linecap:butt;stroke-linejoin:round;stroke:rgb(11.764706%,11.764706%,11.764706%);stroke-opacity:1;stroke-miterlimit:4;" d="M 323 93.296875 C 323 95.101562 321.5 96.703125 319.601562 96.703125 C 317.757812 96.648438 316.296875 95.140625 316.296875 93.296875 C 316.242188 91.421875 317.71875 89.851562 319.601562 89.796875 C 321.476562 89.796875 323 91.320312 323 93.203125 " transform="matrix(0.5,0,0,0.5,0,0)"/>
<path style=" stroke:none;fill-rule:evenodd;fill:rgb(63.921571%,68.627453%,72.156864%);fill-opacity:1;" d="M 159 47.5 C 159 47.5 160.398438 47.5 160.5 46.949219 C 160.601562 46.398438 160.449219 45.648438 160.449219 45.648438 C 160.449219 45.648438 161.101562 46.398438 160.898438 46.949219 C 160.699219 47.449219 160.550781 47.648438 160.050781 47.75 C 159.699219 47.789062 159.34375 47.699219 159.050781 47.5 Z M 159 47.5 "/>
<path style="fill-rule:nonzero;fill:rgb(93.333334%,93.333334%,93.333334%);fill-opacity:1;stroke-width:1.2;stroke-linecap:butt;stroke-linejoin:round;stroke:rgb(11.764706%,11.764706%,11.764706%);stroke-opacity:1;stroke-miterlimit:4;" d="M 322.703125 108.5 C 322.703125 110.296875 321.296875 111.703125 319.5 111.703125 C 318.632812 111.757812 317.78125 111.445312 317.171875 110.828125 C 316.554688 110.21875 316.242188 109.367188 316.296875 108.5 C 316.296875 106.796875 317.703125 105.296875 319.5 105.296875 C 320.367188 105.242188 321.21875 105.554688 321.828125 106.171875 C 322.445312 106.78125 322.757812 107.632812 322.703125 108.5 " transform="matrix(0.5,0,0,0.5,0,0)"/>
<path style=" stroke:none;fill-rule:evenodd;fill:rgb(63.921571%,68.627453%,72.156864%);fill-opacity:1;" d="M 159 55.101562 C 159 55.101562 160.300781 55.101562 160.398438 54.550781 C 160.550781 54.050781 160.351562 53.351562 160.351562 53.351562 C 160.351562 53.351562 160.949219 54 160.75 54.550781 C 160.617188 54.984375 160.367188 55.234375 160 55.300781 C 159.667969 55.332031 159.332031 55.265625 159 55.101562 "/>
<path style="fill-rule:nonzero;fill:rgb(93.333334%,93.333334%,93.333334%);fill-opacity:1;stroke-width:1.2;stroke-linecap:butt;stroke-linejoin:round;stroke:rgb(11.764706%,11.764706%,11.764706%);stroke-opacity:1;stroke-miterlimit:4;" d="M 313.601562 72.296875 C 313.601562 74.203125 312 75.703125 310.203125 75.703125 C 308.320312 75.703125 306.796875 74.179688 306.796875 72.296875 C 306.796875 70.421875 308.320312 68.898438 310.203125 68.898438 C 312.078125 68.898438 313.601562 70.421875 313.601562 72.296875 " transform="matrix(0.5,0,0,0.5,0,0)"/>
<path style=" stroke:none;fill-rule:evenodd;fill:rgb(63.921571%,68.627453%,72.156864%);fill-opacity:1;" d="M 154.300781 37 C 154.300781 37 155.648438 37 155.800781 36.5 C 155.949219 35.898438 155.699219 35.199219 155.699219 35.199219 C 155.699219 35.199219 156.351562 35.898438 156.199219 36.449219 C 156.035156 36.949219 155.75 37.214844 155.351562 37.25 C 155.003906 37.300781 154.648438 37.230469 154.351562 37.050781 Z M 154.300781 37 "/>
<path style="fill-rule:nonzero;fill:rgb(93.333334%,93.333334%,93.333334%);fill-opacity:1;stroke-width:1.2;stroke-linecap:butt;stroke-linejoin:round;stroke:rgb(11.764706%,11.764706%,11.764706%);stroke-opacity:1;stroke-miterlimit:4;" d="M 305.203125 69 C 305.203125 70.898438 303.703125 72.398438 301.796875 72.398438 C 299.960938 72.34375 298.5 70.835938 298.5 69 C 298.5 67.164062 299.960938 65.65625 301.796875 65.601562 C 303.679688 65.601562 305.203125 67.125 305.203125 69 " transform="matrix(0.5,0,0,0.5,0,0)"/>
<path style=" stroke:none;fill-rule:evenodd;fill:rgb(63.921571%,68.627453%,72.156864%);fill-opacity:1;" d="M 150.148438 35.398438 C 150.148438 35.398438 151.5 35.398438 151.648438 34.800781 C 151.75 34.300781 151.550781 33.550781 151.550781 33.550781 C 151.550781 33.550781 152.199219 34.25 152.050781 34.800781 C 151.800781 35.351562 151.648438 35.5 151.148438 35.601562 C 150.816406 35.699219 150.484375 35.632812 150.148438 35.398438 "/>
<path style="fill-rule:nonzero;fill:rgb(93.333334%,93.333334%,93.333334%);fill-opacity:1;stroke-width:1.2;stroke-linecap:butt;stroke-linejoin:round;stroke:rgb(11.764706%,11.764706%,11.764706%);stroke-opacity:1;stroke-miterlimit:4;" d="M 297.203125 65.296875 C 297.203125 67.101562 295.703125 68.703125 293.898438 68.703125 C 292.023438 68.703125 290.5 67.179688 290.5 65.296875 C 290.445312 63.421875 291.921875 61.851562 293.796875 61.796875 C 295.679688 61.796875 297.203125 63.320312 297.203125 65.203125 " transform="matrix(0.5,0,0,0.5,0,0)"/>
<path style=" stroke:none;fill-rule:evenodd;fill:rgb(63.921571%,68.627453%,72.156864%);fill-opacity:1;" d="M 146.148438 33.5 C 146.148438 33.5 147.5 33.5 147.648438 32.949219 C 147.800781 32.398438 147.550781 31.648438 147.550781 31.648438 C 147.550781 31.648438 148.199219 32.398438 148.050781 32.949219 C 147.882812 33.417969 147.601562 33.683594 147.199219 33.75 C 146.832031 33.800781 146.457031 33.710938 146.148438 33.5 "/>
<path style="fill-rule:nonzero;fill:rgb(93.333334%,93.333334%,93.333334%);fill-opacity:1;stroke-width:1.2;stroke-linecap:butt;stroke-linejoin:round;stroke:rgb(11.764706%,11.764706%,11.764706%);stroke-opacity:1;stroke-miterlimit:4;" d="M 288 63.296875 C 288 65.203125 286.601562 66.703125 284.703125 66.703125 C 282.820312 66.703125 281.296875 65.179688 281.296875 63.296875 C 281.273438 62.382812 281.617188 61.492188 282.257812 60.828125 C 282.898438 60.171875 283.78125 59.796875 284.703125 59.796875 C 286.578125 59.796875 288.101562 61.320312 288.101562 63.203125 " transform="matrix(0.5,0,0,0.5,0,0)"/>
<path style=" stroke:none;fill-rule:evenodd;fill:rgb(63.921571%,68.627453%,72.156864%);fill-opacity:1;" d="M 141.550781 32.5 C 141.550781 32.5 142.898438 32.5 143.050781 31.949219 C 143.199219 31.398438 142.949219 30.648438 142.949219 30.648438 C 142.949219 30.648438 143.601562 31.398438 143.449219 31.949219 C 143.285156 32.417969 143 32.683594 142.601562 32.75 C 142.246094 32.789062 141.894531 32.699219 141.601562 32.5 Z M 141.550781 32.5 "/>
<path style="fill-rule:nonzero;fill:rgb(93.333334%,93.333334%,93.333334%);fill-opacity:1;stroke-width:1.2;stroke-linecap:butt;stroke-linejoin:round;stroke:rgb(11.764706%,11.764706%,11.764706%);stroke-opacity:1;stroke-miterlimit:4;" d="M 277.203125 65.796875 C 277.203125 67.796875 275.703125 69.203125 273.898438 69.296875 C 272.023438 69.296875 270.5 67.78125 270.5 65.898438 C 270.476562 64.984375 270.820312 64.09375 271.460938 63.429688 C 272.101562 62.773438 272.984375 62.398438 273.898438 62.398438 C 275.742188 62.453125 277.203125 63.960938 277.203125 65.796875 " transform="matrix(0.5,0,0,0.5,0,0)"/>
<path style=" stroke:none;fill-rule:evenodd;fill:rgb(63.921571%,68.627453%,72.156864%);fill-opacity:1;" d="M 136.148438 33.800781 C 136.148438 33.800781 137.5 33.800781 137.648438 33.25 C 137.800781 32.699219 137.550781 31.949219 137.550781 31.949219 C 137.550781 31.949219 138.199219 32.648438 138.050781 33.199219 C 137.882812 33.667969 137.601562 33.949219 137.199219 34.050781 C 136.847656 34.085938 136.492188 34 136.199219 33.800781 Z M 136.148438 33.800781 "/>
<path style="fill-rule:nonzero;fill:rgb(93.333334%,93.333334%,93.333334%);fill-opacity:1;stroke-width:1.2;stroke-linecap:butt;stroke-linejoin:round;stroke:rgb(11.764706%,11.764706%,11.764706%);stroke-opacity:1;stroke-miterlimit:4;" d="M 269.601562 73.5 C 269.601562 75.398438 268.101562 76.898438 266.203125 76.898438 C 264.359375 76.84375 262.898438 75.335938 262.898438 73.5 C 262.898438 71.664062 264.359375 70.15625 266.203125 70.101562 C 268.078125 70.101562 269.601562 71.625 269.601562 73.5 " transform="matrix(0.5,0,0,0.5,0,0)"/>
<path style=" stroke:none;fill-rule:evenodd;fill:rgb(63.921571%,68.627453%,72.156864%);fill-opacity:1;" d="M 132.351562 37.601562 C 132.351562 37.601562 133.699219 37.601562 133.851562 37.050781 C 134 36.5 133.75 35.75 133.75 35.75 C 133.75 35.75 134.398438 36.5 134.199219 37.050781 C 134.066406 37.515625 133.785156 37.785156 133.351562 37.851562 C 132.996094 37.886719 132.644531 37.800781 132.351562 37.601562 "/>
<path style="fill-rule:nonzero;fill:rgb(93.333334%,93.333334%,93.333334%);fill-opacity:1;stroke-width:1.2;stroke-linecap:butt;stroke-linejoin:round;stroke:rgb(11.764706%,11.764706%,11.764706%);stroke-opacity:1;stroke-miterlimit:4;" d="M 266.398438 84.203125 C 266.398438 86.101562 264.898438 87.601562 263.101562 87.601562 C 261.21875 87.601562 259.703125 86.078125 259.703125 84.203125 C 259.695312 82.359375 261.164062 80.851562 263 80.796875 C 264.835938 80.796875 266.34375 82.257812 266.398438 84.101562 " transform="matrix(0.5,0,0,0.5,0,0)"/>
<path style=" stroke:none;fill-rule:evenodd;fill:rgb(63.921571%,68.627453%,72.156864%);fill-opacity:1;" d="M 130.75 43 C 130.75 43 132.101562 42.949219 132.25 42.398438 C 132.398438 41.851562 132.148438 41.101562 132.148438 41.101562 C 132.148438 41.101562 132.800781 41.851562 132.648438 42.398438 C 132.484375 42.867188 132.199219 43.132812 131.800781 43.199219 C 131.429688 43.25 131.058594 43.160156 130.75 42.949219 Z M 130.75 43 "/>
<path style="fill-rule:nonzero;fill:rgb(93.333334%,93.333334%,93.333334%);fill-opacity:1;stroke-width:1.2;stroke-linecap:butt;stroke-linejoin:round;stroke:rgb(11.764706%,11.764706%,11.764706%);stroke-opacity:1;stroke-miterlimit:4;" d="M 267.796875 95.296875 C 267.796875 97.296875 266.296875 98.796875 264.5 98.796875 C 262.625 98.796875 261.101562 97.28125 261.101562 95.398438 C 261.046875 93.523438 262.523438 91.953125 264.398438 91.898438 C 266.28125 91.898438 267.796875 93.421875 267.796875 95.296875 " transform="matrix(0.5,0,0,0.5,0,0)"/>
<path style=" stroke:none;fill-rule:evenodd;fill:rgb(63.921571%,68.627453%,72.156864%);fill-opacity:1;" d="M 131.449219 48.550781 C 131.449219 48.550781 132.800781 48.550781 132.949219 47.949219 C 133.101562 47.449219 132.851562 46.699219 132.851562 46.699219 C 132.851562 46.699219 133.5 47.398438 133.351562 47.949219 C 133.183594 48.449219 132.898438 48.734375 132.5 48.800781 C 132.148438 48.835938 131.792969 48.75 131.5 48.550781 Z M 131.449219 48.550781 "/>
<path style="fill-rule:nonzero;fill:rgb(93.333334%,93.333334%,93.333334%);fill-opacity:1;stroke-width:1.2;stroke-linecap:butt;stroke-linejoin:round;stroke:rgb(11.764706%,11.764706%,11.764706%);stroke-opacity:1;stroke-miterlimit:4;" d="M 273 105.5 C 273 107.296875 271.5 108.898438 269.601562 108.898438 C 267.757812 108.84375 266.296875 107.335938 266.296875 105.5 C 266.242188 103.625 267.71875 102.054688 269.601562 102 C 271.476562 102 273 103.523438 273 105.398438 " transform="matrix(0.5,0,0,0.5,0,0)"/>
<path style=" stroke:none;fill-rule:evenodd;fill:rgb(63.921571%,68.627453%,72.156864%);fill-opacity:1;" d="M 134 53.601562 C 134 53.601562 135.398438 53.601562 135.5 53.050781 C 135.601562 52.5 135.449219 51.75 135.449219 51.75 C 135.449219 51.75 136.101562 52.449219 135.949219 53 C 135.75 53.5 135.464844 53.785156 135.101562 53.851562 C 134.730469 53.898438 134.355469 53.8125 134.050781 53.601562 Z M 134 53.601562 "/>
<path style="fill-rule:nonzero;fill:rgb(93.333334%,93.333334%,93.333334%);fill-opacity:1;stroke-width:2.8;stroke-linecap:butt;stroke-linejoin:round;stroke:rgb(11.764706%,11.764706%,11.764706%);stroke-opacity:1;stroke-miterlimit:4;" d="M 430.595831 247.397533 C 430.61056 250.951286 427.740428 253.849653 424.204979 253.906848 C 420.595798 253.90513 417.713736 250.986082 417.6883 247.399515 C 417.696641 243.849639 420.543704 240.947395 424.102222 240.894076 C 427.682152 240.906387 430.593465 243.814843 430.595831 247.397533 " transform="matrix(0.157985,-0.04233,0.067495,0.25189,54.700001,15)"/>
<path style=" stroke:none;fill-rule:evenodd;fill:rgb(63.921571%,68.627453%,72.156864%);fill-opacity:1;" d="M 138.148438 60.351562 C 138.148438 60.351562 138.949219 60.101562 138.898438 59.550781 C 138.898438 59 138.550781 58.351562 138.550781 58.351562 C 138.550781 58.351562 139.101562 58.898438 139.148438 59.5 C 139.148438 59.964844 139.050781 60.265625 138.851562 60.398438 C 138.648438 60.5 138.417969 60.484375 138.148438 60.351562 "/>
<path style="fill-rule:nonzero;fill:rgb(93.333334%,93.333334%,93.333334%);fill-opacity:1;stroke-width:2.8;stroke-linecap:butt;stroke-linejoin:round;stroke:rgb(11.764706%,11.764706%,11.764706%);stroke-opacity:1;stroke-miterlimit:4;" d="M 430.611928 247.404937 C 430.606775 250.954347 427.760582 253.848195 424.192107 253.906984 C 420.623923 253.904013 417.706634 250.992232 417.694615 247.399195 C 417.699768 243.849786 420.54596 240.955937 424.091248 240.900738 C 427.682619 240.900119 430.599908 243.8119 430.611928 247.404937 " transform="matrix(0.15879,0.0392,-0.0625,0.25318,130,-20.1)"/>
<path style=" stroke:none;fill-rule:evenodd;fill:rgb(63.921571%,68.627453%,72.156864%);fill-opacity:1;" d="M 181.148438 59.898438 C 181.148438 59.898438 182 60.101562 182.199219 59.550781 C 182.449219 59.050781 182.449219 58.300781 182.449219 58.300781 C 182.449219 58.300781 182.699219 59.101562 182.449219 59.601562 C 182.199219 60.101562 182.050781 60.25 181.75 60.25 C 181.515625 60.25 181.316406 60.132812 181.148438 59.898438 "/>
<path style="fill-rule:evenodd;fill:rgb(70.19608%,63.137257%,57.254905%);fill-opacity:1;stroke-width:1.2;stroke-linecap:butt;stroke-linejoin:miter;stroke:rgb(0%,0%,0%);stroke-opacity:1;stroke-miterlimit:4;" d="M 316.703125 53.796875 L 317 59.5 C 317 59.5 310.203125 60.101562 310 60.703125 C 308.601562 63.703125 311.5 67.703125 311.5 67.703125 C 311.5 67.703125 313.796875 65.898438 319.5 65.898438 C 325 65.898438 327.796875 67.296875 327.796875 67.296875 C 327.796875 67.296875 329.203125 65 329.203125 63.296875 C 329.203125 61.601562 328.601562 59.898438 328.601562 59.898438 L 325 59.5 L 322.5 59.5 L 322.296875 53.703125 Z M 316.703125 53.796875 " transform="matrix(0.5,0,0,0.5,0,0)"/>
<path style="fill-rule:nonzero;fill:rgb(94.117647%,86.666667%,79.607844%);fill-opacity:1;stroke-width:0.6;stroke-linecap:butt;stroke-linejoin:round;stroke:rgb(7.058824%,6.666667%,8.627451%);stroke-opacity:1;stroke-miterlimit:4;" d="M 326.398438 62.601562 C 326.265625 63.335938 325.867188 63.734375 325.203125 63.796875 C 324.398438 63.734375 323.96875 63.367188 323.898438 62.703125 C 324.03125 61.96875 324.429688 61.570312 325.101562 61.5 C 325.835938 61.570312 326.265625 61.929688 326.398438 62.601562 M 329.101562 63.296875 C 329.101562 63.96875 328.703125 64.367188 327.898438 64.5 C 326.703125 64.703125 326.601562 63.898438 326.601562 63.296875 C 326.664062 62.570312 327.101562 62.164062 327.898438 62.101562 C 328.703125 62.03125 329.101562 62.429688 329.101562 63.296875 M 323.601562 62.601562 C 323.46875 63.265625 323.070312 63.664062 322.398438 63.796875 C 321.664062 63.664062 321.265625 63.265625 321.203125 62.601562 C 321.203125 61.734375 321.570312 61.335938 322.296875 61.398438 C 323.03125 61.46875 323.46875 61.867188 323.601562 62.601562 M 318 62.601562 C 317.929688 63.398438 317.5 63.835938 316.703125 63.898438 C 315.96875 63.835938 315.570312 63.429688 315.5 62.703125 C 315.429688 61.96875 315.835938 61.570312 316.703125 61.5 C 317.898438 61.398438 318 62 318 62.703125 M 314.898438 62.898438 C 314.835938 63.570312 314.398438 63.96875 313.601562 64.101562 C 312.867188 64.101562 312.46875 63.703125 312.398438 62.898438 C 312.296875 61.703125 312.898438 61.703125 313.601562 61.703125 C 314.296875 61.703125 314.898438 62.203125 314.898438 62.898438 M 320.601562 59.398438 C 320.53125 60.070312 320.203125 60.398438 319.601562 60.398438 C 319.304688 60.460938 318.992188 60.382812 318.757812 60.1875 C 318.523438 59.992188 318.390625 59.703125 318.398438 59.398438 C 318.46875 58.734375 318.835938 58.398438 319.5 58.398438 C 320.164062 58.398438 320.5 58.734375 320.5 59.398438 M 320.5 54.703125 C 320.5 55.296875 320.164062 55.632812 319.5 55.703125 C 318.945312 55.703125 318.5 55.25 318.5 54.703125 C 318.5 54.03125 318.835938 53.703125 319.5 53.703125 C 320.5 53.703125 320.5 54.101562 320.5 54.703125 M 320.5 57.203125 C 320.5 57.867188 320.164062 58.203125 319.5 58.203125 C 318.5 58.203125 318.5 57.796875 318.5 57.203125 C 318.5 56.601562 318.835938 56.265625 319.5 56.203125 C 320.5 56.101562 320.5 56.601562 320.5 57.203125 M 311.703125 63.703125 C 311.703125 64.429688 311.296875 64.835938 310.5 64.898438 C 309.835938 64.898438 309.429688 64.5 309.296875 63.703125 C 309.296875 63.03125 309.703125 62.664062 310.5 62.601562 C 311.703125 62.5 311.703125 63.101562 311.703125 63.703125 " transform="matrix(0.5,0,0,0.5,0,0)"/>
<path style="fill-rule:nonzero;fill:rgb(56.862748%,42.352942%,40.784314%);fill-opacity:1;stroke-width:0.6;stroke-linecap:butt;stroke-linejoin:round;stroke:rgb(30.19608%,19.215687%,14.901961%);stroke-opacity:1;stroke-miterlimit:4;" d="M 320.898438 62.398438 C 320.835938 63.132812 320.367188 63.53125 319.5 63.601562 C 318.820312 63.601562 318.25 63.078125 318.203125 62.398438 C 318.265625 61.601562 318.703125 61.164062 319.5 61.101562 C 320.296875 61.164062 320.734375 61.601562 320.796875 62.398438 " transform="matrix(0.5,0,0,0.5,0,0)"/>
<path style="fill-rule:nonzero;fill:rgb(93.333334%,93.333334%,93.333334%);fill-opacity:1;stroke-width:1.2;stroke-linecap:butt;stroke-linejoin:round;stroke:rgb(11.764706%,11.764706%,11.764706%);stroke-opacity:1;stroke-miterlimit:4;" d="M 322 45.5 C 322 46.84375 320.945312 47.945312 319.601562 48 C 318.21875 48 317.101562 46.882812 317.101562 45.5 C 317.070312 44.820312 317.320312 44.15625 317.796875 43.664062 C 318.265625 43.179688 318.921875 42.898438 319.601562 42.898438 C 320.984375 42.898438 322.101562 44.015625 322.101562 45.398438 " transform="matrix(0.5,0,0,0.5,0,0)"/>
<path style=" stroke:none;fill-rule:evenodd;fill:rgb(63.921571%,68.627453%,72.156864%);fill-opacity:1;" d="M 159.199219 23.398438 C 159.199219 23.398438 160.199219 23.398438 160.300781 22.898438 C 160.398438 22.550781 160.25 22 160.25 22 C 160.25 22 160.75 22.5 160.601562 22.949219 C 160.464844 23.285156 160.265625 23.484375 160 23.550781 C 159.722656 23.617188 159.433594 23.5625 159.199219 23.398438 "/>
<path style="fill-rule:evenodd;fill:rgb(100%,80.000001%,0%);fill-opacity:1;stroke-width:0.5;stroke-linecap:butt;stroke-linejoin:miter;stroke:rgb(0%,0%,0%);stroke-opacity:1;stroke-miterlimit:4;" d="M 280 130.101562 C 280 130.101562 282.203125 132.203125 282.796875 134.101562 C 283.398438 136 284.296875 140.898438 284.296875 140.898438 C 284.296875 140.898438 307.5 134.398438 318.898438 134.898438 C 330.296875 135.398438 356.601562 141.203125 356.601562 141.203125 L 357.601562 135.5 C 358.101562 132.5 360.296875 129.203125 360.296875 129.203125 C 360.296875 129.203125 335.203125 121.398438 319.296875 122.203125 C 310.09375 122.28125 300.929688 123.453125 292 125.703125 Z M 280 130.101562 " transform="matrix(0.5,0,0,0.5,0,0)"/>
<path style="fill-rule:evenodd;fill:rgb(100%,80.000001%,0%);fill-opacity:1;stroke-width:1.2;stroke-linecap:butt;stroke-linejoin:miter;stroke:rgb(0%,0%,0%);stroke-opacity:1;stroke-miterlimit:4;" d="M 314.703125 36 L 324.703125 36 C 324.703125 36 322.203125 37.703125 321.703125 39.398438 C 321.296875 40.796875 321.398438 43.101562 321.398438 43.101562 C 321.398438 43.101562 324.101562 43.101562 325.398438 42.101562 L 329.101562 39.203125 L 329.101562 51.898438 C 329.101562 51.898438 326.601562 49.601562 325.101562 48.796875 C 324 48.210938 322.820312 47.773438 321.601562 47.5 C 321.601562 47.5 321.601562 49.5 322.398438 50.796875 C 323.203125 52.101562 326.703125 56.601562 326.703125 56.601562 L 312.398438 57.101562 C 312.398438 57.101562 315.796875 53.601562 317.203125 51 C 318.101562 49.296875 317.703125 47.5 317.703125 47.5 C 317.703125 47.5 315.296875 47.5 314.101562 48.398438 C 312.898438 49.296875 310.703125 51.703125 310.703125 51.703125 L 310.703125 39.5 C 310.703125 39.5 311.703125 41.898438 313.703125 42.796875 C 315.703125 43.703125 317.5 43.203125 317.5 43.203125 C 317.5 43.203125 317.898438 40.796875 317.101562 39.203125 C 316.296875 37.703125 314.5 36 314.703125 36.101562 Z M 314.703125 36 " transform="matrix(0.5,0,0,0.5,0,0)"/>
<path style="fill-rule:evenodd;fill:rgb(100%,80.000001%,0%);fill-opacity:1;stroke-width:1.2;stroke-linecap:butt;stroke-linejoin:miter;stroke:rgb(7.058824%,6.666667%,8.627451%);stroke-opacity:1;stroke-miterlimit:4;" d="M 313.898438 76.5 C 313.898438 76.5 306.796875 76.398438 300.703125 72.796875 C 294.601562 69.203125 288.398438 65.398438 279.398438 67.5 C 277.601562 68 270.796875 71 267.796875 80.703125 C 266.234375 87.015625 267.085938 93.6875 270.203125 99.398438 C 271.835938 102.03125 273.710938 104.515625 275.796875 106.796875 L 279.5 104.296875 C 279.5 104.296875 270.203125 96.296875 271.296875 86.101562 C 272.296875 75.796875 277.5 73.398438 277.5 73.398438 C 277.5 73.398438 283.898438 68.398438 292.398438 73.101562 C 300.289062 77.398438 308.835938 80.34375 317.703125 81.796875 C 318.296875 81.703125 313.703125 76.398438 313.898438 76.5 Z M 313.898438 76.5 " transform="matrix(0.5,0,0,0.5,0,0)"/>
<path style="fill-rule:evenodd;fill:rgb(100%,80.000001%,0%);fill-opacity:1;stroke-width:1.2;stroke-linecap:butt;stroke-linejoin:miter;stroke:rgb(0%,0%,0%);stroke-opacity:1;stroke-miterlimit:4;" d="M 274.5 115 L 270.703125 107.601562 L 282.101562 103.203125 C 282.101562 103.203125 279.296875 106.796875 278.703125 109.398438 C 277.898438 112.601562 278.203125 115.296875 278.203125 115.296875 C 278.203125 115.296875 279.203125 114.5 280.5 112.398438 C 281.5 110.898438 283.101562 105.101562 283.101562 105.101562 L 288.203125 121.398438 C 288.203125 121.398438 285.601562 118.796875 283.703125 118.5 C 281.703125 118.101562 279.101562 118.796875 279.101562 118.796875 L 276.101562 119.796875 Z M 274.5 115 " transform="matrix(0.5,0,0,0.5,0,0)"/>
<path style="fill-rule:evenodd;fill:rgb(100%,80.000001%,0%);fill-opacity:1;stroke-width:1.2;stroke-linecap:butt;stroke-linejoin:miter;stroke:rgb(7.058824%,6.666667%,8.627451%);stroke-opacity:1;stroke-miterlimit:4;" d="M 326.703125 76.296875 C 326.703125 76.296875 333.796875 76.296875 339.898438 72.601562 C 346 69 352.101562 65.296875 361.203125 67.398438 C 363 67.796875 369.796875 70.796875 372.796875 80.5 C 374.335938 86.828125 373.445312 93.5 370.296875 99.203125 L 366.703125 105.101562 L 362.296875 103.5 C 362.296875 103.5 370.398438 96.203125 369.296875 85.898438 C 368.203125 75.601562 363.101562 73.203125 363.101562 73.203125 C 363.101562 73.203125 356.703125 68.203125 348.203125 73 C 339.703125 77.796875 331.398438 79.796875 331.398438 79.796875 C 331.398438 79.796875 323.601562 81.796875 322.898438 81.601562 C 322.203125 81.601562 326.898438 76.203125 326.703125 76.296875 Z M 326.703125 76.296875 " transform="matrix(0.5,0,0,0.5,0,0)"/>
<path style="fill-rule:nonzero;fill:rgb(100%,80.000001%,0%);fill-opacity:1;stroke-width:1.2;stroke-linecap:butt;stroke-linejoin:round;stroke:rgb(7.058824%,6.666667%,8.627451%);stroke-opacity:1;stroke-miterlimit:4;" d="M 323 69.296875 L 326 69.296875 L 326 97 L 323 97 Z M 313 69.101562 L 316.5 69.101562 L 316.5 96.796875 L 313 96.796875 Z M 313 69.101562 " transform="matrix(0.5,0,0,0.5,0,0)"/>
<path style="fill-rule:nonzero;fill:rgb(100%,80.000001%,0%);fill-opacity:1;stroke-width:1.2;stroke-linecap:butt;stroke-linejoin:round;stroke:rgb(7.058824%,6.666667%,8.627451%);stroke-opacity:1;stroke-miterlimit:4;" d="M 329.203125 62.703125 C 329.203125 67.703125 324.898438 71.703125 319.5 71.703125 C 314.101562 71.703125 309.796875 67.703125 309.796875 62.703125 C 309.796875 57.703125 314.101562 53.796875 319.398438 53.796875 C 324.796875 53.796875 329.203125 57.796875 329.203125 62.703125 " transform="matrix(0.5,0,0,0.5,0,0)"/>
<path style="fill-rule:evenodd;fill:rgb(100%,80.000001%,0%);fill-opacity:1;stroke-width:1;stroke-linecap:butt;stroke-linejoin:miter;stroke:rgb(0%,0%,0%);stroke-opacity:1;stroke-miterlimit:4;" d="M 310.898438 96.796875 L 327.601562 96.601562 C 327.601562 96.601562 325.601562 97.796875 323.898438 100.796875 C 322.296875 103.796875 322.5 105.601562 322.5 105.601562 C 322.5 105.601562 325 105.601562 326.796875 104.296875 C 328.1875 103.203125 329.460938 101.960938 330.601562 100.601562 L 330.601562 115.898438 C 330.601562 115.898438 329.296875 113.898438 327.296875 112.898438 C 325.296875 111.601562 322.5 111.601562 322.5 111.601562 L 316.796875 111.601562 C 316.796875 111.601562 314.203125 111.796875 313.101562 112.601562 C 311.78125 113.5625 310.539062 114.632812 309.398438 115.796875 L 309.101562 101.203125 C 309.101562 101.203125 309.898438 103.796875 312.601562 104.796875 C 315.296875 105.796875 316.796875 105.796875 316.796875 105.796875 C 316.796875 105.796875 316.796875 102.398438 315.398438 100.796875 C 314.023438 99.335938 312.515625 97.992188 310.898438 96.796875 Z M 310.898438 96.796875 " transform="matrix(0.5,0,0,0.5,0,0)"/>
<path style="fill-rule:evenodd;fill:rgb(96.470588%,79.215688%,12.156863%);fill-opacity:1;stroke-width:0.9;stroke-linecap:butt;stroke-linejoin:miter;stroke:rgb(0%,0%,0%);stroke-opacity:1;stroke-miterlimit:4;" d="M 320.203125 108.796875 C 320.203125 108.796875 322.601562 114.5 325.5 117 C 327.101562 118.5 332.101562 119.601562 334.296875 119 C 339.296875 117.703125 342.898438 113.703125 342.898438 113.703125 C 342.898438 113.703125 342.703125 118.101562 345.898438 120.601562 C 348.898438 122.929688 351.632812 123.703125 354.101562 122.898438 C 356.796875 122.203125 364.101562 116.703125 364.101562 116.703125 L 365.703125 118 C 365.703125 118 361.398438 122.203125 357 124.296875 C 354.703125 125.5 347.703125 124.796875 345.5 123 C 343.203125 121.203125 341.898438 116.898438 341.898438 116.898438 C 341.898438 116.898438 340.5 119.703125 337.5 120.703125 C 334.5 121.703125 330.5 121.703125 326.601562 120.5 C 324.101562 119.703125 320.703125 116.203125 320.101562 115 C 319.5 113.898438 319.703125 113.203125 319.703125 113.203125 C 319.703125 113.203125 317.703125 118.601562 313.898438 120.101562 C 310.203125 121.421875 306.179688 121.554688 302.398438 120.5 C 298.796875 119.5 298.5 117.398438 298.5 117.398438 C 298.5 117.398438 298.296875 123.101562 290.5 124.703125 C 282.5 126.296875 276.296875 120.601562 276.296875 120.601562 L 277.398438 118.898438 C 277.398438 118.898438 281.796875 123.898438 288.601562 123.5 C 295.398438 123.101562 297.601562 114.296875 297.601562 114.296875 C 297.601562 114.296875 300.601562 118.796875 308.601562 118.898438 C 316.601562 119 318.796875 108.601562 318.796875 108.601562 Z M 320.203125 108.796875 " transform="matrix(0.5,0,0,0.5,0,0)"/>
<path style="fill-rule:evenodd;fill:rgb(100%,80.000001%,0%);fill-opacity:1;stroke-width:1.1;stroke-linecap:butt;stroke-linejoin:miter;stroke:rgb(0%,0%,0%);stroke-opacity:1;stroke-miterlimit:4;" d="M 300.601562 112.101562 C 300.601562 112.101562 300.601562 109.398438 301.296875 108.5 C 302.101562 107.398438 303.296875 107.296875 303.898438 107.5 C 304.5 107.703125 305.296875 108.296875 305.203125 110.296875 C 305.101562 112.296875 304.5 113.101562 305.203125 113.898438 C 305.703125 114.601562 305.796875 115.101562 306.898438 114.898438 C 307.96875 114.835938 308.398438 114.335938 308.203125 113.398438 C 307.898438 112 307.703125 113.398438 307.5 112.601562 C 307.296875 111.796875 308.5 108 308.296875 105.703125 C 308.101562 103.5 307.296875 101.703125 305.5 101.203125 C 303.96875 100.664062 302.46875 100.898438 301 101.898438 C 299.601562 102.898438 297.703125 106.398438 297.703125 106.398438 L 297.703125 113.898438 L 300.703125 113.703125 L 300.703125 112.101562 Z M 300.601562 112.101562 " transform="matrix(0.5,0,0,0.5,0,0)"/>
<path style="fill-rule:evenodd;fill:rgb(100%,80.000001%,0%);fill-opacity:1;stroke-width:1.1;stroke-linecap:butt;stroke-linejoin:miter;stroke:rgb(0%,0%,0%);stroke-opacity:1;stroke-miterlimit:4;" d="M 295 114.101562 C 295 114.101562 293.796875 111.601562 293 111.101562 C 292.125 110.640625 291.078125 110.640625 290.203125 111.101562 C 289.601562 111.601562 289.203125 112.5 290.101562 114.203125 C 291 115.898438 291.796875 116.601562 291.5 117.5 C 291.296875 118.398438 291.5 118.898438 290.398438 119.203125 C 289.335938 119.53125 288.703125 119.203125 288.5 118.203125 C 288.296875 117.203125 289.101562 118.203125 288.898438 117.203125 C 288.796875 116.398438 286.101562 113.5 285.398438 111.296875 C 284.601562 109.101562 284.867188 107.367188 286.203125 106.101562 C 287.398438 105.03125 288.835938 104.632812 290.5 104.898438 C 292.296875 105.296875 295.398438 107.796875 295.398438 107.796875 L 298.398438 114.601562 L 295.601562 115.601562 Z M 295 114.101562 " transform="matrix(0.5,0,0,0.5,0,0)"/>
<path style="fill-rule:evenodd;fill:rgb(100%,80.000001%,0%);fill-opacity:1;stroke-width:1.1;stroke-linecap:butt;stroke-linejoin:miter;stroke:rgb(0%,0%,0%);stroke-opacity:1;stroke-miterlimit:4;" d="M 294.398438 92.101562 C 294.398438 92.101562 291.398438 97.101562 292.101562 100.898438 C 292.796875 104.703125 296.703125 112.898438 296.703125 112.898438 L 296.703125 113.898438 L 298.898438 113.703125 L 298.398438 112.601562 C 298.398438 112.601562 299.398438 102.796875 298.796875 99.703125 C 297.679688 96.984375 296.195312 94.429688 294.398438 92.101562 Z M 299.101562 114.796875 C 299.101562 114.796875 300.601562 116.5 302.296875 117.398438 C 304.296875 118.296875 305.101562 118.398438 305.796875 117.703125 C 306.398438 117.296875 306.203125 115.5 305.5 115 C 304.796875 114.5 304.101562 114.796875 304 115.296875 C 303.867188 116.03125 303.53125 116.164062 303 115.703125 C 302 115.296875 300 114 300 114 Z M 296.796875 115.203125 C 296.796875 115.203125 296.203125 117.398438 295 118.898438 C 293.601562 120.5 292.898438 120.898438 292 120.601562 C 291.296875 120.5 290.703125 118.796875 291.101562 118 C 291.5 117.296875 292.296875 117.203125 292.601562 117.601562 C 293 118.265625 293.367188 118.265625 293.703125 117.601562 L 295.703125 114.898438 Z M 296.796875 115.203125 " transform="matrix(0.5,0,0,0.5,0,0)"/>
<path style="fill-rule:nonzero;fill:rgb(100%,80.000001%,0%);fill-opacity:1;stroke-width:1.1;stroke-linecap:butt;stroke-linejoin:round;stroke:rgb(0%,0%,0%);stroke-opacity:1;stroke-miterlimit:4;" d="M 302.398438 113.398438 C 302.601562 114 300.601562 114.898438 298.101562 115.296875 C 295.601562 115.703125 293.5 115.601562 293.296875 114.898438 C 293.296875 114.296875 295.203125 113.398438 297.703125 112.898438 C 300.203125 112.398438 302.296875 112.703125 302.398438 113.398438 " transform="matrix(0.5,0,0,0.5,0,0)"/>
<path style="fill-rule:evenodd;fill:rgb(100%,80.000001%,0%);fill-opacity:1;stroke-width:1.1;stroke-linecap:butt;stroke-linejoin:miter;stroke:rgb(0%,0%,0%);stroke-opacity:1;stroke-miterlimit:4;" d="M 345.601562 113.203125 C 345.601562 113.203125 346.601562 110.703125 347.601562 110.101562 C 348.703125 109.296875 349.796875 109.601562 350.296875 110.101562 C 350.898438 110.398438 351.296875 111.296875 350.601562 113.101562 C 349.796875 114.796875 349 115.5 349.203125 116.398438 C 349.5 117.398438 349.398438 117.796875 350.5 118 C 351.632812 118.335938 352.234375 118 352.296875 117 C 352.398438 116 351.796875 117 351.898438 116 C 351.898438 115.203125 354.5 112.101562 355.101562 110 C 355.765625 107.664062 355.429688 105.898438 354.101562 104.703125 C 352.765625 103.632812 351.265625 103.335938 349.601562 103.796875 C 347.898438 104.296875 344.898438 106.898438 344.898438 106.898438 L 342.296875 113.898438 L 345.203125 114.796875 Z M 345.601562 113.203125 " transform="matrix(0.5,0,0,0.5,0,0)"/>
<path style="fill-rule:evenodd;fill:rgb(100%,80.000001%,0%);fill-opacity:1;stroke-width:1.1;stroke-linecap:butt;stroke-linejoin:miter;stroke:rgb(0%,0%,0%);stroke-opacity:1;stroke-miterlimit:4;" d="M 339.703125 113.101562 C 339.703125 113.101562 339.5 110.398438 338.796875 109.601562 C 337.898438 108.5 336.796875 108.5 336.203125 108.601562 C 335.5 108.898438 334.796875 109.601562 335 111.5 C 335.203125 113.5 335.796875 114.296875 335.296875 115.101562 C 334.796875 115.898438 334.703125 116.296875 333.601562 116.203125 C 332.46875 116.203125 331.96875 115.734375 332.101562 114.796875 C 332.296875 113.796875 332.703125 114.796875 332.898438 113.898438 C 333 113.101562 331.601562 109.398438 331.703125 107.101562 C 331.703125 104.898438 332.5 103.101562 334.203125 102.5 C 335.734375 101.835938 337.234375 102 338.703125 103 C 340.203125 104 342.296875 107.296875 342.296875 107.296875 L 342.703125 114.703125 L 339.703125 114.703125 Z M 339.703125 113.101562 " transform="matrix(0.5,0,0,0.5,0,0)"/>
<path style="fill-rule:evenodd;fill:rgb(100%,80.000001%,0%);fill-opacity:1;stroke-width:1.1;stroke-linecap:butt;stroke-linejoin:miter;stroke:rgb(0%,0%,0%);stroke-opacity:1;stroke-miterlimit:4;" d="M 346.796875 92.296875 C 346.796875 92.296875 342.296875 95.898438 341.601562 99.703125 C 340.898438 103.5 341.703125 112.5 341.703125 112.5 L 341.398438 113.5 L 343.398438 114.101562 L 343.398438 112.898438 C 343.398438 112.898438 347.796875 104.101562 348.296875 100.898438 C 348.195312 97.976562 347.6875 95.085938 346.796875 92.296875 Z M 343.296875 115.203125 C 343.296875 115.203125 344.101562 117.296875 345.398438 118.703125 C 346.898438 120.296875 347.601562 120.601562 348.5 120.296875 C 349.203125 120.101562 349.601562 118.296875 349.203125 117.703125 C 348.796875 117.101562 348 117 347.703125 117.398438 C 347.296875 118 346.929688 118 346.601562 117.398438 L 344.398438 114.796875 Z M 341 114.703125 C 341 114.703125 339.703125 116.601562 338 117.5 C 336.101562 118.601562 335.296875 118.703125 334.5 118.101562 C 333.898438 117.796875 334 116 334.601562 115.398438 C 335.398438 115 335.929688 115.070312 336.203125 115.601562 C 336.398438 116.265625 336.734375 116.398438 337.203125 116 L 340 114 Z M 341 114.703125 " transform="matrix(0.5,0,0,0.5,0,0)"/>
<path style="fill-rule:nonzero;fill:rgb(100%,80.000001%,0%);fill-opacity:1;stroke-width:1.1;stroke-linecap:butt;stroke-linejoin:round;stroke:rgb(0%,0%,0%);stroke-opacity:1;stroke-miterlimit:4;" d="M 346.898438 115 C 346.796875 115.703125 344.601562 115.796875 342.101562 115.296875 C 339.601562 114.796875 337.703125 113.898438 337.796875 113.296875 C 337.898438 112.703125 340.101562 112.5 342.601562 113 C 345.101562 113.5 347 114.398438 346.898438 115 " transform="matrix(0.5,0,0,0.5,0,0)"/>
<path style="fill-rule:evenodd;fill:rgb(80.000001%,65.490198%,8.235294%);fill-opacity:1;stroke-width:0.5;stroke-linecap:butt;stroke-linejoin:miter;stroke:rgb(0%,0%,0%);stroke-opacity:1;stroke-miterlimit:4;" d="M 279 129.898438 C 279 129.898438 279.601562 131.898438 280.703125 130.898438 C 281.898438 129.796875 298 123.398438 320.703125 123.398438 C 343.398438 123.398438 358.203125 129.703125 359.101562 130.101562 C 360 130.398438 360.398438 130.898438 361.101562 130.101562 C 361.898438 129.101562 360.398438 127.796875 360.398438 127.796875 C 360.398438 127.796875 344.601562 121.101562 320 121.203125 C 295.296875 121.296875 279.398438 128.296875 279.398438 128.296875 C 279.398438 128.296875 278.398438 129.101562 279.101562 129.898438 Z M 279 129.898438 " transform="matrix(0.5,0,0,0.5,0,0)"/>
<path style=" stroke:none;fill-rule:evenodd;fill:rgb(0%,0%,0%);fill-opacity:1;" d="M 153.949219 69.648438 C 153.949219 69.648438 154.300781 68.648438 154.949219 68.449219 C 155.449219 68.300781 156.199219 68.800781 156.199219 68.800781 C 156.199219 68.800781 155.25 68.699219 154.949219 68.898438 C 154.699219 69.050781 154.601562 69.5 154.601562 69.5 C 154.601562 69.5 154.800781 69.101562 155.550781 69.148438 L 156.351562 69.148438 C 156.351562 69.148438 155.101562 69.300781 154.851562 69.648438 C 154.601562 70 156 70.148438 156 70.148438 C 156 70.148438 153.75 70.148438 153.5 70.050781 C 153.25 69.949219 153 69.449219 152.5 69.550781 C 152 69.75 151.5 70.199219 151.5 70.199219 C 151.5 70.199219 152.050781 69.199219 152.398438 69.199219 C 152.75 69.199219 153 69.199219 153.300781 69.351562 Z M 145.550781 71.449219 C 145.550781 71.449219 145.699219 70.449219 146.300781 70.101562 C 146.800781 69.851562 147.648438 70.199219 147.648438 70.199219 C 147.648438 70.199219 146.648438 70.300781 146.398438 70.5 C 146.148438 70.699219 146.199219 71.199219 146.199219 71.199219 C 146.199219 71.199219 146.351562 70.800781 147.050781 70.699219 L 147.851562 70.550781 C 147.851562 70.550781 146.648438 70.898438 146.449219 71.300781 C 146.199219 71.699219 147.699219 71.601562 147.699219 71.601562 C 147.699219 71.601562 145.5 72 145.199219 71.949219 C 144.851562 71.851562 144.601562 71.449219 144.148438 71.699219 C 143.699219 71.949219 143.25 72.449219 143.25 72.449219 C 143.25 72.449219 143.648438 71.398438 144 71.300781 C 144.351562 71.199219 144.5 71.199219 144.898438 71.300781 Z M 161 69.300781 C 161 69.300781 161.398438 68.300781 162 68.148438 C 162.601562 68 163.351562 68.550781 163.351562 68.550781 C 163.351562 68.550781 162.351562 68.398438 162.050781 68.550781 C 161.800781 68.699219 161.699219 69.148438 161.699219 69.148438 C 161.699219 69.148438 161.898438 68.800781 162.648438 68.898438 L 163.449219 68.949219 C 163.449219 68.949219 162.199219 68.949219 161.898438 69.351562 C 161.601562 69.648438 163.050781 69.898438 163.050781 69.898438 C 163.050781 69.898438 160.800781 69.800781 160.550781 69.648438 C 160.300781 69.5 160.050781 69.050781 159.550781 69.148438 C 159.050781 69.25 158.550781 69.648438 158.550781 69.648438 C 158.550781 69.648438 159.148438 68.75 159.5 68.75 C 159.851562 68.75 160.050781 68.75 160.398438 68.949219 Z M 168.050781 70.101562 C 168.050781 70.101562 168.550781 69.148438 169.25 69.101562 C 169.75 69 170.449219 69.601562 170.449219 69.601562 C 170.449219 69.601562 169.550781 69.398438 169.199219 69.5 C 168.851562 69.601562 168.75 70 168.75 70 C 168.75 70 169 69.699219 169.75 69.851562 L 170.550781 70.050781 C 170.550781 70.050781 169.300781 69.949219 168.949219 70.25 C 168.601562 70.550781 170 70.949219 170 70.949219 C 170 70.949219 167.800781 70.550781 167.5 70.398438 C 167.300781 70.199219 167.148438 69.699219 166.648438 69.75 C 166.148438 69.800781 165.550781 70.148438 165.550781 70.148438 C 165.550781 70.148438 166.300781 69.351562 166.648438 69.398438 C 166.984375 69.398438 167.265625 69.484375 167.5 69.648438 Z M 175.050781 71.351562 C 175.050781 71.351562 175.550781 70.648438 176.101562 70.601562 C 176.550781 70.601562 177.050781 71.148438 177.050781 71.148438 C 177.050781 71.148438 176.300781 70.898438 176.050781 70.949219 C 175.800781 71 175.648438 71.351562 175.648438 71.351562 C 175.648438 71.351562 175.898438 71.101562 176.449219 71.300781 L 177.101562 71.5 C 177.101562 71.5 176.101562 71.300781 175.800781 71.5 C 175.5 71.699219 176.601562 72.199219 176.601562 72.199219 C 176.601562 72.199219 174.851562 71.699219 174.601562 71.550781 C 174.449219 71.398438 174.398438 71 174 71 C 173.550781 71 173.050781 71.25 173.050781 71.25 C 173.050781 71.25 173.699219 70.601562 174 70.699219 C 174.234375 70.699219 174.449219 70.785156 174.648438 70.949219 Z M 175.050781 71.351562 "/>
<path style="fill-rule:nonzero;fill:rgb(5.882353%,39.607844%,27.058825%);fill-opacity:1;stroke-width:0.7;stroke-linecap:butt;stroke-linejoin:round;stroke:rgb(0%,0%,0%);stroke-opacity:1;stroke-miterlimit:4;" d="M 305 129.703125 C 305.398438 131.398438 303.398438 133.203125 300.601562 133.703125 C 297.796875 134.203125 295.296875 133.398438 295 131.703125 C 294.703125 130 296.601562 128.296875 299.398438 127.703125 C 302.203125 127.101562 304.703125 128 305 129.703125 Z M 305 129.703125 " transform="matrix(0.5,0,0,0.5,0,0)"/>
<path style=" stroke:none;fill-rule:nonzero;fill:rgb(80.784315%,81.176472%,75.686276%);fill-opacity:1;" d="M 149.398438 64.699219 C 149.398438 64.933594 149.234375 65.101562 148.898438 65.199219 C 148.566406 65.234375 148.351562 65.148438 148.25 64.949219 C 148.25 64.714844 148.417969 64.550781 148.75 64.449219 C 149.082031 64.449219 149.300781 64.535156 149.398438 64.699219 "/>
<path style="fill-rule:nonzero;fill:rgb(5.882353%,39.607844%,27.058825%);fill-opacity:1;stroke-width:0.7;stroke-linecap:butt;stroke-linejoin:round;stroke:rgb(0%,0%,0%);stroke-opacity:1;stroke-miterlimit:4;" d="M 344.101562 131.796875 C 343.601562 133.398438 341.101562 134 338.296875 133.203125 C 335.5 132.398438 333.898438 130.296875 334.296875 128.703125 C 334.898438 127.101562 337.5 126.398438 340.203125 127.296875 C 342.898438 128.203125 344.703125 130.101562 344.203125 131.703125 Z M 344.101562 131.796875 " transform="matrix(0.5,0,0,0.5,0,0)"/>
<path style=" stroke:none;fill-rule:nonzero;fill:rgb(80.784315%,81.176472%,75.686276%);fill-opacity:1;" d="M 169.398438 64.25 C 169.300781 64.484375 169.082031 64.550781 168.75 64.449219 C 168.417969 64.316406 168.265625 64.148438 168.300781 63.949219 C 168.398438 63.714844 168.617188 63.632812 168.949219 63.699219 C 169.285156 63.832031 169.433594 64 169.398438 64.199219 Z M 169.398438 64.25 "/>
<path style="fill-rule:nonzero;fill:rgb(12.156863%,17.647059%,52.549022%);fill-opacity:1;stroke-width:1;stroke-linecap:butt;stroke-linejoin:round;stroke:rgb(0%,0%,0%);stroke-opacity:1;stroke-miterlimit:4;" d="M 314.601562 126 L 324.703125 126 L 324.703125 131 L 314.601562 131 Z M 314.601562 126 " transform="matrix(0.5,0,0,0.5,0,0)"/>
<path style=" stroke:none;fill-rule:nonzero;fill:rgb(43.921569%,48.627451%,54.509807%);fill-opacity:1;" d="M 159.449219 63.5 C 159.449219 63.667969 159.285156 63.75 158.949219 63.75 C 158.449219 63.75 158.449219 63.648438 158.449219 63.5 C 158.484375 63.367188 158.648438 63.300781 158.949219 63.300781 C 159.351562 63.300781 159.515625 63.367188 159.449219 63.5 "/>
<path style="fill-rule:evenodd;fill:rgb(62.352943%,7.058824%,3.529412%);fill-opacity:1;stroke-width:0.5;stroke-linecap:butt;stroke-linejoin:miter;stroke:rgb(0%,0%,0%);stroke-opacity:1;stroke-miterlimit:4;" d="M 286 131 L 287.601562 136 L 284.601562 137.703125 C 284.601562 137.703125 283.101562 138.703125 281.601562 137.898438 C 280.203125 137.203125 279.398438 134.898438 280.203125 133.898438 C 281.703125 132.101562 285.898438 130.898438 285.898438 131 Z M 286 131 " transform="matrix(0.5,0,0,0.5,0,0)"/>
<path style=" stroke:none;fill-rule:nonzero;fill:rgb(56.078434%,19.607843%,18.431373%);fill-opacity:1;" d="M 141.699219 67.300781 C 141.667969 67.734375 141.417969 67.984375 140.949219 68.050781 C 140.25 68.148438 140.25 67.699219 140.25 67.300781 C 140.285156 66.832031 140.515625 66.582031 140.949219 66.550781 C 141.601562 66.5 141.699219 66.851562 141.699219 67.300781 "/>
<path style=" stroke:none;fill-rule:nonzero;fill:rgb(88.627452%,64.313728%,58.039218%);fill-opacity:1;" d="M 141 67 L 140.898438 67.351562 L 140.648438 67.351562 L 140.449219 67.101562 L 140.550781 66.75 L 140.800781 66.699219 C 140.933594 66.699219 141 66.800781 141 67 "/>
<path style="fill-rule:evenodd;fill:rgb(62.352943%,7.058824%,3.529412%);fill-opacity:1;stroke-width:0.5;stroke-linecap:butt;stroke-linejoin:miter;stroke:rgb(0%,0%,0%);stroke-opacity:1;stroke-miterlimit:4;" d="M 353.898438 131.703125 L 352.203125 136.101562 L 356.203125 138.101562 C 356.203125 138.101562 357.898438 138.898438 359 138 C 360.101562 137.101562 360.203125 135.203125 359.398438 134.296875 C 358.601562 133.398438 353.796875 131.703125 353.898438 131.703125 Z M 353.898438 131.703125 " transform="matrix(0.5,0,0,0.5,0,0)"/>
<path style=" stroke:none;fill-rule:nonzero;fill:rgb(66.666669%,40.392157%,36.470589%);fill-opacity:1;" d="M 179.300781 67.601562 C 179.265625 67.933594 179.050781 68.101562 178.648438 68.101562 C 178.050781 68.101562 178.050781 67.898438 178.050781 67.601562 C 178.050781 67.300781 178.351562 67.101562 178.648438 67.101562 C 179.050781 67.132812 179.265625 67.300781 179.300781 67.601562 "/>
<path style=" stroke:none;fill-rule:nonzero;fill:rgb(88.627452%,64.313728%,58.039218%);fill-opacity:1;" d="M 178.699219 67.5 C 178.699219 67.667969 178.648438 67.785156 178.550781 67.851562 L 178.25 67.851562 L 178.101562 67.550781 C 178.101562 67.382812 178.148438 67.285156 178.25 67.25 L 178.550781 67.25 C 178.648438 67.25 178.699219 67.351562 178.699219 67.550781 Z M 178.699219 67.5 "/>
<path style=" stroke:none;fill-rule:nonzero;fill:rgb(96.078432%,84.705883%,73.725492%);fill-opacity:1;" d="M 164.300781 63.199219 C 164.246094 63.382812 164.089844 63.519531 163.898438 63.550781 C 163.730469 63.503906 163.597656 63.371094 163.550781 63.199219 C 163.597656 63.03125 163.730469 62.898438 163.898438 62.851562 C 164.132812 62.851562 164.265625 62.964844 164.300781 63.199219 M 166.449219 63.300781 C 166.402344 63.46875 166.269531 63.601562 166.101562 63.648438 C 165.910156 63.621094 165.753906 63.484375 165.699219 63.300781 C 165.769531 63.136719 165.921875 63.019531 166.101562 63 C 166.300781 63 166.417969 63.101562 166.449219 63.300781 M 165.351562 64.148438 C 165.351562 64.417969 165.183594 64.566406 164.851562 64.601562 C 164.351562 64.648438 164.449219 64.398438 164.449219 64.148438 C 164.449219 63.898438 164.648438 63.699219 164.898438 63.699219 C 165.148438 63.699219 165.351562 63.898438 165.351562 64.199219 Z M 166.351562 65.550781 C 166.3125 65.707031 166.199219 65.839844 166.050781 65.898438 C 165.859375 65.871094 165.707031 65.734375 165.648438 65.550781 C 165.695312 65.378906 165.828125 65.246094 166 65.199219 C 166.265625 65.199219 166.398438 65.316406 166.398438 65.550781 Z M 164.300781 65.300781 C 164.253906 65.46875 164.121094 65.601562 163.949219 65.648438 C 163.78125 65.601562 163.648438 65.46875 163.601562 65.300781 C 163.648438 65.128906 163.78125 64.996094 163.949219 64.949219 C 164.148438 64.949219 164.265625 65.066406 164.300781 65.300781 M 153.851562 63.550781 C 153.839844 63.714844 153.746094 63.867188 153.601562 63.949219 C 153.414062 63.957031 153.242188 63.859375 153.148438 63.699219 C 153.171875 63.523438 153.285156 63.371094 153.449219 63.300781 C 153.617188 63.3125 153.765625 63.40625 153.851562 63.550781 M 156 63.199219 C 155.980469 63.378906 155.863281 63.53125 155.699219 63.601562 C 155.535156 63.589844 155.382812 63.496094 155.300781 63.351562 C 155.3125 63.183594 155.40625 63.03125 155.550781 62.949219 C 155.734375 62.945312 155.90625 63.039062 156 63.199219 M 155.101562 64.25 C 155.101562 64.550781 155 64.714844 154.800781 64.75 C 154.570312 64.792969 154.339844 64.667969 154.25 64.449219 C 154.199219 64.25 154.351562 63.949219 154.601562 63.949219 C 154.8125 63.933594 155.015625 64.054688 155.101562 64.25 M 156.449219 65.398438 C 156.4375 65.566406 156.34375 65.71875 156.199219 65.800781 C 156.015625 65.804688 155.84375 65.710938 155.75 65.550781 C 155.761719 65.382812 155.855469 65.234375 156 65.148438 C 156.183594 65.144531 156.359375 65.238281 156.449219 65.398438 M 154.351562 65.601562 C 154.339844 65.765625 154.246094 65.917969 154.101562 66 C 153.914062 66.007812 153.742188 65.910156 153.648438 65.75 C 153.671875 65.574219 153.785156 65.421875 153.949219 65.351562 C 154.117188 65.359375 154.265625 65.453125 154.351562 65.601562 M 144.75 65.5 C 144.785156 65.691406 144.707031 65.886719 144.550781 66 C 144.375 66.015625 144.203125 65.941406 144.101562 65.800781 C 144.0625 65.609375 144.140625 65.414062 144.300781 65.300781 C 144.492188 65.261719 144.6875 65.339844 144.800781 65.5 Z M 146.800781 64.851562 C 146.835938 65.042969 146.757812 65.238281 146.601562 65.351562 C 146.414062 65.355469 146.242188 65.261719 146.148438 65.101562 C 146.132812 64.925781 146.207031 64.753906 146.351562 64.648438 C 146.542969 64.613281 146.738281 64.691406 146.851562 64.851562 Z M 146.101562 66.050781 C 146.125 66.253906 146.027344 66.449219 145.851562 66.550781 C 145.644531 66.609375 145.421875 66.527344 145.300781 66.351562 C 145.25 66.132812 145.351562 65.90625 145.550781 65.800781 C 145.769531 65.75 145.992188 65.851562 146.101562 66.050781 M 147.601562 66.949219 C 147.636719 67.140625 147.558594 67.335938 147.398438 67.449219 C 147.199219 67.449219 147.035156 67.367188 146.898438 67.199219 C 146.699219 66.949219 146.949219 66.851562 147.148438 66.75 C 147.324219 66.734375 147.496094 66.808594 147.601562 66.949219 M 145.550781 67.449219 C 145.585938 67.640625 145.507812 67.835938 145.351562 67.949219 C 145.160156 67.988281 144.964844 67.910156 144.851562 67.75 C 144.800781 67.652344 144.800781 67.535156 144.851562 67.4375 C 144.898438 67.339844 144.992188 67.269531 145.101562 67.25 C 145.292969 67.214844 145.488281 67.292969 145.601562 67.449219 Z M 173.648438 64.550781 C 173.582031 64.75 173.417969 64.832031 173.148438 64.800781 C 172.972656 64.699219 172.875 64.503906 172.898438 64.300781 C 172.933594 64.132812 173.101562 64.066406 173.398438 64.101562 C 173.601562 64.167969 173.683594 64.316406 173.648438 64.550781 M 175.851562 65.199219 C 175.816406 65.433594 175.667969 65.535156 175.398438 65.5 C 175.203125 65.414062 175.082031 65.214844 175.101562 65 C 175.167969 64.800781 175.332031 64.714844 175.601562 64.75 C 175.800781 64.816406 175.882812 64.984375 175.851562 65.25 Z M 174.5 65.800781 C 174.429688 66.035156 174.195312 66.183594 173.949219 66.148438 C 173.691406 66.097656 173.519531 65.859375 173.550781 65.601562 C 173.625 65.339844 173.886719 65.1875 174.148438 65.25 C 174.417969 65.351562 174.535156 65.535156 174.5 65.800781 M 175.25 67.550781 C 175.183594 67.75 175.015625 67.832031 174.75 67.800781 C 174.589844 67.707031 174.492188 67.535156 174.5 67.351562 C 174.535156 67.148438 174.683594 67.066406 174.949219 67.101562 C 175.183594 67.167969 175.285156 67.332031 175.25 67.601562 Z M 173.101562 66.75 C 173.035156 66.949219 172.882812 67.035156 172.648438 67 C 172.488281 66.90625 172.394531 66.734375 172.398438 66.550781 C 172.464844 66.351562 172.617188 66.265625 172.851562 66.300781 C 173.050781 66.367188 173.132812 66.515625 173.101562 66.75 "/>
<path style="fill:none;stroke-width:1.2;stroke-linecap:butt;stroke-linejoin:miter;stroke:rgb(0%,0%,0%);stroke-opacity:1;stroke-miterlimit:4;" d="M 356 89 C 356 89 354 90.898438 351.5 90.898438 C 349.828125 90.9375 348.195312 90.367188 346.898438 89.296875 C 346.101562 88.796875 347.101562 87.296875 347.101562 87.296875 " transform="matrix(0.5,0,0,0.5,0,0)"/>
<path style="fill:none;stroke-width:1.1;stroke-linecap:butt;stroke-linejoin:miter;stroke:rgb(0%,0%,0%);stroke-opacity:1;stroke-miterlimit:4;" d="M 312.898438 92.796875 C 312.898438 92.796875 309.203125 92.101562 307.601562 91.601562 C 306 91.101562 306.5 90.101562 304.601562 90.203125 C 302.898438 90.296875 301.101562 91.601562 301.5 93.398438 C 301.898438 95.203125 303.203125 95.398438 304.5 95.101562 C 305.703125 94.703125 305.296875 92.5 303.703125 92.703125 C 302 92.703125 303.398438 94.203125 303.398438 94.203125 " transform="matrix(0.5,0,0,0.5,0,0)"/>
<path style="fill:none;stroke-width:1;stroke-linecap:butt;stroke-linejoin:miter;stroke:rgb(0%,0%,0%);stroke-opacity:1;stroke-miterlimit:4;" d="M 287.296875 90 C 287.296875 90 288.296875 91.5 291 91.203125 C 293.703125 91 294.703125 89.601562 294.796875 88.898438 C 295 88.296875 294.796875 87.101562 294.296875 86.601562 C 293.796875 86.101562 292 85.898438 292 85.898438 " transform="matrix(0.5,0,0,0.5,0,0)"/>
<path style="fill-rule:nonzero;fill:rgb(80.000001%,0%,0%);fill-opacity:1;stroke-width:1.6;stroke-linecap:butt;stroke-linejoin:miter;stroke:rgb(8.627451%,6.666667%,6.666667%);stroke-opacity:1;stroke-miterlimit:4;" d="M 339.203125 270.398438 C 341.703125 267.898438 345.703125 265.203125 347.898438 259.398438 C 349.898438 253.796875 350.898438 243.703125 352.898438 238.601562 C 355.398438 229.796875 360.398438 221.203125 354.398438 221.796875 C 348.703125 222.398438 346.898438 227.796875 344.796875 231.796875 C 343.796875 233.296875 341.5 236.5 341.101562 238.296875 C 341 235.296875 339.398438 226.398438 339.101562 217.5 C 338.796875 209.101562 339.101562 200.5 338.796875 197.203125 C 338.601562 192.898438 338.601562 188.898438 337.601562 185.796875 C 337.101562 184.296875 335 182.796875 333.796875 182.898438 C 331.601562 182.898438 330.203125 184.898438 329.796875 186.796875 L 329.601562 189.601562 C 329.398438 192 329.601562 195.101562 329.398438 197.898438 C 329.296875 200.898438 329.601562 204.101562 329.398438 206.898438 C 329.203125 212.296875 328.796875 217.398438 328.601562 218.398438 C 328.601562 216.398438 327.601562 206.703125 327.296875 197.5 L 327.101562 187.5 C 327.101562 184.898438 327.101562 182.101562 326.898438 180.101562 C 326.5 176.765625 325.164062 175.101562 322.898438 175.101562 C 321.101562 175.101562 318.703125 176.398438 317.898438 180.101562 C 317.632812 182.234375 317.53125 184.703125 317.601562 187.5 L 317.796875 195.5 C 317.601562 206 317.398438 217 317 220.296875 C 317 219.296875 315.898438 213.796875 315.601562 206.398438 L 315.203125 196.796875 L 314.898438 187.203125 C 314.898438 185.601562 314.203125 181 311.203125 181.203125 C 309.5 181 307.796875 182.203125 307.203125 186.5 C 306.796875 189 306.796875 193.101562 306.703125 196.398438 C 306.601562 202.398438 306.296875 207.796875 306.703125 213.296875 L 306.796875 221 C 306.796875 221.398438 305.898438 218.101562 305.5 213.601562 L 304.703125 205 C 304.703125 202.703125 304.601562 199.296875 304.398438 196.5 C 304.203125 194.398438 304.296875 192 301.898438 192.203125 C 299.5 192.296875 298.101562 193.203125 297.601562 197.203125 C 297.203125 199.898438 297.203125 205.703125 297.101562 207.703125 C 297.296875 213 295.898438 225.398438 295.296875 228.898438 C 295.101562 231.398438 294.101562 234.601562 293.703125 238.101562 C 293.015625 244.976562 293.351562 251.921875 294.703125 258.703125 C 296.703125 265.703125 301.703125 268.898438 301.5 273.703125 C 301.296875 278.5 301.5 287 301.5 290.703125 C 301.5 294.5 304.796875 294.703125 311.5 293.296875 C 322.703125 290.898438 328.796875 295.703125 337.898438 292.101562 C 336.796875 281.703125 339 275.398438 338.898438 271.601562 Z M 332.703125 245.703125 C 335 239.296875 337.898438 236.796875 340.703125 235.5 " transform="matrix(0.5,0,0,0.5,0,0)"/>
<path style="fill:none;stroke-width:1.6;stroke-linecap:butt;stroke-linejoin:miter;stroke:rgb(8.627451%,6.666667%,6.666667%);stroke-opacity:1;stroke-miterlimit:4;" d="M 307.398438 239.203125 C 310.867188 237.867188 314.398438 236.664062 318 235.601562 C 322.296875 234.398438 326.5 232.601562 331 232 C 333 231.398438 335.132812 231.070312 337.398438 231 M 301.296875 273 C 301.703125 272.703125 302.296875 273.203125 302.703125 273.296875 C 303.367188 273.570312 304.03125 273.664062 304.703125 273.601562 L 308.703125 273.601562 C 310.367188 273.664062 311.796875 273.335938 313 272.601562 M 323 273.203125 L 324.601562 274.101562 C 325.398438 274.398438 326.398438 274.5 331.898438 274.101562 C 335.398438 274.296875 338.398438 271.296875 339.296875 270.5 " transform="matrix(0.5,0,0,0.5,0,0)"/>
</g>
</svg>
