<?xml version="1.0" encoding="UTF-8"?>
<svg xmlns="http://www.w3.org/2000/svg" xmlns:xlink="http://www.w3.org/1999/xlink" width="px" height="px" viewBox="0 0 320 240" version="1.1">
<g id="surface1">
<path style=" stroke:none;fill-rule:nonzero;fill:rgb(0%,67.058825%,22.352941%);fill-opacity:1;" d="M 0 120 L 320 120 L 320 240 L 0 240 Z M 0 120 "/>
<path style=" stroke:none;fill-rule:nonzero;fill:rgb(100%,100%,100%);fill-opacity:1;" d="M 0 0 L 320 0 L 320 120 L 0 120 Z M 0 0 "/>
<path style="fill-rule:nonzero;fill:rgb(82.352942%,6.27451%,20.392157%);fill-opacity:1;stroke-width:1.4;stroke-linecap:butt;stroke-linejoin:miter;stroke:rgb(0%,0%,0%);stroke-opacity:1;stroke-miterlimit:4;" d="M 419 70.796875 L 418.898438 70.796875 Z M 418.898438 70.796875 C 379.289062 92.117188 341.851562 117.234375 307.101562 145.796875 C 290.101562 160.703125 294.898438 172.5 294.203125 185.796875 C 294.796875 194.796875 292.296875 203.203125 286.796875 208.203125 L 249 215.796875 L 245.398438 205.398438 C 246.5 200 250.898438 197.398438 260.296875 200.703125 C 261 193.898438 255.398438 191.101562 249 188.703125 C 246.703125 186.898438 244 185.703125 244.296875 179.703125 C 243.296875 166.203125 264.898438 180.703125 265.101562 180.703125 C 265.296875 180.703125 264.296875 167 254.398438 164.296875 C 249 162.398438 246.703125 156.703125 248.796875 152.5 C 253.101562 143.796875 261.296875 153.101562 267.5 153.5 C 267.296875 147.796875 265.703125 143.796875 260.796875 139.296875 C 258.203125 137.601562 251.796875 136.398438 251.601562 133.703125 C 251.5 130.101562 257.601562 128.5 266.101562 129.5 C 264.296875 124.398438 258.601562 121.101562 250.796875 118.703125 L 246.203125 110.601562 C 244 106.601562 243 106.398438 248.101562 98.796875 C 252.601562 95.796875 258.703125 91.601562 263.296875 88.703125 L 258.296875 88.101562 C 258.898438 82.601562 259 80.703125 260.296875 71.601562 C 255.296875 78.296875 249.296875 77.101562 243.703125 79.796875 C 243.703125 79.796875 228.101562 82.601562 223 89.296875 L 183.601562 87.296875 C 175.203125 88.398438 168.101562 90.796875 166.703125 98.898438 C 147.601562 100.898438 127.601562 99.203125 113 117.398438 C 123 117 131.601562 114.601562 142.796875 116 C 142.796875 116 152.296875 116.203125 154.203125 126.296875 C 154.398438 126.703125 157.5 126.703125 157.5 126.703125 L 161.101562 129.5 L 162.5 125.703125 L 165.703125 127.898438 L 166.703125 123.703125 L 169.898438 125.898438 L 170.101562 120.898438 L 174.296875 123.898438 L 174.296875 117.203125 C 174.296875 117.203125 189.898438 117.203125 194.703125 127.203125 C 194.898438 127.296875 151 135.203125 108.601562 131.5 L 120.796875 125.5 C 105.398438 122.296875 90.796875 119.5 77.203125 108.796875 C 82.296875 128.203125 108.898438 150.898438 114.398438 150.796875 L 109.203125 141.398438 L 155.203125 143.398438 C 156.898438 148.5 156.203125 154.203125 160.203125 158.703125 C 160.203125 158.703125 157.703125 167.101562 163.398438 170.5 C 163.601562 170.898438 170.101562 153.5 170.101562 153.5 C 170.101562 153.5 172.101562 158.203125 174.101562 161.296875 C 177.101562 146.296875 193.5 143.796875 193.5 143.796875 L 196.898438 151.796875 C 191.796875 152.601562 185.398438 163 188.898438 168.796875 C 185.398438 168.796875 179.296875 178.898438 181.203125 184.398438 C 178.296875 187.296875 171.203125 191.101562 172.898438 203.203125 C 167.296875 204.398438 163.898438 214.703125 165.703125 225.703125 C 156.898438 233.796875 159.101562 248.703125 166.898438 254.796875 C 163.703125 257.796875 161.703125 259.898438 161.703125 263.5 C 158.601562 262.398438 155.703125 263.296875 154.398438 265.296875 C 150.601562 261.398438 145.203125 258.101562 141.398438 261.703125 C 140.398438 257.101562 134.398438 252.101562 127.898438 252.703125 C 128.585938 246.726562 124.734375 241.164062 118.898438 239.703125 C 118.898438 239.703125 117.398438 217.101562 110.601562 209.703125 C 109.898438 205.703125 111 202.898438 116.601562 199.5 C 122.296875 196.5 123.5 194.203125 123 185.601562 C 125.296875 179.898438 127 174.101562 120 170.203125 C 120.203125 177 118.203125 180.203125 115.398438 183.203125 C 112.101562 182.796875 111 186.601562 108.796875 188.203125 C 105.703125 184.101562 115.296875 177.601562 108.203125 168.296875 C 107.796875 167.898438 103.203125 156.296875 91.898438 156.5 C 97.203125 159.601562 99.5 164.898438 99.5 170.398438 C 95.304688 179.609375 94.664062 190.046875 97.703125 199.703125 C 93 192.703125 90.296875 179.296875 86.398438 177 C 83 176.296875 81.398438 168.296875 68.101562 170.601562 C 73.796875 172.101562 75.703125 176.5 77.101562 180.398438 C 73.703125 182.203125 75.398438 187 78 190.296875 C 77.5 198 82.101562 202.5 89 205.296875 L 85.601562 237 C 82.898438 236.703125 78.601562 247.398438 77 247.703125 C 74.296875 249.398438 69.601562 253.898438 75 255.203125 C 73.398438 260.898438 71.898438 264.398438 63.296875 265.601562 C 63.296875 265.601562 72.296875 271 79.898438 261.796875 C 87.898438 261.601562 85.296875 252 89.203125 247.796875 C 89.203125 247.5 91.5 246.101562 94.703125 237.601562 C 96.101562 245.203125 103.898438 268.398438 121.398438 279.898438 C 136.703125 296.296875 149.398438 311.796875 149.203125 333.601562 C 155.078125 327.140625 159.296875 319.351562 161.5 310.898438 C 171.476562 307.90625 181.898438 306.6875 192.296875 307.296875 C 190.5 311.203125 188.398438 314.898438 191 317.296875 C 183.601562 319.898438 182 325.296875 185 330.601562 C 177.203125 335.898438 176.703125 339.296875 176.601562 348.101562 C 162.101562 366.601562 153.203125 366 138.898438 361.101562 C 134.296875 358.398438 126.898438 354.5 123.601562 356.601562 C 117.5 352.398438 108.601562 351.796875 107.101562 361.203125 C 111.796875 357.296875 114.5 358.101562 118.203125 361.796875 C 117.5 363.703125 116.898438 365.5 119.601562 366.601562 L 116 370.601562 C 109.398438 369.601562 100.398438 369.601562 98.101562 379.296875 C 101.5 376.398438 109.101562 375.796875 115.101562 378.5 L 118.601562 379.703125 L 119 384.296875 C 119 384.296875 110 382.898438 107.601562 397.601562 C 116 388.601562 122 390.898438 122 390.898438 C 125.296875 395.703125 137.296875 395 146 387.101562 C 158.101562 380.296875 161.703125 390.101562 169.5 383.703125 C 176 378.898438 183.703125 382.101562 189 387.703125 C 195.101562 390 201.5 391.898438 206.5 387.703125 C 206.5 387.703125 212.703125 383.796875 218.796875 390.101562 C 218.796875 383.101562 213.796875 379.203125 207 379.101562 L 205 377.101562 C 198.5 375.703125 191.296875 376.296875 185.601562 373.101562 C 187.8125 363.007812 192.679688 353.679688 199.703125 346.101562 C 209 336.101562 215.898438 331.5 227.703125 316.203125 C 227.203125 324.898438 233.796875 334.5 237.296875 343.203125 C 237.296875 343.203125 244.296875 332.101562 245.296875 322.898438 C 245.601562 322.898438 254.203125 318.5 257.796875 314.601562 C 265.601562 319.5 278.203125 310.796875 286.398438 303.601562 C 291.398438 305.601562 295.296875 305.398438 301.101562 303.601562 C 296.398438 313.203125 303.796875 322.101562 315.601562 325.796875 C 316.601562 334.203125 325.203125 336 338.101562 336 C 338.703125 341 346.398438 341.703125 346.398438 341.703125 C 341.398438 343.898438 339 346.203125 339.101562 351.296875 C 334.101562 351.296875 330.398438 352.601562 329.101562 358.296875 C 322.203125 358.5 315.203125 359 309.296875 362.296875 C 303 361.398438 295.296875 358.796875 290.398438 353.703125 C 287.898438 351.601562 287.203125 348.5 282.796875 347.296875 C 280 344 276.601562 344.703125 275.5 347.898438 C 272.601562 345.601562 261.703125 344.601562 259.796875 354.898438 C 265 351.203125 269.5 349.796875 272.796875 354.398438 C 271 357.5 277 359.398438 282.203125 360.601562 C 285.898438 360.796875 292.398438 364.203125 294.398438 369.796875 C 288.71875 371.445312 282.609375 370.492188 277.703125 367.203125 C 274.007812 364.117188 268.742188 363.796875 264.703125 366.398438 C 260.296875 363.601562 250 368.898438 249.601562 377.296875 C 253.898438 373.296875 257.898438 371.296875 261.898438 373.898438 C 259.898438 374.296875 260.601562 374.5 260.898438 375.703125 L 270.898438 381.5 C 265.898438 382.796875 261.296875 384.796875 263.5 394 C 263.5 394 267.5 386 276.5 389 C 276.703125 388.703125 277.796875 391.796875 280.398438 389.703125 C 284.296875 385.296875 293.203125 383.296875 301.101562 382.5 C 307.398438 381.796875 313.703125 379.898438 319.101562 383.5 C 324.101562 381 329.5 379.296875 335.101562 383.296875 C 341.703125 385.296875 346.5 393.101562 354.796875 389.601562 C 359 386.601562 364.101562 386.601562 369.296875 392.398438 C 369.296875 385 363.796875 382.5 356 380.898438 L 350.601562 377.703125 C 345.601562 376.898438 340.601562 377.796875 335.5 375.398438 C 359.671875 369.640625 380.484375 354.34375 393.203125 333 L 405.703125 337.398438 C 408.703125 337.601562 408.898438 338.601562 415 340.398438 C 415.203125 331.5 411.296875 322.296875 395.203125 321.398438 L 374.203125 313.398438 C 369.601562 308.601562 367.601562 298.5 373.296875 292.601562 C 378.898438 287.601562 379.898438 288.203125 383.601562 282.101562 C 388.101562 281.703125 392.296875 286.296875 396.398438 286.296875 C 398.398438 292.203125 409.796875 297.296875 417 295.601562 C 421.5 299.601562 430 301.796875 439.5 298.601562 C 445.015625 303.828125 453.21875 305.023438 460 301.601562 C 462.203125 303.796875 466.796875 305.601562 472 304.398438 C 472.5 304.398438 474.796875 310.203125 480.5 312.296875 C 478 314.703125 479.5 325.296875 482.203125 329.203125 C 480.265625 333.15625 479.945312 337.710938 481.296875 341.898438 C 475.5 345.601562 474.296875 348.398438 476.898438 354.703125 C 469.296875 367 460.203125 368.398438 451.601562 364.703125 L 442.296875 358.703125 L 432.5 349.101562 C 430.796875 347.5 427.296875 347.101562 426.601562 350.5 C 426.601562 350.5 414 347.703125 412.898438 358.398438 C 418.203125 353.296875 425.601562 357.796875 425.601562 358 C 425.601562 358.203125 423.796875 359.398438 425.203125 361.398438 C 425.5 361.101562 434.5 364.703125 442.398438 368.101562 C 446.703125 369.796875 447.703125 370.296875 449.601562 371.296875 L 442.398438 368.101562 C 438.929688 366.5 435.203125 365.523438 431.398438 365.203125 C 427 364.796875 422.203125 364.203125 420 367.601562 C 415.203125 369.601562 407.601562 371.296875 408 380.296875 C 411.203125 374.898438 415.703125 375.203125 421.398438 375.703125 L 421 376.898438 C 427.203125 379.703125 426 376.101562 431.796875 375.601562 C 437.007812 375.523438 442.1875 376.367188 447.101562 378.101562 C 442.601562 379.398438 436.398438 378.796875 433.5 382.101562 C 432.898438 383.101562 431 382.703125 431.898438 385.296875 C 431.898438 385.296875 422.898438 385.101562 420.601562 397.296875 C 429.601562 391.601562 436.5 391.796875 436.601562 391.796875 L 439.5 392.398438 L 450.5 385.101562 C 450.796875 385.101562 461.101562 380.5 465.796875 385.703125 C 470 387.703125 474.398438 387.898438 478.796875 385.296875 C 487.203125 381.601562 495.101562 381.296875 502.796875 386.5 L 509.898438 390.703125 L 512.898438 388.703125 C 512.898438 388.703125 520.898438 386.5 526.703125 393.601562 C 524.296875 381.296875 515.5 380.898438 515.5 380.898438 L 513.5 379.101562 L 501.101562 374.203125 C 499.203125 369.703125 494.703125 366.203125 499.203125 360.796875 C 503.898438 337.703125 509.398438 320.398438 500.398438 297 C 508.796875 300.601562 515.101562 311.796875 525.601562 307.898438 C 525.601562 298.5 491 280.601562 464.601562 266.296875 C 508 264 560 232.101562 540 191.5 L 549.398438 162.101562 C 553.898438 171.101562 562.898438 177.898438 571 180.796875 C 564.296875 168.101562 560.5 129.203125 564.296875 102.398438 C 546.609375 123.632812 527.53125 143.679688 507.203125 162.398438 C 517.203125 164.796875 526.101562 163.101562 535.796875 161.898438 L 527.601562 178.898438 C 501 163.203125 469.796875 174.898438 469.601562 195.703125 C 470.5 219.898438 500.398438 223.398438 517.703125 214.898438 C 514.296875 237 463.5 228.898438 463.5 228.898438 C 445.5 222.703125 428.398438 223.703125 409.5 223.898438 C 413.398438 211.796875 435.203125 201 451.898438 205.796875 C 428.601562 179.601562 455.203125 147.101562 487.296875 137.203125 C 452.296875 125.601562 482.398438 98.898438 508.601562 79.796875 C 508.601562 79.796875 433.296875 111.5 426.398438 111.398438 C 405 109.796875 410.796875 84.398438 419 70.796875 Z M 182.5 101.203125 C 184.367188 101.203125 186.203125 101.398438 188 101.796875 C 191.398438 102.703125 195.5 103.101562 195.5 104.203125 C 193.898438 106.796875 190 109.898438 186.203125 109.796875 C 182.398438 109.703125 180.203125 107.296875 179 101.601562 C 179.53125 101.335938 180.703125 101.203125 182.5 101.203125 Z M 499.5 190.601562 C 504.5 190.601562 510.398438 192.601562 516.101562 198.796875 C 513.398438 206.796875 489.296875 210.796875 487.703125 199 C 487.203125 195.398438 492.296875 190.703125 499.5 190.601562 Z M 499.5 190.601562 " transform="matrix(0.5,0,0,0.5,0,0)"/>
<path style="fill:none;stroke-width:1.4;stroke-linecap:butt;stroke-linejoin:round;stroke:rgb(0%,0%,0%);stroke-opacity:1;stroke-miterlimit:4;" d="M 207.398438 171.203125 L 211.101562 176.5 M 210.898438 176.601562 C 210.898438 176.601562 210.898438 183.796875 212.398438 183.898438 M 209.101562 187.796875 L 212.898438 194.101562 M 202.398438 195.703125 C 202.601562 195.703125 207.101562 200.898438 207.101562 200.898438 M 211 196.898438 C 211 197.101562 215.203125 205 215.5 205 M 205.5 202.398438 C 205.5 202.398438 206.898438 212 208.203125 211.703125 M 199.203125 220 L 203.398438 226.5 M 207.101562 213.203125 C 207.101562 213.203125 209.398438 222.296875 211.203125 221.5 M 213.101562 207.703125 C 213.203125 207.898438 217.398438 213.796875 218.5 213 M 217.5 215.296875 L 221.5 223.296875 M 210.898438 221.5 L 214.203125 230.898438 M 203.203125 226.296875 C 203.203125 226.296875 206.203125 236.398438 208.898438 234.796875 M 202.101562 239.796875 C 202.101562 239.796875 202.296875 245.101562 204.898438 245.398438 M 206.703125 237.101562 C 206.703125 237.296875 209.398438 240.898438 209.398438 240.898438 M 214.398438 230.796875 L 216.5 234.296875 M 221.398438 224.296875 L 224.703125 228.398438 M 206 176.703125 C 206.101562 181.203125 213.203125 175.101562 216 171.296875 M 203 192.296875 C 203 192.296875 210.703125 186.796875 216.703125 178.5 M 200.398438 205.398438 C 205.898438 203.898438 216 191.703125 218 185.203125 M 199.296875 217.5 C 200.796875 218.203125 219.601562 204.5 220.101562 194.601562 M 198.796875 228 C 198.796875 227.898438 216 223.601562 223.101562 204.703125 M 198 242.296875 C 198 242.296875 225.5 225.796875 227 213.703125 M 412.398438 270 C 412.398438 270 410.601562 284.203125 396.398438 286.398438 M 416.898438 295.398438 C 417 295.203125 430.5 280.398438 427 275.898438 M 448.101562 281.101562 C 448.101562 281.101562 447.898438 291.398438 439.5 298.5 M 464.898438 284.101562 C 464.898438 284.101562 465.203125 296.5 459.898438 301.5 M 480.296875 291.5 C 480.296875 291.5 474.296875 303.203125 472.203125 304.398438 M 480.101562 312.203125 C 480.101562 312.203125 487.898438 314.203125 490.398438 309 M 482.101562 329.101562 C 482.101562 329.101562 489.296875 330.398438 492.703125 323.5 M 481.296875 342.203125 C 481.296875 342.203125 487.203125 347.203125 491.203125 340.601562 M 397.203125 246.203125 C 397.203125 246.203125 396.5 271.5 432 276.601562 C 471.703125 287.601562 490.5 281.796875 492.796875 326.296875 C 491.296875 343.296875 489.203125 362.296875 476.796875 355 M 359.398438 269.5 C 359.398438 269.5 365.101562 279.601562 371.898438 278.898438 C 380.898438 276.296875 384.203125 281.796875 384.203125 281.796875 M 335.203125 279.601562 C 335.203125 279.601562 350.203125 286.898438 362.898438 275.101562 M 336.898438 269.101562 C 338.203125 286.601562 316.796875 296.601562 308.296875 294.898438 M 337.898438 335.898438 C 338 335.898438 349.5 329.101562 347.203125 324.296875 M 315.101562 325.796875 C 315.398438 325.398438 334.398438 323.601562 337.898438 316.796875 M 306.296875 297.796875 C 306.296875 297.796875 333.203125 298 335 302.898438 M 342 281.898438 C 342 281.898438 315.796875 326.796875 364.203125 326.796875 M 314.203125 281.296875 C 314.203125 281.296875 308.601562 298 300.601562 303.703125 M 286.398438 275.5 C 286.398438 275.5 296.101562 294.296875 286.398438 303.601562 M 261 280.796875 C 261.101562 281.101562 264.101562 307.5 257.5 315 M 248.296875 281.601562 C 248.296875 281.601562 249.296875 298.398438 244.296875 304.398438 C 239.296875 310.398438 245.5 322.796875 245.5 322.796875 M 185 330.796875 C 185 330.796875 188.601562 337.101562 193.5 334.898438 M 191 317.101562 C 191 317.101562 199 320.601562 201.703125 319.296875 M 199.703125 288.898438 C 199.703125 288.898438 187.898438 292.203125 192.398438 306.203125 C 199.203125 311.703125 205.796875 310.796875 205.796875 310.796875 M 176.398438 348.203125 C 176.296875 348.203125 177.796875 359.203125 185.398438 350.898438 C 190.703125 339.703125 207.398438 308.296875 211.296875 297.5 M 219.101562 292.398438 C 219.101562 292.398438 211 286.101562 211.296875 294.898438 C 211.101562 300.398438 213.796875 301.703125 213.796875 301.703125 C 214.101562 305.703125 217.601562 311.296875 220.398438 306.203125 C 221.601562 301.203125 219.601562 299 219.601562 299 M 224.296875 290 C 217 289.601562 213 305.703125 227.101562 295.601562 M 231.898438 284.601562 C 231.898438 284.601562 230.101562 287.101562 227.203125 284.398438 C 225.703125 281.796875 220.398438 296.398438 229.703125 296.898438 C 231.398438 292.601562 236.5 291.398438 236.5 291.398438 M 240.898438 277.601562 C 240.898438 277.601562 236.703125 279.601562 235.203125 279.296875 C 230.203125 280.398438 231.203125 292.101562 237.5 291.398438 C 239.703125 288.898438 242 285.398438 242 285.398438 M 201.703125 262.398438 C 201.5 262.398438 185.203125 288.101562 210.796875 294.898438 M 408.796875 223.898438 C 408.796875 223.898438 398.796875 232.296875 408.101562 245.898438 C 377.101562 245.398438 360.601562 259.703125 359.296875 269.296875 C 319.898438 266.5 327.101562 278.101562 314.296875 281.898438 C 297.203125 267.601562 272.101562 275.601562 273.703125 289.898438 C 262.296875 273.796875 244.703125 281.601562 242.5 285.601562 C 240.296875 289.601562 241.203125 265.796875 241.203125 265.796875 C 241.203125 265.796875 229.703125 271 221.796875 280.398438 L 221.796875 260.5 C 212.203125 262.5 202.898438 262.5 193 262.296875 M 167.101562 255 C 167.101562 255 181.398438 263 199.101562 252.203125 M 166 226.296875 C 166 226.296875 177 236.296875 198 233.101562 M 173 203.398438 C 173 203.398438 175.398438 211.5 199.296875 212 M 181 184.601562 C 181 184.601562 190 195.601562 202.203125 193.898438 M 188.703125 168.898438 C 188.703125 168.898438 192.203125 174.898438 205.5 175.898438 M 196.5 151.398438 C 196.5 151.398438 203.5 159 211.5 157.703125 M 238 89.296875 C 238 89.296875 241.101562 86.296875 246.296875 87.796875 M 235.796875 105.601562 C 235.796875 105.601562 226.203125 105.296875 226.796875 101.601562 C 227.601562 97.203125 237 94.101562 237 94.101562 C 237 94.101562 249.5 86.101562 251.398438 83.296875 M 194.796875 127.296875 L 207 150.601562 L 212.796875 141.796875 L 215.796875 147.796875 L 220.796875 139.101562 L 229.398438 144.601562 L 226.203125 133.898438 L 233.398438 133.398438 C 233.398438 133.398438 231.398438 128.296875 225 127.203125 C 226.703125 125.898438 232.703125 121.898438 232.703125 121.898438 C 232.703125 121.898438 229.296875 117.898438 223.898438 117.796875 C 225.703125 115.898438 228.101562 111.296875 227.898438 111.296875 L 222.601562 110.101562 C 222.601562 110.101562 234.796875 114.101562 244.203125 108.5 M 221 89.703125 C 221.101562 89.796875 220.296875 94.5 217.703125 97.203125 M 174 102.5 C 174 102.5 181.5 100.5 187.101562 101.601562 C 192.703125 102.703125 200.203125 104.796875 200.203125 104.796875 C 200.203125 104.796875 209.203125 103.601562 212.101562 101.5 M 155.296875 107.5 C 155.296875 107.5 154.296875 111.101562 153.898438 113.5 C 153.898438 115.203125 148.398438 117.5 148.398438 117.5 M 158.703125 100.101562 C 158.703125 100.101562 163.5 106.101562 163.703125 109.601562 C 163.796875 113 160.101562 115.601562 160.101562 115.601562 M 109 141 L 104 133 L 108.5 131.398438 M 199 252.398438 C 195 247.203125 202 168.203125 216.703125 147.601562 C 211.601562 184.796875 228.703125 222.796875 233 222.601562 M 154 125.601562 C 154 125.601562 160.796875 128.101562 174.703125 117 M 193.601562 143.796875 L 203.601562 143.898438 M 503.898438 81.898438 C 503.898438 81.898438 337.203125 159.703125 334.796875 163.898438 C 362.898438 155.296875 482.296875 135.398438 485.203125 137.101562 C 478.203125 138.796875 333.296875 172.101562 326.5 180.101562 C 362.703125 178.898438 438.398438 191.703125 450.296875 204.101562 C 424.5 198.296875 347.601562 187 324 192 C 341.203125 196.101562 407.203125 238.796875 407.203125 245.601562 C 397.203125 236.101562 317.898438 203.398438 314.796875 206.601562 C 333 217.5 358.703125 258 358.703125 267.898438 C 353.398438 259.5 307.5 210.203125 304.796875 213.398438 C 309.703125 220.101562 319.296875 278.296875 314.398438 281 C 314.398438 274 296.601562 223 295.101562 221.601562 C 291.5 222.601562 268.796875 283.601562 273.296875 289.398438 C 270.296875 269 273.796875 226.398438 279.296875 228.101562 C 269.296875 229.601562 237.601562 271.5 241 278.101562 C 242 267.601562 243.398438 260.703125 261.398438 226 C 241.398438 227.203125 200.203125 253.101562 193.203125 262.398438 C 198.796875 245.898438 233.703125 218 249 216 M 321 155.296875 C 338.601562 145.5 393 125.601562 429.398438 110.898438 M 286.796875 207.898438 C 286.796875 207.898438 298.796875 207.703125 310.796875 175.101562 C 322.601562 130.5 416.5 80.796875 418.398438 71.5 M 128 252.796875 C 128 252.796875 125.203125 258.796875 121.796875 260.398438 M 141.5 261.796875 C 141.5 261.796875 137.796875 269 136.898438 272.398438 M 154.398438 265.398438 C 154.398438 265.398438 157.398438 275.203125 154.898438 279.796875 M 118.5 239.703125 C 109.101562 245 123.898438 278.703125 168.601562 281.898438 M 161.398438 263.703125 C 161.398438 263.703125 160.203125 269.703125 168.601562 281.703125 C 166.203125 295.101562 178.796875 305.601562 183.796875 307.296875 M 157.796875 143.101562 L 159.203125 139.5 L 160.703125 143.5 L 163.203125 143.398438 L 164.796875 139.398438 L 166.203125 143.398438 L 168.601562 143.398438 L 170.101562 139 L 172.398438 143.203125 L 174.398438 143.203125 L 175.898438 138.203125 L 178.898438 141.796875 L 180.101562 141.398438 L 181.101562 136.203125 L 184.203125 139.796875 L 185.203125 139.296875 L 186.601562 134.296875 L 189.101562 138 L 190.398438 137.601562 L 191.601562 133.296875 L 194 137.296875 M 155 143.5 L 173.796875 143.203125 C 179.796875 143.203125 189.601562 134.898438 200.5 137.5 M 115.601562 183.5 C 115.601562 183.5 118.703125 190.296875 123 186.5 M 108.398438 188 C 108.398438 188 102.398438 204.203125 109.601562 208 M 99.796875 170.203125 C 99.796875 170.203125 99.796875 174 107.796875 168.203125 M 75.296875 254.898438 C 75.296875 254.898438 81.601562 256.898438 80.601562 261.601562 M 77.601562 180.796875 C 77.601562 180.796875 81.601562 182.703125 85.398438 176.796875 M 119.601562 366.5 C 125.703125 366.101562 127.101562 368.898438 132.601562 368.898438 C 139.203125 369.101562 145.5 366.5 153.601562 364.203125 M 206.703125 379.203125 C 206.5 379.203125 203.703125 385 206.203125 387.898438 M 118.703125 379.703125 C 118.703125 379.703125 128.5 371.703125 133.703125 376.601562 C 138.601562 378.296875 141.296875 378 141.296875 378 M 123.796875 356.703125 C 123.796875 356.703125 126.203125 362.898438 118.203125 362 M 115.796875 371 C 115.796875 371 120.898438 374.203125 115.101562 378.5 M 118.898438 384.296875 C 118.898438 384.296875 125.898438 385.296875 121.796875 391 M 346 341.601562 C 346 341.601562 365 343.601562 366 345 C 368.203125 342.703125 385.203125 328.796875 364.296875 326.898438 C 362.320312 335.429688 354.757812 341.507812 346 341.601562 Z M 339.203125 351.101562 C 346.296875 356.796875 343.398438 360.203125 365.796875 345.203125 M 329 358.203125 C 329 358.203125 339.5 369.601562 347.203125 355.796875 M 308.898438 362.296875 L 294.601562 369.796875 M 269 380.296875 C 269 380.296875 277.703125 372.898438 281.703125 376.796875 C 285.703125 380.703125 303 373.398438 303 373.398438 M 275.5 348 C 275.5 348 278.5 354 272.703125 354.703125 M 264.203125 366.601562 C 264.203125 366.601562 267.203125 372.203125 261.398438 373.601562 M 270.898438 381.703125 C 270.898438 381.703125 279.898438 382.203125 276.703125 389 M 355.101562 380.5 C 355.101562 380.5 350.101562 384.703125 353.796875 389.5 M 426.796875 350.5 C 426.796875 350.5 432.5 353.296875 425.703125 358 M 420 367.898438 C 420 367.898438 424.296875 372.398438 421.398438 376.101562 M 432 385.101562 C 432 385.101562 437.898438 386.796875 437.203125 391.703125 M 515 380.703125 C 515 380.703125 510 384.398438 512.703125 389.101562 M 427 236.296875 C 438.796875 234.898438 455.796875 261.296875 464.5 266.398438 M 516.398438 199 C 516.398438 199 522.398438 204.296875 517.101562 217 M 527.5 178.796875 C 529.203125 180.101562 535.601562 183.601562 539.898438 191.601562 M 544 139.398438 L 535.703125 161.898438 M 553.296875 138.296875 C 553.296875 138.296875 551.703125 158.296875 549.296875 162.296875 M 516 198.796875 C 513.296875 206.796875 489.203125 210.796875 487.601562 199 C 486.703125 193 501.796875 183.703125 516 198.796875 Z M 516 198.796875 " transform="matrix(0.5,0,0,0.5,0,0)"/>
<path style="fill-rule:nonzero;fill:rgb(0%,0%,0%);fill-opacity:1;stroke-width:1.4;stroke-linecap:butt;stroke-linejoin:round;stroke:rgb(0%,0%,0%);stroke-opacity:1;stroke-miterlimit:4;" d="M 182.296875 101.296875 L 191.601562 103 C 191.601562 103 185.101562 111.796875 182.296875 101.296875 Z M 182.296875 101.296875 " transform="matrix(0.5,0,0,0.5,0,0)"/>
</g>
</svg>
