<?xml version="1.0" encoding="UTF-8"?>
<svg xmlns="http://www.w3.org/2000/svg" xmlns:xlink="http://www.w3.org/1999/xlink" width="px" height="px" viewBox="0 0 320 240" version="1.1">
<g id="surface1">
<rect x="0" y="0" width="320" height="240" style="fill:rgb(100%,100%,100%);fill-opacity:1;stroke:none;"/>
<path style=" stroke:none;fill-rule:nonzero;fill:rgb(100%,0%,0%);fill-opacity:1;" d="M 136 0 L 184 0 L 184 240 L 136 240 Z M 136 0 "/>
<path style=" stroke:none;fill-rule:nonzero;fill:rgb(100%,0%,0%);fill-opacity:1;" d="M 0 96 L 320 96 L 320 144 L 0 144 Z M 0 96 "/>
<path style=" stroke:none;fill-rule:evenodd;fill:rgb(100%,0%,0%);fill-opacity:1;" d="M 73.398438 186.550781 C 73.898438 178.148438 75.398438 171 75.398438 171 C 75.398438 171 70.5 171.5 68 171.5 C 65.5 171.5 60.601562 171 60.601562 171 C 60.601562 171 62.101562 178.148438 62.601562 186.601562 C 54.148438 186.101562 47 184.601562 47 184.601562 C 47 184.601562 47.5 188.300781 47.5 192 C 47.5 195.699219 47 199.398438 47 199.398438 C 47 199.398438 54.148438 197.898438 62.601562 197.398438 C 62.101562 205.851562 60.601562 213 60.601562 213 C 60.601562 213 64.300781 212.5 68 212.5 C 71.699219 212.5 75.398438 213 75.398438 213 C 75.398438 213 73.898438 205.851562 73.398438 197.398438 C 81.851562 197.898438 89 199.398438 89 199.398438 C 89 199.398438 88.5 194.5 88.5 192 C 88.5 189.5 89 184.601562 89 184.601562 C 89 184.601562 81.851562 186.101562 73.449219 186.601562 Z M 257.398438 42.550781 C 257.898438 34.148438 259.398438 27 259.398438 27 C 259.398438 27 254.5 27.5 252 27.5 C 249.5 27.5 244.601562 27 244.601562 27 C 244.601562 27 246.101562 34.148438 246.601562 42.550781 C 238.148438 42.050781 231 40.601562 231 40.601562 C 231 40.601562 231.5 44.300781 231.5 48 C 231.5 51.699219 231 55.398438 231 55.398438 C 231 55.398438 238.148438 53.898438 246.601562 53.398438 C 246.101562 61.851562 244.601562 69 244.601562 69 C 244.601562 69 248.300781 68.5 252 68.5 C 255.699219 68.5 259.398438 69 259.398438 69 C 259.398438 69 257.898438 61.851562 257.398438 53.449219 C 265.851562 53.949219 273 55.449219 273 55.449219 C 273 55.449219 272.5 50.449219 272.5 48 C 272.5 45.550781 273 40.601562 273 40.601562 C 273 40.601562 265.851562 42.101562 257.398438 42.601562 Z M 73.398438 42.550781 C 73.898438 34.148438 75.398438 27 75.398438 27 C 75.398438 27 70.5 27.5 68 27.5 C 65.5 27.5 60.601562 27 60.601562 27 C 60.601562 27 62.101562 34.148438 62.601562 42.601562 C 54.148438 42.101562 47 40.601562 47 40.601562 C 47 40.601562 47.5 44.300781 47.5 48 C 47.5 51.699219 47 55.398438 47 55.398438 C 47 55.398438 54.148438 53.898438 62.601562 53.398438 C 62.101562 61.851562 60.601562 69 60.601562 69 C 60.601562 69 64.300781 68.5 68 68.5 C 71.699219 68.5 75.398438 69 75.398438 69 C 75.398438 69 73.898438 61.851562 73.398438 53.398438 C 81.851562 53.898438 89 55.398438 89 55.398438 C 89 55.398438 88.5 50.5 88.5 48 C 88.5 45.5 89 40.601562 89 40.601562 C 89 40.601562 81.851562 42.101562 73.449219 42.601562 Z M 257.398438 186.550781 C 257.898438 178.148438 259.398438 171 259.398438 171 C 259.398438 171 254.5 171.5 252 171.5 C 249.5 171.5 244.601562 171 244.601562 171 C 244.601562 171 246.101562 178.148438 246.601562 186.601562 C 238.148438 186.101562 231 184.601562 231 184.601562 C 231 184.601562 231.5 188.300781 231.5 192 C 231.5 195.699219 231 199.398438 231 199.398438 C 231 199.398438 238.148438 197.898438 246.601562 197.398438 C 246.101562 205.851562 244.601562 213 244.601562 213 C 244.601562 213 248.300781 212.5 252 212.5 C 255.699219 212.5 259.398438 213 259.398438 213 C 259.398438 213 257.898438 205.851562 257.398438 197.398438 C 265.851562 197.898438 273 199.398438 273 199.398438 C 273 199.398438 272.5 194.5 272.5 192 C 272.5 189.5 273 184.601562 273 184.601562 C 273 184.601562 265.851562 186.101562 257.398438 186.601562 Z M 257.398438 186.550781 "/>
</g>
</svg>
