<?xml version="1.0" encoding="UTF-8"?>
<svg xmlns="http://www.w3.org/2000/svg" xmlns:xlink="http://www.w3.org/1999/xlink" width="px" height="px" viewBox="0 0 320 240" version="1.1">
<g id="surface1">
<rect x="0" y="0" width="320" height="240" style="fill:rgb(85.490197%,0%,4.705882%);fill-opacity:1;stroke:none;"/>
<path style=" stroke:none;fill-rule:nonzero;fill:rgb(100%,100%,100%);fill-opacity:1;" d="M 0 0 L 320 0 L 320 160.800781 L 0 160.800781 Z M 0 0 "/>
<path style=" stroke:none;fill-rule:nonzero;fill:rgb(0%,0%,0.392157%);fill-opacity:1;" d="M 104.3125 109.03125 L 164.3125 109.03125 L 164.3125 150.28125 L 104.3125 150.28125 Z M 104.3125 109.03125 "/>
<path style="fill-rule:nonzero;fill:rgb(85.490197%,0%,4.705882%);fill-opacity:1;stroke-width:1;stroke-linecap:square;stroke-linejoin:miter;stroke:rgb(0%,0%,0%);stroke-opacity:1;stroke-miterlimit:4;" d="M 229.8 153.9 L 190.8 153.9 L 182.1 159.6 L 182.1 165.6 L 229.8 165.6 M 213.5 128.6 C 219.1 128.6 223.7 133.3 223.7 139.1 L 223.7 153.8 L 231 153.8 L 231 97.8 L 190.7 97.8 L 190.7 153.8 L 203.3 153.8 L 203.3 139.1 C 203.3 133.5 207.8 128.6 213.5 128.6 Z M 213.5 128.6 " transform="matrix(0.9375,0,0,0.9375,-80,0)"/>
<path style=" stroke:none;fill-rule:nonzero;fill:rgb(0%,0%,0.392157%);fill-opacity:1;" d="M 111.71875 56.25 L 129.15625 56.25 L 129.15625 88.125 L 111.71875 88.125 Z M 111.71875 56.25 "/>
<path style="fill-rule:nonzero;fill:rgb(85.490197%,0%,4.705882%);fill-opacity:1;stroke-width:1;stroke-linecap:square;stroke-linejoin:miter;stroke:rgb(0%,0%,0%);stroke-opacity:1;stroke-miterlimit:4;" d="M 223 88.7 L 206.8 88.7 L 206.8 82.9 L 194.9 82.9 L 194.9 88.7 L 186.9 88.7 L 186.9 82.9 L 182 82.9 L 182 93.3 L 223 93.3 M 186.8 93.3 L 221.8 93.3 L 221.8 97.8 L 186.8 97.8 Z M 200.8 47.6 L 200.8 83 L 206.8 83 L 206.8 73.3 C 206.8 69.7 209.3 66.7 212.9 66.5 L 213.3 66.5 C 217.0125 66.604167 219.995833 69.5875 220.1 73.3 L 220.1 83 L 225.8 83 L 225.8 47.6 Z M 198.5 42.8 L 198.5 47.6 L 227.8 47.6 L 227.8 42.8 Z M 194.8 33.7 L 194.8 42.8 L 229.8 42.8 L 229.8 33.7 L 224.5 33.7 L 224.5 38.4 L 217.9 38.4 L 217.9 33.7 L 207.9 33.7 L 207.9 38.4 L 201.4 38.4 L 201.4 33.7 Z M 182 159.6 L 230 159.6 M 261 156.8 L 228.6 156.8 L 218.8 161.5 L 218.8 168.5 L 261 168.5 " transform="matrix(0.9375,0,0,0.9375,-80,0)"/>
<path style="fill:none;stroke-width:1;stroke-linecap:butt;stroke-linejoin:miter;stroke:rgb(0%,0%,0%);stroke-opacity:1;stroke-miterlimit:4;" d="M 218.8 161.5 L 262 161.5 " transform="matrix(0.9375,0,0,0.9375,-80,0)"/>
<path style=" stroke:none;fill-rule:nonzero;fill:rgb(0%,0%,0.392157%);fill-opacity:1;" d="M 215.6875 109.03125 L 155.6875 109.03125 L 155.6875 150.28125 L 215.6875 150.28125 Z M 215.6875 109.03125 "/>
<path style="fill-rule:nonzero;fill:rgb(85.490197%,0%,4.705882%);fill-opacity:1;stroke-width:1;stroke-linecap:square;stroke-linejoin:miter;stroke:rgb(0%,0%,0%);stroke-opacity:1;stroke-miterlimit:4;" d="M 229.8 153.9 L 190.8 153.9 L 182.1 159.6 L 182.1 165.6 L 229.8 165.6 M 213.5 128.6 C 219.1 128.6 223.7 133.3 223.7 139.1 L 223.7 153.8 L 231 153.8 L 231 97.8 L 190.7 97.8 L 190.7 153.8 L 203.3 153.8 L 203.3 139.1 C 203.3 133.5 207.8 128.6 213.5 128.6 Z M 213.5 128.6 " transform="matrix(-0.9375,0,0,0.9375,400,0)"/>
<path style=" stroke:none;fill-rule:nonzero;fill:rgb(0%,0%,0.392157%);fill-opacity:1;" d="M 208.28125 56.25 L 190.84375 56.25 L 190.84375 88.125 L 208.28125 88.125 Z M 208.28125 56.25 "/>
<path style="fill-rule:nonzero;fill:rgb(85.490197%,0%,4.705882%);fill-opacity:1;stroke-width:1;stroke-linecap:square;stroke-linejoin:miter;stroke:rgb(0%,0%,0%);stroke-opacity:1;stroke-miterlimit:4;" d="M 223 88.7 L 206.8 88.7 L 206.8 82.9 L 194.9 82.9 L 194.9 88.7 L 186.9 88.7 L 186.9 82.9 L 182 82.9 L 182 93.3 L 223 93.3 M 186.8 93.3 L 221.8 93.3 L 221.8 97.8 L 186.8 97.8 Z M 200.8 47.6 L 200.8 83 L 206.8 83 L 206.8 73.3 C 206.8 69.7 209.3 66.7 212.9 66.5 L 213.3 66.5 C 217.0125 66.604167 219.995833 69.5875 220.1 73.3 L 220.1 83 L 225.8 83 L 225.8 47.6 Z M 198.5 42.8 L 198.5 47.6 L 227.8 47.6 L 227.8 42.8 Z M 194.8 33.7 L 194.8 42.8 L 229.8 42.8 L 229.8 33.7 L 224.5 33.7 L 224.5 38.4 L 217.9 38.4 L 217.9 33.7 L 207.9 33.7 L 207.9 38.4 L 201.4 38.4 L 201.4 33.7 Z M 182 159.6 L 230 159.6 M 261 156.8 L 228.6 156.8 L 218.8 161.5 L 218.8 168.5 L 261 168.5 " transform="matrix(-0.9375,0,0,0.9375,400,0)"/>
<path style="fill:none;stroke-width:1;stroke-linecap:butt;stroke-linejoin:miter;stroke:rgb(0%,0%,0%);stroke-opacity:1;stroke-miterlimit:4;" d="M 218.8 161.5 L 262 161.5 " transform="matrix(-0.9375,0,0,0.9375,400,0)"/>
<path style="fill-rule:nonzero;fill:rgb(97.254902%,84.705883%,5.490196%);fill-opacity:1;stroke-width:0.8;stroke-linecap:round;stroke-linejoin:miter;stroke:rgb(0%,0%,0%);stroke-opacity:1;stroke-miterlimit:4;" d="M 273.3 150 C 270.7 151.066667 268.2 152.333333 265.8 153.8 C 262.6875 155.575 259.7125 157.583333 256.9 159.8 C 255.833333 160.466667 254.933333 161.266667 254.2 162.2 C 253.2 163 252.2 164.2 252.4 165.7 C 252.4 166.3 253.2 164.9 253.8 164.8 C 254.7375 164.25 255.854167 164.108333 256.9 164.4 C 258.3 163.066667 259.766667 161.933333 261.3 161 C 265.375 158.05 269.729167 155.504167 274.3 153.4 Z M 273.3 150 " transform="matrix(0.9375,0,0,0.9375,-80,0)"/>
<path style="fill-rule:nonzero;fill:rgb(97.254902%,84.705883%,5.490196%);fill-opacity:1;stroke-width:1;stroke-linecap:round;stroke-linejoin:miter;stroke:rgb(0%,0%,0%);stroke-opacity:1;stroke-miterlimit:4;" d="M 260.4 157.4 L 260.4 161.3 M 262.8 155.7 L 262.8 159.6 M 265.2 154.2 L 265.2 158 M 267.7 152.7 L 267.7 156.7 " transform="matrix(0.9375,0,0,0.9375,-80,0)"/>
<path style="fill-rule:nonzero;fill:rgb(97.254902%,84.705883%,5.490196%);fill-opacity:1;stroke-width:0.8;stroke-linecap:round;stroke-linejoin:miter;stroke:rgb(0%,0%,0%);stroke-opacity:1;stroke-miterlimit:4;" d="M 238.9 150.2 L 237.7 153.5 C 243.225 155.620833 248.520833 158.304167 253.5 161.5 C 255.3 162.566667 256.9 163.866667 258.3 165.4 C 258.6 166.2 257.8 166.9 257 166.6 C 256.3 166.4 255.5 166.1 254.8 166.6 C 253.7 167.1 252.7 168.8 254.3 169.3 C 256.7 170.9 260.4 170.2 261.5 167.5 C 262.1 166.1 262.2 164.3 261 163.1 C 259 160.8 256.2 159.1 253.6 157.4 C 248.933333 154.554167 244.0125 152.141667 238.9 150.2 Z M 238.9 150.2 " transform="matrix(0.9375,0,0,0.9375,-80,0)"/>
<path style="fill-rule:nonzero;fill:rgb(97.254902%,84.705883%,5.490196%);fill-opacity:1;stroke-width:1;stroke-linecap:round;stroke-linejoin:miter;stroke:rgb(0%,0%,0%);stroke-opacity:1;stroke-miterlimit:4;" d="M 254 158 L 253.7 161.4 M 256.8 159.7 L 256 163 M 259.8 162 L 258 164.6 M 260.7 168.2 L 258.1 166.8 M 261.5 165.4 L 258.5 165.7 M 257.7 169.7 L 257.5 167.1 M 256.5 166.8 L 254.1 168.6 M 244.7 152.9 L 244.7 156 M 251 156.3 L 251 159.8 M 247.8 154.6 L 247.8 157.9 " transform="matrix(0.9375,0,0,0.9375,-80,0)"/>
<path style="fill-rule:nonzero;fill:rgb(97.254902%,84.705883%,5.490196%);fill-opacity:1;stroke-width:1;stroke-linecap:butt;stroke-linejoin:miter;stroke:rgb(0%,0%,0%);stroke-opacity:1;stroke-miterlimit:4;" d="M 235.8 227.6 L 235.8 235.6 L 240.8 235.6 L 240.8 231.6 L 247.7 231.6 L 247.7 235.6 L 253.1 235.6 L 253.1 227.6 Z M 235.8 238.6 L 235.8 246.6 L 253 246.6 L 253 238.6 L 247.6 238.6 L 247.6 242.6 L 240.7 242.6 L 240.7 238.6 Z M 235.8 238.6 " transform="matrix(0.9375,0,0,0.9375,-80,0)"/>
<path style="fill-rule:nonzero;fill:rgb(97.254902%,84.705883%,5.490196%);fill-opacity:1;stroke-width:1;stroke-linecap:butt;stroke-linejoin:miter;stroke:rgb(0%,0%,0%);stroke-opacity:1;stroke-miterlimit:4;" d="M 253 193.7 L 258 193.7 L 258 251.7 L 253 251.7 Z M 253 193.7 " transform="matrix(0.9375,0,0,0.9375,-80,0)"/>
<path style="fill-rule:nonzero;fill:rgb(97.254902%,84.705883%,5.490196%);fill-opacity:1;stroke-width:1;stroke-linecap:butt;stroke-linejoin:miter;stroke:rgb(0%,0%,0%);stroke-opacity:1;stroke-miterlimit:4;" d="M 253 198.7 L 258 198.7 L 258 248.7 L 253 248.7 Z M 255.6 179.4 L 266.2 185.6 L 255.6 191.8 L 244.9 185.6 Z M 241.3 183.4 L 238.6 183.4 L 238.6 187.8 L 241.3 187.8 L 255.6 196.1 L 269.8 187.8 L 272.6 187.8 L 272.6 183.4 L 269.8 183.4 L 255.6 175.1 Z M 241.3 183.4 " transform="matrix(0.9375,0,0,0.9375,-80,0)"/>
<path style="fill-rule:nonzero;fill:rgb(97.254902%,84.705883%,5.490196%);fill-opacity:1;stroke-width:1;stroke-linecap:butt;stroke-linejoin:miter;stroke:rgb(0%,0%,0%);stroke-opacity:1;stroke-miterlimit:4;" d="M 255.3 164.3 C 252.895833 164.7875 251.2 166.95 251.3 169.4 L 251.3 180.6 C 251.491667 183.058333 253.441667 185.008333 255.9 185.2 C 257.920833 185.325 259.8125 184.216667 260.7 182.4 L 259 181.4 C 258.4875 182.583333 257.283333 183.304167 256 183.2 C 254.4 183.2 253.1 181.6 253.3 180.1 L 253.3 168.9 C 253.5 167.4 254.7875 166.2875 256.3 166.3 C 256.9 166.1 257.8 167 258.2 166.3 C 258.8 165.4 257.8 164.8 257.2 164.3 Z M 261.1 168.2 C 260.6125 168.883333 259.958333 169.433333 259.2 169.8 L 259.2 177.3 L 261.2 178.4 L 261.2 168.2 Z M 261.1 168.2 " transform="matrix(0.9375,0,0,0.9375,-80,0)"/>
<path style=" stroke:none;fill-rule:nonzero;fill:rgb(0%,0%,0.392157%);fill-opacity:1;" d="M 145.75 36 L 173.21875 36 L 173.21875 85.875 L 145.75 85.875 Z M 145.75 36 "/>
<path style="fill-rule:nonzero;fill:rgb(85.490197%,0%,4.705882%);fill-opacity:1;stroke-width:1;stroke-linecap:butt;stroke-linejoin:miter;stroke:rgb(0%,0%,0%);stroke-opacity:1;stroke-miterlimit:4;" d="M 238.8 38.4 L 238.8 82.9 L 248.1 82.9 L 248.1 69.7 C 248.1 66.7 250.1 62.4 256 62.4 C 261.9 62.4 264 66.7 264 69.7 L 264 83 L 273.2 83 L 273.2 38.4 Z M 254.6 43.4 L 257.4 43.4 L 257.4 58.6 L 254.6 58.6 Z M 246.3 46.4 L 249.3 46.4 L 249.3 57.5 L 246.3 57.5 Z M 262.8 46.4 L 265.7 46.4 L 265.7 57.5 L 262.7 57.5 Z M 235.6 32 L 235.6 38.3 L 276.4 38.3 L 276.4 32 Z M 231.8 24.6 L 231.8 32 L 280.3 32 L 280.3 24.6 L 274.2 24.6 L 274.2 28.6 L 267.2 28.6 L 267.2 24.6 L 259.4 24.6 L 259.4 28.6 L 252.6 28.6 L 252.6 24.6 L 244.7 24.6 L 244.7 28.6 L 238 28.6 L 238 24.6 Z M 222.8 97.8 L 222.8 102.4 L 289.3 102.4 L 289.3 97.8 Z M 222.8 97.8 " transform="matrix(0.9375,0,0,0.9375,-80,0)"/>
<path style="fill-rule:nonzero;fill:rgb(85.490197%,0%,4.705882%);fill-opacity:1;stroke-width:1;stroke-linecap:butt;stroke-linejoin:miter;stroke:rgb(0%,0%,0%);stroke-opacity:1;stroke-miterlimit:4;" d="M 220 82.9 L 220 97.9 L 292 97.9 L 292 82.9 L 285.2 82.9 L 285.2 88.7 L 276 88.7 L 276 82.9 L 263.8 82.9 L 263.8 88.7 L 248 88.7 L 248 82.9 L 235.8 82.9 L 235.8 88.7 L 226.8 88.7 L 226.8 82.9 Z M 220 82.9 " transform="matrix(0.9375,0,0,0.9375,-80,0)"/>
<path style="fill-rule:nonzero;fill:rgb(85.490197%,0%,4.705882%);fill-opacity:1;stroke-width:1;stroke-linecap:butt;stroke-linejoin:round;stroke:rgb(0%,0%,0%);stroke-opacity:1;stroke-miterlimit:4;" d="M 228.7 102.4 L 228.7 156.8 L 241.5 156.8 L 241.5 136.4 C 241.5 126.9 247.9 122.4 256 122.4 C 263.8 122.4 270.5 126.9 270.5 136.4 L 270.5 156.8 L 283.3 156.8 L 283.3 102.4 Z M 228.7 102.4 " transform="matrix(0.9375,0,0,0.9375,-80,0)"/>
</g>
</svg>
