<?xml version="1.0" encoding="UTF-8"?>
<svg xmlns="http://www.w3.org/2000/svg" xmlns:xlink="http://www.w3.org/1999/xlink" width="px" height="px" viewBox="0 0 320 240" version="1.1">
<g id="surface1">
<path style=" stroke:none;fill-rule:evenodd;fill:rgb(5.098039%,36.862746%,68.627453%);fill-opacity:1;" d="M 0 0 L 320 0 L 320 26.648438 L 0 26.648438 Z M 0 0 "/>
<path style=" stroke:none;fill-rule:evenodd;fill:rgb(100%,100%,100%);fill-opacity:1;" d="M 0 26.648438 L 320 26.648438 L 320 53.351562 L 0 53.351562 Z M 0 26.648438 "/>
<path style=" stroke:none;fill-rule:evenodd;fill:rgb(5.098039%,36.862746%,68.627453%);fill-opacity:1;" d="M 0 53.351562 L 320 53.351562 L 320 80 L 0 80 Z M 0 53.351562 "/>
<path style=" stroke:none;fill-rule:evenodd;fill:rgb(100%,100%,100%);fill-opacity:1;" d="M 0 80 L 320 80 L 320 106.648438 L 0 106.648438 Z M 0 80 "/>
<path style=" stroke:none;fill-rule:nonzero;fill:rgb(5.098039%,36.862746%,68.627453%);fill-opacity:1;" d="M 0 0 L 133.351562 0 L 133.351562 133.351562 L 0 133.351562 Z M 0 0 "/>
<path style=" stroke:none;fill-rule:evenodd;fill:rgb(5.098039%,36.862746%,68.627453%);fill-opacity:1;" d="M 0 106.648438 L 320 106.648438 L 320 133.351562 L 0 133.351562 Z M 0 106.648438 "/>
<path style=" stroke:none;fill-rule:evenodd;fill:rgb(100%,100%,100%);fill-opacity:1;" d="M 0 133.351562 L 320 133.351562 L 320 160 L 0 160 Z M 0 133.351562 "/>
<path style=" stroke:none;fill-rule:evenodd;fill:rgb(5.098039%,36.862746%,68.627453%);fill-opacity:1;" d="M 0 160 L 320 160 L 320 186.648438 L 0 186.648438 Z M 0 160 "/>
<path style=" stroke:none;fill-rule:evenodd;fill:rgb(100%,100%,100%);fill-opacity:1;" d="M 0 186.648438 L 320 186.648438 L 320 213.351562 L 0 213.351562 Z M 0 186.648438 "/>
<path style=" stroke:none;fill-rule:evenodd;fill:rgb(100%,100%,100%);fill-opacity:1;" d="M 53.351562 0 L 80 0 L 80 133.351562 L 53.351562 133.351562 Z M 53.351562 0 "/>
<path style=" stroke:none;fill-rule:evenodd;fill:rgb(100%,100%,100%);fill-opacity:1;" d="M 0 53.351562 L 133.351562 53.351562 L 133.351562 80 L 0 80 Z M 0 53.351562 "/>
<path style=" stroke:none;fill-rule:nonzero;fill:rgb(5.098039%,36.862746%,68.627453%);fill-opacity:1;" d="M 0 213.351562 L 320 213.351562 L 320 240 L 0 240 Z M 0 213.351562 "/>
</g>
</svg>
