<?xml version="1.0" encoding="UTF-8"?>
<svg xmlns="http://www.w3.org/2000/svg" xmlns:xlink="http://www.w3.org/1999/xlink" width="px" height="px" viewBox="0 0 320 240" version="1.1">
<g id="surface1">
<rect x="0" y="0" width="320" height="240" style="fill:rgb(74.509805%,0%,15.294118%);fill-opacity:1;stroke:none;"/>
<path style=" stroke:none;fill-rule:evenodd;fill:rgb(23.137255%,35.294119%,63.921571%);fill-opacity:1;" d="M 12.800781 13.648438 L 307.550781 13.648438 L 307.550781 227.851562 L 12.800781 227.851562 Z M 12.800781 13.648438 "/>
<path style=" stroke:none;fill-rule:evenodd;fill:rgb(79.607844%,87.843138%,89.803922%);fill-opacity:1;" d="M 157.199219 206.601562 C 158.523438 207.230469 160.058594 207.25 161.398438 206.648438 C 230.300781 170 230.300781 69.5 161.449219 33.351562 C 160.0625 32.71875 158.457031 32.753906 157.101562 33.449219 C 89.949219 70.148438 89.75 169.5 157.148438 206.601562 Z M 157.199219 206.601562 "/>
<path style=" stroke:none;fill-rule:evenodd;fill:rgb(67.843139%,82.352942%,85.09804%);fill-opacity:1;" d="M 157.199219 208.449219 C 158.199219 209.300781 160.398438 209.199219 161.398438 208.449219 C 212.148438 170.449219 212.398438 146.800781 210.199219 146.800781 L 109.699219 146.800781 C 108.199219 146.800781 110.601562 170.898438 157.199219 208.449219 "/>
<path style=" stroke:none;fill-rule:evenodd;fill:rgb(99.215686%,97.647059%,63.137257%);fill-opacity:1;" d="M 117.648438 165.601562 C 122.246094 164.148438 127.214844 164.453125 131.601562 166.449219 C 135.398438 168.449219 137.601562 168.449219 141.699219 168.449219 C 146 168.550781 149.351562 171.699219 154 171.851562 C 162.550781 172.050781 166.148438 176.300781 159.5 176.351562 C 156.398438 176.351562 149.648438 174.199219 146.398438 174.648438 C 139.601562 175.351562 135.300781 176.851562 128.898438 184 L 136.300781 189 C 142.699219 186.449219 143.75 183.5 147.300781 183.398438 C 151.300781 183.25 152.648438 180.800781 157.300781 180.800781 C 162.851562 181.257812 168.441406 180.71875 173.800781 179.199219 C 181.199219 177.5 177.699219 172.300781 173.199219 170.449219 C 169.550781 168.898438 162.800781 170.398438 158.601562 168.851562 C 155.398438 167.601562 158 165.601562 159.75 165.199219 C 161.449219 164.851562 163.300781 165.449219 165.449219 165.800781 C 169.300781 166.101562 174.148438 165.75 177.5 165.199219 C 184.5 164.148438 184.199219 162.101562 187.5 162.050781 C 190 161.898438 191.851562 161.199219 193.5 160 C 195.5 158.648438 197.550781 156 199.949219 156.101562 L 206.300781 156.351562 L 197.300781 176.550781 L 171.949219 202.398438 L 158.800781 207.398438 L 129.898438 188.550781 L 115.351562 166.199219 Z M 117.648438 165.601562 "/>
<path style=" stroke:none;fill-rule:evenodd;fill:rgb(9.019608%,60.392159%,23.137255%);fill-opacity:1;" d="M 150.898438 146 L 208.898438 145.699219 L 209.898438 140.550781 C 209.898438 140.550781 207.851562 140.25 206.148438 140.148438 C 204.101562 140 200.5 142.351562 198.148438 142.300781 C 196.398438 142.300781 194.5 139.300781 192.800781 139.300781 C 189.800781 139.300781 189.601562 141.949219 186.800781 142.050781 C 184.550781 141.949219 183.601562 140.25 180.648438 140.449219 C 177.699219 140.648438 177.851562 142.300781 174 142.199219 C 168.898438 142.050781 166.851562 137.648438 162.75 137.601562 C 155.949219 137.5 155.75 144.101562 150.851562 145.949219 Z M 150.898438 146 "/>
<path style=" stroke:none;fill-rule:evenodd;fill:rgb(99.215686%,97.647059%,63.137257%);fill-opacity:1;" d="M 150.898438 147.199219 L 210.601562 146.898438 L 210.601562 145.300781 L 149.5 145.601562 Z M 150.898438 147.199219 "/>
<path style=" stroke:none;fill-rule:evenodd;fill:rgb(65.490198%,57.254905%,43.921569%);fill-opacity:1;" d="M 175.398438 165.148438 C 176.351562 168.648438 177.300781 169.851562 181 170.800781 C 184.648438 171.648438 190.25 168.101562 186.800781 164.648438 C 183.5 161.449219 180 160.648438 177.050781 157.75 C 170.800781 151.601562 161.398438 136.5 161.398438 125.851562 C 161.398438 116.699219 160.5 97.949219 160.5 80.199219 C 160.5 79.050781 157 83.398438 157 84.601562 C 157.199219 100.25 157.199219 112.101562 157.800781 127.898438 C 158.800781 139.449219 164.300781 147.25 169.148438 154.25 C 171.300781 157.648438 174.449219 161.25 175.398438 165.148438 "/>
<path style=" stroke:none;fill-rule:evenodd;fill:rgb(13.725491%,61.960787%,27.450982%);fill-opacity:1;" d="M 129.800781 80.449219 C 129.050781 81.949219 131.601562 80 132.199219 79.800781 C 135.550781 78.601562 136.851562 74.398438 142.601562 76.949219 C 147.101562 78.898438 153.148438 77.75 150 79.75 C 146.101562 82.101562 138.25 84.699219 138.101562 96.351562 C 138.75 97.449219 138.800781 97.300781 139.351562 96.050781 C 140.550781 93.351562 146.199219 86 149 86.601562 C 150.148438 86.898438 153.449219 83.25 153.5 84.300781 C 153.851562 87.199219 149 93.101562 149.101562 100.949219 C 149.101562 102.800781 151.351562 103.398438 152.398438 102.101562 C 153.5 100.949219 154.101562 99.800781 156 98.300781 C 159.300781 95.601562 158.398438 84 158.800781 84.550781 C 161.148438 87.550781 161.5 96.199219 165 99.699219 C 167.949219 102.648438 170.300781 101.199219 169.648438 97.199219 C 168.398438 89 164.550781 91.351562 162.699219 82.898438 C 162.300781 81.25 162.199219 79.800781 164.398438 80.449219 C 167.050781 81.25 168.648438 82.449219 170.601562 85.449219 C 172.601562 88.351562 176.300781 91.101562 178.449219 92.75 C 182.199219 95.648438 183.550781 93.148438 181.75 89.449219 C 179.449219 85.257812 175.726562 82.03125 171.25 80.351562 C 168.148438 79.25 167.050781 79.148438 164.351562 78.648438 C 163.601562 78.5 162.851562 76.949219 164.148438 76.101562 C 167.046875 74.023438 170.414062 72.703125 173.949219 72.25 C 177.300781 72.148438 179.949219 74.851562 182.300781 75.550781 C 187 76.75 187 73.800781 184.898438 71.550781 C 183.199219 69.699219 179.601562 66.550781 176.25 67 C 169.5 67.851562 169.949219 67.648438 165.75 70.398438 C 164.25 71.300781 162.550781 72.300781 163.199219 71.199219 C 164.699219 68.449219 163.300781 68.949219 165.648438 66.148438 C 167.449219 64.148438 168.800781 62.648438 170.648438 62.148438 C 172.351562 61.699219 174.648438 59.898438 175.300781 58.949219 C 177 56.648438 175.550781 55.300781 172.949219 56.101562 C 170.648438 56.699219 169.449219 58.199219 167.949219 58.601562 C 164.25 59.800781 161.300781 68.101562 160.851562 69.300781 C 160.300781 70.699219 159.648438 70 159.75 68.800781 C 160.25 62.949219 160.75 53.050781 158.75 49 C 155.550781 43 155.851562 45.800781 154.648438 48.648438 C 152.851562 53.148438 153.5 57.398438 154.648438 61.800781 C 155.148438 64 156.949219 66.5 157.300781 68.25 C 157.550781 69.601562 156.5 67.851562 155.898438 67 C 153.949219 64 152.5 62 149.300781 60.351562 C 146.105469 59.027344 142.589844 58.679688 139.199219 59.351562 C 138.300781 59.648438 140.199219 60.949219 140.949219 61.550781 C 143.101562 63.25 147.148438 63.800781 149.949219 65.5 C 152.25 66.949219 154.050781 67.851562 154.851562 69.851562 C 155.148438 71.351562 155.648438 73.550781 154.648438 73.5 C 152.101562 73.351562 148.148438 71.101562 139.949219 72 C 135.75 72.601562 132.148438 76.148438 129.800781 80.449219 "/>
<path style=" stroke:none;fill-rule:evenodd;fill:rgb(0%,0%,0%);fill-opacity:1;" d="M 147.648438 155.300781 L 150 155.300781 L 150 159.25 L 147.648438 159.25 Z M 147.648438 155.300781 "/>
<path style=" stroke:none;fill-rule:evenodd;fill:rgb(99.215686%,97.647059%,100%);fill-opacity:1;" d="M 135.851562 128.949219 C 145.25 141.949219 160.351562 149.550781 160.648438 155.449219 L 131.25 155.449219 C 138 147.351562 142.148438 141.851562 135.851562 128.949219 "/>
<path style=" stroke:none;fill-rule:evenodd;fill:rgb(65.098041%,53.333336%,38.039216%);fill-opacity:1;" d="M 127.300781 155.75 C 140.101562 158.601562 155.351562 160.199219 165.101562 155.351562 C 165.199219 158.199219 161.949219 162.351562 159.25 162.351562 L 134.75 162.351562 C 137.601562 161.898438 139.25 161.050781 143.851562 160.851562 L 130.851562 160.949219 C 129.351562 161 126.851562 157.148438 127.300781 155.75 "/>
<path style=" stroke:none;fill-rule:evenodd;fill:rgb(74.509805%,0%,15.294118%);fill-opacity:1;" d="M 156.300781 212.5 C 157.601562 213.25 159.648438 213.199219 160.800781 212.601562 C 234.699219 173.25 234.75 65.398438 160.898438 26.601562 C 159.398438 25.929688 157.671875 25.964844 156.199219 26.699219 C 84.199219 66.101562 84 172.699219 156.300781 212.550781 Z M 156.648438 203.648438 C 157.902344 204.289062 159.382812 204.308594 160.648438 203.699219 C 222.449219 167.300781 223.199219 71.148438 160.699219 36.699219 C 159.5 35.800781 157.75 36.101562 156.550781 36.699219 C 97.351562 71.75 94.050781 163.949219 156.648438 203.648438 "/>
<path style=" stroke:none;fill-rule:nonzero;fill:rgb(74.117649%,2.745098%,15.686275%);fill-opacity:1;" d="M 134.398438 112.699219 C 135.535156 112.699219 136.535156 112.933594 137.398438 113.398438 C 138.566406 114 139.285156 115.101562 139.550781 116.699219 L 138 116.699219 C 137.800781 115.832031 137.367188 115.167969 136.699219 114.699219 C 136.101562 114.300781 135.316406 114.101562 134.351562 114.101562 C 133.25 114.101562 132.300781 114.550781 131.5 115.449219 C 130.734375 116.285156 130.351562 117.550781 130.351562 119.25 C 130.351562 120.648438 130.667969 121.816406 131.300781 122.75 C 131.964844 123.648438 133.015625 124.101562 134.449219 124.101562 C 135.550781 124.101562 136.449219 123.785156 137.148438 123.148438 C 137.917969 122.515625 138.300781 121.484375 138.300781 120.050781 L 134.5 120.050781 L 134.5 118.699219 L 139.800781 118.699219 L 139.800781 125.199219 L 138.75 125.199219 L 138.351562 123.601562 C 137.816406 124.234375 137.316406 124.683594 136.851562 124.949219 C 136.117188 125.351562 135.199219 125.550781 134.101562 125.550781 C 132.667969 125.550781 131.417969 125.082031 130.351562 124.148438 C 129.214844 122.949219 128.648438 121.332031 128.648438 119.300781 C 128.648438 117.265625 129.199219 115.648438 130.300781 114.449219 C 131.367188 113.285156 132.734375 112.699219 134.398438 112.699219 M 134.101562 112.699219 "/>
<path style=" stroke:none;fill-rule:nonzero;fill:rgb(74.117649%,2.745098%,15.686275%);fill-opacity:1;" d="M 146.199219 113.050781 L 146.199219 120.648438 C 146.199219 121.515625 146.367188 122.234375 146.699219 122.800781 C 147.167969 123.699219 148 124.148438 149.199219 124.148438 C 150.566406 124.148438 151.515625 123.683594 152.050781 122.75 C 152.316406 122.214844 152.449219 121.515625 152.449219 120.648438 L 152.449219 113 L 154.148438 113 L 154.148438 119.898438 C 154.148438 121.367188 153.917969 122.535156 153.449219 123.398438 C 152.75 124.832031 151.382812 125.550781 149.351562 125.550781 C 147.25 125.550781 145.832031 124.816406 145.101562 123.351562 C 144.699219 122.515625 144.5 121.367188 144.5 119.898438 L 144.5 113 Z M 149.351562 113.050781 "/>
<path style=" stroke:none;fill-rule:nonzero;fill:rgb(74.117649%,2.745098%,15.686275%);fill-opacity:1;" d="M 169.199219 120.25 L 167.351562 114.898438 L 165.351562 120.25 Z M 166.5 113 L 168.351562 113 L 172.851562 125.25 L 170.949219 125.25 L 169.75 121.601562 L 164.898438 121.601562 L 163.550781 125.25 L 161.898438 125.25 Z M 166.5 113 "/>
<path style=" stroke:none;fill-rule:nonzero;fill:rgb(74.117649%,2.745098%,15.686275%);fill-opacity:1;" d="M 178.5 113 L 180.949219 113 L 184.398438 123.351562 L 187.898438 113 L 190.25 113 L 190.25 125.199219 L 188.648438 125.199219 L 188.648438 114.898438 L 185.148438 125.199219 L 183.601562 125.199219 L 180.101562 114.898438 L 180.101562 125.199219 L 178.5 125.199219 Z M 178.5 113 "/>
</g>
</svg>
