<?xml version="1.0" encoding="UTF-8"?>
<svg xmlns="http://www.w3.org/2000/svg" xmlns:xlink="http://www.w3.org/1999/xlink" width="px" height="px" viewBox="0 0 320 240" version="1.1">
<g id="surface1">
<rect x="0" y="0" width="320" height="240" style="fill:rgb(0%,0%,54.509807%);fill-opacity:1;stroke:none;"/>
<path style=" stroke:none;fill-rule:nonzero;fill:rgb(100%,100%,100%);fill-opacity:1;" d="M 18.75 0 L 79.75 45.25 L 140.5 0 L 160 0 L 160 15.5 L 100 60.25 L 160 104.75 L 160 120 L 140 120 L 80 75.25 L 20.25 120 L 0 120 L 0 105 L 59.75 60.5 L 0 16 L 0 0 Z M 18.75 0 "/>
<path style=" stroke:none;fill-rule:nonzero;fill:rgb(100%,0%,0%);fill-opacity:1;" d="M 106 70.25 L 160 110 L 160 120 L 92.25 70.25 Z M 60 75.25 L 61.5 84 L 13.5 120 L 0 120 Z M 160 0 L 160 0.75 L 97.75 47.75 L 98.25 36.75 L 147.5 0 Z M 0 0 L 59.75 44 L 44.75 44 L 0 10.5 Z M 0 0 "/>
<path style=" stroke:none;fill-rule:nonzero;fill:rgb(100%,100%,100%);fill-opacity:1;" d="M 60.25 0 L 60.25 120 L 100.25 120 L 100.25 0 Z M 0 40 L 0 80 L 160 80 L 160 40 Z M 0 40 "/>
<path style=" stroke:none;fill-rule:nonzero;fill:rgb(100%,0%,0%);fill-opacity:1;" d="M 0 48.25 L 0 72.25 L 160 72.25 L 160 48.25 Z M 68.25 0 L 68.25 120 L 92.25 120 L 92.25 0 Z M 68.25 0 "/>
<path style=" stroke:none;fill-rule:nonzero;fill:rgb(100%,100%,100%);fill-opacity:1;" d="M 263.5 198.351562 L 253.25 199.648438 L 254.351562 209.898438 L 246.949219 202.699219 L 239.601562 209.949219 L 240.601562 199.699219 L 230.351562 198.5 L 239 192.898438 L 233.550781 184.148438 L 243.351562 187.398438 L 246.800781 177.648438 L 250.351562 187.351562 L 260.101562 184 L 254.75 192.800781 Z M 261.648438 139.75 L 263 133.25 L 258.101562 128.75 L 264.699219 128 L 267.449219 121.949219 L 270.199219 128 L 276.800781 128.75 L 271.898438 133.25 L 273.25 139.75 L 267.449219 136.449219 Z M 209.601562 109.75 L 199.449219 110.851562 L 200.351562 121 L 193.148438 113.75 L 185.75 120.800781 L 186.949219 110.648438 L 176.851562 109.300781 L 185.5 103.898438 L 180.25 95.148438 L 189.898438 98.550781 L 193.5 89 L 196.851562 98.648438 L 206.550781 95.5 L 201.101562 104.148438 L 209.648438 109.75 Z M 311.5 93.351562 L 301.050781 94.699219 L 302.199219 105.148438 L 294.648438 97.800781 L 287.148438 105.199219 L 288.199219 94.699219 L 277.75 93.5 L 286.601562 87.75 L 281.050781 78.800781 L 291.050781 82.148438 L 294.550781 72.25 L 298.148438 82.148438 L 308.101562 78.699219 L 302.601562 87.699219 Z M 263.449219 51.601562 L 253.101562 52.75 L 254.050781 63.148438 L 246.699219 55.75 L 239.148438 62.949219 L 240.351562 52.601562 L 230 51.199219 L 238.851562 45.699219 L 233.5 36.75 L 243.351562 40.199219 L 247 30.449219 L 250.398438 40.300781 L 260.300781 37.050781 L 254.75 45.851562 Z M 117 192.851562 L 94.101562 195.550781 L 96.398438 218.5 L 80 202.300781 L 63.5 218.398438 L 65.949219 195.449219 L 43.050781 192.550781 L 62.5 180.148438 L 50.5 160.449219 L 72.300781 167.949219 L 80.199219 146.25 L 87.949219 168 L 109.800781 160.648438 L 97.648438 180.25 L 117.050781 192.800781 Z M 117 192.851562 "/>
</g>
</svg>
