<?xml version="1.0" encoding="UTF-8"?>
<svg xmlns="http://www.w3.org/2000/svg" xmlns:xlink="http://www.w3.org/1999/xlink" width="px" height="px" viewBox="0 0 320 240" version="1.1">
<g id="surface1">
<rect x="0" y="0" width="320" height="240" style="fill:rgb(100%,100%,100%);fill-opacity:1;stroke:none;"/>
<path style=" stroke:none;fill-rule:evenodd;fill:rgb(0%,21.960784%,72.156864%);fill-opacity:1;" d="M 332.167969 54.144531 L -11.589844 54.144531 L -11.589844 22.558594 L 332.167969 22.558594 Z M 332.167969 218.878906 L -11.589844 218.878906 L -11.589844 187.296875 L 332.167969 187.296875 Z M 105.15625 89.628906 L 156.90625 179.679688 L 209.78125 90.050781 Z M 105.15625 89.628906 "/>
<path style=" stroke:none;fill-rule:evenodd;fill:rgb(100%,100%,100%);fill-opacity:1;" d="M 147.175781 149.367188 L 157 166.050781 L 167.058594 149.460938 Z M 147.175781 149.367188 "/>
<path style=" stroke:none;fill-rule:evenodd;fill:rgb(0%,21.960784%,72.156864%);fill-opacity:1;" d="M 104.96875 150.683594 L 156.765625 60.628906 L 209.59375 150.304688 Z M 104.96875 150.683594 "/>
<path style=" stroke:none;fill-rule:evenodd;fill:rgb(100%,100%,100%);fill-opacity:1;" d="M 147.175781 90.050781 L 157 73.367188 L 167.058594 90.003906 Z M 126.589844 127.417969 L 116.390625 144.335938 L 135.660156 144.289062 L 126.589844 127.371094 Z M 116.578125 96.160156 L 135.941406 96.304688 L 126.636719 113.363281 Z M 187.644531 127.652344 L 197.464844 144.335938 L 177.867188 144.101562 Z M 197.277344 96.160156 L 177.914062 96.304688 L 187.21875 113.363281 Z M 143.558594 96.160156 L 130.210938 120.320312 L 143.746094 143.960938 L 168.5625 144.523438 L 183.601562 120.320312 L 169.6875 95.878906 Z M 143.558594 96.160156 "/>
</g>
</svg>
