<?xml version="1.0" encoding="UTF-8"?>
<svg xmlns="http://www.w3.org/2000/svg" xmlns:xlink="http://www.w3.org/1999/xlink" width="px" height="px" viewBox="0 0 320 240" version="1.1">
<g id="surface1">
<path style=" stroke:none;fill-rule:nonzero;fill:rgb(100%,60.000002%,20%);fill-opacity:1;" d="M 0 0 L 320 0 L 320 80 L 0 80 Z M 0 0 "/>
<path style=" stroke:none;fill-rule:nonzero;fill:rgb(100%,100%,100%);fill-opacity:1;" d="M 0 80 L 320 80 L 320 160 L 0 160 Z M 0 80 "/>
<path style=" stroke:none;fill-rule:nonzero;fill:rgb(7.058824%,53.333336%,2.745098%);fill-opacity:1;" d="M 0 160 L 320 160 L 320 240 L 0 240 Z M 0 160 "/>
<path style=" stroke:none;fill-rule:nonzero;fill:rgb(0%,0%,53.333336%);fill-opacity:1;" d="M 192 120 C 192 102.328125 177.671875 88 160 88 C 142.328125 88 128 102.328125 128 120 C 128 137.671875 142.328125 152 160 152 C 177.671875 152 192 137.671875 192 120 Z M 192 120 "/>
<path style=" stroke:none;fill-rule:nonzero;fill:rgb(100%,100%,100%);fill-opacity:1;" d="M 188 120 C 188 104.535156 175.464844 92 160 92 C 144.535156 92 132 104.535156 132 120 C 132 135.464844 144.535156 148 160 148 C 175.464844 148 188 135.464844 188 120 Z M 188 120 "/>
<path style=" stroke:none;fill-rule:nonzero;fill:rgb(0%,0%,53.333336%);fill-opacity:1;" d="M 165.601562 120 C 165.601562 116.90625 163.09375 114.398438 160 114.398438 C 156.90625 114.398438 154.398438 116.90625 154.398438 120 C 154.398438 123.09375 156.90625 125.601562 160 125.601562 C 163.09375 125.601562 165.601562 123.09375 165.601562 120 Z M 165.601562 120 "/>
<path style=" stroke:none;fill-rule:nonzero;fill:rgb(0%,0%,53.333336%);fill-opacity:1;" d="M 189.1875 123.851562 C 189.292969 123.066406 188.738281 122.339844 187.949219 122.238281 C 187.160156 122.132812 186.4375 122.6875 186.332031 123.476562 C 186.226562 124.265625 186.785156 124.988281 187.570312 125.09375 C 188.359375 125.195312 189.082031 124.640625 189.1875 123.851562 Z M 189.1875 123.851562 "/>
<path style=" stroke:none;fill-rule:nonzero;fill:rgb(0%,0%,53.333336%);fill-opacity:1;" d="M 160 148 L 160.960938 131.199219 L 160 123.199219 L 159.039062 131.199219 Z M 160 148 "/>
<path style=" stroke:none;fill-rule:nonzero;fill:rgb(0%,0%,53.333336%);fill-opacity:1;" d="M 187.195312 131.277344 C 187.5 130.542969 187.152344 129.699219 186.417969 129.394531 C 185.683594 129.089844 184.839844 129.4375 184.535156 130.175781 C 184.230469 130.910156 184.578125 131.75 185.3125 132.054688 C 186.050781 132.359375 186.890625 132.011719 187.195312 131.277344 Z M 187.195312 131.277344 "/>
<path style=" stroke:none;fill-rule:nonzero;fill:rgb(0%,0%,53.333336%);fill-opacity:1;" d="M 152.753906 147.046875 L 158.027344 131.066406 L 159.171875 123.089844 L 156.175781 130.570312 Z M 152.753906 147.046875 "/>
<path style=" stroke:none;fill-rule:nonzero;fill:rgb(0%,0%,53.333336%);fill-opacity:1;" d="M 183.351562 137.929688 C 183.835938 137.300781 183.714844 136.394531 183.085938 135.910156 C 182.453125 135.425781 181.550781 135.546875 181.066406 136.175781 C 180.582031 136.808594 180.699219 137.710938 181.332031 138.195312 C 181.960938 138.679688 182.867188 138.5625 183.351562 137.929688 Z M 183.351562 137.929688 "/>
<path style=" stroke:none;fill-rule:nonzero;fill:rgb(0%,0%,53.333336%);fill-opacity:1;" d="M 146 144.25 L 155.230469 130.179688 L 158.398438 122.769531 L 153.570312 129.21875 Z M 146 144.25 "/>
<path style=" stroke:none;fill-rule:nonzero;fill:rgb(0%,0%,53.333336%);fill-opacity:1;" d="M 177.914062 143.363281 C 178.546875 142.878906 178.664062 141.976562 178.179688 141.34375 C 177.695312 140.714844 176.792969 140.59375 176.160156 141.078125 C 175.53125 141.5625 175.410156 142.464844 175.894531 143.097656 C 176.378906 143.726562 177.285156 143.847656 177.914062 143.363281 Z M 177.914062 143.363281 "/>
<path style=" stroke:none;fill-rule:nonzero;fill:rgb(0%,0%,53.333336%);fill-opacity:1;" d="M 140.199219 139.800781 L 152.757812 128.597656 L 157.738281 122.261719 L 151.402344 127.242188 Z M 140.199219 139.800781 "/>
<path style=" stroke:none;fill-rule:nonzero;fill:rgb(0%,0%,53.333336%);fill-opacity:1;" d="M 171.257812 147.203125 C 171.992188 146.898438 172.339844 146.058594 172.035156 145.324219 C 171.730469 144.585938 170.890625 144.238281 170.15625 144.542969 C 169.421875 144.847656 169.070312 145.691406 169.375 146.425781 C 169.679688 147.160156 170.523438 147.507812 171.257812 147.203125 Z M 171.257812 147.203125 "/>
<path style=" stroke:none;fill-rule:nonzero;fill:rgb(0%,0%,53.333336%);fill-opacity:1;" d="M 135.75 134 L 150.78125 126.429688 L 157.230469 121.601562 L 149.820312 124.769531 Z M 135.75 134 "/>
<path style=" stroke:none;fill-rule:nonzero;fill:rgb(0%,0%,53.333336%);fill-opacity:1;" d="M 163.832031 149.191406 C 164.621094 149.085938 165.175781 148.363281 165.070312 147.574219 C 164.96875 146.785156 164.246094 146.230469 163.457031 146.335938 C 162.667969 146.4375 162.113281 147.164062 162.21875 147.949219 C 162.320312 148.738281 163.042969 149.292969 163.832031 149.191406 Z M 163.832031 149.191406 "/>
<path style=" stroke:none;fill-rule:nonzero;fill:rgb(0%,0%,53.333336%);fill-opacity:1;" d="M 132.953125 127.246094 L 149.429688 123.824219 L 156.910156 120.828125 L 148.933594 121.972656 Z M 132.953125 127.246094 "/>
<path style=" stroke:none;fill-rule:nonzero;fill:rgb(0%,0%,53.333336%);fill-opacity:1;" d="M 156.148438 149.1875 C 156.933594 149.292969 157.660156 148.738281 157.761719 147.949219 C 157.867188 147.160156 157.3125 146.4375 156.523438 146.332031 C 155.734375 146.226562 155.011719 146.785156 154.90625 147.570312 C 154.804688 148.359375 155.359375 149.082031 156.148438 149.1875 Z M 156.148438 149.1875 "/>
<path style=" stroke:none;fill-rule:nonzero;fill:rgb(0%,0%,53.333336%);fill-opacity:1;" d="M 132 120 L 148.800781 120.960938 L 156.800781 120 L 148.800781 119.039062 Z M 132 120 "/>
<path style=" stroke:none;fill-rule:nonzero;fill:rgb(0%,0%,53.333336%);fill-opacity:1;" d="M 148.722656 147.195312 C 149.457031 147.5 150.300781 147.152344 150.605469 146.417969 C 150.910156 145.683594 150.5625 144.839844 149.824219 144.535156 C 149.089844 144.230469 148.25 144.578125 147.945312 145.3125 C 147.640625 146.050781 147.988281 146.890625 148.722656 147.195312 Z M 148.722656 147.195312 "/>
<path style=" stroke:none;fill-rule:nonzero;fill:rgb(0%,0%,53.333336%);fill-opacity:1;" d="M 132.953125 112.753906 L 148.933594 118.027344 L 156.910156 119.171875 L 149.429688 116.175781 Z M 132.953125 112.753906 "/>
<path style=" stroke:none;fill-rule:nonzero;fill:rgb(0%,0%,53.333336%);fill-opacity:1;" d="M 142.070312 143.351562 C 142.699219 143.835938 143.605469 143.714844 144.089844 143.085938 C 144.574219 142.453125 144.453125 141.550781 143.824219 141.066406 C 143.191406 140.582031 142.289062 140.699219 141.804688 141.332031 C 141.320312 141.960938 141.4375 142.867188 142.070312 143.351562 Z M 142.070312 143.351562 "/>
<path style=" stroke:none;fill-rule:nonzero;fill:rgb(0%,0%,53.333336%);fill-opacity:1;" d="M 135.75 106 L 149.820312 115.230469 L 157.230469 118.398438 L 150.78125 113.570312 Z M 135.75 106 "/>
<path style=" stroke:none;fill-rule:nonzero;fill:rgb(0%,0%,53.333336%);fill-opacity:1;" d="M 136.636719 137.914062 C 137.121094 138.546875 138.023438 138.664062 138.65625 138.179688 C 139.285156 137.695312 139.40625 136.792969 138.921875 136.160156 C 138.4375 135.53125 137.535156 135.410156 136.902344 135.894531 C 136.273438 136.378906 136.152344 137.285156 136.636719 137.914062 Z M 136.636719 137.914062 "/>
<path style=" stroke:none;fill-rule:nonzero;fill:rgb(0%,0%,53.333336%);fill-opacity:1;" d="M 140.199219 100.199219 L 151.402344 112.757812 L 157.738281 117.738281 L 152.757812 111.402344 Z M 140.199219 100.199219 "/>
<path style=" stroke:none;fill-rule:nonzero;fill:rgb(0%,0%,53.333336%);fill-opacity:1;" d="M 132.796875 131.257812 C 133.101562 131.992188 133.941406 132.339844 134.675781 132.035156 C 135.414062 131.730469 135.761719 130.890625 135.457031 130.15625 C 135.152344 129.421875 134.308594 129.070312 133.574219 129.375 C 132.839844 129.679688 132.492188 130.523438 132.796875 131.257812 Z M 132.796875 131.257812 "/>
<path style=" stroke:none;fill-rule:nonzero;fill:rgb(0%,0%,53.333336%);fill-opacity:1;" d="M 146 95.75 L 153.570312 110.78125 L 158.398438 117.230469 L 155.230469 109.820312 Z M 146 95.75 "/>
<path style=" stroke:none;fill-rule:nonzero;fill:rgb(0%,0%,53.333336%);fill-opacity:1;" d="M 130.808594 123.832031 C 130.914062 124.621094 131.636719 125.175781 132.425781 125.070312 C 133.214844 124.96875 133.769531 124.246094 133.664062 123.457031 C 133.5625 122.667969 132.835938 122.113281 132.050781 122.21875 C 131.261719 122.320312 130.707031 123.042969 130.808594 123.832031 Z M 130.808594 123.832031 "/>
<path style=" stroke:none;fill-rule:nonzero;fill:rgb(0%,0%,53.333336%);fill-opacity:1;" d="M 152.753906 92.953125 L 156.175781 109.429688 L 159.171875 116.910156 L 158.027344 108.933594 Z M 152.753906 92.953125 "/>
<path style=" stroke:none;fill-rule:nonzero;fill:rgb(0%,0%,53.333336%);fill-opacity:1;" d="M 130.8125 116.148438 C 130.707031 116.933594 131.261719 117.660156 132.050781 117.761719 C 132.839844 117.867188 133.5625 117.3125 133.667969 116.523438 C 133.773438 115.734375 133.214844 115.011719 132.429688 114.90625 C 131.640625 114.804688 130.917969 115.359375 130.8125 116.148438 Z M 130.8125 116.148438 "/>
<path style=" stroke:none;fill-rule:nonzero;fill:rgb(0%,0%,53.333336%);fill-opacity:1;" d="M 160 92 L 159.039062 108.800781 L 160 116.800781 L 160.960938 108.800781 Z M 160 92 "/>
<path style=" stroke:none;fill-rule:nonzero;fill:rgb(0%,0%,53.333336%);fill-opacity:1;" d="M 132.804688 108.722656 C 132.5 109.457031 132.847656 110.300781 133.582031 110.605469 C 134.316406 110.910156 135.160156 110.5625 135.464844 109.824219 C 135.769531 109.089844 135.421875 108.25 134.6875 107.945312 C 133.949219 107.640625 133.109375 107.988281 132.804688 108.722656 Z M 132.804688 108.722656 "/>
<path style=" stroke:none;fill-rule:nonzero;fill:rgb(0%,0%,53.333336%);fill-opacity:1;" d="M 167.246094 92.953125 L 161.972656 108.933594 L 160.828125 116.910156 L 163.824219 109.429688 Z M 167.246094 92.953125 "/>
<path style=" stroke:none;fill-rule:nonzero;fill:rgb(0%,0%,53.333336%);fill-opacity:1;" d="M 136.648438 102.070312 C 136.164062 102.699219 136.285156 103.605469 136.914062 104.089844 C 137.546875 104.574219 138.449219 104.453125 138.933594 103.824219 C 139.417969 103.191406 139.300781 102.289062 138.667969 101.804688 C 138.039062 101.320312 137.132812 101.4375 136.648438 102.070312 Z M 136.648438 102.070312 "/>
<path style=" stroke:none;fill-rule:nonzero;fill:rgb(0%,0%,53.333336%);fill-opacity:1;" d="M 174 95.75 L 164.769531 109.820312 L 161.601562 117.230469 L 166.429688 110.78125 Z M 174 95.75 "/>
<path style=" stroke:none;fill-rule:nonzero;fill:rgb(0%,0%,53.333336%);fill-opacity:1;" d="M 142.085938 96.636719 C 141.453125 97.121094 141.335938 98.023438 141.820312 98.65625 C 142.304688 99.285156 143.207031 99.40625 143.839844 98.921875 C 144.46875 98.4375 144.589844 97.535156 144.105469 96.902344 C 143.621094 96.273438 142.714844 96.152344 142.085938 96.636719 Z M 142.085938 96.636719 "/>
<path style=" stroke:none;fill-rule:nonzero;fill:rgb(0%,0%,53.333336%);fill-opacity:1;" d="M 179.800781 100.199219 L 167.242188 111.402344 L 162.261719 117.738281 L 168.597656 112.757812 Z M 179.800781 100.199219 "/>
<path style=" stroke:none;fill-rule:nonzero;fill:rgb(0%,0%,53.333336%);fill-opacity:1;" d="M 148.742188 92.796875 C 148.007812 93.101562 147.660156 93.941406 147.964844 94.675781 C 148.269531 95.414062 149.109375 95.761719 149.84375 95.457031 C 150.578125 95.152344 150.929688 94.308594 150.625 93.574219 C 150.320312 92.839844 149.476562 92.492188 148.742188 92.796875 Z M 148.742188 92.796875 "/>
<path style=" stroke:none;fill-rule:nonzero;fill:rgb(0%,0%,53.333336%);fill-opacity:1;" d="M 184.25 106 L 169.21875 113.570312 L 162.769531 118.398438 L 170.179688 115.230469 Z M 184.25 106 "/>
<path style=" stroke:none;fill-rule:nonzero;fill:rgb(0%,0%,53.333336%);fill-opacity:1;" d="M 156.167969 90.808594 C 155.378906 90.914062 154.824219 91.636719 154.929688 92.425781 C 155.03125 93.214844 155.753906 93.769531 156.542969 93.664062 C 157.332031 93.5625 157.886719 92.835938 157.78125 92.050781 C 157.679688 91.261719 156.957031 90.707031 156.167969 90.808594 Z M 156.167969 90.808594 "/>
<path style=" stroke:none;fill-rule:nonzero;fill:rgb(0%,0%,53.333336%);fill-opacity:1;" d="M 187.046875 112.753906 L 170.570312 116.175781 L 163.089844 119.171875 L 171.066406 118.027344 Z M 187.046875 112.753906 "/>
<path style=" stroke:none;fill-rule:nonzero;fill:rgb(0%,0%,53.333336%);fill-opacity:1;" d="M 163.851562 90.8125 C 163.066406 90.707031 162.339844 91.261719 162.238281 92.050781 C 162.132812 92.839844 162.6875 93.5625 163.476562 93.667969 C 164.265625 93.773438 164.988281 93.214844 165.09375 92.429688 C 165.195312 91.640625 164.640625 90.917969 163.851562 90.8125 Z M 163.851562 90.8125 "/>
<path style=" stroke:none;fill-rule:nonzero;fill:rgb(0%,0%,53.333336%);fill-opacity:1;" d="M 188 120 L 171.199219 119.039062 L 163.199219 120 L 171.199219 120.960938 Z M 188 120 "/>
<path style=" stroke:none;fill-rule:nonzero;fill:rgb(0%,0%,53.333336%);fill-opacity:1;" d="M 171.277344 92.804688 C 170.542969 92.5 169.699219 92.847656 169.394531 93.582031 C 169.089844 94.316406 169.4375 95.160156 170.175781 95.464844 C 170.910156 95.769531 171.75 95.421875 172.054688 94.6875 C 172.359375 93.949219 172.011719 93.109375 171.277344 92.804688 Z M 171.277344 92.804688 "/>
<path style=" stroke:none;fill-rule:nonzero;fill:rgb(0%,0%,53.333336%);fill-opacity:1;" d="M 187.046875 127.246094 L 171.066406 121.972656 L 163.089844 120.828125 L 170.570312 123.824219 Z M 187.046875 127.246094 "/>
<path style=" stroke:none;fill-rule:nonzero;fill:rgb(0%,0%,53.333336%);fill-opacity:1;" d="M 177.929688 96.648438 C 177.300781 96.164062 176.394531 96.285156 175.910156 96.914062 C 175.425781 97.546875 175.546875 98.449219 176.175781 98.933594 C 176.808594 99.417969 177.710938 99.300781 178.195312 98.667969 C 178.679688 98.039062 178.5625 97.132812 177.929688 96.648438 Z M 177.929688 96.648438 "/>
<path style=" stroke:none;fill-rule:nonzero;fill:rgb(0%,0%,53.333336%);fill-opacity:1;" d="M 184.25 134 L 170.179688 124.769531 L 162.769531 121.601562 L 169.21875 126.429688 Z M 184.25 134 "/>
<path style=" stroke:none;fill-rule:nonzero;fill:rgb(0%,0%,53.333336%);fill-opacity:1;" d="M 183.363281 102.085938 C 182.878906 101.453125 181.976562 101.335938 181.34375 101.820312 C 180.714844 102.304688 180.59375 103.207031 181.078125 103.839844 C 181.5625 104.46875 182.464844 104.589844 183.097656 104.105469 C 183.726562 103.621094 183.847656 102.714844 183.363281 102.085938 Z M 183.363281 102.085938 "/>
<path style=" stroke:none;fill-rule:nonzero;fill:rgb(0%,0%,53.333336%);fill-opacity:1;" d="M 179.800781 139.800781 L 168.597656 127.242188 L 162.261719 122.261719 L 167.242188 128.597656 Z M 179.800781 139.800781 "/>
<path style=" stroke:none;fill-rule:nonzero;fill:rgb(0%,0%,53.333336%);fill-opacity:1;" d="M 187.203125 108.742188 C 186.898438 108.007812 186.058594 107.660156 185.324219 107.964844 C 184.585938 108.269531 184.238281 109.109375 184.542969 109.84375 C 184.847656 110.578125 185.691406 110.929688 186.425781 110.625 C 187.160156 110.320312 187.507812 109.476562 187.203125 108.742188 Z M 187.203125 108.742188 "/>
<path style=" stroke:none;fill-rule:nonzero;fill:rgb(0%,0%,53.333336%);fill-opacity:1;" d="M 174 144.25 L 166.429688 129.21875 L 161.601562 122.769531 L 164.769531 130.179688 Z M 174 144.25 "/>
<path style=" stroke:none;fill-rule:nonzero;fill:rgb(0%,0%,53.333336%);fill-opacity:1;" d="M 189.191406 116.167969 C 189.085938 115.378906 188.363281 114.824219 187.574219 114.929688 C 186.785156 115.03125 186.230469 115.753906 186.335938 116.542969 C 186.4375 117.332031 187.164062 117.886719 187.949219 117.78125 C 188.738281 117.679688 189.292969 116.957031 189.191406 116.167969 Z M 189.191406 116.167969 "/>
<path style=" stroke:none;fill-rule:nonzero;fill:rgb(0%,0%,53.333336%);fill-opacity:1;" d="M 167.246094 147.046875 L 163.824219 130.570312 L 160.828125 123.089844 L 161.972656 131.066406 Z M 167.246094 147.046875 "/>
</g>
</svg>
