<?xml version="1.0" encoding="UTF-8"?>
<svg xmlns="http://www.w3.org/2000/svg" xmlns:xlink="http://www.w3.org/1999/xlink" width="px" height="px" viewBox="0 0 320 240" version="1.1">
<defs>
<clipPath id="clip1">
  <path d="M 0.015625 0 L 320 0 L 320 240 L 0.015625 240 Z M 0.015625 0 "/>
</clipPath>
<clipPath id="clip2">
  <path d="M 0.015625 161 L 320 161 L 320 240 L 0.015625 240 Z M 0.015625 161 "/>
</clipPath>
<clipPath id="clip3">
  <path d="M 0.015625 164 L 20 164 L 20 174 L 0.015625 174 Z M 0.015625 164 "/>
</clipPath>
<clipPath id="clip4">
  <path d="M 0.015625 164 L 28 164 L 28 174 L 0.015625 174 Z M 0.015625 164 "/>
</clipPath>
<clipPath id="clip5">
  <path d="M 0.015625 168 L 13 168 L 13 174 L 0.015625 174 Z M 0.015625 168 "/>
</clipPath>
<clipPath id="clip6">
  <path d="M 0.015625 168 L 8 168 L 8 174 L 0.015625 174 Z M 0.015625 168 "/>
</clipPath>
<clipPath id="clip7">
  <path d="M 0.015625 0 L 320 0 L 320 79 L 0.015625 79 Z M 0.015625 0 "/>
</clipPath>
<clipPath id="clip8">
  <path d="M 0.015625 67 L 20 67 L 20 77 L 0.015625 77 Z M 0.015625 67 "/>
</clipPath>
<clipPath id="clip9">
  <path d="M 0.015625 67 L 28 67 L 28 77 L 0.015625 77 Z M 0.015625 67 "/>
</clipPath>
<clipPath id="clip10">
  <path d="M 0.015625 71 L 13 71 L 13 77 L 0.015625 77 Z M 0.015625 71 "/>
</clipPath>
<clipPath id="clip11">
  <path d="M 0.015625 71 L 8 71 L 8 77 L 0.015625 77 Z M 0.015625 71 "/>
</clipPath>
<clipPath id="clip12">
  <path d="M 0.015625 159 L 320 159 L 320 165 L 0.015625 165 Z M 0.015625 159 "/>
</clipPath>
<clipPath id="clip13">
  <path d="M 0.015625 76 L 320 76 L 320 82 L 0.015625 82 Z M 0.015625 76 "/>
</clipPath>
</defs>
<g id="surface1">
<g clip-path="url(#clip1)" clip-rule="nonzero">
<rect x="0" y="0" width="320" height="240" style="fill:rgb(100%,100%,100%);fill-opacity:1;stroke:none;"/>
</g>
<g clip-path="url(#clip2)" clip-rule="nonzero">
<path style=" stroke:none;fill-rule:evenodd;fill:rgb(85.490197%,0%,0%);fill-opacity:1;" d="M -50 161.15625 L 370 161.15625 L 370 240 L -50 240 Z M -50 161.15625 "/>
</g>
<path style=" stroke:none;fill-rule:evenodd;fill:rgb(100%,100%,100%);fill-opacity:1;" d="M 29.875 164.53125 L 52.84375 164.53125 L 52.84375 166.078125 L 29.875 166.078125 Z M 33.296875 172.40625 L 34.890625 172.40625 L 34.890625 173.953125 L 33.296875 173.953125 Z M 52.9375 172.40625 L 52.9375 173.953125 L 48.34375 173.953125 L 48.34375 172.359375 Z M 55.375 164.53125 L 56.96875 164.53125 L 56.96875 173.90625 L 55.375 173.90625 Z M 55.375 164.53125 "/>
<path style=" stroke:none;fill-rule:evenodd;fill:rgb(100%,100%,100%);fill-opacity:1;" d="M 64.5625 172.359375 L 64.5625 173.953125 L 55.84375 173.953125 L 55.84375 172.359375 Z M 48.34375 168.65625 L 49.84375 168.65625 L 49.84375 173.953125 L 48.296875 173.953125 Z M 48.34375 168.65625 "/>
<path style=" stroke:none;fill-rule:evenodd;fill:rgb(100%,100%,100%);fill-opacity:1;" d="M 63.25 164.53125 L 64.84375 164.53125 L 64.84375 173.90625 L 63.25 173.90625 Z M 59.3125 164.53125 L 60.859375 164.53125 L 60.859375 173.90625 L 59.3125 173.90625 Z M 38.3125 168.28125 L 38.3125 169.875 L 29.875 169.875 L 29.875 168.28125 Z M 56.734375 168.28125 L 56.734375 169.875 L 48.296875 169.875 L 48.296875 168.28125 Z M 56.734375 168.28125 "/>
<path style=" stroke:none;fill-rule:evenodd;fill:rgb(100%,100%,100%);fill-opacity:1;" d="M 48.34375 168.703125 L 49.84375 168.703125 L 49.84375 173.90625 L 48.296875 173.90625 Z M 48.34375 168.703125 "/>
<path style=" stroke:none;fill-rule:evenodd;fill:rgb(100%,100%,100%);fill-opacity:1;" d="M 48.34375 168.703125 L 49.84375 168.703125 L 49.84375 173.90625 L 48.296875 173.90625 Z M 48.34375 168.703125 "/>
<path style=" stroke:none;fill-rule:evenodd;fill:rgb(100%,100%,100%);fill-opacity:1;" d="M 48.34375 168.703125 L 49.84375 168.703125 L 49.84375 173.90625 L 48.296875 173.90625 Z M 29.921875 168.703125 L 31.46875 168.703125 L 31.46875 173.90625 L 29.921875 173.90625 Z M 43.421875 168.703125 L 45.015625 168.703125 L 45.015625 173.90625 L 43.421875 173.90625 Z M 36.71875 168.703125 L 38.3125 168.703125 L 38.3125 173.90625 L 36.71875 173.90625 Z M 36.71875 168.703125 "/>
<path style=" stroke:none;fill-rule:evenodd;fill:rgb(100%,100%,100%);fill-opacity:1;" d="M 44.5 172.359375 L 44.5 173.953125 L 37.421875 173.953125 L 37.421875 172.359375 Z M 44.96875 168.28125 L 44.96875 169.875 L 40.46875 169.875 L 40.46875 168.28125 Z M 44.96875 168.28125 "/>
<g clip-path="url(#clip3)" clip-rule="nonzero">
<path style=" stroke:none;fill-rule:evenodd;fill:rgb(100%,100%,100%);fill-opacity:1;" d="M -7.90625 164.53125 L 15.0625 164.53125 L 15.0625 166.078125 L -7.90625 166.078125 Z M -4.484375 172.40625 L -2.890625 172.40625 L -2.890625 173.953125 L -4.53125 173.953125 Z M 15.15625 172.40625 L 15.15625 173.953125 L 10.5625 173.953125 L 10.5625 172.359375 Z M 17.59375 164.53125 L 19.1875 164.53125 L 19.1875 173.90625 L 17.59375 173.90625 Z M 17.59375 164.53125 "/>
</g>
<path style=" stroke:none;fill-rule:evenodd;fill:rgb(100%,100%,100%);fill-opacity:1;" d="M 26.78125 172.359375 L 26.78125 173.953125 L 18.0625 173.953125 L 18.0625 172.359375 Z M 10.5625 168.65625 L 12.109375 168.65625 L 12.109375 173.953125 L 10.5625 173.953125 Z M 10.5625 168.65625 "/>
<g clip-path="url(#clip4)" clip-rule="nonzero">
<path style=" stroke:none;fill-rule:evenodd;fill:rgb(100%,100%,100%);fill-opacity:1;" d="M 25.46875 164.53125 L 27.0625 164.53125 L 27.0625 173.90625 L 25.46875 173.90625 Z M 21.53125 164.53125 L 23.078125 164.53125 L 23.078125 173.90625 L 21.53125 173.90625 Z M 0.53125 168.28125 L 0.53125 169.875 L -7.90625 169.875 L -7.90625 168.28125 Z M 18.953125 168.28125 L 18.953125 169.875 L 10.515625 169.875 L 10.515625 168.28125 Z M 18.953125 168.28125 "/>
</g>
<path style=" stroke:none;fill-rule:evenodd;fill:rgb(100%,100%,100%);fill-opacity:1;" d="M 10.5625 168.703125 L 12.109375 168.703125 L 12.109375 173.90625 L 10.5625 173.90625 Z M 10.5625 168.703125 "/>
<path style=" stroke:none;fill-rule:evenodd;fill:rgb(100%,100%,100%);fill-opacity:1;" d="M 10.5625 168.703125 L 12.109375 168.703125 L 12.109375 173.90625 L 10.5625 173.90625 Z M 10.5625 168.703125 "/>
<g clip-path="url(#clip5)" clip-rule="nonzero">
<path style=" stroke:none;fill-rule:evenodd;fill:rgb(100%,100%,100%);fill-opacity:1;" d="M 10.5625 168.703125 L 12.109375 168.703125 L 12.109375 173.90625 L 10.5625 173.90625 Z M -7.859375 168.703125 L -6.3125 168.703125 L -6.3125 173.90625 L -7.859375 173.90625 Z M 5.640625 168.703125 L 7.1875 168.703125 L 7.1875 173.90625 L 5.640625 173.90625 Z M -1.0625 168.703125 L 0.53125 168.703125 L 0.53125 173.90625 L -1.0625 173.90625 Z M -1.0625 168.703125 "/>
</g>
<g clip-path="url(#clip6)" clip-rule="nonzero">
<path style=" stroke:none;fill-rule:evenodd;fill:rgb(100%,100%,100%);fill-opacity:1;" d="M 6.71875 172.359375 L 6.71875 173.953125 L -0.3125 173.953125 L -0.3125 172.359375 Z M 7.1875 168.28125 L 7.1875 169.875 L 2.6875 169.875 L 2.6875 168.28125 Z M 7.1875 168.28125 "/>
</g>
<path style=" stroke:none;fill-rule:evenodd;fill:rgb(100%,100%,100%);fill-opacity:1;" d="M 67.328125 164.53125 L 90.296875 164.53125 L 90.296875 166.078125 L 67.328125 166.078125 Z M 70.75 172.40625 L 72.34375 172.40625 L 72.34375 173.953125 L 70.75 173.953125 Z M 90.390625 172.40625 L 90.390625 173.953125 L 85.796875 173.953125 L 85.796875 172.359375 Z M 92.875 164.53125 L 94.46875 164.53125 L 94.46875 173.90625 L 92.875 173.90625 Z M 92.875 164.53125 "/>
<path style=" stroke:none;fill-rule:evenodd;fill:rgb(100%,100%,100%);fill-opacity:1;" d="M 102.015625 172.359375 L 102.015625 173.953125 L 93.296875 173.953125 L 93.296875 172.359375 Z M 85.796875 168.65625 L 87.390625 168.65625 L 87.390625 173.953125 L 85.796875 173.953125 Z M 85.796875 168.65625 "/>
<path style=" stroke:none;fill-rule:evenodd;fill:rgb(100%,100%,100%);fill-opacity:1;" d="M 100.703125 164.53125 L 102.296875 164.53125 L 102.296875 173.90625 L 100.703125 173.90625 Z M 96.765625 164.53125 L 98.359375 164.53125 L 98.359375 173.90625 L 96.71875 173.90625 Z M 75.765625 168.28125 L 75.765625 169.875 L 67.328125 169.875 L 67.328125 168.28125 Z M 94.1875 168.28125 L 94.1875 169.875 L 85.75 169.875 L 85.75 168.28125 Z M 94.1875 168.28125 "/>
<path style=" stroke:none;fill-rule:evenodd;fill:rgb(100%,100%,100%);fill-opacity:1;" d="M 85.796875 168.703125 L 87.390625 168.703125 L 87.390625 173.90625 L 85.796875 173.90625 Z M 85.796875 168.703125 "/>
<path style=" stroke:none;fill-rule:evenodd;fill:rgb(100%,100%,100%);fill-opacity:1;" d="M 85.796875 168.703125 L 87.390625 168.703125 L 87.390625 173.90625 L 85.796875 173.90625 Z M 85.796875 168.703125 "/>
<path style=" stroke:none;fill-rule:evenodd;fill:rgb(100%,100%,100%);fill-opacity:1;" d="M 85.796875 168.703125 L 87.390625 168.703125 L 87.390625 173.90625 L 85.796875 173.90625 Z M 67.375 168.703125 L 68.96875 168.703125 L 68.96875 173.90625 L 67.375 173.90625 Z M 80.875 168.703125 L 82.46875 168.703125 L 82.46875 173.90625 L 80.875 173.90625 Z M 74.171875 168.703125 L 75.765625 168.703125 L 75.765625 173.90625 L 74.171875 173.90625 Z M 74.171875 168.703125 "/>
<path style=" stroke:none;fill-rule:evenodd;fill:rgb(100%,100%,100%);fill-opacity:1;" d="M 82 172.359375 L 82 173.953125 L 74.875 173.953125 L 74.875 172.359375 Z M 82.46875 168.28125 L 82.46875 169.875 L 77.96875 169.875 L 77.96875 168.28125 Z M 82.46875 168.28125 "/>
<path style=" stroke:none;fill-rule:evenodd;fill:rgb(100%,100%,100%);fill-opacity:1;" d="M 105.015625 164.53125 L 128.03125 164.53125 L 128.03125 166.078125 L 105.0625 166.078125 Z M 108.484375 172.40625 L 110.03125 172.40625 L 110.03125 173.953125 L 108.484375 173.953125 Z M 128.078125 172.40625 L 128.078125 173.953125 L 123.484375 173.953125 L 123.484375 172.359375 Z M 130.5625 164.53125 L 132.15625 164.53125 L 132.15625 173.90625 L 130.5625 173.90625 Z M 130.5625 164.53125 "/>
<path style=" stroke:none;fill-rule:evenodd;fill:rgb(100%,100%,100%);fill-opacity:1;" d="M 139.75 172.359375 L 139.75 173.953125 L 131.03125 173.953125 L 131.03125 172.359375 Z M 123.484375 168.65625 L 125.078125 168.65625 L 125.078125 173.953125 L 123.484375 173.953125 Z M 123.484375 168.65625 "/>
<path style=" stroke:none;fill-rule:evenodd;fill:rgb(100%,100%,100%);fill-opacity:1;" d="M 138.4375 164.53125 L 140.03125 164.53125 L 140.03125 173.90625 L 138.4375 173.90625 Z M 134.453125 164.53125 L 136.046875 164.53125 L 136.046875 173.90625 L 134.453125 173.90625 Z M 113.453125 168.28125 L 113.453125 169.875 L 105.0625 169.875 L 105.0625 168.28125 Z M 131.875 168.28125 L 131.875 169.875 L 123.484375 169.875 L 123.484375 168.28125 Z M 131.875 168.28125 "/>
<path style=" stroke:none;fill-rule:evenodd;fill:rgb(100%,100%,100%);fill-opacity:1;" d="M 123.484375 168.703125 L 125.078125 168.703125 L 125.078125 173.90625 L 123.484375 173.90625 Z M 123.484375 168.703125 "/>
<path style=" stroke:none;fill-rule:evenodd;fill:rgb(100%,100%,100%);fill-opacity:1;" d="M 123.484375 168.703125 L 125.078125 168.703125 L 125.078125 173.90625 L 123.484375 173.90625 Z M 123.484375 168.703125 "/>
<path style=" stroke:none;fill-rule:evenodd;fill:rgb(100%,100%,100%);fill-opacity:1;" d="M 123.484375 168.703125 L 125.078125 168.703125 L 125.078125 173.90625 L 123.484375 173.90625 Z M 105.0625 168.703125 L 106.65625 168.703125 L 106.65625 173.90625 L 105.0625 173.90625 Z M 118.5625 168.703125 L 120.15625 168.703125 L 120.15625 173.90625 L 118.5625 173.90625 Z M 111.90625 168.703125 L 113.453125 168.703125 L 113.453125 173.90625 L 111.90625 173.90625 Z M 111.90625 168.703125 "/>
<path style=" stroke:none;fill-rule:evenodd;fill:rgb(100%,100%,100%);fill-opacity:1;" d="M 119.6875 172.359375 L 119.6875 173.953125 L 112.609375 173.953125 L 112.609375 172.359375 Z M 120.15625 168.28125 L 120.15625 169.875 L 115.65625 169.875 L 115.65625 168.28125 Z M 120.15625 168.28125 "/>
<path style=" stroke:none;fill-rule:evenodd;fill:rgb(100%,100%,100%);fill-opacity:1;" d="M 142.890625 164.53125 L 165.859375 164.53125 L 165.859375 166.078125 L 142.890625 166.078125 Z M 146.3125 172.40625 L 147.90625 172.40625 L 147.90625 173.953125 L 146.3125 173.953125 Z M 165.953125 172.40625 L 165.953125 173.953125 L 161.359375 173.953125 L 161.359375 172.359375 Z M 168.4375 164.53125 L 169.984375 164.53125 L 169.984375 173.90625 L 168.4375 173.90625 Z M 168.4375 164.53125 "/>
<path style=" stroke:none;fill-rule:evenodd;fill:rgb(100%,100%,100%);fill-opacity:1;" d="M 177.578125 172.359375 L 177.578125 173.953125 L 168.859375 173.953125 L 168.859375 172.359375 Z M 161.359375 168.65625 L 162.953125 168.65625 L 162.953125 173.953125 L 161.359375 173.953125 Z M 161.359375 168.65625 "/>
<path style=" stroke:none;fill-rule:evenodd;fill:rgb(100%,100%,100%);fill-opacity:1;" d="M 176.265625 164.53125 L 177.859375 164.53125 L 177.859375 173.90625 L 176.265625 173.90625 Z M 172.328125 164.53125 L 173.921875 164.53125 L 173.921875 173.90625 L 172.328125 173.90625 Z M 151.328125 168.28125 L 151.328125 169.875 L 142.890625 169.875 L 142.890625 168.28125 Z M 169.75 168.28125 L 169.75 169.875 L 161.3125 169.875 L 161.3125 168.28125 Z M 169.75 168.28125 "/>
<path style=" stroke:none;fill-rule:evenodd;fill:rgb(100%,100%,100%);fill-opacity:1;" d="M 161.359375 168.703125 L 162.953125 168.703125 L 162.953125 173.90625 L 161.359375 173.90625 Z M 161.359375 168.703125 "/>
<path style=" stroke:none;fill-rule:evenodd;fill:rgb(100%,100%,100%);fill-opacity:1;" d="M 161.359375 168.703125 L 162.953125 168.703125 L 162.953125 173.90625 L 161.359375 173.90625 Z M 161.359375 168.703125 "/>
<path style=" stroke:none;fill-rule:evenodd;fill:rgb(100%,100%,100%);fill-opacity:1;" d="M 161.359375 168.703125 L 162.953125 168.703125 L 162.953125 173.90625 L 161.359375 173.90625 Z M 142.9375 168.703125 L 144.484375 168.703125 L 144.484375 173.90625 L 142.9375 173.90625 Z M 156.4375 168.703125 L 158.03125 168.703125 L 158.03125 173.90625 L 156.4375 173.90625 Z M 149.734375 168.703125 L 151.328125 168.703125 L 151.328125 173.90625 L 149.6875 173.90625 Z M 149.734375 168.703125 "/>
<path style=" stroke:none;fill-rule:evenodd;fill:rgb(100%,100%,100%);fill-opacity:1;" d="M 157.5625 172.359375 L 157.5625 173.953125 L 150.4375 173.953125 L 150.4375 172.359375 Z M 158.03125 168.28125 L 158.03125 169.875 L 153.4375 169.875 L 153.4375 168.28125 Z M 158.03125 168.28125 "/>
<g clip-path="url(#clip7)" clip-rule="nonzero">
<path style=" stroke:none;fill-rule:evenodd;fill:rgb(13.725491%,62.352943%,25.098041%);fill-opacity:1;" d="M -50 0 L 370 0 L 370 78.84375 L -50 78.84375 Z M -50 0 "/>
</g>
<path style=" stroke:none;fill-rule:evenodd;fill:rgb(100%,100%,100%);fill-opacity:1;" d="M 180.953125 164.53125 L 203.921875 164.53125 L 203.921875 166.078125 L 180.953125 166.078125 Z M 184.375 172.40625 L 185.96875 172.40625 L 185.96875 173.953125 L 184.375 173.953125 Z M 204.015625 172.40625 L 204.015625 173.953125 L 199.375 173.953125 L 199.375 172.359375 Z M 206.5 164.53125 L 208.046875 164.53125 L 208.046875 173.90625 L 206.5 173.90625 Z M 206.5 164.53125 "/>
<path style=" stroke:none;fill-rule:evenodd;fill:rgb(100%,100%,100%);fill-opacity:1;" d="M 215.640625 172.359375 L 215.640625 173.953125 L 206.921875 173.953125 L 206.921875 172.359375 Z M 199.421875 168.65625 L 201.015625 168.65625 L 201.015625 173.953125 L 199.375 173.953125 Z M 199.421875 168.65625 "/>
<path style=" stroke:none;fill-rule:evenodd;fill:rgb(100%,100%,100%);fill-opacity:1;" d="M 214.375 164.53125 L 215.921875 164.53125 L 215.921875 173.90625 L 214.375 173.90625 Z M 210.390625 164.53125 L 211.984375 164.53125 L 211.984375 173.90625 L 210.390625 173.90625 Z M 189.390625 168.28125 L 189.390625 169.875 L 180.953125 169.875 L 180.953125 168.28125 Z M 207.8125 168.28125 L 207.8125 169.875 L 199.375 169.875 L 199.375 168.28125 Z M 207.8125 168.28125 "/>
<path style=" stroke:none;fill-rule:evenodd;fill:rgb(100%,100%,100%);fill-opacity:1;" d="M 199.375 168.703125 L 201.015625 168.703125 L 201.015625 173.90625 L 199.375 173.90625 Z M 199.375 168.703125 "/>
<path style=" stroke:none;fill-rule:evenodd;fill:rgb(100%,100%,100%);fill-opacity:1;" d="M 199.375 168.703125 L 201.015625 168.703125 L 201.015625 173.90625 L 199.375 173.90625 Z M 199.375 168.703125 "/>
<path style=" stroke:none;fill-rule:evenodd;fill:rgb(100%,100%,100%);fill-opacity:1;" d="M 199.375 168.703125 L 201.015625 168.703125 L 201.015625 173.90625 L 199.375 173.90625 Z M 181 168.703125 L 182.59375 168.703125 L 182.59375 173.90625 L 181 173.90625 Z M 194.5 168.703125 L 196.09375 168.703125 L 196.09375 173.90625 L 194.5 173.90625 Z M 187.796875 168.703125 L 189.390625 168.703125 L 189.390625 173.90625 L 187.796875 173.90625 Z M 187.796875 168.703125 "/>
<path style=" stroke:none;fill-rule:evenodd;fill:rgb(100%,100%,100%);fill-opacity:1;" d="M 195.625 172.359375 L 195.625 173.953125 L 188.5 173.953125 L 188.5 172.359375 Z M 196.09375 168.28125 L 196.09375 169.875 L 191.59375 169.875 L 191.59375 168.28125 Z M 196.09375 168.28125 "/>
<path style=" stroke:none;fill-rule:evenodd;fill:rgb(100%,100%,100%);fill-opacity:1;" d="M 218.78125 164.53125 L 241.75 164.53125 L 241.75 166.078125 L 218.78125 166.078125 Z M 222.203125 172.40625 L 223.796875 172.40625 L 223.796875 173.953125 L 222.203125 173.953125 Z M 241.890625 172.40625 L 241.890625 173.953125 L 237.25 173.953125 L 237.25 172.359375 Z M 244.328125 164.53125 L 245.921875 164.53125 L 245.921875 173.90625 L 244.328125 173.90625 Z M 244.328125 164.53125 "/>
<path style=" stroke:none;fill-rule:evenodd;fill:rgb(100%,100%,100%);fill-opacity:1;" d="M 253.46875 172.359375 L 253.46875 173.953125 L 244.75 173.953125 L 244.75 172.359375 Z M 237.25 168.65625 L 238.84375 168.65625 L 238.84375 173.953125 L 237.25 173.953125 Z M 237.25 168.65625 "/>
<path style=" stroke:none;fill-rule:evenodd;fill:rgb(100%,100%,100%);fill-opacity:1;" d="M 252.203125 164.53125 L 253.75 164.53125 L 253.75 173.90625 L 252.203125 173.90625 Z M 248.21875 164.53125 L 249.8125 164.53125 L 249.8125 173.90625 L 248.21875 173.90625 Z M 227.21875 168.28125 L 227.21875 169.875 L 218.828125 169.875 L 218.828125 168.28125 Z M 245.640625 168.28125 L 245.640625 169.875 L 237.25 169.875 L 237.25 168.28125 Z M 245.640625 168.28125 "/>
<path style=" stroke:none;fill-rule:evenodd;fill:rgb(100%,100%,100%);fill-opacity:1;" d="M 237.25 168.703125 L 238.84375 168.703125 L 238.84375 173.90625 L 237.25 173.90625 Z M 237.25 168.703125 "/>
<path style=" stroke:none;fill-rule:evenodd;fill:rgb(100%,100%,100%);fill-opacity:1;" d="M 237.25 168.703125 L 238.84375 168.703125 L 238.84375 173.90625 L 237.25 173.90625 Z M 237.25 168.703125 "/>
<path style=" stroke:none;fill-rule:evenodd;fill:rgb(100%,100%,100%);fill-opacity:1;" d="M 237.25 168.703125 L 238.84375 168.703125 L 238.84375 173.90625 L 237.25 173.90625 Z M 218.828125 168.703125 L 220.421875 168.703125 L 220.421875 173.90625 L 218.828125 173.90625 Z M 232.328125 168.703125 L 233.921875 168.703125 L 233.921875 173.90625 L 232.328125 173.90625 Z M 225.625 168.703125 L 227.21875 168.703125 L 227.21875 173.90625 L 225.671875 173.90625 Z M 225.625 168.703125 "/>
<path style=" stroke:none;fill-rule:evenodd;fill:rgb(100%,100%,100%);fill-opacity:1;" d="M 233.453125 172.359375 L 233.453125 173.953125 L 226.375 173.953125 L 226.375 172.359375 Z M 233.921875 168.28125 L 233.921875 169.875 L 229.375 169.875 L 229.375 168.28125 Z M 233.921875 168.28125 "/>
<path style=" stroke:none;fill-rule:evenodd;fill:rgb(100%,100%,100%);fill-opacity:1;" d="M 256.65625 164.53125 L 279.625 164.53125 L 279.625 166.078125 L 256.65625 166.078125 Z M 260.078125 172.40625 L 261.671875 172.40625 L 261.671875 173.953125 L 260.078125 173.953125 Z M 279.71875 172.40625 L 279.71875 173.953125 L 275.125 173.953125 L 275.125 172.359375 Z M 282.15625 164.53125 L 283.75 164.53125 L 283.75 173.90625 L 282.15625 173.90625 Z M 282.15625 164.53125 "/>
<path style=" stroke:none;fill-rule:evenodd;fill:rgb(100%,100%,100%);fill-opacity:1;" d="M 291.34375 172.359375 L 291.34375 173.953125 L 282.625 173.953125 L 282.625 172.359375 Z M 275.078125 168.65625 L 276.671875 168.65625 L 276.671875 173.953125 L 275.078125 173.953125 Z M 275.078125 168.65625 "/>
<path style=" stroke:none;fill-rule:evenodd;fill:rgb(100%,100%,100%);fill-opacity:1;" d="M 290.03125 164.53125 L 291.625 164.53125 L 291.625 173.90625 L 290.03125 173.90625 Z M 286.09375 164.53125 L 287.640625 164.53125 L 287.640625 173.90625 L 286.09375 173.90625 Z M 265.09375 168.28125 L 265.09375 169.875 L 256.65625 169.875 L 256.65625 168.28125 Z M 283.515625 168.28125 L 283.515625 169.875 L 275.078125 169.875 L 275.078125 168.28125 Z M 283.515625 168.28125 "/>
<path style=" stroke:none;fill-rule:evenodd;fill:rgb(100%,100%,100%);fill-opacity:1;" d="M 275.125 168.703125 L 276.671875 168.703125 L 276.671875 173.90625 L 275.125 173.90625 Z M 275.125 168.703125 "/>
<path style=" stroke:none;fill-rule:evenodd;fill:rgb(100%,100%,100%);fill-opacity:1;" d="M 275.125 168.703125 L 276.671875 168.703125 L 276.671875 173.90625 L 275.125 173.90625 Z M 275.125 168.703125 "/>
<path style=" stroke:none;fill-rule:evenodd;fill:rgb(100%,100%,100%);fill-opacity:1;" d="M 275.125 168.703125 L 276.671875 168.703125 L 276.671875 173.90625 L 275.125 173.90625 Z M 256.65625 168.703125 L 258.25 168.703125 L 258.25 173.90625 L 256.65625 173.90625 Z M 270.203125 168.703125 L 271.75 168.703125 L 271.75 173.90625 L 270.203125 173.90625 Z M 263.5 168.703125 L 265.09375 168.703125 L 265.09375 173.90625 L 263.5 173.90625 Z M 263.5 168.703125 "/>
<path style=" stroke:none;fill-rule:evenodd;fill:rgb(100%,100%,100%);fill-opacity:1;" d="M 271.28125 172.359375 L 271.28125 173.953125 L 264.203125 173.953125 L 264.203125 172.359375 Z M 271.75 168.28125 L 271.75 169.875 L 267.25 169.875 L 267.25 168.28125 Z M 271.75 168.28125 "/>
<path style=" stroke:none;fill-rule:evenodd;fill:rgb(100%,100%,100%);fill-opacity:1;" d="M 294.71875 164.53125 L 317.6875 164.53125 L 317.6875 166.078125 L 294.71875 166.078125 Z M 298.140625 172.40625 L 299.734375 172.40625 L 299.734375 173.953125 L 298.140625 173.953125 Z M 317.78125 172.40625 L 317.78125 173.953125 L 313.1875 173.953125 L 313.1875 172.359375 Z M 320.21875 164.53125 L 321.8125 164.53125 L 321.8125 173.90625 L 320.21875 173.90625 Z M 320.21875 164.53125 "/>
<path style=" stroke:none;fill-rule:evenodd;fill:rgb(100%,100%,100%);fill-opacity:1;" d="M 329.40625 172.359375 L 329.40625 173.953125 L 320.6875 173.953125 L 320.6875 172.359375 Z M 313.1875 168.65625 L 314.734375 168.65625 L 314.734375 173.953125 L 313.1875 173.953125 Z M 313.1875 168.65625 "/>
<path style=" stroke:none;fill-rule:evenodd;fill:rgb(100%,100%,100%);fill-opacity:1;" d="M 328.09375 164.53125 L 329.6875 164.53125 L 329.6875 173.90625 L 328.09375 173.90625 Z M 324.15625 164.53125 L 325.703125 164.53125 L 325.703125 173.90625 L 324.15625 173.90625 Z M 303.15625 168.28125 L 303.15625 169.875 L 294.71875 169.875 L 294.71875 168.28125 Z M 321.578125 168.28125 L 321.578125 169.875 L 313.140625 169.875 L 313.140625 168.28125 Z M 321.578125 168.28125 "/>
<path style=" stroke:none;fill-rule:evenodd;fill:rgb(100%,100%,100%);fill-opacity:1;" d="M 313.1875 168.703125 L 314.734375 168.703125 L 314.734375 173.90625 L 313.1875 173.90625 Z M 313.1875 168.703125 "/>
<path style=" stroke:none;fill-rule:evenodd;fill:rgb(100%,100%,100%);fill-opacity:1;" d="M 313.1875 168.703125 L 314.734375 168.703125 L 314.734375 173.90625 L 313.1875 173.90625 Z M 313.1875 168.703125 "/>
<path style=" stroke:none;fill-rule:evenodd;fill:rgb(100%,100%,100%);fill-opacity:1;" d="M 313.1875 168.703125 L 314.734375 168.703125 L 314.734375 173.90625 L 313.1875 173.90625 Z M 294.765625 168.703125 L 296.3125 168.703125 L 296.3125 173.90625 L 294.765625 173.90625 Z M 308.265625 168.703125 L 309.859375 168.703125 L 309.859375 173.90625 L 308.265625 173.90625 Z M 301.5625 168.703125 L 303.15625 168.703125 L 303.15625 173.90625 L 301.5625 173.90625 Z M 301.5625 168.703125 "/>
<path style=" stroke:none;fill-rule:evenodd;fill:rgb(100%,100%,100%);fill-opacity:1;" d="M 309.34375 172.359375 L 309.34375 173.953125 L 302.265625 173.953125 L 302.265625 172.359375 Z M 309.8125 168.28125 L 309.8125 169.875 L 305.3125 169.875 L 305.3125 168.28125 Z M 309.8125 168.28125 "/>
<path style=" stroke:none;fill-rule:evenodd;fill:rgb(100%,100%,100%);fill-opacity:1;" d="M 29.875 67.21875 L 52.84375 67.21875 L 52.84375 68.8125 L 29.875 68.8125 Z M 33.296875 75.1875 L 34.890625 75.1875 L 34.890625 76.6875 L 33.296875 76.6875 Z M 52.9375 75.09375 L 52.9375 76.6875 L 48.34375 76.6875 L 48.34375 75.09375 Z M 55.375 67.21875 L 56.96875 67.21875 L 56.96875 76.6875 L 55.375 76.6875 Z M 55.375 67.21875 "/>
<path style=" stroke:none;fill-rule:evenodd;fill:rgb(100%,100%,100%);fill-opacity:1;" d="M 64.5625 75.09375 L 64.5625 76.6875 L 55.84375 76.6875 L 55.84375 75.09375 Z M 48.34375 71.390625 L 49.84375 71.390625 L 49.84375 76.6875 L 48.296875 76.6875 Z M 48.34375 71.390625 "/>
<path style=" stroke:none;fill-rule:evenodd;fill:rgb(100%,100%,100%);fill-opacity:1;" d="M 63.25 67.21875 L 64.84375 67.21875 L 64.84375 76.6875 L 63.25 76.6875 Z M 59.3125 67.21875 L 60.859375 67.21875 L 60.859375 76.6875 L 59.3125 76.6875 Z M 38.3125 70.96875 L 38.3125 72.5625 L 29.875 72.5625 L 29.875 71.015625 Z M 56.734375 70.96875 L 56.734375 72.5625 L 48.296875 72.5625 L 48.296875 71.015625 Z M 56.734375 70.96875 "/>
<path style=" stroke:none;fill-rule:evenodd;fill:rgb(100%,100%,100%);fill-opacity:1;" d="M 48.34375 71.390625 L 49.84375 71.390625 L 49.84375 76.6875 L 48.296875 76.6875 Z M 48.34375 71.390625 "/>
<path style=" stroke:none;fill-rule:evenodd;fill:rgb(100%,100%,100%);fill-opacity:1;" d="M 48.34375 71.390625 L 49.84375 71.390625 L 49.84375 76.6875 L 48.296875 76.6875 Z M 48.34375 71.390625 "/>
<path style=" stroke:none;fill-rule:evenodd;fill:rgb(100%,100%,100%);fill-opacity:1;" d="M 48.34375 71.390625 L 49.84375 71.390625 L 49.84375 76.6875 L 48.296875 76.6875 Z M 29.921875 71.390625 L 31.46875 71.390625 L 31.46875 76.6875 L 29.921875 76.6875 Z M 43.421875 71.390625 L 45.015625 71.390625 L 45.015625 76.6875 L 43.421875 76.6875 Z M 36.71875 71.390625 L 38.3125 71.390625 L 38.3125 76.6875 L 36.71875 76.6875 Z M 36.71875 71.390625 "/>
<path style=" stroke:none;fill-rule:evenodd;fill:rgb(100%,100%,100%);fill-opacity:1;" d="M 44.5 75.09375 L 44.5 76.6875 L 37.421875 76.6875 L 37.421875 75.09375 Z M 44.96875 71.015625 L 44.96875 72.5625 L 40.46875 72.5625 L 40.46875 71.015625 Z M 44.96875 71.015625 "/>
<g clip-path="url(#clip8)" clip-rule="nonzero">
<path style=" stroke:none;fill-rule:evenodd;fill:rgb(100%,100%,100%);fill-opacity:1;" d="M -7.90625 67.21875 L 15.0625 67.21875 L 15.0625 68.8125 L -7.90625 68.8125 Z M -4.484375 75.1875 L -2.890625 75.1875 L -2.890625 76.6875 L -4.53125 76.6875 Z M 15.15625 75.09375 L 15.15625 76.6875 L 10.5625 76.6875 L 10.5625 75.09375 Z M 17.59375 67.21875 L 19.1875 67.21875 L 19.1875 76.6875 L 17.59375 76.6875 Z M 17.59375 67.21875 "/>
</g>
<path style=" stroke:none;fill-rule:evenodd;fill:rgb(100%,100%,100%);fill-opacity:1;" d="M 26.78125 75.09375 L 26.78125 76.6875 L 18.0625 76.6875 L 18.0625 75.09375 Z M 10.5625 71.390625 L 12.109375 71.390625 L 12.109375 76.6875 L 10.5625 76.6875 Z M 10.5625 71.390625 "/>
<g clip-path="url(#clip9)" clip-rule="nonzero">
<path style=" stroke:none;fill-rule:evenodd;fill:rgb(100%,100%,100%);fill-opacity:1;" d="M 25.46875 67.21875 L 27.0625 67.21875 L 27.0625 76.6875 L 25.46875 76.6875 Z M 21.53125 67.21875 L 23.078125 67.21875 L 23.078125 76.6875 L 21.53125 76.6875 Z M 0.53125 70.96875 L 0.53125 72.5625 L -7.90625 72.5625 L -7.90625 71.015625 Z M 18.953125 70.96875 L 18.953125 72.5625 L 10.515625 72.5625 L 10.515625 71.015625 Z M 18.953125 70.96875 "/>
</g>
<path style=" stroke:none;fill-rule:evenodd;fill:rgb(100%,100%,100%);fill-opacity:1;" d="M 10.5625 71.390625 L 12.109375 71.390625 L 12.109375 76.6875 L 10.5625 76.6875 Z M 10.5625 71.390625 "/>
<path style=" stroke:none;fill-rule:evenodd;fill:rgb(100%,100%,100%);fill-opacity:1;" d="M 10.5625 71.390625 L 12.109375 71.390625 L 12.109375 76.6875 L 10.5625 76.6875 Z M 10.5625 71.390625 "/>
<g clip-path="url(#clip10)" clip-rule="nonzero">
<path style=" stroke:none;fill-rule:evenodd;fill:rgb(100%,100%,100%);fill-opacity:1;" d="M 10.5625 71.390625 L 12.109375 71.390625 L 12.109375 76.6875 L 10.5625 76.6875 Z M -7.859375 71.390625 L -6.3125 71.390625 L -6.3125 76.6875 L -7.859375 76.6875 Z M 5.640625 71.390625 L 7.1875 71.390625 L 7.1875 76.6875 L 5.640625 76.6875 Z M -1.0625 71.390625 L 0.53125 71.390625 L 0.53125 76.6875 L -1.0625 76.6875 Z M -1.0625 71.390625 "/>
</g>
<g clip-path="url(#clip11)" clip-rule="nonzero">
<path style=" stroke:none;fill-rule:evenodd;fill:rgb(100%,100%,100%);fill-opacity:1;" d="M 6.71875 75.09375 L 6.71875 76.6875 L -0.3125 76.6875 L -0.3125 75.09375 Z M 7.1875 71.015625 L 7.1875 72.5625 L 2.6875 72.5625 L 2.6875 71.015625 Z M 7.1875 71.015625 "/>
</g>
<path style=" stroke:none;fill-rule:evenodd;fill:rgb(100%,100%,100%);fill-opacity:1;" d="M 67.328125 67.21875 L 90.296875 67.21875 L 90.296875 68.8125 L 67.328125 68.8125 Z M 70.75 75.1875 L 72.34375 75.1875 L 72.34375 76.6875 L 70.75 76.6875 Z M 90.390625 75.09375 L 90.390625 76.6875 L 85.796875 76.6875 L 85.796875 75.09375 Z M 92.875 67.21875 L 94.46875 67.21875 L 94.46875 76.6875 L 92.875 76.6875 Z M 92.875 67.21875 "/>
<path style=" stroke:none;fill-rule:evenodd;fill:rgb(100%,100%,100%);fill-opacity:1;" d="M 102.015625 75.09375 L 102.015625 76.6875 L 93.296875 76.6875 L 93.296875 75.09375 Z M 85.796875 71.390625 L 87.390625 71.390625 L 87.390625 76.6875 L 85.796875 76.6875 Z M 85.796875 71.390625 "/>
<path style=" stroke:none;fill-rule:evenodd;fill:rgb(100%,100%,100%);fill-opacity:1;" d="M 100.703125 67.21875 L 102.296875 67.21875 L 102.296875 76.6875 L 100.703125 76.6875 Z M 96.765625 67.21875 L 98.359375 67.21875 L 98.359375 76.6875 L 96.71875 76.6875 Z M 75.765625 70.96875 L 75.765625 72.5625 L 67.328125 72.5625 L 67.328125 71.015625 Z M 94.1875 70.96875 L 94.1875 72.5625 L 85.75 72.5625 L 85.75 71.015625 Z M 94.1875 70.96875 "/>
<path style=" stroke:none;fill-rule:evenodd;fill:rgb(100%,100%,100%);fill-opacity:1;" d="M 85.796875 71.390625 L 87.390625 71.390625 L 87.390625 76.6875 L 85.796875 76.6875 Z M 85.796875 71.390625 "/>
<path style=" stroke:none;fill-rule:evenodd;fill:rgb(100%,100%,100%);fill-opacity:1;" d="M 85.796875 71.390625 L 87.390625 71.390625 L 87.390625 76.6875 L 85.796875 76.6875 Z M 85.796875 71.390625 "/>
<path style=" stroke:none;fill-rule:evenodd;fill:rgb(100%,100%,100%);fill-opacity:1;" d="M 85.796875 71.390625 L 87.390625 71.390625 L 87.390625 76.6875 L 85.796875 76.6875 Z M 67.375 71.390625 L 68.96875 71.390625 L 68.96875 76.6875 L 67.375 76.6875 Z M 80.875 71.390625 L 82.46875 71.390625 L 82.46875 76.6875 L 80.875 76.6875 Z M 74.171875 71.390625 L 75.765625 71.390625 L 75.765625 76.6875 L 74.171875 76.6875 Z M 74.171875 71.390625 "/>
<path style=" stroke:none;fill-rule:evenodd;fill:rgb(100%,100%,100%);fill-opacity:1;" d="M 82 75.09375 L 82 76.6875 L 74.875 76.6875 L 74.875 75.09375 Z M 82.46875 71.015625 L 82.46875 72.5625 L 77.96875 72.5625 L 77.96875 71.015625 Z M 82.46875 71.015625 "/>
<path style=" stroke:none;fill-rule:evenodd;fill:rgb(100%,100%,100%);fill-opacity:1;" d="M 105.015625 67.21875 L 128.03125 67.21875 L 128.03125 68.8125 L 105.0625 68.8125 Z M 108.484375 75.1875 L 110.03125 75.1875 L 110.03125 76.6875 L 108.484375 76.6875 Z M 128.078125 75.09375 L 128.078125 76.6875 L 123.484375 76.6875 L 123.484375 75.09375 Z M 130.5625 67.21875 L 132.15625 67.21875 L 132.15625 76.6875 L 130.5625 76.6875 Z M 130.5625 67.21875 "/>
<path style=" stroke:none;fill-rule:evenodd;fill:rgb(100%,100%,100%);fill-opacity:1;" d="M 139.75 75.09375 L 139.75 76.6875 L 131.03125 76.6875 L 131.03125 75.09375 Z M 123.484375 71.390625 L 125.078125 71.390625 L 125.078125 76.6875 L 123.484375 76.6875 Z M 123.484375 71.390625 "/>
<path style=" stroke:none;fill-rule:evenodd;fill:rgb(100%,100%,100%);fill-opacity:1;" d="M 138.4375 67.21875 L 140.03125 67.21875 L 140.03125 76.6875 L 138.4375 76.6875 Z M 134.453125 67.21875 L 136.046875 67.21875 L 136.046875 76.6875 L 134.453125 76.6875 Z M 113.453125 70.96875 L 113.453125 72.5625 L 105.0625 72.5625 L 105.0625 71.015625 Z M 131.875 70.96875 L 131.875 72.5625 L 123.484375 72.5625 L 123.484375 71.015625 Z M 131.875 70.96875 "/>
<path style=" stroke:none;fill-rule:evenodd;fill:rgb(100%,100%,100%);fill-opacity:1;" d="M 123.484375 71.390625 L 125.078125 71.390625 L 125.078125 76.6875 L 123.484375 76.6875 Z M 123.484375 71.390625 "/>
<path style=" stroke:none;fill-rule:evenodd;fill:rgb(100%,100%,100%);fill-opacity:1;" d="M 123.484375 71.390625 L 125.078125 71.390625 L 125.078125 76.6875 L 123.484375 76.6875 Z M 123.484375 71.390625 "/>
<path style=" stroke:none;fill-rule:evenodd;fill:rgb(100%,100%,100%);fill-opacity:1;" d="M 123.484375 71.390625 L 125.078125 71.390625 L 125.078125 76.6875 L 123.484375 76.6875 Z M 105.0625 71.390625 L 106.65625 71.390625 L 106.65625 76.6875 L 105.0625 76.6875 Z M 118.5625 71.390625 L 120.15625 71.390625 L 120.15625 76.6875 L 118.5625 76.6875 Z M 111.90625 71.390625 L 113.453125 71.390625 L 113.453125 76.6875 L 111.90625 76.6875 Z M 111.90625 71.390625 "/>
<path style=" stroke:none;fill-rule:evenodd;fill:rgb(100%,100%,100%);fill-opacity:1;" d="M 119.6875 75.09375 L 119.6875 76.6875 L 112.609375 76.6875 L 112.609375 75.09375 Z M 120.15625 71.015625 L 120.15625 72.5625 L 115.65625 72.5625 L 115.65625 71.015625 Z M 120.15625 71.015625 "/>
<path style=" stroke:none;fill-rule:evenodd;fill:rgb(100%,100%,100%);fill-opacity:1;" d="M 142.890625 67.21875 L 165.859375 67.21875 L 165.859375 68.8125 L 142.890625 68.8125 Z M 146.3125 75.1875 L 147.90625 75.1875 L 147.90625 76.6875 L 146.3125 76.6875 Z M 165.953125 75.09375 L 165.953125 76.6875 L 161.359375 76.6875 L 161.359375 75.09375 Z M 168.4375 67.21875 L 169.984375 67.21875 L 169.984375 76.6875 L 168.4375 76.6875 Z M 168.4375 67.21875 "/>
<path style=" stroke:none;fill-rule:evenodd;fill:rgb(100%,100%,100%);fill-opacity:1;" d="M 177.578125 75.09375 L 177.578125 76.6875 L 168.859375 76.6875 L 168.859375 75.09375 Z M 161.359375 71.390625 L 162.953125 71.390625 L 162.953125 76.6875 L 161.359375 76.6875 Z M 161.359375 71.390625 "/>
<path style=" stroke:none;fill-rule:evenodd;fill:rgb(100%,100%,100%);fill-opacity:1;" d="M 176.265625 67.21875 L 177.859375 67.21875 L 177.859375 76.6875 L 176.265625 76.6875 Z M 172.328125 67.21875 L 173.921875 67.21875 L 173.921875 76.6875 L 172.328125 76.6875 Z M 151.328125 70.96875 L 151.328125 72.5625 L 142.890625 72.5625 L 142.890625 71.015625 Z M 169.75 70.96875 L 169.75 72.5625 L 161.3125 72.5625 L 161.3125 71.015625 Z M 169.75 70.96875 "/>
<path style=" stroke:none;fill-rule:evenodd;fill:rgb(100%,100%,100%);fill-opacity:1;" d="M 161.359375 71.390625 L 162.953125 71.390625 L 162.953125 76.6875 L 161.359375 76.6875 Z M 161.359375 71.390625 "/>
<path style=" stroke:none;fill-rule:evenodd;fill:rgb(100%,100%,100%);fill-opacity:1;" d="M 161.359375 71.390625 L 162.953125 71.390625 L 162.953125 76.6875 L 161.359375 76.6875 Z M 161.359375 71.390625 "/>
<path style=" stroke:none;fill-rule:evenodd;fill:rgb(100%,100%,100%);fill-opacity:1;" d="M 161.359375 71.390625 L 162.953125 71.390625 L 162.953125 76.6875 L 161.359375 76.6875 Z M 142.9375 71.390625 L 144.484375 71.390625 L 144.484375 76.6875 L 142.9375 76.6875 Z M 156.4375 71.390625 L 158.03125 71.390625 L 158.03125 76.6875 L 156.4375 76.6875 Z M 149.734375 71.390625 L 151.328125 71.390625 L 151.328125 76.6875 L 149.6875 76.6875 Z M 149.734375 71.390625 "/>
<path style=" stroke:none;fill-rule:evenodd;fill:rgb(100%,100%,100%);fill-opacity:1;" d="M 157.5625 75.09375 L 157.5625 76.6875 L 150.4375 76.6875 L 150.4375 75.09375 Z M 158.03125 71.015625 L 158.03125 72.5625 L 153.4375 72.5625 L 153.4375 71.015625 Z M 158.03125 71.015625 "/>
<path style=" stroke:none;fill-rule:evenodd;fill:rgb(100%,100%,100%);fill-opacity:1;" d="M 180.953125 67.21875 L 203.921875 67.21875 L 203.921875 68.8125 L 180.953125 68.8125 Z M 184.375 75.1875 L 185.96875 75.1875 L 185.96875 76.6875 L 184.375 76.6875 Z M 204.015625 75.09375 L 204.015625 76.6875 L 199.375 76.6875 L 199.375 75.09375 Z M 206.5 67.21875 L 208.046875 67.21875 L 208.046875 76.6875 L 206.5 76.6875 Z M 206.5 67.21875 "/>
<path style=" stroke:none;fill-rule:evenodd;fill:rgb(100%,100%,100%);fill-opacity:1;" d="M 215.640625 75.09375 L 215.640625 76.6875 L 206.921875 76.6875 L 206.921875 75.09375 Z M 199.421875 71.390625 L 201.015625 71.390625 L 201.015625 76.6875 L 199.375 76.6875 Z M 199.421875 71.390625 "/>
<path style=" stroke:none;fill-rule:evenodd;fill:rgb(100%,100%,100%);fill-opacity:1;" d="M 214.375 67.21875 L 215.921875 67.21875 L 215.921875 76.6875 L 214.375 76.6875 Z M 210.390625 67.21875 L 211.984375 67.21875 L 211.984375 76.6875 L 210.390625 76.6875 Z M 189.390625 70.96875 L 189.390625 72.5625 L 180.953125 72.5625 L 180.953125 71.015625 Z M 207.8125 70.96875 L 207.8125 72.5625 L 199.375 72.5625 L 199.375 71.015625 Z M 207.8125 70.96875 "/>
<path style=" stroke:none;fill-rule:evenodd;fill:rgb(100%,100%,100%);fill-opacity:1;" d="M 199.375 71.390625 L 201.015625 71.390625 L 201.015625 76.6875 L 199.375 76.6875 Z M 199.375 71.390625 "/>
<path style=" stroke:none;fill-rule:evenodd;fill:rgb(100%,100%,100%);fill-opacity:1;" d="M 199.375 71.390625 L 201.015625 71.390625 L 201.015625 76.6875 L 199.375 76.6875 Z M 199.375 71.390625 "/>
<path style=" stroke:none;fill-rule:evenodd;fill:rgb(100%,100%,100%);fill-opacity:1;" d="M 199.375 71.390625 L 201.015625 71.390625 L 201.015625 76.6875 L 199.375 76.6875 Z M 181 71.390625 L 182.59375 71.390625 L 182.59375 76.6875 L 181 76.6875 Z M 194.5 71.390625 L 196.09375 71.390625 L 196.09375 76.6875 L 194.5 76.6875 Z M 187.796875 71.390625 L 189.390625 71.390625 L 189.390625 76.6875 L 187.796875 76.6875 Z M 187.796875 71.390625 "/>
<path style=" stroke:none;fill-rule:evenodd;fill:rgb(100%,100%,100%);fill-opacity:1;" d="M 195.625 75.09375 L 195.625 76.6875 L 188.5 76.6875 L 188.5 75.09375 Z M 196.09375 71.015625 L 196.09375 72.5625 L 191.59375 72.5625 L 191.59375 71.015625 Z M 196.09375 71.015625 "/>
<path style=" stroke:none;fill-rule:evenodd;fill:rgb(100%,100%,100%);fill-opacity:1;" d="M 218.78125 67.21875 L 241.75 67.21875 L 241.75 68.8125 L 218.78125 68.8125 Z M 222.203125 75.1875 L 223.796875 75.1875 L 223.796875 76.6875 L 222.203125 76.6875 Z M 241.890625 75.09375 L 241.890625 76.6875 L 237.25 76.6875 L 237.25 75.09375 Z M 244.328125 67.21875 L 245.921875 67.21875 L 245.921875 76.6875 L 244.328125 76.6875 Z M 244.328125 67.21875 "/>
<path style=" stroke:none;fill-rule:evenodd;fill:rgb(100%,100%,100%);fill-opacity:1;" d="M 253.46875 75.09375 L 253.46875 76.6875 L 244.75 76.6875 L 244.75 75.09375 Z M 237.25 71.390625 L 238.84375 71.390625 L 238.84375 76.6875 L 237.25 76.6875 Z M 237.25 71.390625 "/>
<path style=" stroke:none;fill-rule:evenodd;fill:rgb(100%,100%,100%);fill-opacity:1;" d="M 252.203125 67.21875 L 253.75 67.21875 L 253.75 76.6875 L 252.203125 76.6875 Z M 248.21875 67.21875 L 249.8125 67.21875 L 249.8125 76.6875 L 248.21875 76.6875 Z M 227.21875 70.96875 L 227.21875 72.5625 L 218.828125 72.5625 L 218.828125 71.015625 Z M 245.640625 70.96875 L 245.640625 72.5625 L 237.25 72.5625 L 237.25 71.015625 Z M 245.640625 70.96875 "/>
<path style=" stroke:none;fill-rule:evenodd;fill:rgb(100%,100%,100%);fill-opacity:1;" d="M 237.25 71.390625 L 238.84375 71.390625 L 238.84375 76.6875 L 237.25 76.6875 Z M 237.25 71.390625 "/>
<path style=" stroke:none;fill-rule:evenodd;fill:rgb(100%,100%,100%);fill-opacity:1;" d="M 237.25 71.390625 L 238.84375 71.390625 L 238.84375 76.6875 L 237.25 76.6875 Z M 237.25 71.390625 "/>
<path style=" stroke:none;fill-rule:evenodd;fill:rgb(100%,100%,100%);fill-opacity:1;" d="M 237.25 71.390625 L 238.84375 71.390625 L 238.84375 76.6875 L 237.25 76.6875 Z M 218.828125 71.390625 L 220.421875 71.390625 L 220.421875 76.6875 L 218.828125 76.6875 Z M 232.328125 71.390625 L 233.921875 71.390625 L 233.921875 76.6875 L 232.328125 76.6875 Z M 225.625 71.390625 L 227.21875 71.390625 L 227.21875 76.6875 L 225.671875 76.6875 Z M 225.625 71.390625 "/>
<path style=" stroke:none;fill-rule:evenodd;fill:rgb(100%,100%,100%);fill-opacity:1;" d="M 233.453125 75.09375 L 233.453125 76.6875 L 226.375 76.6875 L 226.375 75.09375 Z M 233.921875 71.015625 L 233.921875 72.5625 L 229.375 72.5625 L 229.375 71.015625 Z M 233.921875 71.015625 "/>
<path style=" stroke:none;fill-rule:evenodd;fill:rgb(100%,100%,100%);fill-opacity:1;" d="M 256.65625 67.21875 L 279.625 67.21875 L 279.625 68.8125 L 256.65625 68.8125 Z M 260.078125 75.1875 L 261.671875 75.1875 L 261.671875 76.6875 L 260.078125 76.6875 Z M 279.71875 75.09375 L 279.71875 76.6875 L 275.125 76.6875 L 275.125 75.09375 Z M 282.15625 67.21875 L 283.75 67.21875 L 283.75 76.6875 L 282.15625 76.6875 Z M 282.15625 67.21875 "/>
<path style=" stroke:none;fill-rule:evenodd;fill:rgb(100%,100%,100%);fill-opacity:1;" d="M 291.34375 75.09375 L 291.34375 76.6875 L 282.625 76.6875 L 282.625 75.09375 Z M 275.078125 71.390625 L 276.671875 71.390625 L 276.671875 76.6875 L 275.078125 76.6875 Z M 275.078125 71.390625 "/>
<path style=" stroke:none;fill-rule:evenodd;fill:rgb(100%,100%,100%);fill-opacity:1;" d="M 290.03125 67.21875 L 291.625 67.21875 L 291.625 76.6875 L 290.03125 76.6875 Z M 286.09375 67.21875 L 287.640625 67.21875 L 287.640625 76.6875 L 286.09375 76.6875 Z M 265.09375 70.96875 L 265.09375 72.5625 L 256.65625 72.5625 L 256.65625 71.015625 Z M 283.515625 70.96875 L 283.515625 72.5625 L 275.078125 72.5625 L 275.078125 71.015625 Z M 283.515625 70.96875 "/>
<path style=" stroke:none;fill-rule:evenodd;fill:rgb(100%,100%,100%);fill-opacity:1;" d="M 275.125 71.390625 L 276.671875 71.390625 L 276.671875 76.6875 L 275.125 76.6875 Z M 275.125 71.390625 "/>
<path style=" stroke:none;fill-rule:evenodd;fill:rgb(100%,100%,100%);fill-opacity:1;" d="M 275.125 71.390625 L 276.671875 71.390625 L 276.671875 76.6875 L 275.125 76.6875 Z M 275.125 71.390625 "/>
<path style=" stroke:none;fill-rule:evenodd;fill:rgb(100%,100%,100%);fill-opacity:1;" d="M 275.125 71.390625 L 276.671875 71.390625 L 276.671875 76.6875 L 275.125 76.6875 Z M 256.65625 71.390625 L 258.25 71.390625 L 258.25 76.6875 L 256.65625 76.6875 Z M 270.203125 71.390625 L 271.75 71.390625 L 271.75 76.6875 L 270.203125 76.6875 Z M 263.5 71.390625 L 265.09375 71.390625 L 265.09375 76.6875 L 263.5 76.6875 Z M 263.5 71.390625 "/>
<path style=" stroke:none;fill-rule:evenodd;fill:rgb(100%,100%,100%);fill-opacity:1;" d="M 271.28125 75.09375 L 271.28125 76.6875 L 264.203125 76.6875 L 264.203125 75.09375 Z M 271.75 71.015625 L 271.75 72.5625 L 267.25 72.5625 L 267.25 71.015625 Z M 271.75 71.015625 "/>
<path style=" stroke:none;fill-rule:evenodd;fill:rgb(100%,100%,100%);fill-opacity:1;" d="M 294.71875 67.21875 L 317.6875 67.21875 L 317.6875 68.8125 L 294.71875 68.8125 Z M 298.140625 75.1875 L 299.734375 75.1875 L 299.734375 76.6875 L 298.140625 76.6875 Z M 317.78125 75.09375 L 317.78125 76.6875 L 313.1875 76.6875 L 313.1875 75.09375 Z M 320.21875 67.21875 L 321.8125 67.21875 L 321.8125 76.6875 L 320.21875 76.6875 Z M 320.21875 67.21875 "/>
<path style=" stroke:none;fill-rule:evenodd;fill:rgb(100%,100%,100%);fill-opacity:1;" d="M 329.40625 75.09375 L 329.40625 76.6875 L 320.6875 76.6875 L 320.6875 75.09375 Z M 313.1875 71.390625 L 314.734375 71.390625 L 314.734375 76.6875 L 313.1875 76.6875 Z M 313.1875 71.390625 "/>
<path style=" stroke:none;fill-rule:evenodd;fill:rgb(100%,100%,100%);fill-opacity:1;" d="M 328.09375 67.21875 L 329.6875 67.21875 L 329.6875 76.6875 L 328.09375 76.6875 Z M 324.15625 67.21875 L 325.703125 67.21875 L 325.703125 76.6875 L 324.15625 76.6875 Z M 303.15625 70.96875 L 303.15625 72.5625 L 294.71875 72.5625 L 294.71875 71.015625 Z M 321.578125 70.96875 L 321.578125 72.5625 L 313.140625 72.5625 L 313.140625 71.015625 Z M 321.578125 70.96875 "/>
<path style=" stroke:none;fill-rule:evenodd;fill:rgb(100%,100%,100%);fill-opacity:1;" d="M 313.1875 71.390625 L 314.734375 71.390625 L 314.734375 76.6875 L 313.1875 76.6875 Z M 313.1875 71.390625 "/>
<path style=" stroke:none;fill-rule:evenodd;fill:rgb(100%,100%,100%);fill-opacity:1;" d="M 313.1875 71.390625 L 314.734375 71.390625 L 314.734375 76.6875 L 313.1875 76.6875 Z M 313.1875 71.390625 "/>
<path style=" stroke:none;fill-rule:evenodd;fill:rgb(100%,100%,100%);fill-opacity:1;" d="M 313.1875 71.390625 L 314.734375 71.390625 L 314.734375 76.6875 L 313.1875 76.6875 Z M 294.765625 71.390625 L 296.3125 71.390625 L 296.3125 76.6875 L 294.765625 76.6875 Z M 308.265625 71.390625 L 309.859375 71.390625 L 309.859375 76.6875 L 308.265625 76.6875 Z M 301.5625 71.390625 L 303.15625 71.390625 L 303.15625 76.6875 L 301.5625 76.6875 Z M 301.5625 71.390625 "/>
<path style=" stroke:none;fill-rule:evenodd;fill:rgb(100%,100%,100%);fill-opacity:1;" d="M 309.34375 75.09375 L 309.34375 76.6875 L 302.265625 76.6875 L 302.265625 75.09375 Z M 309.8125 71.015625 L 309.8125 72.5625 L 305.3125 72.5625 L 305.3125 71.015625 Z M 309.8125 71.015625 "/>
<g clip-path="url(#clip12)" clip-rule="nonzero">
<path style=" stroke:none;fill-rule:evenodd;fill:rgb(85.09804%,0%,0%);fill-opacity:1;" d="M 7.75 159.140625 L 10.5625 159.140625 L 10.5625 164.0625 L 7.75 164.0625 Z M 82.984375 159.140625 L 85.796875 159.140625 L 85.796875 164.0625 L 82.984375 164.0625 Z M -50 159.140625 L -47.1875 159.140625 L -47.1875 164.0625 L -50 164.0625 Z M -11.796875 159.140625 L -8.984375 159.140625 L -8.984375 164.0625 L -11.796875 164.0625 Z M 26.125 159.140625 L 28.9375 159.140625 L 28.9375 164.0625 L 26.125 164.0625 Z M 44.875 159.140625 L 47.6875 159.140625 L 47.6875 164.0625 L 44.875 164.0625 Z M 64.046875 159.140625 L 66.859375 159.140625 L 66.859375 164.0625 L 64.046875 164.0625 Z M 101.734375 159.140625 L 104.546875 159.140625 L 104.546875 164.0625 L 101.734375 164.0625 Z M 196.890625 159.140625 L 199.75 159.140625 L 199.75 164.0625 L 196.9375 164.0625 Z M 120.90625 159.140625 L 123.71875 159.140625 L 123.71875 164.0625 L 120.90625 164.0625 Z M 139.65625 159.140625 L 142.46875 159.140625 L 142.46875 164.0625 L 139.65625 164.0625 Z M 158.640625 159.140625 L 161.453125 159.140625 L 161.453125 164.0625 L 158.640625 164.0625 Z M 177.578125 159.140625 L 180.390625 159.140625 L 180.390625 164.0625 L 177.578125 164.0625 Z M 329.078125 159.140625 L 331.890625 159.140625 L 331.890625 164.0625 L 329.078125 164.0625 Z M 215.3125 159.140625 L 218.125 159.140625 L 218.125 164.0625 L 215.3125 164.0625 Z M 234.4375 159.140625 L 237.25 159.140625 L 237.25 164.0625 L 234.4375 164.0625 Z M 253.796875 159.140625 L 256.609375 159.140625 L 256.609375 164.0625 L 253.796875 164.0625 Z M 271.984375 159.140625 L 274.796875 159.140625 L 274.796875 164.0625 L 271.984375 164.0625 Z M 291.34375 159.140625 L 294.15625 159.140625 L 294.15625 164.0625 L 291.34375 164.0625 Z M 310.28125 159.140625 L 313.09375 159.140625 L 313.09375 164.0625 L 310.28125 164.0625 Z M 366.390625 159.140625 L 369.203125 159.140625 L 369.203125 164.0625 L 366.390625 164.0625 Z M 348.203125 159.140625 L 351.015625 159.140625 L 351.015625 164.0625 L 348.203125 164.0625 Z M -30.96875 159.140625 L -28.15625 159.140625 L -28.15625 164.0625 L -30.96875 164.0625 Z M -30.96875 159.140625 "/>
</g>
<g clip-path="url(#clip13)" clip-rule="nonzero">
<path style=" stroke:none;fill-rule:evenodd;fill:rgb(13.725491%,61.960787%,24.705882%);fill-opacity:1;" d="M 7.75 76.21875 L 10.5625 76.21875 L 10.5625 81.140625 L 7.75 81.140625 Z M 82.984375 76.21875 L 85.796875 76.21875 L 85.796875 81.140625 L 82.984375 81.140625 Z M -50 76.21875 L -47.1875 76.21875 L -47.1875 81.140625 L -50 81.140625 Z M -11.796875 76.21875 L -8.984375 76.21875 L -8.984375 81.140625 L -11.796875 81.140625 Z M 26.125 76.21875 L 28.9375 76.21875 L 28.9375 81.140625 L 26.125 81.140625 Z M 44.875 76.21875 L 47.6875 76.21875 L 47.6875 81.140625 L 44.875 81.140625 Z M 64.046875 76.21875 L 66.859375 76.21875 L 66.859375 81.140625 L 64.046875 81.140625 Z M 101.734375 76.21875 L 104.546875 76.21875 L 104.546875 81.140625 L 101.734375 81.140625 Z M 196.890625 76.21875 L 199.75 76.21875 L 199.75 81.140625 L 196.9375 81.140625 Z M 120.90625 76.21875 L 123.71875 76.21875 L 123.71875 81.140625 L 120.90625 81.140625 Z M 139.65625 76.21875 L 142.46875 76.21875 L 142.46875 81.140625 L 139.65625 81.140625 Z M 158.640625 76.21875 L 161.453125 76.21875 L 161.453125 81.140625 L 158.640625 81.140625 Z M 177.578125 76.21875 L 180.390625 76.21875 L 180.390625 81.140625 L 177.578125 81.140625 Z M 329.078125 76.21875 L 331.890625 76.21875 L 331.890625 81.140625 L 329.078125 81.140625 Z M 215.3125 76.21875 L 218.125 76.21875 L 218.125 81.140625 L 215.3125 81.140625 Z M 234.4375 76.21875 L 237.25 76.21875 L 237.25 81.140625 L 234.4375 81.140625 Z M 253.796875 76.21875 L 256.609375 76.21875 L 256.609375 81.140625 L 253.796875 81.140625 Z M 271.984375 76.21875 L 274.796875 76.21875 L 274.796875 81.140625 L 271.984375 81.140625 Z M 291.34375 76.21875 L 294.15625 76.21875 L 294.15625 81.140625 L 291.34375 81.140625 Z M 310.28125 76.21875 L 313.09375 76.21875 L 313.09375 81.140625 L 310.28125 81.140625 Z M 366.390625 76.21875 L 369.203125 76.21875 L 369.203125 81.140625 L 366.390625 81.140625 Z M 348.203125 76.21875 L 351.015625 76.21875 L 351.015625 81.140625 L 348.203125 81.140625 Z M -30.96875 76.21875 L -28.15625 76.21875 L -28.15625 81.140625 L -30.96875 81.140625 Z M -30.96875 76.21875 "/>
</g>
<path style=" stroke:none;fill-rule:evenodd;fill:rgb(85.490197%,0%,0%);fill-opacity:1;" d="M 171.15625 92.578125 C 175.09375 97.453125 187.328125 124.265625 163.796875 141.890625 C 152.6875 150.234375 159.578125 150.609375 159.90625 152.015625 C 177.71875 142.59375 183.484375 129.75 183.34375 118.265625 C 183.25 106.828125 177.15625 96.703125 171.15625 92.578125 "/>
<path style=" stroke:none;fill-rule:evenodd;fill:rgb(85.490197%,0%,0%);fill-opacity:1;" d="M 173.5 91.3125 C 182.308594 96.671875 188.242188 105.703125 189.667969 115.910156 C 191.09375 126.121094 187.859375 136.433594 180.859375 144 C 193.609375 141.1875 209.921875 103.5 173.5 91.3125 M 146.5 91.3125 C 137.699219 96.679688 131.773438 105.714844 130.355469 115.921875 C 128.941406 126.132812 132.183594 136.4375 139.1875 144 C 126.390625 141.1875 110.125 103.5 146.5 91.3125 "/>
<path style=" stroke:none;fill-rule:evenodd;fill:rgb(85.490197%,0%,0%);fill-opacity:1;" d="M 148.84375 92.578125 C 144.90625 97.453125 132.671875 124.265625 156.203125 141.890625 C 167.265625 150.234375 160.421875 150.609375 160.09375 152.015625 C 142.28125 142.59375 136.515625 129.75 136.65625 118.265625 C 136.75 106.828125 142.84375 96.703125 148.84375 92.578125 "/>
<path style=" stroke:none;fill-rule:evenodd;fill:rgb(85.490197%,0%,0%);fill-opacity:1;" d="M 182.59375 149.578125 C 175.609375 149.671875 166.84375 148.640625 160.328125 145.21875 C 161.40625 147.328125 162.296875 148.640625 163.375 150.703125 C 169.5625 151.3125 178.140625 152.015625 182.59375 149.578125 M 138.0625 149.578125 C 145.046875 149.671875 153.8125 148.640625 160.328125 145.21875 C 159.25 147.328125 158.359375 148.640625 157.28125 150.703125 C 151.09375 151.3125 142.515625 152.015625 138.0625 149.578125 M 150.859375 84.5625 C 152.265625 88.3125 155.96875 88.875 159.90625 86.671875 C 162.8125 88.359375 167.265625 88.5 168.8125 84.75 C 169.984375 94.03125 160.234375 91.78125 159.90625 90 C 156.25 93.515625 149.5 91.5 150.859375 84.5625 "/>
<path style=" stroke:none;fill-rule:evenodd;fill:rgb(85.490197%,0%,0%);fill-opacity:1;" d="M 160.1875 155.4375 L 163.84375 151.21875 L 164.359375 94.921875 L 160 91.078125 L 155.640625 94.734375 L 156.53125 151.453125 Z M 160.1875 155.4375 "/>
</g>
</svg>
