<?xml version="1.0" encoding="UTF-8"?>
<svg xmlns="http://www.w3.org/2000/svg" xmlns:xlink="http://www.w3.org/1999/xlink" width="px" height="px" viewBox="0 0 320 240" version="1.1">
<g id="surface1">
<rect x="0" y="0" width="320" height="240" style="fill:rgb(100%,100%,100%);fill-opacity:1;stroke:none;"/>
<path style=" stroke:none;fill-rule:nonzero;fill:rgb(0%,0%,0.392157%);fill-opacity:1;" d="M 0 0 L 320 0 L 320 72 L 0 72 Z M 0 0 "/>
<path style=" stroke:none;fill-rule:nonzero;fill:rgb(0%,40.000001%,0%);fill-opacity:1;" d="M 0 168 L 320 168 L 320 240 L 0 240 Z M 0 168 "/>
<path style="fill-rule:nonzero;fill:rgb(0%,0%,0%);fill-opacity:1;stroke-width:1;stroke-linecap:butt;stroke-linejoin:miter;stroke:rgb(0%,0%,0%);stroke-opacity:1;stroke-miterlimit:10;" d="M -28.598958 47.5 L -26.799479 48.5 L 19.901042 -32.5 C 22.598958 -33.098958 24.098958 -35.700521 25.598958 -38.299479 C 26.598958 -40.098958 30.598958 -47 32.299479 -56 C 27.554688 -51.783854 23.536458 -46.817708 20.401042 -41.299479 C 18.901042 -38.700521 17.401042 -36.098958 18.098958 -33.401042 Z M -28.598958 47.5 " transform="matrix(1.5,0,0,1.5,160,120)"/>
<path style=" stroke:none;fill-rule:nonzero;fill:rgb(100%,100%,100%);fill-opacity:1;" d="M 117.101562 191.25 L 119.800781 192.75 L 189.851562 71.25 C 193.898438 70.351562 196.148438 66.449219 198.398438 62.550781 C 199.898438 59.851562 205.898438 49.5 208.449219 36 C 201.332031 42.324219 195.304688 49.773438 190.601562 58.050781 C 188.351562 61.949219 186.101562 65.851562 187.148438 69.898438 Z M 117.101562 191.25 "/>
<path style="fill-rule:nonzero;fill:rgb(0%,0%,0%);fill-opacity:1;stroke-width:1;stroke-linecap:butt;stroke-linejoin:miter;stroke:rgb(0%,0%,0%);stroke-opacity:1;stroke-miterlimit:10;" d="M -28.598958 47.5 L -26.799479 48.5 L 19.901042 -32.5 C 22.598958 -33.098958 24.098958 -35.700521 25.598958 -38.299479 C 26.598958 -40.098958 30.598958 -47 32.299479 -56 C 27.554688 -51.783854 23.536458 -46.817708 20.401042 -41.299479 C 18.901042 -38.700521 17.401042 -36.098958 18.098958 -33.401042 Z M -28.598958 47.5 " transform="matrix(-1.5,0,0,1.5,160,120)"/>
<path style=" stroke:none;fill-rule:nonzero;fill:rgb(100%,100%,100%);fill-opacity:1;" d="M 202.898438 191.25 L 200.199219 192.75 L 130.148438 71.25 C 126.101562 70.351562 123.851562 66.449219 121.601562 62.550781 C 120.101562 59.851562 114.101562 49.5 111.550781 36 C 118.667969 42.324219 124.695312 49.773438 129.398438 58.050781 C 131.648438 61.949219 133.898438 65.851562 132.851562 69.898438 Z M 202.898438 191.25 "/>
<path style=" stroke:none;fill-rule:nonzero;fill:rgb(73.333335%,0%,0%);fill-opacity:1;" d="M 320.25 84 L 188.5 84 C 184 72 169 48 160 48 C 151 48 136 72 131.5 84 L -0.101562 84 L -0.101562 156 L 131.5 156 C 136 168 151 192 160 192 C 169 192 184 168 188.5 156 L 320.25 156 Z M 320.25 84 "/>
<path style=" stroke:none;fill-rule:nonzero;fill:rgb(0%,0%,0%);fill-opacity:1;" d="M 188.5 156 C 193 144 196 132 196 120 C 196 108 193 96 188.5 84 C 184 96 181 108 181 120 C 181 132 184 144 188.5 156 "/>
<path style=" stroke:none;fill-rule:nonzero;fill:rgb(0%,0%,0%);fill-opacity:1;" d="M 131.5 156 C 127 144 124 132 124 120 C 124 108 127 96 131.5 84 C 136 96 139 108 139 120 C 139 132 136 144 131.5 156 "/>
<path style=" stroke:none;fill-rule:nonzero;fill:rgb(100%,100%,100%);fill-opacity:1;" d="M 166 120 C 166 115.03125 163.3125 111 160 111 C 156.6875 111 154 115.03125 154 120 C 154 124.96875 156.6875 129 160 129 C 163.3125 129 166 124.96875 166 120 Z M 166 120 "/>
<path style=" stroke:none;fill-rule:nonzero;fill:rgb(100%,100%,100%);fill-opacity:1;" d="M 161.5 128.699219 C 161.5 128.699219 167.5 140.699219 167.5 160.199219 C 167.5 179.699219 161.5 191.699219 161.5 191.699219 Z M 161.5 128.699219 "/>
<path style=" stroke:none;fill-rule:nonzero;fill:rgb(100%,100%,100%);fill-opacity:1;" d="M 158.5 111.300781 C 158.5 111.300781 152.5 99.300781 152.5 79.800781 C 152.5 60.300781 158.5 48.300781 158.5 48.300781 Z M 158.5 111.300781 "/>
<path style=" stroke:none;fill-rule:nonzero;fill:rgb(100%,100%,100%);fill-opacity:1;" d="M 158.5 128.699219 C 158.5 128.699219 152.5 140.699219 152.5 160.199219 C 152.5 179.699219 158.5 191.699219 158.5 191.699219 Z M 158.5 128.699219 "/>
<path style=" stroke:none;fill-rule:nonzero;fill:rgb(100%,100%,100%);fill-opacity:1;" d="M 161.5 111.300781 C 161.5 111.300781 167.5 99.300781 167.5 79.800781 C 167.5 60.300781 161.5 48.300781 161.5 48.300781 Z M 161.5 111.300781 "/>
</g>
</svg>
