<?xml version="1.0" encoding="UTF-8"?>
<svg xmlns="http://www.w3.org/2000/svg" xmlns:xlink="http://www.w3.org/1999/xlink" width="px" height="px" viewBox="0 0 320 240" version="1.1">
<defs>
<clipPath id="clip1">
  <path d="M 0.046875 0 L 320 0 L 320 144 L 0.046875 144 Z M 0.046875 0 "/>
</clipPath>
<clipPath id="clip2">
  <path d="M 0.046875 142 L 320 142 L 320 240 L 0.046875 240 Z M 0.046875 142 "/>
</clipPath>
<clipPath id="clip3">
  <path d="M 0.046875 158 L 320 158 L 320 228 L 0.046875 228 Z M 0.046875 158 "/>
</clipPath>
<clipPath id="clip4">
  <path d="M 0.046875 124 L 320 124 L 320 160 L 0.046875 160 Z M 0.046875 124 "/>
</clipPath>
</defs>
<g id="surface1">
<g clip-path="url(#clip1)" clip-rule="nonzero">
<path style=" stroke:none;fill-rule:evenodd;fill:rgb(90.588236%,24.313726%,17.647059%);fill-opacity:1;" d="M -36.515625 0 L 355.265625 0 L 355.265625 143.671875 L -36.515625 143.671875 Z M -36.515625 0 "/>
</g>
<path style="fill-rule:evenodd;fill:rgb(99.607843%,78.039217%,29.019609%);fill-opacity:1;stroke-width:1.7;stroke-linecap:butt;stroke-linejoin:miter;stroke:rgb(84.705883%,66.666669%,24.705882%);stroke-opacity:1;stroke-miterlimit:4;" d="M 204.3 282.1 C 184.9 266.9 148.7 272.1 142.7 230.8 C 170.4 252.3 165.4 229.6 206.7 250.1 Z M 204.3 282.1 " transform="matrix(0.46875,0,0,0.46875,40.5,0)"/>
<path style="fill-rule:evenodd;fill:rgb(99.607843%,78.039217%,29.019609%);fill-opacity:1;stroke-width:1.7;stroke-linecap:butt;stroke-linejoin:miter;stroke:rgb(84.705883%,66.666669%,24.705882%);stroke-opacity:1;stroke-miterlimit:4;" d="M 209.5 263.4 C 195.6 243 159.5 236.8 166.5 195.7 C 186.4 224.6 188.5 201.4 221.7 233.6 Z M 209.5 263.4 " transform="matrix(0.46875,0,0,0.46875,40.5,0)"/>
<path style="fill-rule:evenodd;fill:rgb(99.607843%,78.039217%,29.019609%);fill-opacity:1;stroke-width:1.7;stroke-linecap:butt;stroke-linejoin:miter;stroke:rgb(84.705883%,66.666669%,24.705882%);stroke-opacity:1;stroke-miterlimit:4;" d="M 215.8 250 C 210.8 225.9 179.8 206.4 202 171 C 209.2 205.4 220 184.8 238.4 227.2 Z M 215.8 250 " transform="matrix(0.46875,0,0,0.46875,40.5,0)"/>
<path style="fill-rule:evenodd;fill:rgb(99.607843%,78.039217%,29.019609%);fill-opacity:1;stroke-width:1.7;stroke-linecap:butt;stroke-linejoin:miter;stroke:rgb(84.705883%,66.666669%,24.705882%);stroke-opacity:1;stroke-miterlimit:4;" d="M 230.3 237.6 C 233 213.1 209.5 185 241.4 158.2 C 237.8 193.1 254.4 176.9 258.9 222.8 Z M 230.3 237.6 " transform="matrix(0.46875,0,0,0.46875,40.5,0)"/>
<path style="fill-rule:evenodd;fill:rgb(99.607843%,78.039217%,29.019609%);fill-opacity:1;stroke-width:1.7;stroke-linecap:butt;stroke-linejoin:miter;stroke:rgb(84.705883%,66.666669%,24.705882%);stroke-opacity:1;stroke-miterlimit:4;" d="M 243.3 227.7 C 255.7 206.4 245.8 171.2 285.9 159.8 C 268.3 190.1 290.1 182.1 275.4 225.8 Z M 243.3 227.7 " transform="matrix(0.46875,0,0,0.46875,40.5,0)"/>
<path style="fill-rule:evenodd;fill:rgb(99.607843%,78.039217%,29.019609%);fill-opacity:1;stroke-width:1.7;stroke-linecap:butt;stroke-linejoin:miter;stroke:rgb(84.705883%,66.666669%,24.705882%);stroke-opacity:1;stroke-miterlimit:4;" d="M 262 230.3 C 280.6 214.1 282.4 177.5 324 179.4 C 297.7 202.6 321 201.9 293 238.8 Z M 262 230.3 " transform="matrix(0.46875,0,0,0.46875,40.5,0)"/>
<path style="fill-rule:evenodd;fill:rgb(99.607843%,78.039217%,29.019609%);fill-opacity:1;stroke-width:1.7;stroke-linecap:butt;stroke-linejoin:miter;stroke:rgb(84.705883%,66.666669%,24.705882%);stroke-opacity:1;stroke-miterlimit:4;" d="M 278.6 239.9 C 301.1 229.8 313.5 195.4 352.7 209.4 C 320.7 223.9 343.2 230.1 305.7 257.1 Z M 278.6 239.9 " transform="matrix(0.46875,0,0,0.46875,40.5,0)"/>
<path style="fill-rule:evenodd;fill:rgb(99.607843%,78.039217%,29.019609%);fill-opacity:1;stroke-width:1.7;stroke-linecap:butt;stroke-linejoin:miter;stroke:rgb(84.705883%,66.666669%,24.705882%);stroke-opacity:1;stroke-miterlimit:4;" d="M 292.5 255 C 316.9 251.6 338.5 222 372.2 246.6 C 337.5 251.5 357.2 263.7 313.7 279.1 Z M 292.5 255 " transform="matrix(0.46875,0,0,0.46875,40.5,0)"/>
<path style="fill-rule:evenodd;fill:rgb(99.607843%,78.039217%,29.019609%);fill-opacity:1;stroke-width:1.7;stroke-linecap:butt;stroke-linejoin:miter;stroke:rgb(84.705883%,66.666669%,24.705882%);stroke-opacity:1;stroke-miterlimit:4;" d="M 379.5 259.6 L 267.4 262.1 L 272.1 292.3 Z M 379.5 259.6 " transform="matrix(0.46875,0,0,0.46875,40.5,0)"/>
<path style="fill-rule:evenodd;fill:rgb(99.607843%,78.039217%,29.019609%);fill-opacity:1;stroke-width:1.7;stroke-linecap:butt;stroke-linejoin:miter;stroke:rgb(84.705883%,66.666669%,24.705882%);stroke-opacity:1;stroke-miterlimit:4;" d="M 363 218.4 L 259.2 258.3 L 276.5 291.6 Z M 363 218.4 " transform="matrix(0.46875,0,0,0.46875,40.5,0)"/>
<path style="fill-rule:evenodd;fill:rgb(99.607843%,78.039217%,29.019609%);fill-opacity:1;stroke-width:1.7;stroke-linecap:butt;stroke-linejoin:miter;stroke:rgb(84.705883%,66.666669%,24.705882%);stroke-opacity:1;stroke-miterlimit:4;" d="M 280.6 280.7 L 334.3 183.1 L 251.9 259.8 Z M 280.6 280.7 " transform="matrix(0.46875,0,0,0.46875,40.5,0)"/>
<path style="fill-rule:evenodd;fill:rgb(99.607843%,78.039217%,29.019609%);fill-opacity:1;stroke-width:1.7;stroke-linecap:butt;stroke-linejoin:miter;stroke:rgb(84.705883%,66.666669%,24.705882%);stroke-opacity:1;stroke-miterlimit:4;" d="M 279.5 272.6 L 296.7 163.2 L 242.9 260.4 Z M 279.5 272.6 " transform="matrix(0.46875,0,0,0.46875,40.5,0)"/>
<path style="fill-rule:evenodd;fill:rgb(99.607843%,78.039217%,29.019609%);fill-opacity:1;stroke-width:1.7;stroke-linecap:butt;stroke-linejoin:miter;stroke:rgb(84.705883%,66.666669%,24.705882%);stroke-opacity:1;stroke-miterlimit:4;" d="M 273 263.7 L 255 153.5 L 235 264.2 Z M 273 263.7 " transform="matrix(0.46875,0,0,0.46875,40.5,0)"/>
<path style="fill-rule:evenodd;fill:rgb(99.607843%,78.039217%,29.019609%);fill-opacity:1;stroke-width:1.7;stroke-linecap:butt;stroke-linejoin:miter;stroke:rgb(84.705883%,66.666669%,24.705882%);stroke-opacity:1;stroke-miterlimit:4;" d="M 263.7 254.3 L 211.4 162.3 L 231.4 274.1 Z M 263.7 254.3 " transform="matrix(0.46875,0,0,0.46875,40.5,0)"/>
<path style="fill-rule:evenodd;fill:rgb(99.607843%,78.039217%,29.019609%);fill-opacity:1;stroke-width:1.7;stroke-linecap:butt;stroke-linejoin:miter;stroke:rgb(84.705883%,66.666669%,24.705882%);stroke-opacity:1;stroke-miterlimit:4;" d="M 255.6 253.6 L 174.5 185.1 L 232.1 283.1 Z M 255.6 253.6 " transform="matrix(0.46875,0,0,0.46875,40.5,0)"/>
<path style="fill-rule:evenodd;fill:rgb(99.607843%,78.039217%,29.019609%);fill-opacity:1;stroke-width:1.7;stroke-linecap:butt;stroke-linejoin:miter;stroke:rgb(84.705883%,66.666669%,24.705882%);stroke-opacity:1;stroke-miterlimit:4;" d="M 146 218.9 L 233 290.8 L 246.4 253.2 Z M 146 218.9 " transform="matrix(0.46875,0,0,0.46875,40.5,0)"/>
<path style="fill-rule:evenodd;fill:rgb(99.607843%,78.039217%,29.019609%);fill-opacity:1;stroke-width:1.7;stroke-linecap:butt;stroke-linejoin:miter;stroke:rgb(84.705883%,66.666669%,24.705882%);stroke-opacity:1;stroke-miterlimit:4;" d="M 232.1 260.9 L 129.8 259.4 L 231.7 293.4 Z M 232.1 260.9 " transform="matrix(0.46875,0,0,0.46875,40.5,0)"/>
<path style="fill-rule:evenodd;fill:rgb(99.607843%,78.039217%,29.019609%);fill-opacity:1;stroke-width:1.7;stroke-linecap:butt;stroke-linejoin:miter;stroke:rgb(84.705883%,66.666669%,24.705882%);stroke-opacity:1;stroke-miterlimit:4;" d="M 315.1 279.2 C 316.008333 301.708333 304.516667 322.908333 285.166667 334.433333 C 265.808333 345.958333 241.691667 345.958333 222.333333 334.433333 C 202.983333 322.908333 191.491667 301.708333 192.4 279.2 C 193.733333 246.283333 220.8 220.275 253.75 220.275 C 286.7 220.275 313.766667 246.283333 315.1 279.2 Z M 315.1 279.2 " transform="matrix(0.46875,0,0,0.46875,40.5,0)"/>
<g clip-path="url(#clip2)" clip-rule="nonzero">
<path style=" stroke:none;fill-rule:evenodd;fill:rgb(0%,34.901962%,53.725493%);fill-opacity:1;" d="M -36.890625 142.21875 L 356.8125 142.21875 L 356.8125 240 L -36.9375 240 Z M -36.890625 142.21875 "/>
</g>
<g clip-path="url(#clip3)" clip-rule="nonzero">
<path style=" stroke:none;fill-rule:evenodd;fill:rgb(100%,100%,100%);fill-opacity:1;" d="M -37.125 212.8125 C -29.8125 216.1875 -19.3125 224.671875 -8.0625 224.671875 C 10.6875 224.53125 11.15625 211.828125 30.1875 212.4375 C 49.265625 212.90625 45.796875 226.3125 71.53125 226.265625 C 92.8125 226.171875 99.65625 210 118.03125 211.921875 C 131.625 211.21875 137.15625 227.25 158.015625 227.484375 C 179.671875 227.953125 187.59375 210 201.140625 211.5 C 215.671875 211.5 220.359375 225.9375 240.65625 226.03125 C 266.53125 226.171875 271.078125 211.03125 287.203125 211.96875 C 298.734375 211.734375 307.828125 223.078125 324.703125 223.359375 C 338.109375 223.59375 349.40625 213.421875 357.046875 209.765625 L 357.375 192.515625 C 349.40625 195.46875 337.5 205.21875 325.640625 205.3125 C 308.484375 205.96875 297.9375 194.0625 286.03125 194.203125 C 271.78125 194.34375 266.109375 208.875 241.96875 208.875 C 219.84375 208.875 214.78125 194.203125 200.53125 194.203125 C 186.609375 194.296875 182.34375 210.140625 158.203125 209.859375 C 138.515625 209.625 130.875 194.71875 116.953125 194.859375 C 102.1875 194.859375 86.953125 209.34375 70.546875 208.640625 C 48.046875 207.703125 43.125 194.859375 28.359375 194.859375 C 17.34375 194.859375 5.390625 206.859375 -7.875 207.046875 C -21.09375 207.28125 -35.953125 195.09375 -37.3125 194.859375 Z M -37.125 178.59375 C -29.8125 182.015625 -19.3125 190.5 -8.0625 190.5 C 10.6875 190.359375 11.15625 177.65625 30.1875 178.21875 C 49.265625 178.6875 45.796875 192.140625 71.53125 192.046875 C 92.8125 192.046875 99.65625 175.828125 118.03125 177.75 C 131.625 177.046875 137.15625 193.078125 158.015625 193.265625 C 179.671875 193.734375 187.59375 175.828125 201.140625 177.328125 C 215.671875 177.328125 220.359375 191.765625 240.65625 191.859375 C 266.53125 192 271.078125 176.859375 287.203125 177.796875 C 298.734375 177.5625 307.828125 188.90625 324.703125 189.1875 C 338.109375 189.421875 349.40625 179.25 357.046875 175.59375 L 357.375 158.34375 C 349.40625 161.296875 337.5 171 325.640625 171.140625 C 308.484375 171.75 297.9375 159.890625 286.03125 160.03125 C 271.78125 160.171875 266.109375 174.703125 241.96875 174.703125 C 219.84375 174.703125 214.78125 160.03125 200.53125 160.03125 C 186.609375 160.125 182.34375 175.96875 158.203125 175.6875 C 138.515625 175.453125 130.875 160.546875 116.953125 160.6875 C 102.1875 160.6875 86.953125 175.125 70.546875 174.421875 C 48.046875 173.484375 43.125 160.640625 28.359375 160.640625 C 17.34375 160.640625 5.390625 172.6875 -7.875 172.875 C -21.140625 173.0625 -35.953125 160.921875 -37.3125 160.6875 L -37.125 178.640625 Z M -37.125 178.59375 "/>
</g>
<g clip-path="url(#clip4)" clip-rule="nonzero">
<path style=" stroke:none;fill-rule:evenodd;fill:rgb(100%,100%,100%);fill-opacity:1;" d="M -37.125 144.84375 C -29.8125 148.21875 -19.3125 156.65625 -8.109375 156.65625 C 10.640625 156.5625 11.109375 143.8125 30.140625 144.421875 C 49.171875 144.890625 45.703125 158.296875 71.4375 158.25 C 92.671875 158.203125 99.5625 141.984375 117.84375 143.953125 C 131.4375 143.25 136.96875 159.28125 157.828125 159.46875 C 179.4375 159.9375 187.359375 141.984375 200.953125 143.484375 C 215.390625 143.484375 220.171875 157.921875 240.421875 158.015625 C 266.203125 158.15625 270.75 143.015625 286.921875 143.953125 C 298.40625 143.71875 307.5 155.0625 324.328125 155.34375 C 337.78125 155.578125 349.03125 145.40625 356.671875 141.75 L 357 124.5 C 349.03125 127.5 337.171875 137.203125 325.265625 137.296875 C 308.203125 137.953125 297.609375 126.09375 285.703125 126.1875 C 271.5 126.328125 265.828125 140.859375 241.640625 140.859375 C 219.609375 140.859375 214.546875 126.1875 200.296875 126.1875 C 186.375 126.328125 182.109375 142.125 158.0625 141.84375 C 138.375 141.609375 130.734375 126.75 116.8125 126.84375 C 102.046875 126.84375 86.8125 141.328125 70.5 140.625 C 47.953125 139.6875 43.078125 126.84375 28.3125 126.84375 C 17.296875 126.84375 5.390625 138.84375 -7.875 139.03125 C -21.09375 139.265625 -35.90625 127.125 -37.3125 126.84375 L -37.125 144.796875 Z M -37.125 144.84375 "/>
</g>
<path style="fill-rule:evenodd;fill:rgb(100%,78.431374%,29.411766%);fill-opacity:1;stroke-width:1.8;stroke-linecap:butt;stroke-linejoin:miter;stroke:rgb(84.705883%,66.666669%,24.705882%);stroke-opacity:1;stroke-miterlimit:4;" d="M 136.8 76 C 197.8 71.8 186.8 66.6 211.3 62.6 C 242.3 66.9 245.8 85.6 263.1 97.1 C 263.1 97.1 256.6 119.1 235.4 116 C 232.5 107.2 245.6 104.4 207.9 81.4 C 185.9 80.1 146.6 85.3 136.9 76 Z M 326.1 109.9 L 282.1 111.7 L 282.1 122.6 C 311.8 123.6 317.1 119.6 326.1 109.9 Z M 326.1 109.9 " transform="matrix(0.46875,0,0,0.46875,40.5,0)"/>
<path style="fill-rule:evenodd;fill:rgb(100%,78.431374%,29.411766%);fill-opacity:1;stroke-width:1.7;stroke-linecap:butt;stroke-linejoin:round;stroke:rgb(84.705883%,66.666669%,24.705882%);stroke-opacity:1;stroke-miterlimit:4;" d="M 174.8 108 C 182.5 104.1 186.3 105.7 193 105.5 C 197.5 113.8 201.8 114.5 211.8 115.5 C 220.833333 128.741667 235.675 136.85 251.7 137.3 C 281.6 136.5 291.1 115.6 311.2 113.3 L 332.4 113.3 C 328.9 107.3 326.1 103.8 318.4 103.4 C 302.6 102.6 282.2 103 264.4 107 L 239.3 113.3 C 231.9 109.7 214 90.9 202.5 91.3 C 195.8 93.1 195.8 95.4 192.5 98 C 186 100.8 179.5 99.4 174.8 108 Z M 174.8 108 " transform="matrix(0.46875,0,0,0.46875,40.5,0)"/>
<path style="fill-rule:evenodd;fill:rgb(100%,78.431374%,29.411766%);fill-opacity:1;stroke-width:1.7;stroke-linecap:butt;stroke-linejoin:miter;stroke:rgb(84.705883%,66.666669%,24.705882%);stroke-opacity:1;stroke-miterlimit:4;" d="M 205.1 99 C 205.325 100.258333 204.775 101.533333 203.708333 102.233333 C 202.641667 102.941667 201.258333 102.941667 200.191667 102.233333 C 199.125 101.533333 198.575 100.258333 198.8 99 C 199.075 97.475 200.4 96.366667 201.95 96.366667 C 203.5 96.366667 204.825 97.475 205.1 99 Z M 205.1 99 " transform="matrix(0.46875,0,0,0.46875,40.5,0)"/>
<path style="fill-rule:evenodd;fill:rgb(100%,78.431374%,29.411766%);fill-opacity:1;stroke-width:1.8;stroke-linecap:butt;stroke-linejoin:miter;stroke:rgb(84.705883%,66.666669%,24.705882%);stroke-opacity:1;stroke-miterlimit:4;" d="M 225.6 107.8 C 270.5 53.7 309.7 60.3 360.9 56.6 C 362.6 62.9 361.9 72.3 337.6 80.6 C 304.2 85.6 244.5 120.8 244.2 120.8 C 233.1 120.2 225.3 108.6 225.6 107.8 Z M 225.6 107.8 " transform="matrix(0.46875,0,0,0.46875,40.5,0)"/>
<path style="fill:none;stroke-width:1.8;stroke-linecap:round;stroke-linejoin:miter;stroke:rgb(85.09804%,64.313728%,24.313726%);stroke-opacity:1;stroke-miterlimit:4;" d="M 317.9 72.5 L 351 74 M 314.3 78 L 338.4 80 " transform="matrix(0.46875,0,0,0.46875,40.5,0)"/>
</g>
</svg>
