<?xml version="1.0" encoding="UTF-8"?>
<svg xmlns="http://www.w3.org/2000/svg" xmlns:xlink="http://www.w3.org/1999/xlink" width="px" height="px" viewBox="0 0 320 240" version="1.1">
<g id="surface1">
<path style=" stroke:none;fill-rule:evenodd;fill:rgb(100%,100%,0%);fill-opacity:1;" d="M 0 0 L 360.375 0 L 360.375 60 L 0 60 Z M 0 0 "/>
<path style=" stroke:none;fill-rule:evenodd;fill:rgb(100%,100%,100%);fill-opacity:1;" d="M 0 60 L 360.375 60 L 360.375 120 L 0 120 Z M 0 60 "/>
<path style=" stroke:none;fill-rule:evenodd;fill:rgb(74.509805%,0%,15.294118%);fill-opacity:1;" d="M 0 120 L 360.375 120 L 360.375 180 L 0 180 Z M 0 120 "/>
<path style=" stroke:none;fill-rule:evenodd;fill:rgb(23.137255%,35.294119%,63.921571%);fill-opacity:1;" d="M 0 180 L 360.375 180 L 360.375 240 L 0 240 Z M 0 180 "/>
<path style=" stroke:none;fill-rule:evenodd;fill:rgb(13.725491%,61.960787%,27.450982%);fill-opacity:1;" d="M 0 0 L 0 240 L 179.015625 120.328125 Z M 0 0 "/>
<path style=" stroke:none;fill-rule:evenodd;fill:rgb(100%,100%,100%);fill-opacity:1;" d="M 73.6875 66.28125 C 33.84375 64.265625 15.609375 96.046875 15.65625 120.609375 C 15.5625 149.671875 43.125 173.578125 68.53125 172.171875 C 54.84375 165.703125 38.0625 147.46875 37.96875 120.46875 C 37.828125 96.046875 51.796875 74.765625 73.734375 66.28125 Z M 73.6875 66.28125 "/>
<path style=" stroke:none;fill-rule:evenodd;fill:rgb(100%,100%,100%);fill-opacity:1;" d="M 73.125 92.34375 L 67.5 87.984375 L 60.65625 90.140625 L 63.09375 83.390625 L 58.96875 77.578125 L 66.09375 77.859375 L 70.3125 72.09375 L 72.328125 78.984375 L 79.078125 81.234375 L 73.171875 85.21875 Z M 72.984375 116.765625 L 67.359375 112.359375 L 60.515625 114.515625 L 63 107.8125 L 58.828125 102 L 66 102.234375 L 70.21875 96.515625 L 72.1875 103.359375 L 78.984375 105.65625 L 73.03125 109.640625 Z M 73.078125 141.421875 L 67.453125 137.015625 L 60.65625 139.171875 L 63.09375 132.46875 L 58.96875 126.65625 L 66.09375 126.890625 L 70.3125 121.171875 L 72.328125 128.015625 L 79.078125 130.265625 L 73.171875 134.296875 Z M 72.984375 166.265625 L 67.359375 161.90625 L 60.46875 164.0625 L 62.953125 157.3125 L 58.78125 151.5 L 65.953125 151.78125 L 70.171875 146.015625 L 72.140625 152.90625 L 78.9375 155.15625 L 72.984375 159.140625 Z M 72.984375 166.265625 "/>
</g>
</svg>
