<?xml version="1.0" encoding="UTF-8"?>
<svg xmlns="http://www.w3.org/2000/svg" xmlns:xlink="http://www.w3.org/1999/xlink" width="px" height="px" viewBox="0 0 320 240" version="1.1">
<defs>
<clipPath id="clip1">
  <path d="M 0 0.0117188 L 320 0.0117188 L 320 240 L 0 240 Z M 0 0.0117188 "/>
</clipPath>
</defs>
<g id="surface1">
<g clip-path="url(#clip1)" clip-rule="nonzero">
<path style=" stroke:none;fill-rule:evenodd;fill:rgb(100%,100%,100%);fill-opacity:1;" d="M -0.0078125 0.0117188 L 320.054688 0.0117188 L 320.054688 240.011719 L -0.0078125 240.011719 Z M -0.0078125 0.0117188 "/>
</g>
<path style=" stroke:none;fill-rule:evenodd;fill:rgb(0%,0%,0.392157%);fill-opacity:1;" d="M 35.058594 72.90625 L 68.351562 22.988281 L 76.667969 28.539062 L 43.378906 78.457031 Z M 47.539062 81.230469 L 80.828125 31.3125 L 89.148438 36.859375 L 55.859375 86.777344 Z M 60.019531 89.550781 L 93.308594 39.636719 L 101.628906 45.183594 L 68.335938 95.101562 Z M 60.019531 89.550781 "/>
<path style=" stroke:none;fill-rule:evenodd;fill:rgb(0%,0%,0.392157%);fill-opacity:1;" d="M 218.089844 194.972656 L 251.378906 145.054688 L 259.699219 150.605469 L 226.410156 200.519531 Z M 230.570312 203.296875 L 263.859375 153.378906 L 272.179688 158.925781 L 238.886719 208.84375 Z M 243.046875 211.617188 L 276.339844 161.699219 L 284.65625 167.25 L 251.367188 217.167969 Z M 243.046875 211.617188 "/>
<path style="fill-rule:evenodd;fill:rgb(0%,0%,0%);fill-opacity:1;stroke-width:1;stroke-linecap:butt;stroke-linejoin:miter;stroke:rgb(100%,100%,100%);stroke-opacity:1;stroke-miterlimit:4;" d="M 0.000233597 16.999701 L 0.000233834 26.999686 " transform="matrix(2.774223,-4.159772,4.159772,2.774223,159.858693,120.078291)"/>
<path style=" stroke:none;fill-rule:evenodd;fill:rgb(80.392158%,18.039216%,22.745098%);fill-opacity:1;" d="M 109.941406 86.789062 C 128.328125 59.21875 165.582031 51.773438 193.148438 70.160156 C 220.71875 88.546875 228.160156 125.800781 209.777344 153.367188 Z M 109.941406 86.789062 "/>
<path style=" stroke:none;fill-rule:evenodd;fill:rgb(0%,27.843139%,62.7451%);fill-opacity:1;" d="M 109.941406 86.789062 C 91.554688 114.355469 99 151.609375 126.566406 169.996094 C 154.136719 188.382812 191.390625 180.9375 209.777344 153.367188 C 218.96875 139.585938 215.246094 120.957031 201.460938 111.765625 C 187.679688 102.570312 169.050781 106.292969 159.859375 120.078125 Z M 109.941406 86.789062 "/>
<path style=" stroke:none;fill-rule:evenodd;fill:rgb(80.392158%,18.039216%,22.745098%);fill-opacity:1;" d="M 151.546875 78.472656 C 137.761719 69.28125 119.132812 73.003906 109.941406 86.789062 C 100.75 100.570312 104.46875 119.199219 118.253906 128.390625 C 132.039062 137.585938 150.664062 133.863281 159.859375 120.078125 C 169.050781 106.292969 165.328125 87.667969 151.546875 78.472656 Z M 151.546875 78.472656 "/>
<path style=" stroke:none;fill-rule:evenodd;fill:rgb(0%,0%,0.392157%);fill-opacity:1;" d="M 68.488281 217.1875 L 35.195312 167.269531 L 43.515625 161.71875 L 76.808594 211.636719 Z M 80.96875 208.863281 L 47.675781 158.945312 L 55.996094 153.398438 L 89.285156 203.316406 Z M 93.445312 200.539062 L 60.15625 150.625 L 68.476562 145.074219 L 101.765625 194.992188 Z M 93.445312 200.539062 "/>
<path style=" stroke:none;fill-rule:evenodd;fill:rgb(0%,0%,0.392157%);fill-opacity:1;" d="M 251.515625 95.121094 L 218.226562 45.203125 L 226.546875 39.652344 L 259.835938 89.570312 Z M 263.996094 86.796875 L 230.707031 36.878906 L 239.027344 31.332031 L 272.316406 81.25 Z M 276.476562 78.472656 L 243.183594 28.558594 L 251.503906 23.007812 L 284.796875 72.925781 Z M 276.476562 78.472656 "/>
<path style="fill-rule:evenodd;fill:rgb(0%,0%,0%);fill-opacity:1;stroke-width:1;stroke-linecap:butt;stroke-linejoin:miter;stroke:rgb(100%,100%,100%);stroke-opacity:1;stroke-miterlimit:4;" d="M -0.000297826 -23.500063 L -0.000167753 -20.499699 M 0.000483942 16.999974 L -0.000339334 20.500218 M 0.000224211 23.499932 L -0.00029568 26.499862 " transform="matrix(-2.774223,-4.159772,4.159772,-2.774223,159.996264,120.097322)"/>
</g>
</svg>
