<?xml version="1.0" encoding="UTF-8"?>
<svg xmlns="http://www.w3.org/2000/svg" xmlns:xlink="http://www.w3.org/1999/xlink" width="px" height="px" viewBox="0 0 320 240" version="1.1">
<g id="surface1">
<rect x="0" y="0" width="320" height="240" style="fill:rgb(0%,67.058825%,76.078433%);fill-opacity:1;stroke:none;"/>
<path style=" stroke:none;fill-rule:nonzero;fill:rgb(100%,92.54902%,17.647059%);fill-opacity:1;" d="M 205.203125 100.800781 C 205.203125 82.960938 190.742188 68.496094 172.898438 68.496094 C 155.058594 68.496094 140.597656 82.960938 140.597656 100.800781 C 140.597656 118.640625 155.058594 133.105469 172.898438 133.105469 C 190.742188 133.105469 205.203125 118.640625 205.203125 100.800781 Z M 205.203125 100.800781 "/>
<path style=" stroke:none;fill-rule:nonzero;fill:rgb(100%,92.54902%,17.647059%);fill-opacity:1;" d="M 172.898438 64.105469 C 174.820312 64.078125 175.539062 62.878906 175.539062 61.441406 C 175.539062 59.519531 172.898438 50.375 172.898438 50.375 C 172.898438 50.375 170.261719 59.519531 170.261719 61.441406 C 170.261719 62.878906 170.980469 64.105469 172.898438 64.105469 "/>
<path style=" stroke:none;fill-rule:nonzero;fill:rgb(100%,92.54902%,17.647059%);fill-opacity:1;" d="M 209.597656 100.800781 C 209.621094 102.71875 210.820312 103.441406 212.261719 103.441406 C 214.179688 103.441406 223.324219 100.800781 223.324219 100.800781 C 223.324219 100.800781 214.179688 98.160156 212.261719 98.160156 C 210.820312 98.160156 209.597656 98.878906 209.597656 100.800781 "/>
<path style=" stroke:none;fill-rule:nonzero;fill:rgb(100%,92.54902%,17.647059%);fill-opacity:1;" d="M 172.898438 137.496094 C 170.980469 137.519531 170.261719 138.71875 170.261719 140.160156 C 170.261719 142.078125 172.898438 151.222656 172.898438 151.222656 C 172.898438 151.222656 175.539062 142.078125 175.539062 140.160156 C 175.539062 138.71875 174.820312 137.496094 172.898438 137.496094 "/>
<path style=" stroke:none;fill-rule:nonzero;fill:rgb(100%,92.54902%,17.647059%);fill-opacity:1;" d="M 136.203125 100.800781 C 136.179688 98.878906 134.980469 98.160156 133.539062 98.160156 C 131.621094 98.160156 122.476562 100.800781 122.476562 100.800781 C 122.476562 100.800781 131.621094 103.441406 133.539062 103.441406 C 134.980469 103.441406 136.203125 102.71875 136.203125 100.800781 "/>
<path style=" stroke:none;fill-rule:nonzero;fill:rgb(100%,92.54902%,17.647059%);fill-opacity:1;" d="M 186.941406 66.898438 C 188.726562 67.609375 189.851562 66.777344 190.402344 65.445312 C 191.136719 63.671875 192.195312 54.214844 192.195312 54.214844 C 192.195312 54.214844 186.257812 61.652344 185.523438 63.425781 C 184.972656 64.757812 185.167969 66.164062 186.941406 66.898438 "/>
<path style=" stroke:none;fill-rule:nonzero;fill:rgb(100%,92.54902%,17.647059%);fill-opacity:1;" d="M 206.800781 114.84375 C 206.089844 116.625 206.921875 117.75 208.253906 118.300781 C 210.027344 119.035156 219.484375 120.097656 219.484375 120.097656 C 219.484375 120.097656 212.046875 114.15625 210.273438 113.421875 C 208.945312 112.871094 207.539062 113.070312 206.800781 114.84375 "/>
<path style=" stroke:none;fill-rule:nonzero;fill:rgb(100%,92.54902%,17.647059%);fill-opacity:1;" d="M 158.855469 134.703125 C 157.074219 133.988281 155.949219 134.824219 155.398438 136.152344 C 154.664062 137.925781 153.605469 147.386719 153.605469 147.386719 C 153.605469 147.386719 159.542969 139.949219 160.277344 138.175781 C 160.828125 136.84375 160.632812 135.4375 158.855469 134.703125 "/>
<path style=" stroke:none;fill-rule:nonzero;fill:rgb(100%,92.54902%,17.647059%);fill-opacity:1;" d="M 138.996094 86.757812 C 139.710938 84.972656 138.875 83.847656 137.546875 83.296875 C 135.773438 82.5625 126.3125 81.503906 126.3125 81.503906 C 126.3125 81.503906 133.753906 87.441406 135.527344 88.175781 C 136.855469 88.726562 138.261719 88.53125 138.996094 86.757812 "/>
<path style=" stroke:none;fill-rule:nonzero;fill:rgb(100%,92.54902%,17.647059%);fill-opacity:1;" d="M 198.847656 74.851562 C 200.222656 76.191406 201.582031 75.851562 202.597656 74.835938 C 203.957031 73.476562 208.554688 65.144531 208.554688 65.144531 C 208.554688 65.144531 200.222656 69.742188 198.863281 71.101562 C 197.847656 72.121094 197.492188 73.496094 198.847656 74.851562 "/>
<path style=" stroke:none;fill-rule:nonzero;fill:rgb(100%,92.54902%,17.647059%);fill-opacity:1;" d="M 198.847656 126.746094 C 197.507812 128.121094 197.847656 129.480469 198.863281 130.5 C 200.222656 131.855469 208.554688 136.457031 208.554688 136.457031 C 208.554688 136.457031 203.957031 128.121094 202.597656 126.765625 C 201.582031 125.746094 200.207031 125.390625 198.847656 126.746094 "/>
<path style=" stroke:none;fill-rule:nonzero;fill:rgb(100%,92.54902%,17.647059%);fill-opacity:1;" d="M 146.953125 126.746094 C 145.578125 125.40625 144.21875 125.746094 143.203125 126.765625 C 141.84375 128.121094 137.246094 136.457031 137.246094 136.457031 C 137.246094 136.457031 145.578125 131.855469 146.933594 130.5 C 147.953125 129.480469 148.308594 128.105469 146.953125 126.746094 "/>
<path style=" stroke:none;fill-rule:nonzero;fill:rgb(100%,92.54902%,17.647059%);fill-opacity:1;" d="M 146.953125 74.851562 C 148.292969 73.476562 147.953125 72.121094 146.933594 71.101562 C 145.578125 69.742188 137.246094 65.144531 137.246094 65.144531 C 137.246094 65.144531 141.84375 73.476562 143.203125 74.835938 C 144.21875 75.851562 145.59375 76.210938 146.953125 74.851562 "/>
<path style=" stroke:none;fill-rule:nonzero;fill:rgb(100%,92.54902%,17.647059%);fill-opacity:1;" d="M 206.800781 86.757812 C 207.558594 88.523438 208.945312 88.726562 210.273438 88.175781 C 212.046875 87.441406 219.484375 81.503906 219.484375 81.503906 C 219.484375 81.503906 210.027344 82.5625 208.253906 83.296875 C 206.921875 83.847656 206.066406 84.984375 206.800781 86.757812 "/>
<path style=" stroke:none;fill-rule:nonzero;fill:rgb(100%,92.54902%,17.647059%);fill-opacity:1;" d="M 186.941406 134.703125 C 185.179688 135.460938 184.972656 136.84375 185.523438 138.175781 C 186.257812 139.949219 192.195312 147.386719 192.195312 147.386719 C 192.195312 147.386719 191.136719 137.925781 190.402344 136.152344 C 189.851562 134.824219 188.714844 133.96875 186.941406 134.703125 "/>
<path style=" stroke:none;fill-rule:nonzero;fill:rgb(100%,92.54902%,17.647059%);fill-opacity:1;" d="M 138.996094 114.84375 C 138.242188 113.078125 136.855469 112.871094 135.527344 113.421875 C 133.753906 114.15625 126.3125 120.097656 126.3125 120.097656 C 126.3125 120.097656 135.773438 119.035156 137.546875 118.300781 C 138.875 117.75 139.730469 116.617188 138.996094 114.84375 "/>
<path style=" stroke:none;fill-rule:nonzero;fill:rgb(100%,92.54902%,17.647059%);fill-opacity:1;" d="M 158.855469 66.898438 C 160.621094 66.140625 160.828125 64.757812 160.277344 63.425781 C 159.542969 61.652344 153.605469 54.214844 153.605469 54.214844 C 153.605469 54.214844 154.664062 63.671875 155.398438 65.445312 C 155.949219 66.777344 157.082031 67.632812 158.855469 66.898438 "/>
<path style=" stroke:none;fill-rule:nonzero;fill:rgb(100%,92.54902%,17.647059%);fill-opacity:1;" d="M 180.089844 64.816406 C 181.976562 65.167969 182.917969 64.132812 183.203125 62.71875 C 183.578125 60.835938 182.78125 51.351562 182.78125 51.351562 C 182.78125 51.351562 178.398438 59.804688 178.023438 61.6875 C 177.742188 63.097656 178.207031 64.4375 180.089844 64.816406 "/>
<path style=" stroke:none;fill-rule:nonzero;fill:rgb(100%,92.54902%,17.647059%);fill-opacity:1;" d="M 208.882812 107.992188 C 208.53125 109.878906 209.566406 110.820312 210.980469 111.101562 C 212.863281 111.476562 222.347656 110.679688 222.347656 110.679688 C 222.347656 110.679688 213.898438 106.300781 212.015625 105.921875 C 210.601562 105.640625 209.261719 106.109375 208.882812 107.992188 "/>
<path style=" stroke:none;fill-rule:nonzero;fill:rgb(100%,92.54902%,17.647059%);fill-opacity:1;" d="M 165.710938 136.785156 C 163.820312 136.433594 162.882812 137.46875 162.597656 138.878906 C 162.222656 140.761719 163.019531 150.246094 163.019531 150.246094 C 163.019531 150.246094 167.398438 141.796875 167.777344 139.914062 C 168.058594 138.503906 167.59375 137.160156 165.710938 136.785156 "/>
<path style=" stroke:none;fill-rule:nonzero;fill:rgb(100%,92.54902%,17.647059%);fill-opacity:1;" d="M 136.914062 93.609375 C 137.269531 91.722656 136.230469 90.78125 134.820312 90.5 C 132.9375 90.121094 123.453125 90.917969 123.453125 90.917969 C 123.453125 90.917969 131.902344 95.300781 133.785156 95.675781 C 135.199219 95.957031 136.539062 95.492188 136.914062 93.609375 "/>
<path style=" stroke:none;fill-rule:nonzero;fill:rgb(100%,92.54902%,17.647059%);fill-opacity:1;" d="M 193.3125 70.304688 C 194.921875 71.355469 196.1875 70.757812 196.988281 69.5625 C 198.058594 67.964844 200.949219 58.898438 200.949219 58.898438 C 200.949219 58.898438 193.671875 65.027344 192.601562 66.625 C 191.800781 67.820312 191.71875 69.238281 193.3125 70.304688 "/>
<path style=" stroke:none;fill-rule:nonzero;fill:rgb(100%,92.54902%,17.647059%);fill-opacity:1;" d="M 203.394531 121.214844 C 202.34375 122.824219 202.941406 124.089844 204.140625 124.890625 C 205.734375 125.957031 214.800781 128.851562 214.800781 128.851562 C 214.800781 128.851562 208.671875 121.570312 207.074219 120.503906 C 205.878906 119.699219 204.460938 119.617188 203.394531 121.214844 "/>
<path style=" stroke:none;fill-rule:nonzero;fill:rgb(100%,92.54902%,17.647059%);fill-opacity:1;" d="M 152.484375 131.292969 C 150.878906 130.246094 149.613281 130.84375 148.808594 132.039062 C 147.742188 133.632812 144.847656 142.703125 144.847656 142.703125 C 144.847656 142.703125 152.128906 136.570312 153.199219 134.976562 C 154 133.78125 154.082031 132.363281 152.484375 131.292969 "/>
<path style=" stroke:none;fill-rule:nonzero;fill:rgb(100%,92.54902%,17.647059%);fill-opacity:1;" d="M 142.40625 80.386719 C 143.453125 78.777344 142.859375 77.511719 141.660156 76.710938 C 140.066406 75.640625 131 72.75 131 72.75 C 131 72.75 137.128906 80.03125 138.722656 81.097656 C 139.921875 81.898438 141.339844 81.980469 142.40625 80.386719 "/>
<path style=" stroke:none;fill-rule:nonzero;fill:rgb(100%,92.54902%,17.647059%);fill-opacity:1;" d="M 203.429688 80.4375 C 204.515625 82.023438 205.914062 81.957031 207.109375 81.15625 C 208.707031 80.09375 214.851562 72.824219 214.851562 72.824219 C 214.851562 72.824219 205.777344 75.699219 204.179688 76.765625 C 202.984375 77.5625 202.363281 78.84375 203.429688 80.4375 "/>
<path style=" stroke:none;fill-rule:nonzero;fill:rgb(100%,92.54902%,17.647059%);fill-opacity:1;" d="M 193.261719 131.328125 C 191.675781 132.414062 191.742188 133.8125 192.542969 135.011719 C 193.609375 136.609375 200.878906 142.75 200.878906 142.75 C 200.878906 142.75 198 133.679688 196.933594 132.082031 C 196.136719 130.882812 194.859375 130.265625 193.261719 131.328125 "/>
<path style=" stroke:none;fill-rule:nonzero;fill:rgb(100%,92.54902%,17.647059%);fill-opacity:1;" d="M 142.371094 121.160156 C 141.285156 119.578125 139.886719 119.644531 138.691406 120.441406 C 137.09375 121.507812 130.949219 128.777344 130.949219 128.777344 C 130.949219 128.777344 140.023438 125.898438 141.617188 124.835938 C 142.816406 124.035156 143.4375 122.757812 142.371094 121.160156 "/>
<path style=" stroke:none;fill-rule:nonzero;fill:rgb(100%,92.54902%,17.647059%);fill-opacity:1;" d="M 152.539062 70.269531 C 154.125 69.183594 154.058594 67.789062 153.257812 66.589844 C 152.191406 64.992188 144.921875 58.847656 144.921875 58.847656 C 144.921875 58.847656 147.800781 67.921875 148.863281 69.519531 C 149.664062 70.71875 150.941406 71.335938 152.539062 70.269531 "/>
<path style=" stroke:none;fill-rule:nonzero;fill:rgb(100%,92.54902%,17.647059%);fill-opacity:1;" d="M 208.898438 93.671875 C 209.292969 95.550781 210.609375 96.023438 212.023438 95.746094 C 213.90625 95.371094 222.363281 91.007812 222.363281 91.007812 C 222.363281 91.007812 212.882812 90.191406 210.996094 90.566406 C 209.585938 90.84375 208.523438 91.789062 208.898438 93.671875 "/>
<path style=" stroke:none;fill-rule:nonzero;fill:rgb(100%,92.54902%,17.647059%);fill-opacity:1;" d="M 180.027344 136.796875 C 178.148438 137.195312 177.675781 138.511719 177.957031 139.921875 C 178.328125 141.804688 182.695312 150.265625 182.695312 150.265625 C 182.695312 150.265625 183.507812 140.78125 183.136719 138.898438 C 182.855469 137.484375 181.910156 136.425781 180.027344 136.796875 "/>
<path style=" stroke:none;fill-rule:nonzero;fill:rgb(100%,92.54902%,17.647059%);fill-opacity:1;" d="M 136.902344 107.925781 C 136.507812 106.050781 135.1875 105.574219 133.777344 105.855469 C 131.894531 106.226562 123.4375 110.59375 123.4375 110.59375 C 123.4375 110.59375 132.917969 111.40625 134.800781 111.035156 C 136.214844 110.753906 137.277344 109.8125 136.902344 107.925781 "/>
<path style=" stroke:none;fill-rule:nonzero;fill:rgb(100%,92.54902%,17.647059%);fill-opacity:1;" d="M 165.773438 64.804688 C 167.652344 64.40625 168.125 63.089844 167.84375 61.675781 C 167.472656 59.792969 163.105469 51.335938 163.105469 51.335938 C 163.105469 51.335938 162.292969 60.820312 162.664062 62.703125 C 162.945312 64.113281 163.890625 65.175781 165.773438 64.804688 "/>
<path style=" stroke:none;fill-rule:nonzero;fill:rgb(100%,92.54902%,17.647059%);fill-opacity:1;" d="M 171.792969 157.199219 C 170.953125 158.710938 170.449219 160.464844 169.390625 161.832031 C 166.128906 158.878906 161.425781 158.953125 157.296875 158.785156 C 153.886719 158.59375 150.191406 158.28125 147.550781 155.855469 C 144.792969 153.574219 142.511719 150.648438 139.441406 148.800781 C 136.550781 148.179688 133.839844 146.925781 131.496094 145.128906 C 126.648438 141.167969 123.863281 135.289062 119.113281 131.207031 C 118.222656 130.34375 117.144531 129.648438 116.136719 128.902344 C 115.175781 129.144531 115.609375 131.207031 114.433594 130.152344 C 113.785156 129.671875 112.175781 129.648438 112.03125 130.296875 C 113.472656 132.214844 114.9375 134.375 115.152344 136.824219 C 114.144531 136.921875 112.390625 136.609375 111.910156 136.96875 C 113.230469 138.949219 114.886719 140.679688 116.808594 142.078125 C 115.894531 142.222656 114.097656 142.152344 113.734375 142.511719 C 115.53125 144.234375 117.75 145.449219 120.167969 146.039062 C 120.648438 146.710938 119.425781 148.007812 120.480469 148.585938 C 121.078125 148.824219 123.097656 149.257812 121.703125 149.953125 C 120.742188 150.574219 121.105469 152.089844 122.328125 152.039062 C 123.097656 152.449219 124.824219 152.519531 124.96875 153.238281 C 124.273438 153.910156 122.160156 154.726562 123.960938 155.398438 C 125.65625 156.363281 127.554688 156.914062 129.503906 157.007812 C 128.542969 157.824219 127.34375 158.28125 126.359375 159.046875 C 130.800781 161.664062 135.71875 163.367188 140.617188 165.046875 C 142.535156 165.671875 144.527344 166.273438 146.542969 166.65625 C 140.6875 166.320312 135.023438 164.59375 129.695312 162.214844 C 126.945312 161 124.160156 159.863281 121.34375 158.808594 C 122.566406 158.160156 124.007812 157.992188 125.304688 157.441406 C 122.617188 156.910156 119.710938 156.71875 117.382812 155.28125 C 117.71875 154.609375 119.0625 154.585938 119.832031 154.246094 C 121.273438 153.910156 122.136719 153.527344 120.144531 153.382812 C 118.128906 152.832031 115.824219 153.070312 114.023438 151.871094 C 114.144531 151.152344 116.015625 151.390625 116.761719 151.078125 C 117.71875 150.910156 118.777344 150.769531 119.542969 150.121094 C 116.425781 148.847656 112.34375 149.761719 109.894531 147 C 109.34375 145.945312 111.648438 146.785156 112.296875 146.617188 C 113.976562 146.617188 115.777344 147.144531 117.382812 146.472656 C 112.824219 144.480469 107.953125 142.632812 104.496094 138.9375 C 104.113281 138.335938 102.960938 136.703125 103.894531 136.511719 C 106.585938 136.871094 108.527344 139.800781 111.433594 139.34375 C 111.816406 138.839844 109.753906 138 109.222656 137.257812 C 104.882812 133.769531 101.09375 129.640625 97.992188 125.015625 C 97.800781 123.40625 100.273438 123.167969 100.921875 124.390625 C 104.136719 127.511719 107.039062 131.113281 111.046875 133.222656 C 112.488281 133.921875 110.230469 132.40625 109.945312 131.855469 C 106.132812 127.628906 102.835938 122.964844 100.128906 117.960938 C 99.648438 117.046875 98.902344 115.390625 100.296875 114.910156 C 101.664062 114.214844 103.054688 115.152344 103.753906 116.351562 C 106.464844 119.785156 108.480469 123.863281 111.863281 126.71875 C 108.984375 121.128906 105.886719 115.199219 105.816406 108.769531 C 105.886719 107.519531 105.960938 105.648438 107.664062 105.671875 C 109.105469 105.457031 108.863281 107.28125 109.34375 108.144531 C 110.734375 112.894531 111.335938 118.03125 114.144531 122.207031 C 113.542969 118.703125 112.609375 115.078125 113.230469 111.503906 C 113.375 110.304688 114.671875 109.96875 115.558594 110.6875 C 116.257812 112.367188 116.398438 114.503906 117.023438 116.328125 C 120.765625 128.75 128.640625 139.523438 139.34375 146.855469 C 148.109375 152.851562 158.335938 156.359375 168.9375 157.007812 C 169.894531 157.089844 170.847656 157.144531 171.792969 157.175781 M 204.527344 179.039062 C 202.800781 180.097656 201.457031 178.222656 200.015625 177.671875 C 198.960938 178.246094 198.863281 180.121094 197.902344 181.03125 C 196.753906 182.351562 195.3125 180.648438 195.433594 179.351562 C 194.039062 180.527344 193.34375 183.191406 191.113281 182.808594 C 190.03125 181.945312 189.238281 180.121094 188.425781 182.207031 C 187.777344 183.214844 186.023438 184.65625 185.089844 183.121094 C 184.800781 181.777344 184.128906 180.191406 183.40625 182.328125 C 182.878906 183.863281 181.246094 184.96875 179.710938 184.296875 C 178.847656 183.601562 180.382812 181.007812 179.304688 181.175781 C 177.671875 182.28125 176.710938 184.945312 174.433594 184.726562 C 173.542969 183.769531 174.984375 182.0625 174 180.960938 C 172.871094 182.425781 171.601562 184.585938 169.609375 184.726562 C 168.648438 183.960938 169.65625 181.726562 169.03125 181.414062 C 167.015625 182.617188 164.855469 184.800781 162.3125 184.128906 C 163.296875 180.289062 167.472656 178.96875 170.953125 178.679688 C 176.976562 177.9375 183.3125 179.304688 189.121094 177.121094 C 190.054688 176.542969 192.3125 175.753906 191.519531 174.433594 C 190.800781 173.375 193.367188 173.785156 193.609375 172.558594 C 193.464844 171.023438 194.808594 171.238281 196.105469 171.121094 C 201.960938 170.855469 207.742188 172.078125 213.574219 172.296875 C 214.007812 175.128906 210.863281 177.121094 208.296875 176.257812 C 207.097656 176.449219 205.296875 173.472656 205.65625 175.632812 C 205.414062 176.785156 205.558594 178.273438 204.527344 179.039062 M 154.753906 173.230469 C 156.097656 174.457031 157.054688 172.992188 158.328125 172.441406 C 162.480469 170.8125 166.382812 168.609375 169.921875 165.886719 C 172.128906 164.0625 174.046875 161.6875 177.023438 161.089844 C 182.832031 159.335938 189 159.550781 194.808594 157.921875 C 199.246094 151.871094 206.761719 149.6875 213.070312 146.207031 C 214.488281 145.777344 215.039062 144.601562 215.472656 143.328125 C 217.871094 139.511719 221.160156 136.152344 225.046875 133.847656 C 226.882812 132.761719 229.046875 132.367188 231.144531 132.742188 C 230.863281 135.195312 229.691406 137.457031 227.855469 139.105469 C 229.273438 139.078125 230.496094 138.191406 231.886719 138.238281 C 232.367188 140.785156 229.632812 142.105469 228.167969 143.6875 C 228.984375 143.878906 232.105469 144.121094 230.398438 144.9375 C 228.238281 146.425781 225.769531 147.457031 223.777344 149.207031 C 225.625 149.542969 225.839844 149.929688 223.96875 150.601562 C 222.9375 151.273438 220.992188 151.511719 220.800781 152.855469 C 222.191406 153.71875 220.175781 154.535156 219.382812 154.824219 C 217.894531 155.183594 216.3125 155.832031 218.304688 156.984375 C 217.558594 158.113281 215.929688 158.351562 214.609375 158.230469 C 215.015625 159.527344 215.59375 160.96875 213.9375 161.542969 C 210.21875 164.476562 205.769531 166.335938 201.070312 166.921875 C 206.953125 167.351562 213.023438 166.273438 218.039062 163.078125 C 218.710938 162.289062 222.191406 161.425781 220.246094 160.777344 C 219.335938 160.390625 217.367188 159.960938 217.222656 159.265625 C 219.960938 157.585938 223.390625 158.183594 226.320312 157.199219 C 226.390625 156.238281 224.089844 156.503906 223.222656 156.289062 C 221.183594 156.121094 221.304688 155.59375 223.273438 155.398438 C 225.769531 154.726562 228.601562 154.609375 230.710938 153 C 229.007812 152.183594 226.847656 152.878906 225.023438 152.230469 C 228.121094 150.886719 231.769531 150.742188 234.550781 148.703125 C 235.824219 147.289062 232.921875 147.742188 232.078125 147.769531 C 230.375 148.078125 229.585938 147.238281 231.527344 146.542969 C 234.863281 144.070312 239.0625 142.488281 241.414062 138.9375 C 241.96875 138.144531 242.710938 135.742188 240.9375 136.585938 C 238.632812 137.375 236.59375 139.96875 233.929688 139.175781 C 239.160156 135.121094 244.105469 130.535156 247.679688 124.945312 C 247.871094 123.3125 245.328125 123.144531 244.679688 124.414062 C 241.320312 127.632812 238.296875 131.449219 234 133.488281 C 238.046875 129.4375 241.566406 124.890625 244.464844 119.953125 C 245.113281 118.511719 246.816406 116.761719 245.902344 115.152344 C 244.390625 113.902344 242.519531 115.054688 241.753906 116.519531 C 239.136719 119.929688 237.167969 123.886719 233.832031 126.671875 C 236.734375 121.078125 239.785156 115.105469 239.832031 108.671875 C 239.832031 107.328125 239.59375 105.359375 237.769531 105.625 C 236.328125 105.863281 236.6875 108.023438 236.089844 109.105469 C 234.792969 113.519531 234.167969 118.296875 231.527344 122.136719 C 232.128906 118.558594 233.160156 114.816406 232.367188 111.214844 C 231.984375 109.585938 229.367188 110.28125 229.726562 111.886719 C 226.609375 127.703125 215.976562 141.527344 202.128906 149.519531 C 195.769531 153.121094 188.6875 155.425781 181.441406 156.480469 C 179.519531 156.886719 177.40625 156.648438 175.558594 157.320312 C 171.046875 160.753906 168.335938 166.535156 162.648438 168.335938 C 160.078125 169.609375 156.769531 169.871094 154.945312 172.222656 C 154.800781 172.539062 154.734375 172.886719 154.753906 173.230469 M 167.160156 170.761719 C 166.296875 170.792969 165.449219 170.929688 164.617188 171.167969 C 163.488281 171.335938 162.40625 171.71875 161.304688 171.886719 L 160.847656 171.984375 L 160.105469 172.054688 C 160.199219 172.457031 160.199219 172.878906 160.105469 173.28125 C 160.027344 173.460938 159.910156 173.625 159.769531 173.761719 C 159.625 173.953125 159.449219 174.097656 159.238281 174.191406 C 159.042969 174.289062 158.832031 174.34375 158.617188 174.359375 C 158.40625 174.375 158.191406 174.34375 157.96875 174.265625 C 157.761719 174.199219 157.558594 174.078125 157.367188 173.902344 L 156.695312 174.023438 L 156.070312 174.023438 L 155.398438 173.785156 L 154.777344 173.472656 C 153.960938 173.953125 153.046875 174.40625 152.542969 175.246094 C 152.308594 175.632812 152.175781 176.070312 152.160156 176.519531 C 152.128906 177.097656 152.238281 177.65625 152.496094 178.199219 C 152.59375 178.34375 152.664062 177.648438 152.929688 177.550781 C 153.40625 177.167969 153.945312 176.902344 154.535156 176.761719 C 155.015625 176.519531 154.945312 176.761719 154.753906 177.144531 C 154.703125 177.359375 154.441406 178.105469 154.800781 177.71875 C 156.460938 177.101562 158.210938 176.765625 159.984375 176.734375 C 162.527344 176.496094 165.070312 176.375 167.617188 176.375 L 174.816406 176.519531 C 175.96875 176.566406 177.121094 176.808594 178.246094 176.617188 C 178.511719 176.542969 178.945312 176.542969 179.113281 176.375 C 178.585938 176.089844 177.984375 176.0625 177.433594 175.992188 L 172.847656 175.992188 C 171.574219 175.871094 170.257812 175.847656 169.054688 175.367188 C 168.71875 175.246094 168.433594 174.9375 168.121094 175.273438 C 167.664062 175.433594 167.1875 175.539062 166.703125 175.585938 C 165.855469 175.617188 165.039062 175.472656 164.257812 175.152344 C 164.832031 174.398438 165.449219 173.679688 166.105469 172.992188 L 164.617188 172.679688 C 165.480469 172.039062 166.328125 171.398438 167.160156 170.761719 "/>
<path style=" stroke:none;fill-rule:nonzero;fill:rgb(100%,92.54902%,17.647059%);fill-opacity:1;" d="M 158.976562 173.015625 C 158.976562 172.699219 158.71875 172.441406 158.398438 172.441406 C 158.082031 172.441406 157.824219 172.699219 157.824219 173.015625 C 157.824219 173.335938 158.082031 173.59375 158.398438 173.59375 C 158.71875 173.59375 158.976562 173.335938 158.976562 173.015625 Z M 158.976562 173.015625 "/>
<path style="fill-rule:nonzero;fill:rgb(100%,92.54902%,17.647059%);fill-opacity:1;stroke-width:0.4;stroke-linecap:butt;stroke-linejoin:miter;stroke:rgb(100%,92.54902%,17.647059%);stroke-opacity:1;stroke-miterlimit:4;" d="M 1020.807321 720.507829 C 1020.807321 719.954443 1020.351592 719.498714 1019.798206 719.498714 C 1019.244821 719.498714 1018.805368 719.954443 1018.805368 720.507829 C 1018.805368 721.044938 1019.244821 721.500667 1019.798206 721.500667 C 1020.351592 721.500667 1020.807321 721.044938 1020.807321 720.507829 Z M 1020.807321 720.507829 " transform="matrix(0.24,0,0,0.24,-86.400002,0)"/>
<path style=" stroke:none;fill-rule:nonzero;fill:rgb(100%,92.54902%,17.647059%);fill-opacity:1;" d="M 28.800781 17.519531 C 28.800781 17.519531 26.496094 15.550781 25.703125 16.535156 C 24.457031 18.097656 29.59375 25.894531 29.59375 28.632812 C 29.59375 33.144531 26.566406 34.367188 22.871094 34.992188 C 20.375 35.425781 16.320312 34.824219 16.320312 34.824219 C 17.089844 33.792969 17.59375 33.480469 18.863281 33.40625 C 17.425781 32.6875 15.984375 31.054688 15.984375 28.535156 C 15.984375 24.671875 17.566406 23.0625 17.566406 18.695312 C 17.566406 16.320312 15.601562 13.199219 15.601562 13.199219 C 19.105469 13.558594 20.832031 16.800781 19.847656 19.390625 C 20.394531 19.5 20.964844 19.332031 21.359375 18.9375 C 21.601562 19.65625 21.214844 20.496094 20.664062 21.214844 C 21.097656 21.457031 21.433594 21.3125 22.105469 21.167969 C 22.054688 21.886719 21.625 22.703125 20.519531 23.449219 C 23.6875 22.632812 25.609375 24.816406 25.609375 27.121094 C 25.609375 28.871094 24.40625 30.121094 23.207031 30.121094 C 22.824219 30.121094 22.246094 29.953125 21.9375 29.710938 C 21.695312 30.191406 21.839844 30.839844 22.054688 31.320312 C 21.191406 31.078125 20.617188 30.550781 21.023438 29.472656 C 20.351562 29.425781 19.832031 29.183594 19.464844 28.753906 C 19.832031 28.273438 20.351562 28.03125 21.023438 28.03125 C 20.542969 27.023438 21.097656 26.472656 21.886719 26.015625 C 21.886719 26.015625 21.382812 28.03125 22.65625 28.03125 C 23.230469 28.03125 23.761719 27.863281 23.761719 27 C 23.761719 26.257812 23.113281 25.222656 21.601562 25.296875 C 20.089844 25.367188 18.886719 26.328125 18.886719 28.726562 C 18.886719 30.9375 20.6875 32.039062 23.039062 32.089844 C 25.152344 32.183594 26.761719 31.03125 26.761719 28.847656 C 26.761719 25.921875 22.558594 19.296875 22.558594 16.703125 C 22.558594 14.761719 24.289062 13.65625 26.015625 13.65625 C 28.222656 13.65625 30.097656 15.863281 30.097656 15.863281 L 28.800781 17.496094 Z M 28.800781 17.519531 "/>
<path style=" stroke:none;fill-rule:nonzero;fill:rgb(100%,92.54902%,17.647059%);fill-opacity:1;" d="M 29.28125 70.105469 C 29.28125 74.976562 24.910156 77.472656 21.480469 77.472656 C 16.871094 77.472656 14.398438 74.710938 14.398438 71.089844 C 14.398438 69.046875 14.785156 67.753906 15.71875 65.808594 L 26.328125 43.800781 C 26.710938 42.875 26.875 41.871094 26.808594 40.871094 C 26.808594 38.902344 24.886719 37.296875 22.894531 37.273438 C 21.070312 37.199219 19.054688 38.953125 19.054688 40.945312 C 19.054688 43.367188 20.328125 44.449219 21.625 44.449219 C 23.207031 44.449219 23.832031 43.800781 23.832031 42.671875 C 23.800781 41.921875 23.496094 41.550781 22.921875 41.566406 C 21.550781 41.566406 21.960938 43.390625 21.960938 43.390625 C 21.59375 43.324219 21.277344 43.097656 21.097656 42.773438 C 20.914062 42.449219 20.890625 42.058594 21.023438 41.710938 C 20.507812 41.601562 20.046875 41.320312 19.703125 40.921875 C 20.054688 40.550781 20.496094 40.3125 21.023438 40.199219 C 20.710938 39.144531 21.144531 38.640625 22.054688 38.398438 C 21.898438 38.761719 21.855469 39.164062 21.9375 39.550781 C 23.375 39.121094 25.609375 39.792969 25.609375 42.289062 C 25.609375 44.785156 23.878906 46.871094 20.640625 46.367188 C 21.40625 46.726562 21.792969 47.472656 21.886719 48.3125 C 21.289062 48.070312 20.640625 48.070312 20.640625 48.070312 C 21.023438 48.71875 21.550781 49.273438 21.527344 50.617188 C 20.929688 50.328125 20.351562 49.824219 19.609375 50.136719 C 20.808594 52.535156 19.320312 55.800781 15.527344 56.566406 C 16.902344 54.921875 17.59375 53.214844 17.59375 51.457031 C 17.59375 45.816406 16.03125 44.878906 16.03125 40.945312 C 16.082031 39.09375 17.019531 37.378906 18.550781 36.335938 L 18.550781 36.40625 C 17.613281 36.214844 16.800781 35.628906 16.320312 34.800781 C 18.992188 34.0625 21.820312 34.089844 24.480469 34.871094 C 26.28125 35.128906 27.871094 36.1875 28.800781 37.753906 C 29.769531 39.960938 29.769531 42.476562 28.800781 44.6875 C 27.289062 47.808594 20.230469 62.832031 18.023438 67.535156 C 17.542969 68.542969 17.296875 69.617188 17.28125 70.753906 C 17.28125 73.632812 19.921875 74.640625 21.40625 74.640625 C 23.207031 74.640625 25.054688 73.273438 25.054688 71.566406 C 25.054688 70.488281 24.457031 69.816406 23.617188 69.816406 C 21.574219 69.816406 21.695312 71.542969 22.105469 72.648438 C 20.832031 72.070312 20.113281 71.0625 20.304688 70.007812 C 19.515625 69.875 18.800781 69.46875 18.289062 68.855469 C 18.769531 68.230469 19.390625 67.753906 20.304688 67.726562 C 19.894531 66.070312 21.023438 65.375 22.105469 64.992188 C 21.769531 66.191406 21.527344 67.609375 23.617188 67.609375 C 25.128906 67.609375 26.304688 67.847656 27 68.855469 L 27.167969 62.375 C 27.265625 60.433594 24.574219 60.457031 22.847656 61.054688 C 23.496094 58.824219 24.816406 57.601562 27.886719 57.910156 C 26.921875 57.539062 26.304688 56.59375 26.351562 55.558594 C 26.351562 53.734375 27.839844 51.71875 28.800781 51.121094 L 29.28125 70.078125 Z M 29.28125 70.105469 "/>
<path style=" stroke:none;fill-rule:nonzero;fill:rgb(100%,92.54902%,17.647059%);fill-opacity:1;" d="M 29.28125 84.695312 C 29.28125 79.824219 24.910156 77.328125 21.480469 77.328125 C 16.871094 77.328125 14.398438 80.089844 14.398438 83.710938 C 14.398438 85.753906 14.785156 87.046875 15.71875 88.992188 L 26.328125 111 C 26.710938 111.925781 26.875 112.929688 26.808594 113.929688 C 26.808594 115.894531 24.886719 117.503906 22.894531 117.527344 C 21.070312 117.601562 19.054688 115.847656 19.054688 113.855469 C 19.054688 111.433594 20.328125 110.351562 21.625 110.351562 C 23.207031 110.351562 23.832031 111 23.832031 112.128906 C 23.800781 112.878906 23.496094 113.246094 22.921875 113.230469 C 21.550781 113.230469 21.960938 111.40625 21.960938 111.40625 C 21.59375 111.476562 21.277344 111.703125 21.097656 112.027344 C 20.914062 112.351562 20.890625 112.742188 21.023438 113.089844 C 20.507812 113.199219 20.046875 113.476562 19.703125 113.878906 C 20.054688 114.246094 20.496094 114.488281 21.023438 114.601562 C 20.710938 115.65625 21.144531 116.160156 22.054688 116.398438 C 21.898438 116.039062 21.855469 115.636719 21.9375 115.246094 C 23.375 115.679688 25.609375 115.007812 25.609375 112.511719 C 25.609375 110.015625 23.878906 107.929688 20.640625 108.433594 C 21.40625 108.070312 21.792969 107.328125 21.886719 106.488281 C 21.289062 106.726562 20.640625 106.726562 20.640625 106.726562 C 21.023438 106.078125 21.550781 105.527344 21.527344 104.183594 C 20.929688 104.472656 20.351562 104.976562 19.609375 104.664062 C 20.808594 102.265625 19.320312 99 15.527344 98.230469 C 16.902344 99.878906 17.59375 101.585938 17.59375 103.34375 C 17.59375 108.984375 16.03125 109.921875 16.03125 113.855469 C 16.082031 115.707031 17.019531 117.421875 18.550781 118.464844 L 18.550781 118.390625 C 17.613281 118.585938 16.800781 119.171875 16.320312 120 C 18.992188 120.738281 21.820312 120.710938 24.480469 119.929688 C 26.28125 119.671875 27.871094 118.613281 28.800781 117.046875 C 29.769531 114.835938 29.769531 112.324219 28.800781 110.113281 C 27.289062 106.992188 20.230469 91.96875 18.023438 87.265625 C 17.542969 86.257812 17.296875 85.183594 17.28125 84.046875 C 17.28125 81.167969 19.921875 80.160156 21.40625 80.160156 C 23.207031 80.160156 25.054688 81.527344 25.054688 83.230469 C 25.054688 84.3125 24.457031 84.984375 23.617188 84.984375 C 21.574219 84.984375 21.695312 83.257812 22.105469 82.152344 C 20.832031 82.726562 20.113281 83.734375 20.304688 84.792969 C 19.515625 84.925781 18.800781 85.332031 18.289062 85.945312 C 18.769531 86.566406 19.390625 87.046875 20.304688 87.070312 C 19.894531 88.726562 21.023438 89.425781 22.105469 89.808594 C 21.769531 88.609375 21.527344 87.191406 23.617188 87.191406 C 25.128906 87.191406 26.304688 86.953125 27 85.945312 L 27.167969 92.425781 C 27.265625 94.367188 24.574219 94.34375 22.847656 93.742188 C 23.496094 95.976562 24.816406 97.199219 27.886719 96.886719 C 26.921875 97.257812 26.304688 98.207031 26.351562 99.238281 C 26.351562 101.0625 27.839844 103.078125 28.800781 103.679688 L 29.28125 84.71875 Z M 29.28125 84.695312 "/>
<path style=" stroke:none;fill-rule:nonzero;fill:rgb(100%,92.54902%,17.647059%);fill-opacity:1;" d="M 28.800781 17.519531 C 28.800781 17.519531 31.105469 15.550781 31.894531 16.535156 C 33.144531 18.097656 28.007812 25.894531 28.007812 28.632812 C 28.007812 33.144531 31.03125 34.367188 34.726562 34.992188 C 37.222656 35.425781 41.28125 34.824219 41.28125 34.824219 C 40.511719 33.792969 40.007812 33.480469 38.734375 33.40625 C 40.175781 32.6875 41.617188 31.054688 41.617188 28.535156 C 41.617188 24.671875 40.03125 23.0625 40.03125 18.695312 C 40.03125 16.320312 42 13.199219 42 13.199219 C 38.496094 13.558594 36.769531 16.800781 37.753906 19.390625 C 37.203125 19.5 36.636719 19.332031 36.238281 18.9375 C 36 19.65625 36.382812 20.496094 36.9375 21.214844 C 36.503906 21.457031 36.167969 21.3125 35.496094 21.167969 C 35.542969 21.886719 35.976562 22.703125 37.078125 23.449219 C 33.910156 22.632812 31.992188 24.816406 31.992188 27.121094 C 31.992188 28.871094 33.191406 30.121094 34.390625 30.121094 C 34.777344 30.121094 35.351562 29.953125 35.664062 29.710938 C 35.902344 30.191406 35.761719 30.839844 35.542969 31.320312 C 36.40625 31.078125 36.984375 30.550781 36.574219 29.472656 C 37.246094 29.425781 37.769531 29.183594 38.136719 28.753906 C 37.769531 28.273438 37.246094 28.03125 36.574219 28.03125 C 37.054688 27.023438 36.503906 26.472656 35.710938 26.015625 C 35.710938 26.015625 36.214844 28.03125 34.945312 28.03125 C 34.367188 28.03125 33.839844 27.863281 33.839844 27 C 33.839844 26.257812 34.488281 25.222656 36 25.296875 C 37.511719 25.367188 38.710938 26.328125 38.710938 28.726562 C 38.710938 30.9375 36.910156 32.039062 34.558594 32.089844 C 32.449219 32.183594 30.839844 31.03125 30.839844 28.847656 C 30.839844 25.921875 35.039062 19.296875 35.039062 16.703125 C 35.039062 14.761719 33.3125 13.65625 31.585938 13.65625 C 29.375 13.65625 27.503906 15.863281 27.503906 15.863281 L 28.800781 17.496094 Z M 28.800781 17.519531 "/>
<path style=" stroke:none;fill-rule:nonzero;fill:rgb(100%,92.54902%,17.647059%);fill-opacity:1;" d="M 28.320312 70.105469 C 28.320312 74.976562 32.6875 77.472656 36.121094 77.472656 C 40.726562 77.472656 43.199219 74.710938 43.199219 71.089844 C 43.199219 69.046875 42.816406 67.753906 41.878906 65.808594 L 31.273438 43.800781 C 30.886719 42.875 30.722656 41.871094 30.792969 40.871094 C 30.792969 38.902344 32.710938 37.296875 34.703125 37.273438 C 36.527344 37.199219 38.542969 38.953125 38.542969 40.945312 C 38.542969 43.367188 37.273438 44.449219 35.976562 44.449219 C 34.390625 44.449219 33.769531 43.800781 33.769531 42.671875 C 33.800781 41.921875 34.105469 41.550781 34.679688 41.566406 C 36.046875 41.566406 35.640625 43.390625 35.640625 43.390625 C 36.003906 43.324219 36.320312 43.097656 36.503906 42.773438 C 36.683594 42.449219 36.710938 42.058594 36.574219 41.710938 C 37.089844 41.601562 37.554688 41.320312 37.894531 40.921875 C 37.542969 40.550781 37.105469 40.3125 36.574219 40.199219 C 36.886719 39.144531 36.457031 38.640625 35.542969 38.398438 C 35.703125 38.761719 35.742188 39.164062 35.664062 39.550781 C 34.222656 39.121094 31.992188 39.792969 31.992188 42.289062 C 31.992188 44.785156 33.71875 46.871094 36.960938 46.367188 C 36.191406 46.726562 35.808594 47.472656 35.710938 48.3125 C 36.3125 48.070312 36.960938 48.070312 36.960938 48.070312 C 36.574219 48.71875 36.046875 49.273438 36.070312 50.617188 C 36.671875 50.328125 37.246094 49.824219 37.992188 50.136719 C 36.792969 52.535156 38.28125 55.800781 42.070312 56.566406 C 40.695312 54.921875 40.007812 53.214844 40.007812 51.457031 C 40.007812 45.816406 41.566406 44.878906 41.566406 40.945312 C 41.519531 39.09375 40.582031 37.378906 39.046875 36.335938 L 39.046875 36.40625 C 39.988281 36.214844 40.800781 35.628906 41.28125 34.800781 C 38.605469 34.0625 35.78125 34.089844 33.121094 34.871094 C 31.316406 35.128906 29.730469 36.1875 28.800781 37.753906 C 27.832031 39.960938 27.832031 42.476562 28.800781 44.6875 C 30.3125 47.808594 37.367188 62.832031 39.574219 67.535156 C 40.054688 68.542969 40.304688 69.617188 40.320312 70.753906 C 40.320312 73.632812 37.679688 74.640625 36.191406 74.640625 C 34.390625 74.640625 32.542969 73.273438 32.542969 71.566406 C 32.542969 70.488281 33.144531 69.816406 33.984375 69.816406 C 36.023438 69.816406 35.902344 71.542969 35.496094 72.648438 C 36.769531 72.070312 37.488281 71.0625 37.296875 70.007812 C 38.082031 69.875 38.796875 69.46875 39.3125 68.855469 C 38.832031 68.230469 38.207031 67.753906 37.296875 67.726562 C 37.703125 66.070312 36.574219 65.375 35.496094 64.992188 C 35.832031 66.191406 36.070312 67.609375 33.984375 67.609375 C 32.472656 67.609375 31.296875 67.847656 30.601562 68.855469 L 30.433594 62.375 C 30.335938 60.433594 33.023438 60.457031 34.753906 61.054688 C 34.105469 58.824219 32.785156 57.601562 29.710938 57.910156 C 30.675781 57.539062 31.296875 56.59375 31.246094 55.558594 C 31.246094 53.734375 29.761719 51.71875 28.800781 51.121094 L 28.320312 70.078125 Z M 28.320312 70.105469 "/>
<path style=" stroke:none;fill-rule:nonzero;fill:rgb(100%,92.54902%,17.647059%);fill-opacity:1;" d="M 28.320312 84.695312 C 28.320312 79.824219 32.6875 77.328125 36.121094 77.328125 C 40.726562 77.328125 43.199219 80.089844 43.199219 83.710938 C 43.199219 85.753906 42.816406 87.046875 41.878906 88.992188 L 31.273438 111 C 30.886719 111.925781 30.722656 112.929688 30.792969 113.929688 C 30.792969 115.894531 32.710938 117.503906 34.703125 117.527344 C 36.527344 117.601562 38.542969 115.847656 38.542969 113.855469 C 38.542969 111.433594 37.273438 110.351562 35.976562 110.351562 C 34.390625 110.351562 33.769531 111 33.769531 112.128906 C 33.800781 112.878906 34.105469 113.246094 34.679688 113.230469 C 36.046875 113.230469 35.640625 111.40625 35.640625 111.40625 C 36.003906 111.476562 36.320312 111.703125 36.503906 112.027344 C 36.683594 112.351562 36.710938 112.742188 36.574219 113.089844 C 37.089844 113.199219 37.554688 113.476562 37.894531 113.878906 C 37.542969 114.246094 37.105469 114.488281 36.574219 114.601562 C 36.886719 115.65625 36.457031 116.160156 35.542969 116.398438 C 35.703125 116.039062 35.742188 115.636719 35.664062 115.246094 C 34.222656 115.679688 31.992188 115.007812 31.992188 112.511719 C 31.992188 110.015625 33.71875 107.929688 36.960938 108.433594 C 36.191406 108.070312 35.808594 107.328125 35.710938 106.488281 C 36.3125 106.726562 36.960938 106.726562 36.960938 106.726562 C 36.574219 106.078125 36.046875 105.527344 36.070312 104.183594 C 36.671875 104.472656 37.246094 104.976562 37.992188 104.664062 C 36.792969 102.265625 38.28125 99 42.070312 98.230469 C 40.695312 99.878906 40.007812 101.585938 40.007812 103.34375 C 40.007812 108.984375 41.566406 109.921875 41.566406 113.855469 C 41.519531 115.707031 40.582031 117.421875 39.046875 118.464844 L 39.046875 118.390625 C 39.988281 118.585938 40.800781 119.171875 41.28125 120 C 38.605469 120.738281 35.78125 120.710938 33.121094 119.929688 C 31.316406 119.671875 29.730469 118.613281 28.800781 117.046875 C 27.832031 114.835938 27.832031 112.324219 28.800781 110.113281 C 30.3125 106.992188 37.367188 91.96875 39.574219 87.265625 C 40.054688 86.257812 40.304688 85.183594 40.320312 84.046875 C 40.320312 81.167969 37.679688 80.160156 36.191406 80.160156 C 34.390625 80.160156 32.542969 81.527344 32.542969 83.230469 C 32.542969 84.3125 33.144531 84.984375 33.984375 84.984375 C 36.023438 84.984375 35.902344 83.257812 35.496094 82.152344 C 36.769531 82.726562 37.488281 83.734375 37.296875 84.792969 C 38.082031 84.925781 38.796875 85.332031 39.3125 85.945312 C 38.832031 86.566406 38.207031 87.046875 37.296875 87.070312 C 37.703125 88.726562 36.574219 89.425781 35.496094 89.808594 C 35.832031 88.609375 36.070312 87.191406 33.984375 87.191406 C 32.472656 87.191406 31.296875 86.953125 30.601562 85.945312 L 30.433594 92.425781 C 30.335938 94.367188 33.023438 94.34375 34.753906 93.742188 C 34.105469 95.976562 32.785156 97.199219 29.710938 96.886719 C 30.675781 97.257812 31.296875 98.207031 31.246094 99.238281 C 31.246094 101.0625 29.761719 103.078125 28.800781 103.679688 L 28.320312 84.71875 Z M 28.320312 84.695312 "/>
<path style=" stroke:none;fill-rule:nonzero;fill:rgb(100%,92.54902%,17.647059%);fill-opacity:1;" d="M 28.800781 222.480469 C 28.800781 222.480469 26.496094 224.449219 25.703125 223.464844 C 24.457031 221.902344 29.59375 214.105469 29.59375 211.367188 C 29.59375 206.855469 26.566406 205.632812 22.871094 205.007812 C 20.375 204.574219 16.320312 205.175781 16.320312 205.175781 C 17.089844 206.207031 17.59375 206.519531 18.863281 206.59375 C 17.425781 207.3125 15.984375 208.945312 15.984375 211.464844 C 15.984375 215.328125 17.566406 216.9375 17.566406 221.304688 C 17.566406 223.679688 15.601562 226.800781 15.601562 226.800781 C 19.105469 226.441406 20.832031 223.199219 19.847656 220.609375 C 20.394531 220.5 20.964844 220.667969 21.359375 221.0625 C 21.601562 220.34375 21.214844 219.503906 20.664062 218.785156 C 21.097656 218.542969 21.433594 218.6875 22.105469 218.832031 C 22.054688 218.113281 21.625 217.296875 20.519531 216.550781 C 23.6875 217.367188 25.609375 215.183594 25.609375 212.878906 C 25.609375 211.128906 24.40625 209.878906 23.207031 209.878906 C 22.824219 209.878906 22.246094 210.046875 21.9375 210.289062 C 21.695312 209.808594 21.839844 209.160156 22.054688 208.679688 C 21.191406 208.921875 20.617188 209.449219 21.023438 210.527344 C 20.351562 210.574219 19.832031 210.816406 19.464844 211.246094 C 19.832031 211.726562 20.351562 211.96875 21.023438 211.96875 C 20.542969 212.976562 21.097656 213.527344 21.886719 213.984375 C 21.886719 213.984375 21.382812 211.96875 22.65625 211.96875 C 23.230469 211.96875 23.761719 212.136719 23.761719 213 C 23.761719 213.742188 23.113281 214.777344 21.601562 214.703125 C 20.089844 214.632812 18.886719 213.671875 18.886719 211.273438 C 18.886719 209.0625 20.6875 207.960938 23.039062 207.910156 C 25.152344 207.816406 26.761719 208.96875 26.761719 211.152344 C 26.761719 214.078125 22.558594 220.703125 22.558594 223.296875 C 22.558594 225.238281 24.289062 226.34375 26.015625 226.34375 C 28.222656 226.34375 30.097656 224.136719 30.097656 224.136719 L 28.800781 222.503906 Z M 28.800781 222.480469 "/>
<path style=" stroke:none;fill-rule:nonzero;fill:rgb(100%,92.54902%,17.647059%);fill-opacity:1;" d="M 29.28125 169.894531 C 29.28125 165.023438 24.910156 162.527344 21.480469 162.527344 C 16.871094 162.527344 14.398438 165.289062 14.398438 168.910156 C 14.398438 170.953125 14.785156 172.246094 15.71875 174.191406 L 26.328125 196.199219 C 26.710938 197.125 26.875 198.128906 26.808594 199.128906 C 26.808594 201.097656 24.886719 202.703125 22.894531 202.726562 C 21.070312 202.800781 19.054688 201.046875 19.054688 199.054688 C 19.054688 196.632812 20.328125 195.550781 21.625 195.550781 C 23.207031 195.550781 23.832031 196.199219 23.832031 197.328125 C 23.800781 198.078125 23.496094 198.449219 22.921875 198.433594 C 21.550781 198.433594 21.960938 196.609375 21.960938 196.609375 C 21.59375 196.675781 21.277344 196.902344 21.097656 197.226562 C 20.914062 197.550781 20.890625 197.941406 21.023438 198.289062 C 20.507812 198.398438 20.046875 198.679688 19.703125 199.078125 C 20.054688 199.449219 20.496094 199.6875 21.023438 199.800781 C 20.710938 200.855469 21.144531 201.359375 22.054688 201.601562 C 21.898438 201.238281 21.855469 200.835938 21.9375 200.449219 C 23.375 200.878906 25.609375 200.207031 25.609375 197.710938 C 25.609375 195.214844 23.878906 193.128906 20.640625 193.632812 C 21.40625 193.273438 21.792969 192.527344 21.886719 191.6875 C 21.289062 191.929688 20.640625 191.929688 20.640625 191.929688 C 21.023438 191.28125 21.550781 190.726562 21.527344 189.382812 C 20.929688 189.671875 20.351562 190.175781 19.609375 189.863281 C 20.808594 187.464844 19.320312 184.199219 15.527344 183.433594 C 16.902344 185.078125 17.59375 186.785156 17.59375 188.542969 C 17.59375 194.183594 16.03125 195.121094 16.03125 199.054688 C 16.082031 200.90625 17.019531 202.621094 18.550781 203.664062 L 18.550781 203.59375 C 17.613281 203.785156 16.800781 204.371094 16.320312 205.199219 C 18.992188 205.9375 21.820312 205.910156 24.480469 205.128906 C 26.28125 204.871094 27.871094 203.8125 28.800781 202.246094 C 29.769531 200.039062 29.769531 197.523438 28.800781 195.3125 C 27.289062 192.191406 20.230469 177.167969 18.023438 172.464844 C 17.542969 171.457031 17.296875 170.382812 17.28125 169.246094 C 17.28125 166.367188 19.921875 165.359375 21.40625 165.359375 C 23.207031 165.359375 25.054688 166.726562 25.054688 168.433594 C 25.054688 169.511719 24.457031 170.183594 23.617188 170.183594 C 21.574219 170.183594 21.695312 168.457031 22.105469 167.351562 C 20.832031 167.929688 20.113281 168.9375 20.304688 169.992188 C 19.515625 170.125 18.800781 170.53125 18.289062 171.144531 C 18.769531 171.769531 19.390625 172.246094 20.304688 172.273438 C 19.894531 173.929688 21.023438 174.625 22.105469 175.007812 C 21.769531 173.808594 21.527344 172.390625 23.617188 172.390625 C 25.128906 172.390625 26.304688 172.152344 27 171.144531 L 27.167969 177.625 C 27.265625 179.566406 24.574219 179.542969 22.847656 178.945312 C 23.496094 181.175781 24.816406 182.398438 27.886719 182.089844 C 26.921875 182.460938 26.304688 183.40625 26.351562 184.441406 C 26.351562 186.265625 27.839844 188.28125 28.800781 188.878906 L 29.28125 169.921875 Z M 29.28125 169.894531 "/>
<path style=" stroke:none;fill-rule:nonzero;fill:rgb(100%,92.54902%,17.647059%);fill-opacity:1;" d="M 29.28125 155.304688 C 29.28125 160.175781 24.910156 162.671875 21.480469 162.671875 C 16.871094 162.671875 14.398438 159.910156 14.398438 156.289062 C 14.398438 154.246094 14.785156 152.953125 15.71875 151.007812 L 26.328125 129 C 26.710938 128.074219 26.875 127.070312 26.808594 126.070312 C 26.808594 124.105469 24.886719 122.496094 22.894531 122.472656 C 21.070312 122.398438 19.054688 124.152344 19.054688 126.144531 C 19.054688 128.566406 20.328125 129.648438 21.625 129.648438 C 23.207031 129.648438 23.832031 129 23.832031 127.871094 C 23.800781 127.121094 23.496094 126.753906 22.921875 126.769531 C 21.550781 126.769531 21.960938 128.59375 21.960938 128.59375 C 21.59375 128.523438 21.277344 128.296875 21.097656 127.972656 C 20.914062 127.648438 20.890625 127.257812 21.023438 126.910156 C 20.507812 126.800781 20.046875 126.523438 19.703125 126.121094 C 20.054688 125.753906 20.496094 125.511719 21.023438 125.398438 C 20.710938 124.34375 21.144531 123.839844 22.054688 123.601562 C 21.898438 123.960938 21.855469 124.363281 21.9375 124.753906 C 23.375 124.320312 25.609375 124.992188 25.609375 127.488281 C 25.609375 129.984375 23.878906 132.070312 20.640625 131.566406 C 21.40625 131.929688 21.792969 132.671875 21.886719 133.511719 C 21.289062 133.273438 20.640625 133.273438 20.640625 133.273438 C 21.023438 133.921875 21.550781 134.472656 21.527344 135.816406 C 20.929688 135.527344 20.351562 135.023438 19.609375 135.335938 C 20.808594 137.734375 19.320312 141 15.527344 141.769531 C 16.902344 140.121094 17.59375 138.414062 17.59375 136.65625 C 17.59375 131.015625 16.03125 130.078125 16.03125 126.144531 C 16.082031 124.292969 17.019531 122.578125 18.550781 121.535156 L 18.550781 121.609375 C 17.613281 121.414062 16.800781 120.828125 16.320312 120 C 18.992188 119.261719 21.820312 119.289062 24.480469 120.070312 C 26.28125 120.328125 27.871094 121.386719 28.800781 122.953125 C 29.769531 125.164062 29.769531 127.675781 28.800781 129.886719 C 27.289062 133.007812 20.230469 148.03125 18.023438 152.734375 C 17.542969 153.742188 17.296875 154.816406 17.28125 155.953125 C 17.28125 158.832031 19.921875 159.839844 21.40625 159.839844 C 23.207031 159.839844 25.054688 158.472656 25.054688 156.769531 C 25.054688 155.6875 24.457031 155.015625 23.617188 155.015625 C 21.574219 155.015625 21.695312 156.742188 22.105469 157.847656 C 20.832031 157.273438 20.113281 156.265625 20.304688 155.207031 C 19.515625 155.074219 18.800781 154.667969 18.289062 154.054688 C 18.769531 153.433594 19.390625 152.953125 20.304688 152.929688 C 19.894531 151.273438 21.023438 150.574219 22.105469 150.191406 C 21.769531 151.390625 21.527344 152.808594 23.617188 152.808594 C 25.128906 152.808594 26.304688 153.046875 27 154.054688 L 27.167969 147.574219 C 27.265625 145.632812 24.574219 145.65625 22.847656 146.257812 C 23.496094 144.023438 24.816406 142.800781 27.886719 143.113281 C 26.921875 142.742188 26.304688 141.792969 26.351562 140.761719 C 26.351562 138.9375 27.839844 136.921875 28.800781 136.320312 L 29.28125 155.28125 Z M 29.28125 155.304688 "/>
<path style=" stroke:none;fill-rule:nonzero;fill:rgb(100%,92.54902%,17.647059%);fill-opacity:1;" d="M 28.800781 222.480469 C 28.800781 222.480469 31.105469 224.449219 31.894531 223.464844 C 33.144531 221.902344 28.007812 214.105469 28.007812 211.367188 C 28.007812 206.855469 31.03125 205.632812 34.726562 205.007812 C 37.222656 204.574219 41.28125 205.175781 41.28125 205.175781 C 40.511719 206.207031 40.007812 206.519531 38.734375 206.59375 C 40.175781 207.3125 41.617188 208.945312 41.617188 211.464844 C 41.617188 215.328125 40.03125 216.9375 40.03125 221.304688 C 40.03125 223.679688 42 226.800781 42 226.800781 C 38.496094 226.441406 36.769531 223.199219 37.753906 220.609375 C 37.203125 220.5 36.636719 220.667969 36.238281 221.0625 C 36 220.34375 36.382812 219.503906 36.9375 218.785156 C 36.503906 218.542969 36.167969 218.6875 35.496094 218.832031 C 35.542969 218.113281 35.976562 217.296875 37.078125 216.550781 C 33.910156 217.367188 31.992188 215.183594 31.992188 212.878906 C 31.992188 211.128906 33.191406 209.878906 34.390625 209.878906 C 34.777344 209.878906 35.351562 210.046875 35.664062 210.289062 C 35.902344 209.808594 35.761719 209.160156 35.542969 208.679688 C 36.40625 208.921875 36.984375 209.449219 36.574219 210.527344 C 37.246094 210.574219 37.769531 210.816406 38.136719 211.246094 C 37.769531 211.726562 37.246094 211.96875 36.574219 211.96875 C 37.054688 212.976562 36.503906 213.527344 35.710938 213.984375 C 35.710938 213.984375 36.214844 211.96875 34.945312 211.96875 C 34.367188 211.96875 33.839844 212.136719 33.839844 213 C 33.839844 213.742188 34.488281 214.777344 36 214.703125 C 37.511719 214.632812 38.710938 213.671875 38.710938 211.273438 C 38.710938 209.0625 36.910156 207.960938 34.558594 207.910156 C 32.449219 207.816406 30.839844 208.96875 30.839844 211.152344 C 30.839844 214.078125 35.039062 220.703125 35.039062 223.296875 C 35.039062 225.238281 33.3125 226.34375 31.585938 226.34375 C 29.375 226.34375 27.503906 224.136719 27.503906 224.136719 L 28.800781 222.503906 Z M 28.800781 222.480469 "/>
<path style=" stroke:none;fill-rule:nonzero;fill:rgb(100%,92.54902%,17.647059%);fill-opacity:1;" d="M 28.320312 169.894531 C 28.320312 165.023438 32.6875 162.527344 36.121094 162.527344 C 40.726562 162.527344 43.199219 165.289062 43.199219 168.910156 C 43.199219 170.953125 42.816406 172.246094 41.878906 174.191406 L 31.273438 196.199219 C 30.886719 197.125 30.722656 198.128906 30.792969 199.128906 C 30.792969 201.097656 32.710938 202.703125 34.703125 202.726562 C 36.527344 202.800781 38.542969 201.046875 38.542969 199.054688 C 38.542969 196.632812 37.273438 195.550781 35.976562 195.550781 C 34.390625 195.550781 33.769531 196.199219 33.769531 197.328125 C 33.800781 198.078125 34.105469 198.449219 34.679688 198.433594 C 36.046875 198.433594 35.640625 196.609375 35.640625 196.609375 C 36.003906 196.675781 36.320312 196.902344 36.503906 197.226562 C 36.683594 197.550781 36.710938 197.941406 36.574219 198.289062 C 37.089844 198.398438 37.554688 198.679688 37.894531 199.078125 C 37.542969 199.449219 37.105469 199.6875 36.574219 199.800781 C 36.886719 200.855469 36.457031 201.359375 35.542969 201.601562 C 35.703125 201.238281 35.742188 200.835938 35.664062 200.449219 C 34.222656 200.878906 31.992188 200.207031 31.992188 197.710938 C 31.992188 195.214844 33.71875 193.128906 36.960938 193.632812 C 36.191406 193.273438 35.808594 192.527344 35.710938 191.6875 C 36.3125 191.929688 36.960938 191.929688 36.960938 191.929688 C 36.574219 191.28125 36.046875 190.726562 36.070312 189.382812 C 36.671875 189.671875 37.246094 190.175781 37.992188 189.863281 C 36.792969 187.464844 38.28125 184.199219 42.070312 183.433594 C 40.695312 185.078125 40.007812 186.785156 40.007812 188.542969 C 40.007812 194.183594 41.566406 195.121094 41.566406 199.054688 C 41.519531 200.90625 40.582031 202.621094 39.046875 203.664062 L 39.046875 203.59375 C 39.988281 203.785156 40.800781 204.371094 41.28125 205.199219 C 38.605469 205.9375 35.78125 205.910156 33.121094 205.128906 C 31.316406 204.871094 29.730469 203.8125 28.800781 202.246094 C 27.832031 200.039062 27.832031 197.523438 28.800781 195.3125 C 30.3125 192.191406 37.367188 177.167969 39.574219 172.464844 C 40.054688 171.457031 40.304688 170.382812 40.320312 169.246094 C 40.320312 166.367188 37.679688 165.359375 36.191406 165.359375 C 34.390625 165.359375 32.542969 166.726562 32.542969 168.433594 C 32.542969 169.511719 33.144531 170.183594 33.984375 170.183594 C 36.023438 170.183594 35.902344 168.457031 35.496094 167.351562 C 36.769531 167.929688 37.488281 168.9375 37.296875 169.992188 C 38.082031 170.125 38.796875 170.53125 39.3125 171.144531 C 38.832031 171.769531 38.207031 172.246094 37.296875 172.273438 C 37.703125 173.929688 36.574219 174.625 35.496094 175.007812 C 35.832031 173.808594 36.070312 172.390625 33.984375 172.390625 C 32.472656 172.390625 31.296875 172.152344 30.601562 171.144531 L 30.433594 177.625 C 30.335938 179.566406 33.023438 179.542969 34.753906 178.945312 C 34.105469 181.175781 32.785156 182.398438 29.710938 182.089844 C 30.675781 182.460938 31.296875 183.40625 31.246094 184.441406 C 31.246094 186.265625 29.761719 188.28125 28.800781 188.878906 L 28.320312 169.921875 Z M 28.320312 169.894531 "/>
<path style=" stroke:none;fill-rule:nonzero;fill:rgb(100%,92.54902%,17.647059%);fill-opacity:1;" d="M 28.320312 155.304688 C 28.320312 160.175781 32.6875 162.671875 36.121094 162.671875 C 40.726562 162.671875 43.199219 159.910156 43.199219 156.289062 C 43.199219 154.246094 42.816406 152.953125 41.878906 151.007812 L 31.273438 129 C 30.886719 128.074219 30.722656 127.070312 30.792969 126.070312 C 30.792969 124.105469 32.710938 122.496094 34.703125 122.472656 C 36.527344 122.398438 38.542969 124.152344 38.542969 126.144531 C 38.542969 128.566406 37.273438 129.648438 35.976562 129.648438 C 34.390625 129.648438 33.769531 129 33.769531 127.871094 C 33.800781 127.121094 34.105469 126.753906 34.679688 126.769531 C 36.046875 126.769531 35.640625 128.59375 35.640625 128.59375 C 36.003906 128.523438 36.320312 128.296875 36.503906 127.972656 C 36.683594 127.648438 36.710938 127.257812 36.574219 126.910156 C 37.089844 126.800781 37.554688 126.523438 37.894531 126.121094 C 37.542969 125.753906 37.105469 125.511719 36.574219 125.398438 C 36.886719 124.34375 36.457031 123.839844 35.542969 123.601562 C 35.703125 123.960938 35.742188 124.363281 35.664062 124.753906 C 34.222656 124.320312 31.992188 124.992188 31.992188 127.488281 C 31.992188 129.984375 33.71875 132.070312 36.960938 131.566406 C 36.191406 131.929688 35.808594 132.671875 35.710938 133.511719 C 36.3125 133.273438 36.960938 133.273438 36.960938 133.273438 C 36.574219 133.921875 36.046875 134.472656 36.070312 135.816406 C 36.671875 135.527344 37.246094 135.023438 37.992188 135.335938 C 36.792969 137.734375 38.28125 141 42.070312 141.769531 C 40.695312 140.121094 40.007812 138.414062 40.007812 136.65625 C 40.007812 131.015625 41.566406 130.078125 41.566406 126.144531 C 41.519531 124.292969 40.582031 122.578125 39.046875 121.535156 L 39.046875 121.609375 C 39.988281 121.414062 40.800781 120.828125 41.28125 120 C 38.605469 119.261719 35.78125 119.289062 33.121094 120.070312 C 31.316406 120.328125 29.730469 121.386719 28.800781 122.953125 C 27.832031 125.164062 27.832031 127.675781 28.800781 129.886719 C 30.3125 133.007812 37.367188 148.03125 39.574219 152.734375 C 40.054688 153.742188 40.304688 154.816406 40.320312 155.953125 C 40.320312 158.832031 37.679688 159.839844 36.191406 159.839844 C 34.390625 159.839844 32.542969 158.472656 32.542969 156.769531 C 32.542969 155.6875 33.144531 155.015625 33.984375 155.015625 C 36.023438 155.015625 35.902344 156.742188 35.496094 157.847656 C 36.769531 157.273438 37.488281 156.265625 37.296875 155.207031 C 38.082031 155.074219 38.796875 154.667969 39.3125 154.054688 C 38.832031 153.433594 38.207031 152.953125 37.296875 152.929688 C 37.703125 151.273438 36.574219 150.574219 35.496094 150.191406 C 35.832031 151.390625 36.070312 152.808594 33.984375 152.808594 C 32.472656 152.808594 31.296875 153.046875 30.601562 154.054688 L 30.433594 147.574219 C 30.335938 145.632812 33.023438 145.65625 34.753906 146.257812 C 34.105469 144.023438 32.785156 142.800781 29.710938 143.113281 C 30.675781 142.742188 31.296875 141.792969 31.246094 140.761719 C 31.246094 138.9375 29.761719 136.921875 28.800781 136.320312 L 28.320312 155.28125 Z M 28.320312 155.304688 "/>
</g>
</svg>
