<?xml version="1.0" encoding="UTF-8"?>
<svg xmlns="http://www.w3.org/2000/svg" xmlns:xlink="http://www.w3.org/1999/xlink" width="px" height="px" viewBox="0 0 320 240" version="1.1">
<g id="surface1">
<rect x="0" y="0" width="320" height="240" style="fill:rgb(100%,100%,100%);fill-opacity:1;stroke:none;"/>
<path style=" stroke:none;fill-rule:nonzero;fill:rgb(0%,58.431375%,26.274511%);fill-opacity:1;" d="M 0 168 L 320 168 L 320 240 L 0 240 Z M 0 168 "/>
<path style=" stroke:none;fill-rule:nonzero;fill:rgb(0%,12.54902%,62.352943%);fill-opacity:1;" d="M 0 0 L 320 0 L 320 72 L 0 72 Z M 0 0 "/>
<path style="fill-rule:nonzero;fill:rgb(0%,0%,0%);fill-opacity:1;stroke-width:1.6;stroke-linecap:butt;stroke-linejoin:miter;stroke:rgb(0%,0%,0%);stroke-opacity:1;stroke-miterlimit:4;" d="M 319.601562 153 C 316.898438 153 314.203125 156 314.203125 156 L 314.5 188.398438 L 304.203125 199.101562 L 312.5 199.101562 L 312.5 217.601562 L 263.5 283.601562 L 256.296875 281 L 243.601562 308 C 243.601562 308 274.898438 327.601562 320.296875 327 C 370.101562 326.5 397.203125 307.101562 397.203125 307.101562 L 384.203125 280.5 L 377.703125 283.296875 L 328.101562 217.703125 L 328.101562 198.601562 L 336.296875 198.601562 L 325.101562 188 L 325.101562 155.796875 C 325.101562 155.796875 322.398438 152.796875 319.601562 152.898438 Z M 319.601562 153 " transform="matrix(0.5,0,0,0.5,0,0)"/>
<path style="fill:none;stroke-width:8;stroke-linecap:butt;stroke-linejoin:miter;stroke:rgb(0%,0%,0%);stroke-opacity:1;stroke-miterlimit:4;" d="M 336.703125 230.398438 L 302.796875 230.398438 C 302.796875 230.398438 290.601562 204.5 292.5 186.398438 C 294.5 168 305.101562 159.296875 319.101562 159.101562 C 335.703125 159 344.296875 167.203125 346.898438 185.703125 C 349.5 204 336.703125 230.398438 336.703125 230.398438 Z M 336.703125 230.398438 " transform="matrix(0.5,0,0,0.5,0,0)"/>
<path style=" stroke:none;fill-rule:nonzero;fill:rgb(100%,100%,100%);fill-opacity:1;" d="M 130.25 146.050781 C 129.949219 146.398438 127.898438 150.5 127.898438 150.5 L 131.398438 149.75 Z M 132.25 151.300781 L 128.550781 152.5 L 133 154.25 Z M 133.898438 146.148438 L 135.75 151.601562 L 140.25 150.300781 L 139.101562 147.699219 Z M 136.800781 153.550781 L 137.398438 155.75 L 143.398438 157.25 L 141 152.148438 Z M 143.398438 148.898438 L 145.550781 154 L 150.050781 152.25 L 148.550781 150 Z M 146.398438 155.851562 L 147.101562 157.75 L 154.101562 158.75 L 151.148438 154.148438 L 146.351562 155.851562 Z M 153.101562 150.351562 L 155.699219 154.898438 L 162.199219 152.5 L 161.5 150.75 L 153.101562 150.398438 Z M 156.898438 156.550781 L 158.25 158.949219 L 166.351562 158.699219 L 163.351562 154.199219 L 156.851562 156.550781 Z M 165.449219 150.550781 L 167.648438 154.351562 L 172.851562 151.851562 L 171.449219 149.851562 Z M 173.949219 153.449219 L 168.800781 156 L 170.148438 158.25 L 177.050781 157.148438 Z M 175.601562 149.449219 L 178.25 152.800781 L 182.601562 149.351562 L 181.101562 147.851562 Z M 183.550781 151.199219 L 179.398438 154.351562 L 180.5 156.300781 L 186.199219 154.800781 Z M 189.25 144.699219 L 190.25 146.148438 L 187.398438 150.398438 L 184.449219 146.601562 Z M 191.199219 148.351562 L 192.949219 151.851562 L 189.449219 153.050781 L 189.148438 151.398438 L 191.148438 148.398438 Z M 191.199219 148.351562 "/>
</g>
</svg>
