<?xml version="1.0" encoding="UTF-8"?>
<svg xmlns="http://www.w3.org/2000/svg" xmlns:xlink="http://www.w3.org/1999/xlink" width="px" height="px" viewBox="0 0 320 240" version="1.1">
<g id="surface1">
<path style=" stroke:none;fill-rule:evenodd;fill:rgb(0%,19.215687%,61.176473%);fill-opacity:1;" d="M 0 0 L 106.648438 0 L 106.648438 240 L 0 240 Z M 0 0 "/>
<path style=" stroke:none;fill-rule:evenodd;fill:rgb(100%,87.058824%,0%);fill-opacity:1;" d="M 106.648438 0 L 213.351562 0 L 213.351562 240 L 106.648438 240 Z M 106.648438 0 "/>
<path style=" stroke:none;fill-rule:evenodd;fill:rgb(87.058824%,12.941177%,6.27451%);fill-opacity:1;" d="M 213.351562 0 L 320 0 L 320 240 L 213.351562 240 Z M 213.351562 0 "/>
<path style="fill-rule:evenodd;fill:rgb(100%,9.803922%,0%);fill-opacity:1;stroke-width:0.7;stroke-linecap:butt;stroke-linejoin:miter;stroke:rgb(0%,0%,0%);stroke-opacity:1;stroke-miterlimit:4;" d="M 360.398438 320.398438 L 384.601562 355.398438 C 386 357.398438 387.296875 359.296875 385.296875 360.601562 C 383.296875 361.898438 383.898438 367 385.296875 369 C 388 372.898438 391.296875 373.5 393.296875 372.203125 L 411.703125 360.601562 C 413.703125 359.398438 414.398438 356.101562 411.703125 352.203125 C 410.203125 350.203125 405.703125 347.703125 403.703125 349 C 401.601562 350.296875 400.203125 348.296875 398.898438 346.398438 L 374.601562 311.398438 " transform="matrix(0.5,0,0,0.5,0,0)"/>
<path style="fill-rule:evenodd;fill:rgb(65.490198%,48.235294%,23.137255%);fill-opacity:1;stroke-width:2.5;stroke-linecap:butt;stroke-linejoin:miter;stroke:rgb(0%,0%,0%);stroke-opacity:1;stroke-miterlimit:4;" d="M 177.202725 696.296023 C 177.196718 720.696311 167.599092 740.5941 155.903035 740.60094 C 144.198301 740.600482 134.599749 720.695389 134.598118 696.304181 C 134.604124 671.903893 144.29964 651.995419 155.996735 652.004957 C 167.701468 652.005416 177.30143 671.803157 177.301652 696.301716 Z M 177.202725 696.296023 " transform="matrix(0.26364,-0.21193,0.22179,0.25193,-16.200001,10)"/>
<path style="fill-rule:evenodd;fill:rgb(100%,9.803922%,0%);fill-opacity:1;stroke-width:0.7;stroke-linecap:butt;stroke-linejoin:miter;stroke:rgb(0%,0%,0%);stroke-opacity:1;stroke-miterlimit:4;" d="M 262 306.101562 L 240.5 342.796875 C 239.296875 344.796875 238.101562 346.796875 236 345.796875 C 233.898438 344.601562 229.398438 347.5 228.203125 349.601562 C 225.796875 353.601562 226.703125 356.796875 228.898438 358 L 248.101562 368.203125 C 250.101562 369.296875 253.5 368.398438 255.898438 364.398438 C 257 362.203125 257.296875 357.101562 255.203125 356 C 253.101562 354.898438 254.203125 352.796875 255.5 350.796875 L 276.898438 314.101562 " transform="matrix(0.5,0,0,0.5,0,0)"/>
<path style="fill-rule:evenodd;fill:rgb(65.490198%,48.235294%,23.137255%);fill-opacity:1;stroke-width:1.7;stroke-linecap:butt;stroke-linejoin:miter;stroke:rgb(0%,0%,0%);stroke-opacity:1;stroke-miterlimit:4;" d="M 331.203125 280.601562 L 311.601562 280.601562 C 311 281.203125 305.398438 316.203125 299.398438 329.601562 C 292.101562 345.898438 270.203125 360.296875 270.203125 360.296875 C 270.203125 360.296875 283.296875 364.296875 287.203125 366.898438 C 288.203125 366.601562 309.203125 362.203125 311.601562 336.601562 C 314 362.203125 297 373.898438 297 373.898438 C 297 373.898438 321.398438 380.898438 321.398438 397.203125 C 321.398438 380.898438 345.796875 373.898438 345.796875 373.898438 C 345.796875 373.898438 333.601562 362.203125 331.101562 336.601562 C 336.101562 362.203125 354.601562 366.601562 355.601562 366.898438 C 359.5 364.296875 372.601562 360.296875 372.601562 360.296875 C 372.601562 360.296875 350.703125 345.898438 343.398438 329.601562 C 337.398438 316.203125 331.796875 281.203125 331.203125 280.601562 Z M 248.203125 163.898438 L 284.796875 175.601562 C 296.898438 175.601562 309.203125 163.898438 309.203125 152.203125 C 309.601562 126.203125 299.398438 117.203125 297 117.203125 L 301.796875 112.601562 L 294.5 105.601562 C 294.5 105.601562 297 93.5 321.398438 93.898438 C 345.796875 94.296875 345.796875 105.601562 345.796875 117.203125 C 345.796875 128.796875 333.601562 128.898438 333.601562 152.203125 C 333.601562 163.898438 345.796875 175.601562 358 175.601562 L 394.601562 163.898438 L 394.601562 280.601562 L 248.101562 280.601562 Z M 248.203125 163.898438 " transform="matrix(0.5,0,0,0.5,0,0)"/>
<path style="fill:none;stroke-width:0.5;stroke-linecap:butt;stroke-linejoin:miter;stroke:rgb(0%,0%,0%);stroke-opacity:1;stroke-miterlimit:4;" d="M 302.19083 292.199168 L 316.811152 307.198474 L 331.478333 292.199168 L 346.098654 307.198474 L 375.386157 292.199168 L 389.678458 308.000219 L 404.720519 292.199168 L 426.322981 308.000219 L 448.581483 292.199168 L 463.201804 307.198474 L 477.915845 292.199168 " transform="matrix(0.08336,0,0,0.233865,126.949997,15.95)"/>
<path style="fill:none;stroke-width:0.2;stroke-linecap:butt;stroke-linejoin:miter;stroke:rgb(0%,0%,0%);stroke-opacity:1;stroke-miterlimit:4;" d="M 432.302614 435.802319 L 425.20498 474.803714 M 435.794741 435.802319 L 435.794741 474.803714 M 442.903713 435.802319 L 442.903713 474.803714 M 450.001347 435.802319 L 453.504812 474.803714 M 457.098981 435.802319 L 460.602446 474.803714 " transform="matrix(0.344525,0,0,0.329215,8.1,-72)"/>
<path style="fill-rule:evenodd;fill:rgb(65.490198%,48.235294%,23.137255%);fill-opacity:1;stroke-width:2.5;stroke-linecap:butt;stroke-linejoin:miter;stroke:rgb(0%,0%,0%);stroke-opacity:1;stroke-miterlimit:4;" d="M 318.896924 361.39473 C 354.29439 379.097827 354.29439 414.598945 354.29439 432.302042 C 353.103893 448.403318 354.29439 786.601295 354.29439 786.601295 C 354.29439 786.601295 352.0041 766.59632 336.595657 751.1951 L 318.998967 733.503868 L 301.300233 715.800771 C 288.295463 703.994751 283.6015 680.299654 283.6015 662.596556 L 283.6015 414.598945 C 283.6015 414.598945 283.6015 396.800925 318.998967 361.39473 Z M 318.896924 361.39473 " transform="matrix(-0.344525,0,0,0.329215,221.699997,-72)"/>
<path style="fill:none;stroke-width:2.5;stroke-linecap:butt;stroke-linejoin:miter;stroke:rgb(0%,0%,0%);stroke-opacity:1;stroke-miterlimit:4;" d="M 283.499457 574.002763 C 283.89629 574.002763 301.198191 556.299666 301.198191 556.299666 L 318.896924 574.002763 L 336.595657 556.299666 L 354.29439 574.002763 " transform="matrix(-0.344525,0,0,0.329215,221.699997,-118.650002)"/>
<path style="fill:none;stroke-width:2.5;stroke-linecap:butt;stroke-linejoin:miter;stroke:rgb(0%,0%,0%);stroke-opacity:1;stroke-miterlimit:4;" d="M 283.499457 574.00515 C 283.89629 574.00515 301.198191 556.302053 301.198191 556.302053 L 318.896924 574.00515 L 336.595657 556.302053 L 354.29439 574.00515 " transform="matrix(-0.344525,0,0,-0.329215,221.699997,265.100006)"/>
<path style="fill:none;stroke-width:2.5;stroke-linecap:butt;stroke-linejoin:miter;stroke:rgb(0%,0%,0%);stroke-opacity:1;stroke-miterlimit:4;" d="M 283.499457 574.005127 C 283.89629 574.005127 301.198191 556.30203 301.198191 556.30203 L 318.896924 574.005127 L 336.595657 556.30203 L 354.29439 574.005127 " transform="matrix(-0.344525,0,0,0.329215,221.699997,-95.349998)"/>
<path style="fill:none;stroke-width:2.5;stroke-linecap:butt;stroke-linejoin:miter;stroke:rgb(0%,0%,0%);stroke-opacity:1;stroke-miterlimit:4;" d="M 301.402276 556.999081 L 301.198191 715.799649 " transform="matrix(-0.344525,0,0,0.624555,221.699997,-283.399994)"/>
<path style="fill:none;stroke-width:2.5;stroke-linecap:butt;stroke-linejoin:miter;stroke:rgb(0%,0%,0%);stroke-opacity:1;stroke-miterlimit:4;" d="M 301.402276 539.302306 L 301.198191 715.801495 " transform="matrix(-0.344525,0,0,0.560555,215.699997,-232)"/>
<path style="fill:none;stroke-width:2.5;stroke-linecap:butt;stroke-linejoin:miter;stroke:rgb(0%,0%,0%);stroke-opacity:1;stroke-miterlimit:4;" d="M 301.3955 539.30073 L 301.202752 715.798905 " transform="matrix(-0.344525,0,0,0.62795,209.600006,-274.149994)"/>
<path style="fill-rule:evenodd;fill:rgb(65.490198%,48.235294%,23.137255%);fill-opacity:1;stroke-width:2.5;stroke-linecap:butt;stroke-linejoin:miter;stroke:rgb(0%,0%,0%);stroke-opacity:1;stroke-miterlimit:4;" d="M 318.901464 361.39473 C 354.29893 379.097827 354.29893 414.598945 354.29893 432.302042 C 353.097094 448.403318 354.29893 786.601295 354.29893 786.601295 C 354.29893 786.601295 351.997301 766.59632 336.600197 751.1951 L 319.003506 733.503868 L 301.304773 715.800771 C 288.300002 703.994751 283.594702 680.299654 283.594702 662.596556 L 283.594702 414.598945 C 283.594702 414.598945 283.594702 396.800925 319.003506 361.39473 Z M 318.901464 361.39473 " transform="matrix(0.344525,0,0,0.329215,99.650002,-72)"/>
<path style="fill:none;stroke-width:2.5;stroke-linecap:butt;stroke-linejoin:miter;stroke:rgb(0%,0%,0%);stroke-opacity:1;stroke-miterlimit:4;" d="M 283.503997 574.002763 C 283.90083 574.002763 301.20273 556.299666 301.20273 556.299666 L 318.901464 574.002763 L 336.600197 556.299666 L 354.29893 574.002763 " transform="matrix(0.344525,0,0,0.329215,99.650002,-118.650002)"/>
<path style="fill:none;stroke-width:2.5;stroke-linecap:butt;stroke-linejoin:miter;stroke:rgb(0%,0%,0%);stroke-opacity:1;stroke-miterlimit:4;" d="M 283.503997 574.00515 C 283.90083 574.00515 301.20273 556.302053 301.20273 556.302053 L 318.901464 574.00515 L 336.600197 556.302053 L 354.29893 574.00515 " transform="matrix(0.344525,0,0,-0.329215,99.650002,265.100006)"/>
<path style="fill:none;stroke-width:2.5;stroke-linecap:butt;stroke-linejoin:miter;stroke:rgb(0%,0%,0%);stroke-opacity:1;stroke-miterlimit:4;" d="M 283.503997 574.005127 C 283.90083 574.005127 301.20273 556.30203 301.20273 556.30203 L 318.901464 574.005127 L 336.600197 556.30203 L 354.29893 574.005127 " transform="matrix(0.344525,0,0,0.329215,99.650002,-95.349998)"/>
<path style="fill:none;stroke-width:2.5;stroke-linecap:butt;stroke-linejoin:miter;stroke:rgb(0%,0%,0%);stroke-opacity:1;stroke-miterlimit:4;" d="M 301.395478 556.999081 L 301.20273 715.799649 " transform="matrix(0.344525,0,0,0.624555,99.650002,-283.399994)"/>
<path style="fill:none;stroke-width:2.5;stroke-linecap:butt;stroke-linejoin:miter;stroke:rgb(0%,0%,0%);stroke-opacity:1;stroke-miterlimit:4;" d="M 301.397758 539.302306 L 301.205011 715.801495 " transform="matrix(0.344525,0,0,0.560555,105.699997,-232)"/>
<path style="fill:none;stroke-width:2.5;stroke-linecap:butt;stroke-linejoin:miter;stroke:rgb(0%,0%,0%);stroke-opacity:1;stroke-miterlimit:4;" d="M 301.402276 539.30073 L 301.198191 715.798905 " transform="matrix(0.344525,0,0,0.62795,111.800003,-274.149994)"/>
<path style="fill-rule:evenodd;fill:rgb(65.490198%,48.235294%,23.137255%);fill-opacity:1;stroke-width:2.5;stroke-linecap:butt;stroke-linejoin:miter;stroke:rgb(0%,0%,0%);stroke-opacity:1;stroke-miterlimit:4;" d="M 177.197018 696.297339 C 177.197555 720.707162 167.599806 740.593779 155.896163 740.598347 C 144.202986 740.598554 134.599352 720.704004 134.598815 696.294181 C 134.602841 671.895311 144.298009 652.006667 156.001652 652.002099 C 167.694829 652.001892 177.297916 671.806691 177.299 696.306265 Z M 177.197018 696.297339 " transform="matrix(0.318025,0.126615,-0.13251,0.30389,180.550003,-82.599998)"/>
<path style=" stroke:none;fill-rule:evenodd;fill:rgb(100%,0%,0%);fill-opacity:1;" d="M 124.050781 87.800781 L 197.300781 87.800781 L 197.300781 122.800781 L 124.050781 122.800781 Z M 124.050781 87.800781 "/>
<path style=" stroke:none;fill-rule:evenodd;fill:rgb(33.725491%,30.19608%,100%);fill-opacity:1;" d="M 124.050781 122.800781 L 197.300781 122.800781 L 197.300781 140.300781 C 197.300781 151.949219 179 151.949219 160.699219 163.601562 C 142.351562 152 124 152 124 140.300781 Z M 124.050781 122.800781 "/>
<path style="fill:none;stroke-width:2;stroke-linecap:butt;stroke-linejoin:miter;stroke:rgb(100%,100%,0%);stroke-opacity:1;stroke-miterlimit:4;" d="M 336.597933 485.399469 L 549.198155 485.399469 L 549.198155 645.000247 C 549.198155 680.394576 496.101955 680.394576 442.903713 715.895694 C 389.796175 680.394576 336.597933 680.394576 336.597933 644.905324 Z M 336.597933 485.399469 " transform="matrix(0.344525,0,0,0.329215,8.1,-72)"/>
<path style="fill-rule:evenodd;fill:rgb(100%,100%,0%);fill-opacity:1;stroke-width:2.5;stroke-linecap:butt;stroke-linejoin:miter;stroke:rgb(0%,0%,0%);stroke-opacity:1;stroke-miterlimit:4;" d="M 385.603899 129.889075 C 385.603899 129.889075 335.004219 185.405659 335.004219 238.496392 C 335.004219 291.612395 388.098249 309.40196 388.098249 309.40196 C 388.098249 309.40196 370.39484 309.40196 370.39484 380.206451 C 370.39484 415.709774 423.505067 397.996016 423.505067 415.709774 C 423.505067 433.398262 422.792396 476.204403 423.505067 504.30383 C 423.505067 521.992318 388.098249 504.30383 388.098249 521.992318 C 388.098249 530.811293 414.693855 575.108321 441.305659 575.108321 C 467.901265 575.108321 494.399689 530.811293 494.399689 521.992318 C 494.399689 504.30383 458.992871 521.992318 458.992871 504.30383 L 458.992871 415.709774 C 458.992871 397.996016 512.103098 415.709774 512.103098 380.206451 C 512.103098 309.40196 494.399689 309.40196 494.399689 309.40196 C 494.399689 309.40196 547.607099 291.688203 547.607099 238.496392 C 547.607099 185.304582 496.89404 129.889075 496.89404 129.889075 C 496.89404 129.889075 525.400901 203.094147 525.400901 238.496392 C 525.400901 256.21015 512.103098 291.688203 476.69628 291.688203 C 476.69628 291.688203 467.7069 273.898638 458.992871 291.688203 C 458.992871 291.688203 448.804907 273.898638 441.305659 291.688203 C 438.697929 297.702289 434.097958 273.898638 423.505067 291.688203 C 419.099461 296.388287 415.503709 273.898638 405.801658 291.688203 C 388.098249 291.688203 352.707628 273.898638 352.707628 238.496392 C 352.707628 203.094147 385.603899 129.889075 385.603899 129.889075 Z M 385.603899 129.889075 " transform="matrix(0.24117,0,0,0.154585,54.25,70.050003)"/>
<path style="fill-rule:evenodd;fill:rgb(100%,100%,0%);fill-opacity:1;stroke-width:2.5;stroke-linecap:butt;stroke-linejoin:miter;stroke:rgb(0%,0%,0%);stroke-opacity:1;stroke-miterlimit:4;" d="M 382.701378 247.997637 C 379.105627 251.611143 387.301349 309.300883 389.698517 311.802541 C 393.294269 315.2897 414.59343 315.2897 418.092 311.802541 C 420.602547 309.300883 418.092 255.098302 414.59343 251.611143 C 410.997678 247.997637 385.195729 245.597057 382.604196 247.997637 Z M 382.701378 247.997637 " transform="matrix(0.24117,0,0,0.154585,55.200001,100.800003)"/>
<path style="fill-rule:evenodd;fill:rgb(100%,100%,0%);fill-opacity:1;stroke-width:2.5;stroke-linecap:butt;stroke-linejoin:miter;stroke:rgb(0%,0%,0%);stroke-opacity:1;stroke-miterlimit:4;" d="M 382.707911 247.997637 C 379.095962 251.611143 387.307882 309.300883 389.70505 311.802541 C 393.300802 315.2897 414.599963 315.2897 418.098532 311.802541 C 420.592883 309.300883 418.098532 255.098302 414.599963 251.611143 C 411.004211 247.997637 385.202262 245.597057 382.594532 247.997637 Z M 382.707911 247.997637 " transform="matrix(-0.24117,0,0,0.154585,266.200012,100.800003)"/>
<path style="fill-rule:evenodd;fill:rgb(100%,100%,0%);fill-opacity:1;stroke-width:2.5;stroke-linecap:butt;stroke-linejoin:miter;stroke:rgb(0%,0%,0%);stroke-opacity:1;stroke-miterlimit:4;" d="M 414.600793 228.49263 C 414.600793 237.330391 407.442153 244.506005 398.606588 244.506005 C 389.756931 244.506005 382.598291 237.330391 382.598291 228.49263 C 382.598291 219.654868 389.756931 212.499524 398.606588 212.499524 C 407.442153 212.499524 414.600793 219.654868 414.600793 228.49263 Z M 414.600793 228.49263 " transform="matrix(0.2772,0,0,0.19271,41.349998,91.849998)"/>
<path style="fill-rule:evenodd;fill:rgb(100%,100%,0%);fill-opacity:1;stroke-width:2.5;stroke-linecap:butt;stroke-linejoin:miter;stroke:rgb(0%,0%,0%);stroke-opacity:1;stroke-miterlimit:4;" d="M 414.601798 228.506963 C 414.601798 237.344495 407.443287 244.499652 398.593789 244.499652 C 389.758383 244.499652 382.599872 237.344495 382.599872 228.506963 C 382.599872 219.669431 389.758383 212.494004 398.593789 212.494004 C 407.443287 212.494004 414.601798 219.669431 414.601798 228.506963 Z M 414.601798 228.506963 " transform="matrix(0.277205,0,0,0.192715,59,91.849998)"/>
<path style=" stroke:none;fill-rule:evenodd;fill:rgb(0%,0%,0%);fill-opacity:1;" d="M 168.398438 153.75 C 168.398438 154.5 167.398438 155.101562 166.25 155.101562 C 165.050781 155.101562 164.101562 154.5 164.101562 153.75 C 164.101562 153 165.101562 152.398438 166.25 152.398438 C 167.398438 152.398438 168.398438 153 168.398438 153.75 M 157.25 153.75 C 157.25 154.5 156.300781 155.101562 155.148438 155.101562 C 154 155.101562 153 154.5 153 153.75 C 153 153 153.949219 152.398438 155.148438 152.398438 C 156.300781 152.398438 157.25 153 157.25 153.75 "/>
<path style="fill-rule:evenodd;fill:rgb(100%,100%,0%);fill-opacity:1;stroke-width:1.1;stroke-linecap:butt;stroke-linejoin:miter;stroke:rgb(0%,0%,0%);stroke-opacity:1;stroke-miterlimit:4;" d="M 439.394309 549.994569 L 431.596336 539.705521 L 418.801151 541.396039 L 420.602471 528.601621 L 410.294271 520.903079 L 420.602471 513.095078 L 418.801151 500.30066 L 431.596336 502.100636 L 439.394309 491.799427 L 447.203904 502.100636 L 459.894496 500.30066 L 458.197769 513.095078 L 468.401376 520.903079 L 458.197769 528.698917 L 459.894496 541.396039 L 447.099311 539.705521 Z M 439.394309 549.994569 " transform="matrix(0.336125,0,0,0.321185,13,-66.650002)"/>
<path style="fill-rule:evenodd;fill:rgb(100%,100%,0%);fill-opacity:1;stroke-width:1.1;stroke-linecap:butt;stroke-linejoin:miter;stroke:rgb(0%,0%,0%);stroke-opacity:1;stroke-miterlimit:4;" d="M 495.999913 591.70111 L 517.304154 602.403652 L 538.597056 591.70111 L 517.304154 581.105355 Z M 495.999913 591.70111 " transform="matrix(0.344525,0,0,0.329215,8.1,-72)"/>
<path style="fill-rule:evenodd;fill:rgb(100%,100%,0%);fill-opacity:1;stroke-width:1.1;stroke-linecap:butt;stroke-linejoin:miter;stroke:rgb(0%,0%,0%);stroke-opacity:1;stroke-miterlimit:4;" d="M 495.999918 591.70111 L 517.304159 602.403652 L 538.597062 591.70111 L 517.304159 581.105355 Z M 495.999918 591.70111 " transform="matrix(0.344525,0,0,0.329215,-44.400002,-72)"/>
<path style="fill-rule:evenodd;fill:rgb(100%,100%,0%);fill-opacity:1;stroke-width:1.1;stroke-linecap:butt;stroke-linejoin:miter;stroke:rgb(0%,0%,0%);stroke-opacity:1;stroke-miterlimit:4;" d="M 534.994434 658.998584 C 531.497887 651.996324 520.895248 648.397659 513.795569 648.397904 C 506.695889 648.398149 499.596209 648.398395 492.496612 659.09868 C 492.504977 644.90068 502.999331 637.805581 513.803282 637.798121 C 525.167257 638.659589 534.186244 647.724996 535.00223 659.098841 Z M 534.994434 658.998584 " transform="matrix(0.298765,-0.16395,0.17158,0.285485,-82.599998,43.25)"/>
<path style="fill-rule:evenodd;fill:rgb(100%,100%,0%);fill-opacity:1;stroke-width:1.1;stroke-linecap:butt;stroke-linejoin:miter;stroke:rgb(0%,0%,0%);stroke-opacity:1;stroke-miterlimit:4;" d="M 386.202007 651.996051 C 386.202007 655.887885 383.038684 659.055932 379.149725 659.055932 C 375.260766 659.055932 372.097443 655.887885 372.097443 651.996051 C 372.097443 648.104217 375.260766 644.948035 379.149725 644.948035 C 383.038684 644.948035 386.202007 648.104217 386.202007 651.996051 Z M 386.202007 651.996051 " transform="matrix(0.344525,0,0,0.329215,6.85,-77.849998)"/>
<path style="fill-rule:evenodd;fill:rgb(100%,100%,0%);fill-opacity:1;stroke-width:1.1;stroke-linecap:butt;stroke-linejoin:miter;stroke:rgb(0%,0%,0%);stroke-opacity:1;stroke-miterlimit:4;" d="M 386.204274 652.003165 C 386.204274 655.894999 383.040951 659.051181 379.151992 659.051181 C 375.251695 659.051181 372.09971 655.894999 372.09971 652.003165 C 372.09971 648.111332 375.251695 644.95515 379.151992 644.95515 C 383.040951 644.95515 386.204274 648.111332 386.204274 652.003165 Z M 386.204274 652.003165 " transform="matrix(0.344525,0,0,0.329215,4.4,-69.699997)"/>
<path style="fill-rule:evenodd;fill:rgb(100%,100%,0%);fill-opacity:1;stroke-width:1.1;stroke-linecap:butt;stroke-linejoin:miter;stroke:rgb(0%,0%,0%);stroke-opacity:1;stroke-miterlimit:4;" d="M 386.195204 651.996051 C 386.195204 655.887885 383.043219 659.055932 379.15426 659.055932 C 375.253962 659.055932 372.101978 655.887885 372.101978 651.996051 C 372.101978 648.104217 375.253962 644.948035 379.15426 644.948035 C 383.043219 644.948035 386.195204 648.104217 386.195204 651.996051 Z M 386.195204 651.996051 " transform="matrix(0.344525,0,0,0.329215,3.2,-74.349998)"/>
<path style="fill-rule:evenodd;fill:rgb(100%,100%,0%);fill-opacity:1;stroke-width:1.1;stroke-linecap:butt;stroke-linejoin:miter;stroke:rgb(0%,0%,0%);stroke-opacity:1;stroke-miterlimit:4;" d="M 386.199739 652.003165 C 386.199739 655.894999 383.047754 659.051181 379.147457 659.051181 C 375.258497 659.051181 372.095175 655.894999 372.095175 652.003165 C 372.095175 648.111332 375.258497 644.95515 379.147457 644.95515 C 383.047754 644.95515 386.199739 648.111332 386.199739 652.003165 Z M 386.199739 652.003165 " transform="matrix(0.344525,0,0,0.329215,9.3,-69.699997)"/>
<path style="fill-rule:evenodd;fill:rgb(100%,100%,0%);fill-opacity:1;stroke-width:1.1;stroke-linecap:butt;stroke-linejoin:miter;stroke:rgb(0%,0%,0%);stroke-opacity:1;stroke-miterlimit:4;" d="M 386.197472 651.996051 C 386.197472 655.887885 383.045487 659.055932 379.14519 659.055932 C 375.25623 659.055932 372.104246 655.887885 372.104246 651.996051 C 372.104246 648.104217 375.25623 644.948035 379.14519 644.948035 C 383.045487 644.948035 386.197472 648.104217 386.197472 651.996051 Z M 386.197472 651.996051 " transform="matrix(0.344525,0,0,0.329215,10.5,-74.349998)"/>
<path style="fill-rule:evenodd;fill:rgb(100%,100%,0%);fill-opacity:1;stroke-width:1.1;stroke-linecap:butt;stroke-linejoin:miter;stroke:rgb(0%,0%,0%);stroke-opacity:1;stroke-miterlimit:4;" d="M 386.202007 652.003165 C 386.202007 655.894999 383.038684 659.051181 379.149725 659.051181 C 375.260766 659.051181 372.097443 655.894999 372.097443 652.003165 C 372.097443 648.111332 375.260766 644.95515 379.149725 644.95515 C 383.038684 644.95515 386.202007 648.111332 386.202007 652.003165 Z M 386.202007 652.003165 " transform="matrix(0.344525,0,0,0.329215,6.85,-73.199997)"/>
<path style=" stroke:none;fill-rule:evenodd;fill:rgb(85.490197%,27.058825%,0%);fill-opacity:1;" d="M 148.898438 60.199219 C 142.699219 60.199219 141.898438 61.199219 139.101562 62.148438 C 139.101562 59.449219 146 56.300781 152.101562 56.300781 C 152.101562 58.25 150.5 60.199219 148.898438 60.199219 "/>
<path style=" stroke:none;fill-rule:evenodd;fill:rgb(79.215688%,78.823531%,78.039217%);fill-opacity:1;" d="M 158.25 54 C 158.25 55.25 157.148438 56.300781 155.800781 56.300781 C 154.449219 56.300781 153.351562 55.25 153.351562 53.949219 C 153.351562 52.648438 154.449219 51.648438 155.800781 51.648438 C 157.148438 51.648438 158.25 52.648438 158.25 53.949219 Z M 158.25 54 "/>
<path style="fill-rule:evenodd;fill:rgb(100%,100%,0%);fill-opacity:1;stroke-width:1.1;stroke-linecap:butt;stroke-linejoin:miter;stroke:rgb(0%,0%,0%);stroke-opacity:1;stroke-miterlimit:4;" d="M 361.405638 357.894453 L 361.405638 368.502073 L 379.104371 368.502073 L 379.104371 421.599499 L 389.796175 421.599499 L 389.796175 368.502073 L 407.494908 368.502073 L 407.494908 357.894453 L 389.796175 357.894453 L 389.796175 343.703498 L 379.002329 343.703498 L 379.002329 357.894453 Z M 361.405638 357.894453 " transform="matrix(0.344525,0,0,0.329215,8.1,-72)"/>
<path style=" stroke:none;fill-rule:evenodd;fill:rgb(85.490197%,27.058825%,0%);fill-opacity:1;" d="M 152.148438 56.300781 C 147.1875 56.023438 142.21875 56.683594 137.5 58.25 C 137.5 54.648438 141.699219 50.449219 148.898438 50.449219 C 150.5 50.449219 152.148438 54.351562 152.148438 56.300781 "/>
<path style="fill-rule:evenodd;fill:rgb(0%,52.156866%,0%);fill-opacity:1;stroke-width:0.7;stroke-linecap:butt;stroke-linejoin:miter;stroke:rgb(0%,0%,0%);stroke-opacity:1;stroke-miterlimit:4;" d="M 67.301776 613.013628 C 53.09598 598.80765 50.699142 591.58521 70.901343 602.902601 L 354.604155 850.40905 L 351.202857 857.403076 L 67.395662 612.995046 Z M 67.301776 613.013628 " transform="matrix(0.194105,0.148265,-0.070365,0.11846,118.699997,35.650002)"/>
<path style=" stroke:none;fill-rule:evenodd;fill:rgb(0%,56.078434%,0%);fill-opacity:1;" d="M 114.199219 165.199219 C 114.601562 159.898438 104.898438 154.199219 104.5 154.550781 C 104.148438 154.949219 105.101562 158.050781 106.949219 159.601562 C 103.449219 157.800781 99.75 156.699219 99.648438 157.449219 C 99.351562 158.550781 105.148438 161.050781 105.648438 162.050781 C 105.648438 162.75 101.351562 162.648438 101.449219 163.351562 C 101.550781 164.050781 113.601562 170.148438 114.199219 165.199219 M 104.5 149.800781 C 104.898438 144.5 95.199219 138.800781 94.851562 139.148438 C 94.449219 139.5 95.398438 142.601562 97.25 144.199219 C 93.75 142.398438 90.050781 141.25 89.949219 142.050781 C 89.699219 143.101562 95.449219 145.648438 95.949219 146.648438 C 96 147.351562 91.699219 147.25 91.75 147.949219 C 91.851562 148.648438 103.898438 154.699219 104.5 149.800781 M 97.101562 135.800781 C 97.5 130.5 87.800781 124.800781 87.398438 125.148438 C 87 125.5 88 128.601562 89.851562 130.199219 C 86.351562 128.398438 82.648438 127.25 82.550781 128.050781 C 82.300781 129.101562 88.050781 131.648438 88.550781 132.648438 C 88.550781 133.351562 84.300781 133.25 84.351562 133.949219 C 84.449219 134.648438 96.5 140.75 97.101562 135.800781 M 89.800781 120.601562 C 90.148438 115.351562 80.5 109.601562 80.101562 109.949219 C 79.699219 110.351562 80.699219 113.449219 82.5 115.050781 C 79 113.199219 75.300781 112.101562 75.25 112.898438 C 74.949219 113.949219 80.75 116.5 81.199219 117.449219 C 81.25 118.148438 76.949219 118.101562 77.050781 118.800781 C 77.148438 119.5 89.148438 125.550781 89.800781 120.601562 "/>
<path style=" stroke:none;fill-rule:evenodd;fill:rgb(0%,56.078434%,0%);fill-opacity:1;" d="M 92.300781 119.949219 C 97 117.101562 96.050781 106.25 95.550781 106.148438 C 95 106.101562 92.949219 108.648438 92.699219 111.050781 C 92.148438 107.25 90.898438 103.75 90.199219 104.148438 C 89.148438 104.550781 90.398438 110.5 89.851562 111.449219 C 89.351562 111.949219 86.851562 108.550781 86.351562 109.050781 C 85.75 109.550781 87.75 122.398438 92.351562 119.949219 Z M 99.101562 133.25 C 104.5 132.050781 107.449219 121.550781 106.949219 121.300781 C 106.449219 121.050781 103.648438 122.800781 102.601562 125 C 103.398438 121.25 103.449219 117.550781 102.601562 117.699219 C 101.449219 117.75 100.601562 123.75 99.75 124.449219 C 99.101562 124.75 97.898438 120.800781 97.25 121.050781 C 96.550781 121.351562 93.949219 134.101562 99.101562 133.25 M 107.199219 146.851562 C 112.148438 144.449219 112.199219 133.550781 111.699219 133.449219 C 111.199219 133.300781 108.949219 135.699219 108.449219 138.050781 C 108.25 134.199219 107.351562 130.648438 106.601562 131 C 105.5 131.300781 106.199219 137.300781 105.601562 138.199219 C 105 138.648438 102.851562 135.050781 102.25 135.5 C 101.648438 135.949219 102.449219 148.898438 107.25 146.851562 Z M 116 164.648438 C 121.148438 162.699219 122.398438 151.898438 121.898438 151.699219 C 121.398438 151.5 118.898438 153.699219 118.148438 156 C 118.351562 152.148438 117.851562 148.5 117.050781 148.800781 C 115.898438 149 116 155.050781 115.300781 155.898438 C 114.648438 156.25 112.898438 152.5 112.300781 152.898438 C 111.648438 153.199219 111.050781 166.25 116 164.648438 "/>
<path style="fill-rule:evenodd;fill:rgb(100%,9.803922%,0%);fill-opacity:1;stroke-width:1.1;stroke-linecap:butt;stroke-linejoin:miter;stroke:rgb(0%,0%,0%);stroke-opacity:1;stroke-miterlimit:4;" d="M 209.004831 775.999295 C 208.998636 783.803024 198.805854 790.200358 186.002441 790.200596 C 173.199028 790.200833 163.002408 783.79917 162.998704 776.000968 C 163.0049 768.197239 173.300015 761.797129 186.001095 761.799667 C 198.702175 761.802205 209.001127 768.201093 209.004831 775.999295 Z M 209.004831 775.999295 " transform="matrix(0.30082,0.160485,-0.16795,0.28745,194.800003,-73.400002)"/>
<path style="fill-rule:evenodd;fill:rgb(100%,100%,0%);fill-opacity:1;stroke-width:0.5;stroke-linecap:butt;stroke-linejoin:miter;stroke:rgb(0%,0%,0%);stroke-opacity:1;stroke-miterlimit:4;" d="M 155.997835 414.605716 L 155.994885 407.495385 L 162.996349 407.498849 L 162.998807 400.403292 L 170.00027 400.406756 L 170.007239 407.399712 L 177.197822 407.406442 L 177.199895 414.599948 L 169.995354 414.59787 L 170.006309 432.29791 L 163.004845 432.294447 L 162.993891 414.594406 Z M 162.996382 474.799389 L 169.997845 474.802853 L 169.998981 680.301225 L 162.997518 680.297761 Z M 162.996382 474.799389 " transform="matrix(0.249435,0.07855,-0.0913,0.23565,225.699997,-1.85)"/>
<path style="fill-rule:evenodd;fill:rgb(100%,100%,0%);fill-opacity:1;stroke-width:0.5;stroke-linecap:butt;stroke-linejoin:miter;stroke:rgb(0%,0%,0%);stroke-opacity:1;stroke-miterlimit:4;" d="M 159.401445 676.805305 L 173.602042 676.796073 L 173.608028 733.502251 L 159.402023 733.49671 Z M 156.006332 439.401314 L 177.302952 439.397178 C 191.400439 439.405739 173.693009 478.39489 173.693009 478.39489 L 159.600929 478.401104 C 159.600929 478.401104 141.800327 439.395773 156.006332 439.401314 Z M 173.604567 433.999377 C 173.606332 436.999133 170.504566 439.392327 166.593404 439.403082 C 162.6962 439.409184 159.494887 436.995225 159.497653 434.093417 C 159.500419 431.191609 162.597654 428.700467 166.494858 428.694365 C 170.39747 428.703037 173.593375 431.102222 173.59514 434.101978 Z M 173.604567 433.999377 " transform="matrix(0.249435,0.07855,-0.0913,0.23565,225.699997,-1.85)"/>
<path style="fill-rule:evenodd;fill:rgb(100%,9.803922%,0%);fill-opacity:1;stroke-width:1.1;stroke-linecap:butt;stroke-linejoin:miter;stroke:rgb(0%,0%,0%);stroke-opacity:1;stroke-miterlimit:4;" d="M 209.006248 775.997272 C 209.001384 783.807262 198.79785 790.199558 185.998019 790.204322 C 173.204739 790.199194 163.002164 783.797813 163.000476 775.997716 C 162.998789 768.197619 173.301251 761.799684 186.002155 761.800559 C 198.703058 761.801434 209.004561 768.197175 209.006248 775.997272 Z M 209.006248 775.997272 " transform="matrix(0.287245,-0.181785,0.19024,0.274475,-1.15,2.1)"/>
</g>
</svg>
