<?xml version="1.0" encoding="UTF-8"?>
<svg xmlns="http://www.w3.org/2000/svg" xmlns:xlink="http://www.w3.org/1999/xlink" width="px" height="px" viewBox="0 0 320 240" version="1.1">
<g id="surface1">
<path style=" stroke:none;fill-rule:evenodd;fill:rgb(23.137255%,35.294119%,63.921571%);fill-opacity:1;" d="M 0 0 L 319.949219 0 L 319.949219 240 L 0 240 Z M 0 0 "/>
<path style=" stroke:none;fill-rule:evenodd;fill:rgb(88.627452%,68.235296%,34.117648%);fill-opacity:1;" d="M 0 233.5 L 319.949219 0 L 319.949219 43.5 L 0 240 Z M 0 233.5 "/>
<path style=" stroke:none;fill-rule:evenodd;fill:rgb(100%,100%,100%);fill-opacity:1;" d="M 11.199219 240 L 320 89.601562 L 319.949219 41.851562 L 0 240 Z M 87.699219 7.601562 L 84.5 59 L 71 26.199219 L 76.199219 61.101562 L 55.25 32.898438 L 69 65.050781 L 41.5 43.75 L 62.898438 70.550781 L 31.851562 56.75 L 59.050781 77.351562 L 25.199219 72.851562 L 57.199219 85.550781 L 7 90.148438 L 57.300781 93.5 L 25.449219 106.601562 L 58.949219 102.101562 L 31.800781 122.101562 L 63.300781 108.300781 L 41.800781 135.300781 L 69.101562 114.648438 L 55.601562 146.101562 L 77.398438 118.75 L 71.5 152.800781 L 85.25 120.949219 L 88.351562 171.300781 L 93.199219 121.101562 L 105.050781 153.101562 L 100.550781 118.601562 L 122.25 146 L 107.949219 114 L 135.25 136 L 113.550781 108.550781 L 146 122.050781 L 117.300781 101.101562 L 152.25 107 L 118.75 94.148438 L 170.800781 90.898438 L 118.800781 86.050781 L 153.050781 74.648438 L 117.550781 79.148438 L 146.851562 58.648438 L 113.851562 71.898438 L 136.648438 44.25 L 108.851562 65.949219 L 122.199219 32.75 L 100.648438 60.949219 L 105.300781 25.75 L 92.449219 59 L 87.648438 7.601562 Z M 87.699219 7.601562 "/>
</g>
</svg>
