<?xml version="1.0" encoding="UTF-8"?>
<svg xmlns="http://www.w3.org/2000/svg" xmlns:xlink="http://www.w3.org/1999/xlink" width="px" height="px" viewBox="0 0 320 240" version="1.1">
<g id="surface1">
<rect x="0" y="0" width="320" height="240" style="fill:rgb(0%,47.058824%,36.862746%);fill-opacity:1;stroke:none;"/>
<path style=" stroke:none;fill-rule:nonzero;fill:rgb(98.431373%,81.960785%,8.627451%);fill-opacity:1;" d="M 147.5 54.351562 L 167.75 69.101562 L 160 45.25 L 152.25 69.101562 L 172.550781 54.351562 Z M 147.5 54.351562 "/>
<path style=" stroke:none;fill-rule:nonzero;fill:rgb(100%,100%,100%);fill-opacity:1;" d="M 160 165.800781 L 108.75 165.800781 L 106.851562 163.800781 L 160 163.800781 C 160.433594 163.9375 160.722656 164.347656 160.699219 164.800781 C 160.699219 165.265625 160.464844 165.601562 160 165.800781 M 160 150.148438 C 160.578125 148.972656 160.789062 147.648438 160.601562 146.351562 C 160.507812 145.6875 160.304688 145.046875 160 144.449219 C 155.394531 148.835938 149.832031 152.085938 143.75 153.949219 C 139.941406 155.109375 135.980469 155.699219 132 155.699219 L 100.449219 155.699219 L 103.351562 159.699219 L 133.851562 159.699219 C 143.851562 159.699219 152.949219 156.101562 160 150.148438 M 105.199219 137.800781 C 103.644531 138.382812 102.007812 138.71875 100.351562 138.800781 C 108.035156 147.539062 119.113281 152.546875 130.75 152.550781 C 141.796875 152.546875 152.363281 148.03125 160 140.050781 C 161.40625 130.3125 162.15625 120.488281 162.25 110.648438 C 162.371094 99.324219 161.617188 88.007812 160 76.800781 C 156.699219 79.800781 150.5 86.148438 147.601562 95.949219 C 146.511719 99.703125 145.972656 103.59375 146 107.5 C 146.007812 115.511719 148.390625 123.34375 152.851562 130 C 147.355469 122.917969 144.367188 114.214844 144.351562 105.25 C 144.382812 98.984375 145.683594 93.199219 148.25 87.898438 C 146.515625 86.050781 145.234375 83.824219 144.5 81.398438 C 141.050781 87.5 139.238281 94.390625 139.25 101.398438 C 139.25 110.398438 142.199219 118.75 147.199219 125.449219 C 137.683594 115.449219 124.289062 110.085938 110.5 110.75 C 111.878906 112.027344 113.027344 113.535156 113.898438 115.199219 C 126.859375 115.214844 139.25 120.527344 148.199219 129.898438 C 139.652344 122.734375 128.855469 118.804688 117.699219 118.800781 C 111.402344 118.789062 105.164062 120.027344 99.351562 122.449219 C 105.730469 139.410156 122.59375 150.066406 140.648438 148.550781 C 138.316406 148.984375 135.917969 149.199219 133.449219 149.199219 C 122.925781 149.207031 112.8125 145.121094 105.25 137.800781 Z M 160 182.199219 L 133.449219 182.199219 C 141.902344 185.542969 150.910156 187.257812 160 187.25 C 160.410156 186.480469 160.636719 185.625 160.648438 184.75 C 160.644531 183.859375 160.417969 182.984375 160 182.199219 M 160 169.949219 L 113.199219 169.949219 L 117.101562 173.050781 L 160 173.050781 C 160.390625 172.625 160.617188 172.078125 160.648438 171.5 C 160.671875 170.914062 160.433594 170.347656 160 169.949219 M 160 176.199219 L 121.648438 176.199219 C 123.972656 177.667969 126.375 179.003906 128.851562 180.199219 L 160 180.199219 C 160.390625 179.570312 160.597656 178.84375 160.601562 178.101562 C 160.5625 177.425781 160.355469 176.773438 160 176.199219 "/>
<path style=" stroke:none;fill-rule:nonzero;fill:rgb(98.431373%,81.960785%,8.627451%);fill-opacity:1;" d="M 100.25 87.398438 L 112.949219 99.199219 L 109.601562 82.199219 L 102.300781 97.898438 L 117.449219 89.5 Z M 118.699219 71.398438 L 136.050781 71.699219 L 122.199219 61.199219 L 127.25 77.851562 L 132.898438 61.398438 Z M 118.699219 71.398438 "/>
<path style=" stroke:none;fill-rule:nonzero;fill:rgb(100%,100%,100%);fill-opacity:1;" d="M 160 165.800781 L 211.25 165.800781 L 213.148438 163.800781 L 160 163.800781 C 159.566406 163.9375 159.277344 164.347656 159.300781 164.800781 C 159.300781 165.265625 159.535156 165.601562 160 165.800781 M 160 150.148438 C 159.421875 148.972656 159.210938 147.648438 159.398438 146.351562 C 159.492188 145.6875 159.695312 145.046875 160 144.449219 C 164.605469 148.835938 170.167969 152.085938 176.25 153.949219 C 180.058594 155.109375 184.019531 155.699219 188 155.699219 L 219.550781 155.699219 L 216.648438 159.699219 L 186.148438 159.699219 C 176.148438 159.699219 167.050781 156.101562 160 150.148438 M 214.800781 137.800781 C 216.355469 138.382812 217.992188 138.71875 219.648438 138.800781 C 211.964844 147.539062 200.886719 152.546875 189.25 152.550781 C 178.203125 152.546875 167.636719 148.03125 160 140.050781 C 158.59375 130.3125 157.84375 120.488281 157.75 110.648438 C 157.628906 99.324219 158.382812 88.007812 160 76.800781 C 163.300781 79.800781 169.5 86.148438 172.398438 95.949219 C 173.488281 99.703125 174.027344 103.59375 174 107.5 C 173.992188 115.511719 171.609375 123.34375 167.148438 130 C 172.644531 122.917969 175.632812 114.214844 175.648438 105.25 C 175.617188 98.984375 174.316406 93.199219 171.75 87.898438 C 173.484375 86.050781 174.765625 83.824219 175.5 81.398438 C 178.949219 87.5 180.761719 94.390625 180.75 101.398438 C 180.75 110.398438 177.800781 118.75 172.800781 125.449219 C 182.316406 115.449219 195.710938 110.085938 209.5 110.75 C 208.121094 112.027344 206.972656 113.535156 206.101562 115.199219 C 193.140625 115.214844 180.75 120.527344 171.800781 129.898438 C 180.347656 122.734375 191.144531 118.804688 202.300781 118.800781 C 208.597656 118.789062 214.835938 120.027344 220.648438 122.449219 C 214.269531 139.410156 197.40625 150.066406 179.351562 148.550781 C 181.683594 148.984375 184.082031 149.199219 186.550781 149.199219 C 197.074219 149.207031 207.1875 145.121094 214.75 137.800781 Z M 160 182.199219 L 186.550781 182.199219 C 178.097656 185.542969 169.089844 187.257812 160 187.25 C 159.589844 186.480469 159.363281 185.625 159.351562 184.75 C 159.355469 183.859375 159.582031 182.984375 160 182.199219 M 160 169.949219 L 206.800781 169.949219 L 202.898438 173.050781 L 160 173.050781 C 159.609375 172.625 159.382812 172.078125 159.351562 171.5 C 159.328125 170.914062 159.566406 170.347656 160 169.949219 M 160 176.199219 L 198.351562 176.199219 C 196.027344 177.667969 193.625 179.003906 191.148438 180.199219 L 160 180.199219 C 159.609375 179.570312 159.402344 178.84375 159.398438 178.101562 C 159.4375 177.425781 159.644531 176.773438 160 176.199219 "/>
<path style=" stroke:none;fill-rule:nonzero;fill:rgb(98.431373%,81.960785%,8.627451%);fill-opacity:1;" d="M 219.75 87.398438 L 207.050781 99.199219 L 210.398438 82.199219 L 217.699219 97.898438 L 202.550781 89.5 Z M 201.300781 71.398438 L 183.949219 71.699219 L 197.800781 61.199219 L 192.75 77.851562 L 187.101562 61.398438 Z M 201.300781 71.398438 "/>
</g>
</svg>
