<?xml version="1.0" encoding="UTF-8"?>
<svg xmlns="http://www.w3.org/2000/svg" xmlns:xlink="http://www.w3.org/1999/xlink" width="px" height="px" viewBox="0 0 320 240" version="1.1">
<g id="surface1">
<rect x="0" y="0" width="320" height="240" style="fill:rgb(0.392157%,12.941177%,41.176471%);fill-opacity:1;stroke:none;"/>
<path style=" stroke:none;fill-rule:nonzero;fill:rgb(100%,100%,100%);fill-opacity:1;" d="M 192.449219 55.5 L 295.199219 55.5 L 295.050781 128.648438 C 295.898438 158 277.601562 176.25 243.898438 184.5 C 219.949219 178.5 192.398438 166.25 192.300781 129.5 Z M 192.449219 55.5 "/>
<path style="fill-rule:nonzero;fill:rgb(0%,63.529414%,74.117649%);fill-opacity:1;stroke-width:1.8;stroke-linecap:butt;stroke-linejoin:miter;stroke:rgb(0%,0%,0%);stroke-opacity:1;stroke-miterlimit:4;" d="M 389.398438 115.398438 L 585.796875 115.398438 L 585.601562 255.601562 C 587.203125 311.898438 552.203125 346.796875 487.796875 362.601562 C 442 351.203125 389.296875 327.601562 389.203125 257.203125 Z M 389.398438 115.398438 " transform="matrix(0.5,0,0,0.5,0,0)"/>
<path style=" stroke:none;fill-rule:nonzero;fill:rgb(64.705884%,23.921569%,3.137255%);fill-opacity:1;" d="M 292.148438 136.101562 C 288.550781 162.949219 267.851562 174.699219 243.898438 180.949219 C 222.648438 175.25 199.800781 166.148438 195.398438 136.199219 Z M 292.148438 136.101562 "/>
<path style=" stroke:none;fill-rule:nonzero;fill:rgb(0%,0%,0%);fill-opacity:1;" d="M 240 70.75 L 239.851562 61.949219 L 246.851562 62 L 246.898438 70.75 L 266 70.75 L 266.050781 77.601562 L 246.898438 77.699219 L 246.75 158.398438 L 239.949219 158.449219 L 239.851562 77.601562 L 220.851562 77.699219 L 220.851562 70.699219 Z M 240 70.75 "/>
<path style="fill-rule:evenodd;fill:rgb(100%,60.392159%,3.137255%);fill-opacity:1;stroke-width:0.8;stroke-linecap:butt;stroke-linejoin:miter;stroke:rgb(0%,0%,0%);stroke-opacity:1;stroke-miterlimit:4;" d="M 449 278.796875 L 484 315.101562 C 496.101562 301.796875 487.703125 252.101562 471.796875 243 C 469.898438 248.898438 466.703125 256 463.203125 258.203125 C 455.703125 263.398438 437.101562 269.398438 443.296875 273.203125 C 444.703125 271.296875 448.398438 269.5 450.203125 273.796875 C 452.203125 280.703125 442.398438 281.101562 442.398438 281.101562 C 442.398438 281.101562 436.203125 280.296875 435.101562 274.101562 C 434.101562 267.703125 444.398438 261.898438 445.296875 261.5 C 446.101562 261.203125 459.601562 257.5 461.898438 245.601562 C 464.796875 233.796875 467.703125 235.601562 468.203125 235.398438 C 485.898438 237.101562 497.398438 268.703125 498.101562 290.898438 C 498.796875 313.101562 489.101562 327.898438 487.296875 328.898438 C 485.601562 329.796875 445.296875 281 445.296875 281 Z M 449 278.796875 " transform="matrix(0.5,0,0,0.5,0,0)"/>
<path style="fill-rule:nonzero;fill:rgb(100%,60.392159%,3.137255%);fill-opacity:1;stroke-width:0.8;stroke-linecap:butt;stroke-linejoin:miter;stroke:rgb(0%,0%,0%);stroke-opacity:1;stroke-miterlimit:4;" d="M 474.601562 245 L 474.796875 310.5 M 470.601562 246.296875 L 470.898438 305.703125 M 466.398438 254.898438 L 466.601562 302.101562 M 462.898438 258.203125 L 463.101562 297.296875 M 459.203125 260 L 459.203125 293 M 455.203125 262.601562 L 455.203125 288.703125 M 451.703125 264.703125 L 451.703125 284.703125 " transform="matrix(0.5,0,0,0.5,0,0)"/>
<path style="fill:none;stroke-width:0.8;stroke-linecap:round;stroke-linejoin:miter;stroke:rgb(100%,87.450981%,0%);stroke-opacity:1;stroke-miterlimit:4;" d="M 448.5 283 L 484.5 324.203125 " transform="matrix(0.5,0,0,0.5,0,0)"/>
<path style="fill:none;stroke-width:1.4;stroke-linecap:round;stroke-linejoin:miter;stroke:rgb(100%,87.450981%,0%);stroke-opacity:1;stroke-miterlimit:4;" d="M 486.296875 257 C 486.296875 257 502.703125 292.703125 487.5 322 M 444.296875 275.398438 C 444.296875 275.398438 445.5 272.296875 447 273.601562 M 441.5 266.296875 C 441.5 266.296875 434.898438 272 438.5 275.796875 " transform="matrix(0.5,0,0,0.5,0,0)"/>
<path style="fill-rule:nonzero;fill:rgb(0%,50.196081%,12.941177%);fill-opacity:1;stroke-width:0.3;stroke-linecap:butt;stroke-linejoin:miter;stroke:rgb(0%,0%,0%);stroke-opacity:1;stroke-miterlimit:4;" d="M 494 175.398438 C 496.296875 173.398438 497.601562 172.101562 499.101562 172.398438 C 500.601562 172.703125 502.601562 172.398438 504.101562 172 C 508.039062 171.085938 512.109375 170.953125 516.101562 171.601562 C 517.101562 171.796875 518.601562 172.296875 520.703125 174.101562 C 522.796875 175.898438 525.898438 179.101562 524.898438 187.703125 C 523.898438 196.296875 524.203125 200 523.703125 204.898438 C 522.898438 213.398438 521 220.398438 517.703125 219.898438 C 522.203125 227.898438 522.703125 234.898438 525.703125 240.398438 C 528.703125 245.898438 530.5 257.203125 529.398438 269.398438 C 528.203125 281.703125 525 309.101562 534.703125 327.601562 C 533.101562 328.703125 529.203125 327.601562 525.703125 323.898438 C 522.203125 320.203125 520.703125 320.296875 517.898438 322.5 C 509.101562 329.203125 500.898438 337.296875 488.796875 329.203125 C 486 327.398438 485.203125 325.203125 487.203125 319.5 C 492.203125 305.5 494.703125 286.101562 493.898438 277.101562 Z M 494 175.398438 " transform="matrix(0.5,0,0,0.5,0,0)"/>
<path style="fill-rule:nonzero;fill:rgb(100%,88.235295%,81.176472%);fill-opacity:1;stroke-width:0.3;stroke-linecap:butt;stroke-linejoin:miter;stroke:rgb(0%,0%,0%);stroke-opacity:1;stroke-miterlimit:4;" d="M 502.296875 166.796875 C 503.0625 169.007812 503.023438 171.414062 502.203125 173.601562 C 500.96875 176.3125 501.15625 179.453125 502.703125 182 C 505.398438 178 509.296875 178.796875 511.703125 176.601562 C 513.898438 174.296875 514.398438 172.101562 516.101562 171.601562 C 514.398438 170.101562 511.796875 168.398438 512.296875 164.101562 C 512.898438 159.703125 519 156.101562 513.5 149.5 C 511.828125 147.351562 509.179688 146.203125 506.476562 146.445312 C 503.765625 146.6875 501.359375 148.289062 500.101562 150.703125 C 499.796875 151.5 500.296875 153.101562 499.398438 154.101562 C 498.828125 154.890625 498.117188 155.570312 497.296875 156.101562 C 496.632812 156.5 496.570312 157.03125 497.101562 157.703125 C 497.296875 157.96875 497.632812 158.101562 498.101562 158.101562 L 497.296875 159.601562 C 497.03125 159.867188 497.101562 160.203125 497.5 160.601562 C 497 161.898438 497.898438 162.101562 497.296875 163.101562 C 496.703125 164.101562 496.101562 165.101562 497.898438 166.101562 C 498.5 166.398438 500.898438 166.898438 502.296875 166.796875 Z M 479.796875 189.796875 C 476.601562 190.601562 471.398438 189.203125 467.5 189.601562 C 465.703125 189.796875 464.296875 188.898438 464.5 187.203125 C 464.703125 185.5 465.101562 182.796875 464.703125 180.398438 C 464.75 175.234375 466.054688 170.15625 468.5 165.601562 C 470.476562 162 471.765625 158.070312 472.296875 154 C 472.296875 152.101562 472.5 150.101562 474.101562 149 C 475.296875 148.296875 475.5 147.601562 475.898438 147 C 476.898438 145.5 477.898438 145.203125 477.898438 146 C 478.03125 146.46875 477.867188 147 477.398438 147.601562 C 478.398438 146.796875 480.203125 145.796875 480.601562 145.601562 C 481 145.203125 483 143.796875 483.101562 145.203125 C 483.96875 144.796875 484.5 144.796875 484.703125 145.203125 C 484.835938 145.601562 484.734375 145.929688 484.398438 146.203125 C 485 146.203125 485.601562 147.101562 484.398438 148 C 485.101562 147.796875 485.703125 148.796875 484.601562 149.703125 C 483.601562 150.703125 482.203125 151.296875 481.898438 152.101562 C 481.601562 152.898438 478.703125 155 477.601562 155.398438 C 476.5 155.898438 476.398438 156.5 476.398438 158.101562 C 476.398438 175.898438 474.398438 174.398438 474.398438 178.796875 C 474.398438 179.796875 474.101562 180.898438 475.203125 180.601562 C 476.679688 180.0625 478.226562 179.757812 479.796875 179.703125 Z M 480.5 228 C 485.703125 225.398438 491.703125 224.398438 494.796875 223.601562 C 498.390625 222.453125 501.875 220.976562 505.203125 219.203125 C 507.703125 217.898438 509.703125 216.203125 511.101562 215.703125 C 512.71875 215.132812 514.070312 213.992188 514.898438 212.5 C 518.851562 205.867188 521.210938 198.398438 521.796875 190.703125 C 521.796875 186.703125 520.796875 182.101562 516.796875 185.296875 C 512.734375 188.828125 509.695312 193.390625 508 198.5 C 506.398438 204.898438 505 206.398438 504.703125 207.601562 C 504.296875 208.898438 503.101562 208.898438 501.5 209.203125 C 496.453125 210 491.734375 212.21875 487.898438 215.601562 C 483.359375 218.960938 478.617188 222.03125 473.703125 224.796875 C 470 226.898438 469.296875 227.101562 468.5 228.796875 C 467.703125 230.46875 466.96875 231.664062 466.296875 232.398438 C 465.5 233.203125 465.234375 234.070312 465.5 235 C 465.601562 235.796875 465.296875 239.203125 465.203125 240.398438 C 465.101562 241.601562 465.5 241.796875 465.898438 241.898438 C 466.296875 241.898438 466.898438 241.703125 467.203125 240.296875 C 467 241.703125 468.898438 241.296875 469 240.203125 C 469 241.703125 471 240.796875 471 239.398438 C 471 240.398438 472.703125 239.703125 472.703125 239.398438 C 473.03125 238.070312 473.429688 236.929688 473.898438 236 C 474.5 234.601562 475.203125 232.796875 476.601562 232 C 478.101562 230.796875 477.398438 229.601562 480.5 228 Z M 517.898438 322.5 C 518.203125 323.796875 518.898438 325.203125 519.101562 326.101562 C 519.296875 327 518.898438 327.203125 518.703125 327.703125 C 517.359375 330.484375 516.414062 333.453125 515.898438 336.5 C 515.898438 337.703125 514.898438 338.898438 514.601562 339.703125 C 514.070312 340.5 514.335938 341.265625 515.398438 342 C 515.796875 342.296875 517.398438 341.796875 517.5 341 C 518.296875 341.601562 519 341.429688 519.601562 340.5 C 520.265625 340.96875 520.929688 340.734375 521.601562 339.796875 C 522.101562 340.101562 522.898438 339.5 523.203125 339 C 524 339.398438 524.796875 339 524.796875 337.398438 C 524.867188 336.929688 525.03125 336.5 525.296875 336.101562 C 525.5 335.632812 525.601562 335.070312 525.601562 334.398438 C 525.601562 333.703125 525.898438 332.398438 526.5 331.601562 C 527.101562 330.601562 528 329.101562 527.601562 327.601562 C 527.203125 326.203125 526.601562 326.296875 526.101562 324.398438 C 524.796875 323 523.101562 321.203125 521.296875 321 C 519.5 321 518.5 322.101562 517.898438 322.5 Z M 485 332.398438 C 486.703125 334 490.296875 334 492.796875 331.398438 C 491.898438 331 489.796875 330 489 329.398438 C 487.890625 330.671875 486.53125 331.695312 485 332.398438 Z M 485 332.398438 " transform="matrix(0.5,0,0,0.5,0,0)"/>
<path style="fill-rule:nonzero;fill:rgb(52.941179%,5.882353%,0%);fill-opacity:1;stroke-width:0.3;stroke-linecap:butt;stroke-linejoin:miter;stroke:rgb(0%,0%,0%);stroke-opacity:1;stroke-miterlimit:4;" d="M 501.398438 149 C 502 145 504.898438 145 506.703125 145.5 C 507.5 145.601562 509.296875 145.796875 511.101562 145.296875 C 514.5 144.398438 517.101562 145.601562 516.703125 148.898438 C 517.703125 149.601562 518.703125 151.203125 518.398438 152.601562 C 518.203125 153.929688 518.664062 154.632812 519.796875 154.703125 C 521.101562 154.898438 523.796875 156.5 522 158.703125 C 523.703125 159.703125 525 162.398438 524.101562 164.101562 C 523.203125 165.796875 520.5 166.203125 519.296875 164.601562 C 518 165.203125 516 165.296875 514.703125 164 C 513.796875 165 511.703125 164.898438 511.203125 164 C 510.796875 163.070312 510.164062 162.5 509.296875 162.296875 C 508.398438 162 508.296875 159.5 509.703125 159.203125 C 509.632812 158.335938 509.734375 157.664062 510 157.203125 C 510.265625 156.734375 510 156.132812 509.203125 155.398438 C 508.398438 154.703125 507.703125 152.398438 508.5 151 C 507.101562 151.5 504.101562 150.101562 503.5 149.203125 C 502.703125 148.265625 502 148.203125 501.398438 149 Z M 501.398438 149 " transform="matrix(0.5,0,0,0.5,0,0)"/>
<path style="fill:none;stroke-width:0.3;stroke-linecap:butt;stroke-linejoin:miter;stroke:rgb(0%,0%,0%);stroke-opacity:1;stroke-miterlimit:4;" d="M 502.296875 166.796875 C 504.5 166.5 505.296875 165.203125 506.898438 165.203125 M 497.5 160.5 L 498 160.796875 C 498.46875 161.070312 498.929688 161.203125 499.398438 161.203125 M 498.101562 158.101562 L 499.101562 158.703125 M 503.296875 149 C 502 147.703125 505.5 145.203125 509.296875 148.796875 C 510.101562 149.601562 511.796875 149.601562 512.296875 149.398438 M 508.5 151 C 510.296875 150.601562 512.796875 150.601562 513.601562 152.601562 C 514.398438 154.601562 515.898438 153.203125 517.101562 155.601562 C 518.296875 157.898438 520.101562 160.398438 522.101562 158.601562 M 514.703125 164 C 514.125 163.039062 513.976562 161.875 514.296875 160.796875 C 513.601562 160 513.898438 158.296875 514.296875 157.5 M 509.703125 159.203125 C 509.703125 159.898438 510.703125 161.203125 512.101562 161.398438 M 519.296875 164.601562 C 518.632812 163.664062 518.46875 162.601562 518.796875 161.398438 " transform="matrix(0.5,0,0,0.5,0,0)"/>
<path style="fill:none;stroke-width:0.3;stroke-linecap:butt;stroke-linejoin:miter;stroke:rgb(0%,0%,0%);stroke-opacity:1;stroke-miterlimit:4;" d="M 510.898438 153 C 510.898438 154.101562 511.5 155.5 512.5 156 C 512.796875 156.601562 513.898438 158.203125 516.296875 158 M 516.703125 149 C 515.234375 147.679688 513.4375 146.78125 511.5 146.398438 M 502.703125 182 C 500.703125 184.703125 499.5 188.398438 500.296875 193.601562 C 501.296875 198.796875 502.703125 206.398438 499 209.796875 M 517.601562 219.898438 C 515 219.203125 511.203125 219.203125 509.101562 220.796875 C 507.101562 222.296875 503.5 222.398438 501.203125 221.203125 " transform="matrix(0.5,0,0,0.5,0,0)"/>
<path style="fill:none;stroke-width:0.3;stroke-linecap:butt;stroke-linejoin:miter;stroke:rgb(0%,0%,0%);stroke-opacity:1;stroke-miterlimit:4;" d="M 512 219.601562 C 509.703125 220 508.703125 221.703125 508.703125 226 C 508.703125 230.203125 507.703125 236.398438 508.5 242.601562 M 507.898438 221.5 C 506.296875 221.898438 504.703125 221.898438 505.101562 226 M 500 226 C 500.101562 223.601562 501 221.203125 502.601562 221.703125 M 516.703125 226.601562 C 516.703125 221 515.5 219.5 513.898438 219.601562 C 516.101562 219.601562 517.601562 219.898438 518.601562 228.796875 C 519.203125 235.601562 520.601562 237.796875 522.296875 243.203125 C 526.398438 256.796875 524.296875 277.703125 526.398438 285.203125 M 513.5 228.203125 C 519.257812 244.15625 519.117188 261.640625 513.101562 277.5 C 517.898438 290.898438 522.703125 300.601562 523.601562 306.101562 M 499.703125 258.101562 C 500.5 255.203125 497.5 254.898438 500.101562 244.796875 C 501.164062 240.53125 501.367188 237.734375 500.703125 236.398438 " transform="matrix(0.5,0,0,0.5,0,0)"/>
<path style="fill:none;stroke-width:0.3;stroke-linecap:butt;stroke-linejoin:miter;stroke:rgb(0%,0%,0%);stroke-opacity:1;stroke-miterlimit:4;" d="M 500.703125 242.398438 C 499.703125 246.796875 504 255.203125 501.898438 261.398438 M 496.398438 262.5 C 496.398438 266.5 497.296875 271.5 497.101562 275.5 C 496.898438 279.398438 498.5 281.203125 500.296875 284.898438 C 507.101562 298.296875 511.5 307.796875 511 320.398438 C 510.796875 322.796875 511.601562 327.601562 509.203125 329 M 496.601562 332.398438 C 497.296875 332.398438 498 332 498.898438 330 C 501.070312 322.539062 501.882812 314.75 501.296875 307 M 502.703125 316.601562 C 503.101562 319.203125 503.101562 324.601562 501.398438 329 " transform="matrix(0.5,0,0,0.5,0,0)"/>
<path style="fill:none;stroke-width:0.3;stroke-linecap:butt;stroke-linejoin:miter;stroke:rgb(0%,0%,0%);stroke-opacity:1;stroke-miterlimit:4;" d="M 507.101562 308.703125 C 508.101562 314.296875 508.101562 319.398438 507.203125 323 M 504.796875 323 C 505 325.203125 506 331 504.296875 331.5 M 513.5 296.203125 C 517.796875 302.898438 521.101562 319.398438 524.703125 322.796875 M 517.101562 320.203125 C 517.101562 318.398438 517 315.796875 515.898438 314.601562 M 471 239.398438 C 471.101562 238.203125 470.898438 237 472.296875 235 M 469 240.203125 C 469.203125 235.796875 469.101562 235.398438 470.398438 234.203125 M 467.203125 240.296875 C 467.203125 237.101562 466.898438 236 468.203125 234 M 483.101562 145.203125 L 478.601562 148.601562 M 484.398438 146.203125 C 483.929688 146.335938 482.265625 147.53125 479.398438 149.796875 M 484.5 148 C 483.5 148.398438 481.898438 150 480.296875 151.203125 M 477.398438 147.703125 L 475.796875 149.296875 M 517.5 341 C 517.296875 340.796875 517.296875 339.703125 517.796875 338.601562 M 519.703125 340.5 C 519.296875 340.203125 519.703125 338.796875 519.898438 337.898438 M 521.601562 339.796875 C 521.132812 339.53125 521.132812 338.867188 521.601562 337.796875 M 523.101562 339 C 522.835938 339 522.867188 338.398438 523.203125 337.203125 " transform="matrix(0.5,0,0,0.5,0,0)"/>
<path style=" stroke:none;fill-rule:nonzero;fill:rgb(0%,0%,0%);fill-opacity:1;" d="M 250.25 76.351562 C 250.648438 76.851562 251.101562 76.851562 251.148438 77.148438 C 251.25 77.550781 251.300781 77.550781 251.351562 77.648438 C 251.398438 77.75 251.148438 77.75 251.050781 77.648438 L 250.351562 77.648438 C 250.148438 77.648438 249.949219 77.398438 250.050781 77.398438 C 250.183594 77.367188 250.214844 77.300781 250.148438 77.199219 C 250.148438 77.035156 250.214844 76.917969 250.351562 76.851562 L 250.300781 76.699219 C 250.199219 76.550781 250.148438 76.199219 250.25 76.300781 Z M 250.5 75.800781 C 251.136719 75.878906 251.734375 76.15625 252.199219 76.601562 C 252.550781 77 252.25 76.898438 252.101562 76.898438 C 251.949219 76.898438 251.601562 76.800781 251.398438 76.601562 C 251.132812 76.332031 250.808594 76.125 250.449219 76 C 250.300781 76 250.148438 75.800781 250.449219 75.800781 Z M 250.5 75.800781 "/>
<path style=" stroke:none;fill-rule:nonzero;fill:rgb(0.392157%,12.941177%,41.176471%);fill-opacity:1;" d="M 0 0 L 160 0 L 160 120 L 0 120 Z M 0 0 "/>
<path style=" stroke:none;fill-rule:nonzero;fill:rgb(100%,100%,100%);fill-opacity:1;" d="M 18.75 0 L 79.75 45.25 L 140.5 0 L 160 0 L 160 15.5 L 100 60.25 L 160 104.75 L 160 120 L 140 120 L 80 75.25 L 20.25 120 L 0 120 L 0 105 L 59.75 60.5 L 0 16 L 0 0 Z M 18.75 0 "/>
<path style=" stroke:none;fill-rule:nonzero;fill:rgb(78.431374%,6.27451%,18.039216%);fill-opacity:1;" d="M 106 70.25 L 160 110 L 160 120 L 92.25 70.25 Z M 60 75.25 L 61.5 84 L 13.5 120 L 0 120 Z M 160 0 L 160 0.75 L 97.75 47.75 L 98.25 36.75 L 147.5 0 Z M 0 0 L 59.75 44 L 44.75 44 L 0 10.5 Z M 0 0 "/>
<path style=" stroke:none;fill-rule:nonzero;fill:rgb(100%,100%,100%);fill-opacity:1;" d="M 60.25 0 L 60.25 120 L 100.25 120 L 100.25 0 Z M 0 40 L 0 80 L 160 80 L 160 40 Z M 0 40 "/>
<path style=" stroke:none;fill-rule:nonzero;fill:rgb(78.431374%,6.27451%,18.039216%);fill-opacity:1;" d="M 0 48.25 L 0 72.25 L 160 72.25 L 160 48.25 Z M 68.25 0 L 68.25 120 L 92.25 120 L 92.25 0 Z M 68.25 0 "/>
</g>
</svg>
