<?xml version="1.0" encoding="UTF-8"?>
<svg xmlns="http://www.w3.org/2000/svg" xmlns:xlink="http://www.w3.org/1999/xlink" width="px" height="px" viewBox="0 0 320 240" version="1.1">
<g id="surface1">
<rect x="0" y="0" width="320" height="240" style="fill:rgb(82.352942%,6.27451%,20.392157%);fill-opacity:1;stroke:none;"/>
<path style=" stroke:none;fill-rule:nonzero;fill:rgb(0%,49.411765%,22.745098%);fill-opacity:1;" d="M 60 60 L 260 60 L 260 180 L 60 180 Z M 60 60 "/>
<path style=" stroke:none;fill-rule:nonzero;fill:rgb(100%,100%,100%);fill-opacity:1;" d="M 215 120 C 215 97.910156 197.089844 80 175 80 C 152.910156 80 135 97.910156 135 120 C 135 142.089844 152.910156 160 175 160 C 197.089844 160 215 142.089844 215 120 Z M 215 120 "/>
<path style=" stroke:none;fill-rule:nonzero;fill:rgb(0%,49.411765%,22.745098%);fill-opacity:1;" d="M 230 120 C 230 97.910156 212.089844 80 190 80 C 167.910156 80 150 97.910156 150 120 C 150 142.089844 167.910156 160 190 160 C 212.089844 160 230 142.089844 230 120 Z M 230 120 "/>
</g>
</svg>
