<?xml version="1.0" encoding="UTF-8"?>
<svg xmlns="http://www.w3.org/2000/svg" xmlns:xlink="http://www.w3.org/1999/xlink" width="px" height="px" viewBox="0 0 320 240" version="1.1">
<g id="surface1">
<path style=" stroke:none;fill-rule:evenodd;fill:rgb(0%,60.392159%,0%);fill-opacity:1;" d="M 0 0 L 360 0 L 360 75 L 0 75 Z M 0 0 "/>
<path style=" stroke:none;fill-rule:evenodd;fill:rgb(100%,100%,100%);fill-opacity:1;" d="M 0 75 L 360 75 L 360 82.5 L 0 82.5 Z M 0 75 "/>
<path style=" stroke:none;fill-rule:evenodd;fill:rgb(0%,0%,0.392157%);fill-opacity:1;" d="M 0 82.5 L 360 82.5 L 360 157.5 L 0 157.5 Z M 0 82.5 "/>
<path style=" stroke:none;fill-rule:evenodd;fill:rgb(100%,100%,100%);fill-opacity:1;" d="M 0 157.5 L 360 157.5 L 360 165 L 0 165 Z M 0 157.5 "/>
<path style=" stroke:none;fill-rule:evenodd;fill:rgb(100%,79.215688%,0%);fill-opacity:1;" d="M 0 165 L 360 165 L 360 240 L 0 240 Z M 0 165 "/>
<path style=" stroke:none;fill-rule:evenodd;fill:rgb(100%,0%,0%);fill-opacity:1;" d="M 0 0 L 0 240 L 157.5 120 Z M 0 0 "/>
<path style=" stroke:none;fill-rule:evenodd;fill:rgb(100%,79.215688%,0%);fill-opacity:1;" d="M 93.046875 156.09375 L 69.046875 138.515625 L 45.046875 156.09375 L 54.375 127.828125 L 30.234375 110.4375 L 60 110.53125 L 69.046875 82.21875 L 78.140625 110.578125 L 107.90625 110.4375 L 83.765625 127.828125 Z M 93.046875 156.09375 "/>
<path style="fill-rule:evenodd;fill:rgb(100%,100%,100%);fill-opacity:1;stroke-width:1.1;stroke-linecap:round;stroke-linejoin:round;stroke:rgb(0%,0%,0%);stroke-opacity:1;stroke-miterlimit:4;" d="M 102.8 290.9 L 139.8 290.9 C 142.8 294.2 149.3 295.6 155.6 290.9 C 167.2 284.5 189.6 290.9 189.6 290.9 L 194 286.2 L 183.3 251 L 179.4 246.8 C 179.4 246.8 171.1 241.8 155.4 243.5 C 139.7 245.2 134.2 243 134.2 243 C 134.2 243 120.5 244.6 116.6 246.6 L 112.2 251 Z M 102.8 290.9 " transform="matrix(0.46875,0,0,0.46875,0,0)"/>
<path style="fill:none;stroke-width:1.1;stroke-linecap:round;stroke-linejoin:round;stroke:rgb(0%,0%,0%);stroke-opacity:1;stroke-miterlimit:4;" d="M 110.3 281.8 C 110.3 281.8 145.5 277.4 155.7 290.9 C 150 294.9 144.9 295.2 139.5 291.2 C 140.3 289.7 152.1 277.4 182.2 281.5 " transform="matrix(0.46875,0,0,0.46875,0,0)"/>
<path style="fill:none;stroke-width:1.2;stroke-linecap:butt;stroke-linejoin:miter;stroke:rgb(0%,0%,0%);stroke-opacity:1;stroke-miterlimit:4;" d="M 148 246.6 L 147.7 285.4 M 179.4 247.1 L 186 278 " transform="matrix(0.46875,0,0,0.46875,0,0)"/>
<path style="fill:none;stroke-width:1.1;stroke-linecap:round;stroke-linejoin:round;stroke:rgb(0%,0%,0%);stroke-opacity:1;stroke-miterlimit:4;" d="M 117 246.6 L 113.3 262.6 " transform="matrix(0.46875,0,0,0.46875,0,0)"/>
<path style="fill-rule:evenodd;fill:rgb(0%,0%,0%);fill-opacity:1;stroke-width:1.1;stroke-linecap:round;stroke-linejoin:round;stroke:rgb(0%,0%,0%);stroke-opacity:1;stroke-miterlimit:4;" d="M 78.9 295.1 L 87.5 305.3 C 88.5 305.9 89.466667 305.9 90.4 305.3 L 103.2 289.9 L 108.6 283.2 C 109.466667 282.133333 109.8 281.133333 109.6 280.2 L 120 270.9 L 122.2 271.1 C 121.2 270.9 120.5 270.4 121.2 269.3 L 123.6 267.5 L 125.4 269.8 C 125.4 269.8 122.8 273.2 122.5 273.2 L 119.7 273.2 L 114.3 278.1 L 116.7 280.1 L 120.2 289.9 L 124.6 286.8 L 121.8 276.8 L 127.9 270.1 L 125.6 266.5 L 127.2 264.5 C 127.2 264.5 148.5 277.9 156.8 274.3 C 157 274.3 157.3 264.7 157.3 264.7 C 157.3 264.7 135.1 262.4 134.6 258 C 134.1 253.6 139.6 253 139.6 253 L 137.2 249.8 L 137.7 248 L 141.6 252.8 L 150.3 245.4 L 201.8 304 C 204.6 302.9 205.2 302.2 205.4 299.4 L 155 241.5 L 158.8 237.4 C 159.6 236.5 159.8 236.2 159.8 234.8 L 165.8 229.7 C 167.383333 230.216667 168.733333 231.283333 169.6 232.7 L 186 219 C 186.4 219.4 187.7 219.8 188.6 219.4 L 215.5 193.5 L 186.2 214.2 L 185.2 213.5 C 185.2 212.6 186.2 212.5 185.2 210.9 C 184 209.5 182.3 212.2 182.1 212.2 C 181.9 212.2 177.8 210.8 176.9 209 L 176.7 213.7 L 169.2 220.7 L 163.5 220.4 L 155.3 228.4 L 154.3 231.4 L 155.6 234.1 C 155.6 234.1 151.2 237.9 151.2 237.7 C 151.2 237.4 150.3 236.5 150.2 236.4 L 154 233 L 154.5 230.7 L 153.3 228.7 C 152.9 229 148.1 234.1 147.8 233.5 L 133.8 218 L 134.6 215.1 L 125.9 205.6 C 122.7 204.5 117.6 204.3 116.6 211.3 C 115.8 212.9 109.2 211.5 109.2 211.5 L 105.6 212.3 L 85.2 241 L 96.5 254.6 L 119.7 225.3 L 120.4 217 L 125.2 222.4 C 126.866667 222.733333 128.433333 222.566667 129.9 221.9 L 143.6 237.2 L 141.3 239.5 L 143.3 241.7 L 145.7 240.1 L 146.6 241.4 C 145.533333 242.066667 144.5 242.766667 143.5 243.5 C 141.7 242.3 139.9 240.8 140 238.5 L 132.3 244.9 L 132 246.1 L 109.1 265.1 L 107.1 265.4 L 106.6 271.4 L 121.5 259 L 121.5 257.2 L 123 258.5 L 134.6 249.2 C 134.6 249.2 135.4 250.2 135.1 250.2 C 134.8 250.2 124.8 259.5 124.8 259.5 L 124.6 260.5 L 122.8 262.1 L 121.8 261.3 L 107.8 273.7 L 105.8 273.7 L 98.1 281.4 C 96.1 281.6 94.4 281.8 92.7 282.9 Z M 78.9 295.1 " transform="matrix(0.46875,0,0,0.46875,0,0)"/>
</g>
</svg>
