<?xml version="1.0" encoding="UTF-8"?>
<svg xmlns="http://www.w3.org/2000/svg" xmlns:xlink="http://www.w3.org/1999/xlink" width="px" height="px" viewBox="0 0 320 240" version="1.1">
<g id="surface1">
<rect x="0" y="0" width="320" height="240" style="fill:rgb(100%,100%,100%);fill-opacity:1;stroke:none;"/>
<path style=" stroke:none;fill-rule:evenodd;fill:rgb(21.176471%,38.431373%,63.529414%);fill-opacity:1;" d="M -13.199219 0.101562 L -12.800781 172.898438 L 256.25 0 Z M -13.199219 0.101562 "/>
<path style=" stroke:none;fill-rule:evenodd;fill:rgb(21.960784%,63.137257%,0%);fill-opacity:1;" d="M 333.199219 239.800781 L 332.5 60.148438 L 61.148438 239.898438 L 333.148438 239.800781 Z M 333.199219 239.800781 "/>
<path style=" stroke:none;fill-rule:evenodd;fill:rgb(78.039217%,0%,0%);fill-opacity:1;" d="M -13 185.898438 L -12.800781 240 L 45.949219 239.949219 L 332.699219 47.699219 L 332.351562 0.648438 L 274.351562 0.148438 L -13 185.851562 Z M -13 185.898438 "/>
<path style=" stroke:none;fill-rule:evenodd;fill:rgb(100%,90.588236%,0%);fill-opacity:1;" d="M 109.800781 86 L 98.898438 79.398438 L 92.601562 90.449219 L 86.5 79.351562 L 75.5 85.800781 L 75.800781 73.101562 L 63.101562 73.199219 L 69.699219 62.300781 L 58.648438 56.050781 L 69.75 49.898438 L 63.351562 38.898438 L 76.050781 39.199219 L 76 26.449219 L 86.851562 33.050781 L 93.148438 22 L 99.25 33.101562 L 110.25 26.648438 L 109.949219 39.351562 L 122.648438 39.25 L 116.050781 50.148438 L 127.101562 56.398438 L 116 62.550781 L 122.398438 73.550781 L 109.699219 73.25 Z M 109.800781 86 "/>
<path style=" stroke:none;fill-rule:evenodd;fill:rgb(21.176471%,38.431373%,63.529414%);fill-opacity:1;" d="M 116.199219 56.199219 C 116.199219 69 105.75 79.351562 92.898438 79.351562 C 80.050781 79.351562 69.601562 69 69.601562 56.199219 C 69.601562 43.398438 80 33.101562 92.898438 33.101562 C 105.800781 33.101562 116.199219 43.449219 116.199219 56.199219 "/>
<path style=" stroke:none;fill-rule:evenodd;fill:rgb(100%,90.588236%,0%);fill-opacity:1;" d="M 111.148438 56.199219 C 111.148438 66.277344 102.980469 74.449219 92.898438 74.449219 C 82.820312 74.449219 74.648438 66.277344 74.648438 56.199219 C 74.648438 46.121094 82.820312 37.949219 92.898438 37.949219 C 102.980469 37.949219 111.148438 46.121094 111.148438 56.199219 "/>
</g>
</svg>
