<?xml version="1.0" encoding="UTF-8"?>
<svg xmlns="http://www.w3.org/2000/svg" xmlns:xlink="http://www.w3.org/1999/xlink" width="px" height="px" viewBox="0 0 320 240" version="1.1">
<g id="surface1">
<rect x="0" y="0" width="320" height="240" style="fill:rgb(0%,58.431375%,26.274511%);fill-opacity:1;stroke:none;"/>
<path style=" stroke:none;fill-rule:nonzero;fill:rgb(92.941177%,25.490198%,20.784314%);fill-opacity:1;" d="M 0 0 L 320 0 L 320 160 L 0 160 Z M 0 0 "/>
<path style=" stroke:none;fill-rule:nonzero;fill:rgb(0%,20.784314%,67.843139%);fill-opacity:1;" d="M 0 0 L 320 0 L 320 80 L 0 80 Z M 0 0 "/>
<path style="fill-rule:nonzero;fill:rgb(98.039216%,90.196079%,0%);fill-opacity:1;stroke-width:5.3;stroke-linecap:butt;stroke-linejoin:miter;stroke:rgb(0%,0%,0%);stroke-opacity:1;stroke-miterlimit:4;" d="M 397.296875 240 C 397.296875 153.125 326.875 82.703125 240 82.703125 C 153.125 82.703125 82.703125 153.125 82.703125 240 C 82.703125 326.875 153.125 397.296875 240 397.296875 C 326.875 397.296875 397.296875 326.875 397.296875 240 Z M 397.296875 240 " transform="matrix(0.5,0,0,0.5,0,0)"/>
<path style="fill-rule:nonzero;fill:rgb(0%,0%,0%);fill-opacity:1;stroke-width:6.4;stroke-linecap:butt;stroke-linejoin:miter;stroke:rgb(0%,0%,0%);stroke-opacity:1;stroke-miterlimit:4;" d="M 213.296875 263.5 L 266.601562 263.5 M 213.296875 224 L 266.601562 224 M 240 83.203125 L 240 352 " transform="matrix(0.5,0,0,0.5,0,0)"/>
<path style=" stroke:none;fill-rule:nonzero;fill:rgb(0%,0%,0.392157%);fill-opacity:1;" d="M 88.300781 192.199219 C 120.398438 205.351562 150.5 193.050781 150.5 193.050781 C 150.5 193.050781 139.148438 180.75 133.351562 175.949219 C 127.648438 171.25 110.949219 171.449219 105.25 175.949219 C 99.34375 181.09375 93.6875 186.515625 88.300781 192.199219 "/>
<path style=" stroke:none;fill-rule:nonzero;fill:rgb(0%,0%,0.392157%);fill-opacity:1;" d="M 128.800781 156.25 C 128.800781 149.179688 124.859375 143.449219 120 143.449219 C 115.140625 143.449219 111.199219 149.179688 111.199219 156.25 C 111.199219 163.320312 115.140625 169.050781 120 169.050781 C 124.859375 169.050781 128.800781 163.320312 128.800781 156.25 Z M 128.800781 156.25 "/>
<path style=" stroke:none;fill-rule:nonzero;fill:rgb(0%,0%,0.392157%);fill-opacity:1;" d="M 130.648438 121.851562 C 130.648438 118.121094 125.882812 115.101562 120 115.101562 C 114.117188 115.101562 109.351562 118.121094 109.351562 121.851562 C 109.351562 125.578125 114.117188 128.601562 120 128.601562 C 125.882812 128.601562 130.648438 125.578125 130.648438 121.851562 Z M 130.648438 121.851562 "/>
<path style=" stroke:none;fill-rule:nonzero;fill:rgb(0%,0%,0.392157%);fill-opacity:1;" d="M 130.648438 90.648438 C 130.648438 84.769531 125.882812 80 120 80 C 114.117188 80 109.351562 84.769531 109.351562 90.648438 C 109.351562 96.53125 114.117188 101.300781 120 101.300781 C 125.882812 101.300781 130.648438 96.53125 130.648438 90.648438 Z M 130.648438 90.648438 "/>
<path style=" stroke:none;fill-rule:nonzero;fill:rgb(0%,0%,0.392157%);fill-opacity:1;" d="M 132.800781 50.949219 C 132.800781 50.949219 133.699219 52.449219 131.800781 55.949219 C 122.5 72.699219 113.148438 73.050781 111.398438 74.5 C 109.398438 76.101562 108.601562 76 108.601562 76 C 108.75 74.550781 108.851562 68.699219 108.949219 68.148438 C 110.398438 60.300781 122.199219 60.398438 131.449219 52.398438 C 132.898438 51.148438 132.800781 50.898438 132.800781 50.898438 Z M 101.601562 86.949219 C 101.601562 86.949219 103.75 92.949219 104 98.949219 C 104.5 108.550781 113.699219 108.800781 120 108.800781 L 120 103.449219 C 115.25 103.449219 111.148438 102.75 107.75 95.75 C 105.960938 92.644531 103.902344 89.699219 101.601562 86.949219 M 101.351562 164.25 C 101.351562 164.25 104.699219 160.101562 108.648438 150.398438 C 110.648438 145.351562 115.550781 142.398438 120 142.398438 L 120 134.898438 C 109.851562 134.898438 105 138.648438 104.5 144.199219 C 103.863281 150.941406 102.8125 157.636719 101.351562 164.25 "/>
<path style=" stroke:none;fill-rule:nonzero;fill:rgb(0%,0%,0%);fill-opacity:1;" d="M 138.398438 86.949219 C 138.398438 86.949219 136.25 92.949219 136 98.949219 C 135.5 108.550781 126.300781 108.800781 120 108.800781 L 120 103.5 C 124.75 103.5 128.851562 102.800781 132.25 95.75 C 134.050781 92.648438 136.101562 89.714844 138.398438 86.949219 M 138.648438 164.300781 C 138.648438 164.300781 135.300781 160.101562 131.351562 150.398438 C 129.351562 145.351562 124.449219 142.398438 120 142.398438 L 120 135 C 130.148438 135 135 138.75 135.5 144.300781 C 136.136719 151.023438 137.191406 157.703125 138.648438 164.300781 "/>
</g>
</svg>
