<?xml version="1.0" encoding="UTF-8"?>
<svg xmlns="http://www.w3.org/2000/svg" xmlns:xlink="http://www.w3.org/1999/xlink" width="px" height="px" viewBox="0 0 320 240" version="1.1">
<g id="surface1">
<path style="fill-rule:evenodd;fill:rgb(80.784315%,0%,0%);fill-opacity:1;stroke-width:13.8;stroke-linecap:butt;stroke-linejoin:miter;stroke:rgb(0%,0%,38.82353%);stroke-opacity:1;stroke-miterlimit:4;" d="M 6.5 489.5 L 385.3 489.5 L 137.4 238.1 L 394.7 238.4 L 6.6 -9.5 L 6.6 489.5 Z M 6.5 489.5 " transform="matrix(0.46875,0,0,0.46875,0,7.5)"/>
<path style=" stroke:none;fill-rule:evenodd;fill:rgb(100%,100%,100%);fill-opacity:1;" d="M 84.703125 174.28125 L 72.046875 178.5 L 81.984375 187.78125 L 68.625 186.9375 L 74.109375 199.21875 L 62.15625 193.453125 L 62.390625 206.859375 L 53.578125 197.0625 L 48.5625 209.53125 L 44.25 197.203125 L 34.734375 206.859375 L 35.578125 193.875 L 22.96875 199.21875 L 28.875 187.5 L 15.140625 187.78125 L 25.21875 179.203125 L 12.421875 174.28125 L 25.078125 170.0625 L 15.09375 160.78125 L 28.40625 161.625 L 22.96875 149.34375 L 34.96875 155.109375 L 34.734375 141.703125 L 43.546875 151.5 L 48.5625 139.03125 L 52.828125 151.359375 L 62.390625 141.703125 L 61.5 154.6875 L 74.15625 149.34375 L 68.203125 161.0625 L 81.984375 160.78125 L 71.90625 169.359375 Z M 69.515625 87.703125 L 64.21875 91.640625 L 66.84375 93.796875 C 73 89.492188 77.953125 83.683594 81.234375 76.921875 C 82.078125 86.90625 72.9375 109.265625 49.03125 109.5 C 40.207031 109.613281 31.699219 106.195312 25.40625 100.007812 C 19.113281 93.820312 15.550781 85.375 15.515625 76.546875 C 20.203125 85.078125 23.109375 89.203125 30.515625 93.65625 L 32.71875 91.59375 L 27.75 87.421875 L 34.171875 85.734375 L 30.703125 79.921875 L 37.453125 80.390625 L 36.609375 73.640625 L 42.515625 77.109375 L 44.390625 70.78125 L 48.609375 75.84375 L 52.59375 71.015625 L 54.75 77.578125 L 60.28125 73.734375 L 59.578125 80.4375 L 66.234375 79.640625 L 63.09375 85.828125 Z M 69.515625 87.703125 "/>
</g>
</svg>
