<?xml version="1.0" encoding="UTF-8"?>
<svg xmlns="http://www.w3.org/2000/svg" xmlns:xlink="http://www.w3.org/1999/xlink" width="px" height="px" viewBox="0 0 320 240" version="1.1">
<defs>
<clipPath id="clip1">
  <path d="M 0.0078125 0 L 320 0 L 320 240 L 0.0078125 240 Z M 0.0078125 0 "/>
</clipPath>
<clipPath id="clip2">
  <path d="M 0.0078125 109 L 320 109 L 320 131 L 0.0078125 131 Z M 0.0078125 109 "/>
</clipPath>
</defs>
<g id="surface1">
<g clip-path="url(#clip1)" clip-rule="nonzero">
<rect x="0" y="0" width="320" height="240" style="fill:rgb(0%,12.941177%,43.921569%);fill-opacity:1;stroke:none;"/>
</g>
<g clip-path="url(#clip2)" clip-rule="nonzero">
<path style=" stroke:none;fill-rule:evenodd;fill:rgb(100%,69.803923%,5.098039%);fill-opacity:1;" d="M -39.976562 109.734375 L 440.023438 109.734375 L 440.023438 130.3125 L -39.976562 130.3125 Z M -39.976562 109.734375 "/>
</g>
<path style=" stroke:none;fill-rule:evenodd;fill:rgb(100%,100%,100%);fill-opacity:1;" d="M 101.492188 205.3125 L 86.023438 189.84375 L 81.101562 211.125 L 75.476562 190.03125 L 60.523438 205.96875 L 66.195312 184.875 L 45.335938 191.203125 L 60.804688 175.734375 L 39.523438 170.765625 L 60.617188 165.140625 L 44.679688 150.234375 L 65.773438 155.859375 L 59.398438 135 L 74.867188 150.46875 L 79.835938 129.1875 L 85.460938 150.28125 L 100.367188 134.34375 L 94.742188 155.4375 L 115.601562 149.109375 L 100.132812 164.578125 L 121.414062 169.5 L 100.320312 175.125 L 116.257812 190.125 L 95.164062 184.40625 Z M 101.492188 205.3125 "/>
</g>
</svg>
