<?xml version="1.0" encoding="UTF-8"?>
<svg xmlns="http://www.w3.org/2000/svg" xmlns:xlink="http://www.w3.org/1999/xlink" width="px" height="px" viewBox="0 0 320 240" version="1.1">
<g id="surface1">
<rect x="0" y="0" width="320" height="240" style="fill:rgb(93.725491%,17.647059%,16.078432%);fill-opacity:1;stroke:none;"/>
<path style=" stroke:none;fill-rule:evenodd;fill:rgb(0%,56.470591%,14.509805%);fill-opacity:1;" d="M 87.300781 158.648438 L 355.148438 158.648438 L 355.148438 262.5 L 87.300781 262.5 Z M 87.300781 158.648438 "/>
<path style=" stroke:none;fill-rule:evenodd;fill:rgb(100%,100%,100%);fill-opacity:1;" d="M 87.300781 -17.699219 L 369.75 -17.699219 L 369.75 77.300781 L 87.25 77.300781 Z M 87.300781 -17.699219 "/>
<path style="fill-rule:evenodd;fill:rgb(100%,100%,100%);fill-opacity:1;stroke-width:1.4;stroke-linecap:butt;stroke-linejoin:miter;stroke:rgb(93.725491%,17.647059%,15.686275%);stroke-opacity:1;stroke-miterlimit:4;" d="M 28.993776 467.68449 L 144.59894 467.68449 C 150.857442 467.68449 155.895734 472.967966 155.895734 479.484253 L 155.895734 540.904662 C 155.895734 547.420949 150.857442 552.704425 144.59894 552.704425 L 28.993776 552.704425 C 22.774635 552.704425 17.696982 547.420949 17.696982 540.904662 L 17.696982 479.484253 C 17.696982 472.967966 22.774635 467.68449 28.993776 467.68449 Z M 28.993776 467.68449 " transform="matrix(0.09924,0,0,0.08872,55.650002,-6.7)"/>
<path style="fill-rule:evenodd;fill:rgb(100%,100%,100%);fill-opacity:1;stroke-width:1.3;stroke-linecap:butt;stroke-linejoin:miter;stroke:rgb(93.725491%,17.647059%,15.686275%);stroke-opacity:1;stroke-miterlimit:4;" d="M 31.985261 471.294865 L 141.686178 471.294865 C 147.590426 471.294865 152.392547 476.182081 152.392547 482.214049 L 152.392547 538.395011 C 152.392547 544.426979 147.590426 549.314195 141.686178 549.314195 L 31.985261 549.314195 C 26.081014 549.314195 21.318254 544.426979 21.318254 538.395011 L 21.318254 482.214049 C 21.318254 476.182081 26.081014 471.294865 31.985261 471.294865 Z M 31.985261 471.294865 " transform="matrix(0.09924,0,0,0.08872,55.650002,-6.7)"/>
<path style="fill-rule:evenodd;fill:rgb(100%,100%,100%);fill-opacity:1;stroke-width:1.3;stroke-linecap:butt;stroke-linejoin:miter;stroke:rgb(93.725491%,17.647059%,15.686275%);stroke-opacity:1;stroke-miterlimit:4;" d="M 65.028264 395.982147 L 74.679694 396.50881 L 75.084245 402.302095 L 83.11747 407.568717 L 89.30132 400.872583 L 96.814409 406.214443 L 89.821457 412.007728 L 91.497454 419.9829 L 100.281989 419.531475 L 100.281989 429.989483 L 93.289037 429.613295 L 89.705871 436.234193 L 97.681304 443.682702 L 91.497454 449.927412 L 84.793467 443.306514 L 75.084245 445.864588 L 75.604381 455.570222 L 65.028264 456.623546 L 63.583439 447.218863 L 54.798905 442.403665 L 49.8865 449.024562 L 42.373412 444.134127 L 46.823472 436.61038 L 41.506517 431.795182 L 33.993428 431.795182 L 33.588877 418.101963 L 41.101966 419.004812 L 46.418921 411.029641 L 40.177278 404.784931 L 48.210504 397.787847 L 53.874217 403.505894 L 63.583439 401.700195 Z M 65.028264 395.982147 " transform="matrix(0.0675904,0,0,0.0519189,59.421121,16.429306)"/>
<path style="fill-rule:evenodd;fill:rgb(100%,100%,100%);fill-opacity:1;stroke-width:1.3;stroke-linecap:butt;stroke-linejoin:miter;stroke:rgb(93.725491%,17.647059%,15.686275%);stroke-opacity:1;stroke-miterlimit:4;" d="M 80.008376 426.828279 C 80.008376 421.310865 75.044738 416.922012 68.885043 416.922012 C 62.785151 416.922012 57.821513 421.310865 57.821513 426.828279 C 57.821513 432.282996 62.785151 436.671848 68.885043 436.671848 C 75.044738 436.671848 80.008376 432.282996 80.008376 426.828279 Z M 80.008376 426.828279 " transform="matrix(0.0653188,0,0,0.0623027,59.500513,11.895713)"/>
<path style="fill-rule:evenodd;fill:rgb(100%,100%,100%);fill-opacity:1;stroke-width:1.3;stroke-linecap:butt;stroke-linejoin:miter;stroke:rgb(93.725491%,17.647059%,15.686275%);stroke-opacity:1;stroke-miterlimit:4;" d="M 38.991635 474.817183 L 28.285266 485.384135 M 46.116093 474.817183 L 35.409725 485.384135 M 53.083105 474.817183 L 42.494821 485.384135 M 60.207564 474.817183 L 49.61928 485.384135 M 67.292661 474.817183 L 56.704377 485.384135 M 74.417119 474.817183 L 63.789474 485.384135 M 81.502216 474.817183 L 70.913932 485.384135 M 88.587313 474.817183 L 77.999029 485.384135 M 95.711772 474.817183 L 85.005403 485.384135 M 102.796868 474.817183 L 92.011776 485.384135 M 109.685157 474.817183 L 99.096873 485.384135 M 116.809616 474.817183 L 106.18197 485.384135 M 88.50859 474.817183 L 77.999029 485.384135 M 124.012798 474.817183 L 113.385152 485.384135 M 131.097894 474.817183 L 120.509611 485.384135 M 138.182991 474.817183 L 127.594708 485.384135 M 145.30745 474.817183 L 134.719166 485.384135 M 134.719166 474.817183 L 145.30745 485.384135 M 127.594708 474.817183 L 138.182991 485.384135 M 120.509611 474.817183 L 131.097894 485.384135 M 113.385152 474.817183 L 124.012798 485.384135 M 106.300055 474.817183 L 116.888339 485.384135 M 99.214958 474.817183 L 109.803242 485.384135 M 92.0905 474.817183 L 102.796868 485.384135 M 85.005403 474.817183 L 95.593687 485.384135 M 77.802221 474.817183 L 88.50859 485.384135 M 70.795847 474.817183 L 81.384131 485.384135 M 63.71075 474.817183 L 74.299034 485.384135 M 56.586292 474.817183 L 67.213937 485.384135 M 85.005403 474.817183 L 95.593687 485.384135 M 49.61928 474.817183 L 60.089479 485.384135 M 42.416098 474.817183 L 53.083105 485.384135 M 35.29164 474.817183 L 45.998008 485.384135 M 28.206543 474.817183 L 38.991635 485.384135 M 38.991635 535.00478 L 28.403351 545.703819 M 45.998008 535.00478 L 35.29164 545.703819 M 53.20119 535.00478 L 42.494821 545.703819 M 60.207564 535.00478 L 49.61928 545.703819 M 67.292661 535.00478 L 56.704377 545.703819 M 74.417119 535.00478 L 63.789474 545.703819 M 81.502216 535.00478 L 70.992656 545.703819 M 88.587313 535.00478 L 77.999029 545.703819 M 95.711772 535.00478 L 85.005403 545.703819 M 102.718145 535.00478 L 92.011776 545.703819 M 110.00005 535.00478 L 99.293682 545.703819 M 117.006424 535.00478 L 106.41814 545.703819 M 88.587313 535.00478 L 77.999029 545.703819 M 124.012798 535.00478 L 113.385152 545.703819 M 131.097894 535.00478 L 120.509611 545.703819 M 138.182991 535.00478 L 127.594708 545.703819 M 145.30745 535.00478 L 134.719166 545.703819 M 134.719166 535.00478 L 145.30745 545.703819 M 127.594708 535.00478 L 138.182991 545.703819 M 120.509611 535.00478 L 131.097894 545.703819 M 113.385152 535.00478 L 124.012798 545.703819 M 106.300055 535.00478 L 116.888339 545.703819 M 99.214958 535.00478 L 109.881965 545.703819 M 92.011776 535.00478 L 102.718145 545.703819 M 85.005403 535.00478 L 95.593687 545.703819 M 77.999029 535.00478 L 88.587313 545.703819 M 70.913932 535.00478 L 81.502216 545.703819 M 63.789474 535.00478 L 74.417119 545.703819 M 56.704377 535.00478 L 67.292661 545.703819 M 85.084126 535.00478 L 95.711772 545.703819 M 49.698003 535.00478 L 60.207564 545.703819 M 42.494821 535.00478 L 53.20119 545.703819 M 35.409725 535.00478 L 46.116093 545.703819 M 28.403351 535.00478 L 38.991635 545.703819 " transform="matrix(0.09924,0,0,0.08872,55.650002,-6.7)"/>
<path style="fill-rule:evenodd;fill:rgb(100%,100%,100%);fill-opacity:1;stroke-width:1.4;stroke-linecap:butt;stroke-linejoin:miter;stroke:rgb(93.725491%,17.647059%,15.686275%);stroke-opacity:1;stroke-miterlimit:4;" d="M 29.017406 467.719715 L 144.583209 467.719715 C 150.841711 467.719715 155.919364 473.003191 155.919364 479.519479 L 155.919364 540.895858 C 155.919364 547.412146 150.841711 552.695622 144.583209 552.695622 L 29.017406 552.695622 C 22.758904 552.695622 17.681251 547.412146 17.681251 540.895858 L 17.681251 479.519479 C 17.681251 473.003191 22.758904 467.719715 29.017406 467.719715 Z M 29.017406 467.719715 " transform="matrix(0.09924,0,0,0.08872,9.55,-7)"/>
<path style="fill-rule:evenodd;fill:rgb(100%,100%,100%);fill-opacity:1;stroke-width:1.3;stroke-linecap:butt;stroke-linejoin:miter;stroke:rgb(93.725491%,17.647059%,15.686275%);stroke-opacity:1;stroke-miterlimit:4;" d="M 32.008891 471.286062 L 141.709809 471.286062 C 147.614056 471.286062 152.416177 476.173277 152.416177 482.205246 L 152.416177 538.386207 C 152.416177 544.418176 147.614056 549.305391 141.709809 549.305391 L 32.008891 549.305391 C 26.104644 549.305391 21.302523 544.418176 21.302523 538.386207 L 21.302523 482.205246 C 21.302523 476.173277 26.104644 471.286062 32.008891 471.286062 Z M 32.008891 471.286062 " transform="matrix(0.09924,0,0,0.08872,9.55,-7)"/>
<path style="fill-rule:evenodd;fill:rgb(100%,100%,100%);fill-opacity:1;stroke-width:1.3;stroke-linecap:butt;stroke-linejoin:miter;stroke:rgb(93.725491%,17.647059%,15.686275%);stroke-opacity:1;stroke-miterlimit:4;" d="M 65.005167 395.967104 L 74.714389 396.493766 L 75.11894 402.287051 L 83.094373 407.628911 L 89.278223 400.932776 L 96.791312 406.199399 L 89.79836 411.992684 L 91.474357 419.967856 L 100.316684 419.516431 L 100.316684 429.974439 L 93.323732 429.598252 L 89.682774 436.219149 L 97.716 443.667658 L 91.474357 449.912368 L 84.828163 443.291471 L 75.11894 445.924782 L 75.581284 455.630415 L 65.005167 456.608502 L 63.618135 447.203819 L 54.775807 442.388621 L 49.921196 449.009518 L 42.408107 444.119083 L 46.800374 436.595336 L 41.483419 431.780138 L 34.028123 431.780138 L 33.623572 418.086919 L 41.078868 418.989769 L 46.395824 411.014597 L 40.211973 404.769887 L 48.187406 397.772803 L 53.908912 403.49085 L 63.618135 401.685151 Z M 65.005167 395.967104 " transform="matrix(0.0675904,0,0,0.0519189,13.32112,16.129305)"/>
<path style="fill-rule:evenodd;fill:rgb(100%,100%,100%);fill-opacity:1;stroke-width:1.3;stroke-linecap:butt;stroke-linejoin:miter;stroke:rgb(93.725491%,17.647059%,15.686275%);stroke-opacity:1;stroke-miterlimit:4;" d="M 79.984476 426.815743 C 79.984476 421.361026 75.020838 416.909476 68.920945 416.909476 C 62.76125 416.909476 57.797612 421.361026 57.797612 426.815743 C 57.797612 432.270459 62.76125 436.72201 68.920945 436.72201 C 75.020838 436.72201 79.984476 432.270459 79.984476 426.815743 Z M 79.984476 426.815743 " transform="matrix(0.0653188,0,0,0.0623027,13.400512,11.595713)"/>
<path style="fill-rule:evenodd;fill:rgb(100%,100%,100%);fill-opacity:1;stroke-width:1.3;stroke-linecap:butt;stroke-linejoin:miter;stroke:rgb(93.725491%,17.647059%,15.686275%);stroke-opacity:1;stroke-miterlimit:4;" d="M 39.015265 474.808379 L 28.308896 485.41936 M 46.100362 474.808379 L 35.393993 485.41936 M 53.106736 474.808379 L 42.518452 485.41936 M 60.191832 474.808379 L 49.603549 485.41936 M 67.316291 474.808379 L 56.688646 485.41936 M 74.401388 474.808379 L 63.813104 485.41936 M 81.486485 474.808379 L 70.898201 485.41936 M 88.610943 474.808379 L 77.983298 485.41936 M 95.69604 474.808379 L 84.989672 485.41936 M 102.781137 474.808379 L 91.996045 485.41936 M 109.708788 474.808379 L 99.081142 485.41936 M 116.793884 474.808379 L 106.205601 485.41936 M 88.492858 474.808379 L 77.983298 485.41936 M 123.997066 474.808379 L 113.408783 485.41936 M 131.082163 474.808379 L 120.49388 485.41936 M 138.206622 474.808379 L 127.618338 485.41936 M 145.291719 474.808379 L 134.703435 485.41936 M 134.703435 474.808379 L 145.291719 485.41936 M 127.618338 474.808379 L 138.206622 485.41936 M 120.49388 474.808379 L 131.082163 485.41936 M 113.408783 474.808379 L 123.997066 485.41936 M 106.284324 474.808379 L 116.911969 485.41936 M 99.199227 474.808379 L 109.787511 485.41936 M 92.11413 474.808379 L 102.781137 485.41936 M 84.989672 474.808379 L 95.617317 485.41936 M 77.78649 474.808379 L 88.492858 485.41936 M 70.819478 474.808379 L 81.407762 485.41936 M 63.695019 474.808379 L 74.283303 485.41936 M 56.609922 474.808379 L 67.198206 485.41936 M 84.989672 474.808379 L 95.617317 485.41936 M 49.603549 474.808379 L 60.113109 485.41936 M 42.400367 474.808379 L 53.106736 485.41936 M 35.31527 474.808379 L 45.982277 485.41936 M 28.190811 474.808379 L 39.015265 485.41936 M 39.015265 534.995977 L 28.38762 545.695016 M 45.982277 534.995977 L 35.31527 545.695016 M 53.185459 534.995977 L 42.518452 545.695016 M 60.191832 534.995977 L 49.603549 545.695016 M 67.316291 534.995977 L 56.688646 545.695016 M 74.401388 534.995977 L 63.813104 545.695016 M 81.486485 534.995977 L 71.016286 545.695016 M 88.610943 534.995977 L 77.983298 545.695016 M 95.69604 534.995977 L 84.989672 545.695016 M 102.702414 534.995977 L 91.996045 545.695016 M 109.984319 534.995977 L 99.317312 545.695016 M 116.990693 534.995977 L 106.402409 545.695016 M 88.610943 534.995977 L 77.983298 545.695016 M 123.997066 534.995977 L 113.408783 545.695016 M 131.082163 534.995977 L 120.49388 545.695016 M 138.206622 534.995977 L 127.618338 545.695016 M 145.291719 534.995977 L 134.703435 545.695016 M 134.703435 534.995977 L 145.291719 545.695016 M 127.618338 534.995977 L 138.206622 545.695016 M 120.49388 534.995977 L 131.082163 545.695016 M 113.408783 534.995977 L 123.997066 545.695016 M 106.284324 534.995977 L 116.911969 545.695016 M 99.199227 534.995977 L 109.905596 545.695016 M 91.996045 534.995977 L 102.702414 545.695016 M 84.989672 534.995977 L 95.617317 545.695016 M 77.983298 534.995977 L 88.610943 545.695016 M 70.898201 534.995977 L 81.486485 545.695016 M 63.813104 534.995977 L 74.401388 545.695016 M 56.688646 534.995977 L 67.316291 545.695016 M 85.107757 534.995977 L 95.69604 545.695016 M 49.682272 534.995977 L 60.191832 545.695016 M 42.518452 534.995977 L 53.185459 545.695016 M 35.393993 534.995977 L 46.100362 545.695016 M 28.38762 534.995977 L 39.015265 545.695016 " transform="matrix(0.09924,0,0,0.08872,9.55,-7)"/>
<path style="fill-rule:evenodd;fill:rgb(100%,100%,100%);fill-opacity:1;stroke-width:1.3;stroke-linecap:butt;stroke-linejoin:miter;stroke:rgb(93.725491%,17.647059%,15.686275%);stroke-opacity:1;stroke-miterlimit:4;" d="M 538.617302 531.491544 C 540.298246 698.099399 563.408997 733.497897 542.108526 733.504689 C 520.790609 733.500537 510.202647 641.397142 510.200134 528.000144 C 510.19762 414.603146 524.396328 322.51615 545.696799 322.509358 C 566.99727 322.502566 536.712437 354.388895 538.617302 531.491544 Z M 538.617302 531.491544 " transform="matrix(-0.16068,-0.06342,-0.10079,0.101105,172.949997,30.700001)"/>
<path style="fill-rule:evenodd;fill:rgb(100%,100%,100%);fill-opacity:1;stroke-width:1.2;stroke-linecap:butt;stroke-linejoin:miter;stroke:rgb(93.725491%,17.647059%,15.686275%);stroke-opacity:1;stroke-miterlimit:4;" d="M 545.686307 779.497634 L 485.38426 797.197278 C 542.104397 857.516963 605.909631 882.217213 623.583011 871.606232 C 641.295754 860.995251 591.700075 836.206943 545.607584 779.585692 Z M 545.686307 779.497634 " transform="matrix(-0.09924,0,0,0.08872,72.650002,-6.7)"/>
<path style="fill-rule:evenodd;fill:rgb(100%,100%,100%);fill-opacity:1;stroke-width:1.3;stroke-linecap:butt;stroke-linejoin:miter;stroke:rgb(93.725491%,17.647059%,15.686275%);stroke-opacity:1;stroke-miterlimit:4;" d="M 547.303332 786.918692 L 496.308324 801.616926 C 553.000872 861.920893 609.087299 879.000148 623.593803 871.582348 C 638.181123 864.301915 593.287737 843.605337 547.303332 786.918692 Z M 547.303332 786.918692 " transform="matrix(-0.09667,0,0,0.08531,71.400002,-4.05)"/>
<path style="fill:none;stroke-width:1.8;stroke-linecap:butt;stroke-linejoin:miter;stroke:rgb(93.725491%,17.647059%,15.686275%);stroke-opacity:1;stroke-miterlimit:4;" d="M 353.12187 634.225968 C 353.289545 635.484628 353.90435 641.274462 354.407373 643.602982 C 354.407373 646.812564 354.68683 649.204017 355.022178 651.721336 C 355.804658 653.923991 355.692875 655.874913 358.096205 656.693042 C 359.214033 658.706897 361.002558 660.217288 363.126431 661.09835 C 365.026739 662.608741 367.150612 663.930334 369.386268 664.874329 C 371.789598 665.881256 374.416494 666.132988 376.875716 665.503658 C 378.943698 663.930334 380.844005 662.419943 382.520747 661.09835 C 382.911987 659.084495 383.303227 656.189578 383.80625 654.175722 C 383.02377 656.88184 382.576639 659.650892 382.520747 662.419943 C 382.688421 665.377793 383.80625 666.825251 384.979969 669.216704 " transform="matrix(-0.06989,0,0,0.06207,61.5,10.2)"/>
<path style="fill:none;stroke-width:1.8;stroke-linecap:butt;stroke-linejoin:miter;stroke:rgb(93.725491%,17.647059%,15.686275%);stroke-opacity:1;stroke-miterlimit:4;" d="M 389.406579 681.715184 L 390.021384 681.085855 C 388.512316 682.596246 389.127122 681.903983 392.480606 679.827195 C 394.828045 678.757334 397.510832 677.939206 400.584859 677.372809 L 409.4157 677.372809 C 412.825076 677.372809 415.116623 677.876273 417.519953 678.568535 C 419.308478 680.393592 421.879483 681.400519 423.77979 682.973844 C 425.512424 684.295436 426.797926 685.994627 427.524514 688.008482 C 429.201256 689.707673 430.319084 692.287925 431.884043 693.609517 C 432.610632 696.504434 434.007917 696.378568 435.013962 698.581222 C 431.995826 698.770021 429.704279 699.210552 428.083428 701.098542 C 425.512424 702.420134 430.319084 699.776949 431.325129 698.581222 C 433.281328 698.014826 433.784351 697.385496 436.914269 697.385496 C 439.70884 696.378568 441.497364 698.077759 444.403717 698.581222 C 446.080459 699.58815 446.583482 699.902815 448.819138 699.902815 " transform="matrix(-0.06989,0,0,0.06207,62.450001,9.85)"/>
<path style="fill:none;stroke-width:1.8;stroke-linecap:butt;stroke-linejoin:miter;stroke:rgb(93.725491%,17.647059%,15.686275%);stroke-opacity:1;stroke-miterlimit:4;" d="M 438.0768 724.887207 C 439.418193 724.887207 445.175008 726.020001 447.522446 724.887207 C 450.093451 724.194944 451.490736 722.873352 453.111587 720.481899 C 453.894066 718.782708 453.111587 723.502682 453.111587 725.516537 C 453.391044 729.229583 454.508872 729.229583 456.297396 731.683969 C 458.085921 732.879695 459.986229 734.515953 461.886536 735.522881 C 463.563278 736.844473 465.463586 737.914334 467.475677 738.606596 C 469.655441 739.487658 471.499857 740.494586 473.120708 741.690312 C 475.18869 743.200704 475.076907 745.02576 476.306518 747.417213 C 476.027061 750.375063 475.524038 752.20012 473.791405 753.584645 C 473.008925 755.724366 471.388075 757.801155 469.99079 759.18568 C 468.481722 762.206463 466.693197 763.528056 470.605595 764.220318 C 472.78536 765.227246 474.01497 764.409117 476.306518 764.220318 " transform="matrix(-0.06989,0,0,0.06207,63.5,9.1)"/>
<path style="fill:none;stroke-width:1.8;stroke-linecap:butt;stroke-linejoin:miter;stroke:rgb(93.725491%,17.647059%,15.686275%);stroke-opacity:1;stroke-miterlimit:4;" d="M 480.621345 771.721942 C 482.186304 771.281411 487.60777 769.519288 490.0111 768.575293 L 498.78605 768.575293 C 502.083643 768.889958 502.810231 769.896885 505.604801 771.092612 C 507.505109 772.980601 508.678828 774.302194 511.305724 775.49792 C 512.591226 777.197111 515.274013 780.217894 516.280059 782.420548 C 517.11843 785.0008 517.509669 787.706918 517.509669 790.413036 C 517.509669 794.126082 516.503624 794.818345 516.280059 798.027927 C 515.609362 800.734045 514.32386 803.314297 512.479443 805.516951 C 512.311769 806.146281 511.920529 806.586812 511.305724 806.712677 " transform="matrix(-0.06989,0,0,0.06207,63.700001,8.9)"/>
<path style="fill:none;stroke-width:2.3;stroke-linecap:butt;stroke-linejoin:miter;stroke:rgb(93.725491%,17.647059%,15.686275%);stroke-opacity:1;stroke-miterlimit:4;" d="M 538.073749 817.972515 C 538.467365 817.972515 539.333321 819.965703 540.592894 821.719709 C 543.505656 824.669627 543.820549 824.90881 548.071608 824.90881 C 552.086496 824.669627 551.614156 823.314259 554.369471 822.437257 C 555.707768 820.364341 557.282234 818.769791 558.777976 816.138782 C 559.801379 814.464504 560.667335 811.992951 561.769462 810.478128 C 563.029034 808.564667 564.36733 807.2093 565.626903 805.535022 C 566.807753 804.976929 567.201369 804.498564 568.775835 804.179654 C 565.233287 804.817474 564.760947 806.093114 562.477971 808.006575 L 559.407763 813.587502 C 559.014146 816.298237 558.226913 818.371153 558.069467 821.719709 C 558.069467 825.22772 558.069467 827.619546 559.407763 830.489737 C 560.903505 832.00456 561.926908 833.59911 563.816267 834.87475 C 565.390733 836.469301 566.807753 838.143579 568.067326 839.897585 L 573.814126 843.565051 C 575.624762 844.681236 577.671568 845.797421 580.58433 846.116331 C 584.284325 845.797421 585.386451 844.760963 588.063043 843.565051 C 590.503466 841.890773 592.314102 840.774587 594.360907 839.180037 C 596.09282 837.744941 597.588563 836.070663 598.769412 834.23693 C 602.075791 833.439655 604.280043 833.678838 606.326849 835.512571 C 607.980038 836.708484 609.475781 838.223307 610.577907 839.897585 C 611.60131 840.37595 613.411946 841.890773 614.435349 842.369138 " transform="matrix(-0.04962,0,0,0.048995,54.75,19.4)"/>
<path style="fill:none;stroke-width:1.9;stroke-linecap:butt;stroke-linejoin:miter;stroke:rgb(93.725491%,17.647059%,15.686275%);stroke-opacity:1;stroke-miterlimit:4;" d="M 503.791661 836.101689 C 502.968492 836.421114 499.992422 838.52932 498.78933 839.16817 C 498.029483 841.915226 496.699749 843.320697 496.319825 846.195523 C 495.686619 848.878694 495.496657 851.75352 495.623298 854.883887 C 496.319825 858.078138 497.586238 860.377999 498.78933 862.869515 C 500.815591 864.274986 501.828721 865.297146 504.424867 866.702617 C 506.831051 867.149812 509.490518 867.405352 512.529908 867.405352 C 514.492848 867.980317 518.102124 868.299742 520.001744 867.405352 C 522.787852 867.022042 524.877433 865.872111 526.903693 864.913836 C 529.183236 863.57225 530.57629 862.29455 533.109115 861.080734 C 534.502169 859.355838 536.148506 857.503173 538.111446 855.522737 C 539.694461 853.414531 540.770912 852.200715 541.910684 849.900854 C 540.770912 852.456256 539.757782 854.947772 538.807973 857.375403 C 537.288277 859.994689 536.52843 861.016849 536.275147 864.211101 C 535.325338 866.830387 535.57862 870.024638 535.57862 873.027234 C 535.895223 875.00767 536.021865 878.776887 536.908353 880.501782 L 536.908353 882.418333 " transform="matrix(-0.06169,0,0,0.061145,55.700001,9.65)"/>
<path style="fill:none;stroke-width:1.2;stroke-linecap:butt;stroke-linejoin:miter;stroke:rgb(93.725491%,17.647059%,15.686275%);stroke-opacity:1;stroke-miterlimit:4;" d="M 541.317164 799.178582 L 541.317164 799.883045 C 541.435249 798.165916 541.199079 799.002466 540.608654 802.392696 C 539.506528 803.801623 536.593766 804.197884 534.389514 803.581479 C 532.382069 801.908378 532.382069 800.587509 528.800159 799.883045 C 525.218249 800.10319 523.80123 801.115856 521.793786 802.392696 C 519.707618 803.229247 517.936344 804.726232 516.794856 806.707535 C 516.086347 808.820926 515.69273 810.317911 518.093791 811.110432 C 520.179958 812.519359 522.581019 813.355909 525.100164 813.620083 C 527.894841 813.620083 529.981009 813.31188 531.319305 814.896923 C 533.287387 816.878227 533.090579 818.111038 533.090579 821.721413 C 533.799089 822.778108 533.917174 826.080281 534.389514 827.40115 C 536.121426 828.281729 538.050147 828.722019 540.018229 828.589932 C 540.687377 826.608628 541.395887 823.218398 541.907589 821.105007 C 542.41929 818.903559 542.498013 815.689444 543.796948 814.19246 C 544.938436 812.47533 546.394817 810.978345 548.087368 809.789563 C 549.11077 808.64481 550.449067 807.808259 551.905448 807.411999 C 549.386302 808.600781 549.11077 810.009708 548.795877 813.003678 C 550.882045 814.016344 551.511831 814.808865 555.015018 814.896923 C 558.518205 814.58872 559.305438 813.708141 560.604372 811.682808 C 560.919265 814.896923 561.903307 815.909589 562.611816 818.683414 C 563.792666 820.488602 564.304367 822.381847 565.603302 824.891499 C 565.0916 827.885468 563.910751 828.017555 563.792666 831.715988 C 563.005433 834.181611 563.005433 836.515146 561.312882 838.012131 C 560.486287 838.980768 559.895862 839.112855 558.085227 839.200913 C 561.706498 839.200913 563.910751 838.804652 566.311811 837.395725 C 567.965001 836.118885 569.61819 834.886074 571.310741 833.609234 C 573.554355 831.892104 576.112862 830.615264 578.789454 829.778714 C 581.702216 829.778714 583.788384 829.51454 585.008595 831.099583 C 586.740507 832.420452 588.00008 834.533842 588.787313 837.395725 C 589.299015 840.60984 589.613908 842.811288 588.118165 844.88065 C 587.094762 847.302243 586.819231 848.182822 588.118165 851.088734 C 589.613908 853.114066 591.700075 853.37824 595.085177 854.214791 C 597.486238 854.082704 599.572405 853.686443 601.304318 852.981979 " transform="matrix(-0.09924,0,0,0.08872,72.650002,-6.7)"/>
<path style="fill-rule:evenodd;fill:rgb(100%,100%,100%);fill-opacity:1;stroke-width:1.3;stroke-linecap:butt;stroke-linejoin:miter;stroke:rgb(93.725491%,17.647059%,15.686275%);stroke-opacity:1;stroke-miterlimit:4;" d="M 531.504956 359.584096 C 531.507713 194.406921 539.510886 60.187491 549.194129 60.211058 C 559.002686 60.189784 566.892154 194.410532 566.911255 359.605664 Z M 531.504956 359.584096 " transform="matrix(-0.14108,-0.0651409,-0.0458102,0.0792935,143.785231,41.297521)"/>
<path style="fill-rule:evenodd;fill:rgb(100%,100%,100%);fill-opacity:1;stroke-width:1.3;stroke-linecap:butt;stroke-linejoin:miter;stroke:rgb(93.725491%,17.647059%,15.686275%);stroke-opacity:1;stroke-miterlimit:4;" d="M 531.496287 359.612416 C 531.495035 194.415484 539.502709 60.207344 549.204738 60.178475 C 558.988732 60.205446 566.911086 194.389194 566.912337 359.586127 " transform="matrix(-0.112866,-0.0521132,-0.0441936,0.0764953,127.708351,35.158096)"/>
<path style="fill-rule:evenodd;fill:rgb(100%,100%,100%);fill-opacity:1;stroke-width:1.3;stroke-linecap:butt;stroke-linejoin:miter;stroke:rgb(93.725491%,17.647059%,15.686275%);stroke-opacity:1;stroke-miterlimit:4;" d="M 563.401657 301.197824 C 563.611926 320.10331 563.41182 341.395185 563.403056 361.408092 L 535.004188 361.37928 C 535.000323 341.405493 534.796798 320.077394 534.990161 301.208132 Z M 563.401657 301.197824 " transform="matrix(-0.14108,-0.0651409,-0.0455402,0.0788268,143.775309,41.333011)"/>
<path style="fill-rule:evenodd;fill:rgb(100%,100%,100%);fill-opacity:1;stroke-width:1.3;stroke-linecap:butt;stroke-linejoin:miter;stroke:rgb(93.725491%,17.647059%,15.686275%);stroke-opacity:1;stroke-miterlimit:4;" d="M 559.802094 304.714901 C 559.987108 323.698626 559.803835 337.818962 559.804301 357.889052 L 538.591123 357.901322 C 538.599886 337.888416 538.395553 323.596434 538.601543 304.688053 Z M 559.802094 304.714901 " transform="matrix(-0.14108,-0.0651409,-0.0455402,0.0788268,143.775309,41.333011)"/>
<path style="fill-rule:evenodd;fill:rgb(100%,100%,100%);fill-opacity:1;stroke-width:1.3;stroke-linecap:butt;stroke-linejoin:miter;stroke:rgb(93.725491%,17.647059%,15.686275%);stroke-opacity:1;stroke-miterlimit:4;" d="M 542.096438 311.788322 L 556.302186 311.783168 L 556.309407 350.788782 L 542.103659 350.793936 Z M 542.096438 311.788322 L 556.309407 350.788782 M 542.103659 350.793936 L 556.302186 311.783168 M 542.088429 113.413742 L 556.294177 113.408588 " transform="matrix(-0.14108,-0.0651409,-0.0455402,0.0788268,143.775309,41.333011)"/>
<path style="fill-rule:evenodd;fill:rgb(93.725491%,0%,0%);fill-opacity:1;stroke-width:1.3;stroke-linecap:butt;stroke-linejoin:miter;stroke:rgb(93.725491%,17.647059%,15.686275%);stroke-opacity:1;stroke-miterlimit:4;" d="M 549.19637 92.10755 C 549.197248 90.155041 547.64288 88.593762 545.704802 88.593017 C 543.766724 88.592272 542.206344 90.156331 542.205467 92.108841 C 542.198678 94.035159 543.776082 95.589817 545.691124 95.597183 C 547.629202 95.597929 549.189581 94.033869 549.19637 92.10755 Z M 549.19637 92.10755 " transform="matrix(-0.15924,0.0402567,0.0359398,0.140062,145.581478,-21.853376)"/>
<path style="fill-rule:evenodd;fill:rgb(100%,100%,100%);fill-opacity:1;stroke-width:1.3;stroke-linecap:butt;stroke-linejoin:miter;stroke:rgb(93.725491%,17.647059%,15.686275%);stroke-opacity:1;stroke-miterlimit:4;" d="M 538.599908 531.511553 C 540.298243 698.091682 563.408994 733.49018 542.108524 733.496972 C 520.808053 733.503764 510.202645 641.389425 510.200131 527.992427 C 510.197618 414.595429 524.396326 322.508433 545.696797 322.501641 C 566.997268 322.494849 536.695042 354.408904 538.599908 531.511553 Z M 538.599908 531.511553 " transform="matrix(0.16068,-0.06342,0.10079,0.101105,-90.75,30.4)"/>
<path style="fill-rule:evenodd;fill:rgb(100%,100%,100%);fill-opacity:1;stroke-width:1.2;stroke-linecap:butt;stroke-linejoin:miter;stroke:rgb(93.725491%,17.647059%,15.686275%);stroke-opacity:1;stroke-miterlimit:4;" d="M 545.717779 779.48883 L 485.415732 797.188475 C 542.096507 857.508159 605.901741 882.20841 623.614483 871.597429 C 641.287864 860.986448 591.692186 836.198139 545.599694 779.620917 Z M 545.717779 779.48883 " transform="matrix(0.09924,0,0,0.08872,9.55,-7)"/>
<path style="fill-rule:evenodd;fill:rgb(100%,100%,100%);fill-opacity:1;stroke-width:1.3;stroke-linecap:butt;stroke-linejoin:miter;stroke:rgb(93.725491%,17.647059%,15.686275%);stroke-opacity:1;stroke-miterlimit:4;" d="M 547.295232 786.900376 L 496.300224 801.598609 C 552.992773 861.902576 609.119608 878.981832 623.585704 871.60982 C 638.213432 864.283598 593.320045 843.58702 547.295232 786.900376 Z M 547.295232 786.900376 " transform="matrix(0.09667,0,0,0.08531,10.8,-4.4)"/>
<path style="fill:none;stroke-width:1.8;stroke-linecap:butt;stroke-linejoin:miter;stroke:rgb(93.725491%,17.647059%,15.686275%);stroke-opacity:1;stroke-miterlimit:4;" d="M 353.110681 634.200786 C 353.278355 635.522379 353.893161 641.312213 354.396183 643.5778 C 354.396183 646.787382 354.67564 649.178835 355.010989 651.696154 C 355.793468 653.898808 355.681686 655.912663 358.085016 656.730792 C 359.202844 658.681714 360.991369 660.255039 363.115242 661.073168 C 365.01555 662.646492 367.139423 663.905152 369.375079 664.912079 C 371.778409 665.919007 374.405305 666.107806 376.920418 665.478476 C 378.9884 663.905152 380.832816 662.457693 382.509558 661.073168 C 382.900798 659.122245 383.292038 656.227328 383.79506 654.213473 C 383.012581 656.856658 382.565449 659.625709 382.509558 662.39476 C 382.677232 665.415543 383.79506 666.800069 385.024671 669.191522 " transform="matrix(0.06989,0,0,0.06207,20.700001,9.85)"/>
<path style="fill:none;stroke-width:1.8;stroke-linecap:butt;stroke-linejoin:miter;stroke:rgb(93.725491%,17.647059%,15.686275%);stroke-opacity:1;stroke-miterlimit:4;" d="M 389.39539 681.690017 L 390.010195 681.123621 C 388.501127 682.571079 389.115933 681.878816 392.525308 679.802028 C 394.816855 678.732167 397.555534 677.914039 400.57367 677.410575 L 409.404511 677.410575 C 412.813887 677.410575 415.105434 677.914039 417.508764 678.606301 C 419.297289 680.431358 421.924185 681.375352 423.824493 683.01161 C 425.501235 684.270269 426.786737 686.032393 427.513325 687.983315 C 429.190067 689.682506 430.307895 692.325691 431.872854 693.58435 C 432.599442 696.479267 433.996727 696.416334 435.002773 698.618988 C 431.984637 698.807787 429.69309 699.185385 428.072239 701.073375 C 425.501235 702.394967 430.307895 699.814715 431.31394 698.618988 C 433.326031 697.989659 433.773162 697.423262 436.90308 697.423262 C 439.69765 696.416334 441.486175 698.115525 444.392528 698.618988 C 446.125161 699.625916 446.572293 699.877648 448.807949 699.877648 " transform="matrix(0.06989,0,0,0.06207,19.75,9.5)"/>
<path style="fill:none;stroke-width:1.8;stroke-linecap:butt;stroke-linejoin:miter;stroke:rgb(93.725491%,17.647059%,15.686275%);stroke-opacity:1;stroke-miterlimit:4;" d="M 438.121502 724.874624 C 439.407004 724.874624 445.21971 726.007417 447.511257 724.874624 C 450.082262 724.182361 451.479547 722.923701 453.100397 720.469315 C 453.882877 718.770125 453.100397 723.490098 453.100397 725.503954 C 453.379854 729.216999 454.497682 729.216999 456.286207 731.671385 C 458.074732 732.930045 459.97504 734.503369 461.875347 735.510297 C 463.552089 736.83189 465.452397 737.90175 467.520379 738.594013 C 469.644252 739.475075 471.488668 740.482002 473.109519 741.677729 C 475.177501 743.18812 475.121609 745.013177 476.295329 747.40463 C 476.015872 750.425413 475.512849 752.187536 473.780216 753.572062 C 472.997736 755.711783 471.376885 757.788571 469.9796 759.173097 C 468.526424 762.19388 466.682008 763.515472 470.594406 764.207735 C 472.77417 765.214663 474.003781 764.396534 476.295329 764.207735 " transform="matrix(0.06989,0,0,0.06207,18.700001,8.8)"/>
<path style="fill:none;stroke-width:1.8;stroke-linecap:butt;stroke-linejoin:miter;stroke:rgb(93.725491%,17.647059%,15.686275%);stroke-opacity:1;stroke-miterlimit:4;" d="M 480.610156 771.709343 C 482.175115 771.268812 487.596581 769.506689 489.999911 768.625627 L 498.774861 768.625627 C 502.072454 768.877359 502.799042 769.884286 505.593612 771.080013 C 507.49392 773.030935 508.72353 774.289595 511.294535 775.485322 C 512.580037 777.184512 515.318716 780.205295 516.324761 782.407949 C 517.10724 784.988201 517.49848 787.694319 517.49848 790.400437 C 517.49848 794.113483 516.492435 794.805746 516.324761 798.015328 C 515.598173 800.721446 514.31267 803.301698 512.524146 805.504352 C 512.30058 806.196615 511.90934 806.574213 511.294535 806.700079 " transform="matrix(0.06989,0,0,0.06207,18.5,8.6)"/>
<path style="fill:none;stroke-width:2.3;stroke-linecap:butt;stroke-linejoin:miter;stroke:rgb(93.725491%,17.647059%,15.686275%);stroke-opacity:1;stroke-miterlimit:4;" d="M 538.073749 818.036282 C 538.467365 818.036282 539.333321 820.02947 540.592894 821.703748 C 543.505656 824.733394 543.820549 824.892849 548.071608 824.892849 C 552.086496 824.733394 551.614156 823.298298 554.369471 822.421296 C 555.707768 820.428108 557.282234 818.833557 558.777976 816.122821 C 559.801379 814.528271 560.667335 811.97699 561.769462 810.462167 C 563.029034 808.628434 564.36733 807.193339 565.626903 805.51906 C 566.807753 804.960968 567.201369 804.482603 568.775835 804.163693 C 565.233287 804.801513 564.760947 806.077153 562.477971 807.990614 L 559.407763 813.57154 C 559.014146 816.282276 558.226913 818.434919 558.069467 821.703748 C 558.069467 825.211759 558.069467 827.603585 559.407763 830.473776 C 560.903505 831.988599 561.926908 833.583149 563.816267 834.938517 C 565.390733 836.45334 566.807753 838.127618 568.067326 839.881623 L 573.814126 843.628817 C 575.624762 844.665275 577.671568 845.78146 580.58433 846.10037 C 584.284325 845.78146 585.386451 844.82473 588.063043 843.628817 C 590.503466 841.874812 592.314102 840.838354 594.360907 839.164076 C 596.09282 837.808708 597.588563 836.054702 598.769412 834.220969 C 602.075791 833.423694 604.280043 833.662877 606.326849 835.49661 C 607.980038 836.692522 609.475781 838.207345 610.577907 839.881623 C 611.60131 840.439716 613.411946 841.874812 614.435349 842.432904 " transform="matrix(0.04962,0,0,0.048995,27.5,19.1)"/>
<path style="fill:none;stroke-width:1.9;stroke-linecap:butt;stroke-linejoin:miter;stroke:rgb(93.725491%,17.647059%,15.686275%);stroke-opacity:1;stroke-miterlimit:4;" d="M 503.778984 836.076125 C 503.019136 836.39555 499.979746 838.503756 498.776654 839.206492 C 498.016806 841.889663 496.687073 843.295133 496.307149 846.16996 C 495.673943 848.853131 495.483981 851.791842 495.610622 854.922208 C 496.307149 858.11646 497.573562 860.416321 498.776654 862.907837 C 500.802914 864.313307 501.816044 865.271583 504.41219 866.677053 C 506.818375 867.188133 509.477841 867.379789 512.517232 867.379789 C 514.480172 868.018639 518.089448 868.274179 519.989067 867.379789 C 522.775175 866.996478 524.928077 865.910433 526.891016 864.888272 C 529.170559 863.610572 530.626934 862.268986 533.096439 861.119056 C 534.489493 859.39416 536.135829 857.477609 538.098769 855.497173 C 539.681785 853.388968 540.821556 852.175152 541.898007 849.875291 C 540.758236 852.430692 539.745106 854.922208 538.795296 857.413724 C 537.275601 859.969125 536.515753 860.991286 536.325791 864.185537 C 535.312661 866.804823 535.629264 869.999075 535.629264 873.001671 C 535.882547 874.982107 536.009188 878.815208 536.895677 880.476219 L 536.895677 882.39277 " transform="matrix(0.06169,0,0,0.061145,26.5,9.3)"/>
<path style="fill:none;stroke-width:1.2;stroke-linecap:butt;stroke-linejoin:miter;stroke:rgb(93.725491%,17.647059%,15.686275%);stroke-opacity:1;stroke-miterlimit:4;" d="M 541.309274 799.213807 L 541.309274 799.918271 C 541.427359 798.157112 541.191189 798.993662 540.600765 802.383893 C 539.498638 803.79282 536.585876 804.18908 534.381624 803.616704 C 532.413541 801.899574 532.413541 800.578705 528.79227 799.918271 C 525.21036 800.094387 523.79334 801.107053 521.785896 802.383893 C 519.699729 803.220443 517.928454 804.761457 516.786967 806.698732 C 516.117819 808.812122 515.68484 810.309107 518.085901 811.101628 C 520.172068 812.510555 522.612491 813.347106 525.092275 813.611279 C 527.886952 813.611279 530.012481 813.303077 531.311415 814.888119 C 533.318859 816.913452 533.08269 818.102234 533.08269 821.712609 C 533.791199 822.813333 533.909284 826.115506 534.381624 827.392346 C 536.113537 828.272925 538.042257 828.713215 540.01034 828.581128 C 540.71885 826.599825 541.387998 823.209594 541.899699 821.096204 C 542.4114 818.894755 542.490124 815.680641 543.789058 814.183656 C 544.969908 812.466526 546.426289 811.01357 548.11884 809.780759 C 549.102881 808.636006 550.441177 807.799456 551.897558 807.403195 C 549.417774 808.591977 549.102881 810.000904 548.787988 812.994874 C 550.913517 814.00754 551.503941 814.800062 555.007128 814.888119 C 558.510315 814.579917 559.297548 813.699337 560.596483 811.718034 C 560.911376 814.888119 561.895417 815.900786 562.603927 818.71864 C 563.784776 820.479798 564.296478 822.417073 565.595412 824.882695 C 565.083711 827.920694 563.902861 828.008752 563.784776 831.707185 C 562.997543 834.216836 562.997543 836.506342 561.304992 838.003327 C 560.517759 839.015993 559.887973 839.104051 558.116699 839.192109 C 561.698609 839.192109 563.902861 838.795848 566.303922 837.386922 C 567.957111 836.15411 569.649662 834.87727 571.302851 833.60043 C 573.546465 831.883301 576.104972 830.606461 578.781565 829.813939 C 581.694327 829.813939 583.780494 829.505736 585.000705 831.090779 C 586.732618 832.411648 587.992191 834.525039 588.818785 837.386922 C 589.291125 840.601036 589.606018 842.802484 588.110276 844.915875 C 587.086873 847.293439 586.811341 848.218047 588.110276 851.07993 C 589.606018 853.105263 591.692186 853.413465 595.116649 854.205987 C 597.51771 854.0739 599.564516 853.677639 601.296428 853.017205 " transform="matrix(0.09924,0,0,0.08872,9.55,-7)"/>
<path style="fill-rule:evenodd;fill:rgb(100%,100%,100%);fill-opacity:1;stroke-width:1.3;stroke-linecap:butt;stroke-linejoin:miter;stroke:rgb(93.725491%,17.647059%,15.686275%);stroke-opacity:1;stroke-miterlimit:4;" d="M 531.490472 359.61161 C 531.505857 194.395546 539.496402 60.215005 549.192273 60.199683 C 559.00083 60.178409 566.890298 194.399157 566.909399 359.594288 Z M 531.490472 359.61161 " transform="matrix(0.14108,-0.0651409,0.0458102,0.0792935,-61.585229,40.997521)"/>
<path style="fill-rule:evenodd;fill:rgb(100%,100%,100%);fill-opacity:1;stroke-width:1.3;stroke-linecap:butt;stroke-linejoin:miter;stroke:rgb(93.725491%,17.647059%,15.686275%);stroke-opacity:1;stroke-miterlimit:4;" d="M 531.493967 359.600625 C 531.492715 194.403693 539.500389 60.195553 549.186633 60.206996 C 558.986411 60.193655 566.892981 194.417715 566.894233 359.614647 " transform="matrix(0.112866,-0.0521132,0.0441936,0.0764953,-45.508349,34.858096)"/>
<path style="fill-rule:evenodd;fill:rgb(100%,100%,100%);fill-opacity:1;stroke-width:1.3;stroke-linecap:butt;stroke-linejoin:miter;stroke:rgb(93.725491%,17.647059%,15.686275%);stroke-opacity:1;stroke-miterlimit:4;" d="M 563.399801 301.186382 C 563.610069 320.091867 563.409963 341.383743 563.4012 361.39665 L 534.989704 361.406957 C 534.998467 341.39405 534.804172 320.123133 534.988305 301.196689 Z M 563.399801 301.186382 " transform="matrix(0.14108,-0.0651409,0.0455402,0.0788268,-61.575307,41.033011)"/>
<path style="fill-rule:evenodd;fill:rgb(100%,100%,100%);fill-opacity:1;stroke-width:1.3;stroke-linecap:butt;stroke-linejoin:miter;stroke:rgb(93.725491%,17.647059%,15.686275%);stroke-opacity:1;stroke-miterlimit:4;" d="M 559.800238 304.703459 C 560.007109 323.705246 559.801979 337.80752 559.802445 357.877609 L 538.611124 357.907943 C 538.59803 337.876973 538.393697 323.584992 538.599687 304.67661 Z M 559.800238 304.703459 " transform="matrix(0.14108,-0.0651409,0.0455402,0.0788268,-61.575307,41.033011)"/>
<path style="fill-rule:evenodd;fill:rgb(100%,100%,100%);fill-opacity:1;stroke-width:1.3;stroke-linecap:butt;stroke-linejoin:miter;stroke:rgb(93.725491%,17.647059%,15.686275%);stroke-opacity:1;stroke-miterlimit:4;" d="M 542.094582 311.77688 L 556.287702 311.810846 L 556.294923 350.816459 L 542.101802 350.782493 Z M 542.094582 311.77688 L 556.294923 350.816459 M 542.101802 350.782493 L 556.287702 311.810846 M 542.086573 113.402299 L 556.292321 113.397146 " transform="matrix(0.14108,-0.0651409,0.0455402,0.0788268,-61.575307,41.033011)"/>
<path style="fill-rule:evenodd;fill:rgb(93.725491%,0%,0%);fill-opacity:1;stroke-width:1.3;stroke-linecap:butt;stroke-linejoin:miter;stroke:rgb(93.725491%,17.647059%,15.686275%);stroke-opacity:1;stroke-miterlimit:4;" d="M 549.190571 92.103641 C 549.197359 90.177322 547.637081 88.589852 545.699003 88.589107 C 543.760924 88.588362 542.206456 90.178612 542.199667 92.104931 C 542.192879 94.031249 543.770282 95.585908 545.70836 95.586653 C 547.623402 95.594019 549.206818 94.023338 549.190571 92.103641 Z M 549.190571 92.103641 " transform="matrix(0.15924,0.0402567,-0.0359398,0.140062,-63.381476,-22.153376)"/>
<path style="fill-rule:evenodd;fill:rgb(100%,100%,100%);fill-opacity:1;stroke-width:1.3;stroke-linecap:butt;stroke-linejoin:miter;stroke:rgb(93.725491%,17.647059%,15.686275%);stroke-opacity:1;stroke-miterlimit:4;" d="M 305.586413 396.921137 C 305.586413 520.906707 306.088287 567.621441 300.00676 574.005642 C 294.190931 580.918189 132.91238 574.005642 132.91238 609.404931 C 132.91238 644.80422 265.702225 680.379626 305.586413 680.379626 C 358.814535 680.379626 385.35479 644.936307 385.295747 574.005642 L 385.295747 397.009195 L 305.586413 397.009195 Z M 305.586413 396.921137 " transform="matrix(0.132317,0,0,0.08872,-4.512307,-7)"/>
<path style="fill-rule:evenodd;fill:rgb(100%,100%,100%);fill-opacity:1;stroke-width:1.3;stroke-linecap:butt;stroke-linejoin:miter;stroke:rgb(93.725491%,17.647059%,15.686275%);stroke-opacity:1;stroke-miterlimit:4;" d="M 265.817089 396.88037 L 265.817089 414.580192 C 300.967042 420.480132 336.864867 420.480132 372.01482 414.580192 L 372.01482 396.88037 C 336.864867 402.78031 300.967042 402.78031 265.817089 396.88037 Z M 265.817089 396.88037 " transform="matrix(0.09924,0,0,0.0887191,9.55,-3.859312)"/>
<path style="fill-rule:evenodd;fill:rgb(100%,100%,100%);fill-opacity:1;stroke-width:1.3;stroke-linecap:butt;stroke-linejoin:miter;stroke:rgb(93.725491%,17.647059%,15.686275%);stroke-opacity:1;stroke-miterlimit:4;" d="M 265.817089 396.881082 L 265.817089 414.580904 C 300.967042 420.480844 336.864867 420.480844 372.01482 414.580904 L 372.01482 396.881082 C 336.864867 402.781023 300.967042 402.781023 265.817089 396.881082 Z M 265.817089 396.881082 " transform="matrix(0.09924,0,0,0.0887191,9.55,-7)"/>
<path style="fill-rule:evenodd;fill:rgb(100%,100%,100%);fill-opacity:1;stroke-width:1.3;stroke-linecap:butt;stroke-linejoin:miter;stroke:rgb(93.725491%,17.647059%,15.686275%);stroke-opacity:1;stroke-miterlimit:4;" d="M 265.817089 396.880726 L 265.817089 414.580548 C 300.967042 420.480488 336.864867 420.480488 372.01482 414.580548 L 372.01482 396.880726 C 336.864867 402.780666 300.967042 402.780666 265.817089 396.880726 Z M 265.817089 396.880726 " transform="matrix(0.09924,0,0,0.0887191,9.55,-5.429656)"/>
<path style="fill-rule:evenodd;fill:rgb(100%,100%,100%);fill-opacity:1;stroke-width:1.3;stroke-linecap:butt;stroke-linejoin:miter;stroke:rgb(93.725491%,17.647059%,15.686275%);stroke-opacity:1;stroke-miterlimit:4;" d="M 265.817089 396.880017 L 265.817089 414.579839 C 300.967042 420.47978 336.864867 420.47978 372.01482 414.579839 L 372.01482 396.880017 C 336.864867 402.779958 300.967042 402.779958 265.817089 396.880017 Z M 265.817089 396.880017 " transform="matrix(0.09924,0,0,0.0887191,9.55,-2.288968)"/>
<path style="fill-rule:evenodd;fill:rgb(100%,100%,100%);fill-opacity:1;stroke-width:4.4;stroke-linecap:butt;stroke-linejoin:miter;stroke:rgb(93.725491%,17.647059%,15.686275%);stroke-opacity:1;stroke-miterlimit:4;" d="M 265.835663 210.772222 C 265.835663 196.078553 261.7945 184.139948 256.887373 184.139948 C 251.980247 184.139948 248.011247 196.078553 248.011247 210.772222 C 248.011247 225.465891 251.980247 237.404497 256.887373 237.404497 C 261.7945 237.404497 265.835663 225.465891 265.835663 210.772222 Z M 265.835663 210.772222 " transform="matrix(0.0541305,0,0,0.0127606,22.50082,27.982295)"/>
<path style="fill-rule:evenodd;fill:rgb(100%,100%,100%);fill-opacity:1;stroke-width:4.4;stroke-linecap:butt;stroke-linejoin:miter;stroke:rgb(93.725491%,17.647059%,15.686275%);stroke-opacity:1;stroke-miterlimit:4;" d="M 301.195842 246.183661 C 301.195842 231.489992 297.226842 219.551386 292.319715 219.551386 C 287.412589 219.551386 283.371425 231.489992 283.371425 246.183661 C 283.371425 260.87733 287.412589 272.815936 292.319715 272.815936 C 297.226842 272.815936 301.195842 260.87733 301.195842 246.183661 Z M 301.195842 246.183661 " transform="matrix(0.0541305,0,0,0.0127606,22.50082,27.698393)"/>
<path style="fill-rule:evenodd;fill:rgb(100%,100%,100%);fill-opacity:1;stroke-width:4.4;stroke-linecap:butt;stroke-linejoin:miter;stroke:rgb(93.725491%,17.647059%,15.686275%);stroke-opacity:1;stroke-miterlimit:4;" d="M 336.700347 264.130609 C 336.700347 249.43694 332.731348 237.498335 327.824221 237.498335 C 322.917094 237.498335 318.875931 249.43694 318.875931 264.130609 C 318.875931 278.824278 322.917094 290.456766 327.824221 290.456766 C 332.731348 290.456766 336.700347 278.824278 336.700347 264.130609 Z M 336.700347 264.130609 " transform="matrix(0.0541305,0,0,0.0127606,22.50082,27.64516)"/>
<path style="fill-rule:evenodd;fill:rgb(100%,100%,100%);fill-opacity:1;stroke-width:4.4;stroke-linecap:butt;stroke-linejoin:miter;stroke:rgb(93.725491%,17.647059%,15.686275%);stroke-opacity:1;stroke-miterlimit:4;" d="M 372.132689 264.130609 C 372.132689 249.43694 368.091526 237.498335 363.184399 237.498335 C 358.277272 237.498335 354.308273 249.43694 354.308273 264.130609 C 354.308273 278.824278 358.277272 290.456766 363.184399 290.456766 C 368.091526 290.456766 372.132689 278.824278 372.132689 264.130609 Z M 372.132689 264.130609 " transform="matrix(0.0541305,0,0,0.0127606,22.50082,27.64516)"/>
<path style="fill-rule:evenodd;fill:rgb(100%,100%,100%);fill-opacity:1;stroke-width:4.4;stroke-linecap:butt;stroke-linejoin:miter;stroke:rgb(93.725491%,17.647059%,15.686275%);stroke-opacity:1;stroke-miterlimit:4;" d="M 407.492867 246.183661 C 407.492867 231.489992 403.523868 219.551386 398.616741 219.551386 C 393.709614 219.551386 389.668451 231.489992 389.668451 246.183661 C 389.668451 260.87733 393.709614 272.815936 398.616741 272.815936 C 403.523868 272.815936 407.492867 260.87733 407.492867 246.183661 Z M 407.492867 246.183661 " transform="matrix(0.0541305,0,0,0.0127606,22.50082,27.698393)"/>
<path style="fill-rule:evenodd;fill:rgb(100%,100%,100%);fill-opacity:1;stroke-width:4.4;stroke-linecap:butt;stroke-linejoin:miter;stroke:rgb(93.725491%,17.647059%,15.686275%);stroke-opacity:1;stroke-miterlimit:4;" d="M 442.997373 210.772222 C 442.997373 196.078553 439.028373 184.139948 434.121247 184.139948 C 429.21412 184.139948 425.172957 196.078553 425.172957 210.772222 C 425.172957 225.465891 429.21412 237.404497 434.121247 237.404497 C 439.028373 237.404497 442.997373 225.465891 442.997373 210.772222 Z M 442.997373 210.772222 " transform="matrix(0.0541305,0,0,0.0127606,22.50082,27.982295)"/>
<path style="fill-rule:evenodd;fill:rgb(100%,100%,100%);fill-opacity:1;stroke-width:1.3;stroke-linecap:butt;stroke-linejoin:miter;stroke:rgb(93.725491%,17.647059%,15.686275%);stroke-opacity:1;stroke-miterlimit:4;" d="M 265.817089 485.41936 L 372.01482 581.094305 M 276.405373 485.41936 L 372.093543 570.395266 M 290.496844 488.985706 L 372.093543 559.916372 M 301.085127 488.897648 L 372.093543 549.217333 M 311.791496 488.985706 L 372.01482 538.606352 M 322.419141 488.985706 L 372.01482 527.995371 M 333.007425 488.985706 L 372.01482 517.296332 M 343.792517 488.985706 L 372.211628 510.207668 M 354.302078 488.985706 L 372.093543 503.207063 M 365.008446 488.985706 L 372.01482 495.986312 M 265.817089 495.986312 L 372.01482 591.793344 M 372.01482 485.507418 L 254.992636 591.705286 M 361.308451 485.41936 L 258.613908 577.616017 M 347.216981 488.985706 L 265.699004 559.784285 M 336.510612 488.985706 L 265.699004 549.217333 M 326.001052 488.985706 L 265.817089 538.606352 M 315.412768 488.985706 L 265.817089 527.995371 M 304.785122 488.985706 L 265.817089 517.296332 M 294.00003 488.985706 L 265.699004 510.207668 M 283.411747 488.985706 L 265.699004 503.207063 M 272.705378 488.985706 L 265.699004 495.986312 M 372.01482 495.986312 L 254.992636 602.492383 M 372.01482 506.817438 L 254.992636 613.015306 M 372.01482 517.296332 L 254.992636 623.582258 M 372.01482 527.907313 L 254.992636 634.413384 M 372.01482 538.69441 L 254.992636 644.892278 M 372.01482 549.217333 L 254.992636 655.503259 M 372.01482 559.784285 L 254.992636 666.11424 M 372.01482 570.483324 L 254.992636 676.813279 M 372.01482 581.094305 L 262.117094 680.291568 M 372.01482 591.705286 L 272.784101 680.291568 M 368.393548 605.882614 L 290.41812 676.813279 M 365.008446 620.015912 L 301.203212 676.681192 M 357.883988 637.715557 L 325.882967 665.982153 M 265.817089 506.597293 L 368.511633 598.705892 M 265.817089 517.208274 L 368.511633 609.404931 M 265.817089 527.995371 L 365.008446 616.493595 M 265.817089 538.518294 L 365.008446 627.192634 M 265.817089 549.217333 L 361.387174 634.193239 M 262.195818 556.305997 L 357.883988 641.281903 M 262.195818 567.005036 L 350.798891 644.980336 M 258.692631 574.005642 L 347.295704 651.980942 M 254.992636 581.006247 L 340.013799 655.415201 M 254.992636 591.617228 L 336.510612 662.503865 M 254.992636 602.316267 L 326.001052 665.982153 " transform="matrix(0.09924,0,0,0.08872,9.55,-7)"/>
<path style="fill-rule:evenodd;fill:rgb(100%,100%,100%);fill-opacity:1;stroke-width:1.3;stroke-linecap:butt;stroke-linejoin:miter;stroke:rgb(93.725491%,17.647059%,15.686275%);stroke-opacity:1;stroke-miterlimit:4;" d="M 265.817089 396.911746 L 265.817089 414.611568 C 300.967042 420.511509 336.864867 420.511509 372.01482 414.611568 L 372.01482 396.911746 C 336.864867 402.811687 300.967042 402.811687 265.817089 396.911746 Z M 265.817089 396.911746 " transform="matrix(0.09924,0,0,0.0887191,9.55,-0.709752)"/>
<path style="fill-rule:evenodd;fill:rgb(100%,100%,100%);fill-opacity:1;stroke-width:1.3;stroke-linecap:butt;stroke-linejoin:miter;stroke:rgb(93.725491%,17.647059%,15.686275%);stroke-opacity:1;stroke-miterlimit:4;" d="M 255.110721 613.015306 L 318.915955 669.680587 M 255.110721 623.714345 L 311.791496 673.202904 M 255.110721 634.193239 L 304.706399 676.813279 M 255.110721 644.80422 L 290.614929 676.813279 M 254.992636 655.503259 L 283.411747 680.291568 M 254.992636 666.11424 L 272.705378 680.291568 " transform="matrix(0.09924,0,0,0.08872,9.55,-7)"/>
<path style="fill-rule:evenodd;fill:rgb(100%,100%,100%);fill-opacity:1;stroke-width:4.4;stroke-linecap:butt;stroke-linejoin:miter;stroke:rgb(93.725491%,17.647059%,15.686275%);stroke-opacity:1;stroke-miterlimit:4;" d="M 265.835663 210.681697 C 265.835663 195.988029 261.7945 184.049423 256.887373 184.049423 C 251.980247 184.049423 248.011247 195.988029 248.011247 210.681697 C 248.011247 225.375366 251.980247 237.313972 256.887373 237.313972 C 261.7945 237.313972 265.835663 225.375366 265.835663 210.681697 Z M 265.835663 210.681697 " transform="matrix(0.0541305,0,0,0.0127606,22.50082,32.702201)"/>
<path style="fill-rule:evenodd;fill:rgb(100%,100%,100%);fill-opacity:1;stroke-width:4.4;stroke-linecap:butt;stroke-linejoin:miter;stroke:rgb(93.725491%,17.647059%,15.686275%);stroke-opacity:1;stroke-miterlimit:4;" d="M 301.195842 246.399466 C 301.195842 231.705798 297.226842 219.767192 292.319715 219.767192 C 287.412589 219.767192 283.371425 231.705798 283.371425 246.399466 C 283.371425 261.093135 287.412589 273.031741 292.319715 273.031741 C 297.226842 273.031741 301.195842 261.093135 301.195842 246.399466 Z M 301.195842 246.399466 " transform="matrix(0.0541305,0,0,0.0127606,22.50082,32.418295)"/>
<path style="fill-rule:evenodd;fill:rgb(100%,100%,100%);fill-opacity:1;stroke-width:4.4;stroke-linecap:butt;stroke-linejoin:miter;stroke:rgb(93.725491%,17.647059%,15.686275%);stroke-opacity:1;stroke-miterlimit:4;" d="M 336.700347 264.123156 C 336.700347 249.429487 332.731348 237.490881 327.824221 237.490881 C 322.917094 237.490881 318.875931 249.429487 318.875931 264.123156 C 318.875931 278.816825 322.917094 290.449313 327.824221 290.449313 C 332.731348 290.449313 336.700347 278.816825 336.700347 264.123156 Z M 336.700347 264.123156 " transform="matrix(0.0541305,0,0,0.0127606,22.50082,32.356193)"/>
<path style="fill-rule:evenodd;fill:rgb(100%,100%,100%);fill-opacity:1;stroke-width:4.4;stroke-linecap:butt;stroke-linejoin:miter;stroke:rgb(93.725491%,17.647059%,15.686275%);stroke-opacity:1;stroke-miterlimit:4;" d="M 372.132689 264.123156 C 372.132689 249.429487 368.091526 237.490881 363.184399 237.490881 C 358.277272 237.490881 354.308273 249.429487 354.308273 264.123156 C 354.308273 278.816825 358.277272 290.449313 363.184399 290.449313 C 368.091526 290.449313 372.132689 278.816825 372.132689 264.123156 Z M 372.132689 264.123156 " transform="matrix(0.0541305,0,0,0.0127606,22.50082,32.356193)"/>
<path style="fill-rule:evenodd;fill:rgb(100%,100%,100%);fill-opacity:1;stroke-width:4.4;stroke-linecap:butt;stroke-linejoin:miter;stroke:rgb(93.725491%,17.647059%,15.686275%);stroke-opacity:1;stroke-miterlimit:4;" d="M 407.492867 246.399466 C 407.492867 231.705798 403.523868 219.767192 398.616741 219.767192 C 393.709614 219.767192 389.668451 231.705798 389.668451 246.399466 C 389.668451 261.093135 393.709614 273.031741 398.616741 273.031741 C 403.523868 273.031741 407.492867 261.093135 407.492867 246.399466 Z M 407.492867 246.399466 " transform="matrix(0.0541305,0,0,0.0127606,22.50082,32.418295)"/>
<path style="fill-rule:evenodd;fill:rgb(100%,100%,100%);fill-opacity:1;stroke-width:4.4;stroke-linecap:butt;stroke-linejoin:miter;stroke:rgb(93.725491%,17.647059%,15.686275%);stroke-opacity:1;stroke-miterlimit:4;" d="M 442.997373 210.681697 C 442.997373 195.988029 439.028373 184.049423 434.121247 184.049423 C 429.21412 184.049423 425.172957 195.988029 425.172957 210.681697 C 425.172957 225.375366 429.21412 237.313972 434.121247 237.313972 C 439.028373 237.313972 442.997373 225.375366 442.997373 210.681697 Z M 442.997373 210.681697 " transform="matrix(0.0541305,0,0,0.0127606,22.50082,32.702201)"/>
<path style="fill-rule:evenodd;fill:rgb(100%,100%,100%);fill-opacity:1;stroke-width:1.3;stroke-linecap:butt;stroke-linejoin:miter;stroke:rgb(93.725491%,17.647059%,15.686275%);stroke-opacity:1;stroke-miterlimit:4;" d="M 113.408783 651.980942 L 240.901165 577.616017 M 106.284324 648.414596 L 226.809695 577.616017 M 102.781137 641.281903 L 212.600139 577.616017 M 99.199227 634.281297 L 194.887397 577.616017 M 91.996045 627.192634 L 180.599118 577.616017 M 95.617317 616.581653 L 155.801279 581.094305 M 91.996045 609.404931 L 138.009814 581.094305 M 91.996045 598.79395 L 123.997066 581.094305 M 123.997066 655.503259 L 244.404352 584.616623 M 134.703435 658.981548 L 247.986262 591.705286 M 145.291719 662.591923 L 251.607534 598.79395 M 155.919364 666.11424 L 244.483075 613.015306 M 170.010835 666.11424 L 247.986262 620.10397 M 180.599118 669.680587 L 247.907539 630.714951 M 191.187402 673.202904 L 244.404352 641.281903 M 205.396957 673.290962 L 247.907539 648.414596 M 219.606513 676.813279 L 247.986262 658.981548 M 234.012877 676.813279 L 251.686257 666.202298 " transform="matrix(0.09924,0,0,0.08872,9.55,-7)"/>
<path style="fill-rule:evenodd;fill:rgb(100%,100%,100%);fill-opacity:1;stroke-width:1.3;stroke-linecap:butt;stroke-linejoin:miter;stroke:rgb(93.725491%,17.647059%,15.686275%);stroke-opacity:1;stroke-miterlimit:4;" d="M 265.793712 396.890067 L 265.793712 414.602986 C 300.972856 420.507293 336.856464 420.507293 371.99158 414.602986 L 371.99158 396.890067 C 336.856464 402.794373 300.972856 402.794373 265.793712 396.890067 Z M 265.793712 396.890067 " transform="matrix(0,0.08872,-0.099239,0,74.601819,20.352375)"/>
<path style="fill-rule:evenodd;fill:rgb(100%,100%,100%);fill-opacity:1;stroke-width:1.3;stroke-linecap:butt;stroke-linejoin:miter;stroke:rgb(93.725491%,17.647059%,15.686275%);stroke-opacity:1;stroke-miterlimit:4;" d="M 49.603549 623.582258 L 92.11413 588.182969 M 49.603549 598.79395 L 92.11413 641.281903 " transform="matrix(0.09924,0,0,0.08872,9.55,-7)"/>
<path style="fill-rule:evenodd;fill:rgb(100%,100%,100%);fill-opacity:1;stroke-width:1.3;stroke-linecap:butt;stroke-linejoin:miter;stroke:rgb(93.725491%,17.647059%,15.686275%);stroke-opacity:1;stroke-miterlimit:4;" d="M 260.133409 387.989001 L 265.694992 414.607316 C 301.219604 420.511563 330.974073 420.511563 366.498685 414.607316 L 377.621851 387.989001 C 342.166759 393.893248 295.588501 393.893248 260.133409 387.989001 Z M 260.133409 387.989001 " transform="matrix(0,0.056189,-0.079392,0,51.60791,29.934135)"/>
<path style="fill-rule:evenodd;fill:rgb(100%,100%,100%);fill-opacity:1;stroke-width:1.3;stroke-linecap:butt;stroke-linejoin:miter;stroke:rgb(93.725491%,17.647059%,15.686275%);stroke-opacity:1;stroke-miterlimit:4;" d="M 258.703084 350.821744 L 258.703084 332.901954 C 248.010839 333.07807 240.891432 322.379031 240.891432 311.679992 L 205.504564 311.812079 C 205.504564 322.379031 198.490241 333.07807 187.797995 333.07807 L 187.797995 350.821744 Z M 258.703084 350.821744 " transform="matrix(0.148691,0,0,0.08872,8.001856,-2.288968)"/>
<path style="fill-rule:evenodd;fill:rgb(100%,100%,100%);fill-opacity:1;stroke-width:1.4;stroke-linecap:butt;stroke-linejoin:miter;stroke:rgb(93.725491%,17.647059%,15.686275%);stroke-opacity:1;stroke-miterlimit:4;" d="M 296.007475 343.690116 L 341.588265 343.690116 L 341.588265 365.000136 L 296.007475 365.000136 Z M 299.904278 322.380096 L 337.809546 322.380096 L 337.809546 343.690116 L 299.786193 343.690116 Z M 299.904278 301.202163 L 337.809546 301.202163 L 337.809546 322.380096 L 299.786193 322.380096 Z M 303.682996 272.803479 L 333.991466 272.803479 L 333.991466 301.202163 L 303.682996 301.202163 Z M 302.384062 248.015171 L 335.408486 248.015171 L 335.408486 272.803479 L 302.384062 272.803479 Z M 302.384062 248.015171 " transform="matrix(0.09924,0,0,0.08872,9.55,-7)"/>
<path style="fill-rule:evenodd;fill:rgb(100%,100%,100%);fill-opacity:1;stroke-width:1.3;stroke-linecap:butt;stroke-linejoin:miter;stroke:rgb(93.725491%,17.647059%,15.686275%);stroke-opacity:1;stroke-miterlimit:4;" d="M 279.914925 161.188022 C 279.914925 142.607798 260.868351 127.505862 237.402973 127.505862 C 213.937595 127.505862 194.891022 142.607798 194.891022 161.188022 C 194.891022 179.812275 213.937595 194.91421 237.402973 194.91421 C 260.868351 194.91421 279.914925 179.812275 279.914925 161.188022 Z M 279.914925 161.188022 " transform="matrix(0.102545,0,0,0.08872,17.022772,-1.339664)"/>
<path style="fill-rule:evenodd;fill:rgb(100%,100%,100%);fill-opacity:1;stroke-width:1.3;stroke-linecap:butt;stroke-linejoin:miter;stroke:rgb(93.725491%,17.647059%,15.686275%);stroke-opacity:1;stroke-miterlimit:4;" d="M 258.697042 159.382834 C 258.697042 168.716975 269.286937 184.215171 269.286937 184.215171 C 261.592121 190.379227 249.097569 194.91421 237.402973 194.91421 C 225.708378 194.91421 211.118703 192.316501 205.51901 184.215171 C 205.51901 184.215171 216.108905 168.805033 216.108905 159.514921 C 216.108905 150.18078 205.51901 138.204901 205.51901 138.204901 C 214.775645 131.42444 225.97503 127.681978 237.517253 127.59392 C 249.097569 127.59392 261.515935 132.084875 269.286937 138.204901 C 269.286937 138.204901 258.697042 150.18078 258.697042 159.514921 Z M 258.697042 159.382834 " transform="matrix(0.102545,0,0,0.08872,17.022772,-1.339664)"/>
<path style="fill-rule:evenodd;fill:rgb(100%,100%,100%);fill-opacity:1;stroke-width:1.3;stroke-linecap:butt;stroke-linejoin:miter;stroke:rgb(93.725491%,17.647059%,15.686275%);stroke-opacity:1;stroke-miterlimit:4;" d="M 251.611717 159.382834 C 251.611717 168.716975 262.201612 187.781518 262.201612 187.781518 C 254.506796 193.813486 249.211849 194.782123 237.402973 194.782123 C 225.594098 194.782123 218.204028 195.882848 212.604335 187.781518 C 212.604335 187.781518 223.19423 168.805033 223.19423 159.382834 C 223.19423 150.004664 212.604335 134.594526 212.604335 134.594526 C 220.299151 128.606586 225.594098 127.59392 237.402973 127.59392 C 249.097569 127.59392 254.506796 128.606586 262.201612 134.594526 C 262.201612 134.594526 251.611717 150.092722 251.611717 159.382834 Z M 251.611717 159.382834 " transform="matrix(0.102545,0,0,0.08872,17.022772,-1.339664)"/>
<path style="fill-rule:evenodd;fill:rgb(100%,100%,100%);fill-opacity:1;stroke-width:1.3;stroke-linecap:butt;stroke-linejoin:miter;stroke:rgb(93.725491%,17.647059%,15.686275%);stroke-opacity:1;stroke-miterlimit:4;" d="M 205.51901 166.50515 C 205.51901 160.649297 200.757367 155.894169 194.891022 155.894169 C 189.062771 155.894169 184.301128 160.649297 184.301128 166.50515 C 184.301128 172.361002 189.062771 177.116131 194.891022 177.116131 C 200.757367 177.116131 205.51901 172.361002 205.51901 166.50515 Z M 205.51901 166.50515 " transform="matrix(0.102545,0,0,0.08872,17.022772,-1.659056)"/>
<path style="fill-rule:evenodd;fill:rgb(100%,100%,100%);fill-opacity:1;stroke-width:1.3;stroke-linecap:butt;stroke-linejoin:miter;stroke:rgb(93.725491%,17.647059%,15.686275%);stroke-opacity:1;stroke-miterlimit:4;" d="M 205.513755 166.50515 C 205.513755 160.649297 200.752111 155.894169 194.885767 155.894169 C 189.057515 155.894169 184.295872 160.649297 184.295872 166.50515 C 184.295872 172.361002 189.057515 177.116131 194.885767 177.116131 C 200.752111 177.116131 205.513755 172.361002 205.513755 166.50515 Z M 205.513755 166.50515 " transform="matrix(0.102545,0,0,0.08872,25.745967,-1.659056)"/>
<path style="fill-rule:evenodd;fill:rgb(100%,100%,100%);fill-opacity:1;stroke-width:1.3;stroke-linecap:butt;stroke-linejoin:miter;stroke:rgb(93.725491%,17.647059%,15.686275%);stroke-opacity:1;stroke-miterlimit:4;" d="M 205.487037 166.50515 C 205.487037 160.649297 200.763487 155.894169 194.897143 155.894169 C 189.030798 155.894169 184.307248 160.649297 184.307248 166.50515 C 184.307248 172.361002 189.030798 177.116131 194.897143 177.116131 C 200.763487 177.116131 205.487037 172.361002 205.487037 166.50515 Z M 205.487037 166.50515 " transform="matrix(0.102545,0,0,0.08872,21.389332,-1.659056)"/>
<path style="fill-rule:evenodd;fill:rgb(100%,100%,100%);fill-opacity:1;stroke-width:1.3;stroke-linecap:butt;stroke-linejoin:miter;stroke:rgb(93.725491%,17.647059%,15.686275%);stroke-opacity:1;stroke-miterlimit:4;" d="M 205.487037 166.505862 C 205.487037 160.650009 200.763487 155.894881 194.897143 155.894881 C 189.030798 155.894881 184.307248 160.650009 184.307248 166.505862 C 184.307248 172.361715 189.030798 177.116843 194.897143 177.116843 C 200.763487 177.116843 205.487037 172.361715 205.487037 166.505862 Z M 205.487037 166.505862 " transform="matrix(0.102545,0,0,0.08872,21.389332,-4.799744)"/>
<path style="fill-rule:evenodd;fill:rgb(100%,100%,100%);fill-opacity:1;stroke-width:1.3;stroke-linecap:butt;stroke-linejoin:miter;stroke:rgb(93.725491%,17.647059%,15.686275%);stroke-opacity:1;stroke-miterlimit:4;" d="M 205.516395 166.510758 C 205.516395 160.654906 200.771812 155.899777 194.887058 155.899777 C 189.039083 155.899777 184.2945 160.654906 184.2945 166.510758 C 184.2945 172.366611 189.039083 177.121739 194.887058 177.121739 C 200.771812 177.121739 205.516395 172.366611 205.516395 166.510758 Z M 205.516395 166.510758 " transform="matrix(0.106207,0,0,0.08872,17.4892,13.121697)"/>
<path style="fill-rule:evenodd;fill:rgb(100%,100%,100%);fill-opacity:1;stroke-width:1.3;stroke-linecap:butt;stroke-linejoin:miter;stroke:rgb(93.725491%,17.647059%,15.686275%);stroke-opacity:1;stroke-miterlimit:4;" d="M 205.495439 166.510758 C 205.495439 160.654906 200.750856 155.899777 194.902881 155.899777 C 189.054907 155.899777 184.310323 160.654906 184.310323 166.510758 C 184.310323 172.366611 189.054907 177.121739 194.902881 177.121739 C 200.750856 177.121739 205.495439 172.366611 205.495439 166.510758 Z M 205.495439 166.510758 " transform="matrix(0.106207,0,0,0.08872,23.503144,13.121697)"/>
<path style="fill-rule:evenodd;fill:rgb(100%,100%,100%);fill-opacity:1;stroke-width:1.3;stroke-linecap:butt;stroke-linejoin:miter;stroke:rgb(93.725491%,17.647059%,15.686275%);stroke-opacity:1;stroke-miterlimit:4;" d="M 212.584081 311.812079 L 262.199916 311.812079 L 237.410389 343.689051 Z M 212.584081 311.812079 " transform="matrix(0.106207,0,0,0.08872,15.980752,-2.288968)"/>
<path style="fill-rule:evenodd;fill:rgb(100%,100%,100%);fill-opacity:1;stroke-width:1.3;stroke-linecap:butt;stroke-linejoin:miter;stroke:rgb(93.725491%,17.647059%,15.686275%);stroke-opacity:1;stroke-miterlimit:4;" d="M 205.502519 166.504455 C 205.502519 160.659464 200.758158 155.904216 194.910457 155.904216 C 189.035172 155.904216 184.290811 160.659464 184.290811 166.504455 C 184.290811 172.349447 189.035172 177.104694 194.910457 177.104694 C 200.758158 177.104694 205.502519 172.349447 205.502519 166.504455 Z M 205.502519 166.504455 " transform="matrix(0.141615,0,0,0.11829,13.589068,7.878344)"/>
<path style="fill-rule:evenodd;fill:rgb(100%,100%,100%);fill-opacity:1;stroke-width:1.2;stroke-linecap:butt;stroke-linejoin:miter;stroke:rgb(93.725491%,17.647059%,15.686275%);stroke-opacity:1;stroke-miterlimit:4;" d="M 266.501988 524.420221 L 339.399763 524.420221 C 341.761462 524.420221 343.690183 526.049293 343.690183 528.118654 L 343.690183 541.987779 C 343.690183 544.05714 341.761462 545.686212 339.399763 545.686212 L 266.501988 545.686212 C 264.140289 545.686212 262.211568 544.05714 262.211568 541.987779 L 262.211568 528.118654 C 262.211568 526.049293 264.140289 524.420221 266.501988 524.420221 Z M 266.501988 524.420221 " transform="matrix(0.09924,0,0,0.08872,9.4,-9.55)"/>
<path style="fill-rule:evenodd;fill:rgb(100%,100%,100%);fill-opacity:1;stroke-width:1.2;stroke-linecap:butt;stroke-linejoin:miter;stroke:rgb(93.725491%,17.647059%,15.686275%);stroke-opacity:1;stroke-miterlimit:4;" d="M 368.488022 506.720576 C 358.686971 506.720576 350.814641 514.998022 350.814641 525.212743 L 350.814641 541.283315 C 350.657195 546.126502 352.46783 550.749543 355.774209 554.227832 C 359.119949 557.70612 363.685901 559.731453 368.488022 559.819511 C 373.290143 559.731453 377.895456 557.70612 381.201835 554.227832 C 384.547575 550.749543 386.318849 546.126502 386.200764 541.283315 L 386.200764 525.3008 C 386.358211 520.457614 384.586936 515.790544 381.241196 512.268226 C 377.934818 508.789938 373.329505 506.764605 368.488022 506.720576 Z M 368.488022 513.721182 C 362.583774 513.721182 357.899738 520.413585 357.899738 528.602973 L 357.899738 537.893085 C 357.899738 546.082473 362.583774 552.686818 368.488022 552.686818 C 374.392269 552.686818 379.115667 546.082473 379.115667 537.893085 L 379.115667 528.602973 C 379.115667 520.413585 374.392269 513.80924 368.488022 513.80924 Z M 276.381762 510.198865 C 270.398791 510.198865 265.793478 516.80321 265.793478 525.080656 L 265.793478 541.50346 C 265.793478 549.692848 270.516876 556.297193 276.381762 556.297193 C 282.286009 556.297193 287.009407 549.692848 287.009407 541.50346 L 287.009407 524.992598 C 287.009407 516.715152 282.286009 510.110807 276.381762 510.110807 Z M 276.381762 503.198259 C 271.579641 503.286317 267.013689 505.267621 263.667949 508.745909 C 260.361571 512.224197 258.550935 516.891268 258.708381 521.690425 L 258.708381 544.893691 C 258.550935 549.692848 260.361571 554.359919 263.667949 557.838207 C 267.013689 561.316495 271.579641 563.341828 276.381762 563.385857 C 286.182813 563.385857 294.094504 555.108411 294.094504 544.893691 L 294.094504 521.690425 C 294.251951 516.891268 292.480677 512.180168 289.134936 508.70188 C 285.828558 505.179563 281.223245 503.198259 276.381762 503.110201 Z M 276.381762 503.198259 " transform="matrix(0.09924,0,0,0.08872,9.4,-9.55)"/>
<path style="fill-rule:evenodd;fill:rgb(100%,100%,100%);fill-opacity:1;stroke-width:1.2;stroke-linecap:butt;stroke-linejoin:miter;stroke:rgb(93.725491%,17.647059%,15.686275%);stroke-opacity:1;stroke-miterlimit:4;" d="M 248.002013 517.287528 C 242.097765 517.287528 237.413729 523.891874 237.413729 532.081261 L 237.413729 535.999839 C 237.413729 544.189227 242.097765 550.793572 248.002013 550.793572 C 253.984983 550.793572 258.708381 544.189227 258.708381 535.999839 L 258.708381 532.081261 C 258.708381 523.891874 253.90626 517.287528 248.002013 517.287528 Z M 248.002013 510.286923 C 243.199891 510.374981 238.594578 512.400313 235.2882 515.834573 C 231.94246 519.312861 230.171185 523.979931 230.28927 528.779089 L 230.28927 539.39007 C 230.171185 544.189227 231.94246 548.856298 235.2882 552.334586 C 238.594578 555.812875 243.199891 557.838207 248.002013 557.882236 C 257.803063 557.882236 265.793478 549.60479 265.793478 539.39007 L 265.793478 528.779089 C 265.950925 523.935903 264.179651 519.268832 260.83391 515.746515 C 257.448809 512.268226 252.843496 510.242894 248.002013 510.198865 Z M 248.002013 510.286923 " transform="matrix(0.09924,0,0,0.08872,9.4,-9.55)"/>
<path style="fill-rule:evenodd;fill:rgb(100%,100%,100%);fill-opacity:1;stroke-width:0.9;stroke-linecap:butt;stroke-linejoin:miter;stroke:rgb(93.725491%,17.647059%,15.686275%);stroke-opacity:1;stroke-miterlimit:4;" d="M 478.394188 237.395409 C 472.40247 237.395409 467.70094 244.013937 467.70094 252.208305 L 467.70094 268.715228 C 467.70094 276.791408 472.489941 283.488728 478.394188 283.488728 C 484.298436 283.488728 488.999966 276.909596 488.999966 268.59704 L 488.999966 252.208305 C 488.999966 244.013937 484.189098 237.395409 478.394188 237.395409 Z M 478.394188 230.382921 C 473.58332 230.461713 469.012995 232.431513 465.667255 235.898361 C 462.321514 239.325813 460.484637 243.974541 460.593975 248.780853 L 460.593975 271.985096 C 460.440902 276.830804 462.212176 281.518928 465.557917 285.025172 C 468.881789 288.49202 473.473982 290.540612 478.306718 290.619404 C 488.190866 290.619404 496.106931 282.306848 496.106931 271.985096 L 496.106931 248.780853 C 496.238137 243.974541 494.444995 239.325813 491.121122 235.858965 C 487.797249 232.392117 483.205057 230.382921 478.394188 230.304129 Z M 478.394188 230.382921 " transform="matrix(0.178632,0,0,0.0991535,-55.651819,11.937984)"/>
<path style="fill-rule:evenodd;fill:rgb(100%,100%,100%);fill-opacity:1;stroke-width:0.9;stroke-linecap:butt;stroke-linejoin:miter;stroke:rgb(93.725491%,17.647059%,15.686275%);stroke-opacity:1;stroke-miterlimit:4;" d="M 478.396979 237.415378 C 472.405261 237.415378 467.703731 243.99451 467.703731 252.188878 L 467.703731 268.695801 C 467.703731 276.811377 472.492732 283.508697 478.396979 283.508697 C 484.301227 283.508697 489.002757 276.890169 489.002757 268.617009 L 489.002757 252.188878 C 489.002757 243.99451 484.191889 237.415378 478.396979 237.415378 Z M 478.396979 230.40289 C 473.586111 230.442286 468.993918 232.412086 465.648178 235.878934 C 462.324305 239.345782 460.487428 243.99451 460.596766 248.800822 L 460.596766 272.005065 C 460.443693 276.811377 462.214967 281.499501 465.560707 285.005745 C 468.88458 288.511989 473.476773 290.521185 478.309509 290.599977 C 488.193657 290.599977 496.109722 282.287421 496.109722 272.005065 L 496.109722 248.800822 C 496.240927 243.99451 494.447785 239.345782 491.123913 235.839538 C 487.778172 232.37269 483.207847 230.363494 478.396979 230.284702 Z M 478.396979 230.40289 " transform="matrix(0.178632,0,0,0.0991535,-32.796849,12.248504)"/>
<path style="fill-rule:evenodd;fill:rgb(100%,100%,100%);fill-opacity:1;stroke-width:1.2;stroke-linecap:butt;stroke-linejoin:miter;stroke:rgb(93.725491%,17.647059%,15.686275%);stroke-opacity:1;stroke-miterlimit:4;" d="M 377.895456 524.420221 L 415.800724 524.420221 C 417.060297 524.420221 418.0837 526.049293 418.0837 528.118654 L 418.0837 541.987779 C 418.0837 544.05714 417.060297 545.686212 415.800724 545.686212 L 377.895456 545.686212 C 376.635883 545.686212 375.61248 544.05714 375.61248 541.987779 L 375.61248 528.118654 C 375.61248 526.049293 376.635883 524.420221 377.895456 524.420221 Z M 377.895456 524.420221 " transform="matrix(0.09924,0,0,0.08872,9.4,-9.55)"/>
<path style="fill-rule:evenodd;fill:rgb(100%,100%,100%);fill-opacity:1;stroke-width:1.2;stroke-linecap:butt;stroke-linejoin:miter;stroke:rgb(93.725491%,17.647059%,15.686275%);stroke-opacity:1;stroke-miterlimit:4;" d="M 337.90402 520.897904 L 360.10399 520.897904 C 360.8125 520.897904 361.402925 523.099352 361.402925 525.785119 L 361.402925 544.409372 C 361.402925 547.095139 360.8125 549.296587 360.10399 549.296587 L 337.90402 549.296587 C 337.19551 549.296587 336.605086 547.095139 336.605086 544.409372 L 336.605086 525.785119 C 336.605086 523.099352 337.19551 520.897904 337.90402 520.897904 Z M 337.90402 520.897904 " transform="matrix(0.09924,0,0,0.08872,9.4,-9.55)"/>
<path style="fill-rule:evenodd;fill:rgb(100%,100%,100%);fill-opacity:1;stroke-width:1.2;stroke-linecap:butt;stroke-linejoin:miter;stroke:rgb(93.725491%,17.647059%,15.686275%);stroke-opacity:1;stroke-miterlimit:4;" d="M 220.999921 520.897904 L 243.199891 520.897904 C 243.908401 520.897904 244.498826 523.099352 244.498826 525.785119 L 244.498826 544.409372 C 244.498826 547.095139 243.908401 549.296587 243.199891 549.296587 L 220.999921 549.296587 C 220.291411 549.296587 219.700987 547.095139 219.700987 544.409372 L 219.700987 525.785119 C 219.700987 523.099352 220.291411 520.897904 220.999921 520.897904 Z M 220.999921 520.897904 " transform="matrix(0.09924,0,0,0.08872,9.4,-9.55)"/>
<path style="fill-rule:evenodd;fill:rgb(100%,100%,100%);fill-opacity:1;stroke-width:1.2;stroke-linecap:butt;stroke-linejoin:miter;stroke:rgb(93.725491%,17.647059%,15.686275%);stroke-opacity:1;stroke-miterlimit:4;" d="M 144.284066 517.287528 L 188.684007 517.287528 C 190.140388 517.287528 191.281876 520.017324 191.281876 523.407555 L 191.281876 546.61082 C 191.281876 549.957022 190.140388 552.686818 188.684007 552.686818 L 144.284066 552.686818 C 142.867047 552.686818 141.686197 549.957022 141.686197 546.61082 L 141.686197 523.407555 C 141.686197 520.017324 142.867047 517.287528 144.284066 517.287528 Z M 144.284066 517.287528 " transform="matrix(0.09924,0,0,0.08872,9.4,-9.55)"/>
<path style="fill-rule:evenodd;fill:rgb(100%,100%,100%);fill-opacity:1;stroke-width:1.2;stroke-linecap:butt;stroke-linejoin:miter;stroke:rgb(93.725491%,17.647059%,15.686275%);stroke-opacity:1;stroke-miterlimit:4;" d="M 452.485782 520.897904 L 493.618705 520.897904 C 494.996363 520.897904 496.098489 523.6277 496.098489 527.01793 L 496.098489 550.221196 C 496.098489 553.567397 494.996363 556.297193 493.618705 556.297193 L 452.485782 556.297193 C 451.108124 556.297193 450.005998 553.567397 450.005998 550.221196 L 450.005998 527.01793 C 450.005998 523.6277 451.108124 520.897904 452.485782 520.897904 Z M 452.485782 520.897904 " transform="matrix(0.09924,0,0,0.08872,9.4,-9.55)"/>
</g>
</svg>
