<?xml version="1.0" encoding="UTF-8"?>
<svg xmlns="http://www.w3.org/2000/svg" xmlns:xlink="http://www.w3.org/1999/xlink" width="px" height="px" viewBox="0 0 320 240" version="1.1">
<g id="surface1">
<path style=" stroke:none;fill-rule:evenodd;fill:rgb(0%,0%,0.392157%);fill-opacity:1;" d="M 0.800781 0 L 0.550781 240 L 320.550781 240 Z M 0.800781 0 "/>
<path style=" stroke:none;fill-rule:evenodd;fill:rgb(100%,0%,0%);fill-opacity:1;" d="M 320.300781 240 L 320.550781 0 L 0.550781 0 Z M 320.300781 240 "/>
<path style="fill-rule:nonzero;fill:rgb(100%,80.000001%,0%);fill-opacity:1;stroke-width:1.1;stroke-linecap:butt;stroke-linejoin:miter;stroke:rgb(100%,80.000001%,0%);stroke-opacity:1;stroke-miterlimit:4;" d="M 178.000787 54.000249 L 174.199923 53.798926 C 172.999835 51.001608 169.698715 49.99853 167.601201 51.199398 L 156.001528 51.001608 L 163.099993 54.099144 C 165.000425 59.001514 171.000863 60.001061 171.000863 60.001061 C 170.399059 68.799192 162.100507 58.899087 155.100582 63.900353 C 150.099631 66.898993 150.099631 70.399173 147.400314 76.198663 C 146.499368 77.798644 143.001166 82.001686 143.001166 82.001686 L 148.899543 81.500146 L 146.999112 84.000779 L 153.999036 83.001232 L 152.499806 84.399891 C 153.499292 84.601214 160.499217 82.701015 160.499217 82.701015 L 159.999473 85.000326 L 167.998884 82.100581 C 167.998884 82.100581 169.600174 83.400345 171.000863 84.000779 L 172.000349 79.99906 L 175.998295 80.998607 L 177.0013 77.00042 C 183.001738 85.000326 185.000711 93.000232 195.998581 94.999325 L 194.999094 91.001138 L 203.698849 94.999325 L 204.599795 93.300449 C 209.400145 96.701734 213.29955 96.599307 215.998867 96.998419 L 213.999894 92.000685 L 215.998867 93.000232 L 213.000408 85.000326 L 215.998867 85.999873 L 212.000921 79.99906 L 213.500151 78.999513 L 213.000408 76.000873 C 219.000845 77.999967 227.000256 80.998607 227.999742 87.998966 C 228.999229 99.001044 216.998353 101.999685 208.998943 101.000138 C 214.99938 106.001404 226.00077 103.998778 231.001721 99.001044 C 233.000694 96.998419 234.00018 93.999779 234.999667 91.001138 C 235.999153 93.999779 238.001645 98.001498 238.001645 101.999685 C 236.998639 110.999137 225.001283 114.00131 216.998353 115.000856 C 226.00077 119.99859 241.999591 114.00131 242.999077 101.000138 C 242.999077 90.001592 235.999153 85.000326 233.000694 79.99906 L 232.001207 74.598682 L 234.999667 76.000873 C 234.999667 76.000873 233.201295 72.698484 233.000694 71.999154 C 233.000694 71.999154 229.900174 63.501241 228.798628 61.601042 L 231.001721 62.000155 L 222.801709 51.700938 L 225.099824 51.499616 C 225.099824 51.499616 215.601184 44.001249 213.000408 43.001702 L 215.998867 41.998624 C 209.998429 38.999983 202.998505 40.999077 197.001586 45.000796 L 198.001073 41.998624 L 196.199182 42.199946 L 196.199182 38.699766 L 198.001073 36.001343 L 194.999094 34.998264 L 197.001586 30.000531 L 193.999608 31.000077 L 194.999094 25.998812 C 194.999094 25.998812 192.79952 26.998358 191.398832 26.899463 L 193.000122 23.501711 C 192.000635 22.000625 193.000122 18.998452 193.000122 18.998452 C 186.000197 20.001531 185.000711 21.001078 180.999246 26.998358 C 174.998808 38.000437 177.0013 43.001702 178.000787 54.000249 Z M 178.000787 54.000249 " transform="matrix(1.109945,0,0,1.10597,0.55,0)"/>
<path style="fill-rule:evenodd;fill:rgb(100%,0%,0%);fill-opacity:1;stroke-width:1.4;stroke-linecap:butt;stroke-linejoin:miter;stroke:rgb(100%,0%,0%);stroke-opacity:1;stroke-miterlimit:4;" d="M 215.798266 70.399173 C 216.301528 71.299825 221.999305 73.998248 226.201371 76.399985 C 225.099824 71.801364 216.801271 70.798285 215.798266 70.399173 Z M 215.798266 70.399173 " transform="matrix(1.109945,0,0,1.10597,0.55,0)"/>
<path style=" stroke:none;fill-rule:evenodd;fill:rgb(100%,100%,100%);fill-opacity:1;" d="M 87.5 199.5 L 80.398438 195 L 70.898438 199.550781 L 73.050781 191.449219 L 65.800781 183.898438 L 74.148438 183.398438 L 79.148438 174.199219 L 82.199219 181.949219 L 92.550781 183.851562 L 86.050781 189.148438 Z M 105.601562 160 L 102.300781 158.5 L 99.148438 160.300781 L 99.648438 156.699219 L 96.949219 154.25 L 100.5 153.601562 L 102 150.300781 L 103.75 153.5 L 107.351562 153.898438 L 104.851562 156.5 Z M 121.601562 137.398438 L 114.351562 133.898438 L 107.398438 137.800781 L 108.550781 129.949219 L 102.648438 124.550781 L 110.5 123.148438 L 113.800781 115.949219 L 117.601562 122.949219 L 125.5 123.851562 L 120 129.601562 Z M 88.699219 105.898438 L 80.199219 101.648438 L 71.949219 106.199219 L 73.351562 96.898438 L 66.449219 90.398438 L 75.800781 88.898438 L 79.800781 80.398438 L 84.148438 88.75 L 93.550781 89.898438 L 86.898438 96.601562 Z M 58.300781 138.601562 L 49.800781 133.601562 L 41.300781 138.75 L 43.449219 129.101562 L 35.898438 122.601562 L 45.75 121.699219 L 49.601562 112.550781 L 53.550781 121.648438 L 63.449219 122.449219 L 56 128.949219 Z M 58.300781 138.601562 "/>
</g>
</svg>
