<?xml version="1.0" encoding="UTF-8"?>
<svg xmlns="http://www.w3.org/2000/svg" xmlns:xlink="http://www.w3.org/1999/xlink" width="px" height="px" viewBox="0 0 320 240" version="1.1">
<g id="surface1">
<path style=" stroke:none;fill-rule:nonzero;fill:rgb(0%,21.960784%,65.882355%);fill-opacity:1;" d="M 0 0 L 320 0 L 320 120 L 0 120 Z M 0 0 "/>
<path style=" stroke:none;fill-rule:nonzero;fill:rgb(80.784315%,6.666667%,14.901961%);fill-opacity:1;" d="M 0 120 L 320 120 L 320 240 L 0 240 Z M 0 120 "/>
<path style=" stroke:none;fill-rule:nonzero;fill:rgb(100%,100%,100%);fill-opacity:1;" d="M 207.851562 120 L 0 240 L 0 0 "/>
<path style=" stroke:none;fill-rule:nonzero;fill:rgb(98.823529%,81.960785%,8.627451%);fill-opacity:1;" d="M 13.351562 21.199219 L 20.5 27.5 L 28.800781 22.898438 L 25.101562 31.648438 L 32.101562 38.148438 L 22.601562 37.351562 L 18.550781 45.949219 L 16.398438 36.699219 L 7 35.5 L 15.148438 30.5 Z M 175.25 107.351562 L 175.449219 116.851562 L 184.449219 120 L 175.449219 123.101562 L 175.25 132.601562 L 169.5 125.050781 L 160.398438 127.800781 L 165.800781 120 L 160.398438 112.199219 L 169.5 114.949219 Z M 18.601562 194.050781 L 22.601562 202.648438 L 32.101562 201.851562 L 25.148438 208.351562 L 28.851562 217.101562 L 20.550781 212.550781 L 13.351562 218.75 L 15.148438 209.398438 L 7 204.5 L 16.449219 203.300781 Z M 75.699219 69.550781 L 72.601562 72.648438 L 74.148438 96.148438 L 72.648438 96.300781 L 69.800781 74.851562 L 67.25 77.351562 L 71.050781 96.550781 C 67.980469 97.160156 65.058594 98.367188 62.449219 100.101562 L 51.601562 83.898438 L 48 83.898438 L 61.199219 101.050781 L 60 102.050781 L 44.449219 84.300781 L 40.050781 84.300781 L 40.050781 88.699219 L 57.75 104.199219 L 56.75 105.449219 L 39.601562 92.300781 L 39.601562 95.851562 L 55.851562 106.699219 C 54.117188 109.300781 52.933594 112.167969 52.300781 115.300781 L 33.148438 111.5 L 30.601562 114 L 52.050781 116.851562 C 51.949219 117.382812 51.898438 117.898438 51.898438 118.398438 L 28.398438 116.898438 L 25.300781 120 L 28.398438 123.101562 L 51.898438 121.550781 L 52.050781 123.101562 L 30.601562 125.949219 L 33.101562 128.449219 L 52.300781 124.648438 C 52.910156 127.722656 54.117188 130.640625 55.851562 133.25 L 39.601562 144.101562 L 39.601562 147.699219 L 56.75 134.550781 L 57.75 135.75 L 40.050781 151.25 L 40.050781 155.648438 L 44.5 155.648438 L 60 137.949219 L 61.25 138.949219 L 48 156.101562 L 51.601562 156.101562 L 62.449219 139.851562 C 65.050781 141.582031 67.917969 142.765625 71.050781 143.398438 L 67.25 162.601562 L 69.75 165.101562 L 72.601562 143.648438 C 73.101562 143.75 73.617188 143.800781 74.148438 143.800781 L 72.648438 167.300781 L 75.699219 170.398438 L 78.851562 167.300781 L 77.300781 143.800781 L 78.800781 143.648438 L 81.648438 165.148438 L 84.199219 162.601562 L 80.398438 143.398438 C 83.472656 142.789062 86.390625 141.582031 89 139.851562 L 99.851562 156.101562 L 103.449219 156.101562 L 90.25 138.949219 L 91.449219 137.949219 L 107 155.648438 L 111.398438 155.648438 L 111.398438 151.25 L 93.699219 135.75 L 94.699219 134.550781 L 111.851562 147.699219 L 111.851562 144.101562 L 95.601562 133.25 C 97.332031 130.648438 98.515625 127.785156 99.148438 124.648438 L 118.300781 128.449219 L 120.851562 125.949219 L 99.398438 123.101562 C 99.5 122.601562 99.550781 122.082031 99.550781 121.550781 L 123.050781 123.050781 L 126.148438 120 L 123.050781 116.898438 L 99.550781 118.398438 L 99.398438 116.898438 L 120.851562 114.050781 L 118.351562 111.550781 L 99.148438 115.300781 C 98.539062 112.230469 97.332031 109.308594 95.601562 106.699219 L 111.851562 95.851562 L 111.851562 92.300781 L 94.699219 105.449219 L 93.699219 104.25 L 111.398438 88.75 L 111.398438 84.300781 L 107 84.300781 L 91.5 102.050781 L 90.25 101.050781 L 103.449219 83.898438 L 99.851562 83.898438 L 89 100.101562 C 86.398438 98.367188 83.535156 97.183594 80.398438 96.550781 L 84.199219 77.398438 L 81.699219 74.898438 L 78.851562 96.300781 L 77.300781 96.148438 L 78.800781 72.648438 Z M 75.699219 69.550781 "/>
</g>
</svg>
