<?xml version="1.0" encoding="UTF-8"?>
<svg xmlns="http://www.w3.org/2000/svg" xmlns:xlink="http://www.w3.org/1999/xlink" width="px" height="px" viewBox="0 0 320 240" version="1.1">
<g id="surface1">
<path style=" stroke:none;fill-rule:nonzero;fill:rgb(0%,21.960784%,65.882355%);fill-opacity:1;" d="M 0 159.851562 L 320 159.851562 L 320 240 L 0 240 Z M 0 159.851562 "/>
<path style=" stroke:none;fill-rule:nonzero;fill:rgb(100%,100%,100%);fill-opacity:1;" d="M 0 80 L 320 80 L 320 160 L 0 160 Z M 0 80 "/>
<path style=" stroke:none;fill-rule:nonzero;fill:rgb(83.529413%,16.862746%,11.764706%);fill-opacity:1;" d="M 0 0 L 320 0 L 320 80 L 0 80 Z M 0 0 "/>
<path style="fill:none;stroke-width:1.1;stroke-linecap:butt;stroke-linejoin:miter;stroke:rgb(0%,0%,0%);stroke-opacity:1;stroke-miterlimit:4;" d="M 342.197753 164.999481 C 342.197753 141.694379 323.307676 122.79893 300.002573 122.79893 C 276.6921 122.79893 257.802023 141.694379 257.802023 164.999481 C 257.802023 188.304584 276.6921 207.200032 300.002573 207.200032 C 323.307676 207.200032 342.197753 188.304584 342.197753 164.999481 Z M 342.197753 164.999481 " transform="matrix(0.727275,0,0,0.727275,-58.200001,0)"/>
<path style="fill:none;stroke-width:0.5;stroke-linecap:butt;stroke-linejoin:miter;stroke:rgb(0%,0%,0%);stroke-opacity:1;stroke-miterlimit:4;" d="M 334.69973 164.999481 C 334.69973 145.835479 319.166576 130.302325 300.002573 130.302325 C 280.8332 130.302325 265.300046 145.835479 265.300046 164.999481 C 265.300046 184.163483 280.8332 199.702009 300.002573 199.702009 C 319.166576 199.702009 334.69973 184.163483 334.69973 164.999481 Z M 334.69973 164.999481 " transform="matrix(0.727275,0,0,0.727275,-58.200001,0)"/>
<path style="fill:none;stroke-width:0.4;stroke-linecap:butt;stroke-linejoin:miter;stroke:rgb(0%,0%,0%);stroke-opacity:1;stroke-miterlimit:4;" d="M 326.600146 164.999481 C 326.600146 150.309586 314.692469 138.401909 300.002573 138.401909 C 285.307307 138.401909 273.39963 150.309586 273.39963 164.999481 C 273.39963 179.689376 285.307307 191.602425 300.002573 191.602425 C 314.692469 191.602425 326.600146 179.689376 326.600146 164.999481 Z M 326.600146 164.999481 " transform="matrix(0.727275,0,0,0.727275,-58.200001,0)"/>
<path style=" stroke:none;fill-rule:nonzero;fill:rgb(0%,0%,0%);fill-opacity:1;" d="M 143.648438 131.851562 L 140.101562 133.949219 L 139 132.101562 L 138.648438 131.300781 C 138.59375 131.082031 138.609375 130.855469 138.699219 130.648438 C 138.800781 130.449219 138.964844 130.285156 139.199219 130.148438 C 139.367188 130.050781 139.550781 130 139.75 130 L 140.300781 130.101562 L 140.699219 130.398438 L 140.699219 129.75 L 140.851562 129.5 L 141.601562 128.351562 L 142.300781 129.601562 L 141.601562 130.800781 L 141.449219 131.199219 L 141.5 131.5 L 141.550781 131.601562 L 143.050781 130.75 Z M 140.898438 132 L 140.601562 131.5 L 140.398438 131.25 L 140.148438 131.148438 L 139.898438 131.199219 L 139.699219 131.5 C 139.699219 131.601562 139.765625 131.75 139.898438 131.949219 L 140.148438 132.449219 Z M 137.550781 129.25 L 136.449219 126 L 137.300781 125.699219 L 137.949219 127.75 L 138.601562 127.550781 L 137.949219 125.648438 L 138.75 125.398438 L 139.398438 127.25 L 140.148438 127 L 139.449219 124.898438 L 140.351562 124.648438 L 141.449219 127.949219 Z M 136.101562 124.398438 L 135.898438 122.300781 C 135.832031 121.832031 135.898438 121.484375 136.101562 121.25 C 136.300781 120.949219 136.601562 120.785156 137 120.75 C 137.398438 120.714844 137.734375 120.816406 138 121.050781 C 138.234375 121.285156 138.398438 121.648438 138.5 122.148438 L 138.550781 122.851562 L 140.050781 122.648438 L 140.25 123.949219 Z M 137.75 122.898438 L 137.699219 122.601562 C 137.699219 122.367188 137.632812 122.199219 137.5 122.101562 L 137.148438 122 L 136.851562 122.199219 C 136.785156 122.265625 136.75 122.433594 136.75 122.699219 L 136.800781 123.050781 Z M 136 116.648438 L 136.148438 115.351562 L 138.550781 115.648438 L 139.25 115.851562 C 139.449219 115.949219 139.617188 116.082031 139.75 116.25 C 139.882812 116.417969 139.984375 116.582031 140.050781 116.75 C 140.148438 117.050781 140.167969 117.367188 140.101562 117.699219 L 140 118.351562 C 139.933594 118.582031 139.851562 118.765625 139.75 118.898438 C 139.542969 119.222656 139.222656 119.457031 138.851562 119.550781 L 138.148438 119.550781 L 135.699219 119.300781 L 135.851562 118.050781 L 138.351562 118.300781 C 138.550781 118.300781 138.714844 118.265625 138.851562 118.199219 C 138.984375 118.132812 139.082031 117.964844 139.148438 117.699219 C 139.199219 117.519531 139.140625 117.324219 139 117.199219 C 138.867188 117.035156 138.699219 116.933594 138.5 116.898438 Z M 136.5 113.648438 L 137.351562 111.351562 C 137.449219 110.949219 137.632812 110.699219 137.898438 110.601562 C 138.140625 110.457031 138.429688 110.417969 138.699219 110.5 C 138.933594 110.601562 139.101562 110.75 139.199219 110.949219 C 139.300781 111.082031 139.351562 111.25 139.351562 111.449219 C 139.515625 111.214844 139.699219 111.050781 139.898438 110.949219 C 140.125 110.867188 140.375 110.867188 140.601562 110.949219 C 141.019531 111.058594 141.320312 111.417969 141.351562 111.851562 L 141.351562 112.351562 L 141.199219 112.851562 L 140.449219 114.949219 Z M 138.5 112.949219 L 138.699219 112.398438 C 138.699219 112.199219 138.699219 112.066406 138.699219 112 C 138.699219 111.933594 138.632812 111.851562 138.5 111.75 L 138.199219 111.75 C 138.101562 111.851562 138.015625 111.984375 137.949219 112.148438 L 137.75 112.648438 Z M 140 113.449219 L 140.25 112.851562 C 140.316406 112.648438 140.316406 112.484375 140.25 112.351562 L 140.050781 112.148438 L 139.699219 112.148438 L 139.449219 112.601562 L 139.25 113.199219 Z M 138.5 108.648438 L 139.148438 107.550781 L 141.851562 109.148438 L 142.851562 107.449219 L 143.75 107.949219 L 142.050781 110.75 Z M 141 104.851562 L 141.800781 103.851562 L 145 106.5 L 144.199219 107.5 Z M 146.550781 102.699219 L 147.648438 102.199219 C 147.785156 102.535156 147.867188 102.816406 147.898438 103.050781 L 147.75 103.800781 C 147.601562 104.085938 147.398438 104.339844 147.148438 104.550781 C 146.878906 104.828125 146.53125 105.019531 146.148438 105.101562 C 145.820312 105.183594 145.476562 105.183594 145.148438 105.101562 C 144.753906 104.925781 144.410156 104.648438 144.148438 104.300781 C 143.648438 103.800781 143.433594 103.285156 143.5 102.75 C 143.542969 102.171875 143.835938 101.644531 144.300781 101.300781 C 144.621094 101.015625 145.023438 100.839844 145.449219 100.800781 C 145.785156 100.734375 146.167969 100.816406 146.601562 101.050781 L 145.898438 102 L 145.601562 101.851562 L 145.25 101.851562 L 144.949219 102.050781 C 144.761719 102.234375 144.652344 102.484375 144.648438 102.75 C 144.683594 102.949219 144.816406 103.183594 145.050781 103.449219 C 145.351562 103.785156 145.617188 103.984375 145.851562 104.050781 C 146.050781 104.082031 146.25 104.015625 146.449219 103.851562 C 146.648438 103.683594 146.75 103.515625 146.75 103.351562 C 146.75 103.117188 146.683594 102.898438 146.550781 102.699219 M 150.949219 101.101562 L 149.699219 101.800781 L 149.851562 102.5 L 148.699219 103.101562 L 148.101562 98.75 L 149.351562 98.101562 L 152.648438 101 L 151.449219 101.648438 Z M 150.300781 100.449219 L 149.199219 99.351562 L 149.5 100.851562 Z M 154.199219 96.199219 L 156.101562 95.898438 L 157 95.898438 C 157.265625 95.933594 157.484375 96.050781 157.648438 96.25 C 157.898438 96.550781 158 96.601562 158.101562 96.851562 C 158.234375 97.082031 158.300781 97.332031 158.300781 97.601562 C 158.398438 98.066406 158.417969 98.398438 158.351562 98.601562 L 158.050781 99.300781 L 157.550781 99.75 L 156.800781 100 L 154.949219 100.300781 Z M 155.648438 96.898438 L 156.050781 99.148438 L 156.351562 99.101562 C 156.617188 99.066406 156.785156 99 156.851562 98.898438 C 156.984375 98.832031 157.066406 98.714844 157.101562 98.550781 L 157.101562 97.851562 C 157 97.417969 156.867188 97.132812 156.699219 97 C 156.566406 96.832031 156.316406 96.785156 155.949219 96.851562 Z M 159.550781 95.5 L 162.949219 95.648438 L 162.949219 96.550781 L 160.800781 96.449219 L 160.75 97.101562 L 162.75 97.199219 L 162.699219 98.050781 L 160.699219 97.949219 L 160.699219 98.75 L 162.898438 98.851562 L 162.851562 99.800781 L 159.351562 99.648438 Z M 164.550781 95.898438 L 165.75 96.199219 L 165 99.199219 L 167 99.699219 L 166.699219 100.699219 L 163.550781 99.898438 Z M 171.148438 98.101562 L 173 99.199219 C 173.398438 99.433594 173.632812 99.699219 173.699219 100 C 173.765625 100.300781 173.714844 100.632812 173.550781 101 C 173.355469 101.3125 173.054688 101.546875 172.699219 101.648438 C 172.367188 101.714844 171.984375 101.617188 171.550781 101.351562 L 170.949219 101 L 170.148438 102.300781 L 169.050781 101.648438 Z M 171.351562 100.300781 L 171.648438 100.449219 L 172.148438 100.601562 L 172.449219 100.398438 L 172.449219 100.050781 C 172.449219 99.917969 172.351562 99.785156 172.148438 99.648438 L 171.851562 99.5 Z M 174.949219 105.101562 L 173.898438 104.101562 L 173.300781 104.449219 L 172.300781 103.601562 L 176.300781 101.601562 L 177.300781 102.601562 L 175.601562 106.648438 L 174.601562 105.75 Z M 175.351562 104.25 L 176.050781 102.851562 L 174.699219 103.648438 Z M 175.851562 107 L 179.300781 104.648438 L 180.449219 106.398438 L 180.949219 107.25 L 180.898438 107.851562 C 180.808594 108.089844 180.632812 108.289062 180.398438 108.398438 C 180.234375 108.535156 180.066406 108.601562 179.898438 108.601562 L 179.300781 108.5 C 179.199219 108.464844 179.066406 108.382812 178.898438 108.25 L 179 108.601562 L 178.898438 108.898438 L 178.800781 109.199219 L 178.148438 110.351562 L 177.351562 109.199219 L 178 107.898438 L 178.148438 107.550781 L 178.050781 107.199219 L 178 107.101562 L 176.601562 108.101562 Z M 178.601562 106.699219 L 178.949219 107.148438 L 179.148438 107.351562 C 179.25 107.449219 179.332031 107.484375 179.398438 107.449219 L 179.648438 107.398438 L 179.800781 107.101562 C 179.800781 107 179.75 106.851562 179.648438 106.648438 L 179.300781 106.199219 Z M 179.898438 112.898438 L 179.398438 111.5 L 178.648438 111.601562 L 178.148438 110.351562 L 182.601562 110.300781 L 183.101562 111.601562 L 179.851562 114.601562 L 179.351562 113.300781 Z M 180.648438 112.300781 L 181.851562 111.300781 L 180.300781 111.449219 Z M 181.699219 116.800781 L 182.550781 116.699219 L 182.851562 118.648438 L 181.101562 118.898438 L 180.449219 118 L 180.148438 117 C 180.058594 116.585938 180.078125 116.15625 180.199219 115.75 C 180.34375 115.429688 180.566406 115.15625 180.851562 114.949219 C 181.175781 114.714844 181.550781 114.558594 181.949219 114.5 C 182.351562 114.433594 182.765625 114.46875 183.148438 114.601562 C 183.492188 114.75 183.789062 114.992188 184 115.300781 C 184.167969 115.601562 184.300781 115.964844 184.398438 116.398438 L 184.398438 117.398438 L 184.101562 118.050781 C 183.964844 118.214844 183.765625 118.367188 183.5 118.5 L 183.101562 117.300781 C 183.234375 117.265625 183.351562 117.167969 183.449219 117 C 183.550781 116.832031 183.550781 116.667969 183.449219 116.5 C 183.410156 116.265625 183.285156 116.050781 183.101562 115.898438 C 182.933594 115.734375 182.601562 115.699219 182.101562 115.800781 C 181.785156 115.824219 181.488281 115.945312 181.25 116.148438 C 181.050781 116.382812 180.984375 116.632812 181.050781 116.898438 C 181.050781 117.066406 181.101562 117.199219 181.199219 117.300781 L 181.449219 117.699219 L 181.851562 117.699219 Z M 184.398438 122.800781 L 184.300781 124.101562 L 181.800781 123.898438 L 181.148438 123.699219 L 180.648438 123.300781 L 180.351562 122.75 L 180.25 121.851562 L 180.351562 121.199219 L 180.601562 120.601562 L 181 120.199219 L 181.5 120 L 182.199219 119.898438 L 184.699219 120.148438 L 184.550781 121.398438 L 182.050781 121.199219 C 181.785156 121.199219 181.601562 121.25 181.5 121.351562 C 181.324219 121.449219 181.222656 121.648438 181.25 121.851562 C 181.25 122.082031 181.300781 122.25 181.398438 122.351562 C 181.5 122.515625 181.667969 122.601562 181.898438 122.601562 Z M 179.851562 127.199219 L 180.300781 125.800781 L 179.699219 125.398438 L 180.101562 124.148438 L 183.601562 126.949219 L 183.101562 128.25 L 178.699219 128.449219 L 179.148438 127.199219 Z M 180.800781 127.199219 L 182.300781 127.25 L 181.050781 126.351562 Z M 182.300781 130.601562 L 181.550781 131.800781 L 179.898438 131.800781 L 180.648438 133.25 L 179.949219 134.449219 L 178.699219 131.851562 L 177.199219 130.949219 L 177.898438 129.851562 L 179.398438 130.75 Z M 182.300781 130.601562 "/>
<path style="fill-rule:nonzero;fill:rgb(0%,60.784316%,22.745098%);fill-opacity:1;stroke-width:0.1;stroke-linecap:butt;stroke-linejoin:miter;stroke:rgb(0%,0%,0%);stroke-opacity:1;stroke-miterlimit:4;" d="M 328.101562 211.296875 C 328.101562 211.296875 351.5 221.398438 347.398438 242.203125 C 343.296875 263 330.398438 262.796875 325.203125 265.203125 C 320.203125 267.398438 316.601562 270.703125 314.601562 270.203125 C 312.601562 269.703125 309.898438 268.203125 309.898438 268.203125 C 309.898438 268.203125 309.703125 271.703125 313.796875 272.203125 C 317.898438 272.898438 323.296875 266.898438 325.796875 266.203125 C 328.398438 265.601562 344.296875 263.796875 348.203125 242.703125 C 352.703125 220.101562 328.203125 212 328.203125 211.296875 Z M 328.101562 211.296875 " transform="matrix(0.5,0,0,0.5,0,0)"/>
<path style="fill-rule:nonzero;fill:rgb(0%,60.784316%,22.745098%);fill-opacity:1;stroke-width:0.1;stroke-linecap:butt;stroke-linejoin:miter;stroke:rgb(0%,0%,0%);stroke-opacity:1;stroke-miterlimit:4;" d="M 339.898438 215.796875 C 340.039062 216.898438 339.921875 217.601562 339.59375 217.601562 C 339.273438 217.601562 338.804688 216.898438 338.398438 215.796875 C 337.914062 214.5 337.632812 212.953125 337.710938 212.070312 C 337.789062 211.179688 338.210938 211.179688 338.734375 212.070312 C 339.257812 212.953125 339.734375 214.5 339.898438 215.796875 Z M 339.898438 215.796875 " transform="matrix(0.5,0,0,0.5,0,0)"/>
<path style="fill-rule:nonzero;fill:rgb(0%,60.784316%,22.745098%);fill-opacity:1;stroke-width:0.1;stroke-linecap:butt;stroke-linejoin:miter;stroke:rgb(0%,0%,0%);stroke-opacity:1;stroke-miterlimit:4;" d="M 339.101562 216 C 339.953125 217.71875 340.328125 219.226562 339.945312 219.367188 C 339.5625 219.5 338.554688 218.21875 337.703125 216.5 C 336.84375 214.78125 336.46875 213.273438 336.851562 213.132812 C 337.242188 213 338.25 214.28125 339.101562 216 Z M 336.796875 217.5 C 338.296875 217.984375 339.390625 218.664062 339.34375 219.078125 C 339.289062 219.484375 338.109375 219.492188 336.601562 219.101562 C 335.101562 218.617188 334.007812 217.9375 334.054688 217.523438 C 334.109375 217.117188 335.289062 217.101562 336.796875 217.5 Z M 336.796875 217.5 " transform="matrix(0.5,0,0,0.5,0,0)"/>
<path style="fill-rule:nonzero;fill:rgb(0%,60.784316%,22.745098%);fill-opacity:1;stroke-width:0.1;stroke-linecap:butt;stroke-linejoin:miter;stroke:rgb(0%,0%,0%);stroke-opacity:1;stroke-miterlimit:4;" d="M 337.101562 216.703125 C 338.6875 217.765625 339.8125 218.921875 339.625 219.28125 C 339.429688 219.640625 337.984375 219.070312 336.398438 218 C 334.8125 216.929688 333.6875 215.773438 333.875 215.414062 C 334.070312 215.054688 335.515625 215.632812 337.101562 216.703125 Z M 337.101562 216.703125 " transform="matrix(0.5,0,0,0.5,0,0)"/>
<path style="fill-rule:nonzero;fill:rgb(0%,60.784316%,22.745098%);fill-opacity:1;stroke-width:0.1;stroke-linecap:butt;stroke-linejoin:miter;stroke:rgb(0%,0%,0%);stroke-opacity:1;stroke-miterlimit:4;" d="M 338.101562 216.296875 C 339.375 217.625 340.1875 218.929688 339.90625 219.203125 C 339.632812 219.476562 338.375 218.625 337.101562 217.296875 C 335.828125 215.976562 335.015625 214.671875 335.289062 214.398438 C 335.570312 214.117188 336.828125 214.976562 338.101562 216.296875 Z M 338.101562 216.296875 " transform="matrix(0.5,0,0,0.5,0,0)"/>
<path style="fill-rule:nonzero;fill:rgb(0%,60.784316%,22.745098%);fill-opacity:1;stroke-width:0.1;stroke-linecap:butt;stroke-linejoin:miter;stroke:rgb(0%,0%,0%);stroke-opacity:1;stroke-miterlimit:4;" d="M 339.703125 219.203125 L 338.703125 219.796875 C 338.398438 219.796875 338.101562 219.5 337.5 219.796875 C 336.898438 220.101562 336.5 220.703125 336.398438 221 C 336.335938 221.398438 336.632812 221.429688 337.296875 221.101562 C 337.96875 220.765625 338.367188 220.398438 338.5 220 L 339.796875 219.296875 L 340.601562 218 C 340.898438 217.601562 341.796875 217 342.203125 216.203125 C 342.46875 215.53125 342.398438 215.234375 342 215.296875 C 341.476562 215.601562 341.0625 216.054688 340.796875 216.601562 C 340.601562 217 340.796875 217.601562 340.5 218 Z M 347 221.601562 C 347.046875 224.5 346.59375 226.734375 345.984375 226.59375 C 345.382812 226.453125 344.851562 224 344.796875 221.101562 C 344.75 218.203125 345.203125 215.96875 345.8125 216.109375 C 346.421875 216.242188 346.953125 218.703125 347 221.601562 Z M 347 221.601562 " transform="matrix(0.5,0,0,0.5,0,0)"/>
<path style="fill-rule:nonzero;fill:rgb(0%,60.784316%,22.745098%);fill-opacity:1;stroke-width:0.1;stroke-linecap:butt;stroke-linejoin:miter;stroke:rgb(0%,0%,0%);stroke-opacity:1;stroke-miterlimit:4;" d="M 345.796875 221.5 C 346.429688 224.429688 346.445312 226.828125 345.835938 226.851562 C 345.226562 226.882812 344.226562 224.53125 343.601562 221.601562 C 343.015625 218.828125 343.007812 216.585938 343.585938 216.585938 C 344.164062 216.585938 345.109375 218.828125 345.703125 221.601562 Z M 345.796875 221.5 " transform="matrix(0.5,0,0,0.5,0,0)"/>
<path style="fill-rule:nonzero;fill:rgb(0%,60.784316%,22.745098%);fill-opacity:1;stroke-width:0.1;stroke-linecap:butt;stroke-linejoin:miter;stroke:rgb(0%,0%,0%);stroke-opacity:1;stroke-miterlimit:4;" d="M 342 222.703125 C 344.15625 224.15625 345.742188 225.828125 345.554688 226.4375 C 345.359375 227.039062 343.453125 226.351562 341.296875 224.898438 C 339.148438 223.445312 337.554688 221.773438 337.75 221.164062 C 337.9375 220.554688 339.84375 221.242188 342 222.703125 Z M 342 222.703125 " transform="matrix(0.5,0,0,0.5,0,0)"/>
<path style="fill-rule:nonzero;fill:rgb(0%,60.784316%,22.745098%);fill-opacity:1;stroke-width:0.1;stroke-linecap:butt;stroke-linejoin:miter;stroke:rgb(0%,0%,0%);stroke-opacity:1;stroke-miterlimit:4;" d="M 342.796875 221.601562 C 344.640625 223.835938 345.820312 226 345.429688 226.445312 C 345.046875 226.882812 343.242188 225.429688 341.398438 223.203125 C 339.617188 221.03125 338.484375 218.9375 338.875 218.523438 C 339.257812 218.109375 341.015625 219.53125 342.796875 221.703125 Z M 342.796875 221.601562 " transform="matrix(0.5,0,0,0.5,0,0)"/>
<path style="fill-rule:nonzero;fill:rgb(0%,60.784316%,22.745098%);fill-opacity:1;stroke-width:0.1;stroke-linecap:butt;stroke-linejoin:miter;stroke:rgb(0%,0%,0%);stroke-opacity:1;stroke-miterlimit:4;" d="M 344.296875 221.5 C 345.671875 224.054688 346.382812 226.351562 345.882812 226.625 C 345.382812 226.898438 343.875 225.054688 342.5 222.5 C 341.125 219.945312 340.421875 217.648438 340.914062 217.375 C 341.414062 217.101562 342.929688 218.945312 344.296875 221.5 Z M 344.296875 221.5 " transform="matrix(0.5,0,0,0.5,0,0)"/>
<path style="fill-rule:nonzero;fill:rgb(0%,60.784316%,22.745098%);fill-opacity:1;stroke-width:0.1;stroke-linecap:butt;stroke-linejoin:miter;stroke:rgb(0%,0%,0%);stroke-opacity:1;stroke-miterlimit:4;" d="M 345.601562 226.398438 L 343.796875 226.796875 C 343.5 226.796875 343.203125 226.101562 342.296875 226.296875 C 341.367188 226.570312 340.703125 226.96875 340.296875 227.5 C 340.03125 228.03125 340.429688 228.234375 341.5 228.101562 C 342.703125 227.898438 343.101562 227.101562 343.703125 227.101562 C 344.367188 226.898438 345.03125 226.765625 345.703125 226.703125 C 345.898438 226.296875 346.703125 225.5 347.203125 225.101562 C 347.703125 224.703125 349.203125 224.101562 349.898438 223.296875 C 350.601562 222.5 350.601562 221.703125 349.898438 221.796875 C 349.140625 222.0625 348.453125 222.507812 347.898438 223.101562 C 347.398438 223.703125 347.5 224.601562 347 225.101562 Z M 350.703125 231.296875 C 350.234375 234.085938 349.40625 236.117188 348.859375 235.835938 C 348.304688 235.5625 348.234375 233.085938 348.703125 230.296875 C 349.164062 227.515625 349.992188 225.484375 350.546875 225.765625 C 351.09375 226.039062 351.164062 228.515625 350.703125 231.296875 Z M 350.703125 231.296875 " transform="matrix(0.5,0,0,0.5,0,0)"/>
<path style="fill-rule:nonzero;fill:rgb(0%,60.784316%,22.745098%);fill-opacity:1;stroke-width:0.1;stroke-linecap:butt;stroke-linejoin:miter;stroke:rgb(0%,0%,0%);stroke-opacity:1;stroke-miterlimit:4;" d="M 349.601562 231 C 349.6875 232.898438 349.5625 234.71875 349.265625 235.671875 C 348.960938 236.632812 348.554688 236.570312 348.195312 235.515625 C 347.84375 234.460938 347.609375 232.59375 347.601562 230.703125 C 347.507812 228.796875 347.640625 226.984375 347.9375 226.023438 C 348.234375 225.0625 348.648438 225.125 349 226.1875 C 349.351562 227.242188 349.585938 229.109375 349.601562 231 Z M 349.601562 231 " transform="matrix(0.5,0,0,0.5,0,0)"/>
<path style="fill-rule:nonzero;fill:rgb(0%,60.784316%,22.745098%);fill-opacity:1;stroke-width:0.1;stroke-linecap:butt;stroke-linejoin:miter;stroke:rgb(0%,0%,0%);stroke-opacity:1;stroke-miterlimit:4;" d="M 345.703125 231.398438 C 347.117188 232.625 348.484375 234.234375 349.117188 235.40625 C 349.75 236.570312 349.507812 237.054688 348.515625 236.601562 C 347.523438 236.15625 345.992188 234.867188 344.703125 233.398438 C 343.289062 232.171875 341.914062 230.570312 341.28125 229.398438 C 340.648438 228.226562 340.890625 227.742188 341.882812 228.195312 C 342.875 228.648438 344.40625 229.929688 345.703125 231.398438 Z M 345.703125 231.398438 " transform="matrix(0.5,0,0,0.5,0,0)"/>
<path style="fill-rule:nonzero;fill:rgb(0%,60.784316%,22.745098%);fill-opacity:1;stroke-width:0.1;stroke-linecap:butt;stroke-linejoin:miter;stroke:rgb(0%,0%,0%);stroke-opacity:1;stroke-miterlimit:4;" d="M 346.703125 230.5 C 348.09375 233.0625 348.84375 235.429688 348.375 235.789062 C 347.90625 236.148438 346.398438 234.359375 345 231.796875 C 343.601562 229.242188 342.851562 226.867188 343.320312 226.515625 C 343.796875 226.15625 345.304688 227.9375 346.703125 230.5 Z M 346.703125 230.5 " transform="matrix(0.5,0,0,0.5,0,0)"/>
<path style="fill-rule:nonzero;fill:rgb(0%,60.784316%,22.745098%);fill-opacity:1;stroke-width:0.1;stroke-linecap:butt;stroke-linejoin:miter;stroke:rgb(0%,0%,0%);stroke-opacity:1;stroke-miterlimit:4;" d="M 348.101562 230.703125 C 348.960938 233.414062 349.234375 235.773438 348.710938 235.96875 C 348.1875 236.15625 347.0625 234.117188 346.203125 231.398438 C 345.296875 228.554688 345.015625 226.09375 345.570312 225.898438 C 346.125 225.710938 347.296875 227.859375 348.203125 230.703125 Z M 348.101562 230.703125 " transform="matrix(0.5,0,0,0.5,0,0)"/>
<path style="fill-rule:nonzero;fill:rgb(0%,60.784316%,22.745098%);fill-opacity:1;stroke-width:0.1;stroke-linecap:butt;stroke-linejoin:miter;stroke:rgb(0%,0%,0%);stroke-opacity:1;stroke-miterlimit:4;" d="M 348.5 235.796875 L 346.796875 235.796875 C 346.5 235.796875 346.296875 235 345.398438 235 C 344.625 234.984375 343.867188 235.273438 343.296875 235.796875 C 342.898438 236.265625 343.234375 236.53125 344.296875 236.601562 C 345.898438 236.703125 346 236.101562 346.601562 236 L 348.601562 236 L 350.398438 234.796875 C 351 234.398438 352.5 234.203125 353.398438 233.5 C 354.101562 232.898438 354.296875 232.101562 353.703125 232.101562 C 352.867188 232.203125 352.078125 232.515625 351.398438 233 C 350.898438 233.398438 350.796875 234.296875 350.203125 234.703125 C 349.796875 234.898438 348.601562 235.796875 348.5 235.703125 M 351 242.101562 C 349.53125 244.429688 348.03125 245.945312 347.640625 245.476562 C 347.257812 245.007812 348.132812 242.734375 349.601562 240.398438 C 351.070312 238.070312 352.570312 236.554688 352.960938 237.023438 C 353.34375 237.492188 352.46875 239.765625 351 242.101562 " transform="matrix(0.5,0,0,0.5,0,0)"/>
<path style="fill-rule:nonzero;fill:rgb(0%,60.784316%,22.745098%);fill-opacity:1;stroke-width:0.1;stroke-linecap:butt;stroke-linejoin:miter;stroke:rgb(0%,0%,0%);stroke-opacity:1;stroke-miterlimit:4;" d="M 350.101562 241.296875 C 349.070312 243.96875 347.835938 245.890625 347.34375 245.585938 C 346.84375 245.28125 347.273438 242.867188 348.296875 240.203125 C 349.328125 237.53125 350.5625 235.609375 351.0625 235.914062 C 351.554688 236.21875 351.125 238.632812 350.101562 241.296875 M 346.398438 240.101562 C 347.445312 242.828125 347.882812 245.382812 347.390625 245.796875 C 346.890625 246.210938 345.640625 244.328125 344.601562 241.601562 C 343.554688 238.867188 343.117188 236.320312 343.609375 235.90625 C 344.109375 235.492188 345.359375 237.367188 346.398438 240.101562 " transform="matrix(0.5,0,0,0.5,0,0)"/>
<path style="fill-rule:nonzero;fill:rgb(0%,60.784316%,22.745098%);fill-opacity:1;stroke-width:0.1;stroke-linecap:butt;stroke-linejoin:miter;stroke:rgb(0%,0%,0%);stroke-opacity:1;stroke-miterlimit:4;" d="M 347.601562 239.703125 C 347.859375 242.554688 347.625 244.984375 347.078125 245.117188 C 346.523438 245.257812 345.859375 243.054688 345.601562 240.203125 C 345.335938 237.34375 345.570312 234.921875 346.125 234.78125 C 346.679688 234.640625 347.335938 236.84375 347.601562 239.703125 " transform="matrix(0.5,0,0,0.5,0,0)"/>
<path style="fill-rule:nonzero;fill:rgb(0%,60.784316%,22.745098%);fill-opacity:1;stroke-width:0.1;stroke-linecap:butt;stroke-linejoin:miter;stroke:rgb(0%,0%,0%);stroke-opacity:1;stroke-miterlimit:4;" d="M 349 240.398438 C 348.726562 243.257812 348.0625 245.554688 347.507812 245.53125 C 346.960938 245.5 346.726562 243.15625 347 240.296875 C 347.273438 237.4375 347.9375 235.140625 348.492188 235.171875 C 349.039062 235.203125 349.273438 237.539062 349 240.398438 " transform="matrix(0.5,0,0,0.5,0,0)"/>
<path style="fill-rule:nonzero;fill:rgb(0%,60.784316%,22.745098%);fill-opacity:1;stroke-width:0.1;stroke-linecap:butt;stroke-linejoin:miter;stroke:rgb(0%,0%,0%);stroke-opacity:1;stroke-miterlimit:4;" d="M 347.296875 245.296875 C 347.296875 245.296875 345.898438 244.796875 345.703125 244.601562 C 345.5 244.398438 345.601562 243.796875 344.703125 243.296875 C 343.992188 243.023438 343.203125 243.023438 342.5 243.296875 C 341.96875 243.429688 342.164062 243.765625 343.101562 244.296875 C 344.101562 244.898438 344.898438 244.5 345.398438 244.703125 L 347.203125 245.601562 C 347.703125 245.398438 348.796875 245.296875 349.398438 245.203125 C 350 245.101562 351.5 245.601562 352.601562 245.203125 C 353.5 244.898438 353.898438 244.203125 353.296875 244 C 352.546875 243.820312 351.757812 243.820312 351 244 C 350.296875 244.101562 349.898438 245 349.203125 245 C 348.703125 245 347.296875 245.398438 347.203125 245.296875 M 348.203125 253 C 346.578125 254.546875 344.742188 255.835938 343.585938 256.242188 C 342.421875 256.65625 342.171875 256.101562 342.945312 254.851562 C 343.726562 253.609375 345.375 251.914062 347.101562 250.601562 C 348.75 248.960938 350.71875 247.53125 351.976562 247.0625 C 353.226562 246.601562 353.484375 247.203125 352.59375 248.554688 C 351.710938 249.914062 349.898438 251.703125 348.101562 253 " transform="matrix(0.5,0,0,0.5,0,0)"/>
<path style="fill-rule:nonzero;fill:rgb(0%,60.784316%,22.745098%);fill-opacity:1;stroke-width:0.1;stroke-linecap:butt;stroke-linejoin:miter;stroke:rgb(0%,0%,0%);stroke-opacity:1;stroke-miterlimit:4;" d="M 347.296875 251.898438 C 345.3125 254.429688 343.367188 256.023438 342.953125 255.476562 C 342.539062 254.921875 343.8125 252.429688 345.796875 249.898438 C 347.789062 247.375 349.734375 245.773438 350.148438 246.328125 C 350.5625 246.875 349.289062 249.375 347.296875 251.898438 " transform="matrix(0.5,0,0,0.5,0,0)"/>
<path style="fill-rule:nonzero;fill:rgb(0%,60.784316%,22.745098%);fill-opacity:1;stroke-width:0.1;stroke-linecap:butt;stroke-linejoin:miter;stroke:rgb(0%,0%,0%);stroke-opacity:1;stroke-miterlimit:4;" d="M 343.703125 249.203125 C 344.054688 251.382812 344.078125 253.945312 343.742188 255.539062 C 343.414062 257.132812 342.804688 257.382812 342.25 256.164062 C 341.6875 254.9375 341.304688 252.53125 341.296875 250.203125 C 340.945312 248.015625 340.921875 245.453125 341.257812 243.859375 C 341.585938 242.273438 342.195312 242.015625 342.75 243.242188 C 343.3125 244.460938 343.695312 246.867188 343.703125 249.203125 " transform="matrix(0.5,0,0,0.5,0,0)"/>
<path style="fill-rule:nonzero;fill:rgb(0%,60.784316%,22.745098%);fill-opacity:1;stroke-width:0.1;stroke-linecap:butt;stroke-linejoin:miter;stroke:rgb(0%,0%,0%);stroke-opacity:1;stroke-miterlimit:4;" d="M 345.101562 249.203125 C 344.460938 251.609375 343.664062 253.226562 343.132812 253.179688 C 342.601562 253.140625 342.46875 251.4375 342.796875 249 C 343.101562 246.601562 343.804688 243.976562 344.523438 242.507812 C 345.25 241.03125 345.828125 241.0625 345.960938 242.570312 C 346.09375 244.078125 345.742188 246.71875 345.101562 249.101562 " transform="matrix(0.5,0,0,0.5,0,0)"/>
<path style="fill-rule:nonzero;fill:rgb(0%,60.784316%,22.745098%);fill-opacity:1;stroke-width:0.1;stroke-linecap:butt;stroke-linejoin:miter;stroke:rgb(0%,0%,0%);stroke-opacity:1;stroke-miterlimit:4;" d="M 346.296875 250.398438 C 345.539062 252.78125 344.328125 255.328125 343.328125 256.664062 C 342.328125 257.992188 341.78125 257.78125 341.984375 256.148438 C 342.1875 254.515625 343.085938 251.84375 344.203125 249.601562 C 344.960938 247.21875 346.171875 244.671875 347.171875 243.335938 C 348.171875 242.007812 348.71875 242.21875 348.515625 243.851562 C 348.3125 245.484375 347.414062 248.15625 346.296875 250.398438 " transform="matrix(0.5,0,0,0.5,0,0)"/>
<path style="fill-rule:nonzero;fill:rgb(0%,60.784316%,22.745098%);fill-opacity:1;stroke-width:0.1;stroke-linecap:butt;stroke-linejoin:miter;stroke:rgb(0%,0%,0%);stroke-opacity:1;stroke-miterlimit:4;" d="M 343 255.296875 L 341.398438 253.898438 C 341.203125 253.601562 341.5 252.898438 340.703125 252.101562 C 339.898438 251.296875 338.898438 251.101562 338.296875 251.101562 C 337.632812 251.234375 337.734375 251.765625 338.601562 252.703125 C 339.601562 253.703125 340.601562 253.5 341 253.898438 C 341.664062 254.367188 342.234375 254.898438 342.703125 255.5 L 345.296875 255.898438 C 346 255.898438 347.5 257 348.796875 257 C 349.796875 257 350.601562 256.5 350 256 C 349.242188 255.429688 348.34375 255.078125 347.398438 255 C 346.601562 255 345.898438 255.796875 345.203125 255.601562 L 342.898438 255.296875 M 340.601562 262.601562 C 337.328125 263.132812 334.742188 262.921875 334.828125 262.117188 C 334.90625 261.320312 337.625 260.234375 340.898438 259.703125 C 344.171875 259.164062 346.757812 259.382812 346.671875 260.179688 C 346.59375 260.984375 343.875 262.0625 340.601562 262.601562 " transform="matrix(0.5,0,0,0.5,0,0)"/>
<path style="fill-rule:nonzero;fill:rgb(0%,60.784316%,22.745098%);fill-opacity:1;stroke-width:0.1;stroke-linecap:butt;stroke-linejoin:miter;stroke:rgb(0%,0%,0%);stroke-opacity:1;stroke-miterlimit:4;" d="M 340.5 261 C 337.195312 262.273438 334.40625 262.71875 334.273438 262 C 334.132812 261.28125 336.695312 259.671875 340 258.398438 C 343.421875 257.085938 346.304688 256.625 346.445312 257.367188 C 346.578125 258.117188 343.921875 259.78125 340.5 261.101562 " transform="matrix(0.5,0,0,0.5,0,0)"/>
<path style="fill-rule:nonzero;fill:rgb(0%,60.784316%,22.745098%);fill-opacity:1;stroke-width:0.1;stroke-linecap:butt;stroke-linejoin:miter;stroke:rgb(0%,0%,0%);stroke-opacity:1;stroke-miterlimit:4;" d="M 338.398438 256.398438 C 337.078125 258.875 335.648438 260.5625 334.96875 260.445312 C 334.296875 260.320312 334.554688 258.429688 335.601562 255.898438 C 336.5 253.71875 337.789062 251.546875 338.851562 250.398438 C 339.921875 249.25 340.554688 249.367188 340.453125 250.679688 C 340.351562 252 339.539062 254.265625 338.398438 256.398438 " transform="matrix(0.5,0,0,0.5,0,0)"/>
<path style="fill-rule:nonzero;fill:rgb(0%,60.784316%,22.745098%);fill-opacity:1;stroke-width:0.1;stroke-linecap:butt;stroke-linejoin:miter;stroke:rgb(0%,0%,0%);stroke-opacity:1;stroke-miterlimit:4;" d="M 339.898438 257.203125 C 337.421875 260.007812 334.890625 261.953125 334.257812 261.539062 C 333.625 261.125 335.117188 258.507812 337.601562 255.703125 C 340.078125 252.890625 342.609375 250.953125 343.242188 251.367188 C 343.875 251.78125 342.382812 254.390625 339.898438 257.203125 " transform="matrix(0.5,0,0,0.5,0,0)"/>
<path style="fill-rule:nonzero;fill:rgb(0%,60.784316%,22.745098%);fill-opacity:1;stroke-width:0.1;stroke-linecap:butt;stroke-linejoin:miter;stroke:rgb(0%,0%,0%);stroke-opacity:1;stroke-miterlimit:4;" d="M 340.296875 259.101562 C 338.328125 260.71875 336.140625 262.109375 334.734375 262.640625 C 333.328125 263.164062 332.976562 262.726562 333.84375 261.523438 C 334.703125 260.320312 336.609375 258.578125 338.703125 257.101562 C 341.234375 255.296875 343.375 254.351562 343.773438 254.84375 C 344.164062 255.335938 342.703125 257.132812 340.296875 259.101562 " transform="matrix(0.5,0,0,0.5,0,0)"/>
<path style="fill-rule:nonzero;fill:rgb(0%,60.784316%,22.745098%);fill-opacity:1;stroke-width:0.1;stroke-linecap:butt;stroke-linejoin:miter;stroke:rgb(0%,0%,0%);stroke-opacity:1;stroke-miterlimit:4;" d="M 334.398438 261.703125 L 333.703125 259.5 C 333.601562 259.101562 334.296875 258.703125 334 257.5 C 333.6875 256.515625 333.007812 255.695312 332.101562 255.203125 C 331.429688 254.867188 331.265625 255.398438 331.601562 256.796875 C 332 258.203125 333 258.703125 333.296875 259.398438 L 334.101562 261.796875 L 336.296875 263.703125 C 336.898438 264.203125 337.796875 266.101562 339 266.796875 C 340 267.5 341 267.296875 340.796875 266.601562 C 340.359375 265.640625 339.664062 264.8125 338.796875 264.203125 C 338.101562 263.601562 337 263.898438 336.296875 263.398438 C 335.898438 262.898438 334.296875 261.796875 334.296875 261.703125 " transform="matrix(0.5,0,0,0.5,0,0)"/>
<path style="fill-rule:nonzero;fill:rgb(0%,60.784316%,22.745098%);fill-opacity:1;stroke-width:0.1;stroke-linecap:butt;stroke-linejoin:miter;stroke:rgb(0%,0%,0%);stroke-opacity:1;stroke-miterlimit:4;" d="M 330.796875 268 C 328.0625 267.851562 326.132812 267.15625 326.132812 266.328125 C 326.132812 265.492188 328.0625 264.742188 330.796875 264.5 C 333.539062 264.648438 335.46875 265.34375 335.46875 266.171875 C 335.46875 267.007812 333.539062 267.757812 330.796875 268 " transform="matrix(0.5,0,0,0.5,0,0)"/>
<path style="fill-rule:nonzero;fill:rgb(0%,60.784316%,22.745098%);fill-opacity:1;stroke-width:0.1;stroke-linecap:butt;stroke-linejoin:miter;stroke:rgb(0%,0%,0%);stroke-opacity:1;stroke-miterlimit:4;" d="M 330 262.5 C 327.820312 265.320312 325.453125 267.109375 324.703125 266.5 C 323.960938 265.898438 325.117188 263.117188 327.296875 260.296875 C 329.4375 257.546875 331.742188 255.8125 332.460938 256.421875 C 333.179688 257.023438 332.03125 259.75 329.898438 262.5 " transform="matrix(0.5,0,0,0.5,0,0)"/>
<path style="fill-rule:nonzero;fill:rgb(0%,60.784316%,22.745098%);fill-opacity:1;stroke-width:0.1;stroke-linecap:butt;stroke-linejoin:miter;stroke:rgb(0%,0%,0%);stroke-opacity:1;stroke-miterlimit:4;" d="M 330.796875 265.296875 C 327.554688 266.695312 324.65625 267.085938 324.328125 266.171875 C 323.992188 265.257812 326.359375 263.390625 329.601562 262 C 332.84375 260.609375 335.742188 260.21875 336.070312 261.125 C 336.40625 262.039062 334.046875 263.90625 330.796875 265.296875 M 332.5 211.898438 C 333.921875 213.226562 334.710938 214.414062 334.320312 214.617188 C 333.929688 214.828125 332.484375 213.992188 331 212.703125 C 329.914062 211.757812 329.03125 210.765625 328.71875 210.132812 C 328.398438 209.5 328.710938 209.335938 329.507812 209.710938 C 330.304688 210.085938 331.46875 210.929688 332.5 211.898438 M 330.601562 213.398438 C 332.304688 213.71875 333.53125 214.195312 333.601562 214.570312 C 333.671875 214.945312 332.5625 215.117188 330.898438 215 C 329.351562 214.890625 327.65625 214.539062 326.671875 214.132812 C 325.6875 213.726562 325.617188 213.351562 326.492188 213.1875 C 327.375 213.023438 329.015625 213.109375 330.601562 213.398438 " transform="matrix(0.5,0,0,0.5,0,0)"/>
<path style="fill-rule:nonzero;fill:rgb(0%,60.784316%,22.745098%);fill-opacity:1;stroke-width:0.1;stroke-linecap:butt;stroke-linejoin:miter;stroke:rgb(0%,0%,0%);stroke-opacity:1;stroke-miterlimit:4;" d="M 331.398438 212.398438 C 333.539062 213.484375 335.09375 214.664062 334.875 215.015625 C 334.65625 215.375 332.742188 214.789062 330.601562 213.703125 C 328.460938 212.609375 326.90625 211.4375 327.125 211.078125 C 327.34375 210.71875 329.257812 211.3125 331.398438 212.398438 M 303.703125 262 C 303.703125 262 308.796875 263.101562 313.296875 264.703125 C 317.796875 266.296875 324.601562 271.898438 326.398438 272.296875 C 328.398438 272.296875 331.296875 271.601562 332.398438 268.703125 C 329.203125 269.5 327.398438 270.796875 324.398438 269.203125 C 323.296875 268.796875 319.796875 265.601562 315.898438 263.898438 C 312.101562 262.203125 304.398438 260.296875 304.398438 260.296875 L 303.703125 262 M 309.203125 215.5 L 315.101562 212.398438 L 308.601562 214.101562 L 307.796875 215.203125 L 309.203125 215.5 " transform="matrix(0.5,0,0,0.5,0,0)"/>
<path style="fill-rule:nonzero;fill:rgb(0%,60.784316%,22.745098%);fill-opacity:1;stroke-width:0.1;stroke-linecap:butt;stroke-linejoin:miter;stroke:rgb(0%,0%,0%);stroke-opacity:1;stroke-miterlimit:4;" d="M 314.796875 217 C 312.5 216.5 309 215.703125 306.796875 215.601562 C 308.296875 213.898438 310.398438 210.898438 311.796875 209.203125 C 310.796875 210.898438 309.5 213.203125 309 214.703125 C 310.5 215.601562 313 216.296875 314.796875 216.898438 " transform="matrix(0.5,0,0,0.5,0,0)"/>
<path style="fill-rule:nonzero;fill:rgb(0%,60.784316%,22.745098%);fill-opacity:1;stroke-width:0.1;stroke-linecap:butt;stroke-linejoin:miter;stroke:rgb(0%,0%,0%);stroke-opacity:1;stroke-miterlimit:4;" d="M 308.101562 215.898438 L 313.398438 211.796875 L 307.296875 214.5 L 306.703125 215.796875 L 308.101562 215.796875 " transform="matrix(0.5,0,0,0.5,0,0)"/>
<path style="fill-rule:nonzero;fill:rgb(0%,60.784316%,22.745098%);fill-opacity:1;stroke-width:0.1;stroke-linecap:butt;stroke-linejoin:miter;stroke:rgb(0%,0%,0%);stroke-opacity:1;stroke-miterlimit:4;" d="M 313.703125 216.898438 C 311.398438 216.398438 307.898438 215.601562 305.703125 215.398438 C 307.101562 213.703125 309.203125 210.703125 310.5 208.796875 C 309.703125 210.601562 308.296875 212.898438 307.796875 214.601562 C 309.398438 215.5 311.898438 216.203125 313.796875 216.898438 " transform="matrix(0.5,0,0,0.5,0,0)"/>
<path style="fill-rule:nonzero;fill:rgb(0%,60.784316%,22.745098%);fill-opacity:1;stroke-width:0.1;stroke-linecap:butt;stroke-linejoin:miter;stroke:rgb(0%,0%,0%);stroke-opacity:1;stroke-miterlimit:4;" d="M 307.296875 216.203125 L 313.398438 213.601562 L 306.796875 214.703125 L 305.898438 215.703125 L 307.203125 216.203125 " transform="matrix(0.5,0,0,0.5,0,0)"/>
<path style="fill-rule:nonzero;fill:rgb(0%,60.784316%,22.745098%);fill-opacity:1;stroke-width:0.1;stroke-linecap:butt;stroke-linejoin:miter;stroke:rgb(0%,0%,0%);stroke-opacity:1;stroke-miterlimit:4;" d="M 313 217 C 310.703125 216.703125 307 216.296875 304.796875 216.398438 C 306.101562 214.398438 307.796875 211.101562 308.898438 209.101562 C 308.296875 211 307.203125 213.5 306.898438 215.203125 C 308.601562 216 311.203125 216.398438 313 216.898438 " transform="matrix(0.5,0,0,0.5,0,0)"/>
<path style="fill-rule:nonzero;fill:rgb(0%,60.784316%,22.745098%);fill-opacity:1;stroke-width:0.1;stroke-linecap:butt;stroke-linejoin:miter;stroke:rgb(0%,0%,0%);stroke-opacity:1;stroke-miterlimit:4;" d="M 306.601562 216.203125 L 310.796875 211.203125 L 305.5 215.101562 L 305.203125 216.398438 L 306.601562 216.203125 " transform="matrix(0.5,0,0,0.5,0,0)"/>
<path style="fill-rule:nonzero;fill:rgb(0%,60.784316%,22.745098%);fill-opacity:1;stroke-width:0.1;stroke-linecap:butt;stroke-linejoin:miter;stroke:rgb(0%,0%,0%);stroke-opacity:1;stroke-miterlimit:4;" d="M 313 217.296875 C 310.5 217.296875 306.601562 217 304.203125 217.296875 C 305.398438 215 306.898438 211.296875 307.796875 209 C 307.398438 211.101562 306.5 214 306.398438 215.898438 C 308.203125 216.5 311 216.898438 313 217.296875 " transform="matrix(0.5,0,0,0.5,0,0)"/>
<path style="fill-rule:nonzero;fill:rgb(0%,60.784316%,22.745098%);fill-opacity:1;stroke-width:0.1;stroke-linecap:butt;stroke-linejoin:miter;stroke:rgb(0%,0%,0%);stroke-opacity:1;stroke-miterlimit:4;" d="M 305.796875 217.398438 L 310.796875 212.5 L 304.703125 216 L 304.296875 217.398438 L 305.796875 217.398438 " transform="matrix(0.5,0,0,0.5,0,0)"/>
<path style="fill-rule:nonzero;fill:rgb(0%,60.784316%,22.745098%);fill-opacity:1;stroke-width:0.1;stroke-linecap:butt;stroke-linejoin:miter;stroke:rgb(0%,0%,0%);stroke-opacity:1;stroke-miterlimit:4;" d="M 311.898438 217.398438 C 309.203125 217.398438 305.101562 217.296875 302.398438 217.601562 C 304.203125 215.101562 306.601562 211 308 208.5 C 307 210.796875 305.601562 213.898438 305 216 C 306.898438 216.703125 309.796875 217 311.898438 217.398438 " transform="matrix(0.5,0,0,0.5,0,0)"/>
<path style="fill-rule:nonzero;fill:rgb(0%,60.784316%,22.745098%);fill-opacity:1;stroke-width:0.1;stroke-linecap:butt;stroke-linejoin:miter;stroke:rgb(0%,0%,0%);stroke-opacity:1;stroke-miterlimit:4;" d="M 304 217.796875 L 310.601562 212.296875 L 303.203125 216.203125 L 302.398438 217.796875 L 304 217.796875 " transform="matrix(0.5,0,0,0.5,0,0)"/>
<path style="fill-rule:nonzero;fill:rgb(0%,60.784316%,22.745098%);fill-opacity:1;stroke-width:0.1;stroke-linecap:butt;stroke-linejoin:miter;stroke:rgb(0%,0%,0%);stroke-opacity:1;stroke-miterlimit:4;" d="M 311 217.601562 C 308.296875 218 304.101562 218.398438 301.601562 219.101562 C 302.898438 216.398438 304.703125 212.101562 305.796875 209.398438 C 305.203125 211.796875 304.101562 215 303.796875 217.203125 C 305.796875 217.601562 308.796875 217.5 310.898438 217.601562 " transform="matrix(0.5,0,0,0.5,0,0)"/>
<path style="fill-rule:nonzero;fill:rgb(0%,60.784316%,22.745098%);fill-opacity:1;stroke-width:0.1;stroke-linecap:butt;stroke-linejoin:miter;stroke:rgb(0%,0%,0%);stroke-opacity:1;stroke-miterlimit:4;" d="M 303.203125 218.898438 L 308.203125 211.898438 L 301.898438 217.601562 L 301.601562 219.296875 L 303.203125 218.898438 " transform="matrix(0.5,0,0,0.5,0,0)"/>
<path style="fill-rule:nonzero;fill:rgb(0%,60.784316%,22.745098%);fill-opacity:1;stroke-width:0.1;stroke-linecap:butt;stroke-linejoin:miter;stroke:rgb(0%,0%,0%);stroke-opacity:1;stroke-miterlimit:4;" d="M 309.398438 218.398438 C 306.796875 218.703125 302.601562 218.898438 300 219.398438 C 301.5 216.796875 303.5 212.601562 304.796875 210 C 304 212.296875 302.796875 215.5 302.398438 217.703125 C 304.398438 218.203125 307.398438 218.203125 309.398438 218.398438 " transform="matrix(0.5,0,0,0.5,0,0)"/>
<path style="fill-rule:nonzero;fill:rgb(0%,60.784316%,22.745098%);fill-opacity:1;stroke-width:0.1;stroke-linecap:butt;stroke-linejoin:miter;stroke:rgb(0%,0%,0%);stroke-opacity:1;stroke-miterlimit:4;" d="M 302.296875 219.601562 L 308.703125 214.101562 L 301.398438 218 L 300.703125 219.601562 L 302.296875 219.601562 " transform="matrix(0.5,0,0,0.5,0,0)"/>
<path style="fill-rule:nonzero;fill:rgb(0%,60.784316%,22.745098%);fill-opacity:1;stroke-width:0.1;stroke-linecap:butt;stroke-linejoin:miter;stroke:rgb(0%,0%,0%);stroke-opacity:1;stroke-miterlimit:4;" d="M 308.703125 218.703125 C 306 219.296875 301.796875 220 299.296875 220.796875 C 300.5 218.101562 302.101562 213.703125 303.101562 211 C 302.601562 213.398438 301.703125 216.601562 301.5 218.796875 C 303.5 219.101562 306.5 218.796875 308.703125 218.703125 " transform="matrix(0.5,0,0,0.5,0,0)"/>
<path style="fill-rule:nonzero;fill:rgb(0%,60.784316%,22.745098%);fill-opacity:1;stroke-width:0.1;stroke-linecap:butt;stroke-linejoin:miter;stroke:rgb(0%,0%,0%);stroke-opacity:1;stroke-miterlimit:4;" d="M 301.203125 220 L 305.203125 212.296875 L 299.796875 218.898438 L 299.703125 220.601562 L 301.203125 219.898438 " transform="matrix(0.5,0,0,0.5,0,0)"/>
<path style="fill-rule:nonzero;fill:rgb(0%,60.784316%,22.745098%);fill-opacity:1;stroke-width:0.1;stroke-linecap:butt;stroke-linejoin:miter;stroke:rgb(0%,0%,0%);stroke-opacity:1;stroke-miterlimit:4;" d="M 308.703125 219.101562 C 305.703125 219.898438 301.296875 220.898438 298.703125 221.898438 C 299.703125 218.796875 300.796875 213.898438 301.601562 210.796875 C 301.296875 213.5 300.703125 217.101562 300.796875 219.601562 C 303.101562 219.796875 306.296875 219.296875 308.601562 219.101562 " transform="matrix(0.5,0,0,0.5,0,0)"/>
<path style="fill-rule:nonzero;fill:rgb(0%,60.784316%,22.745098%);fill-opacity:1;stroke-width:0.1;stroke-linecap:butt;stroke-linejoin:miter;stroke:rgb(0%,0%,0%);stroke-opacity:1;stroke-miterlimit:4;" d="M 300.398438 221.703125 L 305.601562 214.101562 L 299 220.203125 L 298.703125 222.203125 L 300.398438 221.703125 " transform="matrix(0.5,0,0,0.5,0,0)"/>
<path style="fill-rule:nonzero;fill:rgb(0%,60.784316%,22.745098%);fill-opacity:1;stroke-width:0.1;stroke-linecap:butt;stroke-linejoin:miter;stroke:rgb(0%,0%,0%);stroke-opacity:1;stroke-miterlimit:4;" d="M 307.5 220 C 304.703125 220.898438 300.296875 222.101562 297.703125 223.296875 C 298.5 220.101562 299.5 215.203125 300.101562 212.101562 C 300 214.796875 299.601562 218.398438 299.796875 220.796875 C 302 220.898438 305.203125 220.203125 307.5 220 " transform="matrix(0.5,0,0,0.5,0,0)"/>
<path style="fill-rule:nonzero;fill:rgb(0%,60.784316%,22.745098%);fill-opacity:1;stroke-width:0.1;stroke-linecap:butt;stroke-linejoin:miter;stroke:rgb(0%,0%,0%);stroke-opacity:1;stroke-miterlimit:4;" d="M 299.398438 222.796875 L 303.296875 214.398438 L 297.703125 221.601562 L 297.703125 223.601562 L 299.398438 222.796875 " transform="matrix(0.5,0,0,0.5,0,0)"/>
<path style="fill-rule:nonzero;fill:rgb(0%,60.784316%,22.745098%);fill-opacity:1;stroke-width:0.1;stroke-linecap:butt;stroke-linejoin:miter;stroke:rgb(0%,0%,0%);stroke-opacity:1;stroke-miterlimit:4;" d="M 306.398438 221.203125 C 303.601562 221.796875 299.101562 222.703125 296.398438 223.601562 C 297.5 220.601562 298.898438 215.601562 299.796875 212.601562 C 299.398438 215.296875 298.703125 219 298.703125 221.296875 C 300.898438 221.601562 304.101562 221.203125 306.398438 221.101562 " transform="matrix(0.5,0,0,0.5,0,0)"/>
<path style="fill-rule:nonzero;fill:rgb(0%,60.784316%,22.745098%);fill-opacity:1;stroke-width:0.1;stroke-linecap:butt;stroke-linejoin:miter;stroke:rgb(0%,0%,0%);stroke-opacity:1;stroke-miterlimit:4;" d="M 298.398438 223.601562 L 304.796875 217 L 297.296875 221.898438 L 296.703125 223.703125 L 298.398438 223.601562 " transform="matrix(0.5,0,0,0.5,0,0)"/>
<path style="fill-rule:nonzero;fill:rgb(0%,60.784316%,22.745098%);fill-opacity:1;stroke-width:0.1;stroke-linecap:butt;stroke-linejoin:miter;stroke:rgb(0%,0%,0%);stroke-opacity:1;stroke-miterlimit:4;" d="M 305.203125 222.296875 C 302.296875 222.703125 297.898438 223.101562 295.203125 223.796875 C 296.5 220.796875 298.203125 216 299.203125 213 C 298.601562 215.703125 297.703125 219.296875 297.5 221.703125 C 299.703125 222.203125 302.898438 222.101562 305.203125 222.296875 " transform="matrix(0.5,0,0,0.5,0,0)"/>
<path style="fill-rule:nonzero;fill:rgb(0%,60.784316%,22.745098%);fill-opacity:1;stroke-width:0.1;stroke-linecap:butt;stroke-linejoin:miter;stroke:rgb(0%,0%,0%);stroke-opacity:1;stroke-miterlimit:4;" d="M 297.203125 223 L 301.5 214.703125 L 295.601562 221.703125 L 295.601562 223.601562 L 297.203125 222.898438 " transform="matrix(0.5,0,0,0.5,0,0)"/>
<path style="fill-rule:nonzero;fill:rgb(0%,60.784316%,22.745098%);fill-opacity:1;stroke-width:0.1;stroke-linecap:butt;stroke-linejoin:miter;stroke:rgb(0%,0%,0%);stroke-opacity:1;stroke-miterlimit:4;" d="M 305.5 221.296875 C 302.5 222.601562 297.5 224.296875 294.601562 225.898438 C 295.601562 222.203125 296.601562 216.398438 297.203125 212.796875 C 297.203125 215.898438 296.703125 220.203125 296.898438 222.898438 C 299.398438 222.898438 302.898438 221.796875 305.5 221.296875 " transform="matrix(0.5,0,0,0.5,0,0)"/>
<path style="fill-rule:nonzero;fill:rgb(0%,60.784316%,22.745098%);fill-opacity:1;stroke-width:0.1;stroke-linecap:butt;stroke-linejoin:miter;stroke:rgb(0%,0%,0%);stroke-opacity:1;stroke-miterlimit:4;" d="M 296.601562 225.398438 L 301.796875 216 L 294.898438 224 L 294.703125 226.203125 L 296.601562 225.398438 " transform="matrix(0.5,0,0,0.5,0,0)"/>
<path style="fill-rule:nonzero;fill:rgb(0%,60.784316%,22.745098%);fill-opacity:1;stroke-width:0.1;stroke-linecap:butt;stroke-linejoin:miter;stroke:rgb(0%,0%,0%);stroke-opacity:1;stroke-miterlimit:4;" d="M 304.296875 222.5 C 301.296875 223.898438 296.5 225.898438 293.703125 227.601562 C 294.5 224 295.203125 218.101562 295.703125 214.601562 C 295.703125 217.601562 295.5 221.898438 295.796875 224.601562 C 298.296875 224.296875 301.796875 223.101562 304.296875 222.5 " transform="matrix(0.5,0,0,0.5,0,0)"/>
<path style="fill-rule:nonzero;fill:rgb(0%,60.784316%,22.745098%);fill-opacity:1;stroke-width:0.1;stroke-linecap:butt;stroke-linejoin:miter;stroke:rgb(0%,0%,0%);stroke-opacity:1;stroke-miterlimit:4;" d="M 295.5 226.796875 L 299.296875 216.703125 L 293.601562 225.703125 L 293.796875 228 L 295.5 226.796875 " transform="matrix(0.5,0,0,0.5,0,0)"/>
<path style="fill-rule:nonzero;fill:rgb(0%,60.784316%,22.745098%);fill-opacity:1;stroke-width:0.1;stroke-linecap:butt;stroke-linejoin:miter;stroke:rgb(0%,0%,0%);stroke-opacity:1;stroke-miterlimit:4;" d="M 303 223.296875 C 300 224.796875 295.203125 226.796875 292.398438 228.601562 C 293.101562 224.898438 293.796875 219.101562 294.296875 215.5 C 294.296875 218.5 294.101562 222.796875 294.5 225.5 C 297 225.203125 300.5 223.898438 303 223.296875 " transform="matrix(0.5,0,0,0.5,0,0)"/>
<path style="fill-rule:nonzero;fill:rgb(0%,60.784316%,22.745098%);fill-opacity:1;stroke-width:0.1;stroke-linecap:butt;stroke-linejoin:miter;stroke:rgb(0%,0%,0%);stroke-opacity:1;stroke-miterlimit:4;" d="M 294.703125 228 L 300.5 219.101562 L 293.101562 226.398438 L 292.796875 228.601562 L 294.703125 228 " transform="matrix(0.5,0,0,0.5,0,0)"/>
<path style="fill-rule:nonzero;fill:rgb(0%,60.784316%,22.745098%);fill-opacity:1;stroke-width:0.1;stroke-linecap:butt;stroke-linejoin:miter;stroke:rgb(0%,0%,0%);stroke-opacity:1;stroke-miterlimit:4;" d="M 302.703125 222.796875 C 300 225 295.703125 228.203125 293.296875 230.601562 C 293.296875 226.796875 292.796875 221.101562 292.5 217.601562 C 293.101562 220.5 293.796875 224.601562 294.796875 227.101562 C 297.203125 226.203125 300.296875 224.101562 302.796875 222.898438 " transform="matrix(0.5,0,0,0.5,0,0)"/>
<path style="fill-rule:nonzero;fill:rgb(0%,60.784316%,22.745098%);fill-opacity:1;stroke-width:0.1;stroke-linecap:butt;stroke-linejoin:miter;stroke:rgb(0%,0%,0%);stroke-opacity:1;stroke-miterlimit:4;" d="M 295 228.5 L 295.601562 217.796875 L 292.796875 228.203125 L 293.601562 230.203125 L 295 228.5 " transform="matrix(0.5,0,0,0.5,0,0)"/>
<path style="fill-rule:nonzero;fill:rgb(0%,60.784316%,22.745098%);fill-opacity:1;stroke-width:0.1;stroke-linecap:butt;stroke-linejoin:miter;stroke:rgb(0%,0%,0%);stroke-opacity:1;stroke-miterlimit:4;" d="M 302 223.796875 C 299.203125 226 295 229.101562 292.5 231.5 C 292.5 227.796875 292 222 291.703125 218.5 C 292.398438 221.5 293 225.5 294 228 C 296.398438 227.203125 299.5 225 302 223.796875 " transform="matrix(0.5,0,0,0.5,0,0)"/>
<path style="fill-rule:nonzero;fill:rgb(0%,60.784316%,22.745098%);fill-opacity:1;stroke-width:0.1;stroke-linecap:butt;stroke-linejoin:miter;stroke:rgb(0%,0%,0%);stroke-opacity:1;stroke-miterlimit:4;" d="M 294.296875 230.296875 L 297 219.796875 L 292.296875 229.398438 L 292.601562 231.601562 L 294.296875 230.296875 " transform="matrix(0.5,0,0,0.5,0,0)"/>
<path style="fill-rule:nonzero;fill:rgb(0%,60.784316%,22.745098%);fill-opacity:1;stroke-width:0.1;stroke-linecap:butt;stroke-linejoin:miter;stroke:rgb(0%,0%,0%);stroke-opacity:1;stroke-miterlimit:4;" d="M 301.601562 224 C 299.101562 226.601562 295 230.398438 292.703125 233 C 292.296875 229.296875 291.203125 223.398438 290.5 219.796875 C 291.5 222.796875 292.601562 226.898438 293.898438 229.296875 C 296.203125 228.203125 299.296875 225.703125 301.601562 224.101562 " transform="matrix(0.5,0,0,0.5,0,0)"/>
<path style="fill-rule:nonzero;fill:rgb(0%,60.784316%,22.745098%);fill-opacity:1;stroke-width:0.1;stroke-linecap:butt;stroke-linejoin:miter;stroke:rgb(0%,0%,0%);stroke-opacity:1;stroke-miterlimit:4;" d="M 294.296875 231.601562 L 294.796875 220.5 L 292.101562 231.296875 L 292.898438 233.296875 L 294.296875 231.601562 " transform="matrix(0.5,0,0,0.5,0,0)"/>
<path style="fill-rule:nonzero;fill:rgb(0%,60.784316%,22.745098%);fill-opacity:1;stroke-width:0.1;stroke-linecap:butt;stroke-linejoin:miter;stroke:rgb(0%,0%,0%);stroke-opacity:1;stroke-miterlimit:4;" d="M 300.796875 226 C 298.101562 228.203125 293.796875 231.5 291.203125 234 C 291.203125 230.203125 290.5 224.203125 290.203125 220.5 C 290.898438 223.5 291.703125 227.796875 292.703125 230.398438 C 295.203125 229.398438 298.398438 227.296875 300.796875 225.898438 " transform="matrix(0.5,0,0,0.5,0,0)"/>
<path style="fill-rule:nonzero;fill:rgb(0%,60.784316%,22.745098%);fill-opacity:1;stroke-width:0.1;stroke-linecap:butt;stroke-linejoin:miter;stroke:rgb(0%,0%,0%);stroke-opacity:1;stroke-miterlimit:4;" d="M 293.5 232.898438 L 297.296875 222.398438 L 291.5 231.703125 L 291.703125 234 L 293.5 232.898438 " transform="matrix(0.5,0,0,0.5,0,0)"/>
<path style="fill-rule:nonzero;fill:rgb(0%,60.784316%,22.745098%);fill-opacity:1;stroke-width:0.1;stroke-linecap:butt;stroke-linejoin:miter;stroke:rgb(0%,0%,0%);stroke-opacity:1;stroke-miterlimit:4;" d="M 300.796875 226 C 298.296875 228.5 294.5 232.398438 292.296875 235.101562 C 291.898438 231.296875 290.796875 225.296875 290.203125 221.703125 C 291.203125 224.703125 292.203125 228.898438 293.398438 231.296875 C 295.703125 230.101562 298.5 227.601562 300.796875 226 " transform="matrix(0.5,0,0,0.5,0,0)"/>
<path style="fill-rule:nonzero;fill:rgb(0%,60.784316%,22.745098%);fill-opacity:1;stroke-width:0.1;stroke-linecap:butt;stroke-linejoin:miter;stroke:rgb(0%,0%,0%);stroke-opacity:1;stroke-miterlimit:4;" d="M 293.601562 233.398438 L 293.203125 222.398438 L 291.398438 233.398438 L 292.398438 235.296875 L 293.601562 233.398438 " transform="matrix(0.5,0,0,0.5,0,0)"/>
<path style="fill-rule:nonzero;fill:rgb(0%,60.784316%,22.745098%);fill-opacity:1;stroke-width:0.1;stroke-linecap:butt;stroke-linejoin:miter;stroke:rgb(0%,0%,0%);stroke-opacity:1;stroke-miterlimit:4;" d="M 299.601562 226.796875 C 297.203125 229.398438 293.5 233.296875 291.398438 236.101562 C 290.898438 232.101562 289.601562 226.296875 288.898438 222.601562 C 289.898438 225.601562 291.203125 229.796875 292.398438 232.203125 C 294.601562 231 297.398438 228.398438 299.601562 226.796875 " transform="matrix(0.5,0,0,0.5,0,0)"/>
<path style="fill-rule:nonzero;fill:rgb(0%,60.784316%,22.745098%);fill-opacity:1;stroke-width:0.1;stroke-linecap:butt;stroke-linejoin:miter;stroke:rgb(0%,0%,0%);stroke-opacity:1;stroke-miterlimit:4;" d="M 293 234.5 L 294.203125 223.296875 L 290.898438 233.898438 L 291.601562 236.101562 L 293 234.5 " transform="matrix(0.5,0,0,0.5,0,0)"/>
<path style="fill-rule:nonzero;fill:rgb(0%,60.784316%,22.745098%);fill-opacity:1;stroke-width:0.1;stroke-linecap:butt;stroke-linejoin:miter;stroke:rgb(0%,0%,0%);stroke-opacity:1;stroke-miterlimit:4;" d="M 299 227.203125 C 297 230.101562 293.5 234.203125 291.601562 237.203125 C 290.796875 233.398438 289.101562 227.703125 288.101562 224.203125 C 289.398438 227 290.898438 231 292.296875 233.296875 C 294.398438 231.898438 297 229.101562 299.101562 227.296875 " transform="matrix(0.5,0,0,0.5,0,0)"/>
<path style="fill-rule:nonzero;fill:rgb(0%,60.784316%,22.745098%);fill-opacity:1;stroke-width:0.1;stroke-linecap:butt;stroke-linejoin:miter;stroke:rgb(0%,0%,0%);stroke-opacity:1;stroke-miterlimit:4;" d="M 293 235.601562 L 292.203125 224.296875 L 290.796875 235.5 L 291.796875 237.5 L 292.898438 235.5 " transform="matrix(0.5,0,0,0.5,0,0)"/>
<path style="fill-rule:nonzero;fill:rgb(0%,60.784316%,22.745098%);fill-opacity:1;stroke-width:0.1;stroke-linecap:butt;stroke-linejoin:miter;stroke:rgb(0%,0%,0%);stroke-opacity:1;stroke-miterlimit:4;" d="M 298.898438 227.898438 C 296.898438 230.898438 293.601562 235.203125 291.898438 238.296875 C 290.898438 234.5 288.898438 228.796875 287.703125 225.296875 C 289.101562 228.101562 290.796875 232.101562 292.398438 234.296875 C 294.398438 232.796875 296.898438 229.796875 298.898438 227.898438 " transform="matrix(0.5,0,0,0.5,0,0)"/>
<path style="fill-rule:nonzero;fill:rgb(0%,60.784316%,22.745098%);fill-opacity:1;stroke-width:0.1;stroke-linecap:butt;stroke-linejoin:miter;stroke:rgb(0%,0%,0%);stroke-opacity:1;stroke-miterlimit:4;" d="M 293.601562 236.601562 L 294.796875 225.296875 L 291.601562 235.898438 L 292.203125 238.203125 L 293.601562 236.601562 " transform="matrix(0.5,0,0,0.5,0,0)"/>
<path style="fill-rule:nonzero;fill:rgb(0%,60.784316%,22.745098%);fill-opacity:1;stroke-width:0.1;stroke-linecap:butt;stroke-linejoin:miter;stroke:rgb(0%,0%,0%);stroke-opacity:1;stroke-miterlimit:4;" d="M 298.398438 229 C 296.703125 232.101562 293.898438 237 292.398438 240.296875 C 291.101562 236.703125 288.601562 231.296875 287.101562 227.898438 C 288.796875 230.5 290.796875 234.203125 292.601562 236.296875 C 294.5 234.5 296.601562 231.101562 298.398438 228.898438 " transform="matrix(0.5,0,0,0.5,0,0)"/>
<path style="fill-rule:nonzero;fill:rgb(0%,60.784316%,22.745098%);fill-opacity:1;stroke-width:0.1;stroke-linecap:butt;stroke-linejoin:miter;stroke:rgb(0%,0%,0%);stroke-opacity:1;stroke-miterlimit:4;" d="M 293.296875 237.601562 L 290.101562 226.796875 L 291.101562 238.101562 L 292.601562 239.703125 L 293.203125 237.601562 " transform="matrix(0.5,0,0,0.5,0,0)"/>
<path style="fill-rule:nonzero;fill:rgb(0%,60.784316%,22.745098%);fill-opacity:1;stroke-width:0.1;stroke-linecap:butt;stroke-linejoin:miter;stroke:rgb(0%,0%,0%);stroke-opacity:1;stroke-miterlimit:4;" d="M 298.398438 230.203125 C 296.601562 233.398438 293.601562 238.203125 292.101562 241.5 C 290.796875 237.898438 288.296875 232.5 286.703125 229.203125 C 288.398438 231.796875 290.5 235.5 292.296875 237.5 C 294.296875 235.703125 296.5 232.398438 298.296875 230.203125 " transform="matrix(0.5,0,0,0.5,0,0)"/>
<path style="fill-rule:nonzero;fill:rgb(0%,60.784316%,22.745098%);fill-opacity:1;stroke-width:0.1;stroke-linecap:butt;stroke-linejoin:miter;stroke:rgb(0%,0%,0%);stroke-opacity:1;stroke-miterlimit:4;" d="M 293.398438 239.601562 L 292.203125 228.296875 L 291.203125 239.601562 L 292.296875 241.601562 L 293.398438 239.601562 " transform="matrix(0.5,0,0,0.5,0,0)"/>
<path style="fill-rule:nonzero;fill:rgb(0%,60.784316%,22.745098%);fill-opacity:1;stroke-width:0.1;stroke-linecap:butt;stroke-linejoin:miter;stroke:rgb(0%,0%,0%);stroke-opacity:1;stroke-miterlimit:4;" d="M 298.601562 231.203125 C 296.703125 234.296875 293.601562 239.101562 292.101562 242.296875 C 290.796875 238.703125 288.398438 233.296875 286.898438 229.898438 C 288.601562 232.5 290.601562 236.296875 292.398438 238.296875 C 294.398438 236.601562 296.703125 233.296875 298.601562 231.203125 " transform="matrix(0.5,0,0,0.5,0,0)"/>
<path style="fill-rule:nonzero;fill:rgb(0%,60.784316%,22.745098%);fill-opacity:1;stroke-width:0.1;stroke-linecap:butt;stroke-linejoin:miter;stroke:rgb(0%,0%,0%);stroke-opacity:1;stroke-miterlimit:4;" d="M 293.296875 240.5 L 291.203125 229.5 L 291.101562 240.703125 L 292.398438 242.5 L 293.296875 240.5 " transform="matrix(0.5,0,0,0.5,0,0)"/>
<path style="fill-rule:nonzero;fill:rgb(0%,60.784316%,22.745098%);fill-opacity:1;stroke-width:0.1;stroke-linecap:butt;stroke-linejoin:miter;stroke:rgb(0%,0%,0%);stroke-opacity:1;stroke-miterlimit:4;" d="M 297.796875 232.796875 C 295.796875 235.796875 292.5 240.296875 290.796875 243.5 C 289.703125 239.796875 287.5 234.101562 286.203125 230.703125 C 287.703125 233.398438 289.601562 237.296875 291.203125 239.5 C 293.296875 237.898438 295.796875 234.796875 297.796875 232.796875 " transform="matrix(0.5,0,0,0.5,0,0)"/>
<path style="fill-rule:nonzero;fill:rgb(0%,60.784316%,22.745098%);fill-opacity:1;stroke-width:0.1;stroke-linecap:butt;stroke-linejoin:miter;stroke:rgb(0%,0%,0%);stroke-opacity:1;stroke-miterlimit:4;" d="M 292.296875 241.703125 L 293.296875 230.398438 L 290.203125 241.101562 L 290.898438 243.296875 L 292.296875 241.703125 " transform="matrix(0.5,0,0,0.5,0,0)"/>
<path style="fill-rule:nonzero;fill:rgb(0%,60.784316%,22.745098%);fill-opacity:1;stroke-width:0.1;stroke-linecap:butt;stroke-linejoin:miter;stroke:rgb(0%,0%,0%);stroke-opacity:1;stroke-miterlimit:4;" d="M 297.898438 233 C 296.203125 236.296875 293.296875 241.296875 291.898438 244.601562 C 290.5 241.101562 287.898438 235.796875 286.203125 232.601562 C 288 235 290.203125 238.601562 292 240.601562 C 294 238.703125 296 235.296875 297.898438 233.101562 " transform="matrix(0.5,0,0,0.5,0,0)"/>
<path style="fill-rule:nonzero;fill:rgb(0%,60.784316%,22.745098%);fill-opacity:1;stroke-width:0.1;stroke-linecap:butt;stroke-linejoin:miter;stroke:rgb(0%,0%,0%);stroke-opacity:1;stroke-miterlimit:4;" d="M 292 242.703125 L 288.5 232.101562 L 289.796875 243.296875 L 291.296875 244.898438 L 291.898438 242.703125 " transform="matrix(0.5,0,0,0.5,0,0)"/>
<path style="fill-rule:nonzero;fill:rgb(0%,60.784316%,22.745098%);fill-opacity:1;stroke-width:0.1;stroke-linecap:butt;stroke-linejoin:miter;stroke:rgb(0%,0%,0%);stroke-opacity:1;stroke-miterlimit:4;" d="M 297.398438 233.898438 C 296.203125 237.5 294.203125 242.898438 293.398438 246.601562 C 291.398438 243.398438 287.898438 238.796875 285.796875 235.898438 C 287.898438 238 290.703125 241.101562 292.796875 242.601562 C 294.398438 240.296875 296 236.601562 297.398438 233.898438 " transform="matrix(0.5,0,0,0.5,0,0)"/>
<path style="fill-rule:nonzero;fill:rgb(0%,60.784316%,22.745098%);fill-opacity:1;stroke-width:0.1;stroke-linecap:butt;stroke-linejoin:miter;stroke:rgb(0%,0%,0%);stroke-opacity:1;stroke-miterlimit:4;" d="M 295 243.5 L 291.296875 233.101562 L 292.898438 244.296875 L 294.398438 245.703125 L 295 243.5 " transform="matrix(0.5,0,0,0.5,0,0)"/>
<path style="fill-rule:nonzero;fill:rgb(0%,60.784316%,22.745098%);fill-opacity:1;stroke-width:0.1;stroke-linecap:butt;stroke-linejoin:miter;stroke:rgb(0%,0%,0%);stroke-opacity:1;stroke-miterlimit:4;" d="M 297.398438 235 C 296.203125 238.601562 294.203125 244.101562 293.398438 247.703125 C 291.398438 244.5 288 240 285.796875 237.203125 C 287.898438 239.203125 290.703125 242.203125 292.796875 243.796875 C 294.398438 241.5 296 237.703125 297.398438 235 " transform="matrix(0.5,0,0,0.5,0,0)"/>
<path style="fill-rule:nonzero;fill:rgb(0%,60.784316%,22.745098%);fill-opacity:1;stroke-width:0.1;stroke-linecap:butt;stroke-linejoin:miter;stroke:rgb(0%,0%,0%);stroke-opacity:1;stroke-miterlimit:4;" d="M 295 245.296875 L 290.203125 235.601562 L 293 246.398438 L 294.703125 247.601562 L 295.101562 245.296875 " transform="matrix(0.5,0,0,0.5,0,0)"/>
<path style="fill-rule:nonzero;fill:rgb(0%,60.784316%,22.745098%);fill-opacity:1;stroke-width:0.1;stroke-linecap:butt;stroke-linejoin:miter;stroke:rgb(0%,0%,0%);stroke-opacity:1;stroke-miterlimit:4;" d="M 297 235.898438 C 296.296875 239.601562 295 245.398438 294.5 249.101562 C 292.203125 246.203125 288.203125 242.101562 285.796875 239.703125 C 288.101562 241.398438 291.203125 244.101562 293.5 245.203125 C 294.796875 242.703125 295.898438 238.703125 297 235.898438 " transform="matrix(0.5,0,0,0.5,0,0)"/>
<path style="fill-rule:nonzero;fill:rgb(0%,60.784316%,22.745098%);fill-opacity:1;stroke-width:0.1;stroke-linecap:butt;stroke-linejoin:miter;stroke:rgb(0%,0%,0%);stroke-opacity:1;stroke-miterlimit:4;" d="M 295.398438 246.796875 L 292.796875 235.898438 L 293.203125 247.203125 L 294.601562 248.898438 L 295.398438 246.898438 " transform="matrix(0.5,0,0,0.5,0,0)"/>
<path style="fill-rule:nonzero;fill:rgb(0%,60.784316%,22.745098%);fill-opacity:1;stroke-width:0.1;stroke-linecap:butt;stroke-linejoin:miter;stroke:rgb(0%,0%,0%);stroke-opacity:1;stroke-miterlimit:4;" d="M 297 237 C 296.601562 240.898438 295.796875 246.796875 295.796875 250.5 C 293.203125 248 288.898438 244.5 286.296875 242.398438 C 288.703125 243.796875 292 246 294.398438 246.796875 C 295.398438 244.203125 296.203125 240 297 237.101562 " transform="matrix(0.5,0,0,0.5,0,0)"/>
<path style="fill-rule:nonzero;fill:rgb(0%,60.784316%,22.745098%);fill-opacity:1;stroke-width:0.1;stroke-linecap:butt;stroke-linejoin:miter;stroke:rgb(0%,0%,0%);stroke-opacity:1;stroke-miterlimit:4;" d="M 295.5 247.601562 L 288.601562 239.796875 L 293.796875 249.296875 L 295.796875 249.898438 L 295.5 247.601562 " transform="matrix(0.5,0,0,0.5,0,0)"/>
<path style="fill-rule:nonzero;fill:rgb(0%,60.784316%,22.745098%);fill-opacity:1;stroke-width:0.1;stroke-linecap:butt;stroke-linejoin:miter;stroke:rgb(0%,0%,0%);stroke-opacity:1;stroke-miterlimit:4;" d="M 297.203125 238.398438 C 296.796875 242.203125 296 248.101562 295.898438 251.796875 C 293.296875 249.296875 289 245.796875 286.398438 243.601562 C 288.898438 245 292.203125 247.296875 294.5 248.101562 C 295.601562 245.5 296.296875 241.296875 297.203125 238.398438 " transform="matrix(0.5,0,0,0.5,0,0)"/>
<path style="fill-rule:nonzero;fill:rgb(0%,60.784316%,22.745098%);fill-opacity:1;stroke-width:0.1;stroke-linecap:butt;stroke-linejoin:miter;stroke:rgb(0%,0%,0%);stroke-opacity:1;stroke-miterlimit:4;" d="M 296.296875 249.398438 L 291 240 L 294.296875 250.703125 L 296 251.796875 L 296.296875 249.5 " transform="matrix(0.5,0,0,0.5,0,0)"/>
<path style="fill-rule:nonzero;fill:rgb(0%,60.784316%,22.745098%);fill-opacity:1;stroke-width:0.1;stroke-linecap:butt;stroke-linejoin:miter;stroke:rgb(0%,0%,0%);stroke-opacity:1;stroke-miterlimit:4;" d="M 297.5 240 C 297.203125 243.796875 296.703125 249.703125 296.703125 253.5 C 293.570312 250.796875 290.296875 248.257812 286.898438 245.898438 C 289.5 247.101562 292.898438 249.203125 295.203125 249.898438 C 296.203125 247.203125 296.796875 242.898438 297.5 239.898438 " transform="matrix(0.5,0,0,0.5,0,0)"/>
<path style="fill-rule:nonzero;fill:rgb(0%,60.784316%,22.745098%);fill-opacity:1;stroke-width:0.1;stroke-linecap:butt;stroke-linejoin:miter;stroke:rgb(0%,0%,0%);stroke-opacity:1;stroke-miterlimit:4;" d="M 297 251.203125 L 290.398438 242.898438 L 295.203125 252.703125 L 297 253.5 L 297 251.203125 " transform="matrix(0.5,0,0,0.5,0,0)"/>
<path style="fill-rule:nonzero;fill:rgb(0%,60.784316%,22.745098%);fill-opacity:1;stroke-width:0.1;stroke-linecap:butt;stroke-linejoin:miter;stroke:rgb(0%,0%,0%);stroke-opacity:1;stroke-miterlimit:4;" d="M 297.601562 241.796875 C 297.296875 245.601562 296.796875 251.5 296.898438 255.296875 C 294.203125 252.898438 289.796875 249.703125 287 247.703125 C 289.601562 249 293 251 295.398438 251.703125 C 296.398438 249 296.898438 244.703125 297.601562 241.703125 " transform="matrix(0.5,0,0,0.5,0,0)"/>
<path style="fill-rule:nonzero;fill:rgb(0%,60.784316%,22.745098%);fill-opacity:1;stroke-width:0.1;stroke-linecap:butt;stroke-linejoin:miter;stroke:rgb(0%,0%,0%);stroke-opacity:1;stroke-miterlimit:4;" d="M 297.5 252.601562 L 293 242.601562 L 295.5 253.601562 L 297.101562 254.898438 L 297.5 252.601562 " transform="matrix(0.5,0,0,0.5,0,0)"/>
<path style="fill-rule:nonzero;fill:rgb(0%,60.784316%,22.745098%);fill-opacity:1;stroke-width:0.1;stroke-linecap:butt;stroke-linejoin:miter;stroke:rgb(0%,0%,0%);stroke-opacity:1;stroke-miterlimit:4;" d="M 297.703125 242.898438 C 297.898438 246.796875 297.898438 252.703125 298.296875 256.5 C 294.929688 254.28125 291.460938 252.210938 287.898438 250.296875 C 290.5 251.203125 294 252.703125 296.5 253.101562 C 297.203125 250.203125 297.296875 246 297.703125 242.898438 " transform="matrix(0.5,0,0,0.5,0,0)"/>
<path style="fill-rule:nonzero;fill:rgb(0%,60.784316%,22.745098%);fill-opacity:1;stroke-width:0.1;stroke-linecap:butt;stroke-linejoin:miter;stroke:rgb(0%,0%,0%);stroke-opacity:1;stroke-miterlimit:4;" d="M 298.296875 252.203125 L 290 246.5 L 297 254.296875 L 299 254.398438 L 298.296875 252.203125 " transform="matrix(0.5,0,0,0.5,0,0)"/>
<path style="fill-rule:nonzero;fill:rgb(0%,60.784316%,22.745098%);fill-opacity:1;stroke-width:0.1;stroke-linecap:butt;stroke-linejoin:miter;stroke:rgb(0%,0%,0%);stroke-opacity:1;stroke-miterlimit:4;" d="M 298 243.296875 C 298.296875 247.203125 298.703125 253.101562 299.296875 256.796875 C 296.296875 254.898438 291.5 252.5 288.5 251 C 291.203125 251.796875 294.796875 253.203125 297.296875 253.5 C 297.796875 250.601562 297.703125 246.398438 298 243.296875 " transform="matrix(0.5,0,0,0.5,0,0)"/>
<path style="fill-rule:nonzero;fill:rgb(0%,60.784316%,22.745098%);fill-opacity:1;stroke-width:0.1;stroke-linecap:butt;stroke-linejoin:miter;stroke:rgb(0%,0%,0%);stroke-opacity:1;stroke-miterlimit:4;" d="M 299.296875 254.296875 L 292.296875 246.296875 L 297.601562 255.898438 L 299.5 256.601562 L 299.203125 254.296875 " transform="matrix(0.5,0,0,0.5,0,0)"/>
<path style="fill-rule:nonzero;fill:rgb(0%,60.784316%,22.745098%);fill-opacity:1;stroke-width:0.1;stroke-linecap:butt;stroke-linejoin:miter;stroke:rgb(0%,0%,0%);stroke-opacity:1;stroke-miterlimit:4;" d="M 298.601562 244.796875 C 299.101562 248.601562 299.601562 254.5 300.5 258.203125 C 297.5 256.5 292.5 254.398438 289.5 253.101562 C 292.203125 253.703125 295.898438 254.898438 298.296875 255.101562 C 298.703125 252.101562 298.5 247.898438 298.601562 244.796875 " transform="matrix(0.5,0,0,0.5,0,0)"/>
<path style="fill-rule:nonzero;fill:rgb(0%,60.784316%,22.745098%);fill-opacity:1;stroke-width:0.1;stroke-linecap:butt;stroke-linejoin:miter;stroke:rgb(0%,0%,0%);stroke-opacity:1;stroke-miterlimit:4;" d="M 300.601562 255.703125 L 292.296875 249.796875 L 299.296875 257.796875 L 301.296875 257.898438 L 300.601562 255.703125 " transform="matrix(0.5,0,0,0.5,0,0)"/>
<path style="fill-rule:nonzero;fill:rgb(0%,60.784316%,22.745098%);fill-opacity:1;stroke-width:0.1;stroke-linecap:butt;stroke-linejoin:miter;stroke:rgb(0%,0%,0%);stroke-opacity:1;stroke-miterlimit:4;" d="M 298.898438 246.398438 C 299.601562 250.203125 300.601562 256.101562 301.601562 259.703125 C 298.5 258.203125 293.398438 256.601562 290.296875 255.601562 C 293.101562 255.898438 296.796875 256.796875 299.296875 256.601562 C 299.5 253.703125 299 249.601562 298.898438 246.398438 " transform="matrix(0.5,0,0,0.5,0,0)"/>
<path style="fill-rule:nonzero;fill:rgb(0%,60.784316%,22.745098%);fill-opacity:1;stroke-width:0.1;stroke-linecap:butt;stroke-linejoin:miter;stroke:rgb(0%,0%,0%);stroke-opacity:1;stroke-miterlimit:4;" d="M 301.601562 256.898438 L 294.601562 248.703125 L 299.796875 258.398438 L 301.796875 259.203125 L 301.601562 256.898438 " transform="matrix(0.5,0,0,0.5,0,0)"/>
<path style="fill-rule:nonzero;fill:rgb(0%,60.784316%,22.745098%);fill-opacity:1;stroke-width:0.1;stroke-linecap:butt;stroke-linejoin:miter;stroke:rgb(0%,0%,0%);stroke-opacity:1;stroke-miterlimit:4;" d="M 299.296875 247.398438 C 300.398438 251.101562 301.898438 256.898438 303.296875 260.398438 C 300 259.398438 294.898438 258.398438 291.703125 257.796875 C 294.5 257.796875 298.203125 258.101562 300.703125 257.703125 C 300.703125 254.703125 299.703125 250.601562 299.296875 247.5 " transform="matrix(0.5,0,0,0.5,0,0)"/>
<path style="fill-rule:nonzero;fill:rgb(0%,60.784316%,22.745098%);fill-opacity:1;stroke-width:0.1;stroke-linecap:butt;stroke-linejoin:miter;stroke:rgb(0%,0%,0%);stroke-opacity:1;stroke-miterlimit:4;" d="M 302 256.898438 L 292.296875 254.898438 L 301.398438 259.398438 L 303.296875 258.703125 L 301.898438 256.898438 " transform="matrix(0.5,0,0,0.5,0,0)"/>
<path style="fill-rule:nonzero;fill:rgb(0%,60.784316%,22.745098%);fill-opacity:1;stroke-width:0.1;stroke-linecap:butt;stroke-linejoin:miter;stroke:rgb(0%,0%,0%);stroke-opacity:1;stroke-miterlimit:4;" d="M 300 248.601562 C 301 252.296875 302.5 258 303.796875 261.5 C 300.601562 260.5 295.5 259.5 292.296875 258.898438 C 295.101562 258.898438 298.796875 259.203125 301.296875 258.898438 C 301.296875 255.898438 300.296875 251.703125 300 248.601562 " transform="matrix(0.5,0,0,0.5,0,0)"/>
<path style="fill-rule:nonzero;fill:rgb(0%,60.784316%,22.745098%);fill-opacity:1;stroke-width:0.1;stroke-linecap:butt;stroke-linejoin:miter;stroke:rgb(0%,0%,0%);stroke-opacity:1;stroke-miterlimit:4;" d="M 303.5 257.898438 L 294.296875 253.398438 L 302.5 260.101562 L 304.5 259.898438 L 303.5 257.898438 " transform="matrix(0.5,0,0,0.5,0,0)"/>
<path style="fill-rule:nonzero;fill:rgb(0%,60.784316%,22.745098%);fill-opacity:1;stroke-width:0.1;stroke-linecap:butt;stroke-linejoin:miter;stroke:rgb(0%,0%,0%);stroke-opacity:1;stroke-miterlimit:4;" d="M 299.5 249.203125 C 301.296875 252.601562 304 257.898438 306 260.898438 C 302.601562 260.703125 297.398438 260.898438 294.203125 260.898438 C 296.898438 260.398438 300.601562 259.898438 302.898438 258.898438 C 302.203125 256 300.5 252.203125 299.5 249.203125 " transform="matrix(0.5,0,0,0.5,0,0)"/>
<path style="fill-rule:nonzero;fill:rgb(0%,60.784316%,22.745098%);fill-opacity:1;stroke-width:0.1;stroke-linecap:butt;stroke-linejoin:miter;stroke:rgb(0%,0%,0%);stroke-opacity:1;stroke-miterlimit:4;" d="M 305 258.898438 L 295.398438 256.296875 L 304.398438 261.296875 L 306.203125 260.796875 L 304.898438 258.796875 " transform="matrix(0.5,0,0,0.5,0,0)"/>
<path style="fill-rule:nonzero;fill:rgb(0%,60.784316%,22.745098%);fill-opacity:1;stroke-width:0.1;stroke-linecap:butt;stroke-linejoin:miter;stroke:rgb(0%,0%,0%);stroke-opacity:1;stroke-miterlimit:4;" d="M 300.398438 250.703125 C 302.296875 254 305 259.296875 307.101562 262.296875 C 303.703125 262.101562 298.5 262.296875 295.296875 262.5 C 297.898438 261.796875 301.703125 261.296875 303.898438 260.296875 C 303.296875 257.398438 301.5 253.601562 300.5 250.703125 " transform="matrix(0.5,0,0,0.5,0,0)"/>
<path style="fill-rule:nonzero;fill:rgb(0%,60.784316%,22.745098%);fill-opacity:1;stroke-width:0.1;stroke-linecap:butt;stroke-linejoin:miter;stroke:rgb(0%,0%,0%);stroke-opacity:1;stroke-miterlimit:4;" d="M 306.101562 259.703125 L 297.203125 254.398438 L 305 261.796875 L 307 261.796875 L 306.101562 259.703125 " transform="matrix(0.5,0,0,0.5,0,0)"/>
<path style="fill-rule:nonzero;fill:rgb(0%,60.784316%,22.745098%);fill-opacity:1;stroke-width:0.1;stroke-linecap:butt;stroke-linejoin:miter;stroke:rgb(0%,0%,0%);stroke-opacity:1;stroke-miterlimit:4;" d="M 301.203125 251.5 C 303.296875 254.601562 306.5 259.5 308.796875 262.398438 C 304.898438 262.710938 301.023438 263.28125 297.203125 264.101562 C 299.796875 263.101562 303.398438 262.101562 305.601562 260.796875 C 304.601562 258 302.5 254.296875 301.203125 251.5 " transform="matrix(0.5,0,0,0.5,0,0)"/>
<path style="fill-rule:nonzero;fill:rgb(0%,60.784316%,22.745098%);fill-opacity:1;stroke-width:0.1;stroke-linecap:butt;stroke-linejoin:miter;stroke:rgb(0%,0%,0%);stroke-opacity:1;stroke-miterlimit:4;" d="M 306.796875 260.5 L 297.203125 260.203125 L 306.703125 263.101562 L 308.398438 262 L 306.796875 260.5 M 312.398438 213.898438 L 319.296875 212.796875 L 312.398438 212.898438 L 311.203125 213.5 L 312.398438 213.898438 " transform="matrix(0.5,0,0,0.5,0,0)"/>
<path style="fill-rule:nonzero;fill:rgb(0%,60.784316%,22.745098%);fill-opacity:1;stroke-width:0.1;stroke-linecap:butt;stroke-linejoin:miter;stroke:rgb(0%,0%,0%);stroke-opacity:1;stroke-miterlimit:4;" d="M 316.203125 215.398438 C 314.203125 214.796875 311.203125 213.796875 309.101562 213.398438 L 316.5 209.898438 C 315 210.898438 312.703125 212.101562 311.5 213.101562 C 312.703125 213.898438 314.796875 214.703125 316.203125 215.398438 " transform="matrix(0.5,0,0,0.5,0,0)"/>
<path style="fill-rule:nonzero;fill:rgb(0%,60.784316%,22.745098%);fill-opacity:1;stroke-width:0.1;stroke-linecap:butt;stroke-linejoin:miter;stroke:rgb(0%,0%,0%);stroke-opacity:1;stroke-miterlimit:4;" d="M 312 214.101562 L 318.796875 212.296875 L 311.796875 213.203125 L 310.796875 213.898438 L 312.101562 214.101562 " transform="matrix(0.5,0,0,0.5,0,0)"/>
<path style="fill-rule:nonzero;fill:rgb(0%,60.784316%,22.745098%);fill-opacity:1;stroke-width:0.1;stroke-linecap:butt;stroke-linejoin:miter;stroke:rgb(0%,0%,0%);stroke-opacity:1;stroke-miterlimit:4;" d="M 316.5 215.898438 C 314.101562 215.601562 310.5 215.203125 308.203125 215.203125 C 310 213.601562 312.398438 211.101562 313.898438 209.5 C 312.898438 211 311.296875 212.898438 310.601562 214.296875 C 312.203125 215 314.703125 215.398438 316.5 215.898438 " transform="matrix(0.5,0,0,0.5,0,0)"/>
<path style="fill-rule:nonzero;fill:rgb(0%,60.784316%,22.745098%);fill-opacity:1;stroke-width:0.1;stroke-linecap:butt;stroke-linejoin:miter;stroke:rgb(0%,0%,0%);stroke-opacity:1;stroke-miterlimit:4;" d="M 309.601562 214.601562 L 316.601562 213.796875 L 309.796875 213.601562 L 308.5 214.203125 L 309.5 214.601562 " transform="matrix(0.5,0,0,0.5,0,0)"/>
<path style="fill-rule:nonzero;fill:rgb(0%,60.784316%,22.745098%);fill-opacity:1;stroke-width:0.1;stroke-linecap:butt;stroke-linejoin:miter;stroke:rgb(0%,0%,0%);stroke-opacity:1;stroke-miterlimit:4;" d="M 314.703125 216.101562 L 307.203125 214.796875 L 314.101562 211 C 312.703125 212 310.703125 213.398438 309.703125 214.398438 C 311 215 313.203125 215.601562 314.703125 216.101562 " transform="matrix(0.5,0,0,0.5,0,0)"/>
<path style="fill-rule:nonzero;fill:rgb(0%,60.784316%,22.745098%);fill-opacity:1;stroke-width:0.1;stroke-linecap:butt;stroke-linejoin:miter;stroke:rgb(0%,0%,0%);stroke-opacity:1;stroke-miterlimit:4;" d="M 309 214.601562 L 315.101562 211.898438 L 308.398438 213.703125 L 307.601562 214.5 L 309 214.5 " transform="matrix(0.5,0,0,0.5,0,0)"/>
<path style="fill-rule:nonzero;fill:rgb(0%,60.784316%,22.745098%);fill-opacity:1;stroke-width:0.1;stroke-linecap:butt;stroke-linejoin:miter;stroke:rgb(0%,0%,0%);stroke-opacity:1;stroke-miterlimit:4;" d="M 314.5 216.898438 C 312.796875 216.203125 310 214.898438 308.296875 214.398438 L 312.703125 209.601562 C 311.898438 210.898438 310.703125 212.601562 310.101562 214 C 311.296875 215 313.101562 216 314.5 216.898438 " transform="matrix(0.5,0,0,0.5,0,0)"/>
<path style="fill-rule:nonzero;fill:rgb(0%,60.784316%,22.745098%);fill-opacity:1;stroke-width:0.1;stroke-linecap:butt;stroke-linejoin:miter;stroke:rgb(0%,0%,0%);stroke-opacity:1;stroke-miterlimit:4;" d="M 309.296875 215 L 314.101562 213 L 308.898438 213.601562 L 308.296875 214.601562 L 309.296875 215 M 305.296875 259.601562 L 295.5 259.601562 L 305.5 262.101562 L 307.101562 261.101562 L 305.296875 259.601562 " transform="matrix(0.5,0,0,0.5,0,0)"/>
<path style="fill-rule:nonzero;fill:rgb(0%,60.784316%,22.745098%);fill-opacity:1;stroke-width:0.1;stroke-linecap:butt;stroke-linejoin:miter;stroke:rgb(0%,0%,0%);stroke-opacity:1;stroke-miterlimit:4;" d="M 307.101562 260.203125 L 297.101562 257.898438 L 306.703125 262.601562 L 308.703125 262 L 307.101562 260.203125 " transform="matrix(0.5,0,0,0.5,0,0)"/>
<path style="fill-rule:nonzero;fill:rgb(0%,60.784316%,22.745098%);fill-opacity:1;stroke-width:0.1;stroke-linecap:butt;stroke-linejoin:miter;stroke:rgb(0%,0%,0%);stroke-opacity:1;stroke-miterlimit:4;" d="M 308.796875 260.898438 L 298.796875 260.398438 L 308.796875 263.398438 L 310.5 262.398438 L 308.796875 260.898438 " transform="matrix(0.5,0,0,0.5,0,0)"/>
<path style="fill-rule:nonzero;fill:rgb(0%,60.784316%,22.745098%);fill-opacity:1;stroke-width:0.1;stroke-linecap:butt;stroke-linejoin:miter;stroke:rgb(0%,0%,0%);stroke-opacity:1;stroke-miterlimit:4;" d="M 302.5 253.898438 C 305 256.703125 308.898438 261.296875 311.601562 263.796875 C 308.296875 264.296875 303.296875 265.601562 300.203125 266.5 C 302.601562 265.296875 306.203125 263.898438 308.203125 262.5 C 306.796875 259.898438 304.203125 256.5 302.5 253.898438 " transform="matrix(0.5,0,0,0.5,0,0)"/>
<path style="fill-rule:nonzero;fill:rgb(0%,60.784316%,22.745098%);fill-opacity:1;stroke-width:0.1;stroke-linecap:butt;stroke-linejoin:miter;stroke:rgb(0%,0%,0%);stroke-opacity:1;stroke-miterlimit:4;" d="M 310.101562 261.398438 L 300.101562 258.101562 L 309.5 263.703125 L 311.5 263.296875 L 310.101562 261.296875 " transform="matrix(0.5,0,0,0.5,0,0)"/>
<path style="fill-rule:nonzero;fill:rgb(0%,60.784316%,22.745098%);fill-opacity:1;stroke-width:0.1;stroke-linecap:butt;stroke-linejoin:miter;stroke:rgb(0%,0%,0%);stroke-opacity:1;stroke-miterlimit:4;" d="M 303.398438 254.5 C 306.203125 257.101562 310.398438 261.203125 313.398438 263.5 C 310.203125 264.398438 305.398438 266.296875 302.398438 267.5 C 304.703125 266.101562 308 264.296875 309.796875 262.5 C 308.203125 260.101562 305.296875 257 303.398438 254.5 " transform="matrix(0.5,0,0,0.5,0,0)"/>
<path style="fill-rule:nonzero;fill:rgb(0%,60.784316%,22.745098%);fill-opacity:1;stroke-width:0.1;stroke-linecap:butt;stroke-linejoin:miter;stroke:rgb(0%,0%,0%);stroke-opacity:1;stroke-miterlimit:4;" d="M 311 262 L 301.5 263.898438 L 311.5 264.5 L 312.898438 263.203125 L 310.898438 262 " transform="matrix(0.5,0,0,0.5,0,0)"/>
<path style="fill-rule:nonzero;fill:rgb(0%,60.784316%,22.745098%);fill-opacity:1;stroke-width:0.1;stroke-linecap:butt;stroke-linejoin:miter;stroke:rgb(0%,0%,0%);stroke-opacity:1;stroke-miterlimit:4;" d="M 309 261.398438 L 299.203125 262.203125 L 309.296875 263.898438 L 310.898438 262.703125 L 308.898438 261.398438 " transform="matrix(0.5,0,0,0.5,0,0)"/>
<path style="fill-rule:nonzero;fill:rgb(0%,60.784316%,22.745098%);fill-opacity:1;stroke-width:0.1;stroke-linecap:butt;stroke-linejoin:miter;stroke:rgb(0%,0%,0%);stroke-opacity:1;stroke-miterlimit:4;" d="M 310.796875 262 L 300.601562 260.296875 L 310.601562 264.296875 L 312.398438 263.601562 Z M 310.796875 262 " transform="matrix(0.5,0,0,0.5,0,0)"/>
<path style="fill-rule:nonzero;fill:rgb(0%,60.784316%,22.745098%);fill-opacity:1;stroke-width:0.1;stroke-linecap:butt;stroke-linejoin:miter;stroke:rgb(0%,0%,0%);stroke-opacity:1;stroke-miterlimit:4;" d="M 312.5 262.5 L 302.5 262.703125 L 312.703125 265 L 314.296875 263.898438 Z M 312.5 262.5 " transform="matrix(0.5,0,0,0.5,0,0)"/>
<path style="fill-rule:nonzero;fill:rgb(0%,60.784316%,22.745098%);fill-opacity:1;stroke-width:0.1;stroke-linecap:butt;stroke-linejoin:miter;stroke:rgb(0%,0%,0%);stroke-opacity:1;stroke-miterlimit:4;" d="M 305.703125 256 C 308.5 258.601562 312.703125 262.796875 315.601562 265.203125 C 312.296875 265.898438 307.296875 267.601562 304.296875 268.601562 C 306.703125 267.296875 310.101562 265.703125 312 264.101562 C 310.398438 261.601562 307.601562 258.398438 305.703125 255.898438 Z M 305.703125 256 " transform="matrix(0.5,0,0,0.5,0,0)"/>
<path style="fill-rule:nonzero;fill:rgb(0%,60.784316%,22.745098%);fill-opacity:1;stroke-width:0.1;stroke-linecap:butt;stroke-linejoin:miter;stroke:rgb(0%,0%,0%);stroke-opacity:1;stroke-miterlimit:4;" d="M 313.898438 262.898438 L 303.703125 260.296875 L 313.5 265.296875 L 315.398438 264.703125 Z M 313.898438 262.898438 " transform="matrix(0.5,0,0,0.5,0,0)"/>
<path style="fill-rule:nonzero;fill:rgb(0%,60.784316%,22.745098%);fill-opacity:1;stroke-width:0.1;stroke-linecap:butt;stroke-linejoin:miter;stroke:rgb(0%,0%,0%);stroke-opacity:1;stroke-miterlimit:4;" d="M 306.601562 256.5 C 309.601562 258.898438 314.203125 262.703125 317.296875 264.703125 C 314.101562 265.796875 309.5 268.203125 306.703125 269.601562 C 308.898438 267.898438 312 265.898438 313.703125 264.101562 C 311.898438 261.703125 308.703125 258.796875 306.703125 256.5 Z M 306.601562 256.5 " transform="matrix(0.5,0,0,0.5,0,0)"/>
<path style="fill-rule:nonzero;fill:rgb(0%,60.784316%,22.745098%);fill-opacity:1;stroke-width:0.1;stroke-linecap:butt;stroke-linejoin:miter;stroke:rgb(0%,0%,0%);stroke-opacity:1;stroke-miterlimit:4;" d="M 314.796875 263.398438 L 305.5 266 L 315.5 266 L 316.796875 264.5 L 314.796875 263.5 Z M 314.796875 263.398438 " transform="matrix(0.5,0,0,0.5,0,0)"/>
<path style="fill-rule:nonzero;fill:rgb(99.607843%,87.450981%,0%);fill-opacity:1;stroke-width:0.4;stroke-linecap:butt;stroke-linejoin:miter;stroke:rgb(0%,0%,0%);stroke-opacity:1;stroke-miterlimit:4;" d="M 327.601562 249.5 L 320 244.203125 L 312.398438 249.5 L 315.296875 241.101562 L 308.601562 235.898438 L 317.203125 235.898438 L 320 227.5 L 322.796875 235.898438 L 331.398438 235.898438 L 324.703125 241.101562 Z M 327.601562 249.5 " transform="matrix(0.5,0,0,0.5,0,0)"/>
</g>
</svg>
