<?xml version="1.0" encoding="UTF-8"?>
<svg xmlns="http://www.w3.org/2000/svg" xmlns:xlink="http://www.w3.org/1999/xlink" width="px" height="px" viewBox="0 0 320 240" version="1.1">
<g id="surface1">
<rect x="0" y="0" width="320" height="240" style="fill:rgb(12.54902%,37.64706%,23.921569%);fill-opacity:1;stroke:none;"/>
<path style=" stroke:none;fill-rule:nonzero;fill:rgb(98.039216%,82.352942%,0.392157%);fill-opacity:1;" d="M 0 0 L 320 0 L 320 180 L 0 180 Z M 0 0 "/>
<path style=" stroke:none;fill-rule:nonzero;fill:rgb(0%,63.137257%,87.058824%);fill-opacity:1;" d="M 0 0 L 320 0 L 320 120 L 0 120 Z M 0 0 "/>
<path style=" stroke:none;fill-rule:nonzero;fill:rgb(89.803922%,74.509805%,0.392157%);fill-opacity:1;" d="M 294.199219 62.699219 L 267.398438 64.265625 L 292.867188 72.734375 L 266.601562 67.300781 L 289.035156 82.035156 L 265.035156 69.964844 L 282.832031 90.066406 L 262.800781 72.234375 L 274.867188 96.234375 L 260.101562 73.800781 L 265.5 100.035156 L 257.066406 74.601562 L 255.5 101.398438 L 255.167969 62.367188 Z M 294.199219 62.699219 "/>
<path style=" stroke:none;fill-rule:nonzero;fill:rgb(89.803922%,74.509805%,0.392157%);fill-opacity:1;" d="M 294.199219 62.699219 L 267.398438 61.132812 L 292.867188 52.667969 L 266.601562 58.101562 L 289.035156 43.367188 L 265.035156 55.433594 L 282.832031 35.332031 L 262.800781 53.167969 L 274.867188 29.167969 L 260.101562 51.601562 L 265.5 25.367188 L 257.066406 50.800781 L 255.5 24 L 255.167969 63.035156 Z M 294.199219 62.699219 "/>
<path style=" stroke:none;fill-rule:nonzero;fill:rgb(89.803922%,74.509805%,0.392157%);fill-opacity:1;" d="M 216.800781 62.699219 L 243.601562 64.265625 L 218.132812 72.734375 L 244.398438 67.300781 L 221.964844 82.035156 L 245.964844 69.964844 L 228.167969 90.066406 L 248.199219 72.234375 L 236.132812 96.234375 L 250.898438 73.800781 L 245.5 100.035156 L 253.933594 74.601562 L 255.5 101.398438 L 255.832031 62.367188 Z M 216.800781 62.699219 "/>
<path style=" stroke:none;fill-rule:nonzero;fill:rgb(89.803922%,74.509805%,0.392157%);fill-opacity:1;" d="M 216.800781 62.699219 L 243.601562 61.132812 L 218.132812 52.667969 L 244.398438 58.101562 L 221.964844 43.367188 L 245.964844 55.433594 L 228.167969 35.332031 L 248.199219 53.167969 L 236.132812 29.167969 L 250.898438 51.601562 L 245.5 25.367188 L 253.933594 50.800781 L 255.5 24 L 255.832031 63.035156 Z M 216.800781 62.699219 "/>
<path style="fill-rule:nonzero;fill:rgb(89.803922%,74.509805%,0.392157%);fill-opacity:1;stroke-width:3.4;stroke-linecap:butt;stroke-linejoin:miter;stroke:rgb(0%,63.137257%,87.058824%);stroke-opacity:1;stroke-miterlimit:4;" d="M 34.300608 -0.00234603 C 34.300608 -18.939751 18.949123 -34.302955 0 -34.302955 C -18.949123 -34.302955 -34.300608 -18.939751 -34.300608 -0.00234603 C -34.300608 18.946777 -18.949123 34.298262 0 34.298262 C 18.949123 34.298262 34.300608 18.946777 34.300608 -0.00234603 Z M 34.300608 -0.00234603 " transform="matrix(0.333335,0,0,0.333335,255.5,62.700001)"/>
</g>
</svg>
