<?xml version="1.0" encoding="UTF-8"?>
<svg xmlns="http://www.w3.org/2000/svg" xmlns:xlink="http://www.w3.org/1999/xlink" width="px" height="px" viewBox="0 0 320 240" version="1.1">
<g id="surface1">
<path style=" stroke:none;fill-rule:evenodd;fill:rgb(0%,0%,83.92157%);fill-opacity:1;" d="M 0 237.75 L 462.84375 0 L 0 0 Z M 0 237.75 "/>
<path style=" stroke:none;fill-rule:evenodd;fill:rgb(0%,37.64706%,0%);fill-opacity:1;" d="M 480 0 L 12.75 240 L 480 240 Z M 480 0 "/>
<path style=" stroke:none;fill-rule:evenodd;fill:rgb(100%,80.000001%,0%);fill-opacity:1;" d="M 480 0 L 454.265625 0 L 0 227.53125 L 0 240 L 25.734375 240 L 480 12.9375 Z M 480 0 "/>
<path style=" stroke:none;fill-rule:evenodd;fill:rgb(100%,100%,100%);fill-opacity:1;" d="M 33.46875 4.265625 L 39 20.4375 L 57.046875 20.4375 L 42.46875 30.328125 L 48.046875 46.453125 L 33.46875 36.5625 L 18.890625 46.5 L 24.46875 30.375 L 9.890625 20.390625 L 27.890625 20.390625 Z M 123.046875 4.265625 L 128.625 20.4375 L 146.671875 20.4375 L 132.046875 30.375 L 137.671875 46.5 L 123 36.5625 L 108.46875 46.546875 L 114.046875 30.421875 L 99.421875 20.4375 L 117.46875 20.4375 Z M 123.046875 72 L 128.625 88.171875 L 146.671875 88.171875 L 132.046875 98.109375 L 137.671875 114.234375 L 123.046875 104.25 L 108.515625 114.234375 L 114.09375 98.109375 L 99.46875 88.125 L 117.515625 88.125 Z M 78.515625 38.53125 L 84.09375 54.65625 L 102.09375 54.65625 L 87.5625 64.640625 L 93.09375 80.765625 L 78.5625 70.78125 L 63.9375 80.765625 L 69.5625 64.640625 L 54.9375 54.65625 L 72.984375 54.65625 Z M 33.46875 72 L 39 88.171875 L 57.046875 88.171875 L 42.46875 98.109375 L 48.046875 114.234375 L 33.46875 104.25 L 18.890625 114.234375 L 24.515625 98.109375 L 9.84375 88.125 L 27.84375 88.125 Z M 33.46875 72 "/>
</g>
</svg>
