<?xml version="1.0" encoding="UTF-8"?>
<svg xmlns="http://www.w3.org/2000/svg" xmlns:xlink="http://www.w3.org/1999/xlink" width="px" height="px" viewBox="0 0 320 240" version="1.1">
<g id="surface1">
<rect x="0" y="0" width="320" height="240" style="fill:rgb(93.333334%,10.980392%,14.509805%);fill-opacity:1;stroke:none;"/>
<path style=" stroke:none;fill-rule:nonzero;fill:rgb(4.313726%,30.588236%,63.529414%);fill-opacity:1;" d="M 0 0 L 320 0 L 320 160 L 0 160 Z M 0 0 "/>
<path style=" stroke:none;fill-rule:nonzero;fill:rgb(100%,100%,100%);fill-opacity:1;" d="M 0 0 L 320 0 L 320 80 L 0 80 Z M 0 0 "/>
<path style=" stroke:none;fill-rule:nonzero;fill:rgb(100%,100%,100%);fill-opacity:1;" d="M 116.5 185.398438 C 95 175.050781 64.199219 154.449219 64.199219 113.800781 C 64.199219 73.101562 66.199219 54.601562 66.199219 54.601562 L 166.851562 54.601562 C 166.851562 54.601562 168.800781 73.101562 168.800781 113.800781 C 168.800781 154.5 138 175 116.5 185.398438 "/>
<path style=" stroke:none;fill-rule:nonzero;fill:rgb(93.333334%,10.980392%,14.509805%);fill-opacity:1;" d="M 116.5 180 C 96.75 170.5 68.5 151.601562 68.5 114.300781 C 68.5 77 70.300781 60 70.300781 60 L 162.699219 60 C 162.699219 60 164.449219 77 164.449219 114.300781 C 164.5 151.648438 136.25 170.5 116.5 180 "/>
<path style=" stroke:none;fill-rule:nonzero;fill:rgb(100%,100%,100%);fill-opacity:1;" d="M 120.699219 104.5 C 126.050781 104.601562 136.5 104.800781 145.75 101.699219 C 145.75 101.699219 145.550781 105.050781 145.550781 108.898438 C 145.550781 112.75 145.800781 116.101562 145.800781 116.101562 C 137.300781 113.25 126.75 113.199219 120.699219 113.25 L 120.699219 133.851562 L 112.300781 133.851562 L 112.300781 113.25 C 106.300781 113.199219 95.75 113.25 87.25 116.101562 C 87.25 116.101562 87.5 112.75 87.5 108.898438 C 87.5 105.050781 87.25 101.699219 87.25 101.699219 C 96.5 104.800781 106.949219 104.601562 112.25 104.5 L 112.25 91.550781 C 107.398438 91.550781 100.398438 91.75 92.449219 94.398438 C 92.449219 94.398438 92.699219 91.101562 92.699219 87.199219 C 92.699219 83.351562 92.449219 80 92.449219 80 C 100.398438 82.648438 107.398438 82.898438 112.25 82.851562 C 112 74.648438 109.601562 64.351562 109.601562 64.351562 C 109.601562 64.351562 114.550781 64.699219 116.5 64.699219 C 118.449219 64.699219 123.398438 64.351562 123.398438 64.351562 C 123.398438 64.351562 121 74.648438 120.75 82.851562 C 125.601562 82.898438 132.601562 82.648438 140.550781 80 C 140.550781 80 140.300781 83.351562 140.300781 87.199219 C 140.300781 91.050781 140.550781 94.398438 140.550781 94.398438 C 134.140625 92.332031 127.429688 91.371094 120.699219 91.550781 L 120.699219 104.550781 Z M 120.699219 104.5 "/>
<path style=" stroke:none;fill-rule:nonzero;fill:rgb(4.313726%,30.588236%,63.529414%);fill-opacity:1;" d="M 116.5 131.648438 C 106.550781 131.648438 101.25 145.398438 101.25 145.398438 C 101.25 145.398438 98.25 138.898438 90.148438 138.898438 C 84.648438 138.898438 80.648438 143.75 78.050781 148.300781 C 88.050781 164.148438 104 173.949219 116.5 180 C 129 174 145 164.148438 154.949219 148.300781 C 152.351562 143.800781 148.351562 138.898438 142.851562 138.898438 C 134.75 138.898438 131.75 145.398438 131.75 145.398438 C 131.75 145.398438 126.5 131.648438 116.5 131.648438 "/>
</g>
</svg>
