<?xml version="1.0" encoding="UTF-8"?>
<svg xmlns="http://www.w3.org/2000/svg" xmlns:xlink="http://www.w3.org/1999/xlink" width="px" height="px" viewBox="0 0 320 240" version="1.1">
<g id="surface1">
<path style=" stroke:none;fill-rule:evenodd;fill:rgb(9.803922%,71.372551%,93.725491%);fill-opacity:1;" d="M 0 120 L 320 120 L 320 240 L 0 240 Z M 0 120 "/>
<path style=" stroke:none;fill-rule:evenodd;fill:rgb(100%,100%,100%);fill-opacity:1;" d="M 0 0 L 320 0 L 320 120 L 0 120 Z M 0 0 "/>
<path style="fill-rule:evenodd;fill:rgb(100%,86.666667%,0%);fill-opacity:1;stroke-width:2.4;stroke-linecap:butt;stroke-linejoin:miter;stroke:rgb(49.019608%,42.352942%,0%);stroke-opacity:1;stroke-miterlimit:4;" d="M 317 339.203125 C 369.601562 300 426 220 359.898438 177.796875 C 347.601562 175.398438 333.898438 176.101562 327.203125 181.398438 C 323.703125 179.398438 320.898438 179.601562 317.398438 183.296875 C 314.898438 180.296875 312.398438 178.898438 307.398438 180.398438 C 297.726562 175.226562 286.375 174.148438 275.898438 177.398438 C 218 211.796875 253.398438 294 317 339.101562 Z M 317 339.203125 " transform="matrix(0.5,0,0,0.5,0,0)"/>
<path style="fill-rule:evenodd;fill:rgb(30.980393%,83.137256%,41.960785%);fill-opacity:1;stroke-width:2.4;stroke-linecap:butt;stroke-linejoin:round;stroke:rgb(22.745098%,61.56863%,30.980393%);stroke-opacity:1;stroke-miterlimit:4;" d="M 414 250.101562 C 414 250.101562 420 242.101562 420.203125 242.101562 C 426.101562 238.703125 426.703125 234.203125 426.703125 234.203125 C 432.601562 232.398438 430.703125 227.5 431.203125 226.898438 C 433.203125 225.109375 433.773438 222.210938 432.601562 219.796875 C 432.601562 219 434.601562 211.398438 431.796875 210.398438 C 431.898438 202.398438 427 203.101562 423 208.398438 C 418.796875 209.601562 417.898438 213.101562 419.398438 216.898438 C 413.898438 216.898438 413.703125 224.898438 415.296875 229.296875 C 408 229.101562 412 237.296875 411.796875 237.703125 C 409.398438 238.898438 413.703125 250.5 414.101562 250.101562 Z M 368 318.296875 L 371.601562 320.5 C 372.398438 323.296875 375 325.101562 376.898438 324.601562 C 377.898438 328.898438 382.5 328.296875 385.898438 325.796875 C 388.601562 329.796875 391.898438 329.796875 396.5 328.5 C 400.5 331.5 405.796875 330.203125 409.296875 327.101562 C 413 330.101562 415.5 327.898438 417.398438 324.601562 C 420.398438 325.398438 422.601562 324.898438 423.703125 322 C 429.398438 321.5 426.601562 316.101562 421.898438 313.796875 C 425.601562 310.601562 429.796875 303.796875 423.898438 302.796875 C 422.101562 301.5 418.601562 301.796875 416 303 C 415.296875 300 411.203125 299.296875 406.601562 302.601562 C 405.101562 299.296875 399.601562 300.898438 397.101562 303.203125 C 393.796875 300.398438 389.898438 300.398438 384.203125 303.601562 Z M 368 309.601562 C 368.601562 305.796875 366 299 370 298.398438 C 369.296875 292.101562 370.296875 285.101562 377.5 285.703125 C 378.703125 279.796875 378.5 274.296875 385.296875 273.5 C 385.296875 273.5 390.796875 254.398438 396.5 267.601562 C 398.703125 271.5 398.296875 277.796875 393.796875 276.601562 C 394.703125 281.296875 393.101562 285.5 387.898438 285.296875 C 390.203125 288.703125 389.5 293.203125 386.898438 295.296875 Z M 401.101562 285.703125 L 407.101562 284.5 C 413.101562 280.5 415.601562 278.796875 418.601562 283.296875 C 423.703125 282.296875 428.601562 282.703125 428.398438 286.703125 C 434.398438 287.203125 434.398438 291 433.703125 294.101562 C 434.703125 299.398438 432.296875 306.398438 428.703125 297.898438 C 416.796875 290.703125 410.101562 291.703125 391.398438 295.898438 Z M 404.203125 279.796875 C 404.398438 279.601562 421.703125 275.101562 419.898438 269.796875 C 424.796875 269 425.796875 264.101562 425.898438 264.101562 C 436.203125 260.898438 435.601562 255 435.601562 255 C 438.5 251.898438 443.601562 248.703125 442.5 243.203125 C 442.796875 236.898438 443.398438 233 434.898438 237.101562 C 428.601562 236.5 426.398438 240.101562 424.601562 245.601562 C 421.601562 242.101562 416.796875 247.703125 416.203125 252.703125 C 416.203125 252.703125 408.5 260.296875 408.5 260.5 L 402 272.5 Z M 404.203125 279.796875 " transform="matrix(0.5,0,0,0.5,0,0)"/>
<path style="fill-rule:evenodd;fill:rgb(30.980393%,83.137256%,41.960785%);fill-opacity:1;stroke-width:2.4;stroke-linecap:butt;stroke-linejoin:round;stroke:rgb(22.745098%,61.56863%,30.980393%);stroke-opacity:1;stroke-miterlimit:4;" d="M 404.5 266.398438 C 400.398438 263.296875 398.101562 259.5 398.796875 255.796875 C 396.101562 252.101562 394.203125 249.898438 396.796875 246.601562 L 394.796875 239.101562 C 389.398438 237.101562 391.703125 232.601562 393.101562 231 C 390.570312 227.398438 390.5 223.929688 392.898438 220.601562 C 392.898438 214.101562 397.5 216.601562 401.203125 220.601562 C 401.203125 220.601562 407.601562 225.101562 402.898438 229.101562 C 407.601562 230.796875 408.898438 234.796875 406.296875 236.5 C 410.398438 238.296875 411 242 408.796875 244.5 C 412.898438 247.703125 411.398438 251.898438 412.601562 255.601562 Z M 404.5 266.398438 " transform="matrix(0.5,0,0,0.5,0,0)"/>
<path style="fill-rule:evenodd;fill:rgb(30.980393%,83.137256%,41.960785%);fill-opacity:1;stroke-width:2.4;stroke-linecap:butt;stroke-linejoin:round;stroke:rgb(22.745098%,61.56863%,30.980393%);stroke-opacity:1;stroke-miterlimit:4;" d="M 411.796875 236 C 411.601562 235.898438 404.898438 227.296875 406.796875 226.703125 C 406.296875 224.101562 404.296875 221.203125 405.5 218.601562 C 402.203125 215.203125 402.101562 211.296875 404.703125 208.203125 C 402.5 205.203125 403.5 201.101562 406.5 198.398438 C 405.5 193.398438 409.101562 192.203125 412.203125 191.296875 C 414.5 183.296875 418.203125 185.296875 420.398438 191.5 C 423.601562 194.296875 423.101562 198.5 422 201.703125 C 425.796875 204.203125 423.5 207.398438 421.796875 208.703125 Z M 411.796875 236 " transform="matrix(0.5,0,0,0.5,0,0)"/>
<path style="fill-rule:evenodd;fill:rgb(30.980393%,83.137256%,41.960785%);fill-opacity:1;stroke-width:2.4;stroke-linecap:butt;stroke-linejoin:round;stroke:rgb(22.745098%,61.56863%,30.980393%);stroke-opacity:1;stroke-miterlimit:4;" d="M 410.796875 193.101562 L 405.101562 187.398438 C 406.601562 184.398438 407.796875 179.101562 403.5 176.601562 C 401.101562 170.898438 389.296875 163.703125 387.398438 177.398438 C 385.601562 173.296875 381.796875 169.203125 379.101562 174 C 372.898438 168.703125 369.601562 170.296875 372.796875 177 C 372.796875 177 369.898438 181.5 377.398438 185 C 378 185.601562 375 193.101562 384 193.296875 C 382.296875 195.898438 385 199.5 388.601562 199.296875 C 386.101562 202.398438 390.398438 205.796875 393.101562 204.5 C 392 208 392.101562 209.703125 397 210.203125 L 402.5 216.5 L 407 222.601562 Z M 410.796875 193.101562 " transform="matrix(0.5,0,0,0.5,0,0)"/>
<path style="fill:none;stroke-width:2.2;stroke-linecap:round;stroke-linejoin:miter;stroke:rgb(22.745098%,61.56863%,30.980393%);stroke-opacity:1;stroke-miterlimit:4;" d="M 414.296875 246.5 C 414.601562 246.203125 425.296875 221.703125 426.703125 214.296875 M 415.398438 203 C 415.398438 203 417.203125 223 412.296875 237.601562 M 382.601562 182.898438 C 382.601562 182.898438 404.5 203.898438 406.601562 212.601562 M 397.898438 180.601562 C 397.898438 180.601562 399.296875 197.898438 405.398438 214.898438 M 436.398438 243.296875 C 436.398438 243.296875 414.601562 261.796875 404 278 M 415.796875 308 C 415.796875 308 387 312 374.398438 312.296875 M 406.398438 320.296875 C 406.398438 320.296875 370.601562 319.5 368 316.898438 M 388.5 273.898438 C 388.5 274.296875 370.296875 304.203125 369.703125 313.898438 " transform="matrix(0.5,0,0,0.5,0,0)"/>
<path style="fill-rule:evenodd;fill:rgb(39.607844%,78.039217%,100%);fill-opacity:1;stroke-width:2.4;stroke-linecap:butt;stroke-linejoin:miter;stroke:rgb(49.019608%,42.352942%,0%);stroke-opacity:1;stroke-miterlimit:4;" d="M 316.898438 333.398438 C 279.101562 297.796875 240.398438 231 278.898438 197.203125 C 285.703125 201 293.796875 197.601562 304.898438 193.203125 C 308.296875 196.898438 312.601562 197.796875 316.898438 195 C 320.53125 196.789062 324.914062 195.929688 327.601562 192.898438 C 338.601562 199.203125 352.5 202.5 355.796875 196.203125 C 393.601562 232.203125 355.203125 299.398438 316.796875 333.5 Z M 316.898438 333.398438 " transform="matrix(0.5,0,0,0.5,0,0)"/>
<path style=" stroke:none;fill-rule:evenodd;fill:rgb(56.078434%,78.039217%,32.549021%);fill-opacity:1;" d="M 158.5 166.199219 C 149.878906 157.859375 142.726562 148.121094 137.351562 137.398438 C 138.351562 136.550781 138.800781 136.300781 139.300781 134.898438 C 142.199219 135.300781 143.75 135.398438 147.550781 134.699219 C 148.351562 137.601562 148.5 140 150.300781 142.398438 L 154.148438 134.898438 C 156.859375 135.578125 159.691406 135.578125 162.398438 134.898438 C 164 137 163.398438 140.25 166.25 142.699219 C 167.949219 137.699219 169.601562 137.398438 171.300781 134.699219 C 173.800781 135.601562 175.398438 135.199219 177.449219 134.550781 C 178.449219 135.800781 177.949219 135.75 179.949219 137.550781 C 174.652344 148.34375 167.398438 158.058594 158.550781 166.199219 Z M 158.5 166.199219 "/>
<path style="fill-rule:evenodd;fill:rgb(100%,100%,100%);fill-opacity:1;stroke-width:1.1;stroke-linecap:butt;stroke-linejoin:miter;stroke:rgb(0%,0%,0%);stroke-opacity:1;stroke-miterlimit:4;" d="M 272.601562 164.296875 C 272.828125 165.632812 272.25 166.976562 271.117188 167.726562 C 269.984375 168.46875 268.515625 168.46875 267.382812 167.726562 C 266.25 166.976562 265.671875 165.632812 265.898438 164.296875 C 265.898438 162.421875 267.421875 160.898438 269.296875 160.898438 C 271.179688 160.898438 272.703125 162.421875 272.703125 164.296875 Z M 269.101562 156.601562 C 269.4375 157.96875 268.898438 159.414062 267.734375 160.21875 C 266.570312 161.015625 265.03125 161.015625 263.867188 160.21875 C 262.703125 159.414062 262.15625 157.96875 262.5 156.601562 C 262.78125 154.96875 264.195312 153.78125 265.851562 153.78125 C 267.5 153.78125 268.914062 154.96875 269.203125 156.601562 Z M 265.101562 149.5 C 265.328125 150.835938 264.75 152.179688 263.617188 152.921875 C 262.484375 153.664062 261.015625 153.664062 259.882812 152.921875 C 258.75 152.179688 258.171875 150.835938 258.398438 149.5 C 258.679688 147.867188 260.09375 146.679688 261.75 146.679688 C 263.40625 146.679688 264.820312 147.867188 265.101562 149.5 Z M 262.296875 142.5 C 262.53125 143.835938 261.945312 145.179688 260.8125 145.921875 C 259.679688 146.664062 258.21875 146.664062 257.085938 145.921875 C 255.953125 145.179688 255.367188 143.835938 255.601562 142.5 C 255.882812 140.867188 257.296875 139.679688 258.953125 139.679688 C 260.601562 139.679688 262.015625 140.867188 262.296875 142.5 Z M 262.796875 134.898438 C 263.03125 136.234375 262.445312 137.578125 261.3125 138.320312 C 260.179688 139.070312 258.71875 139.070312 257.585938 138.320312 C 256.453125 137.578125 255.867188 136.234375 256.101562 134.898438 C 256.382812 133.273438 257.796875 132.078125 259.453125 132.078125 C 261.101562 132.078125 262.515625 133.273438 262.796875 134.898438 Z M 280.398438 122.398438 C 280.632812 123.734375 280.046875 125.078125 278.914062 125.820312 C 277.78125 126.570312 276.320312 126.570312 275.1875 125.820312 C 274.054688 125.078125 273.46875 123.734375 273.703125 122.398438 C 273.984375 120.773438 275.398438 119.578125 277.046875 119.578125 C 278.703125 119.578125 280.117188 120.773438 280.398438 122.398438 Z M 280.398438 122.398438 " transform="matrix(0.5,0,0,0.5,0,0)"/>
<path style="fill-rule:evenodd;fill:rgb(100%,100%,100%);fill-opacity:1;stroke-width:1.1;stroke-linecap:butt;stroke-linejoin:miter;stroke:rgb(0%,0%,0%);stroke-opacity:1;stroke-miterlimit:4;" d="M 273.796875 123.601562 C 274.03125 124.9375 273.445312 126.28125 272.3125 127.023438 C 271.179688 127.765625 269.71875 127.765625 268.585938 127.023438 C 267.453125 126.28125 266.867188 124.9375 267.101562 123.601562 C 267.382812 121.96875 268.796875 120.78125 270.453125 120.78125 C 272.101562 120.78125 273.515625 121.96875 273.796875 123.601562 Z M 266.5 127.898438 C 266.734375 129.234375 266.148438 130.578125 265.015625 131.320312 C 263.882812 132.070312 262.414062 132.070312 261.28125 131.320312 C 260.148438 130.578125 259.570312 129.234375 259.796875 127.898438 C 260.085938 126.273438 261.5 125.078125 263.148438 125.078125 C 264.804688 125.078125 266.21875 126.273438 266.5 127.898438 Z M 288.898438 122.5 C 289.242188 123.875 288.695312 125.3125 287.53125 126.117188 C 286.367188 126.921875 284.828125 126.921875 283.664062 126.117188 C 282.507812 125.3125 281.960938 123.875 282.296875 122.5 C 282.679688 120.984375 284.039062 119.921875 285.601562 119.921875 C 287.164062 119.921875 288.523438 120.984375 288.898438 122.5 Z M 298.296875 123.296875 C 298.53125 124.632812 297.945312 125.976562 296.8125 126.726562 C 295.679688 127.46875 294.21875 127.46875 293.085938 126.726562 C 291.953125 125.976562 291.367188 124.632812 291.601562 123.296875 C 291.882812 121.671875 293.296875 120.484375 294.953125 120.484375 C 296.601562 120.484375 298.015625 121.671875 298.296875 123.296875 Z M 306.5 122.796875 C 306.84375 124.171875 306.296875 125.609375 305.132812 126.414062 C 303.96875 127.21875 302.429688 127.21875 301.265625 126.414062 C 300.101562 125.609375 299.5625 124.171875 299.898438 122.796875 C 300.179688 121.171875 301.59375 119.984375 303.25 119.984375 C 304.90625 119.984375 306.320312 121.171875 306.601562 122.796875 Z M 306.5 122.796875 " transform="matrix(0.5,0,0,0.5,0,0)"/>
<path style="fill-rule:evenodd;fill:rgb(100%,86.666667%,0%);fill-opacity:1;stroke-width:1.1;stroke-linecap:butt;stroke-linejoin:miter;stroke:rgb(49.019608%,42.352942%,0%);stroke-opacity:1;stroke-miterlimit:4;" d="M 325.898438 117.5 C 325.898438 122.25 322.046875 126.101562 317.296875 126.101562 C 312.546875 126.101562 308.703125 122.25 308.703125 117.5 C 308.703125 112.75 312.546875 108.898438 317.296875 108.898438 C 322.046875 108.898438 325.898438 112.75 325.898438 117.5 Z M 325.898438 117.5 " transform="matrix(0.5,0,0,0.5,0,0)"/>
<path style="fill-rule:evenodd;fill:rgb(100%,100%,100%);fill-opacity:1;stroke-width:1.1;stroke-linecap:butt;stroke-linejoin:miter;stroke:rgb(0%,0%,0%);stroke-opacity:1;stroke-miterlimit:4;" d="M 335 122.703125 C 335 124.578125 333.476562 126.101562 331.601562 126.101562 C 329.71875 126.101562 328.203125 124.578125 328.203125 122.703125 C 328.484375 121.070312 329.898438 119.882812 331.546875 119.882812 C 333.203125 119.882812 334.617188 121.070312 334.898438 122.703125 Z M 343.601562 123.398438 C 343.9375 124.773438 343.398438 126.210938 342.234375 127.015625 C 341.070312 127.820312 339.53125 127.820312 338.367188 127.015625 C 337.203125 126.210938 336.65625 124.773438 337 123.398438 C 337.28125 121.773438 338.695312 120.578125 340.351562 120.578125 C 342 120.578125 343.414062 121.773438 343.703125 123.398438 Z M 352.101562 123 C 352.328125 124.335938 351.75 125.679688 350.617188 126.421875 C 349.484375 127.164062 348.015625 127.164062 346.882812 126.421875 C 345.75 125.679688 345.171875 124.335938 345.398438 123 C 345.679688 121.367188 347.09375 120.179688 348.75 120.179688 C 350.40625 120.179688 351.820312 121.367188 352.101562 123 Z M 359.203125 122.703125 C 359.429688 124.03125 358.851562 125.382812 357.71875 126.125 C 356.585938 126.867188 355.117188 126.867188 353.984375 126.125 C 352.851562 125.382812 352.265625 124.03125 352.5 122.703125 C 352.78125 121.070312 354.195312 119.882812 355.851562 119.882812 C 357.5 119.882812 358.914062 121.070312 359.203125 122.703125 Z M 368.101562 123.703125 C 368.328125 125.03125 367.75 126.382812 366.617188 127.125 C 365.484375 127.867188 364.015625 127.867188 362.882812 127.125 C 361.75 126.382812 361.171875 125.03125 361.398438 123.703125 C 361.679688 122.070312 363.09375 120.882812 364.75 120.882812 C 366.40625 120.882812 367.820312 122.070312 368.101562 123.703125 Z M 375.101562 128.101562 C 375.328125 129.4375 374.75 130.78125 373.617188 131.523438 C 372.484375 132.265625 371.015625 132.265625 369.882812 131.523438 C 368.75 130.78125 368.171875 129.4375 368.398438 128.101562 C 368.679688 126.46875 370.09375 125.28125 371.75 125.28125 C 373.40625 125.28125 374.820312 126.46875 375.101562 128.101562 Z M 375.101562 128.101562 " transform="matrix(0.5,0,0,0.5,0,0)"/>
<path style="fill-rule:evenodd;fill:rgb(89.411765%,0%,0%);fill-opacity:1;stroke-width:2.4;stroke-linecap:butt;stroke-linejoin:miter;stroke:rgb(67.450982%,0%,0%);stroke-opacity:1;stroke-miterlimit:4;" d="M 269.398438 151.703125 L 278 168.203125 L 357.203125 168.203125 L 366.398438 152.296875 C 361 148.601562 357.398438 145.796875 349.703125 147.5 C 345.398438 141.296875 340.703125 140.203125 333.703125 140.796875 C 331.601562 138.703125 329.703125 137.398438 326.101562 136.796875 L 309.5 137.296875 C 305.101562 137.703125 301.703125 141.101562 301.5 141.101562 C 294.5 140.203125 288 140.398438 286.296875 147.296875 C 279.796875 145.703125 275.296875 147.5 269.398438 151.703125 Z M 269.398438 151.703125 " transform="matrix(0.5,0,0,0.5,0,0)"/>
<path style="fill-rule:evenodd;fill:rgb(100%,100%,100%);fill-opacity:1;stroke-width:1.1;stroke-linecap:butt;stroke-linejoin:miter;stroke:rgb(0%,0%,0%);stroke-opacity:1;stroke-miterlimit:4;" d="M 378 135.296875 C 378.234375 136.632812 377.648438 137.976562 376.515625 138.726562 C 375.382812 139.46875 373.914062 139.46875 372.78125 138.726562 C 371.648438 137.976562 371.070312 136.632812 371.296875 135.296875 C 371.585938 133.671875 373 132.484375 374.648438 132.484375 C 376.304688 132.484375 377.71875 133.671875 378 135.296875 Z M 378.601562 143.296875 C 378.828125 144.632812 378.25 145.976562 377.117188 146.726562 C 375.984375 147.46875 374.515625 147.46875 373.382812 146.726562 C 372.25 145.976562 371.671875 144.632812 371.898438 143.296875 C 372.179688 141.671875 373.59375 140.484375 375.25 140.484375 C 376.90625 140.484375 378.320312 141.671875 378.601562 143.296875 Z M 376.101562 150.5 C 376.328125 151.835938 375.75 153.179688 374.617188 153.921875 C 373.484375 154.664062 372.015625 154.664062 370.882812 153.921875 C 369.75 153.179688 369.171875 151.835938 369.398438 150.5 C 369.679688 148.867188 371.09375 147.679688 372.75 147.679688 C 374.40625 147.679688 375.820312 148.867188 376.101562 150.5 Z M 373.101562 156.5 C 373.101562 158.375 371.578125 159.898438 369.703125 159.898438 C 367.820312 159.898438 366.296875 158.375 366.296875 156.5 C 366.585938 154.867188 368 153.679688 369.648438 153.679688 C 371.304688 153.679688 372.71875 154.867188 373 156.5 Z M 369.398438 164 C 369.632812 165.335938 369.046875 166.679688 367.914062 167.421875 C 366.78125 168.164062 365.320312 168.164062 364.1875 167.421875 C 363.054688 166.679688 362.46875 165.335938 362.703125 164 C 362.984375 162.367188 364.398438 161.179688 366.046875 161.179688 C 367.703125 161.179688 369.117188 162.367188 369.398438 164 Z M 322.601562 154.398438 C 322.601562 157.164062 320.359375 159.398438 317.601562 159.398438 C 314.835938 159.398438 312.601562 157.164062 312.601562 154.398438 C 312.601562 151.640625 314.835938 149.398438 317.601562 149.398438 C 320.359375 149.398438 322.601562 151.640625 322.601562 154.398438 Z M 322.601562 154.398438 " transform="matrix(0.5,0,0,0.5,0,0)"/>
<path style="fill-rule:evenodd;fill:rgb(100%,100%,100%);fill-opacity:1;stroke-width:1.1;stroke-linecap:butt;stroke-linejoin:miter;stroke:rgb(0%,0%,0%);stroke-opacity:1;stroke-miterlimit:4;" d="M 323.601562 143 C 323.601562 146.3125 320.914062 149 317.601562 149 C 314.289062 149 311.601562 146.3125 311.601562 143 C 311.601562 139.6875 314.289062 137 317.601562 137 C 320.914062 137 323.601562 139.6875 323.601562 143 Z M 323.601562 143 " transform="matrix(0.5,0,0,0.5,0,0)"/>
<path style="fill-rule:evenodd;fill:rgb(100%,100%,100%);fill-opacity:1;stroke-width:1.1;stroke-linecap:butt;stroke-linejoin:miter;stroke:rgb(0%,0%,0%);stroke-opacity:1;stroke-miterlimit:4;" d="M 322.703125 132 C 322.703125 134.984375 320.28125 137.398438 317.296875 137.398438 C 314.320312 137.398438 311.898438 134.984375 311.898438 132 C 311.898438 129.015625 314.320312 126.601562 317.296875 126.601562 C 320.28125 126.601562 322.703125 129.015625 322.703125 132 Z M 322.703125 132 " transform="matrix(0.5,0,0,0.5,0,0)"/>
<path style="fill-rule:evenodd;fill:rgb(100%,86.666667%,0%);fill-opacity:1;stroke-width:1.1;stroke-linecap:butt;stroke-linejoin:miter;stroke:rgb(49.019608%,42.352942%,0%);stroke-opacity:1;stroke-miterlimit:4;" d="M 315.5 109 L 315.5 104.796875 L 311.898438 104.703125 L 312.101562 101.5 L 315.101562 101.5 L 315.101562 98.703125 L 319.601562 98.703125 L 319.601562 101.203125 L 323.101562 101.203125 L 323 104.601562 L 319.398438 104.601562 L 319.398438 109.101562 L 315.398438 109.101562 Z M 315.5 109 " transform="matrix(0.5,0,0,0.5,0,0)"/>
<path style="fill:none;stroke-width:3.3;stroke-linecap:butt;stroke-linejoin:miter;stroke:rgb(100%,86.666667%,0%);stroke-opacity:1;stroke-miterlimit:4;" d="M 277.601562 168.203125 C 270.5 156.203125 260 139.796875 266.601562 132.703125 C 275.5 122.601562 296.5 131.703125 309.898438 125.898438 C 310.898438 137.296875 307.703125 156.296875 312.796875 160.203125 L 308 164.398438 C 305 160.703125 299.601562 155.601562 292.796875 164.601562 C 288.796875 161.203125 284.5 161.796875 282.398438 166.296875 C 280.398438 166.601562 280.5 167.398438 277.601562 168.203125 Z M 357.601562 167.703125 C 364.796875 155.703125 375.203125 139.398438 368.703125 132.296875 C 359.703125 122.203125 338.703125 131.296875 325.398438 125.398438 C 324.398438 136.898438 327.601562 155.898438 322.398438 159.796875 L 327.203125 164 C 331.898438 157.5 337.601562 157.296875 342.5 164.203125 C 346.398438 160.796875 350.398438 161.203125 352.898438 165.898438 C 354.898438 166.203125 354.703125 166.898438 357.703125 167.703125 Z M 357.601562 167.703125 " transform="matrix(0.5,0,0,0.5,0,0)"/>
<path style="fill-rule:evenodd;fill:rgb(100%,86.666667%,0%);fill-opacity:1;stroke-width:2.4;stroke-linecap:butt;stroke-linejoin:miter;stroke:rgb(49.019608%,42.352942%,0%);stroke-opacity:1;stroke-miterlimit:4;" d="M 277.296875 177.101562 C 303.679688 174.695312 330.21875 174.695312 356.601562 177.101562 L 359.703125 168.101562 C 332 163.101562 312.898438 162.5 276.703125 167.5 Z M 277.296875 177.101562 " transform="matrix(0.5,0,0,0.5,0,0)"/>
<path style=" stroke:none;fill-rule:evenodd;fill:rgb(78.039217%,43.137255%,18.039216%);fill-opacity:1;" d="M 157.050781 164.699219 L 157.351562 162.601562 C 158.800781 163 159.851562 162.851562 161.050781 162.398438 L 162.25 160.550781 L 161.351562 159.5 C 160.550781 159.648438 159.851562 160.398438 159.351562 161.050781 C 158.550781 161.101562 157.851562 160.699219 157.050781 160.550781 L 156.300781 157.351562 C 155.550781 156.449219 153.949219 156.5 154.300781 158.101562 L 154.449219 159.351562 C 154.75 160.101562 154.898438 161.148438 155.398438 161.699219 L 155.398438 163 Z M 157.648438 155.550781 C 156.648438 156.050781 155.351562 155.148438 154 154.601562 C 152.75 154.550781 151.800781 155.601562 150.300781 155.25 C 150.601562 154.449219 151.25 154.300781 151.699219 153.851562 C 151.351562 151.800781 152.449219 151.101562 152.75 151.101562 C 153.050781 151.101562 154.300781 151.398438 154.300781 151.398438 L 155.5 151.550781 C 156.25 152.898438 157.25 154.050781 157.648438 155.550781 "/>
<path style="fill-rule:evenodd;fill:rgb(100%,88.235295%,0%);fill-opacity:1;stroke-width:2.4;stroke-linecap:butt;stroke-linejoin:miter;stroke:rgb(91.37255%,74.901962%,0%);stroke-opacity:1;stroke-miterlimit:4;" d="M 300.796875 366 C 307.796875 354.601562 357 331.601562 403.203125 281.796875 C 356.203125 327.101562 326.796875 338.203125 288.398438 365.796875 L 300.796875 366.101562 Z M 300.796875 366 " transform="matrix(0.5,0,0,0.5,0,0)"/>
<path style="fill-rule:evenodd;fill:rgb(61.56863%,28.627452%,8.627451%);fill-opacity:1;stroke-width:1.1;stroke-linecap:butt;stroke-linejoin:miter;stroke:rgb(40.784314%,18.82353%,5.490196%);stroke-opacity:1;stroke-miterlimit:4;" d="M 368.398438 313.203125 C 368.398438 315.1875 366.789062 316.796875 364.796875 316.796875 C 362.8125 316.796875 361.203125 315.1875 361.203125 313.203125 C 361.203125 311.210938 362.8125 309.601562 364.796875 309.601562 C 366.789062 309.601562 368.398438 311.210938 368.398438 313.203125 Z M 402.796875 278.296875 C 402.796875 280.539062 400.984375 282.351562 398.75 282.351562 C 396.515625 282.351562 394.703125 280.539062 394.703125 278.296875 C 394.703125 276.09375 396.492188 274.296875 398.703125 274.296875 C 400.90625 274.296875 402.703125 276.09375 402.703125 278.296875 Z M 414.203125 248.703125 C 414.4375 250.109375 413.820312 251.53125 412.617188 252.3125 C 411.421875 253.09375 409.875 253.09375 408.679688 252.3125 C 407.484375 251.53125 406.859375 250.109375 407.101562 248.703125 C 407.390625 246.96875 408.890625 245.695312 410.648438 245.695312 C 412.40625 245.695312 413.90625 246.96875 414.203125 248.703125 Z M 403 210.296875 C 403.234375 211.710938 402.617188 213.125 401.421875 213.914062 C 400.226562 214.695312 398.679688 214.695312 397.476562 213.914062 C 396.28125 213.125 395.664062 211.710938 395.898438 210.296875 C 396.195312 208.570312 397.695312 207.296875 399.453125 207.296875 C 401.210938 207.296875 402.710938 208.570312 403 210.296875 Z M 403 210.296875 " transform="matrix(0.5,0,0,0.5,0,0)"/>
<path style="fill-rule:evenodd;fill:rgb(100%,100%,100%);fill-opacity:1;stroke-width:1.1;stroke-linecap:butt;stroke-linejoin:miter;stroke:rgb(66.274512%,66.274512%,66.274512%);stroke-opacity:1;stroke-miterlimit:4;" d="M 279.101562 269.601562 L 279.101562 254.398438 L 277.601562 253.203125 L 277.601562 249.601562 L 280.398438 249.296875 L 280.898438 232.296875 L 279.101562 231.296875 L 278.898438 228.5 C 278.898438 228.5 280.898438 229.296875 280.898438 228.796875 L 281.398438 225.398438 C 281.398438 225.398438 280.101562 225.203125 280.101562 224.703125 C 280.101562 224.203125 281.703125 222.898438 281.703125 222.898438 C 281.703125 222.898438 280.898438 222.101562 280.703125 221.601562 L 279.898438 218.796875 L 280.703125 215.898438 L 280.203125 214.398438 L 278.898438 212.101562 L 280.703125 210.296875 L 280.203125 207.5 C 280.539062 206.460938 281.046875 205.476562 281.703125 204.601562 C 282 204.398438 284 201.601562 284 201.601562 L 288.398438 200.601562 L 293.5 201.296875 L 296.296875 203.101562 L 296.796875 207.703125 C 296.796875 207.703125 296.296875 210.5 296.101562 210.5 L 293.796875 211.5 C 293.796875 211.5 291.203125 211.796875 290.898438 211.5 C 290.601562 211.203125 291.703125 214.703125 291.703125 214.703125 L 291.703125 217.703125 L 291.5 221.601562 C 291.5 221.601562 291.5 223.398438 291.203125 223.601562 C 290.898438 223.796875 290.398438 224.601562 290.398438 224.601562 L 290.203125 228.601562 L 294.203125 229.601562 L 294 231.898438 L 291.203125 232.101562 L 291.703125 247.796875 L 295.796875 248.5 L 295.796875 252.898438 L 294 253.898438 L 293.5 269.601562 Z M 341.5 269.898438 L 341.5 254.703125 L 340 253.398438 L 340 249.796875 L 342.796875 249.601562 L 343.296875 232.601562 L 341.5 231.601562 L 341.296875 228.796875 C 341.296875 228.796875 343.296875 229.5 343.296875 229 L 343.796875 225.703125 C 343.796875 225.703125 342.5 225.398438 342.5 224.898438 C 342.5 224.398438 344.101562 223.101562 344.101562 223.101562 C 344.101562 223.101562 343.296875 222.398438 343.101562 221.796875 L 342.296875 219 L 343.101562 216.203125 L 342.5 214.703125 L 341.296875 212.398438 L 343.101562 210.601562 L 342.5 207.703125 C 342.875 206.6875 343.421875 205.742188 344.101562 204.898438 L 346.398438 201.898438 L 350.796875 200.796875 L 355.898438 201.601562 L 358.703125 203.398438 L 359.203125 208 C 359.203125 208 358.703125 210.796875 358.5 210.796875 L 356.203125 211.796875 C 356.203125 211.796875 353.601562 212.101562 353.296875 211.796875 C 353 211.5 354.101562 214.898438 354.101562 214.898438 L 354.101562 218 L 353.796875 221.898438 C 353.796875 221.898438 353.796875 223.601562 353.601562 223.898438 L 352.796875 224.898438 L 352.601562 228.796875 L 356.601562 229.796875 L 356.398438 232.101562 L 353.601562 232.398438 L 354.101562 248 L 358.203125 248.796875 L 358.203125 253.203125 L 356.398438 254.203125 L 355.898438 269.898438 Z M 309.898438 270.398438 L 309.898438 255.203125 L 308.398438 254 L 308.398438 250.296875 L 311.203125 250.101562 L 311.703125 233.101562 L 309.898438 232.101562 L 309.703125 229.296875 C 309.703125 229.296875 311.703125 230.101562 311.703125 229.601562 L 312.203125 226.203125 C 312.203125 226.203125 311 226 311 225.5 C 311 225 312.5 223.601562 312.5 223.601562 C 312.5 223.601562 311.703125 222.898438 311.5 222.398438 L 310.703125 219.5 L 311.5 216.703125 L 311 215.203125 L 309.703125 212.898438 L 311.5 211.101562 L 311 208.203125 C 311.328125 207.1875 311.835938 206.234375 312.5 205.398438 C 312.796875 205.203125 314.796875 202.398438 314.796875 202.398438 L 319.203125 201.398438 L 324.296875 202.101562 L 327.101562 203.898438 L 327.703125 208.5 C 327.703125 208.5 327.101562 211.296875 326.898438 211.296875 L 324.601562 212.296875 C 324.601562 212.296875 322 212.601562 321.796875 212.296875 C 321.601562 212 322.5 215.398438 322.5 215.398438 L 322.5 218.5 L 322.296875 222.398438 C 322.296875 222.398438 322.296875 224.203125 322 224.398438 L 321.203125 225.398438 L 321 229.296875 L 325 230.296875 L 324.796875 232.601562 L 322 232.898438 L 322.5 248.601562 L 326.601562 249.296875 L 326.601562 253.703125 L 324.796875 254.703125 L 324.296875 270.398438 Z M 309.898438 270.398438 " transform="matrix(0.5,0,0,0.5,0,0)"/>
<path style=" stroke:none;fill-rule:evenodd;fill:rgb(0%,0%,0%);fill-opacity:1;" d="M 141.5 134.75 L 141.5 128.75 L 144.800781 128.75 L 144.800781 135 Z M 157.199219 135.25 L 157.351562 129.148438 L 160.351562 129.148438 L 160.351562 135.101562 L 157.199219 135.199219 Z M 172.699219 135.101562 L 172.5 129.351562 L 175.75 129.25 L 175.75 135.25 L 172.75 135.101562 Z M 142.300781 117.101562 L 144.199219 117.101562 L 144.199219 120.148438 L 142.300781 120.148438 Z M 157.449219 117.199219 L 160.101562 117.199219 L 160.101562 120.199219 L 157.449219 120.199219 Z M 172.949219 117.449219 L 175.25 117.449219 L 175.25 120.300781 L 173 120.300781 Z M 172.949219 117.449219 "/>
<path style="fill:none;stroke-width:1.1;stroke-linecap:butt;stroke-linejoin:miter;stroke:rgb(65.882355%,65.882355%,65.882355%);stroke-opacity:1;stroke-miterlimit:4;" d="M 286.601562 207 C 290.601562 211.601562 290.898438 211.601562 290.898438 211.601562 M 317.101562 207 C 317.898438 208.5 319.101562 211.796875 320.703125 212.101562 M 350 207.703125 C 350 207.703125 351.296875 211.296875 353 211.796875 " transform="matrix(0.5,0,0,0.5,0,0)"/>
<path style=" stroke:none;fill-rule:evenodd;fill:rgb(72.549021%,46.666667%,0%);fill-opacity:1;" d="M 141.101562 97 C 147.101562 95.050781 139.699219 91.199219 138.449219 97 C 136.550781 97.351562 136.300781 98.75 132.101562 98.148438 C 121.898438 114.648438 129.449219 141.398438 159.148438 169.050781 C 105.949219 123.75 127.550781 90.25 142.300781 91.550781 C 150.300781 92.050781 146.300781 102.050781 141.101562 97.050781 Z M 141.101562 97 "/>
<path style="fill:none;stroke-width:2.4;stroke-linecap:butt;stroke-linejoin:miter;stroke:rgb(49.019608%,42.352942%,0%);stroke-opacity:1;stroke-miterlimit:4;" d="M 285.601562 177 C 285.601562 177 295.296875 179.703125 295.296875 183.796875 M 295.296875 176.296875 C 295.296875 176.296875 302.101562 179.296875 303.601562 181.898438 M 348.703125 177.398438 C 348.703125 177.398438 340.101562 178.601562 338.203125 181.203125 M 335.601562 178.203125 C 335.601562 178.203125 330.601562 182.296875 331.101562 183.5 M 334.5 196.203125 C 333.703125 195.898438 330.296875 191.296875 331.101562 185.703125 M 301.296875 193.203125 C 301.296875 193.203125 303.601562 190.601562 303.601562 185.703125 M 317.101562 183.796875 L 317.5 194.796875 M 326.898438 193.203125 C 326.898438 192.5 329.898438 185.296875 326.5 181.898438 M 306.203125 180.398438 C 306.203125 180.398438 303.601562 187.601562 305.5 193.601562 M 325.5 186.796875 C 325.5 186.796875 321.296875 188 319.5 189.796875 M 307.703125 187.898438 C 307.703125 187.601562 312.296875 186.898438 313.703125 189.5 " transform="matrix(0.5,0,0,0.5,0,0)"/>
<path style=" stroke:none;fill-rule:evenodd;fill:rgb(78.039217%,43.137255%,18.039216%);fill-opacity:1;" d="M 150.300781 150.949219 C 150.398438 150.949219 152.199219 150.601562 152.199219 149.75 C 153.101562 149.148438 152.449219 147.5 152.449219 147.5 L 150.75 147.199219 L 148.449219 144.601562 C 148.351562 143.800781 148.601562 143.050781 148.101562 142.199219 C 146.5 142.601562 145.601562 143.949219 145.101562 145.449219 C 145.449219 145.949219 145.5 146.449219 146.25 146.898438 C 147 147 147.5 146.550781 148.199219 146.699219 C 148.550781 147.351562 148.449219 147.898438 148.601562 148.5 C 149.550781 149.148438 149.75 150.101562 150.300781 150.949219 M 148.25 139.851562 L 148.25 136.75 L 146.050781 136.648438 C 145.75 137.148438 145.25 137.351562 144.949219 137.75 L 143.398438 138.550781 C 144.050781 139.300781 144.851562 139.75 145.300781 140.148438 C 146.398438 140.484375 147.382812 140.382812 148.25 139.851562 M 141.351562 144.398438 L 140.148438 142.398438 C 140.925781 142.175781 141.757812 142.230469 142.5 142.550781 C 142.5 142.550781 143 143.800781 142.648438 144.25 C 142.449219 144.699219 141.300781 144.5 141.351562 144.398438 M 159.601562 146.449219 C 160.273438 146.128906 160.769531 145.523438 160.949219 144.800781 L 158.699219 142.25 L 156.699219 142.199219 C 156.167969 141.734375 155.566406 141.535156 154.898438 141.601562 C 154.898438 141.601562 155.5 142.601562 156.300781 142.75 C 156.898438 144.050781 159.398438 146.449219 159.601562 146.449219 M 161.75 146.75 C 161.75 146.699219 163.75 146.050781 164.75 146.101562 C 164.699219 145.300781 166.25 143.449219 166.25 143.449219 L 169.050781 147.101562 C 168.550781 147.5 167.648438 147.398438 166.949219 147.5 C 166.949219 147.5 165.601562 148.800781 165.449219 148.851562 C 165.300781 148.898438 162.851562 149.5 161.648438 148.75 C 161.148438 147.75 161.800781 146.601562 161.75 146.75 M 163.351562 140.351562 C 163.699219 139.109375 163.699219 137.792969 163.351562 136.550781 L 160.148438 136.550781 L 158.050781 137.550781 C 158.050781 137.550781 158.699219 139.648438 159.550781 139.449219 C 159.898438 140.5 161 140.25 161.550781 140.648438 Z M 175.800781 137.148438 C 175.300781 138.5 175.101562 139.898438 175.699219 141.148438 C 176.300781 141.300781 177 141.648438 177.5 141.550781 L 180.050781 136.949219 C 178.285156 136.382812 176.851562 136.449219 175.75 137.148438 Z M 175.800781 137.148438 "/>
<path style=" stroke:none;fill-rule:evenodd;fill:rgb(72.549021%,46.666667%,0%);fill-opacity:1;" d="M 176.550781 96.601562 C 170.550781 94.648438 177.949219 90.75 179.199219 96.601562 C 181.148438 96.898438 181.398438 98.351562 185.601562 97.75 C 195.75 114.25 188.199219 141 158.5 168.648438 C 211.75 123.351562 190.101562 89.851562 175.351562 91.101562 C 167.351562 91.601562 171.351562 101.601562 176.550781 96.601562 "/>
<path style=" stroke:none;fill-rule:evenodd;fill:rgb(78.039217%,43.137255%,18.039216%);fill-opacity:1;" d="M 177.148438 142.351562 C 177.050781 142.351562 175.648438 143.351562 175.648438 143.351562 L 173.550781 144.199219 L 171.351562 144.25 L 170.851562 142.75 L 172.550781 141.25 C 171.082031 141.050781 169.75 141.515625 168.550781 142.648438 C 168.550781 142.648438 168.550781 144.300781 169.550781 145.148438 C 170.101562 145.851562 171.800781 147.148438 171.800781 147.148438 C 172.730469 147.359375 173.707031 147.175781 174.5 146.648438 Z M 165.550781 157.398438 C 166.25 157.601562 171.199219 151.050781 171.199219 151.050781 C 170.753906 149.875 169.878906 148.910156 168.75 148.351562 C 168.75 148.351562 166.351562 151.199219 166.300781 152.148438 C 165.898438 153 164.800781 156.300781 165.300781 156.75 C 165.25 156.851562 165.050781 158.199219 165.550781 157.398438 "/>
<path style="fill-rule:evenodd;fill:rgb(0%,40.784314%,0%);fill-opacity:1;stroke-width:2.4;stroke-linecap:butt;stroke-linejoin:round;stroke:rgb(0%,25.490198%,0%);stroke-opacity:1;stroke-miterlimit:4;" d="M 266.398438 317.398438 C 251.601562 304.5 231.601562 297.398438 203.703125 307.101562 C 211.203125 310.296875 219.296875 311.398438 226.203125 315 Z M 266.398438 317.398438 " transform="matrix(0.5,0,0,0.5,0,0)"/>
<path style="fill:none;stroke-width:2.2;stroke-linecap:round;stroke-linejoin:miter;stroke:rgb(0%,64.313728%,0%);stroke-opacity:1;stroke-miterlimit:4;" d="M 223.398438 308.296875 C 252.703125 308.898438 261.203125 316.203125 259.703125 315 " transform="matrix(0.5,0,0,0.5,0,0)"/>
<path style="fill-rule:evenodd;fill:rgb(0%,40.784314%,0%);fill-opacity:1;stroke-width:2.2;stroke-linecap:butt;stroke-linejoin:round;stroke:rgb(0%,25.490198%,0%);stroke-opacity:1;stroke-miterlimit:4;" d="M 267 319 C 258.203125 320.601562 246.203125 329 242.601562 328.703125 C 233.101562 327.601562 224.101562 323.703125 214.898438 320.703125 C 211.101562 319.5 207.203125 320.703125 203.296875 320.703125 C 236.101562 305.203125 247.296875 307.296875 267 318.898438 Z M 267 319 " transform="matrix(0.5,0,0,0.5,0,0)"/>
<path style="fill-rule:evenodd;fill:rgb(0%,40.784314%,0%);fill-opacity:1;stroke-width:2.4;stroke-linecap:butt;stroke-linejoin:round;stroke:rgb(0%,25.490198%,0%);stroke-opacity:1;stroke-miterlimit:4;" d="M 245.398438 296 C 245.398438 296 234.398438 297.601562 229.5 297.898438 C 224.703125 297.601562 217.5 293.101562 209.703125 284.898438 C 205.703125 280.296875 196.296875 280.898438 196.296875 280.898438 C 216.898438 276.5 233 280.703125 245.296875 296.101562 Z M 230.398438 274.796875 C 215.5 273.796875 196.898438 260.5 192.703125 244.601562 C 192.703125 244.796875 198.203125 248.101562 197.296875 248.898438 C 221.703125 255.101562 223.296875 260.101562 230.398438 274.796875 Z M 255.398438 300.296875 C 257.5 286.796875 258.101562 277.898438 251.796875 269.898438 C 246.5 263.898438 245.203125 260.203125 241.398438 251.601562 C 240.296875 269.398438 236.398438 284.101562 255.398438 300.296875 Z M 232 263 C 243 246.898438 245 234.703125 243.203125 215.5 C 242.898438 217 239.203125 226.5 239 226.5 C 222.5 236.796875 229.796875 253 232 263 Z M 232 263 " transform="matrix(0.5,0,0,0.5,0,0)"/>
<path style="fill-rule:evenodd;fill:rgb(0%,40.784314%,0%);fill-opacity:1;stroke-width:2.4;stroke-linecap:butt;stroke-linejoin:round;stroke:rgb(0%,25.490198%,0%);stroke-opacity:1;stroke-miterlimit:4;" d="M 222.203125 185 C 233.203125 201.101562 231.601562 216.296875 229.796875 235.5 C 229.5 234 225.796875 224.5 225.601562 224.5 C 209.101562 214.203125 220.101562 195 222.203125 185 Z M 222.203125 185 " transform="matrix(0.5,0,0,0.5,0,0)"/>
<path style="fill-rule:evenodd;fill:rgb(0%,40.784314%,0%);fill-opacity:1;stroke-width:2.4;stroke-linecap:butt;stroke-linejoin:round;stroke:rgb(0%,25.490198%,0%);stroke-opacity:1;stroke-miterlimit:4;" d="M 231.296875 210 C 258.101562 196.398438 247.796875 179.296875 252.703125 166 C 234.101562 179.898438 231.703125 194.601562 231.398438 210 Z M 231.296875 210 " transform="matrix(0.5,0,0,0.5,0,0)"/>
<path style="fill:none;stroke-width:2.2;stroke-linecap:round;stroke-linejoin:miter;stroke:rgb(0%,64.313728%,0%);stroke-opacity:1;stroke-miterlimit:4;" d="M 235 206.601562 C 238.398438 197.101562 245 181 245.703125 181 M 227 226.398438 C 226.398438 219.703125 223 201.703125 222.703125 199.898438 " transform="matrix(0.5,0,0,0.5,0,0)"/>
<path style="fill-rule:evenodd;fill:rgb(0%,40.784314%,0%);fill-opacity:1;stroke-width:2.4;stroke-linecap:butt;stroke-linejoin:round;stroke:rgb(0%,25.490198%,0%);stroke-opacity:1;stroke-miterlimit:4;" d="M 228.296875 256.5 C 213.296875 255.5 197.296875 235.203125 193 219.398438 C 193 219.601562 198.5 222.796875 197.601562 223.601562 C 219 233.203125 221.203125 241.796875 228.296875 256.5 Z M 223.898438 242.5 C 212.898438 226.398438 210.898438 214.203125 212.601562 195 C 212.898438 196.5 216.601562 206 216.898438 206 C 233.296875 216.296875 226 232.5 223.898438 242.5 Z M 233.796875 214.203125 C 261.5 201.898438 253 189 261.203125 175.5 C 242.601562 189.296875 234.101562 198.898438 233.796875 214.203125 Z M 233.796875 214.203125 " transform="matrix(0.5,0,0,0.5,0,0)"/>
<path style="fill:none;stroke-width:2.2;stroke-linecap:round;stroke-linejoin:miter;stroke:rgb(0%,64.313728%,0%);stroke-opacity:1;stroke-miterlimit:4;" d="M 235 211.398438 C 241.28125 205.484375 246.4375 198.46875 250.203125 190.703125 " transform="matrix(0.5,0,0,0.5,0,0)"/>
<path style="fill-rule:evenodd;fill:rgb(100%,88.235295%,0%);fill-opacity:1;stroke-width:2.4;stroke-linecap:butt;stroke-linejoin:miter;stroke:rgb(91.37255%,74.901962%,0%);stroke-opacity:1;stroke-miterlimit:4;" d="M 333.601562 366.398438 L 347 366.601562 C 302.296875 324.601562 216.5 306.398438 228.398438 229.203125 C 216.101562 312.898438 298.5 320.703125 333.601562 366.398438 Z M 333.601562 366.398438 " transform="matrix(0.5,0,0,0.5,0,0)"/>
<path style="fill-rule:evenodd;fill:rgb(61.56863%,28.627452%,8.627451%);fill-opacity:1;stroke-width:1.1;stroke-linecap:butt;stroke-linejoin:miter;stroke:rgb(40.784314%,18.82353%,5.490196%);stroke-opacity:1;stroke-miterlimit:4;" d="M 235.398438 212.703125 C 235.398438 215.078125 233.476562 217 231.101562 217 C 228.726562 217 226.796875 215.078125 226.796875 212.703125 C 226.796875 210.328125 228.726562 208.398438 231.101562 208.398438 C 233.476562 208.398438 235.398438 210.328125 235.398438 212.703125 Z M 232.796875 236.296875 C 232.796875 238.539062 230.984375 240.351562 228.75 240.351562 C 226.515625 240.351562 224.703125 238.539062 224.703125 236.296875 C 224.703125 234.09375 226.492188 232.296875 228.703125 232.296875 C 230.90625 232.296875 232.703125 234.09375 232.703125 236.296875 Z M 236.601562 270 C 236.601562 271.984375 234.984375 273.601562 233 273.601562 C 231.015625 273.601562 229.398438 271.984375 229.398438 270 C 229.398438 268.015625 231.015625 266.398438 233 266.398438 C 234.984375 266.398438 236.601562 268.015625 236.601562 270 Z M 267.898438 307.203125 C 267.898438 309.1875 266.289062 310.796875 264.296875 310.796875 C 262.3125 310.796875 260.703125 309.1875 260.703125 307.203125 C 260.703125 305.210938 262.3125 303.601562 264.296875 303.601562 C 266.289062 303.601562 267.898438 305.210938 267.898438 307.203125 Z M 272.398438 317.898438 C 272.398438 319.890625 270.789062 321.5 268.796875 321.5 C 266.8125 321.5 265.203125 319.890625 265.203125 317.898438 C 265.203125 315.914062 266.8125 314.296875 268.796875 314.296875 C 270.789062 314.296875 272.398438 315.914062 272.398438 317.898438 Z M 272.398438 317.898438 " transform="matrix(0.5,0,0,0.5,0,0)"/>
<path style="fill-rule:evenodd;fill:rgb(100%,100%,100%);fill-opacity:1;stroke-width:1.1;stroke-linecap:butt;stroke-linejoin:miter;stroke:rgb(0%,0%,0%);stroke-opacity:1;stroke-miterlimit:4;" d="M 288.203125 349 C 286.164062 347.476562 284.515625 345.484375 283.398438 343.203125 L 269.398438 341.703125 L 269.203125 349.703125 Z M 288.203125 349 " transform="matrix(0.5,0,0,0.5,0,0)"/>
<path style="fill-rule:evenodd;fill:rgb(100%,100%,100%);fill-opacity:1;stroke-width:1.1;stroke-linecap:butt;stroke-linejoin:round;stroke:rgb(0%,0%,0%);stroke-opacity:1;stroke-miterlimit:4;" d="M 185.296875 339.601562 C 193.5 341.101562 205.796875 338.796875 209.796875 344.101562 C 214.601562 349.5 194.703125 358 197.5 362.703125 C 203.703125 369.203125 210 366.5 216.898438 362.898438 C 218.601562 359.398438 219.898438 353.101562 220.703125 351.203125 C 218.203125 345.5 211.398438 342.601562 213.203125 333.898438 C 224.5 329.703125 246.398438 330 248.796875 331.703125 C 250.601562 335.296875 248.898438 336.898438 249.296875 339.796875 C 247.398438 343.5 242.601562 349.601562 242.601562 352.898438 C 254.601562 357.101562 257.601562 352.296875 268.398438 352.5 C 281 352.703125 288.601562 356.101562 291.398438 351.101562 C 289.398438 346.703125 277.898438 350.296875 273.601562 347.5 C 271.398438 346.796875 270 345 268.101562 343.101562 C 266.203125 341.203125 260.898438 341.101562 260.101562 336.203125 C 262.296875 326 277.101562 327.601562 279.398438 326 L 317.796875 328.703125 C 324.796875 328.5 328.796875 341 319.296875 344.703125 C 309.898438 348.5 282.203125 339.203125 270.101562 345.601562 C 269.5 343 260.796875 339 260.203125 338.898438 C 256.5 339.898438 249.296875 339.601562 249.296875 339.601562 C 247.601562 342.796875 245.5 345.203125 243.796875 348.5 C 235.796875 345 228.296875 351.203125 219.601562 349.398438 L 206 350.898438 L 197.398438 350.101562 L 184.203125 353.898438 L 193.601562 345.601562 Z M 185.296875 339.601562 " transform="matrix(0.5,0,0,0.5,0,0)"/>
<path style="fill-rule:evenodd;fill:rgb(100%,100%,100%);fill-opacity:1;stroke-width:1.1;stroke-linecap:butt;stroke-linejoin:miter;stroke:rgb(0%,0%,0%);stroke-opacity:1;stroke-miterlimit:4;" d="M 184.703125 338 C 184.703125 339.984375 183.085938 341.601562 181.101562 341.601562 C 179.109375 341.601562 177.5 339.984375 177.5 338 C 177.5 336.015625 179.109375 334.398438 181.101562 334.398438 C 183.085938 334.398438 184.703125 336.015625 184.703125 338 Z M 183.703125 356 C 183.703125 357.984375 182.085938 359.601562 180.101562 359.601562 C 178.109375 359.601562 176.5 357.984375 176.5 356 C 176.5 353.984375 178.132812 352.351562 180.148438 352.351562 C 182.164062 352.351562 183.796875 353.984375 183.796875 356 Z M 183.703125 356 " transform="matrix(0.5,0,0,0.5,0,0)"/>
<path style="fill-rule:evenodd;fill:rgb(100%,100%,100%);fill-opacity:1;stroke-width:1.1;stroke-linecap:butt;stroke-linejoin:miter;stroke:rgb(0%,0%,0%);stroke-opacity:1;stroke-miterlimit:4;" d="M 346.296875 349.101562 C 348.601562 347 350.101562 345.601562 351 343.296875 L 365 341.703125 L 365.296875 349.703125 Z M 346.296875 349.101562 " transform="matrix(0.5,0,0,0.5,0,0)"/>
<path style="fill-rule:evenodd;fill:rgb(100%,100%,100%);fill-opacity:1;stroke-width:1.1;stroke-linecap:butt;stroke-linejoin:round;stroke:rgb(0%,0%,0%);stroke-opacity:1;stroke-miterlimit:4;" d="M 449.101562 339.601562 C 441 341.101562 428.703125 338.898438 424.703125 344.101562 C 419.796875 349.601562 439.703125 358.101562 436.898438 362.703125 C 430.703125 369.296875 424.398438 366.601562 417.5 363 C 415.898438 359.5 414.601562 353.203125 413.703125 351.296875 C 416.296875 345.5 423 342.703125 421.296875 334 C 409.898438 329.703125 388 330 385.703125 331.703125 C 383.796875 335.398438 385.5 337 385.101562 339.898438 C 387.101562 343.5 391.898438 349.703125 391.898438 352.898438 C 379.898438 357.203125 376.796875 352.296875 366.101562 352.601562 C 353.5 352.796875 345.796875 356.101562 343.101562 351.101562 C 345 346.796875 356.5 350.296875 360.898438 347.601562 C 363.101562 346.796875 364.5 345.101562 366.398438 343.101562 C 368.296875 341.101562 373.601562 341.101562 374.398438 336.296875 C 372.203125 326.101562 357.398438 327.601562 355 326.101562 L 316.601562 328.703125 C 309.601562 328.5 305.703125 341 315.101562 344.796875 C 324.5 348.601562 352.296875 339.203125 364.296875 345.601562 C 365 343 373.601562 339.101562 374.296875 338.898438 C 377.898438 340 385.101562 339.601562 385.101562 339.601562 C 386.898438 342.898438 388.898438 345.296875 390.703125 348.601562 C 398.703125 345 406.203125 351.296875 414.898438 349.398438 L 428.398438 350.898438 L 437.101562 350.203125 L 450.296875 353.898438 L 440.898438 345.703125 L 449.101562 339.703125 Z M 449.101562 339.601562 " transform="matrix(0.5,0,0,0.5,0,0)"/>
<path style="fill-rule:evenodd;fill:rgb(100%,100%,100%);fill-opacity:1;stroke-width:1.1;stroke-linecap:butt;stroke-linejoin:miter;stroke:rgb(0%,0%,0%);stroke-opacity:1;stroke-miterlimit:4;" d="M 449.703125 338 C 449.703125 340.015625 451.335938 341.648438 453.351562 341.648438 C 455.367188 341.648438 457 340.015625 457 338 C 457 335.984375 455.367188 334.351562 453.351562 334.351562 C 451.335938 334.351562 449.703125 335.984375 449.703125 338 Z M 450.703125 356 C 450.703125 357.984375 452.3125 359.601562 454.296875 359.601562 C 456.289062 359.601562 457.898438 357.984375 457.898438 356 C 457.898438 354.015625 456.289062 352.398438 454.296875 352.398438 C 452.3125 352.398438 450.703125 354.015625 450.703125 356 Z M 450.703125 356 " transform="matrix(0.5,0,0,0.5,0,0)"/>
<path style=" stroke:none;fill-rule:evenodd;fill:rgb(100%,100%,100%);fill-opacity:1;" d="M 158.5 164.648438 C 156.898438 164.351562 156.300781 164.449219 155.199219 164.351562 L 152.648438 172.25 C 156.648438 172.601562 160.300781 172.601562 160.300781 172.601562 C 157.898438 172.101562 158.449219 164.699219 158.5 164.648438 "/>
<path style=" stroke:none;fill-rule:nonzero;fill:rgb(0%,0%,0%);fill-opacity:1;" d="M 141.699219 170.101562 L 141.699219 164.75 L 142.601562 164.75 L 142.601562 169.25 L 145.101562 169.25 L 145.101562 170.101562 Z M 141.699219 170.101562 "/>
<path style=" stroke:none;fill-rule:nonzero;fill:rgb(0%,0%,0%);fill-opacity:1;" d="M 145.851562 170.351562 L 145.851562 165 L 146.800781 165 L 146.800781 170.351562 Z M 145.851562 170.351562 "/>
<path style=" stroke:none;fill-rule:nonzero;fill:rgb(0%,0%,0%);fill-opacity:1;" d="M 150 170.75 L 148.351562 170.75 L 148.351562 165.5 L 149.949219 165.398438 C 150.515625 165.398438 150.933594 165.515625 151.199219 165.75 C 151.535156 166.015625 151.699219 166.367188 151.699219 166.800781 C 151.699219 167.199219 151.484375 167.535156 151.050781 167.800781 C 151.714844 168.035156 152.050781 168.515625 152.050781 169.25 C 152.050781 169.75 151.851562 170.132812 151.449219 170.398438 C 151.117188 170.667969 150.648438 170.800781 150.050781 170.800781 Z M 149.351562 166.199219 L 149.351562 167.449219 L 149.851562 167.449219 C 150.417969 167.449219 150.699219 167.214844 150.699219 166.75 C 150.699219 166.382812 150.417969 166.199219 149.851562 166.199219 Z M 149.351562 168.199219 L 149.351562 169.949219 L 149.851562 169.949219 C 150.25 169.949219 150.535156 169.882812 150.699219 169.75 C 150.933594 169.648438 151.050781 169.433594 151.050781 169.101562 C 151.050781 168.765625 150.964844 168.550781 150.800781 168.449219 C 150.632812 168.285156 150.316406 168.199219 149.851562 168.199219 Z M 149.351562 168.199219 "/>
<path style=" stroke:none;fill-rule:nonzero;fill:rgb(0%,0%,0%);fill-opacity:1;" d="M 154.300781 166.5 L 154.300781 167.851562 L 156 167.851562 L 156 168.699219 L 154.300781 168.699219 L 154.300781 170.25 L 156.800781 170.25 L 156.800781 171.101562 L 153.351562 171.101562 L 153.351562 165.75 L 156.699219 165.75 L 156.699219 166.601562 Z M 154.300781 166.5 "/>
<path style=" stroke:none;fill-rule:nonzero;fill:rgb(0%,0%,0%);fill-opacity:1;" d="M 161.101562 171.199219 L 159.699219 168.949219 L 159 168.949219 L 159 171.199219 L 158.101562 171.199219 L 158.101562 165.851562 L 158.699219 165.851562 L 159.5 165.75 C 160.898438 165.75 161.601562 166.285156 161.601562 167.351562 C 161.601562 167.683594 161.515625 167.964844 161.351562 168.199219 C 161.117188 168.464844 160.867188 168.648438 160.601562 168.75 L 162.25 171.199219 Z M 159 166.699219 L 159 168.101562 L 159.449219 168.101562 L 160.25 168 C 160.484375 167.898438 160.601562 167.683594 160.601562 167.351562 C 160.601562 167.082031 160.515625 166.882812 160.351562 166.75 C 160.117188 166.648438 159.785156 166.601562 159.351562 166.601562 L 159 166.601562 Z M 159 166.699219 "/>
<path style=" stroke:none;fill-rule:nonzero;fill:rgb(0%,0%,0%);fill-opacity:1;" d="M 164.949219 166.5 L 164.949219 171 L 163.949219 171 L 163.949219 166.5 L 162.25 166.5 L 162.25 165.699219 L 166.699219 165.699219 L 166.699219 166.5 Z M 164.949219 166.5 "/>
<path style=" stroke:none;fill-rule:nonzero;fill:rgb(0%,0%,0%);fill-opacity:1;" d="M 170.351562 170.25 L 169.949219 169.199219 L 168.101562 169.199219 L 167.75 170.25 L 166.699219 170.25 L 168.851562 164.851562 L 169.25 164.851562 L 171.449219 170.25 Z M 169 166.5 L 168.449219 168.5 L 169.699219 168.5 Z M 169 166.5 "/>
<path style=" stroke:none;fill-rule:nonzero;fill:rgb(0%,0%,0%);fill-opacity:1;" d="M 172.199219 169.851562 L 172.5 169 C 172.898438 169.234375 173.265625 169.351562 173.601562 169.351562 C 174.167969 169.351562 174.449219 169.148438 174.449219 168.75 L 174.25 168.25 L 173.449219 167.699219 L 172.601562 167.199219 L 172.25 166.699219 L 172.199219 166.101562 C 172.199219 165.667969 172.332031 165.300781 172.601562 165 C 172.933594 164.800781 173.316406 164.699219 173.75 164.699219 C 174.382812 164.699219 174.867188 164.800781 175.199219 165 L 174.851562 165.851562 C 174.515625 165.582031 174.148438 165.449219 173.75 165.449219 C 173.550781 165.449219 173.382812 165.5 173.25 165.601562 C 173.148438 165.699219 173.101562 165.867188 173.101562 166.101562 C 173.101562 166.367188 173.433594 166.667969 174.101562 167 C 174.5 167.167969 174.785156 167.332031 174.949219 167.5 L 175.25 168 L 175.351562 168.699219 C 175.351562 169.132812 175.183594 169.484375 174.851562 169.75 C 174.515625 170.015625 174.066406 170.167969 173.5 170.199219 C 172.933594 170.234375 172.5 170.082031 172.199219 169.75 Z M 172.199219 169.851562 "/>
<path style="fill:none;stroke-width:2.2;stroke-linecap:round;stroke-linejoin:miter;stroke:rgb(0%,64.313728%,0%);stroke-opacity:1;stroke-miterlimit:4;" d="M 231.296875 318.601562 C 241.398438 319.796875 255.398438 318.898438 261.5 318.601562 M 216 284.203125 C 224.601562 290.898438 243.101562 294.898438 242.796875 294.898438 M 253.5 296.703125 C 250.703125 282.703125 247.703125 279.296875 245.203125 270.5 M 201.703125 254.703125 C 216 261.101562 218.203125 265.296875 227.296875 271.703125 M 232.5 257.703125 C 233.703125 240.398438 236.101562 235.796875 240.398438 231.796875 M 201.703125 229.796875 C 206.898438 235.5 223.898438 253.5 223.898438 253.5 M 216.898438 213.898438 C 223.296875 218.398438 223.296875 234.898438 223.296875 234.898438 " transform="matrix(0.5,0,0,0.5,0,0)"/>
</g>
</svg>
