<?xml version="1.0" encoding="UTF-8"?>
<svg xmlns="http://www.w3.org/2000/svg" xmlns:xlink="http://www.w3.org/1999/xlink" width="px" height="px" viewBox="0 0 320 240" version="1.1">
<g id="surface1">
<path style=" stroke:none;fill-rule:evenodd;fill:rgb(92.941177%,16.078432%,22.352941%);fill-opacity:1;" d="M 0 0 L 360 0 L 360 120 L 159.984375 120 Z M 0 0 "/>
<path style=" stroke:none;fill-rule:evenodd;fill:rgb(0%,13.725491%,58.431375%);fill-opacity:1;" d="M 0 240 L 360 240 L 360 120 L 159.984375 120 Z M 0 240 "/>
<path style=" stroke:none;fill-rule:evenodd;fill:rgb(100%,100%,100%);fill-opacity:1;" d="M 0 0 L 159.984375 120 L 0 240 Z M 0 0 "/>
<path style=" stroke:none;fill-rule:nonzero;fill:rgb(100%,100%,0%);fill-opacity:1;" d="M 80.765625 90.5625 L 80.8125 88.6875 C 80.8125 88.6875 79.828125 87.09375 81 85.40625 C 81 85.40625 78.515625 84.09375 79.125 82.03125 C 79.125 82.03125 76.875 81.46875 77.015625 79.03125 C 77.015625 79.03125 74.671875 78.890625 74.390625 76.828125 C 74.390625 76.828125 72 77.203125 70.921875 75.234375 C 70.921875 75.234375 68.578125 75.703125 67.921875 74.0625 C 67.921875 74.0625 65.625 74.8125 64.3125 72.890625 C 64.3125 72.890625 61.875 73.875 60.890625 72.046875 C 59.90625 73.875 57.46875 72.890625 57.46875 72.890625 C 56.15625 74.8125 53.859375 74.015625 53.859375 74.015625 C 53.203125 75.65625 50.90625 75.1875 50.90625 75.1875 C 49.828125 77.203125 47.4375 76.78125 47.4375 76.78125 C 47.203125 78.84375 44.8125 79.03125 44.8125 79.03125 C 44.953125 80.402344 44.078125 81.671875 42.75 82.03125 C 43.359375 84.046875 40.875 85.359375 40.875 85.359375 C 42.09375 87.09375 41.109375 88.640625 41.109375 88.640625 L 41.0625 90.375 Z M 80.765625 90.5625 "/>
<path style="fill:none;stroke-width:0.3;stroke-linecap:butt;stroke-linejoin:miter;stroke:rgb(0%,0%,0%);stroke-opacity:1;stroke-miterlimit:4;" d="M 377.202555 843.09828 L 377.202555 839.600912 C 377.202555 839.600912 375.399811 836.597974 377.602358 833.602308 C 377.602358 833.602308 373.000997 831.101072 374.098636 827.298321 C 374.098636 827.298321 369.897077 826.302189 370.202381 821.699624 C 370.202381 821.699624 365.702788 821.401512 365.201218 817.59876 C 365.201218 817.59876 360.803392 818.29678 358.89888 814.603094 C 358.89888 814.603094 354.501055 815.402908 353.301648 812.399971 C 353.301648 812.399971 348.998321 813.897804 346.49774 810.298642 C 346.49774 810.298642 341.998147 812.101858 340.202671 808.699014 C 338.298158 812.101858 333.798565 810.298642 333.798565 810.298642 C 331.399751 813.80328 327.096425 812.298176 327.096425 812.298176 C 325.897018 815.402908 321.600961 814.603094 321.600961 814.603094 C 319.601949 818.29678 315.102356 817.59876 315.102356 817.59876 C 314.702554 821.299717 310.202961 821.59783 310.202961 821.59783 C 310.588225 824.142692 308.989016 826.563946 306.502973 827.196526 C 307.498844 830.999278 302.999251 833.398719 302.999251 833.398719 C 305.201798 836.597974 303.297285 839.600912 303.297285 839.600912 L 303.297285 842.800167 Z M 377.202555 843.09828 " transform="matrix(0.537375,0,0,0.537234,-121.875,-362.390614)"/>
<path style=" stroke:none;fill-rule:nonzero;fill:rgb(100%,0%,0%);fill-opacity:1;" d="M 79.828125 88.21875 C 73.59375 87.609375 66.421875 86.109375 60.890625 89.25 C 57.140625 87.046875 51.984375 87.1875 47.578125 87.609375 C 45.1875 88.078125 42.375 88.078125 39.84375 88.453125 L 39.46875 88.5 C 34.921875 88.828125 30.796875 87.46875 26.8125 85.6875 C 28.125 92.8125 29.484375 100.078125 30.1875 107.53125 C 31.6875 118.59375 24.984375 127.828125 27.65625 138.75 C 29.296875 144 35.0625 147.046875 40.3125 147.65625 C 45.390625 147.976562 50.433594 148.683594 55.40625 149.765625 C 56.289062 149.984375 57.152344 150.28125 57.984375 150.65625 C 59.15625 151.171875 60.207031 151.921875 61.078125 152.859375 C 63.890625 149.90625 68.109375 149.0625 72.1875 148.640625 C 79.59375 147.75 88.734375 148.21875 93.28125 141.515625 L 93.28125 141.140625 C 95.765625 137.390625 95.4375 131.765625 94.359375 127.546875 C 94.265625 126.09375 93.890625 124.78125 93.65625 123.375 C 89.15625 111.421875 93.046875 97.96875 94.96875 85.875 C 92.542969 87.09375 89.953125 87.964844 87.28125 88.453125 C 85.171875 88.734375 82.828125 88.640625 80.71875 88.5 Z M 79.828125 88.21875 "/>
<path style=" stroke:none;fill-rule:nonzero;fill:rgb(50.196081%,81.176472%,88.235295%);fill-opacity:1;" d="M 89.15625 122.578125 C 89.15625 123.328125 89.578125 123.984375 89.71875 124.6875 C 90.609375 129.9375 91.40625 136.875 86.0625 140.109375 C 80.0625 143.859375 72.28125 142.265625 65.390625 144.28125 C 63.984375 144.65625 62.109375 145.921875 61.171875 146.8125 C 60.515625 146.390625 59.90625 145.78125 59.109375 145.40625 C 53.4375 142.40625 46.03125 143.390625 39.65625 141.75 C 36.421875 140.765625 33.09375 138.234375 32.25 134.953125 C 30.1875 126.328125 35.15625 118.96875 34.59375 110.390625 C 34.21875 103.828125 33.09375 97.59375 31.59375 91.453125 C 36.609375 93.796875 42.375 94.171875 48 93.046875 C 52.339844 92.261719 56.808594 92.664062 60.9375 94.21875 C 63.09375 93.28125 65.625 92.859375 67.96875 92.625 C 72.328125 93.09375 77.0625 93.84375 81.609375 93.84375 C 84.640625 93.59375 87.453125 92.859375 90.046875 91.640625 C 88.5 101.765625 85.453125 112.359375 89.15625 122.578125 "/>
<path style=" stroke:none;fill-rule:nonzero;fill:rgb(100%,100%,100%);fill-opacity:1;" d="M 80.15625 124.59375 L 80.15625 115.03125 L 81.28125 115.03125 L 66.75 105.65625 L 66.703125 100.734375 L 68.109375 100.734375 L 60.796875 95.578125 L 53.578125 100.734375 L 54.984375 100.734375 L 54.984375 105.65625 L 40.5 115.03125 L 41.671875 115.03125 L 41.671875 124.546875 L 80.15625 124.546875 "/>
<path style="fill:none;stroke-width:1.2;stroke-linecap:butt;stroke-linejoin:miter;stroke:rgb(0%,0%,0%);stroke-opacity:1;stroke-miterlimit:4;" d="M 376.003149 906.501703 L 376.003149 888.70221 L 378.096659 888.70221 L 351.099101 871.200829 L 350.997333 862.199288 L 353.599682 862.199288 L 339.999135 852.397933 L 326.500356 862.097494 L 329.102706 862.097494 L 329.197204 871.200829 L 302.199646 888.70221 L 304.402193 888.70221 L 304.402193 906.399909 Z M 376.003149 906.501703 " transform="matrix(0.537375,0,0,0.537234,-121.875,-362.390614)"/>
<path style=" stroke:none;fill-rule:nonzero;fill:rgb(100%,100%,100%);fill-opacity:1;" d="M 84.65625 137.109375 L 84.65625 140.0625 L 37.734375 140.0625 L 37.734375 137.0625 Z M 84.65625 137.109375 "/>
<path style="fill:none;stroke-width:1.2;stroke-linecap:butt;stroke-linejoin:miter;stroke:rgb(0%,0%,0%);stroke-opacity:1;stroke-miterlimit:4;" d="M 384.398997 929.798099 L 384.398997 935.302272 L 297.002216 935.302272 L 297.002216 929.703575 L 384.398997 929.703575 Z M 384.398997 929.798099 " transform="matrix(0.537375,0,0,0.537234,-121.875,-362.390614)"/>
<path style=" stroke:none;fill-rule:nonzero;fill:rgb(100%,100%,100%);fill-opacity:1;" d="M 40.828125 136.921875 L 40.828125 126.84375 L 42.703125 126.84375 L 42.609375 137.015625 L 42.703125 126.890625 L 39.984375 126.84375 L 39.984375 124.640625 L 81.890625 124.734375 L 81.890625 126.84375 L 79.359375 126.84375 L 79.359375 137.0625 L 79.3125 126.84375 L 81.1875 126.84375 L 81.28125 136.96875 "/>
<path style="fill:none;stroke-width:1.2;stroke-linecap:butt;stroke-linejoin:miter;stroke:rgb(0%,0%,0%);stroke-opacity:1;stroke-miterlimit:4;" d="M 302.802984 929.398192 L 302.802984 910.602567 L 306.299437 910.602567 L 306.10317 929.601781 L 306.299437 910.798885 L 301.298274 910.602567 L 301.298274 906.603498 L 379.303335 906.698021 L 379.303335 910.69709 L 374.498438 910.69709 L 374.600206 929.703575 L 374.39667 910.69709 L 378.00216 910.69709 L 378.096659 929.499986 " transform="matrix(0.537375,0,0,0.537234,-121.875,-362.390614)"/>
<path style="fill:none;stroke-width:1.2;stroke-linecap:butt;stroke-linejoin:miter;stroke:rgb(0%,0%,0%);stroke-opacity:1;stroke-miterlimit:4;" d="M 319.601949 924.802898 L 319.601949 911.700493 L 309.003554 911.700493 L 309.003554 924.701103 L 319.500181 924.802898 " transform="matrix(0.537375,0,0,0.537234,-121.875,-362.390614)"/>
<path style="fill:none;stroke-width:1.2;stroke-linecap:butt;stroke-linejoin:miter;stroke:rgb(0%,0%,0%);stroke-opacity:1;stroke-miterlimit:4;" d="M 311.998437 914.398047 L 311.998437 922.00355 L 316.803333 922.00355 L 316.803333 914.398047 L 311.896669 914.398047 M 370.900217 924.802898 L 370.79845 911.802288 L 360.40359 911.802288 L 360.40359 924.802898 L 370.900217 924.802898 " transform="matrix(0.537375,0,0,0.537234,-121.875,-362.390614)"/>
<path style="fill:none;stroke-width:1.2;stroke-linecap:butt;stroke-linejoin:miter;stroke:rgb(0%,0%,0%);stroke-opacity:1;stroke-miterlimit:4;" d="M 363.202206 914.499842 L 363.202206 922.098073 L 367.999834 922.098073 L 367.999834 914.499842 L 363.202206 914.499842 M 370.79845 903.498766 L 370.79845 890.498156 L 360.301822 890.498156 L 360.301822 903.498766 Z M 370.79845 903.498766 " transform="matrix(0.537375,0,0,0.537234,-121.875,-362.390614)"/>
<path style="fill:none;stroke-width:1.2;stroke-linecap:butt;stroke-linejoin:miter;stroke:rgb(0%,0%,0%);stroke-opacity:1;stroke-miterlimit:4;" d="M 363.100438 893.202981 L 363.100438 900.801212 L 367.898066 900.801212 L 367.898066 893.202981 L 363.100438 893.202981 M 319.500181 903.498766 L 319.500181 890.403632 L 309.003554 890.403632 L 309.003554 903.396971 L 319.500181 903.396971 Z M 319.500181 903.498766 " transform="matrix(0.537375,0,0,0.537234,-121.875,-362.390614)"/>
<path style="fill:none;stroke-width:1.2;stroke-linecap:butt;stroke-linejoin:miter;stroke:rgb(0%,0%,0%);stroke-opacity:1;stroke-miterlimit:4;" d="M 311.896669 893.101186 L 311.896669 900.699417 L 316.701565 900.699417 L 316.701565 893.101186 L 311.896669 893.101186 M 338.501694 903.498766 L 338.501694 890.403632 L 327.997797 890.403632 L 327.997797 903.396971 L 338.501694 903.396971 " transform="matrix(0.537375,0,0,0.537234,-121.875,-362.390614)"/>
<path style="fill:none;stroke-width:1.2;stroke-linecap:butt;stroke-linejoin:miter;stroke:rgb(0%,0%,0%);stroke-opacity:1;stroke-miterlimit:4;" d="M 330.796413 893.101186 L 330.796413 900.699417 L 335.60131 900.699417 L 335.60131 893.101186 L 330.796413 893.101186 M 353.098112 903.498766 L 353.098112 890.498156 L 342.601485 890.403632 L 342.601485 903.396971 L 353.098112 903.498766 " transform="matrix(0.537375,0,0,0.537234,-121.875,-362.390614)"/>
<path style="fill:none;stroke-width:1.2;stroke-linecap:butt;stroke-linejoin:miter;stroke:rgb(0%,0%,0%);stroke-opacity:1;stroke-miterlimit:4;" d="M 345.400101 893.101186 L 345.400101 900.699417 L 350.299496 900.699417 L 350.299496 893.101186 L 345.400101 893.101186 " transform="matrix(0.537375,0,0,0.537234,-121.875,-362.390614)"/>
<path style=" stroke:none;fill-rule:nonzero;fill:rgb(100%,100%,100%);fill-opacity:1;" d="M 69.234375 120.84375 L 69.328125 137.0625 L 52.96875 137.0625 L 52.921875 120.84375 Z M 69.234375 120.84375 "/>
<path style="fill:none;stroke-width:1.2;stroke-linecap:butt;stroke-linejoin:miter;stroke:rgb(0%,0%,0%);stroke-opacity:1;stroke-miterlimit:4;" d="M 355.700461 899.499697 L 355.802229 929.703575 L 325.497216 929.703575 L 325.402717 899.499697 Z M 325.199181 908.101331 L 355.802229 908.101331 M 329.000938 929.703575 L 329.000938 908.297649 M 352.102241 929.703575 L 352.102241 908.399443 M 366.800427 886.600881 L 349.797926 874.196496 L 330.498379 874.196496 L 313.503147 886.600881 L 366.800427 886.600881 M 332.003089 863.798916 L 332.003089 871.397147 L 348.198717 871.397147 L 348.198717 863.798916 L 332.003089 863.798916 " transform="matrix(0.537375,0,0,0.537234,-121.875,-362.390614)"/>
<path style="fill:none;stroke-width:1.2;stroke-linecap:butt;stroke-linejoin:miter;stroke:rgb(0%,0%,0%);stroke-opacity:1;stroke-miterlimit:4;" d="M 336.400915 865.696656 L 336.400915 869.499407 L 343.800891 869.499407 L 343.800891 865.696656 L 336.400915 865.696656 M 339.999135 855.000964 L 348.998321 861.399474 L 331.101717 861.399474 L 340.100903 855.000964 " transform="matrix(0.537375,0,0,0.537234,-121.875,-362.390614)"/>
<path style=" stroke:none;fill-rule:nonzero;fill:rgb(100%,100%,100%);fill-opacity:1;" d="M 80.34375 94.6875 C 81.703125 94.6875 82.03125 100.3125 82.03125 103.125 C 83.25 103.5 85.828125 105.140625 87 106.59375 L 73.78125 106.59375 C 74.90625 105.140625 77.484375 103.5 78.65625 103.171875 C 78.65625 100.359375 78.9375 94.640625 80.34375 94.734375 "/>
<path style="fill:none;stroke-width:1.2;stroke-linecap:butt;stroke-linejoin:miter;stroke:rgb(0%,0%,0%);stroke-opacity:1;stroke-miterlimit:4;" d="M 376.301183 850.798306 C 378.903532 850.798306 379.499601 861.29768 379.499601 866.598264 C 381.702148 867.20176 386.601544 870.299221 388.702323 872.996775 L 364.103579 872.996775 C 366.197089 870.299221 371.096484 867.20176 373.197263 866.598264 C 373.197263 861.29768 373.800601 850.798306 376.301183 850.798306 M 326.798391 900.299511 L 329.000938 900.299511 L 328.3976 901.499231 C 328.3976 901.499231 329.40074 902.902541 328.3976 904.502169 L 329.000938 905.4983 L 326.798391 905.4983 L 327.401729 904.502169 C 327.401729 904.502169 326.398588 902.698952 327.401729 901.499231 L 326.798391 900.299511 M 331.297984 900.299511 L 333.500531 900.299511 L 332.897193 901.499231 C 332.897193 901.499231 333.900333 902.902541 332.897193 904.502169 L 333.500531 905.4983 L 331.297984 905.4983 L 331.901322 904.502169 C 331.901322 904.502169 330.898181 902.698952 331.901322 901.499231 L 331.297984 900.299511 M 336.299147 900.299511 L 338.399926 900.299511 L 337.796588 901.499231 C 337.796588 901.499231 338.799728 902.902541 337.796588 904.502169 L 338.399926 905.4983 L 336.299147 905.4983 L 336.800717 904.502169 C 336.800717 904.502169 335.797577 902.698952 336.800717 901.499231 L 336.197379 900.299511 Z M 341.80188 900.299511 L 343.997158 900.299511 L 343.299321 901.601026 C 343.299321 901.601026 344.39696 902.902541 343.299321 904.502169 L 343.902659 905.4983 L 341.80188 905.4983 L 342.397949 904.502169 C 342.397949 904.502169 341.402078 902.698952 342.397949 901.499231 Z M 346.701275 900.299511 L 348.896553 900.299511 L 348.198717 901.601026 C 348.198717 901.601026 349.303625 902.902541 348.198717 904.502169 L 348.802055 905.4983 L 346.803043 905.4983 L 347.297344 904.502169 C 347.297344 904.502169 346.301473 902.698952 347.297344 901.499231 L 346.701275 900.401305 M 351.600671 900.401305 L 353.803218 900.401305 L 353.098112 901.601026 C 353.098112 901.601026 354.20302 902.902541 353.098112 904.502169 L 353.70145 905.4983 L 351.702439 905.4983 L 352.19674 904.502169 C 352.19674 904.502169 351.200868 902.698952 352.19674 901.499231 L 351.600671 900.401305 " transform="matrix(0.537375,0,0,0.537234,-121.875,-362.390614)"/>
<path style=" stroke:none;fill-rule:nonzero;fill:rgb(100%,100%,0%);fill-opacity:1;" d="M 61.171875 157.875 C 67.265625 157.875 74.765625 156.609375 78.28125 154.828125 L 86.015625 154.125 L 86.203125 163.546875 C 79.640625 167.15625 64.546875 167.953125 61.21875 167.90625 C 57.890625 167.859375 42.609375 167.15625 36 163.546875 L 36.09375 154.078125 L 43.828125 154.78125 C 49.355469 156.921875 55.246094 157.972656 61.171875 157.875 "/>
<path style="fill:none;stroke-width:0.3;stroke-linecap:butt;stroke-linejoin:miter;stroke:rgb(0%,0%,0%);stroke-opacity:1;stroke-miterlimit:4;" d="M 340.696972 968.400023 C 352.102241 968.400023 366.000822 966.102376 372.601195 962.699531 L 386.899578 961.499811 L 387.197613 979.001192 C 375.101776 985.697815 346.897542 987.202919 340.79874 987.101124 C 334.699938 986.99933 306.10317 985.697815 293.796529 978.899397 L 294.000065 961.398016 L 308.400216 962.699531 C 315.000588 966.102376 329.40074 968.400023 340.696972 968.400023 " transform="matrix(0.537375,0,0,0.537234,-121.875,-362.390614)"/>
<path style=" stroke:none;fill-rule:nonzero;fill:rgb(100%,100%,0%);fill-opacity:1;" d="M 16.125 117.65625 L 22.921875 119.8125 L 20.859375 130.828125 L 14.4375 131.859375 C 14.4375 131.859375 13.359375 126.046875 16.125 117.65625 "/>
<path style="fill:none;stroke-width:0.3;stroke-linecap:butt;stroke-linejoin:miter;stroke:rgb(0%,0%,0%);stroke-opacity:1;stroke-miterlimit:4;" d="M 256.898412 893.602888 L 269.503088 897.601957 L 265.701332 918.099004 L 253.699994 919.996744 C 253.699994 919.996744 251.700982 909.199257 256.898412 893.602888 Z M 256.898412 893.602888 " transform="matrix(0.537375,0,0,0.537234,-121.875,-362.390614)"/>
<path style=" stroke:none;fill-rule:nonzero;fill:rgb(49.411765%,49.411765%,49.411765%);fill-opacity:1;" d="M 20.859375 130.734375 L 14.4375 131.859375 L 18.515625 126.046875 Z M 20.859375 130.734375 "/>
<path style="fill:none;stroke-width:0.3;stroke-linecap:butt;stroke-linejoin:miter;stroke:rgb(0%,0%,0%);stroke-opacity:1;stroke-miterlimit:4;" d="M 265.701332 917.902686 L 253.699994 919.90222 L 261.303507 909.199257 L 265.701332 917.902686 " transform="matrix(0.537375,0,0,0.537234,-121.875,-362.390614)"/>
<path style=" stroke:none;fill-rule:nonzero;fill:rgb(100%,100%,0%);fill-opacity:1;" d="M 12.046875 125.625 L 18.609375 126.09375 C 18.75 131.625 19.453125 152.8125 44.765625 153.984375 L 43.96875 161.71875 C 13.171875 162 10.828125 135.703125 12.09375 125.625 "/>
<path style="fill:none;stroke-width:0.3;stroke-linecap:butt;stroke-linejoin:miter;stroke:rgb(0%,0%,0%);stroke-opacity:1;stroke-miterlimit:4;" d="M 249.302169 908.399443 L 261.499773 909.199257 C 261.797808 919.596837 262.997214 958.998575 310.202961 961.201698 L 308.698251 975.598347 C 251.30118 976.201843 246.997854 927.202339 249.302169 908.399443 Z M 294.101832 978.49949 L 308.501984 975.402029 " transform="matrix(0.537375,0,0,0.537234,-121.875,-362.390614)"/>
<path style=" stroke:none;fill-rule:nonzero;fill:rgb(100%,100%,0%);fill-opacity:1;" d="M 105.65625 117.75 L 98.90625 119.90625 L 101.0625 130.875 L 107.53125 131.90625 C 107.53125 131.90625 108.5625 126.140625 105.65625 117.75 "/>
<path style="fill:none;stroke-width:0.3;stroke-linecap:butt;stroke-linejoin:miter;stroke:rgb(0%,0%,0%);stroke-opacity:1;stroke-miterlimit:4;" d="M 423.49966 893.697411 L 410.902254 897.69648 L 414.900277 918.200798 L 426.901614 920.200333 C 426.901614 920.200333 428.900626 909.402846 423.49966 893.697411 Z M 423.49966 893.697411 " transform="matrix(0.537375,0,0,0.537234,-121.875,-362.390614)"/>
<path style=" stroke:none;fill-rule:nonzero;fill:rgb(49.411765%,49.411765%,49.411765%);fill-opacity:1;" d="M 101.0625 130.78125 L 107.484375 131.953125 L 103.359375 126.140625 L 101.015625 130.78125 "/>
<path style="fill:none;stroke-width:0.3;stroke-linecap:butt;stroke-linejoin:miter;stroke:rgb(0%,0%,0%);stroke-opacity:1;stroke-miterlimit:4;" d="M 414.900277 917.997209 L 426.901614 920.098538 L 419.203603 909.402846 L 414.900277 917.997209 " transform="matrix(0.537375,0,0,0.537234,-121.875,-362.390614)"/>
<path style=" stroke:none;fill-rule:nonzero;fill:rgb(100%,100%,0%);fill-opacity:1;" d="M 109.828125 125.671875 L 103.265625 126.140625 C 103.171875 131.671875 102.65625 152.859375 77.34375 154.03125 L 78.28125 161.71875 C 109.078125 162.09375 111.1875 135.75 109.875 125.671875 "/>
<path style="fill:none;stroke-width:0.3;stroke-linecap:butt;stroke-linejoin:miter;stroke:rgb(0%,0%,0%);stroke-opacity:1;stroke-miterlimit:4;" d="M 431.197672 908.501238 L 419.000067 909.301052 C 418.796532 919.698631 417.996927 959.202164 370.79845 961.303493 L 372.397659 975.598347 C 429.801998 976.296367 433.698253 927.296863 431.197672 908.603032 Z M 387.001346 978.49949 L 372.601195 975.496553 " transform="matrix(0.537375,0,0,0.537234,-121.875,-362.390614)"/>
<path style=" stroke:none;fill-rule:nonzero;fill:rgb(0%,62.352943%,77.254903%);fill-opacity:1;" d="M 57.09375 162.515625 C 56.875 162.609375 56.640625 162.640625 56.390625 162.609375 L 55.171875 162.5625 L 55.265625 161.015625 L 56.484375 161.109375 C 56.734375 161.109375 56.921875 161.15625 57.046875 161.25 C 57.265625 161.34375 57.375 161.5625 57.375 161.90625 C 57.375 162.1875 57.265625 162.390625 57.046875 162.515625 M 55.03125 164.859375 L 55.125 163.03125 L 56.53125 163.125 C 57 163.15625 57.359375 163.046875 57.609375 162.796875 C 57.859375 162.609375 57.984375 162.328125 57.984375 161.953125 C 58.007812 161.617188 57.90625 161.285156 57.703125 161.015625 C 57.453125 160.761719 57.121094 160.609375 56.765625 160.59375 L 54.703125 160.453125 L 54.421875 164.859375 Z M 59.4375 161.25 L 60.9375 161.25 L 61.453125 161.34375 C 61.671875 161.46875 61.78125 161.6875 61.78125 162 C 61.78125 162.3125 61.703125 162.515625 61.546875 162.609375 C 61.34375 162.707031 61.117188 162.757812 60.890625 162.75 L 59.4375 162.75 Z M 59.4375 165.09375 L 59.4375 163.21875 L 60.84375 163.265625 C 61.09375 163.265625 61.28125 163.296875 61.40625 163.359375 C 61.625 163.453125 61.734375 163.640625 61.734375 163.921875 L 61.734375 165 L 61.828125 165.140625 L 62.578125 165.140625 L 62.578125 165.046875 L 62.390625 164.8125 L 62.34375 164.4375 L 62.34375 163.828125 C 62.34375 163.546875 62.28125 163.359375 62.15625 163.265625 L 61.78125 162.984375 C 62 162.890625 62.15625 162.765625 62.25 162.609375 C 62.34375 162.453125 62.40625 162.234375 62.4375 161.953125 C 62.4375 161.453125 62.21875 161.109375 61.78125 160.921875 L 60.9375 160.734375 L 58.828125 160.734375 L 58.828125 165.140625 Z M 64.125 164.15625 C 63.855469 163.800781 63.695312 163.378906 63.65625 162.9375 C 63.65625 162.3125 63.78125 161.84375 64.03125 161.53125 C 64.316406 161.210938 64.730469 161.039062 65.15625 161.0625 C 65.566406 161.015625 65.980469 161.152344 66.28125 161.4375 C 66.59375 161.75 66.765625 162.15625 66.796875 162.65625 C 66.832031 163.113281 66.734375 163.566406 66.515625 163.96875 C 66.296875 164.375 65.90625 164.578125 65.34375 164.578125 C 64.5 164.578125 64.40625 164.484375 64.078125 164.15625 M 63.375 161.390625 C 63.105469 161.859375 62.972656 162.398438 63 162.9375 C 63.03125 163.59375 63.25 164.125 63.65625 164.53125 C 64.117188 164.949219 64.722656 165.167969 65.34375 165.140625 C 66 165.167969 66.625 164.847656 66.984375 164.296875 C 67.316406 163.796875 67.480469 163.207031 67.453125 162.609375 C 67.4375 162.074219 67.238281 161.5625 66.890625 161.15625 C 66.484375 160.6875 65.875 160.46875 65.0625 160.5 C 64.3125 160.5 63.75 160.796875 63.375 161.390625 M 84 155.0625 C 84.46875 155 84.859375 155.015625 85.171875 155.109375 C 85.640625 155.265625 85.984375 155.625 86.203125 156.1875 L 85.59375 156.28125 C 85.511719 156 85.304688 155.777344 85.03125 155.671875 C 84.730469 155.5625 84.410156 155.527344 84.09375 155.578125 C 83.710938 155.644531 83.371094 155.863281 83.15625 156.1875 C 82.90625 156.5 82.828125 156.96875 82.921875 157.59375 C 82.988281 158.046875 83.183594 158.46875 83.484375 158.8125 C 83.796875 159.09375 84.203125 159.203125 84.703125 159.140625 C 85.070312 159.097656 85.410156 158.914062 85.640625 158.625 C 85.890625 158.34375 85.96875 157.953125 85.875 157.453125 L 84.46875 157.6875 L 84.421875 157.21875 L 86.390625 156.890625 L 86.765625 159.234375 L 86.34375 159.234375 L 86.109375 158.765625 L 85.640625 159.234375 C 85.390625 159.453125 85.078125 159.59375 84.703125 159.65625 C 84.179688 159.765625 83.632812 159.648438 83.203125 159.328125 C 82.703125 158.9375 82.382812 158.363281 82.3125 157.734375 C 82.152344 157.089844 82.269531 156.410156 82.640625 155.859375 C 82.964844 155.394531 83.480469 155.101562 84.046875 155.0625 M 88.453125 154.734375 L 89.859375 154.21875 C 90.046875 154.15625 90.21875 154.125 90.375 154.125 C 90.65625 154.125 90.84375 154.28125 90.9375 154.59375 C 91.03125 154.90625 91.03125 155.140625 90.9375 155.296875 C 90.8125 155.453125 90.609375 155.578125 90.328125 155.671875 L 89.015625 156.140625 Z M 89.859375 158.34375 L 89.203125 156.609375 L 90.515625 156.140625 L 91.03125 156 C 91.28125 156.03125 91.46875 156.1875 91.59375 156.46875 L 92.015625 157.453125 L 92.109375 157.59375 L 92.8125 157.3125 L 92.8125 157.21875 C 92.65625 157.21875 92.5625 157.15625 92.53125 157.03125 C 92.4375 156.96875 92.375 156.859375 92.34375 156.703125 L 92.109375 156.140625 C 92.015625 155.921875 91.90625 155.765625 91.78125 155.671875 L 91.3125 155.578125 L 91.59375 155.015625 C 91.59375 154.828125 91.5625 154.609375 91.5 154.359375 C 91.3125 153.859375 91 153.609375 90.5625 153.609375 C 90.257812 153.597656 89.957031 153.644531 89.671875 153.75 L 87.703125 154.453125 L 89.296875 158.578125 L 89.859375 158.390625 M 95.015625 156.1875 L 92.53125 152.53125 L 95.25 150.75 L 95.578125 151.21875 L 93.328125 152.625 L 94.078125 153.75 L 96.1875 152.4375 L 96.46875 152.859375 L 94.359375 154.171875 L 95.203125 155.4375 L 97.546875 153.9375 L 97.828125 154.40625 Z M 97.21875 149.71875 L 97.921875 148.921875 C 98.296875 148.546875 98.65625 148.390625 99 148.453125 C 99.40625 148.453125 99.8125 148.65625 100.21875 149.0625 C 100.511719 149.316406 100.738281 149.636719 100.875 150 C 100.9375 150.28125 100.9375 150.53125 100.875 150.75 L 100.546875 151.21875 L 99.84375 151.96875 Z M 101.015625 151.40625 C 101.515625 150.875 101.625 150.25 101.34375 149.53125 C 101.144531 149.15625 100.875 148.820312 100.546875 148.546875 C 100.152344 148.164062 99.640625 147.933594 99.09375 147.890625 C 98.53125 147.828125 98.046875 148.03125 97.640625 148.5 L 96.421875 149.8125 L 99.796875 152.765625 L 101.015625 151.453125 M 103.640625 148.03125 L 99.75 145.6875 L 100.078125 145.21875 L 103.96875 147.515625 Z M 105.1875 145.40625 L 100.96875 143.71875 L 102.1875 140.765625 L 102.703125 140.953125 L 101.71875 143.390625 L 102.984375 143.859375 L 103.921875 141.65625 L 104.390625 141.84375 L 103.453125 144.09375 L 104.859375 144.65625 L 105.9375 142.21875 L 106.40625 142.40625 Z M 107.0625 140.25 L 102.65625 139.3125 L 102.84375 138.609375 L 106.921875 137.203125 L 103.3125 136.40625 L 103.453125 135.890625 L 107.859375 136.828125 L 107.71875 137.484375 L 103.640625 138.890625 L 107.25 139.6875 Z M 106.6875 134.625 L 106.734375 134.0625 C 106.984375 134.0625 107.203125 134.03125 107.390625 133.96875 C 107.703125 133.78125 107.890625 133.453125 107.953125 132.984375 L 107.90625 132.328125 C 107.8125 131.984375 107.609375 131.796875 107.296875 131.765625 C 106.984375 131.734375 106.796875 131.78125 106.734375 131.90625 C 106.609375 132.03125 106.5 132.265625 106.40625 132.609375 L 106.171875 133.171875 C 106.078125 133.546875 105.953125 133.8125 105.796875 133.96875 C 105.609375 134.25 105.328125 134.359375 104.953125 134.296875 C 104.59375 134.265625 104.257812 134.097656 104.015625 133.828125 C 103.734375 133.515625 103.625 133.109375 103.6875 132.609375 C 103.71875 132.140625 103.875 131.765625 104.15625 131.484375 C 104.40625 131.171875 104.78125 131.046875 105.28125 131.109375 L 105.234375 131.671875 C 104.984375 131.671875 104.796875 131.71875 104.671875 131.8125 C 104.390625 131.96875 104.234375 132.265625 104.203125 132.703125 C 104.171875 133.015625 104.234375 133.265625 104.390625 133.453125 C 104.546875 133.640625 104.703125 133.734375 104.859375 133.734375 C 105.109375 133.765625 105.28125 133.703125 105.375 133.546875 L 105.703125 132.75 L 105.890625 132.140625 C 105.984375 131.859375 106.109375 131.640625 106.265625 131.484375 C 106.515625 131.265625 106.828125 131.15625 107.203125 131.15625 C 107.734375 131.21875 108.078125 131.4375 108.234375 131.8125 C 108.390625 132.1875 108.46875 132.609375 108.46875 133.078125 C 108.4375 133.539062 108.238281 133.972656 107.90625 134.296875 C 107.59375 134.578125 107.1875 134.6875 106.6875 134.625 M 15 134.390625 L 15.140625 134.953125 C 14.859375 134.984375 14.65625 135.078125 14.53125 135.234375 C 14.28125 135.484375 14.203125 135.859375 14.296875 136.359375 L 14.484375 136.921875 C 14.671875 137.234375 14.9375 137.375 15.28125 137.34375 C 15.5 137.3125 15.65625 137.203125 15.75 137.015625 L 15.890625 136.265625 L 15.890625 135.65625 C 15.890625 135.25 15.9375 134.96875 16.03125 134.8125 C 16.1875 134.53125 16.453125 134.34375 16.828125 134.25 C 17.234375 134.1875 17.578125 134.28125 17.859375 134.53125 C 18.171875 134.71875 18.375 135.0625 18.46875 135.5625 C 18.558594 135.972656 18.511719 136.402344 18.328125 136.78125 C 18.171875 137.125 17.84375 137.34375 17.34375 137.4375 L 17.25 136.921875 L 17.71875 136.640625 C 17.9375 136.421875 18.015625 136.09375 17.953125 135.65625 C 17.890625 135.28125 17.765625 135.046875 17.578125 134.953125 C 17.410156 134.847656 17.214844 134.796875 17.015625 134.8125 C 16.804688 134.804688 16.609375 134.9375 16.546875 135.140625 L 16.5 135.984375 L 16.453125 136.59375 L 16.265625 137.34375 C 16.125 137.664062 15.820312 137.882812 15.46875 137.90625 C 14.96875 138 14.578125 137.875 14.296875 137.53125 C 14.011719 137.214844 13.816406 136.824219 13.734375 136.40625 C 13.636719 135.941406 13.722656 135.453125 13.96875 135.046875 C 14.203125 134.699219 14.582031 134.476562 15 134.4375 M 14.71875 140.203125 L 19.078125 138.890625 L 20.0625 141.9375 L 19.546875 142.125 L 18.703125 139.640625 L 17.390625 140.015625 L 18.1875 142.359375 L 17.671875 142.5 L 16.921875 140.15625 L 15.421875 140.625 L 16.265625 143.15625 L 15.796875 143.296875 Z M 16.640625 145.5 L 20.625 143.390625 L 21.09375 144.140625 L 18.328125 147 L 22.3125 146.34375 L 22.734375 147.046875 L 18.75 149.15625 L 18.46875 148.6875 L 20.8125 147.421875 L 21.234375 147.234375 L 21.84375 146.90625 L 17.859375 147.609375 L 17.578125 147.09375 L 20.296875 144.1875 L 20.15625 144.28125 L 19.6875 144.515625 L 19.265625 144.75 L 16.921875 145.96875 Z M 24.046875 151.359375 C 23.859375 151.296875 23.671875 151.171875 23.484375 150.984375 L 22.640625 150.140625 L 23.765625 149.109375 L 24.609375 149.953125 L 24.9375 150.421875 C 25.03125 150.671875 24.953125 150.90625 24.703125 151.125 C 24.453125 151.34375 24.234375 151.421875 24.046875 151.359375 M 20.859375 151.734375 L 22.265625 150.46875 L 23.203125 151.453125 C 23.578125 151.765625 23.921875 151.921875 24.234375 151.921875 C 24.582031 151.917969 24.917969 151.785156 25.171875 151.546875 C 25.410156 151.292969 25.542969 150.957031 25.546875 150.609375 C 25.546875 150.296875 25.40625 150 25.125 149.71875 L 23.71875 148.3125 L 20.4375 151.3125 Z M 24.796875 155.25 L 27.1875 151.5 L 30 153.1875 L 29.71875 153.65625 L 27.375 152.25 L 26.671875 153.421875 L 28.78125 154.6875 L 28.546875 155.15625 L 26.390625 153.84375 L 25.59375 155.109375 L 27.9375 156.515625 L 27.65625 156.984375 Z M 31.828125 154.5 L 33.28125 154.96875 L 33.75 155.203125 C 33.9375 155.390625 33.96875 155.625 33.84375 155.90625 C 33.78125 156.21875 33.640625 156.390625 33.421875 156.421875 L 32.71875 156.375 L 31.359375 155.90625 Z M 30.609375 158.203125 L 31.21875 156.421875 L 32.53125 156.84375 C 32.78125 156.90625 32.953125 156.984375 33.046875 157.078125 C 33.203125 157.234375 33.25 157.453125 33.1875 157.734375 L 32.953125 158.4375 L 32.90625 158.765625 L 32.90625 158.90625 L 33.609375 159.140625 L 33.609375 159.046875 L 33.515625 158.71875 L 33.609375 158.390625 L 33.796875 157.828125 C 33.859375 157.546875 33.859375 157.359375 33.796875 157.265625 C 33.796875 157.109375 33.703125 156.96875 33.515625 156.84375 C 33.765625 156.84375 33.96875 156.765625 34.125 156.609375 C 34.28125 156.453125 34.390625 156.265625 34.453125 156.046875 C 34.640625 155.578125 34.546875 155.1875 34.171875 154.875 L 33.421875 154.453125 L 31.40625 153.84375 L 30 158.015625 Z M 30.609375 158.203125 "/>
<path style=" stroke:none;fill-rule:nonzero;fill:rgb(73.725492%,44.313726%,37.254903%);fill-opacity:1;" d="M 36.796875 82.3125 C 37.265625 81.046875 42.09375 77.625 57.796875 79.125 C 57.796875 79.125 60.46875 80.765625 62.015625 80.53125 C 62.953125 80.4375 61.546875 80.625 60.328125 79.640625 C 59.15625 78.703125 58.921875 76.6875 61.59375 76.78125 C 64.3125 76.828125 74.390625 77.390625 74.578125 78.328125 C 74.765625 79.265625 69.234375 79.59375 67.21875 79.546875 C 65.15625 79.5 65.34375 80.53125 67.40625 80.484375 C 73.828125 80.203125 80.8125 77.953125 88.171875 83.203125 C 89.0625 83.8125 85.96875 83.90625 83.578125 82.921875 C 83.578125 82.921875 77.015625 83.25 74.203125 82.78125 C 74.203125 82.78125 72.09375 84.5625 69.234375 84.375 C 69.609375 85.3125 68.203125 88.6875 59.390625 86.109375 C 57.890625 86.578125 52.59375 87.46875 53.15625 85.875 C 51.75 85.875 49.3125 86.34375 48.9375 85.546875 C 48.5625 84.75 53.25 83.578125 54.09375 82.734375 C 54.09375 82.734375 44.15625 82.828125 42.28125 82.125 C 42.28125 82.125 36.421875 83.4375 36.796875 82.3125 "/>
<path style=" stroke:none;fill-rule:nonzero;fill:rgb(0%,52.941179%,21.568628%);fill-opacity:1;" d="M 39.984375 96.1875 C 40.171875 95.90625 40.265625 95.34375 40.734375 95.390625 C 41.671875 95.625 42.375 97.453125 43.546875 96.28125 C 44.015625 96.1875 44.15625 96.75 44.484375 96.84375 C 44.71875 97.828125 45.5625 96.609375 46.125 96.703125 C 47.46875 96.140625 48.9375 95.984375 50.53125 96.234375 C 50.53125 97.265625 49.78125 98.34375 48.84375 98.90625 C 48.84375 99.84375 49.78125 100.5 49.734375 101.484375 C 49.59375 101.859375 49.734375 102.421875 49.171875 102.5625 C 48.421875 102.421875 47.765625 102.375 47.15625 101.953125 C 47.09375 101.859375 47 101.8125 46.875 101.8125 C 46.78125 102.140625 47.34375 102.46875 47.53125 102.796875 C 47.15625 103.40625 46.59375 102.84375 46.078125 102.84375 C 45.9375 103.21875 46.078125 103.640625 45.703125 103.875 C 45.09375 103.875 44.953125 103.171875 44.578125 102.84375 C 44.15625 103.265625 44.859375 103.5 44.953125 103.828125 C 44.671875 105.140625 44.71875 106.40625 43.453125 107.25 L 42.5625 107.671875 C 42.328125 107.015625 42.46875 106.03125 42.328125 105.328125 C 41.890625 106.171875 41.34375 106.9375 40.6875 107.625 C 39.75 107.34375 39.28125 106.3125 39.09375 105.421875 C 38.726562 104.417969 38.964844 103.289062 39.703125 102.515625 C 39.46875 102.046875 38.53125 102.140625 38.390625 101.390625 C 36.984375 100.453125 36.28125 102.9375 35.390625 101.671875 C 35.140625 100.402344 35.484375 99.089844 36.328125 98.109375 C 36.09375 97.640625 35.4375 97.734375 35.0625 97.453125 C 34.21875 96.703125 32.953125 95.953125 33.046875 94.640625 C 35.449219 93.769531 38.136719 94.375 39.9375 96.1875 "/>
<path style=" stroke:none;fill-rule:nonzero;fill:rgb(100%,100%,0%);fill-opacity:1;" d="M 41.203125 96.046875 C 41.15625 97.125 41.90625 96.328125 42.515625 96.984375 C 42.046875 96.796875 41.71875 97.78125 41.25 97.21875 L 40.96875 97.5 C 41.15625 97.875 41.4375 97.921875 41.15625 98.34375 C 40.6875 98.53125 40.546875 97.875 40.3125 97.640625 C 40.375 97.515625 40.34375 97.390625 40.21875 97.265625 C 39.96875 97.484375 39.65625 97.578125 39.28125 97.546875 C 39.1875 97.359375 38.953125 97.078125 39.1875 96.890625 C 39.5625 96.421875 40.125 97.078125 40.40625 96.75 C 40.453125 96.421875 40.171875 96.046875 40.546875 95.8125 C 40.78125 95.859375 41.109375 95.71875 41.203125 96.046875 M 44.109375 96.9375 C 44.15625 97.125 44.015625 97.40625 44.296875 97.59375 C 44.703125 97.4375 45.015625 97.53125 45.234375 97.875 C 45.296875 98.125 45.234375 98.3125 45.046875 98.4375 L 44.484375 98.296875 C 44.484375 98.234375 44.421875 98.140625 44.296875 98.015625 C 44.046875 98.015625 43.859375 98.109375 43.734375 98.296875 C 43.875 98.484375 44.203125 98.625 44.109375 98.859375 C 43.78125 99.1875 43.640625 98.578125 43.265625 98.765625 C 42.984375 98.671875 43.3125 98.15625 42.9375 97.96875 C 42.46875 97.96875 42.796875 98.71875 42.1875 98.4375 C 41.9375 98.1875 41.875 97.921875 42 97.640625 C 42.292969 97.519531 42.628906 97.554688 42.890625 97.734375 C 43.265625 97.3125 43.265625 95.8125 44.15625 96.9375 M 40.5 98.484375 C 40.734375 98.859375 40.40625 99.328125 40.734375 99.703125 C 41.203125 98.765625 41.671875 99.890625 42.234375 99.796875 C 42.421875 100.03125 42.28125 100.3125 42.328125 100.546875 C 41.625 100.734375 40.78125 100.96875 40.171875 100.40625 L 39.984375 100.59375 C 40.359375 100.921875 40.6875 101.34375 40.40625 101.90625 C 39.890625 102 39.046875 102.046875 38.8125 101.484375 C 38.671875 101.015625 39.140625 100.734375 38.625 100.359375 C 38.296875 100.828125 38.296875 101.390625 37.59375 100.96875 C 37.195312 100.726562 37.035156 100.226562 37.21875 99.796875 C 37.6875 99.046875 38.53125 99.796875 39 99.46875 C 39.09375 98.8125 38.859375 98.25 39.46875 97.921875 C 39.9375 97.828125 40.171875 98.203125 40.5 98.484375 "/>
<path style=" stroke:none;fill-rule:nonzero;fill:rgb(100%,100%,100%);fill-opacity:1;" d="M 42.46875 98.90625 C 42.234375 99.984375 41.4375 98.859375 41.0625 98.8125 C 41.53125 97.875 41.859375 99.09375 42.46875 98.90625 M 45 100.078125 C 44.4375 100.21875 44.53125 99.515625 44.25 99.234375 L 44.484375 99.046875 C 44.671875 99.359375 44.84375 99.703125 45 100.078125 "/>
<path style=" stroke:none;fill-rule:nonzero;fill:rgb(100%,100%,0%);fill-opacity:1;" d="M 44.25 99.84375 C 44.390625 100.21875 43.875 100.546875 44.34375 100.78125 L 44.71875 100.453125 C 45.15625 100.484375 45.53125 100.671875 45.84375 101.015625 C 46.125 101.8125 45.328125 101.8125 44.90625 102.046875 L 44.4375 102.046875 C 44.53125 101.765625 44.203125 101.671875 44.15625 101.578125 C 43.972656 101.511719 43.765625 101.570312 43.640625 101.71875 C 43.734375 102.1875 44.34375 102.65625 43.734375 103.078125 C 43.171875 103.078125 42.328125 103.265625 42.375 102.515625 C 42.1875 102.046875 42.9375 101.4375 42.140625 101.390625 C 41.859375 102 41.578125 102.515625 40.875 102 L 40.96875 101.15625 C 41.625 101.15625 42.421875 101.296875 42.703125 100.546875 C 42.890625 100.03125 42.375 99.515625 42.84375 99.140625 C 43.546875 98.953125 43.921875 99.421875 44.25 99.84375 "/>
<path style=" stroke:none;fill-rule:nonzero;fill:rgb(0%,0%,0%);fill-opacity:1;" d="M 43.78125 101.0625 C 43.921875 101.484375 43.5 101.53125 43.265625 101.71875 C 43.015625 101.71875 42.796875 101.625 42.609375 101.4375 C 42.46875 100.96875 42.84375 100.875 43.078125 100.6875 C 43.40625 100.546875 43.546875 100.921875 43.78125 101.0625 "/>
<path style=" stroke:none;fill-rule:nonzero;fill:rgb(100%,100%,100%);fill-opacity:1;" d="M 43.359375 101.34375 C 43.296875 101.40625 43.203125 101.4375 43.078125 101.4375 L 42.984375 100.96875 C 43.296875 100.9375 43.421875 101.0625 43.359375 101.34375 "/>
</g>
</svg>
