<?xml version="1.0" encoding="UTF-8"?>
<svg xmlns="http://www.w3.org/2000/svg" xmlns:xlink="http://www.w3.org/1999/xlink" width="px" height="px" viewBox="0 0 320 240" version="1.1">
<g id="surface1">
<rect x="0" y="0" width="320" height="240" style="fill:rgb(0%,15.686275%,40.784314%);fill-opacity:1;stroke:none;"/>
<path style="fill-rule:nonzero;fill:rgb(98.823529%,81.960785%,8.627451%);fill-opacity:1;stroke-width:8;stroke-linecap:butt;stroke-linejoin:miter;stroke:rgb(0%,0%,0%);stroke-opacity:1;stroke-miterlimit:4;" d="M 590 174.601562 L 590 264.601562 C 590 324.601562 560 389.203125 485 424.203125 C 410 389.203125 380 324.601562 380 264.601562 L 380 174.601562 Z M 590 174.601562 " transform="matrix(0.5,0,0,0.5,0,0)"/>
<path style="fill:none;stroke-width:7;stroke-linecap:butt;stroke-linejoin:miter;stroke:rgb(100%,100%,100%);stroke-opacity:1;stroke-miterlimit:4;" d="M 590 174.601562 L 590 264.601562 C 590 324.601562 560 389.203125 485 424.203125 C 410 389.203125 380 324.601562 380 264.601562 L 380 174.601562 Z M 590 174.601562 " transform="matrix(0.5,0,0,0.5,0,0)"/>
<path style="fill-rule:nonzero;fill:rgb(98.823529%,67.843139%,33.725491%);fill-opacity:1;stroke-width:0.3;stroke-linecap:round;stroke-linejoin:round;stroke:rgb(0%,0%,0%);stroke-opacity:1;stroke-miterlimit:4;" d="M 447.101562 273.703125 C 444.398438 278.398438 439.703125 279.398438 436.101562 277.898438 C 432.398438 276.398438 429 267.601562 425.203125 262.898438 C 421.601562 258.203125 420.601562 260.203125 418.203125 257.5 C 414.695312 254.304688 410.625 251.796875 406.203125 250.101562 C 402.898438 248.601562 399.5 247.203125 397.203125 241.5 C 398.234375 239.203125 400.085938 237.382812 402.398438 236.398438 C 404.296875 235.703125 405.796875 233 406 230.601562 C 406.296875 228.398438 408.296875 225.898438 411 224 C 409.703125 224.203125 407.101562 223.703125 405.898438 222.898438 C 404.796875 221.898438 402.898438 222.101562 401.796875 222.898438 C 400.664062 223.703125 399.132812 223.96875 397.203125 223.703125 C 398 223.101562 399.398438 221.703125 399.5 220.5 C 399.601562 219.296875 401.101562 218.601562 404 218.601562 C 406.796875 218.601562 408.601562 215.398438 410.898438 215.398438 C 409.296875 215.398438 409.601562 212.601562 410.5 212.398438 C 406.5 211.703125 407 208.398438 408.601562 208.398438 C 408.5 208 408 207.398438 406.101562 206.898438 C 404.398438 206.203125 405.203125 204.601562 406.601562 203.601562 C 405.398438 201.101562 406.5 199.203125 408.5 197.601562 C 405.703125 197.5 408.796875 193.601562 409.5 191.5 C 410.296875 189.5 410.601562 189.203125 411.5 190.5 C 412.5 191.601562 414.796875 194.203125 417.398438 195 C 419.867188 195.664062 421.367188 197.070312 421.898438 199.203125 C 422.398438 201.5 423.398438 202.601562 426.101562 203.601562 C 429 204.5 432.898438 206.898438 432.398438 212.203125 C 434.289062 212.273438 436.109375 212.9375 437.601562 214.101562 " transform="matrix(0.5,0,0,0.5,0,0)"/>
<path style="fill-rule:nonzero;fill:rgb(100%,63.137257%,63.137257%);fill-opacity:1;stroke-width:0.3;stroke-linecap:round;stroke-linejoin:round;stroke:rgb(0%,0%,0%);stroke-opacity:1;stroke-miterlimit:4;" d="M 454 206 C 453.976562 208.5 455.125 210.867188 457.101562 212.398438 C 459 213.898438 460.601562 215.101562 460.203125 217 C 459.898438 219 460.601562 220.203125 462.203125 221.5 C 464 222.703125 465.203125 224.203125 464.796875 226.703125 C 464.398438 229.203125 464.601562 230.703125 465.601562 232.601562 C 466.601562 234.5 468.398438 236 467.601562 239 C 466.796875 242 467.203125 246 468.203125 248 C 469.203125 249.898438 468.203125 251.398438 466.5 254.703125 C 464.703125 258 463.703125 259.203125 460.101562 260.5 C 456.398438 261.601562 456.101562 263.898438 456.101562 267.703125 C 456.101562 271.835938 453.601562 273.601562 448.601562 273 C 443.601562 277.101562 440.5 272.203125 439.203125 266.101562 C 437.898438 260 437.796875 253.296875 430.398438 248 C 423.101562 242.5 426 233.203125 432.101562 229.5 C 438.203125 225.796875 437.5 215.101562 436.703125 208.5 C 436.101562 201.898438 440.5 198.101562 443.898438 194.5 C 448.398438 196.203125 454 203.101562 454 206 " transform="matrix(0.5,0,0,0.5,0,0)"/>
<path style="fill-rule:nonzero;fill:rgb(94.509804%,69.803923%,86.274511%);fill-opacity:1;stroke-width:0.3;stroke-linecap:round;stroke-linejoin:round;stroke:rgb(0%,0%,0%);stroke-opacity:1;stroke-miterlimit:4;" d="M 443.398438 248.601562 C 442 245.398438 440.5 242.101562 444.101562 235.101562 C 447.898438 228 445.5 222.601562 444.398438 219 C 443.296875 215.5 443 212.203125 444.398438 210.703125 C 445.898438 209.398438 446.5 208.5 446.601562 206.101562 C 446.703125 203.898438 448.601562 204.601562 448.898438 205.703125 C 449.203125 206.796875 449.398438 208.703125 447.398438 212.101562 C 445.398438 215.5 453 224.101562 449.5 233.203125 C 447.101562 239.601562 450.296875 247.703125 451.5 253.398438 C 452.703125 259.101562 453.5 272.398438 445.203125 274.398438 C 450.898438 271.703125 445.601562 253.898438 443.398438 248.601562 " transform="matrix(0.5,0,0,0.5,0,0)"/>
<path style="fill:none;stroke-width:0.3;stroke-linecap:round;stroke-linejoin:round;stroke:rgb(0%,0%,0%);stroke-opacity:1;stroke-miterlimit:4;" d="M 406.296875 247.601562 C 407.601562 247.898438 408.296875 247.101562 408.703125 246.203125 C 409.101562 245.296875 409.398438 244.898438 410.703125 244.703125 C 411.898438 244.703125 413.898438 244.398438 414.398438 243.398438 C 414.898438 242.398438 416.296875 243.203125 417.601562 240.703125 C 418.898438 238.101562 419.703125 235.101562 423.101562 234 M 432.398438 212.203125 C 431.101562 212.203125 427.5 212.398438 426 215.601562 M 415.601562 196.703125 C 418.601562 197.601562 417.398438 199.601562 418.898438 200.703125 C 421.601562 202.898438 419.101562 205.101562 421.398438 205.703125 C 423.703125 206.296875 423.5 206.703125 423 209.203125 C 422.203125 212.101562 425 212.203125 424 214.101562 M 411 224 C 412.796875 222.398438 417.101562 221.101562 418.101562 219.398438 M 410.898438 215.398438 C 413.5 215.203125 417 216.203125 417.5 215.203125 M 410.5 212.5 C 411.796875 212.5 414.398438 211.601562 414.898438 209.898438 M 408.601562 208.5 C 410.101562 208.5 412 208.398438 413.898438 207 M 406.601562 203.601562 C 407.703125 202.703125 409.703125 203.703125 411.601562 202.5 M 408.5 197.601562 C 409.398438 197.601562 411.296875 197.398438 411.296875 198.5 " transform="matrix(0.5,0,0,0.5,0,0)"/>
<path style="fill-rule:nonzero;fill:rgb(61.960787%,32.941177%,3.921569%);fill-opacity:1;stroke-width:2.2;stroke-linecap:round;stroke-linejoin:round;stroke:rgb(0%,0%,0%);stroke-opacity:1;stroke-miterlimit:4;" d="M -55 -232.987549 C -55 -232.987549 -125 -291.987549 -183 -331.987549 C -241 -371.987549 -311 -420.987549 -311 -430.987549 C -300 -438.987549 -241 -400.987549 -160 -351.987549 C -78 -301.987549 -32 -252.987549 -32 -252.987549 Z M -60 -192.987549 C -60 -192.987549 -128 -233.987549 -195 -262.987549 C -265 -291.987549 -370 -291.987549 -381 -301.987549 C -381 -311.987549 -259 -317.987549 -172 -282.987549 C -83 -241.987549 -37 -212.987549 -37 -212.987549 Z M -61 -124.987549 C -61 -124.987549 -135 -158.987549 -207 -174.987549 C -277 -190.987549 -377 -184.987549 -389 -193.987549 C -389 -203.987549 -265 -223.987549 -172 -193.987549 C -78 -164.987549 -38 -144.987549 -38 -144.987549 Z M -65 -55.987549 C -65 -55.987549 -121 -93.987549 -195 -101.987549 C -265 -108.987549 -358 -55.987549 -370 -65.987549 C -370 -75.987549 -289 -134.987549 -188 -124.987549 C -89 -114.987549 -42 -75.987549 -42 -75.987549 Z M -42 -273.987549 C -42 -273.987549 -113 -338.987549 -113 -382.987549 C -113 -421.987549 -70 -481.987549 -51 -481.987549 C -61 -461.987549 -94 -421.987549 -94 -382.987549 C -94 -342.987549 -19 -293.987549 -19 -293.987549 Z M -42 -273.987549 " transform="matrix(0.0625,0,0,0.0625,267.5,124.800003)"/>
<path style="fill-rule:nonzero;fill:rgb(61.960787%,32.941177%,3.921569%);fill-opacity:1;stroke-width:2.2;stroke-linecap:round;stroke-linejoin:round;stroke:rgb(0%,0%,0%);stroke-opacity:1;stroke-miterlimit:4;" d="M -42 -273.987549 C -42 -273.987549 -28 -338.987549 -28 -382.987549 C -28 -441.987549 -70 -495.987549 -66 -510.987549 C -51 -495.987549 -9 -451.987549 -9 -382.987549 C -9 -322.987549 -19 -293.987549 -19 -293.987549 Z M -42 -273.987549 " transform="matrix(0.0625,0,0,0.0625,267.5,124.800003)"/>
<path style="fill-rule:nonzero;fill:rgb(61.960787%,32.941177%,3.921569%);fill-opacity:1;stroke-width:12;stroke-linecap:round;stroke-linejoin:round;stroke:rgb(98.823529%,81.960785%,8.627451%);stroke-opacity:1;stroke-miterlimit:4;" d="M -25 -294.987549 C -25 -313.987549 -32 -330.987549 -44 -343.987549 C -60 -362.987549 -84 -368.987549 -109 -364.987549 C -139 -359.987549 -163 -341.987549 -178 -313.987549 C -198 -276.987549 -200 -236.987549 -201 -197.987549 C -201 -62.987549 -196 -7.987549 -192 125.012451 C -191 164.012451 -184 244.012451 -202 307.012451 C -209 334.012451 -217 359.012451 -229 385.012451 C -221 352.012451 -217 335.012451 -213 310.012451 C -202 245.012451 -205 184.012451 -207 124.012451 C -211 1.012451 -218 -61.987549 -222 -210.987549 C -223 -255.987549 -219 -289.987549 -198 -325.987549 C -176 -362.987549 -138 -389.987549 -95 -389.987549 C -77 -389.987549 -62 -386.987549 -47 -377.987549 C -17 -361.987549 -3 -328.987549 -3 -295.987549 Z M -25 -294.987549 " transform="matrix(0.0625,0,0,0.0625,267.5,124.800003)"/>
<path style=" stroke:none;fill-rule:nonzero;fill:rgb(61.960787%,32.941177%,3.921569%);fill-opacity:1;" d="M 265.9375 106.363281 C 265.9375 105.175781 265.5 104.113281 264.75 103.300781 C 263.75 102.113281 262.25 101.738281 260.6875 101.988281 C 258.8125 102.300781 257.3125 103.425781 256.375 105.175781 C 255.125 107.488281 255 109.988281 254.9375 112.425781 C 254.9375 120.863281 255.25 124.300781 255.5 132.613281 C 255.5625 135.050781 256 140.050781 254.875 143.988281 C 254.4375 145.675781 253.9375 147.238281 253.1875 148.863281 C 253.6875 146.800781 253.9375 145.738281 254.1875 144.175781 C 254.875 140.113281 254.6875 136.300781 254.5625 132.550781 C 254.3125 124.863281 253.875 120.925781 253.625 111.613281 C 253.5625 108.800781 253.8125 106.675781 255.125 104.425781 C 256.5 102.113281 258.875 100.425781 261.5625 100.425781 C 262.6875 100.425781 263.625 100.613281 264.5625 101.175781 C 266.4375 102.175781 267.3125 104.238281 267.3125 106.300781 Z M 265.9375 106.363281 "/>
<path style="fill-rule:nonzero;fill:rgb(61.960787%,32.941177%,3.921569%);fill-opacity:1;stroke-width:2.2;stroke-linecap:round;stroke-linejoin:round;stroke:rgb(0%,0%,0%);stroke-opacity:1;stroke-miterlimit:4;" d="M -19 187.012451 C -19 187.012451 -47 237.012451 -68 273.012451 C -89 309.012451 -106 317.012451 -122 306.012451 C -137 295.012451 -124 266.012451 -112 252.012451 C -100 238.012451 -33 173.012451 -33 173.012451 Z M -19 187.012451 " transform="matrix(0.0625,0,0,0.0625,267.5,124.800003)"/>
<path style="fill-rule:nonzero;fill:rgb(61.960787%,32.941177%,3.921569%);fill-opacity:1;stroke-width:2.2;stroke-linecap:round;stroke-linejoin:round;stroke:rgb(0%,0%,0%);stroke-opacity:1;stroke-miterlimit:4;" d="M -12 191.012451 C -12 191.012451 -23 248.012451 -32 289.012451 C -40 330.012451 -54 344.012451 -71 339.012451 C -89 335.012451 -86 302.012451 -79 285.012451 C -72 268.012451 -30 182.012451 -30 182.012451 Z M -12 191.012451 " transform="matrix(0.0625,0,0,0.0625,267.5,124.800003)"/>
<path style="fill-rule:nonzero;fill:rgb(61.960787%,32.941177%,3.921569%);fill-opacity:1;stroke-width:2.2;stroke-linecap:round;stroke-linejoin:round;stroke:rgb(0%,0%,0%);stroke-opacity:1;stroke-miterlimit:4;" d="M 0 193.012451 L 0 293.012451 C 0 335.012451 -10 352.012451 -29 351.012451 C -47 350.012451 -51 318.012451 -47 299.012451 C -44 281.012451 -19 188.012451 -19 188.012451 Z M 0 193.012451 " transform="matrix(0.0625,0,0,0.0625,267.5,124.800003)"/>
<path style="fill-rule:nonzero;fill:rgb(61.960787%,32.941177%,3.921569%);fill-opacity:1;stroke-width:2.2;stroke-linecap:round;stroke-linejoin:round;stroke:rgb(0%,0%,0%);stroke-opacity:1;stroke-miterlimit:4;" d="M -55 -232.987549 C -55 -232.987549 -125 -291.987549 -183 -331.987549 C -241 -371.987549 -311 -420.987549 -311 -430.987549 C -300 -438.987549 -241 -400.987549 -160 -351.987549 C -78 -301.987549 -32 -252.987549 -32 -252.987549 Z M -60 -192.987549 C -60 -192.987549 -128 -233.987549 -195 -262.987549 C -265 -291.987549 -370 -291.987549 -381 -301.987549 C -381 -311.987549 -259 -317.987549 -172 -282.987549 C -83 -241.987549 -37 -212.987549 -37 -212.987549 Z M -61 -124.987549 C -61 -124.987549 -135 -158.987549 -207 -174.987549 C -277 -190.987549 -377 -184.987549 -389 -193.987549 C -389 -203.987549 -265 -223.987549 -172 -193.987549 C -78 -164.987549 -38 -144.987549 -38 -144.987549 Z M -65 -55.987549 C -65 -55.987549 -121 -93.987549 -195 -101.987549 C -265 -108.987549 -358 -55.987549 -370 -65.987549 C -370 -75.987549 -289 -134.987549 -188 -124.987549 C -89 -114.987549 -42 -75.987549 -42 -75.987549 Z M -42 -273.987549 C -42 -273.987549 -113 -338.987549 -113 -382.987549 C -113 -421.987549 -70 -481.987549 -51 -481.987549 C -61 -461.987549 -94 -421.987549 -94 -382.987549 C -94 -342.987549 -19 -293.987549 -19 -293.987549 Z M -42 -273.987549 " transform="matrix(-0.0625,0,0,0.0625,267.5,124.800003)"/>
<path style="fill-rule:nonzero;fill:rgb(61.960787%,32.941177%,3.921569%);fill-opacity:1;stroke-width:2.2;stroke-linecap:round;stroke-linejoin:round;stroke:rgb(0%,0%,0%);stroke-opacity:1;stroke-miterlimit:4;" d="M -42 -273.987549 C -42 -273.987549 -28 -338.987549 -28 -382.987549 C -28 -441.987549 -70 -495.987549 -66 -510.987549 C -51 -495.987549 -9 -451.987549 -9 -382.987549 C -9 -322.987549 -19 -293.987549 -19 -293.987549 Z M -42 -273.987549 " transform="matrix(-0.0625,0,0,0.0625,267.5,124.800003)"/>
<path style="fill-rule:nonzero;fill:rgb(61.960787%,32.941177%,3.921569%);fill-opacity:1;stroke-width:12;stroke-linecap:round;stroke-linejoin:round;stroke:rgb(98.823529%,81.960785%,8.627451%);stroke-opacity:1;stroke-miterlimit:4;" d="M -25 -294.987549 C -25 -313.987549 -32 -330.987549 -44 -343.987549 C -60 -362.987549 -84 -368.987549 -109 -364.987549 C -139 -359.987549 -163 -341.987549 -178 -313.987549 C -198 -276.987549 -200 -236.987549 -201 -197.987549 C -201 -62.987549 -196 -7.987549 -192 125.012451 C -191 164.012451 -184 244.012451 -202 307.012451 C -209 334.012451 -217 359.012451 -229 385.012451 C -221 352.012451 -217 335.012451 -213 310.012451 C -202 245.012451 -205 184.012451 -207 124.012451 C -211 1.012451 -218 -61.987549 -222 -210.987549 C -223 -255.987549 -219 -289.987549 -198 -325.987549 C -176 -362.987549 -138 -389.987549 -95 -389.987549 C -77 -389.987549 -62 -386.987549 -47 -377.987549 C -17 -361.987549 -3 -328.987549 -3 -295.987549 Z M -25 -294.987549 " transform="matrix(-0.0625,0,0,0.0625,267.5,124.800003)"/>
<path style=" stroke:none;fill-rule:nonzero;fill:rgb(61.960787%,32.941177%,3.921569%);fill-opacity:1;" d="M 269.0625 106.363281 C 269.0625 105.175781 269.5 104.113281 270.25 103.300781 C 271.25 102.113281 272.75 101.738281 274.3125 101.988281 C 276.1875 102.300781 277.6875 103.425781 278.625 105.175781 C 279.875 107.488281 280 109.988281 280.0625 112.425781 C 280.0625 120.863281 279.75 124.300781 279.5 132.613281 C 279.4375 135.050781 279 140.050781 280.125 143.988281 C 280.5625 145.675781 281.0625 147.238281 281.8125 148.863281 C 281.3125 146.800781 281.0625 145.738281 280.8125 144.175781 C 280.125 140.113281 280.3125 136.300781 280.4375 132.550781 C 280.6875 124.863281 281.125 120.925781 281.375 111.613281 C 281.4375 108.800781 281.1875 106.675781 279.875 104.425781 C 278.5 102.113281 276.125 100.425781 273.4375 100.425781 C 272.3125 100.425781 271.375 100.613281 270.4375 101.175781 C 268.5625 102.175781 267.6875 104.238281 267.6875 106.300781 Z M 269.0625 106.363281 "/>
<path style="fill-rule:nonzero;fill:rgb(61.960787%,32.941177%,3.921569%);fill-opacity:1;stroke-width:2.2;stroke-linecap:round;stroke-linejoin:round;stroke:rgb(0%,0%,0%);stroke-opacity:1;stroke-miterlimit:4;" d="M -19 187.012451 C -19 187.012451 -47 237.012451 -68 273.012451 C -89 309.012451 -106 317.012451 -122 306.012451 C -137 295.012451 -124 266.012451 -112 252.012451 C -100 238.012451 -33 173.012451 -33 173.012451 Z M -19 187.012451 " transform="matrix(-0.0625,0,0,0.0625,267.5,124.800003)"/>
<path style="fill-rule:nonzero;fill:rgb(61.960787%,32.941177%,3.921569%);fill-opacity:1;stroke-width:2.2;stroke-linecap:round;stroke-linejoin:round;stroke:rgb(0%,0%,0%);stroke-opacity:1;stroke-miterlimit:4;" d="M -12 191.012451 C -12 191.012451 -23 248.012451 -32 289.012451 C -40 330.012451 -54 344.012451 -71 339.012451 C -89 335.012451 -86 302.012451 -79 285.012451 C -72 268.012451 -30 182.012451 -30 182.012451 Z M -12 191.012451 " transform="matrix(-0.0625,0,0,0.0625,267.5,124.800003)"/>
<path style="fill-rule:nonzero;fill:rgb(61.960787%,32.941177%,3.921569%);fill-opacity:1;stroke-width:2.2;stroke-linecap:round;stroke-linejoin:round;stroke:rgb(0%,0%,0%);stroke-opacity:1;stroke-miterlimit:4;" d="M 0 193.012451 L 0 293.012451 C 0 335.012451 -10 352.012451 -29 351.012451 C -47 350.012451 -51 318.012451 -47 299.012451 C -44 281.012451 -19 188.012451 -19 188.012451 Z M 0 193.012451 " transform="matrix(-0.0625,0,0,0.0625,267.5,124.800003)"/>
<path style="fill-rule:nonzero;fill:rgb(61.960787%,32.941177%,3.921569%);fill-opacity:1;stroke-width:2.2;stroke-linecap:round;stroke-linejoin:round;stroke:rgb(0%,0%,0%);stroke-opacity:1;stroke-miterlimit:4;" d="M 0 192.012451 C -53 191.012451 -58 172.012451 -58 172.012451 C -58 172.012451 -65 148.012451 -66 133.012451 C -67 131.012451 -81 101.012451 -77 88.012451 C -82 76.012451 -94 47.012451 -83 42.012451 C -88 28.012451 -96 12.012451 -97 -2.987549 C -101 -13.987549 -111 -37.987549 -103 -45.987549 C -103 -45.987549 -122 -85.987549 -113 -95.987549 C -113 -95.987549 -122 -134.987549 -113 -144.987549 C -113 -144.987549 -113 -184.987549 -103 -194.987549 C -103 -194.987549 -103 -233.987549 -94 -243.987549 C -94 -241.987549 -66 -298.987549 0 -298.987549 L -1 -213.987549 L 0 -213.987549 Z M 0 192.012451 " transform="matrix(0.0625,0,0,0.0625,267.5,124.800003)"/>
<path style="fill:none;stroke-width:2.2;stroke-linecap:round;stroke-linejoin:round;stroke:rgb(0%,0%,0%);stroke-opacity:1;stroke-miterlimit:4;" d="M 0 -25.987549 C -85 -26.987549 -103 -45.987549 -103 -45.987549 M 0 -75.987549 C -85 -75.987549 -113 -95.987549 -113 -95.987549 M 0 -124.987549 C -85 -125.987549 -113 -144.987549 -113 -144.987549 M 0 -174.987549 C -85 -175.987549 -103 -194.987549 -103 -194.987549 M -1 -213.987549 C 0 -213.987549 -65 -213.987549 -75 -223.987549 L -94 -242.987549 M 0 152.012451 C -25 152.012451 -53 148.012451 -66 133.012451 M 0 112.012451 C -47 112.012451 -75 93.012451 -75 93.012451 C -75 93.012451 -76 91.012451 -77 88.012451 M 0 63.012451 C -62 62.012451 -79 49.012451 -83 42.012451 M 0 23.012451 C -85 23.012451 -94 3.012451 -94 3.012451 L -97 -2.987549 " transform="matrix(0.0625,0,0,0.0625,267.5,124.800003)"/>
<path style="fill-rule:nonzero;fill:rgb(61.960787%,32.941177%,3.921569%);fill-opacity:1;stroke-width:2.2;stroke-linecap:round;stroke-linejoin:round;stroke:rgb(0%,0%,0%);stroke-opacity:1;stroke-miterlimit:4;" d="M 0 192.012451 C -53 191.012451 -58 172.012451 -58 172.012451 C -58 172.012451 -65 148.012451 -66 133.012451 C -67 131.012451 -81 101.012451 -77 88.012451 C -82 76.012451 -94 47.012451 -83 42.012451 C -88 28.012451 -96 12.012451 -97 -2.987549 C -101 -13.987549 -111 -37.987549 -103 -45.987549 C -103 -45.987549 -122 -85.987549 -113 -95.987549 C -113 -95.987549 -122 -134.987549 -113 -144.987549 C -113 -144.987549 -113 -184.987549 -103 -194.987549 C -103 -194.987549 -103 -233.987549 -94 -243.987549 C -94 -241.987549 -66 -298.987549 0 -298.987549 L -1 -213.987549 L 0 -213.987549 Z M 0 192.012451 " transform="matrix(-0.0625,0,0,0.0625,267.5,124.800003)"/>
<path style="fill:none;stroke-width:2.2;stroke-linecap:round;stroke-linejoin:round;stroke:rgb(0%,0%,0%);stroke-opacity:1;stroke-miterlimit:4;" d="M 0 -25.987549 C -85 -26.987549 -103 -45.987549 -103 -45.987549 M 0 -75.987549 C -85 -75.987549 -113 -95.987549 -113 -95.987549 M 0 -124.987549 C -85 -125.987549 -113 -144.987549 -113 -144.987549 M 0 -174.987549 C -85 -175.987549 -103 -194.987549 -103 -194.987549 M -1 -213.987549 C 0 -213.987549 -65 -213.987549 -75 -223.987549 L -94 -242.987549 M 0 152.012451 C -25 152.012451 -53 148.012451 -66 133.012451 M 0 112.012451 C -47 112.012451 -75 93.012451 -75 93.012451 C -75 93.012451 -76 91.012451 -77 88.012451 M 0 63.012451 C -62 62.012451 -79 49.012451 -83 42.012451 M 0 23.012451 C -85 23.012451 -94 3.012451 -94 3.012451 L -97 -2.987549 " transform="matrix(-0.0625,0,0,0.0625,267.5,124.800003)"/>
<path style="fill-rule:nonzero;fill:rgb(0%,61.960787%,28.627452%);fill-opacity:1;stroke-width:2.2;stroke-linecap:round;stroke-linejoin:round;stroke:rgb(0%,0%,0%);stroke-opacity:1;stroke-miterlimit:4;" d="M 0 712.012451 C -43 752.012451 -126 726.012451 -152 708.012451 C -179 717.012451 -251 689.012451 -270 658.012451 C -322 665.012451 -340 591.012451 -331 572.012451 C -317 544.012451 -342 526.012451 -324 507.012451 C -299 483.012451 -338 460.012451 -314 444.012451 C -290 427.012451 -320 399.012451 -296 381.012451 C -271 362.012451 -309 336.012451 -283 323.012451 C -257 310.012451 -286 276.012451 -264 263.012451 C -242 250.012451 -277 217.012451 -247 202.012451 C -218 187.012451 -244 161.012451 -221 150.012451 C -196 137.012451 -219 110.012451 -196 101.012451 C -170 90.012451 -189 61.012451 -167 53.012451 C -148 46.012451 -160 28.012451 -148 12.012451 L 0 12.012451 " transform="matrix(0.0625,0,0,0.0625,242.5,149.800003)"/>
<path style="fill:none;stroke-width:2.2;stroke-linecap:round;stroke-linejoin:round;stroke:rgb(0%,0%,0%);stroke-opacity:1;stroke-miterlimit:4;" d="M -99 18.012451 C -119 38.012451 -95 53.012451 -115 77.012451 C -136 102.012451 -117 115.012451 -134 137.012451 C -151 159.012451 -126 170.012451 -145 195.012451 C -164 219.012451 -141 234.012451 -162 254.012451 C -182 275.012451 -158 293.012451 -179 315.012451 C -199 338.012451 -175 353.012451 -195 373.012451 C -216 394.012451 -192 416.012451 -212 436.012451 C -232 457.012451 -208 483.012451 -231 507.012451 C -253 531.012451 -227 550.012451 -245 568.012451 C -264 587.012451 -247 606.012451 -260 619.012451 C -273 632.012451 -275 650.012451 -270 658.012451 M -60 25.012451 C -78 50.012451 -50 61.012451 -67 81.012451 C -84 102.012451 -60 109.012451 -73 133.012451 C -86 157.012451 -63 163.012451 -80 187.012451 C -97 211.012451 -71 230.012451 -89 254.012451 C -108 278.012451 -80 291.012451 -97 315.012451 C -113 340.012451 -89 353.012451 -104 371.012451 C -119 390.012451 -93 408.012451 -112 431.012451 C -130 453.012451 -104 470.012451 -119 490.012451 C -134 511.012451 -113 533.012451 -126 550.012451 C -139 566.012451 -117 591.012451 -136 613.012451 C -154 635.012451 -132 650.012451 -143 665.012451 C -154 680.012451 -163 702.012451 -152 708.012451 " transform="matrix(0.0625,0,0,0.0625,242.5,149.800003)"/>
<path style="fill-rule:nonzero;fill:rgb(0%,61.960787%,28.627452%);fill-opacity:1;stroke-width:2.2;stroke-linecap:round;stroke-linejoin:round;stroke:rgb(0%,0%,0%);stroke-opacity:1;stroke-miterlimit:4;" d="M 0 712.012451 C -43 752.012451 -126 726.012451 -152 708.012451 C -179 717.012451 -251 689.012451 -270 658.012451 C -322 665.012451 -340 591.012451 -331 572.012451 C -317 544.012451 -342 526.012451 -324 507.012451 C -299 483.012451 -338 460.012451 -314 444.012451 C -290 427.012451 -320 399.012451 -296 381.012451 C -271 362.012451 -309 336.012451 -283 323.012451 C -257 310.012451 -286 276.012451 -264 263.012451 C -242 250.012451 -277 217.012451 -247 202.012451 C -218 187.012451 -244 161.012451 -221 150.012451 C -196 137.012451 -219 110.012451 -196 101.012451 C -170 90.012451 -189 61.012451 -167 53.012451 C -148 46.012451 -160 28.012451 -148 12.012451 L 0 12.012451 " transform="matrix(-0.0625,0,0,0.0625,242.5,149.800003)"/>
<path style="fill:none;stroke-width:2.2;stroke-linecap:round;stroke-linejoin:round;stroke:rgb(0%,0%,0%);stroke-opacity:1;stroke-miterlimit:4;" d="M -99 18.012451 C -119 38.012451 -95 53.012451 -115 77.012451 C -136 102.012451 -117 115.012451 -134 137.012451 C -151 159.012451 -126 170.012451 -145 195.012451 C -164 219.012451 -141 234.012451 -162 254.012451 C -182 275.012451 -158 293.012451 -179 315.012451 C -199 338.012451 -175 353.012451 -195 373.012451 C -216 394.012451 -192 416.012451 -212 436.012451 C -232 457.012451 -208 483.012451 -231 507.012451 C -253 531.012451 -227 550.012451 -245 568.012451 C -264 587.012451 -247 606.012451 -260 619.012451 C -273 632.012451 -275 650.012451 -270 658.012451 M -60 25.012451 C -78 50.012451 -50 61.012451 -67 81.012451 C -84 102.012451 -60 109.012451 -73 133.012451 C -86 157.012451 -63 163.012451 -80 187.012451 C -97 211.012451 -71 230.012451 -89 254.012451 C -108 278.012451 -80 291.012451 -97 315.012451 C -113 340.012451 -89 353.012451 -104 371.012451 C -119 390.012451 -93 408.012451 -112 431.012451 C -130 453.012451 -104 470.012451 -119 490.012451 C -134 511.012451 -113 533.012451 -126 550.012451 C -139 566.012451 -117 591.012451 -136 613.012451 C -154 635.012451 -132 650.012451 -143 665.012451 C -154 680.012451 -163 702.012451 -152 708.012451 " transform="matrix(-0.0625,0,0,0.0625,242.5,149.800003)"/>
<path style="fill:none;stroke-width:2.2;stroke-linecap:round;stroke-linejoin:round;stroke:rgb(0%,61.960787%,28.627452%);stroke-opacity:1;stroke-miterlimit:4;" d="M 0 712.012451 L 0 12.012451 " transform="matrix(0.0625,0,0,0.0625,242.5,149.800003)"/>
<path style="fill:none;stroke-width:2.2;stroke-linecap:round;stroke-linejoin:round;stroke:rgb(0%,0%,0%);stroke-opacity:1;stroke-miterlimit:4;" d="M 0 48.012451 C -9 87.012451 13 121.012451 0 154.012451 C -13 186.012451 9 199.012451 2 225.012451 C -6 251.012451 11 270.012451 0 298.012451 C -11 326.012451 15 348.012451 0 385.012451 C -15 421.012451 10 430.012451 0 467.012451 C -11 509.012451 19 531.012451 0 561.012451 C -19 591.012451 17 598.012451 2 632.012451 C -13 665.012451 11 678.012451 0 712.012451 " transform="matrix(0.0625,0,0,0.0625,242.5,149.800003)"/>
<path style="fill-rule:nonzero;fill:rgb(98.823529%,81.960785%,8.627451%);fill-opacity:1;stroke-width:2.2;stroke-linecap:round;stroke-linejoin:round;stroke:rgb(0%,0%,0%);stroke-opacity:1;stroke-miterlimit:4;" d="M 15 174.012451 C 10 185.012451 30 211.012451 19 231.012451 C 7 250.012451 25 280.012451 13 304.012451 C 1 328.012451 32 358.012451 20 386.012451 C 7 414.012451 26 449.012451 20 475.012451 C 15 501.012451 33 551.012451 20 569.012451 C 7 588.012451 33 593.012451 18 639.012451 C 3 685.012451 -7 646.012451 2 632.012451 C 21 601.012451 -19 591.012451 0 561.012451 C 19 531.012451 -11 509.012451 0 467.012451 C 10 430.012451 -15 421.012451 0 385.012451 C 15 348.012451 -11 326.012451 0 298.012451 C 11 270.012451 -6 251.012451 2 225.012451 C 9 199.012451 -13 186.012451 0 154.012451 C 10 122.012451 20 163.012451 15 174.012451 M -69 206.012451 C -76 218.012451 -57 241.012451 -74 264.012451 C -86 280.012451 -66 299.012451 -83 322.012451 C -94 338.012451 -72 358.012451 -87 381.012451 C -97 394.012451 -80 419.012451 -92 438.012451 C -104 458.012451 -86 474.012451 -107 500.012451 C -119 514.012451 -98 549.012451 -111 560.012451 C -124 571.012451 -112 614.012451 -121 620.012451 C -129 627.012451 -121 658.012451 -143 665.012451 C -132 650.012451 -154 635.012451 -136 613.012451 C -117 591.012451 -139 566.012451 -126 550.012451 C -113 533.012451 -134 511.012451 -119 490.012451 C -104 470.012451 -130 453.012451 -112 431.012451 C -93 408.012451 -119 390.012451 -104 371.012451 C -89 353.012451 -113 340.012451 -97 315.012451 C -80 291.012451 -108 278.012451 -89 254.012451 C -71 230.012451 -97 211.012451 -80 187.012451 C -63 163.012451 -86 157.012451 -73 133.012451 C -49 142.012451 -61 194.012451 -69 206.012451 M -119 141.012451 C -129 157.012451 -115 176.012451 -130 196.012451 C -145 217.012451 -130 243.012451 -145 260.012451 C -160 276.012451 -141 308.012451 -160 321.012451 C -179 334.012451 -167 373.012451 -182 386.012451 C -197 399.012451 -182 436.012451 -199 455.012451 C -216 474.012451 -208 513.012451 -218 522.012451 C -227 531.012451 -205 550.012451 -221 563.012451 C -238 576.012451 -238 602.012451 -260 619.012451 C -247 606.012451 -264 587.012451 -245 568.012451 C -227 550.012451 -253 531.012451 -231 507.012451 C -208 483.012451 -232 457.012451 -212 436.012451 C -192 416.012451 -216 394.012451 -195 373.012451 C -175 353.012451 -199 338.012451 -179 315.012451 C -158 293.012451 -182 275.012451 -162 254.012451 C -141 234.012451 -164 219.012451 -145 195.012451 C -126 170.012451 -151 159.012451 -134 137.012451 C -126 127.012451 -126 118.012451 -126 110.012451 C -114 79.012451 -114 133.012451 -119 141.012451 " transform="matrix(0.0625,0,0,0.0625,242.5,149.800003)"/>
<path style="fill-rule:nonzero;fill:rgb(80.784315%,6.666667%,14.901961%);fill-opacity:1;stroke-width:2.2;stroke-linecap:round;stroke-linejoin:round;stroke:rgb(0%,0%,0%);stroke-opacity:1;stroke-miterlimit:4;" d="M -139 35.012451 C -139 -174.987549 -110 -247.987549 0 -247.987549 C 110 -247.987549 139 -174.987549 139 35.012451 Z M -139 35.012451 " transform="matrix(0.0625,0,0,0.0625,242.5,149.800003)"/>
<path style="fill-rule:nonzero;fill:rgb(0%,0%,0.392157%);fill-opacity:1;stroke-width:2.2;stroke-linecap:round;stroke-linejoin:round;stroke:rgb(0%,0%,0%);stroke-opacity:1;stroke-miterlimit:4;" d="M -139 35.012451 C -139 -174.987549 -110 -247.987549 0 -247.987549 C -50 -247.987549 -81 -208.987549 -89 -182.987549 C -98 -156.987549 -93 -158.987549 -82 -168.987549 C -71 -178.987549 -76 -156.987549 -86 -144.987549 C -95 -132.987549 -104 -97.987549 -91 -108.987549 C -78 -120.987549 -68 -107.987549 -82 -87.987549 C -96 -68.987549 -108 -22.987549 -94 -38.987549 C -80 -54.987549 -77 -28.987549 -86 -15.987549 C -94 -2.987549 -93 9.012451 -86 3.012451 C -78 -2.987549 -79 24.012451 -86 35.012451 Z M 52 31.012451 C 52 0.0124512 53 -72.987549 36 -96.987549 C 24 -115.987549 24 -135.987549 38 -113.987549 C 52 -91.987549 59 -102.987549 49 -124.987549 C 37 -152.987549 21 -183.987549 25 -189.987549 C 30 -196.987549 33 -193.987549 43 -178.987549 C 53 -163.987549 55 -185.987549 44 -200.987549 C 33 -214.987549 34 -217.987549 57 -207.987549 C 98 -190.987549 118 -141.987549 118 23.012451 Z M 52 31.012451 " transform="matrix(0.0625,0,0,0.0625,242.5,149.800003)"/>
<path style="fill-rule:nonzero;fill:rgb(80.784315%,6.666667%,14.901961%);fill-opacity:1;stroke-width:2.2;stroke-linecap:round;stroke-linejoin:round;stroke:rgb(0%,0%,0%);stroke-opacity:1;stroke-miterlimit:4;" d="M 0 65.012451 C -44 65.012451 -92 58.012451 -124 45.012451 C -162 30.012451 -164 17.012451 -151 1.012451 C -141 -10.987549 -121 -3.987549 -101 5.012451 C -82 13.012451 -28 19.012451 0 19.012451 C 28 19.012451 82 13.012451 101 4.012451 C 121 -3.987549 141 -10.987549 151 1.012451 C 164 17.012451 162 30.012451 124 45.012451 C 92 58.012451 44 65.012451 0 65.012451 " transform="matrix(0.0625,0,0,0.0625,242.5,149.800003)"/>
<path style=" stroke:none;fill-rule:nonzero;fill:rgb(0.392157%,12.941177%,41.176471%);fill-opacity:1;" d="M 0 0 L 160 0 L 160 120 L 0 120 Z M 0 0 "/>
<path style=" stroke:none;fill-rule:nonzero;fill:rgb(100%,100%,100%);fill-opacity:1;" d="M 18.75 0 L 79.75 45.25 L 140.5 0 L 160 0 L 160 15.5 L 100 60.25 L 160 104.75 L 160 120 L 140 120 L 80 75.25 L 20.25 120 L 0 120 L 0 105 L 59.75 60.5 L 0 16 L 0 0 Z M 18.75 0 "/>
<path style=" stroke:none;fill-rule:nonzero;fill:rgb(78.431374%,6.27451%,18.039216%);fill-opacity:1;" d="M 106 70.25 L 160 110 L 160 120 L 92.25 70.25 Z M 60 75.25 L 61.5 84 L 13.5 120 L 0 120 Z M 160 0 L 160 0.75 L 97.75 47.75 L 98.25 36.75 L 147.5 0 Z M 0 0 L 59.75 44 L 44.75 44 L 0 10.5 Z M 0 0 "/>
<path style=" stroke:none;fill-rule:nonzero;fill:rgb(100%,100%,100%);fill-opacity:1;" d="M 60.25 0 L 60.25 120 L 100.25 120 L 100.25 0 Z M 0 40 L 0 80 L 160 80 L 160 40 Z M 0 40 "/>
<path style=" stroke:none;fill-rule:nonzero;fill:rgb(78.431374%,6.27451%,18.039216%);fill-opacity:1;" d="M 0 48.25 L 0 72.25 L 160 72.25 L 160 48.25 Z M 68.25 0 L 68.25 120 L 92.25 120 L 92.25 0 Z M 68.25 0 "/>
</g>
</svg>
