<?xml version="1.0" encoding="UTF-8"?>
<svg xmlns="http://www.w3.org/2000/svg" xmlns:xlink="http://www.w3.org/1999/xlink" width="px" height="px" viewBox="0 0 320 240" version="1.1">
<g id="surface1">
<rect x="0" y="0" width="320" height="240" style="fill:rgb(0%,40.000001%,0%);fill-opacity:1;stroke:none;"/>
<path style=" stroke:none;fill-rule:nonzero;fill:rgb(100%,100%,100%);fill-opacity:1;" d="M 0 0 L 320 0 L 320 171.449219 L 0 171.449219 Z M 0 0 "/>
<path style=" stroke:none;fill-rule:nonzero;fill:rgb(80.000001%,0%,0%);fill-opacity:1;" d="M 0 0 L 320 0 L 320 68.550781 L 0 68.550781 Z M 0 0 "/>
<path style=" stroke:none;fill-rule:nonzero;fill:rgb(97.254902%,76.47059%,0%);fill-opacity:1;" d="M 150.398438 116.800781 C 151.367188 115.160156 153.300781 114.351562 155.148438 114.8125 C 156.996094 115.273438 158.320312 116.898438 158.398438 118.800781 L 158.398438 136 L 161.601562 136 L 161.601562 118.851562 C 161.679688 116.945312 163.003906 115.324219 164.851562 114.863281 C 166.699219 114.402344 168.632812 115.210938 169.601562 116.851562 C 170.960938 112.6875 169.484375 108.121094 165.941406 105.542969 C 162.398438 102.96875 157.601562 102.96875 154.058594 105.542969 C 150.515625 108.121094 149.039062 112.6875 150.398438 116.851562 "/>
<path style=" stroke:none;fill-rule:nonzero;fill:rgb(100%,100%,100%);fill-opacity:1;" d="M 152.699219 112.351562 C 155.574219 111.800781 158.484375 113.097656 160 115.601562 C 161.515625 113.097656 164.425781 111.800781 167.300781 112.351562 C 166.867188 108.648438 163.726562 105.855469 160 105.855469 C 156.273438 105.855469 153.132812 108.648438 152.699219 112.351562 "/>
<path style=" stroke:none;fill-rule:nonzero;fill:rgb(97.254902%,76.47059%,0%);fill-opacity:1;" d="M 158.398438 129.148438 C 157.964844 134.121094 154.722656 138.40625 150.054688 140.175781 C 145.390625 141.945312 140.121094 140.886719 136.5 137.449219 C 134.976562 141.339844 131.734375 144.308594 127.722656 145.480469 C 123.710938 146.65625 119.382812 145.90625 116 143.449219 C 117.25 155.949219 136 153.398438 137.398438 141.25 C 143.25 151.601562 156.199219 148.601562 160 135.949219 Z M 158.398438 129.148438 "/>
<path style=" stroke:none;fill-rule:nonzero;fill:rgb(97.254902%,76.47059%,0%);fill-opacity:1;" d="M 161.601562 129.148438 C 162.035156 134.121094 165.277344 138.40625 169.945312 140.175781 C 174.609375 141.945312 179.878906 140.886719 183.5 137.449219 C 185.023438 141.339844 188.265625 144.308594 192.277344 145.480469 C 196.289062 146.65625 200.617188 145.90625 204 143.449219 C 202.75 155.949219 184 153.398438 182.601562 141.25 C 176.75 151.601562 163.800781 148.601562 160 135.949219 Z M 161.601562 129.148438 "/>
<path style=" stroke:none;fill-rule:nonzero;fill:rgb(97.254902%,76.47059%,0%);fill-opacity:1;" d="M 145.898438 151.300781 C 143.25 156.949219 138.050781 157.898438 133.5 153.351562 C 133.5 153.351562 135.300781 152.050781 137.300781 151.699219 C 136.898438 150.148438 137.648438 147.949219 138.75 146.800781 C 140.207031 147.753906 141.285156 149.1875 141.800781 150.851562 C 144.550781 150.5 145.898438 151.351562 145.898438 151.351562 Z M 145.898438 151.300781 "/>
<path style=" stroke:none;fill-rule:nonzero;fill:rgb(97.254902%,76.47059%,0%);fill-opacity:1;" d="M 166.398438 150.667969 C 162.863281 155.808594 157.578125 155.894531 153.832031 150.664062 C 153.832031 150.664062 155.820312 149.675781 157.847656 149.65625 C 157.707031 148.0625 158.808594 146.015625 160.078125 145.058594 C 161.359375 146.238281 162.191406 147.828125 162.425781 149.554688 C 165.199219 149.65625 166.390625 150.714844 166.390625 150.714844 Z M 166.398438 150.667969 "/>
<path style=" stroke:none;fill-rule:nonzero;fill:rgb(97.254902%,76.47059%,0%);fill-opacity:1;" d="M 186.511719 153.34375 C 182.191406 157.847656 176.960938 157.078125 174.109375 151.308594 C 174.109375 151.308594 176.230469 150.65625 178.238281 150.964844 C 178.355469 149.367188 179.773438 147.527344 181.183594 146.789062 C 182.253906 148.160156 182.816406 149.863281 182.773438 151.601562 C 185.492188 152.152344 186.496094 153.390625 186.496094 153.390625 Z M 186.511719 153.34375 "/>
<path style="fill:none;stroke-width:11;stroke-linecap:butt;stroke-linejoin:miter;stroke:rgb(97.254902%,76.47059%,0%);stroke-opacity:1;stroke-miterlimit:4;" d="M 253.5 327.796875 C 296.890625 314.875 343.109375 314.875 386.5 327.796875 " transform="matrix(0.5,0,0,0.5,0,0)"/>
<path style=" stroke:none;fill-rule:nonzero;fill:rgb(97.254902%,76.47059%,0%);fill-opacity:1;" d="M 165.175781 89.425781 L 151.625 79.578125 L 168.375 79.578125 L 154.824219 89.425781 L 160 73.496094 Z M 165.175781 89.425781 "/>
<path style=" stroke:none;fill-rule:nonzero;fill:rgb(97.254902%,76.47059%,0%);fill-opacity:1;" d="M 141.175781 95.871094 L 127.625 86.023438 L 144.375 86.023438 L 130.824219 95.871094 L 136 79.941406 Z M 141.175781 95.871094 "/>
<path style=" stroke:none;fill-rule:nonzero;fill:rgb(97.254902%,76.47059%,0%);fill-opacity:1;" d="M 123.621094 113.425781 L 110.070312 103.578125 L 126.820312 103.578125 L 113.269531 113.425781 L 118.445312 97.496094 Z M 123.621094 113.425781 "/>
<path style=" stroke:none;fill-rule:nonzero;fill:rgb(97.254902%,76.47059%,0%);fill-opacity:1;" d="M 117.175781 137.425781 L 103.625 127.578125 L 120.375 127.578125 L 106.824219 137.425781 L 112 121.496094 Z M 117.175781 137.425781 "/>
<path style=" stroke:none;fill-rule:nonzero;fill:rgb(97.254902%,76.47059%,0%);fill-opacity:1;" d="M 178.824219 95.871094 L 192.375 86.023438 L 175.625 86.023438 L 189.175781 95.871094 L 184 79.941406 Z M 178.824219 95.871094 "/>
<path style=" stroke:none;fill-rule:nonzero;fill:rgb(97.254902%,76.47059%,0%);fill-opacity:1;" d="M 196.378906 113.425781 L 209.929688 103.578125 L 193.179688 103.578125 L 206.730469 113.425781 L 201.554688 97.496094 Z M 196.378906 113.425781 "/>
<path style=" stroke:none;fill-rule:nonzero;fill:rgb(97.254902%,76.47059%,0%);fill-opacity:1;" d="M 202.824219 137.425781 L 216.375 127.578125 L 199.625 127.578125 L 213.175781 137.425781 L 208 121.496094 Z M 202.824219 137.425781 "/>
</g>
</svg>
