<?xml version="1.0" encoding="UTF-8"?>
<svg xmlns="http://www.w3.org/2000/svg" xmlns:xlink="http://www.w3.org/1999/xlink" width="px" height="px" viewBox="0 0 320 240" version="1.1">
<g id="surface1">
<rect x="0" y="0" width="320" height="240" style="fill:rgb(90.588236%,0%,7.450981%);fill-opacity:1;stroke:none;"/>
<path style=" stroke:none;fill-rule:nonzero;fill:rgb(100%,100%,100%);fill-opacity:1;" d="M 160 59.601562 C 126.820312 59.460938 99.8125 86.246094 99.675781 119.425781 C 99.535156 152.601562 126.320312 179.613281 159.5 179.75 C 192.679688 179.886719 219.6875 153.101562 219.824219 119.925781 C 219.964844 86.746094 193.179688 59.738281 160 59.601562 M 196 146.5 C 184.453125 162.121094 164.183594 168.570312 145.730469 162.488281 C 127.28125 156.410156 114.8125 139.175781 114.8125 119.75 C 114.8125 100.324219 127.28125 83.089844 145.730469 77.011719 C 164.183594 70.929688 184.453125 77.378906 196 93 C 181.589844 80.019531 159.484375 80.789062 146.011719 94.742188 C 132.539062 108.691406 132.539062 130.808594 146.011719 144.757812 C 159.484375 158.710938 181.589844 159.480469 196 146.5 M 193.648438 135.648438 L 174.949219 129.601562 L 163.398438 145.5 L 163.398438 125.851562 L 144.699219 119.75 L 163.398438 113.648438 L 163.398438 94 L 174.949219 109.898438 L 193.648438 103.851562 L 182.101562 119.75 Z M 193.648438 135.648438 "/>
</g>
</svg>
