<?xml version="1.0" encoding="UTF-8"?>
<svg xmlns="http://www.w3.org/2000/svg" xmlns:xlink="http://www.w3.org/1999/xlink" width="px" height="px" viewBox="0 0 320 240" version="1.1">
<g id="surface1">
<rect x="0" y="0" width="320" height="240" style="fill:rgb(0%,62.352943%,79.215688%);fill-opacity:1;stroke:none;"/>
<path style=" stroke:none;fill-rule:evenodd;fill:rgb(100%,95.686275%,5.098039%);fill-opacity:1;" d="M 296.648438 61.351562 L 310.5 61.351562 L 299.351562 68.949219 L 303.601562 81.300781 L 292.449219 73.648438 L 281.351562 81.300781 L 285.601562 68.949219 L 274.449219 61.351562 L 288.199219 61.351562 L 292.449219 49 Z M 262.050781 159.75 L 275.851562 159.75 L 264.699219 167.351562 L 268.949219 179.699219 L 257.800781 172.050781 L 246.648438 179.699219 L 250.949219 167.351562 L 239.800781 159.75 L 253.5 159.75 L 257.75 147.398438 Z M 296.648438 137.449219 L 310.5 137.449219 L 299.351562 145.050781 L 303.601562 157.398438 L 292.449219 149.75 L 281.351562 157.398438 L 285.601562 145.050781 L 274.449219 137.449219 L 288.199219 137.449219 L 292.449219 125.101562 Z M 147.898438 208.851562 L 161.699219 208.851562 L 150.5 216.398438 L 154.800781 228.699219 L 143.648438 221.101562 L 132.5 228.699219 L 136.800781 216.398438 L 125.601562 208.75 L 139.398438 208.75 L 143.648438 196.449219 Z M 179.199219 170.601562 L 165.398438 170.601562 L 176.550781 162.949219 L 172.300781 150.648438 L 183.449219 158.25 L 194.601562 150.648438 L 190.300781 162.949219 L 201.449219 170.601562 L 187.699219 170.601562 L 183.449219 182.898438 Z M 219.851562 114.351562 L 206 114.351562 L 217.148438 106.75 L 212.898438 94.398438 L 224.050781 102.050781 L 235.199219 94.398438 L 230.898438 106.75 L 242.050781 114.351562 L 228.300781 114.351562 L 224.050781 126.699219 Z M 254 102.699219 L 240.199219 102.699219 L 251.398438 95.050781 L 247.101562 82.75 L 258.25 90.351562 L 269.398438 82.75 L 265.101562 95.050781 L 276.300781 102.699219 L 262.5 102.699219 L 258.25 115 Z M 219.851562 200 L 206 200 L 217.148438 192.398438 L 213 180 L 224.148438 187.601562 L 235.300781 180 L 231 192.351562 L 242.148438 199.949219 L 228.398438 199.949219 L 224.148438 212.300781 Z M 179.199219 209.949219 L 165.398438 209.949219 L 176.550781 202.351562 L 172.300781 190 L 183.449219 197.601562 L 194.601562 190 L 190.300781 202.300781 L 201.5 210 L 187.75 210 L 183.5 222.351562 Z M 179.199219 209.949219 "/>
<path style=" stroke:none;fill-rule:nonzero;fill:rgb(0.392157%,12.941177%,41.176471%);fill-opacity:1;" d="M 0 0 L 160 0 L 160 120 L 0 120 Z M 0 0 "/>
<path style=" stroke:none;fill-rule:nonzero;fill:rgb(100%,100%,100%);fill-opacity:1;" d="M 18.75 0 L 79.75 45.25 L 140.5 0 L 160 0 L 160 15.5 L 100 60.25 L 160 104.75 L 160 120 L 140 120 L 80 75.25 L 20.25 120 L 0 120 L 0 105 L 59.75 60.5 L 0 16 L 0 0 Z M 18.75 0 "/>
<path style=" stroke:none;fill-rule:nonzero;fill:rgb(78.431374%,6.27451%,18.039216%);fill-opacity:1;" d="M 106 70.25 L 160 110 L 160 120 L 92.25 70.25 Z M 60 75.25 L 61.5 84 L 13.5 120 L 0 120 Z M 160 0 L 160 0.75 L 97.75 47.75 L 98.25 36.75 L 147.5 0 Z M 0 0 L 59.75 44 L 44.75 44 L 0 10.5 Z M 0 0 "/>
<path style=" stroke:none;fill-rule:nonzero;fill:rgb(100%,100%,100%);fill-opacity:1;" d="M 60.25 0 L 60.25 120 L 100.25 120 L 100.25 0 Z M 0 40 L 0 80 L 160 80 L 160 40 Z M 0 40 "/>
<path style=" stroke:none;fill-rule:nonzero;fill:rgb(78.431374%,6.27451%,18.039216%);fill-opacity:1;" d="M 0 48.25 L 0 72.25 L 160 72.25 L 160 48.25 Z M 68.25 0 L 68.25 120 L 92.25 120 L 92.25 0 Z M 68.25 0 "/>
</g>
</svg>
