<?xml version="1.0" encoding="UTF-8"?>
<svg xmlns="http://www.w3.org/2000/svg" xmlns:xlink="http://www.w3.org/1999/xlink" width="px" height="px" viewBox="0 0 320 240" version="1.1">
<g id="surface1">
<rect x="0" y="0" width="320" height="240" style="fill:rgb(100%,0%,0%);fill-opacity:1;stroke:none;"/>
<path style=" stroke:none;fill-rule:nonzero;fill:rgb(0%,0%,58.431375%);fill-opacity:1;" d="M 0 0 L 180 0 L 180 120 L 0 120 Z M 0 0 "/>
<path style=" stroke:none;fill-rule:nonzero;fill:rgb(100%,100%,100%);fill-opacity:1;" d="M 77 63.449219 L 75.75 68.25 L 80.449219 69.550781 L 79.550781 66 Z M 100.449219 66 L 99.550781 69.550781 L 104.25 68.25 L 103 63.449219 Z M 79.550781 54 L 77 56.550781 L 77.949219 60 Z M 79.550781 54 "/>
<path style=" stroke:none;fill-rule:nonzero;fill:rgb(100%,100%,100%);fill-opacity:1;" d="M 77.949219 60 L 77 63.449219 L 79.550781 66 Z M 77.949219 60 "/>
<path style=" stroke:none;fill-rule:nonzero;fill:rgb(100%,100%,100%);fill-opacity:1;" d="M 77 56.550781 L 73.550781 60 L 77 63.449219 L 77.949219 60 Z M 84 70.449219 L 86.550781 73 L 90 72.050781 Z M 93.449219 73 L 98.25 74.25 L 99.550781 69.550781 L 96 70.449219 Z M 93.449219 73 "/>
<path style=" stroke:none;fill-rule:nonzero;fill:rgb(100%,100%,100%);fill-opacity:1;" d="M 96 70.449219 L 99.550781 69.550781 L 100.449219 66 Z M 80.449219 69.550781 L 81.75 74.25 L 86.550781 73 L 84 70.449219 Z M 90 72.050781 L 93.449219 73 L 96 70.449219 Z M 90 72.050781 "/>
<path style=" stroke:none;fill-rule:nonzero;fill:rgb(100%,100%,100%);fill-opacity:1;" d="M 86.550781 73 L 90 76.449219 L 93.449219 73 L 90 72.050781 Z M 80.449219 50.449219 L 75.75 51.75 L 77 56.550781 L 79.550781 54 Z M 79.550781 66 L 80.449219 69.550781 L 84 70.449219 Z M 102.050781 60 L 103 56.550781 L 100.449219 54 Z M 102.050781 60 "/>
<path style=" stroke:none;fill-rule:nonzero;fill:rgb(100%,100%,100%);fill-opacity:1;" d="M 84 49.550781 L 80.449219 50.449219 L 79.550781 54 Z M 100.449219 54 L 99.550781 50.449219 L 96 49.550781 Z M 103 63.449219 L 106.449219 60 L 103 56.550781 L 102.050781 60 Z M 103 63.449219 "/>
<path style=" stroke:none;fill-rule:nonzero;fill:rgb(100%,100%,100%);fill-opacity:1;" d="M 100.449219 54 L 96 49.550781 L 90 47.949219 L 84 49.550781 L 79.550781 54 L 77.949219 60 L 79.550781 66 L 84 70.449219 L 90 72.050781 L 96 70.449219 L 100.449219 66 L 102.050781 60 Z M 100.449219 54 "/>
<path style=" stroke:none;fill-rule:nonzero;fill:rgb(100%,100%,100%);fill-opacity:1;" d="M 100.449219 66 L 103 63.449219 L 102.050781 60 Z M 103 56.550781 L 104.25 51.75 L 99.550781 50.449219 L 100.449219 54 Z M 99.550781 50.449219 L 98.25 45.75 L 93.449219 47 L 96 49.550781 Z M 86.550781 47 L 81.75 45.75 L 80.449219 50.449219 L 84 49.550781 Z M 90 47.949219 L 86.550781 47 L 84 49.550781 Z M 90 47.949219 "/>
<path style=" stroke:none;fill-rule:nonzero;fill:rgb(100%,100%,100%);fill-opacity:1;" d="M 93.449219 47 L 90 43.550781 L 86.550781 47 L 90 47.949219 Z M 93.449219 47 "/>
<path style=" stroke:none;fill-rule:nonzero;fill:rgb(100%,100%,100%);fill-opacity:1;" d="M 96 49.550781 L 93.449219 47 L 90 47.949219 Z M 86.550781 73 L 81.75 74.25 L 84 82.550781 L 90 76.449219 Z M 84 82.550781 L 90 105 L 96 82.550781 L 90 76.449219 Z M 80.449219 69.550781 L 75.75 68.25 L 73.550781 76.449219 L 81.75 74.25 Z M 80.449219 69.550781 "/>
<path style=" stroke:none;fill-rule:nonzero;fill:rgb(100%,100%,100%);fill-opacity:1;" d="M 73.550781 76.449219 L 67.550781 99 L 84 82.550781 L 81.75 74.25 Z M 67.550781 66 L 51 82.550781 L 73.550781 76.449219 L 75.75 68.25 Z M 67.550781 66 "/>
<path style=" stroke:none;fill-rule:nonzero;fill:rgb(100%,100%,100%);fill-opacity:1;" d="M 77 63.449219 L 73.550781 60 L 67.550781 66 L 75.75 68.25 Z M 77 56.550781 L 75.75 51.75 L 67.550781 54 L 73.550781 60 Z M 77 56.550781 "/>
<path style=" stroke:none;fill-rule:nonzero;fill:rgb(100%,100%,100%);fill-opacity:1;" d="M 67.550781 54 L 45 60 L 67.550781 66 L 73.550781 60 Z M 112.550781 66 L 104.25 68.25 L 106.449219 76.449219 L 129 82.550781 Z M 112.550781 66 "/>
<path style=" stroke:none;fill-rule:nonzero;fill:rgb(100%,100%,100%);fill-opacity:1;" d="M 99.550781 69.550781 L 98.25 74.25 L 106.449219 76.449219 L 104.25 68.25 Z M 93.449219 73 L 90 76.449219 L 96 82.550781 L 98.25 74.25 Z M 103 63.449219 L 104.25 68.25 L 112.550781 66 L 106.449219 60 Z M 103 63.449219 "/>
<path style=" stroke:none;fill-rule:nonzero;fill:rgb(100%,100%,100%);fill-opacity:1;" d="M 96 82.550781 L 112.550781 99 L 106.449219 76.449219 L 98.25 74.25 Z M 99.550781 50.449219 L 104.25 51.75 L 106.449219 43.550781 L 98.25 45.75 Z M 99.550781 50.449219 "/>
<path style=" stroke:none;fill-rule:nonzero;fill:rgb(100%,100%,100%);fill-opacity:1;" d="M 112.550781 54 L 129 37.550781 L 106.449219 43.550781 L 104.25 51.75 Z M 106.449219 43.550781 L 112.550781 21 L 96 37.550781 L 98.25 45.75 Z M 112.550781 66 L 135 60 L 112.550781 54 L 106.449219 60 Z M 112.550781 66 "/>
<path style=" stroke:none;fill-rule:nonzero;fill:rgb(100%,100%,100%);fill-opacity:1;" d="M 103 56.550781 L 106.449219 60 L 112.550781 54 L 104.25 51.75 Z M 84 37.550781 L 67.550781 21 L 73.550781 43.550781 L 81.75 45.75 Z M 84 37.550781 "/>
<path style=" stroke:none;fill-rule:nonzero;fill:rgb(100%,100%,100%);fill-opacity:1;" d="M 80.449219 50.449219 L 81.75 45.75 L 73.550781 43.550781 L 75.75 51.75 Z M 80.449219 50.449219 "/>
<path style=" stroke:none;fill-rule:nonzero;fill:rgb(100%,100%,100%);fill-opacity:1;" d="M 73.550781 43.550781 L 51 37.550781 L 67.550781 54 L 75.75 51.75 Z M 93.449219 47 L 98.25 45.75 L 96 37.550781 L 90 43.550781 Z M 93.449219 47 "/>
<path style=" stroke:none;fill-rule:nonzero;fill:rgb(100%,100%,100%);fill-opacity:1;" d="M 96 37.550781 L 90 15 L 84 37.550781 L 90 43.550781 Z M 96 37.550781 "/>
<path style=" stroke:none;fill-rule:nonzero;fill:rgb(100%,100%,100%);fill-opacity:1;" d="M 86.550781 47 L 90 43.550781 L 84 37.550781 L 81.75 45.75 Z M 86.550781 47 "/>
<path style=" stroke:none;fill-rule:nonzero;fill:rgb(0%,0%,58.431375%);fill-opacity:1;" d="M 115.550781 60 C 115.550781 45.890625 104.109375 34.449219 90 34.449219 C 75.890625 34.449219 64.449219 45.890625 64.449219 60 C 64.449219 74.109375 75.890625 85.550781 90 85.550781 C 104.109375 85.550781 115.550781 74.109375 115.550781 60 Z M 115.550781 60 "/>
<path style=" stroke:none;fill-rule:nonzero;fill:rgb(100%,100%,100%);fill-opacity:1;" d="M 112.550781 60 C 112.550781 47.546875 102.453125 37.449219 90 37.449219 C 77.546875 37.449219 67.449219 47.546875 67.449219 60 C 67.449219 72.453125 77.546875 82.550781 90 82.550781 C 102.453125 82.550781 112.550781 72.453125 112.550781 60 Z M 112.550781 60 "/>
</g>
</svg>
