<?xml version="1.0" encoding="UTF-8"?>
<svg xmlns="http://www.w3.org/2000/svg" xmlns:xlink="http://www.w3.org/1999/xlink" width="px" height="px" viewBox="0 0 320 240" version="1.1">
<defs>
<clipPath id="clip1">
  <path d="M 0.015625 160 L 319.984375 160 L 319.984375 201 L 0.015625 201 Z M 0.015625 160 "/>
</clipPath>
<clipPath id="clip2">
  <path d="M 0.015625 120 L 319.984375 120 L 319.984375 160 L 0.015625 160 Z M 0.015625 120 "/>
</clipPath>
<clipPath id="clip3">
  <path d="M 0.015625 80 L 319.984375 80 L 319.984375 120 L 0.015625 120 Z M 0.015625 80 "/>
</clipPath>
<clipPath id="clip4">
  <path d="M 0.015625 40 L 319.984375 40 L 319.984375 81 L 0.015625 81 Z M 0.015625 40 "/>
</clipPath>
<clipPath id="clip5">
  <path d="M 0.015625 0 L 319.984375 0 L 319.984375 40 L 0.015625 40 Z M 0.015625 0 "/>
</clipPath>
<clipPath id="clip6">
  <path d="M 0.015625 200 L 319.984375 200 L 319.984375 240 L 0.015625 240 Z M 0.015625 200 "/>
</clipPath>
</defs>
<g id="surface1">
<g clip-path="url(#clip1)" clip-rule="nonzero">
<path style=" stroke:none;fill-rule:evenodd;fill:rgb(100%,90.588236%,0%);fill-opacity:1;" d="M -20 160.03125 L 340 160.03125 L 340 200.015625 L -20 200.015625 Z M -20 160.03125 "/>
</g>
<g clip-path="url(#clip2)" clip-rule="nonzero">
<path style=" stroke:none;fill-rule:evenodd;fill:rgb(0%,0%,0.392157%);fill-opacity:1;" d="M -20 120 L 340 120 L 340 159.984375 L -20 159.984375 Z M -20 120 "/>
</g>
<g clip-path="url(#clip3)" clip-rule="nonzero">
<path style=" stroke:none;fill-rule:evenodd;fill:rgb(87.058824%,22.352941%,3.137255%);fill-opacity:1;" d="M -20 80.015625 L 340 80.015625 L 340 120 L -20 120 Z M -20 80.015625 "/>
</g>
<g clip-path="url(#clip4)" clip-rule="nonzero">
<path style=" stroke:none;fill-rule:evenodd;fill:rgb(100%,90.588236%,0%);fill-opacity:1;" d="M -20 40.03125 L 340 40.03125 L 340 80.015625 L -20 80.015625 Z M -20 40.03125 "/>
</g>
<g clip-path="url(#clip5)" clip-rule="nonzero">
<path style=" stroke:none;fill-rule:evenodd;fill:rgb(0%,0%,0.392157%);fill-opacity:1;" d="M -20 0 L 340 0 L 340 39.984375 L -20 39.984375 Z M -20 0 "/>
</g>
<path style="fill-rule:evenodd;fill:rgb(100%,99.215686%,100%);fill-opacity:1;stroke-width:1;stroke-linecap:butt;stroke-linejoin:miter;stroke:rgb(0%,0%,0%);stroke-opacity:1;stroke-miterlimit:4;" d="M 335.7 256 C 335.7 300.016667 300.016667 335.7 256 335.7 C 211.983333 335.7 176.3 300.016667 176.3 256 C 176.3 211.983333 211.983333 176.3 256 176.3 C 300.016667 176.3 335.7 211.983333 335.7 256 Z M 335.7 256 " transform="matrix(0.46875,0,0,0.46875,40,0)"/>
<path style="fill-rule:evenodd;fill:rgb(87.058824%,19.215687%,3.137255%);fill-opacity:1;stroke-width:1;stroke-linecap:butt;stroke-linejoin:miter;stroke:rgb(0%,0%,0%);stroke-opacity:1;stroke-miterlimit:4;" d="M 242 194.9 L 236.8 185.4 C 238.8 183.4 242.1 181.8 247.5 181.8 L 246.9 192.3 Z M 242 194.9 " transform="matrix(0.46875,0,0,0.46875,40,0)"/>
<path style="fill-rule:evenodd;fill:rgb(100%,90.588236%,0%);fill-opacity:1;stroke-width:1;stroke-linecap:butt;stroke-linejoin:miter;stroke:rgb(0%,0%,0%);stroke-opacity:1;stroke-miterlimit:4;" d="M 247 192.3 L 247.7 181.8 C 247.7 181.8 258.4 181.2 264.2 188.2 L 258.5 196.4 Z M 247 192.3 " transform="matrix(0.46875,0,0,0.46875,40,0)"/>
<path style="fill-rule:evenodd;fill:rgb(87.058824%,19.215687%,3.137255%);fill-opacity:1;stroke-width:1;stroke-linecap:butt;stroke-linejoin:miter;stroke:rgb(0%,0%,0%);stroke-opacity:1;stroke-miterlimit:4;" d="M 258.6 196.3 L 263.9 188.1 C 267.4 191.8 268.9 194.4 269.4 198.4 C 269.5 198.5 261.1 200.5 261.1 200.4 Z M 258.6 196.3 " transform="matrix(0.46875,0,0,0.46875,40,0)"/>
<path style="fill-rule:evenodd;fill:rgb(0%,0%,0%);fill-opacity:1;stroke-width:0.9;stroke-linecap:round;stroke-linejoin:round;stroke:rgb(0%,0%,0%);stroke-opacity:1;stroke-miterlimit:4;" d="M 244.6 331.1 C 244.6 331.1 254.5 319.8 273.7 322.2 C 270.8 317.5 261.4 318.1 261.4 318.1 C 261.4 318.1 258.6 296.1 260.8 294.9 C 263 293.7 272.8 295 272.8 295 C 274 295 276.2 291.6 274.4 289.4 C 272.6 287.2 267.6 278.9 269.7 277.2 C 271.8 275.5 283.1 278.2 283.1 278.2 L 251.1 237.2 C 251.1 237.2 247.8 221.7 254.4 214.2 C 262.3 207.7 261.4 200.6 261.2 200.7 C 260.1 193.5 249.2 188.4 241.8 195 C 237.5 200.2 240.4 204.2 240.4 204.2 C 240.4 204.2 228.9 207.3 228.5 209.3 C 228.1 211.3 241.4 209 241.4 209 L 240.1 218.1 C 240.1 218.1 214.1 241.7 234.1 262.1 L 234.7 261.3 C 234.7 261.3 241.7 269.9 249 271.8 C 256 278.8 255.3 277.8 255.3 277.8 C 255.3 277.8 256.6 288.9 255.3 291.1 C 253.6 290.6 236 289.9 233.4 290.9 C 231 291.7 222 291.2 224.2 306 L 227.5 298.5 C 227.5 298.5 227.2 303.8 229.4 305.7 C 229 300.1 231.5 296.3 231.5 296.3 C 231.5 296.3 231.9 302.5 233.3 303.3 C 234.7 304.3 234.7 293.3 242.3 294.3 C 249.7 295.2 255.2 294.9 255.2 294.9 C 255.2 294.9 257.7 316.3 256.9 318.3 C 251.5 317 238.5 318.8 237.7 322.1 C 245.3 321.6 248.8 322.5 248.8 322.5 C 248.8 322.5 242.7 328 244.6 331.1 " transform="matrix(0.46875,0,0,0.46875,40,0)"/>
<path style="fill-rule:evenodd;fill:rgb(61.176473%,65.098041%,61.176473%);fill-opacity:1;stroke-width:0.9;stroke-linecap:round;stroke-linejoin:round;stroke:rgb(61.176473%,65.098041%,61.176473%);stroke-opacity:1;stroke-miterlimit:4;" d="M 247.6 214.8 C 247.6 214.8 228.7 235.6 236.9 251.5 C 237.3 249.3 237.1 247.9 237.4 248 C 236.9 247.7 239.7 249.9 239.5 249.5 C 239.5 248.3 238.7 245.8 238.7 245.8 L 241.2 246.5 L 239.7 243.7 L 243.4 244.1 C 243.4 244.1 242.1 240.7 242.5 240.7 L 245.5 240.9 C 240.1 231.3 245.2 223.3 247.6 214.7 Z M 247.6 214.8 " transform="matrix(0.46875,0,0,0.46875,40,0)"/>
<path style="fill-rule:evenodd;fill:rgb(61.176473%,65.098041%,61.176473%);fill-opacity:1;stroke-width:1;stroke-linecap:butt;stroke-linejoin:miter;stroke:rgb(61.176473%,65.098041%,61.176473%);stroke-opacity:1;stroke-miterlimit:4;" d="M 254.2 196.9 C 254.2 196.9 255.2 204.1 251.2 206.1 C 250.7 206.6 248.2 207.4 248.6 208.9 C 249 210.9 250.1 210.5 251.6 210.1 C 255.7 209.4 260.5 200.7 254.2 196.9 Z M 254.2 196.9 " transform="matrix(0.46875,0,0,0.46875,40,0)"/>
<path style=" stroke:none;fill-rule:evenodd;fill:rgb(100%,100%,100%);fill-opacity:1;" d="M 155.875 95.15625 C 155.875 95.542969 155.558594 95.859375 155.171875 95.859375 C 154.785156 95.859375 154.46875 95.542969 154.46875 95.15625 C 154.46875 94.769531 154.785156 94.453125 155.171875 94.453125 C 155.558594 94.453125 155.875 94.769531 155.875 95.15625 "/>
<path style="fill-rule:evenodd;fill:rgb(87.058824%,19.215687%,3.137255%);fill-opacity:1;stroke-width:1;stroke-linecap:butt;stroke-linejoin:miter;stroke:rgb(0%,0%,0%);stroke-opacity:1;stroke-miterlimit:4;" d="M 241.1 209 C 240.1 209.9 234.9 215.3 240.1 217.3 C 245.4 215.9 243.9 214.9 245.1 213.7 C 245.1 211.2 242.5 210.6 241.1 209.1 Z M 241.1 209 " transform="matrix(0.46875,0,0,0.46875,40,0)"/>
<path style="fill-rule:evenodd;fill:rgb(61.176473%,65.098041%,61.176473%);fill-opacity:1;stroke-width:0.9;stroke-linecap:round;stroke-linejoin:round;stroke:rgb(61.176473%,65.098041%,61.176473%);stroke-opacity:1;stroke-miterlimit:4;" d="M 252.6 260.5 C 252.3 261.7 251.1 266.1 252.7 269.5 C 257.3 267.5 259.4 268.1 260.9 269.1 C 257.2 266.1 255.7 264.8 252.6 260.5 " transform="matrix(0.46875,0,0,0.46875,40,0)"/>
<path style="fill-rule:evenodd;fill:rgb(100%,100%,100%);fill-opacity:1;stroke-width:0.9;stroke-linecap:round;stroke-linejoin:round;stroke:rgb(100%,100%,100%);stroke-opacity:1;stroke-miterlimit:4;" d="M 260.4 281.1 L 260.6 291.3 C 260.6 291.3 264.2 291.9 265.8 291.3 C 267.4 290.7 265.8 284.3 260.4 281.1 " transform="matrix(0.46875,0,0,0.46875,40,0)"/>
<path style="fill-rule:evenodd;fill:rgb(61.176473%,65.098041%,61.176473%);fill-opacity:1;stroke-width:1;stroke-linecap:butt;stroke-linejoin:miter;stroke:rgb(0%,0%,0%);stroke-opacity:1;stroke-miterlimit:4;" d="M 286 282.4 C 286 282.4 279.5 266.6 262.8 262.6 C 246.1 258.6 248.3 240.8 249.6 239.7 C 250.4 238.2 250.9 235.8 255.7 238.1 C 260.5 240.4 282.7 251.5 285.9 252.1 C 289.1 252.7 286.3 282.8 286.1 282.4 Z M 286 282.4 " transform="matrix(0.46875,0,0,0.46875,40,0)"/>
<path style="fill-rule:evenodd;fill:rgb(87.058824%,19.215687%,3.137255%);fill-opacity:1;stroke-width:0.9;stroke-linecap:butt;stroke-linejoin:round;stroke:rgb(0%,0%,0%);stroke-opacity:1;stroke-miterlimit:4;" d="M 270.2 262.5 C 269.9 262.7 292.5 275.9 285.7 287.2 C 292.1 282.9 290.1 275.5 290.1 275.5 C 290.1 275.5 295.3 289.2 282.5 295.9 C 283.9 297.1 284.8 296.9 284.8 296.9 L 282.6 299 C 282.6 299 281.6 300.7 290.2 296.5 C 287.9 298.4 287.7 299.8 287.7 299.8 C 287.7 299.8 288.3 301.6 293.9 296.7 C 289.4 301.6 288.4 304.1 288.4 304 C 300.7 303 327.4 263 280 251.3 L 282.1 253.5 Z M 270.2 262.5 " transform="matrix(0.46875,0,0,0.46875,40,0)"/>
<path style="fill-rule:evenodd;fill:rgb(100%,100%,100%);fill-opacity:1;stroke-width:0.9;stroke-linecap:round;stroke-linejoin:round;stroke:rgb(0%,0%,0%);stroke-opacity:1;stroke-miterlimit:4;" d="M 271.2 258.6 C 274.2 260.8 275.3 261.6 275.7 262.6 C 272.9 262 270.4 262.2 270.4 262.2 C 270.4 262.2 264.3 256.4 263.2 255.9 C 262.4 255.9 257.6 252.9 257.6 252.9 C 255.3 251.7 253.1 243.6 261.8 245.9 C 265.133333 247.641667 268.575 249.175 272.1 250.5 L 282.8 253.9 L 289 260.8 C 289 260.8 278 255.4 276.6 255.3 C 279.6 257.7 281.3 261.1 281.3 261.1 C 277.8 260.1 274.8 259.1 271.2 258.6 " transform="matrix(0.46875,0,0,0.46875,40,0)"/>
<path style="fill:none;stroke-width:0.9;stroke-linecap:round;stroke-linejoin:miter;stroke:rgb(100%,100%,100%);stroke-opacity:1;stroke-miterlimit:4;" d="M 228.4 209.9 C 228.4 209.9 238.9 207.3 240.2 207.7 " transform="matrix(0.46875,0,0,0.46875,40,0)"/>
<g clip-path="url(#clip6)" clip-rule="nonzero">
<path style=" stroke:none;fill-rule:evenodd;fill:rgb(87.058824%,22.352941%,3.137255%);fill-opacity:1;" d="M -20 200.015625 L 340 200.015625 L 340 240 L -20 240 Z M -20 200.015625 "/>
</g>
</g>
</svg>
