<?xml version="1.0" encoding="UTF-8"?>
<svg xmlns="http://www.w3.org/2000/svg" xmlns:xlink="http://www.w3.org/1999/xlink" width="px" height="px" viewBox="0 0 320 240" version="1.1">
<g id="surface1">
<rect x="0" y="0" width="320" height="240" style="fill:rgb(29.411766%,57.254905%,85.882354%);fill-opacity:1;stroke:none;"/>
<path style=" stroke:none;fill-rule:nonzero;fill:rgb(100%,100%,100%);fill-opacity:1;" d="M 178.871094 176.101562 C 178 177.042969 177.046875 177.90625 176.019531 178.679688 C 169.660156 172.078125 162.160156 164.820312 155.050781 164.820312 C 150.640625 164.820312 147.488281 168.179688 143.769531 170.519531 C 138.640625 173.820312 131.589844 175.679688 125.558594 173.25 C 122.148438 172.085938 119.121094 170.011719 116.800781 167.25 C 121.984375 170.460938 128.386719 171.019531 134.050781 168.75 C 139.960938 166.289062 146.019531 163.019531 152.769531 163.019531 C 162.730469 163.019531 172.210938 169.769531 178.871094 176.101562 M 105.191406 155.398438 C 111.789062 162.898438 122.558594 160.5 131.351562 162.359375 C 132.578125 162.660156 133.75 163.050781 135.070312 162.839844 C 134.019531 162.179688 132.609375 162.089844 131.410156 161.640625 C 124.570312 159.058594 123.519531 151.738281 119.769531 146.730469 C 124.570312 149.910156 128.5 154.230469 132.96875 158.339844 C 136.121094 160.941406 139.933594 162.625 143.980469 163.199219 C 143.019531 163.558594 141.761719 163.5 140.679688 163.738281 C 133.480469 165.539062 125.5 168.359375 117.820312 165.839844 C 112.457031 164.066406 107.960938 160.339844 105.21875 155.398438 Z M 94.628906 138 C 98.738281 147.328125 109.089844 148.078125 115.929688 153.78125 C 117.15625 154.871094 118.519531 155.796875 119.980469 156.539062 L 120.070312 156.480469 C 118.378906 155.003906 116.859375 153.34375 115.539062 151.53125 C 111.609375 145.828125 112.898438 138.03125 109.871094 131.96875 C 112.683594 135.097656 115.019531 138.625 116.800781 142.441406 C 119.351562 148.5 120.21875 155.429688 125.949219 160.050781 C 119.738281 158.011719 112.601562 158.398438 107.050781 154.769531 C 101.171875 150.929688 95.738281 144.871094 94.628906 138.03125 Z M 90.21875 119.160156 C 90.820312 127.378906 99.519531 131.761719 103.71875 138.511719 C 104.621094 139.949219 105.519531 141.449219 106.808594 142.589844 C 106.601562 141.71875 105.910156 140.941406 105.488281 140.101562 C 104.117188 137.066406 103.566406 133.722656 103.898438 130.410156 C 104.289062 126.210938 106.03125 122.308594 105.371094 117.898438 C 108.96875 125.671875 107.800781 135.359375 109.871094 143.730469 C 110.351562 145.589844 111.460938 147.210938 112.148438 148.980469 C 108.640625 146.28125 104.019531 143.878906 100.148438 140.878906 C 96.296875 138.101562 93.285156 134.3125 91.449219 129.929688 C 90.273438 126.46875 89.851562 122.796875 90.21875 119.160156 M 90.460938 104.039062 C 90.878906 102.210938 91.210938 100.320312 91.988281 98.640625 C 90.488281 106.378906 95.648438 111.960938 97.390625 118.679688 C 98.050781 121.199219 98.289062 123.871094 99.308594 126.238281 C 99.410156 126.238281 99.488281 126.199219 99.550781 126.121094 C 97 118.980469 100.75 112.378906 104.351562 106.769531 C 105.230469 105.230469 105.859375 103.558594 106.210938 101.820312 C 106.601562 105.058594 105.910156 108.78125 105.308594 112.109375 C 104.558594 116.398438 103.089844 120.421875 101.921875 124.558594 C 101.285156 127.257812 101.234375 130.058594 101.769531 132.78125 L 101.378906 132.480469 C 98.679688 127.5 93.339844 123.601562 91.75 118.140625 C 90.234375 113.601562 89.792969 108.777344 90.460938 104.039062 M 93.308594 95.699219 C 93.40625 90.1875 95.421875 84.886719 99.011719 80.699219 C 99.089844 80.621094 99.191406 80.578125 99.308594 80.578125 C 95.53125 86.28125 98.980469 93.539062 98.46875 100.050781 L 97.988281 106.710938 C 98.050781 106.769531 98.050781 106.980469 98.230469 106.890625 C 98.46875 106.140625 98.53125 105.359375 98.648438 104.578125 C 99.550781 99.179688 104.289062 95.460938 108.28125 91.679688 C 109.199219 90.804688 109.914062 89.742188 110.378906 88.558594 C 110.050781 91.261719 109.300781 93.988281 108.101562 96.421875 C 105.011719 102.660156 99.070312 107.699219 97.988281 114.808594 C 97.480469 108 93.308594 102.929688 93.308594 95.699219 M 103.210938 75.929688 C 104.933594 73.855469 107.230469 72.332031 109.808594 71.550781 C 104.859375 74.941406 105.128906 80.96875 103.628906 86.011719 C 103.089844 87.839844 102.28125 89.578125 101.828125 91.46875 L 101.980469 91.589844 C 102.863281 89.320312 104.25 87.28125 106.03125 85.621094 C 109.480469 82.378906 114.671875 80.398438 116.378906 75.628906 C 116.289062 82.261719 110.648438 87.300781 105.488281 91.199219 C 103.195312 92.9375 101.328125 95.171875 100.03125 97.738281 C 100.210938 95.941406 100.328125 94.378906 100.148438 92.609375 C 99.609375 86.820312 99.25 80.308594 103.238281 75.929688 Z M 123.160156 64.800781 C 119.53125 68.011719 117.101562 72.121094 114.28125 75.808594 C 111.96875 78.898438 108.761719 80.789062 106.03125 83.371094 C 107.53125 80.308594 107.769531 76.769531 109.660156 73.800781 C 112.871094 68.699219 118.210938 66.71875 123.160156 64.800781 "/>
<path style=" stroke:none;fill-rule:nonzero;fill:rgb(100%,100%,100%);fill-opacity:1;" d="M 141.191406 176.101562 C 142.058594 177.042969 143.015625 177.90625 144.039062 178.679688 C 150.398438 172.078125 157.898438 164.820312 165.011719 164.820312 C 169.421875 164.820312 172.570312 168.179688 176.289062 170.519531 C 181.421875 173.820312 188.46875 175.679688 194.5 173.25 C 197.910156 172.085938 200.941406 170.011719 203.261719 167.25 C 198.074219 170.460938 191.671875 171.019531 186.011719 168.75 C 180.101562 166.289062 174.039062 163.019531 167.289062 163.019531 C 157.328125 163.019531 147.851562 169.769531 141.191406 176.101562 M 214.871094 155.398438 C 208.269531 162.898438 197.5 160.5 188.710938 162.359375 C 187.480469 162.660156 186.308594 163.050781 184.988281 162.839844 C 186.039062 162.179688 187.449219 162.089844 188.648438 161.640625 C 195.488281 159.058594 196.539062 151.738281 200.289062 146.730469 C 195.488281 149.910156 191.558594 154.230469 187.089844 158.339844 C 183.9375 160.941406 180.128906 162.625 176.078125 163.199219 C 177.039062 163.558594 178.300781 163.5 179.378906 163.738281 C 186.578125 165.539062 194.558594 168.359375 202.238281 165.839844 C 207.601562 164.066406 212.097656 160.339844 214.839844 155.398438 Z M 225.429688 138 C 221.320312 147.328125 210.96875 148.078125 204.128906 153.78125 C 202.902344 154.871094 201.542969 155.796875 200.078125 156.539062 L 199.988281 156.480469 C 201.679688 155.003906 203.199219 153.34375 204.519531 151.53125 C 208.449219 145.828125 207.160156 138.03125 210.191406 131.96875 C 207.375 135.097656 205.039062 138.625 203.261719 142.441406 C 200.710938 148.5 199.839844 155.429688 194.109375 160.050781 C 200.320312 158.011719 207.460938 158.398438 213.011719 154.769531 C 218.890625 150.929688 224.320312 144.871094 225.429688 138.03125 Z M 229.839844 119.160156 C 229.238281 127.378906 220.539062 131.761719 216.339844 138.511719 C 215.441406 139.949219 214.539062 141.449219 213.25 142.589844 C 213.460938 141.71875 214.148438 140.941406 214.570312 140.101562 C 215.945312 137.066406 216.492188 133.722656 216.160156 130.410156 C 215.769531 126.210938 214.03125 122.308594 214.691406 117.898438 C 211.089844 125.671875 212.261719 135.359375 210.191406 143.730469 C 209.710938 145.589844 208.601562 147.210938 207.910156 148.980469 C 211.421875 146.28125 216.039062 143.878906 219.910156 140.878906 C 223.761719 138.101562 226.773438 134.3125 228.609375 129.929688 C 229.789062 126.46875 230.207031 122.796875 229.839844 119.160156 M 229.601562 104.039062 C 229.179688 102.210938 228.851562 100.320312 228.070312 98.640625 C 229.570312 106.378906 224.410156 111.960938 222.671875 118.679688 C 222.011719 121.199219 221.769531 123.871094 220.75 126.238281 C 220.648438 126.238281 220.570312 126.199219 220.511719 126.121094 C 223.058594 118.980469 219.308594 112.378906 215.710938 106.769531 C 214.828125 105.230469 214.199219 103.558594 213.851562 101.820312 C 213.460938 105.058594 214.148438 108.78125 214.75 112.109375 C 215.5 116.398438 216.96875 120.421875 218.140625 124.558594 C 218.773438 127.257812 218.824219 130.058594 218.289062 132.78125 L 218.679688 132.480469 C 221.378906 127.5 226.71875 123.601562 228.308594 118.140625 C 229.824219 113.601562 230.265625 108.777344 229.601562 104.039062 M 226.75 95.699219 C 226.652344 90.1875 224.636719 84.886719 221.050781 80.699219 C 220.96875 80.621094 220.871094 80.578125 220.75 80.578125 C 224.53125 86.28125 221.078125 93.539062 221.589844 100.050781 L 222.070312 106.710938 C 222.011719 106.769531 222.011719 106.980469 221.828125 106.890625 C 221.589844 106.140625 221.53125 105.359375 221.410156 104.578125 C 220.511719 99.179688 215.769531 95.460938 211.78125 91.679688 C 210.859375 90.804688 210.144531 89.742188 209.679688 88.558594 C 210.011719 91.261719 210.761719 93.988281 211.960938 96.421875 C 215.050781 102.660156 220.988281 107.699219 222.070312 114.808594 C 222.578125 108 226.75 102.929688 226.75 95.699219 M 216.851562 75.929688 C 215.125 73.855469 212.832031 72.332031 210.25 71.550781 C 215.199219 74.941406 214.929688 80.96875 216.429688 86.011719 C 216.96875 87.839844 217.78125 89.578125 218.230469 91.46875 L 218.078125 91.589844 C 217.195312 89.320312 215.8125 87.28125 214.03125 85.621094 C 210.578125 82.378906 205.390625 80.398438 203.679688 75.628906 C 203.769531 82.261719 209.410156 87.300781 214.570312 91.199219 C 216.863281 92.9375 218.730469 95.171875 220.03125 97.738281 C 219.851562 95.941406 219.730469 94.378906 219.910156 92.609375 C 220.449219 86.820312 220.808594 80.308594 216.820312 75.929688 Z M 196.898438 64.800781 C 200.53125 68.011719 202.960938 72.121094 205.78125 75.808594 C 208.089844 78.898438 211.300781 80.789062 214.03125 83.371094 C 212.53125 80.308594 212.289062 76.769531 210.398438 73.800781 C 207.191406 68.699219 201.851562 66.71875 196.898438 64.800781 "/>
<path style=" stroke:none;fill-rule:nonzero;fill:rgb(100%,100%,100%);fill-opacity:1;" d="M 204.5 131 L 203.449219 130.398438 C 201.167969 135.085938 198.144531 139.375 194.5 143.101562 L 188.25 136.800781 C 191.269531 133.679688 193.753906 130.078125 195.601562 126.148438 L 194.550781 125.550781 C 192.738281 129.390625 190.308594 132.902344 187.351562 135.949219 L 181.648438 130.25 C 184.0625 127.757812 186.027344 124.863281 187.449219 121.699219 L 186.398438 121.101562 C 185.027344 124.171875 183.132812 126.980469 180.800781 129.398438 L 174.550781 123.148438 C 176.265625 121.320312 177.625 119.183594 178.550781 116.851562 L 177.5 116.25 C 176.621094 118.472656 175.332031 120.507812 173.699219 122.25 L 167.949219 116.550781 C 169.570312 114.757812 170.523438 112.460938 170.648438 110.050781 L 178.75 110.050781 C 178.691406 112.171875 178.269531 114.269531 177.5 116.25 L 178.550781 116.851562 C 179.410156 114.683594 179.882812 112.382812 179.949219 110.050781 L 188.851562 110.050781 C 188.765625 113.863281 187.914062 117.621094 186.351562 121.101562 L 187.449219 121.699219 C 189.089844 118.03125 189.972656 114.066406 190.050781 110.050781 L 198.148438 110.050781 C 198.058594 115.414062 196.832031 120.695312 194.550781 125.550781 L 195.601562 126.148438 C 197.96875 121.109375 199.230469 115.621094 199.300781 110.050781 L 208.25 110.050781 C 208.164062 117.105469 206.527344 124.050781 203.449219 130.398438 Z M 204.5 131 C 207.765625 124.300781 209.472656 116.953125 209.5 109.5 C 209.503906 103.144531 208.28125 96.84375 205.898438 90.949219 L 204.800781 91.449219 C 207.042969 96.996094 208.230469 102.914062 208.300781 108.898438 L 199.351562 108.898438 C 199.289062 104.105469 198.359375 99.359375 196.601562 94.898438 L 195.5 95.398438 C 197.214844 99.699219 198.128906 104.273438 198.199219 108.898438 L 190 108.898438 C 189.945312 105.375 189.265625 101.890625 188 98.601562 L 186.898438 99.101562 C 188.09375 102.230469 188.738281 105.546875 188.800781 108.898438 L 180 108.898438 C 179.941406 106.75 179.535156 104.621094 178.800781 102.601562 L 177.699219 103.101562 C 178.367188 104.964844 178.738281 106.921875 178.800781 108.898438 L 170.699219 108.898438 C 170.574219 106.488281 169.621094 104.191406 168 102.398438 L 173.75 96.648438 C 175.492188 98.492188 176.835938 100.667969 177.699219 103.050781 L 178.800781 102.601562 C 177.871094 100.074219 176.441406 97.761719 174.601562 95.800781 L 180.898438 89.5 C 183.546875 92.265625 185.621094 95.527344 187 99.101562 L 188.101562 98.601562 C 186.648438 94.890625 184.472656 91.507812 181.699219 88.648438 L 187.449219 82.949219 C 190.929688 86.546875 193.664062 90.792969 195.5 95.449219 L 196.601562 94.949219 C 194.683594 90.164062 191.84375 85.796875 188.25 82.101562 L 194.550781 75.800781 C 198.960938 80.292969 202.441406 85.613281 204.800781 91.449219 L 205.898438 90.949219 C 203.402344 84.808594 199.695312 79.230469 195 74.550781 C 190.292969 69.824219 184.679688 66.101562 178.5 63.601562 L 178.101562 64.75 C 183.933594 67.09375 189.25 70.558594 193.75 74.949219 L 187.449219 81.25 C 183.8125 77.734375 179.535156 74.953125 174.851562 73.050781 L 174.351562 74.148438 C 178.914062 75.996094 183.074219 78.714844 186.601562 82.148438 L 180.898438 87.851562 C 178.15625 85.199219 174.933594 83.09375 171.398438 81.648438 L 171 82.75 C 174.34375 84.136719 177.394531 86.140625 180 88.648438 L 173.75 94.949219 C 172 93.300781 169.96875 91.980469 167.75 91.050781 L 167.300781 92.199219 C 169.367188 93.050781 171.265625 94.269531 172.898438 95.800781 L 167.101562 101.5 C 165.308594 99.878906 163.011719 98.925781 160.601562 98.800781 L 160.601562 90.699219 C 162.886719 90.769531 165.140625 91.257812 167.25 92.148438 L 167.699219 91.050781 C 165.449219 90.105469 163.042969 89.578125 160.601562 89.5 L 160.601562 80.601562 C 164.148438 80.660156 167.65625 81.371094 170.949219 82.699219 L 171.398438 81.601562 C 167.964844 80.207031 164.304688 79.460938 160.601562 79.398438 L 160.601562 71.300781 C 165.316406 71.371094 169.980469 72.320312 174.351562 74.101562 L 174.75 73 C 170.25 71.1875 165.453125 70.222656 160.601562 70.148438 L 160.601562 61.199219 C 166.585938 61.269531 172.503906 62.457031 178.050781 64.699219 L 178.449219 63.550781 C 172.578125 61.214844 166.316406 60.027344 160 60.050781 C 152.328125 60.027344 144.757812 61.808594 137.898438 65.25 L 138.398438 66.25 C 144.929688 63.011719 152.109375 61.300781 159.398438 61.25 L 159.398438 70.148438 C 153.550781 70.21875 147.792969 71.601562 142.550781 74.199219 L 143.101562 75.199219 C 148.175781 72.703125 153.742188 71.371094 159.398438 71.300781 L 159.398438 79.398438 C 155.066406 79.484375 150.800781 80.507812 146.898438 82.398438 L 147.398438 83.449219 C 151.148438 81.652344 155.242188 80.679688 159.398438 80.601562 L 159.398438 89.5 C 156.679688 89.59375 154.011719 90.238281 151.550781 91.398438 L 152.050781 92.398438 C 154.355469 91.335938 156.859375 90.753906 159.398438 90.699219 L 159.398438 98.800781 C 158.195312 98.863281 157.011719 99.132812 155.898438 99.601562 L 156.398438 100.601562 C 157.546875 100.152344 158.769531 99.929688 160 99.949219 C 162.507812 99.945312 164.917969 100.933594 166.699219 102.699219 C 168.507812 104.5 169.515625 106.949219 169.5 109.5 C 169.5 114.746094 165.246094 119 160 119 C 157.484375 118.992188 155.074219 117.984375 153.300781 116.199219 C 151.515625 114.425781 150.507812 112.015625 150.5 109.5 C 150.496094 106.964844 151.503906 104.535156 153.300781 102.75 C 154.1875 101.871094 155.242188 101.171875 156.398438 100.699219 L 155.851562 99.648438 C 154.75 100.109375 153.734375 100.75 152.851562 101.550781 L 147.148438 95.800781 C 148.613281 94.429688 150.285156 93.296875 152.101562 92.449219 L 151.550781 91.449219 C 149.625 92.332031 147.855469 93.511719 146.300781 94.949219 L 140 88.648438 C 142.183594 86.558594 144.679688 84.820312 147.398438 83.5 L 146.898438 82.5 C 144.070312 83.867188 141.46875 85.675781 139.199219 87.851562 L 133.449219 82 C 136.292969 79.246094 139.546875 76.949219 143.101562 75.199219 L 142.601562 74.199219 C 138.925781 76 135.550781 78.363281 132.601562 81.199219 L 126.300781 74.851562 C 129.882812 71.375 133.980469 68.472656 138.449219 66.25 L 137.898438 65.199219 C 128.257812 70.066406 120.453125 77.925781 115.648438 87.601562 L 116.648438 88.101562 C 118.914062 83.53125 121.882812 79.34375 125.449219 75.699219 L 131.800781 82.050781 C 128.84375 85.089844 126.394531 88.582031 124.550781 92.398438 L 125.550781 92.949219 C 127.335938 89.222656 129.714844 85.8125 132.601562 82.851562 L 138.351562 88.550781 C 136.019531 90.964844 134.109375 93.753906 132.699219 96.800781 L 133.699219 97.351562 C 135.074219 94.410156 136.933594 91.722656 139.199219 89.398438 L 145.5 95.699219 C 143.859375 97.417969 142.539062 99.417969 141.601562 101.601562 L 142.648438 102.199219 C 143.511719 100.109375 144.75 98.195312 146.300781 96.550781 L 152.050781 102.25 C 150.417969 104.054688 149.464844 106.371094 149.351562 108.800781 L 141.25 108.800781 C 141.320312 106.535156 141.792969 104.300781 142.648438 102.199219 L 141.648438 101.601562 C 140.675781 103.878906 140.132812 106.320312 140.050781 108.800781 L 131.148438 108.800781 C 131.226562 104.847656 132.113281 100.949219 133.75 97.351562 L 132.75 96.851562 C 131.003906 100.597656 130.050781 104.667969 129.949219 108.800781 L 121.851562 108.800781 C 121.941406 103.308594 123.21875 97.898438 125.601562 92.949219 L 124.550781 92.398438 C 122.085938 97.519531 120.773438 103.117188 120.699219 108.800781 L 111.75 108.800781 C 111.835938 101.632812 113.527344 94.578125 116.699219 88.148438 L 115.648438 87.601562 C 112.289062 94.375 110.542969 101.835938 110.550781 109.398438 C 110.546875 114.121094 111.222656 118.820312 112.550781 123.351562 L 113.699219 123.050781 C 112.457031 118.808594 111.800781 114.417969 111.75 110 L 120.699219 110 C 120.742188 113.675781 121.296875 117.328125 122.351562 120.851562 L 123.5 120.550781 C 122.457031 117.128906 121.902344 113.578125 121.851562 110 L 130 110 C 130.046875 112.917969 130.515625 115.816406 131.398438 118.601562 L 132.601562 118.300781 C 131.730469 115.617188 131.261719 112.820312 131.199219 110 L 140 110 C 140.0625 112.082031 140.453125 114.140625 141.148438 116.101562 L 142.300781 115.800781 C 141.632812 113.9375 141.261719 111.980469 141.199219 110 L 149.300781 110 C 149.425781 112.414062 150.378906 114.707031 152 116.5 L 146.25 122.25 C 144.503906 120.394531 143.160156 118.199219 142.300781 115.800781 L 141.148438 116.101562 C 142.082031 118.707031 143.546875 121.089844 145.449219 123.101562 L 139.101562 129.398438 C 136.09375 126.242188 133.835938 122.449219 132.5 118.300781 L 131.300781 118.601562 C 132.710938 122.96875 135.105469 126.953125 138.300781 130.25 L 132.601562 136 C 128.402344 131.660156 125.300781 126.378906 123.550781 120.601562 L 122.398438 120.898438 C 124.191406 126.890625 127.398438 132.359375 131.75 136.851562 L 125.5 143.148438 C 120 137.53125 115.964844 130.644531 113.75 123.101562 L 112.550781 123.398438 C 114.875 131.34375 119.175781 138.566406 125.050781 144.398438 C 129.015625 148.386719 133.632812 151.664062 138.699219 154.101562 L 139.300781 153.050781 C 134.496094 150.773438 130.101562 147.714844 126.300781 144 L 132.601562 137.699219 C 135.832031 140.808594 139.566406 143.34375 143.648438 145.199219 L 144.25 144.199219 C 140.253906 142.390625 136.597656 139.90625 133.449219 136.851562 L 139.148438 131.148438 C 141.792969 133.6875 144.875 135.722656 148.25 137.148438 L 148.851562 136.101562 C 145.570312 134.726562 142.570312 132.757812 140 130.300781 L 146.300781 124 C 148.316406 125.882812 150.699219 127.332031 153.300781 128.25 L 153.851562 127.199219 C 151.351562 126.34375 149.070312 124.960938 147.148438 123.148438 L 152.898438 117.398438 C 154.691406 119.019531 156.988281 119.976562 159.398438 120.101562 L 159.398438 128.199219 C 157.527344 128.140625 155.675781 127.800781 153.898438 127.199219 L 153.25 128.199219 C 155.222656 128.921875 157.300781 129.324219 159.398438 129.398438 L 159.398438 138.300781 C 155.777344 138.230469 152.199219 137.484375 148.851562 136.101562 L 148.25 137.101562 C 151.777344 138.605469 155.5625 139.421875 159.398438 139.5 L 159.398438 147.601562 C 154.167969 147.519531 149.011719 146.363281 144.25 144.199219 L 143.648438 145.199219 C 148.589844 147.484375 153.957031 148.710938 159.398438 148.800781 L 159.398438 157.699219 C 152.441406 157.625 145.582031 156.039062 139.300781 153.050781 L 138.699219 154.050781 C 145.351562 157.234375 152.628906 158.890625 160 158.898438 C 167.898438 158.898438 175.5 157.050781 182.300781 153.601562 L 181.699219 152.5 C 175.15625 155.824219 167.9375 157.601562 160.601562 157.699219 L 160.601562 148.75 C 166.507812 148.671875 172.320312 147.253906 177.601562 144.601562 L 177.101562 143.550781 C 171.972656 146.109375 166.332031 147.476562 160.601562 147.550781 L 160.601562 139.550781 C 165.050781 139.445312 169.421875 138.351562 173.398438 136.351562 L 172.851562 135.300781 C 169.042969 137.203125 164.855469 138.226562 160.601562 138.300781 L 160.601562 129.398438 C 163.425781 129.316406 166.207031 128.636719 168.75 127.398438 L 168.25 126.300781 C 165.867188 127.476562 163.257812 128.125 160.601562 128.199219 L 160.601562 120.101562 C 163.011719 119.976562 165.308594 119.019531 167.101562 117.398438 L 172.851562 123.148438 C 171.464844 124.425781 169.898438 125.484375 168.199219 126.300781 L 168.75 127.398438 C 170.5625 126.523438 172.230469 125.375 173.699219 124 L 180 130.25 C 177.886719 132.285156 175.476562 133.988281 172.851562 135.300781 L 173.351562 136.351562 C 176.105469 134.992188 178.632812 133.222656 180.851562 131.101562 L 186.550781 136.800781 C 183.746094 139.519531 180.539062 141.796875 177.050781 143.550781 L 177.648438 144.601562 C 181.234375 142.792969 184.523438 140.449219 187.398438 137.648438 L 193.648438 143.949219 C 190.125 147.390625 186.09375 150.273438 181.699219 152.5 L 182.300781 153.601562 C 186.976562 151.222656 191.246094 148.117188 194.949219 144.398438 C 198.859375 140.496094 202.085938 135.96875 204.5 131 "/>
<path style=" stroke:none;fill-rule:nonzero;fill:rgb(100%,100%,100%);fill-opacity:1;" d="M 162.851562 98 L 162.550781 98 L 162.550781 98.351562 L 162.851562 98.351562 Z M 162.101562 97.5 L 162.5 97.5 L 162.5 97.800781 L 162.101562 97.800781 Z M 161.398438 97.398438 L 161.699219 97.449219 L 161.75 97.148438 L 161.398438 97.148438 Z M 161.101562 97.300781 L 160.75 97.300781 L 160.75 96.949219 L 161.148438 97 Z M 158.199219 96.898438 L 158.601562 96.898438 L 158.601562 97.199219 L 158.199219 97.199219 Z M 157.351562 97.5 L 157.699219 97.550781 L 157.699219 97.25 L 157.398438 97.25 Z M 157.351562 98 L 157 97.851562 L 157 97.550781 L 157.449219 97.699219 Z M 156.648438 98.351562 L 156.648438 98.050781 L 156.898438 98 L 156.949219 98.300781 Z M 117.351562 129.148438 L 117.351562 128.898438 L 117.101562 128.898438 L 117.101562 129.398438 L 117.5 129.398438 L 117.5 130.050781 L 117.800781 130.050781 L 117.800781 129.300781 Z M 121.101562 133.648438 L 120.601562 133.148438 L 120.148438 132.601562 L 119.949219 132.101562 L 119.601562 131.199219 L 120.351562 131.601562 L 120.601562 132.300781 L 120.949219 132.550781 L 121.300781 133.300781 Z M 131.449219 147.199219 L 131.398438 146.75 L 130.949219 146.148438 L 131.601562 146.25 L 132.199219 146.800781 L 132.5 147.449219 L 132.101562 147.648438 L 131.949219 147.351562 Z M 158.449219 101.25 L 157.949219 101.25 L 157.800781 100.148438 L 158.101562 99.949219 L 158.101562 99.398438 L 156.351562 99.398438 L 156.351562 98.851562 L 156.550781 98.699219 L 156.148438 98.550781 L 155.851562 98.949219 L 155.75 99.398438 L 155.25 99.5 L 155.25 99.75 L 154.898438 99.75 L 154.898438 100.398438 L 153.5 101.550781 L 150.699219 101.449219 C 150.550781 101.949219 150.050781 101.449219 150.050781 101.449219 C 149.898438 101.101562 149.25 101.449219 149.25 101.449219 C 149.25 101.949219 148.25 101.148438 148.25 101.148438 L 146.550781 99.898438 C 145.550781 99 144.050781 100.148438 144 100.398438 C 144 101.101562 142.851562 100.550781 142.851562 100.550781 C 142.851562 100.550781 141.851562 100.25 141.699219 100.648438 C 141.550781 101.050781 140.898438 100.949219 140.898438 100.949219 L 140.800781 101.148438 L 140.300781 101.25 L 140.199219 101.550781 L 139.601562 101.648438 L 141.101562 101.648438 C 141.5 101.550781 140.949219 102.5 140.699219 102.449219 L 140 102.449219 L 139.75 102.75 L 139.101562 102.75 L 138.800781 103.148438 L 137.851562 103.101562 C 137.851562 103.101562 137.351562 103.550781 137.351562 103.699219 C 137.398438 103.851562 137.25 104.300781 137.101562 104.300781 C 136.949219 104.300781 136.648438 104.800781 136.75 104.898438 C 136.851562 105.050781 136.449219 105.550781 136.449219 105.550781 L 136.351562 106.050781 L 136.050781 106.199219 L 136.050781 107.550781 L 135.449219 107.949219 L 135.449219 108.550781 L 134.550781 109.550781 L 134.648438 110.300781 L 133.898438 111.148438 L 134 111.949219 L 133.550781 112.101562 L 133.449219 112.449219 L 133.25 113.5 L 133.75 113.550781 C 134 113.449219 133.949219 114.199219 133.75 114.351562 C 133.550781 114.449219 133 114.648438 133.300781 114.851562 C 133.601562 115.050781 132.5 115 132.5 114.699219 C 132.5 114.398438 131.898438 114.101562 131.75 114.199219 C 131.601562 114.300781 131.351562 113.75 131.351562 113.75 C 130.851562 113.25 129.148438 113.800781 129.148438 113.800781 L 128.898438 114.648438 C 128.351562 114.699219 128 115.648438 128 115.648438 C 127.5 115.800781 127.199219 116.351562 127.351562 116.5 C 127.5 116.648438 127.101562 116.699219 127.101562 116.699219 L 127.101562 117.800781 L 126.851562 118.148438 L 126.851562 119.398438 C 127.199219 119.398438 127.148438 119.898438 127.148438 119.898438 C 126.648438 120 126.75 120.648438 126.75 120.648438 L 125.699219 121 L 125.5 121.300781 L 124.199219 121.300781 L 123.851562 121.601562 L 123.5 121.25 L 121 121.25 L 120.898438 121 L 120.398438 120.898438 L 120.398438 120.351562 L 119.601562 120.351562 L 119.449219 120.699219 L 118.648438 120.75 C 118.699219 121.25 117.851562 122 117.75 121.800781 C 117.648438 121.601562 117.101562 121.050781 117.351562 120.949219 L 118.25 120.75 L 118.25 120.398438 L 116.398438 120.351562 L 116.199219 120.648438 L 115.449219 120.699219 L 115.449219 121.5 L 115.101562 121.601562 C 114.851562 121.75 115.148438 122.300781 115.148438 122.300781 C 115.5 122.648438 115.148438 123.25 115.148438 123.25 C 114.800781 123.550781 115.351562 124.101562 115.351562 124.101562 C 115.75 124.199219 115.101562 124.5 115.101562 124.5 C 115.199219 125 115.5 125.148438 115.5 125.148438 C 115.199219 125.648438 115.699219 125.898438 115.699219 125.898438 L 115.75 126.75 L 116.101562 126.949219 L 116.101562 127.550781 L 116.300781 127.898438 L 117.101562 127.898438 L 117.101562 126.601562 C 116.351562 125.800781 117.648438 125.601562 117.699219 125.898438 C 117.75 126.199219 118.300781 126.398438 118.300781 126.398438 C 118.398438 127.148438 119.300781 127.601562 119.5 126.800781 C 119.75 126.050781 120 126.5 120.101562 126.851562 C 120.25 127.25 121.199219 128.101562 121.199219 128.101562 L 121.949219 128.101562 L 122.050781 128.800781 C 122.898438 128.75 123.148438 128.800781 123.5 130 C 123.636719 130.695312 124.132812 131.265625 124.800781 131.5 L 125.5 131.449219 C 125.5 130.800781 126.199219 131.550781 126.199219 131.851562 C 126.199219 132.148438 127.550781 133.300781 127.550781 133.300781 L 128.898438 133.601562 L 130.148438 134.601562 L 131.101562 134.5 L 131.5 134.5 C 131.75 133.648438 132.949219 134.550781 133 134.851562 C 133.050781 135.148438 133.898438 135.699219 134 135.449219 C 134.101562 135.199219 134.648438 135.351562 134.75 136.101562 C 134.851562 136.851562 135.25 136.699219 135.25 136.699219 L 138.050781 136.648438 L 139.050781 135.800781 L 141.601562 135.75 C 142.898438 135.699219 142.101562 133.898438 141.851562 133.898438 C 141.398438 133.550781 142 132.101562 142 132.101562 L 138.351562 128.699219 C 137.5 128.699219 138.25 127.5 138.25 127.5 C 138.898438 127.101562 138.101562 126.398438 138.101562 126.398438 C 138.199219 125.800781 137.75 125.101562 137.75 125.101562 C 136.851562 124.5 137.101562 123.351562 137.101562 123.351562 L 137.101562 122.5 C 136.351562 121.800781 137.398438 121.699219 137.398438 121.699219 C 137.75 121.101562 137.148438 120.648438 137.148438 120.648438 L 137.148438 120 L 136.300781 119.898438 L 136.199219 117.5 L 134.398438 114.949219 C 134.050781 114.851562 134.300781 114.199219 134.300781 114.199219 C 134.800781 113.949219 134.199219 113.351562 134.199219 113.351562 L 134.199219 112.25 L 135.199219 112.148438 L 135.449219 111.75 L 135.949219 111.75 L 135.949219 110.449219 C 136.148438 109.75 136.75 110.101562 136.75 110.101562 L 137.449219 110.148438 L 137.851562 109.398438 L 137.949219 108.800781 L 137.449219 108.800781 C 136.800781 108.398438 137.101562 107.101562 137.101562 107.101562 C 138.101562 105.648438 139.148438 106.5 139.148438 106.5 L 139.851562 106.449219 C 140.898438 107.148438 139.949219 108.449219 139.949219 108.449219 C 139.75 108.75 139.851562 109.699219 139.851562 109.699219 L 140.101562 111.351562 L 139.449219 111.851562 C 138.949219 112.199219 138.949219 112.898438 139.5 113.050781 C 139.898438 113.101562 139.75 114.050781 139.148438 113.398438 C 138.25 113.398438 139.648438 114.199219 139.25 114 C 140.148438 114.5 139.949219 113.601562 139.949219 113.601562 L 141.148438 112.648438 C 141.648438 112.300781 142.398438 113.398438 142.398438 113.550781 C 142.398438 113.699219 144.398438 113.601562 144.398438 113.601562 C 144.898438 113.949219 145.148438 114.898438 145.148438 114.898438 C 145.648438 114.148438 146.851562 114.851562 146 115.25 C 146.800781 115.75 146.800781 116.199219 146.800781 116.199219 C 147.449219 116 147.449219 116.5 147.449219 116.648438 L 147.648438 115.898438 C 146.898438 115.351562 148.648438 115.148438 148.148438 116.148438 L 147.851562 116.601562 L 148.351562 117 L 148.351562 118.148438 C 149.5 118.050781 149.199219 116.699219 149.199219 116.699219 L 149.699219 116.601562 C 149.699219 116.101562 150.050781 116.398438 150.050781 116.398438 C 149.699219 114.699219 150.851562 114.398438 150.851562 114.398438 C 151.5 114.199219 151.550781 112.851562 151.550781 112.851562 C 151.050781 112.648438 151.351562 111.949219 151.851562 112.550781 C 152.351562 113.148438 151.550781 111.351562 151.550781 111.351562 L 151.148438 111 L 150.601562 110.949219 L 150.550781 110.398438 L 149.648438 110.398438 L 149.5 111.101562 L 149.148438 111.199219 L 149.050781 111 L 148.898438 111.5 L 148 111.5 L 147.949219 110.949219 L 148.449219 110.800781 L 148.699219 110.5 L 148.851562 109.648438 L 149.5 109.648438 L 150.351562 109.398438 C 150.351562 108.550781 150.851562 108.75 150.851562 108.75 L 151.148438 109 L 151.601562 109.351562 L 151.601562 109.648438 L 151.351562 109.800781 L 151.300781 110.199219 L 151.449219 110.800781 L 151.800781 110.800781 C 151.949219 109.949219 153 109.949219 153.300781 110.5 L 153.601562 109.75 C 152.898438 109.398438 153.601562 108.851562 153.800781 109.101562 C 154 109.351562 154.449219 108.449219 154.449219 108.449219 C 154.449219 108.449219 154.800781 108.949219 154.449219 108.300781 C 154.101562 107.699219 154.699219 107.398438 154.699219 107.398438 C 154.601562 106.800781 155.351562 106.898438 155.351562 106.898438 L 155.398438 106.050781 L 154.699219 106.050781 C 154.550781 106.75 153.949219 106.101562 154.25 105.949219 C 154.550781 105.800781 154.851562 105.5 154.851562 105.5 L 154.851562 105 L 155.148438 104.898438 L 155.199219 104.398438 L 155.949219 104.398438 L 156.601562 104.101562 L 156.75 103.851562 L 157.449219 103.800781 L 158.449219 102.898438 L 158.351562 102.5 C 157.75 102.5 158.351562 102 158.351562 102 Z M 158.449219 101.25 "/>
<path style=" stroke:none;fill-rule:nonzero;fill:rgb(100%,100%,100%);fill-opacity:1;" d="M 138.351562 111.300781 L 137.449219 111.199219 L 137.5 111.550781 L 137.75 111.550781 C 138.148438 112.25 137.800781 113.949219 137.800781 113.949219 C 137.800781 113.949219 137.199219 114 137.101562 113.699219 C 137 113.398438 136.75 114.351562 136.949219 114.550781 C 137.148438 114.75 137.851562 114.550781 137.949219 115.050781 C 137.949219 115.648438 138.351562 114.75 138.351562 114.75 Z M 138.351562 111.300781 "/>
<path style=" stroke:none;fill-rule:nonzero;fill:rgb(100%,100%,100%);fill-opacity:1;" d="M 138.351562 115.601562 L 138.648438 115.550781 L 138.699219 115.199219 L 137.949219 115.699219 L 137.449219 115.398438 L 137.449219 116.601562 L 138.25 117.648438 L 138.550781 116.949219 L 138.648438 116.5 L 138.300781 116.351562 Z M 138.75 118.800781 L 138.75 118.300781 L 138.398438 118.300781 L 138.398438 118.75 Z M 138.300781 121.199219 L 138.300781 120.851562 L 137.898438 120.898438 L 137.898438 121.25 Z M 138.898438 119.648438 C 139.023438 119.648438 139.125 119.550781 139.125 119.425781 C 139.125 119.300781 139.023438 119.199219 138.898438 119.199219 C 138.835938 119.199219 138.777344 119.226562 138.738281 119.273438 C 138.699219 119.324219 138.683594 119.390625 138.699219 119.449219 C 138.699219 119.550781 138.765625 119.617188 138.898438 119.648438 "/>
<path style=" stroke:none;fill-rule:nonzero;fill:rgb(100%,100%,100%);fill-opacity:1;" d="M 139.449219 120.5 C 139.449219 120.390625 139.359375 120.300781 139.25 120.300781 C 139.140625 120.300781 139.050781 120.390625 139.050781 120.5 C 139.050781 120.609375 139.140625 120.699219 139.25 120.699219 C 139.359375 120.699219 139.449219 120.609375 139.449219 120.5 Z M 139.449219 120.5 "/>
<path style=" stroke:none;fill-rule:nonzero;fill:rgb(100%,100%,100%);fill-opacity:1;" d="M 139.449219 114.699219 C 139.449219 114.589844 139.359375 114.5 139.25 114.5 C 139.140625 114.5 139.050781 114.589844 139.050781 114.699219 C 139.050781 114.808594 139.140625 114.898438 139.25 114.898438 C 139.359375 114.898438 139.449219 114.808594 139.449219 114.699219 Z M 139.449219 114.699219 "/>
<path style=" stroke:none;fill-rule:nonzero;fill:rgb(100%,100%,100%);fill-opacity:1;" d="M 156.199219 107.25 L 155.699219 107.199219 L 155.550781 107.449219 L 155.300781 107.449219 L 155.300781 107.851562 L 155.550781 107.851562 L 155.601562 108.148438 L 155.398438 108.351562 L 155.300781 108.601562 L 154.898438 108.699219 L 154 109.550781 L 154 109.949219 L 153.699219 110.300781 L 153.398438 111.101562 L 152.398438 111.101562 L 152.148438 112.050781 L 152.300781 112.800781 L 153.199219 113.148438 L 153.300781 112.648438 L 153.601562 112.5 L 153.648438 112 L 153.851562 111.648438 L 154.148438 111.300781 L 154.25 110.898438 L 154.75 110.601562 L 155.351562 110.449219 L 155.601562 110.148438 L 155.699219 109.550781 L 155.699219 109.101562 L 155.949219 108.800781 L 156.550781 108.550781 L 156.550781 107.550781 L 156.25 107.550781 Z M 157.601562 110.699219 L 157.601562 109.949219 L 157.5 109.300781 L 156.75 108.949219 L 156.25 109.449219 L 156.101562 110.148438 L 156.101562 110.648438 L 155.601562 110.75 L 155.5 112.101562 L 155.101562 112.25 L 155.148438 112.75 L 154.648438 112.898438 L 154.050781 113.050781 L 153.949219 113.699219 L 153.550781 113.949219 L 153.351562 114.601562 L 153.101562 116.050781 C 153.101562 116.050781 153.601562 116.898438 153.800781 116.5 C 154.050781 116.101562 154.449219 116 154.449219 116 L 154.601562 115.699219 L 155.949219 115.699219 C 156.050781 115.199219 156.699219 115.398438 156.699219 115.648438 C 156.699219 115.898438 157.199219 115.648438 157.199219 115.648438 L 157.550781 115.148438 L 158.101562 115.148438 L 158.148438 114.5 L 158.398438 114.351562 L 158.398438 113.5 C 159.199219 113.25 159.101562 112.5 159.101562 112.5 L 159.300781 112.25 L 159.199219 111.898438 C 158.800781 111.75 159 111.398438 159.25 111.5 C 159.5 111.601562 158.898438 111 158.898438 111 C 158.601562 111.300781 158.398438 110.75 158.398438 110.75 Z M 158.398438 116.800781 C 158.398438 117.398438 157.601562 117.601562 157.601562 117.601562 L 157.101562 117.449219 L 156.75 117.199219 L 156.75 116.5 L 157.148438 116.449219 L 157.25 116.75 Z M 161.101562 113.550781 C 161.199219 114.050781 161.199219 112.851562 161.398438 112.898438 C 161.601562 112.949219 161.449219 112.199219 161.449219 112.199219 L 160.550781 112.851562 C 161 112.898438 161.050781 113.351562 161.101562 113.550781 M 163.75 110.949219 C 163.949219 111.398438 163.898438 112.050781 164.648438 112.550781 C 164.898438 112.699219 164.5 113.050781 164.25 112.898438 L 163.25 111.648438 L 163.25 111 C 163.449219 110.601562 163.648438 110.75 163.75 110.949219 M 163.898438 126.449219 L 164.050781 126.699219 L 164.398438 126.199219 L 164.101562 126.050781 L 163.75 126.300781 Z M 162.5 125.5 L 162.5 126.101562 M 169.699219 124.800781 L 170.101562 124.550781 L 169.949219 124.25 L 169.550781 124.5 Z M 184.148438 135.300781 L 184.601562 135.550781 L 184.601562 136.398438 C 185.25 137 187.199219 136.5 187.199219 136.351562 L 187.101562 134.449219 L 186.851562 134.199219 L 186.800781 132.949219 C 187 132.300781 185.800781 131.351562 185.75 131.550781 C 185.699219 131.75 185 131.550781 185 131.800781 C 185 132.050781 184.601562 133 184.800781 133.351562 C 185 133.699219 184.648438 133.699219 184.601562 134.050781 C 184.550781 134.398438 184.050781 135.050781 184.101562 135.351562 Z M 183.050781 133.300781 C 182.949219 133.699219 182.550781 133.898438 182.398438 133.800781 C 182.199219 133.601562 182.648438 134 182.75 134.199219 C 182.917969 134.398438 183.082031 134.398438 183.25 134.199219 C 183.351562 134 183.25 133.550781 183.398438 133.351562 C 183.550781 133.148438 183.101562 133.101562 183.050781 133.351562 Z M 180.699219 124 L 181.050781 124 L 181.050781 125 L 180.699219 125 Z M 185.898438 114.300781 C 185.648438 114 186.898438 113.449219 187.101562 114.101562 C 187.300781 114.75 187.101562 114.601562 186.898438 114.550781 C 186.699219 114.5 186.199219 114.699219 185.898438 114.300781 M 186.949219 107.5 L 186.949219 107.800781 L 187.449219 107.898438 L 187.5 107.601562 Z M 184.699219 108.300781 L 185.101562 108.550781 L 185.25 108.550781 L 185.550781 108.351562 L 185.550781 108.449219 L 185.851562 108.351562 L 185.75 108.101562 L 185.75 107.949219 L 185.550781 108 L 185.199219 108.25 L 184.851562 108 Z M 187.5 96 L 186.75 96 C 186.75 96 187 96.101562 186.25 95.449219 C 185.601562 94.800781 185.148438 95.601562 185.148438 95.601562 L 184.351562 95.699219 L 184.351562 96.5 L 183.949219 96.648438 L 183.949219 97.148438 L 184.550781 97.148438 C 184.550781 97.148438 184.550781 97.699219 184.699219 97.449219 C 184.851562 97.199219 186.101562 97.5 186 98.148438 C 185.949219 98.398438 187.25 99.050781 187.101562 99.851562 C 187.75 99.949219 187.601562 100.601562 187.601562 100.601562 L 188.449219 100.699219 L 188.699219 100.199219 L 188.949219 100.25 L 188.949219 99.949219 L 188.398438 99.800781 L 188.300781 98.148438 L 187.949219 97.898438 L 188.050781 97.5 L 187.648438 97.351562 L 187.851562 96.699219 Z M 189.648438 101.148438 L 189.25 101.148438 L 188.351562 101.25 L 187.851562 102.25 C 187.851562 102.25 188.101562 102.398438 188.351562 102.75 C 188.5 103.101562 188.601562 105.148438 188 105.5 C 187.398438 105.851562 188.050781 105.648438 188.050781 105.648438 L 187.949219 106.800781 C 188.101562 107.300781 188.351562 107.050781 188.5 106.800781 C 188.648438 106.550781 188.800781 106.5 189 106.25 C 189.199219 106 189.5 105.5 189.550781 105.148438 C 189.601562 104.800781 189.851562 104.25 189.699219 104.101562 C 189.550781 103.949219 189.851562 103.25 189.851562 103.25 C 189.851562 103.25 190.050781 102.851562 189.851562 102.449219 C 189.648438 102.050781 189.898438 101.550781 190.050781 101.351562 Z M 190.25 103.25 L 190.300781 102.851562 L 190.601562 102.851562 L 190.601562 103.25 Z M 190.25 104.648438 L 190 104.5 L 190.148438 104.199219 L 190.398438 104.351562 Z M 189.800781 100.648438 L 189.601562 100.148438 C 189.601562 100.148438 189.601562 99.75 189.699219 99.550781 C 189.800781 99.351562 189.5 99.148438 189.351562 99.050781 C 189.199219 99.050781 189.25 98.648438 189.199219 98.449219 C 189.148438 98.25 188.800781 98.101562 188.800781 98.101562 L 188.699219 97.148438 C 188.699219 97 188.25 96.800781 188.398438 96.648438 L 188.800781 96.199219 C 188.949219 96.101562 188.648438 95.398438 188.898438 95.550781 C 189.101562 95.714844 189.214844 95.917969 189.25 96.148438 C 189.351562 96.351562 189.25 97.050781 189.449219 97.199219 C 189.648438 97.351562 189.449219 97.898438 189.800781 97.898438 C 190.199219 97.898438 189.949219 98.851562 189.949219 98.851562 C 189.949219 98.851562 189.851562 99.550781 190.101562 99.601562 C 190.351562 99.648438 190.199219 100.851562 190.199219 100.851562 Z M 186.601562 92.398438 C 186.75 92.601562 187.050781 92.75 187.050781 92.949219 C 187.050781 93.148438 186.949219 93.300781 187.25 93.351562 C 187.550781 93.351562 187.75 93.417969 187.851562 93.550781 C 187.949219 93.800781 187.949219 94.25 187.851562 94.449219 C 187.851562 94.714844 187.964844 94.882812 188.199219 94.949219 C 188.550781 95.050781 188.5 94.949219 188.5 95.148438 C 188.5 95.300781 188.800781 94.601562 188.800781 94.601562 C 188.550781 94.398438 188.300781 93.949219 188.300781 93.949219 L 188.101562 93.101562 C 188.101562 93 187.75 92.898438 187.601562 92.851562 C 187.449219 92.800781 187.199219 92.351562 187.199219 92.351562 Z M 187.101562 91.949219 C 186.964844 91.75 186.800781 91.601562 186.601562 91.5 C 186.398438 91.398438 186.214844 91.332031 186.050781 91.300781 C 185.933594 91.292969 185.828125 91.230469 185.765625 91.128906 C 185.707031 91.03125 185.699219 90.90625 185.75 90.800781 C 185.851562 90.601562 185.601562 90.5 185.601562 90.300781 C 185.601562 90.101562 185.75 90.101562 186 90.25 C 186.25 90.398438 186.199219 90.449219 186.398438 90.699219 C 186.601562 90.949219 186.699219 91.199219 186.898438 91.148438 C 187.101562 91.101562 187.25 91.601562 187.398438 91.449219 C 187.648438 91.300781 187.601562 91.800781 187.601562 91.800781 Z M 181.25 97.648438 C 181.5 97.949219 179.75 97.851562 179.75 97.648438 C 179.75 97.449219 179.898438 96.75 180.351562 96.898438 C 180.800781 97.050781 180.851562 96 180.851562 96 C 180.851562 96 180.449219 96.050781 180.800781 95.851562 C 181.148438 95.648438 180.800781 95.351562 180.648438 95.199219 L 180.351562 94.800781 L 181.050781 94.800781 C 181.351562 94.601562 181.449219 93.648438 181.449219 93.648438 C 182.050781 93.851562 182.351562 93.398438 182.351562 93.398438 L 182.648438 94 C 182.851562 94.25 182.148438 94.351562 182.398438 94.5 C 182.648438 94.648438 182.75 95.101562 182.648438 95.25 C 182.550781 95.398438 182 95.25 182 95.101562 C 182 94.949219 181.800781 95.351562 182 95.601562 C 182.199219 95.851562 181.75 96.199219 181.648438 96.199219 C 181.550781 96.199219 180.898438 96.300781 181.449219 96.601562 C 181.949219 96.898438 182.601562 96.75 182.601562 96.75 C 182.601562 96.75 183.050781 96.75 183.199219 96.949219 C 183.300781 97.183594 183.199219 97.285156 182.898438 97.25 L 181.398438 97.148438 C 181.398438 97.148438 181.101562 97.5 181.25 97.648438 M 178.050781 98.148438 C 178.300781 98.101562 178.898438 98.050781 179.050781 98.148438 C 179.101562 98.351562 178.648438 98.550781 178.648438 98.550781 L 178.050781 98.648438 C 177.816406 98.351562 177.816406 98.183594 178.050781 98.148438 M 184.5 93.898438 C 184.898438 93.699219 185.75 93.699219 185.699219 93.398438 C 185.648438 93.101562 186.199219 92.949219 186.199219 92.949219 L 186.351562 93.550781 L 186.800781 93.898438 L 186.800781 94.398438 L 186.449219 94.5 C 185.898438 94.648438 186.25 94.898438 186.25 94.898438 L 185 94.898438 L 184.851562 94.398438 L 184.449219 93.898438 Z M 182.5 91.148438 C 182.851562 91.148438 182.449219 92.300781 183.25 92.199219 C 184.050781 92.101562 183.25 92.550781 183.898438 92.601562 C 184.5 92.648438 184.351562 92.148438 184.550781 91.800781 C 184.75 91.464844 184.667969 91.25 184.300781 91.148438 C 183.949219 91.050781 183.949219 91.050781 183.800781 90.648438 C 183.75 90.25 183.300781 90.148438 183.300781 90.148438 L 183.199219 89.550781 L 182.550781 89.949219 L 181.898438 90.800781 C 181.898438 91.449219 182.25 91.148438 182.550781 91.148438 Z M 183.851562 95.398438 L 184 95.101562 L 184.300781 95.25 L 184.148438 95.550781 Z M 183.351562 94.898438 L 183.648438 94.898438 L 183.648438 95.300781 L 183.351562 95.300781 Z M 183.601562 88.199219 L 183.601562 88.648438 L 183.351562 88.648438 L 183.300781 88.25 Z M 182.75 92.898438 L 183.050781 92.898438 L 183.050781 93.148438 L 182.75 93.148438 Z M 181.949219 92.898438 L 181.949219 92.601562 L 182.449219 92.601562 L 182.449219 92.851562 Z M 177.851562 97.800781 L 177.550781 97.648438 L 177.699219 97.300781 L 178 97.449219 Z M 176.25 96.851562 L 176.25 96.550781 L 176.75 96.550781 L 176.75 96.800781 Z M 167.601562 96.75 L 166.5 96.800781 L 166.5 97.101562 L 167.648438 97.101562 Z M 165.800781 97.199219 L 165.699219 96.75 L 166 96.699219 L 166.101562 97.148438 Z M 165.601562 97.5 L 165.5 97.25 L 165.648438 97.199219 L 165.75 97.449219 Z M 168.101562 96.648438 L 168.050781 97 L 168.550781 97.050781 C 168.550781 97.050781 168.800781 97.25 168.800781 97.398438 C 168.800781 97.550781 169.148438 97.699219 169.351562 97.699219 C 169.550781 97.699219 170.101562 97.300781 170.101562 97.300781 C 170.101562 97.300781 170.351562 96.601562 170.148438 96.648438 C 169.949219 96.699219 169.550781 97 169.5 96.699219 C 169.5 96.398438 168.851562 96.550781 168.851562 96.550781 Z M 170.601562 96.148438 C 170.601562 96.25 170.449219 96.449219 170.75 96.5 C 171.050781 96.550781 171.601562 96.300781 171.648438 96.601562 C 171.699219 96.898438 171.699219 97.101562 172.148438 97.25 L 173.050781 97.449219 L 174.050781 97.351562 C 174.050781 97.351562 174.699219 97.5 174.851562 97.601562 C 175.382812 98.199219 175.734375 98.367188 175.898438 98.101562 C 176.050781 97.851562 175.898438 97.25 175.800781 97.101562 C 175.800781 96.851562 175.050781 95.898438 174.800781 96.101562 C 174.550781 96.300781 174.5 96.101562 174.050781 96.25 C 173.601562 96.398438 172.648438 96.300781 172.601562 96.101562 C 172.601562 95.898438 171.851562 95.800781 171.851562 95.601562 C 171.851562 95.398438 171.351562 95.101562 171.398438 95.449219 C 171.449219 95.800781 171.050781 95.898438 170.949219 95.800781 C 170.851562 95.699219 170.550781 96.101562 170.550781 96.101562 Z M 182.050781 89.648438 L 182.398438 88.5 C 181.898438 88.398438 182 87.851562 182 87.851562 C 181.949219 87.351562 181.25 86.851562 181 87.050781 C 180.75 87.25 180.851562 86 180.851562 86 C 180.851562 86 181.300781 85.699219 181.5 85.851562 C 181.699219 86 179.800781 83.300781 179.398438 83.550781 C 179 83.800781 178.101562 83.300781 178.148438 82.851562 C 178.199219 82.351562 176.351562 80.851562 176.351562 80.851562 C 176.351562 80.851562 175.75 80.449219 175.648438 80.75 C 175.550781 81.050781 175.351562 81.25 175.648438 81.449219 C 175.949219 81.648438 175.898438 81.199219 176.25 81.550781 C 176.601562 81.898438 177.25 82.351562 177 82.648438 C 176.699219 82.917969 176.535156 83.050781 176.5 83.050781 L 176.800781 83.449219 L 177.351562 83.449219 L 177.449219 84.300781 C 177.449219 84.300781 178.050781 84.601562 178.199219 84.949219 C 178.332031 85.285156 178.332031 85.550781 178.199219 85.75 C 178.050781 85.949219 177.75 86.25 177.800781 86.648438 C 177.851562 87 178.300781 87.148438 178.300781 87.148438 L 178.648438 87.148438 L 178.949219 87.351562 L 178.949219 88 C 179.351562 87.898438 180 88.5 179.949219 88.800781 C 179.949219 89.148438 180.050781 88.949219 180.550781 89.300781 C 181.050781 89.648438 180.898438 89.699219 181.25 90 C 181.617188 90.234375 181.882812 90.101562 182.050781 89.601562 Z M 182.050781 89.648438 "/>
<path style=" stroke:none;fill-rule:nonzero;fill:rgb(100%,100%,100%);fill-opacity:1;" d="M 173.75 82.800781 C 173.75 82.601562 173.601562 81.898438 173.898438 81.949219 C 174.199219 81.949219 174 81.949219 174.398438 82.101562 C 174.800781 82.25 174.75 81.851562 174.75 81.851562 L 175.300781 81.851562 L 176 82.351562 L 175.898438 82.851562 L 175.398438 82.851562 C 175.148438 82.5 174.648438 82.648438 174.75 83 C 174.851562 83.351562 174.5 84 174.300781 84.050781 C 174.101562 84.101562 173.449219 84.101562 173.5 83.800781 Z M 173.351562 81.449219 L 173.351562 81 C 173.351562 81 173.351562 80.601562 173.050781 80.601562 C 172.75 80.601562 172.351562 80.300781 172.449219 80.101562 C 172.550781 79.898438 171.601562 79.699219 171.601562 79.699219 C 171.601562 79.699219 170.75 78.898438 171.101562 79 C 171.351562 79.101562 171.199219 78.648438 171.199219 78.648438 C 171.199219 78.648438 170.601562 78.75 170.449219 78.648438 C 170.300781 78.648438 170.351562 78.148438 170.351562 78.148438 C 170.351562 78.148438 169.75 78.050781 169.75 78.148438 C 169.75 78.25 169.949219 78.351562 170.050781 78.648438 C 170.148438 78.949219 170.101562 79.449219 170.550781 79.550781 C 171 79.648438 171.101562 79.75 171.148438 79.949219 C 171.199219 80.148438 171.75 80.199219 171.75 80.199219 L 172.148438 80.398438 Z M 168 76.25 L 167.851562 75.851562 L 167.449219 75.75 L 167.449219 76.25 Z M 167.851562 74.148438 C 167.351562 73.75 168.550781 74.449219 168.550781 74.449219 C 168.949219 74.449219 169.199219 74.75 169.199219 74.898438 C 169.199219 75.050781 169.699219 75 169.699219 75 L 169.75 74.648438 L 169.351562 74.148438 L 169 73.898438 C 169 73.898438 168.5 73.851562 168.5 73.699219 C 168.5 73.550781 168 74.300781 167.800781 74.148438 Z M 177 74.449219 C 176.851562 74.898438 176.800781 75.5 176.550781 75.5 C 176.300781 75.5 176.398438 76.148438 176.398438 76.148438 L 177.25 76.199219 C 177.449219 76.25 177.449219 76.75 177.449219 76.75 C 178.199219 76.75 178.5 77.75 178.449219 78 C 178.300781 78.25 178.699219 78.25 178.699219 78.25 C 178.699219 78.25 178.699219 79.050781 178.601562 79.25 C 178.5 79.449219 179.25 79.601562 179.449219 79.898438 C 179.648438 80.199219 179.351562 81.199219 179.199219 81.25 C 179.050781 81.300781 179.601562 81.5 179.550781 81.75 C 179.5 82 179.699219 81.75 179.75 82.148438 L 179.898438 83.398438 L 180.601562 83.449219 C 180.699219 82.800781 182 82.75 182.199219 82.851562 C 183.050781 83.148438 183.699219 84.449219 183.699219 84.75 C 183.699219 85.050781 183.148438 85.101562 183.148438 85.101562 L 183.25 86.601562 C 184.101562 86.851562 184.75 88.101562 184.699219 88.25 C 184.601562 88.449219 185.300781 88.398438 185.300781 88.398438 C 185.398438 87.5 186.25 87.800781 186.300781 88.101562 C 186.300781 88.398438 186.5 89.101562 186.5 89.101562 L 186.75 89.5 L 187.101562 89.851562 L 187.601562 89.851562 L 187.800781 90.148438 L 188.398438 90.25 C 188.398438 90.25 188.949219 90.851562 189 91 C 189.050781 91.148438 189.800781 91.101562 190 91.148438 C 190.265625 91.148438 190.449219 91.300781 190.550781 91.601562 C 190.601562 91.851562 190.898438 92.25 190.898438 92.25 C 190.898438 92.25 191.5 92.398438 191.550781 92.601562 L 191.851562 93.25 L 192.351562 93.648438 L 192.398438 94.148438 L 192.949219 94.148438 L 193.101562 94.800781 L 194 94.75 L 194.5 94.398438 C 194.964844 94.171875 195.359375 93.828125 195.648438 93.398438 C 195.699219 93.148438 195.800781 92.398438 196.300781 92.550781 C 196.800781 92.699219 196.449219 91.449219 196.449219 91.449219 C 196.449219 91.449219 195.75 90.949219 195.800781 90.699219 C 195.851562 90.449219 195.101562 89.949219 195.148438 89.699219 C 195.199219 89.550781 194.5 89.101562 194.550781 88.898438 C 194.601562 88.699219 194.199219 88.148438 194.199219 88.148438 L 193.5 87.5 L 193.398438 87 L 192.800781 87 L 191.601562 85.5 L 191.648438 85.101562 L 191.300781 85.101562 L 191.300781 84.5 L 190.949219 84.300781 L 190.449219 84.300781 L 189.300781 83.050781 L 189.199219 82.5 L 188.699219 82.5 L 188.800781 81.449219 C 189.148438 80.949219 188.949219 80.101562 188.949219 80.101562 C 188.949219 80.101562 188.25 80.449219 187.898438 80.300781 C 187.550781 80.148438 188.050781 79.800781 188.050781 79.800781 L 188.050781 79.398438 L 187.75 79.101562 C 187.75 79.101562 186.898438 79.199219 186.851562 79.050781 L 186.648438 78.25 L 186.601562 77.398438 L 186.25 77.25 L 186.199219 76.898438 L 185.648438 76.949219 L 185.648438 76.351562 L 185.351562 76.25 L 185.050781 76.101562 L 185 75.5 L 183.898438 75.449219 L 183.550781 74.949219 L 183.148438 74.351562 L 181.898438 74.25 L 181.601562 73.949219 L 181.101562 73.851562 L 180.75 73.699219 L 180.601562 73.949219 L 179.601562 73.949219 L 179.601562 74.300781 C 179.101562 74.550781 177.101562 74.300781 177.101562 74.5 Z M 182.25 73.101562 C 182.148438 72.75 183.25 72.351562 183.5 72.648438 C 183.75 72.949219 184.449219 73 184.5 74.550781 C 184.550781 75.050781 183.648438 74 183.648438 74 L 182.898438 73.75 C 182.5 73.617188 182.285156 73.417969 182.25 73.148438 Z M 167.601562 73.75 L 167.351562 73.601562 L 167.550781 73.148438 L 167.800781 73.300781 Z M 165.050781 68.75 L 164.398438 68.101562 L 164.398438 67.601562 L 164.199219 67.351562 L 164 66.648438 L 163.351562 66.449219 L 162.699219 66.699219 L 162 67.148438 L 161.25 67.25 L 160.851562 67.75 L 162.449219 67.851562 L 162.75 68.351562 L 163.898438 68.449219 L 164.648438 69.199219 C 165.300781 69.449219 165.449219 69.101562 165.050781 68.75 M 164.949219 66.25 C 164.851562 65.851562 164.199219 66.851562 164.851562 67.050781 C 165.5 67.25 166.148438 67.050781 166.148438 67.050781 L 166.300781 66.75 L 168.800781 66.800781 C 169 66.601562 169.101562 66.300781 169.101562 66.300781 C 169.101562 66.300781 169.699219 66.101562 169.949219 66.199219 C 170.199219 66.300781 169.949219 65.5 169.75 65.601562 C 169.550781 65.699219 169 65.601562 169 65.601562 L 168.101562 65.601562 C 168.050781 65.300781 167.25 65.449219 167.199219 65.601562 C 167.148438 65.851562 166.851562 65.898438 166.851562 65.898438 L 165.699219 66 C 165.601562 66.300781 165 66.5 164.949219 66.300781 Z M 160 74.851562 C 160.75 75.101562 161.050781 74.851562 161.101562 74.699219 C 161.101562 74.535156 161.234375 74.433594 161.5 74.398438 C 161.800781 74.351562 161.449219 73.75 161.148438 73.800781 C 160.816406 73.800781 160.601562 73.683594 160.5 73.449219 C 160.449219 73.148438 159.949219 72.5 159.898438 73 C 159.851562 73.5 159.550781 73.5 159.601562 73.898438 C 159.648438 74.25 159.800781 74.75 160 74.851562 M 154.25 75.398438 C 154.25 75.199219 155.25 75.199219 155.398438 75.351562 C 155.550781 75.5 155.449219 75.75 155.898438 75.75 C 156.351562 75.75 156.148438 76.050781 156.101562 76.25 C 156.101562 76.351562 155.601562 76.300781 155.5 76.148438 C 155.5 76 154.699219 75.949219 154.699219 75.949219 C 154.699219 75.949219 154.300781 75.648438 154.25 75.398438 M 171.25 64.550781 L 170.851562 64.851562 L 170.601562 64.601562 L 170.351562 64.851562 L 170.800781 65.300781 L 170.898438 65.199219 L 171.398438 64.800781 Z M 168.5 63.648438 L 168.148438 63.449219 L 168 63.699219 L 168.398438 63.949219 L 168.550781 63.949219 L 169.101562 63.601562 L 168.949219 63.351562 Z M 166.851562 74.050781 L 166.351562 74 L 166.351562 74.300781 L 166.75 74.300781 L 167.050781 74.800781 L 167.300781 74.648438 L 166.949219 74.148438 Z M 150.351562 88.148438 L 150.398438 88.699219 L 151.148438 88.699219 C 151.449219 88.699219 150.898438 88.351562 150.898438 88.351562 C 150.898438 88.351562 150.300781 88.398438 150.398438 88.148438 Z M 151.351562 88.148438 L 151.5 87.949219 L 151.800781 88.199219 L 151.601562 88.398438 Z M 142.25 78.699219 L 142.449219 78.5 L 142.75 78.800781 L 142.550781 79 Z M 156.75 143.851562 L 156.25 143.601562 L 156.101562 143.851562 L 156.398438 144 L 156.300781 144.101562 L 156.5 144.351562 L 156.75 144.101562 L 156.898438 143.949219 Z M 152.851562 140.199219 L 152.648438 139.949219 L 152.351562 140.199219 L 152.199219 140.351562 L 152.398438 140.449219 L 152.75 140.699219 L 152.898438 140.449219 L 152.699219 140.300781 Z M 189.949219 130.601562 C 189.898438 130.351562 189.601562 130.25 189.550781 130.199219 L 189.449219 130.5 L 189.550781 130.550781 L 189.601562 130.800781 L 189.550781 130.898438 L 189.75 131.101562 C 189.949219 130.933594 190.015625 130.765625 189.949219 130.601562 M 190.449219 129.601562 L 189.949219 129.601562 L 189.949219 129.148438 L 190.449219 129.25 Z M 201.949219 125.699219 C 202.199219 125.550781 202.449219 125.300781 202.449219 125.898438 C 202.398438 126.449219 202.148438 126.25 201.949219 126.449219 C 201.800781 126.648438 201.648438 125.898438 201.949219 125.699219 M 204.5 123.550781 Z M 204.5 123.550781 L 204.398438 123.199219 L 204.148438 123.351562 L 204.199219 123.550781 C 204.199219 123.648438 204.234375 123.734375 204.300781 123.800781 C 204.332031 123.867188 204.398438 123.867188 204.5 123.800781 L 204.449219 123.550781 Z M 203.851562 123.800781 L 204.050781 124.398438 L 204.300781 124.300781 L 204.148438 123.699219 Z M 202.75 125 L 202.449219 125 C 202.449219 125.199219 202.449219 125.5 202.699219 125.5 L 202.800781 125.25 Z M 201.449219 119 L 201.25 118.75 C 201.015625 118.683594 200.765625 118.75 200.5 118.949219 L 200.648438 119.199219 C 200.882812 119.066406 201.050781 119 201.148438 119 Z M 187.601562 102.800781 C 187.398438 103 186.949219 103.101562 186.949219 103.101562 L 186.800781 103.601562 L 186.601562 103.851562 L 186.601562 104.351562 C 186.601562 104.699219 186.101562 104.898438 186.101562 104.898438 L 185.898438 105.148438 L 184.550781 105.148438 C 184.050781 104.949219 184.398438 104.351562 184.699219 104.398438 C 185 104.449219 184.648438 103.550781 184.648438 103.550781 L 185.050781 103.5 C 185.050781 103.5 185.050781 102.601562 185.25 102.601562 C 185.351562 102.535156 185.265625 102.367188 185 102.101562 C 184.800781 101.949219 184.5 101.449219 184.351562 101.5 L 183.351562 101.5 L 183.199219 101.800781 L 182.648438 101.898438 L 182.601562 102.398438 C 182.300781 102.800781 181.101562 103.550781 181.601562 102.300781 L 181.800781 101.949219 L 181.800781 101.5 L 180.898438 101.5 C 180.898438 101.5 180.398438 101.300781 180.398438 101.101562 L 180.398438 100.648438 L 179.351562 99.5 L 178.101562 99.351562 L 178 99.101562 L 177.25 99 C 176.351562 98.5 175.550781 98.949219 175.75 99.699219 C 175.851562 100.449219 176.101562 100.75 175.601562 100.75 C 175.101562 100.75 175 100.351562 175 100.351562 C 175 100.351562 174.601562 100.199219 174.601562 100.398438 C 174.601562 100.601562 174.449219 101 174.601562 101.199219 C 174.75 101.398438 174.398438 101.699219 174.25 101.550781 C 174.101562 101.398438 173.75 100.949219 173.800781 100.800781 C 173.898438 100.648438 173.101562 99.699219 173.898438 99.550781 C 174.699219 99.398438 173.898438 98.949219 174.148438 98.851562 L 174.550781 98.648438 L 174.949219 98.648438 L 175.199219 98.449219 L 174.550781 98.351562 L 174.148438 98.300781 L 173.398438 98.25 C 172.976562 98.492188 172.65625 98.886719 172.5 99.351562 C 172.101562 100.101562 171.148438 99.050781 171.5 98.648438 C 171.851562 98.25 170.398438 98.601562 170.148438 98.800781 C 169.898438 99 169.148438 98.898438 169.148438 98.898438 C 169 99.351562 168.300781 98.851562 168.5 98.550781 C 168.667969 98.214844 168.734375 98.050781 168.699219 98.050781 L 168.449219 97.949219 L 168.148438 98.550781 C 167.5 98.550781 167.300781 98.949219 167.398438 99.199219 C 167.550781 99.449219 167.199219 99.148438 167.101562 99.5 C 167 99.851562 167.199219 99.851562 167.449219 100 C 167.75 100.148438 167.300781 100.148438 167.5 100.398438 C 167.699219 100.648438 168.300781 100.398438 168 100.75 C 167.601562 101.101562 166.949219 100.949219 166.949219 100.949219 C 166.898438 101.449219 165.949219 101.300781 165.851562 101.148438 L 165 100.101562 L 164 100.050781 C 163.949219 99.351562 164.5 99.699219 164.699219 99.148438 C 164.898438 98.601562 165 97.648438 165 97.648438 C 165 97.648438 164.199219 97.648438 164.148438 97.851562 C 164.101562 98.050781 163.601562 98.300781 163.601562 98.300781 C 163.601562 98.300781 163.199219 98.449219 163.351562 98.648438 C 163.5 98.851562 163.050781 98.949219 163.050781 98.949219 C 163.050781 98.949219 163.101562 99.25 163 99.398438 C 162.601562 99.800781 161.601562 99.398438 161.449219 99.300781 L 160.851562 99.050781 L 160.25 98.648438 L 159.550781 98.949219 L 159.351562 99.148438 L 158.601562 99.148438 L 158.550781 99.75 L 159.898438 99.898438 L 160 101.148438 L 159.449219 100.949219 L 159.101562 100.949219 L 158.949219 100.648438 L 158.648438 100.648438 L 158.648438 101.699219 L 158.949219 101.949219 L 159.199219 102.199219 L 159.699219 102.25 L 159.800781 102.898438 L 161.050781 102.898438 L 161.199219 103.199219 L 161.949219 103.199219 L 163.398438 104.699219 L 163.300781 105.199219 L 163.050781 105.300781 C 163.148438 105.648438 162.398438 105.449219 162.398438 105.449219 L 162.398438 105.75 L 162.75 105.800781 L 163.101562 106 L 163.601562 105.148438 C 164.101562 104.800781 164.398438 105.300781 164.449219 105.648438 C 164.449219 105.898438 164.199219 105.851562 164.199219 105.851562 L 164.199219 106.601562 L 164.5 106.699219 C 165 107.300781 164.300781 107.648438 164.300781 107.648438 L 164.148438 108.148438 C 164 108.601562 163.449219 108.5 163.449219 108.5 L 163.25 108.800781 L 162.648438 108.949219 L 163.851562 109.101562 C 164.015625 108.699219 164.183594 108.601562 164.351562 108.800781 C 164.550781 109 164.550781 109.351562 164.550781 109.351562 L 164.851562 109.398438 L 164.800781 109.949219 L 165.101562 110.050781 L 165.101562 111.699219 L 165.449219 112.101562 C 166.050781 111.851562 166.050781 112.25 165.75 112.449219 C 165.449219 112.648438 165.648438 113.550781 165.648438 113.550781 L 165.398438 113.800781 L 165.398438 114.199219 L 165.101562 114.398438 L 165.101562 115 C 164.601562 114.75 164 114.851562 163.851562 115 C 163.351562 114.699219 162.449219 114.800781 162.449219 115 C 162.75 115.449219 162.101562 115.5 162.101562 115.5 L 161.75 115.949219 C 162 116.449219 161.5 116.5 161.5 116.5 L 161.5 117.5 L 160.898438 118 L 160.898438 119.351562 C 160.898438 119.699219 161.699219 119.75 161.851562 119.550781 C 162 119.351562 162.601562 119.949219 162.601562 119.949219 L 163.050781 119.949219 L 163.148438 119.050781 L 162.851562 118.898438 L 162.851562 117.398438 L 163.351562 116.898438 C 163.949219 116.648438 163.75 118.148438 163.75 118.300781 C 163.75 118.898438 164.050781 118.800781 164.25 118.699219 C 164.75 118.5 164.398438 119.300781 164 119.199219 C 163.601562 119.199219 163.851562 119.699219 163.851562 119.699219 L 164.101562 119.851562 L 163.601562 120.199219 L 163.25 120.648438 L 162.75 120.5 L 162.148438 120.449219 L 161.949219 120.101562 L 161.601562 120.050781 L 161.550781 120.75 L 161.300781 121.050781 L 160.699219 121.648438 C 161.5 121.648438 160.601562 122.199219 160.398438 122.199219 C 160.851562 122.351562 160.351562 122.800781 159.199219 122.449219 L 159.199219 122.800781 L 158.800781 122.851562 L 159.148438 123.300781 L 159.550781 123.300781 L 159.398438 124.199219 C 159.398438 124.851562 157.75 124.398438 157.601562 124.199219 L 157.601562 125.199219 L 157.25 125.199219 L 157.300781 125.800781 L 157.300781 126.648438 L 157.800781 126.550781 L 157.800781 126.898438 L 159.148438 126.949219 L 161.101562 124.898438 L 162.25 124.648438 C 162.351562 124.148438 162.851562 124.75 162.851562 124.75 C 163.351562 124.699219 163.449219 125.050781 163.449219 125.050781 L 164.101562 125.148438 C 164.601562 125.300781 164.300781 125.351562 164.351562 125.550781 C 164.351562 125.851562 164.648438 125.75 164.648438 125.75 L 164.75 125.101562 L 165.050781 125.148438 L 164.75 124.800781 L 164.199219 124.550781 L 163.601562 124.300781 C 163.199219 123.75 163.699219 123.800781 164.101562 123.898438 L 164.75 123.898438 C 164.75 123.898438 165.5 124.898438 165.5 125.148438 C 165.5 125.398438 165.851562 125.449219 165.851562 125.449219 L 166.300781 125.449219 L 166.449219 125.75 L 166.898438 125.75 L 167.050781 126.050781 L 167.949219 126.050781 L 167.949219 125.601562 L 167.148438 125.449219 L 167.101562 124.949219 L 166.5 124.800781 C 166.300781 123.949219 166.648438 123.699219 166.898438 124.101562 L 167.199219 124.101562 L 167.101562 123.398438 L 167.449219 123.300781 L 167.351562 122.199219 L 167.050781 122.101562 L 167.050781 121.75 L 168.300781 121.800781 C 168.265625 121.132812 168.265625 120.816406 168.300781 120.851562 L 168.699219 120.851562 L 168.699219 121.101562 L 170.25 121.25 L 171.351562 120 C 171.300781 119.898438 171.449219 119.851562 171.351562 119.75 C 171.148438 119.601562 170.949219 119.75 170.699219 119.601562 C 170.449219 119.449219 170.699219 118.601562 170.699219 118.351562 C 170.601562 118.148438 171.5 117.851562 171.351562 118.351562 C 171.199219 118.75 171.351562 119 171.351562 119 C 172 118.351562 172.550781 119 172.5 119.199219 C 172.5 119.351562 172.851562 119.5 173.101562 119.351562 C 173.351562 119.199219 173.648438 119.800781 173.601562 120.101562 C 173.449219 120.398438 172.601562 120.351562 172.5 120.050781 C 172.464844 119.816406 172.367188 119.800781 172.199219 120 C 172.035156 120.199219 171.765625 120.234375 171.398438 120.101562 L 171.351562 120 L 170.25 121.25 L 170.300781 121.25 C 170.898438 121.601562 170.601562 122.050781 170.398438 122.148438 C 170.199219 122.25 169.898438 122.25 169.898438 122.25 L 169.75 122.449219 L 168.449219 122.550781 L 168.351562 123.050781 C 167.75 123 167.5 123.699219 167.648438 124.050781 C 167.800781 124.398438 167.648438 124.699219 167.648438 124.699219 L 168.148438 124.949219 L 168.898438 124.75 C 169 124.25 169.398438 124.148438 169.800781 123.851562 C 170.199219 123.550781 170.851562 124.351562 170.648438 124.800781 C 170.484375 125.199219 170.417969 125.382812 170.449219 125.351562 L 170.5 125.851562 L 170 126 L 169.601562 126.199219 L 169.601562 126.449219 L 168.199219 126.449219 L 168 126.699219 L 167.351562 126.75 L 167.148438 127.101562 L 166.648438 127.101562 C 166.648438 127.101562 165.949219 127.5 166.25 127.898438 C 166.550781 128.300781 165 128.25 164.648438 127.699219 C 164.550781 128.199219 164 127.699219 164 127.699219 L 163.449219 127.601562 L 163.398438 126.851562 C 163.300781 126.351562 162.351562 126.351562 162.398438 126.699219 C 162.398438 127.050781 160.601562 126.851562 160.601562 126.851562 L 160 127.101562 L 159.449219 127.449219 L 159.398438 127.699219 L 158.5 127.800781 L 158.101562 128 L 157.949219 127.699219 L 157.550781 127.699219 L 157.148438 128.199219 C 156.148438 128.300781 155.148438 128.898438 155.199219 129.199219 C 155.300781 129.398438 154.800781 129.699219 154.800781 129.699219 L 154.351562 129.800781 L 154.050781 130.300781 L 153.449219 130.449219 L 153.351562 131.550781 L 153.050781 131.75 L 153.050781 132.199219 L 152.699219 132.300781 L 152.699219 132.550781 L 152.199219 132.550781 L 152.5 133.351562 L 152.898438 133.550781 C 153.601562 133.648438 153.300781 134.550781 153.300781 134.550781 L 153.699219 134.550781 L 153.898438 135.101562 L 154.300781 135.949219 C 154.449219 136.550781 154.898438 136.398438 155.101562 136.351562 C 155.300781 136.300781 155.5 136.949219 155.5 136.949219 L 157.5 137 C 157.5 137 157.398438 137.199219 157.75 137.300781 C 158.101562 137.398438 160.398438 137.5 160.5 137.351562 C 160.398438 136.898438 161.75 136.800781 162.300781 137.199219 C 162.800781 137.601562 163.601562 137.351562 163.601562 137.351562 L 164.351562 138.25 L 164.851562 139.398438 L 165.699219 139.648438 L 166.300781 139.800781 L 166.5 140.648438 L 166.949219 140.648438 L 167.101562 141.25 C 167.601562 141.648438 166.949219 142.5 166.949219 142.5 L 166.949219 143.648438 L 167.351562 143.851562 L 167.300781 144.25 L 167.949219 144.898438 L 168.699219 144.898438 L 170.550781 146.949219 L 172.050781 147.449219 L 172.300781 148.25 L 172.699219 148.199219 L 173 147.949219 L 174.199219 147.898438 L 174.800781 147.300781 L 175.449219 147.199219 L 180.949219 142.5 L 180.449219 142.199219 L 180.449219 141.101562 C 181.398438 140.449219 181.449219 139.25 180.601562 139.148438 C 179.949219 139.101562 180.25 138.398438 180.851562 138.300781 L 181.199219 138.148438 L 181.199219 137.699219 L 182.351562 136.648438 L 182.351562 135.851562 L 179.851562 133.75 C 178.75 133.351562 179.851562 130.898438 180.601562 130.949219 C 181.351562 131 180.550781 127.25 180.550781 127.25 L 180.148438 127.050781 L 180.25 125.800781 L 179.699219 125.800781 L 178.800781 127 L 178.550781 127.800781 C 178.449219 128.851562 175.351562 128.648438 175.199219 128.5 C 175.050781 128.351562 174 127.898438 174 127.898438 C 174 127.898438 173.199219 127.25 173.050781 127.398438 C 172.898438 127.648438 172.199219 127.199219 172.199219 127.351562 C 172.199219 127.5 171.550781 126.949219 171.550781 126.949219 L 170.550781 126.601562 L 171.300781 126.449219 L 171.148438 125.851562 L 172.449219 126.5 C 172.601562 126.699219 173.25 126.648438 173.25 126.648438 L 173.449219 126.898438 C 173.449219 126.898438 173.851562 126.898438 174.101562 127.148438 C 174.351562 127.5 175.648438 127.25 175.648438 127.25 L 176 127.550781 L 176.550781 127.75 L 178.101562 127.75 L 178.148438 126.800781 L 178.449219 126.5 L 178.449219 125.898438 L 178.75 125.601562 L 178.75 125.101562 L 179.050781 125 L 179.101562 123.898438 L 179.351562 123.851562 L 179.351562 121.398438 L 178.601562 120.699219 C 178.550781 120.949219 177.75 120.949219 177.75 120.949219 C 177.75 120.949219 177.550781 121.300781 177.398438 121.300781 C 177.25 121.300781 177.601562 121.800781 177.5 122.050781 C 177.398438 122.300781 177 122.351562 177 122.351562 L 176.25 122.550781 L 176.050781 122.800781 L 175.25 122.800781 L 175.148438 122.148438 L 176.050781 121.898438 L 176.550781 121.648438 L 176.800781 121.148438 C 176.851562 120.648438 177.449219 120.699219 177.449219 120.699219 C 177.449219 120.699219 178.601562 119.699219 178.648438 119.300781 C 178.699219 118.800781 179.101562 117.550781 179.800781 117.550781 L 181.101562 117.550781 C 181.601562 117.351562 181.449219 116.699219 181.449219 116.699219 L 182.101562 116.601562 L 182.199219 116.949219 C 182.199219 116.949219 183.101562 117.050781 183.199219 116.949219 C 183.300781 116.75 183.5 116.449219 183.699219 116.550781 C 184 116.699219 184.800781 116.199219 184.800781 116.199219 C 184.800781 115.851562 186.101562 116 186.101562 116 L 186.25 115.5 C 186.25 115.5 185.398438 114.351562 185.25 114.351562 C 185.101562 114.351562 184.25 113.648438 184.199219 113.898438 C 183.398438 113.699219 183.449219 112.601562 183.449219 112.601562 L 183.148438 111.898438 C 183.148438 111.5 182.398438 110.648438 182.25 110.75 C 182.015625 110.617188 181.875 110.367188 181.875 110.101562 C 181.875 109.832031 182.015625 109.582031 182.25 109.449219 C 182.449219 109.449219 182.949219 108.699219 182.949219 108.699219 L 183.199219 108 L 184.050781 107.75 L 184.148438 107.101562 L 183.648438 107.050781 C 183.648438 107.050781 184.148438 106.101562 184.449219 106.101562 C 184.75 106.101562 186.351562 106.101562 186.449219 106 C 186.648438 105.898438 186.949219 105.101562 186.949219 105 C 186.949219 104.800781 187.351562 104.75 187.449219 104.699219 C 187.648438 104.699219 187.949219 104.25 188.101562 104.050781 C 188.199219 103.851562 187.851562 102.550781 187.601562 102.800781 "/>
<path style=" stroke:none;fill-rule:nonzero;fill:rgb(100%,100%,100%);fill-opacity:1;" d="M 160 121 C 160.050781 121 160.148438 121.25 160.300781 121.199219 C 160.449219 121.148438 160.550781 121.5 160.351562 121.5 C 160.285156 121.535156 160.25 121.617188 160.25 121.75 C 160.25 121.851562 160.199219 121.984375 160.101562 122.148438 C 160 122.214844 159.882812 122.199219 159.75 122.101562 C 159.617188 122.035156 159.464844 122 159.300781 122 C 159.148438 122 159.300781 122.300781 159.300781 122.300781 C 159.300781 122.300781 158.5 122.300781 158.648438 122.148438 C 158.851562 122.050781 158.917969 121.984375 158.851562 121.949219 C 158.785156 121.917969 158.785156 121.816406 158.851562 121.648438 C 158.898438 121.449219 159.199219 121.550781 159.101562 121.449219 C 159 121.351562 159.101562 120.898438 159.300781 121.148438 L 159.398438 120.898438 C 159.300781 120.75 159.398438 120.75 159.148438 120.648438 C 158.898438 120.550781 159.101562 120.148438 159.101562 120.148438 L 159.101562 119.800781 C 159.199219 119.449219 159.949219 119.398438 160 119.75 L 160 120.300781 L 160.25 120.398438 C 160.25 120.398438 160.199219 120.601562 160 120.601562 C 159.800781 120.601562 160 120.699219 159.898438 120.851562 L 160 121.050781 Z M 157.5 121.398438 C 157.648438 121.199219 157.898438 120.199219 158.199219 120.5 C 158.5 120.800781 158.699219 120.5 158.699219 120.5 C 158.699219 120.5 158.851562 120.648438 158.75 121 C 158.683594 121.300781 158.582031 121.5 158.449219 121.601562 C 158.285156 121.632812 158.082031 121.699219 157.851562 121.800781 C 157.648438 121.800781 157.550781 121.398438 157.550781 121.398438 Z M 157.5 121.398438 "/>
</g>
</svg>
