<?xml version="1.0" encoding="UTF-8"?>
<svg xmlns="http://www.w3.org/2000/svg" xmlns:xlink="http://www.w3.org/1999/xlink" width="px" height="px" viewBox="0 0 320 240" version="1.1">
<defs>
<linearGradient id="linear0" gradientUnits="userSpaceOnUse" x1="103.099998" y1="111.300003" x2="92.599998" y2="107.800003" gradientTransform="matrix(0.99614,0,0,2.25255,703.799988,-75)">
<stop offset="0" style="stop-color:rgb(100%,0%,0%);stop-opacity:1;"/>
<stop offset="1" style="stop-color:rgb(100%,100%,0%);stop-opacity:1;"/>
</linearGradient>
<linearGradient id="linear1" gradientUnits="userSpaceOnUse" x1="103.099998" y1="111.300003" x2="92.599998" y2="107.800003" gradientTransform="matrix(0.99614,0,0,2.25255,703.799988,-75)">
<stop offset="0" style="stop-color:rgb(100%,0%,0%);stop-opacity:1;"/>
<stop offset="1" style="stop-color:rgb(100%,100%,0%);stop-opacity:1;"/>
</linearGradient>
<linearGradient id="linear2" gradientUnits="userSpaceOnUse" x1="103.099998" y1="111.300003" x2="92.599998" y2="107.800003" gradientTransform="matrix(0.99614,0,0,2.25255,703.799988,-75)">
<stop offset="0" style="stop-color:rgb(100%,0%,0%);stop-opacity:1;"/>
<stop offset="1" style="stop-color:rgb(100%,100%,0%);stop-opacity:1;"/>
</linearGradient>
<linearGradient id="linear3" gradientUnits="userSpaceOnUse" x1="103.099998" y1="111.300003" x2="92.599998" y2="107.800003" gradientTransform="matrix(0.99614,0,0,2.25255,703.799988,-75)">
<stop offset="0" style="stop-color:rgb(100%,0%,0%);stop-opacity:1;"/>
<stop offset="1" style="stop-color:rgb(100%,100%,0%);stop-opacity:1;"/>
</linearGradient>
<linearGradient id="linear4" gradientUnits="userSpaceOnUse" x1="103.099998" y1="111.300003" x2="92.599998" y2="107.800003" gradientTransform="matrix(0.99614,0,0,2.25255,703.799988,-75)">
<stop offset="0" style="stop-color:rgb(100%,0%,0%);stop-opacity:1;"/>
<stop offset="1" style="stop-color:rgb(100%,100%,0%);stop-opacity:1;"/>
</linearGradient>
<linearGradient id="linear5" gradientUnits="userSpaceOnUse" x1="103.099998" y1="111.300003" x2="92.599998" y2="107.800003" gradientTransform="matrix(0.99614,0,0,2.25255,703.799988,-75)">
<stop offset="0" style="stop-color:rgb(100%,0%,0%);stop-opacity:1;"/>
<stop offset="1" style="stop-color:rgb(100%,100%,0%);stop-opacity:1;"/>
</linearGradient>
<linearGradient id="linear6" gradientUnits="userSpaceOnUse" x1="103.099998" y1="111.300003" x2="92.599998" y2="107.800003" gradientTransform="matrix(0.99614,0,0,2.25255,703.799988,-75)">
<stop offset="0" style="stop-color:rgb(100%,0%,0%);stop-opacity:1;"/>
<stop offset="1" style="stop-color:rgb(100%,100%,0%);stop-opacity:1;"/>
</linearGradient>
<linearGradient id="linear7" gradientUnits="userSpaceOnUse" x1="103.099998" y1="111.300003" x2="92.599998" y2="107.800003" gradientTransform="matrix(0.99614,0,0,2.25255,703.799988,-75)">
<stop offset="0" style="stop-color:rgb(100%,0%,0%);stop-opacity:1;"/>
<stop offset="1" style="stop-color:rgb(100%,100%,0%);stop-opacity:1;"/>
</linearGradient>
<linearGradient id="linear8" gradientUnits="userSpaceOnUse" x1="103.099998" y1="111.300003" x2="92.599998" y2="107.800003" gradientTransform="matrix(0.99614,0,0,2.25255,703.799988,-75)">
<stop offset="0" style="stop-color:rgb(100%,0%,0%);stop-opacity:1;"/>
<stop offset="1" style="stop-color:rgb(100%,100%,0%);stop-opacity:1;"/>
</linearGradient>
<linearGradient id="linear9" gradientUnits="userSpaceOnUse" x1="103.099998" y1="111.300003" x2="92.599998" y2="107.800003" gradientTransform="matrix(0.99614,0,0,2.25255,703.799988,-75)">
<stop offset="0" style="stop-color:rgb(100%,0%,0%);stop-opacity:1;"/>
<stop offset="1" style="stop-color:rgb(100%,100%,0%);stop-opacity:1;"/>
</linearGradient>
<linearGradient id="linear10" gradientUnits="userSpaceOnUse" x1="103.099998" y1="111.300003" x2="92.599998" y2="107.800003" gradientTransform="matrix(0.99614,0,0,2.25255,703.799988,-75)">
<stop offset="0" style="stop-color:rgb(100%,0%,0%);stop-opacity:1;"/>
<stop offset="1" style="stop-color:rgb(100%,100%,0%);stop-opacity:1;"/>
</linearGradient>
<linearGradient id="linear11" gradientUnits="userSpaceOnUse" x1="103.099998" y1="111.300003" x2="92.599998" y2="107.800003" gradientTransform="matrix(0.99614,0,0,2.25255,703.799988,-75)">
<stop offset="0" style="stop-color:rgb(100%,0%,0%);stop-opacity:1;"/>
<stop offset="1" style="stop-color:rgb(100%,100%,0%);stop-opacity:1;"/>
</linearGradient>
</defs>
<g id="surface1">
<rect x="0" y="0" width="320" height="240" style="fill:rgb(0%,0%,40.000001%);fill-opacity:1;stroke:none;"/>
<path style=" stroke:none;fill-rule:nonzero;fill:rgb(0.392157%,12.941177%,41.176471%);fill-opacity:1;" d="M 0 0 L 160 0 L 160 120 L 0 120 Z M 0 0 "/>
<path style=" stroke:none;fill-rule:nonzero;fill:rgb(100%,100%,100%);fill-opacity:1;" d="M 18.75 0 L 79.75 45.25 L 140.5 0 L 160 0 L 160 15.5 L 100 60.25 L 160 104.75 L 160 120 L 140 120 L 80 75.25 L 20.25 120 L 0 120 L 0 105 L 59.75 60.5 L 0 16 L 0 0 Z M 18.75 0 "/>
<path style=" stroke:none;fill-rule:nonzero;fill:rgb(78.431374%,6.27451%,18.039216%);fill-opacity:1;" d="M 106 70.25 L 160 110 L 160 120 L 92.25 70.25 Z M 60 75.25 L 61.5 84 L 13.5 120 L 0 120 Z M 160 0 L 160 0.75 L 97.75 47.75 L 98.25 36.75 L 147.5 0 Z M 0 0 L 59.75 44 L 44.75 44 L 0 10.5 Z M 0 0 "/>
<path style=" stroke:none;fill-rule:nonzero;fill:rgb(100%,100%,100%);fill-opacity:1;" d="M 60.25 0 L 60.25 120 L 100.25 120 L 100.25 0 Z M 0 40 L 0 80 L 160 80 L 160 40 Z M 0 40 "/>
<path style=" stroke:none;fill-rule:nonzero;fill:rgb(78.431374%,6.27451%,18.039216%);fill-opacity:1;" d="M 0 48.25 L 0 72.25 L 160 72.25 L 160 48.25 Z M 68.25 0 L 68.25 120 L 92.25 120 L 92.25 0 Z M 68.25 0 "/>
<path style=" stroke:none;fill-rule:nonzero;fill:rgb(100%,100%,100%);fill-opacity:1;" d="M 192.054688 51.097656 L 289.082031 50.75 L 288.886719 137.160156 C 288.886719 137.160156 292.296875 150.332031 248.203125 170.289062 C 264.050781 168.660156 281.332031 151.765625 281.332031 151.765625 C 281.332031 151.765625 288.34375 142.738281 291.792969 147.773438 C 295.242188 152.8125 298.417969 155.371094 300.9375 157.347656 C 303.457031 159.324219 305.433594 164.707031 301.675781 168.660156 C 297.875 172.652344 291.949219 173.15625 290.320312 168.3125 C 287.800781 169.589844 272.339844 188.304688 240.644531 189.199219 C 208.40625 188.65625 190.777344 168.117188 190.777344 168.117188 C 190.777344 168.117188 186.476562 174.976562 180.3125 169.589844 C 174.386719 162.539062 178.878906 158.042969 178.878906 158.042969 C 178.878906 158.042969 183.917969 155.175781 185.390625 153.199219 C 187.714844 150.488281 188.449219 146.882812 192.363281 146.882812 C 197.09375 147.273438 198.875 151.03125 198.875 151.03125 C 198.875 151.03125 215.070312 168.117188 232.546875 170.289062 C 193.140625 151.378906 191.667969 139.675781 191.859375 136.808594 Z M 192.054688 51.097656 "/>
<path style="fill-rule:nonzero;fill:rgb(0%,38.039216%,16.078432%);fill-opacity:1;stroke-width:1.9;stroke-linecap:butt;stroke-linejoin:miter;stroke:rgb(0%,0%,0%);stroke-opacity:1;stroke-miterlimit:4;" d="M 782.298433 150.098553 L 1021.098001 148.697289 L 1021.098001 363.302372 C 1021.602052 391.297407 974.604265 419.604955 901.204246 455.795872 C 825.49567 416.802427 781.804462 393.101912 781.401221 362.79832 Z M 782.298433 150.098553 " transform="matrix(0.387485,0,0,0.387485,-108.75,-4.7)"/>
<path style="fill:none;stroke-width:1.9;stroke-linecap:butt;stroke-linejoin:miter;stroke:rgb(100%,78.039217%,17.254902%);stroke-opacity:1;stroke-miterlimit:4;" d="M 814.799691 181.803409 L 828.802249 161.096962 L 843.097158 181.90422 " transform="matrix(0.387485,0,0,0.387485,-108.75,-4.7)"/>
<path style="fill-rule:nonzero;fill:rgb(100%,78.039217%,17.254902%);fill-opacity:1;stroke-width:0.9;stroke-linecap:butt;stroke-linejoin:miter;stroke:rgb(0%,0%,0%);stroke-opacity:1;stroke-miterlimit:4;" d="M 831.695506 174.000688 C 831.695506 175.543086 830.445458 176.803216 828.90306 176.803216 C 827.35058 176.803216 826.100532 175.543086 826.100532 174.000688 C 826.100532 172.458289 827.35058 171.19816 828.90306 171.19816 C 830.445458 171.19816 831.695506 172.458289 831.695506 174.000688 Z M 831.695506 174.000688 " transform="matrix(0.387485,0,0,0.387485,-108.75,-4.7)"/>
<path style="fill-rule:nonzero;fill:rgb(100%,78.039217%,17.254902%);fill-opacity:1;stroke-width:0.9;stroke-linecap:butt;stroke-linejoin:miter;stroke:rgb(0%,0%,0%);stroke-opacity:1;stroke-miterlimit:4;" d="M 817.400598 197.09634 L 839.296607 197.09634 C 839.296607 197.09634 839.599038 194.303893 836.998131 192.600198 C 848.500593 190.997314 845.496444 180.996926 855.00286 180.402145 C 856.998905 180.704576 850.002667 184.696666 850.002667 184.696666 C 850.002667 184.696666 844.296801 188.698837 846.998518 190.795693 C 849.004644 192.499388 850.002667 189.79767 850.204288 187.801625 C 850.395827 185.795499 859.499002 184.495046 858.198549 178.799261 C 856.101693 174.101498 843.500399 182.00503 843.500399 182.00503 L 834.498034 181.90422 C 833.903253 180.896116 831.503967 176.904026 828.90306 176.904026 C 825.898911 176.904026 823.701245 181.90422 823.701245 181.90422 L 803.39804 181.90422 C 803.39804 181.90422 802.702448 187.196763 812.995186 188.204867 C 815.303743 191.198934 817.098167 191.995336 819.195022 192.801819 C 817.864326 193.870409 817.269545 195.301916 817.400598 197.09634 Z M 819.003483 192.701009 L 837.199752 192.701009 " transform="matrix(0.387485,0,0,0.387485,-108.75,-4.7)"/>
<path style="fill-rule:nonzero;fill:rgb(100%,78.039217%,17.254902%);fill-opacity:1;stroke-width:0.9;stroke-linecap:butt;stroke-linejoin:miter;stroke:rgb(0%,0%,0%);stroke-opacity:1;stroke-miterlimit:4;" d="M 810.69671 182.00503 C 810.69671 182.00503 812.097974 190.503343 818.902672 192.499388 " transform="matrix(0.387485,0,0,0.387485,-108.75,-4.7)"/>
<path style="fill-rule:nonzero;fill:url(#linear0);stroke-width:0.9;stroke-linecap:butt;stroke-linejoin:miter;stroke:rgb(0%,0%,0%);stroke-opacity:1;stroke-miterlimit:4;" d="M 809.597877 181.803409 C 810.202739 178.59764 811.503192 178.002859 812.803646 173.799067 C 812.995186 169.796896 809.597877 170.300948 810.595899 167.800851 C 812.329837 164.86727 811.503192 162.296606 808.095802 160.09894 C 808.801475 163.79868 803.700471 167.296799 803.700471 170.300948 C 803.700471 173.295015 806.301378 172.700234 805.998947 177.297186 C 806.200568 179.898093 805.303356 179.303312 805.000925 181.803409 Z M 809.597877 181.803409 " transform="matrix(0.387485,0,0,0.387485,-108.75,-4.7)"/>
<path style="fill-rule:nonzero;fill:rgb(100%,78.039217%,17.254902%);fill-opacity:1;stroke-width:0.9;stroke-linecap:butt;stroke-linejoin:miter;stroke:rgb(0%,0%,0%);stroke-opacity:1;stroke-miterlimit:4;" d="M 831.503967 161.701824 C 831.503967 163.133332 830.334567 164.302732 828.90306 164.302732 C 827.461472 164.302732 826.302152 163.133332 826.302152 161.701824 C 826.302152 160.260236 827.461472 159.100917 828.90306 159.100917 C 830.334567 159.100917 831.503967 160.260236 831.503967 161.701824 Z M 831.503967 161.701824 " transform="matrix(0.387485,0,0,0.387485,-108.75,-4.7)"/>
<path style="fill:none;stroke-width:1.9;stroke-linecap:butt;stroke-linejoin:miter;stroke:rgb(100%,78.039217%,17.254902%);stroke-opacity:1;stroke-miterlimit:4;" d="M 814.803289 181.795331 L 828.795766 161.098965 L 843.100756 181.896142 " transform="matrix(0.387485,0,0,0.387485,-109.059988,11.30313)"/>
<path style="fill-rule:nonzero;fill:rgb(100%,78.039217%,17.254902%);fill-opacity:1;stroke-width:0.9;stroke-linecap:butt;stroke-linejoin:miter;stroke:rgb(0%,0%,0%);stroke-opacity:1;stroke-miterlimit:4;" d="M 831.699105 174.002691 C 831.699105 175.545089 830.449056 176.795138 828.896577 176.795138 C 827.354178 176.795138 826.10413 175.545089 826.10413 174.002691 C 826.10413 172.450211 827.354178 171.200163 828.896577 171.200163 C 830.449056 171.200163 831.699105 172.450211 831.699105 174.002691 Z M 831.699105 174.002691 " transform="matrix(0.387485,0,0,0.387485,-109.059988,11.30313)"/>
<path style="fill-rule:nonzero;fill:rgb(100%,78.039217%,17.254902%);fill-opacity:1;stroke-width:0.9;stroke-linecap:butt;stroke-linejoin:miter;stroke:rgb(0%,0%,0%);stroke-opacity:1;stroke-miterlimit:4;" d="M 817.404196 197.098343 L 839.300205 197.098343 C 839.300205 197.098343 839.602636 194.295815 837.001729 192.602201 C 848.504191 190.999317 845.500042 180.998929 854.996378 180.404148 C 857.002504 180.696498 849.996184 184.698669 849.996184 184.698669 C 849.996184 184.698669 844.300399 188.70084 847.002116 190.797696 C 848.998162 192.501391 849.996184 189.799673 850.197805 187.803628 C 850.399425 185.797502 859.5026 184.497049 858.202147 178.801264 C 856.09521 174.103501 843.503997 181.996952 843.503997 181.996952 L 834.501633 181.896142 C 833.89677 180.898119 831.497484 176.895948 828.896577 176.895948 C 825.902509 176.895948 823.704844 181.896142 823.704844 181.896142 L 803.401638 181.896142 C 803.401638 181.896142 802.695966 187.198766 812.998784 188.196789 C 815.29726 191.200937 817.101765 191.997339 819.198621 192.803822 C 817.867924 193.862331 817.263062 195.303919 817.404196 197.098343 Z M 818.997 192.703012 L 837.20335 192.703012 " transform="matrix(0.387485,0,0,0.387485,-109.059988,11.30313)"/>
<path style="fill-rule:nonzero;fill:rgb(100%,78.039217%,17.254902%);fill-opacity:1;stroke-width:0.9;stroke-linecap:butt;stroke-linejoin:miter;stroke:rgb(0%,0%,0%);stroke-opacity:1;stroke-miterlimit:4;" d="M 810.700308 181.996952 C 810.700308 181.996952 812.101572 190.495265 818.89619 192.501391 " transform="matrix(0.387485,0,0,0.387485,-109.059988,11.30313)"/>
<path style="fill-rule:nonzero;fill:url(#linear1);stroke-width:0.9;stroke-linecap:butt;stroke-linejoin:miter;stroke:rgb(0%,0%,0%);stroke-opacity:1;stroke-miterlimit:4;" d="M 809.601475 181.795331 C 810.196256 178.599643 811.49671 178.004862 812.797163 173.80107 C 812.998784 169.798899 809.601475 170.302951 810.599497 167.802854 C 812.333436 164.869273 811.49671 162.298609 808.099401 160.100943 C 808.794992 163.800683 803.704069 167.298802 803.704069 170.302951 C 803.704069 173.297018 806.304976 172.702237 806.002545 177.299189 C 806.204166 179.900097 805.296873 179.295234 805.004523 181.795331 Z M 809.601475 181.795331 " transform="matrix(0.387485,0,0,0.387485,-109.059988,11.30313)"/>
<path style="fill-rule:nonzero;fill:rgb(100%,78.039217%,17.254902%);fill-opacity:1;stroke-width:0.9;stroke-linecap:butt;stroke-linejoin:miter;stroke:rgb(0%,0%,0%);stroke-opacity:1;stroke-miterlimit:4;" d="M 831.497484 161.703828 C 831.497484 163.135335 830.338165 164.304735 828.896577 164.304735 C 827.46507 164.304735 826.29567 163.135335 826.29567 161.703828 C 826.29567 160.262239 827.46507 159.10292 828.896577 159.10292 C 830.338165 159.10292 831.497484 160.262239 831.497484 161.703828 Z M 831.497484 161.703828 " transform="matrix(0.387485,0,0,0.387485,-109.059988,11.30313)"/>
<path style="fill:none;stroke-width:1.9;stroke-linecap:butt;stroke-linejoin:miter;stroke:rgb(100%,78.039217%,17.254902%);stroke-opacity:1;stroke-miterlimit:4;" d="M 814.800858 181.802552 L 828.803416 161.096105 L 843.098325 181.903362 " transform="matrix(0.387485,0,0,0.387485,-109.176234,27.07377)"/>
<path style="fill-rule:nonzero;fill:rgb(100%,78.039217%,17.254902%);fill-opacity:1;stroke-width:0.9;stroke-linecap:butt;stroke-linejoin:miter;stroke:rgb(0%,0%,0%);stroke-opacity:1;stroke-miterlimit:4;" d="M 831.696674 173.99983 C 831.696674 175.542229 830.446625 176.802358 828.904227 176.802358 C 827.351747 176.802358 826.101699 175.542229 826.101699 173.99983 C 826.101699 172.457432 827.351747 171.197302 828.904227 171.197302 C 830.446625 171.197302 831.696674 172.457432 831.696674 173.99983 Z M 831.696674 173.99983 " transform="matrix(0.387485,0,0,0.387485,-109.176234,27.07377)"/>
<path style="fill-rule:nonzero;fill:rgb(100%,78.039217%,17.254902%);fill-opacity:1;stroke-width:0.9;stroke-linecap:butt;stroke-linejoin:miter;stroke:rgb(0%,0%,0%);stroke-opacity:1;stroke-miterlimit:4;" d="M 817.401765 197.095482 L 839.297774 197.095482 C 839.297774 197.095482 839.600205 194.303036 836.999298 192.599341 C 848.50176 190.996456 845.497611 180.996069 855.004028 180.401288 C 857.000073 180.703719 850.003834 184.695809 850.003834 184.695809 C 850.003834 184.695809 844.297968 188.69798 846.999685 190.804916 C 848.99573 192.49853 850.003834 189.796813 850.195374 187.800768 C 850.396994 185.804723 859.500169 184.504269 858.199716 178.798403 C 856.10286 174.100641 843.501566 182.004172 843.501566 182.004172 L 834.499201 181.903362 C 833.90442 180.895258 831.495053 176.903168 828.904227 176.903168 C 825.900078 176.903168 823.702412 181.903362 823.702412 181.903362 L 803.399207 181.903362 C 803.399207 181.903362 802.703616 187.195906 812.996353 188.204009 C 815.30491 191.198077 817.099334 192.00456 819.19619 192.800961 C 817.865493 193.869551 817.270712 195.301058 817.401765 197.095482 Z M 819.00465 192.700151 L 837.200919 192.700151 " transform="matrix(0.387485,0,0,0.387485,-109.176234,27.07377)"/>
<path style="fill-rule:nonzero;fill:rgb(100%,78.039217%,17.254902%);fill-opacity:1;stroke-width:0.9;stroke-linecap:butt;stroke-linejoin:miter;stroke:rgb(0%,0%,0%);stroke-opacity:1;stroke-miterlimit:4;" d="M 810.697877 182.004172 C 810.697877 182.004172 812.099141 190.502485 818.90384 192.49853 " transform="matrix(0.387485,0,0,0.387485,-109.176234,27.07377)"/>
<path style="fill-rule:nonzero;fill:url(#linear2);stroke-width:0.9;stroke-linecap:butt;stroke-linejoin:miter;stroke:rgb(0%,0%,0%);stroke-opacity:1;stroke-miterlimit:4;" d="M 809.599044 181.802552 C 810.203906 178.596782 811.50436 178.002001 812.804813 173.798209 C 812.996353 169.796038 809.599044 170.30009 810.597066 167.799993 C 812.331004 164.866412 811.50436 162.295748 808.09697 160.098082 C 808.802642 163.797822 803.701638 167.295942 803.701638 170.30009 C 803.701638 173.304239 806.302545 172.699377 806.000114 177.296329 C 806.201735 179.897236 805.304523 179.302455 805.002092 181.802552 Z M 809.599044 181.802552 " transform="matrix(0.387485,0,0,0.387485,-109.176234,27.07377)"/>
<path style="fill-rule:nonzero;fill:rgb(100%,78.039217%,17.254902%);fill-opacity:1;stroke-width:0.9;stroke-linecap:butt;stroke-linejoin:miter;stroke:rgb(0%,0%,0%);stroke-opacity:1;stroke-miterlimit:4;" d="M 831.495053 161.700967 C 831.495053 163.132474 830.335734 164.301874 828.904227 164.301874 C 827.462639 164.301874 826.30332 163.132474 826.30332 161.700967 C 826.30332 160.259379 827.462639 159.10006 828.904227 159.10006 C 830.335734 159.10006 831.495053 160.259379 831.495053 161.700967 Z M 831.495053 161.700967 " transform="matrix(0.387485,0,0,0.387485,-109.176234,27.07377)"/>
<path style="fill:none;stroke-width:1.9;stroke-linecap:butt;stroke-linejoin:miter;stroke:rgb(100%,78.039217%,17.254902%);stroke-opacity:1;stroke-miterlimit:4;" d="M 814.79544 181.797002 L 828.797998 161.100636 L 843.102987 181.897813 " transform="matrix(0.387485,0,0,0.387485,-98.830384,44.161858)"/>
<path style="fill-rule:nonzero;fill:rgb(100%,78.039217%,17.254902%);fill-opacity:1;stroke-width:0.9;stroke-linecap:butt;stroke-linejoin:miter;stroke:rgb(0%,0%,0%);stroke-opacity:1;stroke-miterlimit:4;" d="M 831.701336 174.004362 C 831.701336 175.54676 830.451288 176.796809 828.898808 176.796809 C 827.35641 176.796809 826.09628 175.54676 826.09628 174.004362 C 826.09628 172.451882 827.35641 171.201834 828.898808 171.201834 C 830.451288 171.201834 831.701336 172.451882 831.701336 174.004362 Z M 831.701336 174.004362 " transform="matrix(0.387485,0,0,0.387485,-98.830384,44.161858)"/>
<path style="fill-rule:nonzero;fill:rgb(100%,78.039217%,17.254902%);fill-opacity:1;stroke-width:0.9;stroke-linecap:butt;stroke-linejoin:miter;stroke:rgb(0%,0%,0%);stroke-opacity:1;stroke-miterlimit:4;" d="M 817.396347 197.100014 L 839.302437 197.100014 C 839.302437 197.100014 839.604868 194.297486 837.003961 192.603872 C 848.496341 191.000988 845.502274 181.0006 854.998609 180.395738 C 857.004735 180.698169 849.998416 184.70034 849.998416 184.70034 C 849.998416 184.70034 844.30263 188.702512 847.004348 190.799367 C 849.000393 192.503062 849.998416 189.801344 850.200036 187.795218 C 850.401657 185.799173 859.504832 184.49872 858.204378 178.802935 C 856.097442 174.095091 843.496148 181.998623 843.496148 181.998623 L 834.503864 181.897813 C 833.899002 180.89979 831.499715 176.897619 828.898808 176.897619 C 825.904741 176.897619 823.696994 181.897813 823.696994 181.897813 L 803.40387 181.897813 C 803.40387 181.897813 802.698197 187.200437 813.001015 188.19846 C 815.299491 191.202608 817.103997 191.99901 819.200852 192.795412 C 817.870155 193.864002 817.265293 195.295509 817.396347 197.100014 Z M 818.999231 192.704683 L 837.1955 192.704683 " transform="matrix(0.387485,0,0,0.387485,-98.830384,44.161858)"/>
<path style="fill-rule:nonzero;fill:rgb(100%,78.039217%,17.254902%);fill-opacity:1;stroke-width:0.9;stroke-linecap:butt;stroke-linejoin:miter;stroke:rgb(0%,0%,0%);stroke-opacity:1;stroke-miterlimit:4;" d="M 810.702539 181.998623 C 810.702539 181.998623 812.103803 190.496936 818.898421 192.503062 " transform="matrix(0.387485,0,0,0.387485,-98.830384,44.161858)"/>
<path style="fill-rule:nonzero;fill:url(#linear3);stroke-width:0.9;stroke-linecap:butt;stroke-linejoin:miter;stroke:rgb(0%,0%,0%);stroke-opacity:1;stroke-miterlimit:4;" d="M 809.603706 181.797002 C 810.198488 178.601314 811.498941 177.996452 812.799395 173.802741 C 813.001015 169.80057 809.603706 170.304622 810.601729 167.804525 C 812.335667 164.870944 811.498941 162.30028 808.101632 160.102614 C 808.797224 163.802354 803.69622 167.300473 803.69622 170.304622 C 803.69622 173.298689 806.297127 172.703908 806.004777 177.30086 C 806.196316 179.901768 805.299104 179.296905 804.996673 181.797002 Z M 809.603706 181.797002 " transform="matrix(0.387485,0,0,0.387485,-98.830384,44.161858)"/>
<path style="fill-rule:nonzero;fill:rgb(100%,78.039217%,17.254902%);fill-opacity:1;stroke-width:0.9;stroke-linecap:butt;stroke-linejoin:miter;stroke:rgb(0%,0%,0%);stroke-opacity:1;stroke-miterlimit:4;" d="M 831.499715 161.695418 C 831.499715 163.137006 830.340396 164.296325 828.898808 164.296325 C 827.467301 164.296325 826.297901 163.137006 826.297901 161.695418 C 826.297901 160.263911 827.467301 159.104591 828.898808 159.104591 C 830.340396 159.104591 831.499715 160.263911 831.499715 161.695418 Z M 831.499715 161.695418 " transform="matrix(0.387485,0,0,0.387485,-98.830384,44.161858)"/>
<path style="fill:none;stroke-width:1.9;stroke-linecap:butt;stroke-linejoin:miter;stroke:rgb(100%,78.039217%,17.254902%);stroke-opacity:1;stroke-miterlimit:4;" d="M 814.802739 181.797192 L 828.795216 161.100826 L 843.100205 181.898002 " transform="matrix(0.387485,0,0,0.387485,-110.532431,58.150066)"/>
<path style="fill-rule:nonzero;fill:rgb(100%,78.039217%,17.254902%);fill-opacity:1;stroke-width:0.9;stroke-linecap:butt;stroke-linejoin:miter;stroke:rgb(0%,0%,0%);stroke-opacity:1;stroke-miterlimit:4;" d="M 831.698554 174.004551 C 831.698554 175.54695 830.448506 176.796998 828.896026 176.796998 C 827.353628 176.796998 826.10358 175.54695 826.10358 174.004551 C 826.10358 172.452072 827.353628 171.202023 828.896026 171.202023 C 830.448506 171.202023 831.698554 172.452072 831.698554 174.004551 Z M 831.698554 174.004551 " transform="matrix(0.387485,0,0,0.387485,-110.532431,58.150066)"/>
<path style="fill-rule:nonzero;fill:rgb(100%,78.039217%,17.254902%);fill-opacity:1;stroke-width:0.9;stroke-linecap:butt;stroke-linejoin:miter;stroke:rgb(0%,0%,0%);stroke-opacity:1;stroke-miterlimit:4;" d="M 817.403646 197.100204 L 839.299655 197.100204 C 839.299655 197.100204 839.602086 194.297676 837.001179 192.604062 C 848.50364 191.001177 845.499492 181.00079 854.995827 180.395928 C 857.001953 180.698359 849.995634 184.70053 849.995634 184.70053 C 849.995634 184.70053 844.299849 188.702701 847.001566 190.799556 C 848.997611 192.503251 849.995634 189.801534 850.197254 187.795408 C 850.398875 185.799363 859.50205 184.498909 858.201596 178.803124 C 856.104741 174.095281 843.503447 181.998812 843.503447 181.998812 L 834.501082 181.898002 C 833.89622 180.89998 831.496933 176.897809 828.896026 176.897809 C 825.901959 176.897809 823.704293 181.898002 823.704293 181.898002 L 803.401088 181.898002 C 803.401088 181.898002 802.695415 187.200627 812.998233 188.198649 C 815.29671 191.202798 817.101215 191.9992 819.19807 192.795601 C 817.867374 193.864191 817.262511 195.295698 817.403646 197.100204 Z M 818.99645 192.704872 L 837.2028 192.704872 " transform="matrix(0.387485,0,0,0.387485,-110.532431,58.150066)"/>
<path style="fill-rule:nonzero;fill:rgb(100%,78.039217%,17.254902%);fill-opacity:1;stroke-width:0.9;stroke-linecap:butt;stroke-linejoin:miter;stroke:rgb(0%,0%,0%);stroke-opacity:1;stroke-miterlimit:4;" d="M 810.699757 181.998812 C 810.699757 181.998812 812.101021 190.497125 818.895639 192.503251 " transform="matrix(0.387485,0,0,0.387485,-110.532431,58.150066)"/>
<path style="fill-rule:nonzero;fill:url(#linear4);stroke-width:0.9;stroke-linecap:butt;stroke-linejoin:miter;stroke:rgb(0%,0%,0%);stroke-opacity:1;stroke-miterlimit:4;" d="M 809.600924 181.797192 C 810.195706 178.601504 811.496159 177.996641 812.796613 173.802931 C 812.998233 169.80076 809.600924 170.304811 810.598947 167.804715 C 812.332885 164.871133 811.496159 162.300469 808.09885 160.102803 C 808.804523 163.802543 803.703519 167.300663 803.703519 170.304811 C 803.703519 173.298879 806.304426 172.704098 806.001995 177.30105 C 806.203616 179.901957 805.296322 179.297095 805.003972 181.797192 Z M 809.600924 181.797192 " transform="matrix(0.387485,0,0,0.387485,-110.532431,58.150066)"/>
<path style="fill-rule:nonzero;fill:rgb(100%,78.039217%,17.254902%);fill-opacity:1;stroke-width:0.9;stroke-linecap:butt;stroke-linejoin:miter;stroke:rgb(0%,0%,0%);stroke-opacity:1;stroke-miterlimit:4;" d="M 831.496933 161.695607 C 831.496933 163.137195 830.337614 164.296514 828.896026 164.296514 C 827.464519 164.296514 826.295119 163.137195 826.295119 161.695607 C 826.295119 160.2641 827.464519 159.104781 828.896026 159.104781 C 830.337614 159.104781 831.496933 160.2641 831.496933 161.695607 Z M 831.496933 161.695607 " transform="matrix(0.387485,0,0,0.387485,-110.532431,58.150066)"/>
<path style="fill:none;stroke-width:1.9;stroke-linecap:butt;stroke-linejoin:miter;stroke:rgb(100%,78.039217%,17.254902%);stroke-opacity:1;stroke-miterlimit:4;" d="M 814.799141 181.799642 L 828.801699 161.103276 L 843.096607 181.900452 " transform="matrix(0.387485,0,0,0.387485,-110.222443,74.656929)"/>
<path style="fill-rule:nonzero;fill:rgb(100%,78.039217%,17.254902%);fill-opacity:1;stroke-width:0.9;stroke-linecap:butt;stroke-linejoin:miter;stroke:rgb(0%,0%,0%);stroke-opacity:1;stroke-miterlimit:4;" d="M 831.705037 173.99692 C 831.705037 175.5494 830.444908 176.799448 828.902509 176.799448 C 827.35003 176.799448 826.099981 175.5494 826.099981 173.99692 C 826.099981 172.454522 827.35003 171.204473 828.902509 171.204473 C 830.444908 171.204473 831.705037 172.454522 831.705037 173.99692 Z M 831.705037 173.99692 " transform="matrix(0.387485,0,0,0.387485,-110.222443,74.656929)"/>
<path style="fill-rule:nonzero;fill:rgb(100%,78.039217%,17.254902%);fill-opacity:1;stroke-width:0.9;stroke-linecap:butt;stroke-linejoin:miter;stroke:rgb(0%,0%,0%);stroke-opacity:1;stroke-miterlimit:4;" d="M 817.400048 197.102653 L 839.296057 197.102653 C 839.296057 197.102653 839.598488 194.300125 836.997581 192.59643 C 848.500042 191.003627 845.495894 181.00324 855.00231 180.398378 C 856.998355 180.700809 850.002116 184.70298 850.002116 184.70298 C 850.002116 184.70298 844.29625 188.69507 846.997968 190.802006 C 849.004094 192.49562 850.002116 189.803984 850.203737 187.797858 C 850.395277 185.801813 859.498452 184.501359 858.197998 178.795493 C 856.101143 174.09773 843.499849 182.001262 843.499849 182.001262 L 834.497484 181.900452 C 833.902703 180.902429 831.503416 176.900258 828.902509 176.900258 C 825.898361 176.900258 823.700695 181.900452 823.700695 181.900452 L 803.39749 181.900452 C 803.39749 181.900452 802.701898 187.203077 813.004716 188.201099 C 815.303192 191.195167 817.097617 192.001649 819.204553 192.798051 C 817.863775 193.866641 817.268994 195.298148 817.400048 197.102653 Z M 819.002932 192.697241 L 837.199201 192.697241 " transform="matrix(0.387485,0,0,0.387485,-110.222443,74.656929)"/>
<path style="fill-rule:nonzero;fill:rgb(100%,78.039217%,17.254902%);fill-opacity:1;stroke-width:0.9;stroke-linecap:butt;stroke-linejoin:miter;stroke:rgb(0%,0%,0%);stroke-opacity:1;stroke-miterlimit:4;" d="M 810.696159 182.001262 C 810.696159 182.001262 812.097423 190.499575 818.902122 192.49562 " transform="matrix(0.387485,0,0,0.387485,-110.222443,74.656929)"/>
<path style="fill-rule:nonzero;fill:url(#linear5);stroke-width:0.9;stroke-linecap:butt;stroke-linejoin:miter;stroke:rgb(0%,0%,0%);stroke-opacity:1;stroke-miterlimit:4;" d="M 809.597326 181.799642 C 810.202188 178.603953 811.502642 177.999091 812.803096 173.795299 C 813.004716 169.803209 809.597326 170.29718 810.595349 167.797083 C 812.329287 164.863502 811.502642 162.302919 808.095252 160.095172 C 808.800925 163.804993 803.699921 167.303113 803.699921 170.29718 C 803.699921 173.301329 806.300828 172.696466 805.998397 177.3035 C 806.200017 179.904407 805.302805 179.299545 805.000374 181.799642 Z M 809.597326 181.799642 " transform="matrix(0.387485,0,0,0.387485,-110.222443,74.656929)"/>
<path style="fill-rule:nonzero;fill:rgb(100%,78.039217%,17.254902%);fill-opacity:1;stroke-width:0.9;stroke-linecap:butt;stroke-linejoin:miter;stroke:rgb(0%,0%,0%);stroke-opacity:1;stroke-miterlimit:4;" d="M 831.503416 161.698057 C 831.503416 163.139645 830.334016 164.298964 828.902509 164.298964 C 827.460921 164.298964 826.301602 163.139645 826.301602 161.698057 C 826.301602 160.26655 827.460921 159.09715 828.902509 159.09715 C 830.334016 159.09715 831.503416 160.26655 831.503416 161.698057 Z M 831.503416 161.698057 " transform="matrix(0.387485,0,0,0.387485,-110.222443,74.656929)"/>
<path style="fill:none;stroke-width:1.9;stroke-linecap:butt;stroke-linejoin:miter;stroke:rgb(100%,78.039217%,17.254902%);stroke-opacity:1;stroke-miterlimit:4;" d="M 814.795675 181.799001 L 828.798233 161.102635 L 843.103222 181.899811 " transform="matrix(0.387485,0,0,0.387485,-52.060944,-4.42876)"/>
<path style="fill-rule:nonzero;fill:rgb(100%,78.039217%,17.254902%);fill-opacity:1;stroke-width:0.9;stroke-linecap:butt;stroke-linejoin:miter;stroke:rgb(0%,0%,0%);stroke-opacity:1;stroke-miterlimit:4;" d="M 831.701571 173.996279 C 831.701571 175.548759 830.441442 176.798807 828.899043 176.798807 C 827.356645 176.798807 826.096515 175.548759 826.096515 173.996279 C 826.096515 172.453881 827.356645 171.203832 828.899043 171.203832 C 830.441442 171.203832 831.701571 172.453881 831.701571 173.996279 Z M 831.701571 173.996279 " transform="matrix(0.387485,0,0,0.387485,-52.060944,-4.42876)"/>
<path style="fill-rule:nonzero;fill:rgb(100%,78.039217%,17.254902%);fill-opacity:1;stroke-width:0.9;stroke-linecap:butt;stroke-linejoin:miter;stroke:rgb(0%,0%,0%);stroke-opacity:1;stroke-miterlimit:4;" d="M 817.396582 197.102012 L 839.302672 197.102012 C 839.302672 197.102012 839.595022 194.299485 837.004196 192.59579 C 848.496576 191.002986 845.502509 181.002599 854.998844 180.397737 C 857.00497 180.700168 849.99865 184.702339 849.99865 184.702339 C 849.99865 184.702339 844.302865 188.70451 847.004583 190.801365 C 849.000628 192.494979 849.99865 189.803343 850.200271 187.797217 C 850.401892 185.801172 859.494986 184.500718 858.204613 178.804933 C 856.097677 174.09709 843.496383 182.000621 843.496383 182.000621 L 834.504099 181.899811 C 833.899237 180.901788 831.49995 176.899617 828.899043 176.899617 C 825.904976 176.899617 823.697229 181.899811 823.697229 181.899811 L 803.404104 181.899811 C 803.404104 181.899811 802.698432 187.202436 813.00125 188.200458 C 815.299726 191.204607 817.104232 192.001009 819.201087 192.79741 C 817.87039 193.866 817.265528 195.297507 817.396582 197.102012 Z M 818.999466 192.6966 L 837.195735 192.6966 " transform="matrix(0.387485,0,0,0.387485,-52.060944,-4.42876)"/>
<path style="fill-rule:nonzero;fill:rgb(100%,78.039217%,17.254902%);fill-opacity:1;stroke-width:0.9;stroke-linecap:butt;stroke-linejoin:miter;stroke:rgb(0%,0%,0%);stroke-opacity:1;stroke-miterlimit:4;" d="M 810.702774 182.000621 C 810.702774 182.000621 812.104038 190.498934 818.898656 192.494979 " transform="matrix(0.387485,0,0,0.387485,-52.060944,-4.42876)"/>
<path style="fill-rule:nonzero;fill:url(#linear6);stroke-width:0.9;stroke-linecap:butt;stroke-linejoin:miter;stroke:rgb(0%,0%,0%);stroke-opacity:1;stroke-miterlimit:4;" d="M 809.603941 181.799001 C 810.198722 178.603312 811.499176 177.99845 812.79963 173.80474 C 813.00125 169.802568 809.603941 170.296539 810.601964 167.796442 C 812.335902 164.862861 811.499176 162.302278 808.101867 160.104612 C 808.797458 163.804352 803.696455 167.302472 803.696455 170.296539 C 803.696455 173.300688 806.297362 172.695826 806.005012 177.302859 C 806.196551 179.903766 805.299339 179.298904 804.996908 181.799001 Z M 809.603941 181.799001 " transform="matrix(0.387485,0,0,0.387485,-52.060944,-4.42876)"/>
<path style="fill-rule:nonzero;fill:rgb(100%,78.039217%,17.254902%);fill-opacity:1;stroke-width:0.9;stroke-linecap:butt;stroke-linejoin:miter;stroke:rgb(0%,0%,0%);stroke-opacity:1;stroke-miterlimit:4;" d="M 831.49995 161.697416 C 831.49995 163.139004 830.340631 164.298323 828.899043 164.298323 C 827.467536 164.298323 826.298136 163.139004 826.298136 161.697416 C 826.298136 160.265909 827.467536 159.096509 828.899043 159.096509 C 830.340631 159.096509 831.49995 160.265909 831.49995 161.697416 Z M 831.49995 161.697416 " transform="matrix(0.387485,0,0,0.387485,-52.060944,-4.42876)"/>
<path style="fill:none;stroke-width:1.9;stroke-linecap:butt;stroke-linejoin:miter;stroke:rgb(100%,78.039217%,17.254902%);stroke-opacity:1;stroke-miterlimit:4;" d="M 814.804501 181.8046 L 828.796978 161.098154 L 843.101967 181.89533 " transform="matrix(0.387485,0,0,0.387485,-52.603426,11.264382)"/>
<path style="fill-rule:nonzero;fill:rgb(100%,78.039217%,17.254902%);fill-opacity:1;stroke-width:0.9;stroke-linecap:butt;stroke-linejoin:miter;stroke:rgb(0%,0%,0%);stroke-opacity:1;stroke-miterlimit:4;" d="M 831.700316 174.001879 C 831.700316 175.544277 830.450268 176.804407 828.897788 176.804407 C 827.35539 176.804407 826.095261 175.544277 826.095261 174.001879 C 826.095261 172.449399 827.35539 171.199351 828.897788 171.199351 C 830.450268 171.199351 831.700316 172.449399 831.700316 174.001879 Z M 831.700316 174.001879 " transform="matrix(0.387485,0,0,0.387485,-52.603426,11.264382)"/>
<path style="fill-rule:nonzero;fill:rgb(100%,78.039217%,17.254902%);fill-opacity:1;stroke-width:0.9;stroke-linecap:butt;stroke-linejoin:miter;stroke:rgb(0%,0%,0%);stroke-opacity:1;stroke-miterlimit:4;" d="M 817.395327 197.097531 L 839.301417 197.097531 C 839.301417 197.097531 839.603848 194.295003 837.002941 192.601389 C 848.495321 190.998505 845.501254 180.998118 854.997589 180.403336 C 857.003715 180.695686 849.997396 184.697858 849.997396 184.697858 C 849.997396 184.697858 844.301611 188.700029 847.003328 190.796884 C 848.999373 192.500579 849.997396 189.798861 850.199016 187.802816 C 850.400637 185.79669 859.503812 184.496237 858.203358 178.800452 C 856.096422 174.102689 843.495128 181.99614 843.495128 181.99614 L 834.502844 181.89533 C 833.897982 180.897307 831.498696 176.895136 828.897788 176.895136 C 825.903721 176.895136 823.695974 181.89533 823.695974 181.89533 L 803.40285 181.89533 C 803.40285 181.89533 802.697177 187.197954 812.999995 188.195977 C 815.298472 191.200125 817.102977 191.996527 819.199832 192.80301 C 817.869136 193.8716 817.264273 195.303107 817.395327 197.097531 Z M 818.998212 192.7022 L 837.204562 192.7022 " transform="matrix(0.387485,0,0,0.387485,-52.603426,11.264382)"/>
<path style="fill-rule:nonzero;fill:rgb(100%,78.039217%,17.254902%);fill-opacity:1;stroke-width:0.9;stroke-linecap:butt;stroke-linejoin:miter;stroke:rgb(0%,0%,0%);stroke-opacity:1;stroke-miterlimit:4;" d="M 810.701519 181.99614 C 810.701519 181.99614 812.102783 190.504534 818.897401 192.500579 " transform="matrix(0.387485,0,0,0.387485,-52.603426,11.264382)"/>
<path style="fill-rule:nonzero;fill:url(#linear7);stroke-width:0.9;stroke-linecap:butt;stroke-linejoin:miter;stroke:rgb(0%,0%,0%);stroke-opacity:1;stroke-miterlimit:4;" d="M 809.602687 181.8046 C 810.197468 178.598831 811.497921 178.00405 812.798375 173.800258 C 812.999995 169.798087 809.602687 170.302139 810.600709 167.802042 C 812.334647 164.868461 811.497921 162.297797 808.100612 160.100131 C 808.796204 163.799871 803.6952 167.29799 803.6952 170.302139 C 803.6952 173.296206 806.296107 172.701425 806.003757 177.298378 C 806.195297 179.899285 805.298084 179.304504 804.995653 181.8046 Z M 809.602687 181.8046 " transform="matrix(0.387485,0,0,0.387485,-52.603426,11.264382)"/>
<path style="fill-rule:nonzero;fill:rgb(100%,78.039217%,17.254902%);fill-opacity:1;stroke-width:0.9;stroke-linecap:butt;stroke-linejoin:miter;stroke:rgb(0%,0%,0%);stroke-opacity:1;stroke-miterlimit:4;" d="M 831.498696 161.703016 C 831.498696 163.134523 830.339376 164.303923 828.897788 164.303923 C 827.466281 164.303923 826.296881 163.134523 826.296881 161.703016 C 826.296881 160.261428 827.466281 159.102109 828.897788 159.102109 C 830.339376 159.102109 831.498696 160.261428 831.498696 161.703016 Z M 831.498696 161.703016 " transform="matrix(0.387485,0,0,0.387485,-52.603426,11.264382)"/>
<path style="fill:none;stroke-width:1.9;stroke-linecap:butt;stroke-linejoin:miter;stroke:rgb(100%,78.039217%,17.254902%);stroke-opacity:1;stroke-miterlimit:4;" d="M 814.799983 181.798146 L 828.802542 161.10178 L 843.09745 181.898956 " transform="matrix(0.387485,0,0,0.387485,-53.300894,27.345008)"/>
<path style="fill-rule:nonzero;fill:rgb(100%,78.039217%,17.254902%);fill-opacity:1;stroke-width:0.9;stroke-linecap:butt;stroke-linejoin:miter;stroke:rgb(0%,0%,0%);stroke-opacity:1;stroke-miterlimit:4;" d="M 831.695799 173.995425 C 831.695799 175.547904 830.44575 176.797953 828.903352 176.797953 C 827.350872 176.797953 826.100824 175.547904 826.100824 173.995425 C 826.100824 172.453026 827.350872 171.202978 828.903352 171.202978 C 830.44575 171.202978 831.695799 172.453026 831.695799 173.995425 Z M 831.695799 173.995425 " transform="matrix(0.387485,0,0,0.387485,-53.300894,27.345008)"/>
<path style="fill-rule:nonzero;fill:rgb(100%,78.039217%,17.254902%);fill-opacity:1;stroke-width:0.9;stroke-linecap:butt;stroke-linejoin:miter;stroke:rgb(0%,0%,0%);stroke-opacity:1;stroke-miterlimit:4;" d="M 817.40089 197.101158 L 839.296899 197.101158 C 839.296899 197.101158 839.599331 194.29863 836.998423 192.605016 C 848.500885 191.002131 845.496736 181.001744 855.003153 180.396882 C 856.999198 180.699313 850.002959 184.701484 850.002959 184.701484 C 850.002959 184.701484 844.297093 188.703655 846.998811 190.800511 C 849.004937 192.504206 850.002959 189.802488 850.20458 187.796362 C 850.396119 185.800317 859.499295 184.499864 858.198841 178.804079 C 856.101986 174.096235 843.500691 181.999767 843.500691 181.999767 L 834.498327 181.898956 C 833.903545 180.900934 831.504259 176.898763 828.903352 176.898763 C 825.899203 176.898763 823.701538 181.898956 823.701538 181.898956 L 803.398332 181.898956 C 803.398332 181.898956 802.702741 187.201581 812.995478 188.199604 C 815.304035 191.203752 817.098459 192.000154 819.195315 192.796556 C 817.864618 193.865146 817.269837 195.296653 817.40089 197.101158 Z M 819.003775 192.695745 L 837.200044 192.695745 " transform="matrix(0.387485,0,0,0.387485,-53.300894,27.345008)"/>
<path style="fill-rule:nonzero;fill:rgb(100%,78.039217%,17.254902%);fill-opacity:1;stroke-width:0.9;stroke-linecap:butt;stroke-linejoin:miter;stroke:rgb(0%,0%,0%);stroke-opacity:1;stroke-miterlimit:4;" d="M 810.697002 181.999767 C 810.697002 181.999767 812.098266 190.49808 818.902965 192.504206 " transform="matrix(0.387485,0,0,0.387485,-53.300894,27.345008)"/>
<path style="fill-rule:nonzero;fill:url(#linear8);stroke-width:0.9;stroke-linecap:butt;stroke-linejoin:miter;stroke:rgb(0%,0%,0%);stroke-opacity:1;stroke-miterlimit:4;" d="M 809.598169 181.798146 C 810.203031 178.602458 811.503485 177.997596 812.803938 173.803885 C 812.995478 169.801714 809.598169 170.295685 810.596191 167.795588 C 812.33013 164.862007 811.503485 162.301424 808.096095 160.103758 C 808.801767 163.803498 803.700763 167.301617 803.700763 170.295685 C 803.700763 173.299833 806.30167 172.694971 805.999239 177.302004 C 806.20086 179.902911 805.303648 179.298049 805.001217 181.798146 Z M 809.598169 181.798146 " transform="matrix(0.387485,0,0,0.387485,-53.300894,27.345008)"/>
<path style="fill-rule:nonzero;fill:rgb(100%,78.039217%,17.254902%);fill-opacity:1;stroke-width:0.9;stroke-linecap:butt;stroke-linejoin:miter;stroke:rgb(0%,0%,0%);stroke-opacity:1;stroke-miterlimit:4;" d="M 831.504259 161.696561 C 831.504259 163.138149 830.334859 164.297469 828.903352 164.297469 C 827.461764 164.297469 826.302445 163.138149 826.302445 161.696561 C 826.302445 160.265054 827.461764 159.095654 828.903352 159.095654 C 830.334859 159.095654 831.504259 160.265054 831.504259 161.696561 Z M 831.504259 161.696561 " transform="matrix(0.387485,0,0,0.387485,-53.300894,27.345008)"/>
<path style="fill:none;stroke-width:1.9;stroke-linecap:butt;stroke-linejoin:miter;stroke:rgb(100%,78.039217%,17.254902%);stroke-opacity:1;stroke-miterlimit:4;" d="M 814.796848 181.795282 L 828.799406 161.098916 L 843.104395 181.896092 " transform="matrix(0.387485,0,0,0.387485,-52.48718,43.115649)"/>
<path style="fill-rule:nonzero;fill:rgb(100%,78.039217%,17.254902%);fill-opacity:1;stroke-width:0.9;stroke-linecap:butt;stroke-linejoin:miter;stroke:rgb(0%,0%,0%);stroke-opacity:1;stroke-miterlimit:4;" d="M 831.702744 174.002641 C 831.702744 175.54504 830.442615 176.795088 828.900216 176.795088 C 827.357818 176.795088 826.097689 175.54504 826.097689 174.002641 C 826.097689 172.450162 827.357818 171.200113 828.900216 171.200113 C 830.442615 171.200113 831.702744 172.450162 831.702744 174.002641 Z M 831.702744 174.002641 " transform="matrix(0.387485,0,0,0.387485,-52.48718,43.115649)"/>
<path style="fill-rule:nonzero;fill:rgb(100%,78.039217%,17.254902%);fill-opacity:1;stroke-width:0.9;stroke-linecap:butt;stroke-linejoin:miter;stroke:rgb(0%,0%,0%);stroke-opacity:1;stroke-miterlimit:4;" d="M 817.397755 197.098294 L 839.303845 197.098294 C 839.303845 197.098294 839.596195 194.295766 836.995288 192.602152 C 848.497749 190.999267 845.503682 180.99888 855.000017 180.404099 C 856.996062 180.696449 849.999824 184.69862 849.999824 184.69862 C 849.999824 184.69862 844.304039 188.700791 846.995675 190.797646 C 849.001801 192.501341 849.999824 189.799624 850.201444 187.803579 C 850.403065 185.797453 859.496159 184.496999 858.195705 178.801214 C 856.09885 174.103452 843.497556 181.996902 843.497556 181.996902 L 834.495191 181.896092 C 833.90041 180.89807 831.501124 176.895898 828.900216 176.895898 C 825.896068 176.895898 823.698402 181.896092 823.698402 181.896092 L 803.395197 181.896092 C 803.395197 181.896092 802.699605 187.198717 813.002423 188.196739 C 815.3009 191.200888 817.095324 191.99729 819.20226 192.803772 C 817.871564 193.862281 817.266701 195.303869 817.397755 197.098294 Z M 819.00064 192.702962 L 837.196909 192.702962 " transform="matrix(0.387485,0,0,0.387485,-52.48718,43.115649)"/>
<path style="fill-rule:nonzero;fill:rgb(100%,78.039217%,17.254902%);fill-opacity:1;stroke-width:0.9;stroke-linecap:butt;stroke-linejoin:miter;stroke:rgb(0%,0%,0%);stroke-opacity:1;stroke-miterlimit:4;" d="M 810.703947 181.996902 C 810.703947 181.996902 812.09513 190.495215 818.899829 192.501341 " transform="matrix(0.387485,0,0,0.387485,-52.48718,43.115649)"/>
<path style="fill-rule:nonzero;fill:url(#linear9);stroke-width:0.9;stroke-linecap:butt;stroke-linejoin:miter;stroke:rgb(0%,0%,0%);stroke-opacity:1;stroke-miterlimit:4;" d="M 809.595034 181.795282 C 810.199896 178.599593 811.500349 178.004812 812.800803 173.801021 C 813.002423 169.798849 809.595034 170.302901 810.603137 167.802804 C 812.337075 164.869223 811.500349 162.298559 808.10304 160.100893 C 808.798632 163.800633 803.697628 167.298753 803.697628 170.302901 C 803.697628 173.296969 806.298535 172.702188 805.996104 177.29914 C 806.197725 179.900047 805.300512 179.295185 804.998081 181.795282 Z M 809.595034 181.795282 " transform="matrix(0.387485,0,0,0.387485,-52.48718,43.115649)"/>
<path style="fill-rule:nonzero;fill:rgb(100%,78.039217%,17.254902%);fill-opacity:1;stroke-width:0.9;stroke-linecap:butt;stroke-linejoin:miter;stroke:rgb(0%,0%,0%);stroke-opacity:1;stroke-miterlimit:4;" d="M 831.501124 161.703778 C 831.501124 163.135285 830.331723 164.304685 828.900216 164.304685 C 827.468709 164.304685 826.299309 163.135285 826.299309 161.703778 C 826.299309 160.26219 827.468709 159.102871 828.900216 159.102871 C 830.331723 159.102871 831.501124 160.26219 831.501124 161.703778 Z M 831.501124 161.703778 " transform="matrix(0.387485,0,0,0.387485,-52.48718,43.115649)"/>
<path style="fill:none;stroke-width:1.9;stroke-linecap:butt;stroke-linejoin:miter;stroke:rgb(100%,78.039217%,17.254902%);stroke-opacity:1;stroke-miterlimit:4;" d="M 814.802877 181.803318 L 828.795354 161.096871 L 843.100344 181.904128 " transform="matrix(0.387485,0,0,0.387485,-52.680922,58.925036)"/>
<path style="fill-rule:nonzero;fill:rgb(100%,78.039217%,17.254902%);fill-opacity:1;stroke-width:0.9;stroke-linecap:butt;stroke-linejoin:miter;stroke:rgb(0%,0%,0%);stroke-opacity:1;stroke-miterlimit:4;" d="M 831.698692 174.000596 C 831.698692 175.542995 830.448644 176.803124 828.896165 176.803124 C 827.353766 176.803124 826.103718 175.542995 826.103718 174.000596 C 826.103718 172.458198 827.353766 171.198069 828.896165 171.198069 C 830.448644 171.198069 831.698692 172.458198 831.698692 174.000596 Z M 831.698692 174.000596 " transform="matrix(0.387485,0,0,0.387485,-52.680922,58.925036)"/>
<path style="fill-rule:nonzero;fill:rgb(100%,78.039217%,17.254902%);fill-opacity:1;stroke-width:0.9;stroke-linecap:butt;stroke-linejoin:miter;stroke:rgb(0%,0%,0%);stroke-opacity:1;stroke-miterlimit:4;" d="M 817.403784 197.096249 L 839.299793 197.096249 C 839.299793 197.096249 839.602224 194.303802 837.001317 192.600107 C 848.503779 190.997222 845.49963 180.996835 854.995965 180.402054 C 857.002092 180.704485 849.995772 184.696575 849.995772 184.696575 C 849.995772 184.696575 844.299987 188.698746 847.001704 190.795601 C 848.997749 192.499296 849.995772 189.797579 850.197393 187.801534 C 850.399013 185.795408 859.502188 184.505035 858.201735 178.799169 C 856.104879 174.101407 843.503585 182.004939 843.503585 182.004939 L 834.50122 181.904128 C 833.896358 180.896025 831.497072 176.903935 828.896165 176.903935 C 825.902097 176.903935 823.704431 181.904128 823.704431 181.904128 L 803.401226 181.904128 C 803.401226 181.904128 802.695553 187.196672 812.998372 188.204775 C 815.296848 191.198843 817.101353 191.995245 819.198209 192.801728 C 817.867512 193.870317 817.26265 195.301824 817.403784 197.096249 Z M 818.996588 192.700917 L 837.202938 192.700917 " transform="matrix(0.387485,0,0,0.387485,-52.680922,58.925036)"/>
<path style="fill-rule:nonzero;fill:rgb(100%,78.039217%,17.254902%);fill-opacity:1;stroke-width:0.9;stroke-linecap:butt;stroke-linejoin:miter;stroke:rgb(0%,0%,0%);stroke-opacity:1;stroke-miterlimit:4;" d="M 810.699896 182.004939 C 810.699896 182.004939 812.10116 190.503251 818.895777 192.499296 " transform="matrix(0.387485,0,0,0.387485,-52.680922,58.925036)"/>
<path style="fill-rule:nonzero;fill:url(#linear10);stroke-width:0.9;stroke-linecap:butt;stroke-linejoin:miter;stroke:rgb(0%,0%,0%);stroke-opacity:1;stroke-miterlimit:4;" d="M 809.601063 181.803318 C 810.195844 178.597549 811.496297 178.002767 812.796751 173.798976 C 812.998372 169.796805 809.601063 170.300856 810.599085 167.80076 C 812.333023 164.867178 811.496297 162.296514 808.098988 160.098848 C 808.804661 163.798588 803.703657 167.296708 803.703657 170.300856 C 803.703657 173.305005 806.304564 172.700143 806.002133 177.297095 C 806.203754 179.898002 805.296461 179.303221 805.004111 181.803318 Z M 809.601063 181.803318 " transform="matrix(0.387485,0,0,0.387485,-52.680922,58.925036)"/>
<path style="fill-rule:nonzero;fill:rgb(100%,78.039217%,17.254902%);fill-opacity:1;stroke-width:0.9;stroke-linecap:butt;stroke-linejoin:miter;stroke:rgb(0%,0%,0%);stroke-opacity:1;stroke-miterlimit:4;" d="M 831.497072 161.701733 C 831.497072 163.13324 830.337753 164.30264 828.896165 164.30264 C 827.464658 164.30264 826.295257 163.13324 826.295257 161.701733 C 826.295257 160.260145 827.464658 159.100826 828.896165 159.100826 C 830.337753 159.100826 831.497072 160.260145 831.497072 161.701733 Z M 831.497072 161.701733 " transform="matrix(0.387485,0,0,0.387485,-52.680922,58.925036)"/>
<path style="fill:none;stroke-width:1.9;stroke-linecap:butt;stroke-linejoin:miter;stroke:rgb(100%,78.039217%,17.254902%);stroke-opacity:1;stroke-miterlimit:4;" d="M 814.804501 181.802889 L 828.796978 161.096442 L 843.101967 181.903699 " transform="matrix(0.387485,0,0,0.387485,-52.603426,74.81192)"/>
<path style="fill-rule:nonzero;fill:rgb(100%,78.039217%,17.254902%);fill-opacity:1;stroke-width:0.9;stroke-linecap:butt;stroke-linejoin:miter;stroke:rgb(0%,0%,0%);stroke-opacity:1;stroke-miterlimit:4;" d="M 831.700316 174.000168 C 831.700316 175.542566 830.450268 176.802695 828.897788 176.802695 C 827.35539 176.802695 826.095261 175.542566 826.095261 174.000168 C 826.095261 172.457769 827.35539 171.19764 828.897788 171.19764 C 830.450268 171.19764 831.700316 172.457769 831.700316 174.000168 Z M 831.700316 174.000168 " transform="matrix(0.387485,0,0,0.387485,-52.603426,74.81192)"/>
<path style="fill-rule:nonzero;fill:rgb(100%,78.039217%,17.254902%);fill-opacity:1;stroke-width:0.9;stroke-linecap:butt;stroke-linejoin:miter;stroke:rgb(0%,0%,0%);stroke-opacity:1;stroke-miterlimit:4;" d="M 817.395327 197.09582 L 839.301417 197.09582 C 839.301417 197.09582 839.603848 194.303373 837.002941 192.599678 C 848.495321 190.996793 845.501254 180.996406 854.997589 180.401625 C 857.003715 180.704056 849.997396 184.696146 849.997396 184.696146 C 849.997396 184.696146 844.301611 188.698317 847.003328 190.795173 C 848.999373 192.498868 849.997396 189.79715 850.199016 187.801105 C 850.400637 185.794979 859.503812 184.504607 858.203358 178.79874 C 856.096422 174.100978 843.495128 182.00451 843.495128 182.00451 L 834.502844 181.903699 C 833.897982 180.895596 831.498696 176.903506 828.897788 176.903506 C 825.903721 176.903506 823.695974 181.903699 823.695974 181.903699 L 803.40285 181.903699 C 803.40285 181.903699 802.697177 187.196243 812.999995 188.204347 C 815.298472 191.198414 817.102977 192.004897 819.199832 192.801299 C 817.869136 193.869888 817.264273 195.301396 817.395327 197.09582 Z M 818.998212 192.700488 L 837.204562 192.700488 " transform="matrix(0.387485,0,0,0.387485,-52.603426,74.81192)"/>
<path style="fill-rule:nonzero;fill:rgb(100%,78.039217%,17.254902%);fill-opacity:1;stroke-width:0.9;stroke-linecap:butt;stroke-linejoin:miter;stroke:rgb(0%,0%,0%);stroke-opacity:1;stroke-miterlimit:4;" d="M 810.701519 182.00451 C 810.701519 182.00451 812.102783 190.502823 818.897401 192.498868 " transform="matrix(0.387485,0,0,0.387485,-52.603426,74.81192)"/>
<path style="fill-rule:nonzero;fill:url(#linear11);stroke-width:0.9;stroke-linecap:butt;stroke-linejoin:miter;stroke:rgb(0%,0%,0%);stroke-opacity:1;stroke-miterlimit:4;" d="M 809.602687 181.802889 C 810.197468 178.59712 811.497921 178.002339 812.798375 173.798547 C 812.999995 169.796376 809.602687 170.300428 810.600709 167.800331 C 812.334647 164.866749 811.497921 162.296085 808.100612 160.09842 C 808.796204 163.79816 803.6952 167.296279 803.6952 170.300428 C 803.6952 173.304576 806.296107 172.699714 806.003757 177.296666 C 806.195297 179.897573 805.298084 179.302792 804.995653 181.802889 Z M 809.602687 181.802889 " transform="matrix(0.387485,0,0,0.387485,-52.603426,74.81192)"/>
<path style="fill-rule:nonzero;fill:rgb(100%,78.039217%,17.254902%);fill-opacity:1;stroke-width:0.9;stroke-linecap:butt;stroke-linejoin:miter;stroke:rgb(0%,0%,0%);stroke-opacity:1;stroke-miterlimit:4;" d="M 831.498696 161.701304 C 831.498696 163.132811 830.339376 164.302211 828.897788 164.302211 C 827.466281 164.302211 826.296881 163.132811 826.296881 161.701304 C 826.296881 160.259716 827.466281 159.100397 828.897788 159.100397 C 830.339376 159.100397 831.498696 160.259716 831.498696 161.701304 Z M 831.498696 161.701304 " transform="matrix(0.387485,0,0,0.387485,-52.603426,74.81192)"/>
<path style="fill-rule:nonzero;fill:rgb(100%,78.039217%,17.254902%);fill-opacity:1;stroke-width:0.9;stroke-linecap:butt;stroke-linejoin:miter;stroke:rgb(0%,0%,0%);stroke-opacity:1;stroke-miterlimit:4;" d="M 915.801585 406.297988 C 915.801585 406.297988 921.49737 419.504144 927.999638 411.298181 C 934.501906 403.30392 932.20343 399.79572 932.20343 399.79572 L 917.59601 391.902269 L 913.301489 400.904634 Z M 915.801585 406.297988 " transform="matrix(0.387485,0,0,0.387485,-108.75,-4.7)"/>
<path style="fill-rule:nonzero;fill:rgb(100%,77.64706%,70.980394%);fill-opacity:1;stroke-width:0.9;stroke-linecap:butt;stroke-linejoin:miter;stroke:rgb(0%,0%,0%);stroke-opacity:1;stroke-miterlimit:4;" d="M 928.40288 404.604374 C 928.40288 404.604374 929.400902 404.695103 930.096494 403.30392 C 930.902976 401.902656 928.40288 401.297794 927.203236 399.704991 L 926.003593 402.195006 Z M 895.39757 400.995363 L 882.604736 408.001683 C 882.604736 408.001683 876.203278 409.302136 875.800037 408.001683 C 875.295985 406.80204 875.900847 405.703207 879.298156 405.501586 C 882.604736 405.400776 891.597019 397.104084 891.597019 397.104084 L 895.39757 401.096174 Z M 895.59919 173.103476 L 896.002432 177.700428 C 896.204052 179.303312 893.502335 182.700621 893.401525 182.499001 C 893.300714 182.29738 891.89945 182.700621 892.101071 183.597834 C 892.302692 184.495046 894.097116 184.898287 894.097116 184.898287 C 894.097116 184.898287 893.401525 188.204867 894.097116 188.396406 C 894.903599 188.497217 892.101071 192.600198 894.097116 193.699031 C 896.204052 194.797864 899.702172 196.299938 901.294975 195.997507 C 902.89786 195.695076 901.294975 202.096534 901.294975 202.096534 L 896.798833 211.60295 L 921.20502 209.102853 L 916.204827 201.098511 C 916.204827 201.098511 913.795459 199.404897 914.400321 194.797864 C 915.095913 190.301722 914.09789 169.504546 914.09789 169.504546 L 896.698023 167.095178 Z M 891.103048 209.304474 C 891.103048 209.304474 883.199517 212.903404 883.501948 222.70217 C 881.495822 232.198505 880.396989 241.704922 880.396989 241.704922 C 880.396989 241.704922 871.001464 252.30009 868.198936 256.201451 C 865.295598 260.002001 861.001077 267.703912 859.499002 269.800768 C 857.896118 271.796813 851.696281 278.601512 851.797091 281.202419 C 851.998712 283.702516 850.395827 295.003356 856.595664 296.203 C 858.198549 296.898591 863.299553 283.198464 863.299553 283.198464 C 863.299553 283.198464 863.601984 277.401868 861.797478 276.202225 C 860.103864 275.204203 865.598029 271.403652 865.598029 271.403652 L 878.602564 261.695615 C 881.001851 259.69957 887.504119 252.501711 887.504119 252.501711 Z M 891.103048 209.304474 " transform="matrix(0.387485,0,0,0.387485,-108.75,-4.7)"/>
<path style="fill-rule:nonzero;fill:rgb(100%,100%,100%);fill-opacity:1;stroke-width:0.9;stroke-linecap:butt;stroke-linejoin:miter;stroke:rgb(0%,0%,0%);stroke-opacity:1;stroke-miterlimit:4;" d="M 900.196142 201.804184 C 900.196142 201.804184 902.202268 207.399158 906.799221 206.401136 C 911.396173 205.403113 916.799608 201.199321 916.799608 201.199321 C 916.799608 201.199321 921.10421 200.997701 921.698991 201.703373 C 922.303853 202.398965 933.302263 212.903404 932.899021 216.199902 C 932.59659 219.597211 927.898828 218.599189 926.104404 220.796854 C 924.299898 223.004601 921.49737 228.599576 922.303853 232.803368 C 923.100255 236.795458 925.499541 242.198893 925.19711 244.295748 C 924.90476 246.402684 923.201065 246.997466 923.201065 248.096298 C 923.201065 249.195131 924.602329 251.100447 924.602329 253.096492 C 924.602329 255.203428 922.596203 258.197496 922.999445 260.304432 C 923.301876 262.300477 923.402686 268.298693 923.402686 268.298693 L 922.999445 296.30381 C 922.999445 296.30381 924.602329 297.201022 924.70314 298.803907 C 924.90476 300.2959 935.499929 346.396475 935.499929 346.396475 C 935.499929 346.396475 934.995877 347.898549 933.897044 347.696929 C 932.798211 347.495308 938.201646 354.804059 938.302456 356.900914 C 938.403267 358.997769 943.897431 375.097183 943.69581 377.30493 C 943.504271 379.502596 942.697788 384.502789 942.304628 384.6036 C 941.800576 384.795139 945.802747 394.795526 945.097074 396.297601 C 944.502293 397.900485 938.100836 397.799675 938.100836 397.799675 L 936.29633 397.396434 C 936.29633 397.396434 936.397141 399.50337 935.197498 399.704991 C 933.997854 399.89653 924.602329 399.200939 924.602329 399.200939 C 924.602329 399.200939 921.900612 403.30392 920.297727 403.20311 C 918.704924 403.001489 916.597987 400.198961 916.204827 400.602203 C 915.700775 401.096174 917.59601 403.797891 917.202849 404.604374 C 916.597987 405.400776 908.603726 407.104471 907.000841 403.30392 C 905.397957 399.50337 907.998864 400.501392 907.404083 399.704991 C 907.000841 398.898508 903.401912 396.801652 902.202268 397.396434 C 901.204246 398.102106 905.095526 398.999318 904.903986 400.602203 C 904.702365 402.195006 901.395786 404.604374 900.196142 404.604374 C 898.996499 404.604374 895.901621 398.696887 891.395398 399.301749 C 887.000067 399.997341 884.197539 401.096174 884.197539 401.096174 C 884.197539 401.096174 878.904996 403.30392 876.697249 402.799869 C 874.499583 402.396627 873.501561 400.602203 873.501561 399.704991 C 873.501561 398.696887 875.104445 394.603987 875.003635 393.303533 C 874.802014 392.10389 873.501561 390.803436 873.501561 388.898121 C 873.501561 387.002886 877.201301 380.500618 877.201301 380.500618 L 876.99968 351.295858 C 876.99968 351.295858 873.703181 351.295858 873.501561 349.299813 C 873.40075 347.303768 878.602564 303.199238 879.499777 300.2959 L 882.302304 287.301445 C 882.302304 287.301445 879.903018 288.501088 879.701397 287.301445 C 879.600587 286.303423 886.899257 261.100834 886.899257 261.100834 C 886.899257 261.100834 888.0989 248.49954 888.0989 245.203041 C 888.0989 241.896462 887.504119 237.299509 887.504119 237.299509 C 887.504119 237.299509 881.001851 234.496982 880.80023 230.303271 C 880.195368 223.599382 887.000067 219.899642 887.796469 217.701976 L 891.002238 208.699612 C 891.002238 208.699612 894.500357 202.701396 900.196142 201.804184 Z M 900.196142 201.804184 " transform="matrix(0.387485,0,0,0.387485,-108.75,-4.7)"/>
<path style="fill-rule:nonzero;fill:rgb(100%,78.039217%,17.254902%);fill-opacity:1;stroke-width:0.9;stroke-linecap:butt;stroke-linejoin:miter;stroke:rgb(0%,0%,0%);stroke-opacity:1;stroke-miterlimit:4;" d="M 897.796856 403.001489 C 897.796856 403.001489 882.403115 410.99575 880.195368 411.701423 C 877.997702 412.397014 876.596438 408.999705 878.804185 408.404924 C 881.001851 407.699252 884.49997 407.396821 884.49997 407.396821 C 884.49997 407.396821 879.298156 403.30392 879.499777 403.1023 L 886.697636 400.501392 C 886.899257 400.501392 888.895302 404.503564 890.296566 404.301943 C 892.28253 403.334163 894.167683 402.164763 895.901621 400.803824 Z M 897.796856 403.001489 " transform="matrix(0.387485,0,0,0.387485,-108.75,-4.7)"/>
<path style="fill-rule:nonzero;fill:rgb(100%,77.64706%,70.980394%);fill-opacity:1;stroke-width:0.9;stroke-linecap:butt;stroke-linejoin:miter;stroke:rgb(0%,0%,0%);stroke-opacity:1;stroke-miterlimit:4;" d="M 919.400515 407.396821 C 920.902589 409.302136 921.39656 412.497825 924.80395 410.60259 C 928.100449 408.697274 923.100255 405.199155 923.100255 405.199155 Z M 919.400515 407.396821 " transform="matrix(0.387485,0,0,0.387485,-108.75,-4.7)"/>
<path style="fill-rule:nonzero;fill:rgb(100%,77.64706%,70.980394%);fill-opacity:1;stroke-width:0.9;stroke-linecap:butt;stroke-linejoin:miter;stroke:rgb(0%,0%,0%);stroke-opacity:1;stroke-miterlimit:4;" d="M 925.499541 407.104471 C 925.499541 407.104471 927.102426 408.404924 928.50369 406.90285 C 929.904954 405.501586 925.701162 402.497437 925.701162 402.497437 L 923.604307 404.896724 Z M 932.30424 216.996304 C 932.49578 216.996304 937.495974 232.601747 938.201646 236.603918 C 938.796427 240.596008 940.903364 256.403072 940.096881 258.600737 C 939.300479 260.798403 931.195326 271.403652 930.298114 274.095289 C 929.400902 276.797006 923.604307 287.099825 923.604307 287.099825 C 923.604307 287.099825 922.203043 297.301832 921.598181 297.694993 C 921.0034 298.098234 923.201065 300.699141 922.999445 301.495543 C 922.697014 302.503647 918.402492 306.898978 916.497177 306.495737 C 914.601942 306.102576 911.496983 303.8041 911.496983 301.697164 C 911.204633 299.701119 911.496983 292.79561 912.999057 291.101996 C 914.400321 289.29749 921.900612 271.796813 922.303853 270.69798 C 922.797824 269.498337 929.098471 255.697399 929.300092 253.398923 C 929.501712 251.100447 927.304047 245.495391 925.0963 243.499346 C 920.096106 228.801197 922.102232 220.000453 932.30424 216.996304 Z M 932.30424 216.996304 " transform="matrix(0.387485,0,0,0.387485,-108.75,-4.7)"/>
<path style="fill-rule:nonzero;fill:rgb(61.176473%,31.764707%,0%);fill-opacity:1;stroke-width:0.9;stroke-linecap:butt;stroke-linejoin:miter;stroke:rgb(0%,0%,0%);stroke-opacity:1;stroke-miterlimit:4;" d="M 895.004409 172.196182 C 895.004409 172.196182 898.603339 172.700234 900.498573 171.601401 C 902.403889 170.502568 904.601555 169.998517 906.20444 172.196182 C 907.797243 174.403929 908.896076 174.202308 908.896076 174.202308 C 908.896076 174.202308 906.49679 180.200525 908.896076 180.795306 C 911.204633 181.400168 912.404276 181.400168 912.495006 182.19657 C 912.595816 183.003052 910.498961 184.696666 911.103823 185.503149 C 911.698604 186.299551 912.797437 187.196763 912.999057 187.902436 C 913.200678 188.598027 911.597794 191.198934 912.001035 191.904607 C 912.495006 192.499388 913.99708 194.999485 914.904373 194.999485 C 915.902396 194.999485 915.196723 199.001656 918.100061 198.003633 C 920.902589 196.99553 920.801779 194.495433 920.801779 194.495433 C 920.801779 194.495433 923.795846 194.102272 924.602329 191.400555 C 925.398731 188.698837 927.203236 188.003246 927.203236 188.003246 C 927.203236 188.003246 931.003787 185.99712 926.003593 182.801432 C 926.003593 160.602992 911.396173 163.002278 911.396173 163.002278 C 911.396173 163.002278 909.702559 159.000107 906.799221 159.504159 C 903.895882 159.998129 903.795072 163.304709 901.799027 163.002278 C 899.702172 162.699847 899.19812 161.298583 899.09731 161.399393 C 898.895689 161.601014 897.101265 164.796702 897.101265 165.502375 C 897.101265 166.298777 891.597019 164.504352 892.101071 168.496442 C 892.595042 172.700234 895.296759 172.498613 895.095138 172.196182 Z M 895.004409 172.196182 " transform="matrix(0.387485,0,0,0.387485,-108.75,-4.7)"/>
<path style="fill:none;stroke-width:0.9;stroke-linecap:butt;stroke-linejoin:miter;stroke:rgb(0%,0%,0%);stroke-opacity:1;stroke-miterlimit:4;" d="M 920.801779 208.00402 C 920.801779 208.00402 906.69841 216.996304 907.000841 220.202073 M 923.997467 209.596824 C 923.997467 209.596824 920.801779 213.105024 920.600158 213.105024 M 928.201259 213.397374 C 928.201259 213.397374 921.20502 219.10324 922.303853 222.70217 M 895.296759 207.197538 C 895.296759 207.197538 893.199904 211.50214 893.703956 212.903404 C 894.197926 214.304668 897.696046 219.698021 898.099287 223.004601 C 898.603339 226.40191 898.099287 228.700386 898.099287 228.700386 M 891.597019 215.101069 C 891.597019 215.101069 892.201881 220.101263 893.199904 221.099285 C 894.197926 222.097308 896.698023 226.40191 897.000454 228.095524 M 890.296566 236.200677 C 890.296566 236.200677 894.500357 238.196722 898.300908 230.303271 M 904.399934 224.799025 C 904.299124 224.799025 901.395786 232.500937 906.49679 235.404275 C 911.597794 238.297532 915.398344 237.904372 917.495199 237.097889 C 919.803756 236.402297 922.203043 234.900223 922.203043 234.900223 M 902.202268 234.295361 C 902.202268 234.295361 902.5047 244.698989 917.898441 255.001808 M 902.89786 244.104208 C 902.89786 244.104208 902.696239 253.298113 908.704536 257.401094 M 899.702172 233.297338 C 899.702172 233.297338 895.095138 246.997466 891.395398 248.297919 M 898.300908 243.297725 C 898.300908 243.297725 898.099287 253.096492 896.798833 256.604692 M 895.59919 259.003979 C 895.59919 259.003979 898.704149 262.996069 902.202268 262.602908 C 905.700388 262.199667 907.202462 258.197496 909.500938 258.802358 C 911.900225 259.497949 914.09789 261.403265 919.602136 260.899213 M 911.698604 265.002195 C 911.698604 265.002195 911.698604 273.097266 913.200678 273.903749 C 914.601942 274.700151 913.89627 282.099631 913.89627 282.099631 M 892.403502 261.201644 C 892.403502 261.201644 892.201881 268.802745 891.304669 271.504463 C 890.397376 274.196099 888.401331 278.803132 888.804572 282.795222 M 882.695465 287.200635 C 883.501948 286.898204 886.203665 284.498917 886.203665 284.498917 M 887.604929 286.202612 C 887.604929 286.202612 880.80023 315.397291 882.695465 332.797158 M 889.197733 287.704687 C 889.197733 287.704687 885.699613 309.499885 887.302498 313.703677 M 887.504119 286.999014 L 900.801005 287.997037 M 902.696239 286.202612 C 902.696239 286.202612 906.295169 288.198657 911.396173 287.795416 M 901.103436 296.898591 C 901.103436 296.898591 900.498573 334.198422 899.500551 342.495114 M 920.600158 305.396904 C 920.600158 305.396904 924.70314 338.200593 927.102426 341.204742 M 912.696626 309.499885 C 912.696626 309.499885 915.196723 338.503024 916.698797 341.103932 M 876.697249 351.195048 C 876.697249 351.195048 881.697442 349.602244 886.102855 344.904482 C 891.103048 351.6991 898.895689 345.196832 898.895689 345.196832 C 898.895689 345.196832 910.902202 353.402795 916.295556 344.198809 C 924.602329 349.602244 928.69523 343.402408 928.69523 343.402408 C 928.69523 343.402408 931.699378 347.99936 933.897044 347.495308 M 920.801779 350.701077 C 920.801779 350.701077 926.900805 379.704216 936.104791 387.900098 " transform="matrix(0.387485,0,0,0.387485,-108.75,-4.7)"/>
<path style="fill:none;stroke-width:0.9;stroke-linecap:butt;stroke-linejoin:miter;stroke:rgb(0%,0%,0%);stroke-opacity:1;stroke-miterlimit:4;" d="M 888.996112 347.696929 C 888.996112 347.696929 889.701784 371.901495 891.103048 388.998931 M 887.796469 375.097183 C 887.796469 375.097183 887.000067 390.904247 886.102855 392.10389 M 878.501754 393.595883 C 878.501754 393.595883 880.195368 400.501392 888.895302 394.099935 C 897.595235 387.799288 897.796856 396.499221 898.099287 397.396434 C 898.401718 398.404537 899.802982 405.199155 903.099481 399.50337 M 910.095719 390.198574 C 910.095719 390.198574 908.704536 404.201132 921.20502 393.999125 C 933.695423 383.696306 935.80236 393.797504 936.19552 397.003273 M 910.29734 166.802828 C 910.29734 166.802828 909.198507 173.799067 916.597987 173.103476 C 915.599965 177.004836 918.604113 178.20448 918.604113 178.20448 M 923.997467 182.499001 C 924.199088 182.499001 927.404857 184.495046 923.997467 187.095953 M 913.301489 188.003246 C 913.301489 188.003246 914.904373 189.999291 916.597987 189.495239 C 918.402492 189.001269 921.20502 191.198934 921.20502 191.198934 C 921.20502 191.198934 923.604307 191.995336 923.896657 191.501365 M 903.603532 194.001462 C 903.603532 194.001462 908.996886 196.098317 912.595816 187.600005 M 893.703956 184.999097 L 896.798833 185.200718 M 858.50098 285.002969 L 858.803411 291.898397 M 851.998712 284.398107 C 851.998712 284.398107 856.504935 291.898397 856.000883 295.799758 " transform="matrix(0.387485,0,0,0.387485,-108.75,-4.7)"/>
<path style="fill:none;stroke-width:0.9;stroke-linecap:butt;stroke-linejoin:round;stroke:rgb(0%,0%,0%);stroke-opacity:1;stroke-miterlimit:4;" d="M 894.097116 188.204867 L 897.000454 188.204867 L 894.500357 189.3037 M 911.698604 300.00355 C 911.698604 300.00355 914.995102 299.600309 914.904373 305.195283 C 917.001229 298.199045 921.29575 298.098234 921.29575 298.098234 " transform="matrix(0.387485,0,0,0.387485,-108.75,-4.7)"/>
<path style="fill:none;stroke-width:1.7;stroke-linecap:butt;stroke-linejoin:round;stroke:rgb(0%,0%,0%);stroke-opacity:1;stroke-miterlimit:4;" d="M 898.099287 179.303312 C 898.603339 179.303312 900.296953 178.69845 900.599384 179.202502 C 901.002625 179.595662 898.704149 179.998904 898.099287 179.303312 Z M 898.099287 179.303312 " transform="matrix(0.387485,0,0,0.387485,-108.75,-4.7)"/>
<path style="fill-rule:nonzero;fill:rgb(100%,78.039217%,17.254902%);fill-opacity:1;stroke-width:1.9;stroke-linecap:butt;stroke-linejoin:miter;stroke:rgb(0%,0%,0%);stroke-opacity:1;stroke-miterlimit:4;" d="M 900.296953 458.5984 C 942.052602 456.662841 981.388802 438.466572 1009.89797 407.900872 C 1009.50481 407.497631 1018.799525 394.503176 1026.199005 396.297601 C 1033.598485 398.102106 1044.304544 419.998115 1057.298999 424.695878 C 1063.801267 434.897885 1055.504575 444.202681 1052.702047 445.997105 C 1049.899519 447.801611 1037.298225 453.003425 1035.5038 445.603945 C 1033.598485 438.103655 1029.898745 439.595648 1029.898745 439.595648 C 1029.898745 439.595648 970.400473 497.601926 901.698217 495.30345 C 830.697484 495.69661 772.096425 439.504919 772.096425 439.504919 L 766.995421 445.099893 C 766.995421 445.099893 761.400446 451.098109 758.597918 450.704949 C 755.79539 450.301708 743.698148 442.297365 742.800936 434.403915 C 741.903724 426.500383 750.200416 421.399379 750.200416 421.399379 C 750.200416 421.399379 770.695161 405.602396 773.003718 397.295623 C 777.701481 392.597861 786.502224 400.501392 786.502224 400.501392 C 786.502224 400.501392 840.39544 462.29814 900.296953 458.497589 Z M 900.296953 458.5984 " transform="matrix(0.387485,0,0,0.387485,-108.75,-4.7)"/>
<path style="fill:none;stroke-width:1.9;stroke-linecap:butt;stroke-linejoin:miter;stroke:rgb(0%,0%,0%);stroke-opacity:1;stroke-miterlimit:4;" d="M 748.899962 422.599022 C 748.899962 422.599022 754.404208 421.197758 756.400253 423.496234 C 758.396298 425.804791 772.398856 439.504919 772.398856 439.504919 " transform="matrix(0.387485,0,0,0.387485,-108.75,-4.7)"/>
<path style="fill:none;stroke-width:1.9;stroke-linecap:butt;stroke-linejoin:miter;stroke:rgb(0%,0%,0%);stroke-opacity:1;stroke-miterlimit:4;" d="M 761.501257 429.10129 L 755.896201 433.204271 C 755.896201 433.204271 769.898759 435.996718 766.703071 445.200704 M 1052.298805 422.195781 C 1052.298805 422.195781 1049.597088 420.703788 1045.302567 423.899476 C 1040.897154 427.195974 1029.999555 439.404108 1029.999555 439.404108 " transform="matrix(0.387485,0,0,0.387485,-108.75,-4.7)"/>
<path style="fill:none;stroke-width:1.9;stroke-linecap:butt;stroke-linejoin:miter;stroke:rgb(0%,0%,0%);stroke-opacity:1;stroke-miterlimit:4;" d="M 1039.899132 428.698049 L 1045.897348 433.295001 C 1045.897348 433.295001 1033.396864 434.202294 1036.098581 445.997105 " transform="matrix(0.387485,0,0,0.387485,-108.75,-4.7)"/>
<path style=" stroke:none;fill-rule:nonzero;fill:rgb(0%,0%,0%);fill-opacity:1;" d="M 208.871094 164.785156 C 208.714844 165.171875 208.328125 164.785156 208.019531 164.863281 C 207.242188 164.863281 206.546875 165.40625 205.847656 165.792969 L 198.71875 169.941406 C 198.539062 169.835938 198.5 169.679688 198.601562 169.472656 L 200.539062 160.5625 C 200.617188 160.058594 200.773438 159.398438 200.269531 159.011719 C 200.074219 158.855469 200.386719 158.585938 200.539062 158.855469 L 204.183594 161.453125 C 204.066406 161.800781 203.835938 161.53125 203.640625 161.414062 C 203.136719 160.910156 202.515625 161.375 202.554688 161.996094 L 201.238281 167.847656 C 202.867188 166.917969 204.492188 165.960938 206.121094 164.980469 C 206.664062 164.746094 207.089844 163.972656 206.507812 163.507812 C 206.273438 163.351562 205.886719 163.003906 206.273438 162.925781 Z M 211.429688 177.183594 C 211.351562 177.417969 211.222656 177.457031 211.042969 177.300781 L 206.777344 174.976562 C 206.804688 174.71875 206.921875 174.667969 207.128906 174.820312 C 207.515625 175.09375 208.136719 175.210938 208.445312 174.746094 L 209.996094 171.914062 L 212.164062 167.964844 C 212.476562 167.460938 212.125 166.878906 211.660156 166.683594 C 211.507812 166.605469 211.273438 166.53125 211.46875 166.375 C 211.546875 166.257812 211.777344 166.492188 211.894531 166.53125 L 216 168.777344 C 215.949219 169.007812 215.832031 169.046875 215.652344 168.894531 C 215.265625 168.621094 214.644531 168.503906 214.335938 168.972656 L 212.785156 171.800781 L 210.613281 175.75 C 210.304688 176.214844 210.652344 176.835938 211.117188 177.03125 Z M 227.9375 173.3125 L 226.773438 176.566406 C 226.269531 176.527344 226.617188 175.90625 226.464844 175.597656 C 226.304688 174.078125 225.226562 172.8125 223.75 172.417969 C 222.589844 172.109375 221.425781 172.691406 220.726562 173.621094 C 219.71875 175 219.125 176.640625 219.023438 178.347656 C 218.953125 179.339844 219.425781 180.289062 220.261719 180.828125 C 220.945312 181.253906 221.746094 181.457031 222.550781 181.410156 L 223.363281 178.96875 C 223.480469 178.425781 222.898438 178.078125 222.472656 177.960938 C 222.394531 177.804688 222.550781 177.574219 222.742188 177.765625 L 227.003906 179.316406 C 227.003906 179.820312 226.386719 179.238281 226.035156 179.472656 C 225.535156 179.664062 225.496094 180.285156 225.261719 180.75 L 224.757812 182.222656 C 222.796875 182.351562 220.933594 181.9375 219.179688 180.984375 C 217.589844 179.976562 216.464844 178 216.816406 176.0625 C 217.046875 174.394531 218.09375 172.84375 219.605469 172.109375 C 221 171.335938 222.703125 171.375 224.175781 171.953125 C 224.953125 172.265625 225.648438 172.703125 226.269531 173.273438 C 226.65625 173.777344 227.355469 173.777344 227.664062 173.234375 Z M 234.871094 184.46875 C 234.871094 184.625 234.871094 184.820312 234.640625 184.703125 L 229.757812 183.964844 C 229.730469 183.734375 229.808594 183.65625 229.988281 183.734375 C 230.375 183.8125 230.996094 183.8125 231.152344 183.347656 C 231.332031 182.675781 231.460938 182.003906 231.539062 181.332031 L 232.390625 175.675781 C 232.507812 175.285156 232.390625 174.820312 231.964844 174.667969 C 231.707031 174.589844 231.449219 174.523438 231.191406 174.472656 C 231.140625 174.292969 231.214844 174.214844 231.421875 174.242188 L 236.304688 175.015625 C 236.355469 175.222656 236.28125 175.300781 236.074219 175.246094 C 235.683594 175.132812 235.105469 175.171875 234.910156 175.636719 C 234.730469 176.28125 234.601562 176.941406 234.523438 177.613281 L 233.671875 183.269531 C 233.554688 183.65625 233.671875 184.160156 234.136719 184.316406 L 234.910156 184.46875 Z M 248.125 181.292969 L 247.929688 184.742188 L 239.171875 185.167969 C 239.121094 184.960938 239.199219 184.871094 239.40625 184.894531 C 239.832031 184.894531 240.414062 184.703125 240.488281 184.199219 L 240.375 181.640625 L 240.101562 176.449219 C 240.140625 175.945312 239.714844 175.558594 239.210938 175.597656 C 239.054688 175.519531 238.628906 175.75 238.667969 175.480469 C 238.589844 175.246094 238.941406 175.363281 239.054688 175.324219 L 243.9375 175.054688 C 243.992188 175.3125 243.898438 175.414062 243.667969 175.363281 C 243.242188 175.363281 242.660156 175.441406 242.503906 175.984375 C 242.503906 176.734375 242.53125 177.46875 242.582031 178.191406 L 242.855469 183.617188 C 242.855469 184.042969 243.242188 184.46875 243.707031 184.394531 C 244.402344 184.355469 245.140625 184.394531 245.835938 184.199219 C 246.804688 183.925781 247.308594 182.960938 247.582031 182.066406 C 247.773438 181.835938 247.582031 181.214844 247.96875 181.292969 Z M 254.90625 172.84375 C 254.671875 172.84375 254.789062 173.15625 254.710938 173.3125 C 254.347656 176.230469 253.960938 179.121094 253.546875 181.992188 C 253.472656 182.648438 253.316406 183.386719 252.695312 183.695312 C 252.464844 183.8125 252.65625 184.160156 252.890625 183.964844 L 255.796875 183.074219 C 255.757812 182.609375 255.175781 183.074219 254.867188 182.960938 C 254.207031 182.960938 254.089844 182.144531 254.207031 181.640625 C 254.207031 181.28125 254.246094 180.929688 254.324219 180.59375 L 257.65625 179.585938 C 258.09375 180.105469 258.519531 180.648438 258.933594 181.214844 C 259.246094 181.757812 258.546875 181.992188 258.160156 182.105469 C 257.925781 182.105469 258.082031 182.492188 258.277344 182.339844 L 262.65625 181.023438 C 262.65625 180.519531 262.035156 181.023438 261.761719 180.632812 C 260.910156 180.054688 260.328125 179.199219 259.671875 178.425781 Z M 254.90625 176.332031 L 257.230469 179.160156 L 254.402344 180.015625 Z M 269.863281 166.335938 L 271.140625 168.660156 C 270.753906 169.046875 270.519531 168.234375 270.171875 168.117188 C 269.566406 167.632812 268.726562 167.554688 268.039062 167.925781 L 267.265625 168.351562 L 271.0625 175.441406 C 271.257812 176.023438 271.992188 176.140625 272.496094 175.828125 C 272.675781 175.621094 272.804688 175.636719 272.882812 175.867188 C 272.238281 176.253906 271.566406 176.617188 270.867188 176.953125 L 268.351562 178.308594 C 268.195312 178.128906 268.246094 178 268.503906 177.921875 C 268.78125 177.820312 268.996094 177.59375 269.078125 177.3125 C 269.164062 177.03125 269.109375 176.722656 268.929688 176.488281 L 265.171875 169.511719 C 264.476562 169.902344 263.625 170.210938 263.429688 171.0625 C 263.234375 171.644531 263.507812 172.304688 263.507812 172.769531 C 263.3125 173 263.234375 172.691406 263.121094 172.535156 L 262.074219 170.519531 Z M 275.789062 162.808594 L 278.191406 166.027344 C 278.734375 165.636719 279.199219 165.019531 279.046875 164.320312 C 279.121094 163.777344 278.347656 163.160156 278.617188 162.769531 C 278.773438 162.695312 278.890625 163.082031 279.007812 163.195312 L 281.796875 166.878906 C 281.410156 167.265625 281.175781 166.453125 280.789062 166.335938 C 280.246094 165.949219 279.511719 165.753906 278.929688 166.179688 C 278.542969 166.335938 278.503906 166.554688 278.8125 166.839844 C 279.433594 167.691406 280.078125 168.53125 280.75 169.359375 C 281.136719 169.746094 281.679688 169.359375 282.027344 169.046875 C 282.957031 168.429688 283.773438 167.421875 283.734375 166.257812 C 283.8125 165.714844 283.460938 165.171875 283.460938 164.707031 C 283.695312 164.4375 283.734375 164.863281 283.851562 165.019531 L 285.167969 167.34375 L 278.347656 172.496094 C 278.078125 172.304688 278.347656 172.148438 278.542969 172.03125 C 279.160156 171.644531 278.96875 170.832031 278.542969 170.40625 L 274.125 164.632812 C 273.738281 164.128906 273.039062 164.398438 272.691406 164.746094 C 272.496094 164.980469 272.304688 164.554688 272.574219 164.515625 L 278.96875 159.671875 L 280.710938 161.996094 C 280.324219 162.382812 279.9375 161.492188 279.511719 161.453125 C 278.65625 160.988281 277.648438 161.335938 276.953125 161.917969 L 275.75 162.808594 "/>
</g>
</svg>
