<?xml version="1.0" encoding="UTF-8"?>
<svg xmlns="http://www.w3.org/2000/svg" xmlns:xlink="http://www.w3.org/1999/xlink" width="px" height="px" viewBox="0 0 320 240" version="1.1">
<g id="surface1">
<rect x="0" y="0" width="320" height="240" style="fill:rgb(100%,100%,100%);fill-opacity:1;stroke:none;"/>
<path style="fill-rule:nonzero;fill:rgb(21.176471%,58.039218%,26.274511%);fill-opacity:1;stroke-width:1.5;stroke-linecap:butt;stroke-linejoin:miter;stroke:rgb(0.392157%,0%,0.784314%);stroke-opacity:1;stroke-miterlimit:10;" d="M 204.296875 315 C 204.296875 315 203.796875 311.398438 210.5 308.898438 C 217.101562 306.296875 217.703125 296.703125 216.296875 290.296875 C 216.296875 290.296875 212.898438 296.296875 208.601562 298.398438 C 208.601562 298.398438 201.796875 302 201.398438 308.796875 C 201.398438 308.796875 201.398438 311.296875 200.898438 313.296875 C 200.601562 314.296875 197.5 304.703125 203.296875 297.5 C 209.296875 290.203125 210.898438 284.203125 206.203125 272.5 C 206.203125 272.5 205.703125 279.5 201.101562 283.601562 C 196.398438 287.601562 195.796875 288 195.898438 297.601562 C 195.898438 297.601562 195.898438 301 194.203125 302.101562 C 194.203125 302.101562 190.601562 296.796875 189.601562 293.296875 C 188.601562 289.796875 188.203125 288.296875 192.398438 284.296875 C 192.398438 284.296875 205.601562 275.601562 196.101562 256.898438 C 196.101562 256.898438 195.796875 263.296875 191.101562 267.101562 C 186.601562 271 186.898438 273.5 186.703125 280.101562 C 186.5 286.796875 186.101562 286.296875 185.601562 287.296875 C 185.601562 287.296875 177.101562 271.703125 183.601562 263.5 C 190.101562 255.296875 193.796875 253.5 186.601562 238.101562 C 186.601562 238.101562 186.898438 246.101562 181.101562 249.898438 C 175.398438 253.898438 176.703125 262.898438 176.703125 262.898438 C 176.703125 262.898438 177.101562 266.398438 175.898438 268.898438 C 175.898438 268.898438 167.796875 253 175.5 244.5 C 182.101562 237.203125 182.5 232.101562 179 221.898438 C 179 221.898438 178.601562 226.601562 175 229.203125 C 171.296875 231.796875 168.398438 234.296875 169.101562 244.203125 C 169.101562 244.203125 169.398438 251.203125 168.5 253.203125 C 168.5 253.203125 165.101562 246.796875 164.101562 242.703125 C 163.101562 238.5 162.796875 236.101562 165.296875 232 C 167.796875 227.898438 177.796875 216 165.898438 199 C 165.898438 199 165.601562 204.5 162.5 209.5 C 159.5 214.5 160.898438 220.398438 161.5 224.898438 C 162.101562 229.398438 160 233.796875 160 233.796875 C 160 233.796875 154.796875 224.296875 156 213.398438 C 157.070312 202.335938 152.570312 193.53125 142.5 187 C 142.5 187 135.203125 204 145.203125 212.703125 C 145.203125 212.703125 153.703125 221.101562 155.898438 231.296875 C 155.898438 231.296875 149.398438 230.703125 143.601562 219.296875 C 137.796875 207.898438 125.601562 209.703125 124.796875 209.601562 C 124.796875 209.601562 126.796875 227.203125 145.398438 232.203125 C 145.398438 232.203125 157.398438 234.203125 159.601562 243 C 159.601562 243 161.601562 249 162.398438 252.203125 C 162.398438 252.203125 158.601562 250.703125 155.101562 245.5 C 151.601562 240.5 152.101562 239.796875 140.296875 238.601562 C 140.296875 238.601562 135.601562 238.101562 133.101562 234.703125 C 133.101562 234.703125 138.101562 253.296875 150.796875 253.203125 C 150.796875 253.203125 162.398438 251.898438 168.796875 267.203125 L 165.898438 265.203125 C 164.203125 264.101562 159.898438 261.898438 151.398438 262.898438 C 142.898438 263.898438 140.5 262.5 138.398438 261.898438 C 138.398438 261.898438 147 277.601562 159.101562 272.898438 C 171.203125 268.203125 177.101562 285.296875 177.296875 285.601562 C 177.296875 285.601562 175.601562 284.398438 173.5 282.296875 C 171.296875 280.203125 166.898438 277.601562 158.5 280.296875 C 158.5 280.296875 152.398438 282.601562 146.203125 280.703125 C 146.203125 280.703125 152.203125 292.203125 166 290.203125 C 173.53125 288.671875 180.992188 293.070312 183.296875 300.398438 C 183.296875 300.398438 181.5 299.398438 180.296875 298.398438 C 179 297.398438 174.296875 294.703125 164.296875 297.601562 C 154.296875 300.5 150.703125 297.203125 150.703125 297.203125 C 150.703125 297.203125 156.203125 307.203125 166.898438 308.5 C 166.898438 308.5 172.898438 308.398438 175.296875 307.5 C 177.703125 306.601562 184.5 305 189.101562 311.703125 C 189.101562 311.703125 187.796875 311.898438 185.898438 311 C 185.898438 311 178.898438 308.5 173.398438 313 C 173.398438 313 168.601562 317.898438 161.796875 317 C 161.796875 317 170.601562 325.5 184.601562 318.296875 C 184.601562 318.296875 189.296875 314.898438 192.796875 317.5 C 196.296875 320.203125 204.296875 314.898438 204.296875 314.898438 Z M 204.296875 315 " transform="matrix(0.5,0,0,0.5,0,0)"/>
<path style="fill-rule:nonzero;fill:rgb(95.686275%,77.254903%,23.921569%);fill-opacity:1;stroke-width:1.5;stroke-linecap:butt;stroke-linejoin:miter;stroke:rgb(0.392157%,0%,0.784314%);stroke-opacity:1;stroke-miterlimit:10;" d="M 282.203125 103.703125 C 282.203125 103.703125 280.601562 89.203125 292.203125 87.703125 C 298.210938 86.648438 304.382812 87.0625 310.203125 88.898438 L 315.703125 99.5 L 313.703125 106.703125 L 306.296875 110.101562 C 306.296875 110.101562 307.601562 99.101562 297.5 98.898438 C 294.898438 98.898438 293.5 99.898438 289.398438 99.203125 C 285.296875 98.5 283.101562 103 282.203125 103.703125 Z M 282.203125 103.703125 " transform="matrix(0.5,0,0,0.5,0,0)"/>
<path style="fill-rule:nonzero;fill:rgb(95.686275%,77.254903%,23.921569%);fill-opacity:1;stroke-width:1.5;stroke-linecap:butt;stroke-linejoin:miter;stroke:rgb(0.392157%,0%,0.784314%);stroke-opacity:1;stroke-miterlimit:10;" d="M 363.796875 139.601562 C 362 141.796875 355.101562 142.601562 355.101562 142.601562 C 355.101562 142.601562 362.203125 148.101562 365.296875 155.898438 C 368.296875 163.601562 282.898438 155.898438 282.898438 155.898438 C 282.898438 155.898438 286.703125 153.296875 289.203125 148.296875 C 289.203125 148.296875 285.398438 149.703125 281.601562 145.898438 C 281.601562 145.898438 284.398438 146.898438 288.101562 141.296875 C 288.101562 141.296875 293.601562 134.296875 297.5 132.296875 C 297.5 132.296875 295.703125 133.5 291.398438 131.101562 C 291.398438 131.101562 298.796875 130.101562 301.398438 117.601562 C 301.398438 117.601562 301.898438 114.796875 304.703125 110.601562 C 307.5 106.601562 306.898438 111.5 312.101562 105.203125 C 312.101562 105.203125 314.5 100.796875 312.398438 98.203125 C 310.398438 95.398438 308.101562 96.398438 303.796875 93.796875 C 299.398438 91.203125 297.5 89.796875 299 85.796875 C 300.5 81.796875 304.296875 82.398438 304.898438 82.398438 C 305.5 82.398438 305.703125 78.898438 310.398438 76.5 C 315.101562 74.101562 327.796875 75.203125 329.601562 76.203125 C 331.601562 77.203125 339.101562 79.5 343.601562 90.703125 C 348.101562 101.898438 342.398438 106.101562 354.398438 123.101562 C 354.398438 123.101562 349.601562 124.101562 346.5 123.101562 C 346.5 123.101562 352.796875 134.296875 363.796875 139.601562 Z M 363.796875 139.601562 " transform="matrix(0.5,0,0,0.5,0,0)"/>
<path style="fill:none;stroke-width:1.5;stroke-linecap:butt;stroke-linejoin:miter;stroke:rgb(0.392157%,0%,0.784314%);stroke-opacity:1;stroke-miterlimit:10;" d="M 311 92.203125 C 301 91.703125 304.898438 82.398438 304.898438 82.398438 " transform="matrix(0.5,0,0,0.5,0,0)"/>
<path style="fill-rule:nonzero;fill:rgb(95.686275%,77.254903%,23.921569%);fill-opacity:1;stroke-width:1.5;stroke-linecap:butt;stroke-linejoin:miter;stroke:rgb(0.392157%,0%,0.784314%);stroke-opacity:1;stroke-miterlimit:10;" d="M 328 93.5 C 328 93.5 326.296875 92.703125 324.796875 90.703125 C 322.796875 88 318.101562 86.703125 315.703125 89.296875 C 315.703125 89.296875 313.203125 92.101562 310.898438 92.296875 C 310.898438 92.296875 313.5 93 315.203125 94.601562 C 316.898438 96.203125 318.703125 97.398438 321.296875 97 C 323.898438 96.601562 324.296875 95.296875 325.5 94.5 C 326.703125 93.703125 328 93.5 328 93.5 Z M 328 93.5 " transform="matrix(0.5,0,0,0.5,0,0)"/>
<path style="fill-rule:nonzero;fill:rgb(21.176471%,58.039218%,26.274511%);fill-opacity:1;stroke-width:1.5;stroke-linecap:butt;stroke-linejoin:miter;stroke:rgb(0.392157%,0%,0.784314%);stroke-opacity:1;stroke-miterlimit:10;" d="M 202.796875 336.5 C 202.796875 336.5 202.601562 330.101562 210.601562 329.703125 L 234.101562 362.398438 C 234.101562 362.398438 233.203125 364.5 222.601562 364.296875 C 222.601562 364.296875 221.398438 364.296875 220.796875 365.5 C 219.898438 367.5 202.796875 336.5 202.796875 336.5 Z M 202.796875 336.5 " transform="matrix(0.5,0,0,0.5,0,0)"/>
<path style="fill-rule:nonzero;fill:rgb(95.686275%,77.254903%,23.921569%);fill-opacity:1;stroke-width:10;stroke-linecap:butt;stroke-linejoin:miter;stroke:rgb(0.392157%,0%,0.784314%);stroke-opacity:1;stroke-miterlimit:4;" d="M 1494.99758 1807.923112 C 1494.99758 1807.923112 1445.076455 1893.49477 1384.776718 1894.895883 C 1384.776718 1894.895883 1281.094382 1882.285869 1251.774802 1909.42594 C 1231.277043 1928.315014 1210.416032 1943.882933 1201.801784 1992.195373 C 1193.395108 2040.507813 1218.303778 2050.886425 1224.219587 2053.01404 C 1224.219587 2053.01404 1228.786176 2087.522926 1262.879917 2078.493533 C 1262.879917 2078.493533 1264.903747 2114.507318 1325.099698 2097.175035 C 1385.295649 2079.894646 1410.41189 2085.395311 1422.087829 2025.406932 C 1434.023233 1965.314767 1444.920776 1966.300735 1455.610747 1959.0876 C 1469.985125 1949.383597 1497.125196 1940.302311 1517.20781 1928.678266 C 1535.214703 1918.299653 1604.388153 1883.116158 1627.999496 1880.417719 C 1651.610839 1877.615493 1646.421533 1798.21911 1646.421533 1798.21911 L 1585.395293 1798.21911 L 1555.920034 1754.680831 Z M 1687.001907 1378.508031 C 1687.001907 1378.508031 1625.975667 1428.221583 1574.809108 1378.508031 C 1574.809108 1378.508031 1554.207563 1403.312914 1512.7969 1396.099778 C 1471.593809 1388.782857 1464.692032 1367.091557 1460.800053 1354.689115 C 1460.800053 1354.689115 1424.99384 1375.498233 1394.792079 1358.99624 C 1364.797889 1342.598032 1364.797889 1317.689363 1364.797889 1317.689363 C 1364.797889 1317.689363 1312.282112 1328.119868 1285.401506 1292.521228 C 1258.5209 1256.974481 1274.919107 1221.790986 1289.397272 1217.587648 C 1289.397272 1217.587648 1232.678156 1232.480956 1217.214023 1183.805265 C 1208.755454 1161.491248 1215.345873 1136.323114 1233.612231 1121.014661 C 1233.612231 1121.014661 1114.206297 1120.391944 1065.219247 1082.977047 C 1065.219247 1082.977047 1024.483194 1057.393768 1048.82104 1030.513162 C 1048.82104 1030.513162 941.298617 1013.284666 914.418011 970.524783 C 914.418011 970.524783 902.586393 958.693165 906.478373 937.987834 C 906.478373 937.987834 907.204876 926.311895 918.9846 925.585392 C 918.9846 925.585392 796.41319 906.592532 761.022122 866.21973 C 761.022122 866.21973 744.001198 847.590121 752.51166 822.681452 C 752.51166 822.681452 754.276024 816.194819 757.182036 811.680123 C 757.182036 811.680123 645.611954 788.224459 590.605309 738.510906 C 590.605309 738.510906 558.794863 710.177295 575.19307 672.191574 C 575.19307 672.191574 388.689408 621.180695 431.916328 538.982086 C 431.916328 538.982086 344.684092 510.700368 372.2912 431.978594 C 372.2912 431.978594 300.211738 395.393986 331.60704 337.377543 C 361.705016 281.903861 454.178451 347.081546 563.620917 377.387093 C 563.620917 377.387093 859.98219 470.587031 1005.905478 495.391915 L 1420.479144 1112.711771 L 1662.404596 1205.911709 Z M 1687.001907 1378.508031 " transform="matrix(0.075275,0,0,0.075275,1.8,13.1)"/>
<path style="fill-rule:nonzero;fill:rgb(95.686275%,77.254903%,23.921569%);fill-opacity:1;stroke-width:10;stroke-linecap:butt;stroke-linejoin:miter;stroke:rgb(0.392157%,0%,0.784314%);stroke-opacity:1;stroke-miterlimit:4;" d="M 1689.907918 923.924814 C 1689.907918 923.924814 1650.988122 894.709021 1581.710885 929.010334 C 1581.710885 929.010334 1558.410901 945.097183 1539.988864 927.505435 C 1531.94544 919.773369 1527.742102 908.875826 1528.572391 897.718818 C 1529.40268 886.613703 1535.162809 876.442663 1544.295988 870.007924 C 1595.981477 831.710844 1615.078124 716.819607 1536.512029 669.077991 C 1536.512029 669.077991 1422.502974 601.513225 1004.193007 495.080556 C 1004.193007 495.080556 969.217084 485.324661 950.379903 489.995036 C 931.85408 494.717305 917.427809 509.247362 912.809326 527.825078 C 912.809326 527.825078 894.024038 581.119252 957.022214 611.580479 C 957.022214 611.580479 985.407719 624.605637 1014.675405 633.012313 C 1014.675405 633.012313 982.501707 626.00675 968.698153 657.817196 C 955.724888 688.174637 974.717748 719.310474 1033.720159 739.289302 C 1033.720159 739.289302 1049.703222 745.51647 1072.380489 751.017134 C 1072.380489 751.017134 1021.888541 765.495298 1046.174494 806.283244 C 1046.174494 806.283244 1067.8139 849.09502 1144.200486 856.7233 C 1144.200486 856.7233 1087.221905 862.898574 1127.387134 917.07493 C 1127.387134 917.07493 1145.082668 946.809654 1200.815816 957.810983 C 1200.815816 957.810983 1158.574864 959.212096 1179.799126 997.094031 C 1201.179067 1035.079751 1251.307765 1056.511586 1300.709959 1059.988421 C 1300.709959 1059.988421 1327.382992 1061.389533 1346.116387 1057.186195 C 1346.116387 1057.186195 1299.101274 1080.693752 1326.708383 1119.9768 C 1326.708383 1119.9768 1346.998569 1147.999053 1397.801876 1146.59794 C 1397.801876 1146.59794 1384.724825 1190.603256 1421.880257 1207.209035 C 1450.888478 1220.182301 1475.018752 1199.425076 1475.018752 1199.425076 C 1475.018752 1199.425076 1465.210963 1246.492083 1507.503808 1263.097862 C 1507.503808 1263.097862 1528.624284 1273.995405 1560.123372 1263.097862 C 1560.123372 1263.097862 1584.097966 1317.014753 1669.721517 1279.080925 C 1755.293175 1241.406563 1689.907918 923.976707 1689.907918 923.976707 Z M 1694.889652 1413.276382 C 1694.889652 1413.276382 1682.383424 1480.685468 1582.904426 1565.47873 C 1582.904426 1565.47873 1506.102695 1633.199175 1508.022738 1711.194446 C 1509.994675 1790.694616 1494.32297 1799.620222 1464.121209 1826.500828 C 1464.121209 1826.500828 1526.392882 1831.378776 1556.490858 1789.91622 C 1556.490858 1789.91622 1555.193531 1858.882098 1546.008459 1865.213052 C 1546.008459 1865.213052 1565.624036 1866.406592 1593.905755 1835.478328 C 1593.905755 1835.478328 1610.874786 1817.523329 1626.702169 1810.621551 C 1626.702169 1810.621551 1608.280133 1858.311275 1622.706404 1902.524163 C 1622.706404 1902.524163 1627.324886 1885.19188 1651.610839 1877.615493 C 1651.610839 1877.615493 1695.616155 1868.586101 1712.585186 1805.120887 C 1712.585186 1805.120887 1723.690301 1763.087507 1792.604286 1725.724503 C 1792.604286 1725.724503 1870.599557 1696.301137 1868.575728 1657.900272 C 1866.603792 1619.395621 1694.993438 1413.276382 1694.993438 1413.276382 Z M 1694.889652 1413.276382 " transform="matrix(0.075275,0,0,0.075275,1.8,13.1)"/>
<path style="fill-rule:nonzero;fill:rgb(95.686275%,77.254903%,23.921569%);fill-opacity:1;stroke-width:10;stroke-linecap:butt;stroke-linejoin:miter;stroke:rgb(0.392157%,0%,0.784314%);stroke-opacity:1;stroke-miterlimit:10;" d="M 2056.480503 2282.225692 C 2056.480503 2282.225692 2038.577396 2360.999359 1976.513295 2354.720298 C 1976.513295 2354.720298 1932.611765 2350.51696 1935.881028 2277.295851 C 1935.881028 2277.295851 1871.014702 2311.908523 1860.48041 2226.284972 C 1860.48041 2226.284972 1801.478 2239.98474 1802.204503 2160.017533 C 1802.204503 2160.017533 1747.197858 2169.617749 1753.68449 2098.524255 C 1753.68449 2098.524255 1694.00747 2114.507318 1694.00747 2047.513376 C 1694.00747 2047.513376 1554.415135 2024.317177 1845.379529 1758.884169 L 2105.000515 1913.525492 Z M 2056.480503 2282.225692 " transform="matrix(0.075275,0,0,0.075275,1.8,13.1)"/>
<path style="fill-rule:nonzero;fill:rgb(95.686275%,77.254903%,23.921569%);fill-opacity:1;stroke-width:10;stroke-linecap:butt;stroke-linejoin:miter;stroke:rgb(0.392157%,0%,0.784314%);stroke-opacity:1;stroke-miterlimit:4;" d="M 2085.384938 1928.315014 C 2085.384938 1928.315014 2042.106125 1966.71588 2011.281646 1909.322154 C 2011.281646 1909.322154 1969.30016 1907.298324 1962.813527 1875.487878 C 1962.813527 1875.487878 1928.719786 1872.114829 1922.077474 1839.57788 C 1922.077474 1839.57788 1875.581291 1834.803718 1876.878618 1795.520671 C 1876.878618 1795.520671 1792.292928 1788.878359 1876.878618 1693.083768 C 1961.5162 1597.289177 2105.000515 1852.084107 2105.000515 1852.084107 Z M 2133.593592 1904.496099 C 2175.575078 1904.496099 2223.109122 2166.504165 2210.810467 2324.414751 C 2206.29577 2381.70469 2175.575078 2428.512231 2133.593592 2428.512231 C 2091.612105 2428.512231 2060.995199 2381.70469 2056.584289 2324.414751 C 2044.181847 2166.504165 2091.715891 1904.496099 2133.593592 1904.496099 " transform="matrix(0.075275,0,0,0.075275,1.8,13.1)"/>
<path style="fill-rule:nonzero;fill:rgb(95.686275%,77.254903%,23.921569%);fill-opacity:1;stroke-width:10;stroke-linecap:butt;stroke-linejoin:miter;stroke:rgb(0.392157%,0%,0.784314%);stroke-opacity:1;stroke-miterlimit:4;" d="M 2191.610034 1902.524163 C 2191.610034 1854.990119 2165.61161 1816.485467 2133.593592 1816.485467 C 2101.575573 1816.485467 2075.577149 1854.990119 2075.577149 1902.524163 C 2075.577149 1950.006314 2101.575573 1988.510965 2133.593592 1988.510965 C 2165.61161 1988.510965 2191.610034 1950.006314 2191.610034 1902.524163 Z M 2191.610034 1902.524163 " transform="matrix(0.075275,0,0,0.075275,1.8,13.1)"/>
<path style="fill:none;stroke-width:10;stroke-linecap:butt;stroke-linejoin:miter;stroke:rgb(0.392157%,0%,0.784314%);stroke-opacity:1;stroke-miterlimit:10;" d="M 1935.881028 2277.295851 C 1935.881028 2277.295851 1942.52334 2138.585698 2062.70767 1939.679595 M 1860.48041 2226.284972 C 1860.48041 2226.284972 1841.798908 2146.213978 2011.281646 1909.322154 C 2011.281646 1909.322154 1991.614176 1852.81061 2051.913913 1816.485467 M 1802.204503 2160.017533 C 1802.204503 2160.017533 1796.91141 2073.304227 1962.813527 1875.487878 C 1962.813527 1875.487878 1948.075898 1824.476999 2008.219956 1783.689053 M 1753.68449 2098.524255 C 1753.68449 2098.524255 1759.911658 2010.876875 1922.077474 1839.57788 C 1922.077474 1839.57788 1914.085943 1787.217781 1972.102385 1754.680831 M 1694.111256 2047.513376 C 1694.111256 2047.513376 1705.787195 1947.411661 1876.878618 1795.520671 C 1876.878618 1795.520671 1871.014702 1756.081944 1927.993283 1716.124287 " transform="matrix(0.075275,0,0,0.075275,1.8,13.1)"/>
<path style="fill:none;stroke-width:10;stroke-linecap:butt;stroke-linejoin:miter;stroke:rgb(0.392157%,0%,0.784314%);stroke-opacity:1;stroke-miterlimit:4;" d="M 372.2912 431.978594 C 372.2912 431.978594 506.590443 509.818186 925.211768 587.605884 M 431.916328 538.982086 C 431.916328 538.982086 795.582901 657.609624 965.013746 672.191574 M 575.089284 672.191574 C 575.089284 672.191574 788.525445 739.185516 1038.390534 781.478361 M 757.182036 811.783909 C 757.182036 811.783909 998.225305 869.696565 1113.376008 879.296782 M 918.9846 925.585392 C 918.9846 925.585392 1122.924331 968.085809 1174.506034 973.223222 M 1048.82104 1030.513162 C 1048.82104 1030.513162 1197.598446 1053.086644 1256.808429 1051.893103 M 1233.612231 1120.910875 C 1233.612231 1120.910875 1293.808182 1118.108649 1322.712617 1113.282595 M 1289.293485 1217.587648 C 1289.293485 1217.587648 1340.511937 1203.784093 1370.609912 1184.479875 M 1364.694103 1317.689363 C 1364.694103 1317.689363 1404.080937 1302.484696 1423.12569 1261.125926 M 1460.800053 1354.689115 C 1460.800053 1354.689115 1491.209387 1327.393365 1493.181323 1296.984031 M 1574.809108 1378.508031 C 1574.809108 1378.508031 1563.392635 1368.596456 1571.176594 1325.78468 M 1560.123372 1262.994076 C 1560.123372 1262.994076 1554.103777 1250.799207 1556.075713 1231.391202 M 1345.078526 650.08513 C 1345.078526 650.08513 1413.888725 677.692239 1436.825458 715.67796 C 1459.710298 753.715573 1444.713204 790.61154 1436.825458 811.680123 C 1432.881586 822.421986 1384.413467 915.88139 1441.392048 983.601835 M 1346.012601 1056.978623 C 1346.012601 1056.978623 1346.375853 1056.719158 1370.609912 1048.987092 M 1200.815816 957.603411 C 1200.815816 957.603411 1241.811334 965.802515 1282.08035 966.217659 M 1144.0967 856.411942 C 1144.0967 856.411942 1192.305354 861.289889 1237.607996 860.61528 M 1072.380489 750.809562 C 1072.380489 750.809562 1141.917192 764.613116 1179.176409 765.287726 M 1014.675405 633.012313 C 1014.675405 633.012313 1100.402743 657.402052 1164.075529 666.120086 M 1305.691693 716.508248 C 1305.691693 716.508248 1244.094629 773.798188 1318.19792 826.988576 C 1318.19792 826.988576 1287.425335 875.301016 1349.022399 925.689178 M 1332.624192 949.508093 C 1332.624192 949.508093 1323.387227 1041.722063 1436.202742 1041.722063 C 1436.202742 1041.722063 1414.511442 1123.816886 1523.383085 1121.118447 C 1523.383085 1121.118447 1535.785526 1186.711276 1614.403514 1173.478546 M 1441.288262 1894.999669 C 1441.288262 1894.999669 1423.385156 1898.995435 1384.724825 1894.999669 M 1275.905076 1943.312109 C 1275.905076 1943.312109 1221.521147 1935.009219 1224.1158 2053.117826 M 1308.70149 1970.192715 C 1308.70149 1970.192715 1259.506868 1964.01744 1262.724238 2078.59732 M 1783.419214 1694.121629 C 1783.419214 1694.121629 1759.807872 1698.895791 1743.409664 1717.577293 C 1727.011457 1736.310688 1695.616155 1732.678173 1695.616155 1732.678173 C 1695.616155 1732.678173 1712.585186 1718.874619 1718.604781 1684.417626 C 1724.416804 1649.908741 1743.51345 1639.478235 1743.51345 1639.478235 M 1687.209479 1606.889393 C 1687.209479 1606.889393 1663.598136 1611.715448 1647.199929 1630.293164 C 1630.801721 1648.974666 1599.302633 1645.497831 1599.302633 1645.497831 C 1599.302633 1645.497831 1616.323557 1631.694276 1622.291259 1597.185391 C 1628.310854 1562.676505 1647.199929 1552.297893 1647.199929 1552.297893 M 1670.915058 1740.825384 C 1670.915058 1740.825384 1650.313512 1745.080615 1635.991027 1761.323143 C 1621.720436 1777.617564 1594.217113 1774.607767 1594.217113 1774.607767 C 1594.217113 1774.607767 1609.214208 1762.62047 1614.195942 1732.418708 C 1619.385248 1702.320733 1635.991027 1693.187554 1635.991027 1693.187554 " transform="matrix(0.075275,0,0,0.075275,1.8,13.1)"/>
<path style="fill-rule:nonzero;fill:rgb(95.686275%,77.254903%,23.921569%);fill-opacity:1;stroke-width:10;stroke-linecap:butt;stroke-linejoin:miter;stroke:rgb(0.392157%,0%,0.784314%);stroke-opacity:1;stroke-miterlimit:4;" d="M 1494.976904 1807.923112 C 1494.976904 1807.923112 1445.107672 1893.49477 1384.807935 1894.895883 C 1384.807935 1894.895883 1281.125599 1882.285869 1251.806019 1909.42594 C 1231.30826 1928.315014 1210.395356 1943.882933 1201.781108 1992.195373 C 1193.374432 2040.507813 1218.283101 2050.886425 1224.19891 2053.01404 C 1224.19891 2053.01404 1228.817393 2087.522926 1262.911134 2078.493533 C 1262.911134 2078.493533 1264.88307 2114.507318 1325.079021 2097.175035 C 1385.274973 2079.894646 1410.391214 2085.395311 1422.119046 2025.406932 C 1434.002557 1965.314767 1444.9001 1966.300735 1455.59007 1959.0876 C 1470.016341 1949.383597 1497.104519 1940.302311 1517.187134 1928.678266 C 1535.194026 1918.299653 1604.41937 1883.116158 1627.97882 1880.417719 C 1651.590163 1877.615493 1646.400857 1798.21911 1646.400857 1798.21911 L 1585.374617 1798.21911 L 1555.899358 1754.680831 Z M 1686.98123 1378.508031 C 1686.98123 1378.508031 1626.006884 1428.221583 1574.788432 1378.508031 C 1574.788432 1378.508031 1554.186887 1403.312914 1512.776224 1396.099778 C 1471.625026 1388.782857 1464.723249 1367.091557 1460.779377 1354.689115 C 1460.779377 1354.689115 1425.025057 1375.498233 1394.823296 1358.99624 C 1364.777213 1342.598032 1364.777213 1317.689363 1364.777213 1317.689363 C 1364.777213 1317.689363 1312.313328 1328.119868 1285.38083 1292.521228 C 1258.500224 1256.974481 1274.898431 1221.790986 1289.376595 1217.587648 C 1289.376595 1217.587648 1232.709373 1232.480956 1217.193347 1183.805265 C 1208.734778 1161.491248 1215.325197 1136.323114 1233.591555 1121.014661 C 1233.591555 1121.014661 1114.185621 1120.391944 1065.198571 1082.977047 C 1065.198571 1082.977047 1024.514411 1057.393768 1048.800364 1030.513162 C 1048.800364 1030.513162 941.277941 1013.284666 914.397335 970.524783 C 914.397335 970.524783 902.61761 958.693165 906.50959 937.987834 C 906.50959 937.987834 907.184199 926.311895 919.015817 925.585392 C 919.015817 925.585392 796.392514 906.592532 761.001446 866.21973 C 761.001446 866.21973 743.980522 847.590121 752.490984 822.681452 C 752.490984 822.681452 754.307241 816.194819 757.213253 811.680123 C 757.213253 811.680123 645.591278 788.224459 590.584633 738.510906 C 590.584633 738.510906 558.774186 710.177295 575.224287 672.191574 C 575.224287 672.191574 388.720625 621.180695 431.895652 538.982086 C 431.895652 538.982086 344.715309 510.700368 372.322417 431.978594 C 372.322417 431.978594 300.191062 395.393986 331.586364 337.377543 C 361.68434 281.903861 454.209668 347.081546 563.600241 377.387093 C 563.600241 377.387093 860.013407 470.587031 1005.884802 495.391915 L 1420.510361 1112.711771 L 1662.383919 1205.911709 Z M 1686.98123 1378.508031 " transform="matrix(-0.075275,0,0,0.075275,321.800006,13.1)"/>
<path style="fill-rule:nonzero;fill:rgb(95.686275%,77.254903%,23.921569%);fill-opacity:1;stroke-width:10;stroke-linecap:butt;stroke-linejoin:miter;stroke:rgb(0.392157%,0%,0.784314%);stroke-opacity:1;stroke-miterlimit:4;" d="M 1689.887242 923.924814 C 1689.887242 923.924814 1651.019339 894.709021 1581.690209 929.010334 C 1581.690209 929.010334 1558.390225 945.097183 1540.020081 927.505435 C 1531.924764 919.773369 1527.721426 908.875826 1528.551715 897.718818 C 1529.382004 886.613703 1535.142133 876.442663 1544.275312 870.007924 C 1596.012694 831.710844 1615.109341 716.819607 1536.491353 669.077991 C 1536.491353 669.077991 1422.482297 601.513225 1004.224224 495.080556 C 1004.224224 495.080556 969.196408 485.324661 950.411119 489.995036 C 931.885297 494.717305 917.407133 509.247362 912.78865 527.825078 C 912.78865 527.825078 894.003362 581.119252 957.001538 611.580479 C 957.001538 611.580479 985.387043 624.605637 1014.706622 633.012313 C 1014.706622 633.012313 982.481031 626.00675 968.677477 657.817196 C 955.704212 688.174637 974.697072 719.310474 1033.699483 739.289302 C 1033.699483 739.289302 1049.682546 745.51647 1072.411706 751.017134 C 1072.411706 751.017134 1021.919758 765.495298 1046.20571 806.283244 C 1046.20571 806.283244 1067.793224 849.09502 1144.17981 856.7233 C 1144.17981 856.7233 1087.201229 862.898574 1127.418351 917.07493 C 1127.418351 917.07493 1145.113885 946.809654 1200.79514 957.810983 C 1200.79514 957.810983 1158.606081 959.212096 1179.77845 997.094031 C 1201.210284 1035.079751 1251.287088 1056.511586 1300.689283 1059.988421 C 1300.689283 1059.988421 1327.414209 1061.389533 1346.095711 1057.186195 C 1346.095711 1057.186195 1299.080598 1080.693752 1326.687706 1119.9768 C 1326.687706 1119.9768 1346.977893 1147.999053 1397.7812 1146.59794 C 1397.7812 1146.59794 1384.704149 1190.603256 1421.911474 1207.209035 C 1450.919695 1220.182301 1474.998075 1199.425076 1474.998075 1199.425076 C 1474.998075 1199.425076 1465.190287 1246.492083 1507.483132 1263.097862 C 1507.483132 1263.097862 1528.603608 1273.995405 1560.102696 1263.097862 C 1560.102696 1263.097862 1584.07729 1317.014753 1669.700841 1279.080925 C 1755.324392 1241.406563 1689.887242 923.976707 1689.887242 923.976707 Z M 1694.920869 1413.276382 C 1694.920869 1413.276382 1682.414641 1480.685468 1582.88375 1565.47873 C 1582.88375 1565.47873 1506.082019 1633.199175 1508.002062 1711.194446 C 1510.025892 1790.694616 1494.302294 1799.620222 1464.100533 1826.500828 C 1464.100533 1826.500828 1526.424099 1831.378776 1556.522075 1789.91622 C 1556.522075 1789.91622 1555.224748 1858.882098 1545.987783 1865.213052 C 1545.987783 1865.213052 1565.60336 1866.406592 1593.885079 1835.478328 C 1593.885079 1835.478328 1610.906003 1817.523329 1626.681493 1810.621551 C 1626.681493 1810.621551 1608.31135 1858.311275 1622.685728 1902.524163 C 1622.685728 1902.524163 1627.30421 1885.19188 1651.590163 1877.615493 C 1651.590163 1877.615493 1695.595479 1868.586101 1712.616403 1805.120887 C 1712.616403 1805.120887 1723.721518 1763.087507 1792.58361 1725.724503 C 1792.58361 1725.724503 1870.578881 1696.301137 1868.606945 1657.900272 C 1866.583115 1619.395621 1695.024655 1413.276382 1695.024655 1413.276382 Z M 1694.920869 1413.276382 " transform="matrix(-0.075275,0,0,0.075275,321.800006,13.1)"/>
<path style="fill-rule:nonzero;fill:rgb(95.686275%,77.254903%,23.921569%);fill-opacity:1;stroke-width:10;stroke-linecap:butt;stroke-linejoin:miter;stroke:rgb(0.392157%,0%,0.784314%);stroke-opacity:1;stroke-miterlimit:10;" d="M 2056.511719 2282.225692 C 2056.511719 2282.225692 2038.608613 2360.999359 1976.492619 2354.720298 C 1976.492619 2354.720298 1932.591089 2350.51696 1935.912245 2277.295851 C 1935.912245 2277.295851 1870.994026 2311.908523 1860.511627 2226.284972 C 1860.511627 2226.284972 1801.509217 2239.98474 1802.183826 2160.017533 C 1802.183826 2160.017533 1747.177181 2169.617749 1753.715707 2098.524255 C 1753.715707 2098.524255 1693.986794 2114.507318 1693.986794 2047.513376 C 1693.986794 2047.513376 1554.394459 2024.317177 1845.410746 1758.884169 L 2104.979839 1913.525492 Z M 2056.511719 2282.225692 " transform="matrix(-0.075275,0,0,0.075275,321.800006,13.1)"/>
<path style="fill-rule:nonzero;fill:rgb(95.686275%,77.254903%,23.921569%);fill-opacity:1;stroke-width:10;stroke-linecap:butt;stroke-linejoin:miter;stroke:rgb(0.392157%,0%,0.784314%);stroke-opacity:1;stroke-miterlimit:4;" d="M 2085.416155 1928.315014 C 2085.416155 1928.315014 2042.085448 1966.71588 2011.312863 1909.322154 C 2011.312863 1909.322154 1969.279484 1907.298324 1962.792851 1875.487878 C 1962.792851 1875.487878 1928.69911 1872.114829 1922.108691 1839.57788 C 1922.108691 1839.57788 1875.612508 1834.803718 1876.909835 1795.520671 C 1876.909835 1795.520671 1792.324145 1788.878359 1876.909835 1693.083768 C 1961.495524 1597.289177 2104.979839 1852.084107 2104.979839 1852.084107 Z M 2133.624808 1904.496099 C 2175.606295 1904.496099 2223.088446 2166.504165 2210.78979 2324.414751 C 2206.275094 2381.70469 2175.606295 2428.512231 2133.624808 2428.512231 C 2091.591429 2428.512231 2060.974523 2381.70469 2056.615506 2324.414751 C 2044.213064 2166.504165 2091.695215 1904.496099 2133.624808 1904.496099 " transform="matrix(-0.075275,0,0,0.075275,321.800006,13.1)"/>
<path style="fill-rule:nonzero;fill:rgb(95.686275%,77.254903%,23.921569%);fill-opacity:1;stroke-width:10;stroke-linecap:butt;stroke-linejoin:miter;stroke:rgb(0.392157%,0%,0.784314%);stroke-opacity:1;stroke-miterlimit:4;" d="M 2191.589358 1902.524163 C 2191.589358 1854.990119 2165.642827 1816.485467 2133.624808 1816.485467 C 2101.554897 1816.485467 2075.608366 1854.990119 2075.608366 1902.524163 C 2075.608366 1950.006314 2101.554897 1988.510965 2133.624808 1988.510965 C 2165.642827 1988.510965 2191.589358 1950.006314 2191.589358 1902.524163 Z M 2191.589358 1902.524163 " transform="matrix(-0.075275,0,0,0.075275,321.800006,13.1)"/>
<path style="fill:none;stroke-width:10;stroke-linecap:butt;stroke-linejoin:miter;stroke:rgb(0.392157%,0%,0.784314%);stroke-opacity:1;stroke-miterlimit:10;" d="M 1935.912245 2277.295851 C 1935.912245 2277.295851 1942.502664 2138.585698 2062.686994 1939.679595 M 1860.511627 2226.284972 C 1860.511627 2226.284972 1841.778232 2146.213978 2011.312863 1909.322154 C 2011.312863 1909.322154 1991.5935 1852.81061 2051.893237 1816.485467 M 1802.183826 2160.017533 C 1802.183826 2160.017533 1796.890734 2073.304227 1962.792851 1875.487878 C 1962.792851 1875.487878 1948.107115 1824.476999 2008.199279 1783.689053 M 1753.715707 2098.524255 C 1753.715707 2098.524255 1759.890981 2010.876875 1922.108691 1839.57788 C 1922.108691 1839.57788 1914.117159 1787.217781 1972.081709 1754.680831 M 1694.09058 2047.513376 C 1694.09058 2047.513376 1705.818412 1947.411661 1876.909835 1795.520671 C 1876.909835 1795.520671 1870.994026 1756.081944 1928.0245 1716.124287 " transform="matrix(-0.075275,0,0,0.075275,321.800006,13.1)"/>
<path style="fill:none;stroke-width:10;stroke-linecap:butt;stroke-linejoin:miter;stroke:rgb(0.392157%,0%,0.784314%);stroke-opacity:1;stroke-miterlimit:4;" d="M 372.322417 431.978594 C 372.322417 431.978594 506.62166 509.818186 925.191092 587.605884 M 431.895652 538.982086 C 431.895652 538.982086 795.614118 657.609624 964.99307 672.191574 M 575.120501 672.191574 C 575.120501 672.191574 788.504768 739.185516 1038.421751 781.478361 M 757.213253 811.783909 C 757.213253 811.783909 998.204629 869.696565 1113.407225 879.296782 M 919.015817 925.585392 C 919.015817 925.585392 1122.903655 968.085809 1174.485358 973.223222 M 1048.800364 1030.513162 C 1048.800364 1030.513162 1197.57777 1053.086644 1256.787753 1051.893103 M 1233.591555 1120.910875 C 1233.591555 1120.910875 1293.787506 1118.108649 1322.691941 1113.282595 M 1289.324702 1217.587648 C 1289.324702 1217.587648 1340.491261 1203.784093 1370.589236 1184.479875 M 1364.72532 1317.689363 C 1364.72532 1317.689363 1404.112154 1302.484696 1423.105014 1261.125926 M 1460.779377 1354.689115 C 1460.779377 1354.689115 1491.18871 1327.393365 1493.21254 1296.984031 M 1574.788432 1378.508031 C 1574.788432 1378.508031 1563.423852 1368.596456 1571.207811 1325.78468 M 1560.102696 1262.994076 C 1560.102696 1262.994076 1554.083101 1250.799207 1556.10693 1231.391202 M 1345.109743 650.08513 C 1345.109743 650.08513 1413.919942 677.692239 1436.804782 715.67796 C 1459.689622 753.715573 1444.692528 790.61154 1436.804782 811.680123 C 1432.912803 822.421986 1384.39279 915.88139 1441.423265 983.601835 M 1345.991925 1056.978623 C 1345.991925 1056.978623 1346.40707 1056.719158 1370.589236 1048.987092 M 1200.79514 957.603411 C 1200.79514 957.603411 1241.790658 965.802515 1282.111567 966.217659 M 1144.076024 856.411942 C 1144.076024 856.411942 1192.284678 861.289889 1237.58732 860.61528 M 1072.411706 750.809562 C 1072.411706 750.809562 1141.896515 764.613116 1179.207626 765.287726 M 1014.706622 633.012313 C 1014.706622 633.012313 1100.382066 657.402052 1164.106746 666.120086 M 1305.72291 716.508248 C 1305.72291 716.508248 1244.125846 773.798188 1318.177244 826.988576 C 1318.177244 826.988576 1287.404659 875.301016 1349.001723 925.689178 M 1332.603515 949.508093 C 1332.603515 949.508093 1323.418444 1041.722063 1436.182066 1041.722063 C 1436.182066 1041.722063 1414.490766 1123.816886 1523.414301 1121.118447 C 1523.414301 1121.118447 1535.816743 1186.711276 1614.382838 1173.478546 M 1441.319479 1894.999669 C 1441.319479 1894.999669 1423.416373 1898.995435 1384.704149 1894.999669 M 1275.884399 1943.312109 C 1275.884399 1943.312109 1221.500471 1935.009219 1224.095124 2053.117826 M 1308.680814 1970.192715 C 1308.680814 1970.192715 1259.486192 1964.01744 1262.703562 2078.59732 M 1783.398538 1694.121629 C 1783.398538 1694.121629 1759.787195 1698.895791 1743.388988 1717.577293 C 1726.990781 1736.310688 1695.595479 1732.678173 1695.595479 1732.678173 C 1695.595479 1732.678173 1712.616403 1718.874619 1718.584105 1684.417626 C 1724.396128 1649.908741 1743.492774 1639.478235 1743.492774 1639.478235 M 1687.188803 1606.889393 C 1687.188803 1606.889393 1663.57746 1611.715448 1647.179253 1630.293164 C 1630.781045 1648.974666 1599.281957 1645.497831 1599.281957 1645.497831 C 1599.281957 1645.497831 1616.302881 1631.694276 1622.322476 1597.185391 C 1628.290178 1562.676505 1647.179253 1552.297893 1647.179253 1552.297893 M 1670.894381 1740.825384 C 1670.894381 1740.825384 1650.292836 1745.080615 1636.022244 1761.323143 C 1621.699759 1777.617564 1594.196437 1774.607767 1594.196437 1774.607767 C 1594.196437 1774.607767 1609.193532 1762.62047 1614.175266 1732.418708 C 1619.416465 1702.320733 1636.022244 1693.187554 1636.022244 1693.187554 " transform="matrix(-0.075275,0,0,0.075275,321.800006,13.1)"/>
<path style="fill-rule:nonzero;fill:rgb(0%,50.588238%,77.64706%);fill-opacity:1;stroke-width:1.5;stroke-linecap:butt;stroke-linejoin:miter;stroke:rgb(0.392157%,0%,0.784314%);stroke-opacity:1;stroke-miterlimit:10;" d="M 466 256 L 451.703125 317.703125 L 445.796875 313.5 L 459.796875 254.296875 L 450 254.5 L 473.101562 212.203125 L 474.601562 260.898438 Z M 503 269 L 460 319.796875 L 455.398438 314.601562 L 498.203125 264.398438 L 489.5 259.796875 L 528.703125 233.796875 L 508.398438 277.601562 Z M 503 269 " transform="matrix(0.5,0,0,0.5,0,0)"/>
<path style="fill-rule:nonzero;fill:rgb(0%,50.588238%,77.64706%);fill-opacity:1;stroke-width:1.5;stroke-linecap:butt;stroke-linejoin:miter;stroke:rgb(0.392157%,0%,0.784314%);stroke-opacity:1;stroke-miterlimit:10;" d="M 492.601562 242 L 454.101562 316 L 448.203125 312.5 L 486.898438 238.703125 L 477.5 236.296875 L 510.203125 201.703125 L 499.703125 249.203125 Z M 444.601562 338.601562 L 441.703125 350.296875 L 449.703125 358.296875 L 438.5 405.296875 L 428.5 392 L 413.898438 398.796875 L 425 351.796875 L 435.398438 348.796875 L 438 337.101562 C 438 337.101562 441.203125 335.898438 444.601562 338.601562 Z M 444.601562 338.601562 " transform="matrix(0.5,0,0,0.5,0,0)"/>
<path style="fill-rule:nonzero;fill:rgb(0%,50.588238%,77.64706%);fill-opacity:1;stroke-width:1.5;stroke-linecap:butt;stroke-linejoin:miter;stroke:rgb(0.392157%,0%,0.784314%);stroke-opacity:1;stroke-miterlimit:10;" d="M 447.296875 330.796875 L 441.601562 341.398438 L 447.296875 351.101562 L 424.898438 393.601562 L 418.601562 378 L 402.703125 380.601562 L 425.101562 338.203125 L 435.796875 338.203125 L 441.296875 327.601562 C 441.296875 327.601562 445.296875 327.601562 447.296875 330.796875 Z M 447.296875 330.796875 " transform="matrix(0.5,0,0,0.5,0,0)"/>
<path style="fill-rule:nonzero;fill:rgb(0%,50.588238%,77.64706%);fill-opacity:1;stroke-width:1.5;stroke-linecap:butt;stroke-linejoin:miter;stroke:rgb(0.392157%,0%,0.784314%);stroke-opacity:1;stroke-miterlimit:10;" d="M 448.203125 333.898438 L 433.203125 353.101562 L 436.601562 363.898438 L 405.703125 399.898438 L 402.898438 383.296875 L 386.898438 382.101562 L 417.703125 346.101562 L 428.101562 348.601562 L 444.101562 328.203125 C 444.101562 328.203125 448.5 330.398438 448.203125 333.898438 Z M 65.5 288.898438 C 69.101562 287.398438 71.703125 286 71.703125 282.203125 C 71.703125 281.203125 71.203125 279.164062 70.203125 276.101562 L 46 202 C 45.1875 199.296875 44.1875 196.65625 43 194.101562 C 41.898438 192.101562 39.796875 191.203125 36.898438 190.101562 L 67.601562 190.101562 C 64.296875 191.601562 61.203125 192.796875 61.296875 196.398438 C 61.296875 197.734375 61.664062 199.632812 62.398438 202.101562 L 81 260.101562 L 99.5 202.101562 C 100.140625 200.265625 100.515625 198.34375 100.601562 196.398438 C 100.601562 192.703125 97.398438 191.398438 94.296875 190 L 124.101562 190 C 121.398438 191.101562 119.101562 192 118.101562 194.101562 C 116.882812 196.695312 115.851562 199.367188 115 202.101562 L 90.796875 276 C 90.132812 277.992188 89.632812 280.03125 89.296875 282.101562 C 89.296875 282.101562 88.203125 286.796875 95.5 288.796875 Z M 580.796875 281.296875 L 580.796875 197.601562 C 580.796875 196.203125 580.53125 195.101562 580 194.296875 C 579.203125 193.101562 577.5 191.296875 574.5 190.101562 L 602.203125 190.101562 C 599.992188 190.929688 598.078125 192.390625 596.703125 194.296875 C 596.234375 195.101562 596 196.203125 596 197.601562 L 596 281.296875 C 596 282.765625 596.234375 283.898438 596.703125 284.703125 C 597.203125 285.5 599.203125 287.5 602.203125 288.898438 L 574.5 288.898438 C 577.5 287.5 579.5 285.5 580 284.703125 C 580.53125 283.898438 580.796875 282.765625 580.796875 281.296875 Z M 580.796875 281.296875 " transform="matrix(0.5,0,0,0.5,0,0)"/>
<path style="fill-rule:nonzero;fill:rgb(100%,100%,100%);fill-opacity:1;stroke-width:1.5;stroke-linecap:butt;stroke-linejoin:miter;stroke:rgb(0.392157%,0%,0.784314%);stroke-opacity:1;stroke-miterlimit:4;" d="M 324.796875 309.796875 C 324.796875 309.796875 399 276.898438 399.101562 201 L 250.5 201 C 250.703125 277 324.796875 309.796875 324.796875 309.796875 Z M 324.796875 309.796875 " transform="matrix(0.5,0,0,0.5,0,0)"/>
<path style="fill-rule:nonzero;fill:rgb(65.098041%,0%,19.607843%);fill-opacity:1;stroke-width:1.5;stroke-linecap:butt;stroke-linejoin:miter;stroke:rgb(0.392157%,0%,0.784314%);stroke-opacity:1;stroke-miterlimit:4;" d="M 262 201 L 262 249.5 C 262 249.5 267.601562 260.796875 273.398438 267.796875 L 273.398438 201 Z M 284.796875 201 L 284.796875 281 C 284.796875 281 292 288 296.203125 291.398438 L 296.203125 201 Z M 307.703125 201 L 307.703125 299.898438 C 307.703125 299.898438 315.796875 305.101562 319.101562 306.898438 L 319.101562 200.898438 L 307.703125 200.898438 Z M 387.703125 201 L 387.703125 249.5 C 387.703125 249.5 382 260.796875 376.203125 267.796875 L 376.203125 201 Z M 364.796875 201 L 364.796875 281 C 364.796875 281 357.703125 288 353.398438 291.398438 L 353.398438 201 Z M 342 201 L 342 299.898438 C 342 299.898438 333.796875 305.101562 330.5 306.898438 L 330.5 200.898438 L 342 200.898438 Z M 342 201 " transform="matrix(0.5,0,0,0.5,0,0)"/>
<path style="fill-rule:nonzero;fill:rgb(8.627451%,14.901961%,40.392157%);fill-opacity:1;stroke-width:1.5;stroke-linecap:butt;stroke-linejoin:miter;stroke:rgb(0.392157%,0%,0.784314%);stroke-opacity:1;stroke-miterlimit:10;" d="M 399.101562 145.796875 C 399.101562 145.796875 362.703125 164.796875 324.796875 144.203125 C 286.898438 164.796875 250.5 145.796875 250.5 145.796875 L 250.5 201 L 399.101562 201 Z M 399.101562 145.796875 " transform="matrix(0.5,0,0,0.5,0,0)"/>
</g>
</svg>
