<?xml version="1.0" encoding="UTF-8"?>
<svg xmlns="http://www.w3.org/2000/svg" xmlns:xlink="http://www.w3.org/1999/xlink" width="px" height="px" viewBox="0 0 320 240" version="1.1">
<defs>
<clipPath id="clip1">
  <path d="M 72 160 L 320 160 L 320 239.996094 L 72 239.996094 Z M 72 160 "/>
</clipPath>
<clipPath id="clip2">
  <path d="M 0 0 L 320 0 L 320 239.996094 L 0 239.996094 Z M 0 0 "/>
</clipPath>
<clipPath id="clip3">
  <path d="M 44 0 L 320 0 L 320 239.996094 L 44 239.996094 Z M 44 0 "/>
</clipPath>
</defs>
<g id="surface1">
<path style=" stroke:none;fill-rule:evenodd;fill:rgb(0%,0%,0.392157%);fill-opacity:1;" d="M -0.00390625 191.152344 L -0.00390625 48.9375 L 105.886719 120.042969 Z M -0.00390625 191.152344 "/>
<g clip-path="url(#clip1)" clip-rule="nonzero">
<path style=" stroke:none;fill-rule:evenodd;fill:rgb(0%,4.705882%,54.11765%);fill-opacity:1;" d="M 72.230469 240.042969 L 191.101562 160.074219 L 359.941406 160.074219 L 359.941406 239.996094 L 72.230469 239.996094 Z M 72.230469 240.042969 "/>
</g>
<path style=" stroke:none;fill-rule:evenodd;fill:rgb(88.235295%,22.352941%,17.647059%);fill-opacity:1;" d="M 64.636719 0 L 359.941406 0 L 359.941406 80.0625 L 191.054688 80.0625 C 191.054688 80.0625 66.183594 -0.796875 64.636719 0 "/>
<path style=" stroke:none;fill-rule:evenodd;fill:rgb(100%,72.549021%,8.235294%);fill-opacity:1;" d="M -0.00390625 30 L -0.00390625 48.9375 L 105.886719 119.996094 L -0.0507812 191.152344 L -0.0507812 210.042969 L 133.308594 120.042969 Z M -0.00390625 30 "/>
<g clip-path="url(#clip2)" clip-rule="nonzero">
<path style=" stroke:none;fill-rule:evenodd;fill:rgb(0%,47.058824%,27.843139%);fill-opacity:1;" d="M -0.00390625 30 L -0.00390625 0 L 44.527344 0 L 185.710938 95.621094 L 359.988281 95.621094 L 359.988281 144.464844 L 185.710938 144.464844 L 44.480469 239.996094 L -0.00390625 239.996094 L -0.00390625 210.042969 L 133.308594 120.042969 L 0.0429688 30 Z M -0.00390625 30 "/>
</g>
<g clip-path="url(#clip3)" clip-rule="nonzero">
<path style=" stroke:none;fill-rule:evenodd;fill:rgb(100%,100%,100%);fill-opacity:1;" d="M 44.480469 0 L 72.230469 0 L 191.101562 80.015625 L 359.941406 80.015625 L 359.941406 95.621094 L 185.710938 95.621094 Z M 44.480469 240.042969 L 72.230469 240.042969 L 191.101562 160.074219 L 359.941406 160.074219 L 359.941406 144.511719 L 185.710938 144.511719 L 44.480469 239.996094 Z M 44.480469 240.042969 "/>
</g>
</g>
</svg>
